<?xml version="1.0" encoding="utf-8"?>
<!-- Generator: Adobe Illustrator 16.0.0, SVG Export Plug-In . SVG Version: 6.00 Build 0)  -->
<!DOCTYPE svg PUBLIC "-//W3C//DTD SVG 1.1//EN" "http://www.w3.org/Graphics/SVG/1.1/DTD/svg11.dtd">
<svg version="1.1" id="Calque_1" xmlns="http://www.w3.org/2000/svg" xmlns:xlink="http://www.w3.org/1999/xlink" x="0px" y="0px"
	 width="595.279px" height="595.281px" viewBox="0 0 595.279 595.281" enable-background="new 0 0 595.279 595.281"
	 xml:space="preserve">
<polygon points="557.657,85.367 557.657,45.916 539.728,45.916 539.728,22.38 511.097,22.38 511.097,0.861 469.853,0.861 
	469.853,22.38 441.689,22.38 441.689,0.861 400.446,0.861 400.446,22.38 365.56,22.38 365.56,0.861 324.314,0.861 324.314,22.38 
	288.675,22.38 288.675,0.861 247.431,0.861 247.431,22.38 215.152,22.38 215.152,0.861 173.908,0.861 173.908,22.38 139.836,22.38 
	139.836,0.861 98.592,0.861 98.592,22.38 55.554,22.38 55.554,45.916 37.622,45.916 37.622,85.367 55.554,85.367 55.554,125.715 
	37.622,125.715 37.622,165.166 55.554,165.166 55.554,207.818 37.622,207.818 37.622,247.268 55.554,247.268 55.554,286.72 
	37.622,286.72 37.622,326.171 55.554,326.171 55.554,368.759 37.622,368.759 37.622,408.212 55.554,408.212 55.554,445.197 
	37.622,445.197 37.622,484.648 55.554,484.648 55.554,516.923 37.622,516.923 37.622,556.376 55.554,556.376 55.554,574.695 
	98.592,574.695 98.592,594.419 139.836,594.419 139.836,574.695 173.908,574.695 173.908,594.419 215.152,594.419 215.152,574.695 
	247.431,574.695 247.431,594.419 288.675,594.419 288.675,574.695 324.314,574.695 324.314,594.419 365.56,594.419 365.56,574.695 
	400.446,574.695 400.446,594.419 441.689,594.419 441.689,574.695 469.853,574.695 469.853,594.419 511.097,594.419 
	511.097,574.695 539.728,574.695 539.728,556.376 557.657,556.376 557.657,516.923 539.728,516.923 539.728,484.648 
	557.657,484.648 557.657,445.197 539.728,445.197 539.728,408.212 557.657,408.212 557.657,368.759 539.728,368.759 
	539.728,326.171 557.657,326.171 557.657,286.72 539.728,286.72 539.728,247.268 557.657,247.268 557.657,207.818 539.728,207.818 
	539.728,165.166 557.657,165.166 557.657,125.715 539.728,125.715 539.728,85.367 "/>
</svg>
