<?xml version="1.0" encoding="utf-8"?>
<!-- Generator: Adobe Illustrator 16.0.0, SVG Export Plug-In . SVG Version: 6.00 Build 0)  -->
<!DOCTYPE svg PUBLIC "-//W3C//DTD SVG 1.1//EN" "http://www.w3.org/Graphics/SVG/1.1/DTD/svg11.dtd">
<svg version="1.1" id="Calque_1" xmlns="http://www.w3.org/2000/svg" xmlns:xlink="http://www.w3.org/1999/xlink" x="0px" y="0px"
	 width="595.279px" height="595.281px" viewBox="0 0 595.279 595.281" enable-background="new 0 0 595.279 595.281"
	 xml:space="preserve">
<path d="M550.9,219.189c0,0,0-43.96,0-68.713c0-69.797-42.896-113.08-120.809-113.08h-65.855V1.686H299.31h-1.624H232.76v35.709
	h-65.854c-77.912,0-120.809,43.283-120.809,113.08c0,24.753,0,68.713,0,68.713H0v77.369v2.166v77.37h46.099c0,0,0,43.961,0,68.713
	c0,69.797,42.896,113.082,120.809,113.082h65.854v35.707h64.926h1.625h64.926v-35.707h65.855
	c77.91,0,120.807-43.285,120.807-113.082c0-24.752,0-68.713,0-68.713h44.381v-77.37v-2.166v-77.368H550.9z"/>
</svg>
