<?xml version="1.0" encoding="utf-8"?>
<!-- Generator: Adobe Illustrator 16.0.0, SVG Export Plug-In . SVG Version: 6.00 Build 0)  -->
<!DOCTYPE svg PUBLIC "-//W3C//DTD SVG 1.1//EN" "http://www.w3.org/Graphics/SVG/1.1/DTD/svg11.dtd">
<svg version="1.1" id="Calque_1" xmlns="http://www.w3.org/2000/svg" xmlns:xlink="http://www.w3.org/1999/xlink" x="0px" y="0px"
	 width="595.279px" height="595.281px" viewBox="0 0 595.279 595.281" enable-background="new 0 0 595.279 595.281"
	 xml:space="preserve">
<path d="M525.01,254.899c-16.96,0.016-338.194,0.002-381.869,0l0,0c0,0-0.223,0-0.643,0c-2.778,0-4.262,0-4.262,0v0.001
	c-13.826,0.004-53.084,0.012-67.967-0.001c-33.889-0.029-70.067,5.937-70.067,43.958c0,34.938,36.179,41.524,62.359,41.524
	c10.553,0,59.849,0,75.674,0c3.09,0,4.904,0,4.904,0c44.541,0,377.81,0,389.577,0c26.182,0,62.36-6.586,62.36-41.524
	C595.077,260.836,558.899,254.871,525.01,254.899z"/>
</svg>
