<?xml version="1.0" encoding="utf-8"?>
<!-- Generator: Adobe Illustrator 16.0.0, SVG Export Plug-In . SVG Version: 6.00 Build 0)  -->
<!DOCTYPE svg PUBLIC "-//W3C//DTD SVG 1.1//EN" "http://www.w3.org/Graphics/SVG/1.1/DTD/svg11.dtd">
<svg version="1.1" id="Calque_1" xmlns="http://www.w3.org/2000/svg" xmlns:xlink="http://www.w3.org/1999/xlink" x="0px" y="0px"
	 width="1190.551px" height="1190.551px" viewBox="0 0 1190.551 1190.551" enable-background="new 0 0 1190.551 1190.551"
	 xml:space="preserve">
<g>
	<path fill="#010202" d="M593.559,87.805V46.56h-19.725V17.93h-18.318V0h-39.453v17.93h-32.276V0h-39.449v17.93H407.35V0h-39.453
		v17.93H325.31V0h-39.452v17.93h-39.452V0h-39.448v17.93h-42.653V0h-39.451v17.93H84.505V0H45.054v17.93H21.518v28.63H0v41.245
		h21.518v28.164H0v41.243h21.518v34.886H0v41.246h21.518v35.638H0v41.244h21.518v32.28H0v41.243h21.518v34.071H0v41.244h21.518
		v43.038h23.536v17.883H37.11c0,0-37.109-1.79-37.109,32.636v15.202c0,0,1.341,26.824,37.557,26.824c0,0,34.625,0,69.943,0
		c25.068,0,50.484,0,64.119,0c43.812,0,67.062,12.076,107.363,38.899c76.218,50.729,266.464,188.222,266.464,188.222l44.263-64.38
		L318.775,566.93c0,0-60.356-46.944-123.396-46.944h-31.075v-17.883h42.653v17.933h39.448v-17.933h39.452v17.933h39.452v-17.933
		h42.587v17.933h39.453v-17.933h36.987v17.933h39.449v-17.933h32.276v17.933h39.453v-17.933h18.318v-43.038h19.725v-41.244h-19.725
		v-34.071h19.725v-41.243h-19.725v-32.28h19.725v-41.244h-19.725v-35.638h19.725v-41.246h-19.725v-34.886h19.725v-41.243h-19.725
		V87.805H593.559z M84.505,519.986v-17.883h40.348v17.883H84.505z"/>
	<path fill="#010202" d="M0,702.148c0,59.276,48.225,107.5,107.5,107.5c43.35,0,80.785-25.794,97.774-62.84
		c-4.34,11.655-6.717,24.257-6.717,37.405c0,59.275,48.226,107.5,107.5,107.5c59.276,0,107.5-48.225,107.5-107.5
		c0-59.273-48.224-107.5-107.5-107.5c-43.35,0-80.786,25.796-97.774,62.841c4.34-11.655,6.717-24.258,6.717-37.406
		c0-59.275-48.226-107.5-107.5-107.5C48.225,594.648,0,642.872,0,702.148z"/>
</g>
</svg>
