<?xml version="1.0" encoding="utf-8"?>
<!-- Generator: Adobe Illustrator 16.0.0, SVG Export Plug-In . SVG Version: 6.00 Build 0)  -->
<!DOCTYPE svg PUBLIC "-//W3C//DTD SVG 1.1//EN" "http://www.w3.org/Graphics/SVG/1.1/DTD/svg11.dtd">
<svg version="1.1" id="Calque_1" xmlns="http://www.w3.org/2000/svg" xmlns:xlink="http://www.w3.org/1999/xlink" x="0px" y="0px"
	 width="1190.551px" height="1190.551px" viewBox="0 0 1190.551 1190.551" enable-background="new 0 0 1190.551 1190.551"
	 xml:space="preserve">
<g>
	<polygon fill="#010202" points="520.034,667.204 520.034,627.751 502.103,627.751 502.103,609.433 459.065,609.433 
		459.065,589.709 417.821,589.709 417.821,609.433 383.749,609.433 383.749,589.709 342.506,589.709 342.506,609.433 
		310.226,609.433 310.226,589.709 271.287,589.709 268.982,589.709 268.982,609.433 233.344,609.433 233.344,589.709 
		192.098,589.709 192.098,609.433 157.212,609.433 157.212,589.709 115.969,589.709 115.969,609.433 87.805,609.433 87.805,589.709 
		64.38,589.709 46.56,589.709 46.56,609.433 17.93,609.433 17.93,627.751 0,627.751 0,667.204 17.93,667.204 17.93,699.481 
		0,699.481 0,738.932 17.93,738.932 17.93,775.917 0,775.917 0,815.37 17.93,815.37 17.93,857.957 0,857.957 0,897.409 
		17.93,897.409 17.93,936.862 0,936.862 0,976.311 17.93,976.311 17.93,1018.965 0,1018.965 0,1058.414 17.93,1058.414 
		17.93,1098.763 0,1098.763 0,1138.215 17.93,1138.215 17.93,1161.749 46.56,1161.749 46.56,1183.268 87.805,1183.268 
		87.805,1161.749 115.969,1161.749 115.969,1183.268 157.212,1183.268 157.212,1161.749 192.098,1161.749 192.098,1183.268 
		233.344,1183.268 233.344,1161.749 268.982,1161.749 268.982,1183.268 310.226,1183.268 310.226,1161.749 342.506,1161.749 
		342.506,1183.268 383.749,1183.268 383.749,1161.749 417.821,1161.749 417.821,1183.268 459.065,1183.268 459.065,1161.749 
		502.103,1161.749 502.103,1138.215 520.034,1138.215 520.034,1098.763 502.103,1098.763 502.103,1058.414 520.034,1058.414 
		520.034,1018.965 502.103,1018.965 502.103,976.311 520.034,976.311 520.034,936.862 502.103,936.862 502.103,897.409 
		520.034,897.409 520.034,857.957 502.103,857.957 502.103,815.37 520.034,815.37 520.034,775.917 502.103,775.917 502.103,738.932 
		520.034,738.932 520.034,699.481 502.103,699.481 502.103,667.204 	"/>
	<path fill="#010202" d="M107.5,313.093c59.275,0,107.5-48.225,107.5-107.5c0-59.274-48.226-107.501-107.5-107.501
		C48.225,98.092,0,146.319,0,205.593C0,264.868,48.225,313.093,107.5,313.093z"/>
	<path fill="#010202" d="M163.787,482.209c0,59.275,48.226,107.5,107.5,107.5c59.272,0,107.5-48.225,107.5-107.5
		c0-59.276-48.227-107.5-107.5-107.5c-35.81,0-67.582,17.606-87.129,44.611l70.681-100.546c0,0,46.944-60.356,46.944-123.396V37.11
		c0,0,1.789-37.109-32.636-37.109h-15.202c0,0-26.824,1.342-26.824,37.557c0,0,0,101.218,0,134.062
		c0,43.812-12.076,67.062-38.898,107.363C137.492,355.2,0,545.447,0,545.447l64.38,44.263l117.852-167.648
		C170.593,439.238,163.787,459.944,163.787,482.209z"/>
</g>
</svg>
