<?xml version="1.0" encoding="utf-8"?>
<!-- Generator: Adobe Illustrator 16.0.0, SVG Export Plug-In . SVG Version: 6.00 Build 0)  -->
<!DOCTYPE svg PUBLIC "-//W3C//DTD SVG 1.1//EN" "http://www.w3.org/Graphics/SVG/1.1/DTD/svg11.dtd">
<svg version="1.1" id="Calque_1" xmlns="http://www.w3.org/2000/svg" xmlns:xlink="http://www.w3.org/1999/xlink" x="0px" y="0px"
	 width="1190.551px" height="1190.551px" viewBox="0 0 1190.551 1190.551" enable-background="new 0 0 1190.551 1190.551"
	 xml:space="preserve">
<path fill="#010202" d="M857.446,503.299h-43.038v-19.725h-41.244v19.725h-34.072v-19.725h-41.242v19.725h-32.28v-19.725h-40.531
	c50.474-8.808,88.969-52.938,88.969-105.896c0-59.276-48.228-107.5-107.5-107.5c-43.86,0-81.664,26.408-98.363,64.154
	c4.696-12.062,7.278-25.174,7.278-38.878c0-57.443-45.292-104.51-102.041-107.361c23.235,0,46.015,0,58.66,0
	c43.812,0,67.062,12.074,107.362,38.897c76.219,50.73,266.464,188.223,266.464,188.223l44.264-64.381L619.196,160.375
	c0,0-60.355-46.942-123.396-46.942h-158.27c0-0.001-37.109-1.791-37.109,32.635v15.201c0,0,1.341,26.825,37.557,26.825
	c0,0,31.144,0,64.484,0c-56.75,2.853-102.041,49.918-102.041,107.362c0,59.274,48.226,107.5,107.5,107.5
	c43.859,0,81.664-26.406,98.362-64.153c-4.695,12.062-7.277,25.174-7.277,38.877c0,52.957,38.494,97.089,88.969,105.896h-40.534
	V503.3h-34.886v-19.725h-41.243V503.3h-28.164v-19.725h-41.245V503.3h-28.63v18.318h-17.93v39.453h17.93v32.275h-17.93v39.451h17.93
	v36.985h-17.93v39.453h17.93v42.588h-17.93v39.45h17.93v39.452h-17.93v39.449h17.93v42.656h-17.93v39.45h17.93v40.348h-17.93v39.452
	h17.93v23.535h28.63v21.518h41.245v-21.518h28.164v21.518h41.243v-21.518h34.886v21.518h41.246v-21.518h35.638v21.518h41.244
	v-21.518h32.28v21.518h41.242v-21.518h34.071v21.518h41.244v-21.518h43.038v-23.535h17.932V992.63h-17.932v-40.348h17.932v-39.45
	h-17.932v-42.654h17.932v-39.449h-17.932v-39.452h17.932v-39.45h-17.932v-42.588h17.932v-39.453h-17.932V632.8h17.932v-39.451
	h-17.932v-32.277h17.932v-39.453h-17.932L857.446,503.299L857.446,503.299z M588.687,503.299v-19.605
	c5.798,0.972,11.75,1.485,17.819,1.485c6.068,0,12.021-0.515,17.817-1.485v19.605H588.687z"/>
</svg>
