<?xml version="1.0" encoding="utf-8"?>
<!-- Generator: Adobe Illustrator 16.0.0, SVG Export Plug-In . SVG Version: 6.00 Build 0)  -->
<!DOCTYPE svg PUBLIC "-//W3C//DTD SVG 1.1//EN" "http://www.w3.org/Graphics/SVG/1.1/DTD/svg11.dtd">
<svg version="1.1" id="Calque_1" xmlns="http://www.w3.org/2000/svg" xmlns:xlink="http://www.w3.org/1999/xlink" x="0px" y="0px"
	 width="1190.551px" height="1190.551px" viewBox="0 0 1190.551 1190.551" enable-background="new 0 0 1190.551 1190.551"
	 xml:space="preserve">
<g>
	<path fill="#010202" d="M852.574,337.314c0,0-101.219,0-134.062,0c-43.812,0-67.062-12.076-107.363-38.898
		c-76.218-50.732-266.465-188.223-266.465-188.223l-44.263,64.38l168.34,118.338c-17.312-11.928-38.272-18.924-60.839-18.924
		c-59.276,0-107.5,48.227-107.5,107.5c0,59.275,48.226,107.5,107.5,107.5s107.5-48.225,107.5-107.5
		c0-35.915-17.708-67.77-44.851-87.303l100.783,70.848c0,0,60.357,46.943,123.396,46.943h158.271c0,0,37.109,1.79,37.109-32.635
		v-15.202C890.131,364.139,888.787,337.314,852.574,337.314z"/>
	<path fill="#010202" d="M684.535,325.193c59.275,0,107.5-48.226,107.5-107.5c0-59.275-48.225-107.5-107.5-107.5
		s-107.5,48.225-107.5,107.5S625.262,325.193,684.535,325.193z"/>
	<polygon fill="#010202" points="870.694,508.317 842.065,508.317 842.065,486.801 800.819,486.801 800.819,508.317 
		772.655,508.317 772.655,486.801 731.41,486.801 731.41,508.317 696.526,508.317 696.526,486.801 655.28,486.801 655.28,508.317 
		619.643,508.317 619.643,486.801 578.398,486.801 578.398,508.317 546.118,508.317 546.118,486.801 504.875,486.801 
		504.875,508.317 470.803,508.317 470.803,486.801 429.559,486.801 429.559,508.317 386.522,508.317 386.522,531.853 
		368.59,531.853 368.59,571.305 386.522,571.305 386.522,611.652 368.59,611.652 368.59,651.104 386.522,651.104 386.522,693.757 
		368.59,693.757 368.59,733.205 386.522,733.205 386.522,772.656 368.59,772.656 368.59,812.109 386.522,812.109 386.522,854.695 
		368.59,854.695 368.59,894.148 386.522,894.148 386.522,931.137 368.59,931.137 368.59,970.588 386.522,970.588 386.522,1002.861 
		368.59,1002.861 368.59,1042.314 386.522,1042.314 386.522,1060.635 429.559,1060.635 429.559,1080.357 470.803,1080.357 
		470.803,1060.635 504.875,1060.635 504.875,1080.357 546.118,1080.357 546.118,1060.635 578.398,1060.635 578.398,1080.357 
		619.643,1080.357 619.643,1060.635 655.28,1060.635 655.28,1080.357 696.526,1080.357 696.526,1060.635 731.41,1060.635 
		731.41,1080.357 772.655,1080.357 772.655,1060.635 800.819,1060.635 800.819,1080.357 842.065,1080.357 842.065,1060.635 
		870.694,1060.635 870.694,1042.314 888.623,1042.314 888.623,1002.861 870.694,1002.861 870.694,970.588 888.623,970.588 
		888.623,931.137 870.694,931.137 870.694,894.148 888.623,894.148 888.623,854.695 870.694,854.695 870.694,812.109 
		888.623,812.109 888.623,772.656 870.694,772.656 870.694,733.205 888.623,733.205 888.623,693.757 870.694,693.757 
		870.694,651.104 888.623,651.104 888.623,611.652 870.694,611.652 870.694,571.305 888.623,571.305 888.623,531.853 
		870.694,531.853 	"/>
</g>
</svg>
