<?xml version="1.0" encoding="utf-8"?>
<!-- Generator: Adobe Illustrator 16.0.0, SVG Export Plug-In . SVG Version: 6.00 Build 0)  -->
<!DOCTYPE svg PUBLIC "-//W3C//DTD SVG 1.1//EN" "http://www.w3.org/Graphics/SVG/1.1/DTD/svg11.dtd">
<svg version="1.1" id="Calque_1" xmlns="http://www.w3.org/2000/svg" xmlns:xlink="http://www.w3.org/1999/xlink" x="0px" y="0px"
	 width="1190.551px" height="1190.551px" viewBox="0 0 1190.551 1190.551" enable-background="new 0 0 1190.551 1190.551"
	 xml:space="preserve">
<g>
	<path fill="#010202" d="M17.93,572.041h28.63v21.518h41.245v-21.518h28.164v21.518h41.243v-21.518h34.886v21.518h41.246v-21.518
		h35.638v21.518h41.244v-21.518h32.28v21.518h38.508c-56.75,2.853-102.041,49.917-102.041,107.363
		c0,59.273,48.226,107.5,107.5,107.5c59.275,0,107.499-48.227,107.499-107.5c0-59.276-48.224-107.501-107.499-107.501
		c-0.911,0-1.819,0.012-2.725,0.035v-21.415h34.071v21.518h41.244v-21.518h43.038v-23.536h17.932v-39.451h-17.932v-40.348h17.932
		v-39.451h-17.932v-42.653h17.932v-39.449h-17.932v-39.451h17.932v-39.452h-17.932v-42.587h17.932v-39.453h-17.932v-36.986h17.932
		v-39.451h-17.932V77.496h17.932V38.043h-17.932V19.724h-43.038V0h-41.244v19.724h-34.071V0h-41.243v19.724h-32.28V0h-41.244v19.724
		h-35.638V0h-41.246v19.724h-34.886V0h-41.243v19.724H87.805V0H46.56v19.724H17.93v18.319H0v39.453h17.93v32.275H0v39.451h17.93
		v36.986H0v39.453h17.93v42.587H0v39.452h17.93v39.451H0v39.449h17.93v42.653H0v39.451h17.93v40.348H0v39.451h17.93V572.041z"/>
	<path fill="#010202" d="M552.153,819.057c0,0-101.218,0-134.062,0c-43.812,0-67.062-12.076-107.363-38.899
		C234.509,729.429,44.262,591.937,44.262,591.937l-44.263,64.38l168.458,118.42c-17.335-11.978-38.339-19.005-60.957-19.005
		c-59.275,0-107.5,48.225-107.5,107.5c0,59.271,48.225,107.5,107.5,107.5S215,922.504,215,863.232
		c0-35.935-17.727-67.804-44.891-87.333l100.824,70.876c0,0,60.356,46.944,123.396,46.944H552.6c0,0,37.109,1.79,37.109-32.637
		V845.88C589.709,845.88,588.367,819.057,552.153,819.057z"/>
</g>
</svg>
