<?xml version="1.0" encoding="utf-8"?>
<!-- Generator: Adobe Illustrator 16.0.0, SVG Export Plug-In . SVG Version: 6.00 Build 0)  -->
<!DOCTYPE svg PUBLIC "-//W3C//DTD SVG 1.1//EN" "http://www.w3.org/Graphics/SVG/1.1/DTD/svg11.dtd">
<svg version="1.1" id="Calque_1" xmlns="http://www.w3.org/2000/svg" xmlns:xlink="http://www.w3.org/1999/xlink" x="0px" y="0px"
	 width="1190.551px" height="1190.551px" viewBox="0 0 1190.551 1190.551" enable-background="new 0 0 1190.551 1190.551"
	 xml:space="preserve">
<g>
	<polygon fill="#010202" points="892.055,137.174 892.055,95.929 872.33,95.929 872.33,67.299 854.012,67.299 854.012,49.369 
		814.559,49.369 814.559,67.299 782.281,67.299 782.281,49.369 742.833,49.369 742.833,67.299 705.846,67.299 705.846,49.369 
		666.393,49.369 666.393,67.299 623.806,67.299 623.806,49.369 584.354,49.369 584.354,67.299 544.902,67.299 544.902,49.369 
		505.453,49.369 505.453,67.299 462.8,67.299 462.8,49.369 423.349,49.369 423.349,67.299 383.001,67.299 383.001,49.369 
		343.55,49.369 343.55,67.299 320.014,67.299 320.014,95.929 298.496,95.929 298.496,137.174 320.014,137.174 320.014,165.338 
		298.496,165.338 298.496,206.581 320.014,206.581 320.014,241.467 298.496,241.467 298.496,282.713 320.014,282.713 
		320.014,318.351 298.496,318.351 298.496,359.595 320.014,359.595 320.014,391.875 298.496,391.875 298.496,433.118 
		320.014,433.118 320.014,467.19 298.496,467.19 298.496,508.434 320.014,508.434 320.014,551.472 343.55,551.472 343.55,569.404 
		383.001,569.404 383.001,551.472 423.349,551.472 423.349,569.404 462.8,569.404 462.8,551.472 505.453,551.472 505.453,569.404 
		544.902,569.404 544.902,551.472 557.509,551.472 584.354,551.472 584.354,569.404 623.806,569.404 623.806,551.472 
		666.393,551.472 666.393,569.404 705.846,569.404 705.846,551.472 742.833,551.472 742.833,569.404 782.281,569.404 
		782.281,551.472 814.559,551.472 814.559,569.404 854.012,569.404 854.012,551.472 872.33,551.472 872.33,508.434 892.055,508.434 
		892.055,467.19 872.33,467.19 872.33,433.118 892.055,433.118 892.055,391.875 872.33,391.875 872.33,359.595 892.055,359.595 
		892.055,318.351 872.33,318.351 872.33,282.713 892.055,282.713 892.055,241.467 872.33,241.467 872.33,206.581 892.055,206.581 
		892.055,165.338 872.33,165.338 872.33,137.174 	"/>
	<path fill="#010202" d="M320.106,945.802v158.27c0,0-1.79,37.11,32.637,37.11h15.2c0,0,26.825-1.342,26.825-37.557
		c0,0,0-101.22,0-134.062c0-43.812,12.076-67.062,38.898-107.364c50.729-76.218,188.223-266.465,188.223-266.465l-64.38-44.262
		L367.05,822.405C367.05,822.405,320.106,882.763,320.106,945.802z"/>
	<path fill="#010202" d="M502.268,1077.063c59.275,0,107.5-48.225,107.5-107.5c0-36.461-18.252-68.735-46.094-88.184
		c15.817,9.167,34.173,14.422,53.733,14.422c59.275,0,107.499-48.228,107.499-107.5c0-59.274-48.226-107.5-107.499-107.5
		c-59.276,0-107.5,48.226-107.5,107.5c0,36.46,18.251,68.735,46.094,88.184c-15.818-9.167-34.173-14.422-53.734-14.422
		c-59.274,0-107.5,48.227-107.5,107.5C394.768,1028.839,442.992,1077.063,502.268,1077.063z"/>
</g>
</svg>
