<?xml version="1.0" encoding="utf-8"?>
<!-- Generator: Adobe Illustrator 16.0.0, SVG Export Plug-In . SVG Version: 6.00 Build 0)  -->
<!DOCTYPE svg PUBLIC "-//W3C//DTD SVG 1.1//EN" "http://www.w3.org/Graphics/SVG/1.1/DTD/svg11.dtd">
<svg version="1.1" id="Calque_1" xmlns="http://www.w3.org/2000/svg" xmlns:xlink="http://www.w3.org/1999/xlink" x="0px" y="0px"
	 width="1190.551px" height="1190.551px" viewBox="0 0 1190.551 1190.551" enable-background="new 0 0 1190.551 1190.551"
	 xml:space="preserve">
<g>
	<path fill="#010202" d="M552.153,227.121c0,0-101.218,0-134.062,0c-43.812,0-67.062-12.076-107.363-38.898
		C234.509,137.491,44.262,0,44.262,0L-0.001,64.38l168.34,118.338c-17.312-11.928-38.272-18.924-60.839-18.924
		c-59.276,0-107.5,48.227-107.5,107.5c0,59.275,48.226,107.5,107.5,107.5c59.275,0,107.5-48.225,107.5-107.5
		c0-35.915-17.708-67.77-44.85-87.303l100.783,70.848c0,0,60.356,46.943,123.396,46.943H552.6c0,0,37.109,1.79,37.109-32.635
		v-15.202C589.709,253.946,588.367,227.121,552.153,227.121z"/>
	<path fill="#010202" d="M384.115,215c59.275,0,107.5-48.226,107.5-107.5c0-59.275-48.225-107.5-107.5-107.5
		c-59.276,0-107.5,48.225-107.5,107.5C276.615,166.775,324.84,215,384.115,215z"/>
	<polygon fill="#010202" points="570.273,398.124 541.643,398.124 541.643,376.608 500.398,376.608 500.398,398.124 
		472.234,398.124 472.234,376.608 430.99,376.608 430.99,398.124 396.105,398.124 396.105,376.608 354.859,376.608 354.859,398.124 
		319.221,398.124 319.221,376.608 277.977,376.608 277.977,398.124 245.697,398.124 245.697,376.608 204.453,376.608 
		204.453,398.124 170.382,398.124 170.382,376.608 129.138,376.608 129.138,398.124 86.101,398.124 86.101,421.66 68.168,421.66 
		68.168,461.112 86.101,461.112 86.101,501.459 68.168,501.459 68.168,540.91 86.101,540.91 86.101,583.564 68.168,583.564 
		68.168,623.013 86.101,623.013 86.101,662.464 68.168,662.464 68.168,701.916 86.101,701.916 86.101,744.503 68.168,744.503 
		68.168,783.956 86.101,783.956 86.101,820.943 68.168,820.943 68.168,860.395 86.101,860.395 86.101,892.669 68.168,892.669 
		68.168,932.122 86.101,932.122 86.101,950.442 129.138,950.442 129.138,970.165 170.382,970.165 170.382,950.442 204.453,950.442 
		204.453,970.165 245.697,970.165 245.697,950.442 277.977,950.442 277.977,970.165 319.221,970.165 319.221,950.442 
		354.859,950.442 354.859,970.165 396.105,970.165 396.105,950.442 430.99,950.442 430.99,970.165 472.234,970.165 472.234,950.442 
		500.398,950.442 500.398,970.165 541.643,970.165 541.643,950.442 570.273,950.442 570.273,932.122 588.202,932.122 
		588.202,892.669 570.273,892.669 570.273,860.395 588.202,860.395 588.202,820.943 570.273,820.943 570.273,783.956 
		588.202,783.956 588.202,744.503 570.273,744.503 570.273,701.916 588.202,701.916 588.202,662.464 570.273,662.464 
		570.273,623.013 588.202,623.013 588.202,583.564 570.273,583.564 570.273,540.91 588.202,540.91 588.202,501.459 570.273,501.459 
		570.273,461.112 588.202,461.112 588.202,421.66 570.273,421.66 	"/>
</g>
</svg>
