<?xml version="1.0" encoding="utf-8"?>
<!-- Generator: Adobe Illustrator 16.0.0, SVG Export Plug-In . SVG Version: 6.00 Build 0)  -->
<!DOCTYPE svg PUBLIC "-//W3C//DTD SVG 1.1//EN" "http://www.w3.org/Graphics/SVG/1.1/DTD/svg11.dtd">
<svg version="1.1" id="Calque_1" xmlns="http://www.w3.org/2000/svg" xmlns:xlink="http://www.w3.org/1999/xlink" x="0px" y="0px"
	 width="1190.551px" height="1190.551px" viewBox="0 0 1190.551 1190.551" enable-background="new 0 0 1190.551 1190.551"
	 xml:space="preserve">
<g>
	<polygon fill="#010202" points="593.559,87.805 593.559,46.56 573.834,46.56 573.834,17.93 555.516,17.93 555.516,0 516.063,0 
		516.063,17.93 483.786,17.93 483.786,0 444.337,0 444.337,17.93 407.35,17.93 407.35,0 367.897,0 367.897,17.93 325.31,17.93 
		325.31,0 285.858,0 285.858,17.93 246.406,17.93 246.406,0 206.957,0 206.957,17.93 164.304,17.93 164.304,0 124.853,0 
		124.853,17.93 84.505,17.93 84.505,0 45.054,0 45.054,17.93 21.518,17.93 21.518,46.56 0,46.56 0,87.805 21.518,87.805 
		21.518,115.969 0,115.969 0,157.212 21.518,157.212 21.518,192.098 0,192.098 0,233.344 21.518,233.344 21.518,268.982 0,268.982 
		0,310.226 21.518,310.226 21.518,342.506 0,342.506 0,383.749 21.518,383.749 21.518,417.821 0,417.821 0,459.065 21.518,459.065 
		21.518,502.103 45.054,502.103 45.054,520.035 84.505,520.035 84.505,502.103 124.853,502.103 124.853,520.035 164.304,520.035 
		164.304,502.103 206.957,502.103 206.957,520.035 246.406,520.035 246.406,502.103 259.013,502.103 285.858,502.103 
		285.858,520.035 325.31,520.035 325.31,502.103 367.897,502.103 367.897,520.035 407.35,520.035 407.35,502.103 444.337,502.103 
		444.337,520.035 483.786,520.035 483.786,502.103 516.063,502.103 516.063,520.035 555.516,520.035 555.516,502.103 
		573.834,502.103 573.834,459.065 593.559,459.065 593.559,417.821 573.834,417.821 573.834,383.749 593.559,383.749 
		593.559,342.506 573.834,342.506 573.834,310.226 593.559,310.226 593.559,268.982 573.834,268.982 573.834,233.344 
		593.559,233.344 593.559,192.098 573.834,192.098 573.834,157.212 593.559,157.212 593.559,115.969 573.834,115.969 
		573.834,87.805 	"/>
	<path fill="#010202" d="M21.61,896.433v158.269c0,0-1.79,37.11,32.636,37.11h15.201c0,0,26.825-1.341,26.825-37.556
		c0,0,0-101.22,0-134.062c0-43.812,12.076-67.062,38.898-107.364c50.73-76.218,188.223-266.465,188.223-266.465l-64.38-44.262
		L68.554,773.036C68.554,773.036,21.61,833.394,21.61,896.433z"/>
	<path fill="#010202" d="M203.772,1027.694c59.275,0,107.5-48.224,107.5-107.5c0-36.461-18.252-68.735-46.094-88.183
		c15.817,9.167,34.173,14.422,53.733,14.422c59.276,0,107.5-48.228,107.5-107.5c0-59.275-48.226-107.5-107.5-107.5
		c-59.276,0-107.5,48.225-107.5,107.5c0,36.46,18.251,68.735,46.094,88.183c-15.818-9.167-34.173-14.422-53.734-14.422
		c-59.275,0-107.5,48.227-107.5,107.5C96.272,979.47,144.496,1027.694,203.772,1027.694z"/>
</g>
</svg>
