<?xml version="1.0" encoding="utf-8"?>
<!-- Generator: Adobe Illustrator 16.0.0, SVG Export Plug-In . SVG Version: 6.00 Build 0)  -->
<!DOCTYPE svg PUBLIC "-//W3C//DTD SVG 1.1//EN" "http://www.w3.org/Graphics/SVG/1.1/DTD/svg11.dtd">
<svg version="1.1" id="Calque_1" xmlns="http://www.w3.org/2000/svg" xmlns:xlink="http://www.w3.org/1999/xlink" x="0px" y="0px"
	 width="1190.551px" height="1190.551px" viewBox="0 0 1190.551 1190.551" enable-background="new 0 0 1190.551 1190.551"
	 xml:space="preserve">
<g>
	<path fill="#010202" d="M892.055,237.224v-41.245H872.33v-28.63h-18.318v-17.93h-39.453v17.93h-32.276v-17.93h-39.448v17.93
		h-36.988v-17.93h-39.453v17.93h-42.587v-17.93h-39.452v17.93h-39.452v-17.93h-39.447v17.93h-42.653v-17.93H423.35v17.93h-40.349
		v-17.93H343.55v17.93h-23.536v28.63h-21.518v41.245h21.518v28.164h-21.518v41.243h21.518v34.886h-21.518v41.246h21.518v35.638
		h-21.518v41.244h21.518v32.28h-21.518v41.243h21.518v34.071h-21.518v41.244h21.518v43.039h23.536v17.883h-7.944
		c0,0-37.108-1.791-37.108,32.636v15.202c0,0,1.341,26.824,37.557,26.824c0,0,34.625,0,69.943,0c25.067,0,50.483,0,64.119,0
		c43.812,0,67.062,12.075,107.362,38.898c76.219,50.729,266.464,188.222,266.464,188.222l44.264-64.38L617.271,716.35
		c0,0-60.355-46.945-123.396-46.945H462.8v-17.883h42.653v17.934h39.447v-17.934h39.452v17.934h39.452v-17.934h42.587v17.934h39.453
		v-17.934h36.987v17.934h39.448v-17.934h32.276v17.934h39.453v-17.934h18.318v-43.037h19.725V567.24h-19.725v-34.071h19.725v-41.243
		h-19.725v-32.28h19.725v-41.244h-19.725v-35.638h19.725v-41.246h-19.725v-34.886h19.725v-41.243h-19.725v-28.165H892.055z
		 M383.001,669.404v-17.883h40.348v17.883H383.001z"/>
	<path fill="#010202" d="M298.496,851.567c0,59.275,48.225,107.5,107.5,107.5c43.35,0,80.785-25.795,97.773-62.841
		c-4.34,11.655-6.717,24.258-6.717,37.405c0,59.275,48.227,107.5,107.5,107.5c59.276,0,107.5-48.225,107.5-107.5
		c0-59.272-48.224-107.5-107.5-107.5c-43.35,0-80.786,25.796-97.773,62.841c4.34-11.654,6.717-24.258,6.717-37.405
		c0-59.275-48.227-107.501-107.5-107.501C346.721,744.066,298.496,792.291,298.496,851.567z"/>
</g>
</svg>
