<?xml version="1.0" encoding="utf-8"?>
<!-- Generator: Adobe Illustrator 16.0.0, SVG Export Plug-In . SVG Version: 6.00 Build 0)  -->
<!DOCTYPE svg PUBLIC "-//W3C//DTD SVG 1.1//EN" "http://www.w3.org/Graphics/SVG/1.1/DTD/svg11.dtd">
<svg version="1.1" id="Calque_1" xmlns="http://www.w3.org/2000/svg" xmlns:xlink="http://www.w3.org/1999/xlink" x="0px" y="0px"
	 width="1190.551px" height="1190.551px" viewBox="0 0 1190.551 1190.551" enable-background="new 0 0 1190.551 1190.551"
	 xml:space="preserve">
<path fill="#010202" d="M557.025,389.867h-43.038v-19.724h-41.244v19.724H438.67v-19.724h-41.242v19.724h-32.28v-19.724h-40.532
	c50.474-8.808,88.969-52.939,88.969-105.896c0-59.276-48.227-107.5-107.5-107.5c-43.86,0-81.664,26.408-98.363,64.155
	c4.696-12.063,7.278-25.174,7.278-38.878c0-57.444-45.292-104.51-102.041-107.362c23.236,0,46.015,0,58.66,0
	c43.812,0,67.062,12.075,107.363,38.898c76.218,50.73,266.464,188.222,266.464,188.222l44.263-64.38L318.775,46.944
	c0,0-60.356-46.943-123.396-46.943H37.11C37.11,0,0-1.79,0,32.636v15.201c0,0,1.341,26.825,37.557,26.825c0,0,31.143,0,64.484,0
	C45.291,77.515,0,124.58,0,182.025c0,59.274,48.226,107.5,107.5,107.5c43.86,0,81.664-26.407,98.363-64.154
	c-4.696,12.063-7.278,25.174-7.278,38.877c0,52.957,38.494,97.089,88.969,105.896H247.02v19.724h-34.886v-19.724h-41.243v19.724
	h-28.164v-19.724h-41.245v19.724h-28.63v18.319h-17.93v39.453h17.93v32.275h-17.93v39.451h17.93v36.986h-17.93v39.453h17.93v42.588
	h-17.93v39.45h17.93v39.452h-17.93v39.449h17.93V799.4h-17.93v39.451h17.93v40.347h-17.93v39.452h17.93v23.536h28.63v21.517h41.245
	v-21.517h28.164v21.517h41.243v-21.517h34.886v21.517h41.246v-21.517h35.638v21.517h41.244v-21.517h32.28v21.517h41.242v-21.517
	h34.072v21.517h41.244v-21.517h43.038V918.65h17.932v-39.452h-17.932v-40.347h17.932V799.4h-17.932v-42.654h17.932v-39.449h-17.932
	v-39.452h17.932v-39.45h-17.932v-42.588h17.932v-39.453h-17.932v-36.986h17.932v-39.451h-17.932V447.64h17.932v-39.453h-17.932
	V389.867z M288.266,389.867v-19.605c5.798,0.972,11.75,1.485,17.819,1.485c6.069,0,12.021-0.514,17.818-1.485v19.605H288.266z"/>
</svg>
