<?xml version="1.0" encoding="utf-8"?>
<!-- Generator: Adobe Illustrator 16.0.0, SVG Export Plug-In . SVG Version: 6.00 Build 0)  -->
<!DOCTYPE svg PUBLIC "-//W3C//DTD SVG 1.1//EN" "http://www.w3.org/Graphics/SVG/1.1/DTD/svg11.dtd">
<svg version="1.1" id="Calque_1" xmlns="http://www.w3.org/2000/svg" xmlns:xlink="http://www.w3.org/1999/xlink" x="0px" y="0px"
	 width="1190.551px" height="1190.551px" viewBox="0 0 1190.551 1190.551" enable-background="new 0 0 1190.551 1190.551"
	 xml:space="preserve">
<g>
	<path fill="#010202" d="M852.574,336.936c0,0-101.219,0-134.062,0c-43.812,0-67.062-12.076-107.363-38.898
		c-76.218-50.732-266.465-188.223-266.465-188.223l-44.263,64.38l167.548,117.781c-17.157-11.597-37.825-18.375-60.047-18.375
		c-59.276,0-107.5,48.227-107.5,107.5c0,53.335,39.046,97.714,90.05,106.077h-37.877v19.725h-28.63v18.318h-17.93v39.453h17.931
		v32.276h-17.931V636.4h17.931v36.984h-17.931v39.454h17.931v42.587h-17.931v39.451h17.931v39.452h-17.931v39.45h17.931v42.651
		h-17.931v39.451h17.931v40.348h-17.931v39.451h17.931v23.536h28.63v21.52h41.245v-21.52h28.164v21.52h41.243v-21.52h34.886v21.52
		h41.246v-21.52h35.638v21.52h41.245v-21.52h32.279v21.52h41.242v-21.52h34.072v21.52H765.1v-21.52h43.037v-23.536h17.932v-39.451
		h-17.932v-40.348h17.932v-39.451h-17.932v-42.651h17.932v-39.45h-17.932v-39.452h17.932v-39.451h-17.932v-42.587h17.932v-39.454
		h-17.932V636.4h17.932v-39.451h-17.932v-32.276h17.932v-39.453h-17.932v-18.318H765.1v-19.725h-41.244v19.725h-34.072v-19.725
		h-41.242v19.725h-32.279v-19.725h-41.246v19.725h-35.638v-19.725h-41.246v19.725h-34.886v-19.725h-37.875
		c51.005-8.363,90.05-52.742,90.05-106.077c0-35.786-17.583-67.54-44.56-87.091l100.493,70.644c0,0,60.356,46.943,123.397,46.943
		h158.27c0,0,37.109,1.79,37.109-32.635v-15.202C890.131,363.76,888.787,336.936,852.574,336.936z M422.004,506.901H393.84v-19.224
		c4.609,0.605,9.31,0.923,14.082,0.923c4.771,0,9.472-0.317,14.082-0.923V506.901z"/>
	<path fill="#010202" d="M684.537,324.814c59.275,0,107.498-48.225,107.498-107.5c0-59.276-48.223-107.5-107.498-107.5
		c-59.273,0-107.5,48.226-107.5,107.5C577.038,276.59,625.264,324.814,684.537,324.814z"/>
</g>
</svg>
