<?xml version="1.0" encoding="utf-8"?>
<!-- Generator: Adobe Illustrator 16.0.0, SVG Export Plug-In . SVG Version: 6.00 Build 0)  -->
<!DOCTYPE svg PUBLIC "-//W3C//DTD SVG 1.1//EN" "http://www.w3.org/Graphics/SVG/1.1/DTD/svg11.dtd">
<svg version="1.1" id="Calque_1" xmlns="http://www.w3.org/2000/svg" xmlns:xlink="http://www.w3.org/1999/xlink" x="0px" y="0px"
	 width="1190.551px" height="1190.551px" viewBox="0 0 1190.551 1190.551" enable-background="new 0 0 1190.551 1190.551"
	 xml:space="preserve">
<g>
	<polygon fill="#010202" points="914.214,344.599 920.667,303.862 899.413,300.497 906.148,257.988 882.9,254.306 885.705,236.595 
		846.74,230.423 843.935,248.135 804.083,241.822 806.889,224.111 767.922,217.94 765.118,235.65 722.99,228.979 725.794,211.268 
		686.832,205.097 684.028,222.808 645.061,216.636 647.866,198.925 608.9,192.753 606.095,210.464 564.032,203.802 566.837,186.091 
		527.87,179.919 525.065,197.631 488.534,191.844 491.339,174.134 452.374,167.962 449.569,185.673 417.691,180.624 
		420.495,162.913 381.529,156.74 378.723,174.452 360.629,171.587 353.897,214.094 334.415,211.009 327.964,251.745 
		347.445,254.831 342.115,288.483 322.634,285.397 316.182,326.133 335.662,329.219 330.613,361.101 311.132,358.016 
		304.68,398.751 324.161,401.837 318.586,437.036 299.105,433.951 292.653,474.689 312.134,477.774 306.676,512.231 
		287.196,509.146 280.743,549.881 300.225,552.967 295.819,580.784 276.337,577.698 269.884,618.438 289.366,621.521 
		284.888,649.799 302.981,652.664 300.176,670.373 339.144,676.545 341.948,658.836 373.827,663.885 371.022,681.594 
		409.988,687.766 412.791,670.059 449.323,675.844 446.518,693.553 485.486,699.725 488.29,682.016 530.354,688.678 
		527.548,706.387 566.514,712.557 569.32,694.848 608.286,701.02 605.481,718.729 644.444,724.9 647.249,707.19 689.377,713.864 
		686.572,731.572 725.537,737.744 728.341,720.035 768.194,726.348 765.389,744.057 804.354,750.229 807.158,732.518 830.406,736.2 
		834.883,707.924 856.136,711.288 862.588,670.553 841.335,667.186 845.741,639.368 866.994,642.734 873.447,601.999 
		852.194,598.633 857.651,564.176 878.904,567.542 885.358,526.805 864.103,523.439 869.677,488.238 890.931,491.605 
		897.382,450.869 876.129,447.503 881.18,415.62 902.433,418.986 908.886,378.252 887.632,374.885 892.962,341.232 	"/>
	<path fill="#010202" d="M433.273,730.266l-141.019,71.852c0,0-33.878,15.252-18.249,45.925l6.9,13.546
		c0,0,13.373,23.292,45.642,6.852c0,0,90.186-45.952,119.449-60.862c39.038-19.891,65.236-19.686,113.322-14.082
		c90.941,10.598,322.873,46.734,322.873,46.734l10.21-77.458l-327.87-46.7C564.531,716.071,489.441,701.646,433.273,730.266z"/>
	<path fill="#010202" d="M790.103,839.38c-47.955-34.843-115.316-24.172-150.156,23.782c-10.088,13.886-16.353,29.4-19.01,45.279
		c1.46-14.391,0.031-29.299-4.718-43.915c-18.317-56.375-79.083-87.337-135.458-69.021c-56.375,18.317-87.337,79.082-69.02,135.458
		c18.316,56.374,79.083,87.335,135.458,69.021c39.398-12.802,66.377-46.336,72.807-84.614
		c-3.722,36.841,11.668,74.659,43.723,97.948c47.955,34.842,115.314,24.172,150.155-23.782
		C848.725,941.583,838.058,874.222,790.103,839.38z"/>
</g>
</svg>
