<?xml version="1.0" encoding="utf-8"?>
<!-- Generator: Adobe Illustrator 16.0.0, SVG Export Plug-In . SVG Version: 6.00 Build 0)  -->
<!DOCTYPE svg PUBLIC "-//W3C//DTD SVG 1.1//EN" "http://www.w3.org/Graphics/SVG/1.1/DTD/svg11.dtd">
<svg version="1.1" id="Calque_1" xmlns="http://www.w3.org/2000/svg" xmlns:xlink="http://www.w3.org/1999/xlink" x="0px" y="0px"
	 width="1190.551px" height="1190.551px" viewBox="0 0 1190.551 1190.551" enable-background="new 0 0 1190.551 1190.551"
	 xml:space="preserve">
<g>
	<polygon fill="#010202" points="644.329,187.858 650.782,147.121 629.528,143.756 636.262,101.247 613.014,97.565 615.82,79.854 
		576.854,73.682 574.049,91.394 534.198,85.081 537.003,67.37 498.037,61.199 495.233,78.909 453.105,72.238 455.909,54.527 
		416.947,48.356 414.142,66.067 375.175,59.895 377.981,42.184 339.014,36.012 336.209,53.723 294.147,47.061 296.951,29.35 
		257.985,23.178 255.179,40.89 218.649,35.103 221.453,17.393 182.489,11.221 179.683,28.932 147.805,23.883 150.61,6.172 
		111.643,-0.001 108.837,17.711 90.743,14.846 84.011,57.353 64.53,54.268 58.078,95.004 77.559,98.09 72.229,131.742 
		52.748,128.656 46.296,169.392 65.777,172.478 60.727,204.36 41.246,201.275 34.794,242.01 54.276,245.096 48.7,280.295 
		29.219,277.21 22.767,317.948 42.248,321.033 36.79,355.49 17.31,352.405 10.858,393.14 30.339,396.226 25.933,424.043 
		6.451,420.957 -0.002,461.696 19.481,464.78 15.002,493.058 33.095,495.923 30.29,513.632 69.258,519.804 72.063,502.095 
		103.942,507.144 101.136,524.853 140.102,531.025 142.906,513.317 179.437,519.102 176.632,536.812 215.6,542.984 218.405,525.274 
		260.468,531.936 257.662,549.645 296.628,555.816 299.434,538.107 338.401,544.279 335.595,561.988 374.558,568.159 
		377.364,550.449 419.491,557.123 416.686,574.831 455.652,581.003 458.456,563.294 498.308,569.606 495.503,587.315 
		534.468,593.487 537.273,575.777 560.52,579.459 564.998,551.182 586.251,554.547 592.703,513.811 571.45,510.445 575.856,482.627 
		597.109,485.993 603.561,445.258 582.308,441.892 587.765,407.435 609.018,410.801 615.472,370.064 594.217,366.698 
		599.792,331.497 621.045,334.864 627.497,294.128 606.244,290.762 611.294,258.879 632.547,262.245 639,221.511 617.747,218.144 
		623.077,184.491 	"/>
	<path fill="#010202" d="M163.387,573.524L22.368,645.376c0,0-33.878,15.252-18.249,45.925l6.901,13.546
		c0,0,13.373,23.292,45.641,6.851c0,0,90.186-45.952,119.45-60.862c39.038-19.891,65.236-19.686,113.322-14.082
		c90.941,10.598,322.873,46.734,322.873,46.734l10.21-77.458L294.646,559.33C294.646,559.33,219.555,544.905,163.387,573.524z"/>
	<path fill="#010202" d="M520.217,682.639c-47.955-34.843-115.316-24.172-150.156,23.782c-10.088,13.886-16.353,29.4-19.01,45.279
		c1.46-14.39,0.031-29.299-4.718-43.915c-18.317-56.375-79.083-87.337-135.458-69.02s-87.337,79.082-69.019,135.458
		c18.316,56.374,79.083,87.335,135.458,69.02c39.398-12.802,66.377-46.336,72.806-84.614c-3.721,36.841,11.668,74.659,43.723,97.948
		c47.955,34.842,115.315,24.172,150.156-23.782C578.839,784.842,568.172,717.48,520.217,682.639z"/>
</g>
</svg>
