<?xml version="1.0" encoding="utf-8"?>
<!-- Generator: Adobe Illustrator 16.0.0, SVG Export Plug-In . SVG Version: 6.00 Build 0)  -->
<!DOCTYPE svg PUBLIC "-//W3C//DTD SVG 1.1//EN" "http://www.w3.org/Graphics/SVG/1.1/DTD/svg11.dtd">
<svg version="1.1" id="Calque_1" xmlns="http://www.w3.org/2000/svg" xmlns:xlink="http://www.w3.org/1999/xlink" x="0px" y="0px"
	 width="1190.551px" height="1190.551px" viewBox="0 0 1190.551 1190.551" enable-background="new 0 0 1190.551 1190.551"
	 xml:space="preserve">
<g>
	<path fill="#010202" d="M318.351,681.95h28.63v21.519h41.245V681.95h28.164v21.519h41.243V681.95h34.886v21.519h41.246V681.95
		h35.638v21.519h41.244V681.95h32.281v21.519h38.508c-56.75,2.853-102.042,49.916-102.042,107.362
		c0,59.273,48.225,107.5,107.5,107.5c59.273,0,107.498-48.227,107.498-107.5c0-59.275-48.225-107.501-107.498-107.501
		c-0.912,0-1.82,0.012-2.725,0.035V681.95h34.07v21.519h41.244V681.95h43.037v-23.536h17.932v-39.451h-17.932v-40.348h17.932
		v-39.451h-17.932v-42.653h17.932v-39.449h-17.932v-39.451h17.932v-39.452h-17.932v-42.587h17.932v-39.453h-17.932v-36.986h17.932
		v-39.451h-17.932v-32.277h17.932v-39.453h-17.932v-18.319h-43.037v-19.724H718.24v19.724h-34.07v-19.724h-41.244v19.724h-32.279
		v-19.724h-41.245v19.724h-35.638v-19.724h-41.246v19.724h-34.886v-19.724h-41.243v19.724h-28.163v-19.724h-41.245v19.724h-28.63
		v18.319h-17.93v39.453h17.93v32.275h-17.93v39.451h17.93v36.986h-17.93v39.453h17.93v42.587h-17.93v39.452h17.93v39.451h-17.93
		v39.449h17.93v42.653h-17.93v39.451h17.93v40.348h-17.93v39.451h17.93V681.95z"/>
	<path fill="#010202" d="M852.574,928.966c0,0-101.219,0-134.062,0c-43.812,0-67.062-12.075-107.363-38.898
		c-76.218-50.729-266.465-188.222-266.465-188.222l-44.263,64.381l168.458,118.42c-17.335-11.979-38.339-19.005-60.957-19.005
		c-59.275,0-107.5,48.225-107.5,107.5c0,59.271,48.225,107.5,107.5,107.5c59.274,0,107.5-48.229,107.5-107.5
		c0-35.936-17.728-67.805-44.892-87.333l100.824,70.876c0,0,60.357,46.943,123.396,46.943h158.271c0,0,37.109,1.79,37.109-32.637
		v-15.202C890.131,955.789,888.787,928.966,852.574,928.966z"/>
</g>
</svg>
