<?xml version="1.0" encoding="utf-8"?>
<!-- Generator: Adobe Illustrator 16.0.0, SVG Export Plug-In . SVG Version: 6.00 Build 0)  -->
<!DOCTYPE svg PUBLIC "-//W3C//DTD SVG 1.1//EN" "http://www.w3.org/Graphics/SVG/1.1/DTD/svg11.dtd">
<svg version="1.1" id="Calque_1" xmlns="http://www.w3.org/2000/svg" xmlns:xlink="http://www.w3.org/1999/xlink" x="0px" y="0px"
	 width="1190.551px" height="1190.551px" viewBox="0 0 1190.551 1190.551" enable-background="new 0 0 1190.551 1190.551"
	 xml:space="preserve">
<g transform="translate(0 0)">
	<g transform="translate(538.7449951000001 618.9119873) rotate(180)">
		<polygon fill="#010202" points="251.577,12.904 251.577,-26.547 233.647,-26.547 233.647,-50.083 205.017,-50.083 
			205.017,-71.602 163.772,-71.602 163.772,-50.083 135.608,-50.083 135.608,-71.602 94.365,-71.602 94.365,-50.083 59.479,-50.083 
			59.479,-71.602 18.233,-71.602 18.233,-50.083 -17.405,-50.083 -17.405,-71.602 -58.649,-71.602 -58.649,-50.083 -90.929,-50.083 
			-90.929,-71.602 -132.172,-71.602 -132.172,-50.083 -166.244,-50.083 -166.244,-71.602 -207.488,-71.602 -207.488,-50.083 
			-250.526,-50.083 -250.526,-26.547 -268.456,-26.547 -268.456,12.904 -250.526,12.904 -250.526,53.252 -268.456,53.252 
			-268.456,92.703 -250.526,92.703 -250.526,135.356 -268.456,135.356 -268.456,174.805 -250.526,174.805 -250.526,214.257 
			-268.456,214.257 -268.456,253.709 -250.526,253.709 -250.526,296.296 -268.456,296.296 -268.456,335.749 -250.526,335.749 
			-250.526,372.735 -268.456,372.735 -268.456,412.186 -250.526,412.186 -250.526,444.462 -268.456,444.462 -268.456,483.915 
			-250.526,483.915 -250.526,502.234 -207.488,502.234 -207.488,521.958 -166.244,521.958 -166.244,502.234 -132.172,502.234 
			-132.172,521.958 -90.929,521.958 -90.929,502.234 -58.649,502.234 -58.649,521.958 -17.405,521.958 -17.405,502.234 
			18.233,502.234 18.233,521.958 59.479,521.958 59.479,502.234 94.365,502.234 94.365,521.958 135.608,521.958 135.608,502.234 
			163.772,502.234 163.772,521.958 205.017,521.958 205.017,502.234 233.647,502.234 233.647,483.915 251.577,483.915 
			251.577,444.462 233.647,444.462 233.647,412.186 251.577,412.186 251.577,372.735 233.647,372.735 233.647,335.749 
			251.577,335.749 251.577,296.296 233.647,296.296 233.647,253.709 251.577,253.709 251.577,214.257 233.647,214.257 
			233.647,174.805 251.577,174.805 251.577,135.356 233.647,135.356 233.647,92.703 251.577,92.703 251.577,53.252 233.647,53.252 
			233.647,12.904 		"/>
	</g>
	<g transform="translate(636.5500718 -284.9335839) rotate(90)">
		<path fill="#010202" d="M1224.474,34.963l44.263-64.381L997.802-219.876c0,0-60.355-46.941-123.396-46.941h-158.27
			c0,0-37.11-1.79-37.11,32.635v15.202c0,0,1.342,26.823,37.557,26.823c0,0,101.219,0,134.062,0
			c43.812,0,67.062,12.075,107.365,38.898C1034.228-102.527,1224.474,34.963,1224.474,34.963z"/>
	</g>
	<g transform="translate(569.2730101999999 -100.462986) rotate(90)">
		<path fill="#010202" d="M898.476,273.636c-59.275,0-107.499-48.224-107.499-107.5c0-59.274,48.224-107.5,107.499-107.5
			c59.273,0,107.5,48.226,107.5,107.5C1005.976,225.412,957.753,273.636,898.476,273.636z"/>
		<path fill="#010202" d="M898.476,78.636c-48.248,0-87.5,39.254-87.5,87.5c0,48.248,39.252,87.5,87.5,87.5s87.5-39.252,87.5-87.5
			C985.976,117.889,946.725,78.636,898.476,78.636z"/>
		<path fill="#010202" d="M898.476,229.422c-34.402,0-62.395-27.987-62.395-62.395c0-34.401,27.988-62.395,62.395-62.395
			c34.407,0,62.395,27.989,62.395,62.395C960.867,201.433,932.881,229.422,898.476,229.422z"/>
		<path fill="#010202" d="M898.476,124.636c-23.375,0-42.395,19.019-42.395,42.395s19.019,42.395,42.395,42.395
			c23.375,0,42.395-19.02,42.395-42.395S921.851,124.636,898.476,124.636z"/>
	</g>
	<g transform="translate(-583.5582575 186.4473074) rotate(0)">
		<path fill="#010202" d="M1088.69,907.149c-59.275,0-107.5-48.228-107.5-107.5c0-59.273,48.225-107.5,107.5-107.5
			c59.273,0,107.5,48.227,107.5,107.5C1196.19,858.924,1147.966,907.149,1088.69,907.149z"/>
		<path fill="#010202" d="M1088.69,712.149c-48.248,0-87.5,39.252-87.5,87.5s39.252,87.5,87.5,87.5s87.5-39.252,87.5-87.5
			S1136.939,712.149,1088.69,712.149z"/>
		<path fill="#010202" d="M1088.69,862.935c-34.403,0-62.395-27.988-62.395-62.396c0-34.402,27.987-62.395,62.395-62.395
			c34.404,0,62.395,27.989,62.395,62.395C1151.082,834.946,1123.094,862.935,1088.69,862.935z"/>
		<path fill="#010202" d="M1088.69,758.149c-23.375,0-42.395,19.02-42.395,42.395s19.019,42.396,42.395,42.396
			c23.375,0,42.395-19.021,42.395-42.396C1131.082,777.167,1112.065,758.149,1088.69,758.149z"/>
	</g>
</g>
</svg>
