<?xml version="1.0" encoding="utf-8"?>
<!-- Generator: Adobe Illustrator 16.0.0, SVG Export Plug-In . SVG Version: 6.00 Build 0)  -->
<!DOCTYPE svg PUBLIC "-//W3C//DTD SVG 1.1//EN" "http://www.w3.org/Graphics/SVG/1.1/DTD/svg11.dtd">
<svg version="1.1" id="Calque_1" xmlns="http://www.w3.org/2000/svg" xmlns:xlink="http://www.w3.org/1999/xlink" x="0px" y="0px"
	 width="1190.551px" height="1190.551px" viewBox="0 0 1190.551 1190.551" enable-background="new 0 0 1190.551 1190.551"
	 xml:space="preserve">
<g>
	<polygon fill="#010202" points="855.292,670.846 855.292,631.393 837.362,631.393 837.362,613.074 794.323,613.074 794.323,593.35 
		753.079,593.35 753.079,613.074 719.008,613.074 719.008,593.35 677.765,593.35 677.765,613.074 645.485,613.074 645.485,593.35 
		606.546,593.35 604.24,593.35 604.24,613.074 568.603,613.074 568.603,593.35 527.357,593.35 527.357,613.074 492.471,613.074 
		492.471,593.35 451.228,593.35 451.228,613.074 423.064,613.074 423.064,593.35 399.639,593.35 381.819,593.35 381.819,613.074 
		353.189,613.074 353.189,631.393 335.259,631.393 335.259,670.846 353.189,670.846 353.189,703.123 335.259,703.123 
		335.259,742.572 353.189,742.572 353.189,779.559 335.259,779.559 335.259,819.012 353.189,819.012 353.189,861.598 
		335.259,861.598 335.259,901.051 353.189,901.051 353.189,940.504 335.259,940.504 335.259,979.951 353.189,979.951 
		353.189,1022.605 335.259,1022.605 335.259,1062.055 353.189,1062.055 353.189,1102.404 335.259,1102.404 335.259,1141.855 
		353.189,1141.855 353.189,1165.391 381.819,1165.391 381.819,1186.908 423.064,1186.908 423.064,1165.391 451.228,1165.391 
		451.228,1186.908 492.471,1186.908 492.471,1165.391 527.357,1165.391 527.357,1186.908 568.603,1186.908 568.603,1165.391 
		604.24,1165.391 604.24,1186.908 645.485,1186.908 645.485,1165.391 677.765,1165.391 677.765,1186.908 719.008,1186.908 
		719.008,1165.391 753.079,1165.391 753.079,1186.908 794.323,1186.908 794.323,1165.391 837.362,1165.391 837.362,1141.855 
		855.292,1141.855 855.292,1102.404 837.362,1102.404 837.362,1062.055 855.292,1062.055 855.292,1022.605 837.362,1022.605 
		837.362,979.951 855.292,979.951 855.292,940.504 837.362,940.504 837.362,901.051 855.292,901.051 855.292,861.598 
		837.362,861.598 837.362,819.012 855.292,819.012 855.292,779.559 837.362,779.559 837.362,742.572 855.292,742.572 
		855.292,703.123 837.362,703.123 837.362,670.846 	"/>
	<path fill="#010202" d="M442.759,316.734c59.274,0,107.5-48.225,107.5-107.5c0-59.274-48.227-107.501-107.5-107.501
		c-59.275,0-107.5,48.227-107.5,107.501C335.259,268.509,383.484,316.734,442.759,316.734z"/>
	<path fill="#010202" d="M499.046,485.85c0,59.275,48.226,107.5,107.5,107.5c59.271,0,107.5-48.225,107.5-107.5
		c0-59.276-48.228-107.5-107.5-107.5c-35.811,0-67.582,17.606-87.129,44.611l70.681-100.546c0,0,46.944-60.356,46.944-123.396
		V40.751c0,0,1.788-37.109-32.637-37.109h-15.202c0,0-26.823,1.342-26.823,37.557c0,0,0,101.218,0,134.062
		c0,43.812-12.076,67.062-38.898,107.363c-50.73,76.217-188.223,266.464-188.223,266.464l64.38,44.263L517.49,425.703
		C505.852,442.879,499.046,463.585,499.046,485.85z"/>
</g>
</svg>
