<?xml version="1.0" encoding="utf-8"?>
<!-- Generator: Adobe Illustrator 16.0.0, SVG Export Plug-In . SVG Version: 6.00 Build 0)  -->
<!DOCTYPE svg PUBLIC "-//W3C//DTD SVG 1.1//EN" "http://www.w3.org/Graphics/SVG/1.1/DTD/svg11.dtd">
<svg version="1.1" id="Calque_1" xmlns="http://www.w3.org/2000/svg" xmlns:xlink="http://www.w3.org/1999/xlink" x="0px" y="0px"
	 width="1190.551px" height="1190.551px" viewBox="0 0 1190.551 1190.551" enable-background="new 0 0 1190.551 1190.551"
	 xml:space="preserve">
<g>
	<path fill="#010202" d="M341.603,835.453V712.581H121.197V590.057c15.277,40.789,54.656,69.903,100.71,69.903
		c59.272,0,107.5-48.224,107.5-107.499s-48.227-107.5-107.5-107.5c-35.879,0-67.705,17.673-87.243,44.767l120.175-170.954
		c0,0,46.944-60.356,46.944-123.396V37.11c0,0,1.789-37.109-32.636-37.109h-15.202c0,0-26.824,1.342-26.824,37.557
		c0,0,0,101.218,0,134.062c0,43.812-12.076,67.062-38.898,107.363C137.493,355.201,0,545.447,0,545.447l64.38,44.263l68.786-97.851
		c-11.829,17.267-18.76,38.139-18.76,60.603c0,13.089,2.355,25.637,6.657,37.248H64.38H0v594.96h121.196v-122.871h220.406V938.925
		h253.676V835.453H341.603z"/>
	<path fill="#010202" d="M107.5,313.093c59.274,0,107.5-48.226,107.5-107.5c0-59.275-48.226-107.5-107.5-107.5
		C48.225,98.093,0,146.318,0,205.593S48.223,313.093,107.5,313.093z"/>
</g>
</svg>
