<?xml version="1.0" encoding="utf-8"?>
<!-- Generator: Adobe Illustrator 16.0.0, SVG Export Plug-In . SVG Version: 6.00 Build 0)  -->
<!DOCTYPE svg PUBLIC "-//W3C//DTD SVG 1.1//EN" "http://www.w3.org/Graphics/SVG/1.1/DTD/svg11.dtd">
<svg version="1.1" id="Calque_1" xmlns="http://www.w3.org/2000/svg" xmlns:xlink="http://www.w3.org/1999/xlink" x="0px" y="0px"
	 width="1190.551px" height="1190.551px" viewBox="0 0 1190.551 1190.551" enable-background="new 0 0 1190.551 1190.551"
	 xml:space="preserve">
<g>
	<path fill="#010202" d="M594.962,474.082H472.089V253.676H349.215V0h-103.47v253.676H125.738
		C176.356,244.989,215,200.789,215,147.731c0-59.275-48.226-107.5-107.5-107.5C48.225,40.231,0,88.455,0,147.731
		c0,59.274,48.223,107.5,107.5,107.5c5.219,0,10.351-0.382,15.373-1.104v219.956H0v121.196h44.262h339.854h210.847V474.082z"/>
	<path fill="#010202" d="M270.934,850.117c0,0,60.356,46.944,123.396,46.944h158.269c0,0,37.11,1.79,37.11-32.635v-15.202
		c0,0-1.343-26.825-37.558-26.825c0,0-101.218,0-134.062,0c-43.812,0-67.062-12.076-107.363-38.898
		C234.508,732.772,44.262,595.279,44.262,595.279l-44.263,64.38L270.934,850.117z"/>
	<path fill="#010202" d="M276.615,702.779c0,59.273,48.225,107.5,107.5,107.5c59.274,0,107.5-48.226,107.5-107.5
		c0-59.273-48.226-107.5-107.5-107.5C324.84,595.279,276.615,643.505,276.615,702.779z"/>
</g>
</svg>
