<?xml version="1.0" encoding="utf-8"?>
<!-- Generator: Adobe Illustrator 16.0.0, SVG Export Plug-In . SVG Version: 6.00 Build 0)  -->
<!DOCTYPE svg PUBLIC "-//W3C//DTD SVG 1.1//EN" "http://www.w3.org/Graphics/SVG/1.1/DTD/svg11.dtd">
<svg version="1.1" id="Calque_1" xmlns="http://www.w3.org/2000/svg" xmlns:xlink="http://www.w3.org/1999/xlink" x="0px" y="0px"
	 width="1190.551px" height="1190.551px" viewBox="0 0 1190.551 1190.551" enable-background="new 0 0 1190.551 1190.551"
	 xml:space="preserve">
<g>
	<path fill="#010202" d="M594.962,474.082H472.089V253.676H349.215V0h-103.47v253.676H123.761
		C175.348,245.815,215,201.155,215,147.405c0-59.273-48.224-107.5-107.5-107.5C48.226,39.905,0,88.131,0,147.405
		c0,59.276,48.226,107.5,107.5,107.5c5.219,0,10.351-0.381,15.373-1.104v220.282H0v121.196h237.402h357.56V474.082z"/>
	<path fill="#010202" d="M0,989.61v158.27c0,0-1.79,37.108,32.635,37.108h15.202c0,0,26.825-1.341,26.825-37.556
		c0,0,0-101.218,0-134.062c0-43.812,12.075-67.062,38.898-107.362C164.29,829.786,301.783,639.54,301.783,639.54l-64.381-44.262
		L46.944,866.214C46.944,866.214,0,926.57,0,989.61z"/>
	<path fill="#010202" d="M182.162,1120.869c59.274,0,107.5-48.225,107.5-107.5c0-59.274-48.226-107.5-107.5-107.5
		c-59.272,0-107.5,48.226-107.5,107.5C74.662,1072.645,122.888,1120.869,182.162,1120.869z"/>
</g>
</svg>
