<?xml version="1.0" encoding="utf-8"?>
<!-- Generator: Adobe Illustrator 16.0.0, SVG Export Plug-In . SVG Version: 6.00 Build 0)  -->
<!DOCTYPE svg PUBLIC "-//W3C//DTD SVG 1.1//EN" "http://www.w3.org/Graphics/SVG/1.1/DTD/svg11.dtd">
<svg version="1.1" id="Calque_1" xmlns="http://www.w3.org/2000/svg" xmlns:xlink="http://www.w3.org/1999/xlink" x="0px" y="0px"
	 width="1190.551px" height="1190.551px" viewBox="0 0 1190.551 1190.551" enable-background="new 0 0 1190.551 1190.551"
	 xml:space="preserve">
<g>
	<path fill="#010202" d="M552.152,731.812c0,0-101.218,0-134.062,0c-43.812,0-67.062-12.076-107.363-38.899
		c-76.22-50.729-266.465-188.222-266.465-188.222l-44.263,64.38L270.934,759.53c0,0,60.356,46.944,123.396,46.944h158.269
		c0,0,37.11,1.79,37.11-32.635v-15.202C589.709,758.637,588.366,731.812,552.152,731.812z"/>
	<path fill="#010202" d="M541.096,354.487c-26.882,0-51.491,9.919-70.359,26.289l-37.938-116.762l241.259-78.39l-31.973-98.406
		l-241.261,78.39l-37.97-116.858l-209.618,68.109L115.266-0.001L0,37.452l183.854,565.841l115.103-37.398
		c-0.549,0.999-1.09,2.005-1.611,3.028c-26.91,52.814-5.837,117.676,46.979,144.588c52.814,26.91,117.678,5.836,144.588-46.979
		c21.506-42.21,12.361-92.112-19.138-124.188c18.991,16.875,43.978,27.143,71.321,27.143c59.274,0,107.5-48.226,107.5-107.5
		C648.596,402.714,600.37,354.487,541.096,354.487z M261.149,448.981l209.397-68.036c-22.627,19.723-36.95,48.74-36.95,81.042
		c0,29.295,11.784,55.886,30.855,75.295c-6.678-5.922-14.204-11.101-22.518-15.337c-51.723-26.354-114.993-6.683-142.863,43.748
		L261.149,448.981z"/>
</g>
</svg>
