<?xml version="1.0" encoding="utf-8"?>
<!-- Generator: Adobe Illustrator 16.0.0, SVG Export Plug-In . SVG Version: 6.00 Build 0)  -->
<!DOCTYPE svg PUBLIC "-//W3C//DTD SVG 1.1//EN" "http://www.w3.org/Graphics/SVG/1.1/DTD/svg11.dtd">
<svg version="1.1" id="Calque_1" xmlns="http://www.w3.org/2000/svg" xmlns:xlink="http://www.w3.org/1999/xlink" x="0px" y="0px"
	 width="1190.551px" height="1190.551px" viewBox="0 0 1190.551 1190.551" enable-background="new 0 0 1190.551 1190.551"
	 xml:space="preserve">
<g>
	<path fill="#010202" d="M892.765,476.863H769.892V256.457H647.018V2.781h-103.47v253.676H421.563
		c51.587-7.861,91.239-52.521,91.239-106.271c0-59.273-48.225-107.5-107.5-107.5c-59.274,0-107.5,48.226-107.5,107.5
		c0,59.276,48.226,107.5,107.5,107.5c5.219,0,10.351-0.381,15.373-1.104v220.282H297.802v121.196h237.401h357.561V476.863z"/>
	<path fill="#010202" d="M297.802,992.392v158.27c0,0-1.79,37.108,32.635,37.108h15.202c0,0,26.825-1.341,26.825-37.557
		c0,0,0-101.218,0-134.062c0-43.812,12.074-67.062,38.897-107.362c50.73-76.222,188.224-266.468,188.224-266.468l-64.382-44.263
		L344.746,868.995C344.746,868.995,297.802,929.352,297.802,992.392z"/>
	<path fill="#010202" d="M479.965,1123.65c59.273,0,107.5-48.225,107.5-107.5c0-59.274-48.227-107.5-107.5-107.5
		c-59.272,0-107.5,48.226-107.5,107.5C372.465,1075.426,420.69,1123.65,479.965,1123.65z"/>
</g>
</svg>
