<?xml version="1.0" encoding="utf-8"?>
<!-- Generator: Adobe Illustrator 16.0.0, SVG Export Plug-In . SVG Version: 6.00 Build 0)  -->
<!DOCTYPE svg PUBLIC "-//W3C//DTD SVG 1.1//EN" "http://www.w3.org/Graphics/SVG/1.1/DTD/svg11.dtd">
<svg version="1.1" id="Calque_1" xmlns="http://www.w3.org/2000/svg" xmlns:xlink="http://www.w3.org/1999/xlink" x="0px" y="0px"
	 width="1190.551px" height="1190.551px" viewBox="0 0 1190.551 1190.551" enable-background="new 0 0 1190.551 1190.551"
	 xml:space="preserve">
<path fill="#010202" d="M493.072,743.654l-150.522-48.906c0,0-8.678-3.289-18.687-2.494l574.804-91.041l-18.959-119.705
	l-121.36,19.223l-34.479-217.695l-10.752,1.703c3.974-0.808,7.941-1.84,11.889-3.122c56.373-18.316,87.337-79.082,69.018-135.457
	c-18.314-56.373-79.083-87.336-135.456-69.019c-49.326,16.027-79.195,64.551-73.625,114.197L562.824,51.706L460.627,67.893
	l39.685,250.553l-121.359,19.221l34.479,217.692l-121.36,19.222l18.96,119.707l7.38-1.17c-8.428,2.049-16.869,7.748-21.24,21.201
	l-4.697,14.459c0,0-7.014,25.924,27.43,37.117c0,0,67.61,21.967,107.894,35.057c-3.748-1.021-7.584-1.855-11.507-2.477
	c-58.546-9.273-113.721,30.814-122.994,89.359c-9.271,58.545,30.815,113.721,89.36,122.994
	c58.547,9.27,113.721-30.814,122.993-89.361c8.092-51.092-21.411-99.615-67.969-117.305c3.674,1.193,6.958,2.26,9.724,3.158
	c41.668,13.539,60.049,32.209,90.089,70.172c56.812,71.801,195.259,261.354,195.259,261.354l61.99-47.553L595.923,826.434
	C595.922,826.434,553.026,763.135,493.072,743.654z M589.546,212.601c16.026,49.327,64.553,79.197,114.201,73.624l-101.239,16.036
	l-16.083-101.542C587.233,204.689,588.264,208.656,589.546,212.601z"/>
</svg>
