<?xml version="1.0" encoding="utf-8"?>
<!-- Generator: Adobe Illustrator 16.0.0, SVG Export Plug-In . SVG Version: 6.00 Build 0)  -->
<!DOCTYPE svg PUBLIC "-//W3C//DTD SVG 1.1//EN" "http://www.w3.org/Graphics/SVG/1.1/DTD/svg11.dtd">
<svg version="1.1" id="Calque_1" xmlns="http://www.w3.org/2000/svg" xmlns:xlink="http://www.w3.org/1999/xlink" x="0px" y="0px"
	 width="1190.551px" height="1190.551px" viewBox="0 0 1190.551 1190.551" enable-background="new 0 0 1190.551 1190.551"
	 xml:space="preserve">
<g>
	<path fill="#010202" d="M594.962,474.082H472.089V253.676H349.215V0h-103.47v253.676H122.875
		c41.731-3.624,79.346-31.611,93.083-73.891c18.316-56.375-12.645-117.141-69.02-135.458
		c-56.374-18.316-117.14,12.644-135.458,69.02C-6.837,169.721,24.126,230.488,80.5,248.805c14.094,4.58,28.462,6.079,42.373,4.871
		v220.406H0v121.196h237.402h357.56V474.082z"/>
	<path fill="#010202" d="M0,989.61v158.27c0,0-1.79,37.108,32.635,37.108h15.202c0,0,26.825-1.341,26.825-37.556
		c0,0,0-101.187,0-134.047c0.128,10.565,1.83,21.284,5.263,31.85c18.316,56.372,79.083,87.337,135.458,69.02
		c56.374-18.317,87.336-79.085,69.019-135.458c-18.316-56.374-79.084-87.335-135.458-69.02
		c-44.015,14.302-72.538,54.48-74.21,98.241c0.967-40.411,13.12-63.387,38.828-102.011
		C164.29,829.786,301.783,639.54,301.783,639.54l-64.381-44.262L46.944,866.214C46.944,866.214,0,926.57,0,989.61z"/>
</g>
</svg>
