<?xml version="1.0" encoding="utf-8"?>
<!-- Generator: Adobe Illustrator 16.0.0, SVG Export Plug-In . SVG Version: 6.00 Build 0)  -->
<!DOCTYPE svg PUBLIC "-//W3C//DTD SVG 1.1//EN" "http://www.w3.org/Graphics/SVG/1.1/DTD/svg11.dtd">
<svg version="1.1" id="Calque_1" xmlns="http://www.w3.org/2000/svg" xmlns:xlink="http://www.w3.org/1999/xlink" x="0px" y="0px"
	 width="1190.551px" height="1190.551px" viewBox="0 0 1190.551 1190.551" enable-background="new 0 0 1190.551 1190.551"
	 xml:space="preserve">
<g>
	<path fill="#010202" d="M892.756,620.819H769.883V400.413H647.01V146.737H543.54v253.676H423.532
		c50.618-8.687,89.263-52.887,89.263-105.945c0-59.275-48.227-107.5-107.5-107.5c-59.275,0-107.5,48.224-107.5,107.5
		c0,59.274,48.223,107.5,107.5,107.5c5.219,0,10.351-0.382,15.373-1.104V620.82H297.795v121.195h44.262H681.91h210.848V620.819
		H892.756z"/>
	<path fill="#010202" d="M568.728,996.854c0,0,60.356,46.943,123.397,46.943h158.268c0,0,37.111,1.79,37.111-32.635v-15.202
		c0,0-1.344-26.824-37.559-26.824c0,0-101.219,0-134.062,0c-43.812,0-67.062-12.076-107.363-38.898
		c-76.217-50.729-266.463-188.223-266.463-188.223l-44.263,64.381L568.728,996.854z"/>
	<path fill="#010202" d="M574.409,849.517c0,59.272,48.226,107.5,107.5,107.5c59.275,0,107.5-48.227,107.5-107.5
		s-48.225-107.501-107.5-107.501C622.635,742.016,574.409,790.242,574.409,849.517z"/>
</g>
</svg>
