<?xml version="1.0" encoding="utf-8"?>
<!-- Generator: Adobe Illustrator 16.0.0, SVG Export Plug-In . SVG Version: 6.00 Build 0)  -->
<!DOCTYPE svg PUBLIC "-//W3C//DTD SVG 1.1//EN" "http://www.w3.org/Graphics/SVG/1.1/DTD/svg11.dtd">
<svg version="1.1" id="Calque_1" xmlns="http://www.w3.org/2000/svg" xmlns:xlink="http://www.w3.org/1999/xlink" x="0px" y="0px"
	 width="1190.551px" height="1190.551px" viewBox="0 0 1190.551 1190.551" enable-background="new 0 0 1190.551 1190.551"
	 xml:space="preserve">
<path fill="#010202" d="M572.268,452.2l-116.859,37.97L416.561,370.61c1.419,3.798,3.06,7.557,4.943,11.254
	c26.91,52.814,91.772,73.89,144.588,46.979c52.814-26.91,73.889-91.772,46.979-144.587c-26.91-52.815-91.772-73.89-144.587-46.979
	c-46.211,23.546-68.125,76.147-54.854,124.311l-26.33-81.035l-116.859,37.97L192.05,77.262c34.349-2.729,58.19,5.827,96.691,23.491
	c83.216,38.181,292.627,144.22,292.627,144.22l33.646-70.511L317.622,28.731c0,0-66.958-36.924-129.221-27.062L32.081,26.427
	c0,0-36.933,4.037-31.548,38.039l2.378,15.015c0,0,5.521,26.284,41.29,20.62c0,0,99.973-15.834,132.412-20.972
	c5.408-0.856,10.528-1.477,15.435-1.867l-98.404,31.973l78.391,241.26l-116.858,37.97l68.109,209.617L6.426,636.054l37.452,115.265
	l27.789-9.029c-35.97,12.748-64.065,44.284-70.444,84.553c-9.271,58.545,30.815,113.721,89.36,122.993
	c58.547,9.271,113.721-30.814,122.993-89.361c9.273-58.543-30.812-113.719-89.358-122.991c-16.331-2.587-32.398-1.329-47.281,3.095
	l532.782-173.112L572.268,452.2z"/>
</svg>
