<?xml version="1.0" encoding="utf-8"?>
<!-- Generator: Adobe Illustrator 16.0.0, SVG Export Plug-In . SVG Version: 6.00 Build 0)  -->
<!DOCTYPE svg PUBLIC "-//W3C//DTD SVG 1.1//EN" "http://www.w3.org/Graphics/SVG/1.1/DTD/svg11.dtd">
<svg version="1.1" id="Calque_1" xmlns="http://www.w3.org/2000/svg" xmlns:xlink="http://www.w3.org/1999/xlink" x="0px" y="0px"
	 width="1190.551px" height="1190.551px" viewBox="0 0 1190.551 1190.551" enable-background="new 0 0 1190.551 1190.551"
	 xml:space="preserve">
<path fill="#010202" d="M797.477,564.793c58.547,9.271,113.721-30.814,122.993-89.36c9.271-58.544-30.813-113.72-89.359-122.993
	c-33.312-5.275-65.527,5.435-88.823,26.427c31.276-32.086,40.303-81.822,18.857-123.907c-26.91-52.815-91.771-73.89-144.587-46.979
	c-42.083,21.444-64.015,66.984-57.575,111.325l-19.479-122.994L437.306,212.5l39.685,250.553l-121.359,19.221l34.479,217.692
	l-121.36,19.222l18.96,119.706l180.393-28.571c-7.292,1.149-14.555,2.812-21.65,5.117L295.93,864.347
	c0,0-35.848,9.766-25.209,42.505l4.697,14.458c0,0,9.564,25.099,44.008,13.906c0,0,96.265-31.278,127.5-41.429
	c41.669-13.538,67.513-9.237,114.13,3.819c88.164,24.694,311.585,96.668,311.585,96.668l22.202-74.906l-316.529-97.415
	c0,0-55.02-19.889-108.931-11.835l405.96-64.299l-18.959-119.705l-121.36,19.224l-34.479-217.694l-121.359,19.223l-19.782-124.901
	c1.781,10.404,5.138,20.714,10.176,30.603c26.909,52.814,91.77,73.889,144.586,46.978c8.574-4.369,16.307-9.743,23.139-15.899
	c-15.012,15.373-25.579,35.364-29.188,58.154C698.846,500.345,738.932,555.52,797.477,564.793z"/>
</svg>
