<?xml version="1.0" encoding="utf-8"?>
<!-- Generator: Adobe Illustrator 16.0.0, SVG Export Plug-In . SVG Version: 6.00 Build 0)  -->
<!DOCTYPE svg PUBLIC "-//W3C//DTD SVG 1.1//EN" "http://www.w3.org/Graphics/SVG/1.1/DTD/svg11.dtd">
<svg version="1.1" id="Calque_1" xmlns="http://www.w3.org/2000/svg" xmlns:xlink="http://www.w3.org/1999/xlink" x="0px" y="0px"
	 width="1190.551px" height="1190.551px" viewBox="0 0 1190.551 1190.551" enable-background="new 0 0 1190.551 1190.551"
	 xml:space="preserve">
<g>
	<path fill="#010202" d="M892.765,476.863H769.892V256.457H647.018V2.781h-103.47v253.676h-122.87
		c41.73-3.624,79.346-31.611,93.083-73.891c18.315-56.375-12.646-117.141-69.021-135.458
		c-56.374-18.316-117.14,12.644-135.458,69.02c-18.316,56.374,12.646,117.141,69.021,135.458c14.094,4.58,28.462,6.079,42.373,4.871
		v220.406H297.802v121.195h237.401h357.561V476.863z"/>
	<path fill="#010202" d="M297.802,992.392v158.27c0,0-1.79,37.108,32.635,37.108h15.202c0,0,26.825-1.341,26.825-37.557
		c0,0,0-101.187,0-134.047c0.128,10.565,1.83,21.284,5.263,31.851c18.316,56.372,79.083,87.337,135.458,69.02
		c56.374-18.317,87.336-79.085,69.019-135.458c-18.315-56.374-79.084-87.335-135.458-69.02
		c-44.015,14.302-72.538,54.479-74.21,98.24c0.968-40.41,13.12-63.387,38.828-102.011
		c50.729-76.221,188.222-266.467,188.222-266.467l-64.382-44.263L344.746,868.995C344.746,868.995,297.802,929.352,297.802,992.392z
		"/>
</g>
</svg>
