<?xml version="1.0" encoding="utf-8"?>
<!-- Generator: Adobe Illustrator 16.0.0, SVG Export Plug-In . SVG Version: 6.00 Build 0)  -->
<!DOCTYPE svg PUBLIC "-//W3C//DTD SVG 1.1//EN" "http://www.w3.org/Graphics/SVG/1.1/DTD/svg11.dtd">
<svg version="1.1" id="Calque_1" xmlns="http://www.w3.org/2000/svg" xmlns:xlink="http://www.w3.org/1999/xlink" x="0px" y="0px"
	 width="1190.551px" height="1190.551px" viewBox="0 0 1190.551 1190.551" enable-background="new 0 0 1190.551 1190.551"
	 xml:space="preserve">
<g>
	<path fill="#010202" d="M83.709,686.855l61.13-84.139c-27.507,41.707-22.922,98.506,13.753,135.181
		c41.915,41.915,110.114,41.915,152.028,0c4.644-4.644,8.77-9.611,12.385-14.828c-9.788,16.196-15.428,35.168-15.428,55.434
		c0,59.273,48.225,107.5,107.5,107.5c59.274,0,107.5-48.227,107.5-107.5s-48.226-107.5-107.5-107.5
		c-36.68,0-69.121,18.47-88.529,46.593c25.049-41.343,19.745-96.052-15.928-131.726c-41.914-41.914-110.115-41.913-152.028,0
		c-2.936,2.936-5.659,6.005-8.184,9.181l82.407-113.424l99.405,72.223l129.552-178.312l99.407,72.223l71.236-98.05L151.084-0.001
		L79.846,98.05l99.406,72.224L49.7,348.585l99.407,72.223L0,626.036L83.709,686.855z"/>
	<path fill="#010202" d="M552.152,886.112c0,0-101.218,0-134.062,0c-43.812,0-67.062-12.076-107.363-38.899
		C234.508,796.484,44.263,658.99,44.263,658.99L0,723.37l270.934,190.459c0,0,60.356,46.944,123.396,46.944h158.269
		c0,0,37.11,1.79,37.11-32.635v-15.202C589.709,912.937,588.366,886.112,552.152,886.112z"/>
</g>
</svg>
