<?xml version="1.0" encoding="utf-8"?>
<!-- Generator: Adobe Illustrator 16.0.0, SVG Export Plug-In . SVG Version: 6.00 Build 0)  -->
<!DOCTYPE svg PUBLIC "-//W3C//DTD SVG 1.1//EN" "http://www.w3.org/Graphics/SVG/1.1/DTD/svg11.dtd">
<svg version="1.1" id="Calque_1" xmlns="http://www.w3.org/2000/svg" xmlns:xlink="http://www.w3.org/1999/xlink" x="0px" y="0px"
	 width="1190.551px" height="1190.551px" viewBox="0 0 1190.551 1190.551" enable-background="new 0 0 1190.551 1190.551"
	 xml:space="preserve">
<g>
	<path fill="#010202" d="M639.24,838.393V715.521H418.833V592.997c15.277,40.788,54.656,69.903,100.711,69.903
		c59.271,0,107.499-48.225,107.499-107.5s-48.227-107.5-107.5-107.5c-35.879,0-67.704,17.673-87.242,44.767l120.175-170.954
		c0,0,46.944-60.356,46.944-123.396V40.05c0,0,1.788-37.109-32.637-37.109h-15.202c0,0-26.823,1.342-26.823,37.557
		c0,0,0,101.218,0,134.062c0,43.812-12.076,67.062-38.898,107.363c-50.729,76.218-188.223,266.464-188.223,266.464l64.38,44.263
		l68.786-97.851c-11.829,17.267-18.761,38.139-18.761,60.603c0,13.089,2.355,25.637,6.657,37.248h-56.683h-64.38v594.959h121.195
		v-122.871h220.406V941.865h253.676V838.393H639.24z"/>
	<path fill="#010202" d="M405.137,316.033c59.273,0,107.5-48.226,107.5-107.5c0-59.275-48.227-107.5-107.5-107.5
		c-59.275,0-107.5,48.225-107.5,107.5C297.637,267.808,345.86,316.033,405.137,316.033z"/>
</g>
</svg>
