<?xml version="1.0" encoding="utf-8"?>
<!-- Generator: Adobe Illustrator 16.0.0, SVG Export Plug-In . SVG Version: 6.00 Build 0)  -->
<!DOCTYPE svg PUBLIC "-//W3C//DTD SVG 1.1//EN" "http://www.w3.org/Graphics/SVG/1.1/DTD/svg11.dtd">
<svg version="1.1" id="Calque_1" xmlns="http://www.w3.org/2000/svg" xmlns:xlink="http://www.w3.org/1999/xlink" x="0px" y="0px"
	 width="1190.551px" height="1190.551px" viewBox="0 0 1190.551 1190.551" enable-background="new 0 0 1190.551 1190.551"
	 xml:space="preserve">
<g>
	<path fill="#010202" d="M362.778,801.736l61.13-84.14c-27.507,41.707-22.922,98.506,13.753,135.181
		c41.915,41.915,110.114,41.915,152.028,0c4.644-4.644,8.77-9.61,12.385-14.827c-9.788,16.195-15.428,35.168-15.428,55.434
		c0,59.273,48.225,107.5,107.5,107.5c59.273,0,107.499-48.227,107.499-107.5c0-59.272-48.226-107.5-107.499-107.5
		c-36.681,0-69.121,18.47-88.529,46.593c25.049-41.343,19.745-96.052-15.928-131.726c-41.914-41.914-110.115-41.913-152.028,0
		c-2.936,2.937-5.659,6.005-8.184,9.181l82.406-113.424l99.405,72.224L740.84,490.419l99.407,72.223l71.235-98.05L430.153,114.88
		l-71.238,98.051l99.406,72.224L328.769,463.466l99.406,72.223L279.069,740.917L362.778,801.736z"/>
	<path fill="#010202" d="M831.22,1000.993c0,0-101.218,0-134.062,0c-43.812,0-67.062-12.076-107.363-38.899
		c-76.219-50.729-266.464-188.223-266.464-188.223l-44.263,64.38l270.934,190.459c0,0,60.356,46.944,123.396,46.944h158.269
		c0,0,37.11,1.789,37.11-32.636v-15.202C868.778,1027.818,867.434,1000.993,831.22,1000.993z"/>
</g>
</svg>
