<?xml version="1.0" encoding="utf-8"?>
<!-- Generator: Adobe Illustrator 16.0.0, SVG Export Plug-In . SVG Version: 6.00 Build 0)  -->
<!DOCTYPE svg PUBLIC "-//W3C//DTD SVG 1.1//EN" "http://www.w3.org/Graphics/SVG/1.1/DTD/svg11.dtd">
<svg version="1.1" id="Calque_1" xmlns="http://www.w3.org/2000/svg" xmlns:xlink="http://www.w3.org/1999/xlink" x="0px" y="0px"
	 width="1190.551px" height="1190.551px" viewBox="0 0 1190.551 1190.551" enable-background="new 0 0 1190.551 1190.551"
	 xml:space="preserve">
<path fill="#010202" d="M855.21,571.894l-116.859,37.97l-38.848-119.56c1.419,3.798,3.061,7.557,4.943,11.254
	c26.909,52.813,91.771,73.89,144.588,46.979c52.813-26.909,73.889-91.771,46.979-144.587c-26.91-52.814-91.771-73.89-144.587-46.979
	c-46.211,23.546-68.125,76.146-54.854,124.311l-26.33-81.035l-116.859,37.971l-78.391-241.261
	c34.349-2.729,58.19,5.826,96.691,23.49C654.9,258.628,864.31,364.667,864.31,364.667l33.646-70.512l-297.392-145.73
	c0,0-66.958-36.924-129.221-27.062L315.024,146.12c0,0-36.934,4.037-31.548,38.039l2.378,15.016c0,0,5.521,26.284,41.29,20.62
	c0,0,99.973-15.834,132.411-20.973c5.408-0.855,10.528-1.477,15.436-1.866l-98.404,31.973l78.392,241.26l-116.858,37.97
	l68.109,209.617l-116.86,37.972l37.452,115.266l27.789-9.029c-35.971,12.748-64.065,44.284-70.444,84.553
	c-9.271,58.545,30.815,113.722,89.36,122.993c58.547,9.271,113.721-30.814,122.993-89.361
	c9.272-58.543-30.812-113.719-89.358-122.99c-16.331-2.587-32.398-1.329-47.281,3.095L892.661,687.16L855.21,571.894z"/>
</svg>
