<?xml version="1.0" encoding="utf-8"?>
<!-- Generator: Adobe Illustrator 16.0.0, SVG Export Plug-In . SVG Version: 6.00 Build 0)  -->
<!DOCTYPE svg PUBLIC "-//W3C//DTD SVG 1.1//EN" "http://www.w3.org/Graphics/SVG/1.1/DTD/svg11.dtd">
<svg version="1.1" id="Calque_1" xmlns="http://www.w3.org/2000/svg" xmlns:xlink="http://www.w3.org/1999/xlink" x="0px" y="0px"
	 width="1190.551px" height="1190.551px" viewBox="0 0 1190.551 1190.551" enable-background="new 0 0 1190.551 1190.551"
	 xml:space="preserve">
<path fill="#010202" d="M528.728,368.48c58.547,9.271,113.721-30.814,122.993-89.36c9.272-58.544-30.813-113.72-89.359-122.993
	c-33.312-5.275-65.528,5.435-88.823,26.427c31.276-32.086,40.302-81.822,18.857-123.907c-26.91-52.815-91.772-73.89-144.587-46.979
	c-42.084,21.444-64.016,66.984-57.575,111.325L270.754-0.001L168.557,16.186l39.684,250.553L86.882,285.96l34.479,217.692L0,522.874
	L18.96,642.58l180.393-28.571c-7.292,1.149-14.555,2.812-21.651,5.117L27.181,668.033c0,0-35.848,9.766-25.209,42.505l4.697,14.458
	c0,0,9.565,25.099,44.008,13.906c0,0,96.265-31.278,127.5-41.428c41.669-13.538,67.513-9.238,114.13,3.819
	c88.164,24.694,311.586,96.668,311.586,96.668l22.202-74.906l-316.529-97.415c0,0-55.02-19.889-108.931-11.835l405.961-64.299
	l-18.959-119.705l-121.36,19.223L431.797,231.33l-121.359,19.223l-19.782-124.901c1.781,10.404,5.137,20.714,10.175,30.603
	c26.91,52.814,91.771,73.889,144.588,46.978c8.574-4.369,16.306-9.743,23.138-15.899c-15.012,15.373-25.579,35.364-29.188,58.154
	C430.097,304.031,470.183,359.206,528.728,368.48z"/>
</svg>
