<?xml version="1.0" encoding="utf-8"?>
<!-- Generator: Adobe Illustrator 16.0.0, SVG Export Plug-In . SVG Version: 6.00 Build 0)  -->
<!DOCTYPE svg PUBLIC "-//W3C//DTD SVG 1.1//EN" "http://www.w3.org/Graphics/SVG/1.1/DTD/svg11.dtd">
<svg version="1.1" id="Calque_1" xmlns="http://www.w3.org/2000/svg" xmlns:xlink="http://www.w3.org/1999/xlink" x="0px" y="0px"
	 width="1190.551px" height="1190.551px" viewBox="0 0 1190.551 1190.551" enable-background="new 0 0 1190.551 1190.551"
	 xml:space="preserve">
<g>
	<path fill="#010202" d="M810.399,923.844c0,0-101.218,0-134.062,0c-43.812,0-67.062-12.076-107.363-38.899
		c-76.22-50.729-266.465-188.223-266.465-188.223l-44.263,64.381l270.935,190.459c0,0,60.356,46.943,123.396,46.943h158.269
		c0,0,37.11,1.79,37.11-32.635v-15.202C847.956,950.668,846.613,923.844,810.399,923.844z"/>
	<path fill="#010202" d="M799.343,546.518c-26.882,0-51.491,9.919-70.359,26.289l-37.938-116.762l241.259-78.39l-31.974-98.406
		l-241.261,78.39l-37.97-116.858L411.483,308.89l-37.97-116.86l-115.266,37.453l183.854,565.841l115.104-37.398
		c-0.549,0.999-1.09,2.005-1.611,3.028c-26.91,52.814-5.837,117.676,46.979,144.588c52.813,26.91,117.678,5.836,144.587-46.979
		c21.507-42.21,12.361-92.112-19.138-124.188c18.991,16.875,43.979,27.144,71.321,27.144c59.273,0,107.5-48.227,107.5-107.5
		S858.616,546.518,799.343,546.518z M519.396,641.012l209.397-68.036c-22.627,19.723-36.95,48.74-36.95,81.042
		c0,29.296,11.784,55.887,30.854,75.296c-6.678-5.923-14.204-11.102-22.518-15.338c-51.723-26.354-114.993-6.683-142.863,43.748
		L519.396,641.012z"/>
</g>
</svg>
