<?xml version="1.0" encoding="utf-8"?>
<!-- Generator: Adobe Illustrator 16.0.0, SVG Export Plug-In . SVG Version: 6.00 Build 0)  -->
<!DOCTYPE svg PUBLIC "-//W3C//DTD SVG 1.1//EN" "http://www.w3.org/Graphics/SVG/1.1/DTD/svg11.dtd">
<svg version="1.1" id="Calque_1" xmlns="http://www.w3.org/2000/svg" xmlns:xlink="http://www.w3.org/1999/xlink" x="0px" y="0px"
	 width="1190.551px" height="1190.551px" viewBox="0 0 1190.551 1190.551" enable-background="new 0 0 1190.551 1190.551"
	 xml:space="preserve">
<path fill="#010202" d="M473.467,729.983c5.697-1.034,12.24-3.718,19.561-9.036c0,0,81.888-59.494,108.459-78.801
	c35.445-25.752,61.354-29.648,109.724-31.637c91.48-3.76,326.21-4.351,326.21-4.351l-2.033-78.101l-331.14,5.166
	c0,0-76.424-2.501-127.423,34.552l-91.132,66.211l129.212-177.845l99.406,72.223l71.237-98.05L304.215,80.606l-71.239,98.051
	l99.406,72.223l-129.55,178.312l99.405,72.223L153.131,706.644l83.708,60.818l-83.708,13.258l453.141,329.225l97.794-15.489
	L673.947,904.29l69.112-217.006L473.467,729.983z M385.947,562.233l99.253,72.112l-36.419,26.46c0,0-31.073,20.365-10.84,48.216
	l8.937,12.298c0,0,8.988,11.149,25.246,8.877L236.84,767.462L385.947,562.233z"/>
</svg>
