<?xml version="1.0" encoding="utf-8"?>
<!-- Generator: Adobe Illustrator 16.0.0, SVG Export Plug-In . SVG Version: 6.00 Build 0)  -->
<!DOCTYPE svg PUBLIC "-//W3C//DTD SVG 1.1//EN" "http://www.w3.org/Graphics/SVG/1.1/DTD/svg11.dtd">
<svg version="1.1" id="Calque_1" xmlns="http://www.w3.org/2000/svg" xmlns:xlink="http://www.w3.org/1999/xlink" x="0px" y="0px"
	 width="1190.551px" height="1190.551px" viewBox="0 0 1190.551 1190.551" enable-background="new 0 0 1190.551 1190.551"
	 xml:space="preserve">
<path fill="#010202" d="M891.698,891.439L774.838,929.41l-68.109-209.619L589.87,757.762l-78.39-241.261l-98.406,31.974
	l54.485-54.486l216.185-71.639L327.573,66.179c5.541,4.717,14.218,8.491,27.802,8.491c0,0,101.218,0,134.062,0
	c43.812,0,67.062,12.076,107.364,38.899c76.219,50.729,266.465,188.222,266.465,188.222l44.264-64.38L636.592,46.952
	c0,0-60.356-46.944-123.395-46.944h-158.27c0,0-37.109-1.79-37.109,32.636v15.201c0,0,0.413,7.968,6.64,15.219L261.402,0.008
	l0.001,560.111l70.013,70.014l81.657-81.658l78.391,241.26l-116.857,37.971l68.108,209.618l-116.858,37.97l37.451,115.266
	l565.841-183.854L891.698,891.439z"/>
</svg>
