<?xml version="1.0" encoding="utf-8"?>
<!-- Generator: Adobe Illustrator 16.0.0, SVG Export Plug-In . SVG Version: 6.00 Build 0)  -->
<!DOCTYPE svg PUBLIC "-//W3C//DTD SVG 1.1//EN" "http://www.w3.org/Graphics/SVG/1.1/DTD/svg11.dtd">
<svg version="1.1" id="Calque_1" xmlns="http://www.w3.org/2000/svg" xmlns:xlink="http://www.w3.org/1999/xlink" x="0px" y="0px"
	 width="1190.551px" height="1190.551px" viewBox="0 0 1190.551 1190.551" enable-background="new 0 0 1190.551 1190.551"
	 xml:space="preserve">
<g>
	<polygon fill="#010202" points="649.855,251.921 630.633,130.562 412.94,165.041 393.719,43.681 274.013,62.641 367.085,650.275 
		486.79,631.316 467.568,509.957 685.262,475.478 666.04,354.117 916.593,314.434 900.406,212.237 	"/>
	<path fill="#010202" d="M916.593,911.715V314.434l-396.059,396.06v98.905c-14.167-7.05-29.771-12.778-46.063-15.358l-156.32-24.76
		c0,0-36.373-7.572-41.759,26.429l-2.378,15.014c0,0-2.872,26.705,32.896,32.37c0,0,99.973,15.834,132.411,20.972
		c43.274,6.854,64.35,22.419,99.957,55.216c67.346,62.027,233.741,227.59,233.741,227.59l53.789-56.663L589.003,859.708
		c0,0-28.393-30.311-68.25-50.202h192.319L916.593,911.715z"/>
</g>
</svg>
