<?xml version="1.0" encoding="utf-8"?>
<!-- Generator: Adobe Illustrator 16.0.0, SVG Export Plug-In . SVG Version: 6.00 Build 0)  -->
<!DOCTYPE svg PUBLIC "-//W3C//DTD SVG 1.1//EN" "http://www.w3.org/Graphics/SVG/1.1/DTD/svg11.dtd">
<svg version="1.1" id="Calque_1" xmlns="http://www.w3.org/2000/svg" xmlns:xlink="http://www.w3.org/1999/xlink" x="0px" y="0px"
	 width="1190.551px" height="1190.551px" viewBox="0 0 1190.551 1190.551" enable-background="new 0 0 1190.551 1190.551"
	 xml:space="preserve">
<path fill="#010202" d="M714.593,760.574c0,0-52.271-55.808-114.533-65.669l-51.257-8.118l83.615-60.75L483.311,420.808
	l99.405-72.223L453.166,170.273l99.406-72.223L481.334,0L0,349.71l71.238,98.05l99.406-72.223l129.552,178.312l99.406-72.224
	l149.04,205.136l-104.903-16.615c0,0-36.374-7.573-41.759,26.428l-2.378,15.015V481.626L3.544,877.685v99.013H196.08
	l203.522,102.209V714.563c0.453,7.114,4.47,24.894,32.897,29.396c0,0,99.972,15.834,132.411,20.972
	c43.273,6.854,64.349,22.418,99.957,55.216c67.345,62.027,233.74,227.589,233.74,227.589l53.788-56.663L714.593,760.574z"/>
</svg>
