<?xml version="1.0" encoding="utf-8"?>
<!-- Generator: Adobe Illustrator 16.0.0, SVG Export Plug-In . SVG Version: 6.00 Build 0)  -->
<!DOCTYPE svg PUBLIC "-//W3C//DTD SVG 1.1//EN" "http://www.w3.org/Graphics/SVG/1.1/DTD/svg11.dtd">
<svg version="1.1" id="Calque_1" xmlns="http://www.w3.org/2000/svg" xmlns:xlink="http://www.w3.org/1999/xlink" x="0px" y="0px"
	 width="1190.551px" height="1190.551px" viewBox="0 0 1190.551 1190.551" enable-background="new 0 0 1190.551 1190.551"
	 xml:space="preserve">
<path fill="#010202" d="M320.336,649.377c5.697-1.034,12.24-3.718,19.561-9.036c0,0,81.888-59.495,108.459-78.801
	c35.445-25.752,61.354-29.648,109.724-31.637c91.48-3.76,326.209-4.35,326.209-4.35l-2.033-78.101l-331.139,5.166
	c0,0-76.424-2.501-127.423,34.552l-91.132,66.211l129.212-177.845l99.406,72.223l71.237-98.05L151.084,0L79.845,98.051
	l99.406,72.223L49.701,348.586l99.406,72.223L0,626.037l83.708,60.818L0,700.113l453.141,329.225l97.794-15.489l-30.119-190.165
	l69.112-217.006L320.336,649.377z M232.816,481.627l99.253,72.112l-36.419,26.46c0,0-31.074,20.365-10.84,48.216l8.936,12.298
	c0,0,8.989,11.149,25.246,8.877L83.709,686.855L232.816,481.627z"/>
</svg>
