<?xml version="1.0" encoding="utf-8"?>
<!-- Generator: Adobe Illustrator 16.0.0, SVG Export Plug-In . SVG Version: 6.00 Build 0)  -->
<!DOCTYPE svg PUBLIC "-//W3C//DTD SVG 1.1//EN" "http://www.w3.org/Graphics/SVG/1.1/DTD/svg11.dtd">
<svg version="1.1" id="Calque_1" xmlns="http://www.w3.org/2000/svg" xmlns:xlink="http://www.w3.org/1999/xlink" x="0px" y="0px"
	 width="1190.551px" height="1190.551px" viewBox="0 0 1190.551 1190.551" enable-background="new 0 0 1190.551 1190.551"
	 xml:space="preserve">
<path fill="#010202" d="M769.883,341.604V121.198h122.873V0H297.795v121.197h122.873v220.406h122.873v253.676h-42.225
	L297.795,493.07v597.281l396.057-396.059L569.088,871.775c0,0-46.944,60.357-46.944,123.396v158.27c0,0-1.79,37.109,32.635,37.109
	h15.202c0,0,26.825-1.342,26.825-37.557c0,0,0-101.219,0-134.062c0-43.812,12.076-67.062,38.898-107.363
	c50.729-76.221,188.223-266.467,188.223-266.467l-64.379-44.262l-65.693,93.451v-99.014H647.01V341.604H769.883z"/>
</svg>
