<?xml version="1.0" encoding="utf-8"?>
<!-- Generator: Adobe Illustrator 16.0.0, SVG Export Plug-In . SVG Version: 6.00 Build 0)  -->
<!DOCTYPE svg PUBLIC "-//W3C//DTD SVG 1.1//EN" "http://www.w3.org/Graphics/SVG/1.1/DTD/svg11.dtd">
<svg version="1.1" id="Calque_1" xmlns="http://www.w3.org/2000/svg" xmlns:xlink="http://www.w3.org/1999/xlink" x="0px" y="0px"
	 width="1190.551px" height="1190.551px" viewBox="0 0 1190.551 1190.551" enable-background="new 0 0 1190.551 1190.551"
	 xml:space="preserve">
<path fill="#010202" d="M580.951,585.136l107.987-55.022l46.268,90.806L908.289,88.221L863.338,0L691.787,87.41l-227.741,1.328
	l129.307,253.779L418.831,0L310.844,55.022l55.783,109.48L170.244,264.565l55.783,109.48L0,489.213l46.975,92.192l69.694-35.511
	c-7.177,3.651-13.548,10.554-15.567,23.297l-2.378,15.016c0,0-2.872,26.704,32.897,32.369c0,0,99.972,15.834,132.411,20.973
	c43.273,6.854,64.349,22.418,99.957,55.215c67.345,62.028,233.74,227.59,233.74,227.59l53.788-56.664L413.714,633.192
	c0,0-36.5-38.961-84.826-57.527l196.28-100.009L580.951,585.136z M299.18,567.522l-156.32-24.759c0,0-14.199-2.956-26.168,3.118
	l156.31-79.644l55.724,109.364C319.266,571.979,309.358,569.134,299.18,567.522z"/>
</svg>
