<?xml version="1.0" encoding="utf-8"?>
<!-- Generator: Adobe Illustrator 16.0.0, SVG Export Plug-In . SVG Version: 6.00 Build 0)  -->
<!DOCTYPE svg PUBLIC "-//W3C//DTD SVG 1.1//EN" "http://www.w3.org/Graphics/SVG/1.1/DTD/svg11.dtd">
<svg version="1.1" id="Calque_1" xmlns="http://www.w3.org/2000/svg" xmlns:xlink="http://www.w3.org/1999/xlink" x="0px" y="0px"
	 width="1190.551px" height="1190.551px" viewBox="0 0 1190.551 1190.551" enable-background="new 0 0 1190.551 1190.551"
	 xml:space="preserve">
<g>
	<path fill="#010202" d="M690.962,575.478L398.26,730.416c0,0-69.229,32.467-97.848,88.635l-71.854,141.019
		c0,0-18.442,32.253,12.23,47.881l13.545,6.9c0,0,24.51,10.984,40.95-21.283c0,0,45.952-90.187,60.863-119.45
		c19.892-39.037,41.205-54.271,83.401-78.002c79.803-44.881,288.68-151.972,288.68-151.972L690.962,575.478z"/>
	<polygon fill="#010202" points="874.055,600.623 855.591,626.037 706.484,420.808 805.89,348.586 676.338,170.273 775.744,98.051 
		704.507,0 223.173,349.71 294.41,447.76 393.816,375.537 523.368,553.849 622.775,481.626 771.883,686.854 855.589,626.038 
		544.83,1053.762 560.318,1151.556 750.485,1121.438 967.49,1190.551 	"/>
</g>
</svg>
