<?xml version="1.0" encoding="utf-8"?>
<!-- Generator: Adobe Illustrator 16.0.0, SVG Export Plug-In . SVG Version: 6.00 Build 0)  -->
<!DOCTYPE svg PUBLIC "-//W3C//DTD SVG 1.1//EN" "http://www.w3.org/Graphics/SVG/1.1/DTD/svg11.dtd">
<svg version="1.1" id="Calque_1" xmlns="http://www.w3.org/2000/svg" xmlns:xlink="http://www.w3.org/1999/xlink" x="0px" y="0px"
	 width="1190.551px" height="1190.551px" viewBox="0 0 1190.551 1190.551" enable-background="new 0 0 1190.551 1190.551"
	 xml:space="preserve">
<g>
	<path fill="#010202" d="M467.79,575.478L175.088,730.416c0,0-69.229,32.467-97.848,88.635L5.387,960.069
		c0,0-18.442,32.253,12.23,47.881l13.545,6.901c0,0,24.51,10.984,40.951-21.284c0,0,45.952-90.186,60.863-119.45
		c19.891-39.037,41.205-54.271,83.401-78.002c79.803-44.881,288.68-151.971,288.68-151.971L467.79,575.478z"/>
	<polygon fill="#010202" points="650.882,600.623 632.418,626.037 483.311,420.808 582.717,348.586 453.166,170.273 552.572,98.051 
		481.334,0 0,349.71 71.238,447.76 170.644,375.537 300.196,553.849 399.602,481.626 548.71,686.854 632.417,626.038 
		321.657,1053.762 337.146,1151.556 527.312,1121.437 744.317,1190.551 	"/>
</g>
</svg>
