<?xml version="1.0" encoding="utf-8"?>
<!-- Generator: Adobe Illustrator 16.0.0, SVG Export Plug-In . SVG Version: 6.00 Build 0)  -->
<!DOCTYPE svg PUBLIC "-//W3C//DTD SVG 1.1//EN" "http://www.w3.org/Graphics/SVG/1.1/DTD/svg11.dtd">
<svg version="1.1" id="Calque_1" xmlns="http://www.w3.org/2000/svg" xmlns:xlink="http://www.w3.org/1999/xlink" x="0px" y="0px"
	 width="1190.551px" height="1190.551px" viewBox="0 0 1190.551 1190.551" enable-background="new 0 0 1190.551 1190.551"
	 xml:space="preserve">
<g>
	<polygon fill="#010202" points="375.841,208.24 356.619,86.882 138.927,121.36 119.705,0 0,18.96 93.072,606.595 212.777,587.636 
		193.555,466.276 411.248,431.797 392.027,310.436 642.58,270.753 626.393,168.556 	"/>
	<path fill="#010202" d="M642.58,868.034V270.753l-396.059,396.06v98.905c-14.167-7.05-29.772-12.779-46.064-15.359l-156.32-24.759
		c0,0-36.373-7.573-41.759,26.428L0,767.042c0,0-2.872,26.705,32.897,32.37c0,0,99.972,15.834,132.411,20.972
		c43.274,6.854,64.349,22.419,99.957,55.216c67.346,62.027,233.74,227.589,233.74,227.589l53.789-56.663L314.99,816.027
		c0,0-28.393-30.31-68.25-50.202h192.318L642.58,868.034z"/>
</g>
</svg>
