<?xml version="1.0" encoding="utf-8"?>
<!-- Generator: Adobe Illustrator 16.0.0, SVG Export Plug-In . SVG Version: 6.00 Build 0)  -->
<!DOCTYPE svg PUBLIC "-//W3C//DTD SVG 1.1//EN" "http://www.w3.org/Graphics/SVG/1.1/DTD/svg11.dtd">
<svg version="1.1" id="Calque_1" xmlns="http://www.w3.org/2000/svg" xmlns:xlink="http://www.w3.org/1999/xlink" x="0px" y="0px"
	 width="1190.551px" height="1190.551px" viewBox="0 0 1190.551 1190.551" enable-background="new 0 0 1190.551 1190.551"
	 xml:space="preserve">
<g>
	<polygon fill="#010202" points="589.927,606.677 83.709,686.855 232.816,481.627 332.221,553.849 461.773,375.537 561.179,447.76 
		632.417,349.71 151.084,0 79.845,98.051 179.252,170.273 49.701,348.586 149.107,420.808 0,626.037 83.708,686.855 0,700.113 
		453.14,1029.338 550.934,1013.848 520.815,823.683 	"/>
	<path fill="#010202" d="M692.395,270.357l-71.854-141.019c0,0-15.252-33.878-45.925-18.25l-13.545,6.902
		c0,0-23.293,13.373-6.852,45.641c0,0,45.952,90.186,60.862,119.45c19.892,39.037,19.687,65.235,14.084,113.321
		c-10.598,90.942-46.735,322.874-46.735,322.874l77.458,10.209l46.698-327.87C706.588,401.616,721.014,326.525,692.395,270.357z"/>
</g>
</svg>
