<?xml version="1.0" encoding="utf-8"?>
<!-- Generator: Adobe Illustrator 16.0.0, SVG Export Plug-In . SVG Version: 6.00 Build 0)  -->
<!DOCTYPE svg PUBLIC "-//W3C//DTD SVG 1.1//EN" "http://www.w3.org/Graphics/SVG/1.1/DTD/svg11.dtd">
<svg version="1.1" id="Calque_1" xmlns="http://www.w3.org/2000/svg" xmlns:xlink="http://www.w3.org/1999/xlink" x="0px" y="0px"
	 width="1190.551px" height="1190.551px" viewBox="0 0 1190.551 1190.551" enable-background="new 0 0 1190.551 1190.551"
	 xml:space="preserve">
<path fill="#010202" d="M472.089,341.603V121.197h122.873V0H0v121.197h122.873v220.406h122.873v253.676h-42.224L0,493.07v597.281
	l396.058-396.058L271.293,871.775c0,0-46.944,60.357-46.944,123.396v158.269c0,0-1.79,37.11,32.635,37.11h15.202
	c0,0,26.825-1.341,26.825-37.557c0,0,0-101.218,0-134.062c0-43.813,12.076-67.063,38.898-107.364
	c50.729-76.219,188.223-266.465,188.223-266.465l-64.38-44.262l-65.693,93.451v-99.014h-46.843V341.603H472.089z"/>
</svg>
