<?xml version="1.0" encoding="utf-8"?>
<!-- Generator: Adobe Illustrator 16.0.0, SVG Export Plug-In . SVG Version: 6.00 Build 0)  -->
<!DOCTYPE svg PUBLIC "-//W3C//DTD SVG 1.1//EN" "http://www.w3.org/Graphics/SVG/1.1/DTD/svg11.dtd">
<svg version="1.1" id="Calque_1" xmlns="http://www.w3.org/2000/svg" xmlns:xlink="http://www.w3.org/1999/xlink" x="0px" y="0px"
	 width="1190.551px" height="1190.551px" viewBox="0 0 1190.551 1190.551" enable-background="new 0 0 1190.551 1190.551"
	 xml:space="preserve">
<path fill="#010202" d="M833.671,816.396c0,0-52.271-55.809-114.533-65.67l-51.257-8.117l83.615-60.75L602.389,476.63l99.405-72.223
	L572.243,226.095l99.406-72.223l-71.237-98.05l-481.334,349.71l71.237,98.05l99.406-72.223l129.552,178.312l99.406-72.224
	l149.04,205.135l-104.903-16.613c0,0-36.374-7.574-41.759,26.428l-2.378,15.014V537.448L122.622,933.506v99.014h192.536
	l203.521,102.209V770.385c0.453,7.113,4.47,24.895,32.896,29.396c0,0,99.973,15.834,132.411,20.971
	c43.273,6.855,64.35,22.418,99.957,55.217c67.345,62.027,233.74,227.59,233.74,227.59l53.788-56.664L833.671,816.396z"/>
</svg>
