<?xml version="1.0" encoding="utf-8"?>
<!-- Generator: Adobe Illustrator 16.0.0, SVG Export Plug-In . SVG Version: 6.00 Build 0)  -->
<!DOCTYPE svg PUBLIC "-//W3C//DTD SVG 1.1//EN" "http://www.w3.org/Graphics/SVG/1.1/DTD/svg11.dtd">
<svg version="1.1" id="Calque_1" xmlns="http://www.w3.org/2000/svg" xmlns:xlink="http://www.w3.org/1999/xlink" x="0px" y="0px"
	 width="1190.551px" height="1190.551px" viewBox="0 0 1190.551 1190.551" enable-background="new 0 0 1190.551 1190.551"
	 xml:space="preserve">
<g>
	<polygon fill="#010202" points="769.883,366.913 769.883,146.507 892.756,146.507 892.756,25.31 297.795,25.31 297.795,146.507 
		420.668,146.507 420.668,366.913 543.541,366.913 543.541,620.589 647.01,620.589 647.01,366.913 	"/>
	<path fill="#010202" d="M364.179,799.18l313.334-107.24c0,0,73.457-21.236,110.51-72.236l93.027-128.042
		c0,0,23.262-28.971-4.588-49.205l-12.301-8.936c0,0-22.488-14.683-43.775,14.616c0,0-59.494,81.887-78.801,108.458
		c-25.752,35.445-49.188,47.157-94.576,63.995c-85.841,31.845-308.899,104.94-308.899,104.94L364.179,799.18z"/>
	<polygon fill="#010202" points="297.795,894.365 469.345,981.775 604.281,1165.24 875.442,633.061 342.746,806.145 	"/>
</g>
</svg>
