<?xml version="1.0" encoding="utf-8"?>
<!-- Generator: Adobe Illustrator 16.0.0, SVG Export Plug-In . SVG Version: 6.00 Build 0)  -->
<!DOCTYPE svg PUBLIC "-//W3C//DTD SVG 1.1//EN" "http://www.w3.org/Graphics/SVG/1.1/DTD/svg11.dtd">
<svg version="1.1" id="Calque_1" xmlns="http://www.w3.org/2000/svg" xmlns:xlink="http://www.w3.org/1999/xlink" x="0px" y="0px"
	 width="1190.551px" height="1190.551px" viewBox="0 0 1190.551 1190.551" enable-background="new 0 0 1190.551 1190.551"
	 xml:space="preserve">
<path fill="#010202" d="M630.295,891.432l-116.859,37.97l-68.109-209.619l-116.859,37.971l-78.39-241.261l-98.406,31.974
	l54.486-54.486l216.185-71.639L66.171,66.171c5.541,4.717,14.218,8.491,27.802,8.491c0,0,101.218,0,134.062,0
	c43.813,0,67.063,12.076,107.364,38.899c76.219,50.729,266.465,188.222,266.465,188.222l44.263-64.38L375.191,46.944
	c0,0-60.357-46.944-123.396-46.944H93.526c0,0-37.11-1.79-37.11,32.636v15.201c0,0,0.413,7.968,6.64,15.219L0,0l0.001,560.111
	l70.013,70.014l81.657-81.658l78.391,241.26l-116.858,37.97l68.109,209.618l-116.859,37.97l37.452,115.266l565.842-183.854
	L630.295,891.432z"/>
</svg>
