<?xml version="1.0" encoding="utf-8"?>
<!-- Generator: Adobe Illustrator 16.0.0, SVG Export Plug-In . SVG Version: 6.00 Build 0)  -->
<!DOCTYPE svg PUBLIC "-//W3C//DTD SVG 1.1//EN" "http://www.w3.org/Graphics/SVG/1.1/DTD/svg11.dtd">
<svg version="1.1" id="Calque_1" xmlns="http://www.w3.org/2000/svg" xmlns:xlink="http://www.w3.org/1999/xlink" x="0px" y="0px"
	 width="1190.551px" height="1190.551px" viewBox="0 0 1190.551 1190.551" enable-background="new 0 0 1190.551 1190.551"
	 xml:space="preserve">
<g>
	<polygon fill="#010202" points="359.096,44.951 270.876,0 183.466,171.551 0,306.488 532.181,577.648 	"/>
	<polygon fill="#010202" points="49.701,687.409 179.253,865.721 79.846,937.944 151.085,1035.995 632.418,686.285 561.18,588.235 
		461.774,660.458 332.222,482.145 232.816,554.369 83.709,349.14 0,409.959 149.107,615.187 	"/>
	<path fill="#010202" d="M565.257,855.871c0,0-19.916-18.02-45.524,7.588c0,0-71.572,71.572-94.796,94.797
		c-30.98,30.98-55.96,38.881-103.424,48.412C231.747,1024.691,0,1061.993,0,1061.993l14.226,76.822l326.255-56.904
		c0,0,75.873-9.484,120.448-54.061l111.913-111.913c0,0,27.507-24.975,3.164-49.316L565.257,855.871z"/>
</g>
</svg>
