<?xml version="1.0" encoding="utf-8"?>
<!-- Generator: Adobe Illustrator 16.0.0, SVG Export Plug-In . SVG Version: 6.00 Build 0)  -->
<!DOCTYPE svg PUBLIC "-//W3C//DTD SVG 1.1//EN" "http://www.w3.org/Graphics/SVG/1.1/DTD/svg11.dtd">
<svg version="1.1" id="Calque_1" xmlns="http://www.w3.org/2000/svg" xmlns:xlink="http://www.w3.org/1999/xlink" x="0px" y="0px"
	 width="1190.551px" height="1190.551px" viewBox="0 0 1190.551 1190.551" enable-background="new 0 0 1190.551 1190.551"
	 xml:space="preserve">
<g>
	<polygon fill="#010202" points="638.162,70.819 549.943,25.868 462.532,197.418 279.067,332.356 811.247,603.516 	"/>
	<polygon fill="#010202" points="328.768,713.277 458.32,891.588 358.912,963.812 430.152,1061.863 911.485,712.152 
		840.246,614.103 740.84,686.326 611.288,508.013 511.882,580.237 362.776,375.008 279.067,435.827 428.173,641.055 	"/>
	<path fill="#010202" d="M844.323,881.738c0,0-19.916-18.02-45.524,7.588c0,0-71.572,71.572-94.796,94.797
		c-30.979,30.98-55.96,38.881-103.424,48.412c-89.766,18.023-321.513,55.326-321.513,55.326l14.226,76.822l326.255-56.904
		c0,0,75.873-9.484,120.448-54.062l111.913-111.912c0,0,27.507-24.975,3.164-49.316L844.323,881.738z"/>
</g>
</svg>
