<?xml version="1.0" encoding="utf-8"?>
<!-- Generator: Adobe Illustrator 16.0.0, SVG Export Plug-In . SVG Version: 6.00 Build 0)  -->
<!DOCTYPE svg PUBLIC "-//W3C//DTD SVG 1.1//EN" "http://www.w3.org/Graphics/SVG/1.1/DTD/svg11.dtd">
<svg version="1.1" id="Calque_1" xmlns="http://www.w3.org/2000/svg" xmlns:xlink="http://www.w3.org/1999/xlink" x="0px" y="0px"
	 width="1190.551px" height="1190.551px" viewBox="0 0 1190.551 1190.551" enable-background="new 0 0 1190.551 1190.551"
	 xml:space="preserve">
<g>
	<polygon fill="#010202" points="830.091,687.283 323.873,767.462 472.979,562.233 572.385,634.455 701.937,456.144 
		801.343,528.366 872.58,430.316 391.248,80.606 320.009,178.657 419.416,250.879 289.865,429.192 389.27,501.415 240.164,706.644 
		323.872,767.462 240.164,780.72 693.304,1109.944 791.098,1094.454 760.979,904.289 	"/>
	<path fill="#010202" d="M932.559,350.963l-71.854-141.019c0,0-15.253-33.878-45.926-18.25l-13.545,6.902
		c0,0-23.293,13.373-6.852,45.641c0,0,45.952,90.186,60.861,119.45c19.893,39.037,19.688,65.235,14.084,113.321
		c-10.598,90.942-46.734,322.875-46.734,322.875l77.458,10.209l46.698-327.87C946.752,482.223,961.178,407.131,932.559,350.963z"/>
</g>
</svg>
