<?xml version="1.0" encoding="utf-8"?>
<!-- Generator: Adobe Illustrator 16.0.0, SVG Export Plug-In . SVG Version: 6.00 Build 0)  -->
<!DOCTYPE svg PUBLIC "-//W3C//DTD SVG 1.1//EN" "http://www.w3.org/Graphics/SVG/1.1/DTD/svg11.dtd">
<svg version="1.1" id="Calque_1" xmlns="http://www.w3.org/2000/svg" xmlns:xlink="http://www.w3.org/1999/xlink" x="0px" y="0px"
	 width="1190.551px" height="1190.551px" viewBox="0 0 1190.551 1190.551" enable-background="new 0 0 1190.551 1190.551"
	 xml:space="preserve">
<g>
	<polygon fill="#010202" points="589.928,-0.001 0,93.435 453.141,422.66 550.936,407.172 520.817,217.006 	"/>
	<path fill="#010202" d="M85.55,654.316c-13.539-41.669-9.239-67.513,3.818-114.13c24.694-88.164,96.668-311.587,96.668-311.587
		l-74.907-22.201L13.715,522.926c0,0-25.995,71.909-6.516,131.863l48.908,150.523c0,0,9.766,35.847,42.505,25.209l14.458-4.697
		c0,0,25.098-9.565,13.907-44.009C126.978,781.816,95.699,685.552,85.55,654.316z"/>
	<path fill="#010202" d="M102.494,681.788c50.796,156.336,218.711,241.894,375.047,191.098L293.59,306.741
		C137.253,357.537,51.698,525.452,102.494,681.788z"/>
</g>
</svg>
