<?xml version="1.0" encoding="utf-8"?>
<!-- Generator: Adobe Illustrator 16.0.0, SVG Export Plug-In . SVG Version: 6.00 Build 0)  -->
<!DOCTYPE svg PUBLIC "-//W3C//DTD SVG 1.1//EN" "http://www.w3.org/Graphics/SVG/1.1/DTD/svg11.dtd">
<svg version="1.1" id="Calque_1" xmlns="http://www.w3.org/2000/svg" xmlns:xlink="http://www.w3.org/1999/xlink" x="0px" y="0px"
	 width="1190.551px" height="1190.551px" viewBox="0 0 1190.551 1190.551" enable-background="new 0 0 1190.551 1190.551"
	 xml:space="preserve">
<g>
	<path fill="#010202" d="M595.279-0.001H0C-0.001,164.382,133.257,297.64,297.639,297.64S595.279,164.382,595.279-0.001z"/>
	<path fill="#010202" d="M195.38,773.903H37.11c0,0-14.948-0.707-25.87,7.572l384.819-384.821V297.64h-98.42h-94.116L0,195.431
		v597.283l5.797-5.797C2.319,791.59,0,797.932,0,806.537v15.202c0,0,1.341,26.825,37.557,26.825c0,0,101.218,0,134.062,0
		c43.812,0,67.062,12.076,107.363,38.897c76.219,50.73,266.464,188.223,266.464,188.223l44.263-64.38L318.776,820.847
		C318.776,820.847,258.419,773.903,195.38,773.903z"/>
</g>
</svg>
