<?xml version="1.0" encoding="utf-8"?>
<!-- Generator: Adobe Illustrator 16.0.0, SVG Export Plug-In . SVG Version: 6.00 Build 0)  -->
<!DOCTYPE svg PUBLIC "-//W3C//DTD SVG 1.1//EN" "http://www.w3.org/Graphics/SVG/1.1/DTD/svg11.dtd">
<svg version="1.1" id="Calque_1" xmlns="http://www.w3.org/2000/svg" xmlns:xlink="http://www.w3.org/1999/xlink" x="0px" y="0px"
	 width="1190.551px" height="1190.551px" viewBox="0 0 1190.551 1190.551" enable-background="new 0 0 1190.551 1190.551"
	 xml:space="preserve">
<g>
	<path fill="#010202" d="M704.65,849.019l-271.1-532.062c24.221,11.139,50.348,19.191,77.973,23.566
		c162.356,25.715,314.821-85.056,340.536-247.415L264.109-0.015c-21.336,134.7,51.279,262.583,169.354,316.932L260.406,849.535
		l44.952,88.222l171.551-87.408L704.65,849.019z"/>
	<path fill="#010202" d="M892.884,749.391l-292.7,154.936c0,0-69.229,32.467-97.849,88.634l-71.853,141.021
		c0,0-18.444,32.254,12.229,47.882l13.545,6.902c0,0,24.51,10.982,40.951-21.285c0,0,45.952-90.188,60.863-119.45
		c19.89-39.037,41.206-54.271,83.401-78.002c79.802-44.881,288.678-151.971,288.678-151.971L892.884,749.391z"/>
</g>
</svg>
