<?xml version="1.0" encoding="utf-8"?>
<!-- Generator: Adobe Illustrator 16.0.0, SVG Export Plug-In . SVG Version: 6.00 Build 0)  -->
<!DOCTYPE svg PUBLIC "-//W3C//DTD SVG 1.1//EN" "http://www.w3.org/Graphics/SVG/1.1/DTD/svg11.dtd">
<svg version="1.1" id="Calque_1" xmlns="http://www.w3.org/2000/svg" xmlns:xlink="http://www.w3.org/1999/xlink" x="0px" y="0px"
	 width="1190.551px" height="1190.551px" viewBox="0 0 1190.551 1190.551" enable-background="new 0 0 1190.551 1190.551"
	 xml:space="preserve">
<g>
	<path fill="#010202" d="M892.914,57.433H297.636c-0.001,164.383,133.257,297.641,297.639,297.641
		C759.656,355.074,892.914,221.816,892.914,57.433z"/>
	<path fill="#010202" d="M493.016,831.338H334.746c0,0-14.947-0.707-25.869,7.57l384.819-384.82v-99.014h-98.42h-94.116
		L297.636,252.865v597.283l5.797-5.797c-3.479,4.672-5.797,11.014-5.797,19.619v15.203c0,0,1.341,26.824,37.557,26.824
		c0,0,101.218,0,134.062,0c43.812,0,67.062,12.076,107.362,38.896c76.22,50.73,266.464,188.223,266.464,188.223l44.264-64.379
		L616.412,878.281C616.412,878.281,556.055,831.338,493.016,831.338z"/>
</g>
</svg>
