<?xml version="1.0" encoding="utf-8"?>
<!-- Generator: Adobe Illustrator 16.0.0, SVG Export Plug-In . SVG Version: 6.00 Build 0)  -->
<!DOCTYPE svg PUBLIC "-//W3C//DTD SVG 1.1//EN" "http://www.w3.org/Graphics/SVG/1.1/DTD/svg11.dtd">
<svg version="1.1" id="Calque_1" xmlns="http://www.w3.org/2000/svg" xmlns:xlink="http://www.w3.org/1999/xlink" x="0px" y="0px"
	 width="1190.551px" height="1190.551px" viewBox="0 0 1190.551 1190.551" enable-background="new 0 0 1190.551 1190.551"
	 xml:space="preserve">
<path fill="#010202" d="M195.38,676.344H37.11c0,0-0.021-0.001-0.025-0.001h560.197L203.306,282.368
	c29.644,9.899,61.359,15.272,94.333,15.272c164.382,0,297.64-133.258,297.64-297.641H0
	c-0.001,129.172,82.291,239.108,197.303,280.285h-95.094v192.536L0,676.343h35.204C27.647,676.532,0,679.256,0,708.979v15.202
	c0,0,1.341,26.825,37.557,26.825c0,0,101.218,0,134.062,0c43.812,0,67.062,12.076,107.363,38.897
	c76.219,50.73,266.464,188.224,266.464,188.224l44.263-64.38L318.776,723.288C318.776,723.288,258.419,676.344,195.38,676.344z"/>
</svg>
