<?xml version="1.0" encoding="utf-8"?>
<!-- Generator: Adobe Illustrator 16.0.0, SVG Export Plug-In . SVG Version: 6.00 Build 0)  -->
<!DOCTYPE svg PUBLIC "-//W3C//DTD SVG 1.1//EN" "http://www.w3.org/Graphics/SVG/1.1/DTD/svg11.dtd">
<svg version="1.1" id="Calque_1" xmlns="http://www.w3.org/2000/svg" xmlns:xlink="http://www.w3.org/1999/xlink" x="0px" y="0px"
	 width="1190.551px" height="1190.551px" viewBox="0 0 1190.551 1190.551" enable-background="new 0 0 1190.551 1190.551"
	 xml:space="preserve">
<g>
	<path fill="#010202" d="M303.853,516.778c0,0-10.706-15.797-28.896-34.036l147.385,147.385V70.013L352.328,0L216.185,136.144
		L0,207.783l274.832,274.832c-18.214-18.24-43.895-38.89-73.83-48.616L50.478,385.091c0,0-34.74-13.17-45.378,19.57l-4.698,14.458
		c0,0-7.014,25.927,27.429,37.117c0,0,96.265,31.278,127.501,41.428c41.668,13.539,60.049,32.209,90.089,70.173
		c56.812,71.8,195.26,261.352,195.26,261.352l61.99-47.55L303.853,516.778z"/>
	<path fill="#010202" d="M0,505.043l93.122,587.95c162.358-25.713,273.131-178.178,247.415-340.536
		C314.823,590.1,162.36,479.328,0,505.043z"/>
</g>
</svg>
