<?xml version="1.0" encoding="utf-8"?>
<!-- Generator: Adobe Illustrator 16.0.0, SVG Export Plug-In . SVG Version: 6.00 Build 0)  -->
<!DOCTYPE svg PUBLIC "-//W3C//DTD SVG 1.1//EN" "http://www.w3.org/Graphics/SVG/1.1/DTD/svg11.dtd">
<svg version="1.1" id="Calque_1" xmlns="http://www.w3.org/2000/svg" xmlns:xlink="http://www.w3.org/1999/xlink" x="0px" y="0px"
	 width="1190.551px" height="1190.551px" viewBox="0 0 1190.551 1190.551" enable-background="new 0 0 1190.551 1190.551"
	 xml:space="preserve">
<g>
	<path fill="#010202" d="M415.744,122.684C319.123-10.303,132.988-39.785,0,56.837l349.896,481.591
		C482.884,441.807,512.365,255.672,415.744,122.684z"/>
	<polygon fill="#010202" points="396.059,538.428 349.897,538.428 203.523,538.428 0,436.219 0,1033.5 396.059,637.443 	"/>
	<path fill="#010202" d="M668.761,1126.085l-2.38-15.015c0,0-5.521-26.285-41.289-20.62c0,0-99.973,15.834-132.412,20.972
		c-43.273,6.855-68.127-1.436-112.128-21.623c-83.216-38.185-292.628-144.222-292.628-144.222l-33.646,70.512l297.392,145.729
		c0,0,66.958,36.924,129.22,27.062l156.322-24.759C637.211,1164.122,674.145,1160.085,668.761,1126.085z"/>
</g>
</svg>
