<?xml version="1.0" encoding="utf-8"?>
<!-- Generator: Adobe Illustrator 16.0.0, SVG Export Plug-In . SVG Version: 6.00 Build 0)  -->
<!DOCTYPE svg PUBLIC "-//W3C//DTD SVG 1.1//EN" "http://www.w3.org/Graphics/SVG/1.1/DTD/svg11.dtd">
<svg version="1.1" id="Calque_1" xmlns="http://www.w3.org/2000/svg" xmlns:xlink="http://www.w3.org/1999/xlink" x="0px" y="0px"
	 width="1190.551px" height="1190.551px" viewBox="0 0 1190.551 1190.551" enable-background="new 0 0 1190.551 1190.551"
	 xml:space="preserve">
<path fill="#010202" d="M552.152,1064.275c0,0-101.218,0-134.062,0c-43.812,0-67.062-12.076-107.363-38.897
	C234.51,974.648,44.276,837.162,44.263,837.154l545.665,86.427L260.702,470.439l-4.228-0.669
	c105.332,14.611,215.081-27.832,281.953-119.874L56.837,0c-96.622,132.987-67.141,319.122,65.847,415.743
	c37.403,27.175,79.009,44.375,121.646,52.102l-81.423-12.896l-30.119,190.166L-0.001,830.143l44.264,7.011L0,901.533
	l270.933,190.459c0,0,60.356,46.944,123.396,46.944h158.27c0,0,37.11,1.79,37.11-32.635V1091.1
	C589.709,1091.1,588.366,1064.275,552.152,1064.275z"/>
</svg>
