<?xml version="1.0" encoding="utf-8"?>
<!-- Generator: Adobe Illustrator 16.0.0, SVG Export Plug-In . SVG Version: 6.00 Build 0)  -->
<!DOCTYPE svg PUBLIC "-//W3C//DTD SVG 1.1//EN" "http://www.w3.org/Graphics/SVG/1.1/DTD/svg11.dtd">
<svg version="1.1" id="Calque_1" xmlns="http://www.w3.org/2000/svg" xmlns:xlink="http://www.w3.org/1999/xlink" x="0px" y="0px"
	 width="1190.551px" height="1190.551px" viewBox="0 0 1190.551 1190.551" enable-background="new 0 0 1190.551 1190.551"
	 xml:space="preserve">
<g>
	<path fill="#010202" d="M764.305,122.698C667.684-10.289,481.548-39.771,348.561,56.851l349.896,481.591
		C831.445,441.821,860.925,255.686,764.305,122.698z"/>
	<polygon fill="#010202" points="744.619,538.441 698.457,538.441 552.083,538.441 348.561,436.232 348.561,1033.514 
		744.619,637.457 	"/>
	<path fill="#010202" d="M741.506,1012.388c-13.538-41.669-9.238-67.513,3.817-114.13c24.693-88.166,96.667-311.588,96.667-311.588
		l-74.906-22.201L669.67,880.997c0,0-25.995,71.91-6.516,131.862l48.908,150.523c0,0,9.765,35.849,42.506,25.209l14.458-4.697
		c0,0,25.097-9.564,13.905-44.006C782.932,1139.889,751.655,1043.624,741.506,1012.388z"/>
</g>
</svg>
