<?xml version="1.0" encoding="utf-8"?>
<!-- Generator: Adobe Illustrator 16.0.0, SVG Export Plug-In . SVG Version: 6.00 Build 0)  -->
<!DOCTYPE svg PUBLIC "-//W3C//DTD SVG 1.1//EN" "http://www.w3.org/Graphics/SVG/1.1/DTD/svg11.dtd">
<svg version="1.1" id="Calque_1" xmlns="http://www.w3.org/2000/svg" xmlns:xlink="http://www.w3.org/1999/xlink" x="0px" y="0px"
	 width="1190.551px" height="1190.551px" viewBox="0 0 1190.551 1190.551" enable-background="new 0 0 1190.551 1190.551"
	 xml:space="preserve">
<g>
	<path fill="#010202" d="M647.886,565.557c0,0-10.706-15.797-28.896-34.036l147.385,147.385V118.792l-70.014-70.013L560.218,184.923
		l-216.185,71.639l274.833,274.832c-18.214-18.24-43.896-38.89-73.831-48.616L394.51,433.87c0,0-34.74-13.17-45.378,19.57
		l-4.698,14.458c0,0-7.014,25.927,27.43,37.117c0,0,96.265,31.278,127.501,41.428c41.668,13.539,60.049,32.209,90.089,70.172
		c56.812,71.801,195.26,261.354,195.26,261.354l61.99-47.551L647.886,565.557z"/>
	<path fill="#010202" d="M344.033,553.822l93.122,587.95c162.358-25.713,273.131-178.178,247.416-340.535
		C658.856,638.879,506.392,528.107,344.033,553.822z"/>
</g>
</svg>
