<?xml version="1.0" encoding="utf-8"?>
<!-- Generator: Adobe Illustrator 16.0.0, SVG Export Plug-In . SVG Version: 6.00 Build 0)  -->
<!DOCTYPE svg PUBLIC "-//W3C//DTD SVG 1.1//EN" "http://www.w3.org/Graphics/SVG/1.1/DTD/svg11.dtd">
<svg version="1.1" id="Calque_1" xmlns="http://www.w3.org/2000/svg" xmlns:xlink="http://www.w3.org/1999/xlink" x="0px" y="0px"
	 width="1190.551px" height="1190.551px" viewBox="0 0 1190.551 1190.551" enable-background="new 0 0 1190.551 1190.551"
	 xml:space="preserve">
<g>
	<path fill="#010202" d="M693.29,389.612H581.617c30.039-0.14,60.563-4.846,90.663-14.625
		C828.615,324.19,914.172,156.275,863.375-0.062L297.232,183.892c40.472,124.563,155.297,204.193,279.377,205.721h-75.855
		L297.231,287.403v597.281L693.29,488.626V389.612z"/>
	<path fill="#010202" d="M865.305,1116.852c0,0-96.264-31.277-127.5-41.427c-41.669-13.539-60.049-32.208-90.089-70.173
		c-56.814-71.801-195.261-261.353-195.261-261.353l-61.989,47.55l198.816,264.861c0,0,42.896,63.298,102.851,82.777l150.521,48.906
		c0,0,34.74,13.172,45.381-19.567l4.695-14.458C892.733,1153.971,899.748,1128.045,865.305,1116.852z"/>
</g>
</svg>
