<?xml version="1.0" encoding="utf-8"?>
<!-- Generator: Adobe Illustrator 16.0.0, SVG Export Plug-In . SVG Version: 6.00 Build 0)  -->
<!DOCTYPE svg PUBLIC "-//W3C//DTD SVG 1.1//EN" "http://www.w3.org/Graphics/SVG/1.1/DTD/svg11.dtd">
<svg version="1.1" id="Calque_1" xmlns="http://www.w3.org/2000/svg" xmlns:xlink="http://www.w3.org/1999/xlink" x="0px" y="0px"
	 width="1190.551px" height="1190.551px" viewBox="0 0 1190.551 1190.551" enable-background="new 0 0 1190.551 1190.551"
	 xml:space="preserve">
<path fill="#010202" d="M440.708,803.806l61.962-47.53L303.853,491.414c0,0-42.896-63.297-102.851-82.776L50.479,359.73
	c0,0-2.172-0.823-5.596-1.546l508.334,80.51l80.103-58.198L520.15,224.731L483.211,0L-0.001,351.074l39.732,6.293
	c-11.127-1.172-27.82,0.969-34.632,21.932l-4.698,14.457c0,0-7.014,25.927,27.429,37.119c0,0,96.264,31.276,127.499,41.427
	c41.669,13.539,60.05,32.209,90.089,70.173c56.218,71.047,192.359,257.38,195.21,261.282c-20.11-12.522-42.036-22.846-65.581-30.496
	C218.711,722.464,50.796,808.021-0.001,964.358l566.145,183.951C609.281,1015.546,554.074,874.453,440.708,803.806z"/>
</svg>
