<?xml version="1.0" encoding="utf-8"?>
<!-- Generator: Adobe Illustrator 16.0.0, SVG Export Plug-In . SVG Version: 6.00 Build 0)  -->
<!DOCTYPE svg PUBLIC "-//W3C//DTD SVG 1.1//EN" "http://www.w3.org/Graphics/SVG/1.1/DTD/svg11.dtd">
<svg version="1.1" id="Calque_1" xmlns="http://www.w3.org/2000/svg" xmlns:xlink="http://www.w3.org/1999/xlink" x="0px" y="0px"
	 width="1190.551px" height="1190.551px" viewBox="0 0 1190.551 1190.551" enable-background="new 0 0 1190.551 1190.551"
	 xml:space="preserve">
<path fill="#010202" d="M492.015,782.557H333.744c0,0-0.021-0.002-0.024-0.002h560.196L499.941,388.581
	c29.645,9.899,61.359,15.272,94.333,15.272c164.382,0,297.64-133.258,297.64-297.641H296.635
	c-0.001,129.172,82.291,239.108,197.303,280.285h-95.094v192.536L296.635,782.555h35.204c-7.558,0.189-35.204,2.914-35.204,32.637
	v15.201c0,0,1.341,26.826,37.557,26.826c0,0,101.218,0,134.062,0c43.812,0,67.062,12.076,107.362,38.896
	c76.22,50.73,266.464,188.225,266.464,188.225l44.264-64.381L615.41,829.5C615.41,829.5,555.054,782.557,492.015,782.557z"/>
</svg>
