<?xml version="1.0" encoding="utf-8"?>
<!-- Generator: Adobe Illustrator 16.0.0, SVG Export Plug-In . SVG Version: 6.00 Build 0)  -->
<!DOCTYPE svg PUBLIC "-//W3C//DTD SVG 1.1//EN" "http://www.w3.org/Graphics/SVG/1.1/DTD/svg11.dtd">
<svg version="1.1" id="Calque_1" xmlns="http://www.w3.org/2000/svg" xmlns:xlink="http://www.w3.org/1999/xlink" x="0px" y="0px"
	 width="1190.551px" height="1190.551px" viewBox="0 0 1190.551 1190.551" enable-background="new 0 0 1190.551 1190.551"
	 xml:space="preserve">
<g>
	<path fill="#010202" d="M676.371,122.696C579.75-10.29,393.615-39.772,260.627,56.85L610.523,538.44
		C743.511,441.819,772.991,255.685,676.371,122.696z"/>
	<polygon fill="#010202" points="656.686,538.44 610.524,538.44 464.15,538.44 260.627,436.231 260.627,1033.513 656.686,637.456 	
		"/>
	<path fill="#010202" d="M929.388,1126.098l-2.38-15.015c0,0-5.521-26.285-41.289-20.62c0,0-99.974,15.834-132.412,20.972
		c-43.273,6.855-68.127-1.436-112.128-21.623c-83.216-38.185-292.628-144.222-292.628-144.222l-33.646,70.512l297.393,145.729
		c0,0,66.958,36.924,129.22,27.062l156.322-24.759C897.838,1164.135,934.772,1160.098,929.388,1126.098z"/>
</g>
</svg>
