<?xml version="1.0" encoding="utf-8"?>
<!-- Generator: Adobe Illustrator 16.0.0, SVG Export Plug-In . SVG Version: 6.00 Build 0)  -->
<!DOCTYPE svg PUBLIC "-//W3C//DTD SVG 1.1//EN" "http://www.w3.org/Graphics/SVG/1.1/DTD/svg11.dtd">
<svg version="1.1" id="Calque_1" xmlns="http://www.w3.org/2000/svg" xmlns:xlink="http://www.w3.org/1999/xlink" x="0px" y="0px"
	 width="1190.551px" height="1190.551px" viewBox="0 0 1190.551 1190.551" enable-background="new 0 0 1190.551 1190.551"
	 xml:space="preserve">
<g>
	<path fill="#010202" d="M415.744,122.684C319.123-10.303,132.988-39.785,0,56.837l349.896,481.591
		C482.884,441.807,512.365,255.672,415.744,122.684z"/>
	<polygon fill="#010202" points="396.059,538.428 349.897,538.428 203.523,538.428 0,436.219 0,1033.5 396.059,637.443 	"/>
	<path fill="#010202" d="M392.946,1012.374c-13.539-41.669-9.239-67.513,3.817-114.13c24.694-88.166,96.667-311.588,96.667-311.588
		l-74.906-22.201L321.11,880.983c0,0-25.995,71.911-6.516,131.863l48.908,150.523c0,0,9.765,35.849,42.506,25.209l14.458-4.697
		c0,0,25.097-9.564,13.906-44.006C434.372,1139.875,403.094,1043.61,392.946,1012.374z"/>
</g>
</svg>
