<?xml version="1.0" encoding="utf-8"?>
<!-- Generator: Adobe Illustrator 16.0.0, SVG Export Plug-In . SVG Version: 6.00 Build 0)  -->
<!DOCTYPE svg PUBLIC "-//W3C//DTD SVG 1.1//EN" "http://www.w3.org/Graphics/SVG/1.1/DTD/svg11.dtd">
<svg version="1.1" id="Calque_1" xmlns="http://www.w3.org/2000/svg" xmlns:xlink="http://www.w3.org/1999/xlink" x="0px" y="0px"
	 width="1190.551px" height="1190.551px" viewBox="0 0 1190.551 1190.551" enable-background="new 0 0 1190.551 1190.551"
	 xml:space="preserve">
<g>
	<path fill="#010202" d="M396.059,389.673H284.386c30.038-0.14,60.563-4.846,90.662-14.625
		C531.385,324.251,616.942,156.336,566.145-0.001L0.001,183.952c40.472,124.564,155.297,204.194,279.377,205.721h-75.855L0,287.464
		v597.281l396.059-396.058V389.673z"/>
	<path fill="#010202" d="M568.074,1116.912c0,0-96.264-31.277-127.5-41.427c-41.669-13.539-60.049-32.208-90.089-70.172
		c-56.814-71.801-195.261-261.353-195.261-261.353l-61.989,47.55l198.816,264.861c0,0,42.896,63.298,102.851,82.778l150.522,48.906
		c0,0,34.741,13.172,45.38-19.568l4.697-14.458C595.502,1154.031,602.517,1128.105,568.074,1116.912z"/>
</g>
</svg>
