<?xml version="1.0" encoding="utf-8"?>
<!-- Generator: Adobe Illustrator 16.0.0, SVG Export Plug-In . SVG Version: 6.00 Build 0)  -->
<!DOCTYPE svg PUBLIC "-//W3C//DTD SVG 1.1//EN" "http://www.w3.org/Graphics/SVG/1.1/DTD/svg11.dtd">
<svg version="1.1" id="Calque_1" xmlns="http://www.w3.org/2000/svg" xmlns:xlink="http://www.w3.org/1999/xlink" x="0px" y="0px"
	 width="1190.551px" height="1190.551px" viewBox="0 0 1190.551 1190.551" enable-background="new 0 0 1190.551 1190.551"
	 xml:space="preserve">
<g>
	<polygon fill="#010202" points="890.26,151.508 300.332,244.944 753.473,574.169 851.268,558.681 821.149,368.515 	"/>
	<path fill="#010202" d="M385.882,805.826c-13.539-41.67-9.239-67.514,3.818-114.131c24.693-88.164,96.668-311.587,96.668-311.587
		l-74.907-22.201l-97.414,316.528c0,0-25.995,71.908-6.516,131.863l48.907,150.523c0,0,9.767,35.846,42.505,25.209l14.458-4.697
		c0,0,25.099-9.566,13.907-44.01C427.31,933.326,396.031,837.061,385.882,805.826z"/>
	<path fill="#010202" d="M402.826,833.297c50.796,156.336,218.711,241.895,375.047,191.098L593.922,458.25
		C437.585,509.046,352.03,676.961,402.826,833.297z"/>
</g>
</svg>
