<?xml version="1.0" encoding="utf-8"?>
<!-- Generator: Adobe Illustrator 16.0.0, SVG Export Plug-In . SVG Version: 6.00 Build 0)  -->
<!DOCTYPE svg PUBLIC "-//W3C//DTD SVG 1.1//EN" "http://www.w3.org/Graphics/SVG/1.1/DTD/svg11.dtd">
<svg version="1.1" id="Calque_1" xmlns="http://www.w3.org/2000/svg" xmlns:xlink="http://www.w3.org/1999/xlink" x="0px" y="0px"
	 width="1190.551px" height="1190.551px" viewBox="0 0 1190.551 1190.551" enable-background="new 0 0 1190.551 1190.551"
	 xml:space="preserve">
<path fill="#010202" d="M719.416,824.927l61.963-47.529L582.562,512.535c0,0-42.896-63.297-102.851-82.776l-150.523-48.908
	c0,0-2.172-0.823-5.596-1.546l508.334,80.51l80.103-58.198l-113.17-155.765L761.92,21.121L278.708,372.195l39.731,6.293
	c-11.127-1.172-27.819,0.969-34.632,21.932l-4.698,14.457c0,0-7.014,25.927,27.43,37.119c0,0,96.264,31.276,127.499,41.427
	c41.669,13.539,60.05,32.209,90.089,70.173c56.218,71.046,192.358,257.38,195.21,261.282c-20.11-12.521-42.036-22.846-65.581-30.496
	c-156.336-50.797-324.251,34.761-375.048,191.098l566.145,183.95C887.99,1036.667,832.782,895.574,719.416,824.927z"/>
</svg>
