<?xml version="1.0" encoding="utf-8"?>
<!-- Generator: Adobe Illustrator 16.0.0, SVG Export Plug-In . SVG Version: 6.00 Build 0)  -->
<!DOCTYPE svg PUBLIC "-//W3C//DTD SVG 1.1//EN" "http://www.w3.org/Graphics/SVG/1.1/DTD/svg11.dtd">
<svg version="1.1" id="Calque_1" xmlns="http://www.w3.org/2000/svg" xmlns:xlink="http://www.w3.org/1999/xlink" x="0px" y="0px"
	 width="1190.551px" height="1190.551px" viewBox="0 0 1190.551 1190.551" enable-background="new 0 0 1190.551 1190.551"
	 xml:space="preserve">
<path fill="#010202" d="M852.478,1090.075c0,0-101.218,0-134.062,0c-43.812,0-67.062-12.076-107.363-38.897
	c-76.217-50.729-266.451-188.216-266.464-188.224l545.665,86.427L561.029,496.239l-4.229-0.669
	c105.332,14.611,215.081-27.832,281.953-119.874L357.163,25.8c-96.622,132.987-67.142,319.122,65.847,415.743
	c37.403,27.175,79.009,44.375,121.646,52.102l-81.423-12.896l-30.119,190.166L300.325,855.942l44.264,7.012l-44.263,64.379
	l270.933,190.459c0,0,60.356,46.943,123.396,46.943h158.27c0,0,37.11,1.791,37.11-32.635v-15.201
	C890.035,1116.899,888.692,1090.075,852.478,1090.075z"/>
</svg>
