<?xml version="1.0" encoding="utf-8"?>
<!-- Generator: Adobe Illustrator 16.0.0, SVG Export Plug-In . SVG Version: 6.00 Build 0)  -->
<!DOCTYPE svg PUBLIC "-//W3C//DTD SVG 1.1//EN" "http://www.w3.org/Graphics/SVG/1.1/DTD/svg11.dtd">
<svg version="1.1" id="Calque_1" xmlns="http://www.w3.org/2000/svg" xmlns:xlink="http://www.w3.org/1999/xlink" x="0px" y="0px"
	 width="1190.551px" height="1190.551px" viewBox="0 0 1190.551 1190.551" enable-background="new 0 0 1190.551 1190.551"
	 xml:space="preserve">
<g>
	<polygon fill="#010202" points="415.168,348.588 595.279,348.588 595.279,0 430.37,0 430.37,96.531 246.693,96.531 246.693,0 
		83.124,0 83.124,99.212 0,99.212 0,233.287 166.249,233.287 166.249,294.959 265.462,294.959 265.462,407.58 297.64,407.58 
		415.168,407.58 	"/>
	<path fill="#010202" d="M-0.001,705.221h35.17C27.563,705.418,0,708.177,0,737.856v15.202c0,0,1.341,26.825,37.557,26.825
		c0,0,101.218,0,134.062,0c43.812,0,67.062,12.074,107.363,38.897c76.219,50.73,266.464,188.224,266.464,188.224l44.263-64.382
		L318.776,752.163c0,0-60.356-46.942-123.396-46.942h399.897C595.28,540.838,462.022,407.58,297.64,407.58
		C133.257,407.58-0.001,540.838-0.001,705.221z"/>
</g>
</svg>
