<?xml version="1.0" encoding="utf-8"?>
<!-- Generator: Adobe Illustrator 16.0.0, SVG Export Plug-In . SVG Version: 6.00 Build 0)  -->
<!DOCTYPE svg PUBLIC "-//W3C//DTD SVG 1.1//EN" "http://www.w3.org/Graphics/SVG/1.1/DTD/svg11.dtd">
<svg version="1.1" id="Calque_1" xmlns="http://www.w3.org/2000/svg" xmlns:xlink="http://www.w3.org/1999/xlink" x="0px" y="0px"
	 width="1190.551px" height="1190.551px" viewBox="0 0 1190.551 1190.551" enable-background="new 0 0 1190.551 1190.551"
	 xml:space="preserve">
<path fill="#010202" d="M712.805,374.035h180.109V25.447H728.006v96.531H544.33V25.447H380.761v99.212h-83.124v134.075h166.249
	v61.672h99.213v112.453c-49.163-96.676-149.575-162.912-265.463-162.912v595.278c10.217,0,20.312-0.518,30.265-1.521
	c-10.719,1.36-30.264,7.263-30.264,32.251v15.202c0,0,1.341,26.825,37.557,26.825c0,0,101.218,0,134.062,0
	c43.812,0,67.062,12.074,107.362,38.896c76.219,50.73,266.463,188.225,266.463,188.225l44.264-64.382L616.412,910.264
	c0,0-60.355-46.942-123.395-46.942H334.747c0,0-2.108-0.096-5.305,0.212c149.425-15.875,265.835-142.309,265.835-295.946
	c0-48.427-11.575-94.146-32.094-134.56h149.624v-58.992H712.805z"/>
</svg>
