<?xml version="1.0" encoding="utf-8"?>
<!-- Generator: Adobe Illustrator 16.0.0, SVG Export Plug-In . SVG Version: 6.00 Build 0)  -->
<!DOCTYPE svg PUBLIC "-//W3C//DTD SVG 1.1//EN" "http://www.w3.org/Graphics/SVG/1.1/DTD/svg11.dtd">
<svg version="1.1" id="Calque_1" xmlns="http://www.w3.org/2000/svg" xmlns:xlink="http://www.w3.org/1999/xlink" x="0px" y="0px"
	 width="1190.551px" height="1190.551px" viewBox="0 0 1190.551 1190.551" enable-background="new 0 0 1190.551 1190.551"
	 xml:space="preserve">
<path fill="#010202" d="M717.323,650.473c0,0-60.357-46.943-123.396-46.943H435.655c0,0-0.04,0-0.07-0.003V437.529h61.672v-99.213
	h112.621V188.609h-58.993V8.499H202.297v164.907h96.53v183.679h-96.53v163.568h99.212v83.082
	c-31.035-10.97-64.422-16.96-99.213-16.96v595.278c164.383,0,297.641-133.258,297.641-297.639
	c0-84.145-34.928-160.123-91.062-214.258c5.56,4.498,14.092,8.033,27.229,8.033c0,0,101.218,0,134.062,0
	c43.812,0,67.062,12.076,107.363,38.896c76.219,50.73,266.465,188.223,266.465,188.223l44.264-64.379L717.323,650.473z
	 M301.629,603.777h128.336c-10.399,1.082-31.42,6.477-31.42,32.387v15.203c0,0,0.424,8.285,7.011,15.646
	C375.935,639.309,340.653,617.59,301.629,603.777z"/>
</svg>
