<?xml version="1.0" encoding="utf-8"?>
<!-- Generator: Adobe Illustrator 16.0.0, SVG Export Plug-In . SVG Version: 6.00 Build 0)  -->
<!DOCTYPE svg PUBLIC "-//W3C//DTD SVG 1.1//EN" "http://www.w3.org/Graphics/SVG/1.1/DTD/svg11.dtd">
<svg version="1.1" id="Calque_1" xmlns="http://www.w3.org/2000/svg" xmlns:xlink="http://www.w3.org/1999/xlink" x="0px" y="0px"
	 width="1190.551px" height="1190.551px" viewBox="0 0 1190.551 1190.551" enable-background="new 0 0 1190.551 1190.551"
	 xml:space="preserve">
<path fill="#010202" d="M945.669,742.023V146.745c-146.856-0.001-268.858,106.361-293.207,246.251V229.869H553.25v-83.124H419.175
	v166.249h-61.672v99.213H244.882v149.706h58.992v180.11h-21.883c0,0-37.108-1.791-37.108,32.635v15.202
	c0,0,1.341,26.825,37.557,26.825c0,0,101.218,0,134.062,0c43.812,0,67.062,12.075,107.362,38.898
	c76.22,50.729,266.464,188.222,266.464,188.222l44.264-64.38L563.657,788.968c0,0-60.355-46.943-123.396-46.943h212.2V577.116
	H555.93V393.438h96.459c-2.856,16.556-4.36,33.575-4.36,50.946C648.029,608.766,781.286,742.023,945.669,742.023z"/>
</svg>
