<?xml version="1.0" encoding="utf-8"?>
<!-- Generator: Adobe Illustrator 16.0.0, SVG Export Plug-In . SVG Version: 6.00 Build 0)  -->
<!DOCTYPE svg PUBLIC "-//W3C//DTD SVG 1.1//EN" "http://www.w3.org/Graphics/SVG/1.1/DTD/svg11.dtd">
<svg version="1.1" id="Calque_1" xmlns="http://www.w3.org/2000/svg" xmlns:xlink="http://www.w3.org/1999/xlink" x="0px" y="0px"
	 width="1190.551px" height="1190.551px" viewBox="0 0 1190.551 1190.551" enable-background="new 0 0 1190.551 1190.551"
	 xml:space="preserve">
<path fill="#010202" d="M415.168,348.588h180.11V0H430.37v96.531H246.693V0H83.124v99.212H0v134.075h166.249v61.672h99.213v112.453
	C216.299,310.736,115.887,244.5-0.001,244.5v595.278c10.217,0,20.313-0.517,30.265-1.521C19.545,839.617,0,845.52,0,870.508v15.202
	c0,0,1.341,26.825,37.557,26.825c0,0,101.218,0,134.062,0c43.812,0,67.062,12.074,107.363,38.897
	c76.219,50.73,266.464,188.224,266.464,188.224l44.263-64.382L318.776,884.816c0,0-60.356-46.942-123.396-46.942H37.11
	c0,0-2.109-0.096-5.305,0.212C181.23,822.211,297.64,695.777,297.64,542.14c0-48.427-11.575-94.146-32.094-134.56h149.623V348.588z"
	/>
</svg>
