<?xml version="1.0" encoding="utf-8"?>
<!-- Generator: Adobe Illustrator 16.0.0, SVG Export Plug-In . SVG Version: 6.00 Build 0)  -->
<!DOCTYPE svg PUBLIC "-//W3C//DTD SVG 1.1//EN" "http://www.w3.org/Graphics/SVG/1.1/DTD/svg11.dtd">
<svg version="1.1" id="Calque_1" xmlns="http://www.w3.org/2000/svg" xmlns:xlink="http://www.w3.org/1999/xlink" x="0px" y="0px"
	 width="1190.551px" height="1190.551px" viewBox="0 0 1190.551 1190.551" enable-background="new 0 0 1190.551 1190.551"
	 xml:space="preserve">
<path fill="#010202" d="M515.026,641.975c0,0-60.357-46.944-123.396-46.944H233.359c0,0-0.04-0.001-0.071-0.003V429.03h61.672
	v-99.213H407.58V180.111h-58.992V0H0v164.907h96.531v183.679H0v163.568h99.212v83.082c-31.035-10.97-64.422-16.96-99.213-16.96
	v595.278c164.383,0.001,297.641-133.257,297.641-297.638c0-84.145-34.928-160.123-91.063-214.258
	c5.56,4.498,14.092,8.033,27.229,8.033c0,0,101.218,0,134.062,0c43.813,0,67.062,12.076,107.364,38.897
	c76.219,50.73,266.465,188.223,266.465,188.223l44.262-64.38L515.026,641.975z M99.332,595.279h128.336
	c-10.399,1.083-31.42,6.476-31.42,32.387v15.202c0,0,0.424,8.286,7.011,15.647C173.639,630.81,138.357,609.092,99.332,595.279z"/>
</svg>
