<?xml version="1.0" encoding="utf-8"?>
<!-- Generator: Adobe Illustrator 16.0.0, SVG Export Plug-In . SVG Version: 6.00 Build 0)  -->
<!DOCTYPE svg PUBLIC "-//W3C//DTD SVG 1.1//EN" "http://www.w3.org/Graphics/SVG/1.1/DTD/svg11.dtd">
<svg version="1.1" id="Calque_1" xmlns="http://www.w3.org/2000/svg" xmlns:xlink="http://www.w3.org/1999/xlink" x="0px" y="0px"
	 width="1190.551px" height="1190.551px" viewBox="0 0 1190.551 1190.551" enable-background="new 0 0 1190.551 1190.551"
	 xml:space="preserve">
<path fill="#010202" d="M415.168,646.228h180.11V297.64h-0.001C595.279,133.258,462.021,0,297.64,0
	C133.257,0-0.001,133.259-0.001,297.641h83.125v99.211H0v134.075h166.249v61.672h99.213v112.494
	c-20.549-8.9-45.103-16.273-70.082-16.273H37.11c0,0-37.109-1.79-37.109,32.637v15.2c0,0,1.341,26.825,37.557,26.825
	c0,0,101.218,0,134.062,0c43.812,0,67.062,12.076,107.363,38.899c76.219,50.729,266.464,188.222,266.464,188.222l44.263-64.38
	L318.776,735.764c0,0-21.868-17.003-53.021-30.544h149.414V646.228z M246.693,394.172v-96.531H430.37v96.531H246.693z"/>
</svg>
