<?xml version="1.0" encoding="utf-8"?>
<!-- Generator: Adobe Illustrator 16.0.0, SVG Export Plug-In . SVG Version: 6.00 Build 0)  -->
<!DOCTYPE svg PUBLIC "-//W3C//DTD SVG 1.1//EN" "http://www.w3.org/Graphics/SVG/1.1/DTD/svg11.dtd">
<svg version="1.1" id="Calque_1" xmlns="http://www.w3.org/2000/svg" xmlns:xlink="http://www.w3.org/1999/xlink" x="0px" y="0px"
	 width="1190.551px" height="1190.551px" viewBox="0 0 1190.551 1190.551" enable-background="new 0 0 1190.551 1190.551"
	 xml:space="preserve">
<path fill="#010202" d="M796.445,806.777c0,0-42.896-63.295-102.849-82.777l-135.979-44.182l69.974-69.975l58.777,58.777
	l94.806-94.806L663.616,456.26l43.609-43.607l-70.154-70.154l79.637-79.635l-105.859-105.86l-41.714,41.715L441.778,71.36
	L195.289,317.849l116.606,116.608l68.259-68.259l129.881,129.88l-68.254,68.254c-53.527-78.916-143.952-130.773-246.493-130.773
	v595.277c164.383,0.004,297.641-133.254,297.641-297.637c0-4.354-0.114-8.684-0.299-12.992c1.06,8.572,6.51,21.115,27.795,28.031
	c0,0,96.264,31.277,127.5,41.428c41.669,13.539,60.049,32.207,90.089,70.17c56.812,71.805,195.259,261.355,195.259,261.355
	l61.99-47.553L796.445,806.777z M497.695,694.662l-4.697,14.459c0,0-0.504,1.869-0.578,4.816
	c-3.16-55.24-21.37-106.447-50.614-149.574l115.283,115.283l-14.015-4.555C543.073,675.094,508.331,661.923,497.695,694.662z"/>
</svg>
