<?xml version="1.0" encoding="utf-8"?>
<!-- Generator: Adobe Illustrator 16.0.0, SVG Export Plug-In . SVG Version: 6.00 Build 0)  -->
<!DOCTYPE svg PUBLIC "-//W3C//DTD SVG 1.1//EN" "http://www.w3.org/Graphics/SVG/1.1/DTD/svg11.dtd">
<svg version="1.1" id="Calque_1" xmlns="http://www.w3.org/2000/svg" xmlns:xlink="http://www.w3.org/1999/xlink" x="0px" y="0px"
	 width="1190.551px" height="1190.551px" viewBox="0 0 1190.551 1190.551" enable-background="new 0 0 1190.551 1190.551"
	 xml:space="preserve">
<path fill="#010202" d="M728.006,58.696v96.531H544.329V58.696H380.76v99.212h-83.124v134.075h166.249v61.672h99.213v112.621
	h148.117c-72.686,54.269-119.747,140.96-119.747,238.646c0,99.219,48.559,187.08,123.196,241.162l-98.254-69.068
	c0,0-60.355-46.943-123.395-46.943h-158.27c0,0-37.108-1.791-37.108,32.635v15.201c0,0,1.341,26.826,37.557,26.826
	c0,0,101.218,0,134.062,0c43.812,0,67.062,12.076,107.362,38.898c76.219,50.729,266.463,188.223,266.463,188.223l44.264-64.381
	L722.604,951.666c47.521,32.131,104.82,50.896,166.506,50.896V407.284c-65.992,0-126.955,21.489-176.305,57.833v-57.833H889.11
	h3.805V58.696H728.006z"/>
</svg>
