<?xml version="1.0" encoding="utf-8"?>
<!-- Generator: Adobe Illustrator 16.0.0, SVG Export Plug-In . SVG Version: 6.00 Build 0)  -->
<!DOCTYPE svg PUBLIC "-//W3C//DTD SVG 1.1//EN" "http://www.w3.org/Graphics/SVG/1.1/DTD/svg11.dtd">
<svg version="1.1" id="Calque_1" xmlns="http://www.w3.org/2000/svg" xmlns:xlink="http://www.w3.org/1999/xlink" x="0px" y="0px"
	 width="1190.551px" height="1190.551px" viewBox="0 0 1190.551 1190.551" enable-background="new 0 0 1190.551 1190.551"
	 xml:space="preserve">
<path fill="#010202" d="M712.805,746.202h180.109V397.614l0,0c0.002-164.382-133.256-297.64-297.637-297.64
	c-164.383,0-297.641,133.259-297.641,297.641h83.125v99.211h-83.124V630.9h166.249v61.672h99.213v112.494
	c-20.549-8.899-45.104-16.272-70.082-16.272H334.747c0,0-37.108-1.79-37.108,32.637v15.2c0,0,1.341,26.825,37.557,26.825
	c0,0,101.218,0,134.062,0c43.812,0,67.062,12.075,107.362,38.898c76.22,50.729,266.464,188.223,266.464,188.223l44.264-64.381
	L616.412,835.737c0,0-21.867-17.003-53.02-30.544h149.415v-58.991H712.805z M544.33,494.146v-96.531h183.676v96.531H544.33z"/>
</svg>
