<?xml version="1.0" encoding="utf-8"?>
<!-- Generator: Adobe Illustrator 16.0.0, SVG Export Plug-In . SVG Version: 6.00 Build 0)  -->
<!DOCTYPE svg PUBLIC "-//W3C//DTD SVG 1.1//EN" "http://www.w3.org/Graphics/SVG/1.1/DTD/svg11.dtd">
<svg version="1.1" id="Calque_1" xmlns="http://www.w3.org/2000/svg" xmlns:xlink="http://www.w3.org/1999/xlink" x="0px" y="0px"
	 width="1190.551px" height="1190.551px" viewBox="0 0 1190.551 1190.551" enable-background="new 0 0 1190.551 1190.551"
	 xml:space="preserve">
<g>
	<path fill="#010202" d="M758.304,604.726l94.806-94.805L735.553,392.364l43.609-43.607l-70.154-70.154l79.637-79.635
		L682.785,93.108l-41.714,41.715L513.714,7.464L267.226,253.954l116.606,116.608l68.259-68.259l129.881,129.88l-68.26,68.259
		l52.08,52.08c-76.627-73.736-190.364-103.909-298.566-68.752l183.951,566.143c156.336-50.795,241.894-218.71,191.097-375.046
		c-14.288-43.976-37.843-82.349-67.8-113.665l54.899,54.899l4.851-4.85l65.303-65.303L758.304,604.726z"/>
	<path fill="#010202" d="M909.579,1116.757c0,0-71.572-71.571-94.796-94.796c-30.98-30.98-38.882-55.96-48.412-103.424
		c-18.023-89.768-55.326-321.511-55.326-321.511l-76.82,14.225l56.902,326.253c0,0,9.484,75.873,54.06,120.449l111.915,111.913
		c0,0,24.974,27.508,49.316,3.164l10.749-10.75C917.167,1162.282,935.187,1142.366,909.579,1116.757z"/>
</g>
</svg>
