<?xml version="1.0" encoding="utf-8"?>
<!-- Generator: Adobe Illustrator 16.0.0, SVG Export Plug-In . SVG Version: 6.00 Build 0)  -->
<!DOCTYPE svg PUBLIC "-//W3C//DTD SVG 1.1//EN" "http://www.w3.org/Graphics/SVG/1.1/DTD/svg11.dtd">
<svg version="1.1" id="Calque_1" xmlns="http://www.w3.org/2000/svg" xmlns:xlink="http://www.w3.org/1999/xlink" x="0px" y="0px"
	 width="1190.551px" height="1190.551px" viewBox="0 0 1190.551 1190.551" enable-background="new 0 0 1190.551 1190.551"
	 xml:space="preserve">
<path fill="#010202" d="M430.37,0v96.531H246.693V0H83.124v99.212H0v134.075h166.249v61.672h99.213V407.58h148.116
	c-72.685,54.269-119.746,140.961-119.746,238.646c0,99.218,48.56,187.081,123.196,241.163l-98.253-69.069
	c0,0-60.356-46.944-123.396-46.944H37.11c0,0-37.109-1.79-37.109,32.635v15.202c0,0,1.341,26.825,37.557,26.825
	c0,0,101.218,0,134.062,0c43.812,0,67.062,12.076,107.363,38.899c76.219,50.729,266.464,188.222,266.464,188.222l44.263-64.38
	L424.967,892.97c47.522,32.132,104.822,50.896,166.506,50.896V348.588c-65.991,0-126.954,21.489-176.305,57.833v-57.833h176.305
	h3.806V0H430.37z"/>
</svg>
