<?xml version="1.0" encoding="utf-8"?>
<!-- Generator: Adobe Illustrator 16.0.0, SVG Export Plug-In . SVG Version: 6.00 Build 0)  -->
<!DOCTYPE svg PUBLIC "-//W3C//DTD SVG 1.1//EN" "http://www.w3.org/Graphics/SVG/1.1/DTD/svg11.dtd">
<svg version="1.1" id="Calque_1" xmlns="http://www.w3.org/2000/svg" xmlns:xlink="http://www.w3.org/1999/xlink" x="0px" y="0px"
	 width="1190.551px" height="1190.551px" viewBox="0 0 1190.551 1190.551" enable-background="new 0 0 1190.551 1190.551"
	 xml:space="preserve">
<g>
	<path fill="#010202" d="M653.594,524.268l-64.364-44.25c37.79-49.903,60.219-112.08,60.219-179.502
		C649.45,136.132,516.191,2.874,351.809,2.874v595.278c96.771,0,182.739-46.191,237.101-117.717L398.754,750.94
		c0,0-46.942,60.354-46.942,123.396v158.271c0,0-1.79,37.107,32.636,37.107h15.201c0,0,26.825-1.341,26.825-37.556
		c0,0,0-101.218,0-134.062c0-43.812,12.074-67.062,38.897-107.361C516.101,714.513,653.594,524.268,653.594,524.268z"/>
	<polygon fill="#010202" points="838.756,839.091 838.756,675.521 739.544,675.521 739.544,592.397 605.469,592.397 
		605.469,758.646 543.797,758.646 543.797,857.859 431.176,857.859 431.176,1007.565 490.168,1007.565 490.168,1187.677 
		838.756,1187.677 838.756,1022.768 742.224,1022.768 742.224,839.091 	"/>
</g>
</svg>
