<?xml version="1.0" encoding="utf-8"?>
<!-- Generator: Adobe Illustrator 16.0.0, SVG Export Plug-In . SVG Version: 6.00 Build 0)  -->
<!DOCTYPE svg PUBLIC "-//W3C//DTD SVG 1.1//EN" "http://www.w3.org/Graphics/SVG/1.1/DTD/svg11.dtd">
<svg version="1.1" id="Calque_1" xmlns="http://www.w3.org/2000/svg" xmlns:xlink="http://www.w3.org/1999/xlink" x="0px" y="0px"
	 width="1190.551px" height="1190.551px" viewBox="0 0 1190.551 1190.551" enable-background="new 0 0 1190.551 1190.551"
	 xml:space="preserve">
<path fill="#010202" d="M601.156,735.418c0,0-42.896-63.296-102.849-82.777l-135.98-44.183l69.974-69.974l58.778,58.777
	l94.805-94.806L468.328,384.9l43.609-43.607l-70.154-70.154l79.636-79.635L415.56,85.644l-41.714,41.715L246.489,0L0,246.489
	l116.607,116.608l68.258-68.259l129.881,129.88l-68.254,68.254C192.965,414.056,102.54,362.199-0.001,362.199v595.278
	C164.382,957.48,297.64,824.222,297.64,659.84c0-4.355-0.114-8.684-0.299-12.993c1.06,8.573,6.51,21.115,27.795,28.031
	c0,0,96.264,31.278,127.5,41.428c41.669,13.539,60.049,32.208,90.089,70.171c56.812,71.803,195.259,261.354,195.259,261.354
	l61.99-47.552L601.156,735.418z M302.406,623.303l-4.698,14.458c0,0-0.504,1.869-0.578,4.817
	c-3.16-55.241-21.37-106.448-50.614-149.574l115.283,115.282l-14.015-4.554C347.783,603.733,313.042,590.563,302.406,623.303z"/>
</svg>
