<?xml version="1.0" encoding="utf-8"?>
<!-- Generator: Adobe Illustrator 16.0.0, SVG Export Plug-In . SVG Version: 6.00 Build 0)  -->
<!DOCTYPE svg PUBLIC "-//W3C//DTD SVG 1.1//EN" "http://www.w3.org/Graphics/SVG/1.1/DTD/svg11.dtd">
<svg version="1.1" id="Calque_1" xmlns="http://www.w3.org/2000/svg" xmlns:xlink="http://www.w3.org/1999/xlink" x="0px" y="0px"
	 width="1190.551px" height="1190.551px" viewBox="0 0 1190.551 1190.551" enable-background="new 0 0 1190.551 1190.551"
	 xml:space="preserve">
<g>
	<polygon fill="#010202" points="712.805,440.361 892.915,440.361 892.915,91.773 728.006,91.773 728.006,188.305 544.329,188.305 
		544.329,91.773 380.761,91.773 380.761,190.985 297.637,190.985 297.637,325.061 463.886,325.061 463.886,386.732 563.099,386.732 
		563.099,499.354 595.277,499.354 712.805,499.354 	"/>
	<path fill="#010202" d="M297.636,796.994h35.17c-7.606,0.197-35.169,2.956-35.169,32.636v15.201c0,0,1.341,26.825,37.557,26.825
		c0,0,101.218,0,134.062,0c43.812,0,67.062,12.074,107.362,38.897c76.22,50.729,266.464,188.224,266.464,188.224l44.264-64.382
		L616.412,843.937c0,0-60.355-46.942-123.396-46.942h399.896c0.003-164.383-133.255-297.641-297.637-297.641
		C430.894,499.354,297.636,632.611,297.636,796.994z"/>
</g>
</svg>
