<?xml version="1.0" encoding="utf-8"?>
<!-- Generator: Adobe Illustrator 16.0.0, SVG Export Plug-In . SVG Version: 6.00 Build 0)  -->
<!DOCTYPE svg PUBLIC "-//W3C//DTD SVG 1.1//EN" "http://www.w3.org/Graphics/SVG/1.1/DTD/svg11.dtd">
<svg version="1.1" id="Calque_1" xmlns="http://www.w3.org/2000/svg" xmlns:xlink="http://www.w3.org/1999/xlink" x="0px" y="0px"
	 width="1190.551px" height="1190.551px" viewBox="0 0 1190.551 1190.551" enable-background="new 0 0 1190.551 1190.551"
	 xml:space="preserve">
<path fill="#010202" d="M700.788,595.279V0C553.931-0.001,431.929,106.361,407.58,246.251V83.124h-99.212V0H174.293v166.249h-61.672
	v99.213H0v149.706h58.992v180.11H37.11c0,0-37.109-1.79-37.109,32.635v15.202c0,0,1.341,26.825,37.557,26.825
	c0,0,101.218,0,134.062,0c43.812,0,67.062,12.076,107.363,38.899c76.219,50.729,266.464,188.222,266.464,188.222l44.263-64.38
	L318.776,642.223c0,0-60.356-46.944-123.396-46.944h212.2V430.371h-96.532V246.693h96.459c-2.856,16.556-4.36,33.575-4.36,50.946
	C403.147,462.021,536.405,595.279,700.788,595.279z"/>
</svg>
