<?xml version="1.0" encoding="utf-8"?>
<!-- Generator: Adobe Illustrator 16.0.0, SVG Export Plug-In . SVG Version: 6.00 Build 0)  -->
<!DOCTYPE svg PUBLIC "-//W3C//DTD SVG 1.1//EN" "http://www.w3.org/Graphics/SVG/1.1/DTD/svg11.dtd">
<svg version="1.1" id="Calque_1" xmlns="http://www.w3.org/2000/svg" xmlns:xlink="http://www.w3.org/1999/xlink" x="0px" y="0px"
	 width="1190.551px" height="1190.551px" viewBox="0 0 1190.551 1190.551" enable-background="new 0 0 1190.551 1190.551"
	 xml:space="preserve">
<g>
	<path fill="#010202" d="M301.783,521.393l-64.363-44.25c37.789-49.903,60.219-112.08,60.219-179.502
		C297.64,133.257,164.381-0.001-0.001-0.001v595.278c96.771,0.001,182.74-46.191,237.101-117.717L46.944,748.065
		c0,0-46.943,60.355-46.943,123.396v158.271c0,0-1.79,37.108,32.636,37.108h15.201c0,0,26.825-1.341,26.825-37.556
		c0,0,0-101.218,0-134.062c0-43.812,12.075-67.062,38.898-107.362C164.291,711.638,301.783,521.393,301.783,521.393z"/>
	<polygon fill="#010202" points="486.946,836.216 486.946,672.646 387.734,672.646 387.734,589.522 253.658,589.522 
		253.658,755.771 191.987,755.771 191.987,854.984 79.365,854.984 79.365,1004.69 138.358,1004.69 138.358,1184.802 
		486.946,1184.802 486.946,1019.893 390.413,1019.893 390.413,836.216 	"/>
</g>
</svg>
