<?xml version="1.0" encoding="utf-8"?>
<!-- Generator: Adobe Illustrator 16.0.0, SVG Export Plug-In . SVG Version: 6.00 Build 0)  -->
<!DOCTYPE svg PUBLIC "-//W3C//DTD SVG 1.1//EN" "http://www.w3.org/Graphics/SVG/1.1/DTD/svg11.dtd">
<svg version="1.1" id="Calque_1" xmlns="http://www.w3.org/2000/svg" xmlns:xlink="http://www.w3.org/1999/xlink" x="0px" y="0px"
	 width="1190.551px" height="1190.551px" viewBox="0 0 1190.551 1190.551" enable-background="new 0 0 1190.551 1190.551"
	 xml:space="preserve">
<g>
	<polygon fill="#010202" points="149.158,906.178 149.158,690.527 425.913,690.527 425.913,595.28 407.58,595.28 407.58,430.372 
		311.048,430.372 311.048,246.692 407.58,246.692 407.58,83.124 308.368,83.124 308.368,0 174.293,0 174.293,166.248 
		112.621,166.248 112.621,265.461 0,265.461 0,415.168 58.993,415.168 58.993,595.28 0,595.28 0,1186.526 204.87,1186.526 
		204.87,1021.24 204.87,906.178 	"/>
	<path fill="#010202" d="M474.018,475.794h-15.202c0,0-26.825,1.341-26.825,37.557c0,0,0,101.218,0,134.062
		c0,43.813-12.075,67.063-38.897,107.364c-50.73,76.218-188.223,266.464-188.223,266.464l64.38,44.262l190.46-270.934
		c0,0,46.942-60.357,46.942-123.396v-158.27C506.653,512.904,508.443,475.794,474.018,475.794z"/>
</g>
</svg>
