<?xml version="1.0" encoding="utf-8"?>
<!-- Generator: Adobe Illustrator 16.0.0, SVG Export Plug-In . SVG Version: 6.00 Build 0)  -->
<!DOCTYPE svg PUBLIC "-//W3C//DTD SVG 1.1//EN" "http://www.w3.org/Graphics/SVG/1.1/DTD/svg11.dtd">
<svg version="1.1" id="Calque_1" xmlns="http://www.w3.org/2000/svg" xmlns:xlink="http://www.w3.org/1999/xlink" x="0px" y="0px"
	 width="1190.551px" height="1190.551px" viewBox="0 0 1190.551 1190.551" enable-background="new 0 0 1190.551 1190.551"
	 xml:space="preserve">
<path fill="#010202" d="M512.807,742.13V578.562h-99.212v-83.124H279.531c0-1.942,0-3.742,0-5.369
	c0-43.812,12.076-67.062,38.899-107.364C369.16,306.486,506.653,116.24,506.653,116.24l-64.38-44.263L251.814,342.911
	c0,0-46.943,60.356-46.943,123.396V310.898h-55.712V95.247h276.755V0H0v591.246h204.87v33.331c0,0-1.79,37.108,32.635,37.108
	h-19.656v99.213H105.228v149.707h58.992v180.112h348.587V925.81h-96.531V742.13H512.807z M252.707,661.686
	c0,0,26.582-1.341,26.813-37.096v37.096H252.707z"/>
</svg>
