<?xml version="1.0" encoding="utf-8"?>
<!-- Generator: Adobe Illustrator 16.0.0, SVG Export Plug-In . SVG Version: 6.00 Build 0)  -->
<!DOCTYPE svg PUBLIC "-//W3C//DTD SVG 1.1//EN" "http://www.w3.org/Graphics/SVG/1.1/DTD/svg11.dtd">
<svg version="1.1" id="Calque_1" xmlns="http://www.w3.org/2000/svg" xmlns:xlink="http://www.w3.org/1999/xlink" x="0px" y="0px"
	 width="1190.551px" height="1190.551px" viewBox="0 0 1190.551 1190.551" enable-background="new 0 0 1190.551 1190.551"
	 xml:space="preserve">
<g>
	<polygon fill="#010202" points="491.1,908.189 491.1,692.539 767.854,692.539 767.854,597.293 749.522,597.293 749.522,432.384 
		652.99,432.384 652.99,248.704 749.522,248.704 749.522,85.136 650.31,85.136 650.31,2.012 516.235,2.012 516.235,168.26 
		454.563,168.26 454.563,267.473 341.942,267.473 341.942,417.18 400.935,417.18 400.935,597.293 341.942,597.293 341.942,1188.539 
		546.812,1188.539 546.812,1023.252 546.812,908.189 	"/>
	<path fill="#010202" d="M815.959,477.806h-15.202c0,0-26.825,1.341-26.825,37.557c0,0,0,101.219,0,134.062
		c0,43.812-12.074,67.062-38.896,107.363c-50.73,76.219-188.223,266.465-188.223,266.465l64.38,44.262l190.46-270.934
		c0,0,46.941-60.357,46.941-123.396v-158.27C848.594,514.916,850.384,477.806,815.959,477.806z"/>
</g>
</svg>
