<?xml version="1.0" encoding="utf-8"?>
<!-- Generator: Adobe Illustrator 16.0.0, SVG Export Plug-In . SVG Version: 6.00 Build 0)  -->
<!DOCTYPE svg PUBLIC "-//W3C//DTD SVG 1.1//EN" "http://www.w3.org/Graphics/SVG/1.1/DTD/svg11.dtd">
<svg version="1.1" id="Calque_1" xmlns="http://www.w3.org/2000/svg" xmlns:xlink="http://www.w3.org/1999/xlink" x="0px" y="0px"
	 width="1190.551px" height="1190.551px" viewBox="0 0 1190.551 1190.551" enable-background="new 0 0 1190.551 1190.551"
	 xml:space="preserve">
<g>
	<polygon fill="#010202" points="99.212,595.28 233.287,595.28 233.287,429.031 294.959,429.031 294.959,329.819 407.58,329.819 
		407.58,180.112 348.587,180.112 348.587,0 0,0 0,164.907 96.532,164.907 96.532,348.588 0,348.588 0,512.156 99.212,512.156 	"/>
	<polygon fill="#010202" points="526.354,292.529 361.571,519.335 406.641,552.082 279.886,726.547 55.986,563.874 -0.001,640.931 
		344.573,891.277 692.097,412.948 	"/>
	<path fill="#010202" d="M574.025,713.142l-12.299-8.936c0,0-22.49-14.682-43.777,14.616c0,0-59.495,81.887-78.8,108.459
		c-25.752,35.445-49.188,47.157-94.576,63.995C258.731,923.12,35.673,996.216,35.673,996.216l26.067,73.65l313.336-107.241
		c0,0,73.456-21.236,110.509-72.235l93.028-128.043C578.614,762.347,601.874,733.377,574.025,713.142z"/>
</g>
</svg>
