<?xml version="1.0" encoding="utf-8"?>
<!-- Generator: Adobe Illustrator 16.0.0, SVG Export Plug-In . SVG Version: 6.00 Build 0)  -->
<!DOCTYPE svg PUBLIC "-//W3C//DTD SVG 1.1//EN" "http://www.w3.org/Graphics/SVG/1.1/DTD/svg11.dtd">
<svg version="1.1" id="Calque_1" xmlns="http://www.w3.org/2000/svg" xmlns:xlink="http://www.w3.org/1999/xlink" x="0px" y="0px"
	 width="1190.551px" height="1190.551px" viewBox="0 0 1190.551 1190.551" enable-background="new 0 0 1190.551 1190.551"
	 xml:space="preserve">
<path fill="#010202" d="M914.055,322.283c0,0-60.357-46.943-123.396-46.943H632.39c0,0-37.11-1.79-37.11,32.635V0H430.371v96.531
	h-183.68V0H83.124v99.212H0v134.075h166.248v61.672h99.213V407.58h149.707v221.354h55.713v215.652H194.124v95.247h425.913V348.661
	c3.694,0.842,7.922,1.341,12.8,1.341c0,0,101.218,0,134.062,0c43.813,0,67.063,12.076,107.364,38.898
	c76.218,50.729,266.464,188.222,266.464,188.222l44.262-64.381L914.055,322.283z M595.28,348.587v-25.41
	c0,0,1.017,19.896,24.449,25.41H595.28z"/>
</svg>
