<?xml version="1.0" encoding="utf-8"?>
<!-- Generator: Adobe Illustrator 16.0.0, SVG Export Plug-In . SVG Version: 6.00 Build 0)  -->
<!DOCTYPE svg PUBLIC "-//W3C//DTD SVG 1.1//EN" "http://www.w3.org/Graphics/SVG/1.1/DTD/svg11.dtd">
<svg version="1.1" id="Calque_1" xmlns="http://www.w3.org/2000/svg" xmlns:xlink="http://www.w3.org/1999/xlink" x="0px" y="0px"
	 width="1190.551px" height="1190.551px" viewBox="0 0 1190.551 1190.551" enable-background="new 0 0 1190.551 1190.551"
	 xml:space="preserve">
<g>
	<polygon fill="#010202" points="646.74,901.002 610.551,901.002 610.551,956.715 394.9,956.715 394.9,679.959 707.233,679.959 
		707.233,515.05 610.701,515.05 610.701,331.37 707.233,331.37 707.233,167.802 608.022,167.802 608.022,84.678 473.946,84.678 
		473.946,250.926 412.274,250.926 412.274,350.139 299.653,350.139 299.653,499.846 358.646,499.846 358.646,679.959 
		299.653,679.959 299.653,1105.873 890.899,1105.873 890.899,901.002 	"/>
	<path fill="#010202" d="M884.143,506.672V348.403c0,0,1.789-37.11-32.635-37.11h-15.203c0,0-26.824,1.341-26.824,37.556
		c0,0,0,101.219,0,134.062c0,43.812-12.074,67.062-38.898,107.364C719.854,666.494,582.36,856.74,582.36,856.74l64.38,44.262
		l190.459-270.934C837.199,630.068,884.143,569.711,884.143,506.672z"/>
</g>
</svg>
