<?xml version="1.0" encoding="utf-8"?>
<!-- Generator: Adobe Illustrator 16.0.0, SVG Export Plug-In . SVG Version: 6.00 Build 0)  -->
<!DOCTYPE svg PUBLIC "-//W3C//DTD SVG 1.1//EN" "http://www.w3.org/Graphics/SVG/1.1/DTD/svg11.dtd">
<svg version="1.1" id="Calque_1" xmlns="http://www.w3.org/2000/svg" xmlns:xlink="http://www.w3.org/1999/xlink" x="0px" y="0px"
	 width="1190.551px" height="1190.551px" viewBox="0 0 1190.551 1190.551" enable-background="new 0 0 1190.551 1190.551"
	 xml:space="preserve">
<g>
	<path fill="#010202" d="M902.988,271.74h-15.202c0,0-26.824,1.341-26.824,37.556c0,0,0,101.219,0,134.062
		c0,43.812-12.074,67.062-38.897,107.364c-50.729,76.218-188.223,266.463-188.223,266.463l64.381,44.264l190.459-270.935
		c0,0,46.942-60.356,46.942-123.396V308.849C935.623,308.849,937.412,271.74,902.988,271.74z"/>
	<polygon fill="#010202" points="565.96,757.285 662.492,757.285 662.492,593.716 563.281,593.716 563.281,510.592 846.156,510.592 
		846.156,305.722 565.81,305.722 565.81,361.434 350.159,361.434 350.159,84.678 254.912,84.678 254.912,510.592 429.205,510.592 
		429.205,676.84 367.533,676.84 367.533,776.053 254.912,776.053 254.912,925.76 313.906,925.76 313.906,1105.873 662.492,1105.873 
		662.492,940.963 565.96,940.963 	"/>
</g>
</svg>
