<?xml version="1.0" encoding="utf-8"?>
<!-- Generator: Adobe Illustrator 16.0.0, SVG Export Plug-In . SVG Version: 6.00 Build 0)  -->
<!DOCTYPE svg PUBLIC "-//W3C//DTD SVG 1.1//EN" "http://www.w3.org/Graphics/SVG/1.1/DTD/svg11.dtd">
<svg version="1.1" id="Calque_1" xmlns="http://www.w3.org/2000/svg" xmlns:xlink="http://www.w3.org/1999/xlink" x="0px" y="0px"
	 width="1190.551px" height="1190.551px" viewBox="0 0 1190.551 1190.551" enable-background="new 0 0 1190.551 1190.551"
	 xml:space="preserve">
<g>
	<path fill="#010202" d="M728.006,51.549v96.531h-183.68V51.549H380.76v99.212h-83.124v134.075h166.248v61.672h99.213v112.621
		h149.707v-58.993h41.472L563.818,671.07c0,0-46.943,60.356-46.943,123.396v158.269c0,0-1.789,37.11,32.636,37.11h15.202
		c0,0,26.823-1.343,26.823-37.558c0,0,0-101.219,0-134.062c0-43.812,12.076-67.062,38.899-107.364
		c50.729-76.218,188.222-266.463,188.222-266.463l-64.378-44.262h138.637V51.549H728.006z"/>
	<polygon fill="#010202" points="608.533,989.846 392.883,989.846 392.883,713.088 297.636,713.088 297.636,1139.002 
		888.88,1139.002 888.88,934.132 608.533,934.132 	"/>
</g>
</svg>
