<?xml version="1.0" encoding="utf-8"?>
<!-- Generator: Adobe Illustrator 16.0.0, SVG Export Plug-In . SVG Version: 6.00 Build 0)  -->
<!DOCTYPE svg PUBLIC "-//W3C//DTD SVG 1.1//EN" "http://www.w3.org/Graphics/SVG/1.1/DTD/svg11.dtd">
<svg version="1.1" id="Calque_1" xmlns="http://www.w3.org/2000/svg" xmlns:xlink="http://www.w3.org/1999/xlink" x="0px" y="0px"
	 width="1190.551px" height="1190.551px" viewBox="0 0 1190.551 1190.551" enable-background="new 0 0 1190.551 1190.551"
	 xml:space="preserve">
<path fill="#010202" d="M610.551,859.439v55.712h-66.146H394.901V638.396h3.965v83.124h134.075V555.271h61.672v-99.213h112.533
	c0,16.615,0,31.608,0,41.003c0,43.813-12.076,67.063-38.898,107.365c-50.729,76.219-188.223,266.465-188.223,266.465l64.38,44.262
	l190.46-270.934c0,0,46.941-60.356,46.941-123.396v-158.27c0,0,1.79-37.109-32.635-37.109h-15.202c0,0-25.091,1.259-26.735,34.112
	v-53.204H648.24V126.24H299.654v164.907h96.532v183.681h-96.532v163.567v425.915h591.244V859.44L610.551,859.439L610.551,859.439z"
	/>
</svg>
