<?xml version="1.0" encoding="utf-8"?>
<!-- Generator: Adobe Illustrator 16.0.0, SVG Export Plug-In . SVG Version: 6.00 Build 0)  -->
<!DOCTYPE svg PUBLIC "-//W3C//DTD SVG 1.1//EN" "http://www.w3.org/Graphics/SVG/1.1/DTD/svg11.dtd">
<svg version="1.1" id="Calque_1" xmlns="http://www.w3.org/2000/svg" xmlns:xlink="http://www.w3.org/1999/xlink" x="0px" y="0px"
	 width="1190.551px" height="1190.551px" viewBox="0 0 1190.551 1190.551" enable-background="new 0 0 1190.551 1190.551"
	 xml:space="preserve">
<g>
	<polygon fill="#010202" points="347.087,816.324 310.898,816.324 310.898,872.036 95.247,872.036 95.247,595.28 407.58,595.28 
		407.58,430.372 311.048,430.372 311.048,246.692 407.58,246.692 407.58,83.124 308.368,83.124 308.368,0 174.293,0 
		174.293,166.248 112.621,166.248 112.621,265.461 0,265.461 0,415.168 58.993,415.168 58.993,595.28 0,595.28 0,1021.194 
		591.246,1021.194 591.246,816.324 	"/>
	<path fill="#010202" d="M584.49,421.994V263.725c0,0,1.79-37.11-32.635-37.11h-15.202c0,0-26.824,1.341-26.824,37.556
		c0,0,0,101.219,0,134.062c0,43.812-12.076,67.062-38.899,107.364C420.2,581.816,282.707,772.062,282.707,772.062l64.38,44.262
		l190.46-270.934C537.547,545.39,584.49,485.033,584.49,421.994z"/>
</g>
</svg>
