<?xml version="1.0" encoding="utf-8"?>
<!-- Generator: Adobe Illustrator 16.0.0, SVG Export Plug-In . SVG Version: 6.00 Build 0)  -->
<!DOCTYPE svg PUBLIC "-//W3C//DTD SVG 1.1//EN" "http://www.w3.org/Graphics/SVG/1.1/DTD/svg11.dtd">
<svg version="1.1" id="Calque_1" xmlns="http://www.w3.org/2000/svg" xmlns:xlink="http://www.w3.org/1999/xlink" x="0px" y="0px"
	 width="1190.551px" height="1190.551px" viewBox="0 0 1190.551 1190.551" enable-background="new 0 0 1190.551 1190.551"
	 xml:space="preserve">
<g>
	<polygon fill="#010202" points="407.58,180.112 348.587,180.112 348.587,0 0,0 0,164.907 96.532,164.907 96.532,348.588 0,348.588 
		0,512.156 99.212,512.156 99.212,595.28 233.287,595.28 233.287,429.031 294.959,429.031 294.959,329.819 310.815,329.819 
		407.58,329.819 	"/>
	<path fill="#010202" d="M553.991,833.824l-12.298-8.936c0,0-22.49-14.682-43.776,14.616c0,0-56.499,77.765-77.244,106.316
		l92.489-583.954l-202.348-32.049l-43.856,276.896l55.026,8.717l-33.735,212.995L14.901,785.132L0,879.206l420.665,66.627
		c-0.539,0.741-1.06,1.458-1.548,2.131c-25.752,35.446-49.188,47.157-94.576,63.995c-85.842,31.845-308.9,104.94-308.9,104.94
		l26.068,73.65l313.335-107.241c0,0,73.456-21.238,110.509-72.236l93.029-128.044C558.581,883.029,581.841,854.06,553.991,833.824z"
		/>
</g>
</svg>
