<?xml version="1.0" encoding="utf-8"?>
<!-- Generator: Adobe Illustrator 16.0.0, SVG Export Plug-In . SVG Version: 6.00 Build 0)  -->
<!DOCTYPE svg PUBLIC "-//W3C//DTD SVG 1.1//EN" "http://www.w3.org/Graphics/SVG/1.1/DTD/svg11.dtd">
<svg version="1.1" id="Calque_1" xmlns="http://www.w3.org/2000/svg" xmlns:xlink="http://www.w3.org/1999/xlink" x="0px" y="0px"
	 width="1190.551px" height="1190.551px" viewBox="0 0 1190.551 1190.551" enable-background="new 0 0 1190.551 1190.551"
	 xml:space="preserve">
<g>
	<polygon fill="#010202" points="719.015,180.113 660.022,180.113 660.022,0.001 311.435,0.001 311.435,164.908 407.967,164.908 
		407.967,348.589 311.435,348.589 311.435,512.157 410.647,512.157 410.647,595.281 544.722,595.281 544.722,429.032 
		606.394,429.032 606.394,329.82 622.249,329.82 719.015,329.82 	"/>
	<path fill="#010202" d="M865.425,833.825l-12.298-8.937c0,0-22.49-14.682-43.775,14.616c0,0-56.499,77.766-77.244,106.316
		l92.488-583.954l-202.348-32.049l-43.855,276.896l55.025,8.717l-33.734,212.995l-273.349-43.293l-14.9,94.074L732.1,945.834
		c-0.539,0.741-1.061,1.458-1.548,2.131c-25.753,35.446-49.188,47.157-94.576,63.995c-85.842,31.845-308.9,104.939-308.9,104.939
		l26.068,73.65l313.335-107.241c0,0,73.456-21.237,110.509-72.235l93.029-128.044C870.015,883.03,893.276,854.061,865.425,833.825z"
		/>
</g>
</svg>
