<?xml version="1.0" encoding="utf-8"?>
<!-- Generator: Adobe Illustrator 16.0.0, SVG Export Plug-In . SVG Version: 6.00 Build 0)  -->
<!DOCTYPE svg PUBLIC "-//W3C//DTD SVG 1.1//EN" "http://www.w3.org/Graphics/SVG/1.1/DTD/svg11.dtd">
<svg version="1.1" id="Calque_1" xmlns="http://www.w3.org/2000/svg" xmlns:xlink="http://www.w3.org/1999/xlink" x="0px" y="0px"
	 width="1190.551px" height="1190.551px" viewBox="0 0 1190.551 1190.551" enable-background="new 0 0 1190.551 1190.551"
	 xml:space="preserve">
<g>
	<path fill="#010202" d="M648.076,187.062h-15.202c0,0-26.825,1.341-26.825,37.556c0,0,0,101.219,0,134.062
		c0,43.812-12.074,67.062-38.897,107.364c-50.73,76.218-188.223,266.463-188.223,266.463l64.381,44.264l190.459-270.935
		c0,0,46.942-60.356,46.942-123.396V224.171C680.711,224.171,682.501,187.062,648.076,187.062z"/>
	<polygon fill="#010202" points="311.048,672.606 407.58,672.606 407.58,509.038 308.368,509.038 308.368,425.914 591.245,425.914 
		591.245,221.044 310.898,221.044 310.898,276.756 95.247,276.756 95.247,0 0,0 0,425.914 174.293,425.914 174.293,592.162 
		112.621,592.162 112.621,691.374 0,691.374 0,841.081 58.993,841.081 58.993,1021.194 407.58,1021.194 407.58,856.285 
		311.048,856.285 	"/>
</g>
</svg>
