<?xml version="1.0" encoding="utf-8"?>
<!-- Generator: Adobe Illustrator 16.0.0, SVG Export Plug-In . SVG Version: 6.00 Build 0)  -->
<!DOCTYPE svg PUBLIC "-//W3C//DTD SVG 1.1//EN" "http://www.w3.org/Graphics/SVG/1.1/DTD/svg11.dtd">
<svg version="1.1" id="Calque_1" xmlns="http://www.w3.org/2000/svg" xmlns:xlink="http://www.w3.org/1999/xlink" x="0px" y="0px"
	 width="1190.551px" height="1190.551px" viewBox="0 0 1190.551 1190.551" enable-background="new 0 0 1190.551 1190.551"
	 xml:space="preserve">
<g>
	<path fill="#010202" d="M430.371,0v96.531h-183.68V0H83.124v99.212H0v134.075h166.248v61.672h99.213V407.58h149.707v-58.993h41.472
		L266.182,619.521c0,0-46.943,60.357-46.943,123.396v158.269c0,0-1.79,37.11,32.635,37.11h15.202c0,0,26.824-1.343,26.824-37.558
		c0,0,0-101.218,0-134.062c0-43.813,12.076-67.063,38.899-107.364c50.729-76.218,188.222-266.464,188.222-266.464l-64.378-44.262
		H595.28V0H430.371z"/>
	<polygon fill="#010202" points="310.898,938.297 95.247,938.297 95.247,661.539 0,661.539 0,1087.453 591.245,1087.453 
		591.245,882.583 310.898,882.583 	"/>
</g>
</svg>
