<?xml version="1.0" encoding="utf-8"?>
<!-- Generator: Adobe Illustrator 16.0.0, SVG Export Plug-In . SVG Version: 6.00 Build 0)  -->
<!DOCTYPE svg PUBLIC "-//W3C//DTD SVG 1.1//EN" "http://www.w3.org/Graphics/SVG/1.1/DTD/svg11.dtd">
<svg version="1.1" id="Calque_1" xmlns="http://www.w3.org/2000/svg" xmlns:xlink="http://www.w3.org/1999/xlink" x="0px" y="0px"
	 width="1190.551px" height="1190.551px" viewBox="0 0 1190.551 1190.551" enable-background="new 0 0 1190.551 1190.551"
	 xml:space="preserve">
<g>
	<polygon fill="#010202" points="348.44,655.623 482.515,655.623 482.515,489.374 544.187,489.374 544.187,390.161 656.808,390.161 
		656.808,240.454 597.815,240.454 597.815,60.342 249.228,60.342 249.228,225.25 345.76,225.25 345.76,408.93 249.228,408.93 
		249.228,572.499 348.44,572.499 	"/>
	<polygon fill="#010202" points="775.581,352.871 610.798,579.677 655.868,612.424 529.114,786.889 305.213,624.217 
		249.227,701.273 593.8,951.619 941.324,473.291 	"/>
	<path fill="#010202" d="M823.252,773.484l-12.299-8.936c0,0-22.49-14.682-43.777,14.615c0,0-59.495,81.887-78.8,108.459
		c-25.752,35.445-49.188,47.158-94.575,63.996c-85.843,31.844-308.9,104.939-308.9,104.939l26.067,73.65l313.336-107.242
		c0,0,73.455-21.236,110.509-72.234l93.027-128.043C827.841,822.689,851.101,793.719,823.252,773.484z"/>
</g>
</svg>
