<?xml version="1.0" encoding="utf-8"?>
<!-- Generator: Adobe Illustrator 16.0.0, SVG Export Plug-In . SVG Version: 6.00 Build 0)  -->
<!DOCTYPE svg PUBLIC "-//W3C//DTD SVG 1.1//EN" "http://www.w3.org/Graphics/SVG/1.1/DTD/svg11.dtd">
<svg version="1.1" id="Calque_1" xmlns="http://www.w3.org/2000/svg" xmlns:xlink="http://www.w3.org/1999/xlink" x="0px" y="0px"
	 width="1190.551px" height="1190.551px" viewBox="0 0 1190.551 1190.551" enable-background="new 0 0 1190.551 1190.551"
	 xml:space="preserve">
<g>
	<polygon fill="#010202" points="888.881,248.709 608.533,248.709 608.533,304.421 392.884,304.421 392.884,27.666 297.636,27.666 
		297.636,453.58 341.898,453.58 888.881,453.58 	"/>
	<path fill="#010202" d="M853.555,755.305c9.1-0.514,33.791-4.492,33.791-32.576v-15.203c0,0-1.344-26.824-37.559-26.824
		c0,0-101.217,0-134.061,0c-43.812,0-67.062-12.076-107.363-38.898c-76.219-50.729-266.465-188.222-266.465-188.222l-44.263,64.38
		L568.57,708.42c0,0,60.356,46.943,123.397,46.943h36.039v96.475H544.327v-96.533H380.76v99.213h-83.124v134.074h166.248v61.672
		h99.213v112.621h149.708v-58.992h180.111V755.305H853.555z"/>
</g>
</svg>
