<?xml version="1.0" encoding="utf-8"?>
<!-- Generator: Adobe Illustrator 16.0.0, SVG Export Plug-In . SVG Version: 6.00 Build 0)  -->
<!DOCTYPE svg PUBLIC "-//W3C//DTD SVG 1.1//EN" "http://www.w3.org/Graphics/SVG/1.1/DTD/svg11.dtd">
<svg version="1.1" id="Calque_1" xmlns="http://www.w3.org/2000/svg" xmlns:xlink="http://www.w3.org/1999/xlink" x="0px" y="0px"
	 width="1190.551px" height="1190.551px" viewBox="0 0 1190.551 1190.551" enable-background="new 0 0 1190.551 1190.551"
	 xml:space="preserve">
<g>
	<polygon fill="#010202" points="591.245,221.044 310.898,221.044 310.898,276.756 95.247,276.756 95.247,0 0,0 0,425.914 
		44.262,425.914 591.245,425.914 	"/>
	<path fill="#010202" d="M555.919,727.64c9.099-0.514,33.791-4.494,33.791-32.578V679.86c0,0-1.343-26.825-37.558-26.825
		c0,0-101.218,0-134.062,0c-43.812,0-67.062-12.076-107.363-38.897c-76.219-50.73-266.465-188.223-266.465-188.223l-44.263,64.38
		l270.935,190.46c0,0,60.356,46.942,123.396,46.942h36.041v96.476h-183.68V727.64H83.124v99.212H0v134.075h166.248v61.672h99.213
		v112.621h149.707v-58.993H595.28V727.64H555.919z"/>
</g>
</svg>
