<?xml version="1.0" encoding="utf-8"?>
<!-- Generator: Adobe Illustrator 16.0.0, SVG Export Plug-In . SVG Version: 6.00 Build 0)  -->
<!DOCTYPE svg PUBLIC "-//W3C//DTD SVG 1.1//EN" "http://www.w3.org/Graphics/SVG/1.1/DTD/svg11.dtd">
<svg version="1.1" id="Calque_1" xmlns="http://www.w3.org/2000/svg" xmlns:xlink="http://www.w3.org/1999/xlink" x="0px" y="0px"
	 width="1190.551px" height="1190.551px" viewBox="0 0 1190.551 1190.551" enable-background="new 0 0 1190.551 1190.551"
	 xml:space="preserve">
<path fill="#010202" d="M693.775,880.721c0,0-60.355-46.943-123.396-46.943H412.111c0,0-37.108-1.791-37.108,32.638V692.539h276.754
	v-95.248h169.365V2.014H557.483v414.277h-68V2.014h-263.64v595.277v591.246h204.87V908.438c30.671,0,91.762,0,115.904,0
	c43.812,0,67.062,12.076,107.364,38.899c76.218,50.728,266.465,188.222,266.465,188.222l44.262-64.38L693.775,880.721z
	 M375.001,881.614c0,0,1.215,23.938,31.899,26.576h-31.899V881.614z"/>
</svg>
