<?xml version="1.0" encoding="utf-8"?>
<!-- Generator: Adobe Illustrator 16.0.0, SVG Export Plug-In . SVG Version: 6.00 Build 0)  -->
<!DOCTYPE svg PUBLIC "-//W3C//DTD SVG 1.1//EN" "http://www.w3.org/Graphics/SVG/1.1/DTD/svg11.dtd">
<svg version="1.1" id="Calque_1" xmlns="http://www.w3.org/2000/svg" xmlns:xlink="http://www.w3.org/1999/xlink" x="0px" y="0px"
	 width="1190.551px" height="1190.551px" viewBox="0 0 1190.551 1190.551" enable-background="new 0 0 1190.551 1190.551"
	 xml:space="preserve">
<path fill="#010202" d="M595.278,0H0v263.639h414.277v68H0v263.64v591.246h204.87v-45.799V906.178h-55.712V690.526h276.755v-95.247
	h32.902c0,0-26.825,1.341-26.825,37.558c0,0,0,101.218,0,134.061c0,43.812-12.075,67.062-38.897,107.364
	c-50.729,76.218-188.223,266.465-188.223,266.465l64.38,44.262l190.46-270.935c0,0,46.941-60.357,46.941-123.396V632.389
	c0,0,1.791-37.11-32.635-37.11h121.261V0z"/>
</svg>
