<?xml version="1.0" encoding="utf-8"?>
<!-- Generator: Adobe Illustrator 16.0.0, SVG Export Plug-In . SVG Version: 6.00 Build 0)  -->
<!DOCTYPE svg PUBLIC "-//W3C//DTD SVG 1.1//EN" "http://www.w3.org/Graphics/SVG/1.1/DTD/svg11.dtd">
<svg version="1.1" id="Calque_1" xmlns="http://www.w3.org/2000/svg" xmlns:xlink="http://www.w3.org/1999/xlink" x="0px" y="0px"
	 width="1190.551px" height="1190.551px" viewBox="0 0 1190.551 1190.551" enable-background="new 0 0 1190.551 1190.551"
	 xml:space="preserve">
<g>
	<polygon fill="#010202" points="554.659,250.983 545.944,195.958 758.942,162.222 802.235,435.572 896.309,420.67 829.68,0 
		245.715,92.492 277.763,294.839 	"/>
	<path fill="#010202" d="M903.596,837.035l-409.179,64.807l-10.638-67.162l409.178-64.807l-41.242-260.395l-21.062,3.336
		c7.625-1.431,34.164-8.543,29.541-37.721l-2.377-15.014c0,0-5.521-26.285-41.291-20.62c0,0-99.971,15.834-132.41,20.972
		c-43.271,6.854-68.127-1.436-112.127-21.623c-83.215-38.182-292.627-144.222-292.627-144.222l-33.646,70.512l297.394,145.73
		c0,0,66.958,36.924,129.219,27.062l18.006-2.852L263.765,602.6l93.122,587.951l587.949-93.123L903.596,837.035z"/>
</g>
</svg>
