<?xml version="1.0" encoding="utf-8"?>
<!-- Generator: Adobe Illustrator 16.0.0, SVG Export Plug-In . SVG Version: 6.00 Build 0)  -->
<!DOCTYPE svg PUBLIC "-//W3C//DTD SVG 1.1//EN" "http://www.w3.org/Graphics/SVG/1.1/DTD/svg11.dtd">
<svg version="1.1" id="Calque_1" xmlns="http://www.w3.org/2000/svg" xmlns:xlink="http://www.w3.org/1999/xlink" x="0px" y="0px"
	 width="1190.551px" height="1190.551px" viewBox="0 0 1190.551 1190.551" enable-background="new 0 0 1190.551 1190.551"
	 xml:space="preserve">
<g>
	<polygon fill="#010202" points="0,1030.848 263.639,1030.848 263.639,616.57 331.639,616.57 331.639,1030.848 595.279,1030.848 
		595.279,435.571 556.52,435.571 0,435.571 	"/>
	<path fill="#010202" d="M787.434,273.147c0,0,2.501-76.423-34.553-127.422L659.854,17.684c0,0-20.363-31.075-48.215-10.84
		l-12.298,8.935c0,0-11.176,9.009-8.869,25.303l-6.507-41.082L-0.001,92.491l32.049,202.348l276.896-43.856l-8.715-55.025
		l212.997-33.736l43.294,273.35l94.074-14.9L590.647,42.184c1.009,5.741,3.691,12.346,9.067,19.746c0,0,59.494,81.887,78.8,108.457
		c25.752,35.445,29.649,61.354,31.637,109.724c3.76,91.479,4.35,326.209,4.35,326.209l78.101-2.033L787.434,273.147z"/>
</g>
</svg>
