<?xml version="1.0" encoding="utf-8"?>
<!-- Generator: Adobe Illustrator 16.0.0, SVG Export Plug-In . SVG Version: 6.00 Build 0)  -->
<!DOCTYPE svg PUBLIC "-//W3C//DTD SVG 1.1//EN" "http://www.w3.org/Graphics/SVG/1.1/DTD/svg11.dtd">
<svg version="1.1" id="Calque_1" xmlns="http://www.w3.org/2000/svg" xmlns:xlink="http://www.w3.org/1999/xlink" x="0px" y="0px"
	 width="1190.551px" height="1190.551px" viewBox="0 0 1190.551 1190.551" enable-background="new 0 0 1190.551 1190.551"
	 xml:space="preserve">
<g>
	<polygon fill="#010202" points="280.347,149.157 495.998,149.157 495.998,425.914 591.245,425.914 591.245,0 0,0 0,204.87 
		44.262,204.87 280.347,204.87 	"/>
	<path fill="#010202" d="M554.54,506.652c7.607-0.197,35.169-2.957,35.169-32.635v-15.201c0,0-1.343-26.824-37.558-26.824
		c0,0-101.218,0-134.061,0c-43.813,0-67.063-12.076-107.364-38.898C234.509,342.365,44.262,204.87,44.262,204.87l-44.263,64.38
		l270.936,190.459c0,0,60.356,46.942,123.396,46.942H0V770.29h414.277v68H0v263.641h595.277V506.652H554.54z"/>
</g>
</svg>
