<?xml version="1.0" encoding="utf-8"?>
<!-- Generator: Adobe Illustrator 16.0.0, SVG Export Plug-In . SVG Version: 6.00 Build 0)  -->
<!DOCTYPE svg PUBLIC "-//W3C//DTD SVG 1.1//EN" "http://www.w3.org/Graphics/SVG/1.1/DTD/svg11.dtd">
<svg version="1.1" id="Calque_1" xmlns="http://www.w3.org/2000/svg" xmlns:xlink="http://www.w3.org/1999/xlink" x="0px" y="0px"
	 width="1190.551px" height="1190.551px" viewBox="0 0 1190.551 1190.551" enable-background="new 0 0 1190.551 1190.551"
	 xml:space="preserve">
<path fill="#010202" d="M927.153,436.487c0,0-101.217,0-134.061,0c-43.812,0-67.062-12.076-107.363-38.898
	C609.51,346.86,419.262,209.366,419.262,209.366l-44.262,64.378V97.26h276.753V2.013H225.843v591.246v263.64h414.277v68H225.843
	v263.64h595.277V593.259H430.713V312.912h-55.712v-39.166l270.935,190.458c0,0,60.355,46.943,123.395,46.943h158.271
	c0,0,37.107,1.791,37.107-32.636V463.31C964.707,463.311,963.367,436.487,927.153,436.487z"/>
</svg>
