<?xml version="1.0" encoding="utf-8"?>
<!-- Generator: Adobe Illustrator 16.0.0, SVG Export Plug-In . SVG Version: 6.00 Build 0)  -->
<!DOCTYPE svg PUBLIC "-//W3C//DTD SVG 1.1//EN" "http://www.w3.org/Graphics/SVG/1.1/DTD/svg11.dtd">
<svg version="1.1" id="Calque_1" xmlns="http://www.w3.org/2000/svg" xmlns:xlink="http://www.w3.org/1999/xlink" x="0px" y="0px"
	 width="1190.551px" height="1190.551px" viewBox="0 0 1190.551 1190.551" enable-background="new 0 0 1190.551 1190.551"
	 xml:space="preserve">
<path fill="#010202" d="M701.311,434.474c0,0-101.218,0-134.061,0c-43.813,0-67.063-12.076-107.364-38.898
	C383.667,344.847,193.42,207.353,193.42,207.353l-44.262,64.378V95.247h276.755V0H0v591.246v263.64h414.277v68H0v263.639h595.277
	V591.246H204.87V310.899h-55.712v-39.166l270.935,190.458c0,0,60.356,46.943,123.396,46.943h158.27c0,0,37.108,1.791,37.108-32.636
	v-15.201C738.866,461.298,737.526,434.474,701.311,434.474z"/>
</svg>
