<?xml version="1.0" encoding="utf-8"?>
<!-- Generator: Adobe Illustrator 16.0.0, SVG Export Plug-In . SVG Version: 6.00 Build 0)  -->
<!DOCTYPE svg PUBLIC "-//W3C//DTD SVG 1.1//EN" "http://www.w3.org/Graphics/SVG/1.1/DTD/svg11.dtd">
<svg version="1.1" id="Calque_1" xmlns="http://www.w3.org/2000/svg" xmlns:xlink="http://www.w3.org/1999/xlink" x="0px" y="0px"
	 width="1190.551px" height="1190.551px" viewBox="0 0 1190.551 1190.551" enable-background="new 0 0 1190.551 1190.551"
	 xml:space="preserve">
<path fill="#010202" d="M297.637,19.55v263.639h414.277v68H297.637V614.83v204.869h280.347v-55.711h215.651v276.754L616.41,916.16
	c0,0-60.355-46.941-123.395-46.941H334.747c0,0-37.108-1.791-37.108,32.635v15.201c0,0,1.341,26.824,37.557,26.824
	c0,0,101.218,0,134.062,0c43.812,0,67.062,12.076,107.362,38.896C652.84,1033.506,843.084,1171,843.084,1171l44.266-64.381
	l-93.713-65.875h95.244V614.829h4.033V19.55H297.637z"/>
</svg>
