<?xml version="1.0" encoding="utf-8"?>
<!-- Generator: Adobe Illustrator 16.0.0, SVG Export Plug-In . SVG Version: 6.00 Build 0)  -->
<!DOCTYPE svg PUBLIC "-//W3C//DTD SVG 1.1//EN" "http://www.w3.org/Graphics/SVG/1.1/DTD/svg11.dtd">
<svg version="1.1" id="Calque_1" xmlns="http://www.w3.org/2000/svg" xmlns:xlink="http://www.w3.org/1999/xlink" x="0px" y="0px"
	 width="1190.551px" height="1190.551px" viewBox="0 0 1190.551 1190.551" enable-background="new 0 0 1190.551 1190.551"
	 xml:space="preserve">
<path fill="#010202" d="M467.932,878.708c0,0-60.356-46.941-123.396-46.941H186.268c0,0-37.109-1.791-37.109,32.635V690.526h276.755
	v-95.247h169.364V0H0v263.639h414.277v68H0v263.64v591.246h204.87V906.426c30.671,0,91.762,0,115.905,0
	c43.812,0,67.062,12.076,107.364,38.899c76.218,50.728,266.465,188.222,266.465,188.222l44.262-64.38L467.932,878.708z
	 M149.158,879.603c0,0,1.215,23.937,31.9,26.575h-31.9V879.603z"/>
</svg>
