<?xml version="1.0" encoding="utf-8"?>
<!-- Generator: Adobe Illustrator 16.0.0, SVG Export Plug-In . SVG Version: 6.00 Build 0)  -->
<!DOCTYPE svg PUBLIC "-//W3C//DTD SVG 1.1//EN" "http://www.w3.org/Graphics/SVG/1.1/DTD/svg11.dtd">
<svg version="1.1" id="Calque_1" xmlns="http://www.w3.org/2000/svg" xmlns:xlink="http://www.w3.org/1999/xlink" x="0px" y="0px"
	 width="1190.551px" height="1190.551px" viewBox="0 0 1190.551 1190.551" enable-background="new 0 0 1190.551 1190.551"
	 xml:space="preserve">
<path fill="#010202" d="M892.914,2.014H297.636v595.277v591.246h204.87v-45.8V908.19h-55.712V692.539h276.754v-95.248h32.902
	c0,0-26.826,1.342-26.826,37.557c0,0,0,101.22,0,134.062c0,43.812-12.074,67.062-38.896,107.363
	C640,952.492,502.507,1142.738,502.507,1142.738l64.38,44.263l190.459-270.936c0,0,46.941-60.356,46.941-123.396V634.401
	c0,0,1.791-37.11-32.635-37.11h121.262V2.014L892.914,2.014z M561.275,597.291V183.014h68v414.277H561.275L561.275,597.291z"/>
</svg>
