<?xml version="1.0" encoding="utf-8"?>
<!-- Generator: Adobe Illustrator 16.0.0, SVG Export Plug-In . SVG Version: 6.00 Build 0)  -->
<!DOCTYPE svg PUBLIC "-//W3C//DTD SVG 1.1//EN" "http://www.w3.org/Graphics/SVG/1.1/DTD/svg11.dtd">
<svg version="1.1" id="Calque_1" xmlns="http://www.w3.org/2000/svg" xmlns:xlink="http://www.w3.org/1999/xlink" x="0px" y="0px"
	 width="1190.551px" height="1190.551px" viewBox="0 0 1190.551 1190.551" enable-background="new 0 0 1190.551 1190.551"
	 xml:space="preserve">
<g>
	<polygon fill="#010202" points="577.985,193.467 793.635,193.467 793.635,470.224 888.882,470.224 888.882,44.31 297.638,44.31 
		297.638,249.18 341.9,249.18 577.985,249.18 	"/>
	<path fill="#010202" d="M852.177,550.962c7.607-0.197,35.17-2.957,35.17-32.635v-15.201c0,0-1.344-26.824-37.559-26.824
		c0,0-101.218,0-134.061,0c-43.813,0-67.063-12.076-107.364-38.898C532.147,386.675,341.9,249.18,341.9,249.18l-44.263,64.38
		l270.936,190.459c0,0,60.356,46.942,123.396,46.942H297.638V814.6h414.276v68H297.638v263.641h595.276V550.962H852.177z"/>
</g>
</svg>
