<?xml version="1.0" encoding="utf-8"?>
<!-- Generator: Adobe Illustrator 16.0.0, SVG Export Plug-In . SVG Version: 6.00 Build 0)  -->
<!DOCTYPE svg PUBLIC "-//W3C//DTD SVG 1.1//EN" "http://www.w3.org/Graphics/SVG/1.1/DTD/svg11.dtd">
<svg version="1.1" id="Calque_1" xmlns="http://www.w3.org/2000/svg" xmlns:xlink="http://www.w3.org/1999/xlink" x="0px" y="0px"
	 width="1190.551px" height="1190.551px" viewBox="0 0 1190.551 1190.551" enable-background="new 0 0 1190.551 1190.551"
	 xml:space="preserve">
<g>
	<polygon fill="#010202" points="577.983,168.707 793.633,168.707 793.633,445.464 888.881,445.464 888.881,19.55 297.636,19.55 
		297.636,224.42 577.983,224.42 	"/>
	<path fill="#010202" d="M616.41,320.884c0,0-60.356-46.942-123.396-46.942H334.746c0,0-37.108-1.791-37.108,32.635v15.201
		c0,0,1.341,26.825,37.557,26.825c0,0,101.218,0,134.062,0c43.812,0,67.062,12.075,107.362,38.898
		c76.217,50.729,266.463,188.222,266.463,188.222l44.266-64.38L616.41,320.884z"/>
	<polygon fill="#010202" points="843.082,575.723 297.636,575.723 297.636,1171.001 561.275,1171.001 561.275,756.723 
		629.276,756.723 629.276,1171.001 892.914,1171.001 892.914,575.723 	"/>
</g>
</svg>
