<?xml version="1.0" encoding="utf-8"?>
<!-- Generator: Adobe Illustrator 16.0.0, SVG Export Plug-In . SVG Version: 6.00 Build 0)  -->
<!DOCTYPE svg PUBLIC "-//W3C//DTD SVG 1.1//EN" "http://www.w3.org/Graphics/SVG/1.1/DTD/svg11.dtd">
<svg version="1.1" id="Calque_1" xmlns="http://www.w3.org/2000/svg" xmlns:xlink="http://www.w3.org/1999/xlink" x="0px" y="0px"
	 width="1190.551px" height="1190.551px" viewBox="0 0 1190.551 1190.551" enable-background="new 0 0 1190.551 1190.551"
	 xml:space="preserve">
<g>
	<polygon fill="#010202" points="198.975,1110.699 462.614,1110.699 462.614,696.422 530.614,696.422 530.614,1110.699 
		794.254,1110.699 794.254,515.423 755.494,515.423 198.975,515.423 	"/>
	<path fill="#010202" d="M986.408,352.999c0,0,2.502-76.423-34.553-127.422L858.828,97.536c0,0-20.363-31.075-48.215-10.84
		l-12.297,8.935c0,0-11.178,9.009-8.869,25.303l-6.508-41.082l-583.965,92.491l32.049,202.348l276.896-43.856l-8.715-55.025
		l212.998-33.736l43.293,273.35l94.074-14.9l-59.947-378.488c1.01,5.741,3.691,12.346,9.068,19.746
		c0,0,59.492,81.887,78.799,108.457c25.752,35.445,29.648,61.354,31.637,109.724c3.76,91.479,4.35,326.209,4.35,326.209
		l78.102-2.033L986.408,352.999z"/>
</g>
</svg>
