<?xml version="1.0" encoding="utf-8"?>
<!-- Generator: Adobe Illustrator 16.0.0, SVG Export Plug-In . SVG Version: 6.00 Build 0)  -->
<!DOCTYPE svg PUBLIC "-//W3C//DTD SVG 1.1//EN" "http://www.w3.org/Graphics/SVG/1.1/DTD/svg11.dtd">
<svg version="1.1" id="Calque_1" xmlns="http://www.w3.org/2000/svg" xmlns:xlink="http://www.w3.org/1999/xlink" x="0px" y="0px"
	 width="1190.551px" height="1190.551px" viewBox="0 0 1190.551 1190.551" enable-background="new 0 0 1190.551 1190.551"
	 xml:space="preserve">
<g>
	<polygon fill="#010202" points="308.944,250.983 300.229,195.957 513.226,162.221 556.52,435.571 650.594,420.67 583.965,-0.001 
		-0.001,92.491 32.048,294.839 	"/>
	<path fill="#010202" d="M657.88,837.034l-409.179,64.808l-10.637-67.163l409.178-64.807L606,509.478l-21.063,3.336
		c7.625-1.431,34.165-8.543,29.542-37.721l-2.378-15.014c0,0-5.521-26.285-41.29-20.62c0,0-99.972,15.834-132.41,20.972
		c-43.273,6.854-68.127-1.436-112.128-21.623C243.058,400.626,33.646,294.586,33.646,294.586l-33.646,70.512l297.394,145.73
		c0,0,66.958,36.924,129.22,27.062l18.006-2.852L18.05,602.6l93.122,587.951l587.95-93.123L657.88,837.034z"/>
</g>
</svg>
