<?xml version="1.0" encoding="utf-8"?>
<!-- Generator: Adobe Illustrator 16.0.0, SVG Export Plug-In . SVG Version: 6.00 Build 0)  -->
<!DOCTYPE svg PUBLIC "-//W3C//DTD SVG 1.1//EN" "http://www.w3.org/Graphics/SVG/1.1/DTD/svg11.dtd">
<svg version="1.1" id="Calque_1" xmlns="http://www.w3.org/2000/svg" xmlns:xlink="http://www.w3.org/1999/xlink" x="0px" y="0px"
	 width="1190.551px" height="1190.551px" viewBox="0 0 1190.551 1190.551" enable-background="new 0 0 1190.551 1190.551"
	 xml:space="preserve">
<g>
	<polygon fill="#010202" points="280.347,149.157 495.998,149.157 495.998,425.914 591.245,425.914 591.245,0 0,0 0,204.87 
		280.347,204.87 	"/>
	<path fill="#010202" d="M318.774,301.334c0,0-60.356-46.942-123.396-46.942H37.11c0,0-37.109-1.791-37.109,32.635v15.201
		c0,0,1.341,26.825,37.557,26.825c0,0,101.218,0,134.062,0c43.812,0,67.062,12.075,107.363,38.898
		C355.2,418.68,545.447,556.173,545.447,556.173l44.264-64.38L318.774,301.334z"/>
	<polygon fill="#010202" points="545.447,556.173 0,556.173 0,1151.451 263.639,1151.451 263.639,737.173 331.639,737.173 
		331.639,1151.451 595.279,1151.451 595.279,556.173 	"/>
</g>
</svg>
