<?xml version="1.0" encoding="utf-8"?>
<!-- Generator: Adobe Illustrator 16.0.0, SVG Export Plug-In . SVG Version: 6.00 Build 0)  -->
<!DOCTYPE svg PUBLIC "-//W3C//DTD SVG 1.1//EN" "http://www.w3.org/Graphics/SVG/1.1/DTD/svg11.dtd">
<svg version="1.1" id="Calque_1" xmlns="http://www.w3.org/2000/svg" xmlns:xlink="http://www.w3.org/1999/xlink" x="0px" y="0px"
	 width="1190.551px" height="1190.551px" viewBox="0 0 1190.551 1190.551" enable-background="new 0 0 1190.551 1190.551"
	 xml:space="preserve">
<g>
	<path fill="#010202" d="M441.749,507.016l-134.219,83.87c0,0-32.421,18.146-14.178,47.341l8.057,12.893
		c0,0,15.353,22.039,46.063,2.848c0,0,85.838-53.638,113.69-71.042c37.155-23.218,63.271-25.297,111.663-23.907
		c91.52,2.631,325.718,18.418,325.718,18.418l3.42-78.056L673.408,486.98c8.37,0.231,16.892-2.573,25.1-9.964
		c28.257-25.439,8.482-56.318-14.215-81.484c-11.36-12.592-226.297-251.325-255.521-283.783c0,0-0.149-0.165-0.43-0.478
		c-1.859-2.064-2.853-3.167-2.853-3.167c-9.257-10.271-35.53-39.439-45.479-50.509c-22.653-25.204-51.294-48.097-79.549-22.657
		c-25.964,23.378-6.65,54.67,10.867,74.127c7.062,7.843,40.047,44.477,50.637,56.236c2.067,2.297,3.281,3.645,3.281,3.645
		c29.804,33.101,252.805,280.768,260.677,289.513c11.573,12.853,28.202,27.021,45.64,28.42l-100.293-5.442
		C571.271,481.437,495.21,473.611,441.749,507.016z"/>
	<path fill="#010202" d="M857.677,887.813l45.09-9.584l-16.086-75.678l-0.45-2.119l-16.086-75.675l-45.092,9.583
		c0,0-9.14-43.002-14.287-67.213c-14.512-68.271-65.47-101.692-141.679-85.494l-64.416,13.691l-7.424-34.927l-63.508,13.499
		l-1.589,0.338l-63.507,13.498l7.424,34.928l-64.415,13.69c-76.208,16.2-109.167,67.457-94.656,135.73
		c5.146,24.211,14.286,67.213,14.286,67.213l-43.409,9.227l16.086,75.677l0.451,2.118l16.086,75.679l43.408-9.229
		c0,0,9.14,42.998,14.286,67.211c14.512,68.272,65.47,101.69,141.68,85.492l64.415-13.692l7.425,34.931l63.508-13.499l1.588-0.337
		l63.508-13.498l-7.424-34.931l64.415-13.69c76.208-16.198,109.17-67.453,94.658-135.728
		C866.817,930.813,857.677,887.813,857.677,887.813z"/>
</g>
</svg>
