<?xml version="1.0" encoding="utf-8"?>
<!-- Generator: Adobe Illustrator 16.0.0, SVG Export Plug-In . SVG Version: 6.00 Build 0)  -->
<!DOCTYPE svg PUBLIC "-//W3C//DTD SVG 1.1//EN" "http://www.w3.org/Graphics/SVG/1.1/DTD/svg11.dtd">
<svg version="1.1" id="Calque_1" xmlns="http://www.w3.org/2000/svg" xmlns:xlink="http://www.w3.org/1999/xlink" x="0px" y="0px"
	 width="1190.551px" height="1190.551px" viewBox="0 0 1190.551 1190.551" enable-background="new 0 0 1190.551 1190.551"
	 xml:space="preserve">
<g>
	<path fill="#010202" d="M359.234,144.622c2.067,2.297,3.281,3.645,3.281,3.645c29.804,33.101,252.805,280.768,260.677,289.513
		c8.756,9.724,20.405,20.203,33.109,25.334l-44.216-12.678l-9.844,34.326l-63.303-18.152c-74.895-21.476-128.059,8.306-147.298,75.4
		c-6.822,23.794-18.939,66.052-18.939,66.052l-44.312-12.707l-21.325,74.371l-0.598,2.082l-21.325,74.37l44.312,12.706
		c0,0-12.118,42.26-18.939,66.055c-19.239,67.093,10.063,120.523,84.957,142l63.305,18.151l-9.842,34.325l62.41,17.896l1.562,0.447
		l62.409,17.896l9.843-34.325l63.304,18.152c74.894,21.476,128.061-8.31,147.298-75.402c6.822-23.793,18.94-66.053,18.94-66.053
		l42.66,12.231l21.325-74.37l0.597-2.081l21.326-74.372l-42.661-12.232c0,0,12.117-42.256,18.938-66.051
		c19.239-67.095-10.063-120.524-84.959-142L728.623,521l9.843-34.326l-62.409-17.896l-1.562-0.447l-8.761-2.512
		c9.932,1.644,20.212-0.631,30.042-9.483c28.257-25.44,8.482-56.318-14.215-81.484c-11.36-12.592-226.297-251.325-255.521-283.783
		c0,0-0.149-0.165-0.43-0.478c-1.859-2.064-2.853-3.167-2.853-3.167c-9.257-10.271-35.53-39.439-45.479-50.509
		c-22.654-25.204-51.295-48.097-79.55-22.657c-25.964,23.378-6.65,54.67,10.867,74.127
		C315.658,96.229,348.644,132.862,359.234,144.622z"/>
	<path fill="#010202" d="M904.536,1111.795l-3.16-14.87c0,0-6.89-25.96-42.312-18.431c0,0-99.009,21.045-131.132,27.873
		c-42.856,9.108-68.107,2.131-113.105-15.726c-85.102-33.775-299.775-128.711-299.775-128.711l-29.912,72.179l304.612,129.966
		c0,0,68.799,33.369,130.46,20.263l154.811-32.905C875.023,1151.433,911.694,1145.467,904.536,1111.795z"/>
</g>
</svg>
