<?xml version="1.0" encoding="utf-8"?>
<!-- Generator: Adobe Illustrator 16.0.0, SVG Export Plug-In . SVG Version: 6.00 Build 0)  -->
<!DOCTYPE svg PUBLIC "-//W3C//DTD SVG 1.1//EN" "http://www.w3.org/Graphics/SVG/1.1/DTD/svg11.dtd">
<svg version="1.1" id="Calque_1" xmlns="http://www.w3.org/2000/svg" xmlns:xlink="http://www.w3.org/1999/xlink" x="0px" y="0px"
	 width="1190.551px" height="1190.551px" viewBox="0 0 1190.551 1190.551" enable-background="new 0 0 1190.551 1190.551"
	 xml:space="preserve">
<g>
	<path fill="#010202" d="M312.18,628.806l0.502,1.544l20.063,61.75l33.961-11.036l20.35,62.631
		c24.077,74.1,78.496,101.521,144.879,79.953c23.54-7.649,65.351-21.234,65.351-21.234l14.245,43.841l73.583-23.908l2.06-0.67
		l73.58-23.907l-14.245-43.844c0,0,41.812-13.585,65.353-21.233c66.381-21.568,94.291-75.74,70.215-149.839l-20.35-62.633
		l33.96-11.034l-20.062-61.748l-0.502-1.544l-20.062-61.749l-33.96,11.034l-20.35-62.632
		c-24.075-74.098-78.499-101.52-144.88-79.951c-23.539,7.648-65.353,21.234-65.353,21.234l-13.669-42.066
		c76.351,0.002,148.162,0.005,167.205,0.006c0,0,0.223,0,0.643,0c2.778,0,4.265,0,4.265,0v-0.001
		c13.825-0.004,53.084-0.013,67.967,0.001c33.889,0.028,70.064-5.938,70.064-43.958c-0.001-34.937-36.179-41.523-62.357-41.523
		c-10.553,0-59.851,0-75.674,0c-3.093,0-4.904,0-4.904,0c-44.541,0-377.811,0-389.577,0c-26.182,0-62.359,6.586-62.359,41.524
		c-0.003,38.02,36.176,43.986,70.064,43.958c9.55-0.01,115.563-0.009,214.182-0.006l-73.144,23.766l-2.062,0.669l-73.582,23.908
		l13.715,42.21c0,0-41.808,13.584-65.35,21.233c-66.382,21.569-94.29,75.74-70.215,149.839l20.351,62.632l-33.963,11.036
		L312.18,628.806z"/>
	<path fill="#010202" d="M896.404,841.816l-331.14,5.168c0,0-76.423-2.502-127.423,34.552l-128.04,93.027
		c0,0-31.076,20.364-10.841,48.215l8.936,12.299c0,0,16.854,20.914,46.152-0.374c0,0,81.888-59.495,108.458-78.8
		c35.444-25.752,61.354-29.647,109.723-31.639c91.479-3.758,326.207-4.347,326.207-4.347L896.404,841.816z"/>
</g>
</svg>
