<?xml version="1.0" encoding="utf-8"?>
<!-- Generator: Adobe Illustrator 16.0.0, SVG Export Plug-In . SVG Version: 6.00 Build 0)  -->
<!DOCTYPE svg PUBLIC "-//W3C//DTD SVG 1.1//EN" "http://www.w3.org/Graphics/SVG/1.1/DTD/svg11.dtd">
<svg version="1.1" id="Calque_1" xmlns="http://www.w3.org/2000/svg" xmlns:xlink="http://www.w3.org/1999/xlink" x="0px" y="0px"
	 width="1190.551px" height="1190.551px" viewBox="0 0 1190.551 1190.551" enable-background="new 0 0 1190.551 1190.551"
	 xml:space="preserve">
<path fill="#010202" d="M569.607,373.93l33.96-11.034l-20.063-61.748l-0.502-1.544l-20.062-61.749l-33.96,11.034l-20.35-62.632
	c-24.075-74.098-78.499-101.52-144.88-79.951c-23.539,7.648-65.352,21.234-65.352,21.234L284.73,85.475
	c76.35,0.002,148.162,0.005,167.205,0.006c0,0,0.223,0,0.643,0c2.778,0,4.264,0,4.264,0v-0.001
	c13.825-0.004,53.084-0.013,67.967,0.001c33.889,0.028,70.065-5.938,70.065-43.958C594.873,6.586,558.695,0,532.516,0
	c-10.553,0-59.85,0-75.674,0c-3.092,0-4.904,0-4.904,0C407.397,0,74.127,0,62.361,0C36.179,0,0.001,6.586,0.001,41.524
	C-0.002,79.544,36.177,85.51,70.066,85.482c9.549-0.01,115.563-0.009,214.181-0.006l-73.143,23.766l-2.062,0.669l-73.582,23.908
	l13.715,42.21c0,0-41.808,13.584-65.35,21.233c-66.381,21.569-94.29,75.74-70.214,149.839l20.35,62.632l-33.963,11.036
	l20.063,61.748l0.502,1.544l20.063,61.75l33.961-11.036l20.35,62.631c9.643,29.678,24.158,51.86,42.354,66.414L61.82,608.986
	c0,0-28.97-23.26-49.205,4.59l-8.937,12.299c0,0-14.682,22.489,14.616,43.777c0,0,81.889,59.495,108.459,78.8
	c35.445,25.752,47.156,49.188,63.996,94.576c31.845,85.841,104.938,308.898,104.938,308.898l73.651-26.067L262.097,812.522
	c0,0-21.236-73.454-72.236-110.509l-45.169-32.817c26.134,17.104,58.842,19.951,95.125,8.163c23.54-7.649,65.35-21.234,65.35-21.234
	l14.245,43.841l73.583-23.908l2.06-0.67l73.58-23.908l-14.245-43.843c0,0,41.812-13.585,65.353-21.234
	c66.381-21.568,94.291-75.74,70.215-149.839L569.607,373.93z"/>
</svg>
