<?xml version="1.0" encoding="utf-8"?>
<!-- Generator: Adobe Illustrator 16.0.0, SVG Export Plug-In . SVG Version: 6.00 Build 0)  -->
<!DOCTYPE svg PUBLIC "-//W3C//DTD SVG 1.1//EN" "http://www.w3.org/Graphics/SVG/1.1/DTD/svg11.dtd">
<svg version="1.1" id="Calque_1" xmlns="http://www.w3.org/2000/svg" xmlns:xlink="http://www.w3.org/1999/xlink" x="0px" y="0px"
	 width="1190.551px" height="1190.551px" viewBox="0 0 1190.551 1190.551" enable-background="new 0 0 1190.551 1190.551"
	 xml:space="preserve">
<path fill="#010202" d="M984.086,780.669l-331.139,5.168c0,0-42.986-1.407-85.996,13.521v-35.709h65.853
	c77.912,0,120.811-43.282,120.811-113.081c0-24.752,0-68.714,0-68.714h46.098v-77.368v-2.166v-77.077
	c30.256,93.125,66.24,203.892,73.984,227.729c0,0,0.068,0.214,0.199,0.612c0.857,2.643,1.316,4.053,1.316,4.053v-0.001
	c4.277,13.148,16.416,50.481,21.002,64.643c10.447,32.237,27.301,64.803,63.459,53.054c33.229-10.796,28.312-47.239,20.223-72.139
	c-3.264-10.036-18.494-56.919-23.385-71.972c-0.955-2.938-1.516-4.663-1.516-4.663c-13.764-42.361-116.748-359.318-120.387-370.51
	c-8.09-24.9-25.533-57.272-58.762-46.476c-36.16,11.747-30.654,47.998-20.154,80.22c2.236,6.862,21.496,66.131,43.924,135.16
	h-46.004c0,0,0-43.963,0-68.715c0-69.798-42.896-113.082-120.809-113.082H566.95v-35.707h-64.926H500.4h-64.927v35.707h-65.854
	c-77.911,0-120.809,43.284-120.809,113.082c0,24.752,0,68.715,0,68.715h-44.379v77.367v2.166v77.368h44.381c0,0,0,43.959,0,68.715
	c0,69.797,42.896,113.078,120.809,113.078h65.854v35.712h64.927h1.624h64.924c-14.336,4.976-28.675,11.768-41.425,21.03
	l-128.041,93.026c0,0-31.074,20.365-10.84,48.215l8.935,12.3c0,0,16.854,20.914,46.151-0.373c0,0,81.889-59.495,108.458-78.801
	c35.445-25.752,61.353-29.647,109.722-31.638c91.482-3.759,326.209-4.348,326.209-4.348L984.086,780.669z"/>
</svg>
