<?xml version="1.0" encoding="utf-8"?>
<!-- Generator: Adobe Illustrator 16.0.0, SVG Export Plug-In . SVG Version: 6.00 Build 0)  -->
<!DOCTYPE svg PUBLIC "-//W3C//DTD SVG 1.1//EN" "http://www.w3.org/Graphics/SVG/1.1/DTD/svg11.dtd">
<svg version="1.1" id="Calque_1" xmlns="http://www.w3.org/2000/svg" xmlns:xlink="http://www.w3.org/1999/xlink" x="0px" y="0px"
	 width="1190.551px" height="1190.551px" viewBox="0 0 1190.551 1190.551" enable-background="new 0 0 1190.551 1190.551"
	 xml:space="preserve">
<path fill="#010202" d="M580.4,514.523c-21.872-15.892-41.383-7.453-57.986,8.612c18.702-19.412,28.488-46.688,28.488-80.015
	c0-24.752,0-68.716,0-68.716h44.379v-77.366v-2.166v-77.369H550.9c0,0,0-43.959,0-68.713c0-69.798-42.896-113.08-120.808-113.08
	h-65.855V0h-64.926h-1.624h-64.926v35.709h-65.854c-77.911,0-120.809,43.281-120.809,113.081c0,24.752,0,68.713,0,68.713H0v77.369
	v2.166v77.366h46.1c0,0,0,43.964,0,68.716c0,69.797,42.896,113.082,120.809,113.082h65.854v35.707h64.926h1.624h64.924
	L180.746,852.934c0,0-46.943,60.356-46.943,123.396v158.269c0,0-1.79,37.11,32.636,37.11h15.201c0,0,26.825-1.343,26.825-37.558
	c0,0,0-101.219,0-134.062c0-43.813,12.076-67.062,38.897-107.364c50.73-76.217,188.223-266.463,188.223-266.463l-64.381-44.264
	l-6.966,9.909v-35.705h65.855c38.946,0,69.143-10.816,89.605-30.353c-5.72,5.92-11.077,12.669-16.047,19.522
	c-9.955,13.731-198.782,273.605-224.456,308.938c0,0-0.131,0.181-0.378,0.521c-1.633,2.247-2.506,3.448-2.506,3.448h0.002
	c-8.124,11.188-31.191,42.953-39.951,54.986c-19.941,27.4-36.381,60.176-5.622,82.523c28.266,20.536,54.858-4.863,70.247-26.043
	c6.202-8.538,35.179-48.418,44.48-61.221c1.815-2.501,2.882-3.969,2.882-3.969c26.181-36.034,222.071-305.654,228.988-315.175
	C592.728,568.198,608.665,535.059,580.4,514.523z"/>
</svg>
