<?xml version="1.0" encoding="utf-8"?>
<!-- Generator: Adobe Illustrator 16.0.0, SVG Export Plug-In . SVG Version: 6.00 Build 0)  -->
<!DOCTYPE svg PUBLIC "-//W3C//DTD SVG 1.1//EN" "http://www.w3.org/Graphics/SVG/1.1/DTD/svg11.dtd">
<svg version="1.1" id="Calque_1" xmlns="http://www.w3.org/2000/svg" xmlns:xlink="http://www.w3.org/1999/xlink" x="0px" y="0px"
	 width="1190.551px" height="1190.551px" viewBox="0 0 1190.551 1190.551" enable-background="new 0 0 1190.551 1190.551"
	 xml:space="preserve">
<path fill="#010202" d="M974.179,691.833c-3.262-10.037-18.493-56.919-23.385-71.972c-0.953-2.938-1.515-4.664-1.515-4.664
	c-13.765-42.36-116.75-359.318-120.387-370.509c-8.09-24.901-25.533-57.273-58.763-46.477
	c-36.16,11.748-30.654,47.999-20.154,80.221c1.502,4.608,10.684,32.859,23.345,71.825l-33.918,11.02l-20.351-62.631
	c-24.074-74.098-78.494-101.521-144.877-79.951c-23.54,7.649-65.351,21.233-65.351,21.233l-14.244-43.841l-73.581,23.908
	l-2.062,0.67l-73.581,23.907l14.245,43.843c0,0-41.811,13.586-65.352,21.234c-66.382,21.568-94.292,75.741-70.217,149.84
	l20.352,62.632l-33.96,11.035l20.062,61.748l0.502,1.544l20.063,61.749l33.96-11.033l20.351,62.632
	c24.075,74.098,78.498,101.521,144.879,79.951c23.541-7.649,65.353-21.234,65.353-21.234l13.713,42.206
	c-14.336,4.977-28.676,11.769-41.426,21.031L359.84,924.777c0,0-31.075,20.362-10.84,48.215l8.937,12.3
	c0,0,16.852,20.912,46.15-0.373c0,0,81.888-59.495,108.459-78.8c35.445-25.754,61.352-29.648,109.724-31.64
	c91.479-3.759,326.207-4.348,326.207-4.348l-2.032-78.103l-331.14,5.167c0,0-37.924-1.24-78.169,10.979l65.753-21.365l2.061-0.669
	l73.583-23.909l-13.717-42.208c0,0,41.808-13.584,65.352-21.232c66.381-21.568,94.288-75.74,70.213-149.839l-20.35-62.632
	l33.918-11.021c24.459,75.283,47.951,147.595,54.032,166.312c0,0,0.067,0.214,0.198,0.613c0.857,2.642,1.316,4.052,1.316,4.052
	h0.001c4.276,13.148,16.416,50.48,21.002,64.642c10.445,32.238,27.3,64.803,63.459,53.054
	C987.186,753.176,982.27,716.732,974.179,691.833z"/>
</svg>
