<?xml version="1.0" encoding="utf-8"?>
<!-- Generator: Adobe Illustrator 16.0.0, SVG Export Plug-In . SVG Version: 6.00 Build 0)  -->
<!DOCTYPE svg PUBLIC "-//W3C//DTD SVG 1.1//EN" "http://www.w3.org/Graphics/SVG/1.1/DTD/svg11.dtd">
<svg version="1.1" id="Calque_1" xmlns="http://www.w3.org/2000/svg" xmlns:xlink="http://www.w3.org/1999/xlink" x="0px" y="0px"
	 width="1190.551px" height="1190.551px" viewBox="0 0 1190.551 1190.551" enable-background="new 0 0 1190.551 1190.551"
	 xml:space="preserve">
<path fill="#010202" d="M933.971,113.694c0.028-33.889-5.938-70.066-43.958-70.066c-34.938,0-41.524,36.18-41.524,62.358
	c0,10.554,0,59.85,0,75.674c0,3.091,0,4.904,0,4.904c0,12.273,0,46.474,0,89.825H812.78v-65.854
	c0-77.911-43.279-120.809-113.081-120.809c-24.75,0-68.713,0-68.713,0V43.628h-77.367h-2.166h-77.367v46.1c0,0-43.963,0-68.715,0
	c-69.798,0-113.082,42.896-113.082,120.808v65.855H256.58v64.926v1.624v64.926h35.707v65.854
	c0,77.91,43.284,120.808,113.082,120.808c24.752,0,68.715,0,68.715,0v44.38h77.367h2.166h77.367v-44.382c0,0,43.959,0,68.713,0
	c35.726,0,64.499-11.243,84.083-32.662L596.594,828.15c0,0-46.943,60.354-46.943,123.395v158.27c0,0-1.79,37.107,32.636,37.107
	h15.202c0,0,26.824-1.34,26.824-37.555c0,0,0-101.219,0-134.062c0-43.812,12.075-67.062,38.897-107.363
	c49.156-73.855,179.78-254.775,187.833-265.922c4.265,19.271,14.872,36.482,38.97,36.482c38.02,0.004,43.987-36.177,43.958-70.064
	c-0.019-16.96-0.002-338.194,0-381.869c0,0,0-0.223,0-0.644c0-2.777,0-4.263,0-4.263h-0.001
	C933.966,167.835,933.957,128.577,933.971,113.694z M787.511,557.531c16.317-20.206,25.267-48.388,25.267-83.812v-65.854h35.71
	c0,84.991,0,162.703,0,168.276c0,7.83,0.6,16.551,2.358,24.935L787.511,557.531z"/>
</svg>
