<?xml version="1.0" encoding="utf-8"?>
<!-- Generator: Adobe Illustrator 16.0.0, SVG Export Plug-In . SVG Version: 6.00 Build 0)  -->
<!DOCTYPE svg PUBLIC "-//W3C//DTD SVG 1.1//EN" "http://www.w3.org/Graphics/SVG/1.1/DTD/svg11.dtd">
<svg version="1.1" id="Calque_1" xmlns="http://www.w3.org/2000/svg" xmlns:xlink="http://www.w3.org/1999/xlink" x="0px" y="0px"
	 width="1190.551px" height="1190.551px" viewBox="0 0 1190.551 1190.551" enable-background="new 0 0 1190.551 1190.551"
	 xml:space="preserve">
<g>
	<path fill="#010202" d="M153.877,483.174l-134.219,83.87c0,0-32.42,18.146-14.177,47.342l8.056,12.892
		c0,0,15.353,22.039,46.064,2.848c0,0,85.838-53.638,113.69-71.042c37.156-23.218,63.271-25.297,111.663-23.907
		c91.52,2.631,325.718,18.418,325.718,18.418l3.42-78.056l-228.556-12.401c8.371,0.231,16.892-2.573,25.1-9.964
		c28.257-25.44,8.482-56.318-14.215-81.484c-11.36-12.592-226.297-251.325-255.52-283.783c0,0-0.15-0.165-0.43-0.478
		c-1.859-2.064-2.853-3.167-2.853-3.167c-9.256-10.271-35.53-39.439-45.479-50.509C69.486,8.549,40.845-14.344,12.59,11.096
		c-25.964,23.378-6.65,54.67,10.867,74.127c7.062,7.843,40.047,44.477,50.637,56.236c2.067,2.297,3.281,3.645,3.281,3.645
		c29.804,33.101,252.805,280.768,260.677,289.513c11.573,12.853,28.202,27.021,45.64,28.42l-100.293-5.442
		C283.399,457.595,207.338,449.769,153.877,483.174z"/>
	<path fill="#010202" d="M569.805,863.972l45.09-9.584l-16.086-75.678l-0.45-2.119l-16.086-75.675l-45.092,9.583
		c0,0-9.14-43.002-14.287-67.213c-14.512-68.272-65.47-101.692-141.679-85.494l-64.416,13.691l-7.424-34.927l-63.508,13.499
		l-1.588,0.338l-63.507,13.498l7.424,34.928l-64.415,13.691C47.573,628.71,14.614,679.967,29.124,748.24
		c5.146,24.211,14.286,67.213,14.286,67.213L0.001,824.68l16.086,75.676l0.451,2.119l16.086,75.678l43.408-9.228
		c0,0,9.14,42.998,14.287,67.211c14.511,68.272,65.469,101.69,141.679,85.492l64.415-13.692l7.425,34.93l63.508-13.499l1.588-0.337
		l63.508-13.498l-7.424-34.93l64.415-13.691c76.208-16.198,109.17-67.453,94.658-135.727
		C578.945,906.972,569.805,863.972,569.805,863.972z"/>
</g>
</svg>
