<?xml version="1.0" encoding="utf-8"?>
<!-- Generator: Adobe Illustrator 16.0.0, SVG Export Plug-In . SVG Version: 6.00 Build 0)  -->
<!DOCTYPE svg PUBLIC "-//W3C//DTD SVG 1.1//EN" "http://www.w3.org/Graphics/SVG/1.1/DTD/svg11.dtd">
<svg version="1.1" id="Calque_1" xmlns="http://www.w3.org/2000/svg" xmlns:xlink="http://www.w3.org/1999/xlink" x="0px" y="0px"
	 width="1190.551px" height="1190.551px" viewBox="0 0 1190.551 1190.551" enable-background="new 0 0 1190.551 1190.551"
	 xml:space="preserve">
<g>
	<path fill="#010202" d="M297.839,718.974l270.935,190.458c0,0,60.355,46.943,123.396,46.943h158.268c0,0,37.108,1.79,37.108-32.635
		v-15.202c0,0-1.342-26.825-37.557-26.825c0,0-101.219,0-134.062,0c-43.812,0-67.062-12.075-107.363-38.896
		C552.846,805.73,436.193,722.279,377.472,680.07c18.248,12.852,41.639,19.523,69.155,19.523c24.752,0,68.715,0,68.715,0v44.379
		h77.367h2.166h77.367v-44.381c0,0,43.959,0,68.713,0c69.797,0,113.08-42.896,113.08-120.809v-65.854h35.71v-64.926v-1.624v-64.926
		h-35.709v-65.854c0-77.911-43.279-120.809-113.081-120.809c-24.75,0-68.713,0-68.713,0v-46.098h-77.367h-2.166h-77.367v46.1
		c0,0-43.963,0-68.715,0c-69.798,0-113.082,42.896-113.082,120.808v65.855h-35.706v64.926v1.624v64.926h35.707v65.854
		c0,46.188,15.214,80.069,42.145,100.003c-20.575-14.792-33.588-24.197-33.588-24.197L297.839,718.974z"/>
	<path fill="#010202" d="M830.355,956.376c-10.553,0-59.851,0-75.674,0c-3.093,0-4.904,0-4.904,0c-44.541,0-377.811,0-389.577,0
		c-26.182,0-62.358,6.587-62.358,41.524c-0.003,38.019,36.176,43.984,70.063,43.958c16.96-0.019,338.194-0.002,381.869,0
		c0,0,0.223,0,0.643,0c2.778,0,4.265,0,4.265,0v-0.001c13.825-0.004,53.084-0.015,67.967,0.001
		c33.889,0.026,70.064-5.938,70.064-43.958C892.711,962.963,856.533,956.376,830.355,956.376z"/>
</g>
</svg>
