<?xml version="1.0" encoding="utf-8"?>
<!-- Generator: Adobe Illustrator 16.0.0, SVG Export Plug-In . SVG Version: 6.00 Build 0)  -->
<!DOCTYPE svg PUBLIC "-//W3C//DTD SVG 1.1//EN" "http://www.w3.org/Graphics/SVG/1.1/DTD/svg11.dtd">
<svg version="1.1" id="Calque_1" xmlns="http://www.w3.org/2000/svg" xmlns:xlink="http://www.w3.org/1999/xlink" x="0px" y="0px"
	 width="1190.551px" height="1190.551px" viewBox="0 0 1190.551 1190.551" enable-background="new 0 0 1190.551 1190.551"
	 xml:space="preserve">
<path fill="#010202" d="M763.754,495.745c-3.261-10.037-18.493-56.919-23.384-71.971c-0.954-2.938-1.515-4.664-1.515-4.664
	c-13.765-42.361-116.75-359.319-120.387-370.51c-8.09-24.901-25.533-57.273-58.762-46.477
	c-36.161,11.748-30.655,47.999-20.155,80.221c1.502,4.608,10.684,32.859,23.345,71.825l-33.918,11.02l-20.35-62.631
	C484.553,28.46,430.133,1.037,363.75,22.607c-23.54,7.649-65.35,21.233-65.35,21.233L284.156-0.001l-73.582,23.908l-2.061,0.67
	l-73.581,23.907l14.245,43.843c0,0-41.811,13.586-65.352,21.234c-66.381,21.568-94.292,75.741-70.216,149.84l20.351,62.632
	L0,337.068l20.062,61.748l0.502,1.545l20.063,61.749l33.96-11.034l20.351,62.632c24.075,74.098,78.498,101.52,144.879,79.951
	c23.541-7.649,65.352-21.234,65.352-21.234l13.713,42.206c-14.336,4.976-28.676,11.768-41.426,21.031l-128.041,93.027
	c0,0-31.075,20.363-10.84,48.215l8.937,12.3c0,0,16.852,20.912,46.15-0.373c0,0,81.888-59.495,108.459-78.8
	c35.446-25.754,61.352-29.648,109.724-31.639c91.479-3.759,326.207-4.348,326.207-4.348l-2.032-78.102l-331.14,5.166
	c0,0-37.924-1.24-78.169,10.979l65.753-21.365l2.061-0.669l73.583-23.909l-13.717-42.208c0,0,41.808-13.584,65.352-21.233
	c66.381-21.568,94.288-75.74,70.213-149.839l-20.35-62.632l33.918-11.021c24.459,75.283,47.951,147.595,54.032,166.312
	c0,0,0.068,0.214,0.198,0.613c0.858,2.642,1.317,4.052,1.317,4.052h0.001c4.276,13.148,16.416,50.48,21.002,64.641
	c10.445,32.239,27.299,64.803,63.459,53.054C776.761,557.088,771.845,520.645,763.754,495.745z"/>
</svg>
