<?xml version="1.0" encoding="utf-8"?>
<!-- Generator: Adobe Illustrator 16.0.0, SVG Export Plug-In . SVG Version: 6.00 Build 0)  -->
<!DOCTYPE svg PUBLIC "-//W3C//DTD SVG 1.1//EN" "http://www.w3.org/Graphics/SVG/1.1/DTD/svg11.dtd">
<svg version="1.1" id="Calque_1" xmlns="http://www.w3.org/2000/svg" xmlns:xlink="http://www.w3.org/1999/xlink" x="0px" y="0px"
	 width="1190.551px" height="1190.551px" viewBox="0 0 1190.551 1190.551" enable-background="new 0 0 1190.551 1190.551"
	 xml:space="preserve">
<path fill="#010202" d="M604.286,698.853l-67.443,1.053c25.661-0.734,58.028-8.411,58.028-41.459
	c0.004-38.02-36.175-43.986-70.063-43.958c-9.27,0.009-109.44,0.009-205.506,0.007l73.162-23.772l2.061-0.669l73.583-23.909
	l-13.717-42.208c0,0,41.808-13.584,65.352-21.233c66.381-21.568,94.288-75.74,70.213-149.839l-20.35-62.632l33.962-11.035
	l-20.063-61.748l-0.502-1.545l-20.062-61.749l-33.962,11.034l-20.35-62.631C484.553,28.46,430.133,1.037,363.75,22.607
	c-23.54,7.649-65.35,21.233-65.35,21.233L284.156-0.001l-73.582,23.908l-2.061,0.67l-73.581,23.907l14.245,43.843
	c0,0-41.811,13.586-65.352,21.234c-66.381,21.568-94.292,75.741-70.216,149.84l20.351,62.632L0,337.068l20.062,61.748l0.502,1.545
	l20.063,61.749l33.96-11.034l20.351,62.632c24.075,74.098,78.498,101.52,144.879,79.951c23.541-7.649,65.352-21.234,65.352-21.234
	l13.669,42.071c-79.527-0.003-156.135-0.006-175.9-0.007c0,0-0.224,0-0.644,0c-2.777,0-4.262,0-4.262,0v0.001
	c-13.826,0.004-53.085,0.013-67.968-0.001c-33.889-0.028-70.066,5.938-70.066,43.958c0,34.938,36.18,41.524,62.358,41.524
	c10.554,0,59.85,0,75.674,0c3.091,0,4.904,0,4.904,0c44.541,0,377.81,0,389.577,0c0.086,0,0.175-0.002,0.261-0.002l-259.627,4.052
	c0,0-76.423-2.502-127.423,34.552l-128.04,93.026c0,0-31.075,20.365-10.841,48.216l8.936,12.298c0,0,16.854,20.915,46.152-0.373
	c0,0,81.888-59.495,108.458-78.8c35.444-25.752,61.353-29.648,109.723-31.638c91.479-3.758,326.207-4.347,326.207-4.347
	L604.286,698.853z"/>
</svg>
