<?xml version="1.0" encoding="utf-8"?>
<!-- Generator: Adobe Illustrator 16.0.0, SVG Export Plug-In . SVG Version: 6.00 Build 0)  -->
<!DOCTYPE svg PUBLIC "-//W3C//DTD SVG 1.1//EN" "http://www.w3.org/Graphics/SVG/1.1/DTD/svg11.dtd">
<svg version="1.1" id="Calque_1" xmlns="http://www.w3.org/2000/svg" xmlns:xlink="http://www.w3.org/1999/xlink" x="0px" y="0px"
	 width="1190.551px" height="1190.551px" viewBox="0 0 1190.551 1190.551" enable-background="new 0 0 1190.551 1190.551"
	 xml:space="preserve">
<path fill="#010202" d="M896.405,843.479l-67.442,1.053c25.661-0.734,58.027-8.411,58.027-41.459
	c0.005-38.021-36.175-43.986-70.062-43.958c-9.271,0.009-109.439,0.009-205.506,0.007l73.162-23.771l2.061-0.669l73.583-23.909
	l-13.717-42.208c0,0,41.808-13.584,65.352-21.233c66.381-21.567,94.288-75.74,70.213-149.838l-20.35-62.632l33.962-11.035
	l-20.062-61.748l-0.502-1.545l-20.062-61.749l-33.962,11.034l-20.35-62.631c-24.076-74.1-78.496-101.523-144.879-79.953
	c-23.54,7.649-65.351,21.233-65.351,21.233l-14.244-43.841l-73.581,23.908l-2.062,0.67l-73.581,23.907l14.245,43.843
	c0,0-41.811,13.586-65.352,21.234c-66.382,21.568-94.292,75.741-70.217,149.84l20.352,62.632l-33.96,11.035l20.062,61.748
	l0.502,1.545l20.063,61.749l33.96-11.034l20.351,62.631c24.075,74.099,78.498,101.521,144.879,79.951
	c23.541-7.649,65.353-21.234,65.353-21.234l13.669,42.071c-79.527-0.003-156.135-0.006-175.9-0.007c0,0-0.224,0-0.644,0
	c-2.777,0-4.262,0-4.262,0v0.001c-13.826,0.004-53.086,0.013-67.969-0.001c-33.889-0.028-70.065,5.938-70.065,43.958
	c0,34.938,36.18,41.523,62.357,41.523c10.555,0,59.851,0,75.674,0c3.092,0,4.904,0,4.904,0c44.541,0,377.81,0,389.577,0
	c0.086,0,0.175-0.002,0.261-0.002l-259.627,4.052c0,0-76.423-2.502-127.423,34.553l-128.04,93.025c0,0-31.075,20.365-10.841,48.216
	l8.936,12.299c0,0,16.854,20.915,46.152-0.373c0,0,81.888-59.495,108.458-78.801c35.444-25.752,61.353-29.647,109.723-31.638
	c91.479-3.758,326.207-4.347,326.207-4.347L896.405,843.479z"/>
</svg>
