<?xml version="1.0" encoding="utf-8"?>
<!-- Generator: Adobe Illustrator 16.0.0, SVG Export Plug-In . SVG Version: 6.00 Build 0)  -->
<!DOCTYPE svg PUBLIC "-//W3C//DTD SVG 1.1//EN" "http://www.w3.org/Graphics/SVG/1.1/DTD/svg11.dtd">
<svg version="1.1" id="Calque_1" xmlns="http://www.w3.org/2000/svg" xmlns:xlink="http://www.w3.org/1999/xlink" x="0px" y="0px"
	 width="1190.551px" height="1190.551px" viewBox="0 0 1190.551 1190.551" enable-background="new 0 0 1190.551 1190.551"
	 xml:space="preserve">
<path fill="#010202" d="M877.693,523.944c-21.872-15.892-41.383-7.453-57.986,8.612c18.702-19.412,28.488-46.688,28.488-80.015
	c0-24.752,0-68.716,0-68.716h44.379v-77.366v-2.166v-77.369h-44.381c0,0,0-43.959,0-68.713c0-69.798-42.896-113.08-120.808-113.08
	H661.53V9.421h-64.926h-1.624h-64.926V45.13h-65.854c-77.911,0-120.81,43.281-120.81,113.081c0,24.752,0,68.713,0,68.713h-46.098
	v77.369v2.166v77.366h46.1c0,0,0,43.964,0,68.716c0,69.797,42.896,113.082,120.81,113.082h65.854v35.707h64.926h1.624h64.924
	L478.04,862.354c0,0-46.943,60.356-46.943,123.396v158.269c0,0-1.79,37.11,32.636,37.11h15.201c0,0,26.825-1.343,26.825-37.558
	c0,0,0-101.22,0-134.062c0-43.812,12.076-67.062,38.896-107.364c50.73-76.217,188.223-266.463,188.223-266.463l-64.381-44.264
	l-6.967,9.909v-35.705h65.855c38.946,0,69.143-10.816,89.604-30.353c-5.72,5.92-11.077,12.669-16.047,19.522
	c-9.955,13.731-198.781,273.604-224.456,308.938c0,0-0.131,0.182-0.378,0.521c-1.633,2.247-2.506,3.448-2.506,3.448h0.002
	c-8.124,11.188-31.19,42.952-39.95,54.985c-19.941,27.4-36.382,60.176-5.622,82.523c28.266,20.536,54.857-4.863,70.247-26.043
	c6.201-8.538,35.179-48.418,44.479-61.222c1.815-2.501,2.882-3.969,2.882-3.969C671.823,877.94,867.713,608.321,874.63,598.8
	C890.021,577.619,905.957,544.48,877.693,523.944z"/>
</svg>
