<?xml version="1.0" encoding="utf-8"?>
<!-- Generator: Adobe Illustrator 16.0.0, SVG Export Plug-In . SVG Version: 6.00 Build 0)  -->
<!DOCTYPE svg PUBLIC "-//W3C//DTD SVG 1.1//EN" "http://www.w3.org/Graphics/SVG/1.1/DTD/svg11.dtd">
<svg version="1.1" id="Calque_1" xmlns="http://www.w3.org/2000/svg" xmlns:xlink="http://www.w3.org/1999/xlink" x="0px" y="0px"
	 width="1190.551px" height="1190.551px" viewBox="0 0 1190.551 1190.551" enable-background="new 0 0 1190.551 1190.551"
	 xml:space="preserve">
<path fill="#010202" d="M863.1,393.243l33.96-11.034l-20.062-61.748l-0.502-1.544l-20.062-61.749l-33.96,11.034l-20.35-62.632
	c-24.075-74.098-78.499-101.52-144.88-79.951c-23.539,7.648-65.353,21.234-65.353,21.234l-13.668-42.065
	c76.351,0.002,148.162,0.005,167.205,0.006c0,0,0.223,0,0.643,0c2.778,0,4.265,0,4.265,0v-0.001
	c13.825-0.004,53.084-0.013,67.967,0.001c33.889,0.028,70.064-5.938,70.064-43.958c-0.001-34.937-36.179-41.523-62.357-41.523
	c-10.553,0-59.851,0-75.674,0c-3.093,0-4.904,0-4.904,0c-44.541,0-377.811,0-389.577,0c-26.182,0-62.359,6.586-62.359,41.524
	c-0.003,38.02,36.176,43.986,70.064,43.958c9.55-0.01,115.563-0.009,214.182-0.006l-73.144,23.766l-2.062,0.669l-73.582,23.908
	l13.715,42.21c0,0-41.808,13.584-65.35,21.233c-66.382,21.569-94.29,75.74-70.215,149.839l20.351,62.632l-33.963,11.036
	l20.062,61.748l0.502,1.544l20.063,61.75l33.961-11.036l20.35,62.631c9.644,29.678,24.158,51.859,42.354,66.414l-75.472-54.834
	c0,0-28.97-23.26-49.204,4.59l-8.938,12.299c0,0-14.682,22.489,14.616,43.777c0,0,81.889,59.495,108.459,78.8
	c35.444,25.752,47.156,49.188,63.996,94.576c31.845,85.841,104.938,308.897,104.938,308.897l73.651-26.066L555.59,831.834
	c0,0-21.236-73.453-72.236-110.509l-45.169-32.816c26.135,17.104,58.843,19.95,95.125,8.163
	c23.54-7.649,65.351-21.234,65.351-21.234l14.245,43.841l73.583-23.908l2.06-0.67l73.58-23.908l-14.245-43.843
	c0,0,41.812-13.585,65.353-21.234c66.381-21.567,94.291-75.739,70.215-149.838L863.1,393.243z"/>
</svg>
