<?xml version="1.0" encoding="utf-8"?>
<!-- Generator: Adobe Illustrator 16.0.0, SVG Export Plug-In . SVG Version: 6.00 Build 0)  -->
<!DOCTYPE svg PUBLIC "-//W3C//DTD SVG 1.1//EN" "http://www.w3.org/Graphics/SVG/1.1/DTD/svg11.dtd">
<svg version="1.1" id="Calque_1" xmlns="http://www.w3.org/2000/svg" xmlns:xlink="http://www.w3.org/1999/xlink" x="0px" y="0px"
	 width="1190.551px" height="1190.551px" viewBox="0 0 1190.551 1190.551" enable-background="new 0 0 1190.551 1190.551"
	 xml:space="preserve">
<g>
	<path fill="#010202" d="M0,570.282L270.935,760.74c0,0,60.355,46.944,123.396,46.944h158.268c0,0,37.108,1.79,37.108-32.635
		v-15.202c0,0-1.341-26.825-37.556-26.825c0,0-101.219,0-134.062,0c-43.812,0-67.062-12.076-107.363-38.896
		c-55.719-37.087-172.372-120.538-231.093-162.747c18.248,12.851,41.639,19.523,69.155,19.523c24.752,0,68.715,0,68.715,0v44.379
		h77.367h2.166h77.368V550.9c0,0,43.959,0,68.713,0c69.797,0,113.08-42.896,113.08-120.809v-65.854h35.71v-64.926v-1.624v-64.926
		h-35.709v-65.854c0-77.911-43.28-120.809-113.081-120.809c-24.751,0-68.713,0-68.713,0V0h-77.368h-2.166h-77.367v46.1
		c0,0-43.963,0-68.715,0c-69.798,0-113.082,42.896-113.082,120.808v65.855H0v64.926v1.624v64.926h35.707v65.855
		c0,46.188,15.214,80.069,42.145,100.003c-20.575-14.792-33.588-24.197-33.588-24.197L0,570.282z"/>
	<path fill="#010202" d="M532.516,807.685c-10.553,0-59.85,0-75.674,0c-3.092,0-4.904,0-4.904,0c-44.541,0-377.811,0-389.577,0
		c-26.182,0-62.359,6.586-62.359,41.524c-0.003,38.019,36.176,43.984,70.064,43.958c16.96-0.019,338.194-0.002,381.869,0
		c0,0,0.223,0,0.643,0c2.778,0,4.264,0,4.264,0v-0.001c13.825-0.004,53.084-0.015,67.967,0.001
		c33.889,0.026,70.065-5.938,70.065-43.958C594.873,814.271,558.695,807.685,532.516,807.685z"/>
</g>
</svg>
