<?xml version="1.0" encoding="utf-8"?>
<!-- Generator: Adobe Illustrator 16.0.0, SVG Export Plug-In . SVG Version: 6.00 Build 0)  -->
<!DOCTYPE svg PUBLIC "-//W3C//DTD SVG 1.1//EN" "http://www.w3.org/Graphics/SVG/1.1/DTD/svg11.dtd">
<svg version="1.1" id="Calque_1" xmlns="http://www.w3.org/2000/svg" xmlns:xlink="http://www.w3.org/1999/xlink" x="0px" y="0px"
	 width="1190.551px" height="1190.551px" viewBox="0 0 1190.551 1190.551" enable-background="new 0 0 1190.551 1190.551"
	 xml:space="preserve">
<g>
	<path fill="#010202" d="M20.062,482.517l0.502,1.544l20.063,61.75l33.961-11.036l20.35,62.631
		c24.077,74.1,78.496,101.521,144.879,79.953c23.54-7.649,65.35-21.234,65.35-21.234l14.245,43.841l73.583-23.908l2.06-0.67
		l73.58-23.908l-14.245-43.843c0,0,41.812-13.585,65.353-21.234c66.381-21.568,94.291-75.74,70.215-149.839l-20.35-62.633
		l33.96-11.034l-20.063-61.748l-0.502-1.544l-20.062-61.749l-33.96,11.034l-20.35-62.632
		c-24.075-74.098-78.499-101.52-144.88-79.951c-23.539,7.648-65.352,21.234-65.352,21.234L284.73,85.475
		c76.35,0.002,148.162,0.005,167.205,0.006c0,0,0.223,0,0.643,0c2.778,0,4.264,0,4.264,0v-0.001
		c13.825-0.004,53.084-0.013,67.967,0.001c33.889,0.028,70.065-5.938,70.065-43.958C594.873,6.586,558.695,0,532.516,0
		c-10.553,0-59.85,0-75.674,0c-3.092,0-4.904,0-4.904,0C407.397,0,74.127,0,62.361,0C36.179,0,0.001,6.586,0.001,41.524
		C-0.002,79.544,36.177,85.51,70.066,85.482c9.549-0.01,115.563-0.009,214.181-0.006l-73.143,23.766l-2.062,0.669l-73.582,23.908
		l13.715,42.21c0,0-41.808,13.584-65.35,21.233c-66.381,21.569-94.29,75.74-70.214,149.839l20.35,62.632l-33.963,11.036
		L20.062,482.517z"/>
	<path fill="#010202" d="M604.286,695.528l-331.14,5.168c0,0-76.423-2.502-127.423,34.552l-128.04,93.027
		c0,0-31.076,20.365-10.841,48.215l8.936,12.299c0,0,16.854,20.914,46.152-0.374c0,0,81.888-59.495,108.458-78.8
		c35.444-25.752,61.354-29.647,109.723-31.638c91.479-3.758,326.207-4.347,326.207-4.347L604.286,695.528z"/>
</g>
</svg>
