<?xml version="1.0" encoding="utf-8"?>
<!-- Generator: Adobe Illustrator 16.0.0, SVG Export Plug-In . SVG Version: 6.00 Build 0)  -->
<!DOCTYPE svg PUBLIC "-//W3C//DTD SVG 1.1//EN" "http://www.w3.org/Graphics/SVG/1.1/DTD/svg11.dtd">
<svg version="1.1" id="Calque_1" xmlns="http://www.w3.org/2000/svg" xmlns:xlink="http://www.w3.org/1999/xlink" x="0px" y="0px"
	 width="1190.551px" height="1190.551px" viewBox="0 0 1190.551 1190.551" enable-background="new 0 0 1190.551 1190.551"
	 xml:space="preserve">
<g>
	<polygon fill="#010202" points="26.155,264.45 194.491,209.753 178.423,160.298 355.321,102.822 371.388,152.277 510.241,107.159 
		494.174,57.704 576.23,31.044 566.144,0 423.22,46.44 409.821,5.201 90.267,109.031 103.664,150.269 0,183.951 	"/>
	<path fill="#010202" d="M245.383,305.978c0,0-63.297,42.896-82.778,102.85L113.698,559.35c0,0-13.171,34.74,19.57,45.377
		l14.457,4.698c0,0,25.926,7.014,37.118-27.428c0,0,31.278-96.266,41.427-127.501c13.539-41.668,32.209-60.049,70.172-90.089
		c71.801-56.812,261.354-195.258,261.354-195.258l-47.553-61.99L245.383,305.978z"/>
	<path fill="#010202" d="M463.687,847.228c-8.535-6.201-48.417-35.178-61.22-44.479c-2.5-1.816-3.968-2.882-3.968-2.882
		C362.464,773.685,92.844,577.794,83.323,570.878c-21.182-15.389-54.322-31.327-74.856-3.062
		c-22.35,30.758,3.414,56.851,30.849,76.746c13.729,9.956,273.604,198.784,308.938,224.457c0,0,0.181,0.131,0.521,0.378
		c2.248,1.633,3.448,2.505,3.448,2.505c11.188,8.124,42.953,31.191,54.985,39.949c27.399,19.944,60.176,36.382,82.523,5.623
		C510.267,889.211,484.868,862.616,463.687,847.228z"/>
</g>
</svg>
