<?xml version="1.0" encoding="utf-8"?>
<!-- Generator: Adobe Illustrator 16.0.0, SVG Export Plug-In . SVG Version: 6.00 Build 0)  -->
<!DOCTYPE svg PUBLIC "-//W3C//DTD SVG 1.1//EN" "http://www.w3.org/Graphics/SVG/1.1/DTD/svg11.dtd">
<svg version="1.1" id="Calque_1" xmlns="http://www.w3.org/2000/svg" xmlns:xlink="http://www.w3.org/1999/xlink" x="0px" y="0px"
	 width="1190.551px" height="1190.551px" viewBox="0 0 1190.551 1190.551" enable-background="new 0 0 1190.551 1190.551"
	 xml:space="preserve">
<path fill="#010202" d="M863.803,641.934l-14.458-4.698c0,0-2.79-0.755-6.935-0.554c23.986-2.055,50.302-11.223,50.302-41.021
	c0.005-38.021-36.178-43.986-70.064-43.957c-8.282,0.008-89.116,0.009-174.757,0.007l68.32-49.636L612.172,358.878l-42.068,30.565
	L460.776,238.965l42.069-30.563L417.028,90.285l-42.068,30.565l-50.715-69.802l-26.405,19.185l88.331,121.579l-35.078,25.486
	l197.495,271.829l35.08-25.485l63.984,88.069c-89.673-0.001-184.545-0.006-206.874-0.007c0,0-0.224,0-0.644,0
	c-2.777,0-4.262,0-4.262,0c-13.826,0.005-53.084,0.014-67.968,0c-33.887-0.029-70.065,5.938-70.065,43.957
	c0,34.938,36.18,41.522,62.358,41.522c10.554,0,59.85,0,75.675,0c3.09,0,4.903,0,4.903,0c44.541,0,377.81,0,389.577,0
	c3.268,0,6.691-0.102,10.182-0.35c-8.579,0.977-21.317,6.315-28.309,27.83c0,0-31.277,96.262-41.428,127.498
	c-13.54,41.67-32.208,60.049-70.172,90.09c-71.8,56.812-261.353,195.26-261.353,195.26l47.552,61.99l264.86-198.818
	c0,0,63.296-42.895,82.776-102.85l48.906-150.521C883.37,687.312,896.542,652.572,863.803,641.934z"/>
</svg>
