<?xml version="1.0" encoding="utf-8"?>
<!-- Generator: Adobe Illustrator 16.0.0, SVG Export Plug-In . SVG Version: 6.00 Build 0)  -->
<!DOCTYPE svg PUBLIC "-//W3C//DTD SVG 1.1//EN" "http://www.w3.org/Graphics/SVG/1.1/DTD/svg11.dtd">
<svg version="1.1" id="Calque_1" xmlns="http://www.w3.org/2000/svg" xmlns:xlink="http://www.w3.org/1999/xlink" x="0px" y="0px"
	 width="1190.551px" height="1190.551px" viewBox="0 0 1190.551 1190.551" enable-background="new 0 0 1190.551 1190.551"
	 xml:space="preserve">
<g>
	<path fill="#010202" d="M41.523,594.874c38.021,0.003,43.987-36.178,43.957-70.066c-0.017-16.96-0.002-338.194,0-381.869
		c0,0,0-0.223,0-0.644c0-2.777,0-4.262,0-4.262c-0.004-13.826-0.014-53.084,0-67.967c0.028-33.889-5.938-70.067-43.957-70.067
		C6.585-0.001,0,36.179,0,62.359c0,10.553,0,59.849,0,75.674c0,3.09,0,4.904,0,4.904c0,44.541,0,377.811,0,389.577
		C0,558.696,6.586,594.874,41.523,594.874z"/>
	<polygon fill="#010202" points="85.48,486.279 128.84,486.279 128.84,595.279 213.48,595.279 213.48,418.279 161.48,418.279 
		161.48,232.279 213.48,232.279 213.48,86.279 161.48,86.279 161.48,0 128.84,0 128.84,150.279 85.48,150.279 	"/>
	<path fill="#010202" d="M277.012,343.913H261.81c0,0-26.825,1.342-26.825,37.557c0,0,0,101.219,0,134.062
		c0,43.813-12.075,67.062-38.898,107.363C145.357,699.115,7.865,889.359,7.865,889.359l64.381,44.264l190.458-270.936
		c0,0,46.943-60.354,46.943-123.396V381.024C309.647,381.024,311.437,343.913,277.012,343.913z"/>
</g>
</svg>
