<?xml version="1.0" encoding="utf-8"?>
<!-- Generator: Adobe Illustrator 16.0.0, SVG Export Plug-In . SVG Version: 6.00 Build 0)  -->
<!DOCTYPE svg PUBLIC "-//W3C//DTD SVG 1.1//EN" "http://www.w3.org/Graphics/SVG/1.1/DTD/svg11.dtd">
<svg version="1.1" id="Calque_1" xmlns="http://www.w3.org/2000/svg" xmlns:xlink="http://www.w3.org/1999/xlink" x="0px" y="0px"
	 width="1190.551px" height="1190.551px" viewBox="0 0 1190.551 1190.551" enable-background="new 0 0 1190.551 1190.551"
	 xml:space="preserve">
<g>
	<polygon fill="#010202" points="399.885,232.539 597.381,504.368 632.461,478.882 696.529,567.065 765.005,517.315 
		660.966,374.119 618.898,404.685 509.569,254.206 551.638,223.643 465.821,105.525 423.753,136.09 373.038,66.289 346.633,85.474 
		434.964,207.053 	"/>
	<path fill="#010202" d="M836.365,759.037c-22.348-30.758-55.126-14.318-82.523,5.625c-3.771,2.744-26.161,19.016-57.376,41.695
		c2.369-1.92,4.683-4.352,6.893-7.393l8.937-12.299c0,0,14.683-22.49-14.615-43.777c0,0-81.888-59.494-108.459-78.799
		c-35.445-25.754-47.157-49.188-63.995-94.577c-31.846-85.841-104.941-308.899-104.941-308.899l-73.65,26.068l107.242,313.335
		c0,0,21.235,73.454,72.235,110.509l128.042,93.027c0,0,21.026,16.875,39.765,4.654c-82.679,60.07-223.661,162.49-249.016,180.91
		c0,0-0.181,0.131-0.521,0.379c-2.247,1.633-3.447,2.504-3.447,2.504c-11.184,8.131-42.938,31.213-54.986,39.951
		c-27.434,19.896-53.195,45.986-30.849,76.746c20.536,28.266,53.676,12.328,74.857-3.062c8.536-6.201,48.418-35.178,61.222-44.48
		c2.499-1.814,3.967-2.881,3.967-2.881c36.035-26.182,305.656-222.072,315.175-228.988C831.5,813.898,856.9,787.303,836.365,759.037
		z"/>
</g>
</svg>
