<?xml version="1.0" encoding="utf-8"?>
<!-- Generator: Adobe Illustrator 16.0.0, SVG Export Plug-In . SVG Version: 6.00 Build 0)  -->
<!DOCTYPE svg PUBLIC "-//W3C//DTD SVG 1.1//EN" "http://www.w3.org/Graphics/SVG/1.1/DTD/svg11.dtd">
<svg version="1.1" id="Calque_1" xmlns="http://www.w3.org/2000/svg" xmlns:xlink="http://www.w3.org/1999/xlink" x="0px" y="0px"
	 width="1190.551px" height="1190.551px" viewBox="0 0 1190.551 1190.551" enable-background="new 0 0 1190.551 1190.551"
	 xml:space="preserve">
<g>
	<path fill="#010202" d="M41.523,594.874c38.021,0.003,43.987-36.178,43.957-70.066c-0.017-16.96-0.002-338.194,0-381.869V177h52
		v186h-52v146h52v86.278h32.641V445h43.359V109H170.12V0H85.48v70.066v67.967c-0.004-13.826-0.014-53.084,0-67.967
		c0.028-33.889-5.938-70.067-43.957-70.067C6.585-0.001,0,36.179,0,62.359c0,10.553,0,59.849,0,75.674c0,3.09,0,4.904,0,4.904
		c0,44.541,0,377.811,0,389.577C0,558.696,6.586,594.874,41.523,594.874z"/>
	<path fill="#010202" d="M269.148,289.66h-15.202c0,0-26.824,1.341-26.824,37.557c0,0,0,101.218,0,134.062
		c0,43.813-12.076,67.062-38.898,107.363C137.493,644.861,0,835.106,0,835.106l64.381,44.263l190.458-270.935
		c0,0,46.944-60.355,46.944-123.396V326.77C301.783,326.77,303.573,289.66,269.148,289.66z"/>
</g>
</svg>
