<?xml version="1.0" encoding="utf-8"?>
<!-- Generator: Adobe Illustrator 16.0.0, SVG Export Plug-In . SVG Version: 6.00 Build 0)  -->
<!DOCTYPE svg PUBLIC "-//W3C//DTD SVG 1.1//EN" "http://www.w3.org/Graphics/SVG/1.1/DTD/svg11.dtd">
<svg version="1.1" id="Calque_1" xmlns="http://www.w3.org/2000/svg" xmlns:xlink="http://www.w3.org/1999/xlink" x="0px" y="0px"
	 width="1190.551px" height="1190.551px" viewBox="0 0 1190.551 1190.551" enable-background="new 0 0 1190.551 1190.551"
	 xml:space="preserve">
<g>
	<polygon fill="#010202" points="422.327,360.795 741.88,464.626 755.281,423.387 858.946,457.07 885.101,376.572 716.764,321.877 
		700.696,371.331 523.799,313.855 539.868,264.4 401.014,219.283 384.945,268.737 302.889,242.077 292.802,273.118 435.726,319.558 
			"/>
	<path fill="#010202" d="M879.554,901.503c0,0-81.888-59.495-108.459-78.8c-35.446-25.753-47.156-49.188-63.995-94.577
		c-31.844-85.84-104.939-308.898-104.939-308.898l-73.524,26.024c4.756-22.826,3.146-48.892-24.082-57.739
		c-36.159-11.749-53.015,20.816-63.458,53.057c-5.228,16.134-104.507,321.641-118.005,363.177c0,0-0.069,0.212-0.199,0.612
		c-0.858,2.643-1.316,4.053-1.316,4.053c-4.269,13.15-16.392,50.49-21.003,64.64c-10.499,32.223-16.005,68.474,20.154,80.223
		c33.228,10.796,50.67-21.578,58.761-46.479c3.261-10.035,18.493-56.918,23.384-71.968c0.955-2.939,1.517-4.665,1.517-4.665
		c13.765-42.359,116.75-359.318,120.387-370.51c1.438-4.421,2.768-9.209,3.808-14.15l107.171,313.127
		c0,0,21.234,73.455,72.235,110.509l128.042,93.028c0,0,28.971,23.261,49.205-4.59l8.936-12.298
		C894.169,945.28,908.853,922.79,879.554,901.503z"/>
</g>
</svg>
