<?xml version="1.0" encoding="utf-8"?>
<!-- Generator: Adobe Illustrator 16.0.0, SVG Export Plug-In . SVG Version: 6.00 Build 0)  -->
<!DOCTYPE svg PUBLIC "-//W3C//DTD SVG 1.1//EN" "http://www.w3.org/Graphics/SVG/1.1/DTD/svg11.dtd">
<svg version="1.1" id="Calque_1" xmlns="http://www.w3.org/2000/svg" xmlns:xlink="http://www.w3.org/1999/xlink" x="0px" y="0px"
	 width="1190.551px" height="1190.551px" viewBox="0 0 1190.551 1190.551" enable-background="new 0 0 1190.551 1190.551"
	 xml:space="preserve">
<path fill="#010202" d="M463.688,887.822c-8.535-6.201-48.418-35.178-61.221-44.479c-2.499-1.816-3.967-2.883-3.967-2.883
	C362.465,814.279,92.845,618.388,83.324,611.472c-8.75-6.356-19.54-12.804-30.639-16.193H84.64V445H128v-42.482
	c0.304,15.166,2.332,30.893,7.199,45.874l48.908,150.522c0,0,9.765,35.847,42.505,25.209l14.458-4.698
	c0,0,25.098-9.565,13.906-44.007c0,0-31.278-96.265-41.427-127.5c-13.54-41.67-9.239-67.513,3.817-114.13
	c24.693-88.165,96.668-311.587,96.668-311.587L239.128,0l-97.413,316.528c0,0-12.908,35.711-13.715,77.784V109H84.64V0H0v177h52v186
	H0v146h52v86.07c-15.559-4.568-31.655-3.009-43.532,13.34c-22.351,30.758,3.413,56.851,30.848,76.746
	c13.731,9.955,273.605,198.783,308.938,224.456c0,0,0.182,0.132,0.521,0.379c2.247,1.633,3.448,2.505,3.448,2.505
	c11.187,8.123,42.953,31.192,54.985,39.95c27.398,19.941,60.176,36.382,82.523,5.623
	C510.268,929.804,484.869,903.211,463.688,887.822z"/>
</svg>
