<?xml version="1.0" encoding="utf-8"?>
<!-- Generator: Adobe Illustrator 16.0.0, SVG Export Plug-In . SVG Version: 6.00 Build 0)  -->
<!DOCTYPE svg PUBLIC "-//W3C//DTD SVG 1.1//EN" "http://www.w3.org/Graphics/SVG/1.1/DTD/svg11.dtd">
<svg version="1.1" id="Calque_1" xmlns="http://www.w3.org/2000/svg" xmlns:xlink="http://www.w3.org/1999/xlink" x="0px" y="0px"
	 width="1190.551px" height="1190.551px" viewBox="0 0 1190.551 1190.551" enable-background="new 0 0 1190.551 1190.551"
	 xml:space="preserve">
<g>
	<path fill="#010202" d="M485.899,750.465c38.021,0.004,43.987-36.178,43.957-70.065c-0.017-16.96-0.002-338.194,0-381.869v34.061
		h52v186h-52v146h52v86.277h32.642V600.592h43.358v-336h-43.359v-109h-84.641v70.066v67.967c-0.004-13.826-0.014-53.084,0-67.967
		c0.028-33.889-5.938-70.067-43.957-70.067c-34.938,0-41.522,36.18-41.522,62.36c0,10.553,0,59.849,0,75.674c0,3.09,0,4.904,0,4.904
		c0,44.541,0,377.812,0,389.577C444.376,714.287,450.962,750.465,485.899,750.465z"/>
	<path fill="#010202" d="M713.524,445.251h-15.202c0,0-26.823,1.341-26.823,37.557c0,0,0,101.218,0,134.062
		c0,43.813-12.076,67.062-38.898,107.363c-50.73,76.22-188.224,266.464-188.224,266.464l64.381,44.264l190.458-270.936
		c0,0,46.944-60.355,46.944-123.396V482.361C746.159,482.361,747.948,445.251,713.524,445.251z"/>
</g>
</svg>
