<?xml version="1.0" encoding="utf-8"?>
<!-- Generator: Adobe Illustrator 16.0.0, SVG Export Plug-In . SVG Version: 6.00 Build 0)  -->
<!DOCTYPE svg PUBLIC "-//W3C//DTD SVG 1.1//EN" "http://www.w3.org/Graphics/SVG/1.1/DTD/svg11.dtd">
<svg version="1.1" id="Calque_1" xmlns="http://www.w3.org/2000/svg" xmlns:xlink="http://www.w3.org/1999/xlink" x="0px" y="0px"
	 width="1190.551px" height="1190.551px" viewBox="0 0 1190.551 1190.551" enable-background="new 0 0 1190.551 1190.551"
	 xml:space="preserve">
<g>
	<path fill="#010202" d="M469.31,118.418l-29.078-43.111l71.528-48.246L493.508,0L368.921,84.035l-24.246-35.947L66.118,235.977
		l24.247,35.947L0,332.876l47.33,70.169l146.739-98.977l-29.077-43.109l116.147-78.342c-6.315,5.313-15.782,17.91-6.157,41.732
		c0,0,37.917,93.848,50.221,124.301c16.413,40.624,13.926,66.704,4.152,114.118c-18.482,89.674-74.696,317.571-74.696,317.571
		l76.274,16.921l75.095-322.553c0,0,20.916-73.546-2.699-131.996l-59.288-146.744c0,0-1.443-4.135-4.63-9.043l8.859,13.134
		L469.31,118.418z M299.881,173.785l-14.082,5.688l33.394-22.524l19.269,28.568C332.064,176.381,319.807,165.735,299.881,173.785z"
		/>
	<path fill="#010202" d="M283.003,506.593c1.39-2.406,2.13-3.69,2.13-3.69c6.91-11.977,26.531-45.979,33.983-58.86
		c16.97-29.335,29.893-63.649-3.034-82.659c-30.257-17.47-54.049,10.57-67.14,33.243c-5.275,9.138-29.924,51.83-37.837,65.535
		c-1.545,2.676-2.452,4.248-2.452,4.248C186.383,502.983,19.748,791.603,13.865,801.793c-13.092,22.674-25.478,57.299,4.78,74.768
		c32.926,19.01,56.183-9.34,73.101-38.702c8.466-14.696,169.096-292.887,190.935-330.709
		C282.681,507.15,282.792,506.957,283.003,506.593z"/>
</g>
</svg>
