<?xml version="1.0" encoding="utf-8"?>
<!-- Generator: Adobe Illustrator 16.0.0, SVG Export Plug-In . SVG Version: 6.00 Build 0)  -->
<!DOCTYPE svg PUBLIC "-//W3C//DTD SVG 1.1//EN" "http://www.w3.org/Graphics/SVG/1.1/DTD/svg11.dtd">
<svg version="1.1" id="Calque_1" xmlns="http://www.w3.org/2000/svg" xmlns:xlink="http://www.w3.org/1999/xlink" x="0px" y="0px"
	 width="1190.551px" height="1190.551px" viewBox="0 0 1190.551 1190.551" enable-background="new 0 0 1190.551 1190.551"
	 xml:space="preserve">
<g>
	<polygon fill="#010202" points="723.103,170.604 707.034,220.058 530.138,162.581 546.207,113.127 407.353,68.01 391.283,117.464 
		309.228,90.804 299.141,121.845 442.065,168.284 428.666,209.521 748.219,313.353 761.619,272.113 865.284,305.797 891.44,225.299 
			"/>
	<path fill="#010202" d="M428.093,783.802c0,0,25.926,7.016,37.116-27.428c0,0,31.278-96.266,41.429-127.5
		c13.539-41.671,32.208-60.05,70.172-90.09c71.8-56.813,261.353-195.261,261.353-195.261l-47.553-61.99L525.75,480.354
		c0,0-63.297,42.896-82.776,102.851l-48.909,150.521c0,0-10.043,26.5,9.224,40.297c-11.836-8.599-19.37-14.071-20.823-15.129
		c-21.183-15.39-54.322-31.327-74.856-3.062c-22.351,30.758,3.413,56.851,30.848,76.745
		c13.729,9.955,273.604,198.784,308.938,224.457c0,0,0.182,0.132,0.521,0.378c2.248,1.633,3.449,2.506,3.449,2.506
		c11.188,8.123,42.953,31.19,54.985,39.948c27.397,19.942,60.176,36.383,82.522,5.623c20.536-28.265-4.863-54.856-26.044-70.246
		c-8.536-6.201-48.418-35.179-61.221-44.479c-2.499-1.815-3.967-2.882-3.967-2.882c-30.508-22.166-228.44-165.971-294.214-213.758
		c2.767,1.958,6.131,3.656,10.208,4.98L428.093,783.802z"/>
</g>
</svg>
