<?xml version="1.0" encoding="utf-8"?>
<!-- Generator: Adobe Illustrator 16.0.0, SVG Export Plug-In . SVG Version: 6.00 Build 0)  -->
<!DOCTYPE svg PUBLIC "-//W3C//DTD SVG 1.1//EN" "http://www.w3.org/Graphics/SVG/1.1/DTD/svg11.dtd">
<svg version="1.1" id="Calque_1" xmlns="http://www.w3.org/2000/svg" xmlns:xlink="http://www.w3.org/1999/xlink" x="0px" y="0px"
	 width="1190.551px" height="1190.551px" viewBox="0 0 1190.551 1190.551" enable-background="new 0 0 1190.551 1190.551"
	 xml:space="preserve">
<g>
	<polygon fill="#010202" points="333.33,392.462 501.667,337.765 485.598,288.31 662.496,230.834 678.564,280.289 817.416,235.171 
		801.35,185.716 883.406,159.056 873.32,128.012 730.396,174.452 716.996,133.213 397.442,237.043 410.84,278.281 307.176,311.963 	
		"/>
	<path fill="#010202" d="M552.558,433.99c0,0-63.297,42.896-82.778,102.85l-48.907,150.522c0,0-13.171,34.739,19.57,45.376
		l14.457,4.698c0,0,25.926,7.015,37.118-27.428c0,0,31.278-96.266,41.427-127.5c13.539-41.668,32.209-60.049,70.172-90.089
		c71.802-56.812,261.354-195.258,261.354-195.258l-47.554-61.99L552.558,433.99z"/>
	<path fill="#010202" d="M770.863,975.24c-8.535-6.201-48.417-35.179-61.22-44.479c-2.5-1.816-3.968-2.882-3.968-2.882
		C669.64,901.696,400.019,705.806,390.498,698.89c-21.182-15.389-54.321-31.327-74.855-3.062
		c-22.35,30.758,3.414,56.851,30.849,76.746c13.729,9.955,273.605,198.783,308.939,224.457c0,0,0.181,0.131,0.521,0.378
		c2.248,1.633,3.448,2.505,3.448,2.505c11.188,8.124,42.953,31.19,54.985,39.948c27.398,19.944,60.176,36.383,82.522,5.623
		C817.443,1017.223,792.043,990.628,770.863,975.24z"/>
</g>
</svg>
