<?xml version="1.0" encoding="utf-8"?>
<!-- Generator: Adobe Illustrator 16.0.0, SVG Export Plug-In . SVG Version: 6.00 Build 0)  -->
<!DOCTYPE svg PUBLIC "-//W3C//DTD SVG 1.1//EN" "http://www.w3.org/Graphics/SVG/1.1/DTD/svg11.dtd">
<svg version="1.1" id="Calque_1" xmlns="http://www.w3.org/2000/svg" xmlns:xlink="http://www.w3.org/1999/xlink" x="0px" y="0px"
	 width="1190.551px" height="1190.551px" viewBox="0 0 1190.551 1190.551" enable-background="new 0 0 1190.551 1190.551"
	 xml:space="preserve">
<g>
	<path fill="#010202" d="M481.967,723.338c38.021,0.004,43.987-36.178,43.957-70.065c-0.017-16.96-0.002-338.194,0-381.869
		c0,0,0-0.223,0-0.644c0-2.777,0-4.262,0-4.262c-0.004-13.826-0.014-53.084,0-67.967c0.028-33.889-5.938-70.067-43.957-70.067
		c-34.938,0-41.522,36.18-41.522,62.36c0,10.553,0,59.849,0,75.674c0,3.09,0,4.904,0,4.904c0,44.541,0,377.812,0,389.577
		C440.445,687.16,447.031,723.338,481.967,723.338z"/>
	<polygon fill="#010202" points="525.924,614.743 569.284,614.743 569.284,723.743 653.924,723.743 653.924,546.743 
		601.924,546.743 601.924,360.743 653.924,360.743 653.924,214.743 601.924,214.743 601.924,128.464 569.284,128.464 
		569.284,278.743 525.924,278.743 	"/>
	<path fill="#010202" d="M717.456,472.377h-15.202c0,0-26.825,1.342-26.825,37.557c0,0,0,101.219,0,134.062
		c0,43.812-12.074,67.062-38.897,107.363c-50.73,76.221-188.222,266.465-188.222,266.465l64.381,44.264l190.458-270.936
		c0,0,46.942-60.355,46.942-123.396V509.488C750.091,509.488,751.881,472.377,717.456,472.377z"/>
</g>
</svg>
