<?xml version="1.0" encoding="utf-8"?>
<!-- Generator: Adobe Illustrator 16.0.0, SVG Export Plug-In . SVG Version: 6.00 Build 0)  -->
<!DOCTYPE svg PUBLIC "-//W3C//DTD SVG 1.1//EN" "http://www.w3.org/Graphics/SVG/1.1/DTD/svg11.dtd">
<svg version="1.1" id="Calque_1" xmlns="http://www.w3.org/2000/svg" xmlns:xlink="http://www.w3.org/1999/xlink" x="0px" y="0px"
	 width="1190.551px" height="1190.551px" viewBox="0 0 1190.551 1190.551" enable-background="new 0 0 1190.551 1190.551"
	 xml:space="preserve">
<g>
	<polygon fill="#010202" points="53.253,166.25 250.748,438.079 285.828,412.594 349.896,500.777 418.372,451.027 314.333,307.83 
		272.265,338.396 162.937,187.917 205.006,157.354 119.189,39.237 77.12,69.802 26.406,0 0,19.185 88.331,140.764 	"/>
	<path fill="#010202" d="M489.732,692.749c-22.348-30.759-55.126-14.319-82.524,5.624c-3.771,2.745-26.161,19.016-57.376,41.695
		c2.369-1.919,4.683-4.351,6.893-7.392l8.936-12.299c0,0,14.683-22.49-14.615-43.776c0,0-81.888-59.495-108.459-78.8
		c-35.445-25.754-47.157-49.188-63.995-94.577C146.746,417.383,73.651,194.325,73.651,194.325l-73.651,26.068l107.242,313.335
		c0,0,21.236,73.455,72.236,110.509l128.042,93.027c0,0,21.026,16.876,39.764,4.655c-82.678,60.07-223.66,162.49-249.015,180.91
		c0,0-0.181,0.131-0.521,0.378c-2.247,1.633-3.447,2.505-3.447,2.505c-11.184,8.13-42.938,31.212-54.986,39.95
		c-27.434,19.896-53.196,45.987-30.849,76.746c20.536,28.266,53.676,12.328,74.857-3.061c8.537-6.203,48.418-35.179,61.222-44.481
		c2.499-1.815,3.967-2.882,3.967-2.882c36.035-26.181,305.655-222.072,315.175-228.988
		C484.868,747.609,510.267,721.015,489.732,692.749z"/>
</g>
</svg>
