<?xml version="1.0" encoding="utf-8"?>
<!-- Generator: Adobe Illustrator 16.0.0, SVG Export Plug-In . SVG Version: 6.00 Build 0)  -->
<!DOCTYPE svg PUBLIC "-//W3C//DTD SVG 1.1//EN" "http://www.w3.org/Graphics/SVG/1.1/DTD/svg11.dtd">
<svg version="1.1" id="Calque_1" xmlns="http://www.w3.org/2000/svg" xmlns:xlink="http://www.w3.org/1999/xlink" x="0px" y="0px"
	 width="1190.551px" height="1190.551px" viewBox="0 0 1190.551 1190.551" enable-background="new 0 0 1190.551 1190.551"
	 xml:space="preserve">
<path fill="#010202" d="M565.964,590.885l-14.458-4.698c0,0-2.79-0.755-6.934-0.554c23.986-2.054,50.302-11.222,50.302-41.021
	c0.004-38.021-36.178-43.986-70.065-43.957c-8.282,0.008-89.116,0.009-174.757,0.007l68.32-49.636L314.333,307.83l-42.068,30.565
	L162.937,187.917l42.069-30.563L119.189,39.237L77.12,69.802L26.406,0L0,19.185l88.331,121.579L53.253,166.25l197.495,271.829
	l35.08-25.485l63.985,88.069c-89.673-0.001-184.545-0.006-206.874-0.007c0,0-0.224,0-0.644,0c-2.777,0-4.262,0-4.262,0
	c-13.826,0.005-53.084,0.014-67.967,0C36.179,500.627,0,506.594,0,544.613c0,34.938,36.18,41.523,62.359,41.523
	c10.553,0,59.849,0,75.674,0c3.09,0,4.904,0,4.904,0c44.541,0,377.81,0,389.577,0c3.268,0,6.692-0.103,10.182-0.351
	c-8.579,0.977-21.318,6.316-28.309,27.83c0,0-31.277,96.263-41.428,127.499c-13.54,41.67-32.208,60.049-70.172,90.089
	c-71.799,56.814-261.352,195.261-261.352,195.261l47.552,61.99l264.86-198.818c0,0,63.296-42.896,82.776-102.851l48.907-150.521
	C585.532,636.264,598.704,601.523,565.964,590.885z"/>
</svg>
