<?xml version="1.0" encoding="utf-8"?>
<!-- Generator: Adobe Illustrator 16.0.0, SVG Export Plug-In . SVG Version: 6.00 Build 0)  -->
<!DOCTYPE svg PUBLIC "-//W3C//DTD SVG 1.1//EN" "http://www.w3.org/Graphics/SVG/1.1/DTD/svg11.dtd">
<svg version="1.1" id="Calque_1" xmlns="http://www.w3.org/2000/svg" xmlns:xlink="http://www.w3.org/1999/xlink" x="0px" y="0px"
	 width="1190.551px" height="1190.551px" viewBox="0 0 1190.551 1190.551" enable-background="new 0 0 1190.551 1190.551"
	 xml:space="preserve">
<g>
	<polygon fill="#010202" points="43.36,595.279 128,595.279 128,551.017 128,418.279 76,418.279 76,232.279 128,232.279 128,86.279 
		76,86.279 76,0 43.36,0 43.36,150.279 0,150.279 0,486.279 43.36,486.279 	"/>
	<path fill="#010202" d="M532.517,595.28c-10.552,0-59.848,0-75.673,0c-3.09,0-4.905,0-4.905,0c-44.541,0-377.811,0-389.577,0
		c-26.182,0-62.36,6.586-62.36,41.523c-0.002,38.02,36.178,43.985,70.066,43.957c16.96-0.018,338.194-0.002,381.869,0
		c0,0,0.223,0,0.643,0c2.778,0,4.264,0,4.264,0c13.826-0.004,53.084-0.015,67.966,0c33.889,0.027,70.066-5.938,70.066-43.957
		C594.875,601.865,558.697,595.28,532.517,595.28z"/>
	<path fill="#010202" d="M382.84,324.346c0,0,46.942-60.356,46.942-123.396V42.681c0,0,1.79-37.11-32.635-37.11h-15.201
		c0,0-26.825,1.342-26.825,37.557c0,0,0,101.219,0,134.062c0,43.813-12.076,67.062-38.898,107.363
		C265.493,360.772,128,551.017,128,551.017l64.381,44.262L382.84,324.346z"/>
</g>
</svg>
