<?xml version="1.0" encoding="utf-8"?>
<!-- Generator: Adobe Illustrator 16.0.0, SVG Export Plug-In . SVG Version: 6.00 Build 0)  -->
<!DOCTYPE svg PUBLIC "-//W3C//DTD SVG 1.1//EN" "http://www.w3.org/Graphics/SVG/1.1/DTD/svg11.dtd">
<svg version="1.1" id="Calque_1" xmlns="http://www.w3.org/2000/svg" xmlns:xlink="http://www.w3.org/1999/xlink" x="0px" y="0px"
	 width="1190.551px" height="1190.551px" viewBox="0 0 1190.551 1190.551" enable-background="new 0 0 1190.551 1190.551"
	 xml:space="preserve">
<g>
	<polygon fill="#010202" points="341.197,850.174 425.838,850.174 425.838,805.912 425.838,673.174 373.838,673.174 
		373.838,487.174 425.838,487.174 425.838,341.174 373.838,341.174 373.838,254.896 341.197,254.896 341.197,405.174 
		297.838,405.174 297.838,741.174 341.197,741.174 	"/>
	<path fill="#010202" d="M830.354,850.176c-10.551,0-59.848,0-75.672,0c-3.09,0-4.906,0-4.906,0c-44.541,0-377.81,0-389.577,0
		c-26.182,0-62.359,6.586-62.359,41.522c-0.002,38.021,36.178,43.985,70.065,43.957c16.96-0.018,338.195-0.002,381.869,0
		c0,0,0.223,0,0.643,0c2.779,0,4.266,0,4.266,0c13.826-0.004,53.084-0.015,67.965,0c33.889,0.027,70.066-5.938,70.066-43.957
		C892.713,856.761,856.533,850.176,830.354,850.176z"/>
	<path fill="#010202" d="M680.678,579.242c0,0,46.941-60.356,46.941-123.396V297.577c0,0,1.789-37.11-32.635-37.11h-15.201
		c0,0-26.824,1.342-26.824,37.557c0,0,0,101.219,0,134.062c0,43.813-12.076,67.062-38.898,107.363
		c-50.73,76.219-188.223,266.464-188.223,266.464l64.381,44.263L680.678,579.242z"/>
</g>
</svg>
