<?xml version="1.0" encoding="utf-8"?>
<!-- Generator: Adobe Illustrator 16.0.0, SVG Export Plug-In . SVG Version: 6.00 Build 0)  -->
<!DOCTYPE svg PUBLIC "-//W3C//DTD SVG 1.1//EN" "http://www.w3.org/Graphics/SVG/1.1/DTD/svg11.dtd">
<svg version="1.1" id="Calque_1" xmlns="http://www.w3.org/2000/svg" xmlns:xlink="http://www.w3.org/1999/xlink" x="0px" y="0px"
	 width="1190.551px" height="1190.551px" viewBox="0 0 1190.551 1190.551" enable-background="new 0 0 1190.551 1190.551"
	 xml:space="preserve">
<g>
	<polygon fill="#010202" points="129.526,141.511 449.079,245.342 462.479,204.103 566.144,237.786 592.299,157.288 
		423.962,102.593 407.894,152.047 230.997,94.571 247.067,45.116 108.212,-0.001 92.143,49.453 10.087,22.793 0,53.834 
		142.924,100.274 	"/>
	<path fill="#010202" d="M586.752,682.219c0,0-81.887-59.495-108.459-78.8c-35.446-25.753-47.156-49.188-63.995-94.577
		c-31.844-85.84-104.939-308.898-104.939-308.898l-73.525,26.024c4.756-22.826,3.146-48.892-24.082-57.739
		c-36.159-11.749-53.014,20.816-63.458,53.057C143.067,237.42,43.787,542.927,30.289,584.463c0,0-0.069,0.212-0.199,0.612
		c-0.858,2.643-1.316,4.053-1.316,4.053c-4.269,13.15-16.392,50.49-21.003,64.64C-2.728,685.99-8.234,722.241,27.925,733.99
		c33.228,10.796,50.67-21.578,58.761-46.479c3.261-10.035,18.493-56.918,23.384-71.968c0.955-2.939,1.516-4.665,1.516-4.665
		c13.765-42.36,116.75-359.318,120.387-370.51c1.437-4.421,2.767-9.209,3.808-14.15l107.17,313.127
		c0,0,21.235,73.455,72.236,110.509l128.042,93.028c0,0,28.971,23.261,49.205-4.59l8.936-12.298
		C601.368,725.996,616.051,703.506,586.752,682.219z"/>
</g>
</svg>
