<?xml version="1.0" encoding="utf-8"?>
<!-- Generator: Adobe Illustrator 16.0.0, SVG Export Plug-In . SVG Version: 6.00 Build 0)  -->
<!DOCTYPE svg PUBLIC "-//W3C//DTD SVG 1.1//EN" "http://www.w3.org/Graphics/SVG/1.1/DTD/svg11.dtd">
<svg version="1.1" id="Calque_1" xmlns="http://www.w3.org/2000/svg" xmlns:xlink="http://www.w3.org/1999/xlink" x="0px" y="0px"
	 width="1190.551px" height="1190.551px" viewBox="0 0 1190.551 1190.551" enable-background="new 0 0 1190.551 1190.551"
	 xml:space="preserve">
<path fill="#010202" d="M810.321,995.537c-8.535-6.201-48.418-35.178-61.221-44.479c-2.499-1.815-3.967-2.883-3.967-2.883
	c-36.035-26.181-305.656-222.072-315.176-228.988c-8.75-6.355-19.54-12.804-30.64-16.192h31.955V552.715h43.36v-42.481
	c0.304,15.166,2.332,30.893,7.199,45.874l48.907,150.521c0,0,9.766,35.847,42.505,25.209l14.458-4.698
	c0,0,25.099-9.564,13.907-44.007c0,0-31.278-96.265-41.427-127.5c-13.54-41.67-9.239-67.513,3.817-114.13
	c24.692-88.165,96.668-311.587,96.668-311.587l-74.907-22.201l-97.413,316.528c0,0-12.908,35.711-13.715,77.784V216.715h-43.36v-109
	h-84.64v177h52v186h-52v146h52v86.07c-15.56-4.568-31.655-3.009-43.532,13.34c-22.351,30.758,3.413,56.851,30.848,76.746
	c13.731,9.955,273.606,198.783,308.939,224.456c0,0,0.182,0.132,0.521,0.379c2.247,1.633,3.448,2.505,3.448,2.505
	c11.188,8.123,42.953,31.192,54.985,39.95c27.397,19.94,60.176,36.382,82.522,5.623
	C856.901,1037.519,831.501,1010.926,810.321,995.537z"/>
</svg>
