<?xml version="1.0" encoding="utf-8"?>
<!-- Generator: Adobe Illustrator 16.0.0, SVG Export Plug-In . SVG Version: 6.00 Build 0)  -->
<!DOCTYPE svg PUBLIC "-//W3C//DTD SVG 1.1//EN" "http://www.w3.org/Graphics/SVG/1.1/DTD/svg11.dtd">
<svg version="1.1" id="Calque_1" xmlns="http://www.w3.org/2000/svg" xmlns:xlink="http://www.w3.org/1999/xlink" x="0px" y="0px"
	 width="1190.551px" height="1190.551px" viewBox="0 0 1190.551 1190.551" enable-background="new 0 0 1190.551 1190.551"
	 xml:space="preserve">
<g>
	<path fill="#010202" d="M808.767,272.33l-29.078-43.111l71.528-48.246l-18.252-27.061l-124.587,84.035L684.132,202L405.575,389.889
		l24.247,35.947l-90.365,60.952l47.33,70.169l146.738-98.977l-29.076-43.109l116.146-78.342c-6.314,5.313-15.782,17.91-6.157,41.732
		c0,0,37.917,93.848,50.222,124.301c16.413,40.624,13.926,66.704,4.151,114.118c-18.481,89.674-74.695,317.57-74.695,317.57
		l76.273,16.921l75.095-322.553c0,0,20.916-73.545-2.698-131.996l-59.288-146.744c0,0-1.443-4.135-4.63-9.043l8.858,13.134
		L808.767,272.33z M639.338,327.697l-14.082,5.688l33.394-22.524l19.27,28.568C671.521,330.292,659.264,319.646,639.338,327.697z"/>
	<path fill="#010202" d="M622.46,660.504c1.39-2.405,2.13-3.689,2.13-3.689c6.91-11.978,26.531-45.979,33.983-58.86
		c16.97-29.334,29.893-63.648-3.034-82.659c-30.257-17.47-54.049,10.57-67.141,33.243c-5.274,9.138-29.924,51.83-37.837,65.535
		c-1.545,2.676-2.452,4.248-2.452,4.248c-22.27,38.573-188.904,327.193-194.787,337.383c-13.093,22.674-25.479,57.299,4.779,74.768
		c32.926,19.011,56.184-9.34,73.102-38.701c8.466-14.696,169.096-292.887,190.935-330.709
		C622.138,661.062,622.249,660.868,622.46,660.504z"/>
</g>
</svg>
