<?xml version="1.0" encoding="utf-8"?>
<!-- Generator: Adobe Illustrator 16.0.0, SVG Export Plug-In . SVG Version: 6.00 Build 0)  -->
<!DOCTYPE svg PUBLIC "-//W3C//DTD SVG 1.1//EN" "http://www.w3.org/Graphics/SVG/1.1/DTD/svg11.dtd">
<svg version="1.1" id="Calque_1" xmlns="http://www.w3.org/2000/svg" xmlns:xlink="http://www.w3.org/1999/xlink" x="0px" y="0px"
	 width="1190.551px" height="1190.551px" viewBox="0 0 1190.551 1190.551" enable-background="new 0 0 1190.551 1190.551"
	 xml:space="preserve">
<g>
	<polygon fill="#010202" points="423.962,102.593 407.894,152.047 230.997,94.571 247.067,45.116 108.212,-0.001 92.143,49.453 
		10.087,22.793 0,53.834 142.924,100.274 129.526,141.511 449.079,245.342 462.479,204.103 566.144,237.786 592.299,157.288 	"/>
	<path fill="#010202" d="M128.952,715.791c0,0,25.926,7.016,37.117-27.428c0,0,31.278-96.265,41.428-127.5
		c13.539-41.67,32.208-60.049,70.172-90.089c71.8-56.814,261.353-195.261,261.353-195.261l-47.553-61.99L226.61,412.343
		c0,0-63.297,42.896-82.777,102.851L94.924,665.715c0,0-10.043,26.5,9.224,40.297c-11.836-8.599-19.37-14.072-20.824-15.129
		c-21.182-15.39-54.322-31.327-74.856-3.062c-22.351,30.758,3.413,56.851,30.848,76.745
		c13.729,9.956,273.604,198.785,308.938,224.457c0,0,0.182,0.132,0.521,0.378c2.248,1.633,3.449,2.506,3.449,2.506
		c11.187,8.123,42.953,31.191,54.985,39.949c27.398,19.942,60.176,36.382,82.523,5.623c20.536-28.265-4.863-54.857-26.044-70.247
		c-8.536-6.201-48.418-35.178-61.221-44.479c-2.499-1.816-3.967-2.882-3.967-2.882C367.992,897.705,170.06,753.9,104.286,706.113
		c2.767,1.958,6.131,3.657,10.208,4.981L128.952,715.791z"/>
</g>
</svg>
