<?xml version="1.0" encoding="utf-8"?>
<!-- Generator: Adobe Illustrator 16.0.0, SVG Export Plug-In . SVG Version: 6.00 Build 0)  -->
<!DOCTYPE svg PUBLIC "-//W3C//DTD SVG 1.1//EN" "http://www.w3.org/Graphics/SVG/1.1/DTD/svg11.dtd">
<svg version="1.1" id="Calque_1" xmlns="http://www.w3.org/2000/svg" xmlns:xlink="http://www.w3.org/1999/xlink" x="0px" y="0px"
	 width="1190.551px" height="1190.551px" viewBox="0 0 1190.551 1190.551" enable-background="new 0 0 1190.551 1190.551"
	 xml:space="preserve">
<path fill="#010202" d="M349.989-0.001c0,0,0,159.584,0,212.778c0,36-10.397,50-48.897,50H128V109H84.64V0H0v177h52v186H0v146h52
	v86.277h32.64V445H128V332.502l157.052-0.001L94.595,603.436c0,0-46.944,60.356-46.944,123.396V885.1c0,0-1.789,37.11,32.636,37.11
	h15.202c0,0,26.824-1.343,26.824-37.558c0,0,0-101.218,0-134.062c0-43.814,12.076-67.063,38.898-107.364
	c50.729-76.218,188.223-266.464,188.223-266.464l-64.379-44.262h16.037c38.5,0,48.897,14,48.897,50c0,53.193,0,212.777,0,212.777
	h76.104V300.188v-5.099V-0.001H349.989z"/>
</svg>
