<?xml version="1.0" encoding="utf-8"?>
<!-- Generator: Adobe Illustrator 16.0.0, SVG Export Plug-In . SVG Version: 6.00 Build 0)  -->
<!DOCTYPE svg PUBLIC "-//W3C//DTD SVG 1.1//EN" "http://www.w3.org/Graphics/SVG/1.1/DTD/svg11.dtd">
<svg version="1.1" id="Calque_1" xmlns="http://www.w3.org/2000/svg" xmlns:xlink="http://www.w3.org/1999/xlink" x="0px" y="0px"
	 width="1190.551px" height="1190.551px" viewBox="0 0 1190.551 1190.551" enable-background="new 0 0 1190.551 1190.551"
	 xml:space="preserve">
<g>
	<path fill="#010202" d="M76.103,382.501c0-36,10.397-50,48.897-50h173.091V300.19v-5.1v-32.312H125c-38.5,0-48.897-14-48.897-50
		c0-53.193,0-212.777,0-212.777H0v295.092v5.098v295.09h76.103C76.103,595.28,76.103,435.696,76.103,382.501z"/>
	<path fill="#010202" d="M46.944,636.773c0,0-46.943,60.354-46.943,123.396v158.269c0,0-1.79,37.108,32.635,37.108h15.202
		c0,0,26.825-1.341,26.825-37.556c0,0,0-101.218,0-134.062c0-43.814,12.075-67.063,38.898-107.364
		C164.29,600.347,301.783,410.1,301.783,410.1l-64.382-44.263L46.944,636.773z"/>
	<polygon fill="#010202" points="386.423,553.485 386.423,407.485 334.423,407.485 334.423,321.206 301.783,321.206 301.783,410.1 
		301.783,471.485 258.423,471.485 258.423,807.484 301.783,807.484 301.783,916.484 386.423,916.484 386.423,739.484 
		334.423,739.484 334.423,553.485 	"/>
</g>
</svg>
