<?xml version="1.0" encoding="utf-8"?>
<!-- Generator: Adobe Illustrator 16.0.0, SVG Export Plug-In . SVG Version: 6.00 Build 0)  -->
<!DOCTYPE svg PUBLIC "-//W3C//DTD SVG 1.1//EN" "http://www.w3.org/Graphics/SVG/1.1/DTD/svg11.dtd">
<svg version="1.1" id="Calque_1" xmlns="http://www.w3.org/2000/svg" xmlns:xlink="http://www.w3.org/1999/xlink" x="0px" y="0px"
	 width="1190.551px" height="1190.551px" viewBox="0 0 1190.551 1190.551" enable-background="new 0 0 1190.551 1190.551"
	 xml:space="preserve">
<g>
	<path fill="#010202" d="M352.422,744.791h32.64V594.514h43.36V482.016l173.09-0.001c38.5,0,48.896,14,48.896,50
		c0,53.193,0,212.776,0,212.776h76.105V449.702v-5.099v-295.09h-76.105c0,0,0,159.584,0,212.778c0,36-10.396,50-48.896,50h-173.09
		V258.514h-43.36v-109h-84.64v177h52v186h-52v146h52V744.791z"/>
	<path fill="#010202" d="M852.573,966.36c0,0-101.217,0-134.061,0c-43.814,0-67.062-12.075-107.363-38.898
		c-76.219-50.729-266.465-188.223-266.465-188.223l-44.263,64.382l270.936,190.458c0,0,60.355,46.943,123.396,46.943H853.02
		c0,0,37.111,1.79,37.111-32.637v-15.2C890.131,993.186,888.787,966.36,852.573,966.36z"/>
</g>
</svg>
