<?xml version="1.0" encoding="utf-8"?>
<!-- Generator: Adobe Illustrator 16.0.0, SVG Export Plug-In . SVG Version: 6.00 Build 0)  -->
<!DOCTYPE svg PUBLIC "-//W3C//DTD SVG 1.1//EN" "http://www.w3.org/Graphics/SVG/1.1/DTD/svg11.dtd">
<svg version="1.1" id="Calque_1" xmlns="http://www.w3.org/2000/svg" xmlns:xlink="http://www.w3.org/1999/xlink" x="0px" y="0px"
	 width="1190.551px" height="1190.551px" viewBox="0 0 1190.551 1190.551" enable-background="new 0 0 1190.551 1190.551"
	 xml:space="preserve">
<g>
	<path fill="#010202" d="M764.96,123.833v-109h-84.64v-0.001H604.22c0,0,0,159.584,0,212.778c0,36-10.397,50-48.898,50H382.23
		v32.312v5.101v32.312l173.091-0.001c38.5,0,48.896,14,48.896,50c0,53.193,0,212.777,0,212.777h76.104v-86.278h52v86.276h32.64
		V459.833h43.361v-336H764.96z M732.321,377.833h-52v-62.812v-5.099V191.833h52V377.833z"/>
	<path fill="#010202" d="M506.807,856.945c0,0-46.944,60.355-46.944,123.396v158.269c0,0-1.789,37.109,32.636,37.109H507.7
		c0,0,26.824-1.341,26.824-37.558c0,0,0-101.218,0-134.062c0-43.813,12.076-67.062,38.897-107.363
		c50.729-76.219,188.224-266.465,188.224-266.465l-64.381-44.262L506.807,856.945z"/>
</g>
</svg>
