<?xml version="1.0" encoding="utf-8"?>
<!-- Generator: Adobe Illustrator 16.0.0, SVG Export Plug-In . SVG Version: 6.00 Build 0)  -->
<!DOCTYPE svg PUBLIC "-//W3C//DTD SVG 1.1//EN" "http://www.w3.org/Graphics/SVG/1.1/DTD/svg11.dtd">
<svg version="1.1" id="Calque_1" xmlns="http://www.w3.org/2000/svg" xmlns:xlink="http://www.w3.org/1999/xlink" x="0px" y="0px"
	 width="1190.551px" height="1190.551px" viewBox="0 0 1190.551 1190.551" enable-background="new 0 0 1190.551 1190.551"
	 xml:space="preserve">
<g>
	<path fill="#010202" d="M522.41,592.008c0,53.193,0,212.777,0,212.777h76.104v-109h43.359v109h84.641v-177h-52v-186h52v-146h-52
		v-86.278h-32.641v150.277h-43.359V209.506h-76.102c0,0,0,159.584,0,212.778c0,36-10.397,50-48.898,50H300.422v32.312v5.101v32.312
		l173.091-0.001C512.012,542.008,522.41,556.008,522.41,592.008z"/>
	<path fill="#010202" d="M852.573,906.367c0,0-101.217,0-134.061,0c-43.814,0-67.062-12.076-107.363-38.899
		c-76.219-50.728-266.465-188.222-266.465-188.222l-44.263,64.381l270.936,190.458c0,0,60.355,46.943,123.396,46.943H853.02
		c0,0,37.111,1.79,37.111-32.637v-15.2C890.131,933.191,888.787,906.367,852.573,906.367z"/>
</g>
</svg>
