<?xml version="1.0" encoding="utf-8"?>
<!-- Generator: Adobe Illustrator 16.0.0, SVG Export Plug-In . SVG Version: 6.00 Build 0)  -->
<!DOCTYPE svg PUBLIC "-//W3C//DTD SVG 1.1//EN" "http://www.w3.org/Graphics/SVG/1.1/DTD/svg11.dtd">
<svg version="1.1" id="Calque_1" xmlns="http://www.w3.org/2000/svg" xmlns:xlink="http://www.w3.org/1999/xlink" x="0px" y="0px"
	 width="1190.551px" height="1190.551px" viewBox="0 0 1190.551 1190.551" enable-background="new 0 0 1190.551 1190.551"
	 xml:space="preserve">
<path fill="#010202" d="M738.968,132.644v-109h-84.64v177h52v85.777H533.238c-38.5,0-48.897-14-48.897-50
	c0-53.193,0-212.777,0-212.777h-76.103v295.092v5.098v295.09h76.103c0,0,0-159.583,0-212.778c0-36,10.397-50,48.897-50h173.091
	v30.498h-52v146h52v86.277l-60.689-41.723L455.181,848.133c0,0-46.942,60.355-46.942,123.396v158.268c0,0-1.79,37.109,32.635,37.109
	h15.202c0,0,26.825-1.34,26.825-37.555c0,0,0-101.221,0-134.062c0-43.812,12.074-67.062,38.897-107.363
	c50.729-76.219,188.224-266.465,188.224-266.465l-3.692-2.539h32.639V468.644h43.36v-336H738.968z"/>
</svg>
