<?xml version="1.0" encoding="utf-8"?>
<!-- Generator: Adobe Illustrator 16.0.0, SVG Export Plug-In . SVG Version: 6.00 Build 0)  -->
<!DOCTYPE svg PUBLIC "-//W3C//DTD SVG 1.1//EN" "http://www.w3.org/Graphics/SVG/1.1/DTD/svg11.dtd">
<svg version="1.1" id="Calque_1" xmlns="http://www.w3.org/2000/svg" xmlns:xlink="http://www.w3.org/1999/xlink" x="0px" y="0px"
	 width="1190.551px" height="1190.551px" viewBox="0 0 1190.551 1190.551" enable-background="new 0 0 1190.551 1190.551"
	 xml:space="preserve">
<path fill="#010202" d="M732.217,134.17c0,0,0,159.584,0,212.778c0,36-10.396,50-48.896,50H510.229V243.171h-43.36v-109h-84.64v177
	h52v186h-52v146h52v86.276h32.64V579.171h43.36V466.673l157.052-0.001L476.824,737.606c0,0-46.944,60.356-46.944,123.396v158.268
	c0,0-1.789,37.11,32.637,37.11h15.201c0,0,26.824-1.343,26.824-37.558c0,0,0-101.219,0-134.062
	c0-43.813,12.076-67.062,38.898-107.364c50.729-76.218,188.222-266.464,188.222-266.464l-64.379-44.262h16.037
	c38.5,0,48.896,14,48.896,50c0,53.193,0,212.776,0,212.776h76.105V434.359v-5.099V134.17H732.217z"/>
</svg>
