<?xml version="1.0" encoding="utf-8"?>
<!-- Generator: Adobe Illustrator 16.0.0, SVG Export Plug-In . SVG Version: 6.00 Build 0)  -->
<!DOCTYPE svg PUBLIC "-//W3C//DTD SVG 1.1//EN" "http://www.w3.org/Graphics/SVG/1.1/DTD/svg11.dtd">
<svg version="1.1" id="Calque_1" xmlns="http://www.w3.org/2000/svg" xmlns:xlink="http://www.w3.org/1999/xlink" x="0px" y="0px"
	 width="1190.551px" height="1190.551px" viewBox="0 0 1190.551 1190.551" enable-background="new 0 0 1190.551 1190.551"
	 xml:space="preserve">
<path fill="#010202" d="M674.8,864.406l158.125-70.402l-13.142-29.518l-2.075-4.659l-13.142-29.519L646.44,800.71l0.002,0.001
	c-35.172,15.661-50.366,7.101-65.009-25.788c-21.105-47.402-83.377-187.268-86.418-194.099l12.761,2.251
	c0,0,26.65,3.337,32.938-32.328c0,0,17.575-99.68,23.279-132.024c7.607-43.148,23.537-63.947,56.951-98.979
	c63.194-66.253,231.634-229.733,231.634-229.733l-55.715-54.768L562.252,268.989c0,0-56.711,51.288-67.657,113.369l-13.197,74.844
	l-48.75-17.744l63.615-174.782l48.864,17.785l49.936-137.195l-48.864-17.785l29.509-81.075l-30.672-11.163l-51.397,141.215
	l-40.745-14.83l-114.92,315.737l40.745,14.829l-37.28,102.427l79.536,28.949l4.394-12.073l120.024,269.577l2.072,4.656
	l120.023,269.577l69.522-30.952c0,0-64.908-145.787-86.545-194.385C635.823,897.084,639.628,880.065,674.8,864.406z
	 M481.275,457.892l-14.165,80.331c0,0-8.207,36.235,25.694,42.213l1.662,0.293l-69.097,30.764L481.275,457.892z"/>
</svg>
