<?xml version="1.0" encoding="utf-8"?>
<!-- Generator: Adobe Illustrator 16.0.0, SVG Export Plug-In . SVG Version: 6.00 Build 0)  -->
<!DOCTYPE svg PUBLIC "-//W3C//DTD SVG 1.1//EN" "http://www.w3.org/Graphics/SVG/1.1/DTD/svg11.dtd">
<svg version="1.1" id="Calque_1" xmlns="http://www.w3.org/2000/svg" xmlns:xlink="http://www.w3.org/1999/xlink" x="0px" y="0px"
	 width="1190.551px" height="1190.551px" viewBox="0 0 1190.551 1190.551" enable-background="new 0 0 1190.551 1190.551"
	 xml:space="preserve">
<g>
	<path fill="#010202" d="M478.174,500.003c0-36,10.397-50,48.897-50h173.091v-32.311v-5.1V380.28H527.072
		c-38.5,0-48.897-14-48.897-50c0-53.193,0-212.777,0-212.777h-76.103v295.092v5.098v295.09h76.103
		C478.174,712.782,478.174,553.198,478.174,500.003z"/>
	<path fill="#010202" d="M449.015,754.275c0,0-46.942,60.354-46.942,123.396v158.269c0,0-1.79,37.108,32.635,37.108h15.202
		c0,0,26.825-1.341,26.825-37.556c0,0,0-101.219,0-134.062c0-43.813,12.074-67.062,38.897-107.363
		c50.729-76.218,188.223-266.464,188.223-266.464l-64.383-44.263L449.015,754.275z"/>
	<polygon fill="#010202" points="788.494,670.986 788.494,524.987 736.494,524.987 736.494,438.708 703.855,438.708 
		703.855,527.602 703.855,588.987 660.494,588.987 660.494,924.986 703.855,924.986 703.855,1033.986 788.494,1033.986 
		788.494,856.986 736.494,856.986 736.494,670.986 	"/>
</g>
</svg>
