<?xml version="1.0" encoding="utf-8"?>
<!-- Generator: Adobe Illustrator 16.0.0, SVG Export Plug-In . SVG Version: 6.00 Build 0)  -->
<!DOCTYPE svg PUBLIC "-//W3C//DTD SVG 1.1//EN" "http://www.w3.org/Graphics/SVG/1.1/DTD/svg11.dtd">
<svg version="1.1" id="Calque_1" xmlns="http://www.w3.org/2000/svg" xmlns:xlink="http://www.w3.org/1999/xlink" x="0px" y="0px"
	 width="1190.551px" height="1190.551px" viewBox="0 0 1190.551 1190.551" enable-background="new 0 0 1190.551 1190.551"
	 xml:space="preserve">
<g>
	<path fill="#010202" d="M382.501,76.103c53.193,0,212.777,0,212.777,0V0H300.188h-5.099H-0.001v76.103c0,0,159.584,0,212.778,0
		c36,0,50,10.397,50,48.897v173.091H109v43.36H0v84.64h44.262H177v-52h186v52h146v-52h86.277v-32.64H445v-43.36H332.502L332.501,125
		C332.501,86.5,346.501,76.103,382.501,76.103z"/>
	<path fill="#010202" d="M270.935,680.93c0,0,60.355,46.942,123.396,46.942h158.268c0,0,37.11,1.79,37.11-32.635v-15.202
		c0,0-1.343-26.823-37.558-26.823c0,0-101.218,0-134.062,0c-43.813,0-67.062-12.076-107.363-38.899
		C234.508,563.584,44.262,426.091,44.262,426.091l-44.263,64.382L270.935,680.93z"/>
</g>
</svg>
