<?xml version="1.0" encoding="utf-8"?>
<!-- Generator: Adobe Illustrator 16.0.0, SVG Export Plug-In . SVG Version: 6.00 Build 0)  -->
<!DOCTYPE svg PUBLIC "-//W3C//DTD SVG 1.1//EN" "http://www.w3.org/Graphics/SVG/1.1/DTD/svg11.dtd">
<svg version="1.1" id="Calque_1" xmlns="http://www.w3.org/2000/svg" xmlns:xlink="http://www.w3.org/1999/xlink" x="0px" y="0px"
	 width="1190.551px" height="1190.551px" viewBox="0 0 1190.551 1190.551" enable-background="new 0 0 1190.551 1190.551"
	 xml:space="preserve">
<g>
	<path fill="#010202" d="M487.51,302.003c36.179,13.168,41.16,29.88,28.849,63.709c-18.193,49.986-72.773,199.945-72.773,199.945
		l71.513,26.029l100.927-277.295l1.744-4.792L718.694,32.306L647.182,6.277c0,0-54.581,149.96-72.775,199.947
		c-12.313,33.828-26.872,43.428-63.051,30.26l-162.652-59.201l-11.051,30.362l-1.744,4.792l-11.052,30.364L487.51,302.003
		L487.51,302.003z"/>
	<polygon fill="#010202" points="741.108,805.224 765.354,769.276 486.799,581.387 462.552,617.333 372.187,556.382 
		324.857,626.552 471.597,725.528 500.675,682.418 654.875,786.43 625.797,829.539 746.836,911.182 775.914,868.071 
		847.442,916.317 865.694,889.259 	"/>
	<path fill="#010202" d="M735.979,1112.275c0,0-89.373-47.52-118.371-62.938c-38.686-20.568-53.543-42.147-76.535-84.752
		C497.591,884.015,394.164,673.3,394.164,673.3l-69.307,36.065l149.806,295.36c0,0,31.253,69.783,86.915,99.38l139.743,74.303
		c0,0,31.926,19.002,48.088-11.394l7.135-13.423C756.543,1153.593,767.953,1129.276,735.979,1112.275z"/>
</g>
</svg>
