<?xml version="1.0" encoding="utf-8"?>
<!-- Generator: Adobe Illustrator 16.0.0, SVG Export Plug-In . SVG Version: 6.00 Build 0)  -->
<!DOCTYPE svg PUBLIC "-//W3C//DTD SVG 1.1//EN" "http://www.w3.org/Graphics/SVG/1.1/DTD/svg11.dtd">
<svg version="1.1" id="Calque_1" xmlns="http://www.w3.org/2000/svg" xmlns:xlink="http://www.w3.org/1999/xlink" x="0px" y="0px"
	 width="1190.551px" height="1190.551px" viewBox="0 0 1190.551 1190.551" enable-background="new 0 0 1190.551 1190.551"
	 xml:space="preserve">
<g>
	<path fill="#010202" d="M162.654,295.725c36.178,13.168,41.16,29.88,28.848,63.709c-18.193,49.986-72.773,199.945-72.773,199.945
		l71.512,26.029l100.928-277.295l1.743-4.792L393.837,26.028L322.325-0.001c0,0-54.581,149.96-72.775,199.947
		c-12.313,33.828-26.872,43.428-63.051,30.26L23.847,171.005l-11.051,30.362l-1.744,4.792L0,236.523L162.654,295.725
		L162.654,295.725z"/>
	<polygon fill="#010202" points="416.251,798.945 440.497,762.998 161.942,575.109 137.696,611.055 47.33,550.104 0,620.273 
		146.74,719.25 175.818,676.14 330.018,780.151 300.94,823.261 421.98,904.903 451.057,861.793 522.585,910.039 540.837,882.98 	"/>
	<path fill="#010202" d="M411.121,1105.997c0,0-89.372-47.519-118.37-62.938c-38.686-20.569-53.544-42.148-76.535-84.752
		C172.734,877.736,69.307,667.022,69.307,667.022L0,703.087l149.806,295.36c0,0,31.253,69.783,86.915,99.38l139.742,74.303
		c0,0,31.926,19.002,48.088-11.394l7.136-13.422C431.687,1147.315,443.096,1122.998,411.121,1105.997z"/>
</g>
</svg>
