<?xml version="1.0" encoding="utf-8"?>
<!-- Generator: Adobe Illustrator 16.0.0, SVG Export Plug-In . SVG Version: 6.00 Build 0)  -->
<!DOCTYPE svg PUBLIC "-//W3C//DTD SVG 1.1//EN" "http://www.w3.org/Graphics/SVG/1.1/DTD/svg11.dtd">
<svg version="1.1" id="Calque_1" xmlns="http://www.w3.org/2000/svg" xmlns:xlink="http://www.w3.org/1999/xlink" x="0px" y="0px"
	 width="1190.551px" height="1190.551px" viewBox="0 0 1190.551 1190.551" enable-background="new 0 0 1190.551 1190.551"
	 xml:space="preserve">
<g>
	<path fill="#010202" d="M680.139,307.435c53.191,0,212.775,0,212.775,0v-76.103h-295.09h-5.098h-295.09v76.103
		c0,0,159.584,0,212.777,0c36,0,50,10.397,50,48.897v173.091H406.637v43.36h-109v84.639h44.262h132.738v-52h186v52h146v-52h86.277
		v-32.639H742.637v-43.36H630.139V356.332C630.139,317.832,644.139,307.435,680.139,307.435z"/>
	<path fill="#010202" d="M568.572,912.261c0,0,60.356,46.942,123.397,46.942h158.268c0,0,37.109,1.79,37.109-32.635v-15.202
		c0,0-1.344-26.823-37.559-26.823c0,0-101.217,0-134.061,0c-43.814,0-67.062-12.076-107.363-38.899
		c-76.218-50.729-266.464-188.222-266.464-188.222l-44.263,64.383L568.572,912.261z"/>
</g>
</svg>
