<?xml version="1.0" encoding="utf-8"?>
<!-- Generator: Adobe Illustrator 16.0.0, SVG Export Plug-In . SVG Version: 6.00 Build 0)  -->
<!DOCTYPE svg PUBLIC "-//W3C//DTD SVG 1.1//EN" "http://www.w3.org/Graphics/SVG/1.1/DTD/svg11.dtd">
<svg version="1.1" id="Calque_1" xmlns="http://www.w3.org/2000/svg" xmlns:xlink="http://www.w3.org/1999/xlink" x="0px" y="0px"
	 width="1190.551px" height="1190.551px" viewBox="0 0 1190.551 1190.551" enable-background="new 0 0 1190.551 1190.551"
	 xml:space="preserve">
<g>
	<path fill="#010202" d="M52,595.278h32.64V445H128V332.502l173.091-0.001c38.5,0,48.897,14,48.897,50c0,53.193,0,212.777,0,212.777
		h76.104V300.188v-5.099V-0.001h-76.104c0,0,0,159.584,0,212.778c0,36-10.397,50-48.897,50H128V109H84.64V0H0v177h52v186H0v146h52
		V595.278z"/>
	<path fill="#010202" d="M552.152,816.847c0,0-101.218,0-134.062,0c-43.813,0-67.062-12.076-107.363-38.899
		C234.508,727.22,44.262,589.726,44.262,589.726l-44.263,64.381l270.936,190.458c0,0,60.355,46.944,123.396,46.944h158.268
		c0,0,37.11,1.79,37.11-32.637v-15.2C589.709,843.672,588.366,816.847,552.152,816.847z"/>
</g>
</svg>
