<?xml version="1.0" encoding="utf-8"?>
<!-- Generator: Adobe Illustrator 16.0.0, SVG Export Plug-In . SVG Version: 6.00 Build 0)  -->
<!DOCTYPE svg PUBLIC "-//W3C//DTD SVG 1.1//EN" "http://www.w3.org/Graphics/SVG/1.1/DTD/svg11.dtd">
<svg version="1.1" id="Calque_1" xmlns="http://www.w3.org/2000/svg" xmlns:xlink="http://www.w3.org/1999/xlink" x="0px" y="0px"
	 width="1190.551px" height="1190.551px" viewBox="0 0 1190.551 1190.551" enable-background="new 0 0 1190.551 1190.551"
	 xml:space="preserve">
<g>
	<path fill="#010202" d="M221.989,382.501c0,53.193,0,212.777,0,212.777h76.103V486.278h43.36v109h84.641v-177h-52.001v-186h52.001
		v-146h-52.001V0h-32.64v150.277h-43.36V-0.001H221.99c0,0,0,159.584,0,212.778c0,36-10.397,50-48.898,50H0v32.312v5.101v32.312
		l173.091-0.001C211.591,332.501,221.989,346.501,221.989,382.501z"/>
	<path fill="#010202" d="M552.152,696.86c0,0-101.218,0-134.062,0c-43.813,0-67.062-12.076-107.363-38.899
		C234.508,607.233,44.262,469.739,44.262,469.739l-44.263,64.381l270.936,190.458c0,0,60.355,46.944,123.396,46.944h158.268
		c0,0,37.11,1.79,37.11-32.637v-15.2C589.709,723.685,588.366,696.86,552.152,696.86z"/>
</g>
</svg>
