<?xml version="1.0" encoding="utf-8"?>
<!-- Generator: Adobe Illustrator 16.0.0, SVG Export Plug-In . SVG Version: 6.00 Build 0)  -->
<!DOCTYPE svg PUBLIC "-//W3C//DTD SVG 1.1//EN" "http://www.w3.org/Graphics/SVG/1.1/DTD/svg11.dtd">
<svg version="1.1" id="Calque_1" xmlns="http://www.w3.org/2000/svg" xmlns:xlink="http://www.w3.org/1999/xlink" x="0px" y="0px"
	 width="1190.551px" height="1190.551px" viewBox="0 0 1190.551 1190.551" enable-background="new 0 0 1190.551 1190.551"
	 xml:space="preserve">
<g>
	<polygon fill="#010202" points="211.094,520.678 436.085,520.678 436.085,370.481 595.279,370.481 595.279,143.991 373.25,143.991 
		373.087,0 137.598,0 137.598,136.492 0,136.492 0,368.981 211.094,368.981 	"/>
	<path fill="#010202" d="M628.255,929.136c0,0-101.22,0-134.062,0c-43.812,0-67.062-12.076-107.363-38.899
		c-76.22-50.728-266.466-188.221-266.466-188.221l-44.261,64.38c0-5.576,0-10.598,0-14.914c0-36,10.397-50,48.897-50h173.09V669.17
		v-5.101v-32.312H125v0.003c-38.5,0-48.897-14-48.897-50c0-53.195,0-212.779,0-212.779H0v295.091v5.099v295.09h76.103
		c0,0,0-134.728,0-197.863l270.935,190.456c0,0,60.355,46.944,123.396,46.944H628.7c0,0,37.11,1.788,37.11-32.637v-15.202
		C665.811,955.959,664.47,929.136,628.255,929.136z"/>
</g>
</svg>
