<?xml version="1.0" encoding="utf-8"?>
<!-- Generator: Adobe Illustrator 16.0.0, SVG Export Plug-In . SVG Version: 6.00 Build 0)  -->
<!DOCTYPE svg PUBLIC "-//W3C//DTD SVG 1.1//EN" "http://www.w3.org/Graphics/SVG/1.1/DTD/svg11.dtd">
<svg version="1.1" id="Calque_1" xmlns="http://www.w3.org/2000/svg" xmlns:xlink="http://www.w3.org/1999/xlink" x="0px" y="0px"
	 width="1190.551px" height="1190.551px" viewBox="0 0 1190.551 1190.551" enable-background="new 0 0 1190.551 1190.551"
	 xml:space="preserve">
<path fill="#010202" d="M373.25,625.925l-0.163-143.992H137.648c4.305-5.925,8.056-11.088,10.919-15.028
	c25.753-35.446,49.188-47.156,94.576-63.995c85.842-31.845,308.9-104.94,308.9-104.94l-26.07-73.649L212.638,331.561
	c0,0-36.46,10.542-70.964,34.606l141.792-103.018l4.124-2.996l238.733-173.45l-44.732-61.567c0,0-129.105,93.801-172.142,125.068
	c-29.124,21.16-46.562,20.978-69.192-10.17L138.518,0l-26.141,18.992l-4.126,2.998L82.111,40.983l101.738,140.033l0.002-0.002
	c22.63,31.146,17.415,47.789-11.708,68.949C129.106,281.23,0,375.032,0,375.032L44.732,436.6l90.267-65.583
	c-12.086,9.158-23.613,20.04-32.869,32.78L9.101,531.839c0,0-23.261,28.971,4.59,49.205l12.299,8.936
	c0,0,22.49,14.682,43.776-14.616c0,0,43.096-59.317,67.832-93.362v136.424H0v232.488h211.094v151.697h224.991V852.413h159.193
	V625.925H373.25z"/>
</svg>
