<?xml version="1.0" encoding="utf-8"?>
<!-- Generator: Adobe Illustrator 16.0.0, SVG Export Plug-In . SVG Version: 6.00 Build 0)  -->
<!DOCTYPE svg PUBLIC "-//W3C//DTD SVG 1.1//EN" "http://www.w3.org/Graphics/SVG/1.1/DTD/svg11.dtd">
<svg version="1.1" id="Calque_1" xmlns="http://www.w3.org/2000/svg" xmlns:xlink="http://www.w3.org/1999/xlink" x="0px" y="0px"
	 width="1190.551px" height="1190.551px" viewBox="0 0 1190.551 1190.551" enable-background="new 0 0 1190.551 1190.551"
	 xml:space="preserve">
<g>
	<path fill="#010202" d="M892.915,372.512v-226.49H670.887L670.724,2.031H435.235v136.492H297.637v232.488h211.094v151.697H297.636
		v76.103c0,0,159.584,0,212.777,0c36,0,50,10.396,50,48.896v173.09h32.312h5.101h32.312v-173.09h-0.002c0-38.5,14-48.896,50-48.896
		c22.794,0,65.123,0,106.062,0c54.597,0,106.717,0,106.717,0v-76.103H733.722V372.512H892.915z"/>
	<path fill="#010202" d="M548.797,993.143v158.27c0,0-1.789,37.107,32.636,37.107h15.202c0,0,26.823-1.34,26.823-37.557
		c0,0,0-101.217,0-134.061c0-43.812,12.076-67.062,38.898-107.363c50.729-76.221,188.223-266.467,188.223-266.467l-64.382-44.262
		L595.741,869.746C595.741,869.746,548.797,930.102,548.797,993.143z"/>
</g>
</svg>
