<?xml version="1.0" encoding="utf-8"?>
<!-- Generator: Adobe Illustrator 16.0.0, SVG Export Plug-In . SVG Version: 6.00 Build 0)  -->
<!DOCTYPE svg PUBLIC "-//W3C//DTD SVG 1.1//EN" "http://www.w3.org/Graphics/SVG/1.1/DTD/svg11.dtd">
<svg version="1.1" id="Calque_1" xmlns="http://www.w3.org/2000/svg" xmlns:xlink="http://www.w3.org/1999/xlink" x="0px" y="0px"
	 width="1190.551px" height="1190.551px" viewBox="0 0 1190.551 1190.551" enable-background="new 0 0 1190.551 1190.551"
	 xml:space="preserve">
<g>
	<path fill="#010202" d="M595.279,370.481V143.991H373.25L373.087,0H137.598v136.492H0v232.488h211.094v151.697H-0.001v76.102
		c0,0,159.584,0,212.778,0c36,0,50,10.398,50,48.898v173.09h32.312h5.101h32.312v-173.09H332.5c0-38.5,14-48.898,50-48.898
		c22.794,0,65.124,0,106.062,0c54.597,0,106.717,0,106.717,0v-76.102H436.085V370.481H595.279z"/>
	<path fill="#010202" d="M251.16,991.112v158.269c0,0-1.789,37.108,32.636,37.108h15.202c0,0,26.824-1.341,26.824-37.556
		c0,0,0-101.218,0-134.062c0-43.812,12.076-67.062,38.898-107.362c50.729-76.221,188.223-266.467,188.223-266.467l-64.382-44.262
		L298.105,867.716C298.105,867.716,251.16,928.071,251.16,991.112z"/>
</g>
</svg>
