<?xml version="1.0" encoding="utf-8"?>
<!-- Generator: Adobe Illustrator 16.0.0, SVG Export Plug-In . SVG Version: 6.00 Build 0)  -->
<!DOCTYPE svg PUBLIC "-//W3C//DTD SVG 1.1//EN" "http://www.w3.org/Graphics/SVG/1.1/DTD/svg11.dtd">
<svg version="1.1" id="Calque_1" xmlns="http://www.w3.org/2000/svg" xmlns:xlink="http://www.w3.org/1999/xlink" x="0px" y="0px"
	 width="1190.551px" height="1190.551px" viewBox="0 0 1190.551 1190.551" enable-background="new 0 0 1190.551 1190.551"
	 xml:space="preserve">
<path fill="#010202" d="M854.707,637.912c0,0-74.921-140.904-99.895-187.874c-16.9-31.786-14.294-49.028,19.7-67.104l152.83-81.26
	l-15.171-28.529l-2.394-4.503l-15.169-28.528l-152.83,81.261l0.002,0.001c-33.992,18.074-49.747,10.595-66.646-21.191
	c-24.974-46.97-99.894-187.875-99.894-187.875l-67.194,35.729l65.988,124.107c-7.391-13.257-16.569-26.201-27.908-37.151
	l-113.85-109.941c0,0-25.451-27.066-49.364-2.303l-10.561,10.935c0,0-17.669,20.229,8.382,45.386c0,0,72.811,70.312,96.437,93.126
	c31.518,30.438,39.853,55.273,50.21,102.563c5.641,25.754,13.085,63.252,20.825,103.594l-140.763,4.916l7.367,210.965
	l-151.604,5.295l7.852,224.853l150.104-5.24l5.558,159.097l226.351-7.903l-7.749-221.894l143.899-5.188l-6.221-178.098l4.512,8.483
	L854.707,637.912z M651.925,612.416l-8.968-46.593l-3.165-90.666l-14.189,0.496l-23.321-121.17c0,0-5.373-37.618-24.429-75.157
	l68.731,129.265l2.393,4.501l104.104,195.792L651.925,612.416z"/>
</svg>
