<?xml version="1.0" encoding="utf-8"?>
<!-- Generator: Adobe Illustrator 16.0.0, SVG Export Plug-In . SVG Version: 6.00 Build 0)  -->
<!DOCTYPE svg PUBLIC "-//W3C//DTD SVG 1.1//EN" "http://www.w3.org/Graphics/SVG/1.1/DTD/svg11.dtd">
<svg version="1.1" id="Calque_1" xmlns="http://www.w3.org/2000/svg" xmlns:xlink="http://www.w3.org/1999/xlink" x="0px" y="0px"
	 width="1190.551px" height="1190.551px" viewBox="0 0 1190.551 1190.551" enable-background="new 0 0 1190.551 1190.551"
	 xml:space="preserve">
<g>
	<polygon fill="#010202" points="705.417,227.99 705.417,68.795 478.929,68.795 478.929,290.824 334.937,290.987 334.937,526.476 
		471.43,526.476 471.43,664.074 703.917,664.074 703.917,452.98 855.615,452.98 855.615,227.99 	"/>
	<path fill="#010202" d="M633.027,826.665v-5.101v-32.312h-173.09v0.001c-38.5,0-48.897-14-48.897-49.999
		c0-53.194,0-212.778,0-212.778h-76.103v295.091v5.098v295.09h76.103c0,0,0-159.584,0-212.777c0-36,10.397-50,48.897-50h173.09
		V826.665z"/>
	<path fill="#010202" d="M803.671,452.981h-15.202c0,0-26.825,1.341-26.825,37.557c0,0,0,101.218,0,134.062
		c0,43.812-12.075,67.062-38.897,107.364c-50.729,76.218-188.223,266.465-188.223,266.465l64.381,44.263l190.457-270.937
		c0,0,46.943-60.356,46.943-123.396V490.09C836.305,490.09,838.095,452.981,803.671,452.981z"/>
</g>
</svg>
