<?xml version="1.0" encoding="utf-8"?>
<!-- Generator: Adobe Illustrator 16.0.0, SVG Export Plug-In . SVG Version: 6.00 Build 0)  -->
<!DOCTYPE svg PUBLIC "-//W3C//DTD SVG 1.1//EN" "http://www.w3.org/Graphics/SVG/1.1/DTD/svg11.dtd">
<svg version="1.1" id="Calque_1" xmlns="http://www.w3.org/2000/svg" xmlns:xlink="http://www.w3.org/1999/xlink" x="0px" y="0px"
	 width="1190.551px" height="1190.551px" viewBox="0 0 1190.551 1190.551" enable-background="new 0 0 1190.551 1190.551"
	 xml:space="preserve">
<path fill="#010202" d="M901.297,695.123V468.635H679.27l-0.148-132.147c47.662-30.277,84.16-53.212,84.16-53.212l-43.113-65.158
	L555.47,324.643H443.617v72.345l-1.531,0.991c0,0-41.502,24.088-70.493,63.157h-65.573v148.303l-12.973,32.108
	c0,0-14.409,31.253,12.973,45.096v6.98h16.855l0.624,0.252c0,0,7.216,2.502,16.009-0.252h169.466l8.14,32.647v113.312
	c-5.74,2.98-12.851,5.402-21.398,7.533c-51.615,12.869-206.46,51.477-206.46,51.477l18.411,73.842l286.325-71.391l4.947-1.232
	l286.324-71.389L866.85,754.58c0,0-64.953,16.195-124.748,31.104v-90.562H901.297z"/>
</svg>
