<?xml version="1.0" encoding="utf-8"?>
<!-- Generator: Adobe Illustrator 16.0.0, SVG Export Plug-In . SVG Version: 6.00 Build 0)  -->
<!DOCTYPE svg PUBLIC "-//W3C//DTD SVG 1.1//EN" "http://www.w3.org/Graphics/SVG/1.1/DTD/svg11.dtd">
<svg version="1.1" id="Calque_1" xmlns="http://www.w3.org/2000/svg" xmlns:xlink="http://www.w3.org/1999/xlink" x="0px" y="0px"
	 width="1190.551px" height="1190.551px" viewBox="0 0 1190.551 1190.551" enable-background="new 0 0 1190.551 1190.551"
	 xml:space="preserve">
<g>
	<polygon fill="#010202" points="473.465,614.046 698.455,614.046 698.455,463.85 857.649,463.85 857.649,237.36 635.621,237.36 
		635.457,93.369 399.969,93.369 399.969,229.861 262.371,229.861 262.371,462.35 473.465,462.35 	"/>
	<path fill="#010202" d="M890.625,1022.504c0,0-101.221,0-134.062,0c-43.811,0-67.061-12.076-107.361-38.898
		c-76.221-50.729-266.467-188.222-266.467-188.222l-44.261,64.381c0-5.576,0-10.599,0-14.914c0-36,10.397-50,48.897-50h173.09
		v-32.312v-5.101v-32.312h-173.09v0.003c-38.5,0-48.897-14-48.897-50c0-53.194,0-212.778,0-212.778h-76.103V757.44v5.099v295.09
		h76.103c0,0,0-134.728,0-197.862l270.935,190.455c0,0,60.355,46.944,123.396,46.944h158.266c0,0,37.109,1.788,37.109-32.637
		v-15.202C928.182,1049.327,926.84,1022.504,890.625,1022.504z"/>
</g>
</svg>
