<?xml version="1.0" encoding="utf-8"?>
<!-- Generator: Adobe Illustrator 16.0.0, SVG Export Plug-In . SVG Version: 6.00 Build 0)  -->
<!DOCTYPE svg PUBLIC "-//W3C//DTD SVG 1.1//EN" "http://www.w3.org/Graphics/SVG/1.1/DTD/svg11.dtd">
<svg version="1.1" id="Calque_1" xmlns="http://www.w3.org/2000/svg" xmlns:xlink="http://www.w3.org/1999/xlink" x="0px" y="0px"
	 width="1190.551px" height="1190.551px" viewBox="0 0 1190.551 1190.551" enable-background="new 0 0 1190.551 1190.551"
	 xml:space="preserve">
<path fill="#010202" d="M648.737,152.957h-15.202c0,0-26.825,1.341-26.825,37.557c0,0,0,101.218,0,134.062
	c0,43.813-12.076,67.062-38.899,107.363c-50.729,76.219-188.222,266.464-188.222,266.464l64.379,44.261c-24.777,0-47.037,0-61.466,0
	c-36,0-50-10.396-50-48.896v-173.09h125.18V384.185h137.598V151.697H384.185V0h-224.99v150.196H0v226.489h222.028l0.163,143.992
	h40.585v173.09h0.002c0,38.5-14,48.896-50,48.896c-53.194,0-212.778,0-212.778,0v76.104h295.091h5.099h295.09v-76.104
	c0,0-84.746,0-151.31,0l190.458-270.934c0,0,46.944-60.355,46.944-123.396V190.067C681.371,190.067,683.161,152.957,648.737,152.957
	z"/>
</svg>
