<?xml version="1.0" encoding="utf-8"?>
<!-- Generator: Adobe Illustrator 16.0.0, SVG Export Plug-In . SVG Version: 6.00 Build 0)  -->
<!DOCTYPE svg PUBLIC "-//W3C//DTD SVG 1.1//EN" "http://www.w3.org/Graphics/SVG/1.1/DTD/svg11.dtd">
<svg version="1.1" id="Calque_1" xmlns="http://www.w3.org/2000/svg" xmlns:xlink="http://www.w3.org/1999/xlink" x="0px" y="0px"
	 width="1190.551px" height="1190.551px" viewBox="0 0 1190.551 1190.551" enable-background="new 0 0 1190.551 1190.551"
	 xml:space="preserve">
<g>
	<path fill="#010202" d="M335.193,97.049c0,0,101.218,0,134.062,0c43.812,0,67.062,12.075,107.362,38.898
		c76.22,50.729,266.464,188.222,266.464,188.222l44.264-64.381L616.41,69.331c0,0-60.355-46.943-123.396-46.943H334.746
		c0-0.001-37.109-1.791-37.109,32.635v15.201C297.636,70.224,298.977,97.049,335.193,97.049z"/>
	<path fill="#010202" d="M892.914,346.413H670.887l-0.164-143.992H435.234v136.493H297.636v232.488H508.73v151.695h224.991
		c0,25.225,0,47.936,0,62.581c0,36-10.398,50-48.898,50h-173.09v32.312v5.101v32.312h173.09v-0.001c38.5,0,48.898,14,48.898,50
		c0,53.193,0,212.777,0,212.777h76.102v-295.09v-5.099V572.901h83.092V346.413z"/>
</g>
</svg>
