<?xml version="1.0" encoding="utf-8"?>
<!-- Generator: Adobe Illustrator 16.0.0, SVG Export Plug-In . SVG Version: 6.00 Build 0)  -->
<!DOCTYPE svg PUBLIC "-//W3C//DTD SVG 1.1//EN" "http://www.w3.org/Graphics/SVG/1.1/DTD/svg11.dtd">
<svg version="1.1" id="Calque_1" xmlns="http://www.w3.org/2000/svg" xmlns:xlink="http://www.w3.org/1999/xlink" x="0px" y="0px"
	 width="1190.551px" height="1190.551px" viewBox="0 0 1190.551 1190.551" enable-background="new 0 0 1190.551 1190.551"
	 xml:space="preserve">
<path fill="#010202" d="M591.365,525.6c0,0-74.921-140.903-99.895-187.873c-16.9-31.786-14.294-49.028,19.7-67.104L664,189.363
	l-15.17-28.529l-2.394-4.503l-15.169-28.528l-152.83,81.261l0.002,0.001c-33.992,18.074-49.747,10.595-66.646-21.191
	C386.82,140.904,311.9-0.001,311.9-0.001l-67.195,35.729l65.989,124.107c-7.391-13.257-16.57-26.201-27.909-37.151L168.936,12.743
	c0,0-25.451-27.066-49.364-2.303l-10.561,10.935c0,0-17.669,20.229,8.382,45.386c0,0,72.81,70.312,96.436,93.126
	c31.518,30.437,39.853,55.273,50.21,102.563c5.641,25.754,13.085,63.252,20.826,103.594l-140.763,4.916l7.367,210.965L-0.135,587.22
	l7.852,224.852l150.105-5.24l5.557,159.097l226.351-7.904l-7.749-221.893l143.899-5.189l-6.22-178.097l4.511,8.483L591.365,525.6z
	 M388.582,500.104l-8.967-46.592l-3.166-90.666l-14.189,0.496l-23.321-121.17c0,0-5.373-37.618-24.429-75.157l68.731,129.265
	l2.393,4.501l104.105,195.792L388.582,500.104z"/>
</svg>
