<?xml version="1.0" encoding="utf-8"?>
<!-- Generator: Adobe Illustrator 16.0.0, SVG Export Plug-In . SVG Version: 6.00 Build 0)  -->
<!DOCTYPE svg PUBLIC "-//W3C//DTD SVG 1.1//EN" "http://www.w3.org/Graphics/SVG/1.1/DTD/svg11.dtd">
<svg version="1.1" id="Calque_1" xmlns="http://www.w3.org/2000/svg" xmlns:xlink="http://www.w3.org/1999/xlink" x="0px" y="0px"
	 width="1190.551px" height="1190.551px" viewBox="0 0 1190.551 1190.551" enable-background="new 0 0 1190.551 1190.551"
	 xml:space="preserve">
<path fill="#010202" d="M825.802,373.093l5.123-73.251l59.726-57.676L729.15,74.927L577.302,221.566L471.924,112.444L310.08,268.735
	l104.337,108.043L299.901,487.364l157.332,162.923l3.127-3.021l43.533,226.187c0,0,10.806,75.693,56.151,119.486l113.85,109.942
	c0,0,25.45,27.066,49.363,2.303l10.56-10.936c0,0,17.671-20.229-8.381-45.386c0,0-72.81-70.312-96.436-93.127
	c-31.518-30.437-39.853-55.273-50.21-102.562c-13.839-63.19-38.536-197.072-51.84-270.213l47.945-46.299l87.264,6.102l54.931,56.754
	l16.965-16.383c0.217,4.466,0.116,9.369-0.261,14.759c-3.711,53.065-14.843,212.261-14.843,212.261l75.916,5.31l20.585-294.372
	l0.354-5.085l0.887-12.675l69.791-67.398L825.802,373.093z"/>
</svg>
