<?xml version="1.0" encoding="utf-8"?>
<!-- Generator: Adobe Illustrator 16.0.0, SVG Export Plug-In . SVG Version: 6.00 Build 0)  -->
<!DOCTYPE svg PUBLIC "-//W3C//DTD SVG 1.1//EN" "http://www.w3.org/Graphics/SVG/1.1/DTD/svg11.dtd">
<svg version="1.1" id="Calque_1" xmlns="http://www.w3.org/2000/svg" xmlns:xlink="http://www.w3.org/1999/xlink" x="0px" y="0px"
	 width="1190.551px" height="1190.551px" viewBox="0 0 1190.551 1190.551" enable-background="new 0 0 1190.551 1190.551"
	 xml:space="preserve">
<path fill="#010202" d="M528.9,298.166l5.123-73.251l59.726-57.676L432.248,0L280.4,146.639L175.022,37.517L13.178,193.808
	l104.337,108.043L2.998,412.437L160.33,575.36l3.127-3.02l43.533,226.186c0,0,10.806,75.694,56.152,119.487l113.849,109.942
	c0,0,25.451,27.066,49.364,2.303l10.56-10.936c0,0,17.67-20.229-8.381-45.385c0,0-72.81-70.312-96.436-93.127
	c-31.518-30.437-39.853-55.274-50.21-102.563c-13.839-63.19-38.536-197.072-51.84-270.213l47.945-46.299l87.264,6.102l54.931,56.754
	l16.965-16.383c0.217,4.466,0.116,9.369-0.261,14.759c-3.711,53.065-14.843,212.261-14.843,212.261l75.916,5.309l20.585-294.372
	l0.355-5.085l0.886-12.675l69.792-67.398L528.9,298.166z"/>
</svg>
