<?xml version="1.0" encoding="utf-8"?>
<!-- Generator: Adobe Illustrator 16.0.0, SVG Export Plug-In . SVG Version: 6.00 Build 0)  -->
<!DOCTYPE svg PUBLIC "-//W3C//DTD SVG 1.1//EN" "http://www.w3.org/Graphics/SVG/1.1/DTD/svg11.dtd">
<svg version="1.1" id="Calque_1" xmlns="http://www.w3.org/2000/svg" xmlns:xlink="http://www.w3.org/1999/xlink" x="0px" y="0px"
	 width="1190.551px" height="1190.551px" viewBox="0 0 1190.551 1190.551" enable-background="new 0 0 1190.551 1190.551"
	 xml:space="preserve">
<path fill="#010202" d="M903.319,338.849h-15.202c0,0-26.825,1.341-26.825,37.557c0,0,0,101.218,0,134.062
	c0,43.813-12.075,67.062-38.898,107.363c-50.729,76.22-188.222,266.464-188.222,266.464l64.379,44.262c-24.777,0-47.037,0-61.466,0
	c-36,0-50-10.396-50-48.896V706.57h125.18V570.077h137.598V337.589H638.767V185.892h-224.99v150.196H254.582v226.489H476.61
	l0.163,143.991h40.585v173.09h0.002c0,38.5-14,48.896-50,48.896c-53.193,0-212.777,0-212.777,0v76.104h295.091h5.099h295.09v-76.104
	c0,0-84.746,0-151.31,0L889.01,657.621c0,0,46.943-60.355,46.943-123.396V375.959C935.952,375.959,937.742,338.849,903.319,338.849z
	"/>
</svg>
