<?xml version="1.0" encoding="utf-8"?>
<!-- Generator: Adobe Illustrator 16.0.0, SVG Export Plug-In . SVG Version: 6.00 Build 0)  -->
<!DOCTYPE svg PUBLIC "-//W3C//DTD SVG 1.1//EN" "http://www.w3.org/Graphics/SVG/1.1/DTD/svg11.dtd">
<svg version="1.1" id="Calque_1" xmlns="http://www.w3.org/2000/svg" xmlns:xlink="http://www.w3.org/1999/xlink" x="0px" y="0px"
	 width="1190.551px" height="1190.551px" viewBox="0 0 1190.551 1190.551" enable-background="new 0 0 1190.551 1190.551"
	 xml:space="preserve">
<path fill="#010202" d="M612.042,477.005V250.516H390.014l-0.149-132.147c47.663-30.277,84.161-53.212,84.161-53.212L430.913-0.001
	L266.215,106.524H154.362v72.345l-1.532,0.991c0,0-41.502,24.088-70.493,63.157H16.764V391.32L3.791,423.428
	c0,0-14.409,31.253,12.973,45.096v6.981h16.855l0.624,0.252c0,0,7.216,2.502,16.009-0.252h169.466l8.14,32.647v113.311
	c-5.741,2.981-12.851,5.402-21.399,7.533C154.844,641.865-0.001,680.474-0.001,680.474l18.411,73.84l286.326-71.389l4.946-1.233
	l286.324-71.389l-18.411-73.841c0,0-64.954,16.195-124.748,31.104v-90.561H612.042z"/>
</svg>
