<?xml version="1.0" encoding="utf-8"?>
<!-- Generator: Adobe Illustrator 16.0.0, SVG Export Plug-In . SVG Version: 6.00 Build 0)  -->
<!DOCTYPE svg PUBLIC "-//W3C//DTD SVG 1.1//EN" "http://www.w3.org/Graphics/SVG/1.1/DTD/svg11.dtd">
<svg version="1.1" id="Calque_1" xmlns="http://www.w3.org/2000/svg" xmlns:xlink="http://www.w3.org/1999/xlink" x="0px" y="0px"
	 width="1190.551px" height="1190.551px" viewBox="0 0 1190.551 1190.551" enable-background="new 0 0 1190.551 1190.551"
	 xml:space="preserve">
<g>
	<path fill="#010202" d="M37.557,74.662c0,0,101.218,0,134.062,0c43.813,0,67.063,12.075,107.363,38.898
		c76.219,50.729,266.464,188.222,266.464,188.222l44.263-64.381L318.774,46.944c0,0-60.355-46.943-123.396-46.943H37.11
		C37.11,0,0-1.79,0,32.636v15.201C0,47.837,1.341,74.662,37.557,74.662z"/>
	<path fill="#010202" d="M595.279,324.026H373.25l-0.163-143.992H137.598v136.493H0v232.488h211.094v151.696h224.99
		c0,25.225,0,47.936,0,62.581c0,36-10.398,50-48.898,50h-173.09v32.312v5.1v32.312h173.09v-0.001c38.5,0,48.898,14,48.898,50
		c0,53.193,0,212.777,0,212.777h76.102V850.702v-5.098v-295.09h83.093V324.026z"/>
</g>
</svg>
