<?xml version="1.0" encoding="utf-8"?>
<!-- Generator: Adobe Illustrator 16.0.0, SVG Export Plug-In . SVG Version: 6.00 Build 0)  -->
<!DOCTYPE svg PUBLIC "-//W3C//DTD SVG 1.1//EN" "http://www.w3.org/Graphics/SVG/1.1/DTD/svg11.dtd">
<svg version="1.1" id="Calque_1" xmlns="http://www.w3.org/2000/svg" xmlns:xlink="http://www.w3.org/1999/xlink" x="0px" y="0px"
	 width="1190.551px" height="1190.551px" viewBox="0 0 1190.551 1190.551" enable-background="new 0 0 1190.551 1190.551"
	 xml:space="preserve">
<g>
	<path fill="#010202" d="M311.948,16.706c0,0-70.958-28.488-131.556-11.112L28.254,49.218c0,0-36.165,8.509-26.678,41.6l4.19,14.613
		c0,0,8.684,25.416,43.496,15.435c0,0,97.297-27.899,128.868-36.953c42.117-12.076,67.794-6.877,113.928,7.798
		c87.249,27.756,308.023,107.483,308.023,107.483l24.802-74.087L311.948,16.706z"/>
	<polygon fill="#010202" points="191.044,111.387 167.835,332.2 24.615,317.312 0,551.51 135.745,565.778 121.363,702.622 
		352.576,726.924 374.643,516.987 525.509,532.843 549.027,309.085 399.653,293.385 416.292,135.063 	"/>
	<path fill="#010202" d="M389.548,796.137c51.614-12.869,206.459-51.478,206.459-51.478l-18.41-73.839l-286.325,71.389l-4.947,1.233
		L0,814.831l18.41,73.842c0,0,154.844-38.608,206.459-51.478c34.931-8.709,51.03-2.007,60.344,35.35l41.875,167.948l31.351-7.816
		l4.949-1.233l31.352-7.817l-41.874-167.948h-0.002C343.549,818.322,354.617,804.846,389.548,796.137z"/>
</g>
</svg>
