<?xml version="1.0" encoding="utf-8"?>
<!-- Generator: Adobe Illustrator 16.0.0, SVG Export Plug-In . SVG Version: 6.00 Build 0)  -->
<!DOCTYPE svg PUBLIC "-//W3C//DTD SVG 1.1//EN" "http://www.w3.org/Graphics/SVG/1.1/DTD/svg11.dtd">
<svg version="1.1" id="Calque_1" xmlns="http://www.w3.org/2000/svg" xmlns:xlink="http://www.w3.org/1999/xlink" x="0px" y="0px"
	 width="1190.551px" height="1190.551px" viewBox="0 0 1190.551 1190.551" enable-background="new 0 0 1190.551 1190.551"
	 xml:space="preserve">
<g>
	<polygon fill="#010202" points="370.481,159.195 370.481,0 143.992,0 143.992,222.029 0,222.192 0,457.681 136.493,457.681 
		136.493,595.279 368.981,595.279 368.981,384.185 520.678,384.185 520.678,159.195 	"/>
	<path fill="#010202" d="M298.09,757.87v-5.1v-32.312H125v0.001c-38.5,0-48.897-14-48.897-49.999c0-53.194,0-212.778,0-212.778H0
		v295.091v5.098v295.09h76.103c0,0,0-159.584,0-212.777c0-36,10.397-50,48.897-50h173.09V757.87z"/>
	<path fill="#010202" d="M468.735,384.186h-15.202c0,0-26.825,1.341-26.825,37.557c0,0,0,101.218,0,134.062
		c0,43.812-12.076,67.062-38.898,107.364c-50.729,76.218-188.223,266.465-188.223,266.465l64.381,44.262L454.425,702.96
		c0,0,46.944-60.356,46.944-123.396V421.295C501.369,421.295,503.159,384.186,468.735,384.186z"/>
</g>
</svg>
