<?xml version="1.0" encoding="utf-8"?>
<!-- Generator: Adobe Illustrator 16.0.0, SVG Export Plug-In . SVG Version: 6.00 Build 0)  -->
<!DOCTYPE svg PUBLIC "-//W3C//DTD SVG 1.1//EN" "http://www.w3.org/Graphics/SVG/1.1/DTD/svg11.dtd">
<svg version="1.1" id="Calque_1" xmlns="http://www.w3.org/2000/svg" xmlns:xlink="http://www.w3.org/1999/xlink" x="0px" y="0px"
	 width="1190.551px" height="1190.551px" viewBox="0 0 1190.551 1190.551" enable-background="new 0 0 1190.551 1190.551"
	 xml:space="preserve">
<path fill="#010202" d="M734.432,485.924c0,0-101.218,0-134.062,0c-43.812,0-67.062-12.075-107.362-38.898
	c-76.22-50.729-266.466-188.222-266.466-188.222l-44.263,64.381l115.36,81.094h-115.36v-81.094V198.279h210v112h203V0H0v595.278
	h159.194v150.197H0v226.49h222.028l0.163,143.99h235.489V979.465h137.598V746.976H384.184V595.279h-86.545v-191l155.576,109.364
	c0,0,60.354,46.943,123.396,46.943h158.269c0,0,37.108,1.79,37.108-32.635v-15.202C771.988,512.749,770.647,485.924,734.432,485.924
	z"/>
</svg>
