<?xml version="1.0" encoding="utf-8"?>
<!-- Generator: Adobe Illustrator 16.0.0, SVG Export Plug-In . SVG Version: 6.00 Build 0)  -->
<!DOCTYPE svg PUBLIC "-//W3C//DTD SVG 1.1//EN" "http://www.w3.org/Graphics/SVG/1.1/DTD/svg11.dtd">
<svg version="1.1" id="Calque_1" xmlns="http://www.w3.org/2000/svg" xmlns:xlink="http://www.w3.org/1999/xlink" x="0px" y="0px"
	 width="1190.551px" height="1190.551px" viewBox="0 0 1190.551 1190.551" enable-background="new 0 0 1190.551 1190.551"
	 xml:space="preserve">
<path fill="#010202" d="M943.713,523.222c0,0-101.217,0-134.062,0c-43.811,0-67.061-12.075-107.361-38.898
	c-76.219-50.729-266.465-188.222-266.465-188.222l-44.264,64.381l115.36,81.094H391.56v-81.094V235.577h210v112h203V37.298H209.282
	v595.278h159.193v150.196H209.282v226.49h222.027l0.163,143.99h235.489v-136.49h137.598V784.273H593.466V632.576h-86.545v-191
	l155.576,109.364c0,0,60.354,46.943,123.396,46.943h158.27c0,0,37.107,1.79,37.107-32.635v-15.202
	C981.27,550.047,979.928,523.222,943.713,523.222z"/>
</svg>
