<?xml version="1.0" encoding="utf-8"?>
<!-- Generator: Adobe Illustrator 16.0.0, SVG Export Plug-In . SVG Version: 6.00 Build 0)  -->
<!DOCTYPE svg PUBLIC "-//W3C//DTD SVG 1.1//EN" "http://www.w3.org/Graphics/SVG/1.1/DTD/svg11.dtd">
<svg version="1.1" id="Calque_1" xmlns="http://www.w3.org/2000/svg" xmlns:xlink="http://www.w3.org/1999/xlink" x="0px" y="0px"
	 width="1190.551px" height="1190.551px" viewBox="0 0 1190.551 1190.551" enable-background="new 0 0 1190.551 1190.551"
	 xml:space="preserve">
<g>
	<polygon fill="#010202" points="182.279,198.279 392.279,198.279 392.279,310.279 595.279,310.279 595.279,0 0,0 0,595.279 
		221.605,595.279 297.639,595.279 297.639,404.279 197.261,404.279 182.279,404.279 	"/>
	<polygon fill="#010202" points="111.32,844.121 0,924.999 136.654,1113.086 307.433,989.007 396.598,1111.733 578.617,979.488 
		490.334,857.976 619.125,764.403 485.998,581.17 306.373,711.675 221.605,595.279 31.09,733.696 	"/>
	<path fill="#010202" d="M794.703,223.318l-8.936-12.299c0,0-16.853-20.914-46.151,0.373c0,0-81.888,59.495-108.459,78.8
		c-35.446,25.754-61.354,29.648-109.724,31.638c-91.479,3.758-326.207,4.348-326.207,4.348l2.034,78.102l331.139-5.167
		c0,0,76.423,2.501,127.423-34.553l128.041-93.026C783.864,271.532,814.939,251.167,794.703,223.318z"/>
</g>
</svg>
