<?xml version="1.0" encoding="utf-8"?>
<!-- Generator: Adobe Illustrator 16.0.0, SVG Export Plug-In . SVG Version: 6.00 Build 0)  -->
<!DOCTYPE svg PUBLIC "-//W3C//DTD SVG 1.1//EN" "http://www.w3.org/Graphics/SVG/1.1/DTD/svg11.dtd">
<svg version="1.1" id="Calque_1" xmlns="http://www.w3.org/2000/svg" xmlns:xlink="http://www.w3.org/1999/xlink" x="0px" y="0px"
	 width="1190.551px" height="1190.551px" viewBox="0 0 1190.551 1190.551" enable-background="new 0 0 1190.551 1190.551"
	 xml:space="preserve">
<g>
	<polygon fill="#010202" points="845.206,532.445 695.012,532.445 695.012,373.25 468.522,373.25 468.522,404.279 353.161,404.279 
		353.161,198.279 563.161,198.279 563.161,310.279 766.161,310.279 766.161,0 170.883,0 170.883,595.279 468.522,595.279 
		324.53,595.442 324.53,830.932 461.023,830.932 461.023,968.529 693.512,968.529 693.512,757.434 845.206,757.434 	"/>
	<path fill="#010202" d="M955.287,600.842L764.83,871.777c0,0-46.943,60.355-46.943,123.395v158.268c0,0-1.79,37.111,32.635,37.111
		h15.202c0,0,26.825-1.342,26.825-37.559c0,0,0-101.219,0-134.062c0-43.812,12.075-67.062,38.896-107.363
		c50.729-76.219,188.223-266.465,188.223-266.465L955.287,600.842z"/>
</g>
</svg>
