<?xml version="1.0" encoding="utf-8"?>
<!-- Generator: Adobe Illustrator 16.0.0, SVG Export Plug-In . SVG Version: 6.00 Build 0)  -->
<!DOCTYPE svg PUBLIC "-//W3C//DTD SVG 1.1//EN" "http://www.w3.org/Graphics/SVG/1.1/DTD/svg11.dtd">
<svg version="1.1" id="Calque_1" xmlns="http://www.w3.org/2000/svg" xmlns:xlink="http://www.w3.org/1999/xlink" x="0px" y="0px"
	 width="1190.551px" height="1190.551px" viewBox="0 0 1190.551 1190.551" enable-background="new 0 0 1190.551 1190.551"
	 xml:space="preserve">
<path fill="#010202" d="M980.947,988.19l-331.139,5.167c0,0-63.81-2.083-113.728,25.83l32.496-18.761L457.561,808.142
	l124.619-72.137l-37.724-65.339l268.711-155.14L515.528-0.001L-0.001,297.639l148.819,257.763l82.287-47.507L76.089,597.393
	l105.548,182.813L50.264,856.055l112.494,194.846l130.074-75.097l79.598,137.865l159.771-92.242
	c-3.354,2.014-6.635,4.171-9.816,6.482l-128.04,93.026c0,0-31.075,20.364-10.841,48.215l8.936,12.299
	c0,0,16.854,20.913,46.151-0.373c0,0,81.888-59.495,108.459-78.8c35.446-25.754,61.354-29.649,109.724-31.638
	c91.479-3.757,326.207-4.348,326.207-4.348L980.947,988.19z M346.23,600.312l-68.8-119.163l36.801-21.247l-57.68-99.905l178.401-103
	l105,181.865l-96.995,56l90.885,157.42l-69.406-120.216L346.23,600.312z"/>
</svg>
