<?xml version="1.0" encoding="utf-8"?>
<!-- Generator: Adobe Illustrator 16.0.0, SVG Export Plug-In . SVG Version: 6.00 Build 0)  -->
<!DOCTYPE svg PUBLIC "-//W3C//DTD SVG 1.1//EN" "http://www.w3.org/Graphics/SVG/1.1/DTD/svg11.dtd">
<svg version="1.1" id="Calque_1" xmlns="http://www.w3.org/2000/svg" xmlns:xlink="http://www.w3.org/1999/xlink" x="0px" y="0px"
	 width="1190.551px" height="1190.551px" viewBox="0 0 1190.551 1190.551" enable-background="new 0 0 1190.551 1190.551"
	 xml:space="preserve">
<g>
	<polygon fill="#010202" points="782.243,579.672 782.243,420.478 555.753,420.478 555.753,451.506 440.393,451.506 
		440.393,245.506 650.393,245.506 650.393,357.506 853.393,357.506 853.393,47.228 258.115,47.228 258.115,642.506 555.753,642.506 
		411.761,642.669 411.761,878.158 548.254,878.158 548.254,1015.757 780.743,1015.757 780.743,804.661 932.438,804.661 
		932.438,579.672 	"/>
	<path fill="#010202" d="M810.266,1068.646c0,0-101.218,0-134.062,0c-43.814,0-67.063-12.076-107.364-38.896
		c-76.218-50.731-266.464-188.225-266.464-188.225l-44.263,64.381l270.936,190.458c0,0,60.355,46.944,123.396,46.944h158.268
		c0,0,37.11,1.79,37.11-32.635v-15.202C847.823,1095.471,846.48,1068.646,810.266,1068.646z"/>
</g>
</svg>
