<?xml version="1.0" encoding="utf-8"?>
<!-- Generator: Adobe Illustrator 16.0.0, SVG Export Plug-In . SVG Version: 6.00 Build 0)  -->
<!DOCTYPE svg PUBLIC "-//W3C//DTD SVG 1.1//EN" "http://www.w3.org/Graphics/SVG/1.1/DTD/svg11.dtd">
<svg version="1.1" id="Calque_1" xmlns="http://www.w3.org/2000/svg" xmlns:xlink="http://www.w3.org/1999/xlink" x="0px" y="0px"
	 width="1190.551px" height="1190.551px" viewBox="0 0 1190.551 1190.551" enable-background="new 0 0 1190.551 1190.551"
	 xml:space="preserve">
<g>
	<polygon fill="#010202" points="376.78,237.011 586.781,237.011 586.781,349.011 789.781,349.011 789.781,38.732 194.502,38.732 
		194.502,634.012 416.106,634.012 492.14,634.012 492.14,443.011 391.762,443.011 376.78,443.011 	"/>
	<polygon fill="#010202" points="305.821,882.854 194.502,963.731 331.155,1151.818 501.934,1027.739 591.1,1150.466 
		773.118,1018.221 684.836,896.708 813.627,803.136 680.499,619.902 500.875,750.407 416.106,634.012 225.592,772.429 	"/>
	<path fill="#010202" d="M989.204,262.05l-8.936-12.299c0,0-16.854-20.914-46.151,0.373c0,0-81.888,59.495-108.459,78.8
		c-35.445,25.754-61.354,29.648-109.724,31.638c-91.479,3.758-326.208,4.348-326.208,4.348l2.034,78.103l331.139-5.167
		c0,0,76.423,2.501,127.423-34.553l128.041-93.026C978.365,310.265,1009.441,289.899,989.204,262.05z"/>
</g>
</svg>
