<?xml version="1.0" encoding="utf-8"?>
<!-- Generator: Adobe Illustrator 16.0.0, SVG Export Plug-In . SVG Version: 6.00 Build 0)  -->
<!DOCTYPE svg PUBLIC "-//W3C//DTD SVG 1.1//EN" "http://www.w3.org/Graphics/SVG/1.1/DTD/svg11.dtd">
<svg version="1.1" id="Calque_1" xmlns="http://www.w3.org/2000/svg" xmlns:xlink="http://www.w3.org/1999/xlink" x="0px" y="0px"
	 width="1190.551px" height="1190.551px" viewBox="0 0 1190.551 1190.551" enable-background="new 0 0 1190.551 1190.551"
	 xml:space="preserve">
<path fill="#010202" d="M754.548,660.073c0,0-50.609-87.657-67.032-116.102c-21.907-37.943-23.073-64.116-19.995-112.429
	c5.824-91.372,29.774-324.877,29.774-324.877l-77.886-6.142l-29.476,329.866c0,0-6.189,44.775,5.274,90.287H436.084V370.481h159.194
	V143.992H373.25L373.087,0H137.598v136.493H0v232.487h211.095v151.697h86.545v191H413v206H203v-112H0v310.278h595.278V520.952
	c3.444,13.591,8.463,27.24,15.7,39.774l79.134,137.063c0,0,17.005,33.033,46.817,15.82l13.165-7.599
	C750.095,706.012,772.656,691.438,754.548,660.073z"/>
</svg>
