<?xml version="1.0" encoding="utf-8"?>
<!-- Generator: Adobe Illustrator 16.0.0, SVG Export Plug-In . SVG Version: 6.00 Build 0)  -->
<!DOCTYPE svg PUBLIC "-//W3C//DTD SVG 1.1//EN" "http://www.w3.org/Graphics/SVG/1.1/DTD/svg11.dtd">
<svg version="1.1" id="Calque_1" xmlns="http://www.w3.org/2000/svg" xmlns:xlink="http://www.w3.org/1999/xlink" x="0px" y="0px"
	 width="1190.551px" height="1190.551px" viewBox="0 0 1190.551 1190.551" enable-background="new 0 0 1190.551 1190.551"
	 xml:space="preserve">
<g>
	<polygon fill="#010202" points="732.651,1015.914 732.651,804.818 884.346,804.818 884.346,579.83 734.151,579.83 734.151,420.635 
		507.661,420.635 507.661,451.664 392.301,451.664 392.301,245.664 602.301,245.664 602.301,357.664 805.301,357.664 
		805.301,47.385 210.022,47.385 210.022,642.664 507.661,642.664 363.669,642.827 363.669,878.316 500.162,878.316 
		500.162,1015.914 	"/>
	<path fill="#010202" d="M947.879,553.454h-15.203c0,0-26.824,1.341-26.824,37.557c0,0,0,101.217,0,134.061
		c0,43.814-12.074,67.064-38.896,107.365c-50.73,76.217-188.223,266.463-188.223,266.463l64.381,44.266l190.459-270.938
		c0,0,46.941-60.354,46.941-123.396V590.563C980.512,590.563,982.303,553.454,947.879,553.454z"/>
</g>
</svg>
