<?xml version="1.0" encoding="utf-8"?>
<!-- Generator: Adobe Illustrator 16.0.0, SVG Export Plug-In . SVG Version: 6.00 Build 0)  -->
<!DOCTYPE svg PUBLIC "-//W3C//DTD SVG 1.1//EN" "http://www.w3.org/Graphics/SVG/1.1/DTD/svg11.dtd">
<svg version="1.1" id="Calque_1" xmlns="http://www.w3.org/2000/svg" xmlns:xlink="http://www.w3.org/1999/xlink" x="0px" y="0px"
	 width="1190.551px" height="1190.551px" viewBox="0 0 1190.551 1190.551" enable-background="new 0 0 1190.551 1190.551"
	 xml:space="preserve">
<path fill="#010202" d="M1084.733,988.149l-331.139,5.167c0,0-63.811-2.083-113.729,25.83l32.496-18.762L561.346,808.101
	l124.619-72.137l-37.725-65.339l268.711-155.141L619.313-0.042l-515.528,297.64L252.603,555.36l82.287-47.507l-155.016,89.498
	l105.548,182.813L154.05,856.014l112.494,194.847l130.074-75.098l79.598,137.865l159.771-92.242
	c-3.354,2.015-6.635,4.171-9.816,6.482l-128.04,93.026c0,0-31.075,20.363-10.841,48.215l8.936,12.299
	c0,0,16.854,20.913,46.151-0.373c0,0,81.887-59.495,108.459-78.801c35.445-25.754,61.354-29.648,109.723-31.638
	c91.48-3.757,326.207-4.348,326.207-4.348L1084.733,988.149z M450.015,600.271l-68.8-119.164l36.801-21.247l-57.68-99.905l178.4-103
	l105,181.865l-96.994,56l90.884,157.421l-69.406-120.217L450.015,600.271z"/>
</svg>
