<?xml version="1.0" encoding="utf-8"?>
<!-- Generator: Adobe Illustrator 16.0.0, SVG Export Plug-In . SVG Version: 6.00 Build 0)  -->
<!DOCTYPE svg PUBLIC "-//W3C//DTD SVG 1.1//EN" "http://www.w3.org/Graphics/SVG/1.1/DTD/svg11.dtd">
<svg version="1.1" id="Calque_1" xmlns="http://www.w3.org/2000/svg" xmlns:xlink="http://www.w3.org/1999/xlink" x="0px" y="0px"
	 width="1190.551px" height="1190.551px" viewBox="0 0 1190.551 1190.551" enable-background="new 0 0 1190.551 1190.551"
	 xml:space="preserve">
<g>
	<polygon fill="#010202" points="674.324,532.445 524.129,532.445 524.129,373.25 297.639,373.25 297.639,404.279 182.279,404.279 
		182.279,198.279 392.279,198.279 392.279,310.279 595.279,310.279 595.279,0 0,0 0,595.279 297.639,595.279 153.647,595.442 
		153.647,830.931 290.14,830.931 290.14,968.529 522.629,968.529 522.629,757.434 674.324,757.434 	"/>
	<path fill="#010202" d="M784.405,600.841L593.948,871.776c0,0-46.944,60.356-46.944,123.396v158.268c0,0-1.79,37.11,32.635,37.11
		h15.202c0,0,26.825-1.341,26.825-37.558c0,0,0-101.218,0-134.062c0-43.814,12.076-67.063,38.897-107.364
		c50.729-76.218,188.223-266.464,188.223-266.464L784.405,600.841z"/>
</g>
</svg>
