<?xml version="1.0" encoding="utf-8"?>
<!-- Generator: Adobe Illustrator 16.0.0, SVG Export Plug-In . SVG Version: 6.00 Build 0)  -->
<!DOCTYPE svg PUBLIC "-//W3C//DTD SVG 1.1//EN" "http://www.w3.org/Graphics/SVG/1.1/DTD/svg11.dtd">
<svg version="1.1" id="Calque_1" xmlns="http://www.w3.org/2000/svg" xmlns:xlink="http://www.w3.org/1999/xlink" x="0px" y="0px"
	 width="1190.551px" height="1190.551px" viewBox="0 0 1190.551 1190.551" enable-background="new 0 0 1190.551 1190.551"
	 xml:space="preserve">
<g>
	<polygon fill="#010202" points="384.184,702.715 384.184,595.279 297.639,595.279 297.639,404.279 182.279,404.279 
		182.279,198.279 392.279,198.279 392.279,310.279 595.279,310.279 595.279,0 0,0 0,595.279 159.195,595.279 159.195,745.476 
		0,745.476 0,971.966 222.029,971.966 222.192,1115.957 457.681,1115.957 457.681,979.465 595.279,979.465 595.279,746.976 
		448.565,746.976 384.184,746.976 	"/>
	<path fill="#010202" d="M653.332,157.267h-15.201c0,0-26.825,1.341-26.825,37.556c0,0,0,101.218,0,134.062
		c0,43.814-12.076,67.063-38.899,107.364c-50.729,76.219-188.222,266.466-188.222,266.466l64.381,44.262l190.458-270.936
		c0,0,46.944-60.355,46.944-123.396V194.377C685.968,194.377,687.758,157.267,653.332,157.267z"/>
</g>
</svg>
