<?xml version="1.0" encoding="utf-8"?>
<!-- Generator: Adobe Illustrator 16.0.0, SVG Export Plug-In . SVG Version: 6.00 Build 0)  -->
<!DOCTYPE svg PUBLIC "-//W3C//DTD SVG 1.1//EN" "http://www.w3.org/Graphics/SVG/1.1/DTD/svg11.dtd">
<svg version="1.1" id="Calque_1" xmlns="http://www.w3.org/2000/svg" xmlns:xlink="http://www.w3.org/1999/xlink" x="0px" y="0px"
	 width="1190.551px" height="1190.551px" viewBox="0 0 1190.551 1190.551" enable-background="new 0 0 1190.551 1190.551"
	 xml:space="preserve">
<path fill="#010202" d="M805.766,679.52c0,0-60.356-46.943-123.396-46.943h26.759V37.297H411.49v191h115.36v206h-210v-112h-203
	v310.278h137.598v136.493H113.85v232.488h211.095v151.697h224.989v-150.197h159.193V776.568H487.1l-0.163-143.992h35.224
	c-7.605,0.197-35.169,2.957-35.169,32.635v15.203c0,0,1.341,26.824,37.558,26.824c0,0,101.219,0,134.062,0
	c43.812,0,67.062,12.076,107.364,38.898c76.218,50.73,266.465,188.223,266.465,188.223l44.262-64.381L805.766,679.52z"/>
</svg>
