<?xml version="1.0" encoding="utf-8"?>
<!-- Generator: Adobe Illustrator 16.0.0, SVG Export Plug-In . SVG Version: 6.00 Build 0)  -->
<!DOCTYPE svg PUBLIC "-//W3C//DTD SVG 1.1//EN" "http://www.w3.org/Graphics/SVG/1.1/DTD/svg11.dtd">
<svg version="1.1" id="Calque_1" xmlns="http://www.w3.org/2000/svg" xmlns:xlink="http://www.w3.org/1999/xlink" x="0px" y="0px"
	 width="1190.551px" height="1190.551px" viewBox="0 0 1190.551 1190.551" enable-background="new 0 0 1190.551 1190.551"
	 xml:space="preserve">
<path fill="#010202" d="M691.916,642.223c0,0-60.356-46.944-123.396-46.944h26.759V0H297.64v191H413v206H203V285H0v310.278h137.598
	v136.493H0V964.26h211.095v151.696h224.989V965.76h159.194V739.271H373.25l-0.163-143.992h35.224
	c-7.606,0.197-35.169,2.956-35.169,32.635v15.202c0,0,1.341,26.825,37.557,26.825c0,0,101.219,0,134.062,0
	c43.812,0,67.062,12.076,107.364,38.899c76.218,50.729,266.465,188.222,266.465,188.222l44.262-64.381L691.916,642.223z"/>
</svg>
