<?xml version="1.0" encoding="utf-8"?>
<!-- Generator: Adobe Illustrator 16.0.0, SVG Export Plug-In . SVG Version: 6.00 Build 0)  -->
<!DOCTYPE svg PUBLIC "-//W3C//DTD SVG 1.1//EN" "http://www.w3.org/Graphics/SVG/1.1/DTD/svg11.dtd">
<svg version="1.1" id="Calque_1" xmlns="http://www.w3.org/2000/svg" xmlns:xlink="http://www.w3.org/1999/xlink" x="0px" y="0px"
	 width="1190.551px" height="1190.551px" viewBox="0 0 1190.551 1190.551" enable-background="new 0 0 1190.551 1190.551"
	 xml:space="preserve">
<path fill="#010202" d="M807.284,693.867c4.07,6.609,20.221,28.828,45.798,14.061l13.167-7.602c0,0,22.561-14.574,4.453-45.938
	c0,0-50.609-87.657-67.032-116.102c-21.907-37.944-23.073-64.116-19.994-112.43c5.823-91.372,29.772-324.876,29.772-324.876
	l-77.886-6.142l-29.476,329.865c0,0-10.468,75.685,21.009,130.275l-22.877-39.625l-9.437,5.448L589.236,337.991l131.373-75.849
	L608.115,67.297L478.04,142.395L398.443,4.528L202.297,117.772l111.016,192.283l-124.62,72.137l117.745,203.94l118.205-68.247
	l68.8,119.162l-304.75,175.949l148.818,257.762l165.411-95.5l-57.681-99.902l178.401-103.002l105,181.865l-96.996,56.002
	l101.501,175.803l268.711-155.141L807.284,693.867z"/>
</svg>
