<?xml version="1.0" encoding="utf-8"?>
<!-- Generator: Adobe Illustrator 16.0.0, SVG Export Plug-In . SVG Version: 6.00 Build 0)  -->
<!DOCTYPE svg PUBLIC "-//W3C//DTD SVG 1.1//EN" "http://www.w3.org/Graphics/SVG/1.1/DTD/svg11.dtd">
<svg version="1.1" id="Calque_1" xmlns="http://www.w3.org/2000/svg" xmlns:xlink="http://www.w3.org/1999/xlink" x="0px" y="0px"
	 width="1190.551px" height="1190.551px" viewBox="0 0 1190.551 1190.551" enable-background="new 0 0 1190.551 1190.551"
	 xml:space="preserve">
<g>
	<polygon fill="#010202" points="524.129,532.445 524.129,373.25 297.639,373.25 297.639,404.279 182.279,404.279 182.279,198.279 
		392.279,198.279 392.279,310.279 595.279,310.279 595.279,0 0,0 0,595.279 297.639,595.279 153.647,595.442 153.647,830.931 
		290.14,830.931 290.14,968.529 522.629,968.529 522.629,757.434 674.324,757.434 674.324,532.445 	"/>
	<path fill="#010202" d="M552.152,1021.418c0,0-101.218,0-134.062,0c-43.814,0-67.063-12.076-107.364-38.897
		C234.508,931.79,44.262,794.297,44.262,794.297l-44.263,64.381l270.936,190.458c0,0,60.355,46.944,123.396,46.944h158.268
		c0,0,37.11,1.79,37.11-32.635v-15.202C589.709,1048.243,588.366,1021.418,552.152,1021.418z"/>
</g>
</svg>
