<?xml version="1.0" encoding="utf-8"?>
<!-- Generator: Adobe Illustrator 16.0.0, SVG Export Plug-In . SVG Version: 6.00 Build 0)  -->
<!DOCTYPE svg PUBLIC "-//W3C//DTD SVG 1.1//EN" "http://www.w3.org/Graphics/SVG/1.1/DTD/svg11.dtd">
<svg version="1.1" id="Calque_1" xmlns="http://www.w3.org/2000/svg" xmlns:xlink="http://www.w3.org/1999/xlink" x="0px" y="0px"
	 width="1190.551px" height="1190.551px" viewBox="0 0 1190.551 1190.551" enable-background="new 0 0 1190.551 1190.551"
	 xml:space="preserve">
<g>
	<polygon fill="#010202" points="636.467,740.012 636.467,632.576 549.923,632.576 549.923,441.576 434.562,441.576 
		434.562,235.576 644.562,235.576 644.562,347.576 847.562,347.576 847.562,37.297 252.284,37.297 252.284,632.576 411.478,632.576 
		411.478,782.772 252.284,782.772 252.284,1009.263 474.312,1009.263 474.475,1153.254 709.964,1153.254 709.964,1016.762 
		847.562,1016.762 847.562,784.272 700.848,784.272 636.467,784.272 	"/>
	<path fill="#010202" d="M905.615,194.564h-15.2c0,0-26.825,1.341-26.825,37.556c0,0,0,101.218,0,134.062
		c0,43.814-12.076,67.063-38.899,107.364c-50.729,76.219-188.222,266.466-188.222,266.466l64.381,44.262l190.458-270.936
		c0,0,46.944-60.355,46.944-123.396V231.674C938.251,231.674,940.041,194.564,905.615,194.564z"/>
</g>
</svg>
