<?xml version="1.0" encoding="utf-8"?>
<!-- Generator: Adobe Illustrator 16.0.0, SVG Export Plug-In . SVG Version: 6.00 Build 0)  -->
<!DOCTYPE svg PUBLIC "-//W3C//DTD SVG 1.1//EN" "http://www.w3.org/Graphics/SVG/1.1/DTD/svg11.dtd">
<svg version="1.1" id="Calque_1" xmlns="http://www.w3.org/2000/svg" xmlns:xlink="http://www.w3.org/1999/xlink" x="0px" y="0px"
	 width="1190.551px" height="1190.551px" viewBox="0 0 1190.551 1190.551" enable-background="new 0 0 1190.551 1190.551"
	 xml:space="preserve">
<g>
	<polygon fill="#010202" points="467.024,658.12 408.001,476.469 298.287,512.115 234.63,316.199 434.351,251.306 468.961,357.823 
		662.026,295.093 566.145,-0.001 0,183.951 183.951,750.095 	"/>
	<polygon fill="#010202" points="601.595,885.797 85.023,717.951 70.579,762.403 24.592,747.46 0,823.144 38.779,835.745 
		2.089,948.668 160.4,1070.499 472.745,1171.988 514.121,1044.647 361.552,995.073 370.531,967.442 523.1,1017.016 532.859,986.982 
		565.294,997.521 	"/>
	<path fill="#010202" d="M668.924,731.421l-71.854-141.019c0,0-15.251-33.879-45.924-18.249l-13.547,6.901
		c0,0-23.292,13.373-6.851,45.642c0,0,45.952,90.186,60.863,119.45c19.892,39.038,19.687,65.235,14.083,113.321
		c-10.597,90.941-46.735,322.872-46.735,322.872l77.459,10.211l46.697-327.871C683.116,862.68,697.542,787.59,668.924,731.421z"/>
</g>
</svg>
