<?xml version="1.0" encoding="utf-8"?>
<!-- Generator: Adobe Illustrator 16.0.0, SVG Export Plug-In . SVG Version: 6.00 Build 0)  -->
<!DOCTYPE svg PUBLIC "-//W3C//DTD SVG 1.1//EN" "http://www.w3.org/Graphics/SVG/1.1/DTD/svg11.dtd">
<svg version="1.1" id="Calque_1" xmlns="http://www.w3.org/2000/svg" xmlns:xlink="http://www.w3.org/1999/xlink" x="0px" y="0px"
	 width="1190.551px" height="1190.551px" viewBox="0 0 1190.551 1190.551" enable-background="new 0 0 1190.551 1190.551"
	 xml:space="preserve">
<g>
	<path fill="#010202" d="M771.018,579.988l95.883-295.094L300.757,100.943l-183.95,566.145l283.068,91.977l-79.773,245.521
		l44.451,14.443l-14.942,45.987l75.687,24.592l12.6-38.778l112.925,36.69l121.83-158.312L774.137,616.86l-127.342-41.375
		l-49.57,152.569l-27.632-8.979l49.572-152.57l-30.033-9.758l10.539-32.435L771.018,579.988z M487.946,488.012l-29.048,89.399
		l-109.713-35.648l63.657-195.917l199.722,64.894l-34.61,106.518L487.946,488.012z"/>
	<path fill="#010202" d="M966.502,313.583c0,0-21.234-73.456-72.236-110.509l-128.039-93.028c0,0-28.973-23.261-49.205,4.589
		l-8.938,12.299c0,0-14.682,22.49,14.617,43.777c0,0,81.885,59.495,108.457,78.799c35.447,25.754,47.158,49.188,63.996,94.577
		c31.844,85.842,104.939,308.899,104.939,308.899l73.65-26.067L966.502,313.583z"/>
</g>
</svg>
