<?xml version="1.0" encoding="utf-8"?>
<!-- Generator: Adobe Illustrator 16.0.0, SVG Export Plug-In . SVG Version: 6.00 Build 0)  -->
<!DOCTYPE svg PUBLIC "-//W3C//DTD SVG 1.1//EN" "http://www.w3.org/Graphics/SVG/1.1/DTD/svg11.dtd">
<svg version="1.1" id="Calque_1" xmlns="http://www.w3.org/2000/svg" xmlns:xlink="http://www.w3.org/1999/xlink" x="0px" y="0px"
	 width="1190.551px" height="1190.551px" viewBox="0 0 1190.551 1190.551" enable-background="new 0 0 1190.551 1190.551"
	 xml:space="preserve">
<g>
	<path fill="#010202" d="M655.301,134.178c0,0-42.896-63.297-102.849-82.777L401.93,2.493c0,0-34.74-13.17-45.378,19.569
		l-4.698,14.458c0,0-2.739,10.125,3.611,20.451L314.073,0L73.277,174.948L185.544,329.47l93.327-67.808l121.085,166.658
		L230.063,551.755l-65.832-90.609L0,580.466l182.377,251.021L663.969,481.59L358.107,60.609c4.176,4.94,10.788,9.655,21.174,13.03
		c0,0,96.264,31.277,127.501,41.427c41.669,13.54,60.049,32.208,90.089,70.172c56.812,71.799,195.258,261.353,195.258,261.353
		l61.992-47.553L655.301,134.178z"/>
	<polygon fill="#010202" points="573.868,831.906 560.677,806.02 703.615,733.19 689.277,705.053 719.664,689.57 666.332,584.9 
		182.378,831.488 203.596,873.131 160.512,895.084 196.641,965.99 232.971,947.479 286.875,1053.273 484.965,1027.477 
		777.591,878.377 716.804,759.075 	"/>
</g>
</svg>
