<?xml version="1.0" encoding="utf-8"?>
<!-- Generator: Adobe Illustrator 16.0.0, SVG Export Plug-In . SVG Version: 6.00 Build 0)  -->
<!DOCTYPE svg PUBLIC "-//W3C//DTD SVG 1.1//EN" "http://www.w3.org/Graphics/SVG/1.1/DTD/svg11.dtd">
<svg version="1.1" id="Calque_1" xmlns="http://www.w3.org/2000/svg" xmlns:xlink="http://www.w3.org/1999/xlink" x="0px" y="0px"
	 width="1190.551px" height="1190.551px" viewBox="0 0 1190.551 1190.551" enable-background="new 0 0 1190.551 1190.551"
	 xml:space="preserve">
<g>
	<polygon fill="#010202" points="164.231,461.146 0,580.466 182.377,831.487 663.969,481.59 314.073,0 73.277,174.948 
		185.544,329.47 278.871,261.662 399.956,428.321 230.063,551.755 	"/>
	<path fill="#010202" d="M967.275,740.563l-60.786-119.301l-142.936,72.831l-13.19-25.887l142.937-72.83l-14.337-28.138
		l30.388-15.483l-53.332-104.669L372.061,693.674l21.219,41.645l-43.084,21.952l36.129,70.906l36.331-18.512l53.904,105.794
		l89.744-11.688c-19.823,3.14-99.586,15.773-127.902,20.26c-43.274,6.854-68.127-1.437-112.128-21.625
		C243.058,864.226,33.645,758.186,33.645,758.186l-33.646,70.512l297.395,145.729c0,0,66.956,36.926,129.22,27.062l156.32-24.757
		c0,0,36.934-4.039,31.547-38.04l-2.378-15.015c0,0-4.852-23.097-34.922-21.322l97.469-12.693L967.275,740.563z"/>
</g>
</svg>
