<?xml version="1.0" encoding="utf-8"?>
<!-- Generator: Adobe Illustrator 16.0.0, SVG Export Plug-In . SVG Version: 6.00 Build 0)  -->
<!DOCTYPE svg PUBLIC "-//W3C//DTD SVG 1.1//EN" "http://www.w3.org/Graphics/SVG/1.1/DTD/svg11.dtd">
<svg version="1.1" id="Calque_1" xmlns="http://www.w3.org/2000/svg" xmlns:xlink="http://www.w3.org/1999/xlink" x="0px" y="0px"
	 width="1190.551px" height="1190.551px" viewBox="0 0 1190.551 1190.551" enable-background="new 0 0 1190.551 1190.551"
	 xml:space="preserve">
<g>
	<path fill="#010202" d="M240.49,193.262c0,0,16.853,20.913,46.149-0.372c0,0,81.888-59.495,108.459-78.801
		c35.446-25.754,61.354-29.648,109.724-31.638c91.481-3.76,326.209-4.349,326.209-4.349L828.999,0l-331.141,5.17
		c0,0-76.423-2.502-127.422,34.552L242.396,132.75c0,0-31.076,20.363-10.841,48.215L240.49,193.262z"/>
	<polygon fill="#010202" points="783.196,1032.025 778.651,1003.33 937.096,978.234 932.156,947.043 965.841,941.709 
		947.464,825.68 410.995,910.65 888.68,563.59 538.784,82 297.989,256.949 410.256,411.47 503.584,343.663 624.668,510.321 
		454.775,633.756 388.943,543.146 224.712,662.465 407.089,913.488 410.994,910.65 418.306,956.812 370.547,964.375 
		382.996,1042.977 423.269,1036.598 441.843,1153.871 638.209,1190.551 962.587,1139.174 941.641,1006.93 	"/>
</g>
</svg>
