<?xml version="1.0" encoding="utf-8"?>
<!-- Generator: Adobe Illustrator 16.0.0, SVG Export Plug-In . SVG Version: 6.00 Build 0)  -->
<!DOCTYPE svg PUBLIC "-//W3C//DTD SVG 1.1//EN" "http://www.w3.org/Graphics/SVG/1.1/DTD/svg11.dtd">
<svg version="1.1" id="Calque_1" xmlns="http://www.w3.org/2000/svg" xmlns:xlink="http://www.w3.org/1999/xlink" x="0px" y="0px"
	 width="1190.551px" height="1190.551px" viewBox="0 0 1190.551 1190.551" enable-background="new 0 0 1190.551 1190.551"
	 xml:space="preserve">
<g>
	<polygon fill="#010202" points="600.364,918.077 404.445,854.42 469.339,654.698 575.857,689.309 638.588,496.243 632.287,494.196 
		673.664,366.857 521.094,317.283 530.073,289.653 682.641,339.226 692.401,309.193 724.836,319.732 761.139,208.007 
		244.565,40.162 230.122,84.613 184.135,69.67 159.543,145.356 198.322,157.955 161.632,270.879 319.942,392.71 343.494,400.362 
		159.543,966.505 725.686,1150.456 817.662,867.386 636.01,808.363 	"/>
	<path fill="#010202" d="M793.201,131.242c0,0-52.27-55.808-114.531-65.67L522.35,40.814c0,0-36.373-7.573-41.758,26.429
		l-2.378,15.015c0,0-2.872,26.705,32.896,32.369c0,0,99.972,15.834,132.412,20.973c43.275,6.854,64.348,22.419,99.957,55.215
		c67.346,62.028,233.74,227.59,233.74,227.59l53.789-56.664L793.201,131.242z"/>
</g>
</svg>
