<?xml version="1.0" encoding="utf-8"?>
<!-- Generator: Adobe Illustrator 16.0.0, SVG Export Plug-In . SVG Version: 6.00 Build 0)  -->
<!DOCTYPE svg PUBLIC "-//W3C//DTD SVG 1.1//EN" "http://www.w3.org/Graphics/SVG/1.1/DTD/svg11.dtd">
<svg version="1.1" id="Calque_1" xmlns="http://www.w3.org/2000/svg" xmlns:xlink="http://www.w3.org/1999/xlink" x="0px" y="0px"
	 width="1190.551px" height="1190.551px" viewBox="0 0 1190.551 1190.551" enable-background="new 0 0 1190.551 1190.551"
	 xml:space="preserve">
<g>
	<path fill="#010202" d="M15.779,193.261c0,0,16.852,20.913,46.149-0.372c0,0,81.888-59.495,108.459-78.801
		C205.833,88.334,231.74,84.44,280.111,82.45c91.481-3.76,326.209-4.349,326.209-4.349l-2.032-78.103L273.147,5.168
		c0,0-76.423-2.502-127.422,34.552L17.684,132.748c0,0-31.076,20.363-10.841,48.215L15.779,193.261z"/>
	<polygon fill="#010202" points="558.484,1032.024 553.939,1003.328 712.384,978.233 707.445,947.042 741.129,941.707 
		722.752,825.678 186.283,910.648 663.968,563.589 314.073,81.998 73.277,256.947 185.544,411.469 278.872,343.661 399.956,510.32 
		230.063,633.754 164.231,543.144 0,662.464 182.377,913.486 186.282,910.649 193.594,956.811 145.835,964.374 158.284,1042.975 
		198.557,1036.597 217.131,1153.869 413.497,1190.55 737.875,1139.173 716.929,1006.928 	"/>
</g>
</svg>
