<?xml version="1.0" encoding="utf-8"?>
<!-- Generator: Adobe Illustrator 16.0.0, SVG Export Plug-In . SVG Version: 6.00 Build 0)  -->
<!DOCTYPE svg PUBLIC "-//W3C//DTD SVG 1.1//EN" "http://www.w3.org/Graphics/SVG/1.1/DTD/svg11.dtd">
<svg version="1.1" id="Calque_1" xmlns="http://www.w3.org/2000/svg" xmlns:xlink="http://www.w3.org/1999/xlink" x="0px" y="0px"
	 width="1190.551px" height="1190.551px" viewBox="0 0 1190.551 1190.551" enable-background="new 0 0 1190.551 1190.551"
	 xml:space="preserve">
<g>
	<path fill="#010202" d="M654.213,479.045l95.883-295.094L183.951,0L0.001,566.144l283.069,91.977l-79.774,245.521l44.451,14.443
		l-14.942,45.987l75.686,24.592l12.6-38.778l112.925,36.69l121.829-158.312l101.487-312.347L529.99,474.542l-49.571,152.569
		l-27.631-8.978l49.571-152.57l-30.032-9.758l10.539-32.435L654.213,479.045z M371.141,387.069l-29.048,89.399L232.38,440.82
		l63.657-195.917l199.723,64.894l-34.61,106.518L371.141,387.069z"/>
	<path fill="#010202" d="M849.698,212.639c0,0-21.235-73.456-72.237-110.509L649.421,9.102c0,0-28.971-23.261-49.205,4.589
		l-8.936,12.299c0,0-14.683,22.49,14.616,43.777c0,0,81.886,59.495,108.458,78.799c35.446,25.754,47.157,49.188,63.995,94.577
		c31.845,85.842,104.94,308.899,104.94,308.899l73.651-26.068L849.698,212.639z"/>
</g>
</svg>
