<?xml version="1.0" encoding="utf-8"?>
<!-- Generator: Adobe Illustrator 16.0.0, SVG Export Plug-In . SVG Version: 6.00 Build 0)  -->
<!DOCTYPE svg PUBLIC "-//W3C//DTD SVG 1.1//EN" "http://www.w3.org/Graphics/SVG/1.1/DTD/svg11.dtd">
<svg version="1.1" id="Calque_1" xmlns="http://www.w3.org/2000/svg" xmlns:xlink="http://www.w3.org/1999/xlink" x="0px" y="0px"
	 width="1190.551px" height="1190.551px" viewBox="0 0 1190.551 1190.551" enable-background="new 0 0 1190.551 1190.551"
	 xml:space="preserve">
<g>
	<polygon fill="#010202" points="718.923,658.121 659.901,476.47 550.187,512.116 486.53,316.2 686.25,251.307 720.861,357.824 
		913.926,295.094 818.045,0 251.9,183.952 435.851,750.096 	"/>
	<polygon fill="#010202" points="853.494,885.798 336.923,717.952 322.479,762.404 276.492,747.461 251.9,823.145 290.678,835.746 
		253.989,948.669 412.3,1070.5 724.644,1171.989 766.02,1044.647 613.451,995.074 622.43,967.443 774.999,1017.017 784.758,986.983 
		817.194,997.522 	"/>
	<path fill="#010202" d="M920.824,731.422l-71.855-141.019c0,0-15.25-33.879-45.924-18.249l-13.547,6.901
		c0,0-23.292,13.373-6.852,45.642c0,0,45.953,90.186,60.863,119.45c19.893,39.037,19.688,65.234,14.084,113.32
		c-10.598,90.941-46.734,322.872-46.734,322.872l77.459,10.211l46.695-327.87C935.016,862.681,949.442,787.591,920.824,731.422z"/>
</g>
</svg>
