<?xml version="1.0" encoding="utf-8"?>
<!-- Generator: Adobe Illustrator 16.0.0, SVG Export Plug-In . SVG Version: 6.00 Build 0)  -->
<!DOCTYPE svg PUBLIC "-//W3C//DTD SVG 1.1//EN" "http://www.w3.org/Graphics/SVG/1.1/DTD/svg11.dtd">
<svg version="1.1" id="Calque_1" xmlns="http://www.w3.org/2000/svg" xmlns:xlink="http://www.w3.org/1999/xlink" x="0px" y="0px"
	 width="1190.551px" height="1190.551px" viewBox="0 0 1190.551 1190.551" enable-background="new 0 0 1190.551 1190.551"
	 xml:space="preserve">
<g>
	<polygon fill="#010202" points="777.993,887.628 739.215,900.228 702.523,787.304 502.837,781.794 190.49,883.281 
		231.865,1010.622 384.435,961.05 393.413,988.68 240.844,1038.254 250.601,1068.286 218.166,1078.825 254.468,1190.551 
		771.041,1022.705 756.597,978.255 802.585,963.313 	"/>
	<path fill="#010202" d="M601.038,421.137c0,0-60.354-46.944-123.396-46.944H319.375c0,0-14.49-0.698-25.361,7.177l139.892-101.639
		l65.832,90.61l164.23-119.32L481.591,0L0,349.896l349.896,481.591l240.795-174.947L478.425,502.017l-93.328,67.807L264.012,403.167
		L294,381.379c-6.521,4.729-11.735,12.544-11.735,25.449v15.201c0,0,1.341,26.825,37.556,26.825c0,0,101.219,0,134.062,0
		c43.812,0,67.062,12.076,107.362,38.899c76.221,50.729,266.467,188.222,266.467,188.222l44.262-64.381L601.038,421.137z"/>
</g>
</svg>
