<?xml version="1.0" encoding="utf-8"?>
<!-- Generator: Adobe Illustrator 16.0.0, SVG Export Plug-In . SVG Version: 6.00 Build 0)  -->
<!DOCTYPE svg PUBLIC "-//W3C//DTD SVG 1.1//EN" "http://www.w3.org/Graphics/SVG/1.1/DTD/svg11.dtd">
<svg version="1.1" id="Calque_1" xmlns="http://www.w3.org/2000/svg" xmlns:xlink="http://www.w3.org/1999/xlink" x="0px" y="0px"
	 width="1190.551px" height="1190.551px" viewBox="0 0 1190.551 1190.551" enable-background="new 0 0 1190.551 1190.551"
	 xml:space="preserve">
<g>
	<path fill="#010202" d="M744.193,451.539l-48.907-150.521c0,0-9.765-35.849-42.505-25.209l-14.458,4.697
		c0,0-25.098,9.565-13.907,44.007c0,0,31.278,96.265,41.428,127.5c13.539,41.669,9.238,67.512-3.818,114.129L478.073-0.001
		l-283.07,91.977l59.022,181.651l109.714-35.648l63.657,195.918L227.674,498.79l-34.61-106.519L0,455.002l95.881,295.093
		l566.144-183.951c-24.692,88.167-96.667,311.586-96.667,311.586l74.908,22.201l97.412-316.529
		C737.678,583.403,763.673,511.493,744.193,451.539z"/>
	<polygon fill="#010202" points="582.291,894.917 406.87,799.352 82.492,747.976 61.547,880.221 219.992,905.317 215.448,934.012 
		57.001,908.916 52.062,940.107 18.377,934.772 0,1050.799 536.471,1135.768 543.781,1089.605 591.539,1097.169 603.989,1018.569 
		563.717,1012.191 	"/>
</g>
</svg>
