<?xml version="1.0" encoding="utf-8"?>
<!-- Generator: Adobe Illustrator 16.0.0, SVG Export Plug-In . SVG Version: 6.00 Build 0)  -->
<!DOCTYPE svg PUBLIC "-//W3C//DTD SVG 1.1//EN" "http://www.w3.org/Graphics/SVG/1.1/DTD/svg11.dtd">
<svg version="1.1" id="Calque_1" xmlns="http://www.w3.org/2000/svg" xmlns:xlink="http://www.w3.org/1999/xlink" x="0px" y="0px"
	 width="1190.551px" height="1190.551px" viewBox="0 0 1190.551 1190.551" enable-background="new 0 0 1190.551 1190.551"
	 xml:space="preserve">
<path fill="#010202" d="M309.256,226.942c0,0,1.342,26.825,37.557,26.825c0,0,101.218,0,134.062,0
	c43.814,0,67.063,12.076,107.364,38.899c76.219,50.729,266.465,188.222,266.465,188.222l44.263-64.381L628.03,226.05
	c0,0-60.355-46.944-123.396-46.944H346.366c0,0-30.139-1.442-36.087,23.48V0H0v595.279h185.683v40.775H66.947L0,824.264v328.421
	h133.895V992.264h29.053v160.421h31.579v34.104H312V643.634h-46.737v-48.354h330.017V297.64h-191V413h-206V203H310.17
	c-0.589,2.618-0.914,5.52-0.914,8.74V226.942z"/>
</svg>
