<?xml version="1.0" encoding="utf-8"?>
<!-- Generator: Adobe Illustrator 16.0.0, SVG Export Plug-In . SVG Version: 6.00 Build 0)  -->
<!DOCTYPE svg PUBLIC "-//W3C//DTD SVG 1.1//EN" "http://www.w3.org/Graphics/SVG/1.1/DTD/svg11.dtd">
<svg version="1.1" id="Calque_1" xmlns="http://www.w3.org/2000/svg" xmlns:xlink="http://www.w3.org/1999/xlink" x="0px" y="0px"
	 width="1190.551px" height="1190.551px" viewBox="0 0 1190.551 1190.551" enable-background="new 0 0 1190.551 1190.551"
	 xml:space="preserve">
<g>
	<path fill="#010202" d="M823.516,202.879c0,0-42.896-63.297-102.85-82.777L570.145,71.194c0,0-34.74-13.17-45.378,19.569
		l-4.698,14.458c0,0-2.739,10.125,3.611,20.451l-41.393-56.971L241.492,243.649L353.76,398.171l93.327-67.808l121.085,166.658
		L398.278,620.456l-65.832-90.609l-164.23,119.32l182.377,251.021l481.591-349.897L526.322,129.31
		c4.177,4.94,10.788,9.655,21.174,13.03c0,0,96.264,31.277,127.5,41.427c41.67,13.54,60.049,32.208,90.09,70.172
		c56.812,71.799,195.258,261.353,195.258,261.353l61.992-47.553L823.516,202.879z"/>
	<polygon fill="#010202" points="742.082,900.607 728.893,874.721 871.83,801.892 857.492,773.754 887.879,758.271 834.547,653.601 
		350.594,900.189 371.811,941.832 328.727,963.785 364.856,1034.691 401.186,1016.18 455.091,1121.975 653.18,1096.178 
		945.807,947.078 885.02,827.776 	"/>
</g>
</svg>
