<?xml version="1.0" encoding="utf-8"?>
<!-- Generator: Adobe Illustrator 16.0.0, SVG Export Plug-In . SVG Version: 6.00 Build 0)  -->
<!DOCTYPE svg PUBLIC "-//W3C//DTD SVG 1.1//EN" "http://www.w3.org/Graphics/SVG/1.1/DTD/svg11.dtd">
<svg version="1.1" id="Calque_1" xmlns="http://www.w3.org/2000/svg" xmlns:xlink="http://www.w3.org/1999/xlink" x="0px" y="0px"
	 width="1190.551px" height="1190.551px" viewBox="0 0 1190.551 1190.551" enable-background="new 0 0 1190.551 1190.551"
	 xml:space="preserve">
<g>
	<path fill="#010202" d="M963.751,478.931L914.844,328.41c0,0-9.765-35.849-42.505-25.209l-14.458,4.697
		c0,0-25.098,9.565-13.906,44.007c0,0,31.277,96.265,41.428,127.5c13.539,41.669,9.237,67.512-3.818,114.129L697.631,27.391
		l-283.069,91.977l59.021,181.651l109.714-35.648l63.657,195.918l-199.722,64.893l-34.61-106.519l-193.063,62.731l95.881,295.092
		l566.144-183.95c-24.692,88.167-96.667,311.587-96.667,311.587l74.908,22.199l97.412-316.528
		C957.237,610.795,983.232,538.885,963.751,478.931z"/>
	<polygon fill="#010202" points="801.85,922.309 626.429,826.744 302.051,775.367 281.106,907.613 439.551,932.709 435.006,961.404 
		276.56,936.309 271.62,967.5 237.936,962.164 219.559,1078.191 756.03,1163.16 763.339,1116.998 811.097,1124.561 
		823.547,1045.961 783.276,1039.584 	"/>
</g>
</svg>
