<?xml version="1.0" encoding="utf-8"?>
<!-- Generator: Adobe Illustrator 16.0.0, SVG Export Plug-In . SVG Version: 6.00 Build 0)  -->
<!DOCTYPE svg PUBLIC "-//W3C//DTD SVG 1.1//EN" "http://www.w3.org/Graphics/SVG/1.1/DTD/svg11.dtd">
<svg version="1.1" id="Calque_1" xmlns="http://www.w3.org/2000/svg" xmlns:xlink="http://www.w3.org/1999/xlink" x="0px" y="0px"
	 width="1190.551px" height="1190.551px" viewBox="0 0 1190.551 1190.551" enable-background="new 0 0 1190.551 1190.551"
	 xml:space="preserve">
<g>
	<polygon fill="#010202" points="937.281,887.628 898.504,900.229 861.811,787.304 662.125,781.794 349.779,883.281 
		391.154,1010.622 543.723,961.05 552.702,988.68 400.133,1038.254 409.889,1068.286 377.455,1078.825 413.757,1190.551 
		930.33,1022.705 915.885,978.255 961.873,963.312 	"/>
	<path fill="#010202" d="M760.326,421.137c0,0-60.354-46.944-123.396-46.944H478.664c0,0-14.49-0.698-25.361,7.177l139.892-101.639
		l65.832,90.61l164.23-119.32L640.879,0l-481.59,349.896l349.896,481.591L749.979,656.54L637.713,502.017l-93.328,67.807
		L423.301,403.167l29.988-21.788c-6.521,4.729-11.735,12.544-11.735,25.449v15.201c0,0,1.341,26.825,37.556,26.825
		c0,0,101.22,0,134.063,0c43.811,0,67.061,12.076,107.361,38.899C796.754,538.482,987,675.975,987,675.975l44.262-64.381
		L760.326,421.137z"/>
</g>
</svg>
