<?xml version="1.0" encoding="utf-8"?>
<!-- Generator: Adobe Illustrator 16.0.0, SVG Export Plug-In . SVG Version: 6.00 Build 0)  -->
<!DOCTYPE svg PUBLIC "-//W3C//DTD SVG 1.1//EN" "http://www.w3.org/Graphics/SVG/1.1/DTD/svg11.dtd">
<svg version="1.1" id="Calque_1" xmlns="http://www.w3.org/2000/svg" xmlns:xlink="http://www.w3.org/1999/xlink" x="0px" y="0px"
	 width="1190.551px" height="1190.551px" viewBox="0 0 1190.551 1190.551" enable-background="new 0 0 1190.551 1190.551"
	 xml:space="preserve">
<g>
	<polygon fill="#010202" points="440.821,877.915 244.903,814.258 309.796,614.536 416.315,649.146 479.045,456.081 
		472.746,454.034 514.122,326.695 361.552,277.121 370.531,249.491 523.099,299.064 532.859,269.031 565.294,279.57 
		601.596,167.845 85.023,0 70.579,44.451 24.592,29.508 0,105.194 38.78,117.793 2.089,230.717 160.4,352.548 183.951,360.2 
		0,926.343 566.144,1110.294 658.12,827.224 476.467,768.201 	"/>
	<path fill="#010202" d="M633.66,91.08c0,0-52.27-55.808-114.533-65.67L362.808,0.652c0,0-36.373-7.573-41.758,26.429l-2.378,15.015
		c0,0-2.872,26.705,32.896,32.369c0,0,99.972,15.834,132.411,20.973c43.276,6.854,64.349,22.419,99.957,55.215
		c67.347,62.028,233.74,227.59,233.74,227.59l53.79-56.664L633.66,91.08z"/>
</g>
</svg>
