<?xml version="1.0" encoding="utf-8"?>
<!-- Generator: Adobe Illustrator 16.0.0, SVG Export Plug-In . SVG Version: 6.00 Build 0)  -->
<!DOCTYPE svg PUBLIC "-//W3C//DTD SVG 1.1//EN" "http://www.w3.org/Graphics/SVG/1.1/DTD/svg11.dtd">
<svg version="1.1" id="Calque_1" xmlns="http://www.w3.org/2000/svg" xmlns:xlink="http://www.w3.org/1999/xlink" x="0px" y="0px"
	 width="1190.551px" height="1190.551px" viewBox="0 0 1190.551 1190.551" enable-background="new 0 0 1190.551 1190.551"
	 xml:space="preserve">
<path fill="#010202" d="M455.048,228.823c0,0,1.342,26.825,37.557,26.825c0,0,101.218,0,134.062,0
	c43.813,0,67.062,12.076,107.363,38.899c76.219,50.729,266.465,188.222,266.465,188.222l44.264-64.381L773.822,227.931
	c0,0-60.354-46.944-123.396-46.944H492.158c0,0-30.14-1.442-36.088,23.48V1.881H145.792V597.16h185.683v40.774H212.739
	l-66.946,188.21v328.421h133.895V994.145h29.053v160.421h31.579v34.104h117.474V645.515h-46.737V597.16h330.017V299.521h-191v115.36
	h-206v-210h111.891c-0.589,2.618-0.914,5.52-0.914,8.74V228.823z"/>
</svg>
