<?xml version="1.0" encoding="utf-8"?>
<!-- Generator: Adobe Illustrator 16.0.0, SVG Export Plug-In . SVG Version: 6.00 Build 0)  -->
<!DOCTYPE svg PUBLIC "-//W3C//DTD SVG 1.1//EN" "http://www.w3.org/Graphics/SVG/1.1/DTD/svg11.dtd">
<svg version="1.1" id="Calque_1" xmlns="http://www.w3.org/2000/svg" xmlns:xlink="http://www.w3.org/1999/xlink" x="0px" y="0px"
	 width="1190.551px" height="1190.551px" viewBox="0 0 1190.551 1190.551" enable-background="new 0 0 1190.551 1190.551"
	 xml:space="preserve">
<g>
	<polygon fill="#010202" points="275.869,554.839 111.639,674.159 294.016,925.181 775.608,575.283 425.711,93.693 184.915,268.642 
		297.183,423.163 390.51,355.355 511.595,522.015 341.701,645.448 	"/>
	<path fill="#010202" d="M1078.913,834.256l-60.786-119.301l-142.936,72.831l-13.19-25.887l142.938-72.83l-14.337-28.139
		l30.388-15.482l-53.332-104.669L483.699,787.367l21.219,41.646l-43.084,21.952l36.13,70.905l36.33-18.512l53.904,105.794
		l89.744-11.688c-19.823,3.14-99.586,15.772-127.902,20.26c-43.273,6.854-68.127-1.438-112.128-21.625
		c-83.216-38.181-292.629-144.221-292.629-144.221l-33.646,70.513l297.395,145.729c0,0,66.956,36.927,129.22,27.062l156.32-24.757
		c0,0,36.934-4.039,31.547-38.04l-2.378-15.016c0,0-4.853-23.097-34.922-21.321l97.469-12.693L1078.913,834.256z"/>
</g>
</svg>
