<?xml version="1.0" encoding="utf-8"?>
<!-- Generator: Adobe Illustrator 16.0.0, SVG Export Plug-In . SVG Version: 6.00 Build 0)  -->
<!DOCTYPE svg PUBLIC "-//W3C//DTD SVG 1.1//EN" "http://www.w3.org/Graphics/SVG/1.1/DTD/svg11.dtd">
<svg version="1.1" id="Calque_1" xmlns="http://www.w3.org/2000/svg" xmlns:xlink="http://www.w3.org/1999/xlink" x="0px" y="0px"
	 width="1190.551px" height="1190.551px" viewBox="0 0 1190.551 1190.551" enable-background="new 0 0 1190.551 1190.551"
	 xml:space="preserve">
<g>
	<path fill="#010202" d="M0,0v595.278h35.169C27.563,595.476,0,598.235,0,627.913v15.202c0,0,1.341,26.825,37.557,26.825
		c0,0,101.218,0,134.062,0c43.813,0,67.062,12.076,107.363,38.899c76.219,50.729,266.464,188.222,266.464,188.222l44.264-64.381
		L318.774,642.223c0,0-60.355-46.944-123.396-46.944h102.261v-191h-115.36v-206h210v112h203V0H0z"/>
	<polygon fill="#010202" points="550.736,898.945 362.526,831.996 34.105,831.996 34.105,965.89 194.526,965.89 194.526,994.943 
		34.105,994.943 34.105,1026.522 0,1026.522 0,1143.996 543.156,1143.996 543.156,1097.258 591.511,1097.258 591.511,1017.678 
		550.736,1017.678 	"/>
</g>
</svg>
