<?xml version="1.0" encoding="utf-8"?>
<!-- Generator: Adobe Illustrator 16.0.0, SVG Export Plug-In . SVG Version: 6.00 Build 0)  -->
<!DOCTYPE svg PUBLIC "-//W3C//DTD SVG 1.1//EN" "http://www.w3.org/Graphics/SVG/1.1/DTD/svg11.dtd">
<svg version="1.1" id="Calque_1" xmlns="http://www.w3.org/2000/svg" xmlns:xlink="http://www.w3.org/1999/xlink" x="0px" y="0px"
	 width="1190.551px" height="1190.551px" viewBox="0 0 1190.551 1190.551" enable-background="new 0 0 1190.551 1190.551"
	 xml:space="preserve">
<path fill="#010202" d="M936.07,199.414h-15.202c0,0-26.824,1.342-26.824,37.557c0,0,0,101.218,0,134.062
	c0,43.813-12.074,67.062-38.897,107.363c-50.729,76.219-188.223,266.463-188.223,266.463l64.378,44.262l-146.942-52.268h-56.576
	c160.537-4.402,289.328-135.916,289.328-297.519c0-164.382-133.258-297.641-297.64-297.641s-297.639,133.26-297.639,297.642
	c0,161.602,128.791,293.117,289.329,297.52H255.938v133.893h160.421v29.055H255.938v31.578h-34.105v117.477h543.155v-46.74h48.355
	v-79.58h-40.775V803.801l-41.264-14.678l190.458-270.935c0,0,46.941-60.355,46.941-123.396V236.523
	C968.703,236.523,970.493,199.414,936.07,199.414z"/>
</svg>
