<?xml version="1.0" encoding="utf-8"?>
<!-- Generator: Adobe Illustrator 16.0.0, SVG Export Plug-In . SVG Version: 6.00 Build 0)  -->
<!DOCTYPE svg PUBLIC "-//W3C//DTD SVG 1.1//EN" "http://www.w3.org/Graphics/SVG/1.1/DTD/svg11.dtd">
<svg version="1.1" id="Calque_1" xmlns="http://www.w3.org/2000/svg" xmlns:xlink="http://www.w3.org/1999/xlink" x="0px" y="0px"
	 width="1190.551px" height="1190.551px" viewBox="0 0 1190.551 1190.551" enable-background="new 0 0 1190.551 1190.551"
	 xml:space="preserve">
<path fill="#010202" d="M933.738,415.243c0,0,2.502-76.422-34.552-127.421l-93.029-128.043c0,0-20.364-31.075-48.215-10.841
	l-12.299,8.937c0,0-20.914,16.853,0.374,46.151c0,0,18.075,24.879,37.533,51.658c-16.629-21.177-36.434-40.434-59.295-57.044
	c-132.987-96.621-319.123-67.14-415.744,65.849c-96.621,132.986-67.141,319.123,65.848,415.743
	c48.948,35.563,105.097,54.021,161.331,56.545H300.02v46.736h-48.354v79.58h40.772v118.735l188.21,66.945H809.07V914.882H648.65
	v-29.053h160.421V854.25h34.107V736.777H562.511c87.364-3.938,172.191-46.142,227.592-122.393
	c75.459-103.86,74.003-240.138,6.398-340.876c11.41,15.706,22.009,30.293,28.316,38.976c25.753,35.445,29.647,61.354,31.638,109.724
	c3.759,91.479,4.348,326.209,4.348,326.209l78.103-2.034L933.738,415.243z"/>
</svg>
