<?xml version="1.0" encoding="utf-8"?>
<!-- Generator: Adobe Illustrator 16.0.0, SVG Export Plug-In . SVG Version: 6.00 Build 0)  -->
<!DOCTYPE svg PUBLIC "-//W3C//DTD SVG 1.1//EN" "http://www.w3.org/Graphics/SVG/1.1/DTD/svg11.dtd">
<svg version="1.1" id="Calque_1" xmlns="http://www.w3.org/2000/svg" xmlns:xlink="http://www.w3.org/1999/xlink" x="0px" y="0px"
	 width="1190.551px" height="1190.551px" viewBox="0 0 1190.551 1190.551" enable-background="new 0 0 1190.551 1190.551"
	 xml:space="preserve">
<path fill="#010202" d="M536.074,1032.317c0,0-75.09-14.427-131.26,14.193l-141.019,71.853c0,0-12.285,5.535-18.646,16.636
	l91.265-167.526l51.377-324.378l-132.246-20.945l-25.095,158.446l-28.695-4.545l25.095-158.446l-31.19-4.94l5.282-33.353
	c120.389,41.246,258.489,1.608,337.194-106.721c96.621-132.988,67.141-319.123-65.848-415.744
	C339.302-39.776,153.166-10.296,56.545,122.693c-96.621,132.987-67.141,319.122,65.848,415.744
	c24.131,17.532,50.018,30.892,76.796,40.255L84.968,560.601l-84.969,536.47l46.163,7.312l-7.564,47.759l78.601,12.45l6.378-40.273
	l117.273,18.574l3.597-6.603c-3.661,7.173-4.758,16.502,1.1,27.999l6.901,13.545c0,0,13.373,23.293,45.642,6.851
	c0,0,90.186-45.952,119.449-60.862c39.039-19.892,65.236-19.687,113.321-14.083c90.943,10.597,322.874,46.734,322.874,46.734
	l10.211-77.459L536.074,1032.317z"/>
</svg>
