<?xml version="1.0" encoding="utf-8"?>
<!-- Generator: Adobe Illustrator 16.0.0, SVG Export Plug-In . SVG Version: 6.00 Build 0)  -->
<!DOCTYPE svg PUBLIC "-//W3C//DTD SVG 1.1//EN" "http://www.w3.org/Graphics/SVG/1.1/DTD/svg11.dtd">
<svg version="1.1" id="Calque_1" xmlns="http://www.w3.org/2000/svg" xmlns:xlink="http://www.w3.org/1999/xlink" x="0px" y="0px"
	 width="1190.551px" height="1190.551px" viewBox="0 0 1190.551 1190.551" enable-background="new 0 0 1190.551 1190.551"
	 xml:space="preserve">
<path fill="#010202" d="M682.072,273.147c0,0,2.502-76.422-34.552-127.421L554.491,17.683c0,0-20.365-31.075-48.215-10.84
	l-12.299,8.936c0,0-20.914,16.853,0.374,46.151c0,0,18.075,24.879,37.533,51.659c-16.629-21.177-36.433-40.434-59.295-57.044
	C339.602-40.076,153.466-10.595,56.845,122.393c-96.621,132.987-67.141,319.123,65.848,415.744
	c48.948,35.563,105.096,54.021,161.331,56.544H48.354v46.737H0v79.58h40.773v118.735l188.21,66.946h328.421V772.786H396.984v-29.053
	h160.421v-31.579h34.107V594.681H310.845c87.364-3.937,172.192-46.141,227.592-122.392c75.459-103.861,74.003-240.138,6.398-340.876
	c11.411,15.706,22.009,30.293,28.317,38.975c25.753,35.446,29.647,61.354,31.637,109.724c3.759,91.48,4.348,326.209,4.348,326.209
	l78.103-2.034L682.072,273.147z"/>
</svg>
