<?xml version="1.0" encoding="utf-8"?>
<!-- Generator: Adobe Illustrator 16.0.0, SVG Export Plug-In . SVG Version: 6.00 Build 0)  -->
<!DOCTYPE svg PUBLIC "-//W3C//DTD SVG 1.1//EN" "http://www.w3.org/Graphics/SVG/1.1/DTD/svg11.dtd">
<svg version="1.1" id="Calque_1" xmlns="http://www.w3.org/2000/svg" xmlns:xlink="http://www.w3.org/1999/xlink" x="0px" y="0px"
	 width="1190.551px" height="1190.551px" viewBox="0 0 1190.551 1190.551" enable-background="new 0 0 1190.551 1190.551"
	 xml:space="preserve">
<path fill="#010202" d="M733.095,880.365l-36.128-70.906l-36.329,18.511l-53.904-105.793l-198.09,25.795l-50.288,25.623
	L588.852,535.79c0,0,55.808-52.269,65.669-114.533l24.759-156.32c0,0,7.573-36.373-26.428-41.758l-15.015-2.378
	c0,0-26.704-2.872-32.37,32.896c0,0-6.532,41.244-12.567,79.345C605.208,229.485,562.656,122.5,472.289,56.845
	C339.302-39.776,153.166-10.296,56.545,122.693c-96.621,132.987-67.141,319.122,65.848,415.744
	c132.987,96.621,319.123,67.14,415.744-65.848c26.132-35.968,43.021-75.825,51.152-116.745c-1.938,12.235-3.637,22.964-4.793,30.266
	c-6.854,43.275-22.418,64.348-55.216,99.957c-62.027,67.345-227.589,233.739-227.589,233.739l56.664,53.79L116.018,897.072
	l60.786,119.301l142.937-72.829l13.19,25.886l-142.937,72.83l14.337,28.137l-30.389,15.484l53.331,104.67L711.23,943.962
	l-21.218-41.645L733.095,880.365z"/>
</svg>
