<?xml version="1.0" encoding="utf-8"?>
<!-- Generator: Adobe Illustrator 16.0.0, SVG Export Plug-In . SVG Version: 6.00 Build 0)  -->
<!DOCTYPE svg PUBLIC "-//W3C//DTD SVG 1.1//EN" "http://www.w3.org/Graphics/SVG/1.1/DTD/svg11.dtd">
<svg version="1.1" id="Calque_1" xmlns="http://www.w3.org/2000/svg" xmlns:xlink="http://www.w3.org/1999/xlink" x="0px" y="0px"
	 width="1190.551px" height="1190.551px" viewBox="0 0 1190.551 1190.551" enable-background="new 0 0 1190.551 1190.551"
	 xml:space="preserve">
<path fill="#010202" d="M853.038,720.731c-53.373-92.445-148.851-145.405-248.224-148.688h236.01v-46.738h48.355v-79.58h-40.775
	V326.99l-5.29-1.881l44.262-64.381L616.444,70.27c0,0-60.354-46.943-123.395-46.943h-158.27c0-0.001-37.109-1.791-37.109,32.635
	v15.201c0,0,1.341,26.825,37.557,26.825c0,0,101.218,0,134.062,0c43.812,0,67.062,12.075,107.362,38.898
	c76.181,50.704,266.273,188.085,266.461,188.221l-182.918-65.064H331.775v133.894h160.421v29.053H331.775v31.579H297.67v117.475
	h287.43c-47.261,1.575-94.831,14.447-138.644,39.742c-142.358,82.192-191.135,264.225-108.943,406.584
	c82.19,142.359,264.224,191.135,406.583,108.943C886.453,1045.123,935.23,863.089,853.038,720.731z"/>
</svg>
