<?xml version="1.0" encoding="utf-8"?>
<!-- Generator: Adobe Illustrator 16.0.0, SVG Export Plug-In . SVG Version: 6.00 Build 0)  -->
<!DOCTYPE svg PUBLIC "-//W3C//DTD SVG 1.1//EN" "http://www.w3.org/Graphics/SVG/1.1/DTD/svg11.dtd">
<svg version="1.1" id="Calque_1" xmlns="http://www.w3.org/2000/svg" xmlns:xlink="http://www.w3.org/1999/xlink" x="0px" y="0px"
	 width="1190.551px" height="1190.551px" viewBox="0 0 1190.551 1190.551" enable-background="new 0 0 1190.551 1190.551"
	 xml:space="preserve">
<path fill="#010202" d="M699.537,1032.323c0,0-75.09-14.428-131.26,14.192l-141.019,71.854c0,0-12.285,5.535-18.646,16.636
	l91.266-167.526l51.377-324.378l-132.246-20.944l-25.095,158.445l-28.695-4.545l25.095-158.445l-31.189-4.94l5.281-33.354
	c120.39,41.246,258.49,1.608,337.195-106.721c96.621-132.988,67.141-319.123-65.849-415.744
	C502.765-39.771,316.63-10.29,220.009,122.698c-96.621,132.987-67.142,319.122,65.848,415.744
	c24.131,17.532,50.019,30.892,76.796,40.255l-114.221-18.091l-84.969,536.471l46.163,7.312l-7.564,47.76l78.602,12.449l6.378-40.272
	l117.272,18.573l3.597-6.603c-3.66,7.173-4.758,16.502,1.101,27.999l6.901,13.545c0,0,13.372,23.293,45.642,6.852
	c0,0,90.186-45.952,119.449-60.862c39.039-19.893,65.236-19.688,113.321-14.083c90.943,10.597,322.874,46.733,322.874,46.733
	l10.211-77.459L699.537,1032.323z"/>
</svg>
