<?xml version="1.0" encoding="utf-8"?>
<!-- Generator: Adobe Illustrator 16.0.0, SVG Export Plug-In . SVG Version: 6.00 Build 0)  -->
<!DOCTYPE svg PUBLIC "-//W3C//DTD SVG 1.1//EN" "http://www.w3.org/Graphics/SVG/1.1/DTD/svg11.dtd">
<svg version="1.1" id="Calque_1" xmlns="http://www.w3.org/2000/svg" xmlns:xlink="http://www.w3.org/1999/xlink" x="0px" y="0px"
	 width="1190.551px" height="1190.551px" viewBox="0 0 1190.551 1190.551" enable-background="new 0 0 1190.551 1190.551"
	 xml:space="preserve">
<path fill="#010202" d="M1054.156,781.509c0,0-101.219,0-134.062,0c-43.812,0-67.062-12.075-107.363-38.898
	c-74.47-49.564-257.79-181.954-266.167-188.006c34.603-20.17,65.682-47.674,90.733-82.155
	c96.621-132.988,67.14-319.123-65.848-415.744c-132.988-96.621-319.123-67.141-415.744,65.847
	C59.084,255.54,88.565,441.676,221.553,538.296c76.289,55.427,170.063,69.339,254.401,46.037l-107.649,78.21l94.294,129.782
	l-23.506,17.076L344.8,679.619l-25.548,18.562l-20.046-27.592l-95.039,69.051l319.259,439.422l37.812-27.473l28.422,39.12
	l64.381-46.776l-23.966-32.985l96.059-69.791l-56.465-191.616L502.003,618.77l270.933,190.458c0,0,60.356,46.943,123.396,46.943
	h158.27c0,0,37.109,1.79,37.109-32.635v-15.202C1091.712,808.334,1090.371,781.509,1054.156,781.509z M476.815,584.101
	c23.979-6.703,47.184-16.425,68.999-29.057l-43.811,63.726L476.815,584.101z"/>
</svg>
