<?xml version="1.0" encoding="utf-8"?>
<!-- Generator: Adobe Illustrator 16.0.0, SVG Export Plug-In . SVG Version: 6.00 Build 0)  -->
<!DOCTYPE svg PUBLIC "-//W3C//DTD SVG 1.1//EN" "http://www.w3.org/Graphics/SVG/1.1/DTD/svg11.dtd">
<svg version="1.1" id="Calque_1" xmlns="http://www.w3.org/2000/svg" xmlns:xlink="http://www.w3.org/1999/xlink" x="0px" y="0px"
	 width="1190.551px" height="1190.551px" viewBox="0 0 1190.551 1190.551" enable-background="new 0 0 1190.551 1190.551"
	 xml:space="preserve">
<path fill="#010202" d="M961.984,880.375l-36.128-70.906l-36.329,18.511l-53.904-105.793l-198.09,25.795l-50.289,25.623
	L817.74,535.8c0,0,55.808-52.269,65.669-114.533l24.759-156.32c0,0,7.573-36.373-26.428-41.758l-15.015-2.378
	c0,0-26.704-2.872-32.37,32.896c0,0-6.532,41.244-12.567,79.345c12.308-103.557-30.244-210.542-120.611-276.197
	C568.19-39.766,382.054-10.286,285.433,122.703c-96.621,132.987-67.142,319.122,65.848,415.744
	c132.987,96.62,319.124,67.14,415.745-65.848c26.132-35.968,43.021-75.825,51.151-116.745c-1.938,12.235-3.637,22.964-4.793,30.266
	c-6.854,43.275-22.418,64.348-55.216,99.957c-62.027,67.345-227.589,233.738-227.589,233.738l56.664,53.79L344.906,897.082
	l60.786,119.301l142.938-72.829l13.189,25.886l-142.937,72.83l14.337,28.137l-30.39,15.484l53.331,104.67l483.958-246.589
	l-21.218-41.645L961.984,880.375z"/>
</svg>
