<?xml version="1.0" encoding="utf-8"?>
<!-- Generator: Adobe Illustrator 16.0.0, SVG Export Plug-In . SVG Version: 6.00 Build 0)  -->
<!DOCTYPE svg PUBLIC "-//W3C//DTD SVG 1.1//EN" "http://www.w3.org/Graphics/SVG/1.1/DTD/svg11.dtd">
<svg version="1.1" id="Calque_1" xmlns="http://www.w3.org/2000/svg" xmlns:xlink="http://www.w3.org/1999/xlink" x="0px" y="0px"
	 width="1190.551px" height="1190.551px" viewBox="0 0 1190.551 1190.551" enable-background="new 0 0 1190.551 1190.551"
	 xml:space="preserve">
<g>
	<polygon fill="#010202" points="837.039,265.262 885.397,265.262 885.397,185.682 844.621,185.682 844.621,66.947 656.41,0 
		327.99,0 327.99,133.894 488.411,133.894 488.411,162.947 327.99,162.947 327.99,194.526 293.885,194.526 293.885,312 591.224,312 
		837.039,312 	"/>
	<path fill="#010202" d="M880.629,782.231l-13.166-7.603c0,0-18.119-9.282-34.758,9.02c35.328-48.94,56.158-109.038,56.158-174.009
		c0-164.382-133.258-297.64-297.639-297.64c-164.382,0-297.64,133.258-297.64,297.64c0,164.383,133.258,297.641,297.64,297.641
		c95.804,0,181.023-45.276,235.465-115.587c-0.414,0.664-0.826,1.342-1.234,2.049c0,0-50.609,87.657-67.032,116.101
		c-21.905,37.945-43.987,52.041-87.368,73.532c-82.041,40.643-296.238,136.654-296.238,136.654l33.625,70.521l300.409-139.408
		c0,0,70.832-28.798,102.353-83.392l79.135-137.064C890.336,830.686,910.442,799.443,880.629,782.231z"/>
</g>
</svg>
