<?xml version="1.0" encoding="utf-8"?>
<!-- Generator: Adobe Illustrator 16.0.0, SVG Export Plug-In . SVG Version: 6.00 Build 0)  -->
<!DOCTYPE svg PUBLIC "-//W3C//DTD SVG 1.1//EN" "http://www.w3.org/Graphics/SVG/1.1/DTD/svg11.dtd">
<svg version="1.1" id="Calque_1" xmlns="http://www.w3.org/2000/svg" xmlns:xlink="http://www.w3.org/1999/xlink" x="0px" y="0px"
	 width="1190.551px" height="1190.551px" viewBox="0 0 1190.551 1190.551" enable-background="new 0 0 1190.551 1190.551"
	 xml:space="preserve">
<path fill="#010202" d="M555.37,697.405c-53.373-92.445-148.851-145.405-248.224-148.687h236.01V501.98h48.355V422.4h-40.775
	V303.664l-5.29-1.881l44.262-64.381L318.775,46.944c0,0-60.355-46.943-123.396-46.943H37.11C37.11,0,0-1.79,0,32.636v15.201
	c0,0,1.341,26.825,37.557,26.825c0,0,101.218,0,134.062,0c43.813,0,67.062,12.075,107.363,38.898
	c76.181,50.704,266.273,188.085,266.462,188.221l-182.918-65.064H34.106v133.894h160.421v29.053H34.106v31.579H0v117.475h287.43
	c-47.261,1.575-94.831,14.447-138.644,39.742C6.428,670.652-42.348,852.685,39.843,995.044
	c82.19,142.359,264.225,191.135,406.583,108.943C588.785,1021.797,637.561,839.763,555.37,697.405z"/>
</svg>
