<?xml version="1.0" encoding="utf-8"?>
<!-- Generator: Adobe Illustrator 16.0.0, SVG Export Plug-In . SVG Version: 6.00 Build 0)  -->
<!DOCTYPE svg PUBLIC "-//W3C//DTD SVG 1.1//EN" "http://www.w3.org/Graphics/SVG/1.1/DTD/svg11.dtd">
<svg version="1.1" id="Calque_1" xmlns="http://www.w3.org/2000/svg" xmlns:xlink="http://www.w3.org/1999/xlink" x="0px" y="0px"
	 width="1190.551px" height="1190.551px" viewBox="0 0 1190.551 1190.551" enable-background="new 0 0 1190.551 1190.551"
	 xml:space="preserve">
<path fill="#010202" d="M670.838,841.286l-5.169-331.138c0,0,2.502-76.423-34.552-127.423l-93.028-128.042
	c0,0-20.363-31.075-48.215-10.84l-12.299,8.935c0,0-0.692,0.559-1.694,1.645l75.744-104.252l-37.812-27.473l28.422-39.119
	l-64.382-46.775l-23.965,32.987L357.829,0L193.041,112.914L0,378.613l108.323,78.702l94.292-129.784l23.505,17.077l-94.294,129.783
	l25.549,18.562l-20.048,27.592l94.93,68.972c-38.397,8.625-75.706,25.032-109.566,49.633
	c-132.988,96.621-162.469,282.756-65.848,415.744c96.621,132.987,282.757,162.469,415.744,65.848
	c90.725-65.916,133.258-173.489,120.464-277.43L670.838,841.286z M232.454,589.473l239.63-329.823
	c-4.258,7.511-7.443,20.964,5.865,39.281c0,0,59.494,81.886,78.8,108.458c25.753,35.446,29.648,61.354,31.637,109.724
	c3.523,85.74,4.263,297.32,4.342,323.528c-6.284-47.5-24.15-94.158-54.292-135.645C466.458,605.927,344.806,564.319,232.454,589.473
	z"/>
</svg>
