<?xml version="1.0" encoding="utf-8"?>
<!-- Generator: Adobe Illustrator 16.0.0, SVG Export Plug-In . SVG Version: 6.00 Build 0)  -->
<!DOCTYPE svg PUBLIC "-//W3C//DTD SVG 1.1//EN" "http://www.w3.org/Graphics/SVG/1.1/DTD/svg11.dtd">
<svg version="1.1" id="Calque_1" xmlns="http://www.w3.org/2000/svg" xmlns:xlink="http://www.w3.org/1999/xlink" x="0px" y="0px"
	 width="1190.551px" height="1190.551px" viewBox="0 0 1190.551 1190.551" enable-background="new 0 0 1190.551 1190.551"
	 xml:space="preserve">
<g>
	<polygon fill="#010202" points="543.156,265.262 591.512,265.262 591.512,185.682 550.737,185.682 550.737,66.947 362.527,0 
		34.106,0 34.106,133.894 194.527,133.894 194.527,162.947 34.106,162.947 34.106,194.526 0,194.526 0,312 297.34,312 543.156,312 	
		"/>
	<path fill="#010202" d="M586.746,782.231l-13.167-7.602c0,0-18.12-9.282-34.758,9.019c35.328-48.94,56.159-109.038,56.159-174.008
		C594.98,445.258,461.722,312,297.34,312S-0.3,445.258-0.3,609.64s133.258,297.64,297.64,297.64
		c95.805,0,181.024-45.276,235.465-115.587c-0.414,0.664-0.826,1.342-1.234,2.049c0,0-50.609,87.657-67.031,116.101
		c-21.906,37.945-43.988,52.041-87.369,73.532c-82.041,40.643-296.238,136.654-296.238,136.654l33.625,70.522l300.409-139.408
		c0,0,70.832-28.798,102.353-83.392l79.134-137.065C596.452,830.686,616.558,799.443,586.746,782.231z"/>
</g>
</svg>
