<?xml version="1.0" encoding="utf-8"?>
<!-- Generator: Adobe Illustrator 16.0.0, SVG Export Plug-In . SVG Version: 6.00 Build 0)  -->
<!DOCTYPE svg PUBLIC "-//W3C//DTD SVG 1.1//EN" "http://www.w3.org/Graphics/SVG/1.1/DTD/svg11.dtd">
<svg version="1.1" id="Calque_1" xmlns="http://www.w3.org/2000/svg" xmlns:xlink="http://www.w3.org/1999/xlink" x="0px" y="0px"
	 width="1190.551px" height="1190.551px" viewBox="0 0 1190.551 1190.551" enable-background="new 0 0 1190.551 1190.551"
	 xml:space="preserve">
<path fill="#010202" d="M395.054,95.438c43.274,6.854,64.349,22.419,99.957,55.216C562.355,212.68,728.75,378.241,728.75,378.241
	l53.788-56.665L544.736,91.08c0,0-52.27-55.808-114.533-65.668L273.882,0.654c0,0-36.374-7.574-41.759,26.428l-2.378,15.015
	c0,0-1.608,14.979,12.611,24.881L150.171,0l-27.473,37.812L83.579,9.39L36.803,73.771L69.79,97.738L0,193.796l112.914,164.789
	l265.313,192.761c-116.562-32.893-246.337,7.863-321.683,111.566c-96.621,132.988-67.141,319.123,65.848,415.744
	s319.123,67.141,415.744-65.847c96.621-132.988,67.141-319.123-65.848-415.745c-29.138-21.17-60.829-36.285-93.569-45.585
	l78.595-108.177L327.531,349.01l17.077-23.504L474.391,419.8l18.562-25.55l27.592,20.048l69.05-95.038L242.423,67.025
	c4.76,3.297,11.284,6.026,20.22,7.441C262.643,74.466,362.615,90.3,395.054,95.438z"/>
</svg>
