<?xml version="1.0" encoding="utf-8"?>
<!-- Generator: Adobe Illustrator 16.0.0, SVG Export Plug-In . SVG Version: 6.00 Build 0)  -->
<!DOCTYPE svg PUBLIC "-//W3C//DTD SVG 1.1//EN" "http://www.w3.org/Graphics/SVG/1.1/DTD/svg11.dtd">
<svg version="1.1" id="Calque_1" xmlns="http://www.w3.org/2000/svg" xmlns:xlink="http://www.w3.org/1999/xlink" x="0px" y="0px"
	 width="1190.551px" height="1190.551px" viewBox="0 0 1190.551 1190.551" enable-background="new 0 0 1190.551 1190.551"
	 xml:space="preserve">
<path fill="#010202" d="M860.475,752.21c-21.446-42.09-51.542-76.876-87.005-103.335l76.608-14.187l-56.904-326.254
	c0,0-9.484-75.872-54.061-120.449L627.198,76.073c0,0-24.974-27.507-49.315-3.163l-10.75,10.749c0,0-9.587,10.603-4.83,26.28
	l-23.681-72.882L494.171,51.5L479.228,5.513l-75.686,24.592l12.601,38.777L303.22,105.575l-5.511,199.685l101.486,312.347
	l127.342-41.375l-49.573-152.57l27.631-8.978l49.573,152.569l30.033-9.758l10.445,32.147
	c-45.335,0.059-91.339,10.502-134.498,32.493c-146.465,74.629-204.699,253.861-130.072,400.326
	c74.628,146.465,253.858,204.701,400.323,130.073C876.865,1077.907,935.102,898.675,860.475,752.21z M595.663,589.633
	l110.802-36.002l-143.72-442.327c1.916,5.458,5.587,11.491,11.975,17.878c0,0,71.572,71.572,94.797,94.796
	c30.98,30.981,38.881,55.96,48.411,103.424c17.706,88.174,54.009,313.326,55.292,321.288
	C721.961,610.529,659.508,589.768,595.663,589.633z"/>
</svg>
