<?xml version="1.0" encoding="utf-8"?>
<!-- Generator: Adobe Illustrator 16.0.0, SVG Export Plug-In . SVG Version: 6.00 Build 0)  -->
<!DOCTYPE svg PUBLIC "-//W3C//DTD SVG 1.1//EN" "http://www.w3.org/Graphics/SVG/1.1/DTD/svg11.dtd">
<svg version="1.1" id="Calque_1" xmlns="http://www.w3.org/2000/svg" xmlns:xlink="http://www.w3.org/1999/xlink" x="0px" y="0px"
	 width="1190.551px" height="1190.551px" viewBox="0 0 1190.551 1190.551" enable-background="new 0 0 1190.551 1190.551"
	 xml:space="preserve">
<path fill="#010202" d="M714.238,57.597h-15.202c0,0-26.825,1.342-26.825,37.557c0,0,0,101.218,0,134.062
	c0,43.813-12.074,67.062-38.897,107.363c-50.73,76.219-188.223,266.464-188.223,266.464l64.378,44.262l-146.942-52.268H305.95
	c160.538-4.402,289.329-135.917,289.329-297.519c0-164.382-133.258-297.641-297.64-297.641S0,133.137,0,297.519
	c0,161.602,128.791,293.117,289.329,297.519H34.106v133.894h160.421v29.053H34.106v31.579H0v117.476h543.156v-46.739h48.355v-79.58
	h-40.775V661.984l-41.264-14.678L699.93,376.371c0,0,46.942-60.355,46.942-123.396V94.706
	C746.872,94.706,748.662,57.597,714.238,57.597z"/>
</svg>
