<?xml version="1.0" encoding="utf-8"?>
<!-- Generator: Adobe Illustrator 16.0.0, SVG Export Plug-In . SVG Version: 6.00 Build 0)  -->
<!DOCTYPE svg PUBLIC "-//W3C//DTD SVG 1.1//EN" "http://www.w3.org/Graphics/SVG/1.1/DTD/svg11.dtd">
<svg version="1.1" id="Calque_1" xmlns="http://www.w3.org/2000/svg" xmlns:xlink="http://www.w3.org/1999/xlink" x="0px" y="0px"
	 width="1190.551px" height="1190.551px" viewBox="0 0 1190.551 1190.551" enable-background="new 0 0 1190.551 1190.551"
	 xml:space="preserve">
<path fill="#010202" d="M930.705,847.758l-5.169-331.138c0,0,2.502-76.423-34.553-127.423l-93.027-128.042
	c0,0-20.363-31.075-48.216-10.84l-12.299,8.935c0,0-0.691,0.559-1.693,1.645l75.744-104.252L773.68,129.17l28.422-39.119
	L737.72,43.276l-23.965,32.987L617.697,6.472L452.909,119.386L259.868,385.085l108.322,78.702l94.292-129.784l23.506,17.077
	l-94.294,129.783l25.549,18.562l-20.048,27.592l94.93,68.972c-38.397,8.624-75.706,25.031-109.566,49.633
	c-132.987,96.621-162.469,282.756-65.848,415.743s282.756,162.47,415.744,65.849c90.725-65.916,133.258-173.489,120.464-277.431
	L930.705,847.758z M492.322,595.945l239.629-329.823c-4.259,7.511-7.443,20.964,5.864,39.281c0,0,59.494,81.886,78.8,108.458
	c25.754,35.446,29.648,61.354,31.638,109.724c3.522,85.74,4.263,297.319,4.342,323.527c-6.284-47.5-24.15-94.157-54.292-135.645
	C726.324,612.398,604.673,570.791,492.322,595.945z"/>
</svg>
