<?xml version="1.0" encoding="utf-8"?>
<!-- Generator: Adobe Illustrator 16.0.0, SVG Export Plug-In . SVG Version: 6.00 Build 0)  -->
<!DOCTYPE svg PUBLIC "-//W3C//DTD SVG 1.1//EN" "http://www.w3.org/Graphics/SVG/1.1/DTD/svg11.dtd">
<svg version="1.1" id="Calque_1" xmlns="http://www.w3.org/2000/svg" xmlns:xlink="http://www.w3.org/1999/xlink" x="0px" y="0px"
	 width="1190.551px" height="1190.551px" viewBox="0 0 1190.551 1190.551" enable-background="new 0 0 1190.551 1190.551"
	 xml:space="preserve">
<path fill="#010202" d="M562.766,746.697c-21.446-42.09-51.542-76.876-87.005-103.335l76.609-14.186l-56.905-326.254
	c0,0-9.484-75.872-54.06-120.449L329.49,70.56c0,0-24.974-27.507-49.316-3.163l-10.75,10.749c0,0-9.587,10.603-4.83,26.28
	l-23.681-72.882l-44.451,14.443L181.519,0l-75.686,24.592l12.601,38.777L5.511,100.062L0,299.747l101.487,312.347l127.341-41.375
	l-49.573-152.57l27.631-8.978l49.573,152.569l30.033-9.758l10.446,32.147c-45.335,0.059-91.339,10.502-134.498,32.493
	C15.975,691.251-42.26,870.483,32.367,1016.948c74.628,146.465,253.859,204.701,400.324,130.073
	C579.157,1072.394,637.393,893.162,562.766,746.697z M297.954,584.12l110.802-36.002l-143.72-442.327
	c1.916,5.458,5.587,11.491,11.975,17.878c0,0,71.572,71.572,94.797,94.796c30.98,30.981,38.881,55.96,48.411,103.424
	c17.706,88.174,54.009,313.326,55.292,321.288C424.252,605.017,361.799,584.255,297.954,584.12z"/>
</svg>
