<?xml version="1.0" encoding="utf-8"?>
<!-- Generator: Adobe Illustrator 16.0.0, SVG Export Plug-In . SVG Version: 6.00 Build 0)  -->
<!DOCTYPE svg PUBLIC "-//W3C//DTD SVG 1.1//EN" "http://www.w3.org/Graphics/SVG/1.1/DTD/svg11.dtd">
<svg version="1.1" id="Calque_1" xmlns="http://www.w3.org/2000/svg" xmlns:xlink="http://www.w3.org/1999/xlink" x="0px" y="0px"
	 width="1190.551px" height="1190.551px" viewBox="0 0 1190.551 1190.551" enable-background="new 0 0 1190.551 1190.551"
	 xml:space="preserve">
<path fill="#010202" d="M955.296,781.35c0,0-101.218,0-134.062,0c-43.812,0-67.062-12.076-107.363-38.899
	c-74.47-49.564-257.79-181.954-266.167-188.006c34.602-20.17,65.681-47.674,90.733-82.155
	c96.621-132.988,67.14-319.123-65.848-415.744S153.466-10.595,56.845,122.393c-96.621,132.987-67.141,319.123,65.848,415.744
	c76.289,55.427,170.063,69.34,254.401,46.037l-107.649,78.211l94.294,129.782l-23.506,17.076L245.94,679.46l-25.548,18.562
	l-20.046-27.591l-95.039,69.05l319.259,439.422l37.812-27.472l28.422,39.12l64.381-46.777l-23.966-32.985l96.059-69.791
	l-56.465-191.616L403.143,618.61l270.933,190.458c0,0,60.356,46.944,123.396,46.944h158.27c0,0,37.109,1.79,37.109-32.635v-15.202
	C992.852,808.175,991.511,781.35,955.296,781.35z M377.954,583.941c23.98-6.703,47.184-16.425,69-29.057l-43.811,63.726
	L377.954,583.941z"/>
</svg>
