<?xml version="1.0" encoding="utf-8"?>
<!-- Generator: Adobe Illustrator 16.0.0, SVG Export Plug-In . SVG Version: 6.00 Build 0)  -->
<!DOCTYPE svg PUBLIC "-//W3C//DTD SVG 1.1//EN" "http://www.w3.org/Graphics/SVG/1.1/DTD/svg11.dtd">
<svg version="1.1" id="Calque_1" xmlns="http://www.w3.org/2000/svg" xmlns:xlink="http://www.w3.org/1999/xlink" x="0px" y="0px"
	 width="1190.551px" height="1190.551px" viewBox="0 0 1190.551 1190.551" enable-background="new 0 0 1190.551 1190.551"
	 xml:space="preserve">
<path fill="#010202" d="M599.222,122.985c43.273,6.854,64.349,22.419,99.957,55.216c67.344,62.026,233.739,227.587,233.739,227.587
	l53.787-56.665L748.904,118.627c0,0-52.27-55.808-114.533-65.668L478.05,28.201c0,0-36.374-7.574-41.759,26.428l-2.378,15.015
	c0,0-1.608,14.979,12.61,24.881l-92.185-66.978l-27.473,37.812l-39.119-28.422l-46.776,64.381l32.987,23.967l-69.79,96.058
	l112.914,164.789l265.312,192.761C465.833,546,336.057,586.756,260.712,690.46c-96.621,132.988-67.142,319.123,65.848,415.744
	s319.124,67.141,415.745-65.848c96.621-132.987,67.141-319.123-65.849-415.744c-29.138-21.171-60.828-36.286-93.569-45.586
	l78.595-108.177l-129.784-94.292l17.077-23.504l129.784,94.294l18.562-25.55l27.593,20.048l69.05-95.038L446.591,94.572
	c4.76,3.297,11.284,6.026,20.22,7.441C466.81,102.013,566.782,117.847,599.222,122.985z"/>
</svg>
