<?xml version="1.0" encoding="utf-8"?>
<!-- Generator: Adobe Illustrator 16.0.0, SVG Export Plug-In . SVG Version: 6.00 Build 0)  -->
<!DOCTYPE svg PUBLIC "-//W3C//DTD SVG 1.1//EN" "http://www.w3.org/Graphics/SVG/1.1/DTD/svg11.dtd">
<svg version="1.1" id="Calque_1" xmlns="http://www.w3.org/2000/svg" xmlns:xlink="http://www.w3.org/1999/xlink" x="0px" y="0px"
	 width="1190.551px" height="1190.551px" viewBox="0 0 1190.551 1190.551" enable-background="new 0 0 1190.551 1190.551"
	 xml:space="preserve">
<g>
	<path fill="#010202" d="M562.763,682.475c-51.16-100.408-151.481-159.341-256.703-162.439h1.642v-17.931h39.451v17.931h39.449
		v-17.931h42.654v17.931h39.449v-17.931h40.348v17.931h39.453v-17.931h23.535v-28.63h21.518V432.23h-21.518v-28.164h21.518v-41.243
		h-21.518v-34.886h21.518v-41.246h-21.518v-35.638h21.518v-41.244h-21.518v-32.28h21.518v-41.242h-21.518v-34.072h21.518V60.97
		h-21.518V17.932h-23.535V0h-39.453v17.932h-40.348V0h-39.449v17.932h-42.654V0h-39.449v17.932h-39.451V0H268.25v17.932h-42.588V0
		h-39.453v17.932h-36.986V0h-39.451v17.932H77.496V0H38.043v17.932H19.725V60.97H0v41.244h19.725v34.072H0v41.242h19.725v32.28H0
		v41.244h19.725v35.638H0v41.246h19.725v34.886H0v41.243h19.725v28.164H0v41.245h19.725v28.63h18.318v17.931h39.453v-17.931h32.275
		v17.931h39.451v-17.931h36.986v17.931h39.453v-17.931h42.588v17.931h20.6c-42.705,1.221-85.816,11.682-126.412,32.366
		C15.973,627.029-42.262,806.261,32.365,952.726c74.627,146.466,253.859,204.701,400.324,130.073
		C579.156,1008.171,637.391,828.94,562.763,682.475z"/>
	<path fill="#010202" d="M926.14,614.237L661.281,813.054c0,0-63.298,42.896-82.778,102.852l-48.908,150.522
		c0,0-13.17,34.74,19.57,45.378l14.458,4.698c0,0,25.927,7.014,37.118-27.428c0,0,31.277-96.264,41.427-127.501
		c13.539-41.668,32.209-60.049,70.173-90.088c71.798-56.812,261.351-195.261,261.351-195.261L926.14,614.237z"/>
</g>
</svg>
