<?xml version="1.0" encoding="utf-8"?>
<!-- Generator: Adobe Illustrator 16.0.0, SVG Export Plug-In . SVG Version: 6.00 Build 0)  -->
<!DOCTYPE svg PUBLIC "-//W3C//DTD SVG 1.1//EN" "http://www.w3.org/Graphics/SVG/1.1/DTD/svg11.dtd">
<svg version="1.1" id="Calque_1" xmlns="http://www.w3.org/2000/svg" xmlns:xlink="http://www.w3.org/1999/xlink" x="0px" y="0px"
	 width="1190.551px" height="1190.551px" viewBox="0 0 1190.551 1190.551" enable-background="new 0 0 1190.551 1190.551"
	 xml:space="preserve">
<g>
	<path fill="#010202" d="M595.28,817.375c0-161.013-127.857-292.144-287.578-297.452v-17.818h39.451v17.931h39.449v-17.931h42.654
		v17.931h39.449v-17.931h40.348v17.931h39.453v-17.931h23.535v-28.63h21.518V432.23h-21.518v-28.164h21.518v-41.243h-21.518v-34.886
		h21.518v-41.246h-21.518v-35.638h21.518v-41.244h-21.518v-32.28h21.518v-41.242h-21.518v-34.072h21.518V60.97h-21.518V17.932
		h-23.535V0h-39.453v17.932h-40.348V0h-39.449v17.932h-42.654V0h-39.449v17.932h-39.451V0H268.25v17.932h-42.588V0h-39.453v17.932
		h-36.986V0h-39.451v17.932H77.496V0H38.043v17.932H19.725V60.97H0v41.244h19.725v34.072H0v41.242h19.725v32.28H0v41.244h19.725
		v35.638H0v41.246h19.725v34.886H0v41.243h19.725v28.164H0v41.245h19.725v28.63h18.318v17.931h39.453v-17.931h32.275v17.931h39.451
		v-17.931h36.986v17.931h39.453v-17.931h42.588v17.931h16.375C126.284,526.85,0,657.356,0,817.375
		c0,164.382,133.258,297.64,297.64,297.64S595.28,981.757,595.28,817.375z"/>
	<path fill="#010202" d="M698.828,600.841h-15.202c0,0-26.825,1.341-26.825,37.556c0,0,0,101.218,0,134.062
		c0,43.812-12.076,67.062-38.897,107.362c-50.73,76.221-188.224,266.467-188.224,266.467l64.381,44.263L684.52,919.615
		c0,0,46.943-60.355,46.943-123.396V637.949C731.463,637.949,733.253,600.841,698.828,600.841z"/>
</g>
</svg>
