<?xml version="1.0" encoding="utf-8"?>
<!-- Generator: Adobe Illustrator 16.0.0, SVG Export Plug-In . SVG Version: 6.00 Build 0)  -->
<!DOCTYPE svg PUBLIC "-//W3C//DTD SVG 1.1//EN" "http://www.w3.org/Graphics/SVG/1.1/DTD/svg11.dtd">
<svg version="1.1" id="Calque_1" xmlns="http://www.w3.org/2000/svg" xmlns:xlink="http://www.w3.org/1999/xlink" x="0px" y="0px"
	 width="1190.551px" height="1190.551px" viewBox="0 0 1190.551 1190.551" enable-background="new 0 0 1190.551 1190.551"
	 xml:space="preserve">
<path fill="#010202" d="M497.929,595.756c-96.456,0-182.179,45.896-236.568,117.025c36.467-51.05,65.685-91.478,65.685-91.478
	l-64.382-44.263l-11.611,16.518v-19.725h35.638v19.725h41.246v-19.725h34.886v19.725h41.243v-19.725h28.164v19.725h41.245v-19.725
	h28.63v-18.318h17.93v-39.453h-17.93v-32.275h17.93v-39.451h-17.93V407.35h17.93v-39.453h-17.93v-42.588h17.93v-39.451h-17.93
	v-39.452h17.93v-39.448h-17.93v-42.653h17.93v-39.451h-17.93V84.506h17.93V45.054h-17.93V21.518h-28.63V0H432.23v21.518h-28.164V0
	h-41.243v21.518h-34.886V0h-41.246v21.518h-35.638V0h-41.244v21.518h-32.28V0h-41.242v21.518h-34.072V0H60.97v21.518H17.932v23.536
	H0v39.452h17.932v40.347H0v39.451h17.932v42.653H0v39.448h17.932v39.452H0v39.451h17.932v42.588H0v39.453h17.932v36.986H0v39.451
	h17.932v32.275H0v39.453h17.932v18.318H60.97v19.725h41.244v-19.725h34.072v19.725h41.242v-19.725h32.28v19.725h41.244
	L72.206,847.975c0,0-46.943,60.355-46.943,123.396v158.271c0,0-1.79,37.108,32.636,37.108H73.1c0,0,26.825-1.341,26.825-37.556
	c0,0,0-101.218,0-134.062c0-43.813,12.075-67.063,38.898-107.364c24.934-37.461,70.826-102.467,111.053-158.893
	c-31.323,47.131-49.587,103.689-49.587,164.521c0,164.382,133.258,297.64,297.64,297.64s297.641-133.258,297.641-297.64
	C795.57,729.014,662.311,595.756,497.929,595.756z"/>
</svg>
