<?xml version="1.0" encoding="utf-8"?>
<!-- Generator: Adobe Illustrator 16.0.0, SVG Export Plug-In . SVG Version: 6.00 Build 0)  -->
<!DOCTYPE svg PUBLIC "-//W3C//DTD SVG 1.1//EN" "http://www.w3.org/Graphics/SVG/1.1/DTD/svg11.dtd">
<svg version="1.1" id="Calque_1" xmlns="http://www.w3.org/2000/svg" xmlns:xlink="http://www.w3.org/1999/xlink" x="0px" y="0px"
	 width="1190.551px" height="1190.551px" viewBox="0 0 1190.551 1190.551" enable-background="new 0 0 1190.551 1190.551"
	 xml:space="preserve">
<g>
	<polygon fill="#010202" points="384.596,572.896 416.876,572.896 416.876,594.415 458.119,594.415 458.119,572.896 
		492.191,572.896 492.191,594.415 533.435,594.415 533.435,572.896 571.033,572.896 576.473,572.896 576.473,549.36 594.404,549.36 
		594.404,509.909 576.473,509.909 576.473,469.562 594.404,469.562 594.404,430.11 576.473,430.11 576.473,387.458 594.404,387.458 
		594.404,348.008 576.473,348.008 576.473,308.557 594.404,308.557 594.404,269.105 576.473,269.105 576.473,226.518 
		594.404,226.518 594.404,187.064 576.473,187.064 576.473,150.079 594.404,150.079 594.404,110.627 576.473,110.627 
		576.473,78.352 594.404,78.352 594.404,38.898 576.473,38.898 576.473,20.581 533.435,20.581 533.435,0.855 492.191,0.855 
		492.191,20.581 458.119,20.581 458.119,0.855 416.876,0.855 416.876,20.581 384.596,20.581 384.596,0.855 343.352,0.855 
		343.352,20.581 307.714,20.581 307.714,0.855 266.468,0.855 266.468,20.581 231.582,20.581 231.582,0.855 190.339,0.855 
		190.339,20.581 162.175,20.581 162.175,0.855 120.93,0.855 120.93,20.581 92.3,20.581 92.3,38.898 74.37,38.898 74.37,78.352 
		92.3,78.352 92.3,110.627 74.37,110.627 74.37,150.079 92.3,150.079 92.3,187.064 74.37,187.064 74.37,226.518 92.3,226.518 
		92.3,269.105 74.37,269.105 74.37,308.557 92.3,308.557 92.3,348.008 74.37,348.008 74.37,387.458 92.3,387.458 92.3,430.11 
		74.37,430.11 74.37,469.562 92.3,469.562 92.3,509.909 74.37,509.909 74.37,549.36 92.3,549.36 92.3,572.896 120.93,572.896 
		120.93,594.415 162.175,594.415 162.175,572.896 190.339,572.896 190.339,594.415 231.582,594.415 231.582,572.896 
		266.468,572.896 266.468,594.415 307.714,594.415 307.714,572.896 343.352,572.896 343.352,594.415 371.71,594.415 
		384.596,594.415 	"/>
	<path fill="#010202" d="M1078.924,800.017c0,0-101.218,0-134.062,0c-43.812,0-67.062-12.074-107.363-38.897
		c-76.218-50.729-266.465-188.223-266.465-188.223l-44.264,64.382l11.071,7.782c-47.449-31.979-104.609-50.646-166.131-50.646
		c-164.382,0-297.64,133.258-297.64,297.64c0,164.383,133.258,297.641,297.64,297.641s297.64-133.258,297.64-297.641
		c0-98.991-48.339-186.679-122.686-240.791l251.042,176.474c0,0,60.354,46.942,123.396,46.942h158.271
		c0,0,37.107,1.79,37.107-32.635v-15.202C1116.48,826.843,1115.139,800.017,1078.924,800.017z"/>
</g>
</svg>
