<?xml version="1.0" encoding="utf-8"?>
<!-- Generator: Adobe Illustrator 16.0.0, SVG Export Plug-In . SVG Version: 6.00 Build 0)  -->
<!DOCTYPE svg PUBLIC "-//W3C//DTD SVG 1.1//EN" "http://www.w3.org/Graphics/SVG/1.1/DTD/svg11.dtd">
<svg version="1.1" id="Calque_1" xmlns="http://www.w3.org/2000/svg" xmlns:xlink="http://www.w3.org/1999/xlink" x="0px" y="0px"
	 width="1190.551px" height="1190.551px" viewBox="0 0 1190.551 1190.551" enable-background="new 0 0 1190.551 1190.551"
	 xml:space="preserve">
<g>
	<path fill="#010202" d="M824.816,817.375c0-161.013-127.856-292.144-287.577-297.452v-17.818h39.45v17.931h39.449v-17.931h42.654
		v17.931h39.448v-17.931h40.349v17.931h39.453v-17.931h23.534v-28.63h21.519V432.23h-21.519v-28.164h21.519v-41.243h-21.519v-34.886
		h21.519v-41.246h-21.519v-35.638h21.519v-41.244h-21.519v-32.28h21.519v-41.242h-21.519v-34.072h21.519V60.97h-21.519V17.932
		h-23.534V0h-39.453v17.932H698.24V0h-39.448v17.932h-42.654V0h-39.449v17.932h-39.45V0h-39.452v17.932h-42.588V0h-39.453v17.932
		h-36.986V0h-39.451v17.932h-32.275V0h-39.453v17.932h-18.318V60.97h-19.725v41.244h19.725v34.072h-19.725v41.242h19.725v32.28
		h-19.725v41.244h19.725v35.638h-19.725v41.246h19.725v34.886h-19.725v41.243h19.725v28.164h-19.725v41.245h19.725v28.63h18.318
		v17.931h39.453v-17.931h32.274v17.931h39.451v-17.931h36.986v17.931h39.453v-17.931h42.588v17.931h16.375
		c-158.34,6.815-284.624,137.321-284.624,297.34c0,164.382,133.258,297.64,297.64,297.64S824.816,981.757,824.816,817.375z"/>
	<path fill="#010202" d="M928.364,600.841h-15.202c0,0-26.824,1.341-26.824,37.556c0,0,0,101.219,0,134.062
		c0,43.812-12.076,67.062-38.897,107.362c-50.729,76.221-188.224,266.467-188.224,266.467l64.381,44.263l190.459-270.936
		c0,0,46.943-60.355,46.943-123.396v-158.27C960.999,637.949,962.789,600.841,928.364,600.841z"/>
</g>
</svg>
