<?xml version="1.0" encoding="utf-8"?>
<!-- Generator: Adobe Illustrator 16.0.0, SVG Export Plug-In . SVG Version: 6.00 Build 0)  -->
<!DOCTYPE svg PUBLIC "-//W3C//DTD SVG 1.1//EN" "http://www.w3.org/Graphics/SVG/1.1/DTD/svg11.dtd">
<svg version="1.1" id="Calque_1" xmlns="http://www.w3.org/2000/svg" xmlns:xlink="http://www.w3.org/1999/xlink" x="0px" y="0px"
	 width="1190.551px" height="1190.551px" viewBox="0 0 1190.551 1190.551" enable-background="new 0 0 1190.551 1190.551"
	 xml:space="preserve">
<path fill="#010202" d="M1063.989,796.135l9.978-40.02l-20.879-5.205l10.412-41.761l-22.837-5.692l4.339-17.399l-38.278-9.544
	l-4.341,17.398l-39.147-9.762l4.338-17.398l-38.277-9.543l-4.34,17.397l-41.386-10.317l4.338-17.399l-38.275-9.543l-4.34,17.398
	l-38.279-9.544l4.34-17.399l-38.279-9.544l-4.338,17.398l-41.323-10.303l4.337-17.398l-38.281-9.545l-4.338,17.398l-35.888-8.947
	l4.34-17.399l-38.278-9.543l-4.339,17.398l-31.316-7.809l4.338-17.398l-38.091-9.497
	c100.884-51.547,164.748-157.362,161.982-271.865l2.269,44.863c0,0,0.169,76.463,38.979,126.138l97.438,124.719
	c0,0,21.438,30.345,48.564,9.151l11.979-9.359c0,0,20.312-17.571-1.983-46.109c0,0-62.314-79.761-82.536-105.643
	c-26.975-34.525-31.771-60.281-35.446-108.553c-6.949-91.292-15.732-325.859-15.732-325.859l-77.98,4.758l13.652,270.111
	c-1.009-13.02-2.871-26.123-5.66-39.245C671.244,74.93,513.193-27.71,352.403,6.467C191.613,40.644,88.973,198.696,123.15,359.486
	s192.229,263.43,353.019,229.253c26.152-5.559,50.755-14.414,73.492-26.006l-4.295,17.233l-17.773-4.433l-10.411,41.76
	l-19.142-4.771l-9.978,40.019l19.14,4.771l-8.242,33.062l-19.14-4.772l-9.979,40.021l19.141,4.771l-7.811,31.321l-19.139-4.771
	l-9.979,40.02l19.14,4.771l-8.623,34.58l-19.138-4.771l-9.979,40.021l19.141,4.772l-8.439,33.85l-19.139-4.771l-9.979,40.019
	l19.139,4.771l-6.813,27.328l-19.138-4.771l-9.979,40.02l19.141,4.772l-6.928,27.779l17.774,4.432l-4.337,17.397l38.281,9.545
	l4.337-17.397l31.316,7.808l-4.338,17.397l38.279,9.544l4.337-17.396l35.889,8.947l-4.339,17.397l38.281,9.544l4.339-17.396
	l41.321,10.303l-4.337,17.397l38.278,9.544l4.337-17.396l38.28,9.543l-4.338,17.397l38.276,9.544l4.339-17.396l41.386,10.317
	l-4.337,17.397l38.278,9.544l4.338-17.397l39.147,9.761l-4.338,17.397l38.28,9.545l4.338-17.396l22.837,5.692l6.926-27.779
	l20.879,5.206l9.979-40.021l-20.879-5.205l6.812-27.328l20.879,5.206l9.979-40.018l-20.879-5.206l8.438-33.851l20.879,5.206
	l9.979-40.021l-20.879-5.205l8.622-34.579l20.879,5.205l9.979-40.019l-20.88-5.206l7.811-31.321l20.878,5.206l9.978-40.02
	l-20.879-5.205l8.243-33.061L1063.989,796.135z"/>
</svg>
