<?xml version="1.0" encoding="utf-8"?>
<!-- Generator: Adobe Illustrator 16.0.0, SVG Export Plug-In . SVG Version: 6.00 Build 0)  -->
<!DOCTYPE svg PUBLIC "-//W3C//DTD SVG 1.1//EN" "http://www.w3.org/Graphics/SVG/1.1/DTD/svg11.dtd">
<svg version="1.1" id="Calque_1" xmlns="http://www.w3.org/2000/svg" xmlns:xlink="http://www.w3.org/1999/xlink" x="0px" y="0px"
	 width="1190.551px" height="1190.551px" viewBox="0 0 1190.551 1190.551" enable-background="new 0 0 1190.551 1190.551"
	 xml:space="preserve">
<path fill="#010202" d="M947.31,796.039l9.978-40.019l-20.879-5.206l10.412-41.76l-22.837-5.693l4.339-17.399l-38.279-9.544
	l-4.34,17.398l-39.148-9.761l4.338-17.399l-38.277-9.543l-4.34,17.398l-41.386-10.318l4.338-17.399l-38.275-9.543l-4.34,17.398
	l-38.28-9.544l4.34-17.399l-38.279-9.544l-4.338,17.399l-41.323-10.303l4.337-17.399l-38.281-9.545l-4.338,17.399l-35.888-8.947
	l4.34-17.4l-38.279-9.543l-4.338,17.399l-31.317-7.81l4.338-17.398l-38.091-9.497C534.102,510.97,597.965,405.155,595.2,290.652
	l2.268,44.863c0,0,0.169,76.463,38.979,126.138l97.438,124.719c0,0,21.438,30.346,48.565,9.151l11.979-9.359
	c0,0,20.313-17.571-1.983-46.109c0,0-62.315-79.761-82.536-105.643c-26.975-34.525-31.772-60.281-35.447-108.553
	C667.514,234.567,658.731,0,658.731,0l-77.981,4.758l13.653,270.111c-1.009-13.02-2.871-26.123-5.66-39.245
	C554.566,74.834,396.514-27.806,235.724,6.371C74.934,40.548-27.706,198.6,6.471,359.39S198.699,622.82,359.49,588.643
	c26.152-5.559,50.754-14.414,73.492-26.006l-4.295,17.233l-17.774-4.433l-10.411,41.76l-19.141-4.771l-9.978,40.018l19.14,4.771
	l-8.242,33.061l-19.14-4.772l-9.979,40.02l19.141,4.771l-7.811,31.321l-19.138-4.771l-9.979,40.019l19.14,4.771l-8.623,34.58
	l-19.138-4.772l-9.979,40.021l19.14,4.772l-8.439,33.85l-19.139-4.772l-9.978,40.019l19.138,4.771l-6.813,27.328l-19.138-4.772
	l-9.979,40.02l19.14,4.772l-6.927,27.779l17.774,4.432l-4.337,17.397l38.281,9.545l4.337-17.397l31.317,7.808l-4.338,17.397
	l38.279,9.544l4.337-17.397l35.889,8.948l-4.339,17.397l38.281,9.544l4.339-17.396l41.321,10.303l-4.336,17.397l38.278,9.544
	l4.337-17.397l38.28,9.544l-4.338,17.397l38.277,9.544l4.338-17.397l41.386,10.318l-4.337,17.397l38.278,9.544l4.338-17.397
	l39.148,9.761l-4.338,17.397l38.28,9.545l4.338-17.397l22.837,5.693l6.926-27.779l20.879,5.206l9.979-40.021l-20.879-5.205
	l6.813-27.328l20.879,5.206l9.978-40.018l-20.879-5.206l8.439-33.85l20.879,5.206l9.979-40.021l-20.879-5.205l8.622-34.579
	l20.879,5.205l9.979-40.019l-20.88-5.206l7.81-31.321l20.878,5.206l9.978-40.019l-20.879-5.205l8.243-33.061L947.31,796.039z"/>
</svg>
