<?xml version="1.0" encoding="utf-8"?>
<!-- Generator: Adobe Illustrator 16.0.0, SVG Export Plug-In . SVG Version: 6.00 Build 0)  -->
<!DOCTYPE svg PUBLIC "-//W3C//DTD SVG 1.1//EN" "http://www.w3.org/Graphics/SVG/1.1/DTD/svg11.dtd">
<svg version="1.1" id="Calque_1" xmlns="http://www.w3.org/2000/svg" xmlns:xlink="http://www.w3.org/1999/xlink" x="0px" y="0px"
	 width="1190.551px" height="1190.551px" viewBox="0 0 1190.551 1190.551" enable-background="new 0 0 1190.551 1190.551"
	 xml:space="preserve">
<g>
	<path fill="#010202" d="M473.711,501.956l-12.604,17.93v-17.93H473.711h29.983v17.931h39.451v-17.931h39.45v17.931h39.45v-17.931
		h42.654v17.931h39.447v-17.931h40.35v17.931h39.453v-17.931h23.533v-28.63h21.52v-41.245h-21.52v-28.164h21.52v-41.243h-21.52
		v-34.886h21.52v-41.246h-21.52v-35.638h21.52V209.66h-21.52v-32.28h21.52v-41.242h-21.52v-34.072h21.52V60.82h-21.52V17.783
		h-23.533V-0.149h-39.453v17.932h-40.35V-0.149h-39.447v17.932h-42.654V-0.149h-39.45v17.932h-39.45V-0.149h-39.451v17.932h-42.588
		V-0.149h-39.453v17.932h-36.986V-0.149h-39.451v17.932H312.94V-0.149h-39.453v17.932h-18.318V60.82h-19.725v41.244h19.725v34.072
		h-19.725v41.242h19.725v32.28h-19.725v41.244h19.725v35.638h-19.725v41.246h19.725v34.886h-19.725v41.243h19.725v28.164h-19.725
		v41.245h19.725v28.63h18.318v17.931h39.453v-17.931h32.274v17.931h39.451v-17.931h36.986v17.931h39.453L283.253,772.889
		c0,0-46.942,60.356-46.942,123.396v158.27c0,0-1.79,37.109,32.635,37.109h15.202c0,0,26.823-1.341,26.823-37.556
		c0,0,0-101.22,0-134.062c0-43.812,12.076-67.062,38.899-107.364c50.729-76.218,188.222-266.465,188.222-266.465L473.711,501.956z"
		/>
	<circle fill="#010202" cx="657.467" cy="893.06" r="297.64"/>
</g>
</svg>
