<?xml version="1.0" encoding="utf-8"?>
<!-- Generator: Adobe Illustrator 16.0.0, SVG Export Plug-In . SVG Version: 6.00 Build 0)  -->
<!DOCTYPE svg PUBLIC "-//W3C//DTD SVG 1.1//EN" "http://www.w3.org/Graphics/SVG/1.1/DTD/svg11.dtd">
<svg version="1.1" id="Calque_1" xmlns="http://www.w3.org/2000/svg" xmlns:xlink="http://www.w3.org/1999/xlink" x="0px" y="0px"
	 width="1190.551px" height="1190.551px" viewBox="0 0 1190.551 1190.551" enable-background="new 0 0 1190.551 1190.551"
	 xml:space="preserve">
<g>
	<path fill="#010202" d="M238.267,502.105l-12.604,17.93v-17.93H238.267h29.983v17.931h39.451v-17.931h39.451v17.931h39.449v-17.931
		h42.654v17.931h39.449v-17.931h40.348v17.931h39.453v-17.931h23.535v-28.63h21.518V432.23h-21.518v-28.164h21.518v-41.243h-21.518
		v-34.886h21.518v-41.246h-21.518v-35.638h21.518v-41.244h-21.518v-32.28h21.518v-41.242h-21.518v-34.072h21.518V60.97h-21.518
		V17.932h-23.535V0h-39.453v17.932h-40.348V0h-39.449v17.932h-42.654V0h-39.449v17.932h-39.451V0H268.25v17.932h-42.588V0h-39.453
		v17.932h-36.986V0h-39.451v17.932H77.496V0H38.043v17.932H19.725V60.97H0v41.244h19.725v34.072H0v41.242h19.725v32.28H0v41.244
		h19.725v35.638H0v41.246h19.725v34.886H0v41.243h19.725v28.164H0v41.245h19.725v28.63h18.318v17.931h39.453v-17.931h32.275v17.931
		h39.451v-17.931h36.986v17.931h39.453L47.809,773.038c0,0-46.943,60.357-46.943,123.396v158.269c0,0-1.79,37.11,32.635,37.11
		h15.202c0,0,26.824-1.341,26.824-37.556c0,0,0-101.22,0-134.062c0-43.812,12.076-67.062,38.899-107.364
		c50.729-76.218,188.222-266.465,188.222-266.465L238.267,502.105z"/>
	<circle fill="#010202" cx="422.024" cy="893.21" r="297.64"/>
</g>
</svg>
