<?xml version="1.0" encoding="utf-8"?>
<!-- Generator: Adobe Illustrator 16.0.0, SVG Export Plug-In . SVG Version: 6.00 Build 0)  -->
<!DOCTYPE svg PUBLIC "-//W3C//DTD SVG 1.1//EN" "http://www.w3.org/Graphics/SVG/1.1/DTD/svg11.dtd">
<svg version="1.1" id="Calque_1" xmlns="http://www.w3.org/2000/svg" xmlns:xlink="http://www.w3.org/1999/xlink" x="0px" y="0px"
	 width="1190.551px" height="1190.551px" viewBox="0 0 1190.551 1190.551" enable-background="new 0 0 1190.551 1190.551"
	 xml:space="preserve">
<g>
	<polygon fill="#010202" points="310.226,572.041 342.506,572.041 342.506,593.559 383.749,593.559 383.749,572.041 
		417.821,572.041 417.821,593.559 459.065,593.559 459.065,572.041 496.664,572.041 502.103,572.041 502.103,548.505 
		520.034,548.505 520.034,509.053 502.103,509.053 502.103,468.706 520.034,468.706 520.034,429.255 502.103,429.255 
		502.103,386.602 520.034,386.602 520.034,347.153 502.103,347.153 502.103,307.701 520.034,307.701 520.034,268.25 502.103,268.25 
		502.103,225.662 520.034,225.662 520.034,186.209 502.103,186.209 502.103,149.223 520.034,149.223 520.034,109.772 
		502.103,109.772 502.103,77.496 520.034,77.496 520.034,38.043 502.103,38.043 502.103,19.725 459.065,19.725 459.065,0 417.821,0 
		417.821,19.725 383.749,19.725 383.749,0 342.506,0 342.506,19.725 310.226,19.725 310.226,0 268.982,0 268.982,19.725 
		233.344,19.725 233.344,0 192.098,0 192.098,19.725 157.212,19.725 157.212,0 115.969,0 115.969,19.725 87.805,19.725 87.805,0 
		46.56,0 46.56,19.725 17.93,19.725 17.93,38.043 0,38.043 0,77.496 17.93,77.496 17.93,109.772 0,109.772 0,149.223 17.93,149.223 
		17.93,186.209 0,186.209 0,225.662 17.93,225.662 17.93,268.25 0,268.25 0,307.701 17.93,307.701 17.93,347.153 0,347.153 
		0,386.602 17.93,386.602 17.93,429.255 0,429.255 0,468.706 17.93,468.706 17.93,509.053 0,509.053 0,548.505 17.93,548.505 
		17.93,572.041 46.56,572.041 46.56,593.559 87.805,593.559 87.805,572.041 115.969,572.041 115.969,593.559 157.212,593.559 
		157.212,572.041 192.098,572.041 192.098,593.559 233.344,593.559 233.344,572.041 268.982,572.041 268.982,593.559 
		297.34,593.559 310.226,593.559 	"/>
	<path fill="#010202" d="M1004.554,799.161c0,0-101.218,0-134.062,0c-43.813,0-67.063-12.074-107.364-38.897
		c-76.217-50.73-266.464-188.223-266.464-188.223l-44.264,64.382l11.071,7.782c-47.449-31.978-104.609-50.646-166.131-50.646
		c-164.382,0-297.64,133.258-297.64,297.64c0,164.383,133.258,297.641,297.64,297.641s297.64-133.258,297.64-297.641
		c0-98.991-48.339-186.679-122.686-240.791l251.042,176.474c0,0,60.355,46.942,123.396,46.942h158.271
		c0,0,37.108,1.79,37.108-32.635v-15.202C1042.11,825.987,1040.769,799.161,1004.554,799.161z"/>
</g>
</svg>
