<?xml version="1.0" encoding="utf-8"?>
<!-- Generator: Adobe Illustrator 16.0.0, SVG Export Plug-In . SVG Version: 6.00 Build 0)  -->
<!DOCTYPE svg PUBLIC "-//W3C//DTD SVG 1.1//EN" "http://www.w3.org/Graphics/SVG/1.1/DTD/svg11.dtd">
<svg version="1.1" id="Calque_1" xmlns="http://www.w3.org/2000/svg" xmlns:xlink="http://www.w3.org/1999/xlink" x="0px" y="0px"
	 width="1190.551px" height="1190.551px" viewBox="0 0 1190.551 1190.551" enable-background="new 0 0 1190.551 1190.551"
	 xml:space="preserve">
<g>
	<path fill="#010202" d="M838.037,596.953C736.361,586.267,641.28,628.111,579.779,700.6l21.385-31.706l-17.839-12.031l15.749-23.35
		l17.841,12.033l23.062-34.192l-17.84-12.032l19.509-28.922l17.839,12.033l23.063-34.194l-17.838-12.032l19.928-29.547l17.84,12.033
		l23.063-34.193l-17.84-12.03l18.051-26.764l17.839,12.033l23.062-34.191l-17.838-12.031l19.052-28.248l17.839,12.032l23.063-34.192
		l-17.84-12.033l24.066-35.68l-19.513-13.161l10.026-14.866l-32.707-22.062l-10.026,14.866l-33.449-22.562l10.027-14.866
		l-32.705-22.06l-10.027,14.865l-35.362-23.853l10.028-14.865l-32.704-22.06l-10.026,14.866l-32.707-22.062l10.026-14.865
		l-32.708-22.062l-10.026,14.866l-35.307-23.813l10.027-14.867l-32.709-22.062l-10.026,14.865l-30.662-20.682l10.026-14.867
		l-32.705-22.06l-10.026,14.866l-26.76-18.049l10.028-14.864L382.322-0.081l-10.028,14.867L357.109,4.542l-24.068,35.681
		l-16.353-11.029l-23.063,34.192l16.354,11.029l-19.053,28.248l-16.354-11.03l-23.062,34.191l16.354,11.03l-18.051,26.762
		l-16.354-11.031l-23.062,34.193l16.353,11.03l-19.928,29.545l-16.354-11.029l-23.064,34.194l16.354,11.028l-19.51,28.923
		l-16.353-11.029l-23.063,34.19l16.354,11.03l-15.75,23.35l-16.353-11.03l-23.065,34.194l16.354,11.029l-16.01,23.736l15.186,10.244
		l-10.026,14.863l32.708,22.062l10.025-14.865l26.76,18.05l-10.026,14.865l32.705,22.06l10.026-14.864l30.664,20.682l-10.026,14.866
		l32.708,22.061l10.025-14.862l35.307,23.813l-10.025,14.864l32.706,22.061l10.026-14.863l32.708,22.061l-10.026,14.865
		l32.704,22.06l10.026-14.865l35.359,23.853l-10.024,14.863l32.706,22.062l10.025-14.865l33.448,22.562l-10.026,14.864
		l32.707,22.062l10.026-14.865l19.513,13.161l16.01-23.735l17.578,11.857c-36.307,43.683-60.541,98.208-66.923,158.938
		c-17.183,163.48,101.416,309.938,264.897,327.121c163.482,17.184,309.939-101.416,327.123-264.897
		C1120.117,760.598,1001.518,614.136,838.037,596.953z"/>
	<path fill="#010202" d="M282.909,759.663l-139.743-74.302c0,0-31.927-19.002-48.089,11.393l-7.137,13.423
		c0,0-11.409,24.314,20.565,41.316c0,0,89.37,47.519,118.369,62.938c38.687,20.568,53.544,42.146,76.535,84.75
		c43.482,80.574,146.911,291.289,146.911,291.289l69.307-36.064l-149.807-295.36C369.822,859.044,338.569,789.259,282.909,759.663z"
		/>
</g>
</svg>
