<?xml version="1.0" encoding="utf-8"?>
<!-- Generator: Adobe Illustrator 16.0.0, SVG Export Plug-In . SVG Version: 6.00 Build 0)  -->
<!DOCTYPE svg PUBLIC "-//W3C//DTD SVG 1.1//EN" "http://www.w3.org/Graphics/SVG/1.1/DTD/svg11.dtd">
<svg version="1.1" id="Calque_1" xmlns="http://www.w3.org/2000/svg" xmlns:xlink="http://www.w3.org/1999/xlink" x="0px" y="0px"
	 width="1190.551px" height="1190.551px" viewBox="0 0 1190.551 1190.551" enable-background="new 0 0 1190.551 1190.551"
	 xml:space="preserve">
<g>
	<path fill="#010202" d="M752.02,597.033c-101.677-10.687-196.758,31.158-258.259,103.647l21.386-31.706l-17.84-12.032
		l15.749-23.349l17.841,12.033l23.062-34.193l-17.839-12.032l19.508-28.922l17.839,12.033l23.064-34.194l-17.838-12.032
		l19.928-29.547l17.839,12.033l23.064-34.193l-17.84-12.031l18.051-26.763l17.839,12.033l23.062-34.191l-17.838-12.032
		l19.052-28.248l17.839,12.033l23.063-34.193l-17.839-12.033l24.066-35.68l-19.513-13.161l10.027-14.866l-32.707-22.062
		l-10.027,14.867l-33.449-22.562l10.027-14.866l-32.705-22.06l-10.027,14.866l-35.362-23.853l10.028-14.865l-32.704-22.06
		l-10.027,14.866l-32.707-22.062l10.027-14.865l-32.708-22.062l-10.027,14.866l-35.306-23.813l10.027-14.867l-32.709-22.062
		l-10.026,14.865l-30.663-20.681l10.027-14.867L355.77,40.11l-10.027,14.866l-26.759-18.048l10.028-14.865L296.304-0.001
		l-10.028,14.867L271.091,4.622l-24.068,35.681l-16.353-11.03l-23.063,34.193l16.354,11.029l-19.053,28.248l-16.354-11.03
		l-23.063,34.191l16.354,11.03l-18.051,26.762l-16.353-11.031l-23.063,34.193l16.353,11.03l-19.928,29.545l-16.354-11.029
		l-23.064,34.194l16.354,11.029l-19.509,28.923l-16.353-11.03l-23.063,34.191l16.354,11.03l-15.75,23.35l-16.352-11.031L0,371.255
		l16.354,11.029L0.344,406.02l15.186,10.244L5.503,431.128l32.708,22.062l10.026-14.865l26.759,18.05L64.97,471.24L97.675,493.3
		l10.026-14.865l30.664,20.682l-10.026,14.866l32.708,22.061l10.026-14.863l35.306,23.814l-10.025,14.864l32.706,22.061
		l10.026-14.864l32.708,22.061l-10.026,14.865l32.704,22.06l10.026-14.865l35.36,23.852l-10.025,14.864l32.706,22.062l10.026-14.865
		l33.448,22.562l-10.026,14.865l32.707,22.062l10.026-14.865l19.513,13.161l16.01-23.735l17.578,11.857
		c-36.307,43.683-60.541,98.208-66.923,158.938c-17.183,163.481,101.416,309.939,264.897,327.122
		c163.482,17.183,309.939-101.417,327.122-264.898S915.501,614.216,752.02,597.033z"/>
	<path fill="#010202" d="M196.891,759.743L57.148,685.441c0,0-31.927-19.002-48.089,11.393l-7.137,13.423
		c0,0-11.409,24.314,20.566,41.316c0,0,89.37,47.519,118.369,62.938c38.686,20.568,53.544,42.146,76.535,84.75
		c43.482,80.574,146.911,291.289,146.911,291.289l69.307-36.065l-149.807-295.36C283.804,859.124,252.551,789.339,196.891,759.743z"
		/>
</g>
</svg>
