<?xml version="1.0" encoding="utf-8"?>
<!-- Generator: Adobe Illustrator 16.0.0, SVG Export Plug-In . SVG Version: 6.00 Build 0)  -->
<!DOCTYPE svg PUBLIC "-//W3C//DTD SVG 1.1//EN" "http://www.w3.org/Graphics/SVG/1.1/DTD/svg11.dtd">
<svg version="1.1" id="Calque_1" xmlns="http://www.w3.org/2000/svg" xmlns:xlink="http://www.w3.org/1999/xlink" x="0px" y="0px"
	 width="1190.551px" height="1190.551px" viewBox="0 0 1190.551 1190.551" enable-background="new 0 0 1190.551 1190.551"
	 xml:space="preserve">
<path fill="#010202" d="M737.007,604.006h15.202c0,0,26.825-1.341,26.825-37.556c0,0,0-101.219,0-134.062
	c0-43.812,12.076-67.062,38.898-107.363c50.729-76.218,188.223-266.465,188.223-266.465l-64.381-44.263L751.317,285.232
	c0,0-45.146,58.051-46.888,119.751v-36.169h-17.93v-42.588h17.93v-39.451h-17.93v-39.452h17.93v-39.448h-17.93v-42.653h17.93
	v-39.451h-17.93V85.423h17.93V45.971h-17.93V22.435h-28.63V0.917h-41.244v21.518h-28.164V0.917h-41.243v21.518h-34.886V0.917
	h-41.246v21.518h-35.638V0.917h-41.244v21.518h-32.28V0.917h-41.241v21.518h-34.072V0.917h-41.245v21.518h-43.038v23.536h-17.932
	v39.452h17.932v40.347h-17.932v39.451h17.932v42.653h-17.932v39.448h17.932v39.452h-17.932v39.451h17.932v42.588h-17.932v39.453
	h17.932v36.986h-17.932v39.451h17.932v32.275h-17.932v39.453h17.932v18.318h43.038v19.725h41.244v-19.725h34.072v19.725h41.241
	v-19.725h32.28v19.725h41.244v-19.725h35.638v19.725h2.64c-160.538,4.404-289.329,135.917-289.329,297.52
	c0,164.382,133.258,297.64,297.64,297.64s297.64-133.258,297.64-297.64c0-161.604-128.791-293.116-289.328-297.519h21.985V574.75
	h34.886v19.725h41.243V574.75h28.164v19.725h41.245V574.75h28.63v-18.318h17.872v10.464
	C704.372,566.897,702.582,604.006,737.007,604.006z M686.5,408.267h17.876c0,0.12-0.004,0.24-0.004,0.36v36.626H686.5V408.267
	L686.5,408.267z M686.5,516.98v-32.275h17.872v32.275H686.5z"/>
</svg>
