<?xml version="1.0" encoding="utf-8"?>
<!-- Generator: Adobe Illustrator 16.0.0, SVG Export Plug-In . SVG Version: 6.00 Build 0)  -->
<!DOCTYPE svg PUBLIC "-//W3C//DTD SVG 1.1//EN" "http://www.w3.org/Graphics/SVG/1.1/DTD/svg11.dtd">
<svg version="1.1" id="Calque_1" xmlns="http://www.w3.org/2000/svg" xmlns:xlink="http://www.w3.org/1999/xlink" x="0px" y="0px"
	 width="1190.551px" height="1190.551px" viewBox="0 0 1190.551 1190.551" enable-background="new 0 0 1190.551 1190.551"
	 xml:space="preserve">
<path fill="#010202" d="M612.592,1.498C449.111-15.684,302.654,102.914,285.471,266.396
	c-13.76,130.92,59.567,250.908,173.282,302.342h-40.932v19.725h-34.071v-19.725h-41.243v19.725h-32.28v-19.725h-11.367
	c6.931-0.508,14.348-3.711,21.262-11.951l9.771-11.646c0,0,16.215-21.411-11.527-44.689c0,0-77.538-65.061-102.698-86.174
	c-33.562-28.162-43.609-52.357-57.24-98.81C132.649,227.615,75.289-0.001,75.289-0.001L-0.002,20.867L85.123,340.92
	c0,0,16.062,74.758,64.352,115.279l121.241,101.733c0,0,10.653,9.851,24.044,10.805h-25.778v19.725h-35.637v-19.725h-41.247v19.725
	h-34.886v-19.725H115.97v19.725H87.805v-19.725H46.56v19.725H17.93v18.319H0v39.452h17.93v32.275H0v39.451h17.93v36.987H0v39.451
	h17.93v42.59H0v39.449h17.93v39.452H0v39.449h17.93v42.654H0v39.451h17.93v40.346H0v39.453h17.93v23.536h28.63v21.517h41.245
	v-21.517h28.165v21.517h41.242v-21.517h34.886v21.517h41.247v-21.517h35.637v21.517h41.244v-21.517h32.28v21.517h41.243v-21.517
	h34.071v21.517h41.244v-21.517h43.038v-23.536h17.932v-39.453h-17.932v-40.346h17.932v-39.451h-17.932v-42.654h17.932V915.89
	h-17.932v-39.452h17.932v-39.449h-17.932v-42.59h17.932v-39.451h-17.932V717.96h17.932v-39.451h-17.932v-32.275h17.932v-39.452
	h-17.932v-18.319h-43.038v-19.586c28.197,12.715,58.862,21.232,91.304,24.642C713.85,610.699,860.308,492.101,877.49,328.619
	S776.073,18.681,612.592,1.498z"/>
</svg>
