<?xml version="1.0" encoding="utf-8"?>
<!-- Generator: Adobe Illustrator 16.0.0, SVG Export Plug-In . SVG Version: 6.00 Build 0)  -->
<!DOCTYPE svg PUBLIC "-//W3C//DTD SVG 1.1//EN" "http://www.w3.org/Graphics/SVG/1.1/DTD/svg11.dtd">
<svg version="1.1" id="Calque_1" xmlns="http://www.w3.org/2000/svg" xmlns:xlink="http://www.w3.org/1999/xlink" x="0px" y="0px"
	 width="1190.551px" height="1190.551px" viewBox="0 0 1190.551 1190.551" enable-background="new 0 0 1190.551 1190.551"
	 xml:space="preserve">
<path fill="#010202" d="M695.42,595.513c-96.457,0-182.179,45.897-236.569,117.026c36.468-51.051,65.686-91.479,65.686-91.479
	l-64.382-44.263l-11.611,16.518V573.59h35.638v19.725h41.246V573.59h34.886v19.725h41.244V573.59h28.164v19.725h41.244V573.59
	h28.631v-18.318h17.93v-39.453h-17.93v-32.275h17.93v-39.451h-17.93v-36.986h17.93v-39.453h-17.93v-42.588h17.93v-39.451h-17.93
	v-39.452h17.93v-39.448h-17.93v-42.653h17.93v-39.451h-17.93V84.263h17.93V44.812h-17.93V21.275h-28.631V-0.243h-41.244v21.518
	h-28.164V-0.243h-41.244v21.518h-34.886V-0.243h-41.246v21.518h-35.638V-0.243H407.3v21.518h-32.28V-0.243h-41.241v21.518h-34.072
	V-0.243h-41.245v21.518h-43.038v23.536h-17.932v39.452h17.932v40.347h-17.932v39.451h17.932v42.653h-17.932v39.448h17.932v39.452
	h-17.932v39.451h17.932v42.588h-17.932v39.453h17.932v36.986h-17.932v39.451h17.932v32.275h-17.932v39.453h17.932v18.318h43.038
	v19.725h41.244v-19.725h34.072v19.725h41.241v-19.725h32.28v19.725h41.244L269.697,847.732c0,0-46.943,60.355-46.943,123.396v158.27
	c0,0-1.79,37.109,32.636,37.109h15.201c0,0,26.825-1.342,26.825-37.557c0,0,0-101.219,0-134.062
	c0-43.812,12.075-67.062,38.897-107.363c24.935-37.461,70.826-102.467,111.054-158.893c-31.323,47.131-49.587,103.689-49.587,164.52
	c0,164.383,133.258,297.641,297.64,297.641c164.381,0,297.641-133.258,297.641-297.641
	C993.061,728.771,859.801,595.513,695.42,595.513z"/>
</svg>
