<?xml version="1.0" encoding="utf-8"?>
<!-- Generator: Adobe Illustrator 16.0.0, SVG Export Plug-In . SVG Version: 6.00 Build 0)  -->
<!DOCTYPE svg PUBLIC "-//W3C//DTD SVG 1.1//EN" "http://www.w3.org/Graphics/SVG/1.1/DTD/svg11.dtd">
<svg version="1.1" id="Calque_1" xmlns="http://www.w3.org/2000/svg" xmlns:xlink="http://www.w3.org/1999/xlink" x="0px" y="0px"
	 width="1190.551px" height="1190.551px" viewBox="0 0 1190.551 1190.551" enable-background="new 0 0 1190.551 1190.551"
	 xml:space="preserve">
<g>
	<path fill="#010202" d="M671.262,719.204c-51.16-100.407-151.481-159.341-256.703-162.438h1.643v-17.931h39.45v17.931h39.449
		v-17.931h42.654v17.931h39.448v-17.931h40.349v17.931h39.453v-17.931h23.534v-28.63h21.519V468.96h-21.519v-28.164h21.519v-41.243
		h-21.519v-34.886h21.519v-41.246h-21.519v-35.639h21.519v-41.243h-21.519v-32.28h21.519v-41.242h-21.519v-34.072h21.519V97.699
		h-21.519V54.662h-23.534V36.729h-39.453v17.933h-40.349V36.729h-39.448v17.933h-42.654V36.729h-39.449v17.933h-39.45V36.729
		h-39.452v17.933h-42.588V36.729h-39.453v17.933h-36.986V36.729h-39.451v17.933h-32.275V36.729h-39.453v17.933h-18.318v43.037
		h-19.725v41.244h19.725v34.072h-19.725v41.242h19.725v32.28h-19.725v41.243h19.725v35.639h-19.725v41.246h19.725v34.886h-19.725
		v41.243h19.725v28.164h-19.725v41.245h19.725v28.63h18.318v17.931h39.453v-17.931h32.274v17.931h39.451v-17.931h36.986v17.931
		h39.453v-17.931h42.588v17.931h20.6c-42.705,1.221-85.815,11.682-126.412,32.366C124.472,663.759,66.237,842.99,140.865,989.455
		c74.627,146.467,253.858,204.701,400.323,130.073C687.655,1044.9,745.89,865.67,671.262,719.204z"/>
	<path fill="#010202" d="M1034.639,650.967L769.78,849.783c0,0-63.298,42.896-82.777,102.853l-48.908,150.521
		c0,0-13.17,34.74,19.569,45.378l14.458,4.698c0,0,25.928,7.014,37.118-27.428c0,0,31.277-96.264,41.428-127.501
		c13.538-41.668,32.209-60.049,70.173-90.088c71.798-56.812,261.351-195.261,261.351-195.261L1034.639,650.967z"/>
</g>
</svg>
