<?xml version="1.0" encoding="utf-8"?>
<!-- Generator: Adobe Illustrator 16.0.0, SVG Export Plug-In . SVG Version: 6.00 Build 0)  -->
<!DOCTYPE svg PUBLIC "-//W3C//DTD SVG 1.1//EN" "http://www.w3.org/Graphics/SVG/1.1/DTD/svg11.dtd">
<svg version="1.1" id="Calque_1" xmlns="http://www.w3.org/2000/svg" xmlns:xlink="http://www.w3.org/1999/xlink" x="0px" y="0px"
	 width="1190.551px" height="1190.551px" viewBox="0 0 1190.551 1190.551" enable-background="new 0 0 1190.551 1190.551"
	 xml:space="preserve">
<path fill="#010202" d="M593.558,24.035v22.525h-19.726V17.93h-18.317V0h-39.453v17.93h-32.276V0h-39.45v17.93h-36.984V0h-39.453
	v17.93H325.31V0h-39.452v17.93h-39.452V0h-39.448v17.93h-42.653V0h-39.451v17.93H84.506V0H45.054v17.93H21.518v28.631H0v41.244
	h21.518v28.164H0v41.243h21.518v34.886H0v41.246h21.518v35.638H0v41.245h21.518v32.279H0v41.243h21.518v34.071H0v41.245h21.518
	v43.038h23.536v17.932h39.452v-17.932h40.347v17.932h39.451v-17.932h42.653v17.932h39.448v-17.932h39.452v17.932h39.452v-17.932
	h42.588v17.932h4.616v95.246h-64.146v-83.124H174.293v166.249h-61.671v99.213H0v149.706h58.993v180.111H407.58V962.529h-96.532
	V778.85h96.532V615.281h390.848V24.035H593.558z M573.832,87.805h19.726v28.164h-19.726V87.805z M573.832,157.212h19.726v34.886
	h-19.726V157.212z M573.832,233.344h19.726v35.638h-19.726V233.344z M407.351,520.035v-17.932h36.984v17.932H407.351z
	 M483.785,520.035v-17.932h32.276v17.932H483.785z M649.27,520.035h-93.755v-17.932h18.317v-43.038h19.726v-41.245h-19.726v-34.071
	h19.726v-41.243h-19.726v-32.279h19.726v-5.843h55.712V520.035z"/>
</svg>
