<?xml version="1.0" encoding="utf-8"?>
<!-- Generator: Adobe Illustrator 16.0.0, SVG Export Plug-In . SVG Version: 6.00 Build 0)  -->
<!DOCTYPE svg PUBLIC "-//W3C//DTD SVG 1.1//EN" "http://www.w3.org/Graphics/SVG/1.1/DTD/svg11.dtd">
<svg version="1.1" id="Calque_1" xmlns="http://www.w3.org/2000/svg" xmlns:xlink="http://www.w3.org/1999/xlink" x="0px" y="0px"
	 width="1190.551px" height="1190.551px" viewBox="0 0 1190.551 1190.551" enable-background="new 0 0 1190.551 1190.551"
	 xml:space="preserve">
<g>
	<path fill="#010202" d="M341.604,839.303V717.319c7.861,51.588,52.523,91.239,106.271,91.239c59.275,0,107.5-48.224,107.5-107.5
		c0-59.274-48.224-107.5-107.5-107.5c-59.273,0-107.499,48.226-107.499,107.5c0,5.22,0.381,10.351,1.104,15.373H121.197V593.558
		h36.016V572.04h34.886v21.518h41.246V572.04h35.638v21.518h41.245V572.04h32.279v21.518h41.243V572.04h34.071v21.518h30.054h11.19
		V572.04h43.039v-23.536h17.931v-39.452h-17.931v-40.347h17.931v-39.451h-17.931v-42.653h17.931v-39.449h-17.931V307.7h17.931
		v-39.451h-17.931v-42.588h17.931v-39.453h-17.931v-36.986h17.931v-39.451h-17.931V77.496h17.931V38.042h-17.931V19.724h-43.039V0
		h-41.244v19.724h-34.071V0h-41.243v19.724h-32.279V0h-41.245v19.724h-35.638V0h-41.246v19.724h-34.886V0h-41.243v19.724H87.805V0
		H46.561v19.724H17.93v18.318H0v39.454h17.93v32.274H0v39.451h17.93v36.986H0v39.453h17.93v42.588H0V307.7h17.93v39.451H0v39.449
		h17.93v42.653H0v39.451h17.93v40.347H0v39.452h17.93v23.536h28.631v21.518H0v594.961h121.196v-122.872h220.407V942.774h253.675
		V839.303H341.604z M87.805,593.558V572.04h28.164v21.518H87.805z"/>
	<path fill="#010202" d="M448.548,969.122c-59.274,0-107.5,48.226-107.5,107.5c0,59.273,48.227,107.5,107.5,107.5
		c59.275,0,107.5-48.227,107.5-107.5C556.048,1017.348,507.823,969.122,448.548,969.122z"/>
</g>
</svg>
