<?xml version="1.0" encoding="utf-8"?>
<!-- Generator: Adobe Illustrator 16.0.0, SVG Export Plug-In . SVG Version: 6.00 Build 0)  -->
<!DOCTYPE svg PUBLIC "-//W3C//DTD SVG 1.1//EN" "http://www.w3.org/Graphics/SVG/1.1/DTD/svg11.dtd">
<svg version="1.1" id="Calque_1" xmlns="http://www.w3.org/2000/svg" xmlns:xlink="http://www.w3.org/1999/xlink" x="0px" y="0px"
	 width="1190.551px" height="1190.551px" viewBox="0 0 1190.551 1190.551" enable-background="new 0 0 1190.551 1190.551"
	 xml:space="preserve">
<path fill="#010202" d="M1053.323,348.076H860.787L657.263,245.867v13.582h-17.931v-32.275h17.931v-39.453h-17.931v-18.319h-43.039
	v-19.724h-41.244v19.724h-34.07v-19.724h-41.243v19.724h-32.279v-19.724h-41.245v19.724h-35.638v-19.724h-41.246v19.724h-34.886
	v-19.724h-41.243v19.724h-28.164v-19.724H183.79v19.724h-28.631v18.319h-17.93v39.453h17.93v32.274h-17.93v39.451h17.93v36.985
	h-17.93v39.453h17.93v42.588h-17.93v39.45h17.93v39.453h-17.93v39.449h17.93v42.653h-17.93v39.45h17.93v40.348h-17.93v39.452h17.93
	v23.535h28.631v21.52h41.244v-21.52h28.164v21.52h41.243v-21.52h34.886v21.52h41.246v-21.52h35.638v21.52h28.658h12.587v-21.52
	h32.279v21.52h41.243v-21.52h34.07v21.52h41.244v-21.52h43.039V698.18h17.931v144.907c-54.516-61.255-133.941-99.854-222.395-99.854
	c-164.383,0-297.641,133.258-297.641,297.641h595.277c0.001-75.914-28.435-145.176-75.216-197.755l396.034-396.03V348.076z
	 M639.333,298.9h17.931v36.985h-17.931V298.9L639.333,298.9z M639.333,375.338h17.931v42.588h-17.931V375.338L639.333,375.338z
	 M639.333,457.376h17.931v39.453h-17.931V457.376L639.333,457.376z M639.333,536.279h17.931v42.653h-17.931V536.279L639.333,536.279
	z M639.333,658.729v-40.348h17.931v40.348H639.333z"/>
</svg>
