<?xml version="1.0" encoding="utf-8"?>
<!-- Generator: Adobe Illustrator 16.0.0, SVG Export Plug-In . SVG Version: 6.00 Build 0)  -->
<!DOCTYPE svg PUBLIC "-//W3C//DTD SVG 1.1//EN" "http://www.w3.org/Graphics/SVG/1.1/DTD/svg11.dtd">
<svg version="1.1" id="Calque_1" xmlns="http://www.w3.org/2000/svg" xmlns:xlink="http://www.w3.org/1999/xlink" x="0px" y="0px"
	 width="1190.551px" height="1190.551px" viewBox="0 0 1190.551 1190.551" enable-background="new 0 0 1190.551 1190.551"
	 xml:space="preserve">
<path fill="#010202" d="M583.729,651.504v-17.933h18.319v-43.038h19.724v-41.245h-19.724v-34.071h19.724v-41.243h-19.724v-32.279
	h19.724V400.45h-19.724v-35.638h19.724v-41.246h-19.724V288.68h19.724v-41.243h-19.724v-28.164h19.724v-41.244h-19.724v-28.631
	h-18.319v-17.93h-39.453v17.93H512v-17.93h-39.449v17.93h-36.985v-17.93h-39.453v17.93h-42.589v-17.93h-39.451v17.93h-39.453v-17.93
	h-39.447v17.93H192.52v-17.93h-39.451v17.93H112.72v-17.93H73.269v17.93H49.733v28.631H28.214v41.244h21.519v28.164H28.214v41.243
	h21.519v34.886H28.214v41.246h21.519v35.638H28.214v41.245h21.519v32.279H28.214v41.243h21.519v34.071H28.214v41.245h21.519v43.038
	h23.536v17.933h39.451v-17.933h40.348v17.933h39.451v-17.933h42.652v17.933h-26.848v58.99H28.214v348.588h164.907v-96.533h183.68
	v96.533h163.566v-99.213h83.124V825.891c54.078,74.668,141.962,123.254,241.205,123.254c164.382,0,297.641-133.26,297.641-297.641
	H583.729L583.729,651.504z M274.619,651.504v-17.933h39.453v17.933H274.619z M457.243,825.795v-61.672h-99.213V651.504h-4.507
	v-17.933h42.588v17.933h39.453v-17.933h36.985v17.933h39.449v-17.933h32.275v17.933h22.783c0,65.096,20.912,125.299,56.364,174.291
	H457.243z"/>
</svg>
