<?xml version="1.0" encoding="utf-8"?>
<!-- Generator: Adobe Illustrator 16.0.0, SVG Export Plug-In . SVG Version: 6.00 Build 0)  -->
<!DOCTYPE svg PUBLIC "-//W3C//DTD SVG 1.1//EN" "http://www.w3.org/Graphics/SVG/1.1/DTD/svg11.dtd">
<svg version="1.1" id="Calque_1" xmlns="http://www.w3.org/2000/svg" xmlns:xlink="http://www.w3.org/1999/xlink" x="0px" y="0px"
	 width="1190.551px" height="1190.551px" viewBox="0 0 1190.551 1190.551" enable-background="new 0 0 1190.551 1190.551"
	 xml:space="preserve">
<path fill="#010202" d="M555.515,520.035v-17.932h18.319v-43.038h19.724v-41.245h-19.724v-34.071h19.724v-41.243h-19.724v-32.279
	h19.724v-41.245h-19.724v-35.638h19.724v-41.246h-19.724v-34.886h19.724v-41.243h-19.724V87.805h19.724V46.561h-19.724V17.93
	h-18.319V0h-39.453v17.93h-32.275V0h-39.45v17.93h-36.985V0h-39.453v17.93H325.31V0h-39.451v17.93h-39.453V0h-39.448v17.93h-42.652
	V0h-39.451v17.93H84.506V0H45.055v17.93H21.519v28.631H0v41.244h21.519v28.164H0v41.243h21.519v34.886H0v41.246h21.519v35.638H0
	v41.245h21.519v32.279H0v41.243h21.519v34.071H0v41.245h21.519v43.038h23.536v17.932h39.451v-17.932h40.348v17.932h39.451v-17.932
	h42.652v17.932h-26.847v58.991H0v348.588h164.907v-96.533h183.68v96.533h163.567v-99.213h83.124V694.422
	c54.078,74.669,141.962,123.254,241.205,123.254c164.382,0,297.64-133.259,297.64-297.641H555.515z M246.406,520.035v-17.932h39.453
	v17.932H246.406z M429.03,694.326v-61.671h-99.213v-112.62h-4.507v-17.932h42.588v17.932h39.453v-17.932h36.985v17.932h39.45
	v-17.932h32.275v17.932h22.783c0,65.096,20.912,125.299,56.364,174.291H429.03z"/>
</svg>
