<?xml version="1.0" encoding="utf-8"?>
<!-- Generator: Adobe Illustrator 16.0.0, SVG Export Plug-In . SVG Version: 6.00 Build 0)  -->
<!DOCTYPE svg PUBLIC "-//W3C//DTD SVG 1.1//EN" "http://www.w3.org/Graphics/SVG/1.1/DTD/svg11.dtd">
<svg version="1.1" id="Calque_1" xmlns="http://www.w3.org/2000/svg" xmlns:xlink="http://www.w3.org/1999/xlink" x="0px" y="0px"
	 width="1190.551px" height="1190.551px" viewBox="0 0 1190.551 1190.551" enable-background="new 0 0 1190.551 1190.551"
	 xml:space="preserve">
<path fill="#010202" d="M459.066,593.558V572.04h43.038v-23.535h17.931v-39.453h-17.931v-40.347h17.931v-39.45h-17.931v-42.654
	h17.931v-39.449h-17.931V307.7h17.931v-39.452h-17.931V225.66h17.931v-39.453h-17.931v-36.984h17.931v-39.451h-17.931V77.496h17.931
	V38.043h-17.931V19.725h-43.038V0h-41.245v19.725h-34.071V0h-41.243v19.725h-32.279V0h-41.245v19.725h-35.638V0h-41.246v19.725
	h-34.886V0h-41.243v19.725H87.805V0H46.561v19.725H17.93v18.318H0v39.453h17.93v32.275H0v39.451h17.93v36.984H0v39.453h17.93v42.588
	H0V307.7h17.93v39.451H0v39.449h17.93v42.654H0v39.45h17.93v40.347H0v39.453h17.93v23.535h28.631v21.518H0v164.909h96.532v183.678H0
	v163.569h99.213v83.124h134.074v-166.249h61.671v-99.215H407.58V798.428h280.348v-55.711h215.65v276.755h95.247V593.558H459.066z
	 M87.805,593.558V572.04h28.164v21.518H87.805z M157.212,593.558V572.04h34.886v21.518H157.212z M233.344,593.558V572.04h35.638
	v21.518H233.344z M310.227,593.558V572.04h32.279v21.518H310.227z M407.58,593.558v180.111h-58.993V593.558h35.162V572.04h34.071
	v21.518H407.58z"/>
</svg>
