<?xml version="1.0" encoding="utf-8"?>
<!-- Generator: Adobe Illustrator 16.0.0, SVG Export Plug-In . SVG Version: 6.00 Build 0)  -->
<!DOCTYPE svg PUBLIC "-//W3C//DTD SVG 1.1//EN" "http://www.w3.org/Graphics/SVG/1.1/DTD/svg11.dtd">
<svg version="1.1" id="Calque_1" xmlns="http://www.w3.org/2000/svg" xmlns:xlink="http://www.w3.org/1999/xlink" x="0px" y="0px"
	 width="1190.551px" height="1190.551px" viewBox="0 0 1190.551 1190.551" enable-background="new 0 0 1190.551 1190.551"
	 xml:space="preserve">
<path fill="#010202" d="M471.244,464.766V342.461h122.871V122.055h122.873V0.857H122.028v121.196H244.9V342.46h122.873v253.674
	h-35.938v21.521h-32.279v-21.521h-41.241v21.521h-34.072v-21.521h-41.244v21.521h-43.039v23.537h-17.931v39.449h17.931v40.349
	h-17.931v39.452h17.931v42.65h-17.931v39.448h17.931v39.452h-17.931v39.452h17.931v42.587h-17.931v39.454h17.931v36.984h-17.931
	v39.451h17.931v32.275h-17.931v39.454h17.931v18.316h43.039v19.726h41.244v-19.726h34.072v19.726h41.241v-19.726h32.279v19.726
	h41.245v-19.726h35.638v19.726h41.246v-19.726h34.886v19.726h41.243v-19.726h28.164v19.726H595.5v-19.726h28.631v-18.316h17.93
	v-39.454h-17.93v-32.275h17.93v-39.451h-17.93v-36.984h17.93v-39.454h-17.93v-42.587h17.93v-39.452h-17.93v-39.452h17.93v-39.448
	h-17.93v-42.65h17.93V720.99h-17.93v-40.349h17.93v-39.449h-17.93v-23.537H595.5v-21.521h-41.243v21.521h-28.164v-21.521H484.85
	v21.521h-34.886v-21.521h21.28V464.766l396.058,396.059h99.015V668.288l102.207-203.521L471.244,464.766L471.244,464.766z
	 M408.718,617.655H373.08v-21.521h35.638V617.655z"/>
</svg>
