<?xml version="1.0" encoding="utf-8"?>
<!-- Generator: Adobe Illustrator 16.0.0, SVG Export Plug-In . SVG Version: 6.00 Build 0)  -->
<!DOCTYPE svg PUBLIC "-//W3C//DTD SVG 1.1//EN" "http://www.w3.org/Graphics/SVG/1.1/DTD/svg11.dtd">
<svg version="1.1" id="Calque_1" xmlns="http://www.w3.org/2000/svg" xmlns:xlink="http://www.w3.org/1999/xlink" x="0px" y="0px"
	 width="1190.551px" height="1190.551px" viewBox="0 0 1190.551 1190.551" enable-background="new 0 0 1190.551 1190.551"
	 xml:space="preserve">
<g>
	<path fill="#010202" d="M45.084,520.035h39.422v-17.932h40.348v17.932h39.451v-17.932h42.652v17.932h39.448v-17.932h39.453v17.932
		h11.781h27.67v-17.932h42.588v17.932h39.453v-17.932h36.985v17.932h39.45v-17.932h32.275v17.932h39.453v-17.932h18.319v-43.039
		h19.724v-41.244h-19.724v-34.071h19.724v-41.243h-19.724v-32.279h19.724v-41.245h-19.724v-35.638h19.724v-41.246h-19.724v-34.886
		h19.724V115.97h-19.724V87.805h19.724V46.561h-19.724V17.93h-18.319V0h-39.453v17.93h-32.275V0h-39.45v17.93h-36.985V0h-39.453
		v17.93H325.31V0h-39.451v17.93h-39.453V0h-39.448v17.93h-42.652V0h-39.451v17.93H84.506V0H45.055v17.93H21.519v28.631H0v41.244
		h21.519v28.165H0v41.242h21.519v34.886H0v41.246h21.519v35.638H0v41.245h21.519v32.279H0v41.243h21.519v34.071H0v41.244h21.519
		v43.039h23.536v17.928c-14.693-2.231-29.739-3.392-45.056-3.392v595.279c164.383,0.001,297.641-133.256,297.641-297.64
		C297.64,665.225,188.072,541.763,45.084,520.035z"/>
	<polygon fill="#010202" points="501.162,622.243 297.64,520.035 297.64,814.28 297.64,1117.315 693.698,721.258 693.698,622.243 	
		"/>
</g>
</svg>
