<?xml version="1.0" encoding="utf-8"?>
<!-- Generator: Adobe Illustrator 16.0.0, SVG Export Plug-In . SVG Version: 6.00 Build 0)  -->
<!DOCTYPE svg PUBLIC "-//W3C//DTD SVG 1.1//EN" "http://www.w3.org/Graphics/SVG/1.1/DTD/svg11.dtd">
<svg version="1.1" id="Calque_1" xmlns="http://www.w3.org/2000/svg" xmlns:xlink="http://www.w3.org/1999/xlink" x="0px" y="0px"
	 width="1190.551px" height="1190.551px" viewBox="0 0 1190.551 1190.551" enable-background="new 0 0 1190.551 1190.551"
	 xml:space="preserve">
<path fill="#010202" d="M863.379,100.139v280.348h55.714v215.648H717.58V332.499H303.302v-68h414.277V0.857H122.302v595.277h46.56
	v19.728h-28.63v18.316h-17.93v39.453h17.93v32.275h-17.93v39.452h17.93v36.982h-17.93v39.453h17.93v42.588h-17.93v39.451h17.93
	v39.452h-17.93v39.45h17.93v42.651h-17.93v39.451h17.93v40.349h-17.93v39.45h17.93v23.536h28.63v21.52h41.245v-21.52h28.164v21.52
	h41.243v-21.52H314.4v21.52h41.246v-21.52h35.638v21.52h41.244v-21.52h32.28v21.52h41.243v-21.52h34.07v21.52h41.244v-21.52h43.038
	v-23.536h17.932v-39.45h-17.932v-40.349h17.932v-39.451h-17.932v-42.651h17.932v-39.45h-17.932v-39.452h17.932v-39.451h-17.932
	v-42.589h17.932v-39.452h-17.932v-36.982h17.932v-39.452h-17.932v-32.276h17.932v17.752h425.914V100.139H863.379z M238.271,615.862
	h-28.164v-19.728h28.164V615.862z M314.4,615.862h-34.886v-19.728H314.4V615.862z M391.283,615.862h-35.638v-19.728h35.638V615.862z
	 M464.808,615.862h-32.28v-19.728h32.28V615.862z M540.122,615.862h-34.07v-19.728h34.07V615.862L540.122,615.862z M642.335,634.18
	h-17.932v-18.316h-43.038v-19.727h60.97V634.18z"/>
</svg>
