<?xml version="1.0" encoding="utf-8"?>
<!-- Generator: Adobe Illustrator 16.0.0, SVG Export Plug-In . SVG Version: 6.00 Build 0)  -->
<!DOCTYPE svg PUBLIC "-//W3C//DTD SVG 1.1//EN" "http://www.w3.org/Graphics/SVG/1.1/DTD/svg11.dtd">
<svg version="1.1" id="Calque_1" xmlns="http://www.w3.org/2000/svg" xmlns:xlink="http://www.w3.org/1999/xlink" x="0px" y="0px"
	 width="1190.551px" height="1190.551px" viewBox="0 0 1190.551 1190.551" enable-background="new 0 0 1190.551 1190.551"
	 xml:space="preserve">
<g>
	<polygon fill="#010202" points="17.931,573.834 60.97,573.834 60.97,593.558 102.214,593.558 102.214,573.834 136.286,573.834 
		136.286,593.558 177.529,593.558 177.529,573.834 209.808,573.834 209.808,593.558 251.053,593.558 251.053,573.834 
		286.691,573.834 286.691,593.558 327.937,593.558 327.937,573.834 362.823,573.834 362.823,593.558 404.066,593.558 
		404.066,573.834 432.23,573.834 432.23,593.558 473.474,593.558 473.474,573.834 502.105,573.834 502.105,555.515 520.034,555.515 
		520.034,516.062 502.105,516.062 502.105,483.787 520.034,483.787 520.034,444.337 502.105,444.337 502.105,407.351 
		520.034,407.351 520.034,367.898 502.105,367.898 502.105,325.31 520.034,325.31 520.034,285.859 502.105,285.859 502.105,246.406 
		520.034,246.406 520.034,206.957 502.105,206.957 502.105,164.305 520.034,164.305 520.034,124.854 502.105,124.854 
		502.105,84.506 520.034,84.506 520.034,45.055 502.105,45.055 502.105,21.519 473.474,21.519 473.474,0 432.23,0 432.23,21.519 
		404.066,21.519 404.066,0 362.823,0 362.823,21.519 327.937,21.519 327.937,0 286.691,0 286.691,21.519 251.053,21.519 251.053,0 
		209.808,0 209.808,21.519 177.529,21.519 177.529,0 136.286,0 136.286,21.519 102.214,21.519 102.214,0 60.97,0 60.97,21.519 
		17.931,21.519 17.931,45.055 0,45.055 0,84.506 17.931,84.506 17.931,124.854 0,124.854 0,164.305 17.931,164.305 17.931,206.957 
		0,206.957 0,246.406 17.931,246.406 17.931,285.859 0,285.859 0,325.31 17.931,325.31 17.931,367.898 0,367.898 0,407.351 
		17.931,407.351 17.931,444.337 0,444.337 0,483.787 17.931,483.787 17.931,516.062 0,516.062 0,555.515 17.931,555.515 	"/>
	<path fill="#010202" d="M269.201,892.908l126.858-126.857v-99.012H203.523L0,564.83v597.278L269.201,892.908
		c-0.002,164.385,133.255,297.642,297.637,297.642c164.384,0,297.642-133.258,297.642-297.642H269.201z"/>
</g>
</svg>
