<?xml version="1.0" encoding="utf-8"?>
<!-- Generator: Adobe Illustrator 16.0.0, SVG Export Plug-In . SVG Version: 6.00 Build 0)  -->
<!DOCTYPE svg PUBLIC "-//W3C//DTD SVG 1.1//EN" "http://www.w3.org/Graphics/SVG/1.1/DTD/svg11.dtd">
<svg version="1.1" id="Calque_1" xmlns="http://www.w3.org/2000/svg" xmlns:xlink="http://www.w3.org/1999/xlink" x="0px" y="0px"
	 width="1190.551px" height="1190.551px" viewBox="0 0 1190.551 1190.551" enable-background="new 0 0 1190.551 1190.551"
	 xml:space="preserve">
<path fill="#010202" d="M426.147,1190.551h595.278c0.002-164.384-133.256-297.642-297.639-297.642
	c-50.409,0-97.882,12.55-139.492,34.668v-58.955h180.109V520.035h-46.774v-17.931h23.534v-28.631h21.521V432.23h-21.521v-28.164
	h21.521v-41.243h-21.521v-34.886h21.521v-41.246h-21.521v-35.638h21.521v-41.245h-21.521v-32.279h21.521v-41.242h-21.521v-34.072
	h21.521V60.969h-21.521V17.931h-23.534V0h-39.451v17.931h-40.35V0h-39.449v17.931h-42.652V0h-39.449v17.931h-39.451V0h-39.451
	v17.931h-42.589V0h-39.453v17.931h-36.985V0h-39.451v17.931h-32.274V0h-39.453v17.931H188.85v43.038h-19.724v41.245h19.724v34.072
	h-19.724v41.242h19.724v32.279h-19.724v41.245h19.724v35.638h-19.724v41.246h19.724v34.886h-19.724v41.243h19.724v28.164h-19.724
	v41.244h19.724v28.631h18.319v17.931h39.453v-17.931h32.273v17.931H252.25v99.212h-83.124v134.075h166.249v61.671h99.213v112.621
	h149.636C490.185,977.634,426.147,1076.607,426.147,1190.551z M637.828,502.105h40.35v17.931h-40.35V502.105z M318.348,520.035
	v-17.931h36.985v17.931H318.348z M415.818,616.568v-96.532h-21.031v-17.931h42.588v17.931h39.451v-17.931h39.451v17.931h39.449
	v-17.931h42.652v17.931h1.116v96.532H415.818z"/>
</svg>
