<?xml version="1.0" encoding="utf-8"?>
<!-- Generator: Adobe Illustrator 16.0.0, SVG Export Plug-In . SVG Version: 6.00 Build 0)  -->
<!DOCTYPE svg PUBLIC "-//W3C//DTD SVG 1.1//EN" "http://www.w3.org/Graphics/SVG/1.1/DTD/svg11.dtd">
<svg version="1.1" id="Calque_1" xmlns="http://www.w3.org/2000/svg" xmlns:xlink="http://www.w3.org/1999/xlink" x="0px" y="0px"
	 width="1190.551px" height="1190.551px" viewBox="0 0 1190.551 1190.551" enable-background="new 0 0 1190.551 1190.551"
	 xml:space="preserve">
<path fill="#010202" d="M659.2,595.279V4.032H454.33v280.349h55.713v215.65H233.287V429.03h61.671v-99.213H407.58V180.111h-58.993V0
	H0v164.907h96.532v183.68H0v163.567h99.213v83.124h10.559v17.931H77.496v-17.931H38.043v17.931H19.725v43.038H0v41.245h19.725
	v34.072H0v41.243h19.725v32.279H0v41.244h19.725v35.64H0v41.246h19.725v34.885H0v41.244h19.725v28.164H0v41.242h19.725v28.633
	h18.318v17.929h39.453v-17.929h32.275v17.929h39.451v-17.929h36.984v17.929h39.453v-17.929h42.588v17.929H307.7v-17.929h39.451
	v17.929h39.449v-17.929h42.653v17.929h39.45v-17.929h40.348v17.929h39.452v-17.929h23.535v-28.633h21.519v-41.242h-21.519v-28.164
	h21.519v-41.244h-21.519v-34.885h21.519v-41.246h-21.519v-35.64h21.519v-41.244h-21.519v-32.279h21.519v-41.243h-21.519v-34.072
	h21.519v-41.245h-21.519v-43.038h-23.535v-17.931H659.2z M186.207,613.209h-36.984v-17.931h36.984V613.209z M268.248,613.209H225.66
	v-17.931h7.627h34.961V613.209z M347.152,613.209H307.7v-17.931h39.451V613.209z M429.254,613.209h-42.653v-17.931h42.653V613.209z
	 M509.052,613.209h-40.348v-17.931h40.348V613.209z"/>
</svg>
