<?xml version="1.0" encoding="utf-8"?>
<!-- Generator: Adobe Illustrator 16.0.0, SVG Export Plug-In . SVG Version: 6.00 Build 0)  -->
<!DOCTYPE svg PUBLIC "-//W3C//DTD SVG 1.1//EN" "http://www.w3.org/Graphics/SVG/1.1/DTD/svg11.dtd">
<svg version="1.1" id="Calque_1" xmlns="http://www.w3.org/2000/svg" xmlns:xlink="http://www.w3.org/1999/xlink" x="0px" y="0px"
	 width="1190.551px" height="1190.551px" viewBox="0 0 1190.551 1190.551" enable-background="new 0 0 1190.551 1190.551"
	 xml:space="preserve">
<path fill="#010202" d="M1105.871,132.866V37.619H679.957H84.679v595.277h38.043v17.935h-18.318v43.037H84.679v41.243h19.725v34.072
	H84.679v41.242h19.725v32.281H84.679v41.242h19.725v35.639H84.679v41.247h19.725v34.885H84.679v41.243h19.725v28.165H84.679v41.245
	h19.725v28.63h18.318v17.929h39.453v-17.929h32.274v17.929h39.451v-17.929h36.984v17.929h39.453v-17.929h42.588v17.929h39.453
	v-17.929h39.45v17.929h39.449v-17.929h42.653v17.929h39.449v-17.929h40.349v17.929h39.452v-17.929h23.535v-28.63h21.52v-41.245
	h-21.52v-28.165h21.52v-41.242h-21.52v-34.886h21.52v-41.246h-21.52V883.95h21.52v-41.242h-21.52v-32.281h21.52v-41.242h-21.52
	v-34.072h21.52v-41.243h-21.52v-43.037h-23.535v-17.934h46.773v-4.034h204.871V348.516h-55.713v-215.65H1105.871z M194.451,650.831
	h-32.275v-17.935h32.274L194.451,650.831L194.451,650.831z M270.886,650.831h-36.984v-17.935h36.984V650.831z M352.927,650.831
	H310.34v-17.935h42.588V650.831L352.927,650.831z M431.831,650.831H392.38v-17.935h39.45L431.831,650.831L431.831,650.831z
	 M513.933,650.831H471.28v-17.935h42.653V650.831L513.933,650.831z M593.731,650.831h-40.349v-17.935h40.349V650.831z
	 M679.957,369.26H265.679v-68h414.278V369.26L679.957,369.26z"/>
</svg>
