<?xml version="1.0" encoding="utf-8"?>
<!-- Generator: Adobe Illustrator 16.0.0, SVG Export Plug-In . SVG Version: 6.00 Build 0)  -->
<!DOCTYPE svg PUBLIC "-//W3C//DTD SVG 1.1//EN" "http://www.w3.org/Graphics/SVG/1.1/DTD/svg11.dtd">
<svg version="1.1" id="Calque_1" xmlns="http://www.w3.org/2000/svg" xmlns:xlink="http://www.w3.org/1999/xlink" x="0px" y="0px"
	 width="1190.551px" height="1190.551px" viewBox="0 0 1190.551 1190.551" enable-background="new 0 0 1190.551 1190.551"
	 xml:space="preserve">
<path fill="#010202" d="M1021.193,95.247V0H595.279H0v595.278h38.043v17.934H19.725v43.037H0v41.243h19.725v34.072H0v41.243h19.725
	v32.281H0v41.242h19.725v35.639H0v41.247h19.725v34.885H0v41.243h19.725v28.165H0v41.245h19.725v28.63h18.318v17.929h39.453v-17.929
	h32.275v17.929h39.451v-17.929h36.984v17.929h39.453v-17.929h42.588v17.929H307.7v-17.929h39.451v17.929h39.449v-17.929h42.653
	v17.929h39.45v-17.929h40.348v17.929h39.452v-17.929h23.535v-28.63h21.519v-41.245h-21.519v-28.165h21.519v-41.243h-21.519v-34.885
	h21.519V881.97h-21.519v-35.639h21.519v-41.242h-21.519v-32.281h21.519v-41.243h-21.519v-34.072h21.519v-41.243h-21.519v-43.037
	h-23.535v-17.934h46.774v-4.034h204.87V310.897h-55.712V95.247H1021.193z M109.772,613.212H77.496v-17.934h32.275V613.212z
	 M186.207,613.212h-36.984v-17.934h36.984V613.212z M268.248,613.212H225.66v-17.934h42.588V613.212z M347.152,613.212H307.7
	v-17.934h39.451V613.212z M429.254,613.212h-42.653v-17.934h42.653V613.212z M509.052,613.212h-40.348v-17.934h40.348V613.212z
	 M595.279,331.641H181v-68h414.278V331.641z"/>
</svg>
