<?xml version="1.0" encoding="utf-8"?>
<!-- Generator: Adobe Illustrator 16.0.0, SVG Export Plug-In . SVG Version: 6.00 Build 0)  -->
<!DOCTYPE svg PUBLIC "-//W3C//DTD SVG 1.1//EN" "http://www.w3.org/Graphics/SVG/1.1/DTD/svg11.dtd">
<svg version="1.1" id="Calque_1" xmlns="http://www.w3.org/2000/svg" xmlns:xlink="http://www.w3.org/1999/xlink" x="0px" y="0px"
	 width="1190.551px" height="1190.551px" viewBox="0 0 1190.551 1190.551" enable-background="new 0 0 1190.551 1190.551"
	 xml:space="preserve">
<path fill="#010202" d="M957.728,735.888V144.642h-204.87v12.213h-17.931v-32.276h17.931V85.126h-17.931V66.808h-43.038V47.083
	h-41.245v19.725h-34.07V47.083H575.33v19.725h-32.279V47.083h-41.245v19.725h-35.638V47.083h-41.246v19.725h-34.886V47.083h-41.243
	v19.725h-28.165V47.083h-41.244v19.725h-28.631v18.318h-17.93v39.453h17.93v32.275h-17.93v39.451h17.93v36.984h-17.93v39.453h17.93
	v42.588h-17.93v39.453h17.93v39.451h-17.93v39.449h17.93v42.654h-17.93v39.45h17.93v40.347h-17.93v39.453h17.93v23.535h28.631
	v21.519h41.244v-21.518h28.164v21.518h41.243v-21.518h34.886v21.518h41.246v-21.518h35.638v21.518h30.011v95.247H412.934v58.994
	h-180.11v348.586h164.907v-96.531h183.68v96.531h163.566v-99.212h83.124V910.181H661.853V848.51H562.64V735.888H957.728z
	 M734.927,196.306h17.931v36.984h-17.931V196.306L734.927,196.306z M734.927,272.743h17.931v42.588h-17.931V272.743L734.927,272.743
	z M734.927,354.783h17.931v39.451h-17.931V354.783L734.927,354.783z M691.889,619.123h43.038v-23.535h17.931v-39.453h-17.931
	v-40.347h17.931v-39.45h-17.931v-42.654h17.931v-8.693h55.712v215.649H691.889V619.123z M616.573,619.123h34.07v21.518h-34.07
	V619.123L616.573,619.123z M543.05,619.123h32.279v21.518H543.05V619.123z"/>
</svg>
