<?xml version="1.0" encoding="utf-8"?>
<!-- Generator: Adobe Illustrator 16.0.0, SVG Export Plug-In . SVG Version: 6.00 Build 0)  -->
<!DOCTYPE svg PUBLIC "-//W3C//DTD SVG 1.1//EN" "http://www.w3.org/Graphics/SVG/1.1/DTD/svg11.dtd">
<svg version="1.1" id="Calque_1" xmlns="http://www.w3.org/2000/svg" xmlns:xlink="http://www.w3.org/1999/xlink" x="0px" y="0px"
	 width="1190.551px" height="1190.551px" viewBox="0 0 1190.551 1190.551" enable-background="new 0 0 1190.551 1190.551"
	 xml:space="preserve">
<g>
	<path fill="#010202" d="M639.24,840.319V718.336c7.861,51.588,52.523,91.238,106.271,91.238c59.274,0,107.5-48.224,107.5-107.5
		c0-59.273-48.225-107.5-107.5-107.5c-59.273,0-107.499,48.226-107.499,107.5c0,5.221,0.381,10.352,1.104,15.373H418.833V594.575
		h36.017v-21.518h34.886v21.518h41.246v-21.518h35.638v21.518h41.245v-21.518h32.279v21.518h41.243v-21.518h34.07v21.518h30.055
		h11.189v-21.518h43.039v-23.536h17.931v-39.452H799.74v-40.347h17.931v-39.451H799.74v-42.653h17.931v-39.449H799.74v-39.452
		h17.931v-39.451H799.74v-42.588h17.931v-39.453H799.74v-36.986h17.931v-39.451H799.74V78.513h17.931V39.059H799.74V20.741h-43.039
		V1.017h-41.244v19.724h-34.07V1.017h-41.243v19.724h-32.279V1.017h-41.245v19.724h-35.638V1.017h-41.246v19.724H454.85V1.017
		h-41.243v19.724h-28.165V1.017h-41.244v19.724h-28.631v18.318h-17.93v39.454h17.93v32.274h-17.93v39.451h17.93v36.986h-17.93
		v39.453h17.93v42.588h-17.93v39.452h17.93v39.451h-17.93v39.449h17.93v42.653h-17.93v39.451h17.93v40.347h-17.93v39.452h17.93
		v23.536h28.631v21.518h-46.561v594.96h121.195v-122.871H639.24V943.791h253.675V840.319H639.24z M385.442,594.575v-21.518h28.164
		v21.518H385.442z"/>
	<path fill="#010202" d="M746.185,970.139c-59.274,0-107.5,48.226-107.5,107.5c0,59.272,48.227,107.5,107.5,107.5
		c59.274,0,107.5-48.228,107.5-107.5C853.685,1018.364,805.459,970.139,746.185,970.139z"/>
</g>
</svg>
