<?xml version="1.0" encoding="utf-8"?>
<!-- Generator: Adobe Illustrator 16.0.0, SVG Export Plug-In . SVG Version: 6.00 Build 0)  -->
<!DOCTYPE svg PUBLIC "-//W3C//DTD SVG 1.1//EN" "http://www.w3.org/Graphics/SVG/1.1/DTD/svg11.dtd">
<svg version="1.1" id="Calque_1" xmlns="http://www.w3.org/2000/svg" xmlns:xlink="http://www.w3.org/1999/xlink" x="0px" y="0px"
	 width="1190.551px" height="1190.551px" viewBox="0 0 1190.551 1190.551" enable-background="new 0 0 1190.551 1190.551"
	 xml:space="preserve">
<g>
	<path fill="#010202" d="M341.604,839.303V717.319c7.861,51.587,52.524,91.239,106.271,91.239c59.276,0,107.5-48.225,107.5-107.5
		s-48.224-107.5-107.5-107.5c-59.273,0-107.499,48.224-107.499,107.5c0,5.22,0.381,10.351,1.104,15.373H121.197V593.558h-18.982
		v-19.723h34.072v19.723h41.242v-19.723h32.279v19.723h41.245v-19.723h35.638v19.723h41.246v-19.723h34.886v19.723h41.243v-19.723
		h28.164v19.723h15.645h25.6v-19.723h28.631v-18.319h17.93v-39.454h-17.93v-32.274h17.93v-39.45h-17.93V407.35h17.93v-39.453h-17.93
		v-42.588h17.93v-39.451h-17.93v-39.452h17.93v-39.448h-17.93v-42.652h17.93v-39.452h-17.93V84.506h17.93V45.055h-17.93V21.518
		h-28.631V0H432.23v21.518h-28.164V0h-41.243v21.518h-34.886V0h-41.246v21.518h-35.638V0h-41.245v21.518h-32.279V0h-41.242v21.518
		h-34.072V0H60.97v21.518H17.931v23.537H0v39.451h17.931v40.347H0v39.452h17.931v42.652H0v39.448h17.931v39.452H0v39.451h17.931
		v42.588H0v39.453h17.931v36.987H0v39.45h17.931v32.274H0v39.454h17.931v18.319H60.97v19.723H0v594.961h121.196v-122.872h220.407
		V942.774h253.675V839.303H341.604z"/>
	<path fill="#010202" d="M448.548,969.122c-59.275,0-107.5,48.225-107.5,107.5c0,59.273,48.225,107.5,107.5,107.5
		c59.273,0,107.5-48.227,107.5-107.5C556.048,1017.347,507.822,969.122,448.548,969.122z"/>
</g>
</svg>
