<?xml version="1.0" encoding="utf-8"?>
<!-- Generator: Adobe Illustrator 16.0.0, SVG Export Plug-In . SVG Version: 6.00 Build 0)  -->
<!DOCTYPE svg PUBLIC "-//W3C//DTD SVG 1.1//EN" "http://www.w3.org/Graphics/SVG/1.1/DTD/svg11.dtd">
<svg version="1.1" id="Calque_1" xmlns="http://www.w3.org/2000/svg" xmlns:xlink="http://www.w3.org/1999/xlink" x="0px" y="0px"
	 width="1190.551px" height="1190.551px" viewBox="0 0 1190.551 1190.551" enable-background="new 0 0 1190.551 1190.551"
	 xml:space="preserve">
<path fill="#010202" d="M683.735,650.83h-23.535v-17.934h418.656L682.797,236.839h-99.013v-78.022h122.873V37.619h-594.96v121.196
	h122.872v220.407h122.873v253.674h22.504v17.934h-42.588v-17.934h-39.453v17.934h-36.986v-17.934h-39.451v17.934h-32.274v-17.934
	h-39.454v17.934H131.42v43.037h-19.724v41.244h19.724v34.072h-19.724v41.242h19.724v32.28h-19.724v41.243h19.724v35.639h-19.724
	v41.247h19.724v34.885h-19.724v41.243h19.724v28.165h-19.724v41.244h19.724v28.631h18.318v17.929h39.454v-17.929h32.273v17.929
	h39.451v-17.929h36.986v17.929h39.453v-17.929h42.588v17.929h39.452v-17.929h39.45v17.929h39.449v-17.929h42.652v17.929h39.45
	v-17.929h40.348v17.929h39.451v-17.929h23.535v-28.631h21.52v-41.244h-21.52v-28.165h21.52v-41.242h-21.52v-34.886h21.52v-41.246
	h-21.52V883.95h21.52v-41.243h-21.52v-32.28h21.52v-41.242h-21.52v-34.072h21.52v-41.244h-21.52V650.83H683.735z M458.847,650.83
	h-39.451v-17.934h39.45L458.847,650.83L458.847,650.83z M460.913,632.898V379.223h122.871v50.152L481.576,632.898H460.913z
	 M540.949,650.83h-42.652v-17.934h42.652V650.83z M620.748,650.83h-40.349v-17.934h40.349V650.83z"/>
</svg>
