<?xml version="1.0" encoding="utf-8"?>
<!-- Generator: Adobe Illustrator 16.0.0, SVG Export Plug-In . SVG Version: 6.00 Build 0)  -->
<!DOCTYPE svg PUBLIC "-//W3C//DTD SVG 1.1//EN" "http://www.w3.org/Graphics/SVG/1.1/DTD/svg11.dtd">
<svg version="1.1" id="Calque_1" xmlns="http://www.w3.org/2000/svg" xmlns:xlink="http://www.w3.org/1999/xlink" x="0px" y="0px"
	 width="1190.551px" height="1190.551px" viewBox="0 0 1190.551 1190.551" enable-background="new 0 0 1190.551 1190.551"
	 xml:space="preserve">
<path fill="#010202" d="M1104.46,1127.87L708.404,731.812h-99.013v121.939v70.597l-29.348,58.438
	c18.809-39.035,29.348-82.803,29.348-129.033c0-149.831-110.717-273.783-254.796-294.558h39.194v-17.931h39.452v17.931h39.449
	v-17.931h42.652v17.931h39.449v-17.931h40.35v17.931h39.451v-17.931h23.534v-28.631h21.521v-41.244h-21.521v-28.164h21.521v-41.242
	h-21.521v-34.887h21.521V325.85h-21.521v-35.638h21.521v-41.245h-21.521v-32.279h21.521v-41.242h-21.521v-34.072h21.521v-41.245
	h-21.521V57.09h-23.534V39.159h-39.451V57.09h-40.35V39.159h-39.449V57.09h-42.652V39.159h-39.449V57.09H393.79V39.159h-39.451
	V57.09h-42.588V39.159h-39.453V57.09h-36.985V39.159h-39.451V57.09h-32.274V39.159h-39.453V57.09h-18.319v43.039H86.091v41.244
	h19.724v34.072H86.091v41.242h19.724v32.279H86.091v41.245h19.724v35.638H86.091v41.246h19.724v34.887H86.091v41.242h19.724v28.164
	H86.091v41.244h19.724v28.631h18.319v17.931h39.453v-17.931h32.273v17.931h39.451v-17.931h36.985v17.931h39.452v592.197
	c115.037,0.001,214.819-65.27,264.367-160.789l-68.936,137.268H1104.46z M354.339,541.264v17.895
	c-13.911-1.994-28.125-3.046-42.588-3.046v-14.849H354.339z"/>
</svg>
