<?xml version="1.0" encoding="utf-8"?>
<!-- Generator: Adobe Illustrator 16.0.0, SVG Export Plug-In . SVG Version: 6.00 Build 0)  -->
<!DOCTYPE svg PUBLIC "-//W3C//DTD SVG 1.1//EN" "http://www.w3.org/Graphics/SVG/1.1/DTD/svg11.dtd">
<svg version="1.1" id="Calque_1" xmlns="http://www.w3.org/2000/svg" xmlns:xlink="http://www.w3.org/1999/xlink" x="0px" y="0px"
	 width="1190.551px" height="1190.551px" viewBox="0 0 1190.551 1190.551" enable-background="new 0 0 1190.551 1190.551"
	 xml:space="preserve">
<path fill="#010202" d="M798.484,102.208L594.961,0v520.035h-39.445v-17.932h18.318v-43.039h19.724v-41.244h-19.724v-34.071h19.724
	v-41.243h-19.724v-32.279h19.724v-41.245h-19.724v-35.638h19.724v-41.246h-19.724v-34.886h19.724V115.97h-19.724V87.805h19.724
	V46.561h-19.724V17.93h-18.318V0h-39.454v17.93h-32.275V0h-39.45v17.93H407.35V0h-39.453v17.93h-42.588V0h-39.451v17.93h-39.452V0
	h-39.448v17.93h-42.652V0h-39.452v17.93H84.506V0H45.055v17.93H21.518v28.631H0v41.244h21.518v28.165H0v41.242h21.518v34.886H0
	v41.246h21.518v35.638H0v41.245h21.518v32.279H0v41.243h21.518v34.071H0v41.244h21.518v43.039h23.537v17.932H0v121.196h122.872
	v220.407h122.873v253.675h103.472V861.639h122.871V641.232h122.873v-43.951L991.02,201.222v-99.014H798.484z M84.506,520.035
	v-17.932h40.347v17.932H84.506z M164.305,520.035v-17.932h42.652v17.932H164.305z M246.406,520.035v-17.932h39.452v17.932H246.406z
	 M325.309,520.035v-17.932h42.588v17.932H325.309z M407.35,520.035v-17.932h36.986v17.932H407.35z M483.786,520.035v-17.932h32.275
	v17.932H483.786z"/>
</svg>
