<?xml version="1.0" encoding="utf-8"?>
<!-- Generator: Adobe Illustrator 16.0.0, SVG Export Plug-In . SVG Version: 6.00 Build 0)  -->
<!DOCTYPE svg PUBLIC "-//W3C//DTD SVG 1.1//EN" "http://www.w3.org/Graphics/SVG/1.1/DTD/svg11.dtd">
<svg version="1.1" id="Calque_1" xmlns="http://www.w3.org/2000/svg" xmlns:xlink="http://www.w3.org/1999/xlink" x="0px" y="0px"
	 width="1190.551px" height="1190.551px" viewBox="0 0 1190.551 1190.551" enable-background="new 0 0 1190.551 1190.551"
	 xml:space="preserve">
<path fill="#010202" d="M520.034,97.559v12.213h-17.931V77.496h17.931V38.043h-17.931V19.725h-43.038V0h-41.245v19.725h-34.071V0
	h-41.243v19.725h-32.279V0h-41.245v19.725h-35.638V0h-41.246v19.725h-34.886V0h-41.243v19.725H87.805V0H46.561v19.725H17.93v18.318
	H0v39.453h17.93v32.275H0v39.451h17.93v36.984H0v39.453h17.93v42.588H0V307.7h17.93v39.451H0v39.449h17.93v42.654H0v39.45h17.93
	v40.347H0v39.453h17.93v23.535h28.631v21.518h41.244V572.04h28.164v21.518h41.243V572.04h34.886v21.518h41.246V572.04h35.638v21.518
	h30.01v95.247H430.37v96.533H246.692v-96.533H83.124v99.213H0v134.075h166.249v61.67h99.213v112.623h149.706v-58.994h180.11V688.805
	h129.626V97.559H520.034z M502.104,149.223h17.931v36.984h-17.931V149.223z M502.104,225.66h17.931v42.588h-17.931V225.66z
	 M502.104,307.7h17.931v39.451h-17.931V307.7z M459.066,572.04h43.038v-23.535h17.931v-39.453h-17.931v-40.347h17.931v-39.45
	h-17.931v-42.654h17.931v-8.693h55.712v215.65H459.066V572.04z M310.227,593.558V572.04h32.279v21.518H310.227z M383.749,593.558
	V572.04h34.071v21.518H383.749z"/>
</svg>
