<?xml version="1.0" encoding="utf-8"?>
<!-- Generator: Adobe Illustrator 16.0.0, SVG Export Plug-In . SVG Version: 6.00 Build 0)  -->
<!DOCTYPE svg PUBLIC "-//W3C//DTD SVG 1.1//EN" "http://www.w3.org/Graphics/SVG/1.1/DTD/svg11.dtd">
<svg version="1.1" id="Calque_1" xmlns="http://www.w3.org/2000/svg" xmlns:xlink="http://www.w3.org/1999/xlink" x="0px" y="0px"
	 width="1190.551px" height="1190.551px" viewBox="0 0 1190.551 1190.551" enable-background="new 0 0 1190.551 1190.551"
	 xml:space="preserve">
<path fill="#010202" d="M916.094,198.398H723.558L520.034,96.189v13.582h-17.931V77.496h17.931V38.043h-17.931V19.724h-43.039V0
	h-41.244v19.724h-34.071V0h-41.243v19.724h-32.279V0h-41.245v19.724h-35.638V0h-41.246v19.724h-34.886V0h-41.243v19.724H87.805V0
	H46.561v19.724H17.93v18.319H0v39.453h17.93v32.274H0v39.451h17.93v36.985H0v39.453h17.93v42.588H0v39.45h17.93v39.453H0v39.449
	h17.93v42.653H0v39.45h17.93v40.348H0v39.452h17.93v23.535h28.631v21.519h41.244v-21.519h28.164v21.519h41.243v-21.519h34.886
	v21.519h41.246v-21.519h35.638v21.519h28.658h12.587v-21.519h32.279v21.519h41.243v-21.519h34.071v21.519h41.244v-21.519h43.039
	v-23.535h17.931v144.907c-54.516-61.255-133.942-99.854-222.395-99.854c-164.383,0-297.641,133.258-297.641,297.64h595.278
	c0.001-75.914-28.435-145.176-75.216-197.755L916.094,297.41V198.398z M502.104,149.222h17.931v36.985h-17.931V149.222z
	 M502.104,225.66h17.931v42.588h-17.931V225.66z M502.104,307.698h17.931v39.453h-17.931V307.698z M502.104,386.601h17.931v42.653
	h-17.931V386.601z M502.104,509.052v-40.348h17.931v40.348H502.104z"/>
</svg>
