<?xml version="1.0" encoding="utf-8"?>
<!-- Generator: Adobe Illustrator 16.0.0, SVG Export Plug-In . SVG Version: 6.00 Build 0)  -->
<!DOCTYPE svg PUBLIC "-//W3C//DTD SVG 1.1//EN" "http://www.w3.org/Graphics/SVG/1.1/DTD/svg11.dtd">
<svg version="1.1" id="Calque_1" xmlns="http://www.w3.org/2000/svg" xmlns:xlink="http://www.w3.org/1999/xlink" x="0px" y="0px"
	 width="1190.551px" height="1190.551px" viewBox="0 0 1190.551 1190.551" enable-background="new 0 0 1190.551 1190.551"
	 xml:space="preserve">
<path fill="#010202" d="M349.217,595.279v-6.912h192.535l203.522,102.208V93.294L349.217,489.352V341.604h122.871V121.197h122.873V0
	H0v121.196h122.872v220.407h122.873v253.675h-38.788v17.932h-42.652v-17.932h-39.452v17.932H84.506v-17.932H45.055v17.932H21.518
	v28.631H0v41.244h21.518v28.162H0v41.243h21.518v34.888H0v41.244h21.518v35.639H0v41.246h21.518v32.277H0v41.243h21.518v34.072H0
	v41.244h21.518v43.04h23.537v17.93h39.451v-17.93h40.347v17.93h39.452v-17.93h42.652v17.93h39.448v-17.93h39.452v17.93h39.451
	v-17.93h42.588v17.93h39.453v-17.93h36.986v17.93h39.45v-17.93h32.275v17.93h39.454v-17.93h18.318v-43.04h19.724V1013.1h-19.724
	v-34.072h19.724v-41.243h-19.724v-32.277h19.724v-41.246h-19.724v-35.639h19.724v-41.244h-19.724V752.49h19.724v-41.243h-19.724
	v-28.162h19.724v-41.244h-19.724V613.21h-18.318v-17.932h-39.454v17.932h-32.275v-17.932h-39.45v17.932H407.35v-17.932h-39.453
	v17.932h-42.588v-17.932H349.217z M285.858,613.21h-39.452v-17.932h39.452V613.21z"/>
</svg>
