<?xml version="1.0" encoding="utf-8"?>
<!-- Generator: Adobe Illustrator 16.0.0, SVG Export Plug-In . SVG Version: 6.00 Build 0)  -->
<!DOCTYPE svg PUBLIC "-//W3C//DTD SVG 1.1//EN" "http://www.w3.org/Graphics/SVG/1.1/DTD/svg11.dtd">
<svg version="1.1" id="Calque_1" xmlns="http://www.w3.org/2000/svg" xmlns:xlink="http://www.w3.org/1999/xlink" x="0px" y="0px"
	 width="1190.551px" height="1190.551px" viewBox="0 0 1190.551 1190.551" enable-background="new 0 0 1190.551 1190.551"
	 xml:space="preserve">
<path fill="#010202" d="M870.569,817.181v55.712h-215.65V596.137h-20.004V0.857H39.636v595.277h60.97v21.521H57.568v23.534H39.636
	v39.452h17.932v40.349H39.636v39.449h17.932v42.653H39.636v39.448h17.932v39.452H39.636v39.453h17.932v42.588H39.636v39.453h17.932
	v36.982H39.636v39.451h17.932v32.276H39.636v39.453h17.932v18.316h43.038v19.727h41.244v-19.727h34.072v19.727h41.241v-19.727h32.28
	v19.727h41.244v-19.727h35.638v19.727h41.246v-19.727h34.886v19.727h41.243v-19.727h28.164v19.727h41.245v-19.727h28.63v-18.316
	h17.93v-39.453h-17.93v-32.276h17.93v-39.451h-17.93v-36.982h17.93v18.562h591.245V817.18L870.569,817.181L870.569,817.181z
	 M175.923,617.655H141.85v-21.521h34.072V617.655z M249.445,617.655h-32.28v-21.521h32.28V617.655z M402.459,617.655h-34.886
	v-21.521h-41.246v21.521h-35.638v-21.521h12.585V181.857h68v414.277h31.185V617.655z M471.866,617.655h-28.164v-21.521h28.164
	V617.655z M559.67,964.035h-17.93v-42.588h17.93V964.035z M559.67,881.994h-17.93v-39.452h17.93V881.994z M559.67,803.094h-17.93
	V760.44h17.93V803.094z M559.67,720.99h-17.93v-40.349h17.93V720.99z M559.67,641.189h-17.93v-23.534h-28.63v-21.521h46.56V641.189z
	"/>
</svg>
