<?xml version="1.0" encoding="utf-8"?>
<!-- Generator: Adobe Illustrator 16.0.0, SVG Export Plug-In . SVG Version: 6.00 Build 0)  -->
<!DOCTYPE svg PUBLIC "-//W3C//DTD SVG 1.1//EN" "http://www.w3.org/Graphics/SVG/1.1/DTD/svg11.dtd">
<svg version="1.1" id="Calque_1" xmlns="http://www.w3.org/2000/svg" xmlns:xlink="http://www.w3.org/1999/xlink" x="0px" y="0px"
	 width="1190.551px" height="1190.551px" viewBox="0 0 1190.551 1190.551" enable-background="new 0 0 1190.551 1190.551"
	 xml:space="preserve">
<g>
	<path fill="#010202" d="M892.756,632.897V511.701H769.884V291.293h-15.373h-107.5v-107.5V37.619H543.54v253.675H421.555
		c51.586-7.861,91.24-52.521,91.24-106.271c0-59.273-48.228-107.5-107.5-107.5c-59.275,0-107.5,48.226-107.5,107.5
		c0,59.275,48.225,107.5,107.5,107.5c5.219,0,10.351-0.382,15.373-1.104v220.283H297.795v121.196h45.055v17.933h-23.537v28.629
		h-21.518v41.246h21.518v28.162h-21.518v41.242h21.518v34.889h-21.518v41.244h21.518v35.639h-21.518v41.246h21.518v32.277h-21.518
		v41.242h21.518v34.072h-21.518v41.244h21.518v43.039h23.537v17.93h39.451v-17.93h40.347v17.93H462.1v-17.93h42.652v17.93h39.447
		v-17.93h39.452v17.93h39.451v-17.93h42.588v17.93h39.453v-17.93h36.986v17.93h39.449v-17.93h32.275v17.93h39.454v-17.93h18.317
		v-43.039h19.725v-41.244h-19.725v-34.072h19.725v-41.242h-19.725v-32.277h19.725v-41.246h-19.725v-35.639h19.725v-41.244h-19.725
		v-34.889h19.725v-41.244h-19.725v-28.162h19.725v-41.244h-19.725v-28.631h-18.317v-17.932L892.756,632.897L892.756,632.897z
		 M422.648,650.828h-40.347v-17.932h40.347V650.828z M504.752,650.828H462.1v-17.932h42.652V650.828z M583.653,650.828H544.2
		v-17.932h39.452V650.828z M665.692,650.828h-42.588v-17.932h42.588V650.828z M742.131,650.828h-36.986v-17.932h36.986V650.828z
		 M813.857,650.828h-32.275v-17.932h32.275V650.828z"/>
	<path fill="#010202" d="M754.511,291.293c59.274,0,107.5-48.226,107.5-107.5c0-59.273-48.226-107.5-107.5-107.5
		s-107.5,48.226-107.5,107.5C647.011,243.068,695.238,291.293,754.511,291.293z"/>
</g>
</svg>
