<?xml version="1.0" encoding="utf-8"?>
<!-- Generator: Adobe Illustrator 16.0.0, SVG Export Plug-In . SVG Version: 6.00 Build 0)  -->
<!DOCTYPE svg PUBLIC "-//W3C//DTD SVG 1.1//EN" "http://www.w3.org/Graphics/SVG/1.1/DTD/svg11.dtd">
<svg version="1.1" id="Calque_1" xmlns="http://www.w3.org/2000/svg" xmlns:xlink="http://www.w3.org/1999/xlink" x="0px" y="0px"
	 width="1190.551px" height="1190.551px" viewBox="0 0 1190.551 1190.551" enable-background="new 0 0 1190.551 1190.551"
	 xml:space="preserve">
<g>
	<polygon fill="#010202" points="899.43,1028.732 967.539,819.113 850.68,781.143 929.069,539.885 830.663,507.909 823.622,529.579 
		812.028,513.622 834.814,497.068 846.406,513.025 879.774,488.783 868.181,472.825 891.344,455.996 880.577,441.178 
		895.082,430.638 871.892,398.719 857.386,409.258 838.415,383.147 852.921,372.608 829.733,340.691 815.227,351.231 
		793.487,321.308 807.992,310.769 784.803,278.851 770.297,289.39 745.266,254.935 759.77,244.396 736.581,212.48 722.076,223.019 
		698.886,191.103 713.392,180.563 690.204,148.648 675.699,159.187 650.628,124.68 665.135,114.142 641.945,82.224 627.439,92.763 
		603.724,60.122 618.23,49.583 595.041,17.666 580.535,28.205 566.701,9.163 543.538,25.992 530.89,8.584 497.522,32.826 
		510.171,50.235 487.386,66.789 474.738,49.381 441.371,73.623 454.019,91.031 425.797,111.536 413.147,94.128 379.779,118.373 
		392.427,135.781 363.596,156.728 350.948,139.32 317.579,163.563 330.228,180.971 304.113,199.944 291.465,182.536 
		258.099,206.779 270.747,224.187 243.182,244.213 230.533,226.806 197.167,251.048 209.816,268.456 174.996,293.754 
		188.83,312.796 174.324,323.335 197.514,355.251 212.02,344.712 235.736,377.353 221.229,387.893 244.417,419.811 258.925,409.272 
		283.994,443.778 269.488,454.317 292.676,486.233 307.182,475.692 330.37,507.61 315.865,518.149 339.054,550.067 353.56,539.526 
		378.592,573.981 364.086,584.52 387.276,616.438 401.781,605.899 423.522,635.821 409.015,646.361 432.204,678.277 
		446.711,667.738 465.682,693.848 451.176,704.389 474.366,736.308 488.872,725.767 499.64,740.587 534.459,715.29 546.051,731.246 
		579.419,707.003 567.825,691.046 595.391,671.02 606.984,686.977 640.351,662.736 628.756,646.778 654.87,627.804 666.464,643.761 
		699.833,619.518 688.238,603.561 717.07,582.615 728.664,598.57 762.031,574.327 750.439,558.37 778.663,537.865 790.256,553.823 
		823.622,529.579 752.272,749.168 635.415,711.199 567.306,920.819 450.447,882.849 412.995,998.113 978.836,1181.967 
		1016.288,1066.7 	"/>
	<path fill="#010202" d="M339.789,772.971c-16.507-8.411-34.192-12.134-51.527-11.665c30.939-1.913,60.83-17.091,80.431-44.067
		c34.841-47.953,24.173-115.314-23.782-150.156c-47.953-34.84-115.314-24.173-150.156,23.783
		c-34.84,47.954-24.172,115.315,23.782,150.154c20.009,14.537,43.396,21.146,66.39,20.436
		c-36.902,2.146-71.766,23.249-89.725,58.496c-26.908,52.812-5.834,117.678,46.979,144.587
		c52.814,26.91,117.679,5.836,144.587-46.979C413.679,864.744,392.604,799.881,339.789,772.971z"/>
</g>
</svg>
