<?xml version="1.0" encoding="utf-8"?>
<!-- Generator: Adobe Illustrator 16.0.0, SVG Export Plug-In . SVG Version: 6.00 Build 0)  -->
<!DOCTYPE svg PUBLIC "-//W3C//DTD SVG 1.1//EN" "http://www.w3.org/Graphics/SVG/1.1/DTD/svg11.dtd">
<svg version="1.1" id="Calque_1" xmlns="http://www.w3.org/2000/svg" xmlns:xlink="http://www.w3.org/1999/xlink" x="0px" y="0px"
	 width="1190.551px" height="1190.551px" viewBox="0 0 1190.551 1190.551" enable-background="new 0 0 1190.551 1190.551"
	 xml:space="preserve">
<path fill="#010202" d="M752.858,144.642v12.213h-17.932v-32.276h17.932V85.125h-17.932V66.808h-43.037V47.083h-41.246v19.725
	h-34.07V47.083H575.33v19.725h-32.279V47.083h-41.245v19.725h-35.638V47.083h-41.246v19.725h-34.886V47.083h-41.243v19.725h-28.164
	V47.083h-41.244v19.725h-28.631v18.318h-17.93v39.453h17.93v32.275h-17.93v39.451h17.93v36.984h-17.93v39.453h17.93v42.588h-17.93
	v39.453h17.93v39.451h-17.93v39.449h17.93v42.654h-17.93v39.45h17.93v40.347h-17.93v39.453h17.93v23.535h28.631v21.519h41.244
	v-21.517h28.164v21.518h41.243v-21.518h34.886v21.518h41.246v-21.518h35.638v21.518h30.011v95.246h131.377v96.533H479.515v-96.533
	H315.948V835.1h-83.124v134.076h166.249v61.67h99.213v112.623h149.707v-58.994h180.109V735.887h129.625V144.642H752.858z
	 M734.928,196.306h17.93v36.984h-17.93V196.306L734.928,196.306z M734.928,272.743h17.93v42.588h-17.93V272.743L734.928,272.743z
	 M734.928,354.783h17.93v39.451h-17.93V354.783L734.928,354.783z M691.889,619.123h43.039v-23.536h17.93v-39.453h-17.93v-40.347
	h17.93v-39.45h-17.93v-42.654h17.93v-8.693h55.713v215.65H691.889V619.123z M543.051,640.641v-21.518h32.279v21.518H543.051z
	 M616.573,640.641v-21.518h34.07v21.518H616.573z"/>
</svg>
