<?xml version="1.0" encoding="utf-8"?>
<!-- Generator: Adobe Illustrator 16.0.0, SVG Export Plug-In . SVG Version: 6.00 Build 0)  -->
<!DOCTYPE svg PUBLIC "-//W3C//DTD SVG 1.1//EN" "http://www.w3.org/Graphics/SVG/1.1/DTD/svg11.dtd">
<svg version="1.1" id="Calque_1" xmlns="http://www.w3.org/2000/svg" xmlns:xlink="http://www.w3.org/1999/xlink" x="0px" y="0px"
	 width="1190.551px" height="1190.551px" viewBox="0 0 1190.551 1190.551" enable-background="new 0 0 1190.551 1190.551"
	 xml:space="preserve">
<path fill="#010202" d="M705.014,635.587V40.309c-160.85-0.001-291.876,127.597-297.434,287.092v-147.29h-58.992V0H0v164.907h96.533
	v183.68H0v163.567h99.213v83.124h25.641v17.93H84.506v-17.93H45.055v17.93H21.519v28.633H0v41.242h21.519v28.164H0v41.243h21.519
	v34.888H0v41.244h21.519v35.639H0v41.246h21.519v32.277H0v41.243h21.519v34.072H0v41.245h21.519v43.039h23.536v17.93h39.451v-17.93
	h40.348v17.93h39.451v-17.93h42.652v17.93h39.448v-17.93h39.453v17.93h39.451v-17.93h42.588v17.93h39.453v-17.93h36.985v17.93h39.45
	v-17.93h32.275v17.93h39.453v-17.93h18.319v-43.039h19.724V1013.1h-19.724v-34.072h19.724v-41.243h-19.724v-32.277h19.724v-41.246
	h-19.724v-35.639h19.724v-41.244h-19.724V752.49h19.724v-41.243h-19.724v-28.164h19.724v-41.242h-19.724v-28.633h-18.319v-17.851
	C599.448,620.928,650.517,635.587,705.014,635.587z M206.957,613.208h-42.652v-17.93h42.652V613.208z M516.062,595.279v17.93
	h-32.275v-17.93h-39.45v17.93h-36.985v-17.93h-39.453v17.93H325.31v-17.93h-39.451v17.93h-39.453v-17.93h-13.117V429.03h61.671
	v-99.213h112.529c-0.072,2.702-0.114,5.412-0.114,8.131c0,109.83,59.496,205.752,148.008,257.331H516.062z"/>
</svg>
