<?xml version="1.0" encoding="utf-8"?>
<!-- Generator: Adobe Illustrator 16.0.0, SVG Export Plug-In . SVG Version: 6.00 Build 0)  -->
<!DOCTYPE svg PUBLIC "-//W3C//DTD SVG 1.1//EN" "http://www.w3.org/Graphics/SVG/1.1/DTD/svg11.dtd">
<svg version="1.1" id="Calque_1" xmlns="http://www.w3.org/2000/svg" xmlns:xlink="http://www.w3.org/1999/xlink" x="0px" y="0px"
	 width="1190.551px" height="1190.551px" viewBox="0 0 1190.551 1190.551" enable-background="new 0 0 1190.551 1190.551"
	 xml:space="preserve">
<path fill="#010202" d="M863.379,100.139v280.349h55.714v215.649H717.58V0.857H122.302v595.277h60.97v21.521h-43.038v23.534h-17.932
	v39.452h17.932v40.349h-17.932v39.449h17.932v42.653h-17.932v39.448h17.932v39.452h-17.932v39.453h17.932v42.588h-17.932v39.453
	h17.932v36.982h-17.932v39.451h17.932v32.276h-17.932v39.453h17.932v18.316h43.038v19.727h41.244v-19.727h34.072v19.727h41.241
	v-19.727h32.28v19.727h41.244v-19.727h35.638v19.727h41.246v-19.727h34.886v19.727h41.243v-19.727h28.164v19.727h41.245v-19.727
	h28.63v-18.316h17.93v-39.453h-17.93v-32.276h17.93v-39.451h-17.93v-36.982h17.93v-39.453h-17.93v-42.587h17.93v-39.453h-17.93
	v-39.452h17.93v-39.448h-17.93V760.44h17.93v-39.449h-17.93v-40.349h17.93v10.741h425.914V100.139H863.379z M258.588,617.655
	h-34.072v-21.521h34.072V617.655z M332.111,617.655h-32.28v-21.521h32.28V617.655z M485.124,617.655h-34.886v-21.521h-41.246v21.521
	h-35.638v-21.521h12.585V181.857h68v414.277h31.185V617.655z M554.531,617.655h-28.164v-21.521h28.164V617.655z M642.335,641.189
	h-17.93v-23.534h-28.63v-21.521h46.56V641.189z"/>
</svg>
