<?xml version="1.0" encoding="utf-8"?>
<!-- Generator: Adobe Illustrator 16.0.0, SVG Export Plug-In . SVG Version: 6.00 Build 0)  -->
<!DOCTYPE svg PUBLIC "-//W3C//DTD SVG 1.1//EN" "http://www.w3.org/Graphics/SVG/1.1/DTD/svg11.dtd">
<svg version="1.1" id="Calque_1" xmlns="http://www.w3.org/2000/svg" xmlns:xlink="http://www.w3.org/1999/xlink" x="0px" y="0px"
	 width="1190.551px" height="1190.551px" viewBox="0 0 1190.551 1190.551" enable-background="new 0 0 1190.551 1190.551"
	 xml:space="preserve">
<path fill="#010202" d="M520.034,306.817v-38.568h-17.931V225.66h17.931v-39.453h-17.931v-36.985h17.931v-39.451h-17.931V77.496
	h17.931V38.043h-17.931V19.724h-43.039V0h-41.244v19.724h-34.071V0h-41.243v19.724h-32.279V0h-41.245v19.724h-35.638V0h-41.246
	v19.724h-34.886V0h-41.243v19.724H87.805V0H46.561v19.724H17.93v18.319H0v39.453h17.93v32.274H0v39.451h17.93v36.985H0v39.453h17.93
	v42.588H0v39.45h17.93v39.453H0v39.449h17.93v42.653H0v39.45h17.93v40.348H0v39.452h17.93v23.535h28.631v21.519H0l396.058,396.059
	h99.013V797.08L597.28,593.558H459.065v-21.519h43.039v-23.535h17.931v-39.452h-17.931v-40.348h17.931v-39.45h-17.931v-42.653
	h17.931v-38.567C530.621,502.8,659.5,625.067,816.953,625.067V29.787C659.5,29.785,530.621,152.051,520.034,306.817z
	 M87.805,593.558v-21.519h28.164v21.519H87.805z M157.212,593.558v-21.519h34.886v21.519H157.212z M233.344,593.558v-21.519h35.638
	v21.519H233.344z M310.227,593.558v-21.519h32.279v21.519H310.227z M383.749,593.558v-21.519h34.071v21.519H383.749z
	 M502.104,347.152v-39.453h17.875c-0.427,6.522-0.667,13.096-0.667,19.727s0.24,13.204,0.667,19.727H502.104z"/>
</svg>
