<?xml version="1.0" encoding="utf-8"?>
<!-- Generator: Adobe Illustrator 16.0.0, SVG Export Plug-In . SVG Version: 6.00 Build 0)  -->
<!DOCTYPE svg PUBLIC "-//W3C//DTD SVG 1.1//EN" "http://www.w3.org/Graphics/SVG/1.1/DTD/svg11.dtd">
<svg version="1.1" id="Calque_1" xmlns="http://www.w3.org/2000/svg" xmlns:xlink="http://www.w3.org/1999/xlink" x="0px" y="0px"
	 width="1190.551px" height="1190.551px" viewBox="0 0 1190.551 1190.551" enable-background="new 0 0 1190.551 1190.551"
	 xml:space="preserve">
<path fill="#010202" d="M407.58,329.817V180.111h-58.992V0H0v164.907h96.533v183.68H0v163.567h99.213v83.124h16.756v19.726H87.805
	v-19.726H46.561v19.726H17.93v18.317H0v39.453h17.93v32.276H0V744.5h17.93v36.985H0v39.453h17.93v42.588H0v39.451h17.93v39.453H0
	v39.45h17.93v42.65H0v39.451h17.93v40.348H0v39.451h17.93v23.536h28.631v21.521h41.244v-21.521h28.164v21.521h41.243v-21.521h34.886
	v21.521h41.246v-21.521h35.638v21.521h41.245v-21.521h32.279v21.521h41.243v-21.521h34.071v21.521h41.245v-21.521h43.038v-23.536
	h17.931v-39.451h-17.931v-40.348h17.931v-39.451h-17.931v-42.65h17.931v-39.45h-17.931v-39.453h17.931v-39.451h-17.931v-42.588
	h17.931v-39.453h-17.931V744.5h17.931v-39.449h-17.931v-32.276h17.931v-39.453h-17.931v-18.317h-43.038v-19.642
	c40.413,20.52,86.133,32.094,134.56,32.094c164.384,0,297.642-133.258,297.642-297.64H407.58z M192.098,615.004h-34.886v-19.726
	h34.886V615.004z M417.821,595.279v19.726h-34.071v-19.726h-41.243v19.726h-32.279v-19.726h-41.245v19.726h-35.638v-19.726h-0.056
	V429.03h61.671v-99.213h1.028c-0.001,115.888,66.234,216.299,162.909,265.462H417.821z"/>
</svg>
