<?xml version="1.0" encoding="utf-8"?>
<!-- Generator: Adobe Illustrator 16.0.0, SVG Export Plug-In . SVG Version: 6.00 Build 0)  -->
<!DOCTYPE svg PUBLIC "-//W3C//DTD SVG 1.1//EN" "http://www.w3.org/Graphics/SVG/1.1/DTD/svg11.dtd">
<svg version="1.1" id="Calque_1" xmlns="http://www.w3.org/2000/svg" xmlns:xlink="http://www.w3.org/1999/xlink" x="0px" y="0px"
	 width="1190.551px" height="1190.551px" viewBox="0 0 1190.551 1190.551" enable-background="new 0 0 1190.551 1190.551"
	 xml:space="preserve">
<g>
	<polygon fill="#010202" points="725.106,1020.148 793.215,810.529 676.356,772.559 754.745,531.301 656.339,499.325 
		649.298,520.995 637.704,505.038 660.49,488.484 672.083,504.441 705.45,480.199 693.857,464.241 717.02,447.412 706.253,432.594 
		720.758,422.054 697.568,390.135 683.062,400.674 664.091,374.563 678.597,364.024 655.409,332.107 640.903,342.647 
		619.163,312.724 633.668,302.185 610.479,270.267 595.973,280.806 570.942,246.351 585.446,235.812 562.257,203.896 
		547.752,214.435 524.562,182.519 539.068,171.979 515.88,140.064 501.375,150.603 476.304,116.096 490.811,105.558 467.621,73.64 
		453.115,84.179 429.4,51.538 443.906,40.999 420.717,9.082 406.211,19.621 392.377,0.579 369.214,17.408 356.566,0 323.198,24.242 
		335.847,41.651 313.062,58.205 300.413,40.797 267.047,65.039 279.695,82.447 251.473,102.952 238.823,85.544 205.454,109.789 
		218.103,127.197 189.272,148.144 176.623,130.736 143.255,154.979 155.904,172.387 129.788,191.36 117.141,173.952 83.775,198.195 
		96.423,215.603 68.858,235.629 56.209,218.222 22.843,242.464 35.491,259.872 0.672,285.17 14.506,304.212 0,314.751 
		23.19,346.667 37.696,336.128 61.411,368.769 46.905,379.309 70.093,411.227 84.601,400.688 109.67,435.194 95.163,445.733 
		118.352,477.649 132.858,467.108 156.046,499.026 141.54,509.565 164.73,541.483 179.236,530.942 204.268,565.397 189.762,575.936 
		212.951,607.854 227.457,597.315 249.198,627.237 234.691,637.777 257.88,669.693 272.387,659.154 291.358,685.264 
		276.852,695.805 300.042,727.724 314.548,717.183 325.316,732.003 360.135,706.706 371.727,722.662 405.095,698.419 
		393.501,682.462 421.067,662.436 432.66,678.393 466.027,654.152 454.432,638.194 480.546,619.22 492.14,635.177 525.509,610.934 
		513.914,594.977 542.746,574.031 554.34,589.987 587.708,565.743 576.115,549.786 604.339,529.281 615.932,545.239 
		649.298,520.995 577.948,740.584 461.091,702.615 392.982,912.235 276.122,874.265 238.671,989.529 804.512,1173.383 
		841.964,1058.116 	"/>
	<path fill="#010202" d="M165.465,764.387c-16.507-8.411-34.192-12.134-51.527-11.665c30.939-1.913,60.83-17.091,80.43-44.068
		c34.841-47.953,24.173-115.314-23.782-150.156c-47.953-34.84-115.314-24.173-150.156,23.783
		c-34.84,47.954-24.172,115.316,23.782,150.155c20.009,14.537,43.396,21.146,66.39,20.435
		c-36.903,2.146-71.766,23.249-89.725,58.496c-26.908,52.812-5.834,117.678,46.979,144.587
		c52.814,26.91,117.678,5.836,144.587-46.979C239.355,856.16,218.28,791.297,165.465,764.387z"/>
</g>
</svg>
