<?xml version="1.0" encoding="utf-8"?>
<!-- Generator: Adobe Illustrator 16.0.0, SVG Export Plug-In . SVG Version: 6.00 Build 0)  -->
<!DOCTYPE svg PUBLIC "-//W3C//DTD SVG 1.1//EN" "http://www.w3.org/Graphics/SVG/1.1/DTD/svg11.dtd">
<svg version="1.1" id="Calque_1" xmlns="http://www.w3.org/2000/svg" xmlns:xlink="http://www.w3.org/1999/xlink" x="0px" y="0px"
	 width="1190.551px" height="1190.551px" viewBox="0 0 1190.551 1190.551" enable-background="new 0 0 1190.551 1190.551"
	 xml:space="preserve">
<path fill="#010202" d="M555.515,519.96v-17.856h18.319v-43.038h19.724v-41.245h-19.724v-34.071h19.724v-41.243h-19.724v-32.279
	h19.724v-41.245h-19.724v-35.638h19.724v-41.246h-19.724v-34.886h19.724v-41.243h-19.724V87.805h19.724V46.561h-19.724V17.93
	h-18.319V0h-39.453v17.93h-32.275V0h-39.45v17.93h-36.985V0h-39.453v17.93H325.31V0h-39.451v17.93h-39.453V0h-39.448v17.93h-42.652
	V0h-39.451v17.93H84.506V0H45.055v17.93H21.519v28.631H0v41.244h21.519v28.164H0v41.243h21.519v34.886H0v41.246h21.519v35.638H0
	v41.245h21.519v32.279H0v41.243h21.519v34.071H0v41.245h21.519v43.038h23.536v17.932H0v164.907h96.533v183.679H0v163.568h99.213
	v83.124h134.075V949.065h61.671v-99.213H407.58v-72.604v-77.102h-58.992v-180.11H325.31v-17.932h42.588v17.932h39.453v-17.932
	h36.985v17.932h39.45v-17.932h32.275v17.932h39.326C466.987,571.642,407.58,667.501,407.58,777.247
	c0,164.382,133.258,297.642,297.641,297.642V479.61C650.638,479.609,599.495,494.315,555.515,519.96z M84.506,520.035v-17.932
	h40.348v17.932H84.506z M164.305,520.035v-17.932h42.652v17.932H164.305z M246.406,520.035v-17.932h39.453v17.932H246.406z"/>
</svg>
