<?xml version="1.0" encoding="utf-8"?>
<!-- Generator: Adobe Illustrator 16.0.0, SVG Export Plug-In . SVG Version: 6.00 Build 0)  -->
<!DOCTYPE svg PUBLIC "-//W3C//DTD SVG 1.1//EN" "http://www.w3.org/Graphics/SVG/1.1/DTD/svg11.dtd">
<svg version="1.1" id="Calque_1" xmlns="http://www.w3.org/2000/svg" xmlns:xlink="http://www.w3.org/1999/xlink" x="0px" y="0px"
	 width="1190.551px" height="1190.551px" viewBox="0 0 1190.551 1190.551" enable-background="new 0 0 1190.551 1190.551"
	 xml:space="preserve">
<path fill="#010202" d="M571.856,632.898v-6.912h192.535l203.521,102.208V130.913L571.856,526.971V379.223h122.871V158.816H817.6
	V37.619H222.639v121.196h122.872v220.407h122.873v253.674h-38.788v17.933h-42.652v-17.933h-39.452v17.933h-40.347v-17.933h-39.451
	v17.933h-23.537v28.631h-21.518v41.244h21.518v28.162h-21.518v41.243h21.518v34.888h-21.518v41.244h21.518v35.639h-21.518v41.246
	h21.518v32.277h-21.518v41.243h21.518v34.071h-21.518v41.244h21.518v43.04h23.537v17.93h39.451v-17.93h40.347v17.93h39.452v-17.93
	h42.652v17.93h39.447v-17.93h39.452v17.93h39.451v-17.93h42.588v17.93h39.453v-17.93h36.986v17.93h39.449v-17.93h32.275v17.93
	h39.454v-17.93h18.317v-43.04h19.725v-41.243H796.47v-34.071h19.725v-41.243H796.47v-32.277h19.725v-41.246H796.47v-35.639h19.725
	v-41.244H796.47v-34.889h19.725v-41.243H796.47v-28.162h19.725V679.46H796.47v-28.631h-18.317v-17.933h-39.454v17.933h-32.275
	v-17.933h-39.449v17.933h-36.985v-17.933h-39.453v17.933h-42.588v-17.933h23.908V632.898z M508.496,650.829h-39.452v-17.933h39.452
	V650.829z"/>
</svg>
