<?xml version="1.0" encoding="utf-8"?>
<!-- Generator: Adobe Illustrator 16.0.0, SVG Export Plug-In . SVG Version: 6.00 Build 0)  -->
<!DOCTYPE svg PUBLIC "-//W3C//DTD SVG 1.1//EN" "http://www.w3.org/Graphics/SVG/1.1/DTD/svg11.dtd">
<svg version="1.1" id="Calque_1" xmlns="http://www.w3.org/2000/svg" xmlns:xlink="http://www.w3.org/1999/xlink" x="0px" y="0px"
	 width="1190.551px" height="1190.551px" viewBox="0 0 1190.551 1190.551" enable-background="new 0 0 1190.551 1190.551"
	 xml:space="preserve">
<g>
	<path fill="#010202" d="M361.224,728.945l12.68-12.679l16.644,16.643l20.244-20.245l15.216,15.216l29.164-29.164L439.956,683.5
		l19.915-19.915l15.215,15.215l29.163-29.163l-15.215-15.216l24.667-24.668l15.216,15.216l29.165-29.165l-15.216-15.216l25.2-25.199
		l15.216,15.215l29.164-29.164l-15.215-15.215l22.824-22.826l15.216,15.216l29.163-29.163l-15.216-15.216l24.093-24.092
		l15.216,15.215l29.164-29.164l-15.215-15.216l30.432-30.433l-16.643-16.643l12.679-12.68l-27.896-27.896l-12.68,12.68
		l-28.529-28.529l12.679-12.68l-27.896-27.896l-12.679,12.679l-30.16-30.159l12.68-12.68l-27.895-27.895l-12.68,12.68
		l-27.896-27.896l12.679-12.68l-27.896-27.896l-12.68,12.679l-30.114-30.114l12.68-12.679l-27.897-27.897l-12.68,12.679
		l-26.152-26.153l12.68-12.68l-27.896-27.896l-12.68,12.68l-22.821-22.822l12.68-12.68L367.995,0.275l-12.68,12.678L342.363,0
		L311.93,30.433l-13.947-13.946L268.819,45.65l13.947,13.947l-24.092,24.092l-13.948-13.946l-29.163,29.163l13.947,13.947
		l-22.825,22.824l-13.946-13.946l-29.165,29.164l13.947,13.947l-25.199,25.199l-13.948-13.946l-29.165,29.165l13.947,13.947
		l-24.668,24.668l-13.946-13.947l-29.164,29.164l13.947,13.946l-19.915,19.915l-13.947-13.946L6.298,308.17l13.947,13.947L0,342.363
		l12.952,12.953L0.275,367.993l27.897,27.898l12.679-12.678l22.822,22.821l-12.678,12.678l27.896,27.896l12.679-12.679
		l26.152,26.153l-12.679,12.679l27.897,27.897l12.68-12.679l30.113,30.114l-12.679,12.679l27.864,27.865
		c-7.557-7.371-16.332-13.74-26.22-18.779c-52.813-26.91-117.677-5.836-144.588,46.979c-26.91,52.814-5.835,117.678,46.979,144.588
		c13.533,6.896,27.857,10.632,42.132,11.499c-21.019,0.525-42.09,7.186-60.349,20.451C0.917,798.218-9.75,865.579,25.09,913.533
		c34.841,47.955,102.201,58.623,150.156,23.782c47.954-34.84,58.623-102.201,23.782-150.156
		c-19.599-26.976-49.489-42.152-80.427-44.067c38.132-1.025,74.574-22.333,93.075-58.645
		c21.865-42.912,12.052-93.777-20.726-125.777l12.679-12.678l27.896,27.896l-12.679,12.679l27.895,27.895l12.68-12.68l30.158,30.161
		l-12.678,12.678l27.897,27.897l12.678-12.679l28.53,28.528l-12.68,12.68L361.224,728.945z"/>
	<polygon fill="#010202" points="915.687,861.767 815.623,665.383 925.105,609.6 870.082,501.613 339.969,771.719 394.99,879.706 
		504.471,823.924 604.533,1020.308 714.014,964.525 829.18,1190.551 921.372,1143.576 806.206,917.55 	"/>
</g>
</svg>
