<?xml version="1.0" encoding="utf-8"?>
<!-- Generator: Adobe Illustrator 16.0.0, SVG Export Plug-In . SVG Version: 6.00 Build 0)  -->
<!DOCTYPE svg PUBLIC "-//W3C//DTD SVG 1.1//EN" "http://www.w3.org/Graphics/SVG/1.1/DTD/svg11.dtd">
<svg version="1.1" id="Calque_1" xmlns="http://www.w3.org/2000/svg" xmlns:xlink="http://www.w3.org/1999/xlink" x="0px" y="0px"
	 width="1190.551px" height="1190.551px" viewBox="0 0 1190.551 1190.551" enable-background="new 0 0 1190.551 1190.551"
	 xml:space="preserve">
<g>
	<polygon fill="#010202" points="846.139,557.813 846.139,539.883 869.674,539.883 869.674,511.252 891.194,511.252 
		891.194,470.008 869.674,470.008 869.674,441.844 891.194,441.844 891.194,400.601 869.674,400.601 869.674,365.715 
		891.194,365.715 891.194,324.469 869.674,324.469 869.674,288.831 891.194,288.831 891.194,247.586 869.674,247.586 
		869.674,215.307 891.194,215.307 891.194,174.064 869.674,174.064 869.674,139.992 891.194,139.992 891.194,98.748 869.674,98.748 
		869.674,55.709 846.139,55.709 846.139,37.778 806.688,37.778 806.688,55.709 766.34,55.709 766.34,37.778 726.889,37.778 
		726.889,55.709 684.237,55.709 684.237,37.778 644.787,37.778 644.787,55.709 605.336,55.709 605.336,37.778 565.885,37.778 
		565.885,55.709 523.298,55.709 523.298,37.778 483.844,37.778 483.844,55.709 446.858,55.709 446.858,37.778 407.407,37.778 
		407.407,55.709 375.133,55.709 375.133,37.778 335.678,37.778 335.678,55.709 317.36,55.709 317.36,98.748 297.636,98.748 
		297.636,139.992 317.36,139.992 317.36,174.064 297.636,174.064 297.636,215.307 317.36,215.307 317.36,247.586 297.636,247.586 
		297.636,288.831 317.36,288.831 317.36,324.469 297.636,324.469 297.636,365.715 317.36,365.715 317.36,400.601 297.636,400.601 
		297.636,441.844 317.36,441.844 317.36,470.008 297.636,470.008 297.636,511.252 317.36,511.252 317.36,539.883 335.678,539.883 
		335.678,557.813 375.133,557.813 375.133,539.883 407.407,539.883 407.407,557.813 446.858,557.813 446.858,539.883 
		483.844,539.883 483.844,557.813 523.298,557.813 523.298,539.883 565.885,539.883 565.885,557.813 605.336,557.813 
		605.336,539.883 644.787,539.883 644.787,557.813 684.237,557.813 684.237,539.883 726.889,539.883 726.889,557.813 
		766.34,557.813 766.34,539.883 806.688,539.883 806.688,557.813 771.717,557.813 771.717,680.684 551.311,680.684 551.311,803.559 
		405.136,803.559 297.636,803.559 297.636,907.029 405.136,907.029 551.311,907.029 551.311,1029.9 771.717,1029.9 
		771.717,1152.773 892.914,1152.773 892.914,557.813 	"/>
	<path fill="#010202" d="M297.636,1014.529c0,59.273,48.225,107.5,107.5,107.5c59.272,0,107.5-48.225,107.5-107.5
		s-48.228-107.5-107.5-107.5C345.861,907.029,297.636,955.254,297.636,1014.529z"/>
	<path fill="#010202" d="M512.636,696.059c0-59.273-48.226-107.5-107.5-107.5s-107.5,48.224-107.5,107.5
		c0,59.273,48.227,107.5,107.5,107.5C464.412,803.559,512.636,755.332,512.636,696.059z"/>
</g>
</svg>
