<?xml version="1.0" encoding="utf-8"?>
<!-- Generator: Adobe Illustrator 16.0.0, SVG Export Plug-In . SVG Version: 6.00 Build 0)  -->
<!DOCTYPE svg PUBLIC "-//W3C//DTD SVG 1.1//EN" "http://www.w3.org/Graphics/SVG/1.1/DTD/svg11.dtd">
<svg version="1.1" id="Calque_1" xmlns="http://www.w3.org/2000/svg" xmlns:xlink="http://www.w3.org/1999/xlink" x="0px" y="0px"
	 width="1190.551px" height="1190.551px" viewBox="0 0 1190.551 1190.551" enable-background="new 0 0 1190.551 1190.551"
	 xml:space="preserve">
<g>
	<polygon fill="#010202" points="275.672,550.449 278.476,568.159 317.44,561.988 314.635,544.277 353.602,538.106 356.407,555.816 
		395.373,549.644 392.567,531.934 434.632,525.272 437.436,542.982 476.404,536.81 473.598,519.1 510.129,513.314 512.933,531.025 
		551.899,524.853 549.094,507.143 580.971,502.094 583.776,519.804 622.744,513.633 619.938,495.923 638.032,493.056 631.3,450.549 
		650.781,447.463 644.329,406.725 624.847,409.811 619.517,376.159 638.999,373.073 632.547,332.338 613.065,335.424 
		608.016,303.542 627.497,300.457 621.045,259.719 601.563,262.804 595.989,227.605 615.469,224.52 609.017,183.782 
		589.536,186.867 584.079,152.411 603.56,149.325 597.108,108.59 577.628,111.676 573.221,83.858 592.703,80.773 586.251,40.037 
		566.769,43.122 562.291,14.844 544.197,17.71 541.392,0 502.425,6.172 505.23,23.882 473.352,28.93 470.548,11.22 431.582,17.392 
		434.386,35.101 397.857,40.887 395.052,23.178 356.085,29.349 358.889,47.059 316.826,53.721 314.021,36.012 275.055,42.183 
		277.861,59.893 238.893,66.064 236.089,48.355 197.126,54.526 199.93,72.236 157.803,78.908 154.999,61.199 116.033,67.37 
		118.838,85.08 78.987,91.391 76.181,73.682 37.217,79.853 40.021,97.563 16.775,101.245 21.254,129.523 0,132.889 6.452,173.626 
		27.706,170.26 32.112,198.077 10.858,201.443 17.309,242.178 38.563,238.812 44.021,273.268 22.767,276.635 29.219,317.373 
		50.473,314.007 56.049,349.206 34.795,352.572 41.247,393.309 62.501,389.943 67.551,421.825 46.296,425.191 52.748,465.927 
		74.002,462.559 79.332,496.213 58.078,499.579 64.53,540.316 85.784,536.95 92.516,579.458 115.762,575.776 118.568,593.486 
		157.533,587.314 154.728,569.604 194.58,563.293 197.385,581.003 236.349,574.831 233.545,557.121 	"/>
	<path fill="#010202" d="M1097.453,750.618L643.93,897.976V748.27h-58.992V568.159H278.476h-42.127v6.672v158.236h96.533v183.679
		h-96.533v163.568h99.214v83.124h134.075V997.189h61.671v-62.62v-36.593H643.93l-112.621,36.593
		c50.796,156.337,218.71,241.894,375.047,191.097S1148.25,906.954,1097.453,750.618z"/>
</g>
</svg>
