<?xml version="1.0" encoding="utf-8"?>
<!-- Generator: Adobe Illustrator 16.0.0, SVG Export Plug-In . SVG Version: 6.00 Build 0)  -->
<!DOCTYPE svg PUBLIC "-//W3C//DTD SVG 1.1//EN" "http://www.w3.org/Graphics/SVG/1.1/DTD/svg11.dtd">
<svg version="1.1" id="Calque_1" xmlns="http://www.w3.org/2000/svg" xmlns:xlink="http://www.w3.org/1999/xlink" x="0px" y="0px"
	 width="1190.551px" height="1190.551px" viewBox="0 0 1190.551 1190.551" enable-background="new 0 0 1190.551 1190.551"
	 xml:space="preserve">
<path fill="#010202" d="M1068.249,691.384v-95.247h-350.67V332.499H303.302v-68h414.277V0.857H122.302v595.277h60.97v21.521h-43.038
	v23.535h-17.932v39.451h17.932v40.349h-17.932v39.451h17.932v42.651h-17.932v39.448h17.932v39.452h-17.932v39.453h17.932v42.587
	h-17.932v39.454h17.932v36.982h-17.932v39.45h17.932v32.277h-17.932v39.453h17.932v18.316h43.038v19.727h41.244v-19.727h34.072
	v19.727h41.241v-19.727h32.28v19.727h41.244v-19.727h35.638v19.727h41.246v-19.727h34.886v19.727h41.243v-19.727h28.164v19.727
	h41.245v-19.727h28.63v-18.316h17.93v35.729h204.87V907.034h-55.712v-215.65H1068.249z M258.588,617.655h-34.072v-21.521h34.072
	V617.655z M332.111,617.655h-32.28v-21.521h32.28V617.655z M408.992,617.655h-35.638v-21.521h35.638V617.655z M485.124,617.655
	h-34.886v-21.521h34.886V617.655z M554.531,617.655h-28.164v-21.521h28.164V617.655z M642.335,1112.199h-17.93v-32.276h17.93
	V1112.199z M642.335,1040.472h-17.93v-36.982h17.93V1040.472z M642.335,964.034h-17.93v-42.587h17.93V964.034z M642.335,881.994
	h-17.93v-39.452h17.93V881.994z M642.335,803.094h-17.93v-42.651h17.93V803.094z M642.335,720.99h-17.93v-40.349h17.93V720.99z
	 M642.335,641.19h-17.93v-23.535h-28.63v-21.521h46.56V641.19z"/>
</svg>
