<?xml version="1.0" encoding="utf-8"?>
<!-- Generator: Adobe Illustrator 16.0.0, SVG Export Plug-In . SVG Version: 6.00 Build 0)  -->
<!DOCTYPE svg PUBLIC "-//W3C//DTD SVG 1.1//EN" "http://www.w3.org/Graphics/SVG/1.1/DTD/svg11.dtd">
<svg version="1.1" id="Calque_1" xmlns="http://www.w3.org/2000/svg" xmlns:xlink="http://www.w3.org/1999/xlink" x="0px" y="0px"
	 width="1190.551px" height="1190.551px" viewBox="0 0 1190.551 1190.551" enable-background="new 0 0 1190.551 1190.551"
	 xml:space="preserve">
<g>
	<polygon fill="#010202" points="437.441,688.542 476.893,688.542 476.893,706.473 516.342,706.473 516.342,688.542 
		558.994,688.542 558.994,706.473 598.444,706.473 598.444,688.542 638.793,688.542 638.793,706.473 678.244,706.473 
		678.244,688.542 701.779,688.542 701.779,659.911 723.299,659.911 723.299,618.667 701.779,618.667 701.779,590.503 
		723.299,590.503 723.299,549.26 701.779,549.26 701.779,514.374 723.299,514.374 723.299,473.128 701.779,473.128 701.779,437.49 
		723.299,437.49 723.299,396.245 701.779,396.245 701.779,363.966 723.299,363.966 723.299,322.723 701.779,322.723 
		701.779,288.651 723.299,288.651 723.299,247.407 701.779,247.407 701.779,204.368 678.244,204.368 678.244,186.437 
		638.793,186.437 638.793,204.368 598.444,204.368 598.444,186.437 558.994,186.437 558.994,204.368 516.342,204.368 
		516.342,186.437 476.893,186.437 476.893,204.368 437.441,204.368 437.441,186.437 397.99,186.437 397.99,204.368 355.402,204.368 
		355.402,186.437 315.948,186.437 315.948,204.368 278.963,204.368 278.963,186.437 239.512,186.437 239.512,204.368 
		207.238,204.368 207.238,186.437 167.784,186.437 167.784,204.368 149.465,204.368 149.465,247.407 129.741,247.407 
		129.741,288.651 149.465,288.651 149.465,322.723 129.741,322.723 129.741,363.966 149.465,363.966 149.465,396.245 
		129.741,396.245 129.741,437.49 149.465,437.49 149.465,473.128 129.741,473.128 129.741,514.374 149.465,514.374 149.465,549.26 
		129.741,549.26 129.741,590.503 149.465,590.503 149.465,618.667 129.741,618.667 129.741,659.911 149.465,659.911 
		149.465,688.542 167.784,688.542 167.784,706.473 207.238,706.473 207.238,688.542 239.512,688.542 239.512,706.473 
		278.963,706.473 278.963,688.542 315.948,688.542 315.948,706.473 355.402,706.473 355.402,688.542 397.99,688.542 397.99,706.473 
		427.381,706.473 437.441,706.473 	"/>
	<path fill="#010202" d="M664.753,725.57v98.979c-54.345-71.73-140.441-118.076-237.372-118.076
		c-164.383,0-297.641,133.26-297.641,297.641h595.277c0.001-67.436-22.438-129.623-60.239-179.531H857.29l203.521,102.209V329.512
		L664.753,725.57z"/>
</g>
</svg>
