<?xml version="1.0" encoding="utf-8"?>
<!-- Generator: Adobe Illustrator 16.0.0, SVG Export Plug-In . SVG Version: 6.00 Build 0)  -->
<!DOCTYPE svg PUBLIC "-//W3C//DTD SVG 1.1//EN" "http://www.w3.org/Graphics/SVG/1.1/DTD/svg11.dtd">
<svg version="1.1" id="Calque_1" xmlns="http://www.w3.org/2000/svg" xmlns:xlink="http://www.w3.org/1999/xlink" x="0px" y="0px"
	 width="1190.551px" height="1190.551px" viewBox="0 0 1190.551 1190.551" enable-background="new 0 0 1190.551 1190.551"
	 xml:space="preserve">
<path fill="#010202" d="M1105.871,132.866V37.619H679.957H416.32v414.278h-68V37.619H84.679v595.278h45.054v17.93h-23.536v28.633
	H84.679v41.244h21.518v28.162H84.679v41.244h21.518v34.887H84.679v41.244h21.518v35.639H84.679v41.246h21.518v32.277H84.679v41.244
	h21.518v34.07H84.679v41.244h21.518V1135h23.536v17.932h39.452V1135h40.347v17.932h39.451V1135h42.653v17.932h39.447V1135h39.452
	v17.932h39.452V1135h42.588v17.932h39.453V1135h36.982v17.932h39.451V1135h32.276v17.932h39.453V1135h18.316v-43.039h19.727v-41.242
	h-19.727v-34.072h19.727v-41.242h-19.727v-32.279h19.727v-41.244h-19.727v-35.639h19.727v-41.244h-19.727v-34.889h19.727v-41.244
	h-19.727v-28.162h19.727v-41.244h-19.727v-28.633h-18.316v-17.93h39.764v-4.033h204.871V348.516h-55.713v-215.65H1105.871z
	 M209.532,650.826h-40.347v-17.93h40.347V650.826z M291.636,650.826h-42.653v-17.93h42.653V650.826z M370.537,650.826h-39.452
	v-17.93h39.452V650.826z M452.577,650.826h-42.588v-17.93h42.588V650.826z M529.013,650.826H492.03v-17.93h36.983V650.826z
	 M600.74,650.826h-32.276v-17.93h32.276V650.826z"/>
</svg>
