<?xml version="1.0" encoding="utf-8"?>
<!-- Generator: Adobe Illustrator 16.0.0, SVG Export Plug-In . SVG Version: 6.00 Build 0)  -->
<!DOCTYPE svg PUBLIC "-//W3C//DTD SVG 1.1//EN" "http://www.w3.org/Graphics/SVG/1.1/DTD/svg11.dtd">
<svg version="1.1" id="Calque_1" xmlns="http://www.w3.org/2000/svg" xmlns:xlink="http://www.w3.org/1999/xlink" x="0px" y="0px"
	 width="1190.551px" height="1190.551px" viewBox="0 0 1190.551 1190.551" enable-background="new 0 0 1190.551 1190.551"
	 xml:space="preserve">
<g>
	<polygon fill="#010202" points="307.699,502.105 347.152,502.105 347.152,520.035 386.601,520.035 386.601,502.105 
		429.253,502.105 429.253,520.035 468.703,520.035 468.703,502.105 509.052,502.105 509.052,520.035 548.503,520.035 
		548.503,502.105 572.038,502.105 572.038,473.474 593.558,473.474 593.558,432.23 572.038,432.23 572.038,404.066 593.558,404.066 
		593.558,362.823 572.038,362.823 572.038,327.937 593.558,327.937 593.558,286.691 572.038,286.691 572.038,251.053 
		593.558,251.053 593.558,209.808 572.038,209.808 572.038,177.529 593.558,177.529 593.558,136.286 572.038,136.286 
		572.038,102.214 593.558,102.214 593.558,60.97 572.038,60.97 572.038,17.931 548.503,17.931 548.503,0 509.052,0 509.052,17.931 
		468.703,17.931 468.703,0 429.253,0 429.253,17.931 386.601,17.931 386.601,0 347.152,0 347.152,17.931 307.699,17.931 307.699,0 
		268.248,0 268.248,17.931 225.66,17.931 225.66,0 186.207,0 186.207,17.931 149.222,17.931 149.222,0 109.771,0 109.771,17.931 
		77.496,17.931 77.496,0 38.043,0 38.043,17.931 19.724,17.931 19.724,60.97 0,60.97 0,102.214 19.724,102.214 19.724,136.286 
		0,136.286 0,177.529 19.724,177.529 19.724,209.808 0,209.808 0,251.053 19.724,251.053 19.724,286.691 0,286.691 0,327.937 
		19.724,327.937 19.724,362.823 0,362.823 0,404.066 19.724,404.066 19.724,432.23 0,432.23 0,473.474 19.724,473.474 
		19.724,502.105 38.043,502.105 38.043,520.035 77.496,520.035 77.496,502.105 109.771,502.105 109.771,520.035 149.222,520.035 
		149.222,502.105 186.207,502.105 186.207,520.035 225.66,520.035 225.66,502.105 268.248,502.105 268.248,520.035 297.64,520.035 
		307.699,520.035 	"/>
	<path fill="#010202" d="M535.012,539.133v98.978c-54.345-71.729-140.441-118.075-237.372-118.075
		c-164.383,0-297.641,133.259-297.641,297.641h595.278c0.001-67.436-22.438-129.623-60.239-179.531h192.511l203.521,102.209v-597.28
		L535.012,539.133z"/>
</g>
</svg>
