<?xml version="1.0" encoding="utf-8"?>
<!-- Generator: Adobe Illustrator 16.0.0, SVG Export Plug-In . SVG Version: 6.00 Build 0)  -->
<!DOCTYPE svg PUBLIC "-//W3C//DTD SVG 1.1//EN" "http://www.w3.org/Graphics/SVG/1.1/DTD/svg11.dtd">
<svg version="1.1" id="Calque_1" xmlns="http://www.w3.org/2000/svg" xmlns:xlink="http://www.w3.org/1999/xlink" x="0px" y="0px"
	 width="1190.551px" height="1190.551px" viewBox="0 0 1190.551 1190.551" enable-background="new 0 0 1190.551 1190.551"
	 xml:space="preserve">
<path fill="#010202" d="M789.619,55.593v22.525h-19.727v-28.63h-18.316v-17.93h-39.453v17.93h-32.276v-17.93h-39.449v17.93h-36.984
	v-17.93H563.96v17.93h-42.589v-17.93h-39.452v17.93h-39.452v-17.93H403.02v17.93h-42.653v-17.93h-39.451v17.93h-40.348v-17.93
	h-39.452v17.93h-23.536v28.631h-21.518v41.244h21.518v28.164h-21.518v41.243h21.518v34.886h-21.518v41.246h21.518v35.638h-21.518
	v41.245h21.518v32.279h-21.518v41.243h21.518v34.071h-21.518v41.245h21.518v43.038h23.536v17.932h39.452v-17.932h40.347v17.932
	h39.451v-17.932h42.653v17.932h39.447v-17.932h39.452v17.932h39.452v-17.932h42.588v17.932h4.616v95.246h-64.146v-83.124H370.355
	v166.249h-61.671v99.213H196.062v149.706h58.993v180.11h348.587V994.087H507.11v-183.68h96.532V646.839H994.49V55.593H789.619z
	 M769.893,119.363h19.727v28.164h-19.727V119.363z M769.893,188.77h19.727v34.886h-19.727V188.77z M769.893,264.901h19.727v35.638
	h-19.727V264.901z M603.412,551.593v-17.932h36.984v17.932H603.412z M679.846,551.593v-17.932h32.276v17.932H679.846z
	 M845.331,551.593h-93.755v-17.932h18.317v-43.038h19.726v-41.245h-19.726v-34.071h19.726v-41.243h-19.726v-32.279h19.726v-5.843
	h55.712V551.593z"/>
</svg>
