<?xml version="1.0" encoding="utf-8"?>
<!-- Generator: Adobe Illustrator 16.0.0, SVG Export Plug-In . SVG Version: 6.00 Build 0)  -->
<!DOCTYPE svg PUBLIC "-//W3C//DTD SVG 1.1//EN" "http://www.w3.org/Graphics/SVG/1.1/DTD/svg11.dtd">
<svg version="1.1" id="Calque_1" xmlns="http://www.w3.org/2000/svg" xmlns:xlink="http://www.w3.org/1999/xlink" x="0px" y="0px"
	 width="1190.551px" height="1190.551px" viewBox="0 0 1190.551 1190.551" enable-background="new 0 0 1190.551 1190.551"
	 xml:space="preserve">
<path fill="#010202" d="M675.721,594.416h40.418v-19.724h28.631v-18.319h17.93v-39.453h-17.93v-32.274h17.93v-39.45h-17.93v-36.986
	h17.93v-39.453h-17.93v-42.589h17.93v-39.451h-17.93v-39.453h17.93v-39.448h-17.93v-42.652h17.93v-39.451h-17.93V85.363h17.93
	V45.913h-17.93V22.376h-28.631V0.857h-41.244v21.519h-28.164V0.857h-41.242v21.519h-34.886V0.857h-41.246v21.519h-35.638V0.857
	h-41.245v21.519h-32.279V0.857h-41.241v21.519h-34.072V0.857h-41.246v21.519h-43.038v23.536h-17.931v39.451h17.931v40.348h-17.931
	v39.451h17.931v42.652h-17.931v39.448h17.931v39.453h-17.931v39.451h17.931v42.588h-17.931v39.453h17.931v36.986h-17.931v39.45
	h17.931v32.274h-17.931v39.453h17.931v18.319h43.038v19.724h-60.969v164.909h96.533V943h-96.533v163.569h99.213v83.124h134.075
	v-166.249h61.671v-99.215h112.62v264.364c164.383,0.002,297.641-133.256,297.641-297.639
	C947.885,735.16,828.176,607.343,675.721,594.416z M344.88,594.416v-19.724h34.072v19.724H344.88z M420.194,594.416v-19.724h32.279
	v19.724H420.194z M493.719,594.416v-19.724h35.638v19.724H493.719z M591.254,774.526V594.416h-20.651v-19.724h34.886v19.724h41.242
	v-19.724h28.164v19.65c-8.129-0.667-16.348-1.023-24.648-1.023v181.208H591.254z"/>
</svg>
