<?xml version="1.0" encoding="utf-8"?>
<!-- Generator: Adobe Illustrator 16.0.0, SVG Export Plug-In . SVG Version: 6.00 Build 0)  -->
<!DOCTYPE svg PUBLIC "-//W3C//DTD SVG 1.1//EN" "http://www.w3.org/Graphics/SVG/1.1/DTD/svg11.dtd">
<svg version="1.1" id="Calque_1" xmlns="http://www.w3.org/2000/svg" xmlns:xlink="http://www.w3.org/1999/xlink" x="0px" y="0px"
	 width="1190.551px" height="1190.551px" viewBox="0 0 1190.551 1190.551" enable-background="new 0 0 1190.551 1190.551"
	 xml:space="preserve">
<path fill="#010202" d="M987.198,1190.551L591.14,794.49h-99.013v192.536l-62.874,125.198V520.035h39.45v-17.931h40.349v17.931
	h39.451v-17.931h23.535v-28.631h21.52V432.23h-21.52v-28.164h21.52v-41.242h-21.52v-34.887h21.52v-41.246h-21.52v-35.638h21.52
	v-41.245h-21.52v-32.279h21.52v-41.242h-21.52v-34.072h21.52V60.97h-21.52V17.931h-23.535V0h-39.451v17.931h-40.349V0h-39.45v17.931
	h-42.652V0h-39.449v17.931h-39.452V0h-39.451v17.931H225.66V0h-39.453v17.931h-36.985V0h-39.451v17.931H77.496V0H38.043v17.931
	H19.724V60.97H0v41.244h19.724v34.072H0v41.242h19.724v32.279H0v41.245h19.724v35.638H0v41.246h19.724v34.887H0v41.242h19.724
	v28.164H0v41.244h19.724v28.631h18.319v17.931h39.453v-17.931h32.274v17.931h39.451v-17.931h36.985v17.931h39.453v-17.931h42.588
	v17.931h39.451v-17.931h39.452v17.931h39.205c-144.053,20.795-254.744,144.736-254.744,294.549
	c0,164.382,133.258,297.642,297.64,297.642l-39.334,78.325H987.198z M386.601,502.105h42.652v14.842
	c-14.484,0-28.721,1.055-42.652,3.055V502.105z"/>
</svg>
