<?xml version="1.0" encoding="utf-8"?>
<!-- Generator: Adobe Illustrator 16.0.0, SVG Export Plug-In . SVG Version: 6.00 Build 0)  -->
<!DOCTYPE svg PUBLIC "-//W3C//DTD SVG 1.1//EN" "http://www.w3.org/Graphics/SVG/1.1/DTD/svg11.dtd">
<svg version="1.1" id="Calque_1" xmlns="http://www.w3.org/2000/svg" xmlns:xlink="http://www.w3.org/1999/xlink" x="0px" y="0px"
	 width="1190.551px" height="1190.551px" viewBox="0 0 1190.551 1190.551" enable-background="new 0 0 1190.551 1190.551"
	 xml:space="preserve">
<path fill="#010202" d="M1018.37,1088.711L622.313,692.653H523.3v121.94v70.596l-29.347,58.438
	c18.808-39.035,29.347-82.803,29.347-129.033c0-149.831-110.717-273.783-254.796-294.558h39.195v-17.931h39.452v17.931h39.449
	v-17.931h42.652v17.931h39.45v-17.931h40.349v17.931h39.451v-17.931h23.535v-28.631h21.52V432.23h-21.52v-28.164h21.52v-41.242
	h-21.52v-34.887h21.52v-41.246h-21.52v-35.638h21.52v-41.245h-21.52v-32.279h21.52v-41.242h-21.52v-34.072h21.52V60.97h-21.52
	V17.931h-23.535V0h-39.451v17.931h-40.349V0h-39.45v17.931h-42.652V0h-39.449v17.931h-39.452V0h-39.451v17.931H225.66V0h-39.453
	v17.931h-36.985V0h-39.451v17.931H77.496V0H38.043v17.931H19.724V60.97H0v41.244h19.724v34.072H0v41.242h19.724v32.279H0v41.245
	h19.724v35.638H0v41.246h19.724v34.887H0v41.242h19.724v28.164H0v41.244h19.724v28.631h18.319v17.931h39.453v-17.931h32.274v17.931
	h39.451v-17.931h36.985v17.931h39.452v592.197c115.038,0.001,214.82-65.269,264.368-160.789l-68.936,137.268H1018.37z
	 M268.248,502.105V520c-13.911-1.994-28.125-3.046-42.588-3.046v-14.849H268.248z"/>
</svg>
