<?xml version="1.0" encoding="utf-8"?>
<!-- Generator: Adobe Illustrator 16.0.0, SVG Export Plug-In . SVG Version: 6.00 Build 0)  -->
<!DOCTYPE svg PUBLIC "-//W3C//DTD SVG 1.1//EN" "http://www.w3.org/Graphics/SVG/1.1/DTD/svg11.dtd">
<svg version="1.1" id="Calque_1" xmlns="http://www.w3.org/2000/svg" xmlns:xlink="http://www.w3.org/1999/xlink" x="0px" y="0px"
	 width="1190.551px" height="1190.551px" viewBox="0 0 1190.551 1190.551" enable-background="new 0 0 1190.551 1190.551"
	 xml:space="preserve">
<path fill="#010202" d="M769.883,379.223V158.816h122.873V37.619H297.795v121.196h122.872v220.407H543.54v253.674h22.504v17.934
	h-42.588v-17.934h-39.453v17.934h-36.986v-17.934h-36.851c57.021-2.555,102.629-49.74,102.629-107.383
	c0-59.272-48.226-107.5-107.5-107.5s-107.5,48.228-107.5,107.5c0,59.276,48.226,107.5,107.5,107.5c0.759,0,1.515-0.014,2.271-0.029
	v17.846h-32.274v-17.933h-39.454v17.933h-18.318v43.037h-19.724v41.244h19.724v34.072h-19.724v41.242h19.724v32.28h-19.724v41.243
	h19.724v35.639h-19.724v41.247h19.724v34.885h-19.724v41.243h19.724v28.165h-19.724v41.244h19.724v28.631h18.318v17.929h39.454
	v-17.929h32.273v17.929h39.451v-17.929h36.986v17.929h39.453v-17.929h42.588v17.929h39.452v-17.929h39.45v17.929h39.449v-17.929
	h42.652v17.929h39.45v-17.929h40.349v17.929h39.451v-17.929h23.535v-28.631h21.52v-41.244h-21.52v-28.165h21.52v-41.242h-21.52
	v-34.886h21.52v-41.246h-21.52V883.95h21.52v-41.243h-21.52v-32.28h21.52v-41.242h-21.52v-34.072h21.52v-41.244h-21.52v-43.037
	h-23.535v-17.933h-39.451v17.933h-40.349v-17.933H754.51h-27.463v17.933h-42.652v-17.933h-37.384V525.475
	c0.042,59.24,48.251,107.423,107.499,107.423c59.274,0,107.5-48.225,107.5-107.5c0-59.272-48.226-107.5-107.5-107.5
	c-59.249,0-107.457,48.186-107.499,107.423V379.223H769.883z M644.947,650.83h-39.451v-17.934h39.45L644.947,650.83L644.947,650.83z
	"/>
</svg>
