<?xml version="1.0" encoding="utf-8"?>
<!-- Generator: Adobe Illustrator 16.0.0, SVG Export Plug-In . SVG Version: 6.00 Build 0)  -->
<!DOCTYPE svg PUBLIC "-//W3C//DTD SVG 1.1//EN" "http://www.w3.org/Graphics/SVG/1.1/DTD/svg11.dtd">
<svg version="1.1" id="Calque_1" xmlns="http://www.w3.org/2000/svg" xmlns:xlink="http://www.w3.org/1999/xlink" x="0px" y="0px"
	 width="1190.551px" height="1190.551px" viewBox="0 0 1190.551 1190.551" enable-background="new 0 0 1190.551 1190.551"
	 xml:space="preserve">
<g>
	<path fill="#010202" d="M293.511,556.653h39.422v-17.932h40.348v17.932h39.451v-17.932h42.652v17.932h39.447v-17.932h39.453v17.932
		h11.781h27.67v-17.932h42.588v17.932h39.453v-17.932h36.984v17.932h39.449v-17.932h32.275v17.932h39.453v-17.932h18.32v-43.039
		h19.723v-41.244H822.26v-34.071h19.723v-41.243H822.26v-32.279h19.723V305.6H822.26v-35.638h19.723v-41.246H822.26V193.83h19.723
		v-41.242H822.26v-28.165h19.723V83.179H822.26V54.548h-18.32v-17.93h-39.453v17.93h-32.275v-17.93h-39.449v17.93h-36.984v-17.93
		h-39.453v17.93h-42.587v-17.93h-39.451v17.93h-39.453v-17.93h-39.447v17.93h-42.652v-17.93h-39.451v17.93h-40.349v-17.93h-39.451
		v17.93h-23.536v28.631h-21.519v41.244h21.519v28.165h-21.519v41.242h21.519v34.886h-21.519v41.246h21.519V305.6h-21.519v41.245
		h21.519v32.279h-21.519v41.243h21.519v34.071h-21.519v41.244h21.519v43.039h23.536v17.928c-14.693-2.231-29.739-3.392-45.056-3.392
		v595.279c164.383,0.001,297.641-133.256,297.641-297.64C546.067,701.843,436.499,578.381,293.511,556.653z"/>
	<polygon fill="#010202" points="749.588,658.861 546.067,556.653 546.067,850.898 546.067,1153.933 942.125,757.876 
		942.125,658.861 	"/>
</g>
</svg>
