<?xml version="1.0" encoding="utf-8"?>
<!-- Generator: Adobe Illustrator 16.0.0, SVG Export Plug-In . SVG Version: 6.00 Build 0)  -->
<!DOCTYPE svg PUBLIC "-//W3C//DTD SVG 1.1//EN" "http://www.w3.org/Graphics/SVG/1.1/DTD/svg11.dtd">
<svg version="1.1" id="Calque_1" xmlns="http://www.w3.org/2000/svg" xmlns:xlink="http://www.w3.org/1999/xlink" x="0px" y="0px"
	 width="1190.551px" height="1190.551px" viewBox="0 0 1190.551 1190.551" enable-background="new 0 0 1190.551 1190.551"
	 xml:space="preserve">
<path fill="#010202" d="M1068.249,691.384v-95.247h-350.67V0.857H453.943v414.278h-68V0.857H122.302v595.277h46.56v19.728h-28.63
	v18.316h-17.93v39.453h17.93v32.276h-17.93v39.449h17.93v36.984h-17.93v39.452h17.93v42.589h-17.93v39.451h17.93v39.452h-17.93
	v39.45h17.93v42.651h-17.93v39.451h17.93v40.347h-17.93v39.452h17.93v23.536h28.63v21.52h41.245v-21.52h28.164v21.52h41.243v-21.52
	H314.4v21.52h41.246v-21.52h35.638v21.52h41.244v-21.52h32.28v21.52h41.243v-21.52h34.07v21.52h41.244v-21.52h43.038v-23.536h17.932
	v42.741h204.87V907.034h-55.712v-215.65H1068.249z M238.271,615.862h-28.164v-19.728h28.164V615.862z M314.4,615.862h-34.886
	v-19.728H314.4V615.862z M391.283,615.862h-35.638v-19.728h35.638V615.862z M464.808,615.862h-32.28v-19.728h32.28V615.862z
	 M540.122,615.862h-34.07v-19.728h34.07V615.862L540.122,615.862z M642.335,1105.188h-17.932v-40.348h17.932V1105.188z
	 M642.335,1025.39h-17.932v-42.651h17.932V1025.39z M642.335,943.288h-17.932v-39.452h17.932V943.288z M642.335,864.385h-17.932
	v-42.588h17.932V864.385z M642.335,782.344h-17.932v-36.984h17.932V782.344z M642.335,705.909h-17.932v-32.276h17.932V705.909z
	 M642.335,634.18h-17.932v-18.316h-43.038v-19.727h60.97V634.18z"/>
</svg>
