<?xml version="1.0" encoding="utf-8"?>
<!-- Generator: Adobe Illustrator 16.0.0, SVG Export Plug-In . SVG Version: 6.00 Build 0)  -->
<!DOCTYPE svg PUBLIC "-//W3C//DTD SVG 1.1//EN" "http://www.w3.org/Graphics/SVG/1.1/DTD/svg11.dtd">
<svg version="1.1" id="Calque_1" xmlns="http://www.w3.org/2000/svg" xmlns:xlink="http://www.w3.org/1999/xlink" x="0px" y="0px"
	 width="1190.551px" height="1190.551px" viewBox="0 0 1190.551 1190.551" enable-background="new 0 0 1190.551 1190.551"
	 xml:space="preserve">
<g>
	<path fill="#010202" d="M769.883,715.613h122.873V594.416H771.269v-19.723H799.9v-18.319h17.93v-39.454H799.9v-32.274h17.93v-39.45
		H799.9v-36.988h17.93v-39.453H799.9v-42.588h17.93v-39.451H799.9v-39.452h17.93v-39.448H799.9v-42.652h17.93v-39.452H799.9V85.363
		h17.93V45.913H799.9V22.375h-28.631V0.857h-41.244v21.518h-28.164V0.857h-41.243v21.518h-34.886V0.857h-41.246v21.518h-35.638
		V0.857h-41.245v21.518h-32.279V0.857h-41.241v21.518H400.01V0.857h-41.245v21.518h-43.039v23.537h-17.931v39.451h17.931v40.347
		h-17.931v39.452h17.931v42.652h-17.931v39.448h17.931v39.452h-17.931v39.451h17.931v42.588h-17.931v39.453h17.931v36.987h-17.931
		v39.45h17.931v32.274h-17.931v39.454h17.931v18.319h43.039v19.723h-60.97v121.198h122.872v220.28
		c-5.022-0.722-10.153-1.104-15.372-1.104c-59.274,0-107.5,48.227-107.5,107.5c0,59.276,48.226,107.5,107.5,107.5
		c59.273,0,107.5-48.224,107.5-107.5c0-53.748-39.652-98.41-91.239-106.271H543.54v253.677h103.472v-146.177v-107.5h107.5h15.371
		V715.613L769.883,715.613z M400.009,594.416v-19.723h34.072v19.723H400.009z M475.323,594.416v-19.723h32.279v19.723H475.323z
		 M548.848,594.416v-19.723h35.638v19.723H548.848z M625.732,594.416v-19.723h34.886v19.723H625.732z M701.861,594.416v-19.723
		h28.164v19.723H701.861z"/>
	<path fill="#010202" d="M647.012,1043.519c0,59.274,48.224,107.5,107.5,107.5c59.271,0,107.5-48.226,107.5-107.5
		c0-59.273-48.229-107.5-107.5-107.5C695.236,936.019,647.012,984.245,647.012,1043.519z"/>
</g>
</svg>
