<?xml version="1.0" encoding="utf-8"?>
<!-- Generator: Adobe Illustrator 16.0.0, SVG Export Plug-In . SVG Version: 6.00 Build 0)  -->
<!DOCTYPE svg PUBLIC "-//W3C//DTD SVG 1.1//EN" "http://www.w3.org/Graphics/SVG/1.1/DTD/svg11.dtd">
<svg version="1.1" id="Calque_1" xmlns="http://www.w3.org/2000/svg" xmlns:xlink="http://www.w3.org/1999/xlink" x="0px" y="0px"
	 width="1190.551px" height="1190.551px" viewBox="0 0 1190.551 1190.551" enable-background="new 0 0 1190.551 1190.551"
	 xml:space="preserve">
<path fill="#010202" d="M1058.199,1190.551L662.141,794.49h-99.014v192.536L500.25,1112.23V520.035h39.452v-17.932h36.985v17.932
	h39.45v-17.932h32.275v17.932h39.453v-17.932h18.318v-43.039h19.725V417.82h-19.725v-34.071h19.725v-41.243h-19.725v-32.279h19.725
	v-41.245h-19.725v-35.638h19.725v-41.246h-19.725v-34.886h19.725V115.97h-19.725V87.805h19.725V46.561h-19.725V17.93h-18.318V0
	h-39.453v17.93h-32.275V0h-39.45v17.93h-36.985V0h-39.453v17.93h-42.587V0h-39.451v17.93h-39.453V0H339.31v17.93h-42.652V0h-39.451
	v17.93h-40.349V0h-39.451v17.93h-23.536v28.631h-21.519v41.244h21.519v28.165h-21.519v41.242h21.519v34.886h-21.519v41.246h21.519
	v35.638h-21.519v41.245h21.519v32.279h-21.519v41.243h21.519v34.071h-21.519v41.244h21.519v43.039h23.536v17.932h39.451v-17.932
	h40.348v17.932h39.451v-17.932h42.652v17.932h39.447v-17.932h39.453v17.932h39.199C313.328,540.807,202.61,664.76,202.61,814.594
	c0,164.382,133.258,297.64,297.64,297.641l-39.33,78.316H1058.199z M457.662,502.104h42.588v14.851
	c-14.462,0-28.677,1.053-42.588,3.046V502.104z"/>
</svg>
