<?xml version="1.0" encoding="utf-8"?>
<!-- Generator: Adobe Illustrator 16.0.0, SVG Export Plug-In . SVG Version: 6.00 Build 0)  -->
<!DOCTYPE svg PUBLIC "-//W3C//DTD SVG 1.1//EN" "http://www.w3.org/Graphics/SVG/1.1/DTD/svg11.dtd">
<svg version="1.1" id="Calque_1" xmlns="http://www.w3.org/2000/svg" xmlns:xlink="http://www.w3.org/1999/xlink" x="0px" y="0px"
	 width="1190.551px" height="1190.551px" viewBox="0 0 1190.551 1190.551" enable-background="new 0 0 1190.551 1190.551"
	 xml:space="preserve">
<g>
	<path fill="#010202" d="M639.24,840.319V718.336c7.861,51.587,52.524,91.238,106.271,91.238c59.275,0,107.5-48.225,107.5-107.5
		c0-59.274-48.225-107.5-107.5-107.5c-59.273,0-107.499,48.224-107.499,107.5c0,5.221,0.381,10.352,1.104,15.373H418.833V594.575
		h-18.981v-19.723h34.072v19.723h41.241v-19.723h32.279v19.723h41.245v-19.723h35.638v19.723h41.246v-19.723h34.886v19.723h41.243
		v-19.723h28.164v19.723h15.646h25.6v-19.723h28.631v-18.319h17.93v-39.454h-17.93v-32.274h17.93v-39.45h-17.93v-36.988h17.93
		v-39.453h-17.93v-42.588h17.93v-39.451h-17.93v-39.452h17.93v-39.448h-17.93v-42.652h17.93v-39.452h-17.93V85.522h17.93V46.072
		h-17.93V22.535h-28.631V1.017h-41.245v21.518h-28.164V1.017h-41.243v21.518h-34.886V1.017h-41.246v21.518H548.69V1.017h-41.245
		v21.518h-32.279V1.017h-41.241v21.518h-34.072V1.017h-41.245v21.518h-43.039v23.537h-17.931v39.451h17.931v40.347h-17.931v39.452
		h17.931v42.652h-17.931v39.448h17.931v39.452h-17.931v39.451h17.931v42.588h-17.931v39.453h17.931v36.987h-17.931v39.45h17.931
		v32.274h-17.931v39.454h17.931v18.319h43.039v19.723h-60.97v594.961h121.195v-122.872H639.24V943.791h253.675V840.319H639.24z"/>
	<path fill="#010202" d="M746.185,970.139c-59.275,0-107.5,48.225-107.5,107.5c0,59.272,48.225,107.5,107.5,107.5
		c59.272,0,107.5-48.228,107.5-107.5C853.685,1018.363,805.458,970.139,746.185,970.139z"/>
</g>
</svg>
