<?xml version="1.0" encoding="utf-8"?>
<!-- Generator: Adobe Illustrator 16.0.0, SVG Export Plug-In . SVG Version: 6.00 Build 0)  -->
<!DOCTYPE svg PUBLIC "-//W3C//DTD SVG 1.1//EN" "http://www.w3.org/Graphics/SVG/1.1/DTD/svg11.dtd">
<svg version="1.1" id="Calque_1" xmlns="http://www.w3.org/2000/svg" xmlns:xlink="http://www.w3.org/1999/xlink" x="0px" y="0px"
	 width="1190.551px" height="1190.551px" viewBox="0 0 1190.551 1190.551" enable-background="new 0 0 1190.551 1190.551"
	 xml:space="preserve">
<path fill="#010202" d="M769.884,1031.735V811.329h-15.296c59.237-0.042,107.423-48.25,107.423-107.499
	c0-59.275-48.228-107.5-107.5-107.5c-59.274,0-107.5,48.227-107.5,107.5c0,59.249,48.184,107.457,107.423,107.499H647.011V703.83
	V557.654h37.385v-17.931h42.652v17.931h39.45v-17.931h40.349v17.931h39.451v-17.931h23.535v-28.631h21.52v-41.243h-21.52v-28.164
	h21.52v-41.242h-21.52v-34.887h21.52V324.31h-21.52v-35.638h21.52v-41.245h-21.52v-32.279h21.52v-41.242h-21.52v-34.072h21.52
	V98.589h-21.52V55.55h-23.535V37.619h-39.451V55.55h-40.349V37.619h-39.45V55.55h-42.652V37.619h-39.449V55.55h-39.451V37.619
	h-39.451V55.55h-42.588V37.619h-39.453V55.55h-36.986V37.619h-39.451V55.55h-32.274V37.619h-39.454V55.55h-18.318v43.039h-19.724
	v41.244h19.724v34.072h-19.724v41.242h19.724v32.279h-19.724v41.245h19.724v35.638h-19.724v41.246h19.724v34.887h-19.724v41.242
	h19.724v28.164h-19.724v41.244h19.724v28.631h18.318v17.931h39.454v-17.931h32.273v17.931h39.451v-17.931h36.986v17.931h39.453
	v-17.931h42.588v17.931h-22.504v253.675H423.527c50.621-8.684,89.269-52.884,89.269-105.946c0-59.272-48.226-107.498-107.5-107.498
	s-107.5,48.226-107.5,107.498c0,59.276,48.226,107.5,107.5,107.5c5.219,0,10.351-0.382,15.373-1.104v219.956H297.795v121.196
	h594.961v-121.196H769.884z M605.495,557.654v-17.931h39.45v17.931H605.495z"/>
</svg>
