<?xml version="1.0" encoding="utf-8"?>
<!-- Generator: Adobe Illustrator 16.0.0, SVG Export Plug-In . SVG Version: 6.00 Build 0)  -->
<!DOCTYPE svg PUBLIC "-//W3C//DTD SVG 1.1//EN" "http://www.w3.org/Graphics/SVG/1.1/DTD/svg11.dtd">
<svg version="1.1" id="Calque_1" xmlns="http://www.w3.org/2000/svg" xmlns:xlink="http://www.w3.org/1999/xlink" x="0px" y="0px"
	 width="1190.551px" height="1190.551px" viewBox="0 0 1190.551 1190.551" enable-background="new 0 0 1190.551 1190.551"
	 xml:space="preserve">
<path fill="#010202" d="M652.901,836.78V676.683h-99.213v-83.124h19.568v-19.724h34.885v19.724h41.244v-19.724h28.164v19.724h41.244
	v-19.724h28.631v-18.319h17.93v-39.453h-17.93v-32.274h17.93v-39.45h-17.93v-36.986h17.93V367.9h-17.93v-42.589h17.93V285.86h-17.93
	v-39.453h17.93v-39.448h-17.93v-42.652h17.93v-39.451h-17.93V84.507h17.93V45.056h-17.93V21.52h-28.631V0.001h-41.244V21.52h-28.164
	V0.001h-41.242V21.52h-34.886V0.001H532.01V21.52h-35.638V0.001h-41.245V21.52h-32.279V0.001h-41.241V21.52h-34.072V0.001h-41.246
	V21.52h-43.038v23.536H245.32v39.451h17.931v40.348H245.32v39.451h17.931v42.652H245.32v39.448h17.931v39.453H245.32v39.451h17.931
	v42.588H245.32v39.453h17.931v36.986H245.32v39.45h17.931v32.274H245.32v39.453h17.931v18.319h43.038v19.724h41.245v-19.724h34.072
	v19.724h38.006v166.249h-61.671v99.213H245.32v149.706h58.992v180.112h348.588v-164.909h-96.534v-183.68h95.87
	c-3.053,17.093-4.646,34.69-4.646,52.66c0,164.384,133.258,297.642,297.641,297.642V595.273
	C800.041,595.271,679.153,699.238,652.901,836.78z M422.848,593.559v-19.724h32.279v19.724H422.848z M496.373,593.559v-19.724
	h35.638v19.724H496.373z"/>
</svg>
