<?xml version="1.0" encoding="utf-8"?>
<!-- Generator: Adobe Illustrator 16.0.0, SVG Export Plug-In . SVG Version: 6.00 Build 0)  -->
<!DOCTYPE svg PUBLIC "-//W3C//DTD SVG 1.1//EN" "http://www.w3.org/Graphics/SVG/1.1/DTD/svg11.dtd">
<svg version="1.1" id="Calque_1" xmlns="http://www.w3.org/2000/svg" xmlns:xlink="http://www.w3.org/1999/xlink" x="0px" y="0px"
	 width="1190.551px" height="1190.551px" viewBox="0 0 1190.551 1190.551" enable-background="new 0 0 1190.551 1190.551"
	 xml:space="preserve">
<g>
	<path fill="#010202" d="M362.823,593.558h41.243v-19.724h28.164v19.724h41.244v-19.724h28.631v-18.319h17.93v-39.453h-17.93
		v-32.274h17.93v-39.45h-17.93v-36.986h17.93v-39.453h-17.93V325.31h17.93v-39.451h-17.93v-39.453h17.93v-39.448h-17.93v-42.652
		h17.93v-39.451h-17.93V84.506h17.93V45.055h-17.93V21.519h-28.631V0H432.23v21.519h-28.164V0h-41.243v21.519h-34.886V0h-41.246
		v21.519h-35.638V0h-41.245v21.519h-32.279V0h-41.242v21.519h-34.072V0H60.97v21.519H17.931v23.536H0v39.451h17.931v40.348H0v39.451
		h17.931v42.652H0v39.448h17.931v39.453H0v39.451h17.931v42.588H0v39.453h17.931v36.986H0v39.45h17.931v32.274H0v39.453h17.931
		v18.319H60.97v19.724h41.244v-19.724h34.072v19.724h41.242v-19.724h32.279v19.724h41.245v-19.724h35.638v19.724h30.281
		C174.36,615.608,65.183,738.892,65.183,887.68c0,164.382,133.258,297.642,297.64,297.642V593.558z M327.937,573.834h34.886v16.208
		c-11.804,0-23.44,0.709-34.886,2.045V573.834z"/>
	<polygon fill="#010202" points="561.418,794.49 462.406,794.49 462.406,987.027 360.197,1190.551 957.478,1190.551 	"/>
</g>
</svg>
