<?xml version="1.0" encoding="utf-8"?>
<!-- Generator: Adobe Illustrator 16.0.0, SVG Export Plug-In . SVG Version: 6.00 Build 0)  -->
<!DOCTYPE svg PUBLIC "-//W3C//DTD SVG 1.1//EN" "http://www.w3.org/Graphics/SVG/1.1/DTD/svg11.dtd">
<svg version="1.1" id="Calque_1" xmlns="http://www.w3.org/2000/svg" xmlns:xlink="http://www.w3.org/1999/xlink" x="0px" y="0px"
	 width="1190.551px" height="1190.551px" viewBox="0 0 1190.551 1190.551" enable-background="new 0 0 1190.551 1190.551"
	 xml:space="preserve">
<path fill="#010202" d="M706.832,407.285v-38.568h-17.93v-42.589h17.93v-39.453h-17.93V249.69h17.93v-39.451h-17.93v-32.275h17.93
	v-39.453h-17.93v-18.319h-43.039v-19.724h-41.244v19.724h-34.071v-19.724h-41.243v19.724h-32.279v-19.724h-41.245v19.724h-35.638
	v-19.724h-41.246v19.724h-34.886v-19.724h-41.243v19.724h-28.164v-19.724H233.36v19.724h-28.631v18.319H186.8v39.453h17.93v32.274
	H186.8v39.451h17.93v36.985H186.8v39.453h17.93v42.588H186.8v39.45h17.93v39.453H186.8v39.449h17.93v42.653H186.8v39.45h17.93
	v40.348H186.8v39.452h17.93v23.535h28.631v21.519H186.8l396.058,396.06h99.012V897.548l102.209-203.522H645.864v-21.519h43.039
	v-23.535h17.932V609.52h-17.932v-40.348h17.932v-39.45h-17.932v-42.653h17.932v-38.567
	c10.586,154.766,139.465,277.033,296.918,277.033v-595.28C846.299,130.253,717.42,252.519,706.832,407.285z M274.604,694.025
	v-21.519h28.164v21.519H274.604z M344.011,694.025v-21.519h34.886v21.519H344.011z M420.143,694.025v-21.519h35.638v21.519H420.143z
	 M497.026,694.025v-21.519h32.279v21.519H497.026z M570.549,694.025v-21.519h34.071v21.519H570.549z M688.903,447.62v-39.453h17.875
	c-0.426,6.522-0.666,13.096-0.666,19.727c0,6.631,0.24,13.204,0.666,19.727L688.903,447.62L688.903,447.62z"/>
</svg>
