<?xml version="1.0" encoding="utf-8"?>
<!-- Generator: Adobe Illustrator 16.0.0, SVG Export Plug-In . SVG Version: 6.00 Build 0)  -->
<!DOCTYPE svg PUBLIC "-//W3C//DTD SVG 1.1//EN" "http://www.w3.org/Graphics/SVG/1.1/DTD/svg11.dtd">
<svg version="1.1" id="Calque_1" xmlns="http://www.w3.org/2000/svg" xmlns:xlink="http://www.w3.org/1999/xlink" x="0px" y="0px"
	 width="1190.551px" height="1190.551px" viewBox="0 0 1190.551 1190.551" enable-background="new 0 0 1190.551 1190.551"
	 xml:space="preserve">
<path fill="#010202" d="M706.549,443.295h75.167V94.708H616.807v96.532H433.129V94.708H269.562v99.213h-83.124v134.075h166.249
	v61.671H451.9v112.621h21.229v21.519H437.49v-21.519h-41.245v21.519h-32.279v-21.519h-41.241v21.519h-34.072v-21.519h-41.246v21.519
	h-43.038v23.537h-17.931v39.451h17.931v40.347h-17.931v39.452h17.931v42.65h-17.931v39.449h17.931v39.451h-17.931v39.451h17.931
	v42.588h-17.931v39.453h17.931v36.984h-17.931v39.451h17.931v32.275h-17.931v39.453h17.931v18.318h43.038v19.725h41.245v-19.725
	h34.072v19.725h41.241v-19.725h32.279v19.725h41.245v-19.725h35.638v19.725h41.246v-19.725h34.886v19.725h41.243v-19.725h28.164
	v19.725h41.244v-19.725h28.631v-18.318h17.93v-19.229c164.383,0.002,297.643-133.256,297.643-297.639
	C1004.114,576.58,870.895,443.337,706.549,443.295z M549.26,523.807h-34.886v-21.519h34.886V523.807z M706.471,1018.35h-17.93
	v-32.275h17.93V1018.35z M706.471,946.623h-17.93v-36.984h17.93V946.623z M706.471,870.186h-17.93v-42.588h17.93V870.186z
	 M706.471,788.146h-17.93v-39.453h17.93V788.146z M706.471,709.244h-17.93v-42.65h17.93V709.244z M706.471,627.142h-17.93v-40.347
	h17.93V627.142z M688.542,547.343v-23.537h-28.631v-21.519h-41.244v21.519h-28.164v-21.519h11.104v-58.992h104.865v104.048H688.542z
	"/>
</svg>
