<?xml version="1.0" encoding="utf-8"?>
<!-- Generator: Adobe Illustrator 16.0.0, SVG Export Plug-In . SVG Version: 6.00 Build 0)  -->
<!DOCTYPE svg PUBLIC "-//W3C//DTD SVG 1.1//EN" "http://www.w3.org/Graphics/SVG/1.1/DTD/svg11.dtd">
<svg version="1.1" id="Calque_1" xmlns="http://www.w3.org/2000/svg" xmlns:xlink="http://www.w3.org/1999/xlink" x="0px" y="0px"
	 width="1190.551px" height="1190.551px" viewBox="0 0 1190.551 1190.551" enable-background="new 0 0 1190.551 1190.551"
	 xml:space="preserve">
<path fill="#010202" d="M472.089,994.116V773.71h-15.296c59.238-0.042,107.423-48.25,107.423-107.499
	c0-59.275-48.227-107.5-107.5-107.5c-59.274,0-107.5,48.226-107.5,107.5c0,59.249,48.184,107.457,107.423,107.499H349.216V666.211
	V520.035h37.385v-17.931h42.652v17.931h39.451v-17.931h40.348v17.931h39.451v-17.931h23.536v-28.631h21.519V432.23h-21.519v-28.164
	h21.519v-41.242h-21.519v-34.887h21.519v-41.246h-21.519v-35.638h21.519v-41.245h-21.519v-32.279h21.519v-41.242h-21.519v-34.072
	h21.519V60.97h-21.519V17.931h-23.536V0h-39.451v17.931h-40.348V0h-39.451v17.931h-42.652V0h-39.449v17.931H307.7V0h-39.451v17.931
	h-42.588V0h-39.453v17.931h-36.986V0h-39.451v17.931H77.496V0H38.042v17.931H19.724V60.97H0v41.244h19.724v34.072H0v41.242h19.724
	v32.279H0v41.245h19.724v35.638H0v41.246h19.724v34.887H0v41.242h19.724v28.164H0v41.244h19.724v28.631h18.318v17.931h39.454
	v-17.931h32.274v17.931h39.451v-17.931h36.986v17.931h39.453v-17.931h42.588v17.931h-22.504V773.71H125.732
	C176.353,765.026,215,720.826,215,667.764c0-59.273-48.225-107.499-107.5-107.499C48.226,560.265,0,608.491,0,667.764
	c0,59.276,48.226,107.5,107.5,107.5c5.219,0,10.351-0.382,15.373-1.104v219.956H0v121.197h594.961V994.116H472.089z M307.7,520.035
	v-17.931h39.451v17.931H307.7z"/>
</svg>
