<?xml version="1.0" encoding="utf-8"?>
<!-- Generator: Adobe Illustrator 16.0.0, SVG Export Plug-In . SVG Version: 6.00 Build 0)  -->
<!DOCTYPE svg PUBLIC "-//W3C//DTD SVG 1.1//EN" "http://www.w3.org/Graphics/SVG/1.1/DTD/svg11.dtd">
<svg version="1.1" id="Calque_1" xmlns="http://www.w3.org/2000/svg" xmlns:xlink="http://www.w3.org/1999/xlink" x="0px" y="0px"
	 width="1190.551px" height="1190.551px" viewBox="0 0 1190.551 1190.551" enable-background="new 0 0 1190.551 1190.551"
	 xml:space="preserve">
<path fill="#010202" d="M924.875,632.898V41.651h-204.87V322h55.714v215.65H498.963v-71.001h61.671v-99.213h112.622V217.73h-58.993
	V37.619H265.676v164.907h96.532v183.68h-96.532v163.567h99.213v83.124h10.559v17.932h-32.275v-17.932h-39.453v17.932h-18.318v43.038
	h-19.725v41.245h19.725v34.072h-19.725v41.242h19.725v32.279h-19.725v41.244h19.725v35.64h-19.725v41.246h19.725v34.885h-19.725
	v41.244h19.725v28.164h-19.725v41.242h19.725v28.633h18.318v17.929h39.453v-17.929h32.274v17.929h39.451v-17.929h36.984v17.929
	h39.453v-17.929h42.588v17.929h39.453v-17.929h39.45v17.929h39.449v-17.929h42.653v17.929h39.449v-17.929h40.349v17.929h39.452
	v-17.929h23.534v-28.633h21.52v-41.242h-21.52v-28.164h21.52V995.72h-21.52v-34.885h21.52v-41.246h-21.52v-35.64h21.52v-41.244
	h-21.52v-32.279h21.52v-41.242h-21.52v-34.072h21.52v-41.245h-21.52v-43.038h-23.534v-17.932h110.696V632.898z M451.883,650.828
	h-36.984v-17.932h36.984V650.828z M533.924,650.828h-42.588v-17.932h7.627h34.961V650.828z M612.827,650.828h-39.451v-17.932h39.45
	L612.827,650.828L612.827,650.828z M694.93,650.828h-42.653v-17.932h42.653V650.828L694.93,650.828z M774.728,650.828h-40.349
	v-17.932h40.349V650.828z"/>
</svg>
