<?xml version="1.0" encoding="utf-8"?>
<!-- Generator: Adobe Illustrator 16.0.0, SVG Export Plug-In . SVG Version: 6.00 Build 0)  -->
<!DOCTYPE svg PUBLIC "-//W3C//DTD SVG 1.1//EN" "http://www.w3.org/Graphics/SVG/1.1/DTD/svg11.dtd">
<svg version="1.1" id="Calque_1" xmlns="http://www.w3.org/2000/svg" xmlns:xlink="http://www.w3.org/1999/xlink" x="0px" y="0px"
	 width="1190.551px" height="1190.551px" viewBox="0 0 1190.551 1190.551" enable-background="new 0 0 1190.551 1190.551"
	 xml:space="preserve">
<g>
	<path fill="#010202" d="M471.244,688.456V557.654h-23.907v-17.932h42.588v17.932h39.453v-17.932h36.986v17.932h39.449v-17.932
		h32.275v17.932h39.455v-17.932h18.316v-43.039h19.725v-41.244H695.86v-34.071h19.725v-41.243H695.86v-32.279h19.725v-41.245H695.86
		v-35.638h19.725v-41.246H695.86v-34.886h19.725v-41.242H695.86v-28.165h19.725V84.18H695.86V55.549h-18.316v-17.93h-39.455v17.93
		h-32.275v-17.93h-39.449v17.93h-36.986v-17.93h-39.453v17.93h-42.588v-17.93h-39.451v17.93h-39.452v-17.93h-39.447v17.93h-42.652
		v-17.93h-39.452v17.93h-40.348v-17.93h-39.451v17.93h-23.537V84.18h-21.518v41.244h21.518v28.165h-21.518v41.242h21.518v34.886
		h-21.518v41.246h21.518v35.638h-21.518v41.245h21.518v32.279h-21.518v41.243h21.518v34.071h-21.518v41.244h21.518v43.039h23.537
		v17.932h39.451v-17.932h40.347v17.932h39.452v-17.932h42.652v17.932h38.788v253.675H244.901v220.406H122.028v121.196h594.96
		v-121.196H594.117V811.329H471.244V688.456z M368.433,557.654v-17.932h39.452v17.932H368.433z"/>
	<polygon fill="#010202" points="471.244,688.456 594.117,811.329 867.303,1084.516 966.315,1084.516 966.315,891.979 
		1068.524,688.456 	"/>
</g>
</svg>
