<?xml version="1.0" encoding="utf-8"?>
<!-- Generator: Adobe Illustrator 16.0.0, SVG Export Plug-In . SVG Version: 6.00 Build 0)  -->
<!DOCTYPE svg PUBLIC "-//W3C//DTD SVG 1.1//EN" "http://www.w3.org/Graphics/SVG/1.1/DTD/svg11.dtd">
<svg version="1.1" id="Calque_1" xmlns="http://www.w3.org/2000/svg" xmlns:xlink="http://www.w3.org/1999/xlink" x="0px" y="0px"
	 width="1190.551px" height="1190.551px" viewBox="0 0 1190.551 1190.551" enable-background="new 0 0 1190.551 1190.551"
	 xml:space="preserve">
<path fill="#010202" d="M1012.022,689.662v-95.247H637.595v-21.518h43.038v-23.535h17.931v-39.453h-17.931v-40.347h17.931v-39.45
	h-17.931v-42.654h17.931v-39.449h-17.931v-39.452h17.931v-39.452h-17.931v-42.588h17.931v-39.453h-17.931V150.08h17.931v-39.451
	h-17.931V78.353h17.931V38.9h-17.931V20.582h-43.038V0.857H596.35v19.725h-34.07V0.857h-41.243v19.725h-32.279V0.857h-41.245v19.725
	h-35.638V0.857h-41.246v19.725h-34.886V0.857h-41.243v19.725h-28.165V0.857H225.09v19.725h-28.631V38.9h-17.93v39.453h17.93v32.275
	h-17.93v39.451h17.93v36.984h-17.93v39.453h17.93v42.588h-17.93v39.453h17.93v39.451h-17.93v39.449h17.93v42.654h-17.93v39.45h17.93
	v40.347h-17.93v39.453h17.93v23.535h28.631v21.518H178.53v164.908h96.532V943H178.53v163.57h99.213v83.123h134.074v-166.248h61.671
	V924.23H586.11v261.43h204.868V905.312h-55.712v-215.65H1012.022L1012.022,689.662z M266.334,594.415v-21.518h28.164v21.518H266.334
	z M335.741,594.415v-21.518h34.886v21.518H335.741z M411.873,594.415v-21.518h35.638v21.518H411.873z M488.756,594.415v-21.518
	h32.279v21.518H488.756z M586.11,594.415v180.11h-58.993v-180.11h35.162v-21.518h34.07v21.518H586.11z"/>
</svg>
