<?xml version="1.0" encoding="utf-8"?>
<!-- Generator: Adobe Illustrator 16.0.0, SVG Export Plug-In . SVG Version: 6.00 Build 0)  -->
<!DOCTYPE svg PUBLIC "-//W3C//DTD SVG 1.1//EN" "http://www.w3.org/Graphics/SVG/1.1/DTD/svg11.dtd">
<svg version="1.1" id="Calque_1" xmlns="http://www.w3.org/2000/svg" xmlns:xlink="http://www.w3.org/1999/xlink" x="0px" y="0px"
	 width="1190.551px" height="1190.551px" viewBox="0 0 1190.551 1190.551" enable-background="new 0 0 1190.551 1190.551"
	 xml:space="preserve">
<path fill="#010202" d="M890.281,578.826v280.348h55.713v215.65H688.961v-41.244h-19.727v-34.072h19.727v-41.242h-19.727v-32.279
	h19.727v-41.244h-19.727v-35.639h19.727v-41.244h-19.727v-34.889h19.727v-41.244h-19.727v-28.162h19.727V662.32h-19.727v-28.633
	h-18.316v-17.93h39.764V352.121H276.404v-68h414.278V20.48H95.404v595.278h45.054v17.93h-23.536v28.633H95.404v41.244h21.518v28.162
	H95.404v41.244h21.518v34.887H95.404v41.244h21.518v35.639H95.404v41.246h21.518v32.277H95.404v41.244h21.518v34.07H95.404v41.244
	h21.518v43.039h23.536v17.932h39.452v-17.932h40.347v17.932h39.451v-17.932h42.653v17.932h39.447v-17.932h39.452v17.932h39.452
	v-17.932h42.588v17.932h39.453v-17.932h36.982v17.932h39.451v-17.932h32.276v17.932h39.453v-17.932h18.316v52.209h425.914V578.826
	H890.281z M220.257,633.688H179.91v-17.93h40.347V633.688z M302.361,633.688h-42.653v-17.93h42.653V633.688z M381.261,633.688
	h-39.452v-17.93h39.452V633.688z M463.302,633.688h-42.588v-17.93h42.588V633.688z M539.738,633.688h-36.983v-17.93h36.983V633.688z
	 M611.465,633.688h-32.276v-17.93h32.276V633.688z"/>
</svg>
