<?xml version="1.0" encoding="utf-8"?>
<!-- Generator: Adobe Illustrator 16.0.0, SVG Export Plug-In . SVG Version: 6.00 Build 0)  -->
<!DOCTYPE svg PUBLIC "-//W3C//DTD SVG 1.1//EN" "http://www.w3.org/Graphics/SVG/1.1/DTD/svg11.dtd">
<svg version="1.1" id="Calque_1" xmlns="http://www.w3.org/2000/svg" xmlns:xlink="http://www.w3.org/1999/xlink" x="0px" y="0px"
	 width="1190.551px" height="1190.551px" viewBox="0 0 1190.551 1190.551" enable-background="new 0 0 1190.551 1190.551"
	 xml:space="preserve">
<path fill="#010202" d="M1021.193,95.247V0H595.279H331.641v414.278h-68V0H0v595.278h45.054v17.93H21.518v28.632H0v41.245h21.518
	v28.162H0v41.243h21.518v34.888H0v41.244h21.518v35.639H0v41.245h21.518v32.278H0v41.243h21.518v34.072H0v41.244h21.518v43.039
	h23.536v17.931h39.452v-17.931h40.347v17.931h39.451v-17.931h42.653v17.931h39.448v-17.931h39.452v17.931h39.452v-17.931h42.588
	v17.931h39.453v-17.931h36.983v17.931h39.451v-17.931h32.276v17.931h39.453v-17.931h18.317v-43.039h19.726V1013.1h-19.726v-34.072
	h19.726v-41.243h-19.726v-32.278h19.726v-41.245h-19.726v-35.639h19.726v-41.244h-19.726V752.49h19.726v-41.243h-19.726v-28.162
	h19.726V641.84h-19.726v-28.632h-18.317v-17.93h39.764v-4.034h204.87V310.897h-55.712V95.247H1021.193z M124.853,613.208H84.506
	v-17.93h40.347V613.208z M206.957,613.208h-42.653v-17.93h42.653V613.208z M285.858,613.208h-39.452v-17.93h39.452V613.208z
	 M367.898,613.208H325.31v-17.93h42.588V613.208z M444.334,613.208h-36.983v-17.93h36.983V613.208z M516.062,613.208h-32.276v-17.93
	h32.276V613.208z"/>
</svg>
