<?xml version="1.0" encoding="utf-8"?>
<!-- Generator: Adobe Illustrator 16.0.0, SVG Export Plug-In . SVG Version: 6.00 Build 0)  -->
<!DOCTYPE svg PUBLIC "-//W3C//DTD SVG 1.1//EN" "http://www.w3.org/Graphics/SVG/1.1/DTD/svg11.dtd">
<svg version="1.1" id="Calque_1" xmlns="http://www.w3.org/2000/svg" xmlns:xlink="http://www.w3.org/1999/xlink" x="0px" y="0px"
	 width="1190.551px" height="1190.551px" viewBox="0 0 1190.551 1190.551" enable-background="new 0 0 1190.551 1190.551"
	 xml:space="preserve">
<path fill="#010202" d="M407.58,836.779V676.682h-99.213v-83.124h19.569v-19.724h34.886v19.724h41.243v-19.724h28.164v19.724h41.244
	v-19.724h28.631v-18.319h17.93v-39.453h-17.93v-32.274h17.93v-39.45h-17.93v-36.986h17.93v-39.453h-17.93V325.31h17.93v-39.451
	h-17.93v-39.453h17.93v-39.448h-17.93v-42.652h17.93v-39.451h-17.93V84.506h17.93V45.055h-17.93V21.519h-28.631V0H432.23v21.519
	h-28.164V0h-41.243v21.519h-34.886V0h-41.246v21.519h-35.638V0h-41.245v21.519h-32.279V0h-41.242v21.519h-34.072V0H60.969v21.519
	H17.931v23.536H0v39.451h17.931v40.348H0v39.451h17.931v42.652H0v39.448h17.931v39.453H0v39.451h17.931v42.588H0v39.453h17.931
	v36.986H0v39.45h17.931v32.274H0v39.453h17.931v18.319h43.038v19.724h41.245v-19.724h34.072v19.724h38.006v166.249h-61.671v99.213H0
	v149.706h58.992v180.112H407.58v-164.909h-96.533v-183.68h95.869c-3.052,17.093-4.645,34.69-4.645,52.66
	c0,164.384,133.258,297.642,297.641,297.642V595.272C554.721,595.27,433.833,699.237,407.58,836.779z M177.529,593.558v-19.724
	h32.279v19.724H177.529z M251.053,593.558v-19.724h35.638v19.724H251.053z"/>
</svg>
