<?xml version="1.0" encoding="utf-8"?>
<!-- Generator: Adobe Illustrator 16.0.0, SVG Export Plug-In . SVG Version: 6.00 Build 0)  -->
<!DOCTYPE svg PUBLIC "-//W3C//DTD SVG 1.1//EN" "http://www.w3.org/Graphics/SVG/1.1/DTD/svg11.dtd">
<svg version="1.1" id="Calque_1" xmlns="http://www.w3.org/2000/svg" xmlns:xlink="http://www.w3.org/1999/xlink" x="0px" y="0px"
	 width="1190.551px" height="1190.551px" viewBox="0 0 1190.551 1190.551" enable-background="new 0 0 1190.551 1190.551"
	 xml:space="preserve">
<g>
	<path fill="#010202" d="M493.947,728.945l12.68-12.68l16.645,16.644l20.244-20.245l15.216,15.216l29.164-29.164L572.678,683.5
		l19.915-19.915l15.215,15.215l29.162-29.163l-15.215-15.216l24.668-24.668l15.215,15.216l29.166-29.164l-15.217-15.217
		l25.201-25.199l15.215,15.215l29.164-29.164l-15.215-15.215l22.824-22.826l15.217,15.216l29.162-29.163l-15.215-15.216
		l24.092-24.092l15.217,15.215l29.164-29.164l-15.215-15.216l30.432-30.433l-16.643-16.643l12.678-12.68l-27.895-27.896
		l-12.682,12.68l-28.527-28.529l12.678-12.68l-27.896-27.896l-12.678,12.679l-30.16-30.159l12.68-12.68l-27.895-27.895l-12.68,12.68
		l-27.896-27.896l12.68-12.68l-27.896-27.896l-12.68,12.679l-30.115-30.114l12.68-12.679l-27.896-27.897l-12.679,12.679
		L566.655,91.57l12.68-12.68l-27.896-27.896l-12.68,12.68l-22.821-22.822l12.68-12.68L500.719,0.275l-12.681,12.678L475.086,0
		l-30.433,30.433l-13.947-13.946L401.542,45.65l13.947,13.947l-24.092,24.092l-13.948-13.946l-29.163,29.163l13.947,13.947
		l-22.825,22.824l-13.946-13.946l-29.164,29.164l13.946,13.947l-25.199,25.199l-13.947-13.946l-29.165,29.165l13.946,13.947
		l-24.668,24.668l-13.945-13.947l-29.164,29.164l13.947,13.946l-19.915,19.915l-13.947-13.946l-29.165,29.163l13.947,13.947
		l-20.245,20.246l12.952,12.953l-12.678,12.677l27.897,27.898l12.679-12.678l22.822,22.821l-12.678,12.678l27.896,27.896
		l12.679-12.679l26.152,26.153l-12.679,12.679l27.896,27.897l12.681-12.679l30.112,30.114l-12.679,12.679l27.864,27.865
		c-7.558-7.371-16.332-13.74-26.221-18.779c-52.812-26.91-117.677-5.836-144.588,46.979
		c-26.909,52.814-5.835,117.678,46.979,144.588c13.533,6.896,27.856,10.632,42.132,11.499c-21.019,0.525-42.09,7.187-60.349,20.451
		c-47.955,34.843-58.622,102.204-23.782,150.158c34.841,47.955,102.201,58.623,150.156,23.782
		c47.954-34.841,58.623-102.201,23.781-150.156c-19.599-26.977-49.488-42.152-80.427-44.067
		c38.132-1.024,74.574-22.333,93.075-58.645c21.865-42.912,12.052-93.777-20.726-125.777l12.679-12.678l27.896,27.896
		l-12.679,12.679l27.896,27.895l12.68-12.68l30.158,30.161l-12.679,12.678l27.897,27.896l12.678-12.679l28.53,28.528l-12.68,12.68
		L493.947,728.945z"/>
	<polygon fill="#010202" points="1048.41,861.767 948.346,665.383 1057.828,609.6 1002.805,501.613 472.692,771.719 
		527.713,879.706 637.194,823.924 737.256,1020.308 846.737,964.525 961.903,1190.551 1054.094,1143.576 938.928,917.55 	"/>
</g>
</svg>
