<?xml version="1.0" encoding="utf-8"?>
<!-- Generator: Adobe Illustrator 16.0.0, SVG Export Plug-In . SVG Version: 6.00 Build 0)  -->
<!DOCTYPE svg PUBLIC "-//W3C//DTD SVG 1.1//EN" "http://www.w3.org/Graphics/SVG/1.1/DTD/svg11.dtd">
<svg version="1.1" id="Calque_1" xmlns="http://www.w3.org/2000/svg" xmlns:xlink="http://www.w3.org/1999/xlink" x="0px" y="0px"
	 width="1190.551px" height="1190.551px" viewBox="0 0 1190.551 1190.551" enable-background="new 0 0 1190.551 1190.551"
	 xml:space="preserve">
<g>
	<path fill="#010202" d="M479.359,593.558h41.243v-19.724h28.164v19.724h41.244v-19.724h28.63v-18.319h17.93v-39.453h-17.93v-32.274
		h17.93v-39.45h-17.93v-36.986h17.93v-39.453h-17.93V325.31h17.93v-39.451h-17.93v-39.453h17.93v-39.448h-17.93v-42.652h17.93
		v-39.451h-17.93V84.506h17.93V45.055h-17.93V21.519h-28.63V0h-41.244v21.519h-28.164V0h-41.243v21.519h-34.886V0h-41.246v21.519
		H367.59V0h-41.245v21.519h-32.279V0h-41.241v21.519h-34.072V0h-41.245v21.519h-43.039v23.536h-17.931v39.451h17.931v40.348h-17.931
		v39.451h17.931v42.652h-17.931v39.448h17.931v39.453h-17.931v39.451h17.931v42.588h-17.931v39.453h17.931v36.986h-17.931v39.45
		h17.931v32.274h-17.931v39.453h17.931v18.319h43.039v19.724h41.244v-19.724h34.072v19.724h41.241v-19.724h32.279v19.724h41.245
		v-19.724h35.638v19.724h30.281C290.896,615.608,181.719,738.892,181.719,887.68c0,164.383,133.258,297.643,297.64,297.643V593.558z
		 M444.473,573.834h34.886v16.208c-11.804,0-23.439,0.709-34.886,2.045V573.834z"/>
	<polygon fill="#010202" points="677.955,794.49 578.942,794.49 578.942,987.027 476.733,1190.551 1074.014,1190.551 	"/>
</g>
</svg>
