<?xml version="1.0" encoding="utf-8"?>
<!-- Generator: Adobe Illustrator 16.0.0, SVG Export Plug-In . SVG Version: 6.00 Build 0)  -->
<!DOCTYPE svg PUBLIC "-//W3C//DTD SVG 1.1//EN" "http://www.w3.org/Graphics/SVG/1.1/DTD/svg11.dtd">
<svg version="1.1" id="Calque_1" xmlns="http://www.w3.org/2000/svg" xmlns:xlink="http://www.w3.org/1999/xlink" x="0px" y="0px"
	 width="1190.551px" height="1190.551px" viewBox="0 0 1190.551 1190.551" enable-background="new 0 0 1190.551 1190.551"
	 xml:space="preserve">
<path fill="#010202" d="M257.021,1190.551h595.278c0.002-164.384-133.256-297.642-297.638-297.642
	c-50.41,0-97.882,12.55-139.493,34.668v-58.955h180.11V520.035h-46.775v-17.931h23.535v-28.631h21.52V432.23h-21.52v-28.164h21.52
	v-41.243h-21.52v-34.886h21.52v-41.246h-21.52v-35.638h21.52v-41.245h-21.52v-32.279h21.52v-41.242h-21.52v-34.072h21.52V60.969
	h-21.52V17.931h-23.535V0h-39.451v17.931h-40.349V0h-39.45v17.931h-42.652V0h-39.449v17.931h-39.452V0h-39.451v17.931H225.66V0
	h-39.453v17.931h-36.985V0h-39.451v17.931H77.496V0H38.043v17.931H19.724v43.038H0v41.245h19.724v34.072H0v41.242h19.724v32.279H0
	v41.245h19.724v35.638H0v41.246h19.724v34.886H0v41.243h19.724v28.164H0v41.244h19.724v28.631h18.319v17.931h39.453v-17.931h32.274
	v17.931H83.124v99.212H0v134.075h166.249v61.671h99.213v112.621h149.636C321.059,977.634,257.021,1076.607,257.021,1190.551z
	 M468.703,502.105h40.349v17.931h-40.349V502.105z M149.222,520.035v-17.931h36.985v17.931H149.222z M246.692,616.568v-96.532
	H225.66v-17.931h42.588v17.931h39.451v-17.931h39.452v17.931h39.449v-17.931h42.652v17.931h1.117v96.532H246.692z"/>
</svg>
