<?xml version="1.0" encoding="utf-8"?>
<!-- Generator: Adobe Illustrator 16.0.0, SVG Export Plug-In . SVG Version: 6.00 Build 0)  -->
<!DOCTYPE svg PUBLIC "-//W3C//DTD SVG 1.1//EN" "http://www.w3.org/Graphics/SVG/1.1/DTD/svg11.dtd">
<svg version="1.1" id="Calque_1" xmlns="http://www.w3.org/2000/svg" xmlns:xlink="http://www.w3.org/1999/xlink" x="0px" y="0px"
	 width="1190.551px" height="1190.551px" viewBox="0 0 1190.551 1190.551" enable-background="new 0 0 1190.551 1190.551"
	 xml:space="preserve">
<path fill="#010202" d="M349.217,463.908V341.604h122.871V121.197h122.873V0H0v121.196h122.872v220.407h122.873v253.675h-35.938
	v21.52h-32.279v-21.52h-41.242v21.52h-34.072v-21.52H60.97v21.52H17.931v23.537H0v39.449h17.931v40.349H0v39.452h17.931v42.65H0
	v39.449h17.931v39.452H0v39.452h17.931v42.587H0v39.454h17.931v36.984H0v39.451h17.931v32.276H0v39.454h17.931v18.316H60.97v19.726
	h41.244v-19.726h34.072v19.726h41.242v-19.726h32.279v19.726h41.245v-19.726h35.638v19.726h41.246v-19.726h34.886v19.726h41.243
	v-19.726h28.164v19.726h41.244v-19.726h28.631v-18.316h17.93v-39.454h-17.93v-32.276h17.93v-39.451h-17.93v-36.984h17.93v-39.454
	h-17.93v-42.587h17.93v-39.452h-17.93v-39.452h17.93v-39.449h-17.93v-42.65h17.93v-39.452h-17.93v-40.349h17.93v-39.449h-17.93
	v-23.537h-28.631v-21.52H432.23v21.52h-28.164v-21.52h-41.243v21.52h-34.886v-21.52h21.28V463.908l396.058,396.059h99.015V667.431
	l102.207-203.522H349.217z M286.691,616.798h-35.638v-21.52h35.638V616.798z"/>
</svg>
