<?xml version="1.0" encoding="utf-8"?>
<!-- Generator: Adobe Illustrator 16.0.0, SVG Export Plug-In . SVG Version: 6.00 Build 0)  -->
<!DOCTYPE svg PUBLIC "-//W3C//DTD SVG 1.1//EN" "http://www.w3.org/Graphics/SVG/1.1/DTD/svg11.dtd">
<svg version="1.1" id="Calque_1" xmlns="http://www.w3.org/2000/svg" xmlns:xlink="http://www.w3.org/1999/xlink" x="0px" y="0px"
	 width="1190.551px" height="1190.551px" viewBox="0 0 1190.551 1190.551" enable-background="new 0 0 1190.551 1190.551"
	 xml:space="preserve">
<path fill="#010202" d="M472.088,341.604V121.197h122.873V0H0v121.196h122.872v220.407h122.873v253.675h22.504v17.933h-42.588
	v-17.933h-39.453v17.933h-36.986v-17.933h-36.851C169.393,592.723,215,545.537,215,487.894c0-59.272-48.225-107.5-107.5-107.5
	c-59.274,0-107.5,48.228-107.5,107.5c0,59.276,48.226,107.5,107.5,107.5c0.759,0,1.515-0.013,2.271-0.029v17.846H77.496v-17.933
	H38.042v17.933H19.724v43.037H0v41.244h19.724v34.072H0v41.243h19.724v32.28H0v41.243h19.724v35.639H0v41.247h19.724v34.885H0
	v41.243h19.724v28.165H0v41.244h19.724v28.631h18.318v17.929h39.454v-17.929h32.274v17.929h39.451v-17.929h36.986v17.929h39.453
	v-17.929h42.588v17.929H307.7v-17.929h39.451v17.929h39.449v-17.929h42.652v17.929h39.451v-17.929h40.348v17.929h39.451v-17.929
	h23.536v-28.631h21.519v-41.244h-21.519v-28.165h21.519v-41.243h-21.519v-34.885h21.519V881.97h-21.519v-35.639h21.519v-41.243
	h-21.519v-32.28h21.519v-41.243h-21.519v-34.072h21.519v-41.244h-21.519v-43.037h-23.536v-17.933h-39.451v17.933h-40.348v-17.933
	h-11.988h-27.463v17.933h-42.652v-17.933h-37.384V487.856c0.042,59.24,48.251,107.423,107.499,107.423
	c59.275,0,107.5-48.225,107.5-107.5c0-59.272-48.225-107.5-107.5-107.5c-59.249,0-107.457,48.186-107.499,107.423V341.604H472.088z
	 M347.152,613.211H307.7v-17.933h39.451V613.211z"/>
</svg>
