<?xml version="1.0" encoding="utf-8"?>
<!-- Generator: Adobe Illustrator 16.0.0, SVG Export Plug-In . SVG Version: 6.00 Build 0)  -->
<!DOCTYPE svg PUBLIC "-//W3C//DTD SVG 1.1//EN" "http://www.w3.org/Graphics/SVG/1.1/DTD/svg11.dtd">
<svg version="1.1" id="Calque_1" xmlns="http://www.w3.org/2000/svg" xmlns:xlink="http://www.w3.org/1999/xlink" x="0px" y="0px"
	 width="1190.551px" height="1190.551px" viewBox="0 0 1190.551 1190.551" enable-background="new 0 0 1190.551 1190.551"
	 xml:space="preserve">
<g>
	<polygon fill="#010202" points="344.33,688.543 383.782,688.543 383.782,706.473 423.231,706.473 423.231,688.543 465.884,688.543 
		465.884,706.473 505.333,706.473 505.333,688.543 545.682,688.543 545.682,706.473 585.134,706.473 585.134,688.543 
		608.668,688.543 608.668,659.912 630.188,659.912 630.188,618.668 608.668,618.668 608.668,590.503 630.188,590.503 
		630.188,549.261 608.668,549.261 608.668,514.375 630.188,514.375 630.188,473.128 608.668,473.128 608.668,437.49 630.188,437.49 
		630.188,396.246 608.668,396.246 608.668,363.966 630.188,363.966 630.188,322.724 608.668,322.724 608.668,288.651 
		630.188,288.651 630.188,247.407 608.668,247.407 608.668,204.369 585.134,204.369 585.134,186.438 545.682,186.438 
		545.682,204.369 505.333,204.369 505.333,186.438 465.884,186.438 465.884,204.369 423.231,204.369 423.231,186.438 
		383.782,186.438 383.782,204.369 344.33,204.369 344.33,186.438 304.879,186.438 304.879,204.369 262.291,204.369 262.291,186.438 
		222.838,186.438 222.838,204.369 185.852,204.369 185.852,186.438 146.401,186.438 146.401,204.369 114.127,204.369 
		114.127,186.438 74.674,186.438 74.674,204.369 56.354,204.369 56.354,247.407 36.631,247.407 36.631,288.651 56.354,288.651 
		56.354,322.724 36.631,322.724 36.631,363.966 56.354,363.966 56.354,396.246 36.631,396.246 36.631,437.49 56.354,437.49 
		56.354,473.128 36.631,473.128 36.631,514.375 56.354,514.375 56.354,549.261 36.631,549.261 36.631,590.503 56.354,590.503 
		56.354,618.668 36.631,618.668 36.631,659.912 56.354,659.912 56.354,688.543 74.674,688.543 74.674,706.473 114.127,706.473 
		114.127,688.543 146.401,688.543 146.401,706.473 185.852,706.473 185.852,688.543 222.838,688.543 222.838,706.473 
		262.291,706.473 262.291,688.543 304.879,688.543 304.879,706.473 334.27,706.473 344.33,706.473 	"/>
	<path fill="#010202" d="M1153.922,806.357L757.865,410.299h-99.012v192.537L556.661,806.322
		c-54.516-61.253-133.939-99.85-222.391-99.85c-164.383,0-297.641,133.259-297.641,297.641h595.277
		c0.002-75.914-28.434-145.177-75.215-197.756H1153.922L1153.922,806.357z"/>
</g>
</svg>
