<?xml version="1.0" encoding="utf-8"?>
<!-- Generator: Adobe Illustrator 16.0.0, SVG Export Plug-In . SVG Version: 6.00 Build 0)  -->
<!DOCTYPE svg PUBLIC "-//W3C//DTD SVG 1.1//EN" "http://www.w3.org/Graphics/SVG/1.1/DTD/svg11.dtd">
<svg version="1.1" id="Calque_1" xmlns="http://www.w3.org/2000/svg" xmlns:xlink="http://www.w3.org/1999/xlink" x="0px" y="0px"
	 width="1190.551px" height="1190.551px" viewBox="0 0 1190.551 1190.551" enable-background="new 0 0 1190.551 1190.551"
	 xml:space="preserve">
<path fill="#010202" d="M433.056,593.558h40.417v-19.724h28.631v-18.319h17.93v-39.453h-17.93v-32.274h17.93v-39.45h-17.93v-36.986
	h17.93v-39.453h-17.93V325.31h17.93v-39.451h-17.93v-39.453h17.93v-39.448h-17.93v-42.652h17.93v-39.451h-17.93V84.506h17.93V45.055
	h-17.93V21.519h-28.631V0H432.23v21.519h-28.164V0h-41.243v21.519h-34.886V0h-41.246v21.519h-35.638V0h-41.245v21.519h-32.279V0
	h-41.242v21.519h-34.072V0H60.969v21.519H17.931v23.536H0v39.451h17.931v40.348H0v39.451h17.931v42.652H0v39.448h17.931v39.453H0
	v39.451h17.931v42.588H0v39.453h17.931v36.986H0v39.45h17.931v32.274H0v39.453h17.931v18.319h43.038v19.724H0v164.909h96.533
	v183.678H0v163.569h99.213v83.124h134.075v-166.249h61.671v-99.215h112.62v264.364c164.383,0.002,297.641-133.256,297.641-297.638
	C705.22,734.303,585.51,606.485,433.056,593.558z M102.214,593.558v-19.724h34.072v19.724H102.214z M177.529,593.558v-19.724h32.279
	v19.724H177.529z M251.053,593.558v-19.724h35.638v19.724H251.053z M348.588,773.669V593.558h-20.651v-19.724h34.886v19.724h41.243
	v-19.724h28.164v19.65c-8.13-0.667-16.348-1.023-24.65-1.023v181.208H348.588z"/>
</svg>
