<?xml version="1.0" encoding="utf-8"?>
<!-- Generator: Adobe Illustrator 16.0.0, SVG Export Plug-In . SVG Version: 6.00 Build 0)  -->
<!DOCTYPE svg PUBLIC "-//W3C//DTD SVG 1.1//EN" "http://www.w3.org/Graphics/SVG/1.1/DTD/svg11.dtd">
<svg version="1.1" id="Calque_1" xmlns="http://www.w3.org/2000/svg" xmlns:xlink="http://www.w3.org/1999/xlink" x="0px" y="0px"
	 width="1190.551px" height="1190.551px" viewBox="0 0 1190.551 1190.551" enable-background="new 0 0 1190.551 1190.551"
	 xml:space="preserve">
<path fill="#010202" d="M758.886,433.54v280.348h55.712v215.65H537.842v-88.431h96.532V677.538h-99.213v-83.124h1.858v-21.518
	h32.279v21.518h41.243v-21.518h34.07v21.518h41.245v-21.518h43.038v-23.535h17.931v-39.453h-17.931v-40.347h17.931v-39.45h-17.931
	v-42.654h17.931v-39.449h-17.931v-39.452h17.931v-39.452h-17.931v-42.588h17.931v-39.453h-17.931V150.08h17.931v-39.451h-17.931
	V78.353h17.931V38.899h-17.931V20.582h-43.038V0.856h-41.245v19.725h-34.07V0.856h-41.243v19.725H537.02V0.856h-41.245v19.725
	h-35.638V0.856h-41.246v19.725h-34.886V0.856h-41.243v19.725h-28.163V0.856h-41.244v19.725h-28.631v18.318h-17.93v39.453h17.93
	v32.275h-17.93v39.451h17.93v36.984h-17.93v39.453h17.93v42.588h-17.93v39.453h17.93v39.451h-17.93v39.449h17.93v42.654h-17.93
	v39.45h17.93v40.347h-17.93v39.453h17.93v23.535h28.631v21.518h41.244v-21.517h28.164v21.518h41.243v-21.518h34.886v21.518h-17.805
	v166.249h-61.671v99.213H226.794v149.706h58.993v180.112h348.587v-164.909h329.383V433.54H758.886z M460.138,594.415v-21.518h35.638
	v21.518H460.138z"/>
</svg>
