<?xml version="1.0" encoding="utf-8"?>
<!-- Generator: Adobe Illustrator 16.0.0, SVG Export Plug-In . SVG Version: 6.00 Build 0)  -->
<!DOCTYPE svg PUBLIC "-//W3C//DTD SVG 1.1//EN" "http://www.w3.org/Graphics/SVG/1.1/DTD/svg11.dtd">
<svg version="1.1" id="Calque_1" xmlns="http://www.w3.org/2000/svg" xmlns:xlink="http://www.w3.org/1999/xlink" x="0px" y="0px"
	 width="1190.551px" height="1190.551px" viewBox="0 0 1190.551 1190.551" enable-background="new 0 0 1190.551 1190.551"
	 xml:space="preserve">
<path fill="#010202" d="M472.088,714.756h122.873V593.558H473.474v-19.723h28.631v-18.319h17.93v-39.454h-17.93v-32.274h17.93
	v-39.45h-17.93V407.35h17.93v-39.453h-17.93v-42.588h17.93v-39.451h-17.93v-39.452h17.93v-39.448h-17.93v-42.652h17.93v-39.452
	h-17.93V84.506h17.93V45.055h-17.93V21.518h-28.631V0H432.23v21.518h-28.164V0h-41.243v21.518h-34.886V0h-41.246v21.518h-35.638V0
	h-41.245v21.518h-32.279V0h-41.242v21.518h-34.072V0H60.97v21.518H17.931v23.537H0v39.451h17.931v40.347H0v39.452h17.931v42.652H0
	v39.448h17.931v39.452H0v39.451h17.931v42.588H0v39.453h17.931v36.987H0v39.45h17.931v32.274H0v39.454h17.931v18.319H60.97v19.723H0
	v121.198h122.872v220.28c-5.022-0.722-10.153-1.104-15.372-1.104c-59.274,0-107.5,48.224-107.5,107.5
	c0,59.275,48.225,107.5,107.5,107.5c59.274,0,107.5-48.227,107.5-107.5c0-53.75-39.652-98.411-91.239-106.271h121.984v253.677
	h103.472v-146.1c0.042,59.239,48.25,107.423,107.499,107.423c59.273,0,107.5-48.226,107.5-107.5s-48.227-107.5-107.5-107.5
	c-59.249,0-107.457,48.184-107.499,107.423V935.161h107.499h15.372V714.756z M102.214,593.558v-19.723h34.072v19.723H102.214z
	 M177.529,593.558v-19.723h32.279v19.723H177.529z M251.053,593.558v-19.723h35.638v19.723H251.053z M327.937,593.558v-19.723
	h34.886v19.723H327.937z M404.066,593.558v-19.723h28.164v19.723H404.066z"/>
</svg>
