<?xml version="1.0" encoding="utf-8"?>
<!-- Generator: Adobe Illustrator 16.0.0, SVG Export Plug-In . SVG Version: 6.00 Build 0)  -->
<!DOCTYPE svg PUBLIC "-//W3C//DTD SVG 1.1//EN" "http://www.w3.org/Graphics/SVG/1.1/DTD/svg11.dtd">
<svg version="1.1" id="Calque_1" xmlns="http://www.w3.org/2000/svg" xmlns:xlink="http://www.w3.org/1999/xlink" x="0px" y="0px"
	 width="1190.551px" height="1190.551px" viewBox="0 0 1190.551 1190.551" enable-background="new 0 0 1190.551 1190.551"
	 xml:space="preserve">
<g>
	<path fill="#010202" d="M738.837,549.521v-39.452h-17.931v-40.347h17.931v-39.451h-17.931v-42.653h17.931v-39.449h-17.931v-39.452
		h17.931v-39.451h-17.931v-42.588h17.931v-39.453h-17.931v-36.986h17.931v-39.451h-17.931V78.513h17.931V39.059h-17.931V20.741
		h-43.039V1.017h-41.244v19.724h-34.07V1.017H561.31v19.724h-32.279V1.017h-41.245v19.724h-35.638V1.017h-41.246v19.724h-34.886
		V1.017h-41.243v19.724h-28.164V1.017h-41.244v19.724h-28.631v18.318h-17.93v39.454h17.93v32.274h-17.93v39.451h17.93v36.986h-17.93
		v39.453h17.93v42.588h-17.93v39.452h17.93v39.451h-17.93v39.449h17.93v42.653h-17.93v39.451h17.93v40.347h-17.93v39.452h17.93
		v23.536h28.631v21.518h-46.561v594.96h121.195v-122.871h220.407V943.791h253.675V840.319H560.407V717.447H340V594.575h36.017
		v-21.518h34.886v21.518h41.246v-21.518h35.638v21.518h41.245v-21.518h32.279v21.518h41.243v-21.518h34.07v21.518h41.244v-21.518
		h43.039v-23.536H738.837L738.837,549.521z M306.609,594.575v-21.518h28.164v21.518H306.609z"/>
	<polygon fill="#010202" points="575.689,817.29 768.224,817.29 971.747,919.498 971.747,322.217 720.907,573.057 575.689,718.275 	
		"/>
</g>
</svg>
