<?xml version="1.0" encoding="utf-8"?>
<!-- Generator: Adobe Illustrator 16.0.0, SVG Export Plug-In . SVG Version: 6.00 Build 0)  -->
<!DOCTYPE svg PUBLIC "-//W3C//DTD SVG 1.1//EN" "http://www.w3.org/Graphics/SVG/1.1/DTD/svg11.dtd">
<svg version="1.1" id="Calque_1" xmlns="http://www.w3.org/2000/svg" xmlns:xlink="http://www.w3.org/1999/xlink" x="0px" y="0px"
	 width="1190.551px" height="1190.551px" viewBox="0 0 1190.551 1190.551" enable-background="new 0 0 1190.551 1190.551"
	 xml:space="preserve">
<path fill="#010202" d="M593.558,359.159v3.663h-21.519v-34.886h21.519v-41.246h-21.519v-35.638h21.519v-41.245h-21.519v-32.279
	h21.519v-41.242h-21.519v-34.072h21.519V60.969h-21.519V17.931h-23.535V0h-39.452v17.931h-40.348V0h-39.45v17.931h-42.653V0h-39.449
	v17.931H307.7V0h-39.452v17.931H225.66V0h-39.453v17.931h-36.984V0h-39.451v17.931H77.496V0H38.043v17.931H19.725v43.038H0v41.245
	h19.725v34.072H0v41.242h19.725v32.279H0v41.245h19.725v35.638H0v41.246h19.725v34.886H0v41.243h19.725v28.164H0v41.244h19.725
	v28.631h18.318v17.931h39.453v-17.931h32.275v17.931h39.451v-17.931h36.984v17.931h-11.914v166.248h-61.671v99.213H0v149.706h58.993
	v180.111H407.58V950.406h390.848V359.159H593.558z M572.039,404.066h21.519v28.164h-21.519V404.066z M225.66,520.035v-17.931h42.588
	v17.931H225.66z M649.27,855.158H372.514v95.247h-61.466V766.727h96.532V603.158h-99.213v-83.123H307.7v-17.931h39.451v17.931
	h39.449v-17.931h42.653v17.931h39.45v-17.931h40.348v17.931h39.452v-17.931h23.535v-28.631h21.519v166.035h55.712V855.158z"/>
</svg>
