<?xml version="1.0" encoding="utf-8"?>
<!-- Generator: Adobe Illustrator 16.0.0, SVG Export Plug-In . SVG Version: 6.00 Build 0)  -->
<!DOCTYPE svg PUBLIC "-//W3C//DTD SVG 1.1//EN" "http://www.w3.org/Graphics/SVG/1.1/DTD/svg11.dtd">
<svg version="1.1" id="Calque_1" xmlns="http://www.w3.org/2000/svg" xmlns:xlink="http://www.w3.org/1999/xlink" x="0px" y="0px"
	 width="1190.551px" height="1190.551px" viewBox="0 0 1190.551 1190.551" enable-background="new 0 0 1190.551 1190.551"
	 xml:space="preserve">
<g>
	<polygon fill="#010202" points="548.503,520.035 548.503,502.105 572.039,502.105 572.039,473.474 593.558,473.474 593.558,432.23 
		572.039,432.23 572.039,404.066 593.558,404.066 593.558,362.823 572.039,362.823 572.039,327.937 593.558,327.937 
		593.558,286.691 572.039,286.691 572.039,251.053 593.558,251.053 593.558,209.808 572.039,209.808 572.039,177.529 
		593.558,177.529 593.558,136.286 572.039,136.286 572.039,102.214 593.558,102.214 593.558,60.97 572.039,60.97 572.039,17.931 
		548.503,17.931 548.503,0 509.052,0 509.052,17.931 468.704,17.931 468.704,0 429.253,0 429.253,17.931 386.601,17.931 386.601,0 
		347.152,0 347.152,17.931 307.7,17.931 307.7,0 268.249,0 268.249,17.931 225.661,17.931 225.661,0 186.208,0 186.208,17.931 
		149.222,17.931 149.222,0 109.771,0 109.771,17.931 77.496,17.931 77.496,0 38.042,0 38.042,17.931 19.724,17.931 19.724,60.97 
		0,60.97 0,102.214 19.724,102.214 19.724,136.286 0,136.286 0,177.529 19.724,177.529 19.724,209.808 0,209.808 0,251.053 
		19.724,251.053 19.724,286.691 0,286.691 0,327.937 19.724,327.937 19.724,362.823 0,362.823 0,404.066 19.724,404.066 
		19.724,432.23 0,432.23 0,473.474 19.724,473.474 19.724,502.105 38.042,502.105 38.042,520.035 77.496,520.035 77.496,502.105 
		109.771,502.105 109.771,520.035 149.222,520.035 149.222,502.105 186.208,502.105 186.208,520.035 225.661,520.035 
		225.661,502.105 268.249,502.105 268.249,520.035 307.7,520.035 307.7,502.105 347.152,502.105 347.152,520.035 386.601,520.035 
		386.601,502.105 429.253,502.105 429.253,520.035 468.704,520.035 468.704,502.105 509.052,502.105 509.052,520.035 
		474.081,520.035 474.081,642.906 253.675,642.906 253.675,765.78 107.5,765.78 0,765.78 0,869.252 107.5,869.252 253.675,869.252 
		253.675,992.122 474.081,992.122 474.081,1114.995 595.279,1114.995 595.279,520.035 	"/>
	<path fill="#010202" d="M0,976.752c0,59.273,48.225,107.5,107.5,107.5c59.273,0,107.5-48.226,107.5-107.5
		c0-59.275-48.227-107.5-107.5-107.5C48.225,869.252,0,917.477,0,976.752z"/>
	<path fill="#010202" d="M215,658.28c0-59.272-48.225-107.499-107.5-107.499C48.226,550.781,0,599.006,0,658.28
		c0,59.275,48.227,107.5,107.5,107.5C166.776,765.78,215,717.555,215,658.28z"/>
</g>
</svg>
