<?xml version="1.0" encoding="utf-8"?>
<!-- Generator: Adobe Illustrator 16.0.0, SVG Export Plug-In . SVG Version: 6.00 Build 0)  -->
<!DOCTYPE svg PUBLIC "-//W3C//DTD SVG 1.1//EN" "http://www.w3.org/Graphics/SVG/1.1/DTD/svg11.dtd">
<svg version="1.1" id="Calque_1" xmlns="http://www.w3.org/2000/svg" xmlns:xlink="http://www.w3.org/1999/xlink" x="0px" y="0px"
	 width="1190.551px" height="1190.551px" viewBox="0 0 1190.551 1190.551" enable-background="new 0 0 1190.551 1190.551"
	 xml:space="preserve">
<path fill="#010202" d="M947.782,673.205V77.928C786.932,77.927,655.906,205.525,650.349,365.02v-147.29h-58.992V37.619H242.769
	v164.907h96.533v183.68h-96.533v163.567h99.213v83.124h25.641v17.93h-40.348v-17.93h-39.451v17.93h-23.536v28.633h-21.519v41.242
	h21.519v28.164h-21.519v41.244h21.519v34.887h-21.519v41.244h21.519v35.639h-21.519v41.246h21.519v32.277h-21.519v41.244h21.519
	v34.07h-21.519v41.246h21.519v43.039h23.536v17.93h39.451v-17.93h40.348v17.93h39.451v-17.93h42.652v17.93h39.447v-17.93h39.453
	v17.93h39.451v-17.93h42.588v17.93h39.453v-17.93h36.985v17.93h39.449v-17.93h32.275v17.93h39.453v-17.93h18.319v-43.039h19.724
	v-41.244h-19.724v-34.072h19.724v-41.242h-19.724v-32.277h19.724v-41.246h-19.724v-35.639h19.724v-41.244h-19.724v-34.889h19.724
	v-41.244h-19.724v-28.164h19.724v-41.242h-19.724v-28.633h-18.319v-17.851C842.216,658.547,893.285,673.205,947.782,673.205z
	 M449.726,650.826h-42.652v-17.93h42.652V650.826z M758.83,632.897v17.931h-32.275v-17.931h-39.449v17.931H650.12v-17.931h-39.453
	v17.931h-42.589v-17.931h-39.451v17.931h-39.453v-17.931h-13.116V466.649h61.671v-99.213h112.528
	c-0.071,2.702-0.113,5.412-0.113,8.131c0,109.83,59.495,205.752,148.008,257.332L758.83,632.897L758.83,632.897z"/>
</svg>
