<?xml version="1.0" encoding="utf-8"?>
<!-- Generator: Adobe Illustrator 16.0.0, SVG Export Plug-In . SVG Version: 6.00 Build 0)  -->
<!DOCTYPE svg PUBLIC "-//W3C//DTD SVG 1.1//EN" "http://www.w3.org/Graphics/SVG/1.1/DTD/svg11.dtd">
<svg version="1.1" id="Calque_1" xmlns="http://www.w3.org/2000/svg" xmlns:xlink="http://www.w3.org/1999/xlink" x="0px" y="0px"
	 width="1190.551px" height="1190.551px" viewBox="0 0 1190.551 1190.551" enable-background="new 0 0 1190.551 1190.551"
	 xml:space="preserve">
<g>
	<path fill="#010202" d="M349.216,650.837V520.035h-23.907v-17.932h42.588v17.932h39.453v-17.932h36.986v17.932h39.45v-17.932
		h32.275v17.932h39.454v-17.932h18.318v-43.039h19.724v-41.244h-19.724v-34.071h19.724v-41.243h-19.724v-32.279h19.724v-41.245
		h-19.724v-35.638h19.724v-41.246h-19.724v-34.886h19.724V115.97h-19.724V87.805h19.724V46.561h-19.724V17.93h-18.318V0h-39.454
		v17.93h-32.275V0h-39.45v17.93H407.35V0h-39.453v17.93h-42.588V0h-39.451v17.93h-39.452V0h-39.448v17.93h-42.652V0h-39.452v17.93
		H84.506V0H45.055v17.93H21.518v28.631H0v41.244h21.518v28.165H0v41.242h21.518v34.886H0v41.246h21.518v35.638H0v41.245h21.518
		v32.279H0v41.243h21.518v34.071H0v41.244h21.518v43.039h23.537v17.932h39.451v-17.932h40.347v17.932h39.452v-17.932h42.652v17.932
		h38.788V773.71H122.873v220.406H0v121.197h594.961V994.116H472.089V773.71H349.216V650.837z M246.406,520.035v-17.932h39.452
		v17.932H246.406z"/>
	<polygon fill="#010202" points="349.216,650.837 472.089,773.71 745.275,1046.896 844.288,1046.896 844.288,854.36 
		946.496,650.837 	"/>
</g>
</svg>
