<?xml version="1.0" encoding="utf-8"?>
<!-- Generator: Adobe Illustrator 16.0.0, SVG Export Plug-In . SVG Version: 6.00 Build 0)  -->
<!DOCTYPE svg PUBLIC "-//W3C//DTD SVG 1.1//EN" "http://www.w3.org/Graphics/SVG/1.1/DTD/svg11.dtd">
<svg version="1.1" id="Calque_1" xmlns="http://www.w3.org/2000/svg" xmlns:xlink="http://www.w3.org/1999/xlink" x="0px" y="0px"
	 width="1190.551px" height="1190.551px" viewBox="0 0 1190.551 1190.551" enable-background="new 0 0 1190.551 1190.551"
	 xml:space="preserve">
<path fill="#010202" d="M571.856,986.92V864.048h122.871V643.642H817.6V522.444h-39.445v-17.932h18.318v-43.039h19.724v-41.244
	h-19.724v-34.071h19.724v-41.243h-19.724v-32.279h19.724v-41.245h-19.724v-35.638h19.724v-41.246h-19.724v-34.886h19.724v-41.242
	h-19.724V90.214h19.724V48.97h-19.724V20.339h-18.318V2.409H738.7v17.93h-32.275V2.409h-39.449v17.93h-36.987V2.409h-39.453v17.93
	h-42.588V2.409h-39.451v17.93h-39.452V2.409h-39.447v17.93h-42.652V2.409h-39.452v17.93h-40.348V2.409h-39.451v17.93h-23.537V48.97
	h-21.518v41.244h21.518v28.165h-21.518v41.242h21.518v34.886h-21.518v41.246h21.518v35.638h-21.518v41.245h21.518v32.279h-21.518
	v41.243h21.518v34.071h-21.518v41.244h21.518v43.039h23.537v17.932h-45.055V643.64h122.872v220.407h122.873v253.675h103.472v-31.788
	h192.535l203.521,102.208V590.86L571.856,986.92z M706.424,504.513h32.275v17.932h-32.275V504.513L706.424,504.513z
	 M629.989,504.513h36.986v17.932h-36.986V504.513z M307.145,522.444v-17.932h40.347v17.932H307.145z M386.944,522.444v-17.932
	h42.652v17.932H386.944z M469.044,522.444v-17.932h39.452v17.932H469.044z M547.948,504.513h42.588v17.932h-42.588V504.513z"/>
</svg>
