<?xml version="1.0" encoding="utf-8"?>
<!-- Generator: Adobe Illustrator 16.0.0, SVG Export Plug-In . SVG Version: 6.00 Build 0)  -->
<!DOCTYPE svg PUBLIC "-//W3C//DTD SVG 1.1//EN" "http://www.w3.org/Graphics/SVG/1.1/DTD/svg11.dtd">
<svg version="1.1" id="Calque_1" xmlns="http://www.w3.org/2000/svg" xmlns:xlink="http://www.w3.org/1999/xlink" x="0px" y="0px"
	 width="1190.551px" height="1190.551px" viewBox="0 0 1190.551 1190.551" enable-background="new 0 0 1190.551 1190.551"
	 xml:space="preserve">
<path fill="#010202" d="M572.039,613.211h-23.536v-17.933H967.16L571.102,199.22h-99.014v-78.023h122.873V0H0v121.196h122.872
	v220.407h122.873v253.675h22.504v17.933h-42.588v-17.933h-39.453v17.933h-36.986v-17.933h-39.451v17.933H77.496v-17.933H38.042
	v17.933H19.724v43.037H0v41.244h19.724v34.072H0v41.243h19.724v32.28H0v41.243h19.724v35.639H0v41.247h19.724v34.885H0v41.243
	h19.724v28.165H0v41.244h19.724v28.631h18.318v17.929h39.454v-17.929h32.274v17.929h39.451v-17.929h36.986v17.929h39.453v-17.929
	h42.588v17.929H307.7v-17.929h39.451v17.929h39.449v-17.929h42.652v17.929h39.451v-17.929h40.348v17.929h39.451v-17.929h23.536
	v-28.631h21.519v-41.244h-21.519v-28.165h21.519v-41.243h-21.519v-34.885h21.519V881.97h-21.519v-35.639h21.519v-41.243h-21.519
	v-32.28h21.519v-41.243h-21.519v-34.072h21.519v-41.244h-21.519V613.211z M347.152,613.211H307.7v-17.933h39.451V613.211z
	 M349.217,595.279V341.604h122.871v50.152L369.88,595.279H349.217z M429.253,613.211h-42.652v-17.933h42.652V613.211z
	 M509.052,613.211h-40.348v-17.933h40.348V613.211z"/>
</svg>
