<?xml version="1.0" encoding="utf-8"?>
<!-- Generator: Adobe Illustrator 16.0.0, SVG Export Plug-In . SVG Version: 6.00 Build 0)  -->
<!DOCTYPE svg PUBLIC "-//W3C//DTD SVG 1.1//EN" "http://www.w3.org/Graphics/SVG/1.1/DTD/svg11.dtd">
<svg version="1.1" id="Calque_1" xmlns="http://www.w3.org/2000/svg" xmlns:xlink="http://www.w3.org/1999/xlink" x="0px" y="0px"
	 width="1190.551px" height="1190.551px" viewBox="0 0 1190.551 1190.551" enable-background="new 0 0 1190.551 1190.551"
	 xml:space="preserve">
<path fill="#010202" d="M1012.022,652.9v-95.247H734.044v-17.931h18.317v-43.038h19.726v-41.245h-19.726v-34.071h19.726v-41.243
	h-19.726v-32.279h19.726v-41.245h-19.726v-35.638h19.726v-41.246h-19.726v-34.886h19.726v-41.243h-19.726v-28.164h19.726V84.18
	h-19.726V55.549h-18.317v-17.93h-39.453v17.93h-32.276v-17.93h-39.449v17.93h-36.984v-17.93h-39.453v17.93h-42.589v-17.93h-39.452
	v17.93h-39.452v-17.93h-39.447v17.93h-42.653v-17.93h-39.451v17.93h-40.348v-17.93h-39.452v17.93h-23.536V84.18H178.53v41.244
	h21.518v28.164H178.53v41.243h21.518v34.886H178.53v41.246h21.518v35.638H178.53v41.245h21.518v32.279H178.53v41.243h21.518v34.071
	H178.53v41.245h21.518v43.038h23.536v17.932H178.53v164.907h96.532V906.24H178.53v163.568h99.213v83.123h134.074V986.685h61.671
	v-99.214H586.11v261.43h204.868V868.552h-55.712V652.9H1012.022z M694.591,539.723v17.931h-32.276v-17.931H694.591z
	 M263.035,557.654v-17.932h40.347v17.932H263.035z M342.833,557.654v-17.932h42.653v17.932H342.833z M424.935,557.654v-17.932
	h39.452v17.932H424.935z M586.11,737.766h-58.993v-180.11h-23.277v-17.932h42.588v17.932h39.453v-17.932h36.984v17.931H586.11
	V737.766z"/>
</svg>
