<?xml version="1.0" encoding="utf-8"?>
<!-- Generator: Adobe Illustrator 16.0.0, SVG Export Plug-In . SVG Version: 6.00 Build 0)  -->
<!DOCTYPE svg PUBLIC "-//W3C//DTD SVG 1.1//EN" "http://www.w3.org/Graphics/SVG/1.1/DTD/svg11.dtd">
<svg version="1.1" id="Calque_1" xmlns="http://www.w3.org/2000/svg" xmlns:xlink="http://www.w3.org/1999/xlink" x="0px" y="0px"
	 width="1190.551px" height="1190.551px" viewBox="0 0 1190.551 1190.551" enable-background="new 0 0 1190.551 1190.551"
	 xml:space="preserve">
<path fill="#010202" d="M677.384,557.813v-17.932h18.318v-43.039h19.724v-41.244h-19.724v-34.071h19.724v-41.243h-19.724v-32.279
	h19.724V306.76h-19.724v-35.638h19.724v-41.246h-19.724V194.99h19.724v-41.242h-19.724v-28.165h19.724V84.339h-19.724V55.708
	h-18.318v-17.93H637.93v17.93h-32.275v-17.93h-39.449v17.93h-36.987v-17.93h-39.453v17.93h-42.588v-17.93h-39.451v17.93h-39.452
	v-17.93h-39.447v17.93h-42.652v-17.93h-39.452v17.93h-40.348v-17.93h-39.451v17.93h-23.537v28.631h-21.518v41.244h21.518v28.165
	h-21.518v41.242h21.518v34.886h-21.518v41.246h21.518v35.638h-21.518v41.245h21.518v32.279h-21.518v41.243h21.518v34.071h-21.518
	v41.244h21.518v43.039h23.537v17.932h-45.055v594.96h121.195v-122.871h220.407V907.029h253.675V803.559H463.472V680.686H243.065
	V557.813h-36.689v-17.932h40.347v17.932h39.452v-17.932h42.652v17.932h39.447v-17.932h39.452v17.932h39.451v-17.932h42.588v17.932
	h-18.361l245.743,245.746l150.314,150.312h99.014V761.336l102.208-203.522L677.384,557.813L677.384,557.813z M529.218,557.813
	v-17.932h36.986v17.932H529.218z M605.654,557.813v-17.932h32.275v17.932H605.654z"/>
</svg>
