<?xml version="1.0" encoding="utf-8"?>
<!-- Generator: Adobe Illustrator 16.0.0, SVG Export Plug-In . SVG Version: 6.00 Build 0)  -->
<!DOCTYPE svg PUBLIC "-//W3C//DTD SVG 1.1//EN" "http://www.w3.org/Graphics/SVG/1.1/DTD/svg11.dtd">
<svg version="1.1" id="Calque_1" xmlns="http://www.w3.org/2000/svg" xmlns:xlink="http://www.w3.org/1999/xlink" x="0px" y="0px"
	 width="1190.551px" height="1190.551px" viewBox="0 0 1190.551 1190.551" enable-background="new 0 0 1190.551 1190.551"
	 xml:space="preserve">
<path fill="#010202" d="M789.619,396.778v3.663H768.1v-34.886h21.52v-41.246H768.1v-35.638h21.52v-41.245H768.1v-32.279h21.52
	v-41.242H768.1v-34.072h21.52V98.588H768.1V55.55h-23.534V37.619h-39.452V55.55h-40.349V37.619h-39.449V55.55h-42.653V37.619
	h-39.449V55.55h-39.451V37.619H464.31V55.55h-42.588V37.619h-39.453V55.55h-36.984V37.619h-39.451V55.55h-32.275V37.619h-39.453
	V55.55h-18.318v43.038h-19.725v41.245h19.725v34.072h-19.725v41.242h19.725v32.279h-19.725v41.245h19.725v35.638h-19.725v41.246
	h19.725v34.886h-19.725v41.243h19.725v28.164h-19.725v41.244h19.725v28.631h18.318v17.931h39.453v-17.931h32.274v17.931h39.451
	v-17.931h36.984v17.931h-11.914v166.248h-61.671v99.213H196.062v149.706h58.993v180.11h348.587V988.025H994.49V396.778H789.619z
	 M768.1,441.685h21.52v28.164H768.1V441.685z M421.722,557.654v-17.931h42.588v17.931H421.722z M845.331,892.777H568.575v95.247
	H507.11V804.346h96.532V640.777h-99.213v-83.123h-0.667v-17.931h39.45v17.931h39.449v-17.931h42.653v17.931h39.449v-17.931h40.349
	v17.931h39.452v-17.931h23.534v-28.631h21.52v166.035h55.712L845.331,892.777L845.331,892.777z"/>
</svg>
