<?xml version="1.0" encoding="utf-8"?>
<!-- Generator: Adobe Illustrator 16.0.0, SVG Export Plug-In . SVG Version: 6.00 Build 0)  -->
<!DOCTYPE svg PUBLIC "-//W3C//DTD SVG 1.1//EN" "http://www.w3.org/Graphics/SVG/1.1/DTD/svg11.dtd">
<svg version="1.1" id="Calque_1" xmlns="http://www.w3.org/2000/svg" xmlns:xlink="http://www.w3.org/1999/xlink" x="0px" y="0px"
	 width="1190.551px" height="1190.551px" viewBox="0 0 1190.551 1190.551" enable-background="new 0 0 1190.551 1190.551"
	 xml:space="preserve">
<path fill="#010202" d="M1088.874,1190.551L692.817,794.49h-99.013v192.536l-62.874,125.197V520.035h39.449v-17.931h40.35v17.931
	h39.451v-17.931h23.534v-28.631h21.521V432.23h-21.521v-28.164h21.521v-41.242h-21.521v-34.887h21.521v-41.246h-21.521v-35.638
	h21.521v-41.245h-21.521v-32.279h21.521v-41.242h-21.521v-34.072h21.521V60.97h-21.521V17.931H650.18V0h-39.451v17.931h-40.35V0
	H530.93v17.931h-42.652V0h-39.449v17.931h-39.451V0h-39.451v17.931h-42.589V0h-39.453v17.931h-36.985V0h-39.451v17.931h-32.274V0
	H139.72v17.931h-18.319V60.97h-19.724v41.244h19.724v34.072h-19.724v41.242h19.724v32.279h-19.724v41.245h19.724v35.638h-19.724
	v41.246h19.724v34.887h-19.724v41.242h19.724v28.164h-19.724v41.244h19.724v28.631h18.319v17.931h39.453v-17.931h32.273v17.931
	h39.451v-17.931h36.985v17.931h39.453v-17.931h42.588v17.931h39.45v-17.931h39.452v17.931h39.205
	C343.979,540.83,233.287,664.771,233.287,814.584c0,164.382,133.259,297.643,297.64,297.643l-39.333,78.324H1088.874z
	 M488.278,502.105h42.652v14.842c-14.484,0-28.721,1.055-42.652,3.055V502.105z"/>
</svg>
