<?xml version="1.0" encoding="utf-8"?>
<!-- Generator: Adobe Illustrator 16.0.0, SVG Export Plug-In . SVG Version: 6.00 Build 0)  -->
<!DOCTYPE svg PUBLIC "-//W3C//DTD SVG 1.1//EN" "http://www.w3.org/Graphics/SVG/1.1/DTD/svg11.dtd">
<svg version="1.1" id="Calque_1" xmlns="http://www.w3.org/2000/svg" xmlns:xlink="http://www.w3.org/1999/xlink" x="0px" y="0px"
	 width="1190.551px" height="1190.551px" viewBox="0 0 1190.551 1190.551" enable-background="new 0 0 1190.551 1190.551"
	 xml:space="preserve">
<path fill="#010202" d="M830.932,816.323v55.712h-215.65V595.279h-20.003V0H0v595.278h60.97v21.52H17.932v23.534H0v39.452h17.932
	v40.349H0v39.449h17.932v42.653H0v39.449h17.932v39.452H0v39.453h17.932v42.588H0v39.453h17.932v36.982H0v39.451h17.932v32.277H0
	v39.453h17.932v18.316H60.97v19.727h41.244v-19.727h34.072v19.727h41.242v-19.727h32.28v19.727h41.244v-19.727h35.638v19.727h41.246
	v-19.727h34.886v19.727h41.243v-19.727h28.164v19.727h41.245v-19.727h28.63v-18.316h17.93v-39.453h-17.93v-32.277h17.93v-39.451
	h-17.93v-36.982h17.93v18.562h591.245v-204.87H830.932z M136.286,616.798h-34.072v-21.52h34.072V616.798z M209.809,616.798h-32.28
	v-21.52h32.28V616.798z M362.823,616.798h-34.886v-21.52h-41.246v21.52h-35.638v-21.52h12.585V181h68v414.278h31.185V616.798z
	 M432.23,616.798h-28.164v-21.52h28.164V616.798z M520.034,963.178h-17.93V920.59h17.93V963.178z M520.034,881.137h-17.93v-39.452
	h17.93V881.137z M520.034,802.236h-17.93v-42.653h17.93V802.236z M520.034,720.133h-17.93v-40.349h17.93V720.133z M520.034,640.332
	h-17.93v-23.534h-28.63v-21.52h46.56V640.332z"/>
</svg>
