<?xml version="1.0" encoding="utf-8"?>
<!-- Generator: Adobe Illustrator 16.0.0, SVG Export Plug-In . SVG Version: 6.00 Build 0)  -->
<!DOCTYPE svg PUBLIC "-//W3C//DTD SVG 1.1//EN" "http://www.w3.org/Graphics/SVG/1.1/DTD/svg11.dtd">
<svg version="1.1" id="Calque_1" xmlns="http://www.w3.org/2000/svg" xmlns:xlink="http://www.w3.org/1999/xlink" x="0px" y="0px"
	 width="1190.551px" height="1190.551px" viewBox="0 0 1190.551 1190.551" enable-background="new 0 0 1190.551 1190.551"
	 xml:space="preserve">
<path fill="#010202" d="M1090.083,536.664H897.547L694.026,434.455v20.984h-19.724v-34.071h19.724v-41.243h-19.724v-32.279h19.724
	v-41.245h-19.724v-35.638h19.724v-41.246h-19.724v-34.886h19.724v-41.242h-19.724v-28.165h19.724V84.18h-19.724V55.549h-18.318
	v-17.93H616.53v17.93h-32.275v-17.93h-39.449v17.93h-36.987v-17.93h-39.453v17.93h-42.588v-17.93h-39.451v17.93h-39.452v-17.93
	h-39.447v17.93h-42.652v-17.93h-39.452v17.93h-40.348v-17.93h-39.451v17.93h-23.537V84.18h-21.518v41.244h21.518v28.165h-21.518
	v41.242h21.518v34.886h-21.518v41.246h21.518v35.638h-21.518v41.245h21.518v32.279h-21.518v41.243h21.518v34.071h-21.518v41.244
	h21.518v43.039h23.537v17.932h39.451v-17.932h40.347v17.932h39.452v-17.932h42.652v17.932h38.788v253.675H223.341v220.406H100.468
	v121.196h594.961v-121.196h-1.403H572.557V811.329H449.684V557.654h-23.907v-17.932h42.588v17.932h39.453v-17.932h36.986v17.932
	h39.449v-17.932h32.275v17.932h39.454v-17.932H674.3v-43.039h19.725v535.052l396.059-396.06V536.664L1090.083,536.664z
	 M346.873,557.654v-17.932h39.452v17.932H346.873z"/>
</svg>
