<?xml version="1.0" encoding="utf-8"?>
<!-- Generator: Adobe Illustrator 16.0.0, SVG Export Plug-In . SVG Version: 6.00 Build 0)  -->
<!DOCTYPE svg PUBLIC "-//W3C//DTD SVG 1.1//EN" "http://www.w3.org/Graphics/SVG/1.1/DTD/svg11.dtd">
<svg version="1.1" id="Calque_1" xmlns="http://www.w3.org/2000/svg" xmlns:xlink="http://www.w3.org/1999/xlink" x="0px" y="0px"
	 width="1190.551px" height="1190.551px" viewBox="0 0 1190.551 1190.551" enable-background="new 0 0 1190.551 1190.551"
	 xml:space="preserve">
<g>
	<polygon fill="#010202" points="180.967,573.834 224.006,573.834 224.006,593.559 265.25,593.559 265.25,573.834 299.322,573.834 
		299.322,593.559 340.564,593.559 340.564,573.834 372.844,573.834 372.844,593.559 414.089,593.559 414.089,573.834 
		449.726,573.834 449.726,593.559 490.972,593.559 490.972,573.834 525.858,573.834 525.858,593.559 567.101,593.559 
		567.101,573.834 595.265,573.834 595.265,593.559 636.51,593.559 636.51,573.834 665.141,573.834 665.141,555.516 683.069,555.516 
		683.069,516.062 665.141,516.062 665.141,483.788 683.069,483.788 683.069,444.337 665.141,444.337 665.141,407.352 
		683.069,407.352 683.069,367.898 665.141,367.898 665.141,325.311 683.069,325.311 683.069,285.859 665.141,285.859 
		665.141,246.407 683.069,246.407 683.069,206.958 665.141,206.958 665.141,164.306 683.069,164.306 683.069,124.854 
		665.141,124.854 665.141,84.506 683.069,84.506 683.069,45.056 665.141,45.056 665.141,21.52 636.51,21.52 636.51,0 595.265,0 
		595.265,21.52 567.101,21.52 567.101,0 525.858,0 525.858,21.52 490.972,21.52 490.972,0 449.726,0 449.726,21.52 414.089,21.52 
		414.089,0 372.844,0 372.844,21.52 340.564,21.52 340.564,0 299.322,0 299.322,21.52 265.25,21.52 265.25,0 224.006,0 
		224.006,21.52 180.967,21.52 180.967,45.056 163.036,45.056 163.036,84.506 180.967,84.506 180.967,124.854 163.036,124.854 
		163.036,164.306 180.967,164.306 180.967,206.958 163.036,206.958 163.036,246.407 180.967,246.407 180.967,285.859 
		163.036,285.859 163.036,325.311 180.967,325.311 180.967,367.898 163.036,367.898 163.036,407.352 180.967,407.352 
		180.967,444.337 163.036,444.337 163.036,483.788 180.967,483.788 180.967,516.062 163.036,516.062 163.036,555.516 
		180.967,555.516 	"/>
	<path fill="#010202" d="M432.237,892.908l126.857-126.857v-99.012H366.558L163.036,564.831v597.279L432.237,892.908
		c-0.003,164.385,133.255,297.643,297.636,297.643c164.385,0,297.643-133.258,297.643-297.643H432.237L432.237,892.908z"/>
</g>
</svg>
