<?xml version="1.0" encoding="utf-8"?>
<!-- Generator: Adobe Illustrator 16.0.0, SVG Export Plug-In . SVG Version: 6.00 Build 0)  -->
<!DOCTYPE svg PUBLIC "-//W3C//DTD SVG 1.1//EN" "http://www.w3.org/Graphics/SVG/1.1/DTD/svg11.dtd">
<svg version="1.1" id="Calque_1" xmlns="http://www.w3.org/2000/svg" xmlns:xlink="http://www.w3.org/1999/xlink" x="0px" y="0px"
	 width="1190.551px" height="1190.551px" viewBox="0 0 1190.551 1190.551" enable-background="new 0 0 1190.551 1190.551"
	 xml:space="preserve">
<g>
	<path fill="#010202" d="M520.034,548.504v-39.452h-17.931v-40.347h17.931v-39.451h-17.931v-42.653h17.931v-39.449h-17.931V307.7
		h17.931v-39.451h-17.931v-42.588h17.931v-39.453h-17.931v-36.986h17.931v-39.451h-17.931V77.496h17.931V38.042h-17.931V19.724
		h-43.039V0h-41.244v19.724h-34.071V0h-41.243v19.724h-32.279V0h-41.245v19.724h-35.638V0h-41.246v19.724h-34.886V0h-41.243v19.724
		H87.805V0H46.561v19.724H17.93v18.318H0v39.454h17.93v32.274H0v39.451h17.93v36.986H0v39.453h17.93v42.588H0V307.7h17.93v39.451H0
		v39.449h17.93v42.653H0v39.451h17.93v40.347H0v39.452h17.93v23.536h28.631v21.518H0v594.961h121.196v-122.872h220.407V942.774
		h253.675V839.303H341.604V716.431H121.197V593.558h36.016V572.04h34.886v21.518h41.246V572.04h35.638v21.518h41.245V572.04h32.279
		v21.518h41.243V572.04h34.071v21.518h41.244V572.04h43.039v-23.536H520.034z M87.805,593.558V572.04h28.164v21.518H87.805z"/>
	<polygon fill="#010202" points="356.885,816.273 549.42,816.273 752.944,918.481 752.944,321.2 502.104,572.04 356.885,717.259 	
		"/>
</g>
</svg>
