<?xml version="1.0" encoding="utf-8"?>
<!-- Generator: Adobe Illustrator 16.0.0, SVG Export Plug-In . SVG Version: 6.00 Build 0)  -->
<!DOCTYPE svg PUBLIC "-//W3C//DTD SVG 1.1//EN" "http://www.w3.org/Graphics/SVG/1.1/DTD/svg11.dtd">
<svg version="1.1" id="Calque_1" xmlns="http://www.w3.org/2000/svg" xmlns:xlink="http://www.w3.org/1999/xlink" x="0px" y="0px"
	 width="1190.551px" height="1190.551px" viewBox="0 0 1190.551 1190.551" enable-background="new 0 0 1190.551 1190.551"
	 xml:space="preserve">
<g>
	<polygon fill="#010202" points="567.017,599.616 374.481,599.616 216.014,520.035 255.465,520.035 255.465,502.104 
		295.811,502.104 295.811,520.035 335.263,520.035 335.263,502.104 377.916,502.104 377.916,520.035 417.364,520.035 
		417.364,502.104 456.816,502.104 456.816,520.035 496.267,520.035 496.267,502.104 538.855,502.104 538.855,520.035 
		578.308,520.035 578.308,502.104 615.295,502.104 615.295,520.035 654.744,520.035 654.744,502.104 687.02,502.104 687.02,520.035 
		726.475,520.035 726.475,502.104 744.793,502.104 744.793,459.065 764.516,459.065 764.516,417.821 744.793,417.821 
		744.793,383.749 764.516,383.749 764.516,342.506 744.793,342.506 744.793,310.227 764.516,310.227 764.516,268.982 
		744.793,268.982 744.793,233.344 764.516,233.344 764.516,192.098 744.793,192.098 744.793,157.212 764.516,157.212 
		764.516,115.97 744.793,115.97 744.793,87.805 764.516,87.805 764.516,46.561 744.793,46.561 744.793,17.93 726.475,17.93 
		726.475,0 687.02,0 687.02,17.93 654.744,17.93 654.744,0 615.295,0 615.295,17.93 578.308,17.93 578.308,0 538.855,0 
		538.855,17.93 496.267,17.93 496.267,0 456.816,0 456.816,17.93 417.364,17.93 417.364,0 377.916,0 377.916,17.93 335.263,17.93 
		335.263,0 295.811,0 295.811,17.93 255.465,17.93 255.465,0 216.013,0 216.013,17.93 192.476,17.93 192.476,46.561 170.959,46.561 
		170.959,87.805 192.476,87.805 192.476,115.97 170.959,115.97 170.959,157.212 192.476,157.212 192.476,192.098 170.959,192.098 
		170.959,233.344 192.476,233.344 192.476,268.982 170.959,268.982 170.959,310.227 192.476,310.227 192.476,342.506 
		170.959,342.506 170.959,383.749 192.476,383.749 192.476,417.821 170.959,417.821 170.959,459.065 192.476,459.065 
		192.476,502.104 216.013,502.104 216.013,520.034 170.959,497.408 170.959,1094.689 567.017,698.63 	"/>
	<polygon fill="#010202" points="898.397,595.59 898.397,718.462 677.989,718.462 677.989,841.335 424.314,841.335 424.314,944.805 
		677.989,944.805 677.989,1067.677 898.397,1067.677 898.397,1190.551 1019.592,1190.551 1019.592,595.59 	"/>
</g>
</svg>
