<?xml version="1.0" encoding="utf-8"?>
<!-- Generator: Adobe Illustrator 16.0.0, SVG Export Plug-In . SVG Version: 6.00 Build 0)  -->
<!DOCTYPE svg PUBLIC "-//W3C//DTD SVG 1.1//EN" "http://www.w3.org/Graphics/SVG/1.1/DTD/svg11.dtd">
<svg version="1.1" id="Calque_1" xmlns="http://www.w3.org/2000/svg" xmlns:xlink="http://www.w3.org/1999/xlink" x="0px" y="0px"
	 width="1190.551px" height="1190.551px" viewBox="0 0 1190.551 1190.551" enable-background="new 0 0 1190.551 1190.551"
	 xml:space="preserve">
<path fill="#010202" d="M520.112,348.588h75.167V0H430.37v96.532H246.692V0H83.124v99.213H0v134.075h166.249v61.671h99.213V407.58
	h21.229v21.519h-35.638V407.58h-41.245v21.519h-32.279V407.58h-41.242v21.519h-34.072V407.58H60.969v21.519H17.931v23.537H0v39.451
	h17.931v40.347H0v39.452h17.931v42.65H0v39.449h17.931v39.453H0v39.451h17.931v42.588H0v39.453h17.931v36.984H0v39.451h17.931
	v32.275H0v39.453h17.931v18.318h43.038v19.725h41.245v-19.725h34.072v19.725h41.242v-19.725h32.279v19.725h41.245v-19.725h35.638
	v19.725h41.246v-19.725h34.886v19.725h41.243v-19.725h28.164v19.725h41.244v-19.725h28.631v-18.318h17.93v-19.229
	c164.382,0.002,297.642-133.256,297.642-297.638C817.676,481.872,684.458,348.63,520.112,348.588z M362.823,429.099h-34.886V407.58
	h34.886V429.099z M520.034,923.642h-17.93v-32.275h17.93V923.642z M520.034,851.915h-17.93v-36.984h17.93V851.915z M520.034,775.478
	h-17.93V732.89h17.93V775.478z M520.034,693.439h-17.93v-39.453h17.93V693.439z M520.034,614.536h-17.93v-42.65h17.93V614.536z
	 M520.034,532.434h-17.93v-40.347h17.93V532.434z M502.105,452.636v-23.537h-28.631V407.58H432.23v21.519h-28.164V407.58h11.103
	v-58.992h104.866v104.048H502.105z"/>
</svg>
