<?xml version="1.0" encoding="utf-8"?>
<!-- Generator: Adobe Illustrator 16.0.0, SVG Export Plug-In . SVG Version: 6.00 Build 0)  -->
<!DOCTYPE svg PUBLIC "-//W3C//DTD SVG 1.1//EN" "http://www.w3.org/Graphics/SVG/1.1/DTD/svg11.dtd">
<svg version="1.1" id="Calque_1" xmlns="http://www.w3.org/2000/svg" xmlns:xlink="http://www.w3.org/1999/xlink" x="0px" y="0px"
	 width="1190.551px" height="1190.551px" viewBox="0 0 1190.551 1190.551" enable-background="new 0 0 1190.551 1190.551"
	 xml:space="preserve">
<path fill="#010202" d="M1000.09,411.191V231.08H651.502v-36.348h-17.93v-23.536h-28.631v-21.519h-41.244v21.519h-28.164v-21.519
	h-41.243v21.519h-34.886v-21.519h-41.246v21.519h-35.638v-21.519h-41.245v21.519h-32.279v-21.519h-41.241v21.519h-34.072v-21.519
	h-41.246v21.519h-43.038v23.536h-17.931v39.451h17.931v40.348h-17.931v39.451h17.931v42.652h-17.931v39.448h17.931v39.453h-17.931
	v39.451h17.931v42.588h-17.931v39.453h17.931v36.986h-17.931v39.45h17.931v32.274h-17.931v39.453h17.931v18.319h43.038v19.724
	h-60.968c-0.002,164.382,133.256,297.64,297.639,297.64c164.382,0,297.64-133.258,297.64-297.64h23.969v83.124h134.074V660.11h61.67
	v-99.213h112.621V411.191H1000.09z M633.573,234.183h17.93v40.348h-17.93V234.183L633.573,234.183z M633.573,313.982h17.93v42.652
	h-17.93V313.982L633.573,313.982z M633.573,633.465h17.93v32.273h-17.93V633.465L633.573,633.465z M233.682,743.235v-19.724h34.072
	v19.724H233.682z M308.997,743.235v-19.724h32.279v19.724H308.997z M382.521,743.235v-19.724h35.638v19.724H382.521z
	 M459.405,743.235v-19.724h34.886v19.724H459.405z M535.534,743.235v-19.724h28.164v19.724H535.534z M604.942,743.235v-19.724
	h28.631v-18.319h17.93v38.043H604.942z M748.035,579.667h-96.533v14.348h-17.93v-36.986h17.93v-39.453h-17.93v-42.589h17.93v-39.451
	h-17.93v-39.453h17.93v-0.095h96.533V579.667z"/>
</svg>
