<?xml version="1.0" encoding="utf-8"?>
<!-- Generator: Adobe Illustrator 16.0.0, SVG Export Plug-In . SVG Version: 6.00 Build 0)  -->
<!DOCTYPE svg PUBLIC "-//W3C//DTD SVG 1.1//EN" "http://www.w3.org/Graphics/SVG/1.1/DTD/svg11.dtd">
<svg version="1.1" id="Calque_1" xmlns="http://www.w3.org/2000/svg" xmlns:xlink="http://www.w3.org/1999/xlink" x="0px" y="0px"
	 width="1190.551px" height="1190.551px" viewBox="0 0 1190.551 1190.551" enable-background="new 0 0 1190.551 1190.551"
	 xml:space="preserve">
<path fill="#010202" d="M868.623,261.514V81.403H520.034V45.055h-17.93V21.519h-28.631V0H432.23v21.519h-28.164V0h-41.243v21.519
	h-34.886V0h-41.246v21.519h-35.638V0h-41.245v21.519h-32.279V0h-41.242v21.519h-34.072V0H60.969v21.519H17.931v23.536H0v39.451
	h17.931v40.348H0v39.451h17.931v42.652H0v39.448h17.931v39.453H0v39.451h17.931v42.588H0v39.453h17.931v36.986H0v39.45h17.931
	v32.274H0v39.453h17.931v18.319h43.038v19.724H0.001c-0.002,164.382,133.256,297.64,297.639,297.64
	c164.382,0,297.64-133.258,297.64-297.64h23.968v83.124h134.075V510.433h61.671V411.22h112.621V261.514H868.623z M502.105,84.506
	h17.93v40.348h-17.93V84.506z M502.105,164.305h17.93v42.652h-17.93V164.305z M502.105,483.787h17.93v32.274h-17.93V483.787z
	 M102.214,593.558v-19.724h34.072v19.724H102.214z M177.529,593.558v-19.724h32.279v19.724H177.529z M251.053,593.558v-19.724
	h35.638v19.724H251.053z M327.937,593.558v-19.724h34.886v19.724H327.937z M404.066,593.558v-19.724h28.164v19.724H404.066z
	 M473.474,593.558v-19.724h28.631v-18.319h17.93v38.043H473.474z M616.568,429.99h-96.533v14.348h-17.93v-36.986h17.93v-39.453
	h-17.93V325.31h17.93v-39.451h-17.93v-39.453h17.93v-0.095h96.533V429.99z"/>
</svg>
