<?xml version="1.0" encoding="utf-8"?>
<!-- Generator: Adobe Illustrator 16.0.0, SVG Export Plug-In . SVG Version: 6.00 Build 0)  -->
<!DOCTYPE svg PUBLIC "-//W3C//DTD SVG 1.1//EN" "http://www.w3.org/Graphics/SVG/1.1/DTD/svg11.dtd">
<svg version="1.1" id="Calque_1" xmlns="http://www.w3.org/2000/svg" xmlns:xlink="http://www.w3.org/1999/xlink" x="0px" y="0px"
	 width="1190.551px" height="1190.551px" viewBox="0 0 1190.551 1190.551" enable-background="new 0 0 1190.551 1190.551"
	 xml:space="preserve">
<path fill="#010202" d="M907.328,853.941v55.713H691.68V632.897h-93.526V37.619H334.516v414.278h-68V37.619H2.875v595.278h45.054
	v17.93H24.393v28.633H2.875v41.244h21.518v28.162H2.875v41.244h21.518v34.887H2.875v41.244h21.518v35.639H2.875v41.246h21.518
	v32.277H2.875v41.244h21.518v34.07H2.875v41.244h21.518V1135h23.536v17.932h39.452V1135h40.347v17.932h39.451V1135h42.653v17.932
	h39.447V1135h39.452v17.932h39.452V1135h42.588v17.932h39.453V1135h36.982v17.932h39.451V1135h32.276v17.932h39.453V1135h18.316
	v-43.039h19.727v-33.15h591.245V853.941H907.328L907.328,853.941z M127.728,650.826H87.381v-17.93h40.347V650.826z M209.832,650.826
	h-42.653v-17.93h42.653V650.826z M288.733,650.826h-39.452v-17.93h39.452V650.826z M370.773,650.826h-42.588v-17.93h42.588V650.826z
	 M447.209,650.826h-36.983v-17.93h36.983V650.826z M518.937,650.826H486.66v-17.93h32.276V650.826z M596.433,1050.719h-19.727
	v-34.072h19.727V1050.719z M596.433,975.402h-19.727v-32.277h19.727V975.402z M596.433,901.879h-19.727V866.24h19.727V901.879z
	 M596.433,824.996h-19.727v-34.887h19.727V824.996z M596.433,748.865h-19.727v-28.162h19.727V748.865z M596.433,679.459h-19.727
	v-28.633H558.39v-17.93h38.043V679.459z"/>
</svg>
