<?xml version="1.0" encoding="utf-8"?>
<!-- Generator: Adobe Illustrator 16.0.0, SVG Export Plug-In . SVG Version: 6.00 Build 0)  -->
<!DOCTYPE svg PUBLIC "-//W3C//DTD SVG 1.1//EN" "http://www.w3.org/Graphics/SVG/1.1/DTD/svg11.dtd">
<svg version="1.1" id="Calque_1" xmlns="http://www.w3.org/2000/svg" xmlns:xlink="http://www.w3.org/1999/xlink" x="0px" y="0px"
	 width="1190.551px" height="1190.551px" viewBox="0 0 1190.551 1190.551" enable-background="new 0 0 1190.551 1190.551"
	 xml:space="preserve">
<path fill="#010202" d="M557.222,330.674V180.968H498.23V0.857H149.642v164.907h96.533v183.68h-96.533v163.567h99.213v83.124h16.756
	v19.727h-28.164v-19.727h-41.244v19.727h-28.631v18.316h-17.93v39.453h17.93v32.275h-17.93v39.451h17.93v36.984h-17.93v39.453h17.93
	v42.588h-17.93v39.451h17.93v39.453h-17.93v39.449h17.93v42.65h-17.93v39.451h17.93v40.348h-17.93v39.451h17.93v23.537h28.631v21.52
	h41.244v-21.52h28.164v21.52h41.243v-21.52h34.886v21.52h41.246v-21.52h35.638v21.52h41.245v-21.52h32.279v21.52h41.243v-21.52
	h34.07v21.52h41.246v-21.52h43.037v-23.537h17.932v-39.451h-17.932v-40.348h17.932v-39.451h-17.932v-42.65h17.932v-39.449h-17.932
	v-39.453h17.932v-39.451h-17.932v-42.588h17.932v-39.453h-17.932v-36.984h17.932v-39.449h-17.932v-32.275h17.932V634.18h-17.932
	v-18.318h-43.037V596.22c40.412,20.521,86.133,32.095,134.561,32.095c164.383,0,297.641-133.258,297.641-297.641H557.222
	L557.222,330.674z M341.74,615.861h-34.886v-19.727h34.886V615.861z M567.463,596.136v19.726h-34.07v-19.726h-41.243v19.726H459.87
	v-19.726h-41.245v19.726h-35.638v-19.726h-0.056V429.887h61.671v-99.213h1.027c-0.001,115.888,66.234,216.299,162.91,265.463
	L567.463,596.136L567.463,596.136z"/>
</svg>
