<?xml version="1.0" encoding="utf-8"?>
<!-- Generator: Adobe Illustrator 16.0.0, SVG Export Plug-In . SVG Version: 6.00 Build 0)  -->
<!DOCTYPE svg PUBLIC "-//W3C//DTD SVG 1.1//EN" "http://www.w3.org/Graphics/SVG/1.1/DTD/svg11.dtd">
<svg version="1.1" id="Calque_1" xmlns="http://www.w3.org/2000/svg" xmlns:xlink="http://www.w3.org/1999/xlink" x="0px" y="0px"
	 width="1190.551px" height="1190.551px" viewBox="0 0 1190.551 1190.551" enable-background="new 0 0 1190.551 1190.551"
	 xml:space="preserve">
<path fill="#010202" d="M833.493,615.281v-95.247H555.515v-17.931h18.317v-43.038h19.726v-41.245h-19.726v-34.071h19.726v-41.243
	h-19.726v-32.279h19.726v-41.245h-19.726v-35.638h19.726v-41.246h-19.726v-34.886h19.726v-41.243h-19.726V87.805h19.726V46.561
	h-19.726V17.93h-18.317V0h-39.453v17.93h-32.276V0h-39.45v17.93h-36.984V0h-39.453v17.93H325.31V0h-39.452v17.93h-39.452V0h-39.448
	v17.93h-42.653V0h-39.451v17.93H84.506V0H45.054v17.93H21.518v28.631H0v41.244h21.518v28.164H0v41.243h21.518v34.886H0v41.246
	h21.518v35.638H0v41.245h21.518v32.279H0v41.243h21.518v34.071H0v41.245h21.518v43.038h23.536v17.932H0v164.907h96.532v183.679H0
	v163.568h99.213v83.124h134.074V949.065h61.671v-99.213H407.58v261.429h204.869V830.933h-55.712V615.281H833.493z M516.062,502.104
	v17.931h-32.276v-17.931H516.062z M84.506,520.035v-17.932h40.347v17.932H84.506z M164.304,520.035v-17.932h42.653v17.932H164.304z
	 M246.406,520.035v-17.932h39.452v17.932H246.406z M407.58,700.146h-58.993v-180.11H325.31v-17.932h42.588v17.932h39.453v-17.932
	h36.984v17.931H407.58V700.146z"/>
</svg>
