<?xml version="1.0" encoding="utf-8"?>
<!-- Generator: Adobe Illustrator 16.0.0, SVG Export Plug-In . SVG Version: 6.00 Build 0)  -->
<!DOCTYPE svg PUBLIC "-//W3C//DTD SVG 1.1//EN" "http://www.w3.org/Graphics/SVG/1.1/DTD/svg11.dtd">
<svg version="1.1" id="Calque_1" xmlns="http://www.w3.org/2000/svg" xmlns:xlink="http://www.w3.org/1999/xlink" x="0px" y="0px"
	 width="1190.551px" height="1190.551px" viewBox="0 0 1190.551 1190.551" enable-background="new 0 0 1190.551 1190.551"
	 xml:space="preserve">
<path fill="#010202" d="M898.249,139.827L694.727,37.619v520.035h-39.445v-17.932H673.6v-43.039h19.724v-41.244H673.6v-34.071
	h19.724v-41.243H673.6v-32.279h19.724v-41.245H673.6v-35.638h19.724v-41.246H673.6v-34.886h19.724v-41.242H673.6v-28.165h19.724
	V84.18H673.6V55.549h-18.318v-17.93h-39.454v17.93h-32.275v-17.93h-39.449v17.93h-36.987v-17.93h-39.453v17.93h-42.588v-17.93
	h-39.451v17.93h-39.452v-17.93h-39.447v17.93h-42.652v-17.93h-39.452v17.93h-40.348v-17.93h-39.451v17.93h-23.537V84.18H99.766
	v41.244h21.518v28.165H99.766v41.242h21.518v34.886H99.766v41.246h21.518v35.638H99.766v41.245h21.518v32.279H99.766v41.243h21.518
	v34.071H99.766v41.244h21.518v43.039h23.537v17.932H99.766V678.85h122.872v220.407h122.873v253.675h103.472V899.258h122.871V678.852
	h122.873V634.9l396.059-396.059v-99.014H898.249z M184.272,557.654v-17.932h40.347v17.932H184.272z M264.071,557.654v-17.932h42.652
	v17.932H264.071z M346.171,557.654v-17.932h39.452v17.932H346.171z M425.074,557.654v-17.932h42.588v17.932H425.074z
	 M507.115,557.654v-17.932h36.986v17.932H507.115z M583.551,557.654v-17.932h32.275v17.932H583.551z"/>
</svg>
