<?xml version="1.0" encoding="utf-8"?>
<!-- Generator: Adobe Illustrator 16.0.0, SVG Export Plug-In . SVG Version: 6.00 Build 0)  -->
<!DOCTYPE svg PUBLIC "-//W3C//DTD SVG 1.1//EN" "http://www.w3.org/Graphics/SVG/1.1/DTD/svg11.dtd">
<svg version="1.1" id="Calque_1" xmlns="http://www.w3.org/2000/svg" xmlns:xlink="http://www.w3.org/1999/xlink" x="0px" y="0px"
	 width="1190.551px" height="1190.551px" viewBox="0 0 1190.551 1190.551" enable-background="new 0 0 1190.551 1190.551"
	 xml:space="preserve">
<path fill="#010202" d="M595.28,308.366V174.293H429.031v-61.672h-99.213V0H180.112v58.991H0V407.58l0,0
	c0,112.8,62.75,210.937,155.243,261.424C140.85,661.839,124.639,657.8,107.5,657.8C48.226,657.8,0,706.029,0,765.3
	c0,59.277,48.226,107.5,107.5,107.5S215,824.577,215,765.3c0-40.121-22.101-75.178-54.767-93.646
	c41.108,21.433,87.837,33.565,137.405,33.565c46.213,0,89.967-10.533,128.991-29.328c-33.481,18.234-56.253,53.749-56.253,94.479
	c0,59.277,48.226,107.5,107.5,107.5s107.5-48.223,107.5-107.5c0-59.27-48.226-107.5-107.5-107.5c-15.792,0-30.799,3.425-44.32,9.568
	c96.03-49.38,161.722-149.446,161.722-264.859h-83.123v-99.213H595.28z M164.909,407.579v-96.531h183.678v96.531H164.909z"/>
</svg>
