<?xml version="1.0" encoding="utf-8"?>
<!-- Generator: Adobe Illustrator 16.0.0, SVG Export Plug-In . SVG Version: 6.00 Build 0)  -->
<!DOCTYPE svg PUBLIC "-//W3C//DTD SVG 1.1//EN" "http://www.w3.org/Graphics/SVG/1.1/DTD/svg11.dtd">
<svg version="1.1" id="Calque_1" xmlns="http://www.w3.org/2000/svg" xmlns:xlink="http://www.w3.org/1999/xlink" x="0px" y="0px"
	 width="1190.551px" height="1190.551px" viewBox="0 0 1190.551 1190.551" enable-background="new 0 0 1190.551 1190.551"
	 xml:space="preserve">
<g>
	<polygon fill="#010202" points="415.168,348.588 595.28,348.588 595.28,0 430.37,0 430.37,96.531 246.693,96.531 246.693,0 
		83.124,0 83.124,99.213 0,99.213 0,233.287 166.249,233.287 166.249,294.959 265.462,294.959 265.462,407.58 297.64,407.58 
		415.168,407.58 	"/>
	<path fill="#010202" d="M-0.001,705.221h595.278C595.28,540.838,462.022,407.58,297.64,407.58
		C133.257,407.58-0.001,540.839-0.001,705.221z"/>
	<path fill="#010202" d="M107.5,705.224c-59.274,0-107.5,48.223-107.5,107.5c0,59.27,48.223,107.5,107.5,107.5
		c59.274,0,107.5-48.229,107.5-107.5C215,753.447,166.775,705.224,107.5,705.224z"/>
	<path fill="#010202" d="M322.5,705.224c-59.273,0-107.5,48.223-107.5,107.5c0,59.27,48.226,107.5,107.5,107.5
		S430,871.995,430,812.724C430,753.447,381.775,705.224,322.5,705.224z"/>
</g>
</svg>
