<?xml version="1.0" encoding="utf-8"?>
<!-- Generator: Adobe Illustrator 16.0.0, SVG Export Plug-In . SVG Version: 6.00 Build 0)  -->
<!DOCTYPE svg PUBLIC "-//W3C//DTD SVG 1.1//EN" "http://www.w3.org/Graphics/SVG/1.1/DTD/svg11.dtd">
<svg version="1.1" id="Calque_1" xmlns="http://www.w3.org/2000/svg" xmlns:xlink="http://www.w3.org/1999/xlink" x="0px" y="0px"
	 width="1190.551px" height="1190.551px" viewBox="0 0 1190.551 1190.551" enable-background="new 0 0 1190.551 1190.551"
	 xml:space="preserve">
<g>
	<path fill="#010202" d="M701.776,694.885H594.277H296.636l183.473,183.475c-19.465-19.463-46.338-31.518-75.973-31.518
		c-59.274,0-107.504,48.225-107.5,107.5c0,59.275,48.227,107.5,107.5,107.5c59.274,0,107.5-48.225,107.5-107.5
		c0-29.635-12.055-56.508-31.517-75.973l212.574,212.576h99.014V898.408l102.208-203.523H701.776z"/>
	<path fill="#010202" d="M701.776,694.885c59.272,0,107.504-48.227,107.5-107.5c0-59.273-48.229-107.5-107.5-107.5
		c-59.25,0-107.457,48.185-107.499,107.423V99.606c-164.383-0.001-297.641,133.257-297.641,297.639
		c0,164.382,133.258,297.64,297.641,297.64V587.462C594.319,646.699,642.525,694.885,701.776,694.885z"/>
</g>
</svg>
