<?xml version="1.0" encoding="utf-8"?>
<!-- Generator: Adobe Illustrator 16.0.0, SVG Export Plug-In . SVG Version: 6.00 Build 0)  -->
<!DOCTYPE svg PUBLIC "-//W3C//DTD SVG 1.1//EN" "http://www.w3.org/Graphics/SVG/1.1/DTD/svg11.dtd">
<svg version="1.1" id="Calque_1" xmlns="http://www.w3.org/2000/svg" xmlns:xlink="http://www.w3.org/1999/xlink" x="0px" y="0px"
	 width="1190.551px" height="1190.551px" viewBox="0 0 1190.551 1190.551" enable-background="new 0 0 1190.551 1190.551"
	 xml:space="preserve">
<path fill="#010202" d="M892.914,348.32V84.679H297.636v595.278v204.87h107.5h172.84c-38.328,16.207-65.365,54.033-65.756,98.103
	c-4.777-54.891-50.976-98.103-107.084-98.103c-59.274,0-107.504,48.223-107.5,107.5c0,59.274,48.228,107.5,107.5,107.5
	c58.954,0,106.967-47.703,107.487-106.535c4.777,54.893,50.978,98.103,107.083,98.103c59.273,0,107.5-48.223,107.5-107.5
	c0-59.272-48.225-107.504-107.5-107.5c-14.787,0-28.887,3.003-41.723,8.429v-55.708h215.653v276.757h95.244V679.957h4.033V416.32
	H478.636v-68H892.914z"/>
</svg>
