<?xml version="1.0" encoding="utf-8"?>
<!-- Generator: Adobe Illustrator 16.0.0, SVG Export Plug-In . SVG Version: 6.00 Build 0)  -->
<!DOCTYPE svg PUBLIC "-//W3C//DTD SVG 1.1//EN" "http://www.w3.org/Graphics/SVG/1.1/DTD/svg11.dtd">
<svg version="1.1" id="Calque_1" xmlns="http://www.w3.org/2000/svg" xmlns:xlink="http://www.w3.org/1999/xlink" x="0px" y="0px"
	 width="1190.551px" height="1190.551px" viewBox="0 0 1190.551 1190.551" enable-background="new 0 0 1190.551 1190.551"
	 xml:space="preserve">
<g>
	<polygon fill="#010202" points="712.805,483.751 892.916,483.751 892.916,135.164 728.006,135.164 728.006,231.695 
		544.329,231.695 544.329,135.164 380.76,135.164 380.76,234.376 297.636,234.376 297.636,368.451 463.885,368.451 463.885,430.123 
		563.098,430.123 563.098,542.744 595.276,542.744 712.805,542.744 	"/>
	<path fill="#010202" d="M297.635,840.385h595.277c0.004-164.383-133.254-297.641-297.636-297.641
		C430.893,542.744,297.635,676.002,297.635,840.385z"/>
	<path fill="#010202" d="M405.136,840.387c-59.274,0-107.5,48.225-107.5,107.5c0,59.271,48.223,107.5,107.5,107.5
		c59.273,0,107.5-48.229,107.5-107.5C512.636,888.611,464.411,840.387,405.136,840.387z"/>
	<path fill="#010202" d="M620.137,840.387c-59.274,0-107.5,48.225-107.5,107.5c0,59.271,48.226,107.5,107.5,107.5
		c59.273,0,107.5-48.229,107.5-107.5C727.637,888.611,679.41,840.387,620.137,840.387z"/>
</g>
</svg>
