<?xml version="1.0" encoding="utf-8"?>
<!-- Generator: Adobe Illustrator 16.0.0, SVG Export Plug-In . SVG Version: 6.00 Build 0)  -->
<!DOCTYPE svg PUBLIC "-//W3C//DTD SVG 1.1//EN" "http://www.w3.org/Graphics/SVG/1.1/DTD/svg11.dtd">
<svg version="1.1" id="Calque_1" xmlns="http://www.w3.org/2000/svg" xmlns:xlink="http://www.w3.org/1999/xlink" x="0px" y="0px"
	 width="1190.551px" height="1190.551px" viewBox="0 0 1190.551 1190.551" enable-background="new 0 0 1190.551 1190.551"
	 xml:space="preserve">
<g>
	<polygon fill="#010202" points="726.666,270.155 726.666,208.483 627.453,208.483 627.453,95.862 477.747,95.862 477.747,154.854 
		297.636,154.854 297.636,503.442 462.545,503.442 462.545,406.91 646.223,406.91 646.223,503.442 518.68,503.442 518.68,783.792 
		574.391,783.792 574.391,999.441 297.636,999.441 297.636,1094.688 723.548,1094.688 723.548,503.442 809.791,503.442 
		809.791,404.229 892.915,404.229 892.915,270.155 	"/>
	<path fill="#010202" d="M297.636,891.938c0,59.276,48.226,107.5,107.5,107.5c59.273,0,107.5-48.222,107.5-107.5
		c0-59.218-48.14-107.413-107.345-107.498c59.2-0.083,107.349-48.275,107.349-107.497c0-59.274-48.229-107.5-107.5-107.5
		c-59.276,0-107.5,48.226-107.5,107.5c0,59.221,48.139,107.412,107.344,107.497C345.78,784.522,297.636,832.718,297.636,891.938z"/>
</g>
</svg>
