<?xml version="1.0" encoding="utf-8"?>
<!-- Generator: Adobe Illustrator 16.0.0, SVG Export Plug-In . SVG Version: 6.00 Build 0)  -->
<!DOCTYPE svg PUBLIC "-//W3C//DTD SVG 1.1//EN" "http://www.w3.org/Graphics/SVG/1.1/DTD/svg11.dtd">
<svg version="1.1" id="Calque_1" xmlns="http://www.w3.org/2000/svg" xmlns:xlink="http://www.w3.org/1999/xlink" x="0px" y="0px"
	 width="1190.551px" height="1190.551px" viewBox="0 0 1190.551 1190.551" enable-background="new 0 0 1190.551 1190.551"
	 xml:space="preserve">
<g>
	<polygon fill="#010202" points="595.279,0 0,0 0,263.638 414.279,263.638 414.279,331.638 0,331.638 0,595.279 0,1021.193 
		591.246,1021.193 591.246,816.323 310.898,816.323 310.898,872.034 202.747,872.034 95.247,872.034 95.247,764.534 95.247,595.279 
		407.622,595.279 595.279,595.279 	"/>
	<path fill="#010202" d="M300.122,702.779c0,7.143,0.707,14.122,2.042,20.878c-16.12-39.059-54.609-66.622-99.417-66.622
		c-59.276,0-107.5,48.227-107.5,107.5c0,59.275,48.224,107.5,107.5,107.5c59.273,0,107.504-48.223,107.5-107.5
		c0-7.142-0.707-14.12-2.042-20.876c16.12,39.058,54.607,66.62,99.417,66.62c59.273,0,107.503-48.226,107.499-107.5
		c0-59.273-48.227-107.5-107.499-107.5C348.346,595.279,300.122,643.505,300.122,702.779z"/>
</g>
</svg>
