<?xml version="1.0" encoding="utf-8"?>
<!-- Generator: Adobe Illustrator 16.0.0, SVG Export Plug-In . SVG Version: 6.00 Build 0)  -->
<!DOCTYPE svg PUBLIC "-//W3C//DTD SVG 1.1//EN" "http://www.w3.org/Graphics/SVG/1.1/DTD/svg11.dtd">
<svg version="1.1" id="Calque_1" xmlns="http://www.w3.org/2000/svg" xmlns:xlink="http://www.w3.org/1999/xlink" x="0px" y="0px"
	 width="1190.551px" height="1190.551px" viewBox="0 0 1190.551 1190.551" enable-background="new 0 0 1190.551 1190.551"
	 xml:space="preserve">
<g>
	<path fill="#010202" d="M639.24,311.377V189.392c7.861,51.587,52.524,91.24,106.271,91.24c59.275,0,107.5-48.226,107.5-107.5
		s-48.225-107.5-107.502-107.5c-59.272,0-107.498,48.223-107.498,107.5c0,5.219,0.381,10.351,1.104,15.373H418.833V65.632H297.636
		v594.962h121.197V537.722h220.404L366.055,810.906v99.014h39.081h153.455l203.521,102.209v-597.28L639.24,537.721V414.848h122.873
		h130.803V311.377H639.24z"/>
	<path fill="#010202" d="M297.636,1017.419c0,59.273,48.226,107.5,107.5,107.5c59.273,0,107.5-48.227,107.5-107.5
		c0-59.274-48.227-107.5-107.5-107.5S297.636,958.145,297.636,1017.419z"/>
</g>
</svg>
