<?xml version="1.0" encoding="utf-8"?>
<!-- Generator: Adobe Illustrator 16.0.0, SVG Export Plug-In . SVG Version: 6.00 Build 0)  -->
<!DOCTYPE svg PUBLIC "-//W3C//DTD SVG 1.1//EN" "http://www.w3.org/Graphics/SVG/1.1/DTD/svg11.dtd">
<svg version="1.1" id="Calque_1" xmlns="http://www.w3.org/2000/svg" xmlns:xlink="http://www.w3.org/1999/xlink" x="0px" y="0px"
	 width="1190.551px" height="1190.551px" viewBox="0 0 1190.551 1190.551" enable-background="new 0 0 1190.551 1190.551"
	 xml:space="preserve">
<g>
	<path fill="#010202" d="M385.919,297.639c0,164.382,133.258,297.64,297.64,297.64V0C519.177-0.001,385.919,133.257,385.919,297.639
		z"/>
	<path fill="#010202" d="M545.177,975.551c-59.274,0-107.5,48.225-107.5,107.5c0,59.272,48.223,107.503,107.5,107.5
		c59.275,0,107.5-48.228,107.5-107.5C652.676,1023.775,604.451,975.551,545.177,975.551z"/>
	<path fill="#010202" d="M697.133,823.593c-29.604,0-56.449,12.029-75.91,31.455l160.754-160.754v-99.016h-98.418h-94.12
		L385.919,493.071v597.28l235.166-235.164c-19.424,19.46-31.454,46.306-31.452,75.905c0,59.275,48.227,107.5,107.5,107.5
		s107.5-48.225,107.5-107.5C804.633,871.822,756.408,823.593,697.133,823.593z"/>
</g>
</svg>
