<?xml version="1.0" encoding="utf-8"?>
<!-- Generator: Adobe Illustrator 16.0.0, SVG Export Plug-In . SVG Version: 6.00 Build 0)  -->
<!DOCTYPE svg PUBLIC "-//W3C//DTD SVG 1.1//EN" "http://www.w3.org/Graphics/SVG/1.1/DTD/svg11.dtd">
<svg version="1.1" id="Calque_1" xmlns="http://www.w3.org/2000/svg" xmlns:xlink="http://www.w3.org/1999/xlink" x="0px" y="0px"
	 width="1190.551px" height="1190.551px" viewBox="0 0 1190.551 1190.551" enable-background="new 0 0 1190.551 1190.551"
	 xml:space="preserve">
<path fill="#010202" d="M815.354,713.893c59.273,0,107.5-48.223,107.5-107.5c0-59.269-48.227-107.5-107.5-107.5
	c-12.436,0-24.383,2.13-35.502,6.032v-99.091h83.123V271.76H696.727v-61.672h-99.213V97.467H447.808v58.991H267.697v348.589h164.909
	v531.751c94.94,0,179.496-44.453,233.996-113.68c-12.621,17.617-20.061,39.188-20.061,62.465c0,59.271,48.225,107.5,107.5,107.5
	c59.27,0,107.5-48.227,107.5-107.5c0-59.275-48.229-107.5-107.5-107.5c-33.398,0-63.289,15.311-83.021,39.281
	c37.195-49.682,59.227-111.369,59.227-178.205c0-32.904-5.354-64.559-15.213-94.148
	C730.582,685.264,769.686,713.893,815.354,713.893z M432.606,408.515h183.677v96.425c-50.587-39.728-114.366-63.421-183.677-63.421
	V408.515L432.606,408.515z M616.422,505.047h163.082c-41.701,14.796-71.65,54.638-71.65,101.345c0,10.984,1.66,21.59,4.736,31.58
	C693.473,585.087,659.811,539.165,616.422,505.047z"/>
</svg>
