<?xml version="1.0" encoding="utf-8"?>
<!-- Generator: Adobe Illustrator 16.0.0, SVG Export Plug-In . SVG Version: 6.00 Build 0)  -->
<!DOCTYPE svg PUBLIC "-//W3C//DTD SVG 1.1//EN" "http://www.w3.org/Graphics/SVG/1.1/DTD/svg11.dtd">
<svg version="1.1" id="Calque_1" xmlns="http://www.w3.org/2000/svg" xmlns:xlink="http://www.w3.org/1999/xlink" x="0px" y="0px"
	 width="1190.551px" height="1190.551px" viewBox="0 0 1190.551 1190.551" enable-background="new 0 0 1190.551 1190.551"
	 xml:space="preserve">
<g>
	<polygon fill="#010202" points="693.853,608.039 693.853,10.758 297.795,406.816 297.795,505.83 490.331,505.83 	"/>
	<path fill="#010202" d="M769.884,1058.596V838.19H647.011V584.516H543.54V838.19H421.556c51.587-7.86,91.239-52.522,91.239-106.271
		c0-59.273-48.226-107.5-107.5-107.5s-107.5,48.225-107.5,107.5c0,59.274,48.227,107.5,107.5,107.5
		c5.219,0,10.351-0.382,15.373-1.104v220.28H297.795v121.198h594.961v-121.198L769.884,1058.596L769.884,1058.596z"/>
	<path fill="#010202" d="M405.295,254.86c59.273,0,107.5-48.227,107.5-107.5c0-59.275-48.227-107.5-107.5-107.5
		s-107.5,48.224-107.5,107.5C297.795,206.634,346.021,254.86,405.295,254.86z"/>
</g>
</svg>
