<?xml version="1.0" encoding="utf-8"?>
<!-- Generator: Adobe Illustrator 16.0.0, SVG Export Plug-In . SVG Version: 6.00 Build 0)  -->
<!DOCTYPE svg PUBLIC "-//W3C//DTD SVG 1.1//EN" "http://www.w3.org/Graphics/SVG/1.1/DTD/svg11.dtd">
<svg version="1.1" id="Calque_1" xmlns="http://www.w3.org/2000/svg" xmlns:xlink="http://www.w3.org/1999/xlink" x="0px" y="0px"
	 width="1190.551px" height="1190.551px" viewBox="0 0 1190.551 1190.551" enable-background="new 0 0 1190.551 1190.551"
	 xml:space="preserve">
<path fill="#010202" d="M472.088,341.604L349.216,464.476V341.604H472.088V121.198h122.873V0H0v121.197h122.872v220.282
	c-5.022-0.723-10.153-1.104-15.372-1.104C48.226,340.375,0,388.602,0,447.876s48.226,107.5,107.5,107.5
	c6.953,0,13.751-0.672,20.34-1.939c-44.813,12.96-77.677,54.357-77.677,103.288c0,59.274,48.226,107.5,107.5,107.5
	s107.5-48.226,107.5-107.5c0-22.83-7.16-44.018-19.344-61.445h103.397v-31.79h192.536l203.521,102.209V68.418L472.088,341.604z
	 M157.663,549.225c-6.953,0-13.751,0.672-20.34,1.939C182.136,538.204,215,496.807,215,447.876
	c0-53.749-39.651-98.412-91.239-106.272h121.984v253.569C226.288,567.412,194.061,549.225,157.663,549.225z"/>
</svg>
