<?xml version="1.0" encoding="utf-8"?>
<!-- Generator: Adobe Illustrator 16.0.0, SVG Export Plug-In . SVG Version: 6.00 Build 0)  -->
<!DOCTYPE svg PUBLIC "-//W3C//DTD SVG 1.1//EN" "http://www.w3.org/Graphics/SVG/1.1/DTD/svg11.dtd">
<svg version="1.1" id="Calque_1" xmlns="http://www.w3.org/2000/svg" xmlns:xlink="http://www.w3.org/1999/xlink" x="0px" y="0px"
	 width="1190.551px" height="1190.551px" viewBox="0 0 1190.551 1190.551" enable-background="new 0 0 1190.551 1190.551"
	 xml:space="preserve">
<path fill="#010202" d="M892.915,464.707V330.633H726.666v-61.672h-99.213V156.34H477.747v58.991H297.636V563.92l0,0
	c0,112.8,62.75,210.937,155.243,261.423c-14.394-7.164-30.604-11.203-47.743-11.203c-59.274,0-107.5,48.229-107.5,107.5
	c0,59.277,48.226,107.5,107.5,107.5c59.273,0,107.5-48.223,107.5-107.5c0-40.121-22.102-75.178-54.768-93.646
	c41.108,21.434,87.837,33.564,137.405,33.564c46.213,0,89.967-10.533,128.991-29.328c-33.481,18.234-56.253,53.75-56.253,94.48
	c0,59.275,48.226,107.5,107.5,107.5c59.273,0,107.499-48.225,107.499-107.5c0-59.271-48.226-107.5-107.5-107.5
	c-15.791,0-30.799,3.424-44.319,9.566c96.03-49.379,161.722-149.445,161.722-264.858H809.79v-99.213H892.915z M462.545,563.919
	v-96.531h183.678v96.531H462.545z"/>
</svg>
