<?xml version="1.0" encoding="utf-8"?>
<!-- Generator: Adobe Illustrator 16.0.0, SVG Export Plug-In . SVG Version: 6.00 Build 0)  -->
<!DOCTYPE svg PUBLIC "-//W3C//DTD SVG 1.1//EN" "http://www.w3.org/Graphics/SVG/1.1/DTD/svg11.dtd">
<svg version="1.1" id="Calque_1" xmlns="http://www.w3.org/2000/svg" xmlns:xlink="http://www.w3.org/1999/xlink" x="0px" y="0px"
	 width="1190.551px" height="1190.551px" viewBox="0 0 1190.551 1190.551" enable-background="new 0 0 1190.551 1190.551"
	 xml:space="preserve">
<g>
	<path fill="#010202" d="M726.434,845.326V679.077h61.672v-99.213h112.621V430.158h-58.992V250.046H714.19v-95.247H288.278v591.248
		h107.191c-59.133,0.166-107.191,48.326-107.191,107.494c0,59.277,48.226,107.5,107.5,107.5c59.273,0,107.5-48.223,107.5-107.5
		c0-59.166-48.058-107.328-107.192-107.494h97.062v16.154h99.213v83.125H726.434L726.434,845.326z M589.679,598.635h-96.531V465.697
		h-55.712V250.046h55.712v164.908h96.53L589.679,598.635L589.679,598.635z"/>
	<path fill="#010202" d="M794.774,820.752c-59.273,0-107.5,48.225-107.5,107.5c0,59.27,48.227,107.5,107.5,107.5
		s107.5-48.229,107.5-107.5C902.274,868.977,854.047,820.752,794.774,820.752z"/>
</g>
</svg>
