<?xml version="1.0" encoding="utf-8"?>
<!-- Generator: Adobe Illustrator 16.0.0, SVG Export Plug-In . SVG Version: 6.00 Build 0)  -->
<!DOCTYPE svg PUBLIC "-//W3C//DTD SVG 1.1//EN" "http://www.w3.org/Graphics/SVG/1.1/DTD/svg11.dtd">
<svg version="1.1" id="Calque_1" xmlns="http://www.w3.org/2000/svg" xmlns:xlink="http://www.w3.org/1999/xlink" x="0px" y="0px"
	 width="1190.551px" height="1190.551px" viewBox="0 0 1190.551 1190.551" enable-background="new 0 0 1190.551 1190.551"
	 xml:space="preserve">
<g>
	<path fill="#010202" d="M341.604,245.745V123.76c7.861,51.587,52.524,91.24,106.271,91.24c59.276,0,107.5-48.226,107.5-107.5
		S507.151,0,447.874,0c-59.273,0-107.499,48.223-107.499,107.5c0,5.219,0.381,10.351,1.104,15.373H121.198V0H0v594.962h121.198
		V472.09h220.404L68.419,745.274v99.014H107.5h153.455l203.521,102.209v-597.28L341.604,472.089V349.216h122.873H595.28V245.745
		H341.604z"/>
	<path fill="#010202" d="M0,951.787c0,59.274,48.226,107.5,107.5,107.5s107.5-48.226,107.5-107.5s-48.226-107.5-107.5-107.5
		C48.227,844.287,0,892.513,0,951.787z"/>
</g>
</svg>
