<?xml version="1.0" encoding="utf-8"?>
<!-- Generator: Adobe Illustrator 16.0.0, SVG Export Plug-In . SVG Version: 6.00 Build 0)  -->
<!DOCTYPE svg PUBLIC "-//W3C//DTD SVG 1.1//EN" "http://www.w3.org/Graphics/SVG/1.1/DTD/svg11.dtd">
<svg version="1.1" id="Calque_1" xmlns="http://www.w3.org/2000/svg" xmlns:xlink="http://www.w3.org/1999/xlink" x="0px" y="0px"
	 width="1190.551px" height="1190.551px" viewBox="0 0 1190.551 1190.551" enable-background="new 0 0 1190.551 1190.551"
	 xml:space="preserve">
<path fill="#010202" d="M719.714,589.115c-28.116,0-53.741,10.854-72.918,28.586c18.691-19.352,30.211-45.672,30.211-74.635
	c0-59.276-48.227-107.5-107.5-107.5c-29.635,0-56.508,12.055-75.975,31.518l265.862-265.862v-99.014H566.859L363.337,0v597.281
	l2.008-2.009v595.278c164.383,0,297.641-133.256,297.641-297.639c0-51.264-12.963-99.498-35.785-141.611
	c18.745,31.588,53.195,52.812,92.514,52.812c59.274,0,107.5-48.227,107.5-107.5C827.214,637.338,778.99,589.115,719.714,589.115z
	 M493.527,467.09c-19.464,19.465-31.52,46.339-31.52,75.976c0,38.235,20.071,71.869,50.227,90.934
	c-43.341-24.643-93.467-38.729-146.888-38.729L493.527,467.09z M518.688,637.773c15.143,8.158,32.449,12.795,50.819,12.793
	c28.114,0,53.736-10.854,72.914-28.586c-18.691,19.35-30.208,45.67-30.207,74.635c0,17.867,4.388,34.729,12.134,49.568
	C599.034,701.598,562.549,664.193,518.688,637.773z"/>
</svg>
