<?xml version="1.0" encoding="utf-8"?>
<!-- Generator: Adobe Illustrator 16.0.0, SVG Export Plug-In . SVG Version: 6.00 Build 0)  -->
<!DOCTYPE svg PUBLIC "-//W3C//DTD SVG 1.1//EN" "http://www.w3.org/Graphics/SVG/1.1/DTD/svg11.dtd">
<svg version="1.1" id="Calque_1" xmlns="http://www.w3.org/2000/svg" xmlns:xlink="http://www.w3.org/1999/xlink" x="0px" y="0px"
	 width="1190.551px" height="1190.551px" viewBox="0 0 1190.551 1190.551" enable-background="new 0 0 1190.551 1190.551"
	 xml:space="preserve">
<path fill="#010202" d="M808.232,692.539v-95.246H615.607v-166.25h61.672V331.83H789.9V182.124h-58.992V2.012H382.32v164.909h96.532
	v183.678H382.32v163.568h99.213v83.124H382.32v591.248h204.87v-167.08V908.215c15.371,8.486,33.023,13.324,51.789,13.324
	c7.893,0,15.587-0.863,23-2.486c-43.329,13.873-74.79,54.533-74.79,102.406c0,59.273,48.226,107.5,107.5,107.5
	c59.271,0,107.5-48.227,107.5-107.5c0-59.271-48.229-107.5-107.5-107.5c-7.894,0-15.586,0.861-22.999,2.484
	c43.329-13.873,74.788-54.529,74.788-102.404c0-59.271-48.225-107.5-107.5-107.5s-107.5,48.227-107.5,107.5
	c0,40.492,22.508,75.822,55.667,94.15h-55.669v-215.65H808.232z"/>
</svg>
