<?xml version="1.0" encoding="utf-8"?>
<!-- Generator: Adobe Illustrator 16.0.0, SVG Export Plug-In . SVG Version: 6.00 Build 0)  -->
<!DOCTYPE svg PUBLIC "-//W3C//DTD SVG 1.1//EN" "http://www.w3.org/Graphics/SVG/1.1/DTD/svg11.dtd">
<svg version="1.1" id="Calque_1" xmlns="http://www.w3.org/2000/svg" xmlns:xlink="http://www.w3.org/1999/xlink" x="0px" y="0px"
	 width="1190.551px" height="1190.551px" viewBox="0 0 1190.551 1190.551" enable-background="new 0 0 1190.551 1190.551"
	 xml:space="preserve">
<path fill="#010202" d="M995.35,252.782H790.48v-99.279H195.201v595.278h107.5h266.733v95.104
	c-18.042-13.696-40.52-21.837-64.864-21.837c-44.567,0-82.884,27.263-99.156,65.984c3.11-10.04,4.787-20.703,4.787-31.752
	c0-59.272-48.225-107.505-107.5-107.501c-59.274,0-107.5,48.229-107.5,107.501c0,59.276,48.226,107.5,107.5,107.5
	c44.565,0,82.883-27.262,99.155-65.983c-3.109,10.039-4.786,20.703-4.786,31.751c0,59.274,48.223,107.5,107.5,107.5
	c59.273,0,107.504-48.226,107.5-107.5c0-34.844-16.67-65.864-42.448-85.521H995.35V252.782L995.35,252.782z M376.201,485.144v-68
	h414.277v68H376.201z M846.191,748.781h-55.712V533.132h55.712V748.781z"/>
</svg>
