<?xml version="1.0" encoding="utf-8"?>
<!-- Generator: Adobe Illustrator 16.0.0, SVG Export Plug-In . SVG Version: 6.00 Build 0)  -->
<!DOCTYPE svg PUBLIC "-//W3C//DTD SVG 1.1//EN" "http://www.w3.org/Graphics/SVG/1.1/DTD/svg11.dtd">
<svg version="1.1" id="Calque_1" xmlns="http://www.w3.org/2000/svg" xmlns:xlink="http://www.w3.org/1999/xlink" x="0px" y="0px"
	 width="1190.551px" height="1190.551px" viewBox="0 0 1190.551 1190.551" enable-background="new 0 0 1190.551 1190.551"
	 xml:space="preserve">
<path fill="#010202" d="M800.149,99.279h-204.87V0H0v595.278h107.5h266.734v95.104c-18.042-13.696-40.52-21.837-64.865-21.837
	c-44.562,0-82.875,27.258-99.152,65.973c3.108-10.036,4.784-20.696,4.783-31.74c0-59.273-48.228-107.5-107.5-107.5
	c-59.276,0-107.5,48.227-107.5,107.5c0,59.275,48.224,107.5,107.5,107.5c44.56,0,82.876-27.255,99.153-65.971
	c-3.107,10.036-4.784,20.695-4.784,31.738c0,59.274,48.224,107.5,107.5,107.5c59.273,0,107.503-48.225,107.5-107.5
	c0-34.844-16.67-65.864-42.448-85.521h425.728V99.279z M181,331.641v-68h414.278v68H181z M650.99,595.279h-55.712v-215.65h55.712
	V595.279z"/>
</svg>
