<?xml version="1.0" encoding="utf-8"?>
<!-- Generator: Adobe Illustrator 16.0.0, SVG Export Plug-In . SVG Version: 6.00 Build 0)  -->
<!DOCTYPE svg PUBLIC "-//W3C//DTD SVG 1.1//EN" "http://www.w3.org/Graphics/SVG/1.1/DTD/svg11.dtd">
<svg version="1.1" id="Calque_1" xmlns="http://www.w3.org/2000/svg" xmlns:xlink="http://www.w3.org/1999/xlink" x="0px" y="0px"
	 width="1190.551px" height="1190.551px" viewBox="0 0 1190.551 1190.551" enable-background="new 0 0 1190.551 1190.551"
	 xml:space="preserve">
<g>
	<path fill="#010202" d="M214.996,817.531c0-59.271-48.224-107.5-107.5-107.5c-59.271,0-107.5,48.229-107.5,107.5
		c0,59.275,48.228,107.5,107.5,107.5C166.773,925.031,214.996,876.806,214.996,817.531z"/>
	<path fill="#010202" d="M486.618-0.004c-59.274,0-107.5,48.228-107.5,107.5c0,27.968,10.74,53.473,28.307,72.615h-58.837V0H0
		v164.909h96.532v183.678H0v163.568h99.213v83.124h134.074v114.102h55.711v215.649H107.496H12.243v95.247h425.913V429.031H294.959
		v-99.213H407.58V180.279c19.658,21.331,47.812,34.718,79.038,34.718c59.275,0,107.5-48.224,107.5-107.5
		C594.118,48.226,545.896-0.004,486.618-0.004z"/>
</g>
</svg>
