<?xml version="1.0" encoding="utf-8"?>
<!-- Generator: Adobe Illustrator 16.0.0, SVG Export Plug-In . SVG Version: 6.00 Build 0)  -->
<!DOCTYPE svg PUBLIC "-//W3C//DTD SVG 1.1//EN" "http://www.w3.org/Graphics/SVG/1.1/DTD/svg11.dtd">
<svg version="1.1" id="Calque_1" xmlns="http://www.w3.org/2000/svg" xmlns:xlink="http://www.w3.org/1999/xlink" x="0px" y="0px"
	 width="1190.551px" height="1190.551px" viewBox="0 0 1190.551 1190.551" enable-background="new 0 0 1190.551 1190.551"
	 xml:space="preserve">
<path fill="#010202" d="M417.833,694.727V571.856h220.406V448.982h253.676V345.511H638.239V223.526
	c7.861,51.587,52.523,91.24,106.271,91.24c59.275,0,107.5-48.227,107.5-107.5c0-59.275-48.225-107.5-107.5-107.5
	c-59.271,0-107.498,48.225-107.498,107.5c0,5.219,0.381,10.351,1.104,15.373H417.833V99.766H296.635v594.962h0.001l183.457,183.455
	c-19.464-19.453-46.33-31.5-75.958-31.5c-59.274,0-107.5,48.223-107.5,107.5c0,59.275,48.227,107.5,107.5,107.5
	c59.274,0,107.5-48.225,107.5-107.5c0-29.627-12.048-56.494-31.501-75.959l212.559,212.561h99.014V898.25l102.209-203.521H417.833
	V694.727z"/>
</svg>
