<?xml version="1.0" encoding="utf-8"?>
<!-- Generator: Adobe Illustrator 16.0.0, SVG Export Plug-In . SVG Version: 6.00 Build 0)  -->
<!DOCTYPE svg PUBLIC "-//W3C//DTD SVG 1.1//EN" "http://www.w3.org/Graphics/SVG/1.1/DTD/svg11.dtd">
<svg version="1.1" id="Calque_1" xmlns="http://www.w3.org/2000/svg" xmlns:xlink="http://www.w3.org/1999/xlink" x="0px" y="0px"
	 width="1190.551px" height="1190.551px" viewBox="0 0 1190.551 1190.551" enable-background="new 0 0 1190.551 1190.551"
	 xml:space="preserve">
<path fill="#010202" d="M547.657,616.425c59.273,0,107.501-48.223,107.501-107.5c0-59.269-48.228-107.5-107.501-107.5
	c-12.436,0-24.382,2.13-35.502,6.032v-99.091h83.124V174.293H429.031v-61.672h-99.213V0H180.112v58.991H0V407.58h164.909v531.751
	c94.941,0.001,179.497-44.453,233.996-113.679c-12.621,17.617-20.06,39.188-20.06,62.464c0,59.273,48.224,107.5,107.5,107.5
	c59.27,0,107.5-48.225,107.5-107.5s-48.228-107.5-107.5-107.5c-33.399,0-63.289,15.312-83.021,39.282
	c37.194-49.681,59.225-111.369,59.225-178.205c0-32.905-5.353-64.558-15.212-94.149
	C462.885,587.796,501.989,616.425,547.657,616.425z M164.909,311.048h183.678v96.425c-50.588-39.728-114.366-63.421-183.678-63.421
	V311.048z M348.725,407.58h163.083c-41.701,14.796-71.65,54.638-71.65,101.345c0,10.985,1.66,21.59,4.736,31.58
	C425.777,487.62,392.115,441.697,348.725,407.58z"/>
</svg>
