<?xml version="1.0" encoding="utf-8"?>
<!-- Generator: Adobe Illustrator 16.0.0, SVG Export Plug-In . SVG Version: 6.00 Build 0)  -->
<!DOCTYPE svg PUBLIC "-//W3C//DTD SVG 1.1//EN" "http://www.w3.org/Graphics/SVG/1.1/DTD/svg11.dtd">
<svg version="1.1" id="Calque_1" xmlns="http://www.w3.org/2000/svg" xmlns:xlink="http://www.w3.org/1999/xlink" x="0px" y="0px"
	 width="1190.551px" height="1190.551px" viewBox="0 0 1190.551 1190.551" enable-background="new 0 0 1190.551 1190.551"
	 xml:space="preserve">
<g>
	<path fill="#010202" d="M888.882,510.593v-204.87H608.534v55.712H500.385h-107.5v-107.5V84.679h-95.248v425.914v595.278h595.277
		V510.593H888.882z M629.278,924.873h-68v-414.28h68V924.873z"/>
	<path fill="#010202" d="M500.384,361.435c59.272,0,107.504-48.224,107.5-107.5c0-9.695-1.298-19.091-3.717-28.032
		c14.18,42.805,54.575,73.776,102.077,73.776c59.273,0,107.504-48.227,107.5-107.5c0-59.274-48.229-107.5-107.5-107.5
		c-59.276,0-107.5,48.226-107.5,107.5c0,9.695,1.299,19.092,3.717,28.034c-14.18-42.807-54.578-73.778-102.076-73.778
		c-59.276,0-107.5,48.226-107.5,107.5C392.885,313.209,441.108,361.435,500.384,361.435z"/>
</g>
</svg>
