<?xml version="1.0" encoding="utf-8"?>
<!-- Generator: Adobe Illustrator 16.0.0, SVG Export Plug-In . SVG Version: 6.00 Build 0)  -->
<!DOCTYPE svg PUBLIC "-//W3C//DTD SVG 1.1//EN" "http://www.w3.org/Graphics/SVG/1.1/DTD/svg11.dtd">
<svg version="1.1" id="Calque_1" xmlns="http://www.w3.org/2000/svg" xmlns:xlink="http://www.w3.org/1999/xlink" x="0px" y="0px"
	 width="1190.551px" height="1190.551px" viewBox="0 0 1190.551 1190.551" enable-background="new 0 0 1190.551 1190.551"
	 xml:space="preserve">
<path fill="#010202" d="M0,973.322H597.28L201.222,577.263H102.21c52.117-19.055,97.409-52.271,131.236-94.982
	c-12.679,17.642-20.156,39.261-20.154,62.596c0,59.274,48.227,107.499,107.5,107.499c59.275,0,107.499-48.225,107.499-107.499
	s-48.224-107.5-107.499-107.5c-33.244,0-63.012,15.17-82.747,38.951c37.415-49.764,59.595-111.634,59.595-178.688
	c0-49.62-12.158-96.394-33.633-137.532c18.448,32.735,53.542,54.895,93.717,54.893c59.274,0,107.499-48.227,107.499-107.5
	C465.223,48.225,416.998,0,357.724,0c-59.272,0-107.5,48.225-107.5,107.5c0,17.166,4.052,33.401,11.238,47.811
	C210.985,62.78,112.825-0.001-0.001-0.001v595.278c35.91,0,70.334-6.36,102.209-18.014v192.537L0,973.322z"/>
</svg>
