<?xml version="1.0" encoding="utf-8"?>
<!-- Generator: Adobe Illustrator 16.0.0, SVG Export Plug-In . SVG Version: 6.00 Build 0)  -->
<!DOCTYPE svg PUBLIC "-//W3C//DTD SVG 1.1//EN" "http://www.w3.org/Graphics/SVG/1.1/DTD/svg11.dtd">
<svg version="1.1" id="Calque_1" xmlns="http://www.w3.org/2000/svg" xmlns:xlink="http://www.w3.org/1999/xlink" x="0px" y="0px"
	 width="1190.551px" height="1190.551px" viewBox="0 0 1190.551 1190.551" enable-background="new 0 0 1190.551 1190.551"
	 xml:space="preserve">
<g>
	<path fill="#010202" d="M438.156,690.527V524.278h61.672v-99.213h112.621V275.359h-58.992V95.247H425.913V0H0v591.247h107.192
		C48.059,591.414,0,639.573,0,698.742c0,59.277,48.226,107.5,107.5,107.5S215,758.02,215,698.742
		c0-59.167-48.057-107.328-107.192-107.495h97.062v16.155h99.213v83.124H438.156z M301.402,443.835H204.87V310.898h-55.712V95.247
		h55.712v164.908h96.531V443.835z"/>
	<path fill="#010202" d="M506.496,665.952c-59.273,0-107.5,48.225-107.5,107.5c0,59.271,48.227,107.5,107.5,107.5
		s107.5-48.227,107.5-107.5C613.996,714.177,565.77,665.952,506.496,665.952z"/>
</g>
</svg>
