<?xml version="1.0" encoding="utf-8"?>
<!-- Generator: Adobe Illustrator 16.0.0, SVG Export Plug-In . SVG Version: 6.00 Build 0)  -->
<!DOCTYPE svg PUBLIC "-//W3C//DTD SVG 1.1//EN" "http://www.w3.org/Graphics/SVG/1.1/DTD/svg11.dtd">
<svg version="1.1" id="Calque_1" xmlns="http://www.w3.org/2000/svg" xmlns:xlink="http://www.w3.org/1999/xlink" x="0px" y="0px"
	 width="1190.551px" height="1190.551px" viewBox="0 0 1190.551 1190.551" enable-background="new 0 0 1190.551 1190.551"
	 xml:space="preserve">
<g>
	<polygon fill="#010202" points="595.279,263.641 595.279,0 0,0 0,595.279 0,1021.193 591.246,1021.193 591.246,816.323 
		310.898,816.323 310.898,872.034 202.747,872.034 95.247,872.034 95.247,764.534 95.247,595.279 408.608,595.279 595.279,595.279 
		595.279,331.641 181,331.641 181,263.641 	"/>
	<path fill="#010202" d="M301.108,702.779c0,9.693,1.297,19.087,3.714,28.027c-14.18-42.804-54.576-73.774-102.074-73.771
		c-59.274,0-107.5,48.229-107.5,107.5c0,59.277,48.226,107.5,107.5,107.5s107.5-48.223,107.5-107.5
		c0-9.693-1.297-19.088-3.714-28.027c14.18,42.803,54.575,73.771,102.074,73.771c59.273,0,107.504-48.226,107.5-107.5
		c0-59.273-48.229-107.5-107.5-107.5C349.331,595.279,301.108,643.505,301.108,702.779z"/>
</g>
</svg>
