<?xml version="1.0" encoding="utf-8"?>
<!-- Generator: Adobe Illustrator 16.0.0, SVG Export Plug-In . SVG Version: 6.00 Build 0)  -->
<!DOCTYPE svg PUBLIC "-//W3C//DTD SVG 1.1//EN" "http://www.w3.org/Graphics/SVG/1.1/DTD/svg11.dtd">
<svg version="1.1" id="Calque_1" xmlns="http://www.w3.org/2000/svg" xmlns:xlink="http://www.w3.org/1999/xlink" x="0px" y="0px"
	 width="1190.551px" height="1190.551px" viewBox="0 0 1190.551 1190.551" enable-background="new 0 0 1190.551 1190.551"
	 xml:space="preserve">
<path fill="#010202" d="M694.727,554.767L571.855,677.639V554.767H694.727V334.361H817.6V213.163h-594.96V334.36h122.872v220.282
	c-5.022-0.723-10.153-1.104-15.372-1.104c-59.274,0-107.5,48.228-107.5,107.501s48.226,107.5,107.5,107.5
	c6.953,0,13.751-0.672,20.34-1.939c-44.813,12.961-77.677,54.357-77.677,103.288c0,59.274,48.226,107.5,107.5,107.5
	c59.273,0,107.5-48.226,107.5-107.5c0-22.83-7.16-44.018-19.345-61.444h103.397v-31.79h192.536l203.521,102.209V281.581
	L694.727,554.767z M380.302,762.389c-6.953,0-13.751,0.672-20.341,1.938c44.813-12.96,77.678-54.356,77.678-103.288
	c0-53.749-39.651-98.412-91.239-106.272h121.984v253.569C448.927,780.575,416.7,762.389,380.302,762.389z"/>
</svg>
