<?xml version="1.0" encoding="utf-8"?>
<!-- Generator: Adobe Illustrator 16.0.0, SVG Export Plug-In . SVG Version: 6.00 Build 0)  -->
<!DOCTYPE svg PUBLIC "-//W3C//DTD SVG 1.1//EN" "http://www.w3.org/Graphics/SVG/1.1/DTD/svg11.dtd">
<svg version="1.1" id="Calque_1" xmlns="http://www.w3.org/2000/svg" xmlns:xlink="http://www.w3.org/1999/xlink" x="0px" y="0px"
	 width="1190.551px" height="1190.551px" viewBox="0 0 1190.551 1190.551" enable-background="new 0 0 1190.551 1190.551"
	 xml:space="preserve">
<path fill="#010202" d="M892.915,464.706V330.633H726.666v-61.672h-99.213V156.34H477.747v58.991H297.636V563.92l0,0
	c0,112.812,62.763,210.957,155.271,261.439c-14.398-7.173-30.619-11.216-47.767-11.216c-59.276,0-107.5,48.226-107.5,107.5
	c0,59.275,48.224,107.5,107.5,107.5c59.27,0,107.5-48.222,107.5-107.5c0-40.144-22.124-75.214-54.814-93.673
	c41.119,21.447,87.863,33.589,137.449,33.589c46.213,0,89.967-10.532,128.991-29.328c-33.481,18.234-56.253,53.749-56.253,94.479
	c0,59.277,48.226,107.5,107.5,107.5c59.273,0,107.5-48.223,107.5-107.5c0-59.271-48.227-107.5-107.5-107.5
	c-15.792,0-30.8,3.425-44.32,9.568c96.03-49.381,161.722-149.446,161.722-264.859h-83.123v-99.213L892.915,464.706L892.915,464.706z
	 M462.545,563.919v-96.531h183.678v96.531H462.545z"/>
</svg>
