<?xml version="1.0" encoding="utf-8"?>
<!-- Generator: Adobe Illustrator 16.0.0, SVG Export Plug-In . SVG Version: 6.00 Build 0)  -->
<!DOCTYPE svg PUBLIC "-//W3C//DTD SVG 1.1//EN" "http://www.w3.org/Graphics/SVG/1.1/DTD/svg11.dtd">
<svg version="1.1" id="Calque_1" xmlns="http://www.w3.org/2000/svg" xmlns:xlink="http://www.w3.org/1999/xlink" x="0px" y="0px"
	 width="1190.551px" height="1190.551px" viewBox="0 0 1190.551 1190.551" enable-background="new 0 0 1190.551 1190.551"
	 xml:space="preserve">
<g>
	<path fill="#010202" d="M371.9,452.262c19.461,19.438,46.315,31.475,75.928,31.473c59.275,0,107.5-48.228,107.5-107.501
		c0-59.275-48.225-107.5-107.5-107.5c-12.698,0-24.887,2.219-36.206,6.281C519.44,230.277,595.279,124.001,595.279-0.001H0
		c-0.001,130.549,84.053,241.456,200.99,281.584h-98.782V474.12L0,677.642h107.5H597.28L371.9,452.262z M297.639,297.64
		c37.691,0,73.738-7.023,106.925-19.805c-37.789,16.681-64.234,54.507-64.234,98.398c0,29.612,12.036,56.467,31.473,75.93
		L201.348,281.709C231.552,292.031,263.939,297.64,297.639,297.64z"/>
	<path fill="#010202" d="M107.5,677.642c-59.274,0-107.5,48.226-107.5,107.5s48.226,107.5,107.5,107.5
		c59.272,0,107.5-48.226,107.5-107.5S166.773,677.638,107.5,677.642z"/>
</g>
</svg>
