<?xml version="1.0" encoding="utf-8"?>
<!-- Generator: Adobe Illustrator 16.0.0, SVG Export Plug-In . SVG Version: 6.00 Build 0)  -->
<!DOCTYPE svg PUBLIC "-//W3C//DTD SVG 1.1//EN" "http://www.w3.org/Graphics/SVG/1.1/DTD/svg11.dtd">
<svg version="1.1" id="Calque_1" xmlns="http://www.w3.org/2000/svg" xmlns:xlink="http://www.w3.org/1999/xlink" x="0px" y="0px"
	 width="1190.551px" height="1190.551px" viewBox="0 0 1190.551 1190.551" enable-background="new 0 0 1190.551 1190.551"
	 xml:space="preserve">
<path fill="#010202" d="M595.28,348.588V0H430.37v96.532H246.693V0H83.124v99.213H0v134.074h166.249v61.672h99.213V407.58H0v591.246
	h204.87V832.058c0.167,59.132,48.327,107.192,107.496,107.192c59.276,0,107.5-48.227,107.5-107.5s-48.224-107.5-107.5-107.5
	c-7.891,0-15.582,0.862-22.993,2.484c43.326-13.875,74.781-54.532,74.781-102.403c0-59.274-48.223-107.5-107.5-107.5
	c-59.167,0-107.329,48.057-107.496,107.192V502.827h276.755V407.58h-10.745v-58.992H595.28z M204.87,831.443V718.509
	c15.37,8.485,33.022,13.322,51.784,13.322c7.892,0,15.585-0.862,22.998-2.484C236.42,743.192,205.005,783.706,204.87,831.443z
	 M204.815,718.478h-55.656v-93.839C149.273,664.999,171.745,700.196,204.815,718.478z"/>
</svg>
