<?xml version="1.0" encoding="utf-8"?>
<!-- Generator: Adobe Illustrator 16.0.0, SVG Export Plug-In . SVG Version: 6.00 Build 0)  -->
<!DOCTYPE svg PUBLIC "-//W3C//DTD SVG 1.1//EN" "http://www.w3.org/Graphics/SVG/1.1/DTD/svg11.dtd">
<svg version="1.1" id="Calque_1" xmlns="http://www.w3.org/2000/svg" xmlns:xlink="http://www.w3.org/1999/xlink" x="0px" y="0px"
	 width="1190.551px" height="1190.551px" viewBox="0 0 1190.551 1190.551" enable-background="new 0 0 1190.551 1190.551"
	 xml:space="preserve">
<path fill="#010202" d="M0,973.322H597.28l-352.419-352.42c19.462,19.438,46.317,31.478,75.932,31.476
	c59.274,0,107.5-48.228,107.5-107.5c0-59.276-48.226-107.5-107.5-107.5c-33.258,0-63.036,15.183-82.77,38.98
	c37.429-49.769,59.618-111.65,59.618-178.718c0-49.623-12.16-96.399-33.637-137.539C282.45,192.838,317.546,215,357.724,215
	c59.275,0,107.5-48.226,107.5-107.5c0-59.272-48.225-107.5-107.5-107.5c-59.274,0-107.504,48.227-107.5,107.5
	c0,17.167,4.052,33.403,11.239,47.813C210.986,62.781,112.826-0.001-0.001-0.001v595.278c35.91,0,70.334-6.36,102.209-18.014
	v192.537L0,973.322z M233.472,482.25c-12.693,17.647-20.18,39.278-20.18,62.627c0,29.612,12.037,56.469,31.475,75.931
	l-43.545-43.545H102.21C154.341,558.203,199.642,524.976,233.472,482.25z"/>
</svg>
