<?xml version="1.0" encoding="utf-8"?>
<!-- Generator: Adobe Illustrator 16.0.0, SVG Export Plug-In . SVG Version: 6.00 Build 0)  -->
<!DOCTYPE svg PUBLIC "-//W3C//DTD SVG 1.1//EN" "http://www.w3.org/Graphics/SVG/1.1/DTD/svg11.dtd">
<svg version="1.1" id="Calque_1" xmlns="http://www.w3.org/2000/svg" xmlns:xlink="http://www.w3.org/1999/xlink" x="0px" y="0px"
	 width="1190.551px" height="1190.551px" viewBox="0 0 1190.551 1190.551" enable-background="new 0 0 1190.551 1190.551"
	 xml:space="preserve">
<path fill="#010202" d="M681.073,587.95L587.949,0L0,93.122l93.122,587.95l-93.123,14.75L32.048,898.17l132.086-20.921
	c-10.398,1.781-20.703,5.136-30.584,10.171c-52.816,26.911-73.89,91.772-46.979,144.587c26.91,52.813,91.771,73.891,144.587,46.979
	c45.513-23.189,67.454-74.567,55.428-122.127c15.349,50.487,66.083,83.322,119.647,74.839c58.546-9.273,98.633-64.446,89.36-122.993
	c-9.272-58.546-64.447-98.637-122.993-89.361c-25.614,4.058-47.694,16.9-63.654,34.968l-8.715-55.025l212.996-33.735l43.294,273.349
	L650.595,1024l-66.628-420.67L681.073,587.95z M288.707,230.653l67.162-10.638l64.809,409.178l-67.164,10.638L288.707,230.653z
	 M308.945,854.313c-20.52,23.229-30.921,55.095-25.706,88.024c0.516,3.257,1.182,6.454,1.974,9.591
	c-1.81-5.941-4.161-11.806-7.077-17.528c-21.441-42.08-66.976-64.011-111.312-57.577L308.945,854.313z"/>
</svg>
