<?xml version="1.0" encoding="utf-8"?>
<!-- Generator: Adobe Illustrator 16.0.0, SVG Export Plug-In . SVG Version: 6.00 Build 0)  -->
<!DOCTYPE svg PUBLIC "-//W3C//DTD SVG 1.1//EN" "http://www.w3.org/Graphics/SVG/1.1/DTD/svg11.dtd">
<svg version="1.1" id="Calque_1" xmlns="http://www.w3.org/2000/svg" xmlns:xlink="http://www.w3.org/1999/xlink" x="0px" y="0px"
	 width="1190.551px" height="1190.551px" viewBox="0 0 1190.551 1190.551" enable-background="new 0 0 1190.551 1190.551"
	 xml:space="preserve">
<g>
	<polygon fill="#010202" points="771.717,60.591 771.717,183.463 551.312,183.463 551.312,306.336 405.136,306.336 297.636,306.336 
		297.636,409.807 405.136,409.807 551.312,409.807 551.312,532.68 693.694,532.68 771.717,532.68 771.717,655.553 892.915,655.553 
		892.915,60.591 	"/>
	<path fill="#010202" d="M297.636,517.308c0,59.275,48.226,107.5,107.5,107.5c59.273,0,107.5-48.225,107.5-107.5
		c0-59.275-48.225-107.501-107.5-107.501C345.862,409.807,297.636,458.034,297.636,517.308z"/>
	<polygon fill="#010202" points="297.636,1027.75 490.172,1027.75 693.694,1129.959 693.694,532.68 297.636,928.738 	"/>
	<path fill="#010202" d="M512.636,198.836c0-59.273-48.226-107.5-107.5-107.5s-107.5,48.226-107.5,107.5s48.227,107.5,107.5,107.5
		C464.411,306.336,512.636,258.111,512.636,198.836z"/>
</g>
</svg>
