<?xml version="1.0" encoding="utf-8"?>
<!-- Generator: Adobe Illustrator 16.0.0, SVG Export Plug-In . SVG Version: 6.00 Build 0)  -->
<!DOCTYPE svg PUBLIC "-//W3C//DTD SVG 1.1//EN" "http://www.w3.org/Graphics/SVG/1.1/DTD/svg11.dtd">
<svg version="1.1" id="Calque_1" xmlns="http://www.w3.org/2000/svg" xmlns:xlink="http://www.w3.org/1999/xlink" x="0px" y="0px"
	 width="1190.551px" height="1190.551px" viewBox="0 0 1190.551 1190.551" enable-background="new 0 0 1190.551 1190.551"
	 xml:space="preserve">
<g>
	<polygon fill="#010202" points="396.058,597.281 396.058,0 0,396.058 0,495.072 192.536,495.072 	"/>
	<path fill="#010202" d="M472.089,1047.838V827.433H349.216V573.758H245.745v253.675H123.761
		C175.348,819.572,215,774.91,215,721.161c0-59.273-48.225-107.5-107.5-107.5c-59.274,0-107.5,48.225-107.5,107.5
		s48.227,107.5,107.5,107.5c5.219,0,10.351-0.382,15.373-1.104v220.28H0v121.198h594.961v-121.198H472.089z"/>
	<path fill="#010202" d="M107.5,244.102c59.274,0,107.5-48.227,107.5-107.5c0-59.275-48.226-107.5-107.5-107.5
		C48.227,29.102,0,77.326,0,136.602C0,195.876,48.226,244.102,107.5,244.102z"/>
</g>
</svg>
