<?xml version="1.0" encoding="utf-8"?>
<!-- Generator: Adobe Illustrator 16.0.0, SVG Export Plug-In . SVG Version: 6.00 Build 0)  -->
<!DOCTYPE svg PUBLIC "-//W3C//DTD SVG 1.1//EN" "http://www.w3.org/Graphics/SVG/1.1/DTD/svg11.dtd">
<svg version="1.1" id="Calque_1" xmlns="http://www.w3.org/2000/svg" xmlns:xlink="http://www.w3.org/1999/xlink" x="0px" y="0px"
	 width="1190.551px" height="1190.551px" viewBox="0 0 1190.551 1190.551" enable-background="new 0 0 1190.551 1190.551"
	 xml:space="preserve">
<g>
	<path fill="#010202" d="M215,702.783c0-59.275-48.226-107.499-107.5-107.499S0,643.508,0,702.783
		c0,59.271,48.223,107.5,107.5,107.5C166.775,810.283,215,762.057,215,702.783z"/>
	<path fill="#010202" d="M319.998,810.244c0.832,0.019,1.666,0.031,2.502,0.031c59.273,0,107.5-48.223,107.5-107.5
		c0-59.166-48.06-107.329-107.192-107.496h84.772V430.371h-96.532V246.693h96.532V83.124h-99.213V0H174.293v166.249h-61.672v99.213
		H0v149.706h58.992V595.28h263.2C263.059,595.447,215,643.607,215,702.776c0,55.73,42.628,101.685,96.988,106.985
		c-4.756-0.226-9.538-0.351-14.349-0.351c-164.383,0-297.641,133.258-297.641,297.64h595.278
		C595.28,950.189,473.936,821.677,319.998,810.244z"/>
</g>
</svg>
