<?xml version="1.0" encoding="utf-8"?>
<!-- Generator: Adobe Illustrator 16.0.0, SVG Export Plug-In . SVG Version: 6.00 Build 0)  -->
<!DOCTYPE svg PUBLIC "-//W3C//DTD SVG 1.1//EN" "http://www.w3.org/Graphics/SVG/1.1/DTD/svg11.dtd">
<svg version="1.1" id="Calque_1" xmlns="http://www.w3.org/2000/svg" xmlns:xlink="http://www.w3.org/1999/xlink" x="0px" y="0px"
	 width="1190.551px" height="1190.551px" viewBox="0 0 1190.551 1190.551" enable-background="new 0 0 1190.551 1190.551"
	 xml:space="preserve">
<path fill="#010202" d="M714.41,975.551c-33.59,0-63.63,15.494-83.357,39.705c22.472-41.865,35.229-89.721,35.229-140.561
	c0-128.262-81.132-237.568-194.874-279.416H601.93v-69.013c0.209,59.099,48.352,107.114,107.495,107.114
	c59.276,0,107.499-48.224,107.499-107.5c0-59.274-48.223-107.5-107.499-107.5c-16.381,0-31.914,3.689-45.823,10.271v-98.836h112.621
	V180.112h-58.992V0H368.643v164.908h96.532v183.679h-96.532v163.568h99.213v81.86c-31.035-10.97-64.422-16.96-99.214-16.96v595.276
	c102.71,0.002,193.268-52.023,246.762-131.156c-5.467,12.875-8.494,27.027-8.494,41.875c0,59.273,48.229,107.5,107.5,107.5
	c59.276,0,107.5-48.227,107.5-107.5C821.91,1023.777,773.687,975.551,714.41,975.551z M662.8,429.032
	c-35.88,17.344-60.721,54.05-60.87,96.467v-96.467H662.8z"/>
</svg>
