<?xml version="1.0" encoding="utf-8"?>
<!-- Generator: Adobe Illustrator 16.0.0, SVG Export Plug-In . SVG Version: 6.00 Build 0)  -->
<!DOCTYPE svg PUBLIC "-//W3C//DTD SVG 1.1//EN" "http://www.w3.org/Graphics/SVG/1.1/DTD/svg11.dtd">
<svg version="1.1" id="Calque_1" xmlns="http://www.w3.org/2000/svg" xmlns:xlink="http://www.w3.org/1999/xlink" x="0px" y="0px"
	 width="1190.551px" height="1190.551px" viewBox="0 0 1190.551 1190.551" enable-background="new 0 0 1190.551 1190.551"
	 xml:space="preserve">
<g>
	<polygon fill="#010202" points="474.082,0 474.082,122.872 253.676,122.872 253.676,245.745 107.5,245.745 0,245.745 0,349.216 
		107.5,349.216 253.676,349.216 253.676,472.089 396.058,472.089 474.082,472.089 474.082,594.962 595.28,594.962 595.28,0 	"/>
	<path fill="#010202" d="M0,456.717c0,59.275,48.226,107.5,107.5,107.5S215,515.992,215,456.717s-48.224-107.501-107.5-107.501
		C48.226,349.216,0,397.443,0,456.717z"/>
	<polygon fill="#010202" points="0,967.159 192.536,967.159 396.058,1069.368 396.058,472.089 0,868.146 	"/>
	<path fill="#010202" d="M215,138.245c0-59.273-48.225-107.5-107.5-107.5C48.226,30.745,0,78.971,0,138.245
		s48.227,107.5,107.5,107.5C166.776,245.745,215,197.52,215,138.245z"/>
</g>
</svg>
