<?xml version="1.0" encoding="utf-8"?>
<!-- Generator: Adobe Illustrator 16.0.0, SVG Export Plug-In . SVG Version: 6.00 Build 0)  -->
<!DOCTYPE svg PUBLIC "-//W3C//DTD SVG 1.1//EN" "http://www.w3.org/Graphics/SVG/1.1/DTD/svg11.dtd">
<svg version="1.1" id="Calque_1" xmlns="http://www.w3.org/2000/svg" xmlns:xlink="http://www.w3.org/1999/xlink" x="0px" y="0px"
	 width="1190.551px" height="1190.551px" viewBox="0 0 1190.551 1190.551" enable-background="new 0 0 1190.551 1190.551"
	 xml:space="preserve">
<path fill="#010202" d="M595.28,348.588V0H430.37v96.532H246.693V0H83.124v99.213H0v134.074h166.249v61.672h99.213V407.58h149.706
	v221.356h55.711v215.652H194.258C207.291,826.802,215,804.882,215,781.191c0-59.167-48.057-107.329-107.192-107.496
	C166.941,673.528,215,625.369,215,566.199c0-59.276-48.226-107.5-107.5-107.5c-59.272,0-107.5,48.224-107.5,107.5
	c0,59.167,48.06,107.328,107.192,107.495C48.059,673.862,0,722.022,0,781.191c0,59.277,48.226,107.5,107.5,107.5
	c35.503,0,67.037-17.305,86.624-43.918v95.063h425.913V348.588H595.28z"/>
</svg>
