<?xml version="1.0" encoding="utf-8"?>
<!-- Generator: Adobe Illustrator 16.0.0, SVG Export Plug-In . SVG Version: 6.00 Build 0)  -->
<!DOCTYPE svg PUBLIC "-//W3C//DTD SVG 1.1//EN" "http://www.w3.org/Graphics/SVG/1.1/DTD/svg11.dtd">
<svg version="1.1" id="Calque_1" xmlns="http://www.w3.org/2000/svg" xmlns:xlink="http://www.w3.org/1999/xlink" x="0px" y="0px"
	 width="1190.551px" height="1190.551px" viewBox="0 0 1190.551 1190.551" enable-background="new 0 0 1190.551 1190.551"
	 xml:space="preserve">
<g>
	<path fill="#010202" d="M407.58,180.587c19.645,21.155,47.679,34.417,78.755,34.417c59.275,0,107.5-48.228,107.5-107.5
		c0-59.276-48.225-107.5-107.5-107.5c-59.273,0-107.5,48.224-107.5,107.5c0,27.962,10.738,53.465,28.302,72.607h-58.549V0H0v164.908
		h96.532v183.679H0v163.568h99.213v83.124h134.074V429.031h61.672v-99.213h108.399h4.222V180.587z"/>
	<path fill="#010202" d="M295.859,437.318c0,56.515,43.837,102.984,99.295,107.189c-162.284,2.432-293.093,134.719-293.093,297.58
		c0,164.382,133.258,297.64,297.64,297.64V544.749c1.215,0.041,2.434,0.069,3.658,0.069c59.271,0,107.5-48.223,107.5-107.5
		c0-59.274-48.228-107.5-107.5-107.5C344.082,329.818,295.859,378.043,295.859,437.318z"/>
</g>
</svg>
