<?xml version="1.0" encoding="utf-8"?>
<!-- Generator: Adobe Illustrator 16.0.0, SVG Export Plug-In . SVG Version: 6.00 Build 0)  -->
<!DOCTYPE svg PUBLIC "-//W3C//DTD SVG 1.1//EN" "http://www.w3.org/Graphics/SVG/1.1/DTD/svg11.dtd">
<svg version="1.1" id="Calque_1" xmlns="http://www.w3.org/2000/svg" xmlns:xlink="http://www.w3.org/1999/xlink" x="0px" y="0px"
	 width="1190.551px" height="1190.551px" viewBox="0 0 1190.551 1190.551" enable-background="new 0 0 1190.551 1190.551"
	 xml:space="preserve">
<g>
	<path fill="#010202" d="M798.483,102.209L594.961,0v474.082H472.089V253.676h-15.373h-107.5v-107.5V0H245.745v253.676H123.768
		C175.351,245.812,215,201.152,215,147.405c0-59.273-48.224-107.5-107.5-107.5C48.226,39.905,0,88.132,0,147.405
		c0,59.276,48.226,107.501,107.5,107.501c5.219,0,10.351-0.381,15.373-1.104v220.281H0V595.28h594.961v2.001l396.058-396.058
		v-99.014H798.483z"/>
	<path fill="#010202" d="M456.716,253.676c59.275,0,107.5-48.226,107.5-107.5c0-59.273-48.225-107.5-107.5-107.5
		c-59.274,0-107.5,48.226-107.5,107.5S397.443,253.676,456.716,253.676z"/>
</g>
</svg>
