<?xml version="1.0" encoding="utf-8"?>
<!-- Generator: Adobe Illustrator 16.0.0, SVG Export Plug-In . SVG Version: 6.00 Build 0)  -->
<!DOCTYPE svg PUBLIC "-//W3C//DTD SVG 1.1//EN" "http://www.w3.org/Graphics/SVG/1.1/DTD/svg11.dtd">
<svg version="1.1" id="Calque_1" xmlns="http://www.w3.org/2000/svg" xmlns:xlink="http://www.w3.org/1999/xlink" x="0px" y="0px"
	 width="1190.551px" height="1190.551px" viewBox="0 0 1190.551 1190.551" enable-background="new 0 0 1190.551 1190.551"
	 xml:space="preserve">
<g>
	<path fill="#010202" d="M407.101,463.471h122.873v253.676h102.998c-7.081,14.325-11.069,30.44-11.069,47.474
		c0,59.274,48.227,107.499,107.499,107.499c59.275,0,107.5-48.225,107.5-107.499c0-43.523-26.001-81.091-63.287-97.982
		c8.089,1.951,16.527,2.992,25.207,2.992c59.272,0,107.501-48.228,107.501-107.5c0-59.275-48.229-107.501-107.501-107.501
		c-15.09,0-29.46,3.131-42.505,8.769V243.065H879.19V121.867H284.229v121.197h122.872V463.471z M756.15,463.471
		c-38.106,16.546-64.828,54.538-64.828,98.659c0,43.523,26.002,81.09,63.289,97.983c-8.089-1.952-16.529-2.993-25.208-2.993
		c-41.865,0-78.214,24.06-95.957,59.076V463.471H756.15z"/>
	<polygon fill="#010202" points="386.438,672.625 386.438,865.162 284.229,1068.684 881.509,1068.684 485.451,672.625 	"/>
</g>
</svg>
