<?xml version="1.0" encoding="utf-8"?>
<!-- Generator: Adobe Illustrator 16.0.0, SVG Export Plug-In . SVG Version: 6.00 Build 0)  -->
<!DOCTYPE svg PUBLIC "-//W3C//DTD SVG 1.1//EN" "http://www.w3.org/Graphics/SVG/1.1/DTD/svg11.dtd">
<svg version="1.1" id="Calque_1" xmlns="http://www.w3.org/2000/svg" xmlns:xlink="http://www.w3.org/1999/xlink" x="0px" y="0px"
	 width="1190.551px" height="1190.551px" viewBox="0 0 1190.551 1190.551" enable-background="new 0 0 1190.551 1190.551"
	 xml:space="preserve">
<path fill="#010202" d="M407.58,430.52c16.229,9.844,35.256,15.518,55.584,15.518c59.273,0,107.5-48.229,107.5-107.501
	c0-48.564-32.374-89.701-76.669-102.987c6.82,1.362,13.869,2.082,21.084,2.082c59.274,0,107.5-48.224,107.5-107.5
	c0-59.271-48.226-107.5-107.5-107.5c-59.273,0-107.499,48.228-107.499,107.5c0,48.564,32.373,89.702,76.668,102.987
	c-6.821-1.362-13.87-2.082-21.084-2.082c-20.328,0-39.354,5.673-55.584,15.517V130.131V83.124h-99.213V0H174.293v166.249h-61.672
	v99.213H0v149.706h58.992V595.28H0c-0.001,164.383,133.257,297.642,297.639,297.642s297.64-133.26,297.64-297.642H407.58V430.52z
	 M311.048,246.693h96.302c-30.967,18.889-51.686,52.992-51.686,91.844c0,38.842,20.712,72.942,51.672,91.835h-96.289V246.693z"/>
</svg>
