<?xml version="1.0" encoding="utf-8"?>
<!-- Generator: Adobe Illustrator 16.0.0, SVG Export Plug-In . SVG Version: 6.00 Build 0)  -->
<!DOCTYPE svg PUBLIC "-//W3C//DTD SVG 1.1//EN" "http://www.w3.org/Graphics/SVG/1.1/DTD/svg11.dtd">
<svg version="1.1" id="Calque_1" xmlns="http://www.w3.org/2000/svg" xmlns:xlink="http://www.w3.org/1999/xlink" x="0px" y="0px"
	 width="1190.551px" height="1190.551px" viewBox="0 0 1190.551 1190.551" enable-background="new 0 0 1190.551 1190.551"
	 xml:space="preserve">
<path fill="#010202" d="M345.768,975.551c-33.59,0-63.63,15.493-83.358,39.704c22.472-41.864,35.23-89.72,35.23-140.56
	c0-128.262-81.132-237.569-194.874-279.416h130.521v-69.013c0.209,59.099,48.352,107.115,107.495,107.115
	c59.277,0,107.5-48.225,107.5-107.5c0-59.274-48.223-107.5-107.5-107.5c-16.38,0-31.914,3.689-45.823,10.271v-98.836H407.58V180.112
	h-58.992V0H0v164.908h96.532v183.679H0v163.568h99.213v81.86c-31.035-10.97-64.422-16.96-99.214-16.96v595.277
	c102.71,0.001,193.268-52.023,246.762-131.157c-5.467,12.876-8.494,27.028-8.494,41.875c0,59.273,48.228,107.5,107.5,107.5
	c59.276,0,107.5-48.227,107.5-107.5C453.268,1023.777,405.044,975.551,345.768,975.551z M294.157,429.031
	c-35.879,17.344-60.72,54.05-60.87,96.467v-96.467H294.157z"/>
</svg>
