<?xml version="1.0" encoding="utf-8"?>
<!-- Generator: Adobe Illustrator 16.0.0, SVG Export Plug-In . SVG Version: 6.00 Build 0)  -->
<!DOCTYPE svg PUBLIC "-//W3C//DTD SVG 1.1//EN" "http://www.w3.org/Graphics/SVG/1.1/DTD/svg11.dtd">
<svg version="1.1" id="Calque_1" xmlns="http://www.w3.org/2000/svg" xmlns:xlink="http://www.w3.org/1999/xlink" x="0px" y="0px"
	 width="1190.551px" height="1190.551px" viewBox="0 0 1190.551 1190.551" enable-background="new 0 0 1190.551 1190.551"
	 xml:space="preserve">
<g>
	<polygon fill="#010202" points="726.668,270.155 726.668,208.483 627.455,208.483 627.455,95.862 477.749,95.862 477.749,154.854 
		297.638,154.854 297.638,503.442 462.547,503.442 462.547,406.91 646.225,406.91 646.225,503.442 518.682,503.442 518.682,783.792 
		574.393,783.792 574.393,999.441 405.134,999.441 297.638,999.441 297.638,1094.688 723.55,1094.688 723.55,503.442 
		809.793,503.442 809.793,404.229 892.917,404.229 892.917,270.155 	"/>
	<path fill="#010202" d="M512.634,891.941c0-59.273-48.225-107.5-107.5-107.5c-59.271,0-107.5,48.225-107.5,107.5
		c0,59.274,48.228,107.5,107.5,107.5C464.41,999.441,512.634,951.218,512.634,891.941z"/>
	<path fill="#010202" d="M405.138,784.438c59.271,0,107.5-48.224,107.5-107.499c0-59.271-48.229-107.5-107.5-107.5
		c-59.274,0-107.5,48.228-107.5,107.5C297.638,736.216,345.864,784.438,405.138,784.438z"/>
</g>
</svg>
