<?xml version="1.0" encoding="utf-8"?>
<!-- Generator: Adobe Illustrator 16.0.0, SVG Export Plug-In . SVG Version: 6.00 Build 0)  -->
<!DOCTYPE svg PUBLIC "-//W3C//DTD SVG 1.1//EN" "http://www.w3.org/Graphics/SVG/1.1/DTD/svg11.dtd">
<svg version="1.1" id="Calque_1" xmlns="http://www.w3.org/2000/svg" xmlns:xlink="http://www.w3.org/1999/xlink" x="0px" y="0px"
	 width="1190.551px" height="1190.551px" viewBox="0 0 1190.551 1190.551" enable-background="new 0 0 1190.551 1190.551"
	 xml:space="preserve">
<g>
	<path fill="#010202" d="M512.156,308.366h83.124V174.293H429.031v-61.672h-99.213V0H180.112v58.991H0V407.58h164.772
		C95.462,462.075,50.947,546.685,50.947,641.694c0,164.382,133.259,297.64,297.641,297.64V730.085V515.388
		c0.167,59.133,48.327,107.191,107.495,107.191c59.277,0,107.5-48.225,107.5-107.499s-48.223-107.5-107.5-107.5
		c-59.167,0-107.328,48.056-107.495,107.192V407.58h107.495h56.073V308.366z M348.587,344.055
		c-69.312-0.001-133.089,23.691-183.678,63.418v-96.425h183.678V344.055z"/>
	<path fill="#010202" d="M456.087,837.585c59.274,0,107.5-48.229,107.5-107.5c0-59.277-48.226-107.5-107.5-107.5
		c-59.273,0-107.5,48.223-107.5,107.5C348.587,789.354,396.813,837.585,456.087,837.585z"/>
</g>
</svg>
