<?xml version="1.0" encoding="utf-8"?>
<!-- Generator: Adobe Illustrator 16.0.0, SVG Export Plug-In . SVG Version: 6.00 Build 0)  -->
<!DOCTYPE svg PUBLIC "-//W3C//DTD SVG 1.1//EN" "http://www.w3.org/Graphics/SVG/1.1/DTD/svg11.dtd">
<svg version="1.1" id="Calque_1" xmlns="http://www.w3.org/2000/svg" xmlns:xlink="http://www.w3.org/1999/xlink" x="0px" y="0px"
	 width="1190.551px" height="1190.551px" viewBox="0 0 1190.551 1190.551" enable-background="new 0 0 1190.551 1190.551"
	 xml:space="preserve">
<g>
	<polygon fill="#010202" points="310.898,221.044 310.898,276.755 95.247,276.755 95.247,169.251 95.247,0 0,0 0,425.914 0,590.823 
		96.532,590.823 96.532,774.502 0,774.502 0,938.07 99.213,938.07 99.213,1021.194 233.287,1021.194 233.287,854.945 
		294.959,854.945 294.959,755.732 407.58,755.732 407.58,606.026 348.588,606.026 348.588,425.914 591.246,425.914 591.246,221.044 
			"/>
	<path fill="#010202" d="M202.747,276.751c59.274,0,107.5-48.224,107.5-107.5c0-59.271-48.224-107.5-107.5-107.5
		c-59.274,0-107.5,48.228-107.5,107.5C95.247,228.528,143.473,276.751,202.747,276.751z"/>
	<path fill="#010202" d="M389.464,798.648c-59.271,0-107.5,48.225-107.5,107.5c0,59.271,48.229,107.5,107.5,107.5
		c59.275,0,107.5-48.227,107.5-107.5C496.964,846.872,448.74,798.648,389.464,798.648z"/>
</g>
</svg>
