<?xml version="1.0" encoding="utf-8"?>
<!-- Generator: Adobe Illustrator 16.0.0, SVG Export Plug-In . SVG Version: 6.00 Build 0)  -->
<!DOCTYPE svg PUBLIC "-//W3C//DTD SVG 1.1//EN" "http://www.w3.org/Graphics/SVG/1.1/DTD/svg11.dtd">
<svg version="1.1" id="Calque_1" xmlns="http://www.w3.org/2000/svg" xmlns:xlink="http://www.w3.org/1999/xlink" x="0px" y="0px"
	 width="1190.551px" height="1190.551px" viewBox="0 0 1190.551 1190.551" enable-background="new 0 0 1190.551 1190.551"
	 xml:space="preserve">
<g>
	<path fill="#010202" d="M668.535,601.217c19.461,19.438,46.315,31.475,75.928,31.473c59.275,0,107.5-48.228,107.5-107.5
		c0-59.275-48.225-107.5-107.5-107.5c-12.697,0-24.887,2.219-36.205,6.281c107.817-44.738,183.656-151.014,183.656-275.016H296.636
		c-0.001,130.549,84.053,241.456,200.99,281.584h-98.782v192.537L296.636,826.597h107.5h489.779L668.535,601.217z M594.275,446.595
		c37.691,0,73.738-7.023,106.925-19.805c-37.789,16.681-64.233,54.507-64.233,98.398c0,29.612,12.036,56.467,31.473,75.93
		L497.984,430.664C528.188,440.986,560.574,446.595,594.275,446.595z"/>
	<path fill="#010202" d="M404.136,826.597c-59.274,0-107.5,48.227-107.5,107.5c0,59.274,48.226,107.5,107.5,107.5
		c59.271,0,107.5-48.226,107.5-107.5C511.636,874.823,463.408,826.593,404.136,826.597z"/>
</g>
</svg>
