<?xml version="1.0" encoding="utf-8"?>
<!-- Generator: Adobe Illustrator 16.0.0, SVG Export Plug-In . SVG Version: 6.00 Build 0)  -->
<!DOCTYPE svg PUBLIC "-//W3C//DTD SVG 1.1//EN" "http://www.w3.org/Graphics/SVG/1.1/DTD/svg11.dtd">
<svg version="1.1" id="Calque_1" xmlns="http://www.w3.org/2000/svg" xmlns:xlink="http://www.w3.org/1999/xlink" x="0px" y="0px"
	 width="1190.551px" height="1190.551px" viewBox="0 0 1190.551 1190.551" enable-background="new 0 0 1190.551 1190.551"
	 xml:space="preserve">
<g>
	<path fill="#010202" d="M809.791,433.975h83.124V299.901H726.666v-61.672h-99.213V125.608H477.747V184.6H297.636v348.589h164.771
		c-69.31,54.495-113.825,139.104-113.825,234.114c0,164.382,133.26,297.64,297.642,297.64V855.693V640.996
		c0.167,59.133,48.327,107.191,107.494,107.191c59.277,0,107.5-48.225,107.5-107.499s-48.223-107.5-107.5-107.5
		c-59.166,0-107.327,48.056-107.494,107.192V533.188h107.494h56.073V433.975z M646.223,469.664
		c-69.312-0.001-133.089,23.691-183.678,63.418v-96.425h183.678V469.664z"/>
	<path fill="#010202" d="M753.723,963.193c59.273,0,107.5-48.229,107.5-107.5c0-59.277-48.227-107.5-107.5-107.5
		s-107.5,48.223-107.5,107.5C646.223,914.962,694.448,963.193,753.723,963.193z"/>
</g>
</svg>
