<?xml version="1.0" encoding="utf-8"?>
<!-- Generator: Adobe Illustrator 16.0.0, SVG Export Plug-In . SVG Version: 6.00 Build 0)  -->
<!DOCTYPE svg PUBLIC "-//W3C//DTD SVG 1.1//EN" "http://www.w3.org/Graphics/SVG/1.1/DTD/svg11.dtd">
<svg version="1.1" id="Calque_1" xmlns="http://www.w3.org/2000/svg" xmlns:xlink="http://www.w3.org/1999/xlink" x="0px" y="0px"
	 width="1190.551px" height="1190.551px" viewBox="0 0 1190.551 1190.551" enable-background="new 0 0 1190.551 1190.551"
	 xml:space="preserve">
<path fill="#010202" d="M496,534.688V425.914h95.246V0H0v204.87h88.42v164.908h96.532v183.679H88.42v163.568h99.213v82.499
	c-19.7-22.034-48.324-35.93-80.137-35.93c-59.271,0-107.5,48.223-107.5,107.5c0,59.275,48.228,107.5,107.5,107.5
	c59.276,0,107.5-48.225,107.5-107.5c0-27.162-10.132-52.001-26.809-70.945h133.52V633.901h61.67
	c-5.446,12.855-8.46,26.982-8.46,41.799c0,59.277,48.226,107.5,107.5,107.5c59.272,0,107.5-48.223,107.5-107.5
	c0-59.271-48.227-107.5-107.5-107.5c-44.456,0-82.696,27.127-99.038,65.696v-99.208H496z M280.349,204.87v-55.712H496v235.823
	h-58.992V204.87H280.349z"/>
</svg>
