<?xml version="1.0" encoding="utf-8"?>
<!-- Generator: Adobe Illustrator 16.0.0, SVG Export Plug-In . SVG Version: 6.00 Build 0)  -->
<!DOCTYPE svg PUBLIC "-//W3C//DTD SVG 1.1//EN" "http://www.w3.org/Graphics/SVG/1.1/DTD/svg11.dtd">
<svg version="1.1" id="Calque_1" xmlns="http://www.w3.org/2000/svg" xmlns:xlink="http://www.w3.org/1999/xlink" x="0px" y="0px"
	 width="1190.551px" height="1190.551px" viewBox="0 0 1190.551 1190.551" enable-background="new 0 0 1190.551 1190.551"
	 xml:space="preserve">
<path fill="#010202" d="M800.149,99.279h-204.87V0H0v595.278h107.5h266.734v95.104c-18.042-13.696-40.52-21.837-64.865-21.837
	c-44.567,0-82.883,27.263-99.156,65.984c3.11-10.04,4.787-20.703,4.787-31.752c0-59.272-48.224-107.504-107.5-107.5
	c-59.274,0-107.5,48.229-107.5,107.5c0,59.277,48.226,107.5,107.5,107.5c44.566,0,82.883-27.261,99.156-65.983
	c-3.11,10.039-4.787,20.703-4.787,31.751c0,59.274,48.223,107.5,107.5,107.5c59.274,0,107.504-48.226,107.5-107.5
	c0-34.844-16.67-65.864-42.448-85.521h425.728V99.279z M181,331.641v-68h414.278v68H181z M650.99,595.279h-55.712v-215.65h55.712
	V595.279z"/>
</svg>
