<?xml version="1.0" encoding="utf-8"?>
<!-- Generator: Adobe Illustrator 16.0.0, SVG Export Plug-In . SVG Version: 6.00 Build 0)  -->
<!DOCTYPE svg PUBLIC "-//W3C//DTD SVG 1.1//EN" "http://www.w3.org/Graphics/SVG/1.1/DTD/svg11.dtd">
<svg version="1.1" id="Calque_1" xmlns="http://www.w3.org/2000/svg" xmlns:xlink="http://www.w3.org/1999/xlink" x="0px" y="0px"
	 width="1190.551px" height="1190.551px" viewBox="0 0 1190.551 1190.551" enable-background="new 0 0 1190.551 1190.551"
	 xml:space="preserve">
<g>
	<path fill="#010202" d="M341.604,245.745V123.761C349.465,175.347,394.125,215,447.874,215c59.275,0,107.5-48.227,107.5-107.5
		c0-59.275-48.225-107.5-107.5-107.5c-59.273,0-107.499,48.225-107.499,107.5c0,5.219,0.381,10.351,1.104,15.373H121.198V0H0
		v594.962h121.198V472.09h220.404L68.419,745.274v99.014H107.5h153.455l203.521,102.209v-597.28L341.604,472.089V349.216h122.873
		H595.28V245.745H341.604z"/>
	<path fill="#010202" d="M0,951.787c0,59.276,48.226,107.5,107.5,107.5c59.273,0,107.5-48.224,107.5-107.5
		c0-59.272-48.227-107.5-107.5-107.5C48.226,844.287,0,892.515,0,951.787z"/>
</g>
</svg>
