<?xml version="1.0" encoding="utf-8"?>
<!-- Generator: Adobe Illustrator 16.0.0, SVG Export Plug-In . SVG Version: 6.00 Build 0)  -->
<!DOCTYPE svg PUBLIC "-//W3C//DTD SVG 1.1//EN" "http://www.w3.org/Graphics/SVG/1.1/DTD/svg11.dtd">
<svg version="1.1" id="Calque_1" xmlns="http://www.w3.org/2000/svg" xmlns:xlink="http://www.w3.org/1999/xlink" x="0px" y="0px"
	 width="1190.551px" height="1190.551px" viewBox="0 0 1190.551 1190.551" enable-background="new 0 0 1190.551 1190.551"
	 xml:space="preserve">
<g>
	<path fill="#010202" d="M512.639,744.533c0-59.275-48.227-107.498-107.5-107.498c-59.274,0-107.5,48.223-107.5,107.498
		c0,59.271,48.223,107.5,107.5,107.5C464.413,852.033,512.639,803.807,512.639,744.533z"/>
	<path fill="#010202" d="M617.637,851.994c0.832,0.02,1.666,0.031,2.502,0.031c59.272,0,107.5-48.223,107.5-107.5
		c0-59.166-48.061-107.328-107.192-107.496h84.772V472.122h-96.532V288.443h96.532V124.875h-99.214V41.75H471.932V208H410.26v99.213
		H297.639v149.706h58.992v180.113H619.83c-59.133,0.166-107.191,48.326-107.191,107.496c0,55.729,42.628,101.684,96.987,106.984
		c-4.756-0.227-9.537-0.352-14.349-0.352c-164.383,0-297.641,133.258-297.641,297.641h595.277
		C892.918,991.939,771.574,863.428,617.637,851.994z"/>
</g>
</svg>
