<?xml version="1.0" encoding="utf-8"?>
<!-- Generator: Adobe Illustrator 16.0.0, SVG Export Plug-In . SVG Version: 6.00 Build 0)  -->
<!DOCTYPE svg PUBLIC "-//W3C//DTD SVG 1.1//EN" "http://www.w3.org/Graphics/SVG/1.1/DTD/svg11.dtd">
<svg version="1.1" id="Calque_1" xmlns="http://www.w3.org/2000/svg" xmlns:xlink="http://www.w3.org/1999/xlink" x="0px" y="0px"
	 width="1190.551px" height="1190.551px" viewBox="0 0 1190.551 1190.551" enable-background="new 0 0 1190.551 1190.551"
	 xml:space="preserve">
<path fill="#010202" d="M425.913,690.527V595.28H233.287V429.031h61.672v-99.213H407.58V180.112h-58.992V0H0v164.909h96.532v183.678
	H0v163.568h99.213v83.124H0v591.247h204.87v-167.08V906.202c15.371,8.486,33.024,13.324,51.789,13.324
	c7.893,0,15.587-0.863,23-2.485c-43.329,13.873-74.79,54.533-74.79,102.405c0,59.275,48.226,107.5,107.5,107.5
	c59.272,0,107.5-48.225,107.5-107.5c0-59.271-48.228-107.5-107.5-107.5c-7.893,0-15.586,0.863-22.999,2.485
	c43.329-13.873,74.788-54.53,74.788-102.405c0-59.271-48.224-107.5-107.5-107.5c-59.275,0-107.5,48.227-107.5,107.5
	c0,40.494,22.508,75.824,55.667,94.151h-55.668V690.527H425.913z"/>
</svg>
