<?xml version="1.0" encoding="utf-8"?>
<!-- Generator: Adobe Illustrator 16.0.0, SVG Export Plug-In . SVG Version: 6.00 Build 0)  -->
<!DOCTYPE svg PUBLIC "-//W3C//DTD SVG 1.1//EN" "http://www.w3.org/Graphics/SVG/1.1/DTD/svg11.dtd">
<svg version="1.1" id="Calque_1" xmlns="http://www.w3.org/2000/svg" xmlns:xlink="http://www.w3.org/1999/xlink" x="0px" y="0px"
	 width="1190.551px" height="1190.551px" viewBox="0 0 1190.551 1190.551" enable-background="new 0 0 1190.551 1190.551"
	 xml:space="preserve">
<path fill="#010202" d="M591.246,425.914v-204.87H310.898v55.711H202.743H95.247V169.563
	c0.167,59.133,48.327,107.192,107.496,107.192c59.276,0,107.5-48.226,107.5-107.5c0-9.693-1.297-19.088-3.714-28.028
	C320.709,184.031,361.107,215,408.604,215c59.277,0,107.5-48.226,107.5-107.5c0-59.272-48.223-107.5-107.5-107.5
	c-59.27,0-107.5,48.227-107.5,107.5c0,9.692,1.297,19.086,3.714,28.025c-14.18-42.803-54.576-73.771-102.074-73.771
	c-59.167,0-107.329,48.056-107.496,107.192V0H0v425.914h174.293v166.249h-61.672v99.214H0v149.704h58.992v180.112H407.58V856.284
	h-96.532V672.607h96.532V509.038h-99.213v-83.124H591.246z"/>
</svg>
