<?xml version="1.0" encoding="utf-8"?>
<!-- Generator: Adobe Illustrator 16.0.0, SVG Export Plug-In . SVG Version: 6.00 Build 0)  -->
<!DOCTYPE svg PUBLIC "-//W3C//DTD SVG 1.1//EN" "http://www.w3.org/Graphics/SVG/1.1/DTD/svg11.dtd">
<svg version="1.1" id="Calque_1" xmlns="http://www.w3.org/2000/svg" xmlns:xlink="http://www.w3.org/1999/xlink" x="0px" y="0px"
	 width="1190.551px" height="1190.551px" viewBox="0 0 1190.551 1190.551" enable-background="new 0 0 1190.551 1190.551"
	 xml:space="preserve">
<g>
	<path fill="#010202" d="M705.939,205.999c19.645,21.155,47.679,34.417,78.755,34.417c59.274,0,107.499-48.228,107.499-107.5
		c0-59.276-48.225-107.5-107.5-107.5c-59.272,0-107.499,48.224-107.499,107.5c0,27.962,10.737,53.465,28.302,72.607h-58.549V25.412
		H298.359V190.32h96.532v183.679h-96.532v163.568h99.213v83.124h134.074V454.443h61.672V355.23h108.398h4.223V205.999
		L705.939,205.999z"/>
	<path fill="#010202" d="M594.217,462.73c0,56.515,43.837,102.984,99.295,107.189c-162.283,2.432-293.093,134.719-293.093,297.58
		c0,164.382,133.258,297.64,297.641,297.64V570.161c1.215,0.041,2.434,0.069,3.657,0.069c59.271,0,107.5-48.223,107.5-107.5
		c0-59.274-48.228-107.5-107.5-107.5C642.441,355.23,594.217,403.455,594.217,462.73z"/>
</g>
</svg>
