<?xml version="1.0" encoding="utf-8"?>
<!-- Generator: Adobe Illustrator 16.0.0, SVG Export Plug-In . SVG Version: 6.00 Build 0)  -->
<!DOCTYPE svg PUBLIC "-//W3C//DTD SVG 1.1//EN" "http://www.w3.org/Graphics/SVG/1.1/DTD/svg11.dtd">
<svg version="1.1" id="Calque_1" xmlns="http://www.w3.org/2000/svg" xmlns:xlink="http://www.w3.org/1999/xlink" x="0px" y="0px"
	 width="1190.551px" height="1190.551px" viewBox="0 0 1190.551 1190.551" enable-background="new 0 0 1190.551 1190.551"
	 xml:space="preserve">
<path fill="#010202" d="M935.813,637.88L842.688,49.93L254.74,143.052l93.122,587.95l-93.123,14.75L286.788,948.1l132.086-20.921
	c-10.398,1.781-20.703,5.136-30.584,10.171c-52.816,26.911-73.89,91.772-46.979,144.587c26.91,52.813,91.771,73.892,144.588,46.979
	c45.513-23.189,67.453-74.567,55.428-122.127c15.349,50.486,66.083,83.321,119.647,74.839
	c58.545-9.273,98.633-64.446,89.359-122.993c-9.271-58.546-64.447-98.637-122.992-89.361c-25.615,4.059-47.694,16.9-63.655,34.969
	l-8.715-55.025l212.997-33.735l43.293,273.35l94.074-14.901l-66.627-420.67L935.813,637.88z M543.447,280.583l67.163-10.638
	l64.809,409.178l-67.164,10.638L543.447,280.583z M563.684,904.242c-20.52,23.229-30.921,55.096-25.706,88.024
	c0.517,3.257,1.183,6.454,1.975,9.591c-1.811-5.94-4.161-11.806-7.077-17.527c-21.441-42.08-66.976-64.012-111.312-57.577
	L563.684,904.242z"/>
</svg>
