<?xml version="1.0" encoding="utf-8"?>
<!-- Generator: Adobe Illustrator 16.0.0, SVG Export Plug-In . SVG Version: 6.00 Build 0)  -->
<!DOCTYPE svg PUBLIC "-//W3C//DTD SVG 1.1//EN" "http://www.w3.org/Graphics/SVG/1.1/DTD/svg11.dtd">
<svg version="1.1" id="Calque_1" xmlns="http://www.w3.org/2000/svg" xmlns:xlink="http://www.w3.org/1999/xlink" x="0px" y="0px"
	 width="1190.551px" height="1190.551px" viewBox="0 0 1190.551 1190.551" enable-background="new 0 0 1190.551 1190.551"
	 xml:space="preserve">
<g>
	<path fill="#010202" d="M898.248,398.844L694.727,296.635v474.082H571.855V550.311h-15.373h-107.5v-107.5V296.635H345.511v253.676
		H223.534c51.583-7.864,91.232-52.524,91.232-106.271c0-59.273-48.225-107.5-107.5-107.5c-59.274,0-107.5,48.227-107.5,107.5
		c0,59.276,48.226,107.501,107.5,107.501c5.219,0,10.351-0.381,15.373-1.104v220.281H99.766v121.197h594.96v2.001l396.059-396.058
		v-99.014H898.248z"/>
	<path fill="#010202" d="M556.482,550.311c59.274,0,107.5-48.226,107.5-107.5c0-59.273-48.227-107.5-107.5-107.5
		c-59.274,0-107.5,48.226-107.5,107.5C448.982,502.085,497.209,550.311,556.482,550.311z"/>
</g>
</svg>
