<?xml version="1.0" encoding="utf-8"?>
<!-- Generator: Adobe Illustrator 16.0.0, SVG Export Plug-In . SVG Version: 6.00 Build 0)  -->
<!DOCTYPE svg PUBLIC "-//W3C//DTD SVG 1.1//EN" "http://www.w3.org/Graphics/SVG/1.1/DTD/svg11.dtd">
<svg version="1.1" id="Calque_1" xmlns="http://www.w3.org/2000/svg" xmlns:xlink="http://www.w3.org/1999/xlink" x="0px" y="0px"
	 width="1190.551px" height="1190.551px" viewBox="0 0 1190.551 1190.551" enable-background="new 0 0 1190.551 1190.551"
	 xml:space="preserve">
<path fill="#010202" d="M892.915,444.45V95.862h-164.91v96.532H544.328V95.862H380.76v99.213h-83.124v134.074h166.249v61.672h99.213
	v112.621H297.636v591.246h204.87V927.92c0.167,59.133,48.326,107.192,107.496,107.192c59.275,0,107.5-48.227,107.5-107.5
	s-48.225-107.5-107.5-107.5c-7.892,0-15.582,0.862-22.993,2.484c43.325-13.875,74.78-54.532,74.78-102.403
	c0-59.273-48.223-107.5-107.5-107.5c-59.167,0-107.328,48.057-107.495,107.192V598.689h276.754v-95.247h-10.744V444.45H892.915z
	 M502.506,927.306V814.371c15.369,8.485,33.021,13.322,51.783,13.322c7.893,0,15.585-0.862,22.998-2.484
	C534.056,839.055,502.641,879.568,502.506,927.306z M502.45,814.341h-55.655v-93.84C446.908,760.861,469.381,796.059,502.45,814.341
	z"/>
</svg>
