<?xml version="1.0" encoding="utf-8"?>
<!-- Generator: Adobe Illustrator 16.0.0, SVG Export Plug-In . SVG Version: 6.00 Build 0)  -->
<!DOCTYPE svg PUBLIC "-//W3C//DTD SVG 1.1//EN" "http://www.w3.org/Graphics/SVG/1.1/DTD/svg11.dtd">
<svg version="1.1" id="Calque_1" xmlns="http://www.w3.org/2000/svg" xmlns:xlink="http://www.w3.org/1999/xlink" x="0px" y="0px"
	 width="1190.551px" height="1190.551px" viewBox="0 0 1190.551 1190.551" enable-background="new 0 0 1190.551 1190.551"
	 xml:space="preserve">
<g>
	<path fill="#010202" d="M405.14,595.279H297.641H0l183.473,183.474c-19.465-19.462-46.338-31.517-75.973-31.517
		c-59.274,0-107.504,48.225-107.5,107.5c0,59.275,48.227,107.5,107.5,107.5c59.275,0,107.5-48.225,107.5-107.5
		c0-29.634-12.054-56.507-31.516-75.972l212.574,212.575h99.014V798.802L597.28,595.279H405.14z"/>
	<path fill="#010202" d="M405.14,595.279c59.273,0,107.504-48.227,107.5-107.5c0-59.273-48.228-107.5-107.5-107.5
		c-59.25,0-107.457,48.185-107.499,107.423V0C133.258-0.001,0,133.257,0,297.639s133.258,297.64,297.641,297.64V487.856
		C297.683,547.094,345.889,595.279,405.14,595.279z"/>
</g>
</svg>
