<?xml version="1.0" encoding="utf-8"?>
<!-- Generator: Adobe Illustrator 16.0.0, SVG Export Plug-In . SVG Version: 6.00 Build 0)  -->
<!DOCTYPE svg PUBLIC "-//W3C//DTD SVG 1.1//EN" "http://www.w3.org/Graphics/SVG/1.1/DTD/svg11.dtd">
<svg version="1.1" id="Calque_1" xmlns="http://www.w3.org/2000/svg" xmlns:xlink="http://www.w3.org/1999/xlink" x="0px" y="0px"
	 width="1190.551px" height="1190.551px" viewBox="0 0 1190.551 1190.551" enable-background="new 0 0 1190.551 1190.551"
	 xml:space="preserve">
<g>
	<path fill="#010202" d="M591.246,425.914v-204.87H310.898v55.712h-108.15h-107.5v-107.5V0H0v425.914v595.278h595.278V425.914
		H591.246z M331.641,840.193h-68V425.914h68V840.193z"/>
	<path fill="#010202" d="M202.747,276.756c59.274,0,107.5-48.224,107.5-107.5c0-9.693-1.297-19.088-3.714-28.028
		C320.713,184.031,361.109,215,408.608,215c59.273,0,107.504-48.227,107.5-107.5c0-59.274-48.229-107.5-107.5-107.5
		c-59.276,0-107.5,48.226-107.5,107.5c0,9.693,1.297,19.087,3.714,28.026c-14.18-42.804-54.576-73.773-102.074-73.771
		c-59.274,0-107.5,48.228-107.5,107.5C95.247,228.532,143.473,276.756,202.747,276.756z"/>
</g>
</svg>
