<?xml version="1.0" encoding="utf-8"?>
<!-- Generator: Adobe Illustrator 16.0.0, SVG Export Plug-In . SVG Version: 6.00 Build 0)  -->
<!DOCTYPE svg PUBLIC "-//W3C//DTD SVG 1.1//EN" "http://www.w3.org/Graphics/SVG/1.1/DTD/svg11.dtd">
<svg version="1.1" id="Calque_1" xmlns="http://www.w3.org/2000/svg" xmlns:xlink="http://www.w3.org/1999/xlink" x="0px" y="0px"
	 width="1190.551px" height="1190.551px" viewBox="0 0 1190.551 1190.551" enable-background="new 0 0 1190.551 1190.551"
	 xml:space="preserve">
<path fill="#010202" d="M795.655,640.666V531.893h95.246V105.979H299.655v204.87h88.42v164.908h96.532v183.679h-96.532v163.568
	h99.213v82.499c-19.7-22.034-48.324-35.931-80.137-35.931c-59.271,0-107.5,48.224-107.5,107.5c0,59.275,48.228,107.5,107.5,107.5
	c59.275,0,107.5-48.225,107.5-107.5c0-27.162-10.133-52.001-26.81-70.944h133.52V739.88h61.67
	c-5.445,12.854-8.459,26.981-8.459,41.799c0,59.276,48.225,107.5,107.5,107.5c59.271,0,107.498-48.224,107.498-107.5
	c0-59.271-48.227-107.5-107.5-107.5c-44.455,0-82.695,27.127-99.037,65.696v-99.209H795.655z M580.004,310.849v-55.712h215.651
	v235.823h-58.992V310.849H580.004z"/>
</svg>
