<?xml version="1.0" encoding="utf-8"?>
<!-- Generator: Adobe Illustrator 16.0.0, SVG Export Plug-In . SVG Version: 6.00 Build 0)  -->
<!DOCTYPE svg PUBLIC "-//W3C//DTD SVG 1.1//EN" "http://www.w3.org/Graphics/SVG/1.1/DTD/svg11.dtd">
<svg version="1.1" id="Calque_1" xmlns="http://www.w3.org/2000/svg" xmlns:xlink="http://www.w3.org/1999/xlink" x="0px" y="0px"
	 width="1190.551px" height="1190.551px" viewBox="0 0 1190.551 1190.551" enable-background="new 0 0 1190.551 1190.551"
	 xml:space="preserve">
<path fill="#010202" d="M296.636,1081.938h597.28l-352.419-352.42c19.463,19.438,46.317,31.477,75.933,31.475
	c59.273,0,107.5-48.227,107.5-107.5c0-59.275-48.227-107.5-107.5-107.5c-33.258,0-63.037,15.183-82.771,38.98
	c37.43-49.769,59.618-111.65,59.618-178.718c0-49.623-12.16-96.399-33.637-137.539c18.446,32.737,53.542,54.899,93.719,54.899
	c59.275,0,107.5-48.226,107.5-107.5c0-59.272-48.225-107.5-107.5-107.5c-59.273,0-107.503,48.227-107.5,107.5
	c0,17.167,4.052,33.403,11.239,47.813c-50.478-92.532-148.637-155.314-261.464-155.314v595.278c35.91,0,70.334-6.36,102.209-18.014
	v192.536L296.636,1081.938z M530.108,590.865c-12.693,17.647-20.18,39.278-20.18,62.627c0,29.611,12.037,56.469,31.475,75.93
	l-43.545-43.544h-99.012C450.977,666.818,496.278,633.591,530.108,590.865z"/>
</svg>
