<?xml version="1.0" encoding="utf-8"?>
<!-- Generator: Adobe Illustrator 16.0.0, SVG Export Plug-In . SVG Version: 6.00 Build 0)  -->
<!DOCTYPE svg PUBLIC "-//W3C//DTD SVG 1.1//EN" "http://www.w3.org/Graphics/SVG/1.1/DTD/svg11.dtd">
<svg version="1.1" id="Calque_1" xmlns="http://www.w3.org/2000/svg" xmlns:xlink="http://www.w3.org/1999/xlink" x="0px" y="0px"
	 width="1190.551px" height="1190.551px" viewBox="0 0 1190.551 1190.551" enable-background="new 0 0 1190.551 1190.551"
	 xml:space="preserve">
<path fill="#010202" d="M880.537,473.945V125.357h-164.91v96.532H531.95v-96.532H368.382v99.213h-83.124v134.074h166.249v61.672
	h99.213v112.621h149.707v221.355h55.711v215.652H479.515c13.033-17.786,20.742-39.706,20.742-63.396
	c0-59.167-48.058-107.329-107.192-107.496c59.133-0.167,107.192-48.326,107.192-107.496c0-59.276-48.227-107.5-107.5-107.5
	c-59.272,0-107.5,48.224-107.5,107.5c0,59.167,48.06,107.328,107.191,107.495c-59.133,0.168-107.191,48.327-107.191,107.497
	c0,59.276,48.226,107.5,107.5,107.5c35.503,0,67.037-17.306,86.624-43.918v95.062h425.912V473.945H880.537z"/>
</svg>
