<?xml version="1.0" encoding="utf-8"?>
<!-- Generator: Adobe Illustrator 16.0.0, SVG Export Plug-In . SVG Version: 6.00 Build 0)  -->
<!DOCTYPE svg PUBLIC "-//W3C//DTD SVG 1.1//EN" "http://www.w3.org/Graphics/SVG/1.1/DTD/svg11.dtd">
<svg version="1.1" id="Calque_1" xmlns="http://www.w3.org/2000/svg" xmlns:xlink="http://www.w3.org/1999/xlink" x="0px" y="0px"
	 width="1190.551px" height="1190.551px" viewBox="0 0 1190.551 1190.551" enable-background="new 0 0 1190.551 1190.551"
	 xml:space="preserve">
<g>
	<polygon fill="#010202" points="892.914,348.32 892.914,84.679 297.636,84.679 297.636,679.957 297.636,1105.872 888.881,1105.872 
		888.881,901.002 608.533,901.002 608.533,956.713 500.384,956.713 392.884,956.713 392.884,849.213 392.884,679.957 
		706.244,679.957 892.914,679.957 892.914,416.32 478.636,416.32 478.636,348.32 	"/>
	<path fill="#010202" d="M598.744,787.458c0,9.692,1.297,19.087,3.713,28.026c-14.179-42.804-54.575-73.773-102.073-73.771
		c-59.274,0-107.5,48.229-107.5,107.5c0,59.276,48.226,107.5,107.5,107.5c59.273,0,107.5-48.224,107.5-107.5
		c0-9.693-1.297-19.088-3.715-28.027c14.18,42.803,54.574,73.771,102.074,73.771c59.273,0,107.504-48.227,107.5-107.5
		c0-59.273-48.229-107.501-107.5-107.501C646.967,679.957,598.744,728.184,598.744,787.458z"/>
</g>
</svg>
