<?xml version="1.0" encoding="utf-8"?>
<!-- Generator: Adobe Illustrator 16.0.0, SVG Export Plug-In . SVG Version: 6.00 Build 0)  -->
<!DOCTYPE svg PUBLIC "-//W3C//DTD SVG 1.1//EN" "http://www.w3.org/Graphics/SVG/1.1/DTD/svg11.dtd">
<svg version="1.1" id="Calque_1" xmlns="http://www.w3.org/2000/svg" xmlns:xlink="http://www.w3.org/1999/xlink" x="0px" y="0px"
	 width="1190.551px" height="1190.551px" viewBox="0 0 1190.551 1190.551" enable-background="new 0 0 1190.551 1190.551"
	 xml:space="preserve">
<path fill="#010202" d="M769.673,615.156c-59.272,0-107.502,48.223-107.498,107.5c0,29.631,12.052,56.502,31.512,75.967
	c-19.465-19.461-46.335-31.514-75.969-31.514c-29.602,0-56.446,12.029-75.906,31.451l151.885-151.885v-99.014H501.159
	L297.64,445.456h595.274c0.003-164.383-133.255-297.641-297.637-297.641c-164.383,0-297.641,133.258-297.641,297.641h0.001v597.28
	l244.028-244.031c-19.423,19.461-31.45,46.307-31.447,75.904c0,59.275,48.226,107.5,107.499,107.5
	c59.275,0,107.499-48.225,107.499-107.5c0-29.629-12.052-56.5-31.511-75.965c19.466,19.459,46.335,31.512,75.967,31.512
	c59.276,0,107.5-48.227,107.5-107.5C877.173,663.382,828.95,615.156,769.673,615.156z"/>
</svg>
