<?xml version="1.0" encoding="utf-8"?>
<!-- Generator: Adobe Illustrator 16.0.0, SVG Export Plug-In . SVG Version: 6.00 Build 0)  -->
<!DOCTYPE svg PUBLIC "-//W3C//DTD SVG 1.1//EN" "http://www.w3.org/Graphics/SVG/1.1/DTD/svg11.dtd">
<svg version="1.1" id="Calque_1" xmlns="http://www.w3.org/2000/svg" xmlns:xlink="http://www.w3.org/1999/xlink" x="0px" y="0px"
	 width="1190.551px" height="1190.551px" viewBox="0 0 1190.551 1190.551" enable-background="new 0 0 1190.551 1190.551"
	 xml:space="preserve">
<g>
	<path fill="#010202" d="M891.914,694.727V99.766H770.717v122.872H550.311v122.873H296.635v103.471h253.676v122.873h220.406v122.872
		H404.213c59.239-0.041,107.423-48.25,107.423-107.499c0-59.274-48.226-107.501-107.5-107.501s-107.5,48.227-107.5,107.501
		c0,59.249,48.185,107.458,107.423,107.499H296.635l183.478,183.479l212.581,212.58h99.014V898.25l102.209-203.521h-2.002V694.727z"
		/>
	<path fill="#010202" d="M296.635,954.182c0,59.275,48.225,107.5,107.5,107.5c59.272,0,107.5-48.223,107.5-107.5
		c0-29.637-12.058-56.512-31.522-75.979c-19.465-19.465-46.341-31.521-75.978-31.521
		C344.86,846.682,296.635,894.908,296.635,954.182z"/>
</g>
</svg>
