<?xml version="1.0" encoding="utf-8"?>
<!-- Generator: Adobe Illustrator 16.0.0, SVG Export Plug-In . SVG Version: 6.00 Build 0)  -->
<!DOCTYPE svg PUBLIC "-//W3C//DTD SVG 1.1//EN" "http://www.w3.org/Graphics/SVG/1.1/DTD/svg11.dtd">
<svg version="1.1" id="Calque_1" xmlns="http://www.w3.org/2000/svg" xmlns:xlink="http://www.w3.org/1999/xlink" x="0px" y="0px"
	 width="1190.551px" height="1190.551px" viewBox="0 0 1190.551 1190.551" enable-background="new 0 0 1190.551 1190.551"
	 xml:space="preserve">
<g>
	<path fill="#010202" d="M595.28,594.961V0H474.082v122.872H253.676v122.873H0v103.471h253.676v122.873h220.406v122.872H107.577
		C166.817,594.919,215,546.71,215,487.462c0-59.274-48.225-107.501-107.5-107.501C48.226,379.961,0,428.188,0,487.462
		c0,59.248,48.185,107.457,107.423,107.499H0l396.058,396.058h99.014V798.483l102.209-203.521H595.28z"/>
	<path fill="#010202" d="M107.5,746.917c-59.274,0-107.5,48.226-107.5,107.5c0,59.275,48.223,107.5,107.5,107.5
		c59.274,0,107.5-48.226,107.5-107.5S166.775,746.917,107.5,746.917z"/>
</g>
</svg>
