<?xml version="1.0" encoding="utf-8"?>
<!-- Generator: Adobe Illustrator 16.0.0, SVG Export Plug-In . SVG Version: 6.00 Build 0)  -->
<!DOCTYPE svg PUBLIC "-//W3C//DTD SVG 1.1//EN" "http://www.w3.org/Graphics/SVG/1.1/DTD/svg11.dtd">
<svg version="1.1" id="Calque_1" xmlns="http://www.w3.org/2000/svg" xmlns:xlink="http://www.w3.org/1999/xlink" x="0px" y="0px"
	 width="1190.551px" height="1190.551px" viewBox="0 0 1190.551 1190.551" enable-background="new 0 0 1190.551 1190.551"
	 xml:space="preserve">
<path fill="#010202" d="M719.713,589.115c-28.113,0-53.735,10.852-72.911,28.581c18.688-19.35,30.206-45.668,30.206-74.629
	c0-59.275-48.226-107.5-107.5-107.5s-107.5,48.225-107.5,107.5c0,38.234,20.068,71.867,50.223,90.932
	c-43.341-24.641-93.466-38.727-146.885-38.727l394.05-394.049v-99.014H566.859L363.337,0v597.281l2.008-2.009v595.278
	c164.383,0,297.641-133.256,297.641-297.639c0-51.254-12.958-99.48-35.771-141.586c18.748,31.574,53.189,52.787,92.499,52.787
	c59.273,0,107.504-48.227,107.5-107.5C827.213,637.338,778.987,589.115,719.713,589.115z M518.69,637.775
	c15.142,8.156,32.448,12.793,50.818,12.791c28.113,0,53.734-10.854,72.91-28.582c-18.688,19.35-30.205,45.668-30.205,74.631
	c0,17.848,4.377,34.689,12.106,49.52C599.009,701.57,562.533,664.182,518.69,637.775z"/>
</svg>
