<?xml version="1.0" encoding="utf-8"?>
<!-- Generator: Adobe Illustrator 16.0.0, SVG Export Plug-In . SVG Version: 6.00 Build 0)  -->
<!DOCTYPE svg PUBLIC "-//W3C//DTD SVG 1.1//EN" "http://www.w3.org/Graphics/SVG/1.1/DTD/svg11.dtd">
<svg version="1.1" id="Calque_1" xmlns="http://www.w3.org/2000/svg" xmlns:xlink="http://www.w3.org/1999/xlink" x="0px" y="0px"
	 width="1190.551px" height="1190.551px" viewBox="0 0 1190.551 1190.551" enable-background="new 0 0 1190.551 1190.551"
	 xml:space="preserve">
<g>
	<polygon fill="#010202" points="384.47,-0.001 229.508,213.286 564.666,456.793 524.696,511.808 189.539,268.299 34.573,481.591 
		516.164,831.486 866.061,349.895 	"/>
	<polygon fill="#010202" points="564.734,764.636 564.734,969.506 845.085,969.506 845.085,913.794 1060.734,913.794 
		1060.734,1190.55 1155.981,1190.55 1155.981,764.636 	"/>
	<path fill="#010202" d="M119.733,977.89c-57.98,12.324-95.124,69.521-82.801,127.501c12.324,57.979,69.521,95.125,127.501,82.8
		c57.979-12.322,95.129-69.521,82.801-127.502C234.909,1002.71,177.71,965.565,119.733,977.89z"/>
	<path fill="#010202" d="M206.52,235.971c47.954-34.84,58.625-102.2,23.782-150.156C195.462,37.862,128.098,27.19,80.146,62.032
		C32.192,96.873,21.525,164.237,56.364,212.189C91.205,260.145,158.566,270.813,206.52,235.971z"/>
</g>
</svg>
