<?xml version="1.0" encoding="utf-8"?>
<!-- Generator: Adobe Illustrator 16.0.0, SVG Export Plug-In . SVG Version: 6.00 Build 0)  -->
<!DOCTYPE svg PUBLIC "-//W3C//DTD SVG 1.1//EN" "http://www.w3.org/Graphics/SVG/1.1/DTD/svg11.dtd">
<svg version="1.1" id="Calque_1" xmlns="http://www.w3.org/2000/svg" xmlns:xlink="http://www.w3.org/1999/xlink" x="0px" y="0px"
	 width="1190.551px" height="1190.551px" viewBox="0 0 1190.551 1190.551" enable-background="new 0 0 1190.551 1190.551"
	 xml:space="preserve">
<path fill="#010202" d="M356.376,589.114c-28.113,0-53.735,10.853-72.911,28.581c18.689-19.35,30.206-45.668,30.206-74.629
	c0-59.275-48.225-107.5-107.5-107.5c-59.274,0-107.5,48.225-107.5,107.5c0,38.234,20.069,71.868,50.223,90.931
	c-43.341-24.641-93.466-38.726-146.885-38.726l394.05-394.049v-99.014H203.522L0,0V597.28l2.008-2.008v595.278
	c164.383,0.001,297.641-133.256,297.641-297.639c0-51.253-12.958-99.479-35.771-141.585c18.748,31.574,53.19,52.787,92.499,52.787
	c59.274,0,107.504-48.226,107.5-107.5C463.876,637.338,415.65,589.114,356.376,589.114z M155.353,637.774
	c15.141,8.157,32.448,12.793,50.818,12.791c28.113,0,53.735-10.853,72.91-28.582c-18.688,19.35-30.205,45.669-30.205,74.631
	c0,17.848,4.377,34.69,12.107,49.52C235.672,701.57,199.197,664.182,155.353,637.774z"/>
</svg>
