<?xml version="1.0" encoding="utf-8"?>
<!-- Generator: Adobe Illustrator 16.0.0, SVG Export Plug-In . SVG Version: 6.00 Build 0)  -->
<!DOCTYPE svg PUBLIC "-//W3C//DTD SVG 1.1//EN" "http://www.w3.org/Graphics/SVG/1.1/DTD/svg11.dtd">
<svg version="1.1" id="Calque_1" xmlns="http://www.w3.org/2000/svg" xmlns:xlink="http://www.w3.org/1999/xlink" x="0px" y="0px"
	 width="1190.551px" height="1190.551px" viewBox="0 0 1190.551 1190.551" enable-background="new 0 0 1190.551 1190.551"
	 xml:space="preserve">
<path fill="#010202" d="M296.636,1081.938h597.28l-396.058-396.06h-99.012c52.117-19.056,97.409-52.271,131.235-94.982
	c-12.679,17.641-20.155,39.26-20.153,62.596c0,59.273,48.227,107.498,107.5,107.498c59.275,0,107.498-48.225,107.498-107.498
	c0-59.274-48.223-107.5-107.498-107.5c-33.244,0-63.012,15.17-82.747,38.951c37.415-49.764,59.595-111.634,59.595-178.688
	c0-49.62-12.158-96.394-33.633-137.532c18.448,32.735,53.542,54.895,93.716,54.893c59.275,0,107.5-48.227,107.5-107.5
	c0-59.276-48.225-107.501-107.5-107.501c-59.271,0-107.5,48.225-107.5,107.5c0,17.166,4.052,33.401,11.238,47.811
	c-50.478-92.531-148.637-155.312-261.463-155.312v595.278c35.91,0,70.334-6.36,102.209-18.014v192.536L296.636,1081.938z"/>
</svg>
