<?xml version="1.0" encoding="utf-8"?>
<!-- Generator: Adobe Illustrator 16.0.0, SVG Export Plug-In . SVG Version: 6.00 Build 0)  -->
<!DOCTYPE svg PUBLIC "-//W3C//DTD SVG 1.1//EN" "http://www.w3.org/Graphics/SVG/1.1/DTD/svg11.dtd">
<svg version="1.1" id="Calque_1" xmlns="http://www.w3.org/2000/svg" xmlns:xlink="http://www.w3.org/1999/xlink" x="0px" y="0px"
	 width="1190.551px" height="1190.551px" viewBox="0 0 1190.551 1190.551" enable-background="new 0 0 1190.551 1190.551"
	 xml:space="preserve">
<path fill="#010202" d="M472.036,467.342c-59.273,0-107.503,48.222-107.499,107.5c0,29.631,12.052,56.502,31.512,75.967
	c-19.465-19.461-46.335-31.514-75.969-31.514c-29.601,0-56.446,12.028-75.906,31.451l151.885-151.885v-99.014H203.522L0.002,297.641
	h595.275C595.28,133.258,462.022,0,297.64,0C133.257,0-0.001,133.258-0.001,297.641H0v597.28l244.029-244.03
	c-19.423,19.46-31.451,46.305-31.448,75.904c0,59.275,48.226,107.5,107.499,107.5c59.276,0,107.5-48.225,107.5-107.5
	c0-29.63-12.052-56.501-31.511-75.966c19.465,19.46,46.335,31.513,75.967,31.513c59.276,0,107.5-48.227,107.5-107.5
	C579.536,515.567,531.313,467.342,472.036,467.342z"/>
</svg>
