<?xml version="1.0" encoding="utf-8"?>
<!-- Generator: Adobe Illustrator 16.0.0, SVG Export Plug-In . SVG Version: 6.00 Build 0)  -->
<!DOCTYPE svg PUBLIC "-//W3C//DTD SVG 1.1//EN" "http://www.w3.org/Graphics/SVG/1.1/DTD/svg11.dtd">
<svg version="1.1" id="Calque_1" xmlns="http://www.w3.org/2000/svg" xmlns:xlink="http://www.w3.org/1999/xlink" x="0px" y="0px"
	 width="1190.551px" height="1190.551px" viewBox="0 0 1190.551 1190.551" enable-background="new 0 0 1190.551 1190.551"
	 xml:space="preserve">
<path fill="#010202" d="M995.35,252.782H790.48v-99.279H195.201v595.278h107.5h266.733v95.104
	c-18.042-13.696-40.52-21.837-64.864-21.837c-44.562,0-82.875,27.258-99.152,65.973c3.108-10.035,4.784-20.695,4.783-31.739
	c0-59.273-48.229-107.5-107.5-107.5c-59.276,0-107.5,48.227-107.5,107.5c0,59.274,48.224,107.5,107.5,107.5
	c44.56,0,82.876-27.255,99.152-65.972c-3.106,10.036-4.783,20.695-4.783,31.738c0,59.274,48.224,107.5,107.5,107.5
	c59.272,0,107.503-48.225,107.5-107.5c0-34.844-16.67-65.864-42.448-85.521H995.35V252.782L995.35,252.782z M376.201,485.144v-68
	h414.277v68H376.201z M846.191,748.781h-55.712V533.132h55.712V748.781z"/>
</svg>
