<?xml version="1.0" encoding="utf-8"?>
<!-- Generator: Adobe Illustrator 16.0.0, SVG Export Plug-In . SVG Version: 6.00 Build 0)  -->
<!DOCTYPE svg PUBLIC "-//W3C//DTD SVG 1.1//EN" "http://www.w3.org/Graphics/SVG/1.1/DTD/svg11.dtd">
<svg version="1.1" id="Calque_1" xmlns="http://www.w3.org/2000/svg" xmlns:xlink="http://www.w3.org/1999/xlink" x="0px" y="0px"
	 width="1190.551px" height="1190.551px" viewBox="0 0 1190.551 1190.551" enable-background="new 0 0 1190.551 1190.551"
	 xml:space="preserve">
<path fill="#010202" d="M405.14,282.321c-59.25,0-107.457,48.183-107.499,107.423V174.898
	C297.683,234.136,345.892,282.321,405.14,282.321c59.275,0,107.5-48.226,107.5-107.5c0-59.272-48.225-107.5-107.5-107.5
	c-59.248,0-107.461,48.185-107.499,107.423V0C133.258-0.001,0,133.257,0,297.639s133.258,297.64,297.641,297.64L0,892.918v99.014
	h192.537l203.521,102.208V496.934c2.995,0.251,6.022,0.387,9.081,0.387c59.273,0,107.5-48.227,107.5-107.5
	C512.64,330.545,464.413,282.321,405.14,282.321z M297.641,595.279V389.898c0.04,56.157,43.365,102.377,98.351,107.03
	L297.641,595.279z"/>
</svg>
