<?xml version="1.0" encoding="utf-8"?>
<!-- Generator: Adobe Illustrator 16.0.0, SVG Export Plug-In . SVG Version: 6.00 Build 0)  -->
<!DOCTYPE svg PUBLIC "-//W3C//DTD SVG 1.1//EN" "http://www.w3.org/Graphics/SVG/1.1/DTD/svg11.dtd">
<svg version="1.1" id="Calque_1" xmlns="http://www.w3.org/2000/svg" xmlns:xlink="http://www.w3.org/1999/xlink" x="0px" y="0px"
	 width="1190.551px" height="1190.551px" viewBox="0 0 1190.551 1190.551" enable-background="new 0 0 1190.551 1190.551"
	 xml:space="preserve">
<g>
	<polygon fill="#010202" points="892.914,84.679 297.636,84.679 297.636,348.317 711.914,348.317 711.914,416.317 297.636,416.317 
		297.636,679.957 297.636,1105.872 888.881,1105.872 888.881,901.002 608.533,901.002 608.533,956.713 500.384,956.713 
		392.884,956.713 392.884,849.213 392.884,679.957 705.258,679.957 892.914,679.957 	"/>
	<path fill="#010202" d="M597.758,787.458c0,7.143,0.707,14.122,2.043,20.878c-16.121-39.06-54.61-66.622-99.417-66.622
		c-59.276,0-107.5,48.227-107.5,107.5c0,59.274,48.224,107.5,107.5,107.5c59.272,0,107.503-48.224,107.5-107.5
		c0-7.143-0.707-14.12-2.041-20.876c16.119,39.058,54.605,66.62,99.416,66.62c59.273,0,107.504-48.227,107.498-107.5
		c0-59.273-48.227-107.501-107.498-107.501C645.983,679.957,597.758,728.184,597.758,787.458z"/>
</g>
</svg>
