<?xml version="1.0" encoding="utf-8"?>
<!-- Generator: Adobe Illustrator 16.0.0, SVG Export Plug-In . SVG Version: 6.00 Build 0)  -->
<!DOCTYPE svg PUBLIC "-//W3C//DTD SVG 1.1//EN" "http://www.w3.org/Graphics/SVG/1.1/DTD/svg11.dtd">
<svg version="1.1" id="Calque_1" xmlns="http://www.w3.org/2000/svg" xmlns:xlink="http://www.w3.org/1999/xlink" x="0px" y="0px"
	 width="1190.551px" height="1190.551px" viewBox="0 0 1190.551 1190.551" enable-background="new 0 0 1190.551 1190.551"
	 xml:space="preserve">
<path fill="#010202" d="M744.096,330.527c-59.25,0-107.457,48.183-107.5,107.423V223.104
	C636.639,282.341,684.848,330.527,744.096,330.527c59.273,0,107.5-48.226,107.5-107.5c0-59.272-48.227-107.5-107.5-107.5
	c-59.248,0-107.461,48.185-107.5,107.423V48.206c-164.382-0.001-297.64,133.257-297.64,297.639
	c0,164.382,133.258,297.64,297.64,297.64l-297.64,297.639v99.014h192.537l203.521,102.209V545.14
	c2.994,0.251,6.021,0.387,9.08,0.387c59.273,0,107.5-48.227,107.5-107.5C851.596,378.75,803.367,330.527,744.096,330.527z
	 M636.596,643.484V438.104c0.041,56.157,43.365,102.377,98.352,107.03L636.596,643.484z"/>
</svg>
