<?xml version="1.0" encoding="utf-8"?>
<!-- Generator: Adobe Illustrator 16.0.0, SVG Export Plug-In . SVG Version: 6.00 Build 0)  -->
<!DOCTYPE svg PUBLIC "-//W3C//DTD SVG 1.1//EN" "http://www.w3.org/Graphics/SVG/1.1/DTD/svg11.dtd">
<svg version="1.1" id="Calque_1" xmlns="http://www.w3.org/2000/svg" xmlns:xlink="http://www.w3.org/1999/xlink" x="0px" y="0px"
	 width="1190.551px" height="1190.551px" viewBox="0 0 1190.551 1190.551" enable-background="new 0 0 1190.551 1190.551"
	 xml:space="preserve">
<path fill="#010202" d="M356.377,589.114c-28.116,0-53.741,10.854-72.918,28.587c18.692-19.351,30.211-45.672,30.211-74.635
	c0-59.276-48.226-107.5-107.5-107.5c-29.635,0-56.508,12.055-75.974,31.518l265.862-265.862v-99.014H203.522L0,0V597.28l2.008-2.008
	v595.278c164.383,0.001,297.641-133.256,297.641-297.639c0-51.264-12.963-99.498-35.785-141.61
	c18.745,31.588,53.195,52.812,92.513,52.812c59.275,0,107.5-48.227,107.5-107.5C463.877,637.338,415.653,589.114,356.377,589.114z
	 M130.19,467.09c-19.464,19.465-31.52,46.339-31.52,75.976c0,38.235,20.071,71.87,50.227,90.933
	c-43.341-24.642-93.467-38.728-146.888-38.728L130.19,467.09z M155.351,637.773c15.142,8.158,32.449,12.794,50.819,12.793
	c28.114,0,53.737-10.854,72.914-28.586c-18.691,19.35-30.208,45.67-30.207,74.634c0,17.868,4.388,34.729,12.134,49.57
	C235.698,701.598,199.212,664.192,155.351,637.773z"/>
</svg>
