<?xml version="1.0" encoding="utf-8"?>
<!-- Generator: Adobe Illustrator 16.0.0, SVG Export Plug-In . SVG Version: 6.00 Build 0)  -->
<!DOCTYPE svg PUBLIC "-//W3C//DTD SVG 1.1//EN" "http://www.w3.org/Graphics/SVG/1.1/DTD/svg11.dtd">
<svg version="1.1" id="Calque_1" xmlns="http://www.w3.org/2000/svg" xmlns:xlink="http://www.w3.org/1999/xlink" x="0px" y="0px"
	 width="1190.551px" height="1190.551px" viewBox="0 0 1190.551 1190.551" enable-background="new 0 0 1190.551 1190.551"
	 xml:space="preserve">
<path fill="#010202" d="M945.668,190.137c-146.857-0.001-268.859,106.361-293.207,246.251V273.261h-99.212v-83.124H419.175v166.249
	h-61.672v99.213H244.882v149.706h58.992v180.113h232.859c-59.133,0.166-107.191,48.326-107.191,107.496
	c0,59.275,48.226,107.5,107.5,107.5c59.273,0,107.5-48.225,107.5-107.5c0-7.375-0.748-14.578-2.17-21.541
	c13.557,43.857,54.48,75.814,102.732,75.814c59.27,0,107.5-48.223,107.5-107.5c0-38.602-20.457-72.51-51.092-91.473
	c42.711,23.692,91.854,37.201,144.158,37.201V190.137H945.668z M537.349,785.418h114.995c-9.361,15.938-14.74,34.486-14.74,54.27
	c0,7.377,0.748,14.582,2.17,21.543C626.248,817.467,585.466,785.553,537.349,785.418z M745.104,732.188
	c-39.41,0-73.928,21.32-92.643,53.029V620.508h-96.532V436.83h96.459c-2.857,16.556-4.361,33.575-4.361,50.946
	c0,109.396,59.029,204.987,146.961,256.711C780.071,736.639,763.098,732.188,745.104,732.188z"/>
</svg>
