<?xml version="1.0" encoding="utf-8"?>
<!-- Generator: Adobe Illustrator 16.0.0, SVG Export Plug-In . SVG Version: 6.00 Build 0)  -->
<!DOCTYPE svg PUBLIC "-//W3C//DTD SVG 1.1//EN" "http://www.w3.org/Graphics/SVG/1.1/DTD/svg11.dtd">
<svg version="1.1" id="Calque_1" xmlns="http://www.w3.org/2000/svg" xmlns:xlink="http://www.w3.org/1999/xlink" x="0px" y="0px"
	 width="1190.551px" height="1190.551px" viewBox="0 0 1190.551 1190.551" enable-background="new 0 0 1190.551 1190.551"
	 xml:space="preserve">
<g>
	<path fill="#010202" d="M513.215,902.67c0-59.271-48.225-107.5-107.5-107.5c-59.271,0-107.5,48.229-107.5,107.5
		c0,59.274,48.228,107.5,107.5,107.5C464.991,1010.17,513.215,961.944,513.215,902.67z"/>
	<path fill="#010202" d="M784.836,85.135c-59.273,0-107.499,48.228-107.499,107.5c0,27.968,10.739,53.473,28.307,72.615h-58.837
		V85.139H298.219v164.909h96.532v183.678h-96.532v163.567h99.213v83.125h134.074V794.52h55.711v215.649H405.715h-95.253v95.247
		h425.912V514.17H593.178v-99.213h112.621V265.417c19.657,21.331,47.812,34.718,79.037,34.718c59.275,0,107.5-48.224,107.5-107.5
		C892.336,133.365,844.115,85.135,784.836,85.135z"/>
</g>
</svg>
