<?xml version="1.0" encoding="utf-8"?>
<!-- Generator: Adobe Illustrator 16.0.0, SVG Export Plug-In . SVG Version: 6.00 Build 0)  -->
<!DOCTYPE svg PUBLIC "-//W3C//DTD SVG 1.1//EN" "http://www.w3.org/Graphics/SVG/1.1/DTD/svg11.dtd">
<svg version="1.1" id="Calque_1" xmlns="http://www.w3.org/2000/svg" xmlns:xlink="http://www.w3.org/1999/xlink" x="0px" y="0px"
	 width="1190.551px" height="1190.551px" viewBox="0 0 1190.551 1190.551" enable-background="new 0 0 1190.551 1190.551"
	 xml:space="preserve">
<g>
	<polygon fill="#010202" points="610.551,305.722 610.551,361.433 394.9,361.433 394.9,253.929 394.9,84.678 299.653,84.678 
		299.653,510.592 299.653,675.502 396.185,675.502 396.185,859.18 299.653,859.18 299.653,1022.748 398.866,1022.748 
		398.866,1105.873 532.94,1105.873 532.94,939.623 594.612,939.623 594.612,840.41 707.233,840.41 707.233,690.705 648.24,690.705 
		648.24,510.592 890.899,510.592 890.899,305.722 	"/>
	<path fill="#010202" d="M502.4,361.429c59.273,0,107.5-48.224,107.5-107.5c0-59.271-48.225-107.5-107.5-107.5
		c-59.274,0-107.5,48.228-107.5,107.5C394.9,313.206,443.126,361.429,502.4,361.429z"/>
	<path fill="#010202" d="M689.117,883.326c-59.271,0-107.5,48.225-107.5,107.5c0,59.271,48.229,107.5,107.5,107.5
		c59.273,0,107.5-48.227,107.5-107.5C796.617,931.551,748.393,883.326,689.117,883.326z"/>
</g>
</svg>
