<?xml version="1.0" encoding="utf-8"?>
<!-- Generator: Adobe Illustrator 16.0.0, SVG Export Plug-In . SVG Version: 6.00 Build 0)  -->
<!DOCTYPE svg PUBLIC "-//W3C//DTD SVG 1.1//EN" "http://www.w3.org/Graphics/SVG/1.1/DTD/svg11.dtd">
<svg version="1.1" id="Calque_1" xmlns="http://www.w3.org/2000/svg" xmlns:xlink="http://www.w3.org/1999/xlink" x="0px" y="0px"
	 width="1190.551px" height="1190.551px" viewBox="0 0 1190.551 1190.551" enable-background="new 0 0 1190.551 1190.551"
	 xml:space="preserve">
<g>
	<polygon fill="#010202" points="429.031,174.293 429.031,112.621 329.818,112.621 329.818,0 180.112,0 180.112,58.992 0,58.992 
		0,407.58 164.909,407.58 164.909,311.048 348.587,311.048 348.587,407.58 221.044,407.58 221.044,687.93 276.755,687.93 
		276.755,903.579 107.496,903.579 0,903.579 0,998.826 425.913,998.826 425.913,407.58 512.156,407.58 512.156,308.367 
		595.28,308.367 595.28,174.293 	"/>
	<path fill="#010202" d="M214.996,796.079c0-59.273-48.224-107.5-107.5-107.5c-59.271,0-107.5,48.225-107.5,107.5
		s48.228,107.5,107.5,107.5C166.773,903.579,214.996,855.355,214.996,796.079z"/>
	<path fill="#010202" d="M107.5,688.575c59.272,0,107.5-48.223,107.5-107.499c0-59.271-48.228-107.5-107.5-107.5
		c-59.274,0-107.5,48.228-107.5,107.5C0,640.353,48.226,688.575,107.5,688.575z"/>
</g>
</svg>
