<?xml version="1.0" encoding="utf-8"?>
<!-- Generator: Adobe Illustrator 16.0.0, SVG Export Plug-In . SVG Version: 6.00 Build 0)  -->
<!DOCTYPE svg PUBLIC "-//W3C//DTD SVG 1.1//EN" "http://www.w3.org/Graphics/SVG/1.1/DTD/svg11.dtd">
<svg version="1.1" id="Calque_1" xmlns="http://www.w3.org/2000/svg" xmlns:xlink="http://www.w3.org/1999/xlink" x="0px" y="0px"
	 width="1190.551px" height="1190.551px" viewBox="0 0 1190.551 1190.551" enable-background="new 0 0 1190.551 1190.551"
	 xml:space="preserve">
<path fill="#010202" d="M808.068,621.641V26.737H686.869v122.872H466.464v122.873H212.788v103.471h253.676v122.873h-12.881v166.249
	h-61.672v99.212H279.29v149.707h58.992v180.109h348.586V929.378c28.984,134.018,148.203,234.436,290.895,234.436V568.535
	C914.688,568.535,856.208,588.171,808.068,621.641z M680.12,866.173c0,21.627,2.328,42.707,6.71,63.024h-96.492v-183.68h96.53
	V581.95h-99.211v-83.124h99.212v122.873h121.113C730.711,675.462,680.12,764.902,680.12,866.173z"/>
</svg>
