<?xml version="1.0" encoding="utf-8"?>
<!-- Generator: Adobe Illustrator 16.0.0, SVG Export Plug-In . SVG Version: 6.00 Build 0)  -->
<!DOCTYPE svg PUBLIC "-//W3C//DTD SVG 1.1//EN" "http://www.w3.org/Graphics/SVG/1.1/DTD/svg11.dtd">
<svg version="1.1" id="Calque_1" xmlns="http://www.w3.org/2000/svg" xmlns:xlink="http://www.w3.org/1999/xlink" x="0px" y="0px"
	 width="1190.551px" height="1190.551px" viewBox="0 0 1190.551 1190.551" enable-background="new 0 0 1190.551 1190.551"
	 xml:space="preserve">
<polygon fill="#010202" points="739.928,564.702 739.928,620.413 524.277,620.413 524.277,343.658 429.03,343.658 429.03,707.901 
	329.817,707.901 329.817,595.28 349.217,595.28 349.217,341.604 472.089,341.604 472.089,121.198 594.962,121.198 594.962,0 0,0 
	0,121.198 122.873,121.198 122.873,341.604 245.746,341.604 245.746,595.28 180.111,595.28 180.111,654.272 0,654.272 0,1002.86 
	164.908,1002.86 164.908,906.327 348.587,906.327 348.587,1002.86 512.155,1002.86 512.155,903.647 595.279,903.647 
	595.279,769.573 1020.276,769.573 1020.276,564.702 "/>
</svg>
