<?xml version="1.0" encoding="utf-8"?>
<!-- Generator: Adobe Illustrator 16.0.0, SVG Export Plug-In . SVG Version: 6.00 Build 0)  -->
<!DOCTYPE svg PUBLIC "-//W3C//DTD SVG 1.1//EN" "http://www.w3.org/Graphics/SVG/1.1/DTD/svg11.dtd">
<svg version="1.1" id="Calque_1" xmlns="http://www.w3.org/2000/svg" xmlns:xlink="http://www.w3.org/1999/xlink" x="0px" y="0px"
	 width="1190.551px" height="1190.551px" viewBox="0 0 1190.551 1190.551" enable-background="new 0 0 1190.551 1190.551"
	 xml:space="preserve">
<path fill="#010202" d="M722.451,203.827c-105.057,0-197.393,54.432-250.363,136.627V121.198h122.873V0H0v121.197h122.872v220.406
	h122.873V595.28h-65.635v58.992H0v348.588h164.908v-96.532h183.679v96.532h163.567v-99.213h83.124V770.626
	c38.565,18.254,81.673,28.479,127.173,28.479V203.827z M429.03,769.573v-61.672h-99.213V595.28h19.399V341.604h122.135
	c-29.461,46.179-46.539,101.025-46.539,159.862c0,118.003,68.673,219.964,168.233,268.106H429.03z"/>
</svg>
