<?xml version="1.0" encoding="utf-8"?>
<!-- Generator: Adobe Illustrator 16.0.0, SVG Export Plug-In . SVG Version: 6.00 Build 0)  -->
<!DOCTYPE svg PUBLIC "-//W3C//DTD SVG 1.1//EN" "http://www.w3.org/Graphics/SVG/1.1/DTD/svg11.dtd">
<svg version="1.1" id="Calque_1" xmlns="http://www.w3.org/2000/svg" xmlns:xlink="http://www.w3.org/1999/xlink" x="0px" y="0px"
	 width="1190.551px" height="1190.551px" viewBox="0 0 1190.551 1190.551" enable-background="new 0 0 1190.551 1190.551"
	 xml:space="preserve">
<path fill="#010202" d="M614.102,246.4c-80.21-0.001-152.999,31.737-206.521,83.326V180.111h-58.992V0H0v164.907h96.531v183.68H0
	v163.567h99.213v83.124H0v594.961h121.198v-122.872h220.405V944.494H595.28V841.07c6.227,0.389,12.498,0.609,18.822,0.609V246.4z
	 M341.604,841.024V718.152H121.198V595.279h112.089V429.03h61.672v-99.213h112.528c-56.113,54.133-91.025,130.096-91.025,214.222
	c0,157.812,122.826,286.917,278.094,296.985H341.604z"/>
</svg>
