<?xml version="1.0" encoding="utf-8"?>
<!-- Generator: Adobe Illustrator 16.0.0, SVG Export Plug-In . SVG Version: 6.00 Build 0)  -->
<!DOCTYPE svg PUBLIC "-//W3C//DTD SVG 1.1//EN" "http://www.w3.org/Graphics/SVG/1.1/DTD/svg11.dtd">
<svg version="1.1" id="Calque_1" xmlns="http://www.w3.org/2000/svg" xmlns:xlink="http://www.w3.org/1999/xlink" x="0px" y="0px"
	 width="1190.551px" height="1190.551px" viewBox="0 0 1190.551 1190.551" enable-background="new 0 0 1190.551 1190.551"
	 xml:space="preserve">
<polygon fill="#010202" points="731.84,921.129 731.84,862.137 911.951,862.137 911.951,513.55 747.043,513.55 747.043,610.082 
	563.365,610.082 563.365,513.55 399.797,513.55 399.797,489.89 620.203,489.89 620.203,367.016 873.879,367.016 873.879,263.545 
	620.203,263.545 620.203,140.673 399.797,140.673 399.797,17.8 278.599,17.8 278.599,612.764 316.674,612.764 316.674,746.836 
	278.599,746.836 278.599,1172.75 869.844,1172.75 869.844,967.879 589.497,967.879 589.497,1023.594 373.846,1023.594 
	373.846,746.836 482.922,746.836 482.922,808.508 582.135,808.508 582.135,921.129 "/>
</svg>
