<?xml version="1.0" encoding="utf-8"?>
<!-- Generator: Adobe Illustrator 16.0.0, SVG Export Plug-In . SVG Version: 6.00 Build 0)  -->
<!DOCTYPE svg PUBLIC "-//W3C//DTD SVG 1.1//EN" "http://www.w3.org/Graphics/SVG/1.1/DTD/svg11.dtd">
<svg version="1.1" id="Calque_1" xmlns="http://www.w3.org/2000/svg" xmlns:xlink="http://www.w3.org/1999/xlink" x="0px" y="0px"
	 width="1190.551px" height="1190.551px" viewBox="0 0 1190.551 1190.551" enable-background="new 0 0 1190.551 1190.551"
	 xml:space="preserve">
<path fill="#010202" d="M646.856,283.88c-65.308-0.001-125.69,21.049-174.768,56.711V121.198h122.873V0H0v121.197h122.872v220.406
	h122.873V595.28h103.471v-13.76V341.604H470.7c-73.666,54.18-121.484,141.458-121.484,239.916
	c0,145.39,104.252,266.41,242.075,292.439H429.03v-61.671h-99.213V699.666H180.111v58.993H0v348.588h164.908v-96.533h183.679v96.533
	h163.567v-99.213h83.124v-133.34c16.754,2.927,33.985,4.465,51.577,4.465V283.88z"/>
</svg>
