<?xml version="1.0" encoding="utf-8"?>
<!-- Generator: Adobe Illustrator 16.0.0, SVG Export Plug-In . SVG Version: 6.00 Build 0)  -->
<!DOCTYPE svg PUBLIC "-//W3C//DTD SVG 1.1//EN" "http://www.w3.org/Graphics/SVG/1.1/DTD/svg11.dtd">
<svg version="1.1" id="Calque_1" xmlns="http://www.w3.org/2000/svg" xmlns:xlink="http://www.w3.org/1999/xlink" x="0px" y="0px"
	 width="1190.551px" height="1190.551px" viewBox="0 0 1190.551 1190.551" enable-background="new 0 0 1190.551 1190.551"
	 xml:space="preserve">
<path fill="#010202" d="M918.703,325.532c-65.308-0.001-125.689,21.049-174.768,56.711V162.85h122.873V41.652H271.848v121.197
	H394.72v220.406h122.873v253.677h103.471v-13.76V383.256h121.483c-73.665,54.18-121.483,141.458-121.483,239.916
	c0,145.391,104.252,266.41,242.075,292.439H700.877v-61.672h-99.213V741.318H451.958v58.992h-180.11v348.588h164.908v-96.533
	h183.679v96.533h163.566v-99.213h83.124v-133.34c16.754,2.928,33.985,4.465,51.577,4.465L918.703,325.532L918.703,325.532z"/>
</svg>
