<?xml version="1.0" encoding="utf-8"?>
<!-- Generator: Adobe Illustrator 16.0.0, SVG Export Plug-In . SVG Version: 6.00 Build 0)  -->
<!DOCTYPE svg PUBLIC "-//W3C//DTD SVG 1.1//EN" "http://www.w3.org/Graphics/SVG/1.1/DTD/svg11.dtd">
<svg version="1.1" id="Calque_1" xmlns="http://www.w3.org/2000/svg" xmlns:xlink="http://www.w3.org/1999/xlink" x="0px" y="0px"
	 width="1190.551px" height="1190.551px" viewBox="0 0 1190.551 1190.551" enable-background="new 0 0 1190.551 1190.551"
	 xml:space="preserve">
<polygon fill="#010202" points="825.066,658.547 825.066,714.258 609.414,714.258 609.414,437.503 514.167,437.503 514.167,801.746 
	414.954,801.746 414.954,689.125 434.355,689.125 434.355,435.449 557.227,435.449 557.227,215.043 680.1,215.043 680.1,93.845 
	85.138,93.845 85.138,215.043 208.011,215.043 208.011,435.449 330.884,435.449 330.884,689.125 265.248,689.125 265.248,748.117 
	85.138,748.117 85.138,1096.705 250.046,1096.705 250.046,1000.172 433.725,1000.172 433.725,1096.705 597.292,1096.705 
	597.292,997.492 680.416,997.492 680.416,863.418 1105.413,863.418 1105.413,658.547 "/>
</svg>
