<?xml version="1.0" encoding="utf-8"?>
<!-- Generator: Adobe Illustrator 16.0.0, SVG Export Plug-In . SVG Version: 6.00 Build 0)  -->
<!DOCTYPE svg PUBLIC "-//W3C//DTD SVG 1.1//EN" "http://www.w3.org/Graphics/SVG/1.1/DTD/svg11.dtd">
<svg version="1.1" id="Calque_1" xmlns="http://www.w3.org/2000/svg" xmlns:xlink="http://www.w3.org/1999/xlink" x="0px" y="0px"
	 width="1190.551px" height="1190.551px" viewBox="0 0 1190.551 1190.551" enable-background="new 0 0 1190.551 1190.551"
	 xml:space="preserve">
<polygon fill="#010202" points="781.354,981.76 781.354,1037.471 565.701,1037.471 565.701,760.717 724.13,760.717 724.13,657.244 
	470.454,657.244 470.454,534.373 250.048,534.373 250.048,411.5 293.759,411.5 293.759,314.967 477.438,314.967 477.438,411.5 
	641.005,411.5 641.005,312.287 724.129,312.287 724.129,178.212 557.88,178.212 557.88,116.541 458.667,116.541 458.667,3.919 
	308.961,3.919 308.961,62.912 128.851,62.912 128.851,411.5 128.851,1006.463 250.048,1006.463 250.048,883.59 470.454,883.59 
	470.454,1186.631 1061.7,1186.631 1061.7,981.76 "/>
</svg>
