<?xml version="1.0" encoding="utf-8"?>
<!-- Generator: Adobe Illustrator 16.0.0, SVG Export Plug-In . SVG Version: 6.00 Build 0)  -->
<!DOCTYPE svg PUBLIC "-//W3C//DTD SVG 1.1//EN" "http://www.w3.org/Graphics/SVG/1.1/DTD/svg11.dtd">
<svg version="1.1" id="Calque_1" xmlns="http://www.w3.org/2000/svg" xmlns:xlink="http://www.w3.org/1999/xlink" x="0px" y="0px"
	 width="1190.551px" height="1190.551px" viewBox="0 0 1190.551 1190.551" enable-background="new 0 0 1190.551 1190.551"
	 xml:space="preserve">
<path fill="#010202" d="M595.28,594.904V0H474.082v122.872H253.676v122.873H0v103.471h253.676v122.873h-12.881v166.249h-61.672
	v99.212H66.502v149.707h58.992v180.109h348.587V902.641c28.984,134.017,148.203,234.435,290.894,234.435V541.798
	C701.9,541.798,643.42,561.434,595.28,594.904z M467.333,839.436c0,21.627,2.328,42.707,6.709,63.024H377.55V718.78h96.531V555.213
	h-99.212v-83.124h99.213v122.873h121.113C517.923,648.725,467.333,738.165,467.333,839.436z"/>
</svg>
