<?xml version="1.0" encoding="utf-8"?>
<!-- Generator: Adobe Illustrator 16.0.0, SVG Export Plug-In . SVG Version: 6.00 Build 0)  -->
<!DOCTYPE svg PUBLIC "-//W3C//DTD SVG 1.1//EN" "http://www.w3.org/Graphics/SVG/1.1/DTD/svg11.dtd">
<svg version="1.1" id="Calque_1" xmlns="http://www.w3.org/2000/svg" xmlns:xlink="http://www.w3.org/1999/xlink" x="0px" y="0px"
	 width="1190.551px" height="1190.551px" viewBox="0 0 1190.551 1190.551" enable-background="new 0 0 1190.551 1190.551"
	 xml:space="preserve">
<polygon fill="#010202" points="892.915,369.809 892.915,266.338 639.24,266.338 639.24,143.466 418.833,143.466 418.833,20.593 
	297.636,20.593 297.636,615.556 418.833,615.556 418.833,492.683 639.24,492.683 639.24,536.059 577.568,536.059 577.568,635.271 
	464.947,635.271 464.947,784.978 523.939,784.978 523.939,965.087 608.533,965.087 608.533,1020.799 392.883,1020.799 
	392.883,744.043 297.636,744.043 297.636,1169.958 888.88,1169.958 888.88,965.087 872.527,965.087 872.527,800.181 
	775.994,800.181 775.994,616.5 872.527,616.5 872.527,452.934 773.314,452.934 773.314,369.809 "/>
</svg>
