<?xml version="1.0" encoding="utf-8"?>
<!-- Generator: Adobe Illustrator 16.0.0, SVG Export Plug-In . SVG Version: 6.00 Build 0)  -->
<!DOCTYPE svg PUBLIC "-//W3C//DTD SVG 1.1//EN" "http://www.w3.org/Graphics/SVG/1.1/DTD/svg11.dtd">
<svg version="1.1" id="Calque_1" xmlns="http://www.w3.org/2000/svg" xmlns:xlink="http://www.w3.org/1999/xlink" x="0px" y="0px"
	 width="1190.551px" height="1190.551px" viewBox="0 0 1190.551 1190.551" enable-background="new 0 0 1190.551 1190.551"
	 xml:space="preserve">
<path fill="#010202" d="M723.462,203.258c-105.729-0.001-198.573,55.132-251.374,138.211V121.198h122.873V0H0v121.197h122.872
	v220.406h122.873V595.28h-65.635v58.992H0v348.588h164.908v-96.532h183.679v96.532h163.567v-99.213h83.124V769.586
	c38.821,18.554,82.287,28.951,128.184,28.951V203.258z M429.03,769.573v-61.672h-99.213V595.28h19.399V341.604h122.788
	c-29.24,46.061-46.184,100.695-46.184,159.292c0,118.474,69.225,220.772,169.429,268.677H429.03z"/>
</svg>
