<?xml version="1.0" encoding="utf-8"?>
<!-- Generator: Adobe Illustrator 16.0.0, SVG Export Plug-In . SVG Version: 6.00 Build 0)  -->
<!DOCTYPE svg PUBLIC "-//W3C//DTD SVG 1.1//EN" "http://www.w3.org/Graphics/SVG/1.1/DTD/svg11.dtd">
<svg version="1.1" id="Calque_1" xmlns="http://www.w3.org/2000/svg" xmlns:xlink="http://www.w3.org/1999/xlink" x="0px" y="0px"
	 width="1190.551px" height="1190.551px" viewBox="0 0 1190.551 1190.551" enable-background="new 0 0 1190.551 1190.551"
	 xml:space="preserve">
<path fill="#010202" d="M957.006,297.103c-105.729-0.001-198.572,55.132-251.373,138.211V215.043h122.873V93.845H233.545v121.197
	h122.872v220.406H479.29v253.677h-65.636v58.992H233.545v348.588h164.908v-96.531h183.679v96.531h163.566v-99.213h83.125V863.432
	c38.82,18.553,82.287,28.951,128.184,28.951V297.103L957.006,297.103z M662.574,863.418v-61.672h-99.213V689.125h19.399V435.449
	h122.789c-29.24,46.061-46.186,100.695-46.186,159.292c0,118.474,69.227,220.772,169.43,268.677H662.574z"/>
</svg>
