<?xml version="1.0" encoding="utf-8"?>
<!-- Generator: Adobe Illustrator 16.0.0, SVG Export Plug-In . SVG Version: 6.00 Build 0)  -->
<!DOCTYPE svg PUBLIC "-//W3C//DTD SVG 1.1//EN" "http://www.w3.org/Graphics/SVG/1.1/DTD/svg11.dtd">
<svg version="1.1" id="Calque_1" xmlns="http://www.w3.org/2000/svg" xmlns:xlink="http://www.w3.org/1999/xlink" x="0px" y="0px"
	 width="1190.551px" height="1190.551px" viewBox="0 0 1190.551 1190.551" enable-background="new 0 0 1190.551 1190.551"
	 xml:space="preserve">
<path fill="#010202" d="M902.326,246.556c-80.21-0.001-152.999,31.737-206.521,83.326V180.267h-58.992V0.156H288.225v164.907h96.53
	v183.68h-96.53V512.31h99.213v83.124h-99.213v594.961h121.197v-122.871h220.405V944.65h253.677V841.227
	c6.228,0.389,12.498,0.607,18.822,0.607V246.556L902.326,246.556z M629.828,841.18V718.309H409.422V595.435h112.09V429.186h61.672
	v-99.213h112.527c-56.112,54.133-91.024,130.096-91.024,214.222c0,157.811,122.825,286.917,278.094,296.985H629.828z"/>
</svg>
