<?xml version="1.0" encoding="utf-8"?>
<!-- Generator: Adobe Illustrator 16.0.0, SVG Export Plug-In . SVG Version: 6.00 Build 0)  -->
<!DOCTYPE svg PUBLIC "-//W3C//DTD SVG 1.1//EN" "http://www.w3.org/Graphics/SVG/1.1/DTD/svg11.dtd">
<svg version="1.1" id="Calque_1" xmlns="http://www.w3.org/2000/svg" xmlns:xlink="http://www.w3.org/1999/xlink" x="0px" y="0px"
	 width="1190.551px" height="1190.551px" viewBox="0 0 1190.551 1190.551" enable-background="new 0 0 1190.551 1190.551"
	 xml:space="preserve">
<polygon fill="#010202" points="595.28,349.216 595.28,245.745 341.604,245.745 341.604,122.873 121.198,122.873 121.198,0 0,0 
	0,594.963 121.198,594.963 121.198,472.09 341.604,472.09 341.604,515.466 279.932,515.466 279.932,614.678 167.311,614.678 
	167.311,764.385 226.303,764.385 226.303,944.494 310.898,944.494 310.898,1000.206 95.247,1000.206 95.247,723.45 0,723.45 
	0,1149.365 591.245,1149.365 591.245,944.494 574.891,944.494 574.891,779.588 478.359,779.588 478.359,595.907 574.891,595.907 
	574.891,432.341 475.678,432.341 475.678,349.216 "/>
</svg>
