<?xml version="1.0" encoding="utf-8"?>
<!-- Generator: Adobe Illustrator 16.0.0, SVG Export Plug-In . SVG Version: 6.00 Build 0)  -->
<!DOCTYPE svg PUBLIC "-//W3C//DTD SVG 1.1//EN" "http://www.w3.org/Graphics/SVG/1.1/DTD/svg11.dtd">
<svg version="1.1" id="Calque_1" xmlns="http://www.w3.org/2000/svg" xmlns:xlink="http://www.w3.org/1999/xlink" x="0px" y="0px"
	 width="1190.551px" height="1190.551px" viewBox="0 0 1190.551 1190.551" enable-background="new 0 0 1190.551 1190.551"
	 xml:space="preserve">
<polygon fill="#010202" points="652.503,977.841 652.503,1033.552 436.851,1033.552 436.851,756.797 595.28,756.797 595.28,653.324 
	341.604,653.324 341.604,530.453 121.198,530.453 121.198,407.58 164.908,407.58 164.908,311.048 348.587,311.048 348.587,407.58 
	512.155,407.58 512.155,308.367 595.279,308.367 595.279,174.293 429.03,174.293 429.03,112.621 329.817,112.621 329.817,0 
	180.111,0 180.111,58.992 0,58.992 0,407.58 0,1002.543 121.198,1002.543 121.198,879.67 341.604,879.67 341.604,1182.712 
	932.85,1182.712 932.85,977.841 "/>
</svg>
