<?xml version="1.0" encoding="utf-8"?>
<!-- Generator: Adobe Illustrator 16.0.0, SVG Export Plug-In . SVG Version: 6.00 Build 0)  -->
<!DOCTYPE svg PUBLIC "-//W3C//DTD SVG 1.1//EN" "http://www.w3.org/Graphics/SVG/1.1/DTD/svg11.dtd">
<svg version="1.1" id="Calque_1" xmlns="http://www.w3.org/2000/svg" xmlns:xlink="http://www.w3.org/1999/xlink" x="0px" y="0px"
	 width="1190.551px" height="1190.551px" viewBox="0 0 1190.551 1190.551" enable-background="new 0 0 1190.551 1190.551"
	 xml:space="preserve">
<polygon fill="#010202" points="499.682,834.859 499.682,814.342 443.97,814.342 443.97,598.689 720.724,598.689 720.724,503.443 
	709.98,503.443 709.98,444.45 890.09,444.45 890.09,95.863 725.181,95.863 725.181,192.395 541.504,192.395 541.504,95.863 
	377.937,95.863 377.937,195.075 294.812,195.075 294.812,329.15 461.062,329.15 461.062,390.822 560.275,390.822 560.275,503.443 
	294.812,503.443 294.812,1094.688 499.682,1094.688 499.682,933.873 692.217,933.873 895.74,1036.082 895.74,438.801 "/>
</svg>
