<?xml version="1.0" encoding="utf-8"?>
<!-- Generator: Adobe Illustrator 16.0.0, SVG Export Plug-In . SVG Version: 6.00 Build 0)  -->
<!DOCTYPE svg PUBLIC "-//W3C//DTD SVG 1.1//EN" "http://www.w3.org/Graphics/SVG/1.1/DTD/svg11.dtd">
<svg version="1.1" id="Calque_1" xmlns="http://www.w3.org/2000/svg" xmlns:xlink="http://www.w3.org/1999/xlink" x="0px" y="0px"
	 width="1190.551px" height="1190.551px" viewBox="0 0 1190.551 1190.551" enable-background="new 0 0 1190.551 1190.551"
	 xml:space="preserve">
<polygon fill="#010202" points="513.89,959.678 513.89,884.596 575.562,884.596 575.562,785.383 688.184,785.383 688.184,635.678 
	629.19,635.678 629.19,455.567 871.848,455.567 871.848,250.697 591.501,250.697 591.501,306.409 375.85,306.409 375.85,29.653 
	280.603,29.653 280.603,455.567 280.603,620.477 377.136,620.477 377.136,804.154 280.603,804.154 280.603,967.721 379.815,967.721 
	379.815,1050.846 513.89,1050.846 513.89,1058.689 706.426,1058.689 909.948,1160.898 909.948,563.617 "/>
</svg>
