<?xml version="1.0" encoding="utf-8"?>
<!-- Generator: Adobe Illustrator 16.0.0, SVG Export Plug-In . SVG Version: 6.00 Build 0)  -->
<!DOCTYPE svg PUBLIC "-//W3C//DTD SVG 1.1//EN" "http://www.w3.org/Graphics/SVG/1.1/DTD/svg11.dtd">
<svg version="1.1" id="Calque_1" xmlns="http://www.w3.org/2000/svg" xmlns:xlink="http://www.w3.org/1999/xlink" x="0px" y="0px"
	 width="1190.551px" height="1190.551px" viewBox="0 0 1190.551 1190.551" enable-background="new 0 0 1190.551 1190.551"
	 xml:space="preserve">
<g>
	<polygon fill="#010202" points="499.033,413.428 442.273,238.74 534.082,208.91 483.536,53.347 389.179,84.005 363.493,4.949 
		235.98,46.38 287.354,204.494 228.7,223.551 259.359,317.909 152.25,352.71 198.511,495.088 254.617,476.858 310.274,648.154 
		641.801,540.435 590.842,383.598 	"/>
	<path fill="#010202" d="M160.086,704.01l349.896,481.592c132.989-96.62,162.47-282.756,65.849-415.743
		C479.208,636.871,293.073,607.39,160.086,704.01z"/>
	<polygon fill="#010202" points="448.373,4.949 777.598,458.088 875.392,473.578 905.511,283.412 1038.301,98.384 	"/>
</g>
</svg>
