<?xml version="1.0" encoding="utf-8"?>
<!-- Generator: Adobe Illustrator 16.0.0, SVG Export Plug-In . SVG Version: 6.00 Build 0)  -->
<!DOCTYPE svg PUBLIC "-//W3C//DTD SVG 1.1//EN" "http://www.w3.org/Graphics/SVG/1.1/DTD/svg11.dtd">
<svg version="1.1" id="Calque_1" xmlns="http://www.w3.org/2000/svg" xmlns:xlink="http://www.w3.org/1999/xlink" x="0px" y="0px"
	 width="1190.551px" height="1190.551px" viewBox="0 0 1190.551 1190.551" enable-background="new 0 0 1190.551 1190.551"
	 xml:space="preserve">
<polygon fill="#010202" points="791.707,702.123 893.916,498.601 711.803,498.601 711.803,439.608 891.914,439.608 891.914,91.021 
	727.004,91.021 727.004,187.553 543.328,187.553 543.328,91.021 379.76,91.021 379.76,190.233 296.635,190.233 296.635,324.308 
	462.885,324.308 462.885,385.98 562.098,385.98 562.098,498.601 296.635,498.601 692.694,894.658 607.533,894.658 607.533,950.371 
	391.883,950.371 391.883,673.615 296.635,673.615 296.635,1099.529 887.879,1099.529 887.879,894.658 791.707,894.658 "/>
</svg>
