<?xml version="1.0" encoding="utf-8"?>
<!-- Generator: Adobe Illustrator 16.0.0, SVG Export Plug-In . SVG Version: 6.00 Build 0)  -->
<!DOCTYPE svg PUBLIC "-//W3C//DTD SVG 1.1//EN" "http://www.w3.org/Graphics/SVG/1.1/DTD/svg11.dtd">
<svg version="1.1" id="Calque_1" xmlns="http://www.w3.org/2000/svg" xmlns:xlink="http://www.w3.org/1999/xlink" x="0px" y="0px"
	 width="1190.551px" height="1190.551px" viewBox="0 0 1190.551 1190.551" enable-background="new 0 0 1190.551 1190.551"
	 xml:space="preserve">
<polygon fill="#010202" points="233.287,930.025 233.287,854.943 294.959,854.943 294.959,755.73 407.58,755.73 407.58,606.025 
	348.587,606.025 348.587,425.914 591.245,425.914 591.245,221.044 310.898,221.044 310.898,276.756 95.247,276.756 95.247,0 0,0 
	0,425.914 0,590.823 96.533,590.823 96.533,774.501 0,774.501 0,938.068 99.212,938.068 99.212,1021.193 233.287,1021.193 
	233.287,1029.036 425.823,1029.036 629.345,1131.245 629.345,533.964 "/>
</svg>
