<?xml version="1.0" encoding="utf-8"?>
<!-- Generator: Adobe Illustrator 16.0.0, SVG Export Plug-In . SVG Version: 6.00 Build 0)  -->
<!DOCTYPE svg PUBLIC "-//W3C//DTD SVG 1.1//EN" "http://www.w3.org/Graphics/SVG/1.1/DTD/svg11.dtd">
<svg version="1.1" id="Calque_1" xmlns="http://www.w3.org/2000/svg" xmlns:xlink="http://www.w3.org/1999/xlink" x="0px" y="0px"
	 width="1190.551px" height="1190.551px" viewBox="0 0 1190.551 1190.551" enable-background="new 0 0 1190.551 1190.551"
	 xml:space="preserve">
<g>
	<polygon fill="#010202" points="892.914,366.853 892.914,18.266 728.006,18.266 728.006,114.798 544.329,114.798 544.329,18.266 
		380.761,18.266 380.761,117.478 297.636,117.478 297.636,251.553 463.886,251.553 463.886,313.225 563.099,313.225 
		563.099,425.846 297.636,425.846 297.636,630.715 577.984,630.715 577.984,575.003 693.694,575.003 793.633,575.003 
		793.633,851.759 888.881,851.759 888.881,425.846 712.805,425.846 712.805,366.853 	"/>
	<polygon fill="#010202" points="297.636,1070.076 490.173,1070.076 693.694,1172.285 693.694,575.003 297.636,971.063 	"/>
</g>
</svg>
