<?xml version="1.0" encoding="utf-8"?>
<!-- Generator: Adobe Illustrator 16.0.0, SVG Export Plug-In . SVG Version: 6.00 Build 0)  -->
<!DOCTYPE svg PUBLIC "-//W3C//DTD SVG 1.1//EN" "http://www.w3.org/Graphics/SVG/1.1/DTD/svg11.dtd">
<svg version="1.1" id="Calque_1" xmlns="http://www.w3.org/2000/svg" xmlns:xlink="http://www.w3.org/1999/xlink" x="0px" y="0px"
	 width="1190.551px" height="1190.551px" viewBox="0 0 1190.551 1190.551" enable-background="new 0 0 1190.551 1190.551"
	 xml:space="preserve">
<g>
	<polygon fill="#010202" points="346.783,408.479 290.023,233.791 381.832,203.961 331.286,48.398 236.929,79.056 211.243,0 
		83.73,41.431 135.104,199.545 76.45,218.602 107.109,312.96 0,347.761 46.261,490.139 102.367,471.909 158.024,643.205 
		489.551,535.486 438.592,378.649 	"/>
	<path fill="#010202" d="M7.836,699.061l349.896,481.591c132.989-96.62,162.47-282.755,65.849-415.743
		C326.958,631.922,140.823,602.44,7.836,699.061z"/>
	<polygon fill="#010202" points="296.123,0 625.348,453.139 723.142,468.629 753.261,278.463 886.051,93.435 	"/>
</g>
</svg>
