<?xml version="1.0" encoding="utf-8"?>
<!-- Generator: Adobe Illustrator 16.0.0, SVG Export Plug-In . SVG Version: 6.00 Build 0)  -->
<!DOCTYPE svg PUBLIC "-//W3C//DTD SVG 1.1//EN" "http://www.w3.org/Graphics/SVG/1.1/DTD/svg11.dtd">
<svg version="1.1" id="Calque_1" xmlns="http://www.w3.org/2000/svg" xmlns:xlink="http://www.w3.org/1999/xlink" x="0px" y="0px"
	 width="1190.551px" height="1190.551px" viewBox="0 0 1190.551 1190.551" enable-background="new 0 0 1190.551 1190.551"
	 xml:space="preserve">
<polygon fill="#010202" points="512.154,659.2 512.154,559.989 595.279,559.989 595.279,425.914 591.245,425.914 591.245,0 0,0 
	0,204.87 280.348,204.87 280.348,149.157 495.998,149.157 495.998,425.914 429.029,425.914 429.029,364.242 329.816,364.242 
	329.816,251.621 180.111,251.621 180.111,310.614 0,310.614 0,659.2 164.908,659.2 164.908,1164.239 560.966,768.179 
	560.966,669.166 368.43,669.166 164.908,566.957 164.908,562.668 348.586,562.668 348.586,659.2 "/>
</svg>
