<?xml version="1.0" encoding="utf-8"?>
<!-- Generator: Adobe Illustrator 16.0.0, SVG Export Plug-In . SVG Version: 6.00 Build 0)  -->
<!DOCTYPE svg PUBLIC "-//W3C//DTD SVG 1.1//EN" "http://www.w3.org/Graphics/SVG/1.1/DTD/svg11.dtd">
<svg version="1.1" id="Calque_1" xmlns="http://www.w3.org/2000/svg" xmlns:xlink="http://www.w3.org/1999/xlink" x="0px" y="0px"
	 width="1190.551px" height="1190.551px" viewBox="0 0 1190.551 1190.551" enable-background="new 0 0 1190.551 1190.551"
	 xml:space="preserve">
<g>
	<polygon fill="#010202" points="595.279,348.587 595.279,0 430.37,0 430.37,96.532 246.693,96.532 246.693,0 83.125,0 
		83.125,99.212 0,99.212 0,233.287 166.25,233.287 166.25,294.959 265.463,294.959 265.463,407.58 0,407.58 0,612.449 
		280.348,612.449 280.348,556.738 396.058,556.738 495.998,556.738 495.998,833.493 591.245,833.493 591.245,407.58 415.168,407.58 
		415.168,348.587 	"/>
	<polygon fill="#010202" points="0,1051.81 192.536,1051.81 396.058,1154.019 396.058,556.738 0,952.798 	"/>
</g>
</svg>
