<?xml version="1.0" encoding="utf-8"?>
<!-- Generator: Adobe Illustrator 16.0.0, SVG Export Plug-In . SVG Version: 6.00 Build 0)  -->
<!DOCTYPE svg PUBLIC "-//W3C//DTD SVG 1.1//EN" "http://www.w3.org/Graphics/SVG/1.1/DTD/svg11.dtd">
<svg version="1.1" id="Calque_1" xmlns="http://www.w3.org/2000/svg" xmlns:xlink="http://www.w3.org/1999/xlink" x="0px" y="0px"
	 width="1190.551px" height="1190.551px" viewBox="0 0 1190.551 1190.551" enable-background="new 0 0 1190.551 1190.551"
	 xml:space="preserve">
<polygon fill="#010202" points="809.789,672.355 809.789,573.145 892.914,573.145 892.914,439.07 888.881,439.07 888.881,13.156 
	297.636,13.156 297.636,218.026 577.984,218.026 577.984,162.313 793.633,162.313 793.633,439.07 726.664,439.07 726.664,377.398 
	627.451,377.398 627.451,264.777 477.747,264.777 477.747,323.77 297.636,323.77 297.636,672.355 462.545,672.355 462.545,1177.395 
	858.602,781.334 858.602,682.322 666.067,682.322 462.545,580.113 462.545,575.824 646.223,575.824 646.223,672.355 "/>
</svg>
