<?xml version="1.0" encoding="utf-8"?>
<!-- Generator: Adobe Illustrator 16.0.0, SVG Export Plug-In . SVG Version: 6.00 Build 0)  -->
<!DOCTYPE svg PUBLIC "-//W3C//DTD SVG 1.1//EN" "http://www.w3.org/Graphics/SVG/1.1/DTD/svg11.dtd">
<svg version="1.1" id="Calque_1" xmlns="http://www.w3.org/2000/svg" xmlns:xlink="http://www.w3.org/1999/xlink" x="0px" y="0px"
	 width="1190.551px" height="1190.551px" viewBox="0 0 1190.551 1190.551" enable-background="new 0 0 1190.551 1190.551"
	 xml:space="preserve">
<polygon fill="#010202" points="204.87,738.996 204.87,718.478 149.158,718.478 149.158,502.827 425.913,502.827 425.913,407.58 
	415.168,407.58 415.168,348.587 595.279,348.587 595.279,0 430.37,0 430.37,96.532 246.693,96.532 246.693,0 83.125,0 
	83.125,99.212 0,99.212 0,233.287 166.25,233.287 166.25,294.959 265.463,294.959 265.463,407.58 0,407.58 0,998.825 
	204.87,998.825 204.87,838.011 397.406,838.011 600.928,940.22 600.928,342.938 "/>
</svg>
