<?xml version="1.0" encoding="utf-8"?>
<!-- Generator: Adobe Illustrator 16.0.0, SVG Export Plug-In . SVG Version: 6.00 Build 0)  -->
<!DOCTYPE svg PUBLIC "-//W3C//DTD SVG 1.1//EN" "http://www.w3.org/Graphics/SVG/1.1/DTD/svg11.dtd">
<svg version="1.1" id="Calque_1" xmlns="http://www.w3.org/2000/svg" xmlns:xlink="http://www.w3.org/1999/xlink" x="0px" y="0px"
	 width="1190.551px" height="1190.551px" viewBox="0 0 1190.551 1190.551" enable-background="new 0 0 1190.551 1190.551"
	 xml:space="preserve">
<g>
	<polygon fill="#010202" points="809.791,437.289 809.791,338.076 892.915,338.076 892.915,204 726.666,204 726.666,142.33 
		627.453,142.33 627.453,29.708 477.747,29.708 477.747,88.701 297.637,88.701 297.637,437.289 297.637,863.203 595.277,863.203 
		888.881,863.203 888.881,658.334 608.534,658.334 608.534,714.045 392.884,714.045 392.884,437.289 462.544,437.289 
		462.544,340.755 646.224,340.755 646.224,437.289 	"/>
	<path fill="#010202" d="M297.636,1160.844h595.277c0.002-164.383-133.256-297.641-297.638-297.641
		S297.636,996.461,297.636,1160.844z"/>
</g>
</svg>
