<?xml version="1.0" encoding="utf-8"?>
<!-- Generator: Adobe Illustrator 16.0.0, SVG Export Plug-In . SVG Version: 6.00 Build 0)  -->
<!DOCTYPE svg PUBLIC "-//W3C//DTD SVG 1.1//EN" "http://www.w3.org/Graphics/SVG/1.1/DTD/svg11.dtd">
<svg version="1.1" id="Calque_1" xmlns="http://www.w3.org/2000/svg" xmlns:xlink="http://www.w3.org/1999/xlink" x="0px" y="0px"
	 width="1190.551px" height="1190.551px" viewBox="0 0 1190.551 1190.551" enable-background="new 0 0 1190.551 1190.551"
	 xml:space="preserve">
<g>
	<polygon fill="#010202" points="512.155,407.581 512.155,308.368 595.279,308.368 595.279,174.293 429.03,174.293 429.03,112.622 
		329.817,112.622 329.817,0 180.111,0 180.111,58.993 0,58.993 0,407.581 0,833.495 297.64,833.495 591.245,833.495 
		591.245,628.626 310.898,628.626 310.898,684.338 95.247,684.338 95.247,407.581 164.907,407.581 164.907,311.048 348.587,311.048 
		348.587,407.581 	"/>
	<path fill="#010202" d="M-0.001,1131.136h595.278c0.002-164.383-133.256-297.641-297.638-297.641
		C133.257,833.495-0.001,966.754-0.001,1131.136z"/>
</g>
</svg>
