<?xml version="1.0" encoding="utf-8"?>
<!-- Generator: Adobe Illustrator 16.0.0, SVG Export Plug-In . SVG Version: 6.00 Build 0)  -->
<!DOCTYPE svg PUBLIC "-//W3C//DTD SVG 1.1//EN" "http://www.w3.org/Graphics/SVG/1.1/DTD/svg11.dtd">
<svg version="1.1" id="Calque_1" xmlns="http://www.w3.org/2000/svg" xmlns:xlink="http://www.w3.org/1999/xlink" x="0px" y="0px"
	 width="1190.551px" height="1190.551px" viewBox="0 0 1190.551 1190.551" enable-background="new 0 0 1190.551 1190.551"
	 xml:space="preserve">
<path fill="#010202" d="M1012.023,265.626v-95.247H586.111v162.074h-58.993v-180.11H178.53V317.25h96.533v183.68H178.53v163.567
	h99.213v83.124h133.812c-133.311,29.512-233.025,148.395-233.025,290.586h595.277c0.001-125.467-77.636-232.791-187.486-276.58
	h204.659v-280.35h-55.712v-215.65L1012.023,265.626L1012.023,265.626z M476.169,740.567c-22.098,0-43.626,2.429-64.352,6.998
	V581.374h61.671V482.16h112.622v279.381C552.097,748.014,515.003,740.567,476.169,740.567z"/>
</svg>
