<?xml version="1.0" encoding="utf-8"?>
<!-- Generator: Adobe Illustrator 16.0.0, SVG Export Plug-In . SVG Version: 6.00 Build 0)  -->
<!DOCTYPE svg PUBLIC "-//W3C//DTD SVG 1.1//EN" "http://www.w3.org/Graphics/SVG/1.1/DTD/svg11.dtd">
<svg version="1.1" id="Calque_1" xmlns="http://www.w3.org/2000/svg" xmlns:xlink="http://www.w3.org/1999/xlink" x="0px" y="0px"
	 width="1190.551px" height="1190.551px" viewBox="0 0 1190.551 1190.551" enable-background="new 0 0 1190.551 1190.551"
	 xml:space="preserve">
<path fill="#010202" d="M724.114,516.319v208.358v71.99h55.713v215.649h-276.65c127.207-33.832,220.937-149.781,220.937-287.639
	c0-95.007-44.514-179.616-113.822-234.111h163.43v-99.213h83.123V257.278H690.596v-61.671h-99.213V82.985H441.677v58.993h-180.11
	v348.588h164.907v531.749c26.484,0,52.154-3.477,76.597-9.968v95.218h425.915V516.319H724.114z M426.473,394.033h183.679v96.425
	c-50.588-39.728-114.367-63.421-183.68-63.421L426.473,394.033L426.473,394.033z"/>
</svg>
