<?xml version="1.0" encoding="utf-8"?>
<!-- Generator: Adobe Illustrator 16.0.0, SVG Export Plug-In . SVG Version: 6.00 Build 0)  -->
<!DOCTYPE svg PUBLIC "-//W3C//DTD SVG 1.1//EN" "http://www.w3.org/Graphics/SVG/1.1/DTD/svg11.dtd">
<svg version="1.1" id="Calque_1" xmlns="http://www.w3.org/2000/svg" xmlns:xlink="http://www.w3.org/1999/xlink" x="0px" y="0px"
	 width="1190.551px" height="1190.551px" viewBox="0 0 1190.551 1190.551" enable-background="new 0 0 1190.551 1190.551"
	 xml:space="preserve">
<polygon fill="#010202" points="1096.705,248.706 1096.705,85.137 997.492,85.137 997.492,2.013 863.418,2.013 863.418,168.262 
	801.746,168.262 801.746,267.475 689.125,267.475 689.125,2.013 93.846,2.013 93.846,265.651 508.125,265.651 508.125,333.651 
	93.846,333.651 93.846,597.291 93.846,1188.538 298.717,1188.538 298.717,908.19 243.005,908.19 243.005,692.539 519.759,692.539 
	519.759,597.291 689.125,597.291 689.125,417.181 748.117,417.181 748.117,597.293 1096.705,597.293 1096.705,432.385 
	1000.172,432.385 1000.172,248.706 "/>
</svg>
