<?xml version="1.0" encoding="utf-8"?>
<!-- Generator: Adobe Illustrator 16.0.0, SVG Export Plug-In . SVG Version: 6.00 Build 0)  -->
<!DOCTYPE svg PUBLIC "-//W3C//DTD SVG 1.1//EN" "http://www.w3.org/Graphics/SVG/1.1/DTD/svg11.dtd">
<svg version="1.1" id="Calque_1" xmlns="http://www.w3.org/2000/svg" xmlns:xlink="http://www.w3.org/1999/xlink" x="0px" y="0px"
	 width="1190.551px" height="1190.551px" viewBox="0 0 1190.551 1190.551" enable-background="new 0 0 1190.551 1190.551"
	 xml:space="preserve">
<polygon fill="#010202" points="1002.86,246.693 1002.86,83.124 903.647,83.124 903.647,0 769.573,0 769.573,166.249 
	707.901,166.249 707.901,265.462 595.28,265.462 595.28,0 0,0 0,263.638 414.28,263.638 414.28,331.638 0,331.638 0,595.279 
	0,1186.525 204.871,1186.525 204.871,906.178 149.159,906.178 149.159,690.526 425.914,690.526 425.914,595.279 595.28,595.279 
	595.28,415.168 654.272,415.168 654.272,595.28 1002.86,595.28 1002.86,430.372 906.327,430.372 906.327,246.693 "/>
</svg>
