<?xml version="1.0" encoding="utf-8"?>
<!-- Generator: Adobe Illustrator 16.0.0, SVG Export Plug-In . SVG Version: 6.00 Build 0)  -->
<!DOCTYPE svg PUBLIC "-//W3C//DTD SVG 1.1//EN" "http://www.w3.org/Graphics/SVG/1.1/DTD/svg11.dtd">
<svg version="1.1" id="Calque_1" xmlns="http://www.w3.org/2000/svg" xmlns:xlink="http://www.w3.org/1999/xlink" x="0px" y="0px"
	 width="1190.551px" height="1190.551px" viewBox="0 0 1190.551 1190.551" enable-background="new 0 0 1190.551 1190.551"
	 xml:space="preserve">
<polygon fill="#010202" points="939.834,647.849 939.834,484.28 840.62,484.28 840.62,401.156 706.548,401.156 706.548,567.405 
	644.875,567.405 644.875,666.617 532.254,666.617 532.254,816.323 310.898,816.323 310.898,872.035 95.247,872.035 95.247,595.28 
	263.638,595.28 263.638,181 331.638,181 331.638,595.28 595.279,595.28 595.279,0 0,0 0,595.28 0,1021.195 591.245,1021.195 
	591.245,996.436 939.834,996.436 939.834,831.528 843.302,831.528 843.302,647.849 "/>
</svg>
