<?xml version="1.0" encoding="utf-8"?>
<!-- Generator: Adobe Illustrator 16.0.0, SVG Export Plug-In . SVG Version: 6.00 Build 0)  -->
<!DOCTYPE svg PUBLIC "-//W3C//DTD SVG 1.1//EN" "http://www.w3.org/Graphics/SVG/1.1/DTD/svg11.dtd">
<svg version="1.1" id="Calque_1" xmlns="http://www.w3.org/2000/svg" xmlns:xlink="http://www.w3.org/1999/xlink" x="0px" y="0px"
	 width="1190.551px" height="1190.551px" viewBox="0 0 1190.551 1190.551" enable-background="new 0 0 1190.551 1190.551"
	 xml:space="preserve">
<polygon fill="#010202" points="1065.193,732.526 1065.193,568.958 965.978,568.958 965.978,485.834 831.906,485.834 
	831.906,652.083 770.234,652.083 770.234,751.295 657.613,751.295 657.613,901.001 436.256,901.001 436.256,956.713 
	220.606,956.713 220.606,679.958 388.996,679.958 388.996,265.678 456.996,265.678 456.996,679.958 720.637,679.958 720.637,84.678 
	125.359,84.678 125.359,679.958 125.359,1105.873 716.603,1105.873 716.603,1081.113 1065.193,1081.113 1065.193,916.206 
	968.66,916.206 968.66,732.526 "/>
</svg>
