<?xml version="1.0" encoding="utf-8"?>
<!-- Generator: Adobe Illustrator 16.0.0, SVG Export Plug-In . SVG Version: 6.00 Build 0)  -->
<!DOCTYPE svg PUBLIC "-//W3C//DTD SVG 1.1//EN" "http://www.w3.org/Graphics/SVG/1.1/DTD/svg11.dtd">
<svg version="1.1" id="Calque_1" xmlns="http://www.w3.org/2000/svg" xmlns:xlink="http://www.w3.org/1999/xlink" x="0px" y="0px"
	 width="1190.551px" height="1190.551px" viewBox="0 0 1190.551 1190.551" enable-background="new 0 0 1190.551 1190.551"
	 xml:space="preserve">
<path d="M841.49,497.832c-39.402,0-73.914,21.312-92.631,53.01v-39.248h-17.932v-40.348h17.932v-39.451h-17.932v-42.652h17.932
	v-39.449h-17.932V310.24h17.932v-39.388c9.932,49.08,53.4,86.145,105.365,86.145c59.273,0,107.5-48.226,107.5-107.5
	c0-59.275-48.227-107.502-107.5-107.502c-51.965,0-95.434,37.066-105.365,86.146V188.75h-17.932v-36.985h17.932v-39.451h-17.932
	V80.038h17.932V40.584h-17.932V22.267h-43.037V2.542h-41.244v19.725h-34.072V2.542h-41.243v19.725h-32.279V2.542h-41.244v19.725
	H462.17V2.542h-41.246v19.725h-34.886V2.542h-41.243v19.725h-28.164V2.542h-41.244v19.725h-28.63v18.318h-17.93v39.453h17.93v32.275
	h-17.93v39.451h17.93v36.985h-17.93v39.453h17.93v42.588h-17.93v39.449h17.93v39.454h-17.93v39.449h17.93v42.652h-17.93v39.451
	h17.93v40.348h-17.93v39.451h17.93v23.536h28.63v21.519h41.244v-21.517h28.164v21.519h41.243v-21.519h34.886v21.519h40.664v35.708
	h-65.855c-77.909,0-120.808,43.283-120.808,113.08c0,24.754,0,68.713,0,68.713h-46.099v77.369v2.166v77.367h46.1
	c0,0,0,43.963,0,68.715c0,69.799,42.896,113.084,120.807,113.084h65.855v35.707h64.926h1.624h64.926v-35.707h65.855
	c77.912,0,120.809-43.285,120.809-113.084c0-24.752,0-68.715,0-68.715h44.379v-77.367v-2.166v-77.367h-44.381c0,0,0-43.961,0-68.713
	c0-27.953-6.887-51.648-20.141-70.02c19.732,23.209,49.127,37.961,81.906,37.961c59.273,0,107.5-48.225,107.5-107.5
	C948.99,546.058,900.764,497.827,841.49,497.832z M730.93,228.203h17.918c-1.389,6.885-2.121,14.005-2.121,21.294
	s0.732,14.409,2.121,21.294H730.93V228.203L730.93,228.203z M462.17,596.101v-21.519h35.639v21.519H462.17L462.17,596.101z
	 M539.052,596.101v-21.519h32.279v21.519H539.052L539.052,596.101z M658.918,631.809h-65.856v-35.708h19.514v-21.519h34.07v21.519
	h41.244v-21.519h43.039v-23.536h17.809c-9.365,15.943-14.748,34.497-14.748,54.287c0,23.652,7.684,45.539,20.68,63.311
	C734.33,645.035,701.975,631.809,658.918,631.809z"/>
</svg>
