<?xml version="1.0" encoding="utf-8"?>
<!-- Generator: Adobe Illustrator 16.0.0, SVG Export Plug-In . SVG Version: 6.00 Build 0)  -->
<!DOCTYPE svg PUBLIC "-//W3C//DTD SVG 1.1//EN" "http://www.w3.org/Graphics/SVG/1.1/DTD/svg11.dtd">
<svg version="1.1" id="Calque_1" xmlns="http://www.w3.org/2000/svg" xmlns:xlink="http://www.w3.org/1999/xlink" x="0px" y="0px"
	 width="1190.551px" height="1190.551px" viewBox="0 0 1190.551 1190.551" enable-background="new 0 0 1190.551 1190.551"
	 xml:space="preserve">
<path d="M1069.699,864.516l33.959-11.033l-20.063-61.749l-0.501-1.545l-20.062-61.748l-33.961,11.033l-20.351-62.632
	c-24.076-74.099-78.498-101.521-144.88-79.952c-23.54,7.648-65.353,21.233-65.353,21.233l-13.714-42.206l-73.58,23.908l-2.062,0.669
	l-73.58,23.908l13.715,42.211h-0.002c0,0-41.81,13.584-65.351,21.233c-12.643,4.107-23.884,9.401-33.642,15.786l17.891-35.111
	l-15.979-8.143l18.317-35.95l15.978,8.144l17.91-35.152l-15.978-8.141l19.364-38.003l15.979,8.14l17.908-35.149l-15.979-8.14
	l17.912-35.153l15.978,8.141l17.909-35.15l-15.978-8.142l19.336-37.945l15.978,8.141l17.911-35.152l-15.979-8.142l16.792-32.953
	l15.978,8.141l17.909-35.151l-15.977-8.141l14.652-28.759l15.979,8.142l17.914-35.155l-15.979-8.141l8.316-16.321l-38.349-19.54
	l8.956-17.574l-36.75-18.725l-8.953,17.574l-30.359-15.468l8.955-17.576l-36.748-18.723l-8.955,17.575l-28.761-14.654l8.955-17.575
	l-36.75-18.725l-8.955,17.574l-31.753-16.179l8.954-17.576l-36.748-18.726l-8.956,17.575l-31.083-15.835l8.954-17.575
	l-36.747-18.725l-8.955,17.575l-25.094-12.785l8.955-17.575L377.401-0.001l-8.955,17.575l-25.51-12.998l-8.315,16.321l-15.976-8.141
	l-17.912,35.153l15.977,8.14l-14.654,28.76l-15.975-8.141l-17.912,35.151l15.978,8.14l-16.791,32.955l-15.977-8.141l-17.911,35.152
	l15.977,8.141l-19.335,37.945l-15.978-8.139l-17.908,35.151l15.976,8.139l-17.911,35.154l-15.976-8.142l-17.91,35.15l15.976,8.14
	l-19.362,38.005l-15.977-8.14l-17.91,35.15l15.976,8.141l-18.316,35.951l-15.977-8.141L86.9,467.582l15.976,8.14L92.19,496.693
	l25.511,12.997l-9.771,19.174l36.749,18.725l9.771-19.174l25.094,12.786l-9.77,19.174l36.748,18.725l9.77-19.175l31.084,15.839
	l-9.77,19.174l36.164,18.426c-40.472-20.919-91.548-14.438-125.439,19.455c-41.913,41.914-41.915,110.112,0,152.027
	c15.936,15.936,35.67,25.806,56.315,29.624c-14.25-1.385-29,0.063-43.461,4.764c-56.374,18.315-87.338,79.083-69.021,135.458
	c18.316,56.374,79.084,87.336,135.458,69.019c56.374-18.315,87.336-79.083,69.02-135.457c-12.586-38.733-45.211-65.47-82.682-72.469
	c30.878,2.972,62.805-7.34,86.398-30.938c41.915-41.916,41.914-110.113,0-152.027c-7.859-7.859-16.643-14.244-26.003-19.156
	l9.77-19.173l31.755,16.179l-9.77,19.174l36.749,18.726l9.769-19.175l28.761,14.654l-9.769,19.174l36.747,18.725l9.77-19.174
	l30.36,15.47l-9.771,19.173l36.749,18.725l9.77-19.174l38.347,19.539l10.687-20.97l15.956,8.129
	c-41.447,27.146-56.017,74.058-36.531,134.024l20.35,62.632l-33.962,11.034l20.063,61.747l0.502,1.544l20.062,61.75l33.96-11.036
	l20.352,62.632c24.075,74.1,78.494,101.521,144.876,79.952c23.543-7.649,65.35-21.233,65.35-21.233l14.245,43.842l73.584-23.908
	l2.061-0.67l73.58-23.907l-14.245-43.843c0,0,41.812-13.587,65.353-21.233c66.382-21.57,94.293-75.741,70.217-149.839
	L1069.699,864.516z"/>
</svg>
