<?xml version="1.0" encoding="utf-8"?>
<!-- Generator: Adobe Illustrator 16.0.0, SVG Export Plug-In . SVG Version: 6.00 Build 0)  -->
<!DOCTYPE svg PUBLIC "-//W3C//DTD SVG 1.1//EN" "http://www.w3.org/Graphics/SVG/1.1/DTD/svg11.dtd">
<svg version="1.1" id="Calque_1" xmlns="http://www.w3.org/2000/svg" xmlns:xlink="http://www.w3.org/1999/xlink" x="0px" y="0px"
	 width="1190.551px" height="1190.551px" viewBox="0 0 1190.551 1190.551" enable-background="new 0 0 1190.551 1190.551"
	 xml:space="preserve">
<g>
	<path d="M962.792,673.633V634.18h-17.932v-18.316h-43.038v-19.727h-41.244v19.727h-34.073v-19.727h-41.24v19.727h-32.28v-19.727
		H711.74v19.727h-35.638v-19.727h-41.247v19.727H599.97v-19.726h2.193v-44.383c0,0,43.961,0,68.713,0
		c69.797,0,113.081-42.896,113.081-120.808v-65.854h35.709v-64.925v-1.624v-64.926h-35.709v-65.855
		c0-77.912-43.281-120.808-113.079-120.808c-24.754,0-68.713,0-68.713,0V0.855h-77.367h-2.167h-77.367v46.1c0,0-43.963,0-68.715,0
		c-69.8,0-113.083,42.896-113.083,120.807v65.854h-35.707v64.926v1.624v64.926h35.707v65.855c0,66.881,31.896,107.959,85.082,118.25
		c-4.355-0.54-8.79-0.821-13.289-0.821c-59.274,0-107.5,48.224-107.5,107.5c0,59.273,48.224,107.505,107.5,107.5
		c59.274,0,107.5-48.227,107.5-107.5c0-52.058-37.196-95.585-86.405-105.417c6.455,0.856,13.189,1.296,20.195,1.296
		c24.752,0,68.715,0,68.715,0v44.38h44.055v19.726h-28.63v18.316h-17.93v21.698v17.755h17.93v32.276h-17.93v39.451h17.93v36.983
		h-17.93v39.452h17.93v42.589h-17.93v39.45h17.93v39.453h-17.93v39.45h17.93v42.65h-17.93v39.451h17.93v40.348h-17.93v39.451h17.93
		v23.536h28.63v21.521h41.244v-21.521h28.164v21.521h41.243v-21.521h34.886v21.521h41.247v-21.521h35.638v21.521h41.244v-21.521
		h32.28v21.521h41.24v-21.521h34.073v21.521h41.244v-21.521h43.038v-23.536h17.932v-39.451h-17.932v-40.348h17.932v-39.451h-17.932
		v-42.65h17.932v-39.45h-17.932v-39.451h17.932v-39.451h-17.932v-42.588h17.932v-39.453h-17.932v-36.983h17.932V705.91h-17.932
		v-32.276L962.792,673.633L962.792,673.633z M530.563,615.862v-19.726h28.164v19.726H530.563z"/>
	<path d="M335.259,957.342c-59.274,0-107.5,48.226-107.5,107.5s48.225,107.5,107.5,107.5c59.273,0,107.5-48.226,107.5-107.5
		C442.759,1005.566,394.533,957.342,335.259,957.342z"/>
</g>
</svg>
