<?xml version="1.0" encoding="utf-8"?>
<!-- Generator: Adobe Illustrator 16.0.0, SVG Export Plug-In . SVG Version: 6.00 Build 0)  -->
<!DOCTYPE svg PUBLIC "-//W3C//DTD SVG 1.1//EN" "http://www.w3.org/Graphics/SVG/1.1/DTD/svg11.dtd">
<svg version="1.1" id="Calque_1" xmlns="http://www.w3.org/2000/svg" xmlns:xlink="http://www.w3.org/1999/xlink" x="0px" y="0px"
	 width="1190.551px" height="1190.551px" viewBox="0 0 1190.551 1190.551" enable-background="new 0 0 1190.551 1190.551"
	 xml:space="preserve">
<path d="M840.123,497.984c-38.453,0-72.253,20.3-91.256,50.742v-38.818h-17.932V469.56h17.932v-39.451h-17.932v-42.652h17.932
	v-39.449h-17.932v-39.453h17.932v-39.287c9.973,49.029,53.418,86.043,105.348,86.043c59.274,0,107.502-48.226,107.502-107.5
	s-48.228-107.5-107.502-107.5c-51.93,0-95.375,37.014-105.348,86.043v-39.29h-17.932v-36.985h17.932v-39.451h-17.932V78.351h17.932
	V38.898h-17.932V20.58h-43.038V0.855h-41.244V20.58h-34.071V0.855h-41.243V20.58H539.06V0.855h-41.244V20.58h-35.639V0.855h-41.246
	V20.58h-34.886V0.855h-41.243V20.58h-28.164V0.855h-41.244V20.58h-28.63v18.318h-17.93v39.453h17.93v32.275h-17.93v39.451h17.93
	v36.985h-17.93v39.453h17.93v42.588h-17.93v39.45h17.93v39.453h-17.93v39.449h17.93v42.652h-17.93v39.451h17.93v40.348h-17.93
	v39.451h17.93v23.536h28.63v21.519h41.244v-21.517h28.164v21.519h41.243v-21.519h34.886v21.519h25.406v44.383c0,0-43.961,0-68.713,0
	c-69.797,0-113.081,42.895-113.081,120.807v65.854h-35.709v64.926v1.625v64.926h35.709v65.854
	c0,77.912,43.281,120.809,113.079,120.809c24.754,0,68.713,0,68.713,0v46.1h77.369h2.167h77.365v-46.1c0,0,43.965,0,68.715,0
	c69.798,0,113.083-42.896,113.083-120.809v-65.854h35.707v-64.926v-1.625v-64.926h-35.707v-65.855
	c0-32.502-7.538-58.904-21.386-78.646c19.504,19.762,46.583,32.031,76.475,32.031c59.276,0,107.5-48.227,107.5-107.5
	C947.623,546.21,899.401,497.984,840.123,497.984z M730.937,226.516h17.9c-1.39,6.885-2.122,14.005-2.122,21.294
	s0.732,14.409,2.122,21.294h-17.9V226.516z M462.177,594.414v-21.519h35.639v21.519H462.177L462.177,594.414z M539.06,594.414
	v-21.519h32.279v21.519H539.06L539.06,594.414z M671.951,638.793c-24.75,0-68.715,0-68.715,0v-44.379h9.346v-21.519h34.071v21.519
	h41.244v-21.519h43.038v-23.536h17.536c-10.048,16.347-15.852,35.571-15.85,56.125c0,23.309,7.46,44.904,20.112,62.535
	C733.28,648.834,705.719,638.793,671.951,638.793z"/>
</svg>
