<?xml version="1.0" encoding="utf-8"?>
<!-- Generator: Adobe Illustrator 16.0.0, SVG Export Plug-In . SVG Version: 6.00 Build 0)  -->
<!DOCTYPE svg PUBLIC "-//W3C//DTD SVG 1.1//EN" "http://www.w3.org/Graphics/SVG/1.1/DTD/svg11.dtd">
<svg version="1.1" id="Calque_1" xmlns="http://www.w3.org/2000/svg" xmlns:xlink="http://www.w3.org/1999/xlink" x="0px" y="0px"
	 width="1190.551px" height="1190.551px" viewBox="0 0 1190.551 1190.551" enable-background="new 0 0 1190.551 1190.551"
	 xml:space="preserve">
<path d="M854.226,835.242c-51.963,0-95.431,37.061-105.365,86.139v-39.385h-17.93v-39.453h17.93v-39.449h-17.93v-42.65h17.93
	v-39.451h-17.93v-40.35h17.93v-39.219c18.916,30.848,52.948,51.473,91.71,51.473c59.276,0,107.5-48.227,107.5-107.5
	s-48.224-107.5-107.5-107.5c-31.539,0-59.946,13.653-79.63,35.358c15.565-20.092,24.085-47.752,24.085-82.307v-65.854h35.709
	v-64.925v-1.624v-64.926h-35.709v-65.855c0-77.912-43.28-120.808-113.079-120.808c-24.753,0-68.712,0-68.712,0V0.856h-77.368h-2.167
	h-77.367v46.1c0,0-43.963,0-68.715,0c-69.799,0-113.083,42.896-113.083,120.807v65.854h-35.708v64.926v1.624v64.926h35.707v65.855
	c0,77.911,43.284,120.809,113.083,120.809c24.752,0,68.715,0,68.715,0v44.379h-7.696v21.52h-32.279v-21.52h-41.241v21.52h-34.073
	v-21.52h-41.245v21.52h-43.038v23.537h-17.932v39.449h17.932v40.35h-17.932v39.451h17.932v42.65h-17.932v39.447h17.932v39.453
	h-17.932v39.453h17.932v42.586h-17.932v39.455h17.932v36.982h-17.932v39.451h17.932v32.277h-17.932v39.453h17.932v18.316h43.038
	v19.727h41.244v-19.727h34.073v19.727h41.241v-19.727h32.279v19.727h41.244v-19.727h35.639v19.727h41.246v-19.727h34.886v19.727
	h41.243v-19.727h28.164v19.727H702.3v-19.727h28.63v-18.316h17.93v-39.453h-17.93v-32.277h17.93v-39.451h-17.93v-36.982h17.93
	v-39.387c9.935,49.076,53.401,86.143,105.365,86.139c59.274,0,107.5-48.227,107.5-107.5
	C961.726,883.467,913.5,835.242,854.226,835.242z M479.879,617.656v-21.52h35.639v21.52H479.879z M556.764,617.656v-21.52h34.886
	v21.52H556.764z M702.301,617.656v-21.52h-41.244v21.52h-28.164v-21.52h-29.661v-44.382c0,0,43.962,0,68.713,0
	c35.656,0,64.388-11.2,83.97-32.539c-14.306,18.258-22.844,41.24-22.844,66.179c0,20.417,5.724,39.521,15.646,55.798h-17.786
	v-23.537H702.301z M730.931,964.035v-42.588h17.917c-1.389,6.887-2.122,14.006-2.122,21.295c0,7.287,0.732,14.408,2.122,21.293
	H730.931z"/>
</svg>
