<?xml version="1.0" encoding="utf-8"?>
<!-- Generator: Adobe Illustrator 16.0.0, SVG Export Plug-In . SVG Version: 6.00 Build 0)  -->
<!DOCTYPE svg PUBLIC "-//W3C//DTD SVG 1.1//EN" "http://www.w3.org/Graphics/SVG/1.1/DTD/svg11.dtd">
<svg version="1.1" id="Calque_1" xmlns="http://www.w3.org/2000/svg" xmlns:xlink="http://www.w3.org/1999/xlink" x="0px" y="0px"
	 width="1190.551px" height="1190.551px" viewBox="0 0 1190.551 1190.551" enable-background="new 0 0 1190.551 1190.551"
	 xml:space="preserve">
<g>
	<path d="M943.393,757.404c-20.026-14.55-55.59-40.389-55.59-40.389l27.096-37.294l-62.593-45.475l-1.753-1.274l-62.591-45.477
		l-27.097,37.296c0,0-35.566-25.841-55.592-40.391c-56.468-41.025-116.699-31.766-162.494,31.266l-38.71,53.279l-28.888-20.988
		l-38.162,52.526l-0.955,1.313l-2.115,2.91l9.956-13.703l-14.507-10.539l23.716-32.644l14.507,10.541l23.188-31.917l-14.507-10.54
		l25.07-34.507l14.507,10.541l23.188-31.915l-14.506-10.539l23.188-31.919l14.508,10.539l23.188-31.916l-14.507-10.539
		l25.033-34.456l14.506,10.541l23.191-31.919l-14.507-10.54l21.737-29.921l14.509,10.541l23.188-31.917l-14.507-10.541
		l18.971-26.111l14.509,10.541l23.188-31.919l-14.507-10.541l10.767-14.818l-34.818-25.298l11.594-15.957l-33.367-24.243
		l-11.594,15.958l-27.565-20.027l11.594-15.958l-33.366-24.242l-11.594,15.957l-26.114-18.973l11.594-15.958l-33.367-24.242
		l-11.593,15.958l-28.834-20.948l11.596-15.957l-33.37-24.244l-11.594,15.957l-28.223-20.506l11.593-15.957l-33.365-24.242
		l-11.595,15.958l-22.785-16.555l11.595-15.958L360.071,0.87l-11.595,15.958L325.314,0L314.547,14.82L300.042,4.281l-23.19,31.917
		l14.506,10.539L272.386,72.85l-14.505-10.54l-23.189,31.917l14.506,10.539l-21.739,29.922l-14.506-10.539l-23.19,31.918
		l14.507,10.54l-25.033,34.453l-14.506-10.539l-23.188,31.917l14.506,10.539l-23.189,31.919l-14.507-10.54l-23.187,31.916
		l14.506,10.537l-25.071,34.507l-14.506-10.539l-23.188,31.916l14.504,10.539l-23.715,32.643l-14.506-10.539L0,417.252
		l14.506,10.539L0.671,446.832l23.162,16.828L11.185,481.07l33.367,24.243L57.2,487.904l22.785,16.554l-12.648,17.409l33.366,24.242
		l12.648-17.409l28.224,20.506l-12.647,17.408l33.368,24.244l12.648-17.409l28.832,20.948l-12.648,17.409l33.368,24.242
		l12.647-17.409l26.114,18.974l-12.647,17.41l33.366,24.241l12.648-17.409l27.564,20.027l-12.648,17.409l33.367,24.242
		l12.648-17.409l34.818,25.298l13.834-19.041l14.508,10.539l-22.815,31.402l28.889,20.989l-38.709,53.278
		c-45.796,63.031-35.991,123.179,20.477,164.205c20.024,14.549,55.591,40.39,55.591,40.39l-26.086,35.903l62.592,45.474l1.753,1.275
		l62.59,45.475l26.088-35.906c0,0,35.565,25.84,55.591,40.39c56.467,41.025,116.698,31.765,162.492-31.269l38.71-53.277
		l28.889,20.989l38.162-52.525l0.955-1.314l38.163-52.526l-28.889-20.988l38.708-53.278
		C1009.662,858.573,999.86,798.429,943.393,757.404z"/>
	<path d="M117.885,792.054c13.925-0.984,27.879-4.712,41.08-11.438c52.814-26.912,73.89-91.771,46.979-144.587
		c-26.91-52.814-91.772-73.89-144.587-46.979c-52.815,26.91-73.895,91.774-46.979,144.587c18.982,37.256,56.85,58.714,96.051,58.681
		c-55.813,3.839-100.052,50.466-100.052,107.237c0,59.276,48.225,107.5,107.5,107.5c59.274,0,107.5-48.224,107.5-107.5
		C225.377,840.281,177.156,792.059,117.885,792.054z"/>
</g>
</svg>
