<?xml version="1.0" encoding="utf-8"?>
<!-- Generator: Adobe Illustrator 16.0.0, SVG Export Plug-In . SVG Version: 6.00 Build 0)  -->
<!DOCTYPE svg PUBLIC "-//W3C//DTD SVG 1.1//EN" "http://www.w3.org/Graphics/SVG/1.1/DTD/svg11.dtd">
<svg version="1.1" id="Calque_1" xmlns="http://www.w3.org/2000/svg" xmlns:xlink="http://www.w3.org/1999/xlink" x="0px" y="0px"
	 width="1190.551px" height="1190.551px" viewBox="0 0 1190.551 1190.551" enable-background="new 0 0 1190.551 1190.551"
	 xml:space="preserve">
<g>
	<path d="M1011.729,884.781c35.372-69.421,16.28-127.29-45.909-158.978c-22.056-11.238-61.224-31.195-61.224-31.195l20.929-41.073
		l-68.937-35.125l-1.93-0.984l-68.935-35.124l-20.929,41.075c0,0-39.172-19.958-61.226-31.195
		c-53.232-27.123-103.423-17.418-138.961,29.473l12.645-38.915l-20.466-6.649l8.703-26.786l20.466,6.65l12.745-39.224l-20.465-6.65
		l10.78-33.179l20.466,6.65l12.744-39.228l-20.466-6.65l11.015-33.894l20.466,6.649l12.745-39.227l-20.466-6.648l9.974-30.7
		l20.466,6.649l12.744-39.224l-20.466-6.649l10.529-32.405l20.466,6.65l12.745-39.227L671.513,223l13.3-40.932l-22.383-7.272
		l5.54-17.055l-37.521-12.191l-5.541,17.055l-38.372-12.468l5.54-17.055l-37.52-12.191l-5.542,17.055l-40.564-13.181l5.542-17.054
		l-37.518-12.19l-5.541,17.054l-37.523-12.192l5.541-17.054l-37.52-12.19l-5.541,17.054l-40.504-13.16l5.542-17.054l-37.522-12.192
		l-5.542,17.055L282.69,51.41l5.542-17.054l-37.52-12.191L245.17,39.22l-30.696-9.974l5.541-17.054L182.492,0l-5.54,17.055
		l-17.422-5.661l-13.3,40.932l-18.759-6.095l-12.745,39.225l18.759,6.096l-10.528,32.405l-18.76-6.096l-12.745,39.225l18.759,6.096
		l-9.975,30.698l-18.759-6.096L68.732,227.01l18.76,6.095l-11.013,33.895l-18.76-6.096l-12.746,39.229l18.76,6.095l-10.779,33.179
		l-18.761-6.096l-12.744,39.225l18.76,6.095l-8.703,26.786l-18.76-6.095L0,438.545l18.76,6.096L9.913,471.87l17.421,5.66
		l-5.541,17.052l37.522,12.192l5.541-17.053l30.696,9.974l-5.541,17.052l36.873,11.981c-32.238-4.458-66.125,5.675-90.859,30.409
		c-41.913,41.913-41.915,110.113,0,152.027c41.913,41.915,110.117,41.918,152.028,0c41.915-41.914,41.914-110.114,0-152.027
		c-7.634-7.634-16.142-13.87-25.201-18.723l37.376,12.145l5.54-17.053l40.504,13.161l-5.541,17.052l37.521,12.19l5.541-17.052
		l37.521,12.191l-5.54,17.053l37.518,12.19l5.541-17.053l40.565,13.181l-5.541,17.051l37.521,12.192l5.539-17.053l38.374,12.469
		l-5.541,17.052l37.52,12.191l5.541-17.053l22.384,7.273l8.848-27.229l20.356,6.613c-5.901,7.823-11.397,16.672-16.432,26.554
		l-29.898,58.677l-31.813-16.211l-29.476,57.85l-0.737,1.447l-29.477,57.849l31.814,16.211l-29.897,58.677
		c-35.371,69.421-16.279,127.294,45.912,158.98c22.054,11.237,61.224,31.196,61.224,31.196l-20.146,39.541l68.934,35.124
		l1.931,0.984l68.935,35.124l20.151-39.542c0,0,39.169,19.958,61.224,31.195c62.189,31.687,120.229,13.116,155.602-56.304
		l29.897-58.677l31.816,16.211l29.476-57.849l0.736-1.446l29.476-57.85l-31.816-16.212L1011.729,884.781z M162.715,540.341
		c-11.083-5.916-22.99-9.76-35.146-11.52l5.503-16.934l35.175,11.429L162.715,540.341z"/>
	<path d="M74.282,980.811c-56.374,18.315-87.336,79.083-69.019,135.458c18.316,56.372,79.083,87.335,135.457,69.018
		c56.374-18.315,87.336-79.083,69.019-135.457C191.423,993.455,130.656,962.492,74.282,980.811z"/>
</g>
</svg>
