<?xml version="1.0" encoding="utf-8"?>
<!-- Generator: Adobe Illustrator 16.0.0, SVG Export Plug-In . SVG Version: 6.00 Build 0)  -->
<!DOCTYPE svg PUBLIC "-//W3C//DTD SVG 1.1//EN" "http://www.w3.org/Graphics/SVG/1.1/DTD/svg11.dtd">
<svg version="1.1" id="Calque_1" xmlns="http://www.w3.org/2000/svg" xmlns:xlink="http://www.w3.org/1999/xlink" x="0px" y="0px"
	 width="1190.551px" height="1190.551px" viewBox="0 0 1190.551 1190.551" enable-background="new 0 0 1190.551 1190.551"
	 xml:space="preserve">
<path d="M870.054,939.946c-50.524,0-93.016,35.042-104.46,82.099c2.372-11.091,3.603-23.205,3.603-36.315v-65.854h35.709v-64.926
	v-1.624v-64.926h-35.709v-65.854c0-23.046-3.789-43.027-10.929-59.741c16.979,37.068,54.427,62.886,97.795,62.886
	c59.276,0,107.5-48.226,107.5-107.5c0-59.275-48.224-107.5-107.5-107.5c-27.201,0-52.071,10.16-71.026,26.878v-28.489h21.521
	v-41.244h-21.521V439.67h21.521v-41.242h-21.521v-34.887h21.521v-41.246h-21.521v-35.639h21.521v-41.244h-21.521v-32.28h21.521
	v-41.242h-21.521v-34.072h21.521V96.572h-21.521V53.535h-23.533V35.603h-39.452v17.932h-40.35V35.603h-39.448v17.932H599.6V35.603
	h-39.449v17.932h-39.453V35.603h-39.451v17.932h-42.588V35.603h-39.453v17.932H362.22V35.603h-39.451v17.932h-32.275V35.603H251.04
	v17.932h-18.318v43.038h-19.725v41.245h19.725v34.072h-19.725v41.242h19.725v32.279h-19.725v41.244h19.725v35.639h-19.725v41.246
	h19.725v34.887h-19.725v41.242h19.725v28.164h-19.725v41.244h19.725v28.63h18.318v17.931h39.453v-17.931h32.274v17.931h39.451
	v-17.931h36.985v17.931h31.297v46.099c0,0-43.963,0-68.715,0c-69.799,0-113.083,42.896-113.083,120.808v65.854h-35.706v64.926v1.624
	v64.927h35.707v65.854c0,77.91,43.284,120.809,113.083,120.809c24.752,0,68.715,0,68.715,0v44.38h77.367h2.167h77.365v-44.382
	c0,0,43.962,0,68.713,0c56.711,0,95.919-28.319,108.627-80.73c-1.435,6.993-2.188,14.23-2.188,21.642
	c0,59.276,48.226,107.501,107.5,107.501c59.275,0,107.5-48.226,107.5-107.5C977.554,988.171,929.328,939.946,870.054,939.946z
	 M560.15,537.708v17.929h-39.452v-17.929H560.15z M481.246,537.708v17.929h-42.588v-17.929H481.246z M656.116,601.734
	c-24.753,0-68.713,0-68.713,0v-46.097h12.194v-17.931h42.653v17.931h39.448v-17.931h40.35v17.931h39.452v-17.931h23.375
	c-22.26,19.709-36.317,48.482-36.314,80.48c0,14.819,3.014,28.947,8.462,41.805C739.551,622.008,704.1,601.734,656.116,601.734z"/>
</svg>
