<?xml version="1.0" encoding="utf-8"?>
<!-- Generator: Adobe Illustrator 16.0.0, SVG Export Plug-In . SVG Version: 6.00 Build 0)  -->
<!DOCTYPE svg PUBLIC "-//W3C//DTD SVG 1.1//EN" "http://www.w3.org/Graphics/SVG/1.1/DTD/svg11.dtd">
<svg version="1.1" id="Calque_1" xmlns="http://www.w3.org/2000/svg" xmlns:xlink="http://www.w3.org/1999/xlink" x="0px" y="0px"
	 width="1190.551px" height="1190.551px" viewBox="0 0 1190.551 1190.551" enable-background="new 0 0 1190.551 1190.551"
	 xml:space="preserve">
<path d="M612.664,495.29c-39.402,0-73.913,21.312-92.631,53.01v-39.248h-17.931v-40.348h17.931v-39.451h-17.931v-42.652h17.931
	v-39.449h-17.931v-39.454h17.931v-39.388c9.932,49.08,53.401,86.145,105.366,86.145c59.272,0,107.5-48.226,107.5-107.5
	c0-59.275-48.227-107.502-107.5-107.502c-51.965,0-95.434,37.066-105.366,86.146v-39.391h-17.931v-36.985h17.931v-39.451h-17.931
	V77.496h17.931V38.043h-17.931V19.725h-43.038V0h-41.244v19.725h-34.072V0h-41.243v19.725h-32.279V0h-41.244v19.725h-35.639V0
	h-41.246v19.725h-34.886V0h-41.243v19.725H87.804V0H46.56v19.725H17.93v18.318H0v39.453h17.93v32.275H0v39.451h17.93v36.985H0
	v39.453h17.93v42.588H0v39.449h17.93v39.454H0v39.449h17.93v42.652H0v39.451h17.93v40.348H0v39.451h17.93v23.536h28.63v21.519
	h41.244V572.04h28.164v21.519h41.243V572.04h34.886v21.519h40.664v35.709h-65.855c-77.91,0-120.808,43.282-120.808,113.079
	c0,24.754,0,68.713,0,68.713H-0.001v77.369v2.167v77.367h46.1c0,0,0,43.963,0,68.715c0,69.798,42.896,113.083,120.807,113.083
	h65.855v35.707h64.926h1.624h64.926v-35.707h65.855c77.912,0,120.809-43.285,120.809-113.083c0-24.752,0-68.715,0-68.715h44.379
	v-77.367v-2.167v-77.367h-44.382c0,0,0-43.961,0-68.713c0-27.953-6.887-51.648-20.141-70.019
	c19.733,23.208,49.128,37.96,81.908,37.96c59.272,0,107.5-48.224,107.5-107.5C720.164,543.516,671.938,495.285,612.664,495.29z
	 M502.103,225.661h17.919c-1.389,6.885-2.122,14.005-2.122,21.294s0.733,14.409,2.122,21.294h-17.919V225.661z M233.343,593.559
	V572.04h35.639v21.519H233.343z M310.226,593.559V572.04h32.279v21.519H310.226z M430.091,629.268h-65.855v-35.709h19.513V572.04
	h34.072v21.519h41.244V572.04h43.038v-23.536h17.81c-9.367,15.943-14.749,34.497-14.749,54.286c0,23.652,7.684,45.54,20.679,63.312
	C505.504,642.493,473.148,629.268,430.091,629.268z"/>
</svg>
