<?xml version="1.0" encoding="utf-8"?>
<!-- Generator: Adobe Illustrator 16.0.0, SVG Export Plug-In . SVG Version: 6.00 Build 0)  -->
<!DOCTYPE svg PUBLIC "-//W3C//DTD SVG 1.1//EN" "http://www.w3.org/Graphics/SVG/1.1/DTD/svg11.dtd">
<svg version="1.1" id="Calque_1" xmlns="http://www.w3.org/2000/svg" xmlns:xlink="http://www.w3.org/1999/xlink" x="0px" y="0px"
	 width="1190.551px" height="1190.551px" viewBox="0 0 1190.551 1190.551" enable-background="new 0 0 1190.551 1190.551"
	 xml:space="preserve">
<path d="M869.449,930.832c-52.945,0-97.072,38.48-105.893,88.939c0.623-5.572,0.945-11.344,0.945-17.314c0-24.752,0-68.715,0-68.715
	h44.379v-77.367v-2.166v-77.367h-44.383c0,0,0-43.961,0-68.713c0-16.104-2.289-30.791-6.758-43.865
	c16.176,38.938,54.604,66.393,99.326,66.393c59.273,0,107.5-48.225,107.5-107.498c0-59.274-48.227-107.5-107.5-107.5
	c-26.537,0-50.857,9.671-69.631,25.667V498.37h19.725v-41.244h-19.725v-34.072h19.725v-41.243h-19.725v-32.279h19.725v-41.244
	h-19.725V272.65h19.725v-41.247h-19.725v-34.886h19.725v-41.242h-19.725v-28.167h19.725V85.864h-19.725v-28.63h-18.318v-17.93
	h-39.453v17.93h-32.277v-17.93H657.94v17.93h-36.986v-17.93h-39.453v17.93h-42.589v-17.93h-39.451v17.93h-39.453v-17.93H420.56
	v17.93h-42.652v-17.93h-39.451v17.93h-40.349v-17.93h-39.451v17.93h-23.536v28.63h-21.519v41.244h21.519v28.165h-21.519v41.242
	h21.519v34.886h-21.519v41.247h21.519v35.638h-21.519v41.244h21.519v32.279h-21.519v41.243h21.519v34.072h-21.519v41.244h21.519
	v43.038h23.536v17.933h39.451v-17.933h40.348v17.933h39.451v-17.933h42.652v17.933h25.804v35.709h-65.855
	c-77.909,0-120.808,43.28-120.808,113.077c0,24.754,0,68.713,0,68.713h-46.099v77.369v2.168v77.367h46.1c0,0,0,43.963,0,68.715
	c0,69.797,42.896,113.082,120.807,113.082h65.855v35.707h64.926h1.624h64.926v-35.707h65.855c68.168,0,109.529-33.135,118.811-88.17
	c-0.367,3.604-0.555,7.262-0.555,10.961c0,59.275,48.229,107.5,107.5,107.5c59.275,0,107.5-48.225,107.5-107.5
	C976.949,979.059,928.725,930.832,869.449,930.832z M460.008,559.339v-17.933h39.453v17.933H460.008z M643.694,595.048h-65.856
	v-35.709h-38.926v-17.933H581.5v17.933h39.454v-17.933h36.986v17.933h39.447v-17.933h32.277v17.933h39.453v-17.933h18.219
	c-23.102,19.732-37.775,49.058-37.771,81.75c0,12.092,2.008,23.721,5.705,34.576C738.781,618.121,700.573,595.048,643.694,595.048z"
	/>
</svg>
