<?xml version="1.0" encoding="utf-8"?>
<!-- Generator: Adobe Illustrator 16.0.0, SVG Export Plug-In . SVG Version: 6.00 Build 0)  -->
<!DOCTYPE svg PUBLIC "-//W3C//DTD SVG 1.1//EN" "http://www.w3.org/Graphics/SVG/1.1/DTD/svg11.dtd">
<svg version="1.1" id="Calque_1" xmlns="http://www.w3.org/2000/svg" xmlns:xlink="http://www.w3.org/1999/xlink" x="0px" y="0px"
	 width="1190.551px" height="1190.551px" viewBox="0 0 1190.551 1190.551" enable-background="new 0 0 1190.551 1190.551"
	 xml:space="preserve">
<path d="M655.848,891.527c-52.945,0-97.073,38.482-105.892,88.942c0.623-5.572,0.945-11.345,0.945-17.316
	c0-24.752,0-68.715,0-68.715h44.379v-77.367v-2.167v-77.366l-44.382-0.001c0,0,0-43.961,0-68.713c0-16.11-2.291-30.805-6.765-43.884
	c16.17,38.948,54.602,66.412,99.332,66.412c59.272,0,107.5-48.224,107.5-107.5c0-59.274-48.226-107.505-107.5-107.5
	c-26.539,0-50.858,9.672-69.631,25.67v-42.958h19.725v-41.244h-19.725v-34.072h19.725v-41.243h-19.725v-32.279h19.725v-41.244
	h-19.725v-35.638h19.725v-41.247h-19.725v-34.886h19.725v-41.242h-19.725V87.804h19.725V46.56h-19.725V17.93h-18.318V0h-39.453
	v17.93h-32.277V0h-39.448v17.93h-36.986V0h-39.453v17.93H325.31V0h-39.451v17.93h-39.453V0h-39.448v17.93h-42.652V0h-39.451v17.93
	H84.506V0H45.055v17.93H21.519v28.63H0v41.244h21.519v28.165H0v41.242h21.519v34.886H0v41.247h21.519v35.638H0v41.244h21.519v32.279
	H0v41.243h21.519v34.072H0v41.244h21.519v43.038h23.536v17.933h39.451v-17.933h40.348v17.933h39.451v-17.933h42.652v17.933h25.804
	v35.709h-65.855c-77.91,0-120.808,43.28-120.808,113.077c0,24.754,0,68.713,0,68.713H-0.001v77.369v2.167v77.367h46.1
	c0,0,0,43.963,0,68.715c0,69.798,42.896,113.083,120.807,113.083h65.855v35.707h64.926h1.624h64.926v-35.707h65.855
	c68.167,0,109.53-33.135,118.811-88.171c-0.367,3.605-0.555,7.262-0.555,10.962c0,59.276,48.228,107.5,107.5,107.5
	c59.275,0,107.5-48.224,107.5-107.5C763.348,939.754,715.124,891.527,655.848,891.527z M246.406,520.035v-17.933h39.453v17.933
	H246.406z M430.091,555.744h-65.855v-35.709H325.31v-17.933h42.588v17.933h39.453v-17.933h36.986v17.933h39.448v-17.933h32.277
	v17.933h39.453v-17.933h18.223c-23.101,19.733-37.774,49.059-37.774,81.749c0,12.1,2.011,23.737,5.713,34.6
	C525.196,578.826,486.981,555.744,430.091,555.744z"/>
</svg>
