<?xml version="1.0" encoding="utf-8"?>
<!-- Generator: Adobe Illustrator 16.0.0, SVG Export Plug-In . SVG Version: 6.00 Build 0)  -->
<!DOCTYPE svg PUBLIC "-//W3C//DTD SVG 1.1//EN" "http://www.w3.org/Graphics/SVG/1.1/DTD/svg11.dtd">
<svg version="1.1" id="Calque_1" xmlns="http://www.w3.org/2000/svg" xmlns:xlink="http://www.w3.org/1999/xlink" x="0px" y="0px"
	 width="1190.551px" height="1190.551px" viewBox="0 0 1190.551 1190.551" enable-background="new 0 0 1190.551 1190.551"
	 xml:space="preserve">
<g>
	<path d="M1042.261,757.347c-20.026-14.551-55.59-40.39-55.59-40.39l27.096-37.294l-62.593-45.475l-1.753-1.274l-62.591-45.477
		l-27.098,37.296c0,0-35.565-25.841-55.592-40.391c-56.468-41.025-116.699-31.766-162.494,31.266l-38.71,53.279l-28.888-20.988
		l-38.162,52.526l-0.955,1.312l-2.115,2.91l9.956-13.703l-14.507-10.539l23.716-32.644l14.507,10.541l23.188-31.917l-14.507-10.54
		l25.069-34.507l14.508,10.541l23.188-31.915l-14.506-10.539l23.188-31.919l14.509,10.539l23.188-31.916l-14.507-10.539
		l25.033-34.456l14.506,10.541l23.191-31.919l-14.508-10.54l21.737-29.921l14.509,10.541l23.188-31.917l-14.507-10.541
		l18.971-26.111l14.509,10.541l23.188-31.919l-14.508-10.541l10.768-14.818l-34.818-25.298l11.594-15.957l-33.366-24.242
		l-11.595,15.957l-27.564-20.026l11.594-15.958l-33.366-24.242l-11.594,15.957l-26.114-18.973l11.594-15.958l-33.366-24.242
		l-11.594,15.958l-28.834-20.948l11.597-15.957l-33.37-24.244l-11.594,15.957l-28.224-20.506l11.593-15.957l-33.364-24.242
		l-11.595,15.958l-22.785-16.555l11.595-15.958L458.939,0.812l-11.595,15.958L424.182-0.058l-10.767,14.82L398.91,4.224
		l-23.19,31.917l14.506,10.539l-18.972,26.113l-14.505-10.54L333.56,94.17l14.506,10.539l-21.738,29.922l-14.506-10.539
		l-23.19,31.918l14.507,10.54l-25.033,34.453l-14.506-10.539l-23.188,31.917l14.506,10.539l-23.189,31.919l-14.507-10.54
		l-23.187,31.916l14.506,10.537l-25.071,34.507l-14.506-10.539l-23.188,31.916l14.505,10.539l-23.716,32.643l-14.506-10.539
		l-23.189,31.916l14.506,10.539l-13.835,19.041l23.162,16.828l-12.648,17.41l33.367,24.243l12.648-17.409l22.784,16.554
		l-12.647,17.409l33.366,24.242l12.647-17.409l28.225,20.506l-12.647,17.408l33.368,24.244l12.647-17.409l28.832,20.948
		l-12.647,17.409l33.368,24.242l12.646-17.409l26.114,18.975l-12.647,17.41l33.366,24.24l12.648-17.408l27.563,20.026
		l-12.647,17.409l33.367,24.242l12.647-17.409l34.818,25.298l13.834-19.041l14.508,10.539l-22.815,31.402l28.889,20.988
		l-38.708,53.278c-45.796,63.031-35.991,123.179,20.477,164.205c20.023,14.549,55.591,40.39,55.591,40.39l-26.086,35.903
		l62.592,45.474l1.753,1.275l62.59,45.475l26.089-35.905c0,0,35.564,25.84,55.591,40.39c56.467,41.025,116.697,31.765,162.492-31.27
		l38.71-53.276l28.889,20.989l38.162-52.525l0.955-1.314l38.163-52.525l-28.89-20.988l38.708-53.277
		C1108.53,858.516,1098.728,798.371,1042.261,757.347z"/>
	<path d="M216.753,791.996c13.925-0.983,27.879-4.712,41.08-11.438c52.813-26.912,73.89-91.771,46.979-144.587
		c-26.909-52.814-91.771-73.89-144.587-46.979c-52.814,26.91-73.895,91.774-46.979,144.587
		c18.981,37.256,56.85,58.715,96.051,58.682c-55.812,3.839-100.052,50.466-100.052,107.236c0,59.276,48.225,107.5,107.5,107.5
		c59.273,0,107.5-48.224,107.5-107.5C324.245,840.224,276.024,792.001,216.753,791.996z"/>
</g>
</svg>
