<?xml version="1.0" encoding="utf-8"?>
<!-- Generator: Adobe Illustrator 16.0.0, SVG Export Plug-In . SVG Version: 6.00 Build 0)  -->
<!DOCTYPE svg PUBLIC "-//W3C//DTD SVG 1.1//EN" "http://www.w3.org/Graphics/SVG/1.1/DTD/svg11.dtd">
<svg version="1.1" id="Calque_1" xmlns="http://www.w3.org/2000/svg" xmlns:xlink="http://www.w3.org/1999/xlink" x="0px" y="0px"
	 width="1190.551px" height="1190.551px" viewBox="0 0 1190.551 1190.551" enable-background="new 0 0 1190.551 1190.551"
	 xml:space="preserve">
<path d="M611.29,497.129c-38.454,0-72.253,20.3-91.256,50.742v-38.818h-17.932v-40.348h17.932v-39.451h-17.932v-42.652h17.932
	v-39.449h-17.932v-39.453h17.932v-39.287c9.972,49.029,53.418,86.043,105.347,86.043c59.275,0,107.502-48.226,107.502-107.5
	s-48.227-107.5-107.502-107.5c-51.929,0-95.375,37.014-105.347,86.043v-39.29h-17.932v-36.985h17.932v-39.451h-17.932V77.496h17.932
	V38.043h-17.932V19.725h-43.038V0h-41.244v19.725h-34.072V0h-41.243v19.725h-32.279V0h-41.244v19.725h-35.639V0h-41.246v19.725
	h-34.886V0h-41.243v19.725H87.804V0H46.56v19.725H17.93v18.318H0v39.453h17.93v32.275H0v39.451h17.93v36.985H0v39.453h17.93v42.588
	H0v39.45h17.93v39.453H0v39.449h17.93v42.652H0v39.451h17.93v40.348H0v39.451h17.93v23.536h28.63v21.519h41.244V572.04h28.164
	v21.519h41.243V572.04h34.886v21.519h25.406v44.382c0,0-43.961,0-68.713,0c-69.797,0-113.081,42.896-113.081,120.807v65.855H0
	v64.925v1.624v64.926h35.709v65.855c0,77.912,43.281,120.808,113.079,120.808c24.754,0,68.713,0,68.713,0v46.1h77.369h2.167h77.366
	v-46.101c0,0,43.964,0,68.715,0c69.798,0,113.083-42.896,113.083-120.807v-65.855h35.707v-64.926v-1.624v-64.926h-35.707v-65.855
	c0-32.502-7.538-58.904-21.386-78.646c19.504,19.761,46.583,32.03,76.475,32.03c59.276,0,107.5-48.226,107.5-107.5
	C718.79,545.355,670.567,497.129,611.29,497.129z M502.103,225.661h17.9c-1.389,6.885-2.122,14.005-2.122,21.294
	s0.733,14.409,2.122,21.294h-17.9V225.661z M233.343,593.559V572.04h35.639v21.519H233.343z M310.226,593.559V572.04h32.279v21.519
	H310.226z M443.118,637.938c-24.751,0-68.715,0-68.715,0v-44.379h9.345V572.04h34.072v21.519h41.244V572.04h43.038v-23.536h17.536
	c-10.048,16.347-15.851,35.571-15.849,56.126c0,23.308,7.46,44.904,20.112,62.535C504.446,647.979,476.885,637.938,443.118,637.938z
	"/>
</svg>
