<?xml version="1.0" encoding="utf-8"?>
<!-- Generator: Adobe Illustrator 16.0.0, SVG Export Plug-In . SVG Version: 6.00 Build 0)  -->
<!DOCTYPE svg PUBLIC "-//W3C//DTD SVG 1.1//EN" "http://www.w3.org/Graphics/SVG/1.1/DTD/svg11.dtd">
<svg version="1.1" id="Calque_1" xmlns="http://www.w3.org/2000/svg" xmlns:xlink="http://www.w3.org/1999/xlink" x="0px" y="0px"
	 width="1190.551px" height="1190.551px" viewBox="0 0 1190.551 1190.551" enable-background="new 0 0 1190.551 1190.551"
	 xml:space="preserve">
<g>
	<path d="M595.279,897.538v-103.47H449.106H341.603V671.196H121.197V548.42c8.653,1.646,17.865,2.481,27.594,2.481
		c24.752,0,68.715,0,68.715,0v44.379h77.367h2.167h77.366v-44.381c0,0,43.961,0,68.713,0c69.797,0,113.081-42.896,113.081-120.808
		v-65.854h35.709v-64.926v-1.624V232.76h-35.709v-65.854c0-77.912-43.281-120.809-113.079-120.809c-24.754,0-68.713,0-68.713,0
		V-0.002h-77.368h-2.167h-77.367v46.101c0,0-43.963,0-68.715,0c-69.799,0-113.083,42.896-113.083,120.807v65.854H0v64.927v1.624
		v64.926h35.707v65.854c0,66.844,31.861,107.912,84.991,118.232H0v594.961h121.196v-122.873H341.6
		c-0.368,3.61-0.556,7.272-0.556,10.978c0,59.274,48.226,107.5,107.501,107.5c59.274,0,107.5-48.226,107.5-107.5
		c0-59.275-48.226-107.5-107.5-107.5c-55.56,0-101.417,42.372-106.942,96.502V897.538H595.279z"/>
	<path d="M556.606,686.569c0-59.273-48.225-107.5-107.5-107.5s-107.5,48.227-107.5,107.5c0,59.275,48.225,107.5,107.5,107.5
		C508.375,794.069,556.606,745.844,556.606,686.569z"/>
</g>
</svg>
