<?xml version="1.0" encoding="utf-8"?>
<!-- Generator: Adobe Illustrator 16.0.0, SVG Export Plug-In . SVG Version: 6.00 Build 0)  -->
<!DOCTYPE svg PUBLIC "-//W3C//DTD SVG 1.1//EN" "http://www.w3.org/Graphics/SVG/1.1/DTD/svg11.dtd">
<svg version="1.1" id="Calque_1" xmlns="http://www.w3.org/2000/svg" xmlns:xlink="http://www.w3.org/1999/xlink" x="0px" y="0px"
	 width="1190.551px" height="1190.551px" viewBox="0 0 1190.551 1190.551" enable-background="new 0 0 1190.551 1190.551"
	 xml:space="preserve">
<g>
	<path d="M474.683,547.592c51.039-11.414,81.517-52.128,81.517-117.501v-65.854h35.709v-64.926v-1.624V232.76h-35.709v-65.854
		c0-77.912-43.281-120.809-113.079-120.809c-24.754,0-68.713,0-68.713,0V-0.002h-77.368h-2.167h-77.367v46.101
		c0,0-43.963,0-68.715,0c-69.799,0-113.083,42.896-113.083,120.807v65.854H0v64.927v1.624v64.926h35.707v65.854
		c0,77.912,43.284,120.81,113.083,120.81c24.752,0,68.715,0,68.715,0v44.379h77.367h2.167h77.366v-44.381c0,0,43.961,0,68.713,0
		c11.002,0,21.345-1.068,30.964-3.169v122.736H253.676v122.873H0v103.47h107.503h146.173v122.873h220.406v122.873h121.196V547.592
		H474.683z"/>
	<path d="M0.003,1004.308c0,59.275,48.225,107.5,107.5,107.5c59.27,0,107.5-48.224,107.5-107.5c0-59.274-48.226-107.5-107.5-107.5
		C48.228,896.808,0.003,945.033,0.003,1004.308z"/>
	<path d="M215,685.835c0-59.269-48.226-107.5-107.5-107.5S0,626.56,0,685.835c0,59.276,48.226,107.5,107.5,107.5
		S215,745.112,215,685.835z"/>
</g>
</svg>
