<?xml version="1.0" encoding="utf-8"?>
<!-- Generator: Adobe Illustrator 16.0.0, SVG Export Plug-In . SVG Version: 6.00 Build 0)  -->
<!DOCTYPE svg PUBLIC "-//W3C//DTD SVG 1.1//EN" "http://www.w3.org/Graphics/SVG/1.1/DTD/svg11.dtd">
<svg version="1.1" id="Calque_1" xmlns="http://www.w3.org/2000/svg" xmlns:xlink="http://www.w3.org/1999/xlink" x="0px" y="0px"
	 width="1190.551px" height="1190.551px" viewBox="0 0 1190.551 1190.551" enable-background="new 0 0 1190.551 1190.551"
	 xml:space="preserve">
<path d="M549.182,771.165c0,0,0-43.963,0-68.715c0-64.39-36.507-106.215-103.333-112.31c0.904,0.023,1.811,0.035,2.721,0.035
	c59.27,0,107.5-48.225,107.5-107.5s-48.227-107.5-107.5-107.5c-55.659,0-101.57,42.519-106.967,96.781v-122.74h253.676v-103.47
	H341.603V123.781C349.472,175.358,394.13,215,447.87,215c59.276,0,107.5-48.226,107.5-107.5S507.147,0,447.87,0
	c-59.27,0-107.499,48.225-107.499,107.5c0,5.219,0.382,10.351,1.104,15.373H121.197V0H0v594.962h120.758
	c-49.621,13.792-76.379,52.369-76.379,107.488c0,24.752,0,68.715,0,68.715H0v77.367v2.167v77.367h44.381c0,0,0,43.961,0,68.713
	c0,69.797,42.896,113.081,120.808,113.081h65.854v35.709h64.927h1.624h64.926v-35.709h65.854
	c77.912,0,120.811-43.282,120.811-113.079c0-24.754,0-68.713,0-68.713h46.097v-77.369v-2.167v-77.367H549.182z M362.52,589.367
	V553.66h-64.926h-1.624h-64.927v35.707h-65.854c-16.204,0-30.888,1.878-43.992,5.472v-122.75h220.395
	c-0.342,3.483-0.521,7.014-0.521,10.586c0,55.397,42.123,101.139,96.023,106.886c-2.858-0.124-5.76-0.194-8.719-0.194H362.52z"/>
</svg>
