<?xml version="1.0" encoding="utf-8"?>
<!-- Generator: Adobe Illustrator 16.0.0, SVG Export Plug-In . SVG Version: 6.00 Build 0)  -->
<!DOCTYPE svg PUBLIC "-//W3C//DTD SVG 1.1//EN" "http://www.w3.org/Graphics/SVG/1.1/DTD/svg11.dtd">
<svg version="1.1" id="Calque_1" xmlns="http://www.w3.org/2000/svg" xmlns:xlink="http://www.w3.org/1999/xlink" x="0px" y="0px"
	 width="1190.551px" height="1190.551px" viewBox="0 0 1190.551 1190.551" enable-background="new 0 0 1190.551 1190.551"
	 xml:space="preserve">
<g>
	<path d="M656.499-0.001l-55.022,107.988l109.479,55.783L610.896,360.153c-2.403-11.254-6.579-22.776-12.524-34.445
		c-11.237-22.055-31.196-61.226-31.196-61.226l39.542-20.148L571.593,175.4l-0.983-1.932l-35.124-68.935l-39.544,20.152
		c0,0-19.957-39.17-31.193-61.225c-31.688-62.189-89.559-81.28-158.979-45.91l-58.678,29.897L230.88,15.631l-57.849,29.477
		l-1.446,0.736l-57.85,29.477l16.211,31.815l-58.676,29.897c-69.42,35.372-87.992,93.41-56.305,155.601
		c11.237,22.056,31.194,61.224,31.194,61.224L5.088,374.785l35.125,68.936l0.983,1.931l35.124,68.935l41.074-20.928
		c0,0,19.959,39.172,31.196,61.225c31.688,62.19,89.559,81.283,158.979,45.913l58.677-29.898l16.21,31.814l57.85-29.476l1.447-0.737
		l6.682-3.404c-28.196,15.458-49.22,43.317-54.628,77.461c-9.271,58.54,30.815,113.722,89.361,122.994
		c58.545,9.272,113.72-30.814,122.992-89.359c2.065-13.044,1.676-25.919-0.816-38.157l92.057,46.904l115.168-226.026l109.479,55.783
		l100.063-196.383l109.48,55.783l55.022-107.987L656.499-0.001z M605.294,641.798c-8.773-42.587-43.076-77.407-88.494-84.602
		c-22.041-3.491-43.602,0.017-62.418,8.868l45.221-23.041l-16.211-31.815l58.678-29.897c56.395-28.734,79.23-72.429,68.826-121.156
		l109.48,55.783L605.294,641.798z"/>
	<path d="M1011.163,471.261c-59.273,0-107.5,48.225-107.5,107.5c0,59.269,48.226,107.5,107.5,107.5
		c59.276,0,107.5-48.226,107.5-107.5C1118.663,519.486,1070.44,471.261,1011.163,471.261z"/>
</g>
</svg>
