<?xml version="1.0" encoding="utf-8"?>
<!-- Generator: Adobe Illustrator 16.0.0, SVG Export Plug-In . SVG Version: 6.00 Build 0)  -->
<!DOCTYPE svg PUBLIC "-//W3C//DTD SVG 1.1//EN" "http://www.w3.org/Graphics/SVG/1.1/DTD/svg11.dtd">
<svg version="1.1" id="Calque_1" xmlns="http://www.w3.org/2000/svg" xmlns:xlink="http://www.w3.org/1999/xlink" x="0px" y="0px"
	 width="1190.551px" height="1190.551px" viewBox="0 0 1190.551 1190.551" enable-background="new 0 0 1190.551 1190.551"
	 xml:space="preserve">
<g>
	<path d="M772.32,571.591c51.039-11.414,81.517-52.128,81.517-117.501v-65.854h35.709V323.31v-1.624v-64.927h-35.709v-65.854
		c0-77.912-43.28-120.809-113.079-120.809c-24.753,0-68.712,0-68.712,0V23.997h-77.368h-2.167h-77.367v46.101c0,0-43.963,0-68.715,0
		c-69.799,0-113.083,42.896-113.083,120.807v65.854h-35.708v64.927v1.624v64.926h35.707v65.854
		c0,77.912,43.284,120.81,113.083,120.81c24.752,0,68.715,0,68.715,0v44.379h77.367h2.167h77.365v-44.381c0,0,43.962,0,68.713,0
		c11.002,0,21.346-1.068,30.964-3.169v122.736H551.313v122.873H297.637v103.47H405.14h146.173v122.873h220.405v122.873h121.196
		V571.591H772.32z"/>
	<path d="M297.64,1028.307c0,59.275,48.225,107.5,107.5,107.5c59.27,0,107.5-48.224,107.5-107.5c0-59.273-48.227-107.5-107.5-107.5
		C345.865,920.807,297.64,969.032,297.64,1028.307z"/>
	<path d="M512.637,709.834c0-59.269-48.227-107.5-107.5-107.5c-59.274,0-107.5,48.225-107.5,107.5
		c0,59.276,48.226,107.5,107.5,107.5C464.41,817.334,512.637,769.111,512.637,709.834z"/>
</g>
</svg>
