<?xml version="1.0" encoding="utf-8"?>
<!-- Generator: Adobe Illustrator 16.0.0, SVG Export Plug-In . SVG Version: 6.00 Build 0)  -->
<!DOCTYPE svg PUBLIC "-//W3C//DTD SVG 1.1//EN" "http://www.w3.org/Graphics/SVG/1.1/DTD/svg11.dtd">
<svg version="1.1" id="Calque_1" xmlns="http://www.w3.org/2000/svg" xmlns:xlink="http://www.w3.org/1999/xlink" x="0px" y="0px"
	 width="1190.551px" height="1190.551px" viewBox="0 0 1190.551 1190.551" enable-background="new 0 0 1190.551 1190.551"
	 xml:space="preserve">
<g>
	<path d="M449.106,792.215H341.603V669.342H121.197V546.703c8.652,1.646,17.864,2.481,27.592,2.481c24.754,0,68.713,0,68.713,0
		v46.097h77.369h2.167h77.366v-46.099c0,0,43.964,0,68.715,0c69.798,0,113.083-42.896,113.083-120.808V362.52h35.707v-64.926v-1.624
		v-64.927h-35.707v-65.854c0-77.912-43.285-120.81-113.083-120.81c-24.751,0-68.715,0-68.715,0V0h-77.366h-2.167h-77.367v44.381
		c0,0-43.961,0-68.713,0c-69.797,0-113.081,42.896-113.081,120.808v65.854H0v64.927v1.624v64.926h35.709v65.854
		c0,66.559,31.591,107.558,84.313,118.095H0v594.962h121.196v-122.873h220.406V895.685h253.676v-103.47H449.106z"/>
	<path d="M449.106,911.058c-59.275,0-107.5,48.226-107.5,107.5c0,59.275,48.225,107.5,107.5,107.5c59.27,0,107.5-48.224,107.5-107.5
		C556.606,959.283,508.381,911.058,449.106,911.058z"/>
	<path d="M556.606,684.715c0-59.273-48.225-107.5-107.5-107.5s-107.5,48.227-107.5,107.5c0,59.275,48.225,107.5,107.5,107.5
		C508.375,792.215,556.606,743.99,556.606,684.715z"/>
</g>
</svg>
