<?xml version="1.0" encoding="utf-8"?>
<!-- Generator: Adobe Illustrator 16.0.0, SVG Export Plug-In . SVG Version: 6.00 Build 0)  -->
<!DOCTYPE svg PUBLIC "-//W3C//DTD SVG 1.1//EN" "http://www.w3.org/Graphics/SVG/1.1/DTD/svg11.dtd">
<svg version="1.1" id="Calque_1" xmlns="http://www.w3.org/2000/svg" xmlns:xlink="http://www.w3.org/1999/xlink" x="0px" y="0px"
	 width="1190.551px" height="1190.551px" viewBox="0 0 1190.551 1190.551" enable-background="new 0 0 1190.551 1190.551"
	 xml:space="preserve">
<g>
	<path d="M549.182,217.505c0,0,0-43.963,0-68.715c0-69.799-42.896-113.083-120.809-113.083H362.52V0h-64.926h-1.624h-64.927v35.707
		h-65.854c-77.912,0-120.81,43.284-120.81,113.083c0,24.752,0,68.715,0,68.715H0v77.367v2.167v77.366h44.381c0,0,0,43.961,0,68.714
		c0,54.612,26.263,92.989,75.011,107.104H0v594.962h121.196v-122.873h220.406V899.44h253.676V795.97H341.603V677.58
		c7.451,52.051,52.324,92.2,106.406,92.2c59.274,0,107.5-48.225,107.5-107.5c0-58.175-46.453-105.7-104.211-107.445
		c63.355-7.832,97.886-49.099,97.886-111.714c0-24.755,0-68.714,0-68.714h46.097v-77.368v-2.167v-77.367H549.182z M340.509,662.281
		c0,3.65,0.185,7.259,0.542,10.816H121.197v-122.37c13.104,3.594,27.788,5.472,43.992,5.472h65.854v35.709h64.927h1.624h64.926
		v-35.709h65.854c0.785,0,1.56-0.012,2.337-0.021C379.631,564.478,340.509,608.893,340.509,662.281z"/>
	<path d="M449.106,914.813c-59.275,0-107.5,48.227-107.5,107.5c0,59.275,48.225,107.5,107.5,107.5c59.27,0,107.5-48.225,107.5-107.5
		C556.606,963.039,508.381,914.813,449.106,914.813z"/>
</g>
</svg>
