<?xml version="1.0" encoding="utf-8"?>
<!-- Generator: Adobe Illustrator 16.0.0, SVG Export Plug-In . SVG Version: 6.00 Build 0)  -->
<!DOCTYPE svg PUBLIC "-//W3C//DTD SVG 1.1//EN" "http://www.w3.org/Graphics/SVG/1.1/DTD/svg11.dtd">
<svg version="1.1" id="Calque_1" xmlns="http://www.w3.org/2000/svg" xmlns:xlink="http://www.w3.org/1999/xlink" x="0px" y="0px"
	 width="1190.551px" height="1190.551px" viewBox="0 0 1190.551 1190.551" enable-background="new 0 0 1190.551 1190.551"
	 xml:space="preserve">
<g>
	<path d="M549.182,217.505c0,0,0-43.963,0-68.715c0-69.799-42.896-113.083-120.809-113.083H362.52V0h-64.926h-1.624h-64.927v35.707
		h-65.854c-77.912,0-120.81,43.284-120.81,113.083c0,24.752,0,68.715,0,68.715H0v77.367v2.167v77.366h44.381c0,0,0,43.961,0,68.714
		c0,69.797,42.896,113.08,120.808,113.08h65.854v35.709h64.927h1.624h64.926v-35.709h65.854c16.914,0,32.176-2.042,45.709-5.951
		v122.73H253.676v122.873H107.731C166.9,795.727,215,747.553,215,688.355c0-59.276-48.226-107.5-107.5-107.5S0,629.078,0,688.355
		c0,59.192,48.1,107.372,107.269,107.497H0v103.47h107.497h146.179v122.873h220.406v122.873h121.196V550.106h-120.7
		c48.487-14.21,74.605-52.525,74.605-106.984c0-24.755,0-68.714,0-68.714h46.097v-77.368v-2.167v-77.367H549.182z"/>
	<path d="M-0.003,1006.822c0,59.276,48.226,107.5,107.5,107.5c59.275,0,107.5-48.224,107.5-107.5c0-59.275-48.225-107.5-107.5-107.5
		C48.227,899.322-0.003,947.545-0.003,1006.822z"/>
</g>
</svg>
