<?xml version="1.0" encoding="utf-8"?>
<!-- Generator: Adobe Illustrator 16.0.0, SVG Export Plug-In . SVG Version: 6.00 Build 0)  -->
<!DOCTYPE svg PUBLIC "-//W3C//DTD SVG 1.1//EN" "http://www.w3.org/Graphics/SVG/1.1/DTD/svg11.dtd">
<svg version="1.1" id="Calque_1" xmlns="http://www.w3.org/2000/svg" xmlns:xlink="http://www.w3.org/1999/xlink" x="0px" y="0px"
	 width="1190.551px" height="1190.551px" viewBox="0 0 1190.551 1190.551" enable-background="new 0 0 1190.551 1190.551"
	 xml:space="preserve">
<path d="M600.748,1024.981V804.574H477.875V550.899h-34.757c69.797,0,113.081-42.896,113.081-120.808v-65.854h35.709v-64.926v-1.624
	V232.76h-35.709v-65.854c0-77.912-43.281-120.809-113.079-120.809c-24.754,0-68.713,0-68.713,0V-0.002h-77.368h-2.167h-77.367
	v46.101c0,0-43.963,0-68.715,0c-69.799,0-113.083,42.896-113.083,120.807v65.854H0v64.927v1.624v64.926h35.707v65.854
	c0,77.912,43.284,120.81,113.083,120.81c24.752,0,68.715,0,68.715,0v44.379h77.367h2.167h77.366v209.295H251.533v220.406H128.749
	C177.881,1015.09,215,971.596,215,919.594c0-59.232-48.161-107.435-107.383-107.498c59.217-0.062,107.386-48.264,107.386-107.499
	c0-59.275-48.226-107.5-107.5-107.5c-59.275,0-107.5,48.225-107.5,107.5c0,59.234,48.161,107.435,107.383,107.499
	C48.163,812.157,0,860.357,0,919.594c0,59.274,48.225,107.5,107.5,107.5c7.241,0,14.316-0.725,21.16-2.097v121.181h594.961v-121.197
	H600.748z"/>
</svg>
