<?xml version="1.0" encoding="utf-8"?>
<!-- Generator: Adobe Illustrator 16.0.0, SVG Export Plug-In . SVG Version: 6.00 Build 0)  -->
<!DOCTYPE svg PUBLIC "-//W3C//DTD SVG 1.1//EN" "http://www.w3.org/Graphics/SVG/1.1/DTD/svg11.dtd">
<svg version="1.1" id="Calque_1" xmlns="http://www.w3.org/2000/svg" xmlns:xlink="http://www.w3.org/1999/xlink" x="0px" y="0px"
	 width="1190.551px" height="1190.551px" viewBox="0 0 1190.551 1190.551" enable-background="new 0 0 1190.551 1190.551"
	 xml:space="preserve">
<g>
	<path d="M846.819,240.246c0,0,0-43.963,0-68.715c0-69.799-42.896-113.083-120.809-113.083h-65.854V22.741h-64.925h-1.624H528.68
		v35.707h-65.854c-77.912,0-120.81,43.284-120.81,113.083c0,24.752,0,68.715,0,68.715h-44.379v77.367v2.167v77.366h44.381
		c0,0,0,43.961,0,68.714c0,69.797,42.896,113.08,120.808,113.08h65.854v35.709h64.927h1.624h64.925V578.94h65.854
		c16.914,0,32.178-2.042,45.709-5.951v122.729H551.313v122.873H405.368c59.169-0.124,107.27-48.298,107.27-107.495
		c0-59.276-48.227-107.501-107.5-107.501c-59.274,0-107.5,48.224-107.5,107.501c0,59.191,48.1,107.371,107.269,107.496H297.637
		v103.471h107.497h146.179v122.873h220.406v122.873h121.195V572.847H772.215c48.486-14.21,74.605-52.525,74.605-106.984
		c0-24.755,0-68.714,0-68.714h46.096v-77.368v-2.167v-77.367L846.819,240.246L846.819,240.246z"/>
	<path d="M297.635,1029.563c0,59.275,48.226,107.5,107.5,107.5s107.5-48.225,107.5-107.5s-48.226-107.5-107.5-107.5
		C345.864,922.063,297.635,970.286,297.635,1029.563z"/>
</g>
</svg>
