<?xml version="1.0" encoding="utf-8"?>
<!-- Generator: Adobe Illustrator 16.0.0, SVG Export Plug-In . SVG Version: 6.00 Build 0)  -->
<!DOCTYPE svg PUBLIC "-//W3C//DTD SVG 1.1//EN" "http://www.w3.org/Graphics/SVG/1.1/DTD/svg11.dtd">
<svg version="1.1" id="Calque_1" xmlns="http://www.w3.org/2000/svg" xmlns:xlink="http://www.w3.org/1999/xlink" x="0px" y="0px"
	 width="1190.551px" height="1190.551px" viewBox="0 0 1190.551 1190.551" enable-background="new 0 0 1190.551 1190.551"
	 xml:space="preserve">
<g>
	<path d="M746.742,816.775H639.24V693.902H418.833V571.263c8.652,1.646,17.864,2.481,27.593,2.481c24.754,0,68.713,0,68.713,0
		v46.098h77.369h2.167h77.365v-46.1c0,0,43.965,0,68.715,0c69.798,0,113.083-42.896,113.083-120.808V387.08h35.707v-64.926v-1.624
		v-64.927h-35.707v-65.854c0-77.912-43.285-120.81-113.083-120.81c-24.751,0-68.715,0-68.715,0V24.56h-77.365h-2.167h-77.367v44.381
		c0,0-43.961,0-68.713,0c-69.797,0-113.081,42.896-113.081,120.808v65.854h-35.71v64.927v1.624v64.926h35.709v65.854
		c0,66.559,31.591,107.558,84.312,118.095H297.637v594.961h121.195v-122.873h220.406V920.244h253.676V816.775H746.742
		L746.742,816.775z"/>
	<path d="M746.742,935.617c-59.274,0-107.5,48.227-107.5,107.5c0,59.275,48.226,107.5,107.5,107.5c59.27,0,107.5-48.223,107.5-107.5
		C854.242,983.844,806.018,935.617,746.742,935.617z"/>
	<path d="M854.242,709.275c0-59.273-48.225-107.5-107.5-107.5c-59.274,0-107.5,48.227-107.5,107.5
		c0,59.275,48.226,107.5,107.5,107.5C806.012,816.775,854.242,768.551,854.242,709.275z"/>
</g>
</svg>
