<?xml version="1.0" encoding="utf-8"?>
<!-- Generator: Adobe Illustrator 16.0.0, SVG Export Plug-In . SVG Version: 6.00 Build 0)  -->
<!DOCTYPE svg PUBLIC "-//W3C//DTD SVG 1.1//EN" "http://www.w3.org/Graphics/SVG/1.1/DTD/svg11.dtd">
<svg version="1.1" id="Calque_1" xmlns="http://www.w3.org/2000/svg" xmlns:xlink="http://www.w3.org/1999/xlink" x="0px" y="0px"
	 width="1190.551px" height="1190.551px" viewBox="0 0 1190.551 1190.551" enable-background="new 0 0 1190.551 1190.551"
	 xml:space="preserve">
<g>
	<path d="M772.321,571.591c51.039-11.414,81.518-52.128,81.518-117.501v-65.854h35.709v-64.926v-1.624v-64.927h-35.709v-65.854
		c0-77.912-43.281-120.809-113.08-120.809c-24.752,0-68.711,0-68.711,0V23.998h-77.369h-2.167h-77.367v46.101c0,0-43.963,0-68.715,0
		c-69.799,0-113.083,42.896-113.083,120.807v65.854h-35.708v64.927v1.624v64.926h35.707v65.854
		c0,77.912,43.284,120.81,113.083,120.81c24.752,0,68.715,0,68.715,0v44.379h77.367h2.167h77.366v-44.381c0,0,43.961,0,68.713,0
		c11.002,0,21.346-1.068,30.963-3.169v122.735H551.314v122.873H405.369c59.169-0.125,107.27-48.299,107.27-107.498
		c0-59.273-48.227-107.5-107.5-107.5c-59.274,0-107.5,48.227-107.5,107.5c0,59.195,48.1,107.373,107.269,107.498H297.638v103.469
		h107.497h146.179v122.873h220.405v122.873h121.197V571.591H772.321z"/>
	<path d="M297.635,1028.307c0,59.277,48.226,107.5,107.5,107.5s107.5-48.223,107.5-107.5c0-59.271-48.226-107.5-107.5-107.5
		C345.865,920.807,297.635,969.031,297.635,1028.307z"/>
</g>
</svg>
