<?xml version="1.0" encoding="utf-8"?>
<!-- Generator: Adobe Illustrator 16.0.0, SVG Export Plug-In . SVG Version: 6.00 Build 0)  -->
<!DOCTYPE svg PUBLIC "-//W3C//DTD SVG 1.1//EN" "http://www.w3.org/Graphics/SVG/1.1/DTD/svg11.dtd">
<svg version="1.1" id="Calque_1" xmlns="http://www.w3.org/2000/svg" xmlns:xlink="http://www.w3.org/1999/xlink" x="0px" y="0px"
	 width="1190.551px" height="1190.551px" viewBox="0 0 1190.551 1190.551" enable-background="new 0 0 1190.551 1190.551"
	 xml:space="preserve">
<path d="M834.213,1047.168V826.762H711.34V573.086h-34.758c69.797,0,113.082-42.896,113.082-120.808v-65.854h35.709v-64.926v-1.624
	v-64.927h-35.709v-65.854c0-77.912-43.281-120.809-113.08-120.809c-24.752,0-68.711,0-68.711,0V22.186h-77.369h-2.167H450.97v46.101
	c0,0-43.963,0-68.715,0c-69.799,0-113.083,42.896-113.083,120.807v65.854h-35.707v64.927v1.624v64.926h35.707v65.854
	c0,77.912,43.284,120.81,113.083,120.81c24.752,0,68.715,0,68.715,0v44.379h77.367h2.167h77.365v209.295H484.999v220.405H362.215
	c49.132-9.891,86.251-53.385,86.251-105.387c0-59.231-48.161-107.435-107.383-107.498c59.217-0.062,107.386-48.264,107.386-107.499
	c0-59.274-48.227-107.5-107.5-107.5c-59.275,0-107.5,48.226-107.5,107.5c0,59.234,48.161,107.436,107.383,107.499
	c-59.223,0.062-107.386,48.262-107.386,107.498c0,59.274,48.225,107.5,107.5,107.5c7.241,0,14.315-0.725,21.16-2.097v121.181h594.96
	v-121.197H834.213z"/>
</svg>
