<?xml version="1.0" encoding="utf-8"?>
<!-- Generator: Adobe Illustrator 16.0.0, SVG Export Plug-In . SVG Version: 6.00 Build 0)  -->
<!DOCTYPE svg PUBLIC "-//W3C//DTD SVG 1.1//EN" "http://www.w3.org/Graphics/SVG/1.1/DTD/svg11.dtd">
<svg version="1.1" id="Calque_1" xmlns="http://www.w3.org/2000/svg" xmlns:xlink="http://www.w3.org/1999/xlink" x="0px" y="0px"
	 width="1190.551px" height="1190.551px" viewBox="0 0 1190.551 1190.551" enable-background="new 0 0 1190.551 1190.551"
	 xml:space="preserve">
<g>
	<path d="M658.468,209.877l-55.021,107.988l109.479,55.783l-100.06,196.383c-2.403-11.254-6.579-22.776-12.524-34.445
		c-11.237-22.055-31.196-61.226-31.196-61.226l39.542-20.148l-35.125-68.934l-0.983-1.932l-35.124-68.935l-39.544,20.152
		c0,0-19.957-39.17-31.193-61.225c-31.688-62.189-89.559-81.28-158.979-45.91l-58.678,29.897l-16.212-31.816L175,254.986
		l-1.445,0.736l-57.851,29.477l16.211,31.815l-58.676,29.897c-69.42,35.372-87.992,93.41-56.305,155.601
		c11.237,22.056,31.194,61.224,31.194,61.224L7.057,584.663l35.125,68.936l0.982,1.931l35.124,68.936l41.074-20.928
		c0,0,19.959,39.172,31.196,61.225c31.688,62.19,89.559,81.283,158.979,45.913l58.678-29.898l16.21,31.814l57.85-29.476l1.447-0.737
		l6.682-3.404c-28.196,15.458-49.22,43.317-54.628,77.461c-9.271,58.54,30.814,113.723,89.361,122.994
		c58.545,9.272,113.72-30.813,122.992-89.358c2.065-13.044,1.677-25.919-0.815-38.157l92.057,46.904l115.168-226.026l109.479,55.783
		l100.062-196.383l109.48,55.783l55.021-107.987L658.468,209.877z M607.264,851.676c-8.773-42.587-43.077-77.407-88.495-84.603
		c-22.041-3.49-43.603,0.018-62.418,8.868l45.221-23.041l-16.211-31.814l58.678-29.897c56.396-28.733,79.231-72.429,68.827-121.156
		l109.479,55.783L607.264,851.676z"/>
	<path d="M1013.132,681.139c-59.272,0-107.5,48.225-107.5,107.5c0,59.27,48.227,107.5,107.5,107.5
		c59.276,0,107.5-48.226,107.5-107.5C1120.632,729.363,1072.409,681.139,1013.132,681.139z"/>
</g>
</svg>
