<?xml version="1.0" encoding="utf-8"?>
<!-- Generator: Adobe Illustrator 16.0.0, SVG Export Plug-In . SVG Version: 6.00 Build 0)  -->
<!DOCTYPE svg PUBLIC "-//W3C//DTD SVG 1.1//EN" "http://www.w3.org/Graphics/SVG/1.1/DTD/svg11.dtd">
<svg version="1.1" id="Calque_1" xmlns="http://www.w3.org/2000/svg" xmlns:xlink="http://www.w3.org/1999/xlink" x="0px" y="0px"
	 width="1190.551px" height="1190.551px" viewBox="0 0 1190.551 1190.551" enable-background="new 0 0 1190.551 1190.551"
	 xml:space="preserve">
<path d="M846.817,793.656c0,0,0-43.963,0-68.715c0-64.391-36.507-106.217-103.333-112.311c0.904,0.023,1.811,0.035,2.721,0.035
	c59.271,0,107.5-48.225,107.5-107.5c0-59.275-48.227-107.5-107.5-107.5c-55.658,0-101.569,42.519-106.967,96.781v-122.74h253.676
	v-103.47H639.238V146.272c7.869,51.577,52.527,91.219,106.267,91.219c59.276,0,107.5-48.226,107.5-107.5s-48.223-107.5-107.5-107.5
	c-59.27,0-107.498,48.225-107.498,107.5c0,5.219,0.382,10.351,1.104,15.373H418.831V22.491H297.635v594.962h120.758
	c-49.621,13.791-76.379,52.369-76.379,107.488c0,24.752,0,68.715,0,68.715h-44.379v77.367v2.166v77.367h44.381
	c0,0,0,43.961,0,68.713c0,69.797,42.896,113.082,120.808,113.082h65.854v35.709h64.927h1.624h64.926v-35.709h65.854
	c77.912,0,120.812-43.283,120.812-113.08c0-24.754,0-68.713,0-68.713h46.097v-77.369v-2.166v-77.367H846.817z M660.155,611.857
	v-35.707h-64.926h-1.624h-64.927v35.707h-65.854c-16.204,0-30.888,1.879-43.992,5.473V494.58h220.396
	c-0.342,3.483-0.521,7.014-0.521,10.586c0,55.397,42.123,101.139,96.023,106.886c-2.858-0.124-5.76-0.194-8.719-0.194H660.155
	L660.155,611.857z"/>
</svg>
