<?xml version="1.0" encoding="utf-8"?>
<!-- Generator: Adobe Illustrator 16.0.0, SVG Export Plug-In . SVG Version: 6.00 Build 0)  -->
<!DOCTYPE svg PUBLIC "-//W3C//DTD SVG 1.1//EN" "http://www.w3.org/Graphics/SVG/1.1/DTD/svg11.dtd">
<svg version="1.1" id="Calque_1" xmlns="http://www.w3.org/2000/svg" xmlns:xlink="http://www.w3.org/1999/xlink" x="0px" y="0px"
	 width="1190.551px" height="1190.551px" viewBox="0 0 1190.551 1190.551" enable-background="new 0 0 1190.551 1190.551"
	 xml:space="preserve">
<g>
	<path d="M846.817,240.188c0,0,0-43.963,0-68.715c0-69.799-42.896-113.083-120.809-113.083h-65.854V22.683h-64.925h-1.624h-64.927
		V58.39h-65.854c-77.912,0-120.81,43.284-120.81,113.083c0,24.752,0,68.715,0,68.715h-44.379v77.367v2.167v77.366h44.381
		c0,0,0,43.961,0,68.714c0,54.612,26.263,92.989,75.011,107.104H297.635v594.961h121.195v-122.873h220.406V922.123h253.676V818.652
		H639.239V700.264c7.451,52.051,52.324,92.199,106.406,92.199c59.273,0,107.5-48.225,107.5-107.5
		c0-58.174-46.453-105.7-104.211-107.445c63.354-7.832,97.885-49.099,97.885-111.714c0-24.755,0-68.714,0-68.714h46.098v-77.368
		v-2.167v-77.367H846.817L846.817,240.188z M638.145,684.965c0,3.648,0.184,7.258,0.541,10.814H418.832V573.41
		c13.104,3.594,27.788,5.472,43.992,5.472h65.854v35.709h64.927h1.624h64.925v-35.709h65.854c0.785,0,1.561-0.012,2.338-0.021
		C677.266,587.161,638.145,631.576,638.145,684.965z"/>
	<path d="M746.74,937.496c-59.273,0-107.5,48.227-107.5,107.5c0,59.275,48.227,107.5,107.5,107.5c59.27,0,107.5-48.225,107.5-107.5
		C854.24,985.723,806.016,937.496,746.74,937.496z"/>
</g>
</svg>
