<?xml version="1.0" encoding="utf-8"?>
<!-- Generator: Adobe Illustrator 16.0.0, SVG Export Plug-In . SVG Version: 6.00 Build 0)  -->
<!DOCTYPE svg PUBLIC "-//W3C//DTD SVG 1.1//EN" "http://www.w3.org/Graphics/SVG/1.1/DTD/svg11.dtd">
<svg version="1.1" id="Calque_1" xmlns="http://www.w3.org/2000/svg" xmlns:xlink="http://www.w3.org/1999/xlink" x="0px" y="0px"
	 width="1190.551px" height="1190.551px" viewBox="0 0 1190.551 1190.551" enable-background="new 0 0 1190.551 1190.551"
	 xml:space="preserve">
<g>
	<path d="M1022.196,121.197h122.873V0H550.107v120.704c-14.209-48.489-52.525-74.607-106.986-74.607c-24.754,0-68.713,0-68.713,0
		V-0.002h-77.368h-2.167h-77.367v46.101c0,0-43.963,0-68.715,0c-69.799,0-113.083,42.896-113.083,120.807v65.854H0v64.927v1.624
		v64.926h35.707v65.854c0,77.912,43.284,120.81,113.083,120.81c24.752,0,68.715,0,68.715,0v44.379h77.367h2.167h77.366v-44.381
		c0,0,43.961,0,68.713,0c58.973,0,99.016-30.625,110.019-87.117c-0.735,5.066-1.123,10.243-1.123,15.509
		c0,59.275,48.225,107.5,107.5,107.5c59.274,0,107.5-48.225,107.5-107.5c0-59.274-48.226-107.5-107.5-107.5
		c-51.857,0-95.262,36.914-105.309,85.848c1.318-8.625,1.994-17.812,1.994-27.547v-65.854h35.709v-64.926v-1.624V232.76h-35.709
		v-65.854c0-16.914-2.042-32.176-5.951-45.709H672.98v220.406h122.872v253.676h103.47V341.603h107.503h15.371V121.197z"/>
	<path d="M899.324,449.103c0,59.274,48.224,107.5,107.5,107.5c59.27,0,107.5-48.225,107.5-107.5c0-59.274-48.225-107.5-107.5-107.5
		C947.548,341.603,899.324,389.828,899.324,449.103z"/>
</g>
</svg>
