<?xml version="1.0" encoding="utf-8"?>
<!-- Generator: Adobe Illustrator 16.0.0, SVG Export Plug-In . SVG Version: 6.00 Build 0)  -->
<!DOCTYPE svg PUBLIC "-//W3C//DTD SVG 1.1//EN" "http://www.w3.org/Graphics/SVG/1.1/DTD/svg11.dtd">
<svg version="1.1" id="Calque_1" xmlns="http://www.w3.org/2000/svg" xmlns:xlink="http://www.w3.org/1999/xlink" x="0px" y="0px"
	 width="1190.551px" height="1190.551px" viewBox="0 0 1190.551 1190.551" enable-background="new 0 0 1190.551 1190.551"
	 xml:space="preserve">
<g>
	<path d="M1044.937,418.833h122.873V297.636H572.848V418.34c-14.209-48.489-52.525-74.607-106.986-74.607
		c-24.753,0-68.712,0-68.712,0v-46.099h-77.368h-2.167h-77.367v46.101c0,0-43.963,0-68.715,0
		c-69.799,0-113.083,42.896-113.083,120.807v65.854H22.741v64.927v1.624v64.926h35.707v65.854
		c0,77.912,43.284,120.811,113.083,120.811c24.752,0,68.715,0,68.715,0v44.379h77.367h2.167h77.365v-44.381c0,0,43.962,0,68.713,0
		c58.974,0,99.017-30.625,110.02-87.117c-0.735,5.066-1.123,10.243-1.123,15.51c0,59.274,48.225,107.5,107.5,107.5
		c59.273,0,107.5-48.226,107.5-107.5s-48.227-107.5-107.5-107.5c-51.857,0-95.262,36.914-105.31,85.848
		c1.318-8.625,1.994-17.812,1.994-27.547v-65.854h35.709v-64.927v-1.624v-64.928H578.94v-65.854c0-16.914-2.042-32.176-5.951-45.709
		h122.732v220.406h122.872v253.677h103.47V639.239h107.503h15.371V418.833z"/>
	<path d="M922.065,746.739c0,59.274,48.225,107.5,107.5,107.5c59.271,0,107.5-48.226,107.5-107.5s-48.225-107.5-107.5-107.5
		S922.065,687.465,922.065,746.739z"/>
</g>
</svg>
