<?xml version="1.0" encoding="utf-8"?>
<!-- Generator: Adobe Illustrator 16.0.0, SVG Export Plug-In . SVG Version: 6.00 Build 0)  -->
<!DOCTYPE svg PUBLIC "-//W3C//DTD SVG 1.1//EN" "http://www.w3.org/Graphics/SVG/1.1/DTD/svg11.dtd">
<svg version="1.1" id="Calque_1" xmlns="http://www.w3.org/2000/svg" xmlns:xlink="http://www.w3.org/1999/xlink" x="0px" y="0px"
	 width="1190.551px" height="1190.551px" viewBox="0 0 1190.551 1190.551" enable-background="new 0 0 1190.551 1190.551"
	 xml:space="preserve">
<path fill="#010202" d="M977.284,304.302L739.115,542.469c19.536-20.462,30.352-50.658,30.352-89.604v-65.854h35.707v-64.926v-1.624
	v-64.927h-35.707V189.68c0-77.912-43.285-120.81-113.083-120.81c-24.751,0-68.715,0-68.715,0V24.491h-77.365h-2.167H430.77v44.381
	c0,0-43.961,0-68.713,0c-69.797,0-113.081,42.896-113.081,120.808v65.854h-35.709v64.927v1.624v64.926h35.709v65.854
	c0,66.842,31.856,107.91,84.982,118.231H213.267v594.963h121.195v-122.873h220.406V920.314h253.676V816.842l168.739,84.741
	L977.284,304.302L977.284,304.302z M554.869,816.842V693.97H334.463V571.194c8.652,1.646,17.864,2.481,27.593,2.481
	c24.754,0,68.713,0,68.713,0v46.097h77.369h2.167h77.365v-46.099c0,0,43.965,0,68.715,0c33.333,0,60.614-9.791,80.027-28.5
	L581.226,700.359v99.015h192.535l34.783,17.468H554.869z"/>
</svg>
