<?xml version="1.0" encoding="utf-8"?>
<!-- Generator: Adobe Illustrator 16.0.0, SVG Export Plug-In . SVG Version: 6.00 Build 0)  -->
<!DOCTYPE svg PUBLIC "-//W3C//DTD SVG 1.1//EN" "http://www.w3.org/Graphics/SVG/1.1/DTD/svg11.dtd">
<svg version="1.1" id="Calque_1" xmlns="http://www.w3.org/2000/svg" xmlns:xlink="http://www.w3.org/1999/xlink" x="0px" y="0px"
	 width="1190.551px" height="1190.551px" viewBox="0 0 1190.551 1190.551" enable-background="new 0 0 1190.551 1190.551"
	 xml:space="preserve">
<path fill="#010202" d="M622.402,1037.573V817.166H499.529V563.49h-103.47v31.789h-21.655v-46.098c0,0,43.964,0,68.715,0
	c69.798,0,113.083-42.896,113.083-120.808V362.52h35.707v-64.926v-1.624v-64.927h-35.707v-65.854
	c0-77.912-43.285-120.81-113.083-120.81c-24.751,0-68.715,0-68.715,0V0h-77.366h-2.167h-77.367v44.381c0,0-43.961,0-68.713,0
	c-69.797,0-113.081,42.896-113.081,120.808v65.854H0v64.927v1.624v64.926h35.709v65.854c0,77.912,43.281,120.81,113.079,120.81
	c24.754,0,68.713,0,68.713,0v46.096h-13.979L0,493.071v597.281l273.186-273.185v220.405H150.313v121.198h594.962v-121.198H622.402z
	 M396.059,817.166H273.187l122.872-122.871V817.166z"/>
</svg>
