<?xml version="1.0" encoding="utf-8"?>
<!-- Generator: Adobe Illustrator 16.0.0, SVG Export Plug-In . SVG Version: 6.00 Build 0)  -->
<!DOCTYPE svg PUBLIC "-//W3C//DTD SVG 1.1//EN" "http://www.w3.org/Graphics/SVG/1.1/DTD/svg11.dtd">
<svg version="1.1" id="Calque_1" xmlns="http://www.w3.org/2000/svg" xmlns:xlink="http://www.w3.org/1999/xlink" x="0px" y="0px"
	 width="1190.551px" height="1190.551px" viewBox="0 0 1190.551 1190.551" enable-background="new 0 0 1190.551 1190.551"
	 xml:space="preserve">
<path fill="#010202" d="M764.018,279.811L525.849,517.978c19.536-20.462,30.352-50.658,30.352-89.604V362.52h35.707v-64.926v-1.624
	v-64.927h-35.707v-65.854c0-77.912-43.285-120.81-113.083-120.81c-24.751,0-68.715,0-68.715,0V0h-77.366h-2.167h-77.367v44.381
	c0,0-43.961,0-68.713,0c-69.797,0-113.081,42.896-113.081,120.808v65.854H0v64.927v1.624v64.926h35.709v65.854
	c0,66.842,31.857,107.91,84.983,118.231H0v594.963h121.196v-122.873h220.406V895.823h253.676V792.351l168.739,84.741V279.811z
	 M341.603,792.351V669.478H121.197V546.703c8.652,1.646,17.864,2.481,27.592,2.481c24.754,0,68.713,0,68.713,0v46.097h77.369h2.167
	h77.366v-46.099c0,0,43.964,0,68.715,0c33.333,0,60.614-9.791,80.027-28.5L367.959,675.868v99.015h192.536l34.783,17.468H341.603z"
	/>
</svg>
