<?xml version="1.0" encoding="utf-8"?>
<!-- Generator: Adobe Illustrator 16.0.0, SVG Export Plug-In . SVG Version: 6.00 Build 0)  -->
<!DOCTYPE svg PUBLIC "-//W3C//DTD SVG 1.1//EN" "http://www.w3.org/Graphics/SVG/1.1/DTD/svg11.dtd">
<svg version="1.1" id="Calque_1" xmlns="http://www.w3.org/2000/svg" xmlns:xlink="http://www.w3.org/1999/xlink" x="0px" y="0px"
	 width="1190.551px" height="1190.551px" viewBox="0 0 1190.551 1190.551" enable-background="new 0 0 1190.551 1190.551"
	 xml:space="preserve">
<g>
	<path fill="#010202" d="M117.656,444.801c0,69.797,42.896,113.08,120.808,113.08h65.854v35.709h64.927h1.624h64.926v-35.709h65.854
		c74.502,0,116.982-39.578,120.561-104.068v189.93l-102.21,203.524h597.278l-396.058-396.06h-98.885
		c0.082-2.109,0.124-4.244,0.124-6.404c0-24.755,0-68.714,0-68.714h46.097v-77.368v-2.167v-77.367h-46.099c0,0,0-43.963,0-68.715
		c0-69.799-42.896-113.083-120.81-113.083h-65.853V1.682h-64.926h-1.624h-64.927v35.707h-65.854
		c-77.912,0-120.81,43.284-120.81,113.083c0,24.752,0,68.715,0,68.715H73.275v77.367v2.167v77.366h44.381
		C117.656,376.088,117.656,420.048,117.656,444.801z"/>
	<polygon fill="#010202" points="545.365,847.268 422.49,847.268 422.49,593.591 319.021,593.591 319.021,847.268 196.148,847.268 
		196.148,1067.672 73.275,1067.672 73.275,1188.869 668.238,1188.869 668.238,1067.672 545.365,1067.672 	"/>
</g>
</svg>
