<?xml version="1.0" encoding="utf-8"?>
<!-- Generator: Adobe Illustrator 16.0.0, SVG Export Plug-In . SVG Version: 6.00 Build 0)  -->
<!DOCTYPE svg PUBLIC "-//W3C//DTD SVG 1.1//EN" "http://www.w3.org/Graphics/SVG/1.1/DTD/svg11.dtd">
<svg version="1.1" id="Calque_1" xmlns="http://www.w3.org/2000/svg" xmlns:xlink="http://www.w3.org/1999/xlink" x="0px" y="0px"
	 width="1190.551px" height="1190.551px" viewBox="0 0 1190.551 1190.551" enable-background="new 0 0 1190.551 1190.551"
	 xml:space="preserve">
<g>
	<polygon fill="#010202" points="472.09,845.586 349.216,845.586 349.216,591.909 245.746,591.909 245.746,845.586 122.873,845.586 
		122.873,1065.99 0,1065.99 0,1187.188 594.963,1187.188 594.963,1065.99 547.039,1065.99 472.09,1065.99 	"/>
	<path fill="#010202" d="M943.097,570.919H750.561L547.062,468.721c1.405-8.071,2.122-16.614,2.122-25.6c0-24.755,0-68.714,0-68.714
		h46.097v-77.368v-2.167v-77.367h-46.099c0,0,0-43.963,0-68.715c0-69.799-42.896-113.083-120.809-113.083H362.52V0h-64.926h-1.624
		h-64.927v35.707h-65.854c-77.912,0-120.81,43.284-120.81,113.083c0,24.752,0,68.715,0,68.715H0v77.367v2.167v77.366h44.381
		c0,0,0,43.961,0,68.714c0,69.797,42.896,113.08,120.808,113.08h65.854v35.709h64.927h1.624h64.926v-35.709h65.854
		c67.829,0,109.115-32.808,118.666-87.353v597.144l396.058-396.058V570.919z"/>
</g>
</svg>
