<?xml version="1.0" encoding="utf-8"?>
<!-- Generator: Adobe Illustrator 16.0.0, SVG Export Plug-In . SVG Version: 6.00 Build 0)  -->
<!DOCTYPE svg PUBLIC "-//W3C//DTD SVG 1.1//EN" "http://www.w3.org/Graphics/SVG/1.1/DTD/svg11.dtd">
<svg version="1.1" id="Calque_1" xmlns="http://www.w3.org/2000/svg" xmlns:xlink="http://www.w3.org/1999/xlink" x="0px" y="0px"
	 width="1190.551px" height="1190.551px" viewBox="0 0 1190.551 1190.551" enable-background="new 0 0 1190.551 1190.551"
	 xml:space="preserve">
<path fill="#010202" d="M443.118,550.899c69.797,0,113.081-42.896,113.081-120.808v-65.854h35.709v-64.926v-1.624V232.76h-35.709
	v-65.854c0-77.912-43.281-120.809-113.079-120.809c-24.754,0-68.713,0-68.713,0V-0.002h-77.368h-2.167h-77.367v46.101
	c0,0-43.963,0-68.715,0c-69.799,0-113.083,42.896-113.083,120.807v65.854H0v64.927v1.624v64.926h35.707v65.854
	c0,77.912,43.284,120.81,113.083,120.81c24.752,0,68.715,0,68.715,0v44.379h77.367h2.167h77.366v-44.381c0,0,7.217,0,17.448,0
	v121.197h122.872v220.406L201.223,578.998h-99.014v192.535L0,975.057h597.28l-82.554-82.554h122.872v253.675h103.47V892.503h122.873
	V672.096h122.873V550.899H443.118z"/>
</svg>
