<?xml version="1.0" encoding="utf-8"?>
<!-- Generator: Adobe Illustrator 16.0.0, SVG Export Plug-In . SVG Version: 6.00 Build 0)  -->
<!DOCTYPE svg PUBLIC "-//W3C//DTD SVG 1.1//EN" "http://www.w3.org/Graphics/SVG/1.1/DTD/svg11.dtd">
<svg version="1.1" id="Calque_1" xmlns="http://www.w3.org/2000/svg" xmlns:xlink="http://www.w3.org/1999/xlink" x="0px" y="0px"
	 width="1190.551px" height="1190.551px" viewBox="0 0 1190.551 1190.551" enable-background="new 0 0 1190.551 1190.551"
	 xml:space="preserve">
<g>
	<path fill="#010202" d="M144.146,444.801c0,69.797,42.896,113.08,120.808,113.08h65.854v35.709h64.927h1.624h64.926v-35.709h65.854
		c77.913,0,120.811-43.281,120.811-113.078c0-24.755,0-68.714,0-68.714h46.098v-77.368v-2.167v-77.367h-46.1c0,0,0-43.963,0-68.715
		c0-69.799-42.896-113.083-120.809-113.083h-65.854V1.682h-64.926h-1.624h-64.927v35.707h-65.854
		c-77.912,0-120.81,43.284-120.81,113.083c0,24.752,0,68.715,0,68.715H99.765v77.367v2.167v77.366h44.381
		C144.146,376.088,144.146,420.048,144.146,444.801z"/>
	<polygon fill="#010202" points="898.25,478.299 694.729,376.09 694.729,593.591 99.765,593.591 99.765,714.788 222.638,714.788 
		222.638,935.193 345.511,935.193 345.511,1188.869 448.982,1188.869 448.982,935.193 571.855,935.193 571.855,714.788 
		694.729,714.788 694.729,973.371 1090.785,577.312 1090.785,478.299 	"/>
</g>
</svg>
