<?xml version="1.0" encoding="utf-8"?>
<!-- Generator: Adobe Illustrator 16.0.0, SVG Export Plug-In . SVG Version: 6.00 Build 0)  -->
<!DOCTYPE svg PUBLIC "-//W3C//DTD SVG 1.1//EN" "http://www.w3.org/Graphics/SVG/1.1/DTD/svg11.dtd">
<svg version="1.1" id="Calque_1" xmlns="http://www.w3.org/2000/svg" xmlns:xlink="http://www.w3.org/1999/xlink" x="0px" y="0px"
	 width="1190.551px" height="1190.551px" viewBox="0 0 1190.551 1190.551" enable-background="new 0 0 1190.551 1190.551"
	 xml:space="preserve">
<path fill="#010202" d="M845.04,1052.739V832.333H722.167V578.657h-103.47v31.789H426.161l-99.146-49.791
	c17.265,7.938,38.188,12.163,62.528,12.163h65.854v35.707h64.927h1.624h64.926v-35.707h65.855
	c77.912,0,120.809-43.285,120.809-113.083c0-24.752,0-68.716,0-68.716h44.379v-77.366v-2.167v-77.367h-44.381c0,0,0-43.961,0-68.713
	c0-69.798-42.895-113.081-120.807-113.081h-65.855V16.616h-64.926h-1.624h-64.927v35.709h-65.854
	c-77.91,0-120.809,43.281-120.809,113.079c0,24.754,0,68.713,0,68.713h-46.098v77.369v2.167v77.366h46.1c0,0,0,43.964,0,68.716
	c0,45.208,18.002,79.288,51.854,97.693l-97.952-49.191v597.281l273.186-273.187l122.873-122.873v122.873H495.824v220.406H372.951
	v121.196h594.962v-121.196L845.04,1052.739L845.04,1052.739z"/>
</svg>
