<?xml version="1.0" encoding="utf-8"?>
<!-- Generator: Adobe Illustrator 16.0.0, SVG Export Plug-In . SVG Version: 6.00 Build 0)  -->
<!DOCTYPE svg PUBLIC "-//W3C//DTD SVG 1.1//EN" "http://www.w3.org/Graphics/SVG/1.1/DTD/svg11.dtd">
<svg version="1.1" id="Calque_1" xmlns="http://www.w3.org/2000/svg" xmlns:xlink="http://www.w3.org/1999/xlink" x="0px" y="0px"
	 width="1190.551px" height="1190.551px" viewBox="0 0 1190.551 1190.551" enable-background="new 0 0 1190.551 1190.551"
	 xml:space="preserve">
<path fill="#010202" d="M544.986,573.086c69.797,0,113.081-42.896,113.081-120.808v-65.854h35.709v-64.926v-1.624v-64.927h-35.709
	v-65.854c0-77.912-43.279-120.809-113.079-120.809c-24.753,0-68.712,0-68.712,0V22.186h-77.368h-2.167h-77.367v46.101
	c0,0-43.963,0-68.715,0c-69.799,0-113.083,42.896-113.083,120.807v65.854h-35.707v64.927v1.624v64.926h35.707v65.854
	c0,77.912,43.284,120.81,113.083,120.81c24.752,0,68.715,0,68.715,0v44.379h77.367h2.167h77.365v-44.381c0,0,7.218,0,17.448,0
	v121.197h122.873v220.406L303.092,601.186h-99.014v192.535L101.869,997.244h597.28l-82.555-82.554h122.873v253.675h103.469V914.69
	h122.873V694.283h122.873V573.086H544.986z"/>
</svg>
