<?xml version="1.0" encoding="utf-8"?>
<!-- Generator: Adobe Illustrator 16.0.0, SVG Export Plug-In . SVG Version: 6.00 Build 0)  -->
<!DOCTYPE svg PUBLIC "-//W3C//DTD SVG 1.1//EN" "http://www.w3.org/Graphics/SVG/1.1/DTD/svg11.dtd">
<svg version="1.1" id="Calque_1" xmlns="http://www.w3.org/2000/svg" xmlns:xlink="http://www.w3.org/1999/xlink" x="0px" y="0px"
	 width="1190.551px" height="1190.551px" viewBox="0 0 1190.551 1190.551" enable-background="new 0 0 1190.551 1190.551"
	 xml:space="preserve">
<path fill="#010202" d="M580.634,800.529H773.17l203.521,102.209v-597.28L736.25,545.899c18.717-19.414,28.512-46.698,28.512-80.039
	c0-24.752,0-68.716,0-68.716h44.379v-77.366v-2.167v-77.367H764.76c0,0,0-43.961,0-68.713c0-69.798-42.895-113.081-120.807-113.081
	h-65.856V22.741h-64.926h-1.624h-64.927V58.45h-65.854c-77.91,0-120.809,43.281-120.809,113.079c0,24.754,0,68.713,0,68.713H213.86
	v77.369v2.167v77.366h46.1c0,0,0,43.964,0,68.716c0,54.458,26.115,92.775,74.598,106.987H213.861v594.962h121.195v-122.873h220.406
	V922.064h253.676v-103.47H555.464V695.722H335.057V572.992c13.533,3.908,28.795,5.951,45.709,5.951h65.854v35.707h64.927h1.624
	h64.926v-35.707h65.856c38.949,0,69.146-10.818,89.609-30.358l-152.93,152.93L580.634,800.529L580.634,800.529z"/>
</svg>
