<?xml version="1.0" encoding="utf-8"?>
<!-- Generator: Adobe Illustrator 16.0.0, SVG Export Plug-In . SVG Version: 6.00 Build 0)  -->
<!DOCTYPE svg PUBLIC "-//W3C//DTD SVG 1.1//EN" "http://www.w3.org/Graphics/SVG/1.1/DTD/svg11.dtd">
<svg version="1.1" id="Calque_1" xmlns="http://www.w3.org/2000/svg" xmlns:xlink="http://www.w3.org/1999/xlink" x="0px" y="0px"
	 width="1190.551px" height="1190.551px" viewBox="0 0 1190.551 1190.551" enable-background="new 0 0 1190.551 1190.551"
	 xml:space="preserve">
<path fill="#010202" d="M845.039,1053.464V833.057H722.166V579.381H618.698v31.789h-21.656v-46.098c0,0,43.965,0,68.715,0
	c69.799,0,113.084-42.896,113.084-120.808v-65.853h35.707v-64.926v-1.624v-64.927H778.84V181.08
	c0-77.912-43.285-120.81-113.084-120.81c-24.75,0-68.715,0-68.715,0V15.891h-77.365h-2.167h-77.367v44.381c0,0-43.961,0-68.713,0
	c-69.797,0-113.081,42.896-113.081,120.808v65.854h-35.71v64.927v1.624v64.926h35.709v65.854c0,77.912,43.281,120.81,113.079,120.81
	c24.754,0,68.713,0,68.713,0v46.095H426.16L222.638,508.962v597.28l273.186-273.185v220.405H372.951v121.197h594.961v-121.197
	L845.039,1053.464L845.039,1053.464z M618.698,833.057H495.825l122.873-122.871V833.057L618.698,833.057z"/>
</svg>
