<?xml version="1.0" encoding="utf-8"?>
<!-- Generator: Adobe Illustrator 16.0.0, SVG Export Plug-In . SVG Version: 6.00 Build 0)  -->
<!DOCTYPE svg PUBLIC "-//W3C//DTD SVG 1.1//EN" "http://www.w3.org/Graphics/SVG/1.1/DTD/svg11.dtd">
<svg version="1.1" id="Calque_1" xmlns="http://www.w3.org/2000/svg" xmlns:xlink="http://www.w3.org/1999/xlink" x="0px" y="0px"
	 width="1190.551px" height="1190.551px" viewBox="0 0 1190.551 1190.551" enable-background="new 0 0 1190.551 1190.551"
	 xml:space="preserve">
<path fill="#010202" d="M932.207,457.282v122.872H711.8v122.874H511.555v-44.382c0,0,43.962,0,68.713,0
	c69.798,0,113.081-42.896,113.081-120.808v-65.854h35.709v-64.926v-1.624v-64.927h-35.709v-65.854
	c0-77.912-43.28-120.809-113.079-120.809c-24.753,0-68.712,0-68.712,0v-46.099H434.19h-2.167h-77.367v46.101c0,0-43.963,0-68.715,0
	c-69.799,0-113.083,42.896-113.083,120.807v65.854H137.15v64.927v1.624v64.926h35.707v65.854c0,77.912,43.284,120.81,113.083,120.81
	c24.752,0,68.715,0,68.715,0v44.38h77.367h2.167h23.936v103.47L338.372,686.746h-99.014v192.535L137.15,1082.805h597.279
	L458.124,806.499h253.675V929.37h220.407v122.873h121.195V457.282H932.207z"/>
</svg>
