<?xml version="1.0" encoding="utf-8"?>
<!-- Generator: Adobe Illustrator 16.0.0, SVG Export Plug-In . SVG Version: 6.00 Build 0)  -->
<!DOCTYPE svg PUBLIC "-//W3C//DTD SVG 1.1//EN" "http://www.w3.org/Graphics/SVG/1.1/DTD/svg11.dtd">
<svg version="1.1" id="Calque_1" xmlns="http://www.w3.org/2000/svg" xmlns:xlink="http://www.w3.org/1999/xlink" x="0px" y="0px"
	 width="1190.551px" height="1190.551px" viewBox="0 0 1190.551 1190.551" enable-background="new 0 0 1190.551 1190.551"
	 xml:space="preserve">
<g>
	<polygon fill="#010202" points="595.817,847.268 472.943,847.268 472.943,593.591 369.473,593.591 369.473,847.268 246.6,847.268 
		246.6,1067.672 123.727,1067.672 123.727,1188.869 718.69,1188.869 718.69,1067.672 670.765,1067.672 595.817,1067.672 	"/>
	<path fill="#010202" d="M1066.823,572.601H874.287L670.788,470.403c1.405-8.071,2.122-16.614,2.122-25.6
		c0-24.755,0-68.714,0-68.714h46.097v-77.368v-2.167v-77.367h-46.099c0,0,0-43.963,0-68.715c0-69.799-42.896-113.083-120.81-113.083
		h-65.853V1.682h-64.926h-1.624H354.77v35.707h-65.854c-77.912,0-120.81,43.284-120.81,113.083c0,24.752,0,68.715,0,68.715h-44.379
		v77.367v2.167v77.366h44.381c0,0,0,43.961,0,68.714c0,69.797,42.896,113.08,120.808,113.08h65.854v35.709h64.927h1.624h64.926
		v-35.709H552.1c67.829,0,109.115-32.808,118.666-87.354v597.145l396.059-396.059L1066.823,572.601L1066.823,572.601z"/>
</g>
</svg>
