<?xml version="1.0" encoding="utf-8"?>
<!-- Generator: Adobe Illustrator 16.0.0, SVG Export Plug-In . SVG Version: 6.00 Build 0)  -->
<!DOCTYPE svg PUBLIC "-//W3C//DTD SVG 1.1//EN" "http://www.w3.org/Graphics/SVG/1.1/DTD/svg11.dtd">
<svg version="1.1" id="Calque_1" xmlns="http://www.w3.org/2000/svg" xmlns:xlink="http://www.w3.org/1999/xlink" x="0px" y="0px"
	 width="1190.551px" height="1190.551px" viewBox="0 0 1190.551 1190.551" enable-background="new 0 0 1190.551 1190.551"
	 xml:space="preserve">
<path fill="#010202" d="M795.058,349.534v122.872H574.651V595.28H374.406v-44.381c0,0,43.961,0,68.713,0
	c69.797,0,113.081-42.896,113.081-120.808v-65.854h35.709v-64.926v-1.624V232.76h-35.709v-65.854
	c0-77.912-43.281-120.809-113.079-120.809c-24.754,0-68.713,0-68.713,0V-0.002h-77.368h-2.167h-77.367v46.101c0,0-43.963,0-68.715,0
	c-69.799,0-113.083,42.896-113.083,120.807v65.854H0v64.927v1.624v64.926h35.707v65.854c0,77.912,43.284,120.81,113.083,120.81
	c24.752,0,68.715,0,68.715,0v44.379h77.367h2.167h23.936V698.75L201.223,578.998h-99.014v192.535L0,975.057h597.28L320.975,698.751
	h253.675v122.871h220.407v122.873h121.195V349.534H795.058z"/>
</svg>
