<?xml version="1.0" encoding="utf-8"?>
<!-- Generator: Adobe Illustrator 16.0.0, SVG Export Plug-In . SVG Version: 6.00 Build 0)  -->
<!DOCTYPE svg PUBLIC "-//W3C//DTD SVG 1.1//EN" "http://www.w3.org/Graphics/SVG/1.1/DTD/svg11.dtd">
<svg version="1.1" id="Calque_1" xmlns="http://www.w3.org/2000/svg" xmlns:xlink="http://www.w3.org/1999/xlink" x="0px" y="0px"
	 width="1190.551px" height="1190.551px" viewBox="0 0 1190.551 1190.551" enable-background="new 0 0 1190.551 1190.551"
	 xml:space="preserve">
<path fill="#010202" d="M391.381,626.693l20.96,20.96c-26.817-26.813-58.729-48.529-94.154-63.582
	c14.308,4.536,30.639,6.912,48.893,6.912h65.854v35.709h64.927h1.624h64.926v-35.709h65.854
	c77.912,0,120.811-43.281,120.811-113.078c0-24.755,0-68.714,0-68.714h46.098v-77.368v-2.167v-77.367h-46.1c0,0,0-43.963,0-68.715
	c0-69.799-42.896-113.083-120.809-113.083H564.41V34.784h-64.926h-1.624h-64.927v35.707h-65.854
	c-77.912,0-120.81,43.284-120.81,113.083c0,24.752,0,68.715,0,68.715H201.89v77.367v2.167v77.366h44.381c0,0,0,43.961,0,68.714
	c0,47.444,19.827,82.63,56.991,100.306c-31.643-11.461-65.775-17.721-101.373-17.721v595.278
	c164.383,0.002,297.641-133.257,297.641-297.639c0-82.185-33.31-156.59-87.165-210.451l375.073,375.074h99.016V830.215
	l102.209-203.521L391.381,626.693L391.381,626.693z"/>
</svg>
