<?xml version="1.0" encoding="utf-8"?>
<!-- Generator: Adobe Illustrator 16.0.0, SVG Export Plug-In . SVG Version: 6.00 Build 0)  -->
<!DOCTYPE svg PUBLIC "-//W3C//DTD SVG 1.1//EN" "http://www.w3.org/Graphics/SVG/1.1/DTD/svg11.dtd">
<svg version="1.1" id="Calque_1" xmlns="http://www.w3.org/2000/svg" xmlns:xlink="http://www.w3.org/1999/xlink" x="0px" y="0px"
	 width="1190.551px" height="1190.551px" viewBox="0 0 1190.551 1190.551" enable-background="new 0 0 1190.551 1190.551"
	 xml:space="preserve">
<g>
	<path fill="#010202" d="M281.054,443.12c0,69.797,42.896,113.08,120.808,113.08h65.854v35.709h64.927h1.624h64.926V556.2h65.854
		c77.912,0,120.812-43.281,120.812-113.078c0-24.755,0-68.714,0-68.714h46.097V297.04v-2.167v-77.367h-46.099c0,0,0-43.963,0-68.715
		c0-69.799-42.896-113.083-120.81-113.083h-65.854V0h-64.926h-1.624h-64.927v35.707h-65.854c-77.912,0-120.81,43.284-120.81,113.083
		c0,24.752,0,68.715,0,68.715h-44.379v77.367v2.167v77.366h44.381C281.054,374.407,281.054,418.367,281.054,443.12z"/>
	<path fill="#010202" d="M744.79,802.357c53.854-53.861,87.162-128.266,87.162-210.447H236.673
		c0,164.38,133.258,297.64,297.64,297.64c82.183,0,156.586-33.309,210.447-87.162L557.822,989.326v99.016h192.535l203.521,102.209
		V593.27L744.79,802.357z"/>
</g>
</svg>
