<?xml version="1.0" encoding="utf-8"?>
<!-- Generator: Adobe Illustrator 16.0.0, SVG Export Plug-In . SVG Version: 6.00 Build 0)  -->
<!DOCTYPE svg PUBLIC "-//W3C//DTD SVG 1.1//EN" "http://www.w3.org/Graphics/SVG/1.1/DTD/svg11.dtd">
<svg version="1.1" id="Calque_1" xmlns="http://www.w3.org/2000/svg" xmlns:xlink="http://www.w3.org/1999/xlink" x="0px" y="0px"
	 width="1190.551px" height="1190.551px" viewBox="0 0 1190.551 1190.551" enable-background="new 0 0 1190.551 1190.551"
	 xml:space="preserve">
<g>
	<path fill="#010202" d="M397.245,1040.051c164.382,0,297.64-133.26,297.64-297.641H99.605
		C99.605,906.791,232.863,1040.051,397.245,1040.051z"/>
	<path fill="#010202" d="M898.408,252.709L694.885,150.5v217.505h-46.098c0,0,0-43.963,0-68.715
		c0-69.799-42.896-113.083-120.81-113.083h-65.853V150.5h-64.926h-1.624h-64.927v35.707h-65.854
		c-77.912,0-120.81,43.284-120.81,113.083c0,24.752,0,68.715,0,68.715H99.605v77.367v2.167v77.366h44.381c0,0,0,43.961,0,68.714
		c0,69.796,42.896,113.08,120.808,113.08h65.854v35.709h64.927h1.624h64.926v-35.709h65.854
		c77.913,0,120.811-43.281,120.811-113.078c0-24.755,0-68.714,0-68.714h46.096V742.41v5.371l396.061-396.059v-99.014
		L898.408,252.709L898.408,252.709z"/>
</g>
</svg>
