<?xml version="1.0" encoding="utf-8"?>
<!-- Generator: Adobe Illustrator 16.0.0, SVG Export Plug-In . SVG Version: 6.00 Build 0)  -->
<!DOCTYPE svg PUBLIC "-//W3C//DTD SVG 1.1//EN" "http://www.w3.org/Graphics/SVG/1.1/DTD/svg11.dtd">
<svg version="1.1" id="Calque_1" xmlns="http://www.w3.org/2000/svg" xmlns:xlink="http://www.w3.org/1999/xlink" x="0px" y="0px"
	 width="1190.551px" height="1190.551px" viewBox="0 0 1190.551 1190.551" enable-background="new 0 0 1190.551 1190.551"
	 xml:space="preserve">
<g>
	<path fill="#010202" d="M44.381,443.119c0,69.797,42.896,113.08,120.808,113.08h65.854v35.709h64.927h1.624h64.926v-35.709h65.854
		c77.912,0,120.811-43.281,120.811-113.078c0-24.755,0-68.714,0-68.714h46.096v13.979L493.071,591.908h597.281L694.293,195.851
		H595.28v21.654h-46.098c0,0,0-43.963,0-68.715c0-69.799-42.896-113.083-120.809-113.083H362.52V0h-64.926h-1.624h-64.927v35.707
		h-65.854c-77.912,0-120.81,43.284-120.81,113.083c0,24.752,0,68.715,0,68.715H0v77.367v2.167v77.366h44.381
		C44.381,374.406,44.381,418.366,44.381,443.119z"/>
	<path fill="#010202" d="M297.64,889.55c164.382,0,297.64-133.26,297.64-297.641H0C0,756.29,133.258,889.55,297.64,889.55z"/>
</g>
</svg>
