<?xml version="1.0" encoding="utf-8"?>
<!-- Generator: Adobe Illustrator 16.0.0, SVG Export Plug-In . SVG Version: 6.00 Build 0)  -->
<!DOCTYPE svg PUBLIC "-//W3C//DTD SVG 1.1//EN" "http://www.w3.org/Graphics/SVG/1.1/DTD/svg11.dtd">
<svg version="1.1" id="Calque_1" xmlns="http://www.w3.org/2000/svg" xmlns:xlink="http://www.w3.org/1999/xlink" x="0px" y="0px"
	 width="1190.551px" height="1190.551px" viewBox="0 0 1190.551 1190.551" enable-background="new 0 0 1190.551 1190.551"
	 xml:space="preserve">
<path fill="#010202" d="M520.674,988.777c32.397-47.648,51.337-105.184,51.337-167.145c0-123.504-75.225-229.431-182.353-274.481
	c10.331,2.486,21.525,3.75,33.503,3.75c24.752,0,68.715,0,68.715,0v44.379h77.367h2.167h77.365v-44.381c0,0,43.961,0,68.713,0
	c69.797,0,113.081-42.896,113.081-120.807v-65.854h35.709v-64.926v-1.624v-64.926H830.57v-65.855
	c0-77.911-43.281-120.809-113.079-120.809c-24.754,0-68.713,0-68.713,0V0H571.41h-2.167h-77.367v46.1c0,0-43.963,0-68.715,0
	c-69.799,0-113.083,42.896-113.083,120.807v65.854h-35.706v64.926v1.624v64.926h35.707v65.855
	c0,53.087,20.102,89.911,54.987,107.992c-28.597-9.14-59.065-14.091-90.695-14.091v595.28c102.073,0,192.134-51.393,245.752-129.701
	v98.77h192.534l203.522,102.209V593.27L520.674,988.777z"/>
</svg>
