<?xml version="1.0" encoding="utf-8"?>
<!-- Generator: Adobe Illustrator 16.0.0, SVG Export Plug-In . SVG Version: 6.00 Build 0)  -->
<!DOCTYPE svg PUBLIC "-//W3C//DTD SVG 1.1//EN" "http://www.w3.org/Graphics/SVG/1.1/DTD/svg11.dtd">
<svg version="1.1" id="Calque_1" xmlns="http://www.w3.org/2000/svg" xmlns:xlink="http://www.w3.org/1999/xlink" x="0px" y="0px"
	 width="1190.551px" height="1190.551px" viewBox="0 0 1190.551 1190.551" enable-background="new 0 0 1190.551 1190.551"
	 xml:space="preserve">
<path fill="#010202" d="M520.913,989.182c31.857-47.391,50.453-104.439,50.453-165.836c0-123.115-74.753-228.768-181.344-274.057
	c14.308,4.536,30.639,6.912,48.893,6.912h65.854v35.709h64.927h1.624h64.926v-35.709H702.1c77.912,0,120.811-43.281,120.811-113.078
	c0-24.755,0-68.714,0-68.714h46.098v-77.368v-2.167v-77.367h-46.1c0,0,0-43.963,0-68.715c0-69.799-42.896-113.083-120.809-113.083
	h-65.854V0H571.32h-1.624h-64.927v35.707h-65.854c-77.912,0-120.81,43.284-120.81,113.083c0,24.752,0,68.715,0,68.715h-44.379
	v77.367v2.167v77.366h44.381c0,0,0,43.961,0,68.714c0,47.444,19.827,82.63,56.991,100.306
	c-31.643-11.461-65.775-17.721-101.373-17.721v595.278c102.892,0.002,193.586-52.211,247.043-131.582v98.939h192.535
	l203.523,102.211V593.27L520.913,989.182z"/>
</svg>
