<?xml version="1.0" encoding="utf-8"?>
<!-- Generator: Adobe Illustrator 16.0.0, SVG Export Plug-In . SVG Version: 6.00 Build 0)  -->
<!DOCTYPE svg PUBLIC "-//W3C//DTD SVG 1.1//EN" "http://www.w3.org/Graphics/SVG/1.1/DTD/svg11.dtd">
<svg version="1.1" id="Calque_1" xmlns="http://www.w3.org/2000/svg" xmlns:xlink="http://www.w3.org/1999/xlink" x="0px" y="0px"
	 width="1190.551px" height="1190.551px" viewBox="0 0 1190.551 1190.551" enable-background="new 0 0 1190.551 1190.551"
	 xml:space="preserve">
<path fill="#010202" d="M792.713,1097.664l-396.06-396.058H297.64v121.94v70.596l-29.362,58.468
	c18.817-39.043,29.362-82.821,29.362-129.063c0-124.041-75.887-230.343-183.759-275.057c14.877,5.052,32.018,7.709,51.308,7.709
	h65.854v35.709h64.927h1.624h64.926v-35.709h65.854c77.912,0,120.811-43.281,120.811-113.078c0-24.755,0-68.714,0-68.714h46.097
	v-77.368v-2.167v-77.367h-46.099c0,0,0-43.963,0-68.715c0-69.799-42.896-113.083-120.809-113.083H362.52V0h-64.926h-1.624h-64.927
	v35.707h-65.854c-77.912,0-120.81,43.284-120.81,113.083c0,24.752,0,68.715,0,68.715H0v77.367v2.167v77.366h44.381
	c0,0,0,43.961,0,68.714c0,48.333,20.575,83.945,59.098,101.282c-32.231-11.953-67.09-18.495-103.479-18.495v595.279
	c115.044,0.001,214.831-65.275,264.375-160.804l-68.943,137.282H792.713z"/>
</svg>
