<?xml version="1.0" encoding="utf-8"?>
<!-- Generator: Adobe Illustrator 16.0.0, SVG Export Plug-In . SVG Version: 6.00 Build 0)  -->
<!DOCTYPE svg PUBLIC "-//W3C//DTD SVG 1.1//EN" "http://www.w3.org/Graphics/SVG/1.1/DTD/svg11.dtd">
<svg version="1.1" id="Calque_1" xmlns="http://www.w3.org/2000/svg" xmlns:xlink="http://www.w3.org/1999/xlink" x="0px" y="0px"
	 width="1190.551px" height="1190.551px" viewBox="0 0 1190.551 1190.551" enable-background="new 0 0 1190.551 1190.551"
	 xml:space="preserve">
<path fill="#010202" d="M396.058,693.684v-98.992H203.522l-100.903-50.674c17.273,7.95,38.21,12.182,62.57,12.182h65.854v35.709
	h64.927h1.624h64.926v-35.709h65.854c77.912,0,120.811-43.281,120.811-113.078c0-24.755,0-68.714,0-68.714h46.097v-77.368v-2.167
	v-77.367h-46.099c0,0,0-43.963,0-68.715c0-69.799-42.896-113.083-120.809-113.083H362.52V0h-64.926h-1.624h-64.927v35.707h-65.854
	c-77.912,0-120.81,43.284-120.81,113.083c0,24.752,0,68.715,0,68.715H0v77.367v2.167v77.366h44.381c0,0,0,43.961,0,68.714
	c0,45.223,18.015,79.309,51.888,97.709L0,492.483v597.28l395.891-395.892c-47.461,52.732-76.356,122.507-76.356,199.038
	c0,164.384,133.259,297.642,297.641,297.642v-595.28C529.415,595.27,450.534,633.261,396.058,693.684z"/>
</svg>
