<?xml version="1.0" encoding="utf-8"?>
<!-- Generator: Adobe Illustrator 16.0.0, SVG Export Plug-In . SVG Version: 6.00 Build 0)  -->
<!DOCTYPE svg PUBLIC "-//W3C//DTD SVG 1.1//EN" "http://www.w3.org/Graphics/SVG/1.1/DTD/svg11.dtd">
<svg version="1.1" id="Calque_1" xmlns="http://www.w3.org/2000/svg" xmlns:xlink="http://www.w3.org/1999/xlink" x="0px" y="0px"
	 width="1190.551px" height="1190.551px" viewBox="0 0 1190.551 1190.551" enable-background="new 0 0 1190.551 1190.551"
	 xml:space="preserve">
<path fill="#010202" d="M543.283,815.664h597.168L744.393,419.606h-99.014v-51.601h-46.098c0,0,0-43.963,0-68.715
	c0-69.799-42.897-113.083-120.81-113.083H412.62V150.5h-64.926h-1.624h-64.927v35.707h-65.854
	c-77.912,0-120.81,43.284-120.81,113.083c0,24.752,0,68.715,0,68.715H50.1v77.367v2.167v77.366h44.381c0,0,0,43.961,0,68.714
	c0,69.796,42.896,113.08,120.808,113.08h65.854v35.709h64.927h1.624h64.926v-35.709h65.854c77.912,0,120.812-43.281,120.812-113.078
	c0-24.755,0-68.714,0-68.714h46.096v87.233L543.205,815.596C490.913,770.02,422.553,742.41,347.74,742.41
	c-164.383,0-297.641,133.258-297.641,297.641h595.278C645.379,950.52,605.842,870.229,543.283,815.664z"/>
</svg>
