<?xml version="1.0" encoding="utf-8"?>
<!-- Generator: Adobe Illustrator 16.0.0, SVG Export Plug-In . SVG Version: 6.00 Build 0)  -->
<!DOCTYPE svg PUBLIC "-//W3C//DTD SVG 1.1//EN" "http://www.w3.org/Graphics/SVG/1.1/DTD/svg11.dtd">
<svg version="1.1" id="Calque_1" xmlns="http://www.w3.org/2000/svg" xmlns:xlink="http://www.w3.org/1999/xlink" x="0px" y="0px"
	 width="1190.551px" height="1190.551px" viewBox="0 0 1190.551 1190.551" enable-background="new 0 0 1190.551 1190.551"
	 xml:space="preserve">
<g>
	<path fill="#010202" d="M94.481,593.62c0,69.796,42.896,113.08,120.808,113.08h65.854v35.709h64.927h1.624h64.926v-35.709h65.854
		c77.912,0,120.812-43.281,120.812-113.078c0-24.755,0-68.714,0-68.714h46.096v13.979L543.17,742.408h597.281L744.393,346.352
		h-99.014v21.654h-46.098c0,0,0-43.963,0-68.715c0-69.799-42.896-113.083-120.81-113.083h-65.853V150.5h-64.926h-1.624h-64.927
		v35.707h-65.854c-77.912,0-120.81,43.284-120.81,113.083c0,24.752,0,68.715,0,68.715H50.1v77.367v2.167v77.366h44.381
		C94.481,524.907,94.481,568.867,94.481,593.62z"/>
	<path fill="#010202" d="M347.74,1040.051c164.382,0,297.64-133.26,297.64-297.641H50.1
		C50.1,906.791,183.358,1040.051,347.74,1040.051z"/>
</g>
</svg>
