<?xml version="1.0" encoding="utf-8"?>
<!-- Generator: Adobe Illustrator 16.0.0, SVG Export Plug-In . SVG Version: 6.00 Build 0)  -->
<!DOCTYPE svg PUBLIC "-//W3C//DTD SVG 1.1//EN" "http://www.w3.org/Graphics/SVG/1.1/DTD/svg11.dtd">
<svg version="1.1" id="Calque_1" xmlns="http://www.w3.org/2000/svg" xmlns:xlink="http://www.w3.org/1999/xlink" x="0px" y="0px"
	 width="1190.551px" height="1190.551px" viewBox="0 0 1190.551 1190.551" enable-background="new 0 0 1190.551 1190.551"
	 xml:space="preserve">
<path fill="#010202" d="M726.617,576.716c3.277-11.573,4.951-24.3,4.951-38.063c0-24.755,0-68.714,0-68.714h46.098v-77.368v-2.167
	v-77.367h-46.1c0,0,0-43.963,0-68.715c0-69.799-42.896-113.083-120.809-113.083h-65.853V95.531h-64.926h-1.624h-64.927v35.707
	h-65.854c-77.912,0-120.81,43.284-120.81,113.083c0,24.752,0,68.715,0,68.715h-44.379v77.367v2.167v77.366h44.381
	c0,0,0,43.961,0,68.714c0,69.797,42.896,113.081,120.808,113.081h65.854v35.709h64.927h1.624h64.926V651.73h65.853
	c58.561,0,97.336-24.453,112.988-66.233c-8.588,27.802-13.219,57.341-13.219,87.964c0,71.431,25.172,136.976,67.117,188.271h-166.23
	v-61.672h-99.212V687.441H362.496v58.99h-180.11v348.588h164.907v-96.531h183.68v96.531h163.567v-99.213h83.123V861.758
	c54.582,66.736,137.562,109.344,230.504,109.344v-595.28C877.655,375.822,766.774,459.83,726.617,576.716z"/>
</svg>
