<?xml version="1.0" encoding="utf-8"?>
<!-- Generator: Adobe Illustrator 16.0.0, SVG Export Plug-In . SVG Version: 6.00 Build 0)  -->
<!DOCTYPE svg PUBLIC "-//W3C//DTD SVG 1.1//EN" "http://www.w3.org/Graphics/SVG/1.1/DTD/svg11.dtd">
<svg version="1.1" id="Calque_1" xmlns="http://www.w3.org/2000/svg" xmlns:xlink="http://www.w3.org/1999/xlink" x="0px" y="0px"
	 width="1190.551px" height="1190.551px" viewBox="0 0 1190.551 1190.551" enable-background="new 0 0 1190.551 1190.551"
	 xml:space="preserve">
<path fill="#010202" d="M1040.526,411.418l6.286-180.001l-348.375-12.165l-4.196,120.174l-45.478-62.593l-1.272-1.753
	l-45.476-62.591l-37.296,27.096c0,0-25.841-35.566-40.39-55.592c-41.025-56.468-101.172-66.272-164.203-20.479l-53.277,38.709
	l-20.988-28.888l-52.526,38.163l-1.312,0.954l-52.526,38.163l20.988,28.887l-53.278,38.709
	c-63.03,45.796-72.294,106.028-31.268,162.496c14.549,20.024,40.39,55.591,40.39,55.591l-35.902,26.086l45.476,62.592l1.273,1.752
	l45.475,62.592l35.905-26.086c0,0,25.84,35.564,40.389,55.59c41.025,56.468,101.17,66.271,164.202,20.477l53.278-38.709
	l20.947,28.833c-160.995,19.519-277.115,164.681-260.103,326.558l592.02-62.225c-7.249-68.972-37.508-129.954-82.348-176.123
	l133.868,4.675l5.802-166.146l61.635,2.151l3.462-99.152l112.553,3.931l5.226-149.614L1040.526,411.418z M776.818,817.515
	c-61.438-63.187-150.204-98.583-244.654-88.655c-1.558,0.164-3.104,0.361-4.653,0.549l52.426-38.09l1.312-0.953l52.526-38.164
	l-20.989-28.889l53.277-38.708c7.497-5.447,14.224-11.1,20.205-16.924l-5.707,163.415l99.151,3.463L776.818,817.515z
	 M782.743,570.995l-96.421-3.367c44.259-43.137,47.145-95.786,11.012-145.517c-14.55-20.026-40.389-55.59-40.389-55.59
	l37.294-27.096l-1.559,44.633l96.473,3.369L782.743,570.995z"/>
</svg>
