<?xml version="1.0" encoding="utf-8"?>
<!-- Generator: Adobe Illustrator 16.0.0, SVG Export Plug-In . SVG Version: 6.00 Build 0)  -->
<!DOCTYPE svg PUBLIC "-//W3C//DTD SVG 1.1//EN" "http://www.w3.org/Graphics/SVG/1.1/DTD/svg11.dtd">
<svg version="1.1" id="Calque_1" xmlns="http://www.w3.org/2000/svg" xmlns:xlink="http://www.w3.org/1999/xlink" x="0px" y="0px"
	 width="1190.551px" height="1190.551px" viewBox="0 0 1190.551 1190.551" enable-background="new 0 0 1190.551 1190.551"
	 xml:space="preserve">
<path fill="#010202" d="M885.093,773.701V593.592H536.504v164.503c-21.751-94.348-88.36-171.531-176.155-207.922
	c14.877,5.052,32.018,7.709,51.308,7.709h65.854v35.709h64.927h1.624h64.926v-35.709h65.854
	c77.912,0,120.812-43.281,120.812-113.078c0-24.755,0-68.714,0-68.714h46.097v-77.368v-2.167v-77.367h-46.099c0,0,0-43.963,0-68.715
	c0-69.799-42.896-113.083-120.81-113.083h-65.854V1.682h-64.926h-1.624h-64.927v35.707h-65.854
	c-77.912,0-120.81,43.284-120.81,113.083c0,24.752,0,68.715,0,68.715h-44.379v77.367v2.167v77.366h44.381c0,0,0,43.961,0,68.714
	c0,48.333,20.575,83.945,59.098,101.282c-32.23-11.953-67.09-18.495-103.479-18.495v595.279
	c164.383,0,297.641-133.258,297.641-297.64c0-22.942-2.602-45.276-7.516-66.729h96.443v183.679h-96.531v163.567h99.213v83.125
	H769.79v-166.25h61.672v-99.213h112.621V773.701H885.093z"/>
</svg>
