<?xml version="1.0" encoding="utf-8"?>
<!-- Generator: Adobe Illustrator 16.0.0, SVG Export Plug-In . SVG Version: 6.00 Build 0)  -->
<!DOCTYPE svg PUBLIC "-//W3C//DTD SVG 1.1//EN" "http://www.w3.org/Graphics/SVG/1.1/DTD/svg11.dtd">
<svg version="1.1" id="Calque_1" xmlns="http://www.w3.org/2000/svg" xmlns:xlink="http://www.w3.org/1999/xlink" x="0px" y="0px"
	 width="1190.551px" height="1190.551px" viewBox="0 0 1190.551 1190.551" enable-background="new 0 0 1190.551 1190.551"
	 xml:space="preserve">
<path fill="#010202" d="M846.465,361.221c-113.699,0-212.494,63.762-262.616,157.471c7.774-15.89,11.78-34.723,11.78-56.034
	c0-24.755,0-68.714,0-68.714h46.097v-77.368v-2.167v-77.367h-46.099c0,0,0-43.963,0-68.715c0-69.799-42.896-113.083-120.81-113.083
	h-65.853V19.537H344.04h-1.624h-64.927v35.707h-65.854c-77.912,0-120.81,43.284-120.81,113.083c0,24.752,0,68.715,0,68.715H46.446
	v77.367v2.167v77.366h44.381c0,0,0,43.961,0,68.714c0,69.797,42.896,113.08,120.808,113.08h65.854v35.709h64.927h1.624h64.925
	v130.539h-61.672v99.213H234.672v149.707h58.992v180.109h348.588v-164.906h-96.533v-183.68h96.533V658.859h501.854
	C1144.106,494.479,1010.846,361.221,846.465,361.221z M543.04,658.859v-83.123H408.966v-0.001h65.854
	c51.552,0,87.768-18.954,106.377-51.994c-20.694,40.549-32.37,86.469-32.37,135.118H543.04L543.04,658.859z"/>
</svg>
