<?xml version="1.0" encoding="utf-8"?>
<!-- Generator: Adobe Illustrator 16.0.0, SVG Export Plug-In . SVG Version: 6.00 Build 0)  -->
<!DOCTYPE svg PUBLIC "-//W3C//DTD SVG 1.1//EN" "http://www.w3.org/Graphics/SVG/1.1/DTD/svg11.dtd">
<svg version="1.1" id="Calque_1" xmlns="http://www.w3.org/2000/svg" xmlns:xlink="http://www.w3.org/1999/xlink" x="0px" y="0px"
	 width="1190.551px" height="1190.551px" viewBox="0 0 1190.551 1190.551" enable-background="new 0 0 1190.551 1190.551"
	 xml:space="preserve">
<path fill="#010202" d="M544.233,481.185c3.276-11.573,4.951-24.3,4.951-38.063c0-24.755,0-68.714,0-68.714h46.097v-77.368v-2.167
	v-77.367h-46.099c0,0,0-43.963,0-68.715c0-69.799-42.896-113.083-120.809-113.083H362.52V0h-64.926h-1.624h-64.927v35.707h-65.854
	c-77.912,0-120.81,43.284-120.81,113.083c0,24.752,0,68.715,0,68.715H0v77.367v2.167v77.366h44.381c0,0,0,43.961,0,68.714
	c0,69.797,42.896,113.08,120.808,113.08h65.854v35.709h64.927h1.624h64.926v-35.709h65.854c58.559,0,97.335-24.452,112.988-66.232
	c-8.589,27.802-13.219,57.341-13.219,87.964c0,71.43,25.172,136.975,67.116,188.271H429.03V704.53h-99.213v-112.62H180.111v58.991H0
	v348.588h164.907v-96.532h183.68v96.532h163.567v-99.213h83.124V766.227c54.582,66.737,137.562,109.344,230.503,109.344V280.291
	C695.27,280.291,584.389,364.299,544.233,481.185z"/>
</svg>
