<?xml version="1.0" encoding="utf-8"?>
<!-- Generator: Adobe Illustrator 16.0.0, SVG Export Plug-In . SVG Version: 6.00 Build 0)  -->
<!DOCTYPE svg PUBLIC "-//W3C//DTD SVG 1.1//EN" "http://www.w3.org/Graphics/SVG/1.1/DTD/svg11.dtd">
<svg version="1.1" id="Calque_1" xmlns="http://www.w3.org/2000/svg" xmlns:xlink="http://www.w3.org/1999/xlink" x="0px" y="0px"
	 width="1190.551px" height="1190.551px" viewBox="0 0 1190.551 1190.551" enable-background="new 0 0 1190.551 1190.551"
	 xml:space="preserve">
<path fill="#010202" d="M949.345,276.83l6.286-180.001L607.256,84.664l-4.196,120.174l-45.477-62.593l-1.273-1.753l-45.476-62.591
	l-37.295,27.096c0,0-25.841-35.566-40.39-55.592C392.123-7.063,331.977-16.867,268.946,28.927l-53.278,38.709l-20.988-28.888
	l-52.526,38.163l-1.313,0.954l-52.526,38.163l20.988,28.887l-53.278,38.709c-63.031,45.796-72.294,106.028-31.268,162.496
	c14.549,20.024,40.39,55.591,40.39,55.591l-35.903,26.086l45.476,62.591l1.273,1.753l45.475,62.592l35.905-26.087
	c0,0,25.84,35.565,40.389,55.59c41.025,56.468,101.17,66.272,164.202,20.477l53.278-38.709l20.948,28.833
	c-160.995,19.518-277.116,164.681-260.103,326.557l592.02-62.224c-7.249-68.972-37.508-129.954-82.348-176.123l133.868,4.675
	l5.802-166.147l61.635,2.152l3.462-99.153l112.553,3.931l5.225-149.614L949.345,276.83z M685.637,682.927
	c-61.438-63.187-150.204-98.583-244.654-88.655c-1.558,0.164-3.104,0.361-4.653,0.549l52.425-38.09l1.313-0.954l52.526-38.163
	l-20.989-28.889l53.277-38.709c7.497-5.447,14.224-11.1,20.205-16.924l-5.707,163.415l99.152,3.463L685.637,682.927z
	 M691.563,436.407l-96.421-3.367c44.259-43.137,47.145-95.786,11.012-145.517c-14.55-20.026-40.389-55.59-40.389-55.59
	l37.294-27.096l-1.559,44.633l96.473,3.369L691.563,436.407z"/>
</svg>
