<?xml version="1.0" encoding="utf-8"?>
<!-- Generator: Adobe Illustrator 16.0.0, SVG Export Plug-In . SVG Version: 6.00 Build 0)  -->
<!DOCTYPE svg PUBLIC "-//W3C//DTD SVG 1.1//EN" "http://www.w3.org/Graphics/SVG/1.1/DTD/svg11.dtd">
<svg version="1.1" id="Calque_1" xmlns="http://www.w3.org/2000/svg" xmlns:xlink="http://www.w3.org/1999/xlink" x="0px" y="0px"
	 width="1190.551px" height="1190.551px" viewBox="0 0 1190.551 1190.551" enable-background="new 0 0 1190.551 1190.551"
	 xml:space="preserve">
<path fill="#010202" d="M823.345,297.64c-123.112,0-228.763,74.749-274.055,181.335c4.534-14.306,6.909-30.634,6.909-48.883v-65.855
	h35.709v-64.926v-1.624v-64.926h-35.709v-65.855c0-77.911-43.281-120.809-113.079-120.809c-24.754,0-68.713,0-68.713,0V-0.001
	h-77.368h-2.167h-77.367v46.1c0,0-43.963,0-68.715,0c-69.799,0-113.083,42.896-113.083,120.807v65.855H0v64.926v1.624v64.926h35.707
	v65.855c0,77.911,43.284,120.809,113.083,120.809c24.752,0,68.715,0,68.715,0v44.379H83.124v99.213H0v134.074h166.249v61.672h99.213
	v112.621h149.706v-58.992h180.11V595.28h525.705C1120.985,430.898,987.727,297.64,823.345,297.64z M430.37,595.28v96.532H246.692
	V595.28h48.181h2.167h77.366v-44.381c0,0,43.961,0,68.713,0c47.44,0,82.625-19.824,100.303-56.982
	c-11.459,31.639-17.718,65.769-17.718,101.363H430.37z"/>
</svg>
