<?xml version="1.0" encoding="utf-8"?>
<!-- Generator: Adobe Illustrator 16.0.0, SVG Export Plug-In . SVG Version: 6.00 Build 0)  -->
<!DOCTYPE svg PUBLIC "-//W3C//DTD SVG 1.1//EN" "http://www.w3.org/Graphics/SVG/1.1/DTD/svg11.dtd">
<svg version="1.1" id="Calque_1" xmlns="http://www.w3.org/2000/svg" xmlns:xlink="http://www.w3.org/1999/xlink" x="0px" y="0px"
	 width="1190.551px" height="1190.551px" viewBox="0 0 1190.551 1190.551" enable-background="new 0 0 1190.551 1190.551"
	 xml:space="preserve">
<path fill="#010202" d="M945.668,596.962V1.682c-146.855,0-268.856,106.363-293.205,246.252V84.806h-99.214V1.682H419.176v166.249
	h-61.672v99.213H244.883V416.85h58.992v180.109h172.051v35.708h-65.854c-77.912,0-120.81,43.284-120.81,113.083
	c0,24.752,0,68.715,0,68.715h-44.379v77.367v2.167v77.366h44.381c0,0,0,43.961,0,68.713c0,69.798,42.896,113.082,120.808,113.082
	h65.854v35.709h64.927h1.624h64.926v-35.709h65.854c77.912,0,120.812-43.282,120.812-113.079c0-24.755,0-68.714,0-68.714h46.097
	v-77.368v-2.167v-77.367h-46.099c0,0,0-43.963,0-68.715c0-69.799-42.896-113.083-120.81-113.083h-65.854v-35.708h45.062V432.053
	h-96.532v-183.68h96.459c-2.856,16.557-4.361,33.576-4.361,50.948C648.03,463.704,781.287,596.962,945.668,596.962z"/>
</svg>
