<?xml version="1.0" encoding="utf-8"?>
<!-- Generator: Adobe Illustrator 16.0.0, SVG Export Plug-In . SVG Version: 6.00 Build 0)  -->
<!DOCTYPE svg PUBLIC "-//W3C//DTD SVG 1.1//EN" "http://www.w3.org/Graphics/SVG/1.1/DTD/svg11.dtd">
<svg version="1.1" id="Calque_1" xmlns="http://www.w3.org/2000/svg" xmlns:xlink="http://www.w3.org/1999/xlink" x="0px" y="0px"
	 width="1190.551px" height="1190.551px" viewBox="0 0 1190.551 1190.551" enable-background="new 0 0 1190.551 1190.551"
	 xml:space="preserve">
<path fill="#010202" d="M858.129,391.486c-123.112,0-228.764,74.749-274.056,181.335c4.534-14.306,6.909-30.634,6.909-48.883
	v-65.854h35.709v-64.926v-1.624v-64.926h-35.709v-65.855c0-77.911-43.28-120.809-113.079-120.809c-24.754,0-68.713,0-68.713,0
	V93.845h-77.367h-2.167h-77.367v46.1c0,0-43.963,0-68.715,0c-69.799,0-113.083,42.896-113.083,120.807v65.854H34.784v64.926v1.624
	v64.926h35.707v65.855c0,77.911,43.284,120.809,113.083,120.809c24.752,0,68.715,0,68.715,0v44.38H117.908v99.213H34.784v134.074
	h166.249v61.672h99.213v112.621h149.706v-58.992h180.109V689.126h525.705C1155.769,524.744,1022.511,391.486,858.129,391.486z
	 M465.154,689.126v96.532H281.476v-96.532h48.182h2.167h77.365v-44.382c0,0,43.962,0,68.713,0c47.44,0,82.625-19.823,100.304-56.981
	c-11.459,31.64-17.719,65.769-17.719,101.363H465.154z"/>
</svg>
