<?xml version="1.0" encoding="utf-8"?>
<!-- Generator: Adobe Illustrator 16.0.0, SVG Export Plug-In . SVG Version: 6.00 Build 0)  -->
<!DOCTYPE svg PUBLIC "-//W3C//DTD SVG 1.1//EN" "http://www.w3.org/Graphics/SVG/1.1/DTD/svg11.dtd">
<svg version="1.1" id="Calque_1" xmlns="http://www.w3.org/2000/svg" xmlns:xlink="http://www.w3.org/1999/xlink" x="0px" y="0px"
	 width="1190.551px" height="1190.551px" viewBox="0 0 1190.551 1190.551" enable-background="new 0 0 1190.551 1190.551"
	 xml:space="preserve">
<path fill="#010202" d="M700.786,595.28V0C553.93,0,431.929,106.363,407.58,246.252V83.124h-99.214V0H174.293v166.249h-61.672
	v99.213H0v149.706h58.992v180.11h172.051v35.707h-65.854c-77.912,0-120.81,43.285-120.81,113.083c0,24.752,0,68.715,0,68.715H0
	v77.367v2.167v77.367h44.381c0,0,0,43.961,0,68.713c0,69.797,42.896,113.081,120.808,113.081h65.854v35.709h64.927h1.624h64.926
	v-35.709h65.854c77.912,0,120.811-43.282,120.811-113.079c0-24.754,0-68.713,0-68.713h46.097v-77.369v-2.167v-77.367h-46.099
	c0,0,0-43.963,0-68.715c0-69.798-42.896-113.083-120.809-113.083H362.52v-35.707h45.061V430.371h-96.532v-183.68h96.459
	c-2.856,16.557-4.361,33.576-4.361,50.948C403.147,462.022,536.405,595.28,700.786,595.28z"/>
</svg>
