<?xml version="1.0" encoding="utf-8"?>
<!-- Generator: Adobe Illustrator 16.0.0, SVG Export Plug-In . SVG Version: 6.00 Build 0)  -->
<!DOCTYPE svg PUBLIC "-//W3C//DTD SVG 1.1//EN" "http://www.w3.org/Graphics/SVG/1.1/DTD/svg11.dtd">
<svg version="1.1" id="Calque_1" xmlns="http://www.w3.org/2000/svg" xmlns:xlink="http://www.w3.org/1999/xlink" x="0px" y="0px"
	 width="1190.551px" height="1190.551px" viewBox="0 0 1190.551 1190.551" enable-background="new 0 0 1190.551 1190.551"
	 xml:space="preserve">
<path fill="#010202" d="M658.214,596.961V436.516C698.24,553.635,809.24,637.854,939.918,637.854V42.575
	c-130.678-0.001-241.677,84.218-281.704,201.337V84.806H559V1.682H424.927v166.249h-61.672v99.213H250.634V416.85h58.992v180.109
	h173.768v35.71h-65.854c-77.91,0-120.809,43.281-120.809,113.079c0,24.754,0,68.713,0,68.713h-46.098v77.369v2.166v77.367h46.1
	c0,0,0,43.963,0,68.715c0,69.799,42.896,113.084,120.807,113.084h65.854v35.707h64.927h1.624h64.926v-35.707h65.855
	c77.912,0,120.809-43.285,120.809-113.084c0-24.752,0-68.715,0-68.715h44.379v-77.366v-2.167v-77.367h-44.381c0,0,0-43.961,0-68.713
	c0-69.797-42.895-113.081-120.807-113.081H614.87v-35.71h43.344V596.961z M561.682,248.374h95.061
	c-9.376,28.929-14.463,59.788-14.463,91.841c0,32.052,5.087,62.911,14.462,91.839h-95.06V248.374z"/>
</svg>
