<?xml version="1.0" encoding="utf-8"?>
<!-- Generator: Adobe Illustrator 16.0.0, SVG Export Plug-In . SVG Version: 6.00 Build 0)  -->
<!DOCTYPE svg PUBLIC "-//W3C//DTD SVG 1.1//EN" "http://www.w3.org/Graphics/SVG/1.1/DTD/svg11.dtd">
<svg version="1.1" id="Calque_1" xmlns="http://www.w3.org/2000/svg" xmlns:xlink="http://www.w3.org/1999/xlink" x="0px" y="0px"
	 width="1190.551px" height="1190.551px" viewBox="0 0 1190.551 1190.551" enable-background="new 0 0 1190.551 1190.551"
	 xml:space="preserve">
<path fill="#010202" d="M407.58,595.279V434.834c40.027,117.119,151.027,201.338,281.705,201.338V40.893
	C558.607,40.892,447.608,125.111,407.58,242.23V83.124h-99.214V0H174.293v166.249h-61.672v99.213H0v149.706h58.992v180.11H232.76
	v35.709h-65.854c-77.911,0-120.809,43.282-120.809,113.079c0,24.754,0,68.713,0,68.713H-0.001v77.369v2.167v77.367h46.1
	c0,0,0,43.963,0,68.715c0,69.798,42.896,113.083,120.807,113.083h65.854v35.707h64.927h1.624h64.926v-35.707h65.855
	c77.912,0,120.809-43.285,120.809-113.083c0-24.752,0-68.715,0-68.715h44.379v-77.367v-2.167v-77.367h-44.381c0,0,0-43.961,0-68.713
	c0-69.797-42.895-113.081-120.807-113.081h-65.855v-35.709H407.58z M311.048,246.692h95.061
	c-9.376,28.929-14.463,59.788-14.463,91.841c0,32.052,5.087,62.911,14.462,91.839h-95.06V246.692z"/>
</svg>
