<?xml version="1.0" encoding="utf-8"?>
<!-- Generator: Adobe Illustrator 16.0.0, SVG Export Plug-In . SVG Version: 6.00 Build 0)  -->
<!DOCTYPE svg PUBLIC "-//W3C//DTD SVG 1.1//EN" "http://www.w3.org/Graphics/SVG/1.1/DTD/svg11.dtd">
<svg version="1.1" id="Calque_1" xmlns="http://www.w3.org/2000/svg" xmlns:xlink="http://www.w3.org/1999/xlink" x="0px" y="0px"
	 width="1190.551px" height="1190.551px" viewBox="0 0 1190.551 1190.551" enable-background="new 0 0 1190.551 1190.551"
	 xml:space="preserve">
<path fill="#010202" d="M638.315,772.02v-180.11H364.237v-35.707h65.855c77.912,0,120.809-43.285,120.809-113.083
	c0-24.752,0-68.716,0-68.716h44.379v-77.366v-2.167v-77.367h-44.381c0,0,0-43.961,0-68.713c0-69.798-42.895-113.081-120.807-113.081
	h-65.855V0h-64.926h-1.624H232.76v35.709h-65.854c-77.911,0-120.809,43.281-120.809,113.079c0,24.754,0,68.713,0,68.713H-0.001
	v77.369v2.167v77.366h46.1c0,0,0,43.964,0,68.716c0,47.855,20.167,83.244,57.957,100.768
	c-32.393-12.09-67.449-18.714-104.056-18.714v595.28c164.383,0,297.641-133.257,297.641-297.639c0-22.683-2.55-44.769-7.356-65.998
	h95.975v183.679h-96.532v163.568h99.213v83.124h134.074v-166.249h61.672v-99.213h112.621V772.02H638.315z M115.99,548.622
	c14.787,4.967,31.794,7.58,50.916,7.58h65.854v35.707h56.967v162.492C267.847,661.389,202.349,585.2,115.99,548.622z"/>
</svg>
