<?xml version="1.0" encoding="utf-8"?>
<!-- Generator: Adobe Illustrator 16.0.0, SVG Export Plug-In . SVG Version: 6.00 Build 0)  -->
<!DOCTYPE svg PUBLIC "-//W3C//DTD SVG 1.1//EN" "http://www.w3.org/Graphics/SVG/1.1/DTD/svg11.dtd">
<svg version="1.1" id="Calque_1" xmlns="http://www.w3.org/2000/svg" xmlns:xlink="http://www.w3.org/1999/xlink" x="0px" y="0px"
	 width="1190.551px" height="1190.551px" viewBox="0 0 1190.551 1190.551" enable-background="new 0 0 1190.551 1190.551"
	 xml:space="preserve">
<path fill="#010202" d="M759.515,393.856v-77.28v-2.167v-77.367h-46.099c0,0,0-43.963,0-68.715
	c0-69.799-42.896-113.083-120.81-113.083h-65.853V19.537h-64.926h-1.624h-64.927v35.707h-65.854
	c-77.912,0-120.81,43.284-120.81,113.083c0,24.752,0,68.715,0,68.715h-44.379v77.367v2.167v77.366h44.381c0,0,0,43.961,0,68.714
	c0,69.797,42.896,113.08,120.808,113.08h65.854v35.709h64.927h1.624h64.925v130.539h-61.672v99.213H352.46v149.707h58.992v180.109
	H760.04v-164.906h-96.532v-183.68h96.532V658.98c48.858,97.561,149.737,164.551,266.276,164.551V228.25
	C909.356,228.25,808.172,295.722,759.515,393.856z M660.828,658.859v-83.123H526.754v-0.001h65.854
	c77.912,0,120.812-43.281,120.812-113.078c0-24.755,0-68.714,0-68.714h46.053c-19.702,39.768-30.794,84.558-30.794,131.945
	c0,47.795,11.284,92.947,31.304,132.971H660.828L660.828,658.859z"/>
</svg>
