<?xml version="1.0" encoding="utf-8"?>
<!-- Generator: Adobe Illustrator 16.0.0, SVG Export Plug-In . SVG Version: 6.00 Build 0)  -->
<!DOCTYPE svg PUBLIC "-//W3C//DTD SVG 1.1//EN" "http://www.w3.org/Graphics/SVG/1.1/DTD/svg11.dtd">
<svg version="1.1" id="Calque_1" xmlns="http://www.w3.org/2000/svg" xmlns:xlink="http://www.w3.org/1999/xlink" x="0px" y="0px"
	 width="1190.551px" height="1190.551px" viewBox="0 0 1190.551 1190.551" enable-background="new 0 0 1190.551 1190.551"
	 xml:space="preserve">
<path fill="#010202" d="M484.512,1190.551h595.278c0.001-164.382-133.257-297.642-297.639-297.642
	c-58.657,0-113.344,16.978-159.436,46.271c28.237-19.71,44.242-54.136,44.242-101.51v-65.854h35.709V706.89v-1.624V640.34h-35.709
	v-65.855c0-77.912-43.281-120.81-113.079-120.81c-24.754,0-68.713,0-68.713,0V407.58h137.747v-99.214h83.124V174.293H539.79v-61.672
	h-99.213V0H290.871v58.991h-180.11V407.58h164.907v-96.532h183.68v96.531H407.8h-2.167h-77.367v46.1c0,0-43.963,0-68.715,0
	c-69.799,0-113.083,42.896-113.083,120.807v65.855h-35.707v64.926v1.624v64.927h35.707v65.854
	c0,77.911,43.284,120.81,113.083,120.81c24.752,0,68.715,0,68.715,0v44.379h77.367h2.167h77.365v-44.381c0,0,43.962,0,68.713,0
	c24.92,0,46.458-5.473,63.854-16.051C537.448,995.739,484.512,1086.957,484.512,1190.551z"/>
</svg>
