<?xml version="1.0" encoding="utf-8"?>
<!-- Generator: Adobe Illustrator 16.0.0, SVG Export Plug-In . SVG Version: 6.00 Build 0)  -->
<!DOCTYPE svg PUBLIC "-//W3C//DTD SVG 1.1//EN" "http://www.w3.org/Graphics/SVG/1.1/DTD/svg11.dtd">
<svg version="1.1" id="Calque_1" xmlns="http://www.w3.org/2000/svg" xmlns:xlink="http://www.w3.org/1999/xlink" x="0px" y="0px"
	 width="1190.551px" height="1190.551px" viewBox="0 0 1190.551 1190.551" enable-background="new 0 0 1190.551 1190.551"
	 xml:space="preserve">
<path fill="#010202" d="M902.807,564.702v55.711H687.156V343.659h-95.247v-46.065v-1.624v-64.927h-35.707v-65.854
	c0-77.912-43.285-120.81-113.083-120.81c-24.751,0-68.715,0-68.715,0V0h-77.366h-2.167h-77.367v44.381c0,0-43.961,0-68.713,0
	c-69.797,0-113.081,42.896-113.081,120.808v65.854H0v64.927v1.624v64.926h35.709v65.854c0,77.912,43.281,120.81,113.079,120.81
	c24.754,0,68.713,0,68.713,0v46.096h-37.391v58.992H0v348.588h164.907v-96.532h183.68v96.532h163.567v-99.213h83.124V769.573
	h587.877v-204.87H902.807z M429.03,769.573v-61.672h-99.212v-112.62h44.586v-46.099c0,0,43.964,0,68.715,0
	c69.798,0,113.083-42.896,113.083-120.808V362.52h35.707v407.053H429.03z"/>
</svg>
