<?xml version="1.0" encoding="utf-8"?>
<!-- Generator: Adobe Illustrator 16.0.0, SVG Export Plug-In . SVG Version: 6.00 Build 0)  -->
<!DOCTYPE svg PUBLIC "-//W3C//DTD SVG 1.1//EN" "http://www.w3.org/Graphics/SVG/1.1/DTD/svg11.dtd">
<svg version="1.1" id="Calque_1" xmlns="http://www.w3.org/2000/svg" xmlns:xlink="http://www.w3.org/1999/xlink" x="0px" y="0px"
	 width="1190.551px" height="1190.551px" viewBox="0 0 1190.551 1190.551" enable-background="new 0 0 1190.551 1190.551"
	 xml:space="preserve">
<path fill="#010202" d="M659.2,795.872V632.305h-99.213v-83.124H443.219c69.738-0.042,112.982-42.933,112.982-120.807V362.52h35.707
	v-64.926v-1.624v-64.927h-35.707v-65.854c0-77.912-43.285-120.81-113.083-120.81c-24.751,0-68.715,0-68.715,0V0h-77.366h-2.167
	h-77.367v44.381c0,0-43.961,0-68.713,0c-69.797,0-113.081,42.896-113.081,120.808v65.854H0v64.927v1.624v64.926h35.709v65.854
	c0,77.912,43.281,120.81,113.079,120.81c24.754,0,68.713,0,68.713,0v46.096H0v591.247h204.871V906.178h-55.712V690.527h276.754
	v24.903h-61.671v99.212H251.621v149.707h58.991v180.111H659.2V979.553h-96.53V795.872H659.2z M374.404,595.28v-46.098
	c0,0,27.704,0,51.51,0v46.098H374.404z"/>
</svg>
