<?xml version="1.0" encoding="utf-8"?>
<!-- Generator: Adobe Illustrator 16.0.0, SVG Export Plug-In . SVG Version: 6.00 Build 0)  -->
<!DOCTYPE svg PUBLIC "-//W3C//DTD SVG 1.1//EN" "http://www.w3.org/Graphics/SVG/1.1/DTD/svg11.dtd">
<svg version="1.1" id="Calque_1" xmlns="http://www.w3.org/2000/svg" xmlns:xlink="http://www.w3.org/1999/xlink" x="0px" y="0px"
	 width="1190.551px" height="1190.551px" viewBox="0 0 1190.551 1190.551" enable-background="new 0 0 1190.551 1190.551"
	 xml:space="preserve">
<path fill="#010202" d="M829.102,865.146v-61.672h-99.211V690.854H621.114v-95.246h-61.676v-35.707h65.856
	c77.912,0,120.809-43.285,120.809-113.083c0-24.752,0-68.716,0-68.716h44.379v-77.366v-2.167v-77.367H746.1c0,0,0-43.961,0-68.713
	c0-69.798-42.895-113.081-120.807-113.081h-65.856V3.698h-64.926h-1.624h-64.926v35.709h-65.854
	c-77.91,0-120.809,43.281-120.809,113.079c0,24.754,0,68.713,0,68.713h-46.098v77.369v2.167v77.366h46.1c0,0,0,43.964,0,68.716
	c0,69.798,42.896,113.083,120.807,113.083h65.854v35.707h-232.76v591.247h204.871v-88.422h164.906V1001.9h183.679v96.531h163.568
	v-99.213h83.123V865.146H829.102z M580.183,749.846H400.074v156.658h-55.712v-215.65h235.821V749.846z"/>
</svg>
