<?xml version="1.0" encoding="utf-8"?>
<!-- Generator: Adobe Illustrator 16.0.0, SVG Export Plug-In . SVG Version: 6.00 Build 0)  -->
<!DOCTYPE svg PUBLIC "-//W3C//DTD SVG 1.1//EN" "http://www.w3.org/Graphics/SVG/1.1/DTD/svg11.dtd">
<svg version="1.1" id="Calque_1" xmlns="http://www.w3.org/2000/svg" xmlns:xlink="http://www.w3.org/1999/xlink" x="0px" y="0px"
	 width="1190.551px" height="1190.551px" viewBox="0 0 1190.551 1190.551" enable-background="new 0 0 1190.551 1190.551"
	 xml:space="preserve">
<path fill="#010202" d="M1012.022,136.667V41.421H586.11v43.386h-99.214V1.682H352.823v166.249h-61.672v99.212H178.53V416.85h58.992
	v180.109h172.051v35.708h-65.854c-77.912,0-120.81,43.284-120.81,113.083c0,24.752,0,68.715,0,68.715H178.53v77.367v2.167v77.366
	h44.381c0,0,0,43.961,0,68.713c0,69.798,42.896,113.082,120.808,113.082h65.854v35.709h64.927h1.624h64.926v-35.709h65.854
	c77.912,0,120.812-43.282,120.812-113.079c0-24.755,0-68.714,0-68.714h46.097v-77.368v-2.167v-77.367h-46.099c0,0,0-43.963,0-68.715
	c0-69.799-42.896-113.083-120.81-113.083h184.076V352.318h-55.712V136.667H1012.022z M489.577,248.374h96.532v183.68h-96.532
	V248.374L489.577,248.374z M541.049,632.668v-35.707h45.062v35.707H541.049L541.049,632.668z"/>
</svg>
