<?xml version="1.0" encoding="utf-8"?>
<!-- Generator: Adobe Illustrator 16.0.0, SVG Export Plug-In . SVG Version: 6.00 Build 0)  -->
<!DOCTYPE svg PUBLIC "-//W3C//DTD SVG 1.1//EN" "http://www.w3.org/Graphics/SVG/1.1/DTD/svg11.dtd">
<svg version="1.1" id="Calque_1" xmlns="http://www.w3.org/2000/svg" xmlns:xlink="http://www.w3.org/1999/xlink" x="0px" y="0px"
	 width="1190.551px" height="1190.551px" viewBox="0 0 1190.551 1190.551" enable-background="new 0 0 1190.551 1190.551"
	 xml:space="preserve">
<path fill="#010202" d="M993.665,801.747V210.5H788.793v116.107h-35.709v-65.854c0-77.911-43.28-120.809-113.079-120.809
	c-24.753,0-68.712,0-68.712,0V93.845h-77.368h-2.167h-77.367v46.1c0,0-43.963,0-68.715,0c-69.799,0-113.083,42.896-113.083,120.807
	v65.854h-35.707v64.926v1.624v64.926h35.707v65.855c0,77.911,43.284,120.809,113.083,120.809c24.752,0,68.715,0,68.715,0v44.38
	h-37.396v58.992H196.886v348.588h164.907v-96.532h183.68v96.532h163.566v-99.213h83.124V863.419H625.915v-61.672H993.665z
	 M526.703,801.747V689.126h44.588v-44.382c0,0,43.962,0,68.713,0c69.798,0,113.081-42.896,113.081-120.807v-65.854h35.709v32.767
	h55.712V706.5H567.75v95.247H526.703L526.703,801.747z"/>
</svg>
