<?xml version="1.0" encoding="utf-8"?>
<!-- Generator: Adobe Illustrator 16.0.0, SVG Export Plug-In . SVG Version: 6.00 Build 0)  -->
<!DOCTYPE svg PUBLIC "-//W3C//DTD SVG 1.1//EN" "http://www.w3.org/Graphics/SVG/1.1/DTD/svg11.dtd">
<svg version="1.1" id="Calque_1" xmlns="http://www.w3.org/2000/svg" xmlns:xlink="http://www.w3.org/1999/xlink" x="0px" y="0px"
	 width="1190.551px" height="1190.551px" viewBox="0 0 1190.551 1190.551" enable-background="new 0 0 1190.551 1190.551"
	 xml:space="preserve">
<path fill="#010202" d="M790.48,551.397v88.421H625.571v96.531H441.893v-96.531h50.995h1.624h64.926v-35.707h65.855
	c77.912,0,120.809-43.285,120.809-113.083c0-24.752,0-68.716,0-68.716h44.379v-77.366v-2.167v-77.367H746.1c0,0,0-43.961,0-68.713
	c0-69.798-42.895-113.081-120.807-113.081h-65.855v-35.71h-64.926h-1.624h-64.927v35.709h-65.854
	c-77.91,0-120.809,43.281-120.809,113.079c0,24.754,0,68.713,0,68.713H195.2v77.369v2.167v77.366h46.1c0,0,0,43.964,0,68.716
	c0,69.798,42.896,113.083,120.807,113.083h65.854v35.707H278.325v99.212h-83.124v134.074H361.45v61.672h99.212v112.621h108.773
	v95.246h425.915V551.397H790.48z M846.191,1047.397H610.369v-58.992h180.109V831.747h55.712V1047.397z"/>
</svg>
