<?xml version="1.0" encoding="utf-8"?>
<!-- Generator: Adobe Illustrator 16.0.0, SVG Export Plug-In . SVG Version: 6.00 Build 0)  -->
<!DOCTYPE svg PUBLIC "-//W3C//DTD SVG 1.1//EN" "http://www.w3.org/Graphics/SVG/1.1/DTD/svg11.dtd">
<svg version="1.1" id="Calque_1" xmlns="http://www.w3.org/2000/svg" xmlns:xlink="http://www.w3.org/1999/xlink" x="0px" y="0px"
	 width="1190.551px" height="1190.551px" viewBox="0 0 1190.551 1190.551" enable-background="new 0 0 1190.551 1190.551"
	 xml:space="preserve">
<path fill="#010202" d="M833.493,134.986V39.739H407.58v43.386h-99.214V0H174.293v166.249h-61.672v99.212H0v149.707h58.992v180.11
	h172.051v35.707h-65.854c-77.912,0-120.81,43.285-120.81,113.083c0,24.752,0,68.715,0,68.715H0v77.367v2.167v77.367h44.381
	c0,0,0,43.961,0,68.713c0,69.797,42.896,113.081,120.808,113.081h65.854v35.709h64.927h1.624h64.926v-35.709h65.854
	c77.912,0,120.811-43.282,120.811-113.079c0-24.754,0-68.713,0-68.713h46.097v-77.369v-2.167v-77.367h-46.099c0,0,0-43.963,0-68.715
	c0-69.798-42.896-113.083-120.809-113.083H612.45V350.637h-55.712V134.986H833.493z M311.048,246.692h96.532v183.68h-96.532V246.692
	z M362.52,630.986v-35.707h45.061v35.707H362.52z"/>
</svg>
