<?xml version="1.0" encoding="utf-8"?>
<!-- Generator: Adobe Illustrator 16.0.0, SVG Export Plug-In . SVG Version: 6.00 Build 0)  -->
<!DOCTYPE svg PUBLIC "-//W3C//DTD SVG 1.1//EN" "http://www.w3.org/Graphics/SVG/1.1/DTD/svg11.dtd">
<svg version="1.1" id="Calque_1" xmlns="http://www.w3.org/2000/svg" xmlns:xlink="http://www.w3.org/1999/xlink" x="0px" y="0px"
	 width="1190.551px" height="1190.551px" viewBox="0 0 1190.551 1190.551" enable-background="new 0 0 1190.551 1190.551"
	 xml:space="preserve">
<path fill="#010202" d="M481.771,568.831v-10.946h65.855c77.913,0,120.809-43.285,120.809-113.083c0-24.752,0-68.716,0-68.716
	h44.379V298.72v-2.167v-77.367h-44.381c0,0,0-43.961,0-68.713c0-69.798-42.895-113.081-120.807-113.081h-65.855V1.682h-64.926
	h-1.624h-64.927v35.709H284.44c-77.91,0-120.809,43.281-120.809,113.079c0,24.754,0,68.713,0,68.713h-46.098v77.369v2.167v77.366
	h46.1c0,0,0,43.964,0,68.716c0,69.798,42.896,113.083,120.807,113.083h65.854v35.707h-232.76v164.907h96.532v183.679h-96.532
	v163.567h99.213v83.125h134.074v-166.25h61.672v-99.212h112.621V773.701h237.006v-55.712H977.77v276.756h95.248V568.831H481.771z
	 M466.123,773.701V593.592h15.647v180.109H466.123z"/>
</svg>
