<?xml version="1.0" encoding="utf-8"?>
<!-- Generator: Adobe Illustrator 16.0.0, SVG Export Plug-In . SVG Version: 6.00 Build 0)  -->
<!DOCTYPE svg PUBLIC "-//W3C//DTD SVG 1.1//EN" "http://www.w3.org/Graphics/SVG/1.1/DTD/svg11.dtd">
<svg version="1.1" id="Calque_1" xmlns="http://www.w3.org/2000/svg" xmlns:xlink="http://www.w3.org/1999/xlink" x="0px" y="0px"
	 width="1190.551px" height="1190.551px" viewBox="0 0 1190.551 1190.551" enable-background="new 0 0 1190.551 1190.551"
	 xml:space="preserve">
<path fill="#010202" d="M924.875,797.884V634.316h-99.213v-83.124H708.895c69.737-0.042,112.981-42.933,112.981-120.807v-65.854
	h35.707v-64.926v-1.624v-64.927h-35.707v-65.854c0-77.912-43.285-120.81-113.083-120.81c-24.751,0-68.715,0-68.715,0V2.012h-77.365
	h-2.167h-77.367v44.381c0,0-43.961,0-68.713,0c-69.797,0-113.081,42.896-113.081,120.808v65.854h-35.709v64.927v1.624v64.926h35.709
	v65.854c0,77.912,43.281,120.81,113.079,120.81c24.754,0,68.713,0,68.713,0v46.095H265.676v591.248h204.871v-280.35h-55.712v-215.65
	h276.753v24.902h-61.67v99.212H517.297V966.36h58.99v180.111h348.588V981.564h-96.529V797.884H924.875z M640.079,597.292v-46.098
	c0,0,27.704,0,51.51,0v46.098H640.079z"/>
</svg>
