<?xml version="1.0" encoding="utf-8"?>
<!-- Generator: Adobe Illustrator 16.0.0, SVG Export Plug-In . SVG Version: 6.00 Build 0)  -->
<!DOCTYPE svg PUBLIC "-//W3C//DTD SVG 1.1//EN" "http://www.w3.org/Graphics/SVG/1.1/DTD/svg11.dtd">
<svg version="1.1" id="Calque_1" xmlns="http://www.w3.org/2000/svg" xmlns:xlink="http://www.w3.org/1999/xlink" x="0px" y="0px"
	 width="1190.551px" height="1190.551px" viewBox="0 0 1190.551 1190.551" enable-background="new 0 0 1190.551 1190.551"
	 xml:space="preserve">
<g>
	<polygon fill="#010202" points="116.894,883.145 397.242,883.145 397.242,827.432 612.894,827.432 612.894,1104.188 
		708.139,1104.188 708.139,678.273 116.894,678.273 	"/>
	<path fill="#010202" d="M1073.656,509.797V346.229h-99.212v-83.125H840.369v166.25h-61.672v99.212h-112.62
		c0-24.907,0-67.794,0-67.794h46.097v-77.368v-2.167V303.87h-46.099c0,0,0-43.963,0-68.715c0-69.799-42.896-113.083-120.81-113.083
		h-65.853V86.364h-64.926h-1.624h-64.927v35.707h-65.854c-77.912,0-120.81,43.284-120.81,113.083c0,24.752,0,68.715,0,68.715
		h-44.379v77.367v2.167v77.366h44.381c0,0,0,43.961,0,68.714c0,69.796,42.896,113.08,120.808,113.08h65.854v35.709h64.927h1.624
		h64.926v-35.709h65.854c77.874,0,120.769-43.24,120.811-112.977v148.686h58.993v180.111h348.587V693.477h-96.532v-183.68H1073.656z
		"/>
</g>
</svg>
