<?xml version="1.0" encoding="utf-8"?>
<!-- Generator: Adobe Illustrator 16.0.0, SVG Export Plug-In . SVG Version: 6.00 Build 0)  -->
<!DOCTYPE svg PUBLIC "-//W3C//DTD SVG 1.1//EN" "http://www.w3.org/Graphics/SVG/1.1/DTD/svg11.dtd">
<svg version="1.1" id="Calque_1" xmlns="http://www.w3.org/2000/svg" xmlns:xlink="http://www.w3.org/1999/xlink" x="0px" y="0px"
	 width="1190.551px" height="1190.551px" viewBox="0 0 1190.551 1190.551" enable-background="new 0 0 1190.551 1190.551"
	 xml:space="preserve">
<path fill="#010202" d="M906.505,658.547v55.711H690.854V437.504h-95.247v-46.065v-1.624v-64.927H559.9v-65.854
	c0-77.912-43.284-120.81-113.083-120.81c-24.75,0-68.715,0-68.715,0V93.845h-77.365h-2.167h-77.367v44.381c0,0-43.961,0-68.713,0
	c-69.797,0-113.081,42.896-113.081,120.808v65.854H3.698v64.927v1.624v64.926h35.709v65.854c0,77.912,43.281,120.81,113.079,120.81
	c24.754,0,68.713,0,68.713,0v46.096h-37.392v58.992H3.698v348.588h164.907v-96.531h183.68v96.531h163.566v-99.213h83.124V863.418
	h587.877V658.549H906.505V658.547z M432.728,863.418v-61.672h-99.212V689.127h44.586v-46.1c0,0,43.965,0,68.715,0
	c69.798,0,113.083-42.896,113.083-120.808v-65.854h35.707v407.053H432.728z"/>
</svg>
