<?xml version="1.0" encoding="utf-8"?>
<!-- Generator: Adobe Illustrator 16.0.0, SVG Export Plug-In . SVG Version: 6.00 Build 0)  -->
<!DOCTYPE svg PUBLIC "-//W3C//DTD SVG 1.1//EN" "http://www.w3.org/Graphics/SVG/1.1/DTD/svg11.dtd">
<svg version="1.1" id="Calque_1" xmlns="http://www.w3.org/2000/svg" xmlns:xlink="http://www.w3.org/1999/xlink" x="0px" y="0px"
	 width="1190.551px" height="1190.551px" viewBox="0 0 1190.551 1190.551" enable-background="new 0 0 1190.551 1190.551"
	 xml:space="preserve">
<path fill="#010202" d="M364.237,567.149v-10.946h65.855c77.912,0,120.809-43.285,120.809-113.083c0-24.752,0-68.716,0-68.716
	h44.379v-77.366v-2.167v-77.367h-44.381c0,0,0-43.961,0-68.713c0-69.798-42.895-113.081-120.807-113.081h-65.855V0h-64.926h-1.624
	H232.76v35.709h-65.854c-77.911,0-120.809,43.281-120.809,113.079c0,24.754,0,68.713,0,68.713H-0.001v77.369v2.167v77.366h46.1
	c0,0,0,43.964,0,68.716c0,69.798,42.896,113.083,120.807,113.083h65.854v35.707H0v164.907h96.532v183.679H0v163.568h99.213v83.124
	h134.074v-166.249h61.672v-99.212H407.58V772.02h237.007v-55.712h215.649v276.755h95.247V567.149H364.237z M348.588,772.02v-180.11
	h15.648v180.11H348.588z"/>
</svg>
