<?xml version="1.0" encoding="utf-8"?>
<!-- Generator: Adobe Illustrator 16.0.0, SVG Export Plug-In . SVG Version: 6.00 Build 0)  -->
<!DOCTYPE svg PUBLIC "-//W3C//DTD SVG 1.1//EN" "http://www.w3.org/Graphics/SVG/1.1/DTD/svg11.dtd">
<svg version="1.1" id="Calque_1" xmlns="http://www.w3.org/2000/svg" xmlns:xlink="http://www.w3.org/1999/xlink" x="0px" y="0px"
	 width="1190.551px" height="1190.551px" viewBox="0 0 1190.551 1190.551" enable-background="new 0 0 1190.551 1190.551"
	 xml:space="preserve">
<g>
	<polygon fill="#010202" points="0,796.78 280.349,796.78 280.349,741.068 496,741.068 496,1017.823 591.246,1017.823 
		591.246,591.909 0,591.909 	"/>
	<path fill="#010202" d="M956.763,423.433V259.865h-99.212V176.74H723.476V342.99h-61.672v99.212h-112.62
		c0-24.907,0-67.794,0-67.794h46.097v-77.368v-2.167v-77.367h-46.099c0,0,0-43.963,0-68.715
		c0-69.799-42.896-113.083-120.809-113.083H362.52V0h-64.926h-1.624h-64.927v35.707h-65.854c-77.912,0-120.81,43.284-120.81,113.083
		c0,24.752,0,68.715,0,68.715H0v77.367v2.167v77.366h44.381c0,0,0,43.961,0,68.714c0,69.797,42.896,113.08,120.808,113.08h65.854
		v35.709h64.927h1.624h64.926v-35.709h65.854c77.874,0,120.768-43.24,120.81-112.977v148.686h58.993V772.02h348.587V607.112h-96.532
		V423.433H956.763z"/>
</g>
</svg>
