<?xml version="1.0" encoding="utf-8"?>
<!-- Generator: Adobe Illustrator 16.0.0, SVG Export Plug-In . SVG Version: 6.00 Build 0)  -->
<!DOCTYPE svg PUBLIC "-//W3C//DTD SVG 1.1//EN" "http://www.w3.org/Graphics/SVG/1.1/DTD/svg11.dtd">
<svg version="1.1" id="Calque_1" xmlns="http://www.w3.org/2000/svg" xmlns:xlink="http://www.w3.org/1999/xlink" x="0px" y="0px"
	 width="1190.551px" height="1190.551px" viewBox="0 0 1190.551 1190.551" enable-background="new 0 0 1190.551 1190.551"
	 xml:space="preserve">
<path fill="#010202" d="M719.354,48.079v280.349h55.712v215.651H498.311v12.123h-68.219c77.912,0,120.809-43.285,120.809-113.083
	c0-24.752,0-68.716,0-68.716h44.379v-77.366v-2.167v-77.367h-44.381c0,0,0-43.961,0-68.713c0-69.798-42.895-113.081-120.807-113.081
	h-65.855V0h-64.926h-1.624H232.76v35.709h-65.854c-77.911,0-120.809,43.281-120.809,113.079c0,24.754,0,68.713,0,68.713H-0.001
	v77.369v2.167v77.366h46.1c0,0,0,43.964,0,68.716c0,69.798,42.896,113.083,120.807,113.083h65.854v35.707h64.927h1.624h64.926
	V722.45h-61.672v99.212H189.944v149.707h58.992v180.111h348.588V986.573h-96.532V802.894h96.532V639.325h326.701V48.079H719.354z"/>
</svg>
