<?xml version="1.0" encoding="utf-8"?>
<!-- Generator: Adobe Illustrator 16.0.0, SVG Export Plug-In . SVG Version: 6.00 Build 0)  -->
<!DOCTYPE svg PUBLIC "-//W3C//DTD SVG 1.1//EN" "http://www.w3.org/Graphics/SVG/1.1/DTD/svg11.dtd">
<svg version="1.1" id="Calque_1" xmlns="http://www.w3.org/2000/svg" xmlns:xlink="http://www.w3.org/1999/xlink" x="0px" y="0px"
	 width="1190.551px" height="1190.551px" viewBox="0 0 1190.551 1190.551" enable-background="new 0 0 1190.551 1190.551"
	 xml:space="preserve">
<path fill="#010202" d="M455.053,554.576c62.06-8.458,95.848-49.515,95.848-111.457c0-24.752,0-68.716,0-68.716h44.379v-77.366
	v-2.167v-77.367h-44.381c0,0,0-43.961,0-68.713c0-69.798-42.895-113.081-120.807-113.081h-65.855V0h-64.926h-1.624H232.76v35.709
	h-65.854c-77.911,0-120.809,43.281-120.809,113.079c0,24.754,0,68.713,0,68.713H-0.001v77.369v2.167v77.366h46.1
	c0,0,0,43.964,0,68.716c0,69.798,42.896,113.083,120.807,113.083h65.854v35.707H0v164.907h96.532v183.679H0v163.568h99.213v83.124
	h134.074v-41.364H659.2V554.576H455.053z M510.041,1050.576H233.287v-29.638h61.672v-99.212H407.58V772.02h-58.992v-180.11h15.648
	v-35.707h65.855c8.5,0,16.582-0.516,24.237-1.524v280.249h55.712V1050.576z"/>
</svg>
