<?xml version="1.0" encoding="utf-8"?>
<!-- Generator: Adobe Illustrator 16.0.0, SVG Export Plug-In . SVG Version: 6.00 Build 0)  -->
<!DOCTYPE svg PUBLIC "-//W3C//DTD SVG 1.1//EN" "http://www.w3.org/Graphics/SVG/1.1/DTD/svg11.dtd">
<svg version="1.1" id="Calque_1" xmlns="http://www.w3.org/2000/svg" xmlns:xlink="http://www.w3.org/1999/xlink" x="0px" y="0px"
	 width="1190.551px" height="1190.551px" viewBox="0 0 1190.551 1190.551" enable-background="new 0 0 1190.551 1190.551"
	 xml:space="preserve">
<path fill="#010202" d="M1077.453,100.961H872.582V381.31h55.711v215.651H708.377V1.681H113.098V265.32h414.279v68H113.098v263.641
	H344.14v35.707h-65.854c-77.912,0-120.81,43.285-120.81,113.083c0,24.752,0,68.715,0,68.715h-44.379v77.367V894v77.366h44.382
	c0,0,0,43.962,0,68.714c0,69.797,42.896,113.081,120.808,113.081h65.854v35.709h64.927h1.624h64.926v-35.709h65.854
	c77.912,0,120.812-43.282,120.812-113.079c0-24.754,0-68.713,0-68.713h46.096V894v-2.167v-77.367h-46.1c0,0,0-43.963,0-68.715
	c0-20.208-3.604-38.188-10.604-53.544h425.777V100.961L1077.453,100.961z M541.47,632.668h-65.854v-35.707h175.92v94.941
	C634.295,654.404,596.676,632.668,541.47,632.668z"/>
</svg>
