<?xml version="1.0" encoding="utf-8"?>
<!-- Generator: Adobe Illustrator 16.0.0, SVG Export Plug-In . SVG Version: 6.00 Build 0)  -->
<!DOCTYPE svg PUBLIC "-//W3C//DTD SVG 1.1//EN" "http://www.w3.org/Graphics/SVG/1.1/DTD/svg11.dtd">
<svg version="1.1" id="Calque_1" xmlns="http://www.w3.org/2000/svg" xmlns:xlink="http://www.w3.org/1999/xlink" x="0px" y="0px"
	 width="1190.551px" height="1190.551px" viewBox="0 0 1190.551 1190.551" enable-background="new 0 0 1190.551 1190.551"
	 xml:space="preserve">
<path fill="#010202" d="M1105.873,96.928V1.682H679.959v217.505h-46.1c0,0,0-43.963,0-68.715
	c0-69.799-42.896-113.083-120.807-113.083h-65.854V1.682h-64.926h-1.624h-64.927v35.707h-65.854
	c-77.912,0-120.81,43.284-120.81,113.083c0,24.752,0,68.715,0,68.715H84.678v77.367v2.167v77.366h44.382c0,0,0,43.961,0,68.714
	c0,69.797,42.896,113.08,120.808,113.08h65.854v35.71H84.679v595.278h595.28V925.232h-414.28v-68h414.28V593.591h-232.76v-35.71
	h65.854c77.912,0,120.811-43.281,120.811-113.078c0-24.755,0-68.714,0-68.714h46.096v216.839h204.869V312.58h-55.711V96.928
	H1105.873z"/>
</svg>
