<?xml version="1.0" encoding="utf-8"?>
<!-- Generator: Adobe Illustrator 16.0.0, SVG Export Plug-In . SVG Version: 6.00 Build 0)  -->
<!DOCTYPE svg PUBLIC "-//W3C//DTD SVG 1.1//EN" "http://www.w3.org/Graphics/SVG/1.1/DTD/svg11.dtd">
<svg version="1.1" id="Calque_1" xmlns="http://www.w3.org/2000/svg" xmlns:xlink="http://www.w3.org/1999/xlink" x="0px" y="0px"
	 width="1190.551px" height="1190.551px" viewBox="0 0 1190.551 1190.551" enable-background="new 0 0 1190.551 1190.551"
	 xml:space="preserve">
<path fill="#010202" d="M964.355,99.28h-204.87v280.349h55.711V595.28H595.28V0H0V595.28h231.042v35.707h-65.854
	c-77.912,0-120.81,43.285-120.81,113.083c0,24.752,0,68.715,0,68.715H-0.001v77.367v2.167v77.367h44.382c0,0,0,43.961,0,68.713
	c0,69.797,42.896,113.081,120.808,113.081h65.854v35.709h64.927h1.624h64.926v-35.709h65.854
	c77.912,0,120.811-43.282,120.811-113.079c0-24.754,0-68.713,0-68.713h46.096v-77.369v-2.167v-77.367h-46.099c0,0,0-43.963,0-68.715
	c0-20.208-3.603-38.188-10.603-53.544h425.777V99.28z M297.593,595.28h-1.624h-32.33V181h68V595.28H297.593z M428.373,630.987
	h-65.854V595.28H538.44v94.942C521.198,652.724,483.579,630.987,428.373,630.987z"/>
</svg>
