<?xml version="1.0" encoding="utf-8"?>
<!-- Generator: Adobe Illustrator 16.0.0, SVG Export Plug-In . SVG Version: 6.00 Build 0)  -->
<!DOCTYPE svg PUBLIC "-//W3C//DTD SVG 1.1//EN" "http://www.w3.org/Graphics/SVG/1.1/DTD/svg11.dtd">
<svg version="1.1" id="Calque_1" xmlns="http://www.w3.org/2000/svg" xmlns:xlink="http://www.w3.org/1999/xlink" x="0px" y="0px"
	 width="1190.551px" height="1190.551px" viewBox="0 0 1190.551 1190.551" enable-background="new 0 0 1190.551 1190.551"
	 xml:space="preserve">
<path fill="#010202" d="M872.584,2.345v280.348h55.711v215.652H651.678c7-15.355,10.604-33.334,10.604-53.542
	c0-24.755,0-68.714,0-68.714h46.096v-77.368v-2.167v-77.367H662.28c0,0,0-43.963,0-68.715c0-69.799-42.896-113.083-120.808-113.083
	h-65.854V1.682h-64.926h-1.624H344.14v35.707h-65.854c-77.912,0-120.81,43.284-120.81,113.083c0,24.752,0,68.715,0,68.715h-44.379
	v77.367v2.167v77.366h44.382c0,0,0,43.961,0,68.714c0,69.797,42.896,113.08,120.808,113.08h65.854v35.71H113.098v595.278h595.279
	V925.232H294.098v-68h414.279V593.591h369.076V2.345H872.584z M475.618,593.591v-35.71h65.854
	c55.207,0,92.826-21.735,110.068-59.231v94.941H475.618z"/>
</svg>
