<?xml version="1.0" encoding="utf-8"?>
<!-- Generator: Adobe Illustrator 16.0.0, SVG Export Plug-In . SVG Version: 6.00 Build 0)  -->
<!DOCTYPE svg PUBLIC "-//W3C//DTD SVG 1.1//EN" "http://www.w3.org/Graphics/SVG/1.1/DTD/svg11.dtd">
<svg version="1.1" id="Calque_1" xmlns="http://www.w3.org/2000/svg" xmlns:xlink="http://www.w3.org/1999/xlink" x="0px" y="0px"
	 width="1190.551px" height="1190.551px" viewBox="0 0 1190.551 1190.551" enable-background="new 0 0 1190.551 1190.551"
	 xml:space="preserve">
<path fill="#010202" d="M933.975,819.424v-65.855c0-77.912-43.282-120.809-113.079-120.809c-24.754,0-68.713,0-68.713,0v-46.097
	h-77.369h-2.167H595.28V331.641H181v-68H595.28V0H0V595.28v591.246h204.869V906.178h-55.712V690.526h276.732
	c-8.093,17.364-12.408,38.459-12.408,63.044v65.855h-35.707v64.926v1.624v64.926h35.707v65.855
	c0,77.912,43.285,120.809,113.083,120.809c24.752,0,68.715,0,68.715,0v44.379h77.367h2.167h77.367v-44.382c0,0,43.961,0,68.713,0
	c69.797,0,113.081-42.895,113.081-120.807V950.9h35.709v-64.926v-1.624v-64.926H933.975z M595.28,632.763c0,0-43.963,0-68.715,0
	c-47.751,0-83.089,20.082-100.651,57.713V595.28H595.28V632.763z"/>
</svg>
