<?xml version="1.0" encoding="utf-8"?>
<!-- Generator: Adobe Illustrator 16.0.0, SVG Export Plug-In . SVG Version: 6.00 Build 0)  -->
<!DOCTYPE svg PUBLIC "-//W3C//DTD SVG 1.1//EN" "http://www.w3.org/Graphics/SVG/1.1/DTD/svg11.dtd">
<svg version="1.1" id="Calque_1" xmlns="http://www.w3.org/2000/svg" xmlns:xlink="http://www.w3.org/1999/xlink" x="0px" y="0px"
	 width="1190.551px" height="1190.551px" viewBox="0 0 1190.551 1190.551" enable-background="new 0 0 1190.551 1190.551"
	 xml:space="preserve">
<path fill="#010202" d="M1153.163,315.721v-65.854c0-77.912-43.285-120.81-113.083-120.81c-24.752,0-68.715,0-68.715,0V84.678
	h-77.367h-2.167h-77.367v44.383c0,0-43.961,0-68.713,0c-69.797,0-113.081,42.895-113.081,120.807v65.854h-35.709V84.679H333.323
	v414.28h-68V84.679H1.682v595.28v204.869H282.03v-55.711h215.652v276.756h95.244V679.959h4.034v-232.76h35.709v65.854
	c0,77.912,43.282,120.811,113.079,120.811c24.754,0,68.713,0,68.713,0v46.096h77.369h2.167h77.367v-46.1c0,0,43.963,0,68.715,0
	c69.798,0,113.083-42.896,113.083-120.808v-65.854h35.707v-64.926v-1.624v-64.927H1153.163z"/>
</svg>
