<?xml version="1.0" encoding="utf-8"?>
<!-- Generator: Adobe Illustrator 16.0.0, SVG Export Plug-In . SVG Version: 6.00 Build 0)  -->
<!DOCTYPE svg PUBLIC "-//W3C//DTD SVG 1.1//EN" "http://www.w3.org/Graphics/SVG/1.1/DTD/svg11.dtd">
<svg version="1.1" id="Calque_1" xmlns="http://www.w3.org/2000/svg" xmlns:xlink="http://www.w3.org/1999/xlink" x="0px" y="0px"
	 width="1190.551px" height="1190.551px" viewBox="0 0 1190.551 1190.551" enable-background="new 0 0 1190.551 1190.551"
	 xml:space="preserve">
<path fill="#010202" d="M761.204,0.663v280.348h55.711v215.652H540.298c7-15.356,10.604-33.336,10.604-53.545
	c0-24.752,0-68.715,0-68.715h44.379v-77.367v-2.167v-77.366h-44.382c0,0,0-43.961,0-68.713c0-69.798-42.895-113.081-120.807-113.081
	h-65.855V0h-64.926h-1.624h-64.926v35.709h-65.855c-77.911,0-120.809,43.281-120.809,113.079c0,24.754,0,68.713,0,68.713H0v77.369
	v2.167v77.366h46.1c0,0,0,43.963,0,68.716c0,69.798,42.896,113.083,120.807,113.083h65.855v35.706h64.926h1.624h64.926v-35.707
	h65.855c55.206,0,92.824-21.736,110.066-59.233v94.941H0v595.279h263.639v-414.28h68v414.28H595.28V591.909h370.795V0.663H761.204z"
	/>
</svg>
