<?xml version="1.0" encoding="utf-8"?>
<!-- Generator: Adobe Illustrator 16.0.0, SVG Export Plug-In . SVG Version: 6.00 Build 0)  -->
<!DOCTYPE svg PUBLIC "-//W3C//DTD SVG 1.1//EN" "http://www.w3.org/Graphics/SVG/1.1/DTD/svg11.dtd">
<svg version="1.1" id="Calque_1" xmlns="http://www.w3.org/2000/svg" xmlns:xlink="http://www.w3.org/1999/xlink" x="0px" y="0px"
	 width="1190.551px" height="1190.551px" viewBox="0 0 1190.551 1190.551" enable-background="new 0 0 1190.551 1190.551"
	 xml:space="preserve">
<path fill="#010202" d="M1151.482,231.042v-65.854c0-77.912-43.285-120.81-113.083-120.81c-24.752,0-68.715,0-68.715,0V-0.001
	h-77.367h-2.167h-77.367v44.383c0,0-43.961,0-68.713,0c-69.797,0-113.081,42.895-113.081,120.807v65.854H595.28V0H331.641V414.28
	h-68V0H0V595.28v204.869h280.348v-55.711H496v276.756h95.245V595.28h4.034V362.52h35.709v65.854
	c0,77.912,43.282,120.81,113.079,120.81c24.754,0,68.713,0,68.713,0v46.096h77.369h2.167h77.367v-46.099c0,0,43.963,0,68.715,0
	c69.798,0,113.083-42.896,113.083-120.808v-65.854h35.707v-64.926v-1.624v-64.927H1151.482z"/>
</svg>
