<?xml version="1.0" encoding="utf-8"?>
<!-- Generator: Adobe Illustrator 16.0.0, SVG Export Plug-In . SVG Version: 6.00 Build 0)  -->
<!DOCTYPE svg PUBLIC "-//W3C//DTD SVG 1.1//EN" "http://www.w3.org/Graphics/SVG/1.1/DTD/svg11.dtd">
<svg version="1.1" id="Calque_1" xmlns="http://www.w3.org/2000/svg" xmlns:xlink="http://www.w3.org/1999/xlink" x="0px" y="0px"
	 width="1190.551px" height="1190.551px" viewBox="0 0 1190.551 1190.551" enable-background="new 0 0 1190.551 1190.551"
	 xml:space="preserve">
<path fill="#010202" d="M873.442,2.345v280.348h55.711v215.652H652.536c7-15.356,10.604-33.336,10.604-53.545
	c0-24.752,0-68.715,0-68.715h44.379v-77.367v-2.167v-77.366h-44.382c0,0,0-43.961,0-68.713c0-69.798-42.895-113.081-120.807-113.081
	h-65.855V1.682h-64.926h-1.624h-64.926v35.709h-65.855c-77.91,0-120.809,43.281-120.809,113.079c0,24.754,0,68.713,0,68.713h-46.097
	v77.369v2.167v77.366h46.1c0,0,0,43.963,0,68.716c0,69.798,42.896,113.083,120.808,113.083H345v35.706h64.926h1.624h64.926v-35.707
	h65.855c55.206,0,92.823-21.736,110.065-59.233v94.941H112.239v595.278h263.639V774.59h68v414.279h263.641V593.591h370.795V2.345
	H873.442z"/>
</svg>
