<?xml version="1.0" encoding="utf-8"?>
<!-- Generator: Adobe Illustrator 16.0.0, SVG Export Plug-In . SVG Version: 6.00 Build 0)  -->
<!DOCTYPE svg PUBLIC "-//W3C//DTD SVG 1.1//EN" "http://www.w3.org/Graphics/SVG/1.1/DTD/svg11.dtd">
<svg version="1.1" id="Calque_1" xmlns="http://www.w3.org/2000/svg" xmlns:xlink="http://www.w3.org/1999/xlink" x="0px" y="0px"
	 width="1190.551px" height="1190.551px" viewBox="0 0 1190.551 1190.551" enable-background="new 0 0 1190.551 1190.551"
	 xml:space="preserve">
<path fill="#010202" d="M1105.873,96.927V1.681H679.959H84.679v595.28h231.042v35.707h-65.854
	c-77.912,0-120.81,43.285-120.81,113.083c0,24.752,0,68.715,0,68.715H84.678v77.367V894v77.366h44.382c0,0,0,43.962,0,68.714
	c0,69.797,42.896,113.081,120.808,113.081h65.854v35.709h64.927h1.624h64.926v-35.709h65.854
	c77.912,0,120.811-43.282,120.811-113.079c0-24.754,0-68.713,0-68.713h46.096V894v-2.167v-77.367h-46.098c0,0,0-43.963,0-68.715
	c0-69.798-42.897-113.083-120.809-113.083h-65.854v-35.707h232.76v-4.033h204.869V312.579h-55.711V96.927H1105.873z
	 M382.272,596.961h-1.624h-32.33v-414.28h68v414.28H382.272z"/>
</svg>
