<?xml version="1.0" encoding="utf-8"?>
<!-- Generator: Adobe Illustrator 16.0.0, SVG Export Plug-In . SVG Version: 6.00 Build 0)  -->
<!DOCTYPE svg PUBLIC "-//W3C//DTD SVG 1.1//EN" "http://www.w3.org/Graphics/SVG/1.1/DTD/svg11.dtd">
<svg version="1.1" id="Calque_1" xmlns="http://www.w3.org/2000/svg" xmlns:xlink="http://www.w3.org/1999/xlink" x="0px" y="0px"
	 width="1190.551px" height="1190.551px" viewBox="0 0 1190.551 1190.551" enable-background="new 0 0 1190.551 1190.551"
	 xml:space="preserve">
<path fill="#010202" d="M1044.408,821.436v-65.854c0-77.912-43.281-120.811-113.078-120.811c-24.754,0-68.713,0-68.713,0v-46.096
	h-77.369h-2.168h-77.367V333.653H291.434v-68h414.279V2.012H110.434v595.281v591.246h204.869v-280.35h-55.712v-215.65h276.731
	c-8.093,17.363-12.408,38.459-12.408,63.043v65.855h-35.707v64.926v1.623v64.928h35.707v65.854
	c0,77.912,43.285,120.811,113.083,120.811c24.752,0,68.715,0,68.715,0v44.379h77.367h2.166h77.367v-44.383c0,0,43.961,0,68.713,0
	c69.797,0,113.082-42.895,113.082-120.807v-65.855h35.709v-64.926v-1.625v-64.926H1044.408L1044.408,821.436z M705.713,634.775
	c0,0-43.963,0-68.715,0c-47.75,0-83.088,20.082-100.65,57.713v-95.195h169.365V634.775z"/>
</svg>
