<?xml version="1.0" encoding="utf-8"?>
<!-- Generator: Adobe Illustrator 16.0.0, SVG Export Plug-In . SVG Version: 6.00 Build 0)  -->
<!DOCTYPE svg PUBLIC "-//W3C//DTD SVG 1.1//EN" "http://www.w3.org/Graphics/SVG/1.1/DTD/svg11.dtd">
<svg version="1.1" id="Calque_1" xmlns="http://www.w3.org/2000/svg" xmlns:xlink="http://www.w3.org/1999/xlink" x="0px" y="0px"
	 width="1190.551px" height="1190.551px" viewBox="0 0 1190.551 1190.551" enable-background="new 0 0 1190.551 1190.551"
	 xml:space="preserve">
<g>
	<path fill="#010202" d="M598.368,292.635c31.687-62.189,13.116-120.229-56.304-155.602l-58.677-29.897L499.6,75.321l-57.849-29.477
		l-1.447-0.737l-57.85-29.476l-16.211,31.815l-58.677-29.897c-69.42-35.37-127.292-16.279-158.979,45.91
		c-11.238,22.056-31.196,61.226-31.196,61.226l-39.543-20.147l-35.124,68.935l-0.983,1.931L6.616,244.338l39.545,20.149
		c0,0-19.958,39.17-31.195,61.224C-16.721,387.901,1.849,445.941,71.27,481.312l58.676,29.897l-16.212,31.817l57.85,29.477
		l1.447,0.737l57.85,29.476l16.211-31.816l58.676,29.897c69.421,35.371,127.291,16.281,158.979-45.908
		c11.237-22.056,31.194-61.225,31.194-61.225l41.074,20.927l35.124-68.937l0.983-1.93l35.125-68.935l-41.075-20.93
		C567.172,353.861,587.131,314.691,598.368,292.635z"/>
	<path fill="#010202" d="M29.074,944.255c20.536,28.265,53.677,12.328,74.856-3.061c8.538-6.203,48.419-35.179,61.222-44.48
		c2.5-1.815,3.968-2.881,3.968-2.881c36.034-26.181,305.654-222.071,315.175-228.988c21.183-15.389,46.579-41.982,26.043-70.248
		c-22.349-30.761-55.124-14.322-82.523,5.621c-13.712,9.982-273.604,198.786-308.938,224.456c0,0-0.18,0.132-0.52,0.378
		c-2.247,1.633-3.449,2.506-3.449,2.506h0.002c-11.184,8.131-42.938,31.213-54.987,39.949
		C32.489,887.405,6.727,913.495,29.074,944.255z"/>
	<polygon fill="#010202" points="445,937.513 109,937.513 109,980.871 0,980.871 0,1065.513 177,1065.513 177,1013.513 
		363,1013.513 363,1065.513 509,1065.513 509,1013.513 595.278,1013.513 595.278,980.871 445,980.871 	"/>
</g>
</svg>
