<?xml version="1.0" encoding="utf-8"?>
<!-- Generator: Adobe Illustrator 16.0.0, SVG Export Plug-In . SVG Version: 6.00 Build 0)  -->
<!DOCTYPE svg PUBLIC "-//W3C//DTD SVG 1.1//EN" "http://www.w3.org/Graphics/SVG/1.1/DTD/svg11.dtd">
<svg version="1.1" id="Calque_1" xmlns="http://www.w3.org/2000/svg" xmlns:xlink="http://www.w3.org/1999/xlink" x="0px" y="0px"
	 width="1190.551px" height="1190.551px" viewBox="0 0 1190.551 1190.551" enable-background="new 0 0 1190.551 1190.551"
	 xml:space="preserve">
<path fill="#010202" d="M866.261,523.891c-10.008,0-17.778,2.524-23.819,6.836l12.265-8.91
	C917.738,476.021,927,415.79,885.975,359.323c-14.549-20.025-40.39-55.592-40.39-55.592l35.903-26.085l-45.477-62.592l-1.272-1.753
	l-45.477-62.592l-35.904,26.089c0,0-25.839-35.564-40.389-55.59c-41.024-56.467-101.171-66.27-164.202-20.474l-53.276,38.708
	l-20.99-28.89l-52.525,38.162l-1.313,0.955l-52.526,38.163l20.989,28.889l-53.276,38.708
	c-63.035,45.794-72.3,106.026-31.272,162.492c14.55,20.025,40.389,55.59,40.389,55.59l-37.294,27.096l45.477,62.593l1.105,1.524
	l-5.957-8.199l-68.475,49.75L383.86,749.471l42.068-30.565l109.327,150.479l-42.067,30.564l85.815,118.116l42.068-30.564
	l50.713,69.801l26.406-19.186L609.86,916.538l35.079-25.486l-197.496-271.83l-35.078,25.485l-36.325-49.996l23.855,32.834
	l37.295-27.098c0,0,25.841,35.566,40.39,55.592c41.026,56.468,101.172,66.271,164.203,20.477l53.277-38.709l20.988,28.889
	l52.525-38.162l1.313-0.955l52.451-38.106c-0.024,1.497-0.04,2.994-0.038,4.485c0.017,16.959,0.002,338.194,0,381.87
	c0,0,0,0.223,0,0.643c0,2.778,0,4.264,0,4.264h0.001c0.004,13.826,0.013,53.084-0.001,67.967
	c-0.028,33.89,5.938,70.066,43.958,70.066c34.938,0,41.522-36.18,41.522-62.358c0-10.553,0-59.849,0-75.674c0-3.09,0-4.903,0-4.903
	c0-44.541,0-377.812,0-389.578C907.783,560.069,901.197,523.891,866.261,523.891z M822.344,589.315l-20.917-28.79l39.741-28.874
	C826.355,543.312,822.727,566.435,822.344,589.315z"/>
</svg>
