<?xml version="1.0" encoding="utf-8"?>
<!-- Generator: Adobe Illustrator 16.0.0, SVG Export Plug-In . SVG Version: 6.00 Build 0)  -->
<!DOCTYPE svg PUBLIC "-//W3C//DTD SVG 1.1//EN" "http://www.w3.org/Graphics/SVG/1.1/DTD/svg11.dtd">
<svg version="1.1" id="Calque_1" xmlns="http://www.w3.org/2000/svg" xmlns:xlink="http://www.w3.org/1999/xlink" x="0px" y="0px"
	 width="1190.551px" height="1190.551px" viewBox="0 0 1190.551 1190.551" enable-background="new 0 0 1190.551 1190.551"
	 xml:space="preserve">
<path fill="#010202" d="M857.69,280.583c0,0,6.877-43.419,10.75-67.867c10.918-68.938-24.678-118.399-101.631-130.587
	l-65.045-10.303l5.588-35.27l-64.127-10.157l-1.604-0.254l-64.126-10.157l-5.587,35.27l-65.043-10.302
	c-76.952-12.189-126.093,23.85-137.012,92.789c-3.873,24.447-10.749,67.866-10.749,67.866l-45.531-7.211l-12.104,76.417
	l-0.339,2.139l-12.103,76.416l45.53,7.211c0,0-6.877,43.42-10.748,67.868c-10.919,68.939,24.678,118.4,101.631,130.588
	l65.044,10.303l-5.586,35.268l64.127,10.157l1.604,0.255l64.126,10.156l5.586-35.269l65.045,10.303
	c52.871,8.375,92.613-6.02,115.85-38.208L697.242,701.141l42.068,30.564L629.983,882.184l-42.069-30.564l-85.816,118.115
	l42.069,30.562l-50.713,69.803l26.134,18.986c-42.229-0.002-75.543-0.002-87.622-0.004c0,0-0.224,0-0.644,0
	c-2.777,0-4.262,0-4.262,0v0.002c-13.826,0.004-53.084,0.012-67.969-0.002c-33.889-0.027-70.065,5.939-70.065,43.959
	c0,34.938,36.18,41.521,62.357,41.521c10.555,0,59.851,0,75.676,0c3.09,0,4.902,0,4.902,0c44.541,0,377.81,0,389.578,0
	c26.182,0,62.357-6.586,62.357-41.521c0.004-38.021-36.176-43.988-70.062-43.959c-12.254,0.012-183.352,0.008-293.833,0.004
	l88.188-121.381l35.08,25.486l197.494-271.828l-35.078-25.486l64.068-88.184l-68.475-49.75
	c10.559-14.65,17.703-32.981,21.115-54.524c3.871-24.448,10.75-67.869,10.75-67.869l43.834,6.943l12.104-76.416l0.34-2.14
	l12.104-76.416L857.69,280.583z"/>
</svg>
