<?xml version="1.0" encoding="utf-8"?>
<!-- Generator: Adobe Illustrator 16.0.0, SVG Export Plug-In . SVG Version: 6.00 Build 0)  -->
<!DOCTYPE svg PUBLIC "-//W3C//DTD SVG 1.1//EN" "http://www.w3.org/Graphics/SVG/1.1/DTD/svg11.dtd">
<svg version="1.1" id="Calque_1" xmlns="http://www.w3.org/2000/svg" xmlns:xlink="http://www.w3.org/1999/xlink" x="0px" y="0px"
	 width="1190.551px" height="1190.551px" viewBox="0 0 1190.551 1190.551" enable-background="new 0 0 1190.551 1190.551"
	 xml:space="preserve">
<g>
	<polygon fill="#010202" points="365.119,842.317 167.622,570.486 132.544,595.972 68.475,507.789 0,557.539 104.038,700.736 
		146.107,670.17 255.435,820.648 213.366,851.212 299.183,969.329 341.251,938.764 391.964,1008.565 418.37,989.379 330.04,867.803 
			"/>
	<path fill="#010202" d="M573.262,492.27c-17.704-0.001-28.453,7.848-34.887,19.652l33.764-66.268l0.983-1.93l35.125-68.935
		l-41.075-20.93c0,0,19.959-39.17,31.196-61.226c31.687-62.189,13.116-120.229-56.304-155.602l-58.677-29.897L499.6,75.321
		l-57.849-29.477l-1.447-0.737l-57.85-29.476l-16.211,31.815l-58.677-29.897c-69.42-35.37-127.292-16.279-158.979,45.91
		c-11.238,22.056-31.196,61.226-31.196,61.226l-39.543-20.147l-35.124,68.935l-0.983,1.931L6.616,244.338l39.545,20.149
		c0,0-19.958,39.17-31.195,61.224C-16.721,387.901,1.849,445.941,71.27,481.312l58.676,29.897l-16.212,31.817l57.85,29.477
		l1.447,0.737l57.85,29.476l16.211-31.816l58.676,29.897c69.421,35.371,127.291,16.281,158.979-45.908
		c11.237-22.056,31.194-61.225,31.194-61.225l41.074,20.927l0.07-0.139c-6.297,13.298-7.795,30.877-7.781,47.882
		c0.019,16.96,0.002,338.193,0,381.868c0,0,0,0.225,0,0.645c0,2.778,0,4.262,0,4.262h0.001c0.004,13.826,0.015,53.084-0.001,67.967
		c-0.026,33.891,5.938,70.067,43.958,70.067c34.938,0,41.524-36.179,41.524-62.359c0-10.553,0-59.849,0-75.674
		c0-3.09,0-4.902,0-4.902c0-44.541,0-377.812,0-389.578C614.786,528.448,608.2,492.27,573.262,492.27z"/>
</g>
</svg>
