<?xml version="1.0" encoding="utf-8"?>
<!-- Generator: Adobe Illustrator 16.0.0, SVG Export Plug-In . SVG Version: 6.00 Build 0)  -->
<!DOCTYPE svg PUBLIC "-//W3C//DTD SVG 1.1//EN" "http://www.w3.org/Graphics/SVG/1.1/DTD/svg11.dtd">
<svg version="1.1" id="Calque_1" xmlns="http://www.w3.org/2000/svg" xmlns:xlink="http://www.w3.org/1999/xlink" x="0px" y="0px"
	 width="1190.551px" height="1190.551px" viewBox="0 0 1190.551 1190.551" enable-background="new 0 0 1190.551 1190.551"
	 xml:space="preserve">
<path fill="#010202" d="M906.586,448.609v-109h-84.643v82.171c-0.572-55.789-36.241-94.97-103.554-105.631l-65.045-10.303
	l5.587-35.27l-64.126-10.157l-1.604-0.254l-64.126-10.157l-5.587,35.27l-65.043-10.302c-76.952-12.189-126.093,23.85-137.012,92.789
	c-3.873,24.447-10.749,67.866-10.749,67.866l-45.531-7.211l-12.104,76.417l-0.339,2.139l-12.103,76.416l45.53,7.211
	c0,0-6.877,43.421-10.748,67.868c-10.919,68.939,24.678,118.4,101.631,130.588l65.044,10.303l-5.586,35.269l64.127,10.157
	l1.604,0.255l63.304,10.025c-81.664-0.002-161.7-0.006-181.968-0.007c0,0-0.224,0-0.644,0c-2.777,0-4.262,0-4.262,0v0.001
	c-13.826,0.004-53.084,0.014-67.969-0.001c-33.889-0.028-70.065,5.938-70.065,43.958c0,34.938,36.18,41.524,62.357,41.524
	c10.555,0,59.851,0,75.675,0c3.091,0,4.903,0,4.903,0c44.541,0,377.81,0,389.577,0c26.182,0,62.357-6.586,62.357-41.524
	c0.005-38.02-36.175-43.986-70.062-43.958c-9.062,0.009-105.008,0.009-199.059,0.007l5.564-35.139l65.045,10.304
	c76.951,12.188,126.092-23.854,137.009-92.791c3.872-24.447,10.751-67.869,10.751-67.869l43.833,6.943l12.104-76.416l0.339-2.14
	l12.103-76.416l-43.834-6.941c0,0,6.877-43.419,10.749-67.867c1.319-8.328,1.953-16.368,1.924-24.096v93.969h52v186h-52v145.999h52
	v86.278h32.642V784.609h43.358v-336H906.586z"/>
</svg>
