<?xml version="1.0" encoding="utf-8"?>
<!-- Generator: Adobe Illustrator 16.0.0, SVG Export Plug-In . SVG Version: 6.00 Build 0)  -->
<!DOCTYPE svg PUBLIC "-//W3C//DTD SVG 1.1//EN" "http://www.w3.org/Graphics/SVG/1.1/DTD/svg11.dtd">
<svg version="1.1" id="Calque_1" xmlns="http://www.w3.org/2000/svg" xmlns:xlink="http://www.w3.org/1999/xlink" x="0px" y="0px"
	 width="1190.551px" height="1190.551px" viewBox="0 0 1190.551 1190.551" enable-background="new 0 0 1190.551 1190.551"
	 xml:space="preserve">
<g>
	<path fill="#010202" d="M47.448,366.244L15.63,382.456l29.476,57.85l0.737,1.446l29.477,57.85l31.817-16.212l29.896,58.676
		c35.372,69.421,93.411,87.992,155.602,56.305c22.054-11.237,61.224-31.195,61.224-31.195l20.928,41.073l68.937-35.124l1.931-0.984
		l68.935-35.124l-20.928-41.074c0,0,39.17-19.958,61.226-31.195c62.19-31.688,81.282-89.559,45.911-158.979l-29.898-58.678
		l31.815-16.21l-29.476-57.85l-0.736-1.446l-29.477-57.85l-31.815,16.211l-29.897-58.677c-35.371-69.42-93.412-87.99-155.602-56.304
		c-22.056,11.237-61.226,31.196-61.226,31.196L244.337,6.618l-68.936,35.125l-1.93,0.982l-68.936,35.125l20.147,39.543
		c0,0-39.168,19.958-61.224,31.195c-62.189,31.687-81.281,89.558-45.909,158.978L47.448,366.244z"/>
	<path fill="#010202" d="M524.808,1015.451c-10.83,0.012-145.731,0.01-253.206,0.006l103.915-143.026l-42.068-30.566
		l109.329-150.477l42.068,30.565l85.817-118.116l-42.07-30.565l50.713-69.801L552.9,484.285l-88.331,121.579l-35.079-25.487
		L231.994,852.206l35.079,25.486l-64.069,88.183l68.242,49.582c-60.679-0.003-112.552-0.005-128.307-0.006c0,0-0.224,0-0.644,0
		c-2.777,0-4.262,0-4.262,0v0.001c-13.826,0.004-53.084,0.015-67.968-0.001c-33.889-0.026-70.066,5.938-70.066,43.958
		c0,34.938,36.18,41.524,62.358,41.524c10.554,0,59.85,0,75.675,0c3.09,0,4.903,0,4.903,0c44.541,0,377.81,0,389.577,0
		c26.182,0,62.358-6.586,62.358-41.524C594.875,1021.39,558.697,1015.424,524.808,1015.451z"/>
</g>
</svg>
