<?xml version="1.0" encoding="utf-8"?>
<!-- Generator: Adobe Illustrator 16.0.0, SVG Export Plug-In . SVG Version: 6.00 Build 0)  -->
<!DOCTYPE svg PUBLIC "-//W3C//DTD SVG 1.1//EN" "http://www.w3.org/Graphics/SVG/1.1/DTD/svg11.dtd">
<svg version="1.1" id="Calque_1" xmlns="http://www.w3.org/2000/svg" xmlns:xlink="http://www.w3.org/1999/xlink" x="0px" y="0px"
	 width="1190.551px" height="1190.551px" viewBox="0 0 1190.551 1190.551" enable-background="new 0 0 1190.551 1190.551"
	 xml:space="preserve">
<g>
	<path fill="#010202" d="M418.278,643.908h-186v-51.999h63.693h1.624h64.926V556.2h65.854c77.911,0,120.81-43.282,120.81-113.08
		c0-24.753,0-68.713,0-68.713h46.098v-77.369v-2.166v-77.368h-46.099c0,0,0-43.962,0-68.715
		c0-69.797-42.896-113.081-120.808-113.081h-65.855V0h-64.926h-1.624h-64.927v35.708H165.19
		c-77.911,0-120.809,43.284-120.809,113.081c0,24.753,0,68.715,0,68.715H0.001v77.368v2.166v77.367h44.38c0,0,0,43.961,0,68.714
		c0,69.797,42.896,113.08,120.809,113.08h65.854v35.71H86.278v51.999H0v32.642h150.277v43.358h336V676.55h109v-84.641h-177V643.908z
		"/>
	<path fill="#010202" d="M639.239,0.001c-38.02-0.002-43.985,36.177-43.958,70.064c0.019,16.96,0.002,338.194,0,381.869
		c0,0,0,0.223,0,0.644c0,2.777,0,4.262,0,4.262h0.001c0.004,13.826,0.015,53.084-0.001,67.968
		c-0.026,33.889,5.938,70.066,43.958,70.066c34.938,0,41.524-36.18,41.524-62.358c0-10.554,0-59.85,0-75.675c0-3.09,0-4.903,0-4.903
		c0-44.541,0-377.811,0-389.577C680.763,36.179,674.177,0.001,639.239,0.001z"/>
</g>
</svg>
