<?xml version="1.0" encoding="utf-8"?>
<!-- Generator: Adobe Illustrator 16.0.0, SVG Export Plug-In . SVG Version: 6.00 Build 0)  -->
<!DOCTYPE svg PUBLIC "-//W3C//DTD SVG 1.1//EN" "http://www.w3.org/Graphics/SVG/1.1/DTD/svg11.dtd">
<svg version="1.1" id="Calque_1" xmlns="http://www.w3.org/2000/svg" xmlns:xlink="http://www.w3.org/1999/xlink" x="0px" y="0px"
	 width="1190.551px" height="1190.551px" viewBox="0 0 1190.551 1190.551" enable-background="new 0 0 1190.551 1190.551"
	 xml:space="preserve">
<g>
	<path fill="#010202" d="M856.01,403.665c0,0,6.877-43.421,10.75-67.869c10.918-68.938-24.68-118.399-101.631-130.588
		l-65.045-10.303l5.586-35.268l-64.125-10.157l-1.604-0.254l-64.126-10.157l-5.586,35.269l-65.045-10.303
		c-76.951-12.188-126.092,23.853-137.01,92.791c-3.873,24.448-10.75,67.868-10.75,67.868l-43.833-6.942l-12.104,76.416l-0.339,2.139
		l-12.103,76.416l43.834,6.942c0,0-6.876,43.418-10.749,67.866c-10.919,68.938,24.678,118.397,101.631,130.587l65.045,10.302
		l-5.587,35.271l64.127,10.156l1.604,0.256l64.127,10.156l5.587-35.27l65.044,10.302c76.951,12.188,126.092-23.851,137.012-92.789
		c3.872-24.448,10.749-67.867,10.749-67.867l45.529,7.212l12.104-76.417l0.339-2.139l12.102-76.415L856.01,403.665z"/>
	<path fill="#010202" d="M855.188,933.545l26.156-80.496l-168.337-54.695l-16.07,49.454L520.041,790.33l16.068-49.455
		l-138.854-45.116l-16.069,49.454l-82.055-26.66l-10.087,31.043l142.923,46.438l-13.398,41.238l189.857,61.688
		c-105.467-34.268-237.669-77.223-244.826-79.549c-24.899-8.091-61.343-13.007-72.139,20.222
		c-11.751,36.16,20.812,53.015,53.053,63.458c16.136,5.226,321.642,104.507,363.178,118.004c0,0,0.213,0.069,0.611,0.2
		c2.644,0.858,4.054,1.315,4.054,1.315v-0.001c13.152,4.27,50.49,16.392,64.641,21.004c32.223,10.499,68.474,16.005,80.223-20.154
		c10.795-33.229-21.578-50.672-46.477-58.762c-10.036-3.261-56.92-18.494-71.971-23.385c-0.229-0.074-0.438-0.143-0.65-0.211
		l13.4-41.238L855.188,933.545z M613.219,900.517c-0.448-0.146-0.898-0.292-1.347-0.438L613.219,900.517z"/>
</g>
</svg>
