<?xml version="1.0" encoding="utf-8"?>
<!-- Generator: Adobe Illustrator 16.0.0, SVG Export Plug-In . SVG Version: 6.00 Build 0)  -->
<!DOCTYPE svg PUBLIC "-//W3C//DTD SVG 1.1//EN" "http://www.w3.org/Graphics/SVG/1.1/DTD/svg11.dtd">
<svg version="1.1" id="Calque_1" xmlns="http://www.w3.org/2000/svg" xmlns:xlink="http://www.w3.org/1999/xlink" x="0px" y="0px"
	 width="1190.551px" height="1190.551px" viewBox="0 0 1190.551 1190.551" enable-background="new 0 0 1190.551 1190.551"
	 xml:space="preserve">
<path fill="#010202" d="M568.663,264.594c0,0,6.877-43.419,10.749-67.867C590.33,127.789,554.734,78.328,477.781,66.14
	l-65.045-10.303l5.587-35.27L354.197,10.41l-1.604-0.254L288.467-0.001l-5.587,35.27l-65.043-10.302
	c-76.952-12.189-126.093,23.85-137.012,92.789c-3.873,24.447-10.749,67.866-10.749,67.866l-45.531-7.211l-12.103,76.417
	l-0.339,2.139L0,333.383l45.531,7.211c0,0-6.877,43.42-10.749,67.868C23.864,477.401,59.46,526.862,136.413,539.05l65.044,10.303
	l-5.586,35.268l64.127,10.157l1.604,0.255l64.126,10.156l5.586-35.269l65.045,10.303c52.872,8.375,92.614-6.02,115.85-38.208
	L408.215,685.152l42.068,30.564L340.955,866.194l-42.069-30.563L213.07,953.746l42.069,30.563l-50.713,69.801l26.134,18.988
	c-42.23-0.002-75.543-0.003-87.622-0.004c0,0-0.224,0-0.644,0c-2.777,0-4.262,0-4.262,0v0.001
	c-13.826,0.004-53.084,0.013-67.968-0.001c-33.889-0.028-70.066,5.938-70.066,43.958c0,34.938,36.18,41.522,62.358,41.522
	c10.554,0,59.85,0,75.675,0c3.09,0,4.903,0,4.903,0c44.541,0,377.81,0,389.577,0c26.182,0,62.358-6.586,62.358-41.522
	c0.004-38.022-36.175-43.988-70.063-43.958c-12.254,0.012-183.351,0.008-293.832,0.004l88.188-121.381l35.079,25.486
	l197.496-271.829l-35.078-25.486l64.067-88.183l-68.475-49.75c10.56-14.65,17.704-32.981,21.116-54.524
	c3.872-24.448,10.751-67.869,10.751-67.869l43.833,6.943l12.104-76.416l0.339-2.14l12.103-76.416L568.663,264.594z"/>
</svg>
