<?xml version="1.0" encoding="utf-8"?>
<!-- Generator: Adobe Illustrator 16.0.0, SVG Export Plug-In . SVG Version: 6.00 Build 0)  -->
<!DOCTYPE svg PUBLIC "-//W3C//DTD SVG 1.1//EN" "http://www.w3.org/Graphics/SVG/1.1/DTD/svg11.dtd">
<svg version="1.1" id="Calque_1" xmlns="http://www.w3.org/2000/svg" xmlns:xlink="http://www.w3.org/1999/xlink" x="0px" y="0px"
	 width="1190.551px" height="1190.551px" viewBox="0 0 1190.551 1190.551" enable-background="new 0 0 1190.551 1190.551"
	 xml:space="preserve">
<path fill="#010202" d="M586.44,452.086c-10.008,0-17.778,2.524-23.819,6.836l12.264-8.91
	c63.032-45.795,72.294-106.027,31.269-162.494c-14.549-20.025-40.39-55.592-40.39-55.592l35.904-26.085l-45.477-62.592l-1.272-1.753
	l-45.477-62.592l-35.904,26.089c0,0-25.839-35.564-40.389-55.59C392.124-7.064,331.978-16.867,268.947,28.929l-53.277,38.708
	l-20.99-28.89l-52.525,38.162l-1.314,0.955l-52.526,38.163l20.989,28.889l-53.276,38.708
	C-7.008,229.418-16.272,289.65,24.755,346.116c14.55,20.025,40.389,55.59,40.389,55.59L27.85,428.802l45.476,62.593l1.106,1.524
	l-5.957-8.199L0,534.47l104.038,143.196l42.069-30.565l109.327,150.478l-42.068,30.565l85.816,118.116l42.068-30.565l50.713,69.801
	l26.406-19.186l-88.331-121.577l35.079-25.486l-197.496-271.83l-35.078,25.486l-36.325-49.997l23.855,32.834l37.295-27.097
	c0,0,25.841,35.566,40.39,55.592c41.026,56.467,101.172,66.271,164.203,20.476l53.278-38.709l20.988,28.889l52.525-38.162
	l1.314-0.955l52.451-38.107c-0.024,1.497-0.04,2.994-0.038,4.485c0.017,16.96,0.002,338.194,0,381.869c0,0,0,0.223,0,0.643
	c0,2.778,0,4.264,0,4.264h0.001c0.004,13.826,0.013,53.084-0.001,67.967c-0.028,33.889,5.938,70.066,43.958,70.066
	c34.938,0,41.522-36.18,41.522-62.358c0-10.553,0-59.849,0-75.674c0-3.09,0-4.904,0-4.904c0-44.541,0-377.811,0-389.577
	C627.962,488.264,621.376,452.086,586.44,452.086z M542.523,517.511l-20.917-28.79l39.741-28.874
	C546.534,471.508,542.906,494.63,542.523,517.511z"/>
</svg>
