<?xml version="1.0" encoding="utf-8"?>
<!-- Generator: Adobe Illustrator 16.0.0, SVG Export Plug-In . SVG Version: 6.00 Build 0)  -->
<!DOCTYPE svg PUBLIC "-//W3C//DTD SVG 1.1//EN" "http://www.w3.org/Graphics/SVG/1.1/DTD/svg11.dtd">
<svg version="1.1" id="Calque_1" xmlns="http://www.w3.org/2000/svg" xmlns:xlink="http://www.w3.org/1999/xlink" x="0px" y="0px"
	 width="1190.551px" height="1190.551px" viewBox="0 0 1190.551 1190.551" enable-background="new 0 0 1190.551 1190.551"
	 xml:space="preserve">
<g>
	<path fill="#010202" d="M846.819,410.084c0,0,0-43.962,0-68.715c0-69.797-42.896-113.081-120.809-113.081h-65.855V192.58h-64.925
		h-1.624h-64.927v35.708h-65.854c-77.911,0-120.809,43.284-120.809,113.081c0,24.753,0,68.715,0,68.715h-44.38v77.368v2.166v77.367
		h44.38c0,0,0,43.961,0,68.714c0,69.797,42.896,113.08,120.809,113.08h65.854v35.71c-85.15,0-163.102,0-168.685,0
		c-26.182,0-62.358,6.585-62.358,41.522c-0.002,38.021,36.177,43.988,70.063,43.958c16.96-0.017,338.194-0.002,381.87,0
		c0,0,0.223,0,0.643,0c2.777,0,4.264,0,4.264,0v-0.001c13.824-0.004,53.084-0.013,67.967,0.001
		c33.889,0.028,70.064-5.938,70.064-43.958c0-34.938-36.178-41.522-62.355-41.522c-10.553,0-59.852,0-75.674,0
		c-3.094,0-4.904,0-4.904,0c-12.236,0-46.26,0-89.418,0V748.78h65.855c77.91,0,120.809-43.282,120.809-113.08
		c0-24.753,0-68.713,0-68.713h46.098v-77.369v-2.166v-77.368H846.819L846.819,410.084z"/>
	<polygon fill="#010202" points="742.635,869.971 406.635,869.971 406.635,913.332 297.635,913.332 297.635,997.971 
		474.635,997.971 474.635,945.971 660.635,945.971 660.635,997.971 806.635,997.971 806.635,945.971 892.912,945.971 
		892.912,913.332 742.635,913.332 	"/>
</g>
</svg>
