<?xml version="1.0" encoding="utf-8"?>
<!-- Generator: Adobe Illustrator 16.0.0, SVG Export Plug-In . SVG Version: 6.00 Build 0)  -->
<!DOCTYPE svg PUBLIC "-//W3C//DTD SVG 1.1//EN" "http://www.w3.org/Graphics/SVG/1.1/DTD/svg11.dtd">
<svg version="1.1" id="Calque_1" xmlns="http://www.w3.org/2000/svg" xmlns:xlink="http://www.w3.org/1999/xlink" x="0px" y="0px"
	 width="1190.551px" height="1190.551px" viewBox="0 0 1190.551 1190.551" enable-background="new 0 0 1190.551 1190.551"
	 xml:space="preserve">
<g>
	<polygon fill="#010202" points="653.002,894.066 455.505,622.234 420.427,647.722 356.358,559.538 287.883,609.288 
		391.921,752.485 433.99,721.919 543.318,872.397 501.249,902.961 587.066,1021.078 629.134,990.513 679.847,1060.314 
		706.253,1041.128 617.923,919.552 	"/>
	<path fill="#010202" d="M861.145,544.019c-17.704-0.001-28.453,7.848-34.887,19.652l33.764-66.268l0.982-1.93l35.125-68.935
		l-41.074-20.93c0,0,19.959-39.17,31.195-61.226c31.688-62.189,13.116-120.229-56.304-155.602l-58.677-29.897l16.213-31.813
		l-57.849-29.477l-1.447-0.737l-57.85-29.476l-16.211,31.815l-58.678-29.897c-69.42-35.37-127.292-16.279-158.979,45.91
		c-11.238,22.056-31.196,61.226-31.196,61.226l-39.543-20.147l-35.124,68.935l-0.982,1.931l-35.125,68.934l39.545,20.149
		c0,0-19.958,39.17-31.195,61.224c-31.688,62.19-13.117,120.23,56.304,155.601l58.676,29.897l-16.212,31.817l57.851,29.477
		l1.446,0.737l57.851,29.476l16.211-31.816l58.676,29.897c69.421,35.371,127.291,16.281,158.979-45.908
		c11.237-22.056,31.194-61.225,31.194-61.225l41.074,20.927l0.07-0.139c-6.298,13.298-7.796,30.877-7.781,47.882
		c0.019,16.96,0.002,338.193,0,381.868c0,0,0,0.225,0,0.645c0,2.778,0,4.263,0,4.263h0.001c0.004,13.826,0.015,53.084-0.001,67.967
		c-0.026,33.891,5.938,70.066,43.958,70.066c34.938,0,41.523-36.179,41.523-62.358c0-10.553,0-59.849,0-75.674
		c0-3.091,0-4.902,0-4.902c0-44.541,0-377.812,0-389.578C902.668,580.197,896.082,544.019,861.145,544.019z"/>
</g>
</svg>
