<?xml version="1.0" encoding="utf-8"?>
<!-- Generator: Adobe Illustrator 16.0.0, SVG Export Plug-In . SVG Version: 6.00 Build 0)  -->
<!DOCTYPE svg PUBLIC "-//W3C//DTD SVG 1.1//EN" "http://www.w3.org/Graphics/SVG/1.1/DTD/svg11.dtd">
<svg version="1.1" id="Calque_1" xmlns="http://www.w3.org/2000/svg" xmlns:xlink="http://www.w3.org/1999/xlink" x="0px" y="0px"
	 width="1190.551px" height="1190.551px" viewBox="0 0 1190.551 1190.551" enable-background="new 0 0 1190.551 1190.551"
	 xml:space="preserve">
<g>
	<path fill="#010202" d="M673.172,879.229h-186V827.23h63.693h1.624h64.925v-35.709h65.855c77.91,0,120.809-43.282,120.809-113.08
		c0-24.753,0-68.713,0-68.713h46.098v-77.369v-2.166v-77.368h-46.098c0,0,0-43.962,0-68.715
		c0-69.797-42.896-113.081-120.809-113.081h-65.855v-35.708h-64.925h-1.624h-64.927v35.708h-65.854
		c-77.911,0-120.809,43.284-120.809,113.081c0,24.753,0,68.715,0,68.715h-44.38v77.368v2.166v77.367h44.38c0,0,0,43.961,0,68.714
		c0,69.797,42.896,113.08,120.809,113.08h65.854v35.71H341.172v51.999h-86.277v32.642h150.276v43.358h336v-43.358h109V827.23h-177
		v51.999H673.172z"/>
	<path fill="#010202" d="M894.133,235.322c-38.02-0.002-43.984,36.177-43.959,70.064c0.02,16.96,0.002,338.194,0,381.87
		c0,0,0,0.223,0,0.644c0,2.776,0,4.262,0,4.262h0.002c0.004,13.826,0.016,53.084-0.002,67.968
		c-0.025,33.889,5.939,70.066,43.959,70.066c34.938,0,41.523-36.18,41.523-62.357c0-10.555,0-59.851,0-75.676
		c0-3.09,0-4.902,0-4.902c0-44.541,0-377.812,0-389.578C935.656,271.5,929.071,235.322,894.133,235.322z"/>
</g>
</svg>
