<?xml version="1.0" encoding="utf-8"?>
<!-- Generator: Adobe Illustrator 16.0.0, SVG Export Plug-In . SVG Version: 6.00 Build 0)  -->
<!DOCTYPE svg PUBLIC "-//W3C//DTD SVG 1.1//EN" "http://www.w3.org/Graphics/SVG/1.1/DTD/svg11.dtd">
<svg version="1.1" id="Calque_1" xmlns="http://www.w3.org/2000/svg" xmlns:xlink="http://www.w3.org/1999/xlink" x="0px" y="0px"
	 width="1190.551px" height="1190.551px" viewBox="0 0 1190.551 1190.551" enable-background="new 0 0 1190.551 1190.551"
	 xml:space="preserve">
<g>
	<path fill="#010202" d="M76.103,382.501c0-36,10.397-50,48.897-50h173.091v-32.312v-5.1v-32.312L125,262.778
		c-38.5,0-48.897-14-48.897-50c0-53.193,0-212.777,0-212.777H0v295.09v5.1v295.09h76.103
		C76.103,595.28,76.103,435.695,76.103,382.501z"/>
	<path fill="#010202" d="M705.182,819.688l45.091-9.584l-16.086-75.679l-0.452-2.119l-16.084-75.677l-45.092,9.585
		c0,0-9.141-43.003-14.287-67.215c-14.512-68.271-65.47-101.691-141.679-85.493l-64.416,13.692l-7.424-34.928l-63.508,13.498
		l-1.587,0.337l-63.509,13.499l7.424,34.928l-64.415,13.692c-12.557,2.669-23.932,6.296-34.121,10.788l59.313-133.217l-47.505-21.15
		l35.092-78.817l-29.816-13.275l-61.124,137.284l-39.611-17.637L4.722,759.151l39.612,17.637L0,876.364l77.321,34.426
		l71.992-161.697l-47.504-21.15l75.652-169.919l47.359,21.085c-51.495,22.8-72.422,67.901-60.319,124.845
		c5.146,24.211,14.286,67.213,14.286,67.213l-43.41,9.227l16.085,75.676l0.451,2.119l16.085,75.677l43.411-9.223
		c0,0,9.14,43,14.286,67.211c14.512,68.271,65.47,101.69,141.679,85.491l64.416-13.69l7.425,34.93l63.507-13.499l1.589-0.338
		l63.507-13.499l-7.424-34.929l64.415-13.691c76.209-16.199,109.17-67.454,94.658-135.727
		C714.322,862.688,705.182,819.688,705.182,819.688z"/>
</g>
</svg>
