<?xml version="1.0" encoding="utf-8"?>
<!-- Generator: Adobe Illustrator 16.0.0, SVG Export Plug-In . SVG Version: 6.00 Build 0)  -->
<!DOCTYPE svg PUBLIC "-//W3C//DTD SVG 1.1//EN" "http://www.w3.org/Graphics/SVG/1.1/DTD/svg11.dtd">
<svg version="1.1" id="Calque_1" xmlns="http://www.w3.org/2000/svg" xmlns:xlink="http://www.w3.org/1999/xlink" x="0px" y="0px"
	 width="1190.551px" height="1190.551px" viewBox="0 0 1190.551 1190.551" enable-background="new 0 0 1190.551 1190.551"
	 xml:space="preserve">
<g>
	<path fill="#010202" d="M189.586,252.147C142.191,276.296,0,348.745,0,348.745l34.55,67.806l262.927-133.968l4.544-2.313
		L564.948,146.3l-34.55-67.806c0,0-142.191,72.45-189.587,96.6c-32.076,16.344-49.271,13.435-66.75-20.869L195.481-0.001
		l-28.791,14.67l-4.544,2.314l-28.789,14.67l78.58,154.226C229.416,220.182,221.662,235.803,189.586,252.147z"/>
	<path fill="#010202" d="M407.892,1030.311l-176.896-57.479l16.068-49.455l-94.584-30.732c18.294,5.139,39.62,6.038,63.66,2.23
		l65.045-10.302l5.587,35.271l64.126-10.158l1.604-0.254l64.127-10.156l-5.587-35.27l65.043-10.302
		c76.953-12.188,112.551-61.649,101.632-130.588c-3.872-24.448-10.749-67.866-10.749-67.866l45.532-7.211l-12.104-76.418
		l-0.339-2.139l-12.103-76.415l-45.533,7.212c0,0-6.877-43.422-10.749-67.869c-10.919-68.938-60.058-104.979-137.011-92.791
		l-65.044,10.302l-5.586-35.269l-64.126,10.158l-1.604,0.254l-64.126,10.156l5.586,35.269l-65.044,10.302
		c-76.951,12.188-112.55,61.65-101.631,130.59c3.872,24.447,10.75,67.868,10.75,67.868l-43.834,6.943l12.104,76.414l0.34,2.141
		l12.103,76.415l43.831-6.943c0,0,6.877,43.419,10.749,67.867c6.983,44.089,29.601,74.721,65.128,87.887l-36.047-11.712
		l-16.068,49.455l-82.055-26.661L0,932.096l142.922,46.438l-13.399,41.238l319.555,103.83l13.4-41.238l103.664,33.683l26.155-80.496
		l-168.338-54.695L407.892,1030.311z"/>
</g>
</svg>
