<?xml version="1.0" encoding="utf-8"?>
<!-- Generator: Adobe Illustrator 16.0.0, SVG Export Plug-In . SVG Version: 6.00 Build 0)  -->
<!DOCTYPE svg PUBLIC "-//W3C//DTD SVG 1.1//EN" "http://www.w3.org/Graphics/SVG/1.1/DTD/svg11.dtd">
<svg version="1.1" id="Calque_1" xmlns="http://www.w3.org/2000/svg" xmlns:xlink="http://www.w3.org/1999/xlink" x="0px" y="0px"
	 width="1190.551px" height="1190.551px" viewBox="0 0 1190.551 1190.551" enable-background="new 0 0 1190.551 1190.551"
	 xml:space="preserve">
<g>
	<path fill="#010202" d="M296.242,428.483c0-36,10.397-50,48.897-50H518.23v-32.312v-5.1v-32.312l-173.091,0.001
		c-38.5,0-48.897-14-48.897-50c0-53.193,0-212.777,0-212.777h-76.103v295.09v5.1v295.09h76.103
		C296.242,641.263,296.242,481.677,296.242,428.483z"/>
	<path fill="#010202" d="M925.321,865.67l45.092-9.584l-16.086-75.679l-0.453-2.119l-16.084-75.677l-45.092,9.585
		c0,0-9.141-43.003-14.287-67.215c-14.512-68.271-65.469-101.691-141.678-85.493l-64.416,13.692l-7.424-34.928l-63.508,13.498
		l-1.588,0.337l-63.509,13.499l7.424,34.928l-64.414,13.692c-12.558,2.668-23.933,6.295-34.121,10.787l59.312-133.217l-47.505-21.15
		l35.092-78.817l-29.815-13.275l-61.124,137.284l-39.611-17.637L224.861,805.134l39.612,17.637l-44.334,99.576l77.32,34.426
		l71.992-161.697l-47.504-21.149l75.652-169.92l47.358,21.086c-51.494,22.8-72.422,67.9-60.318,124.845
		c5.146,24.211,14.286,67.213,14.286,67.213l-43.41,9.227l16.085,75.677l0.451,2.119l16.085,75.677l43.411-9.224
		c0,0,9.14,43,14.285,67.211c14.513,68.271,65.471,101.69,141.68,85.491l64.415-13.689l7.426,34.93l63.508-13.499l1.588-0.338
		l63.508-13.499l-7.424-34.929l64.414-13.691c76.209-16.199,109.17-67.454,94.658-135.727
		C934.461,908.67,925.321,865.67,925.321,865.67z"/>
</g>
</svg>
