<?xml version="1.0" encoding="utf-8"?>
<!-- Generator: Adobe Illustrator 16.0.0, SVG Export Plug-In . SVG Version: 6.00 Build 0)  -->
<!DOCTYPE svg PUBLIC "-//W3C//DTD SVG 1.1//EN" "http://www.w3.org/Graphics/SVG/1.1/DTD/svg11.dtd">
<svg version="1.1" id="Calque_1" xmlns="http://www.w3.org/2000/svg" xmlns:xlink="http://www.w3.org/1999/xlink" x="0px" y="0px"
	 width="1190.551px" height="1190.551px" viewBox="0 0 1190.551 1190.551" enable-background="new 0 0 1190.551 1190.551"
	 xml:space="preserve">
<g>
	<path fill="#010202" d="M600.395,789.676l-0.339-2.141l-12.104-76.414l-45.532,7.212c0,0-6.877-43.422-10.749-67.869
		c-10.919-68.938-60.059-104.979-137.011-92.792l-45.908,7.271l67.799-34.547L282.584,267.471l-2.315-4.543L146.3,0L78.492,34.55
		c0,0,72.45,142.191,96.6,189.588c16.344,32.076,13.436,49.271-20.869,66.749L-0.002,369.469l14.67,28.79l2.315,4.543l14.67,28.79
		l154.226-78.582c34.304-17.479,49.924-9.726,66.268,22.351c24.141,47.379,96.544,189.48,96.598,189.584l-19.128,3.03l-5.586-35.269
		l-64.127,10.157l-1.604,0.254l-64.125,10.157l5.586,35.269l-65.044,10.302c-76.952,12.188-112.55,61.65-101.631,130.588
		c3.872,24.447,10.749,67.869,10.749,67.869l-43.833,6.942l12.104,76.415l0.339,2.141l12.104,76.416l43.831-6.941
		c0,0,6.877,43.419,10.749,67.867c10.919,68.938,60.058,104.977,137.011,92.789l65.045-10.302l5.586,35.269l64.127-10.156
		l1.604-0.254l64.126-10.158l-5.586-35.268l65.043-10.304c76.953-12.187,112.551-61.647,101.632-130.586
		c-3.872-24.448-10.749-67.867-10.749-67.867l45.532-7.212L600.395,789.676z"/>
	<polygon fill="#010202" points="597.692,102.594 581.623,152.048 404.727,94.572 420.795,45.117 281.942,0 265.872,49.455 
		183.819,22.794 173.733,53.835 316.655,100.274 303.255,141.512 622.81,245.342 636.209,204.103 739.874,237.786 766.03,157.29 	
		"/>
</g>
</svg>
