<?xml version="1.0" encoding="utf-8"?>
<!-- Generator: Adobe Illustrator 16.0.0, SVG Export Plug-In . SVG Version: 6.00 Build 0)  -->
<!DOCTYPE svg PUBLIC "-//W3C//DTD SVG 1.1//EN" "http://www.w3.org/Graphics/SVG/1.1/DTD/svg11.dtd">
<svg version="1.1" id="Calque_1" xmlns="http://www.w3.org/2000/svg" xmlns:xlink="http://www.w3.org/1999/xlink" x="0px" y="0px"
	 width="1190.551px" height="1190.551px" viewBox="0 0 1190.551 1190.551" enable-background="new 0 0 1190.551 1190.551"
	 xml:space="preserve">
<g>
	<path fill="#010202" d="M301.132,380.648l0.339,2.141l12.104,76.414l43.832-6.939c0,0,6.877,43.419,10.749,67.867
		c10.919,68.938,60.058,104.978,137.011,92.789l65.045-10.302l5.587,35.271l64.126-10.158l1.604-0.255l64.126-10.155l-5.586-35.27
		l65.043-10.302c76.952-12.188,112.551-61.648,101.632-130.588c-3.872-24.448-10.749-67.866-10.749-67.866l45.53-7.212
		l-12.103-76.418l-0.339-2.139l-12.104-76.416l-45.531,7.212c0,0-6.878-43.422-10.749-67.869
		c-10.919-68.938-60.06-104.979-137.011-92.791l-65.044,10.302l-5.587-35.269L548.93,42.852l-1.604,0.254l-64.125,10.156
		l5.586,35.269l-65.044,10.302c-76.952,12.189-112.551,61.652-101.631,130.59c3.872,24.447,10.749,67.869,10.749,67.869
		l-43.834,6.942L301.132,380.648z"/>
	<path fill="#010202" d="M707.259,1072.153l-57.183-9.058l61.567-44.731c0,0-93.801-129.106-125.066-172.142
		c-21.161-29.125-20.979-46.562,10.17-69.192l140.033-101.74l-18.992-26.141l-2.998-4.126l-18.992-26.143L555.765,720.623
		c-31.146,22.63-47.788,17.415-68.948-11.709c-31.268-43.034-125.068-172.141-125.068-172.141l-61.567,44.731l173.45,238.733
		l2.997,4.125l173.448,238.733l-126.527-20.04l8.136-51.361l-144.203-22.837l-8.136,51.357l-85.214-13.494l-5.105,32.235
		l148.427,23.509l-6.783,42.827l331.864,52.563l6.781-42.827l107.657,17.05l13.242-83.597l-174.822-27.689L707.259,1072.153z"/>
</g>
</svg>
