<?xml version="1.0" encoding="utf-8"?>
<!-- Generator: Adobe Illustrator 16.0.0, SVG Export Plug-In . SVG Version: 6.00 Build 0)  -->
<!DOCTYPE svg PUBLIC "-//W3C//DTD SVG 1.1//EN" "http://www.w3.org/Graphics/SVG/1.1/DTD/svg11.dtd">
<svg version="1.1" id="Calque_1" xmlns="http://www.w3.org/2000/svg" xmlns:xlink="http://www.w3.org/1999/xlink" x="0px" y="0px"
	 width="1190.551px" height="1190.551px" viewBox="0 0 1190.551 1190.551" enable-background="new 0 0 1190.551 1190.551"
	 xml:space="preserve">
<g>
	<path fill="#010202" d="M234.807,200.085L181.32,364.704l30.73,9.984l4.85,1.575l30.73,9.984l53.486-164.618
		c11.897-36.616,28.426-42.178,62.664-31.054c50.59,16.438,202.363,65.752,202.363,65.752l23.517-72.377L309.014,92.764l-4.85-1.576
		L23.518-0.001L0,72.377c0,0,151.774,49.314,202.364,65.752C236.603,149.254,246.704,163.47,234.807,200.085z"/>
	<path fill="#010202" d="M486.277,509.262v-43.361h109v-84.639h-177v52h-186v-52h-146v52H0v32.639h150.276v43.361h67.227v44.381
		c0,0-43.96,0-68.713,0c-69.797,0-113.08,42.896-113.08,120.809v65.855H0v64.926v1.624v64.926h35.709v65.854
		c0,77.91,43.282,120.809,113.08,120.809c24.753,0,68.713,0,68.713,0v46.098h77.369h2.167h77.366v-46.099c0,0,43.964,0,68.715,0
		c69.797,0,113.082-42.896,113.082-120.808v-65.855h35.708v-64.926v-1.624v-64.926h-35.708V674.45
		c0-77.911-43.285-120.809-113.082-120.809c-24.751,0-68.715,0-68.715,0v-44.38H486.277z"/>
</g>
</svg>
