<?xml version="1.0" encoding="utf-8"?>
<!-- Generator: Adobe Illustrator 16.0.0, SVG Export Plug-In . SVG Version: 6.00 Build 0)  -->
<!DOCTYPE svg PUBLIC "-//W3C//DTD SVG 1.1//EN" "http://www.w3.org/Graphics/SVG/1.1/DTD/svg11.dtd">
<svg version="1.1" id="Calque_1" xmlns="http://www.w3.org/2000/svg" xmlns:xlink="http://www.w3.org/1999/xlink" x="0px" y="0px"
	 width="1190.551px" height="1190.551px" viewBox="0 0 1190.551 1190.551" enable-background="new 0 0 1190.551 1190.551"
	 xml:space="preserve">
<path fill="#010202" d="M853.681,903.82l-168.337,54.694l16.068,49.454l-176.896,57.479l-16.068-49.456l-138.854,45.116
	l16.068,49.455l-16.068,5.221c0-0.055,0-23.149,0-54.676c0-51.379,0-125.151,0-158.103c0-36,10.397-50,48.897-50h173.091v-32.312
	v-5.1v-32.311l-173.09-0.001c-38.5,0-48.897-14-48.897-50c0-52.358,0-207.796,0-212.659c2.516,0.958,5.084,1.873,7.722,2.729
	c23.542,7.649,65.351,21.234,65.351,21.234l-14.245,43.842l73.582,23.909l2.061,0.668l73.58,23.909l14.246-43.843
	c0,0,41.812,13.585,65.354,21.234c66.381,21.567,120.803-5.854,144.879-79.951l20.35-62.632l33.961,11.034l20.063-61.748
	l0.501-1.545l20.062-61.748l-33.96-11.034l20.351-62.632c24.075-74.098-3.835-128.271-70.216-149.84
	c-23.54-7.648-65.352-21.233-65.352-21.233l13.714-42.208l-73.58-23.908l-2.062-0.67l-73.583-23.907l-13.714,42.209
	c0,0-41.809-13.584-65.351-21.233c-66.381-21.568-120.801,5.854-144.877,79.952l-20.35,62.632l-33.962-11.035l-20.063,61.748
	l-0.502,1.545l-20.062,61.748l33.961,11.034l-20.352,62.63c-23.081,71.036,1.62,123.753,62.186,146.993h-75.795v295.089v5.1v295.091
	h76.097l-65.979,21.438l10.086,31.041l142.921-46.438l13.399,41.237l319.554-103.828l-13.398-41.24l103.665-33.683L853.681,903.82z"
	/>
</svg>
