<?xml version="1.0" encoding="utf-8"?>
<!-- Generator: Adobe Illustrator 16.0.0, SVG Export Plug-In . SVG Version: 6.00 Build 0)  -->
<!DOCTYPE svg PUBLIC "-//W3C//DTD SVG 1.1//EN" "http://www.w3.org/Graphics/SVG/1.1/DTD/svg11.dtd">
<svg version="1.1" id="Calque_1" xmlns="http://www.w3.org/2000/svg" xmlns:xlink="http://www.w3.org/1999/xlink" x="0px" y="0px"
	 width="1190.551px" height="1190.551px" viewBox="0 0 1190.551 1190.551" enable-background="new 0 0 1190.551 1190.551"
	 xml:space="preserve">
<path fill="#010202" d="M933.057,730.221l-0.796-5.036l-46.164-291.457l-75.165,11.905c0,0,5.122,32.339,11.499,72.604
	c-2.364-11.578-6.604-23.444-12.729-35.467c-11.235-22.054-31.193-61.224-31.193-61.224l41.073-20.928l-35.125-68.937l-0.983-1.931
	l-35.124-68.935l-41.074,20.929c0,0-19.96-39.172-31.196-61.226c-31.688-62.189-89.559-81.283-158.979-45.911l-58.679,29.899
	l-16.211-31.816l-57.851,29.477l-1.445,0.737l-57.851,29.477l16.212,31.815l-58.677,29.897
	c-69.419,35.371-87.99,93.413-56.303,155.603c11.237,22.055,31.196,61.226,31.196,61.226l-39.542,20.147l35.124,68.936l0.982,1.931
	l35.124,68.936l39.543-20.147c0,0,19.958,39.168,31.195,61.224c15.146,29.724,36.274,49.595,61.785,58.387l-102.165-33.196
	l-16.068,49.451l-82.054-26.661l-10.087,31.043l142.922,46.438l-13.398,41.237l319.554,103.832l13.399-41.24l103.665,33.684
	l26.155-80.496L635.29,839.728l-16.068,49.455l-176.896-57.475l16.066-49.455l-33.193-10.786
	c27.118,8.148,58.963,4.087,93.697-13.611l58.679-29.897l16.212,31.817l38.996-19.87l5.057,31.914l0.797,5.037l5.055,31.914
	l170.96-27.08c38.026-6.022,50.486,6.178,56.118,41.734c8.321,52.539,33.284,210.159,33.284,210.159l75.167-11.904L933.057,730.221z
	 M803.744,712.827l-170.96,27.077l18.853-9.604l1.446-0.737l57.85-29.476l-16.212-31.817l58.677-29.896
	c52.05-26.521,75.514-65.784,70.641-109.987c7.379,46.583,15.939,100.637,20.181,127.408
	C849.85,691.35,841.77,706.804,803.744,712.827z"/>
</svg>
