<?xml version="1.0" encoding="utf-8"?>
<!-- Generator: Adobe Illustrator 16.0.0, SVG Export Plug-In . SVG Version: 6.00 Build 0)  -->
<!DOCTYPE svg PUBLIC "-//W3C//DTD SVG 1.1//EN" "http://www.w3.org/Graphics/SVG/1.1/DTD/svg11.dtd">
<svg version="1.1" id="Calque_1" xmlns="http://www.w3.org/2000/svg" xmlns:xlink="http://www.w3.org/1999/xlink" x="0px" y="0px"
	 width="1190.551px" height="1190.551px" viewBox="0 0 1190.551 1190.551" enable-background="new 0 0 1190.551 1190.551"
	 xml:space="preserve">
<g>
	<polygon fill="#010202" points="690.572,502.43 733.398,495.647 750.449,603.307 834.047,590.065 806.357,415.243 754.998,423.378 
		725.901,239.668 777.261,231.533 754.422,87.331 703.063,95.466 689.565,10.251 657.328,15.357 680.836,163.783 638.009,170.567 	
		"/>
	<path fill="#010202" d="M863.099,891.7l20.351-62.631c24.076-74.1-3.831-128.271-70.213-149.84
		c-23.542-7.648-65.351-21.233-65.351-21.233l14.245-43.842l-73.582-23.909l-2.061-0.668l-44.251-14.379l67.807-34.551
		L576.076,277.722l-2.315-4.543L439.792,10.251l-67.808,34.55c0,0,72.449,142.191,96.6,189.588
		c16.344,32.076,13.436,49.271-20.869,66.749L293.49,379.72l14.67,28.79l2.314,4.543l14.67,28.79l154.227-78.582
		c34.304-17.479,49.924-9.726,66.268,22.351c24.149,47.396,96.599,189.584,96.6,189.587l-29.329-9.53l-14.246,43.842
		c0,0-41.812-13.584-65.353-21.232c-66.381-21.569-120.803,5.852-144.879,79.95l-20.351,62.633l-33.96-11.035l-20.063,61.749
		l-0.502,1.545l-20.063,61.747l33.961,11.035l-20.351,62.632c-24.075,74.098,3.835,128.271,70.217,149.839
		c23.54,7.649,65.352,21.234,65.352,21.234l-13.714,42.207l73.579,23.907l2.061,0.669l73.583,23.909l13.713-42.211
		c0,0,41.81,13.585,65.352,21.234c66.381,21.568,120.801-5.854,144.877-79.951l20.351-62.632l33.962,11.035l20.063-61.749
		l0.502-1.544l20.062-61.748L863.099,891.7z"/>
</g>
</svg>
