<?xml version="1.0" encoding="utf-8"?>
<!-- Generator: Adobe Illustrator 16.0.0, SVG Export Plug-In . SVG Version: 6.00 Build 0)  -->
<!DOCTYPE svg PUBLIC "-//W3C//DTD SVG 1.1//EN" "http://www.w3.org/Graphics/SVG/1.1/DTD/svg11.dtd">
<svg version="1.1" id="Calque_1" xmlns="http://www.w3.org/2000/svg" xmlns:xlink="http://www.w3.org/1999/xlink" x="0px" y="0px"
	 width="1190.551px" height="1190.551px" viewBox="0 0 1190.551 1190.551" enable-background="new 0 0 1190.551 1190.551"
	 xml:space="preserve">
<g>
	<path fill="#010202" d="M812.656,816.002l-0.339-2.141l-12.104-76.414l-45.531,7.212c0,0-6.877-43.422-10.749-67.869
		c-10.919-68.938-60.06-104.979-137.011-92.792l-45.908,7.271l67.799-34.547L494.846,293.797l-2.315-4.543L358.562,26.326
		l-67.808,34.55c0,0,72.449,142.191,96.6,189.588c16.344,32.076,13.436,49.271-20.869,66.749L212.26,395.795l14.67,28.79
		l2.314,4.543l14.67,28.79l154.227-78.582c34.304-17.479,49.924-9.726,66.268,22.351c24.142,47.379,96.544,189.48,96.599,189.584
		l-19.128,3.03l-5.587-35.269l-64.127,10.157l-1.604,0.254L406.437,579.6l5.586,35.269l-65.044,10.302
		c-76.952,12.188-112.55,61.65-101.631,130.588c3.872,24.447,10.749,67.869,10.749,67.869l-43.833,6.942l12.104,76.415l0.339,2.141
		l12.104,76.416l43.831-6.94c0,0,6.877,43.419,10.749,67.867c10.919,68.938,60.058,104.977,137.011,92.789l65.045-10.303
		l5.586,35.27l64.127-10.156l1.604-0.254l64.126-10.158l-5.586-35.268l65.043-10.305c76.952-12.187,112.551-61.646,101.632-130.586
		c-3.872-24.447-10.749-67.866-10.749-67.866l45.532-7.212L812.656,816.002z"/>
	<polygon fill="#010202" points="809.953,128.92 793.884,178.374 616.989,120.898 633.057,71.443 494.203,26.326 478.134,75.781 
		396.08,49.12 385.994,80.161 528.916,126.6 515.517,167.838 835.072,271.668 848.471,230.429 952.135,264.112 978.291,183.616 	"/>
</g>
</svg>
