<?xml version="1.0" encoding="utf-8"?>
<!-- Generator: Adobe Illustrator 16.0.0, SVG Export Plug-In . SVG Version: 6.00 Build 0)  -->
<!DOCTYPE svg PUBLIC "-//W3C//DTD SVG 1.1//EN" "http://www.w3.org/Graphics/SVG/1.1/DTD/svg11.dtd">
<svg version="1.1" id="Calque_1" xmlns="http://www.w3.org/2000/svg" xmlns:xlink="http://www.w3.org/1999/xlink" x="0px" y="0px"
	 width="1190.551px" height="1190.551px" viewBox="0 0 1190.551 1190.551" enable-background="new 0 0 1190.551 1190.551"
	 xml:space="preserve">
<path fill="#010202" d="M808.097,275.6l-26.406-19.186L693.36,377.99l-35.079-25.486L582.803,456.39
	c17.684-26.966,20.915-62.806,7.153-105.161l-20.349-62.632l33.96-11.034l-20.063-61.749l-0.502-1.544l-20.062-61.749
	l-33.961,11.034l-20.35-62.632c-24.075-74.098-78.499-101.52-144.88-79.95c-23.54,7.649-65.352,21.233-65.352,21.233L284.684,0
	l-73.58,23.908l-2.062,0.67l-73.581,23.907l13.715,42.209c0,0-41.809,13.585-65.351,21.234
	c-66.381,21.568-94.289,75.739-70.213,149.839l20.35,62.632l-33.963,11.035l20.063,61.748l0.502,1.545l20.062,61.748l33.961-11.034
	l20.35,62.631c24.076,74.099,78.496,101.521,144.878,79.952c0.161-0.052,0.326-0.106,0.488-0.159l18.095,172.141
	c4.024,38.289-8.812,50.094-44.614,53.856c-52.902,5.561-211.612,22.241-211.612,22.241l7.954,75.686L303.6,884.944l5.07-0.533
	l293.474-30.845l-7.955-75.686c0,0-44.315,4.658-93.917,9.872l104.038-143.195l-42.07-30.565l109.328-150.477l42.069,30.564
	l85.816-118.116l-42.067-30.565L808.097,275.6z M277.51,587.953l-5.071,0.533l-32.124,3.376c23.628-7.678,64.85-21.071,64.85-21.071
	l4.479,13.784L277.51,587.953z M495.865,649.821l-64.069,88.183l68.472,49.749c-44.267,4.653-92.744,9.748-117.692,12.37
	c-35.803,3.764-50.812-5.115-54.837-43.404l-18.093-172.139l9.765,30.054l73.583-23.908l2.062-0.67l73.58-23.908l-14.245-43.843
	c0,0,41.811-13.585,65.353-21.234c24.899-8.09,44.386-20.769,57.746-37.364L460.785,624.334L495.865,649.821z"/>
</svg>
