<?xml version="1.0" encoding="utf-8"?>
<!-- Generator: Adobe Illustrator 16.0.0, SVG Export Plug-In . SVG Version: 6.00 Build 0)  -->
<!DOCTYPE svg PUBLIC "-//W3C//DTD SVG 1.1//EN" "http://www.w3.org/Graphics/SVG/1.1/DTD/svg11.dtd">
<svg version="1.1" id="Calque_1" xmlns="http://www.w3.org/2000/svg" xmlns:xlink="http://www.w3.org/1999/xlink" x="0px" y="0px"
	 width="1190.551px" height="1190.551px" viewBox="0 0 1190.551 1190.551" enable-background="new 0 0 1190.551 1190.551"
	 xml:space="preserve">
<g>
	<path fill="#010202" d="M35.708,430.092c0,77.911,43.285,120.809,113.082,120.809c24.752,0,68.715,0,68.715,0v44.38h77.367h2.167
		h77.367V550.9c0,0,43.961,0,68.713,0c69.797,0,113.08-42.896,113.08-120.808v-65.855h35.71v-64.926v-1.624v-64.926H556.2v-65.854
		c0-77.911-43.28-120.809-113.08-120.809c-24.752,0-68.712,0-68.712,0V-0.001h-77.369h-2.167h-77.367v46.1c0,0-43.963,0-68.715,0
		c-69.797,0-113.082,42.896-113.082,120.808v65.854H0v64.927v1.624v64.926h35.708V430.092z"/>
	<path fill="#010202" d="M595.28,893.373V817.27c0,0-159.585,0-212.778,0c-36,0-50-10.396-50-48.896V595.281h-32.312h-5.1h-32.312
		l0.001,173.092c0,38.5-14,48.896-50,48.896c-53.193,0-212.777,0-212.777,0v76.104h109v43.359H0v84.639h177v-52h186v52h146v-52
		h86.276v-32.639H445v-43.359H595.28z"/>
</g>
</svg>
