<?xml version="1.0" encoding="utf-8"?>
<!-- Generator: Adobe Illustrator 16.0.0, SVG Export Plug-In . SVG Version: 6.00 Build 0)  -->
<!DOCTYPE svg PUBLIC "-//W3C//DTD SVG 1.1//EN" "http://www.w3.org/Graphics/SVG/1.1/DTD/svg11.dtd">
<svg version="1.1" id="Calque_1" xmlns="http://www.w3.org/2000/svg" xmlns:xlink="http://www.w3.org/1999/xlink" x="0px" y="0px"
	 width="1190.551px" height="1190.551px" viewBox="0 0 1190.551 1190.551" enable-background="new 0 0 1190.551 1190.551"
	 xml:space="preserve">
<g>
	<polygon fill="#010202" points="397.079,492.179 439.906,485.396 456.958,593.055 540.555,579.814 512.865,404.992 
		461.506,413.127 432.409,229.417 483.769,221.282 460.93,77.08 409.571,85.215 396.073,0 363.836,5.106 387.344,153.532 
		344.517,160.316 	"/>
	<path fill="#010202" d="M569.607,881.449l20.351-62.631c24.076-74.099-3.832-128.271-70.213-149.84
		c-23.542-7.648-65.351-21.233-65.351-21.233l14.245-43.842l-73.582-23.909l-2.061-0.668l-44.251-14.379l67.807-34.551
		L282.584,267.471l-2.315-4.543L146.3,0L78.492,34.55c0,0,72.45,142.191,96.6,189.588c16.344,32.076,13.436,49.271-20.869,66.749
		L-0.002,369.469l14.67,28.79l2.315,4.543l14.67,28.79l154.226-78.582c34.304-17.479,49.924-9.726,66.268,22.351
		c24.149,47.396,96.598,189.584,96.599,189.587l-29.329-9.53l-14.246,43.842c0,0-41.811-13.584-65.352-21.232
		c-66.381-21.569-120.803,5.852-144.879,79.95L74.589,720.61l-33.96-11.035l-20.063,61.749l-0.502,1.545L0,834.616l33.961,11.035
		l-20.35,62.632c-24.076,74.098,3.835,128.271,70.216,149.839c23.54,7.649,65.352,21.234,65.352,21.234l-13.714,42.207
		l73.579,23.908l2.061,0.669l73.583,23.909l13.713-42.211c0,0,41.809,13.585,65.351,21.234
		c66.381,21.568,120.801-5.854,144.877-79.951l20.351-62.632l33.962,11.035l20.063-61.749l0.502-1.544l20.062-61.748
		L569.607,881.449z"/>
</g>
</svg>
