<?xml version="1.0" encoding="utf-8"?>
<!-- Generator: Adobe Illustrator 16.0.0, SVG Export Plug-In . SVG Version: 6.00 Build 0)  -->
<!DOCTYPE svg PUBLIC "-//W3C//DTD SVG 1.1//EN" "http://www.w3.org/Graphics/SVG/1.1/DTD/svg11.dtd">
<svg version="1.1" id="Calque_1" xmlns="http://www.w3.org/2000/svg" xmlns:xlink="http://www.w3.org/1999/xlink" x="0px" y="0px"
	 width="1190.551px" height="1190.551px" viewBox="0 0 1190.551 1190.551" enable-background="new 0 0 1190.551 1190.551"
	 xml:space="preserve">
<g>
	<path fill="#010202" d="M392.599,867.583c-34.304-17.479-37.212-34.673-20.869-66.748c24.149-47.396,96.599-189.587,96.599-189.587
		l-67.805-34.549l14.718-10.693l20.988,28.887l52.526-38.163l1.312-0.954l52.526-38.162l-20.988-28.888l53.278-38.708
		c63.031-45.795,72.293-106.028,31.268-162.496c-14.55-20.024-40.391-55.592-40.391-55.592l35.904-26.086l-45.475-62.592
		l-1.273-1.753l-45.475-62.591l-35.906,26.086c0,0-25.84-35.565-40.389-55.591C392.123-7.063,331.978-16.867,268.947,28.929
		l-53.277,38.709l-20.991-28.89l-52.526,38.163l-1.312,0.954l-52.526,38.162l20.989,28.89l-53.277,38.708
		C-7.008,229.42-16.27,289.653,24.756,346.119c14.55,20.026,40.388,55.59,40.388,55.59L27.85,428.805l45.477,62.593l1.273,1.753
		l45.475,62.592l37.295-27.096c0,0,25.841,35.566,40.39,55.591c41.026,56.468,101.173,66.271,164.205,20.477l38.556-28.012
		L266.553,839.627l-2.315,4.544l-133.969,262.926l67.808,34.55c0,0,72.45-142.191,96.6-189.587
		c16.344-32.076,31.964-39.829,66.269-22.351l154.225,78.581l14.67-28.79l2.314-4.543l14.67-28.791L392.599,867.583z"/>
	<polygon fill="#010202" points="837.191,642.113 858.715,506.207 629.09,469.838 596.068,678.334 446.239,654.604 411.042,876.823 
		559.39,900.319 534.487,1057.555 758.186,1092.986 792.919,873.689 935.164,896.053 972.003,663.464 	"/>
</g>
</svg>
