<?xml version="1.0" encoding="utf-8"?>
<!-- Generator: Adobe Illustrator 16.0.0, SVG Export Plug-In . SVG Version: 6.00 Build 0)  -->
<!DOCTYPE svg PUBLIC "-//W3C//DTD SVG 1.1//EN" "http://www.w3.org/Graphics/SVG/1.1/DTD/svg11.dtd">
<svg version="1.1" id="Calque_1" xmlns="http://www.w3.org/2000/svg" xmlns:xlink="http://www.w3.org/1999/xlink" x="0px" y="0px"
	 width="1190.551px" height="1190.551px" viewBox="0 0 1190.551 1190.551" enable-background="new 0 0 1190.551 1190.551"
	 xml:space="preserve">
<path fill="#010202" d="M896.093,409.054c-34.304-17.479-37.212-34.675-20.866-66.75c24.148-47.396,96.599-189.586,96.599-189.586
	l-67.808-34.55L770.049,381.096l-2.314,4.542l-5.139,10.083c15.806-34.43,10.138-72.079-16.099-108.189
	c-14.55-20.024-40.391-55.592-40.391-55.592l35.903-26.086l-45.475-62.592l-1.273-1.753l-45.475-62.591l-35.906,26.086
	c0,0-25.839-35.565-40.388-55.591c-41.023-56.466-101.169-66.27-164.2-20.474l-53.276,38.709l-20.991-28.89l-52.526,38.163
	l-1.312,0.954l-52.526,38.162l20.989,28.89l-53.277,38.708c-63.034,45.795-72.297,106.028-31.271,162.494
	c14.55,20.026,40.388,55.59,40.388,55.59l-37.294,27.096l45.478,62.593l1.272,1.753l45.476,62.592l37.295-27.096
	c0,0,25.841,35.566,40.39,55.591c41.026,56.468,101.173,66.271,164.205,20.477l18.715-13.597L459.062,712.74L336.46,650.27
	L230.912,857.418l188.087,95.835l-68.869,135.163l200.468,102.145l68.187-133.828l141.845,72.273l102.823-201.803l-197.83-100.8
	l65.228-128.372L521.029,591.125l34.56-25.108l20.987,28.887l52.526-38.163l1.312-0.954l52.526-38.162l-20.988-28.888l53.278-38.708
	c19.686-14.303,34.127-30.014,43.429-46.579L633.766,648.565l67.808,34.55c0,0,72.449-142.191,96.6-189.587
	c16.345-32.076,31.966-39.83,66.269-22.352l154.225,78.582l14.67-28.791l2.313-4.543l14.67-28.791L896.093,409.054z"/>
</svg>
