<?xml version="1.0" encoding="utf-8"?>
<!-- Generator: Adobe Illustrator 16.0.0, SVG Export Plug-In . SVG Version: 6.00 Build 0)  -->
<!DOCTYPE svg PUBLIC "-//W3C//DTD SVG 1.1//EN" "http://www.w3.org/Graphics/SVG/1.1/DTD/svg11.dtd">
<svg version="1.1" id="Calque_1" xmlns="http://www.w3.org/2000/svg" xmlns:xlink="http://www.w3.org/1999/xlink" x="0px" y="0px"
	 width="1190.551px" height="1190.551px" viewBox="0 0 1190.551 1190.551" enable-background="new 0 0 1190.551 1190.551"
	 xml:space="preserve">
<path fill="#010202" d="M796.208,345.406c0,0-49.314,151.774-65.752,202.364c-11.125,34.237-25.34,44.34-61.956,32.443
	l-164.61-53.485c1.689-4.169,3.271-8.509,4.738-13.025l20.351-62.632l33.961,11.034l20.063-61.748l0.502-1.544l20.063-61.749
	l-33.962-11.034l20.352-62.63c24.076-74.1-3.834-128.272-70.214-149.841c-23.542-7.649-65.35-21.233-65.35-21.233l14.245-43.842
	l-73.583-23.909l-2.061-0.669l-73.58-23.908L305.17,43.842c0,0-41.811-13.585-65.351-21.234
	c-66.382-21.569-120.805,5.853-144.88,79.95L74.589,165.19L40.63,154.156l-20.063,61.748l-0.502,1.545L0.001,279.197l33.961,11.034
	l-20.351,62.632c-24.076,74.098,3.835,128.271,70.217,149.84c23.54,7.65,65.352,21.234,65.352,21.234l-13.714,42.208l73.579,23.907
	l2.061,0.67l73.582,23.907l13.712-42.207c0,0,41.81,13.584,65.351,21.233c62.286,20.237,114.041-2.657,140.079-66.772l-9.933,30.573
	l-1.576,4.85l-9.985,30.731l0.136,0.044l-170.778,124.08l-89.165-122.726L40.507,726.681l88.284,121.511L0,941.764l133.127,183.233
	l179.624-130.506l84.77,116.397l190.513-138.417l-80.229-110.425l111.32-80.879L482.472,593.082l164.483,53.442
	c36.615,11.897,42.179,28.426,31.054,62.663c-16.438,50.591-65.752,202.364-65.752,202.364l72.377,23.517l91.188-280.648
	l1.575-4.849l91.189-280.647L796.208,345.406z"/>
</svg>
