<?xml version="1.0" encoding="utf-8"?>
<!-- Generator: Adobe Illustrator 16.0.0, SVG Export Plug-In . SVG Version: 6.00 Build 0)  -->
<!DOCTYPE svg PUBLIC "-//W3C//DTD SVG 1.1//EN" "http://www.w3.org/Graphics/SVG/1.1/DTD/svg11.dtd">
<svg version="1.1" id="Calque_1" xmlns="http://www.w3.org/2000/svg" xmlns:xlink="http://www.w3.org/1999/xlink" x="0px" y="0px"
	 width="1190.551px" height="1190.551px" viewBox="0 0 1190.551 1190.551" enable-background="new 0 0 1190.551 1190.551"
	 xml:space="preserve">
<path fill="#010202" d="M645.678,787.452c-38.5,0-48.898-14-48.898-50c0-53.194,0-212.778,0-212.778h-75.884
	c19.689-19.498,30.005-47.337,30.005-81.554c0-24.752,0-68.716,0-68.716h44.38v-77.366v-2.167v-77.367H550.9c0,0,0-43.961,0-68.713
	c0-69.798-42.896-113.081-120.808-113.081h-65.855V0h-64.926h-1.624h-64.926v35.709h-65.854
	c-77.911,0-120.809,43.282-120.809,113.08c0,24.754,0,68.713,0,68.713H-0.001v77.369v2.167v77.366h46.1c0,0,0,43.964,0,68.716
	c0,69.798,42.896,113.083,120.808,113.083h65.854v35.707h-81.064v211.096H0v224.987h150.196v159.195h226.488V965.159l143.993-0.163
	v154.959h76.102c0,0,0-159.585,0-212.779c0-36,10.398-50,48.898-50h173.091v-32.312v-5.101v-32.312L645.678,787.452z
	 M384.185,729.51v-137.6h-19.947v-35.707h65.855c39.577,0,70.111-11.176,90.585-31.315V729.51H384.185z"/>
</svg>
