<?xml version="1.0" encoding="utf-8"?>
<!-- Generator: Adobe Illustrator 16.0.0, SVG Export Plug-In . SVG Version: 6.00 Build 0)  -->
<!DOCTYPE svg PUBLIC "-//W3C//DTD SVG 1.1//EN" "http://www.w3.org/Graphics/SVG/1.1/DTD/svg11.dtd">
<svg version="1.1" id="Calque_1" xmlns="http://www.w3.org/2000/svg" xmlns:xlink="http://www.w3.org/1999/xlink" x="0px" y="0px"
	 width="1190.551px" height="1190.551px" viewBox="0 0 1190.551 1190.551" enable-background="new 0 0 1190.551 1190.551"
	 xml:space="preserve">
<path fill="#010202" d="M851.38,621.415c-36,0-50-10.396-50-48.896V399.427h-32.312h-5.102h-32.312l0.001,173.091
	c0,38.5-14,48.896-50,48.896c-53.102,0-212.211,0-212.771,0l5.463-0.865l2.14-0.339l76.415-12.103l-6.942-43.835
	c0,0,43.419-6.877,67.866-10.749c68.938-10.918,104.979-60.058,92.79-137.01l-10.302-65.045l35.271-5.586l-10.157-64.126
	l-0.255-1.604l-10.156-64.126l-35.27,5.587l-10.302-65.044c-12.188-76.952-61.649-112.55-130.587-101.633
	c-24.449,3.873-67.867,10.75-67.867,10.75l-7.211-45.531L383.363,32.26l-2.14,0.339l-76.414,12.103l7.212,45.532
	c0,0-43.422,6.878-67.869,10.75c-68.938,10.918-104.98,60.058-92.792,137.011l10.302,65.044l-35.268,5.586l10.155,64.126
	l0.255,1.604l10.156,64.127l35.269-5.586l10.302,65.044c12.188,76.952,61.651,112.55,130.59,101.631
	c24.447-3.872,67.869-10.75,67.869-10.75l6.942,43.834l47.428-7.513l-213.975,69.523l46.412,142.845l-151.402,49.195l69.987,215.401
	l211.162-68.609l44.651,136.896l223.962-72.771l-42.179-129.812l130.864-42.521L693,704.184l-200.763,65.23l-23.36-71.895h295.089
	h5.102h295.09v-76.104C1064.159,621.415,904.574,621.415,851.38,621.415z M445.363,625.142l23.516-3.726v76.1L445.363,625.142z"/>
</svg>
