<?xml version="1.0" encoding="utf-8"?>
<!-- Generator: Adobe Illustrator 16.0.0, SVG Export Plug-In . SVG Version: 6.00 Build 0)  -->
<!DOCTYPE svg PUBLIC "-//W3C//DTD SVG 1.1//EN" "http://www.w3.org/Graphics/SVG/1.1/DTD/svg11.dtd">
<svg version="1.1" id="Calque_1" xmlns="http://www.w3.org/2000/svg" xmlns:xlink="http://www.w3.org/1999/xlink" x="0px" y="0px"
	 width="1190.551px" height="1190.551px" viewBox="0 0 1190.551 1190.551" enable-background="new 0 0 1190.551 1190.551"
	 xml:space="preserve">
<path fill="#010202" d="M831.571,789.134c-38.5,0-48.898-14-48.898-50c0-53.194,0-212.778,0-212.778h-75.885
	c19.689-19.498,30.006-47.337,30.006-81.554c0-24.752,0-68.716,0-68.716h44.379V298.72v-2.167v-77.367h-44.381
	c0,0,0-43.961,0-68.713c0-69.798-42.895-113.081-120.807-113.081h-65.856V1.682h-64.926h-1.624h-64.926v35.709H352.8
	c-77.911,0-120.81,43.282-120.81,113.08c0,24.754,0,68.713,0,68.713h-46.099v77.369v2.167v77.366h46.1c0,0,0,43.964,0,68.716
	c0,69.798,42.896,113.083,120.809,113.083h65.854v35.707h-81.064v211.096H185.892v224.987h150.195v159.194h226.488V966.841
	l143.993-0.163v154.959h76.102c0,0,0-159.585,0-212.779c0-36,10.398-50,48.898-50h173.092v-32.312v-5.102v-32.312L831.571,789.134z
	 M570.077,731.191v-137.6H550.13v-35.707h65.855c39.578,0,70.111-11.176,90.586-31.315v204.622H570.077z"/>
</svg>
