<?xml version="1.0" encoding="utf-8"?>
<!-- Generator: Adobe Illustrator 16.0.0, SVG Export Plug-In . SVG Version: 6.00 Build 0)  -->
<!DOCTYPE svg PUBLIC "-//W3C//DTD SVG 1.1//EN" "http://www.w3.org/Graphics/SVG/1.1/DTD/svg11.dtd">
<svg version="1.1" id="Calque_1" xmlns="http://www.w3.org/2000/svg" xmlns:xlink="http://www.w3.org/1999/xlink" x="0px" y="0px"
	 width="1190.551px" height="1190.551px" viewBox="0 0 1190.551 1190.551" enable-background="new 0 0 1190.551 1190.551"
	 xml:space="preserve">
<path fill="#010202" d="M778.598,608.519l-5.037-0.797L482.108,561.56l6.648-4.831l1.312-0.954l52.526-38.162l-20.988-28.888
	l53.278-38.708c63.031-45.795,72.293-106.028,31.268-162.496c-14.55-20.024-40.391-55.592-40.391-55.592l35.904-26.086
	l-45.475-62.592l-1.273-1.753l-45.475-62.591l-35.906,26.086c0,0-25.84-35.565-40.389-55.591
	C392.123-7.063,331.978-16.867,268.947,28.929l-53.277,38.709l-20.991-28.89l-52.526,38.163l-1.312,0.954l-52.526,38.162
	l20.989,28.89l-53.277,38.708C-7.008,229.42-16.27,289.653,24.756,346.119c14.55,20.026,40.388,55.59,40.388,55.59L27.85,428.805
	l45.477,62.593l1.273,1.753l45.475,62.592l37.295-27.096c0,0,25.841,35.566,40.39,55.591
	c41.026,56.468,101.173,66.271,164.205,20.477l18.715-13.597l-61.964,121.612L196.114,650.26L90.566,857.408l188.087,95.835
	l-68.87,135.163l200.468,102.145l68.188-133.828l141.845,72.273l102.823-201.803l-197.83-100.799l65.227-128.372L380.683,591.115
	l34.559-25.108l20.988,28.887l45.875-33.331L470.2,636.724c0,0,157.62,24.965,210.159,33.286
	c35.557,5.632,47.758,18.092,41.735,56.118l-27.078,170.96l31.915,5.055l5.036,0.798l31.915,5.055l27.076-170.959
	c6.022-38.026,21.478-46.107,57.034-40.475c52.539,8.321,210.158,33.286,210.158,33.286l11.905-75.165L778.598,608.519z"/>
</svg>
