<?xml version="1.0" encoding="utf-8"?>
<!-- Generator: Adobe Illustrator 16.0.0, SVG Export Plug-In . SVG Version: 6.00 Build 0)  -->
<!DOCTYPE svg PUBLIC "-//W3C//DTD SVG 1.1//EN" "http://www.w3.org/Graphics/SVG/1.1/DTD/svg11.dtd">
<svg version="1.1" id="Calque_1" xmlns="http://www.w3.org/2000/svg" xmlns:xlink="http://www.w3.org/1999/xlink" x="0px" y="0px"
	 width="1190.551px" height="1190.551px" viewBox="0 0 1190.551 1190.551" enable-background="new 0 0 1190.551 1190.551"
	 xml:space="preserve">
<path fill="#010202" d="M874.678,377.323c-38.5,0-48.898-14-48.898-50c0-53.193,0-212.777,0-212.777h-76.102v295.092v5.099v157.49
	H586.106c69.681-0.083,112.88-42.969,112.88-120.807v-65.854h35.707V320.64v-1.624v-64.927h-35.707v-65.855
	c0-77.911-43.283-120.809-113.083-120.809c-24.751,0-68.714,0-68.714,0v-44.38h-77.366h-2.167h-77.367v44.38c0,0-43.961,0-68.713,0
	c-69.797,0-113.081,42.896-113.081,120.809v65.854h-35.71v64.927v1.624v64.926h35.709v65.854c0,77.912,43.283,120.81,113.08,120.81
	c24.754,0,68.713,0,68.713,0v46.099h77.369h2.167h77.365v164.993H365.493v224.988h150.195v159.196h226.488v-222.03l143.994-0.163
	V709.825h-60.393c0-0.084,0-159.598,0-212.777c0-36,10.398-50,48.898-50h173.09v-32.312v-5.1v-32.312L874.678,377.323z"/>
</svg>
