<?xml version="1.0" encoding="utf-8"?>
<!-- Generator: Adobe Illustrator 16.0.0, SVG Export Plug-In . SVG Version: 6.00 Build 0)  -->
<!DOCTYPE svg PUBLIC "-//W3C//DTD SVG 1.1//EN" "http://www.w3.org/Graphics/SVG/1.1/DTD/svg11.dtd">
<svg version="1.1" id="Calque_1" xmlns="http://www.w3.org/2000/svg" xmlns:xlink="http://www.w3.org/1999/xlink" x="0px" y="0px"
	 width="1190.551px" height="1190.551px" viewBox="0 0 1190.551 1190.551" enable-background="new 0 0 1190.551 1190.551"
	 xml:space="preserve">
<path fill="#010202" d="M838.904,608.528l-5.037-0.797L542.413,561.57l6.648-4.831l1.312-0.954l52.526-38.162l-20.988-28.888
	l53.278-38.708c63.03-45.795,72.293-106.028,31.268-162.496c-14.55-20.024-40.391-55.592-40.391-55.592l35.903-26.086
	l-45.475-62.592l-1.272-1.753l-45.476-62.591l-35.906,26.086c0,0-25.84-35.565-40.389-55.591
	c-41.023-56.465-101.169-66.269-164.2-20.473l-53.276,38.709l-20.991-28.89l-52.526,38.163l-1.312,0.954l-52.526,38.162
	l20.989,28.89l-53.277,38.708C53.298,229.43,44.035,289.663,85.062,346.129c14.55,20.026,40.388,55.59,40.388,55.59l-37.294,27.096
	l45.478,62.593l1.272,1.753l45.476,62.592l37.295-27.096c0,0,25.841,35.566,40.39,55.591
	c41.026,56.468,101.173,66.271,164.205,20.477l18.715-13.597L379.022,712.74L256.419,650.27L150.871,857.418l188.087,95.835
	l-68.869,135.163l200.468,102.145l68.188-133.828l141.845,72.273l102.823-201.803l-197.83-100.8l65.228-128.372L440.989,591.125
	l34.56-25.108l20.987,28.887l45.875-33.331l-11.905,75.161c0,0,157.62,24.966,210.159,33.286
	c35.558,5.632,47.758,18.092,41.735,56.118l-27.078,170.96l31.915,5.055l5.036,0.799l31.915,5.055l27.075-170.959
	c6.022-38.026,21.479-46.107,57.034-40.475c52.539,8.32,210.158,33.285,210.158,33.285l11.905-75.165L838.904,608.528z"/>
</svg>
