<?xml version="1.0" encoding="utf-8"?>
<!-- Generator: Adobe Illustrator 16.0.0, SVG Export Plug-In . SVG Version: 6.00 Build 0)  -->
<!DOCTYPE svg PUBLIC "-//W3C//DTD SVG 1.1//EN" "http://www.w3.org/Graphics/SVG/1.1/DTD/svg11.dtd">
<svg version="1.1" id="Calque_1" xmlns="http://www.w3.org/2000/svg" xmlns:xlink="http://www.w3.org/1999/xlink" x="0px" y="0px"
	 width="1190.551px" height="1190.551px" viewBox="0 0 1190.551 1190.551" enable-background="new 0 0 1190.551 1190.551"
	 xml:space="preserve">
<g>
	<polygon fill="#010202" points="477.182,567.136 613.835,379.049 443.056,254.97 532.222,132.244 350.201,0 261.917,121.512 
		133.127,27.939 -0.001,211.171 179.625,341.677 95.12,458.266 285.634,596.682 365.863,486.257 	"/>
	<path fill="#010202" d="M753.259,516.787l-1.576-4.85l-91.188-280.646l-72.377,23.517c0,0,49.314,151.774,65.752,202.364
		c11.125,34.237,5.562,50.767-31.054,62.664l-164.619,53.486l9.984,30.732l1.576,4.848l9.956,30.641
		c-14.483-4.689-31.055-7.152-49.622-7.152h-65.855v-35.71h-64.926h-1.624h-12.053h-52.873v35.709h-65.854
		c-77.911,0-120.809,43.283-120.809,113.08c0,24.754,0,68.713,0,68.713H-0.001v77.369v2.167v77.367h46.1c0,0,0,43.963,0,68.715
		c0,69.798,42.896,113.083,120.808,113.083h65.854v35.707h64.927h1.624h64.926v-35.707h65.855
		c77.911,0,120.808-43.285,120.808-113.083c0-24.752,0-68.715,0-68.715h44.38V893.72v-2.167v-77.366l-44.381-0.001
		c0,0,0-43.961,0-68.713c0-53.104-24.837-90.855-71.031-105.878l164.494-53.448c36.614-11.897,50.831-1.795,61.954,32.443
		c16.439,50.59,65.752,202.362,65.752,202.362l72.379-23.517L753.259,516.787z"/>
</g>
</svg>
