<?xml version="1.0" encoding="utf-8"?>
<!-- Generator: Adobe Illustrator 16.0.0, SVG Export Plug-In . SVG Version: 6.00 Build 0)  -->
<!DOCTYPE svg PUBLIC "-//W3C//DTD SVG 1.1//EN" "http://www.w3.org/Graphics/SVG/1.1/DTD/svg11.dtd">
<svg version="1.1" id="Calque_1" xmlns="http://www.w3.org/2000/svg" xmlns:xlink="http://www.w3.org/1999/xlink" x="0px" y="0px"
	 width="1190.551px" height="1190.551px" viewBox="0 0 1190.551 1190.551" enable-background="new 0 0 1190.551 1190.551"
	 xml:space="preserve">
<g>
	<path fill="#010202" d="M501.93,892.044c-34.304-17.479-37.212-34.673-20.869-66.748c24.149-47.396,96.599-189.587,96.599-189.587
		l-67.805-34.549l14.719-10.693l20.987,28.887l52.526-38.163l1.312-0.954l52.526-38.162l-20.988-28.888l53.278-38.708
		c63.03-45.795,72.293-106.028,31.268-162.496c-14.55-20.024-40.391-55.592-40.391-55.592l35.903-26.086l-45.475-62.592
		l-1.272-1.753l-45.476-62.591l-35.906,26.086c0,0-25.84-35.565-40.389-55.591c-41.023-56.466-101.169-66.271-164.2-20.474
		L325.002,92.1l-20.991-28.89l-52.526,38.163l-1.312,0.954l-52.526,38.162l20.989,28.89l-53.277,38.708
		c-63.034,45.795-72.297,106.028-31.271,162.494c14.55,20.026,40.388,55.59,40.388,55.59l-37.294,27.096l45.478,62.593l1.272,1.753
		l45.476,62.592l37.295-27.096c0,0,25.841,35.566,40.39,55.591c41.026,56.468,101.173,66.271,164.205,20.477l38.556-28.012
		L375.885,864.088l-2.315,4.544L239.6,1131.558l67.809,34.551c0,0,72.449-142.191,96.6-189.587
		c16.344-32.076,31.964-39.829,66.269-22.352l154.225,78.581l14.67-28.79l2.313-4.543l14.67-28.791L501.93,892.044z"/>
	<polygon fill="#010202" points="946.522,666.574 968.046,530.668 738.421,494.299 705.399,702.795 555.57,679.064 520.374,901.284 
		668.721,924.78 643.818,1082.016 867.517,1117.447 902.25,898.15 1044.494,920.514 1081.334,687.925 	"/>
</g>
</svg>
