<?xml version="1.0" encoding="utf-8"?>
<!-- Generator: Adobe Illustrator 16.0.0, SVG Export Plug-In . SVG Version: 6.00 Build 0)  -->
<!DOCTYPE svg PUBLIC "-//W3C//DTD SVG 1.1//EN" "http://www.w3.org/Graphics/SVG/1.1/DTD/svg11.dtd">
<svg version="1.1" id="Calque_1" xmlns="http://www.w3.org/2000/svg" xmlns:xlink="http://www.w3.org/1999/xlink" x="0px" y="0px"
	 width="1190.551px" height="1190.551px" viewBox="0 0 1190.551 1190.551" enable-background="new 0 0 1190.551 1190.551"
	 xml:space="preserve">
<path fill="#010202" d="M957.19,378.184c0,0-49.313,151.774-65.752,202.364c-11.125,34.237-25.34,44.34-61.955,32.442
	l-164.61-53.484c1.688-4.169,3.271-8.509,4.738-13.025l20.351-62.632l33.961,11.034l20.063-61.748l0.502-1.544l20.062-61.749
	l-33.962-11.034l20.352-62.63c24.076-74.1-3.834-128.272-70.214-149.841c-23.542-7.649-65.35-21.233-65.35-21.233l14.245-43.842
	l-73.583-23.909l-2.061-0.669l-73.58-23.908L466.153,76.62c0,0-41.812-13.585-65.352-21.234
	c-66.382-21.569-120.805,5.853-144.88,79.95l-20.35,62.632l-33.959-11.034l-20.063,61.748l-0.502,1.545l-20.063,61.748
	l33.961,11.034l-20.352,62.632c-24.075,74.098,3.835,128.271,70.218,149.84c23.54,7.65,65.352,21.234,65.352,21.234l-13.714,42.208
	l73.579,23.907l2.061,0.67l73.582,23.906l13.712-42.207c0,0,41.811,13.584,65.352,21.233c62.285,20.237,114.04-2.657,140.078-66.772
	l-9.933,30.573l-1.576,4.85l-9.984,30.731l0.136,0.045l-170.778,124.08l-89.165-122.727L201.49,759.459l88.284,121.512
	l-128.791,93.57l133.127,183.234l179.624-130.506l84.77,116.396l190.513-138.418l-80.229-110.424l111.319-80.879L643.454,625.859
	l164.482,53.443c36.615,11.896,42.18,28.426,31.055,62.662c-16.438,50.592-65.752,202.363-65.752,202.363l72.377,23.518
	l91.188-280.648l1.575-4.848l91.189-280.648L957.19,378.184z"/>
</svg>
