<?xml version="1.0" encoding="utf-8"?>
<!-- Generator: Adobe Illustrator 16.0.0, SVG Export Plug-In . SVG Version: 6.00 Build 0)  -->
<!DOCTYPE svg PUBLIC "-//W3C//DTD SVG 1.1//EN" "http://www.w3.org/Graphics/SVG/1.1/DTD/svg11.dtd">
<svg version="1.1" id="Calque_1" xmlns="http://www.w3.org/2000/svg" xmlns:xlink="http://www.w3.org/1999/xlink" x="0px" y="0px"
	 width="1190.551px" height="1190.551px" viewBox="0 0 1190.551 1190.551" enable-background="new 0 0 1190.551 1190.551"
	 xml:space="preserve">
<g>
	<polygon fill="#010202" points="650.235,568.116 786.887,380.029 616.108,255.95 705.274,133.224 523.254,0.98 434.969,122.492 
		306.179,28.919 173.052,212.151 352.677,342.657 268.173,459.246 458.686,597.662 538.915,487.237 	"/>
	<path fill="#010202" d="M926.311,517.767l-1.576-4.85l-91.188-280.646l-72.377,23.517c0,0,49.314,151.774,65.752,202.364
		c11.125,34.237,5.562,50.767-31.055,62.664l-164.619,53.486l9.984,30.731l1.576,4.85l9.957,30.641
		c-14.484-4.689-31.057-7.152-49.623-7.152h-65.855V597.66h-64.926h-1.624h-12.053h-52.873v35.709h-65.854
		c-77.91,0-120.809,43.283-120.809,113.08c0,24.754,0,68.713,0,68.713h-46.098v77.369v2.168v77.367h46.1c0,0,0,43.963,0,68.715
		c0,69.797,42.896,113.082,120.809,113.082h65.854v35.707h64.927h1.624h64.926v-35.707h65.855
		c77.912,0,120.809-43.285,120.809-113.082c0-24.752,0-68.715,0-68.715h44.379v-77.367v-2.166v-77.365l-44.381-0.002
		c0,0,0-43.961,0-68.713c0-53.104-24.836-90.855-71.031-105.879l164.494-53.447c36.615-11.897,50.832-1.795,61.955,32.443
		c16.439,50.59,65.752,202.361,65.752,202.361l72.379-23.518L926.311,517.767z"/>
</g>
</svg>
