<?xml version="1.0" encoding="utf-8"?>
<!-- Generator: Adobe Illustrator 16.0.0, SVG Export Plug-In . SVG Version: 6.00 Build 0)  -->
<!DOCTYPE svg PUBLIC "-//W3C//DTD SVG 1.1//EN" "http://www.w3.org/Graphics/SVG/1.1/DTD/svg11.dtd">
<svg version="1.1" id="Calque_1" xmlns="http://www.w3.org/2000/svg" xmlns:xlink="http://www.w3.org/1999/xlink" x="0px" y="0px"
	 width="1190.551px" height="1190.551px" viewBox="0 0 1190.551 1190.551" enable-background="new 0 0 1190.551 1190.551"
	 xml:space="preserve">
<path fill="#010202" d="M868.54,285.821c-38.5,0-48.896-14-48.896-50c0-53.193,0-212.777,0-212.777H743.54v295.092v5.099v295.086
	c-0.008,0-0.016,0-0.022,0c-24.754,0-68.713,0-68.713,0v-46.098h-77.369h-2.167h-77.367v46.099h-0.001V407.228h151.697V182.238
	H519.401V23.043H292.913v222.028l-143.993,0.164v235.488h136.493v137.599h163.672c-69.738,0.042-112.982,42.934-112.982,120.809
	v65.855h-35.707v64.926v1.623v64.928h35.707v65.855c0,77.91,43.285,120.809,113.083,120.809c24.752,0,68.715,0,68.715,0v44.381
	h77.367h2.167h77.367v-44.383c0,0,43.961,0,68.713,0c69.797,0,113.081-42.896,113.081-120.807v-65.855h35.71v-64.93v-1.623v-64.928
	h-35.709v-65.854c0-77.76-43.117-120.64-112.675-120.807h75.722c0,0,0-159.585,0-212.778c0-36,10.396-50,48.896-50h173.092v-32.311
	v-5.1V285.82L868.54,285.821z"/>
</svg>
