<?xml version="1.0" encoding="utf-8"?>
<!-- Generator: Adobe Illustrator 16.0.0, SVG Export Plug-In . SVG Version: 6.00 Build 0)  -->
<!DOCTYPE svg PUBLIC "-//W3C//DTD SVG 1.1//EN" "http://www.w3.org/Graphics/SVG/1.1/DTD/svg11.dtd">
<svg version="1.1" id="Calque_1" xmlns="http://www.w3.org/2000/svg" xmlns:xlink="http://www.w3.org/1999/xlink" x="0px" y="0px"
	 width="1190.551px" height="1190.551px" viewBox="0 0 1190.551 1190.551" enable-background="new 0 0 1190.551 1190.551"
	 xml:space="preserve">
<path fill="#010202" d="M755.748,409.044c-34.304-17.479-37.212-34.675-20.867-66.75c24.149-47.396,96.599-189.586,96.599-189.586
	l-67.808-34.55L629.704,381.086l-2.315,4.542l-5.138,10.083c15.805-34.43,10.137-72.079-16.099-108.189
	c-14.55-20.024-40.391-55.592-40.391-55.592l35.904-26.086l-45.475-62.592l-1.273-1.753l-45.475-62.591l-35.906,26.086
	c0,0-25.84-35.565-40.389-55.591C392.123-7.063,331.978-16.867,268.947,28.929l-53.277,38.709l-20.991-28.89l-52.526,38.163
	l-1.312,0.954l-52.526,38.162l20.989,28.89l-53.277,38.708C-7.008,229.42-16.27,289.653,24.756,346.119
	c14.55,20.026,40.388,55.59,40.388,55.59L27.85,428.805l45.477,62.593l1.273,1.753l45.475,62.592l37.295-27.096
	c0,0,25.841,35.566,40.39,55.591c41.026,56.468,101.173,66.271,164.205,20.477l18.715-13.597l-61.964,121.612L196.114,650.26
	L90.566,857.408l188.087,95.835l-68.87,135.163l200.468,102.145l68.188-133.828l141.845,72.273l102.823-201.803l-197.83-100.799
	l65.227-128.372L380.683,591.115l34.559-25.108l20.988,28.887l52.526-38.163l1.312-0.954l52.526-38.162l-20.988-28.888
	l53.278-38.708c19.686-14.303,34.127-30.014,43.429-46.579L493.42,648.556l67.808,34.549c0,0,72.449-142.191,96.6-189.587
	c16.344-32.076,31.965-39.83,66.268-22.352l154.225,78.582l14.67-28.791l2.313-4.543l14.67-28.791L755.748,409.044z"/>
</svg>
