<?xml version="1.0" encoding="utf-8"?>
<!-- Generator: Adobe Illustrator 16.0.0, SVG Export Plug-In . SVG Version: 6.00 Build 0)  -->
<!DOCTYPE svg PUBLIC "-//W3C//DTD SVG 1.1//EN" "http://www.w3.org/Graphics/SVG/1.1/DTD/svg11.dtd">
<svg version="1.1" id="Calque_1" xmlns="http://www.w3.org/2000/svg" xmlns:xlink="http://www.w3.org/1999/xlink" x="0px" y="0px"
	 width="1190.551px" height="1190.551px" viewBox="0 0 1190.551 1190.551" enable-background="new 0 0 1190.551 1190.551"
	 xml:space="preserve">
<path fill="#010202" d="M856.875,530.791c-34.305-17.479-37.213-34.673-20.869-66.749c24.148-47.396,96.6-189.587,96.6-189.587
	l-67.809-34.549l-77.101,151.316l-41.072-20.927c0,0,19.959-39.172,31.195-61.226c31.688-62.19,13.117-120.232-56.303-155.604
	l-58.677-29.897l16.211-31.815L621.2,62.277l-1.446-0.737l-57.85-29.476l-16.211,31.814L487.015,33.98
	C417.597-1.39,359.725,17.702,328.038,79.892c-11.238,22.055-31.196,61.226-31.196,61.226l-39.543-20.148l-35.124,68.935
	l-0.983,1.931l-35.124,68.934l39.544,20.15c0,0-19.958,39.169-31.194,61.224c-31.688,62.189-13.117,120.23,56.303,155.602
	l58.677,29.897l-16.212,31.817l57.851,29.477l1.446,0.737l57.85,29.475l16.212-31.817l58.677,29.897
	c69.421,35.371,127.293,16.281,158.979-45.909c11.237-22.056,31.194-61.224,31.194-61.224l41.072,20.928l-121.92,239.28
	l67.802,34.548l-79.045-12.521l22.366-142.244l-232.59-36.84L351.724,748.06L215.82,726.535l-36.369,229.626l208.496,33.021
	l-23.731,149.83l222.22,35.196l23.497-148.349l157.234,24.902l35.431-223.698l-140.244-22.214
	c0.034-0.065,72.455-142.2,96.599-189.586c16.345-32.076,31.966-39.83,66.269-22.352l154.225,78.583l14.67-28.79l2.315-4.543
	l14.671-28.792L856.875,530.791z"/>
</svg>
