<?xml version="1.0" encoding="utf-8"?>
<!-- Generator: Adobe Illustrator 16.0.0, SVG Export Plug-In . SVG Version: 6.00 Build 0)  -->
<!DOCTYPE svg PUBLIC "-//W3C//DTD SVG 1.1//EN" "http://www.w3.org/Graphics/SVG/1.1/DTD/svg11.dtd">
<svg version="1.1" id="Calque_1" xmlns="http://www.w3.org/2000/svg" xmlns:xlink="http://www.w3.org/1999/xlink" x="0px" y="0px"
	 width="1190.551px" height="1190.551px" viewBox="0 0 1190.551 1190.551" enable-background="new 0 0 1190.551 1190.551"
	 xml:space="preserve">
<g>
	<polygon fill="#010202" points="726.733,680.55 591.92,701.901 570.395,565.996 340.769,602.366 373.791,810.863 223.963,834.593 
		259.158,1056.812 407.507,1033.316 432.411,1190.551 656.11,1155.12 621.376,935.823 763.573,913.137 	"/>
	<path fill="#010202" d="M818.53,280.223l-3.605-3.605l-208.66-208.66l-53.812,53.812c0,0,5.188,5.188,13.692,13.692l-42.206,13.715
		c0,0-13.585-41.809-21.233-65.35c-21.569-66.381-75.742-94.29-149.841-70.214l-62.631,20.35L279.197-0.001l-61.748,20.063
		l-1.545,0.502l-61.748,20.062l11.035,33.962l-62.631,20.35C28.461,119.015,1.037,173.436,22.606,239.817
		c7.649,23.543,21.233,65.35,21.233,65.35l-43.842,14.245l23.909,73.584l0.67,2.061l23.908,73.58l43.843-14.245
		c0,0,13.585,41.812,21.232,65.351c21.57,66.382,75.741,94.293,149.84,70.217l62.632-20.351l11.035,33.961l61.748-20.063
		l1.545-0.502l61.749-20.063l-11.034-33.96l62.633-20.35c30.556-9.928,53.166-25.021,67.685-43.981l22.751,22.75l3.605,3.605
		l22.85,22.85L752.99,391.459c27.226-27.224,44.477-24.676,69.932,0.779c37.615,37.614,150.457,150.456,150.457,150.456
		l53.812-53.812L818.53,280.223z M703.689,342.158L582.015,463.83c20.152-26.902,24.188-61.466,11.641-100.08
		c-7.648-23.54-21.234-65.353-21.234-65.353l42.208-13.715l-23.908-73.58l-0.669-2.062l-23.908-73.579
		c31.206,31.206,107.207,107.207,136.764,136.764C728.365,297.683,730.912,314.935,703.689,342.158z"/>
</g>
</svg>
