<?xml version="1.0" encoding="utf-8"?>
<!-- Generator: Adobe Illustrator 16.0.0, SVG Export Plug-In . SVG Version: 6.00 Build 0)  -->
<!DOCTYPE svg PUBLIC "-//W3C//DTD SVG 1.1//EN" "http://www.w3.org/Graphics/SVG/1.1/DTD/svg11.dtd">
<svg version="1.1" id="Calque_1" xmlns="http://www.w3.org/2000/svg" xmlns:xlink="http://www.w3.org/1999/xlink" x="0px" y="0px"
	 width="1190.551px" height="1190.551px" viewBox="0 0 1190.551 1190.551" enable-background="new 0 0 1190.551 1190.551"
	 xml:space="preserve">
<path fill="#010202" d="M831.569,333.409c-38.5,0-48.898-14-48.898-50c0-53.193,0-212.777,0-212.777h-76.102v90.244H556.372V1.681
	H329.885v222.028l-143.993,0.164v235.488h136.493v137.598h94.551v35.708h-65.854c-77.911,0-120.809,43.284-120.809,113.083
	c0,24.752,0,68.715,0,68.715h-44.38v77.367v2.167v77.366h44.38c0,0,0,43.961,0,68.714c0,69.797,42.896,113.08,120.809,113.08h65.854
	v35.711h64.927h1.624h64.926v-35.709h65.854c77.91,0,120.811-43.283,120.811-113.08c0-24.754,0-68.713,0-68.713h46.098v-77.369
	v-2.167v-77.367h-46.1c0,0,0-43.963,0-68.715c0-33.228-9.729-60.438-28.318-79.839h75.914c0,0,0-159.584,0-212.778
	c0-36,10.398-50,48.898-50h173.092v-32.312v-5.1v-32.313L831.569,333.409z M614.268,632.667h-65.856V596.96h6.46V385.865h151.697
	v279.852C686.104,644.483,654.965,632.667,614.268,632.667z"/>
</svg>
