<?xml version="1.0" encoding="utf-8"?>
<!-- Generator: Adobe Illustrator 16.0.0, SVG Export Plug-In . SVG Version: 6.00 Build 0)  -->
<!DOCTYPE svg PUBLIC "-//W3C//DTD SVG 1.1//EN" "http://www.w3.org/Graphics/SVG/1.1/DTD/svg11.dtd">
<svg version="1.1" id="Calque_1" xmlns="http://www.w3.org/2000/svg" xmlns:xlink="http://www.w3.org/1999/xlink" x="0px" y="0px"
	 width="1190.551px" height="1190.551px" viewBox="0 0 1190.551 1190.551" enable-background="new 0 0 1190.551 1190.551"
	 xml:space="preserve">
<path fill="#010202" d="M705.783,569.9c-31.147-22.63-31.33-40.068-10.17-69.192c31.267-43.035,125.067-172.141,125.067-172.141
	l-61.568-44.731l-173.45,238.733l-2.997,4.125l-173.448,238.73l16.999-108.113l-154.662-24.496
	c28.058,3.804,58.871-5.19,90.407-28.103l53.277-38.709l20.99,28.889l52.526-38.162l1.314-0.954l52.526-38.163l-20.989-28.889
	l53.276-38.708c63.032-45.796,72.297-106.027,31.27-162.494c-14.55-20.027-40.388-55.59-40.388-55.59l37.294-27.096l-45.477-62.593
	l-1.273-1.753l-45.476-62.592l-37.295,27.096c0,0-25.841-35.566-40.39-55.592C392.122-7.064,331.977-16.87,268.945,28.926
	l-53.278,38.708l-20.987-28.887l-52.526,38.162l-1.314,0.954l-52.526,38.162l20.988,28.888l-53.277,38.708
	C-7.009,229.416-16.271,289.65,24.754,346.117c14.549,20.024,40.39,55.591,40.39,55.591L29.24,427.794l45.476,62.592l1.273,1.753
	l45.477,62.591l35.905-26.083c0,0,25.839,35.565,40.388,55.59c19.608,26.988,43.586,43.308,70.157,48.002l-74.288-11.767
	l-21.354,134.812L36.369,733.759L0,963.386l208.496,33.022l-23.731,149.829l222.22,35.196l23.496-148.348l157.235,24.903
	l35.431-223.699l-152.362-24.132c0.038-0.053,93.807-129.115,125.067-172.142c21.16-29.124,37.802-34.34,68.947-11.71
	l140.033,101.74l18.994-26.14l2.997-4.125l18.993-26.143L705.783,569.9z M403.851,799.557l5.366-34.129l61.564,44.729
	L403.851,799.557z"/>
</svg>
