<?xml version="1.0" encoding="utf-8"?>
<!-- Generator: Adobe Illustrator 16.0.0, SVG Export Plug-In . SVG Version: 6.00 Build 0)  -->
<!DOCTYPE svg PUBLIC "-//W3C//DTD SVG 1.1//EN" "http://www.w3.org/Graphics/SVG/1.1/DTD/svg11.dtd">
<svg version="1.1" id="Calque_1" xmlns="http://www.w3.org/2000/svg" xmlns:xlink="http://www.w3.org/1999/xlink" x="0px" y="0px"
	 width="1190.551px" height="1190.551px" viewBox="0 0 1190.551 1190.551" enable-background="new 0 0 1190.551 1190.551"
	 xml:space="preserve">
<path fill="#010202" d="M645.678,331.728c-38.5,0-48.898-14-48.898-50c0-53.193,0-212.777,0-212.777h-76.102v90.244H370.481V0
	H143.993v222.028L0,222.192V457.68h136.493v137.599h94.551v35.707H165.19c-77.911,0-120.809,43.285-120.809,113.083
	c0,24.752,0,68.715,0,68.715H0.001v77.367v2.167v77.367h44.38c0,0,0,43.961,0,68.713c0,69.797,42.896,113.081,120.809,113.081
	h65.854v35.71h64.927h1.624h64.926v-35.709h65.854c77.911,0,120.81-43.283,120.81-113.08c0-24.754,0-68.713,0-68.713h46.098v-77.369
	v-2.167v-77.367h-46.099c0,0,0-43.963,0-68.715c0-33.227-9.728-60.438-28.319-79.839h75.915c0,0,0-159.584,0-212.778
	c0-36,10.398-50,48.898-50h173.091V369.14v-5.1v-32.313L645.678,331.728z M428.376,630.986h-65.855v-35.707h6.46V384.184h151.697
	v279.852C500.212,642.803,469.075,630.986,428.376,630.986z"/>
</svg>
