<?xml version="1.0" encoding="utf-8"?>
<!-- Generator: Adobe Illustrator 16.0.0, SVG Export Plug-In . SVG Version: 6.00 Build 0)  -->
<!DOCTYPE svg PUBLIC "-//W3C//DTD SVG 1.1//EN" "http://www.w3.org/Graphics/SVG/1.1/DTD/svg11.dtd">
<svg version="1.1" id="Calque_1" xmlns="http://www.w3.org/2000/svg" xmlns:xlink="http://www.w3.org/1999/xlink" x="0px" y="0px"
	 width="1190.551px" height="1190.551px" viewBox="0 0 1190.551 1190.551" enable-background="new 0 0 1190.551 1190.551"
	 xml:space="preserve">
<g>
	<path fill="#010202" d="M148.632,393.454l0.671,2.061l23.907,73.58l43.844-14.245c0,0,13.585,41.812,21.231,65.351
		c21.57,66.382,75.741,94.293,149.84,70.217l62.632-20.351l11.035,33.961l61.748-20.063l1.545-0.502l61.749-20.063L575.8,529.44
		l62.633-20.35c74.099-24.076,101.52-78.499,79.949-144.88c-7.647-23.54-21.233-65.353-21.233-65.353l42.208-13.715l-23.908-73.58
		l-0.669-2.062l-23.908-73.58l-42.207,13.715c0,0-13.585-41.809-21.233-65.35c-21.568-66.381-75.742-94.29-149.841-70.214
		l-62.631,20.35L403.923,0.458l-61.747,20.063l-1.546,0.502l-61.748,20.062l11.035,33.962l-62.631,20.35
		c-74.099,24.077-101.522,78.498-79.954,144.879c7.649,23.543,21.233,65.35,21.233,65.35l-43.842,14.245L148.632,393.454z"/>
	<path fill="#010202" d="M472.69,728.861c-6.023-38.026,6.178-50.486,41.733-56.118c52.539-8.321,210.158-33.286,210.158-33.286
		l-11.904-75.164L421.22,610.456l-5.036,0.798l-291.457,46.161l11.904,75.165c0,0,157.62-24.965,210.159-33.286
		c35.558-5.632,51.012,2.448,57.033,40.475l27.078,170.959l31.914-5.055l5.036-0.797l31.915-5.055L472.69,728.861z"/>
	<polygon fill="#010202" points="1065.827,774.469 901.433,610.076 752.167,759.343 644.901,652.077 485.811,811.168 
		592.014,917.372 479.447,1029.941 639.597,1190.093 796.596,1033.093 898.531,1134.796 1065.045,968.282 968.531,871.767 	"/>
</g>
</svg>
