<?xml version="1.0" encoding="utf-8"?>
<!-- Generator: Adobe Illustrator 16.0.0, SVG Export Plug-In . SVG Version: 6.00 Build 0)  -->
<!DOCTYPE svg PUBLIC "-//W3C//DTD SVG 1.1//EN" "http://www.w3.org/Graphics/SVG/1.1/DTD/svg11.dtd">
<svg version="1.1" id="Calque_1" xmlns="http://www.w3.org/2000/svg" xmlns:xlink="http://www.w3.org/1999/xlink" x="0px" y="0px"
	 width="1190.551px" height="1190.551px" viewBox="0 0 1190.551 1190.551" enable-background="new 0 0 1190.551 1190.551"
	 xml:space="preserve">
<path fill="#010202" d="M867.184,444.068c-38.5,0-48.896-14-48.896-50c0-53.193,0-212.778,0-212.778h-76.104v87.051h-35.707v-65.855
	c0-77.911-43.282-120.809-113.083-120.809c-24.75,0-68.714,0-68.714,0v-44.38h-77.366h-2.167H367.78v44.38c0,0-43.961,0-68.713,0
	c-69.797,0-113.081,42.896-113.081,120.809v65.854h-35.71v64.927v1.624v64.926h35.709v65.854c0,77.912,43.283,120.81,113.08,120.81
	c24.754,0,68.713,0,68.713,0v46.096h-79.903V769.07H150.276v232.487H361.37v151.696H586.36v-150.196h159.193V776.571h72.734
	c0,0,0-159.585,0-212.778c0-36,10.396-50,48.896-50h173.093v-32.312v-5.1v-32.313H867.184z M523.526,776.57l-0.163-143.99h1.316
	v-46.1c0,0,43.965,0,68.715,0c69.801,0,113.083-42.896,113.083-120.809v-65.854h35.707v76.564v5.1V776.57H523.526L523.526,776.57z"
	/>
</svg>
