<?xml version="1.0" encoding="utf-8"?>
<!-- Generator: Adobe Illustrator 16.0.0, SVG Export Plug-In . SVG Version: 6.00 Build 0)  -->
<!DOCTYPE svg PUBLIC "-//W3C//DTD SVG 1.1//EN" "http://www.w3.org/Graphics/SVG/1.1/DTD/svg11.dtd">
<svg version="1.1" id="Calque_1" xmlns="http://www.w3.org/2000/svg" xmlns:xlink="http://www.w3.org/1999/xlink" x="0px" y="0px"
	 width="1190.551px" height="1190.551px" viewBox="0 0 1190.551 1190.551" enable-background="new 0 0 1190.551 1190.551"
	 xml:space="preserve">
<g>
	<path fill="#010202" d="M23.906,392.995l0.67,2.061l23.908,73.58l43.843-14.245c0,0,13.585,41.812,21.232,65.351
		c21.57,66.382,75.741,94.293,149.84,70.217l62.632-20.351l11.035,33.961l61.748-20.063l1.545-0.502l61.749-20.063l-11.034-33.96
		l62.633-20.35c74.098-24.076,101.519-78.499,79.949-144.88c-7.648-23.54-21.234-65.353-21.234-65.353l42.208-13.715l-23.908-73.58
		l-0.669-2.062l-23.908-73.58l-42.207,13.715c0,0-13.585-41.809-21.233-65.35c-21.569-66.381-75.742-94.29-149.841-70.214
		l-62.631,20.35L279.197-0.001l-61.748,20.063l-1.545,0.502l-61.748,20.062l11.035,33.962l-62.631,20.35
		C28.461,119.015,1.037,173.436,22.606,239.817c7.649,23.543,21.233,65.35,21.233,65.35l-43.842,14.245L23.906,392.995z"/>
	<path fill="#010202" d="M347.963,728.402c-6.023-38.026,6.178-50.486,41.734-56.118c52.539-8.321,210.158-33.286,210.158-33.286
		l-11.904-75.164l-291.458,46.163l-5.036,0.798L0,656.956l11.905,75.165c0,0,157.62-24.965,210.159-33.286
		c35.557-5.632,51.011,2.448,57.033,40.475l27.078,170.959l31.914-5.055l5.036-0.797l31.915-5.055L347.963,728.402z"/>
	<polygon fill="#010202" points="941.101,774.01 776.707,609.617 627.441,758.884 520.174,651.618 361.084,810.709 467.288,916.913 
		354.72,1029.482 514.871,1189.634 671.87,1032.634 773.804,1134.337 940.319,967.823 843.805,871.308 	"/>
</g>
</svg>
