<?xml version="1.0" encoding="utf-8"?>
<!-- Generator: Adobe Illustrator 16.0.0, SVG Export Plug-In . SVG Version: 6.00 Build 0)  -->
<!DOCTYPE svg PUBLIC "-//W3C//DTD SVG 1.1//EN" "http://www.w3.org/Graphics/SVG/1.1/DTD/svg11.dtd">
<svg version="1.1" id="Calque_1" xmlns="http://www.w3.org/2000/svg" xmlns:xlink="http://www.w3.org/1999/xlink" x="0px" y="0px"
	 width="1190.551px" height="1190.551px" viewBox="0 0 1190.551 1190.551" enable-background="new 0 0 1190.551 1190.551"
	 xml:space="preserve">
<path fill="#010202" d="M645.678,330.016c-38.5,0-48.898-14-48.898-50c0-53.193,0-212.777,0-212.777h-76.102v91.956H370.481V0
	H143.993v222.028L0,222.192V457.68h136.493v137.599h96.268v35.709h-65.854c-77.911,0-120.809,43.283-120.809,113.08
	c0,24.754,0,68.713,0,68.713H-0.001v77.369v2.167v77.367h46.1c0,0,0,43.963,0,68.715c0,69.798,42.896,113.083,120.808,113.083
	h65.854v35.707h64.927h1.624h64.926v-35.707h65.855c77.911,0,120.808-43.285,120.808-113.083c0-24.752,0-68.715,0-68.715h44.38
	v-77.367v-2.167v-77.367H550.9c0,0,0-43.961,0-68.713c0-34.216-10.315-62.054-30.003-81.551h75.883c0,0,0-159.585,0-212.778
	c0-36,10.398-50,48.898-50h173.091v-32.312v-5.1v-32.314L645.678,330.016z M430.092,630.989h-65.855v-35.71h4.744V384.184h151.697
	v278.12C500.204,642.164,469.67,630.989,430.092,630.989z"/>
</svg>
