<?xml version="1.0" encoding="utf-8"?>
<!-- Generator: Adobe Illustrator 16.0.0, SVG Export Plug-In . SVG Version: 6.00 Build 0)  -->
<!DOCTYPE svg PUBLIC "-//W3C//DTD SVG 1.1//EN" "http://www.w3.org/Graphics/SVG/1.1/DTD/svg11.dtd">
<svg version="1.1" id="Calque_1" xmlns="http://www.w3.org/2000/svg" xmlns:xlink="http://www.w3.org/1999/xlink" x="0px" y="0px"
	 width="1190.551px" height="1190.551px" viewBox="0 0 1190.551 1190.551" enable-background="new 0 0 1190.551 1190.551"
	 xml:space="preserve">
<path fill="#010202" d="M854.864,394.067c0,0,0,159.585,0,212.779c0,36-10.396,50-48.896,50H632.875v32.312v5.101v32.312
	l173.092-0.001c38.5,0,48.895,14,48.895,50H632.834l-0.162-143.99h1.316v-46.1c0,0,43.965,0,68.715,0
	c69.801,0,113.082-42.896,113.082-120.809v-65.854h35.707v-64.926v-1.624V268.34h-35.707v-65.854
	c0-77.911-43.283-120.809-113.082-120.809c-24.752,0-68.715,0-68.715,0v-44.38h-77.366h-2.167h-77.367v44.38c0,0-43.961,0-68.713,0
	c-69.797,0-113.081,42.896-113.081,120.809v65.854h-35.71v64.927v1.624v64.926h35.709v65.854c0,77.912,43.283,120.81,113.08,120.81
	c24.754,0,68.713,0,68.713,0v46.096h-79.903V769.07H259.585v232.487h211.095v151.696h224.989v-150.196h159.193v-13.71h76.105
	V694.257v-5.101v-295.09L854.864,394.067L854.864,394.067z"/>
</svg>
