<?xml version="1.0" encoding="utf-8"?>
<!-- Generator: Adobe Illustrator 16.0.0, SVG Export Plug-In . SVG Version: 6.00 Build 0)  -->
<!DOCTYPE svg PUBLIC "-//W3C//DTD SVG 1.1//EN" "http://www.w3.org/Graphics/SVG/1.1/DTD/svg11.dtd">
<svg version="1.1" id="Calque_1" xmlns="http://www.w3.org/2000/svg" xmlns:xlink="http://www.w3.org/1999/xlink" x="0px" y="0px"
	 width="1190.551px" height="1190.551px" viewBox="0 0 1190.551 1190.551" enable-background="new 0 0 1190.551 1190.551"
	 xml:space="preserve">
<path fill="#010202" d="M831.57,331.697c-38.5,0-48.898-14-48.898-50c0-53.193,0-212.777,0-212.777H706.57v91.956H556.372V1.681
	H329.885v222.028l-143.993,0.164v235.488h136.493v137.598h96.268v35.71h-65.854c-77.91,0-120.809,43.283-120.809,113.08
	c0,24.754,0,68.713,0,68.713h-46.099v77.369v2.167v77.366h46.1c0,0,0,43.964,0,68.716c0,69.798,42.896,113.083,120.809,113.083
	h65.854v35.707h64.927h1.624h64.926v-35.707h65.855c77.911,0,120.808-43.285,120.808-113.083c0-24.752,0-68.716,0-68.716h44.38
	v-77.366v-2.167v-77.367h-44.381c0,0,0-43.961,0-68.713c0-34.216-10.314-62.055-30.003-81.551h75.883c0,0,0-159.585,0-212.778
	c0-36,10.398-50,48.898-50h173.091V369.11v-5.1v-32.314L831.57,331.697z M615.984,632.67h-65.855v-35.711h4.744V385.865H706.57
	v278.12C686.095,643.845,655.562,632.67,615.984,632.67z"/>
</svg>
