<?xml version="1.0" encoding="utf-8"?>
<!-- Generator: Adobe Illustrator 16.0.0, SVG Export Plug-In . SVG Version: 6.00 Build 0)  -->
<!DOCTYPE svg PUBLIC "-//W3C//DTD SVG 1.1//EN" "http://www.w3.org/Graphics/SVG/1.1/DTD/svg11.dtd">
<svg version="1.1" id="Calque_1" xmlns="http://www.w3.org/2000/svg" xmlns:xlink="http://www.w3.org/1999/xlink" x="0px" y="0px"
	 width="1190.551px" height="1190.551px" viewBox="0 0 1190.551 1190.551" enable-background="new 0 0 1190.551 1190.551"
	 xml:space="preserve">
<path fill="#010202" d="M878.208,574.47c-31.146-22.63-31.33-40.068-10.17-69.192c31.268-43.035,125.067-172.141,125.067-172.141
	l-61.568-44.731l-173.45,238.733l-2.997,4.125l-173.447,238.73l16.999-108.113L443.98,637.385
	c28.058,3.805,58.871-5.189,90.407-28.104l53.276-38.708l20.99,28.889L661.18,561.3l1.313-0.954l52.526-38.163l-20.989-28.889
	l53.276-38.708c63.031-45.796,72.297-106.027,31.27-162.494c-14.55-20.027-40.388-55.59-40.388-55.59l37.294-27.096l-45.478-62.593
	l-1.272-1.753l-45.477-62.592l-37.295,27.096c0,0-25.841-35.566-40.39-55.592C564.548-2.494,504.403-12.3,441.37,33.496
	l-53.277,38.708l-20.987-28.887l-52.526,38.162l-1.313,0.954l-52.526,38.162l20.988,28.888l-53.277,38.708
	c-63.033,45.795-72.296,106.029-31.271,162.496c14.549,20.024,40.39,55.591,40.39,55.591l-35.903,26.086l45.476,62.592l1.272,1.753
	l45.478,62.591l35.905-26.083c0,0,25.839,35.565,40.388,55.59c19.608,26.988,43.586,43.309,70.157,48.002l-74.288-11.768
	l-21.354,134.812l-135.904-21.525l-36.369,229.627l208.496,33.023l-23.731,149.828l222.22,35.195l23.496-148.348l157.235,24.904
	l35.431-223.699L643.21,814.727c0.038-0.053,93.808-129.115,125.067-172.143c21.16-29.123,37.802-34.34,68.947-11.709
	l140.033,101.74l18.993-26.141l2.997-4.125l18.993-26.143L878.208,574.47z M576.277,804.127l5.366-34.129l61.563,44.729
	L576.277,804.127z"/>
</svg>
