<?xml version="1.0" encoding="utf-8"?>
<!-- Generator: Adobe Illustrator 16.0.0, SVG Export Plug-In . SVG Version: 6.00 Build 0)  -->
<!DOCTYPE svg PUBLIC "-//W3C//DTD SVG 1.1//EN" "http://www.w3.org/Graphics/SVG/1.1/DTD/svg11.dtd">
<svg version="1.1" id="Calque_1" xmlns="http://www.w3.org/2000/svg" xmlns:xlink="http://www.w3.org/1999/xlink" x="0px" y="0px"
	 width="1190.551px" height="1190.551px" viewBox="0 0 1190.551 1190.551" enable-background="new 0 0 1190.551 1190.551"
	 xml:space="preserve">
<g>
	<polygon fill="#010202" points="808.414,680.551 673.602,701.902 652.076,565.997 422.45,602.367 455.473,810.863 305.645,834.594 
		340.84,1056.812 489.189,1033.316 514.092,1190.551 737.791,1155.121 703.057,935.824 845.254,913.137 	"/>
	<path fill="#010202" d="M900.211,280.224l-3.604-3.605l-208.66-208.66l-53.812,53.812c0,0,5.188,5.188,13.692,13.692
		l-42.206,13.715c0,0-13.585-41.809-21.233-65.35c-21.568-66.381-75.741-94.29-149.84-70.214l-62.632,20.35L360.878,0
		l-61.747,20.063l-1.546,0.502l-61.748,20.062l11.035,33.962l-62.631,20.35c-74.099,24.077-101.522,78.498-79.954,144.879
		c7.649,23.543,21.233,65.35,21.233,65.35l-43.842,14.245l23.908,73.584l0.671,2.061l23.907,73.58l43.844-14.245
		c0,0,13.585,41.812,21.231,65.351c21.57,66.382,75.741,94.293,149.84,70.217l62.632-20.351l11.035,33.961l61.748-20.063
		l1.545-0.502l61.749-20.063l-11.034-33.96l62.633-20.35c30.557-9.928,53.166-25.021,67.686-43.981l22.751,22.75l3.604,3.605
		l22.851,22.85l122.392-122.397c27.227-27.224,44.478-24.676,69.933,0.779c37.614,37.614,150.457,150.456,150.457,150.456
		l53.812-53.812L900.211,280.224z M785.37,342.159L663.697,463.831c20.151-26.902,24.188-61.466,11.641-100.08
		c-7.647-23.54-21.233-65.353-21.233-65.353l42.208-13.715l-23.908-73.58l-0.669-2.062l-23.908-73.579
		c31.206,31.206,107.207,107.207,136.764,136.764C810.046,297.684,812.593,314.936,785.37,342.159z"/>
</g>
</svg>
