<?xml version="1.0" encoding="utf-8"?>
<!-- Generator: Adobe Illustrator 16.0.0, SVG Export Plug-In . SVG Version: 6.00 Build 0)  -->
<!DOCTYPE svg PUBLIC "-//W3C//DTD SVG 1.1//EN" "http://www.w3.org/Graphics/SVG/1.1/DTD/svg11.dtd">
<svg version="1.1" id="Calque_1" xmlns="http://www.w3.org/2000/svg" xmlns:xlink="http://www.w3.org/1999/xlink" x="0px" y="0px"
	 width="1190.551px" height="1190.551px" viewBox="0 0 1190.551 1190.551" enable-background="new 0 0 1190.551 1190.551"
	 xml:space="preserve">
<path fill="#010202" d="M636.26,515.679l-164.619,53.488l9.984,30.73l1.576,4.849l9.985,30.731l164.619-53.488
	c36.615-11.897,50.829-1.796,61.954,32.442c16.438,50.591,65.752,202.364,65.752,202.364l72.378-23.517l-91.188-280.648l-1.575-4.85
	l-91.188-280.647l-72.377,23.517c0,0,10.128,31.169,22.733,69.966c-4.148-11.085-10.198-22.16-18.143-33.095
	c-14.55-20.027-40.388-55.59-40.388-55.59l37.294-27.096l-45.477-62.593l-1.273-1.753l-45.476-62.592l-37.295,27.096
	c0,0-25.841-35.566-40.39-55.592C392.122-7.064,331.977-16.87,268.945,28.926l-53.278,38.708l-20.987-28.887l-52.526,38.162
	l-1.314,0.954l-52.526,38.162l20.988,28.888l-53.277,38.708C-7.009,229.416-16.271,289.65,24.754,346.117
	c14.549,20.024,40.39,55.591,40.39,55.591L29.24,427.794l45.476,62.592l1.273,1.753l45.477,62.591l35.905-26.083
	c0,0,25.839,35.565,40.388,55.59c41.026,56.467,101.172,66.271,164.203,20.476l2.193-1.594l-42.179,129.812L191.112,690.41
	L119.269,911.52l200.764,65.232l-46.877,144.272l213.977,69.525l46.415-142.846l151.402,49.193l69.988-215.402l-211.162-68.611
	l44.342-136.995l-223.963-72.771l51.084-37.115l20.99,28.889l52.526-38.162l1.314-0.954l52.526-38.163l-20.989-28.889l53.276-38.708
	c47.275-34.348,64.305-76.816,52.555-119.727c14.578,44.866,31.497,96.939,39.876,122.727
	C678.439,487.254,672.876,503.781,636.26,515.679z"/>
</svg>
