<?xml version="1.0" encoding="utf-8"?>
<!-- Generator: Adobe Illustrator 16.0.0, SVG Export Plug-In . SVG Version: 6.00 Build 0)  -->
<!DOCTYPE svg PUBLIC "-//W3C//DTD SVG 1.1//EN" "http://www.w3.org/Graphics/SVG/1.1/DTD/svg11.dtd">
<svg version="1.1" id="Calque_1" xmlns="http://www.w3.org/2000/svg" xmlns:xlink="http://www.w3.org/1999/xlink" x="0px" y="0px"
	 width="1190.551px" height="1190.551px" viewBox="0 0 1190.551 1190.551" enable-background="new 0 0 1190.551 1190.551"
	 xml:space="preserve">
<path fill="#010202" d="M930.033,63.174v160.421h-29.053V63.174h-31.578V29.068H751.93v543.158H569.74
	c69.799,0,113.083-42.896,113.083-120.809v-65.854h35.707v-64.927v-1.623v-64.927h-35.707v-65.854
	c0-77.911-43.285-120.809-113.083-120.809c-24.751,0-68.715,0-68.715,0V23.044H423.66h-2.167h-77.367v44.382c0,0-43.961,0-68.713,0
	c-69.797,0-113.081,42.896-113.081,120.809v65.854h-35.709v64.926v1.624v64.926h35.709v65.854
	c0,77.912,43.281,120.81,113.079,120.81c24.754,0,68.713,0,68.713,0v46.095h77.369h2.167h77.365v144.901h115.36v206h-210v-112h-203
	v310.281h595.281V620.578h79.577v-40.773H996.98l66.948-188.209V63.174H930.033z"/>
</svg>
