<?xml version="1.0" encoding="utf-8"?>
<!-- Generator: Adobe Illustrator 16.0.0, SVG Export Plug-In . SVG Version: 6.00 Build 0)  -->
<!DOCTYPE svg PUBLIC "-//W3C//DTD SVG 1.1//EN" "http://www.w3.org/Graphics/SVG/1.1/DTD/svg11.dtd">
<svg version="1.1" id="Calque_1" xmlns="http://www.w3.org/2000/svg" xmlns:xlink="http://www.w3.org/1999/xlink" x="0px" y="0px"
	 width="1190.551px" height="1190.551px" viewBox="0 0 1190.551 1190.551" enable-background="new 0 0 1190.551 1190.551"
	 xml:space="preserve">
<g>
	<polygon fill="#010202" points="24.93,891.229 215.93,891.229 215.93,775.87 421.93,775.87 421.93,985.87 309.93,985.87 
		309.93,1188.87 620.209,1188.87 620.209,593.59 24.93,593.59 	"/>
	<path fill="#010202" d="M622.464,346.644v46.737h-48.352c0-10.148,0-17.293,0-17.293h46.096V298.72v-2.167v-77.367H574.11
		c0,0,0-43.963,0-68.715c0-69.799-42.896-113.083-120.811-113.083h-65.854V1.681h-64.927h-1.624h-64.926v35.707h-65.854
		c-77.911,0-120.809,43.284-120.809,113.083c0,24.752,0,68.715,0,68.715H24.929v77.367v2.167v77.366h44.382c0,0,0,43.961,0,68.714
		c0,69.797,42.896,113.08,120.809,113.08h65.854v35.709H320.9h1.624h64.926V557.88h65.854c77.874,0,120.769-43.24,120.811-112.977
		v28.058h40.773v118.735l188.209,66.947h328.424V524.75H971.096v-29.054h160.423v-31.579h34.104V346.644H622.464z"/>
</g>
</svg>
