<?xml version="1.0" encoding="utf-8"?>
<!-- Generator: Adobe Illustrator 16.0.0, SVG Export Plug-In . SVG Version: 6.00 Build 0)  -->
<!DOCTYPE svg PUBLIC "-//W3C//DTD SVG 1.1//EN" "http://www.w3.org/Graphics/SVG/1.1/DTD/svg11.dtd">
<svg version="1.1" id="Calque_1" xmlns="http://www.w3.org/2000/svg" xmlns:xlink="http://www.w3.org/1999/xlink" x="0px" y="0px"
	 width="1190.551px" height="1190.551px" viewBox="0 0 1190.551 1190.551" enable-background="new 0 0 1190.551 1190.551"
	 xml:space="preserve">
<path fill="#010202" d="M1011.52,528.511v-65.854c0-77.912-43.28-120.809-113.079-120.809c-24.754,0-68.713,0-68.713,0v-46.097
	h-77.369h-2.167h-77.364v46.1c0,0-43.966,0-68.718,0c-69.798,0-113.081,42.896-113.081,120.808v65.855h-35.707V50.233h-46.737V1.88
	h-79.58v40.773H210.269l-66.947,188.211v328.421h133.895V398.864h29.053v160.421h31.579v34.106H143.322v595.278h595.279V891.033
	h11.592h2.167h77.367V846.65c0,0,43.961,0,68.713,0c69.798,0,113.081-42.896,113.081-120.809v-65.854h35.709v-64.927v-1.624v-64.926
	H1011.52z M547.601,1006.391h-206v-210h112v-203h1.721v0.049v1.624v64.926h35.707v65.855c0,77.908,43.285,120.809,113.081,120.809
	c24.753,0,68.717,0,68.717,0v44.377H547.601V1006.391z"/>
</svg>
