<?xml version="1.0" encoding="utf-8"?>
<!-- Generator: Adobe Illustrator 16.0.0, SVG Export Plug-In . SVG Version: 6.00 Build 0)  -->
<!DOCTYPE svg PUBLIC "-//W3C//DTD SVG 1.1//EN" "http://www.w3.org/Graphics/SVG/1.1/DTD/svg11.dtd">
<svg version="1.1" id="Calque_1" xmlns="http://www.w3.org/2000/svg" xmlns:xlink="http://www.w3.org/1999/xlink" x="0px" y="0px"
	 width="1190.551px" height="1190.551px" viewBox="0 0 1190.551 1190.551" enable-background="new 0 0 1190.551 1190.551"
	 xml:space="preserve">
<path fill="#010202" d="M773.386,34.106v160.421h-29.055V34.106h-31.577V0H595.28v217.505h-46.099c0,0,0-43.963,0-68.715
	c0-69.799-42.896-113.083-120.81-113.083h-65.854V0h-64.927h-1.624h-64.926v35.707h-65.854
	c-77.911,0-120.809,43.284-120.809,113.083c0,24.752,0,68.715,0,68.715H-0.001v77.367v2.167v77.366h44.382c0,0,0,43.961,0,68.714
	c0,69.797,42.896,113.08,120.809,113.08h65.854v35.709H0v595.28H595.28V889.55h-191v115.358h-206v-210h112v-203h52.24v-35.709
	h65.854c77.912,0,120.811-43.281,120.811-113.078c0-24.755,0-68.714,0-68.714h46.096v168.751h46.737v48.353h79.58v-40.774h118.734
	l66.948-188.21V34.106H773.386z"/>
</svg>
