<?xml version="1.0" encoding="utf-8"?>
<!-- Generator: Adobe Illustrator 16.0.0, SVG Export Plug-In . SVG Version: 6.00 Build 0)  -->
<!DOCTYPE svg PUBLIC "-//W3C//DTD SVG 1.1//EN" "http://www.w3.org/Graphics/SVG/1.1/DTD/svg11.dtd">
<svg version="1.1" id="Calque_1" xmlns="http://www.w3.org/2000/svg" xmlns:xlink="http://www.w3.org/1999/xlink" x="0px" y="0px"
	 width="1190.551px" height="1190.551px" viewBox="0 0 1190.551 1190.551" enable-background="new 0 0 1190.551 1190.551"
	 xml:space="preserve">
<path fill="#010202" d="M462.119,316.945v46.736h-48.353v79.58h40.774v118.735l112.264,39.933
	c-12.996-4.398-27.575-6.652-43.549-6.652c-24.752,0-68.716,0-68.716,0v-44.379h-77.366h-2.167H297.64V404.28H182.28v-206h210v112
	h203V0H0V595.28h228.927c-69.798,0-113.081,42.896-113.081,120.81v65.854H80.137v64.926v1.624v64.928h35.709v65.854
	c0,77.912,43.281,120.809,113.078,120.809c24.755,0,68.714,0,68.714,0v46.097h77.368h2.167h77.367v-46.101c0,0,43.964,0,68.716,0
	c69.798,0,113.083-42.896,113.083-120.808v-65.855h35.707V848.49v-1.624V781.94h-35.707v-65.854
	c0-58.42-24.337-97.154-65.939-112.878l72.351,25.735h328.423V495.049H810.752v-29.053h160.421v-31.579h34.104V316.945H462.119z"/>
</svg>
