<?xml version="1.0" encoding="utf-8"?>
<!-- Generator: Adobe Illustrator 16.0.0, SVG Export Plug-In . SVG Version: 6.00 Build 0)  -->
<!DOCTYPE svg PUBLIC "-//W3C//DTD SVG 1.1//EN" "http://www.w3.org/Graphics/SVG/1.1/DTD/svg11.dtd">
<svg version="1.1" id="Calque_1" xmlns="http://www.w3.org/2000/svg" xmlns:xlink="http://www.w3.org/1999/xlink" x="0px" y="0px"
	 width="1190.551px" height="1190.551px" viewBox="0 0 1190.551 1190.551" enable-background="new 0 0 1190.551 1190.551"
	 xml:space="preserve">
<path fill="#010202" d="M889.117,865.754v115.359h-206v-210h112V568.114H553.552c69.798,0,113.083-42.896,113.083-120.809v-65.854
	h35.707v-64.927v-1.623v-64.927h-35.707V184.12c0-77.911-43.285-120.809-113.083-120.809c-24.751,0-68.715,0-68.715,0V18.932
	h-77.365h-2.167h-77.367v44.382c0,0-43.961,0-68.713,0c-69.797,0-113.081,42.896-113.081,120.809v65.854h-35.709v64.926v1.624
	v64.926h35.709v65.854c0,77.912,43.281,120.81,113.079,120.81c24.754,0,68.713,0,68.713,0v46.096h-39.396v160.42h-29.053v-160.42
	h-31.579v-34.105H110.434v543.158h46.735v48.354h79.58v-40.773h118.735l66.949-188.213v-328.42h62.402v549.184h595.281V865.754
	H889.117z"/>
</svg>
