<?xml version="1.0" encoding="utf-8"?>
<!-- Generator: Adobe Illustrator 16.0.0, SVG Export Plug-In . SVG Version: 6.00 Build 0)  -->
<!DOCTYPE svg PUBLIC "-//W3C//DTD SVG 1.1//EN" "http://www.w3.org/Graphics/SVG/1.1/DTD/svg11.dtd">
<svg version="1.1" id="Calque_1" xmlns="http://www.w3.org/2000/svg" xmlns:xlink="http://www.w3.org/1999/xlink" x="0px" y="0px"
	 width="1190.551px" height="1190.551px" viewBox="0 0 1190.551 1190.551" enable-background="new 0 0 1190.551 1190.551"
	 xml:space="preserve">
<path fill="#010202" d="M773.386,34.106v160.421h-29.055V34.106h-31.577V0H595.28v217.503h-44.381c0,0,0-43.961,0-68.713
	c0-69.798-42.896-113.081-120.808-113.081h-65.855V0H299.31h-1.624H232.76v35.709h-65.854c-77.911,0-120.809,43.281-120.809,113.079
	c0,24.754,0,68.713,0,68.713H0v77.369v2.167v77.366h46.1c0,0,0,43.964,0,68.716c0,69.798,42.896,113.083,120.809,113.083h65.854
	v35.706H0v595.28H595.28V889.55h-191v115.358h-206v-210h112V591.909h53.959v-35.707h65.855c77.911,0,120.808-43.285,120.808-113.083
	c0-24.752,0-68.716,0-68.716h44.378v168.755h46.737v48.353h79.58v-40.774h118.734l66.948-188.21V34.106H773.386z"/>
</svg>
