<?xml version="1.0" encoding="utf-8"?>
<!-- Generator: Adobe Illustrator 16.0.0, SVG Export Plug-In . SVG Version: 6.00 Build 0)  -->
<!DOCTYPE svg PUBLIC "-//W3C//DTD SVG 1.1//EN" "http://www.w3.org/Graphics/SVG/1.1/DTD/svg11.dtd">
<svg version="1.1" id="Calque_1" xmlns="http://www.w3.org/2000/svg" xmlns:xlink="http://www.w3.org/1999/xlink" x="0px" y="0px"
	 width="1190.551px" height="1190.551px" viewBox="0 0 1190.551 1190.551" enable-background="new 0 0 1190.551 1190.551"
	 xml:space="preserve">
<path fill="#010202" d="M915.022,35.788v160.421h-29.055V35.788h-31.576V1.682H736.916v217.505h-46.1c0,0,0-43.963,0-68.715
	c0-69.799-42.896-113.083-120.81-113.083h-65.854V1.682h-64.927h-1.624h-64.926v35.707h-65.854
	c-77.911,0-120.809,43.284-120.809,113.083c0,24.752,0,68.715,0,68.715h-44.378v77.367v2.167v77.366h44.382c0,0,0,43.961,0,68.714
	c0,69.797,42.896,113.08,120.809,113.08h65.854v35.709H141.636v595.279h595.28V891.231h-191v115.358h-206v-210h112v-203h52.24
	v-35.709h65.854c77.913,0,120.811-43.281,120.811-113.078c0-24.755,0-68.714,0-68.714h46.096V544.84h46.738v48.353h79.58v-40.774
	h118.734l66.947-188.21V35.788H915.022z"/>
</svg>
