<?xml version="1.0" encoding="utf-8"?>
<!-- Generator: Adobe Illustrator 16.0.0, SVG Export Plug-In . SVG Version: 6.00 Build 0)  -->
<!DOCTYPE svg PUBLIC "-//W3C//DTD SVG 1.1//EN" "http://www.w3.org/Graphics/SVG/1.1/DTD/svg11.dtd">
<svg version="1.1" id="Calque_1" xmlns="http://www.w3.org/2000/svg" xmlns:xlink="http://www.w3.org/1999/xlink" x="0px" y="0px"
	 width="1190.551px" height="1190.551px" viewBox="0 0 1190.551 1190.551" enable-background="new 0 0 1190.551 1190.551"
	 xml:space="preserve">
<path fill="#010202" d="M504.957,579.231v-21.351h65.854c77.913,0,120.811-43.281,120.811-113.078c0-24.755,0-68.714,0-68.714
	h46.096v-77.368v-2.167v-77.367h-46.098c0,0,0-43.963,0-68.715c0-69.799-42.896-113.083-120.811-113.083h-65.854V1.682h-64.927
	h-1.624h-64.926v35.707h-65.854c-77.911,0-120.809,43.284-120.809,113.083c0,24.752,0,68.715,0,68.715h-44.379v77.367v2.167v77.366
	h44.382c0,0,0,43.961,0,68.714c0,69.797,42.896,113.08,120.809,113.08h65.854v35.709H142.437v595.279h595.28V891.231h276.291
	V757.336h-160.42v-29.054h160.42v-31.578h34.107V579.231H504.957z M546.717,891.231v115.358h-206v-210h112v-203h52.24v32.377
	h-48.353v79.58h40.772v118.734l188.209,66.949L546.717,891.231L546.717,891.231z"/>
</svg>
