<?xml version="1.0" encoding="utf-8"?>
<!-- Generator: Adobe Illustrator 16.0.0, SVG Export Plug-In . SVG Version: 6.00 Build 0)  -->
<!DOCTYPE svg PUBLIC "-//W3C//DTD SVG 1.1//EN" "http://www.w3.org/Graphics/SVG/1.1/DTD/svg11.dtd">
<svg version="1.1" id="Calque_1" xmlns="http://www.w3.org/2000/svg" xmlns:xlink="http://www.w3.org/1999/xlink" x="0px" y="0px"
	 width="1190.551px" height="1190.551px" viewBox="0 0 1190.551 1190.551" enable-background="new 0 0 1190.551 1190.551"
	 xml:space="preserve">
<path fill="#010202" d="M362.52,577.55v-21.351h65.854c77.912,0,120.811-43.281,120.811-113.078c0-24.755,0-68.714,0-68.714h46.096
	v-77.368v-2.167v-77.367h-46.099c0,0,0-43.963,0-68.715c0-69.799-42.896-113.083-120.81-113.083h-65.854V0h-64.927h-1.624h-64.926
	v35.707h-65.854c-77.911,0-120.809,43.284-120.809,113.083c0,24.752,0,68.715,0,68.715H-0.001v77.367v2.167v77.366h44.382
	c0,0,0,43.961,0,68.714c0,69.797,42.896,113.08,120.809,113.08h65.854v35.709H0v595.28H595.28V889.55h276.292V755.654H711.151
	v-29.053h160.421v-31.579h34.106V577.55H362.52z M404.28,889.55v115.358h-206v-210h112v-203h52.24v32.377h-48.353v79.58h40.773
	v118.735l188.21,66.949H404.28z"/>
</svg>
