<?xml version="1.0" encoding="utf-8"?>
<!-- Generator: Adobe Illustrator 16.0.0, SVG Export Plug-In . SVG Version: 6.00 Build 0)  -->
<!DOCTYPE svg PUBLIC "-//W3C//DTD SVG 1.1//EN" "http://www.w3.org/Graphics/SVG/1.1/DTD/svg11.dtd">
<svg version="1.1" id="Calque_1" xmlns="http://www.w3.org/2000/svg" xmlns:xlink="http://www.w3.org/1999/xlink" x="0px" y="0px"
	 width="1190.551px" height="1190.551px" viewBox="0 0 1190.551 1190.551" enable-background="new 0 0 1190.551 1190.551"
	 xml:space="preserve">
<path fill="#010202" d="M814.444,303.733V255.38h-79.58v40.773H616.13l-66.949,188.21V744.07
	c0-69.798-42.896-113.083-120.81-113.083h-65.854V595.28H297.64v-191H182.28v-206h210v112h203V0H0V595.28h231.041v35.707h-65.854
	c-77.911,0-120.809,43.285-120.809,113.083c0,24.752,0,68.715,0,68.715H-0.001v77.367v2.167v77.367h44.382c0,0,0,43.961,0,68.713
	c0,69.797,42.896,113.081,120.809,113.081h65.854v35.709h64.926h1.624h64.926v-35.709h65.854
	c77.912,0,120.811-43.282,120.811-113.079c0-24.754,0-68.713,0-68.713h46.096v-77.369v-2.167v-77.367h87.796V652.364h29.055v160.421
	h31.577v34.106h117.474V303.733H814.444z"/>
</svg>
