<?xml version="1.0" encoding="utf-8"?>
<!-- Generator: Adobe Illustrator 16.0.0, SVG Export Plug-In . SVG Version: 6.00 Build 0)  -->
<!DOCTYPE svg PUBLIC "-//W3C//DTD SVG 1.1//EN" "http://www.w3.org/Graphics/SVG/1.1/DTD/svg11.dtd">
<svg version="1.1" id="Calque_1" xmlns="http://www.w3.org/2000/svg" xmlns:xlink="http://www.w3.org/1999/xlink" x="0px" y="0px"
	 width="1190.551px" height="1190.551px" viewBox="0 0 1190.551 1190.551" enable-background="new 0 0 1190.551 1190.551"
	 xml:space="preserve">
<path fill="#010202" d="M915.022,35.788v160.421h-29.055V35.788h-31.576V1.682H736.916v217.503h-44.381c0,0,0-43.961,0-68.713
	c0-69.798-42.896-113.081-120.808-113.081h-65.855V1.682h-64.926h-1.624h-64.926v35.709h-65.854
	c-77.91,0-120.809,43.281-120.809,113.079c0,24.754,0,68.713,0,68.713h-46.097v77.369v2.167v77.366h46.1c0,0,0,43.964,0,68.716
	c0,69.798,42.896,113.083,120.81,113.083h65.854v35.706H141.636v595.279h595.28V891.231h-191v115.358h-206v-210h112V593.591h53.959
	v-35.707h65.855c77.911,0,120.807-43.285,120.807-113.083c0-24.752,0-68.716,0-68.716h44.379V544.84h46.736v48.353h79.58v-40.774
	h118.734l66.947-188.21V35.788H915.022z"/>
</svg>
