<?xml version="1.0" encoding="utf-8"?>
<!-- Generator: Adobe Illustrator 16.0.0, SVG Export Plug-In . SVG Version: 6.00 Build 0)  -->
<!DOCTYPE svg PUBLIC "-//W3C//DTD SVG 1.1//EN" "http://www.w3.org/Graphics/SVG/1.1/DTD/svg11.dtd">
<svg version="1.1" id="Calque_1" xmlns="http://www.w3.org/2000/svg" xmlns:xlink="http://www.w3.org/1999/xlink" x="0px" y="0px"
	 width="1190.551px" height="1190.551px" viewBox="0 0 1190.551 1190.551" enable-background="new 0 0 1190.551 1190.551"
	 xml:space="preserve">
<path fill="#010202" d="M1111.305,571.011V452.276l-188.212-66.947h-328.42v-22.665h35.707v-64.926v-1.624v-64.927h-35.707v-65.854
	c0-77.912-43.284-120.81-113.083-120.81c-24.75,0-68.715,0-68.715,0V0.144H335.51h-2.167h-77.367v44.384c0,0-43.961,0-68.713,0
	c-69.797,0-113.081,42.895-113.081,120.807v65.854H38.473v64.927v1.625v64.926h35.709v65.854c0,77.912,43.281,120.81,113.079,120.81
	c24.754,0,68.713,0,68.713,0v46.095h67.176C164.784,602.215,38.473,732.73,38.473,892.768c0,164.381,133.258,297.639,297.64,297.639
	s297.64-133.258,297.64-297.639c0-74.801-27.6-143.152-73.163-195.439h543.136v-46.734h48.354v-79.582L1111.305,571.011
	L1111.305,571.011z M755.094,548.276H594.673v31.579h-34.104v117.45c-51.918-59.57-127.159-98.266-211.493-101.88h63.801v-46.099
	c0,0,43.965,0,68.715,0c69.798,0,113.083-42.896,113.083-120.809v90.705h160.422v29.054H755.094z"/>
</svg>
