<?xml version="1.0" encoding="utf-8"?>
<!-- Generator: Adobe Illustrator 16.0.0, SVG Export Plug-In . SVG Version: 6.00 Build 0)  -->
<!DOCTYPE svg PUBLIC "-//W3C//DTD SVG 1.1//EN" "http://www.w3.org/Graphics/SVG/1.1/DTD/svg11.dtd">
<svg version="1.1" id="Calque_1" xmlns="http://www.w3.org/2000/svg" xmlns:xlink="http://www.w3.org/1999/xlink" x="0px" y="0px"
	 width="1190.551px" height="1190.551px" viewBox="0 0 1190.551 1190.551" enable-background="new 0 0 1190.551 1190.551"
	 xml:space="preserve">
<path fill="#010202" d="M816.161,303.133v-48.354h-79.579v40.774H617.847l-66.948,188.211V743.47
	c0-69.797-42.895-113.081-120.807-113.081h-65.855v-35.708h-53.583C468.995,587.866,595.28,457.36,595.28,297.34
	C595.28,132.958,462.022-0.3,297.64-0.3S0,132.958,0,297.34c0,160.02,126.284,290.526,284.625,297.341H232.76v35.708h-65.855
	c-77.911,0-120.809,43.282-120.809,113.079c0,24.754,0,68.713,0,68.713H0v77.369v2.167v77.367h46.1c0,0,0,43.963,0,68.715
	c0,69.798,42.896,113.083,120.809,113.083h65.854v35.707h64.926h1.624h64.926v-35.707h65.855
	c77.912,0,120.809-43.285,120.809-113.083c0-24.752,0-68.715,0-68.715h44.379v-77.367v-2.167v-77.367h89.514V651.762h29.052v160.421
	h31.579v34.106h117.473V303.133H816.161z"/>
</svg>
