<?xml version="1.0" encoding="utf-8"?>
<!-- Generator: Adobe Illustrator 16.0.0, SVG Export Plug-In . SVG Version: 6.00 Build 0)  -->
<!DOCTYPE svg PUBLIC "-//W3C//DTD SVG 1.1//EN" "http://www.w3.org/Graphics/SVG/1.1/DTD/svg11.dtd">
<svg version="1.1" id="Calque_1" xmlns="http://www.w3.org/2000/svg" xmlns:xlink="http://www.w3.org/1999/xlink" x="0px" y="0px"
	 width="1190.551px" height="1190.551px" viewBox="0 0 1190.551 1190.551" enable-background="new 0 0 1190.551 1190.551"
	 xml:space="preserve">
<path fill="#010202" d="M1072.832,570.866V452.131l-188.211-66.947h-328.42v-22.665h35.707v-64.926v-1.624v-64.927h-35.707v-65.854
	c0-77.912-43.285-120.81-113.083-120.81c-24.751,0-68.715,0-68.715,0V-0.001h-77.366h-2.167h-77.367v44.384c0,0-43.961,0-68.713,0
	c-69.797,0-113.081,42.895-113.081,120.807v65.854H0v64.927v1.625v64.926h35.709v65.854c0,77.912,43.281,120.81,113.079,120.81
	c24.754,0,68.713,0,68.713,0v46.095h67.176C126.312,602.07,0,732.585,0,892.622c0,164.382,133.258,297.64,297.64,297.64
	s297.64-133.258,297.64-297.64c0-74.801-27.6-143.151-73.163-195.439h543.135v-46.735h48.354v-79.581H1072.832z M716.622,548.131
	H556.201v31.579h-34.105v117.449c-51.918-59.569-127.159-98.264-211.493-101.879h63.801v-46.099c0,0,43.964,0,68.715,0
	c69.798,0,113.083-42.896,113.083-120.809v90.705h160.421V548.131z"/>
</svg>
