<?xml version="1.0" encoding="utf-8"?>
<!-- Generator: Adobe Illustrator 16.0.0, SVG Export Plug-In . SVG Version: 6.00 Build 0)  -->
<!DOCTYPE svg PUBLIC "-//W3C//DTD SVG 1.1//EN" "http://www.w3.org/Graphics/SVG/1.1/DTD/svg11.dtd">
<svg version="1.1" id="Calque_1" xmlns="http://www.w3.org/2000/svg" xmlns:xlink="http://www.w3.org/1999/xlink" x="0px" y="0px"
	 width="1190.551px" height="1190.551px" viewBox="0 0 1190.551 1190.551" enable-background="new 0 0 1190.551 1190.551"
	 xml:space="preserve">
<path fill="#010202" d="M1096.731,575.915V457.18L908.52,390.232H580.475C590.07,361,595.28,329.781,595.28,297.34
	C595.28,132.958,462.022-0.3,297.64-0.3S0,132.958,0,297.34c0,160.011,126.271,290.512,284.6,297.34h-67.097v44.384
	c0,0-43.961,0-68.713,0c-69.797,0-113.081,42.895-113.081,120.807v65.854H0v64.928v1.625v64.926h35.709v65.854
	c0,77.912,43.281,120.811,113.079,120.811c24.754,0,68.713,0,68.713,0v46.095h77.369h2.167h77.366v-46.099c0,0,43.964,0,68.715,0
	c69.798,0,113.083-42.896,113.083-120.81v-65.854h35.707v-64.926v-1.624v-64.926h-35.707v-65.855
	c0-22.087-3.482-41.357-10.058-57.637h543.007v-46.737h48.354v-79.579H1096.731z M740.521,553.18h-160.42v31.579h-34.107v117.109
	c-16.687-40.911-53.013-62.809-102.875-62.809c-24.751,0-68.715,0-68.715,0v-44.38H310.68
	c125.808-5.426,231.363-88.935,269.421-203.294v132.742h160.42V553.18z"/>
</svg>
