<?xml version="1.0" encoding="utf-8"?>
<!-- Generator: Adobe Illustrator 16.0.0, SVG Export Plug-In . SVG Version: 6.00 Build 0)  -->
<!DOCTYPE svg PUBLIC "-//W3C//DTD SVG 1.1//EN" "http://www.w3.org/Graphics/SVG/1.1/DTD/svg11.dtd">
<svg version="1.1" id="Calque_1" xmlns="http://www.w3.org/2000/svg" xmlns:xlink="http://www.w3.org/1999/xlink" x="0px" y="0px"
	 width="1190.551px" height="1190.551px" viewBox="0 0 1190.551 1190.551" enable-background="new 0 0 1190.551 1190.551"
	 xml:space="preserve">
<path fill="#010202" d="M979.987,305.264V256.91h-79.578v40.774H781.672l-66.947,188.211v259.706
	c0-69.797-42.895-113.081-120.807-113.081h-65.855v-35.707h-53.583c158.341-6.815,284.626-137.322,284.626-297.342
	c0-164.382-133.258-297.64-297.64-297.64c-164.382,0-297.64,133.258-297.64,297.64c0,160.02,126.284,290.526,284.625,297.342
	h-51.865v35.707H330.73c-77.91,0-120.809,43.282-120.809,113.079c0,24.754,0,68.713,0,68.713h-46.096v77.369v2.167v77.367h46.1
	c0,0,0,43.963,0,68.715c0,69.798,42.896,113.083,120.81,113.083h65.854v35.707h64.926h1.624h64.926v-35.707h65.855
	c77.913,0,120.809-43.285,120.809-113.083c0-24.752,0-68.715,0-68.715h44.379v-77.367v-2.167v-77.366h89.514V653.893h29.053v160.421
	h31.578v34.106h117.473V305.264H979.987z"/>
</svg>
