<?xml version="1.0" encoding="utf-8"?>
<!-- Generator: Adobe Illustrator 16.0.0, SVG Export Plug-In . SVG Version: 6.00 Build 0)  -->
<!DOCTYPE svg PUBLIC "-//W3C//DTD SVG 1.1//EN" "http://www.w3.org/Graphics/SVG/1.1/DTD/svg11.dtd">
<svg version="1.1" id="Calque_1" xmlns="http://www.w3.org/2000/svg" xmlns:xlink="http://www.w3.org/1999/xlink" x="0px" y="0px"
	 width="1190.551px" height="1190.551px" viewBox="0 0 1190.551 1190.551" enable-background="new 0 0 1190.551 1190.551"
	 xml:space="preserve">
<path fill="#010202" d="M640.747,360.364l-14.441,44.449l-45.978-14.939c18.897-57.819,20.321-121.929,0.084-184.209
	C529.615,49.327,361.701-36.229,205.365,14.568S-36.529,233.28,14.268,389.615c49.453,152.201,209.908,237.296,362.617,194.822
	l-47.365,15.39l-2.061,0.67l-73.581,23.906l14.246,43.843c0,0-41.811,13.586-65.353,21.234
	c-66.382,21.569-94.292,75.74-70.216,149.839l20.35,62.633l-33.96,11.034l20.063,61.748l0.501,1.545l20.063,61.748l33.96-11.034
	l20.35,62.632c24.076,74.099,78.498,101.521,144.881,79.953c23.54-7.65,65.352-21.234,65.352-21.234l13.714,42.207l73.581-23.908
	l2.061-0.669l73.58-23.908l-13.715-42.211c0,0,41.809-13.585,65.351-21.233c66.381-21.568,94.291-75.739,70.215-149.839
	l-20.351-62.632l33.963-11.034l-20.063-61.749l-0.502-1.545l-20.063-61.749l-33.961,11.036l-20.352-62.631
	c-9.282-28.567-23.078-50.189-40.327-64.749l128.878,99.182l312.346,101.487l41.377-127.342l-152.569-49.573l8.977-27.631
	l152.569,49.572l9.759-30.034l32.437,10.541l36.302-111.724L640.747,360.364z M580.073,608.209
	c-26.496-18.448-60.044-21.813-97.376-9.684c-23.544,7.65-65.351,21.234-65.351,21.234l-14.245-43.841l-1.54,0.5
	c86.499-32.266,149.691-101.077,177.604-183.002l-23.439,72.138l38.778,12.601l-36.692,112.923L580.073,608.209z"/>
</svg>
