<?xml version="1.0" encoding="utf-8"?>
<!-- Generator: Adobe Illustrator 16.0.0, SVG Export Plug-In . SVG Version: 6.00 Build 0)  -->
<!DOCTYPE svg PUBLIC "-//W3C//DTD SVG 1.1//EN" "http://www.w3.org/Graphics/SVG/1.1/DTD/svg11.dtd">
<svg version="1.1" id="Calque_1" xmlns="http://www.w3.org/2000/svg" xmlns:xlink="http://www.w3.org/1999/xlink" x="0px" y="0px"
	 width="1190.551px" height="1190.551px" viewBox="0 0 1190.551 1190.551" enable-background="new 0 0 1190.551 1190.551"
	 xml:space="preserve">
<path fill="#010202" d="M1062.035,639.59c0,0,13.585-41.811,21.232-65.352c21.569-66.381-5.852-120.804-79.949-144.88l-62.633-20.35
	l11.035-33.961l-61.749-20.062l-1.544-0.501l-61.748-20.063l-11.034,33.961l-62.632-20.351
	c-74.099-24.076-128.272,3.834-149.841,70.216c-7.648,23.541-21.234,65.353-21.234,65.353l-41.916-13.62
	c52.548-74.118,70.624-171.266,40.39-264.316C529.615,49.327,361.701-36.229,205.365,14.568S-36.529,233.28,14.268,389.615
	C49.549,498.2,141.334,572.619,246.492,590.943l-111.432,36.206l167.846,516.573l44.448-14.443l14.942,45.989l75.685-24.593
	l-12.6-38.778l112.924-36.691l5.511-199.688l-32.514-100.068c11.421,30.157,38.516,53.837,80.871,67.599l62.632,20.351
	L643.77,897.36l61.749,20.063l1.545,0.502l61.749,20.063l11.033-33.962l62.631,20.352c74.1,24.076,128.271-3.832,149.84-70.213
	c7.648-23.542,21.232-65.35,21.232-65.35l43.842,14.245l23.908-73.584l0.67-2.061l23.908-73.58L1062.035,639.59z M336.93,766.095
	l-49.573-152.569l-30.033,9.76l-10.489-32.283c42.136,7.291,86.406,5.574,130.048-6.564l-61.895,20.111l49.572,152.569
	L336.93,766.095z M512.223,698.17c-8.091,24.901-9.288,48.119-3.713,68.685l-66.18-203.682l-40.764,13.245
	c57.384-21.406,104.505-58.895,137.875-105.633l-23.615,72.681l-0.67,2.062l-23.906,73.58l42.207,13.713
	C533.456,632.821,519.872,674.63,512.223,698.17z"/>
</svg>
