<?xml version="1.0" encoding="utf-8"?>
<!-- Generator: Adobe Illustrator 16.0.0, SVG Export Plug-In . SVG Version: 6.00 Build 0)  -->
<!DOCTYPE svg PUBLIC "-//W3C//DTD SVG 1.1//EN" "http://www.w3.org/Graphics/SVG/1.1/DTD/svg11.dtd">
<svg version="1.1" id="Calque_1" xmlns="http://www.w3.org/2000/svg" xmlns:xlink="http://www.w3.org/1999/xlink" x="0px" y="0px"
	 width="1190.551px" height="1190.551px" viewBox="0 0 1190.551 1190.551" enable-background="new 0 0 1190.551 1190.551"
	 xml:space="preserve">
<path fill="#010202" d="M1104.562,647.271c0,0,13.585-41.811,21.232-65.352c21.569-66.381-5.853-120.804-79.949-144.88
	l-62.633-20.35l11.035-33.961l-61.749-20.062l-1.544-0.501l-61.748-20.063l-11.034,33.961l-62.632-20.351
	c-74.099-24.076-128.272,3.834-149.841,70.216c-7.648,23.541-21.234,65.353-21.234,65.353l-41.917-13.62
	c52.548-74.118,70.625-171.266,40.39-264.316C572.141,57.009,404.228-28.547,247.892,22.25
	C91.555,73.047,5.998,240.962,56.795,397.297c35.281,108.585,127.066,183.004,232.225,201.328l-111.433,36.206l167.846,516.572
	l44.448-14.442l14.942,45.988l75.685-24.593l-12.6-38.778l112.924-36.69l5.511-199.688l-32.514-100.067
	c11.421,30.157,38.516,53.837,80.872,67.599l62.632,20.352l-11.035,33.96l61.749,20.062l1.545,0.502l61.749,20.063l11.033-33.962
	l62.631,20.352c74.1,24.076,128.271-3.832,149.84-70.213c7.648-23.542,21.232-65.35,21.232-65.35l43.842,14.244l23.908-73.584
	l0.67-2.061l23.908-73.58L1104.562,647.271z M379.457,773.776l-49.573-152.568l-30.032,9.76l-10.489-32.283
	c42.136,7.291,86.406,5.574,130.048-6.564l-61.896,20.111l49.572,152.569L379.457,773.776z M554.75,705.852
	c-8.091,24.901-9.288,48.119-3.713,68.686l-66.181-203.683L444.093,584.1c57.384-21.406,104.505-58.895,137.875-105.633
	l-23.615,72.681l-0.67,2.062l-23.905,73.581l42.207,13.713C575.982,640.503,562.398,682.312,554.75,705.852z"/>
</svg>
