<?xml version="1.0" encoding="utf-8"?>
<!-- Generator: Adobe Illustrator 16.0.0, SVG Export Plug-In . SVG Version: 6.00 Build 0)  -->
<!DOCTYPE svg PUBLIC "-//W3C//DTD SVG 1.1//EN" "http://www.w3.org/Graphics/SVG/1.1/DTD/svg11.dtd">
<svg version="1.1" id="Calque_1" xmlns="http://www.w3.org/2000/svg" xmlns:xlink="http://www.w3.org/1999/xlink" x="0px" y="0px"
	 width="1190.551px" height="1190.551px" viewBox="0 0 1190.551 1190.551" enable-background="new 0 0 1190.551 1190.551"
	 xml:space="preserve">
<path fill="#010202" d="M1123.254,576.358V457.624l-188.211-66.948H606.998c9.595-29.232,14.805-60.451,14.805-92.892
	c0-164.382-133.258-297.64-297.64-297.64s-297.64,133.258-297.64,297.64c0,160.011,126.271,290.512,284.6,297.34h-67.097v44.384
	c0,0-43.961,0-68.713,0c-69.797,0-113.081,42.895-113.081,120.807v65.854H26.524v64.929v1.625v64.926h35.709v65.854
	c0,77.912,43.281,120.812,113.079,120.812c24.754,0,68.713,0,68.713,0v46.095h77.369h2.167h77.365v-46.099c0,0,43.965,0,68.715,0
	c69.798,0,113.083-42.896,113.083-120.811v-65.854h35.707v-64.926v-1.624v-64.927h-35.707v-65.854
	c0-22.087-3.481-41.357-10.058-57.638h543.007v-46.736h48.354V576.36h-40.773V576.358z M767.044,553.624h-160.42v31.579h-34.107
	v117.109c-16.687-40.911-53.013-62.81-102.875-62.81c-24.75,0-68.715,0-68.715,0v-44.38h-63.724
	c125.808-5.426,231.363-88.935,269.421-203.294V524.57h160.42V553.624L767.044,553.624z"/>
</svg>
