<?xml version="1.0" encoding="utf-8"?>
<!-- Generator: Adobe Illustrator 16.0.0, SVG Export Plug-In . SVG Version: 6.00 Build 0)  -->
<!DOCTYPE svg PUBLIC "-//W3C//DTD SVG 1.1//EN" "http://www.w3.org/Graphics/SVG/1.1/DTD/svg11.dtd">
<svg version="1.1" id="Calque_1" xmlns="http://www.w3.org/2000/svg" xmlns:xlink="http://www.w3.org/1999/xlink" x="0px" y="0px"
	 width="1190.551px" height="1190.551px" viewBox="0 0 1190.551 1190.551" enable-background="new 0 0 1190.551 1190.551"
	 xml:space="preserve">
<path fill="#010202" d="M600.893,464.715v46.737h-47.995c54.858-53.99,88.885-129.082,88.885-212.132
	c0-164.381-133.257-297.639-297.639-297.639s-297.64,133.258-297.64,297.64c0,164.382,133.258,297.64,297.64,297.64
	c81.15,0,154.701-32.491,208.393-85.155v79.227h40.775v118.685c-12.752-48.345-52.974-77.048-116.416-77.048h-65.855v-35.709
	h-64.926h-1.625h-0.346h-64.58v35.709h-65.855c-77.91,0-120.809,43.282-120.809,113.079c0,24.754,0,68.713,0,68.713H46.804v77.369
	v2.167v77.366h46.1c0,0,0,43.964,0,68.716c0,69.798,42.896,113.083,120.81,113.083h65.854v35.707h64.926h1.624h64.926v-35.707
	h65.855c77.912,0,120.809-43.285,120.809-113.083c0-24.752,0-68.716,0-68.716h44.379v-77.366v-2.167v-77.367h-44.383
	c0,0,0-43.961,0-68.713c0-12.94-1.479-24.969-4.377-35.979l188.196,66.943h328.42V642.821h-160.42v-29.055h160.42v-31.578h34.105
	V464.715H600.893z"/>
</svg>
