<?xml version="1.0" encoding="utf-8"?>
<!-- Generator: Adobe Illustrator 16.0.0, SVG Export Plug-In . SVG Version: 6.00 Build 0)  -->
<!DOCTYPE svg PUBLIC "-//W3C//DTD SVG 1.1//EN" "http://www.w3.org/Graphics/SVG/1.1/DTD/svg11.dtd">
<svg version="1.1" id="Calque_1" xmlns="http://www.w3.org/2000/svg" xmlns:xlink="http://www.w3.org/1999/xlink" x="0px" y="0px"
	 width="1190.551px" height="1190.551px" viewBox="0 0 1190.551 1190.551" enable-background="new 0 0 1190.551 1190.551"
	 xml:space="preserve">
<path fill="#010202" d="M657.551,360.404l-14.44,44.449l-45.979-14.939c18.897-57.819,20.321-121.929,0.084-184.209
	C546.419,49.367,378.506-36.189,222.17,14.608C65.833,65.405-19.724,233.32,31.073,389.655
	C80.526,541.856,240.981,626.951,393.69,584.477l-47.365,15.39l-2.061,0.67l-73.581,23.906l14.246,43.843
	c0,0-41.812,13.586-65.354,21.234c-66.382,21.568-94.292,75.739-70.216,149.839l20.35,62.633l-33.96,11.034l20.063,61.748
	l0.501,1.545l20.063,61.748l33.96-11.034l20.35,62.632c24.076,74.099,78.498,101.521,144.881,79.953
	c23.54-7.65,65.352-21.234,65.352-21.234l13.714,42.207l73.581-23.908l2.062-0.669l73.58-23.907l-13.715-42.211
	c0,0,41.809-13.586,65.351-21.233c66.381-21.568,94.291-75.739,70.215-149.839l-20.351-62.632l33.963-11.034l-20.063-61.749
	l-0.502-1.545l-20.062-61.749L664.73,741.15l-20.353-62.632c-9.281-28.566-23.078-50.188-40.327-64.749l128.878,99.183
	l312.347,101.486l41.377-127.342l-152.569-49.572l8.978-27.632l152.568,49.572l9.759-30.034l32.438,10.541l36.302-111.724
	L657.551,360.404z M596.877,608.249c-26.496-18.448-60.044-21.813-97.376-9.684c-23.544,7.649-65.351,21.233-65.351,21.233
	l-14.245-43.841l-1.54,0.5c86.499-32.266,149.691-101.077,177.604-183.002l-23.438,72.138l38.778,12.601l-36.692,112.923
	L596.877,608.249z"/>
</svg>
