<?xml version="1.0" encoding="utf-8"?>
<!-- Generator: Adobe Illustrator 16.0.0, SVG Export Plug-In . SVG Version: 6.00 Build 0)  -->
<!DOCTYPE svg PUBLIC "-//W3C//DTD SVG 1.1//EN" "http://www.w3.org/Graphics/SVG/1.1/DTD/svg11.dtd">
<svg version="1.1" id="Calque_1" xmlns="http://www.w3.org/2000/svg" xmlns:xlink="http://www.w3.org/1999/xlink" x="0px" y="0px"
	 width="1190.551px" height="1190.551px" viewBox="0 0 1190.551 1190.551" enable-background="new 0 0 1190.551 1190.551"
	 xml:space="preserve">
<g>
	<circle fill="#010202" cx="461.316" cy="299.321" r="297.64"/>
	<path fill="#010202" d="M980.136,305.413v-48.354h-79.578v40.773H781.823l-66.948,188.211v259.708
		c0-69.797-42.895-113.081-120.807-113.081h-65.855v-35.709h-64.926h-1.625h-0.346h-64.58v35.709H330.88
		c-77.91,0-120.809,43.282-120.809,113.079c0,24.754,0,68.713,0,68.713h-46.096v77.369v2.167v77.366h46.1c0,0,0,43.964,0,68.716
		c0,69.798,42.896,113.083,120.81,113.083h65.854v35.707h64.926h1.624h64.926v-35.707h65.855
		c77.912,0,120.809-43.285,120.809-113.083c0-24.752,0-68.716,0-68.716h44.379v-77.366v-2.167v-77.367h89.515V654.043h29.052
		v160.421h31.579v34.105h117.473V305.413H980.136z"/>
</g>
</svg>
