<?xml version="1.0" encoding="utf-8"?>
<!-- Generator: Adobe Illustrator 16.0.0, SVG Export Plug-In . SVG Version: 6.00 Build 0)  -->
<!DOCTYPE svg PUBLIC "-//W3C//DTD SVG 1.1//EN" "http://www.w3.org/Graphics/SVG/1.1/DTD/svg11.dtd">
<svg version="1.1" id="Calque_1" xmlns="http://www.w3.org/2000/svg" xmlns:xlink="http://www.w3.org/1999/xlink" x="0px" y="0px"
	 width="1190.551px" height="1190.551px" viewBox="0 0 1190.551 1190.551" enable-background="new 0 0 1190.551 1190.551"
	 xml:space="preserve">
<path fill="#010202" d="M656.448,661.429l199.688,5.512l312.347-101.488l-41.377-127.341l-152.569,49.571l-8.979-27.631
	l152.568-49.572l-9.757-30.034l32.437-10.539l-36.302-111.724L588.396,425.877c45.375-95.291,38.531-211.782-27.869-303.174
	C463.906-10.285,277.771-39.765,144.782,56.855C11.794,153.477-17.686,339.613,78.935,472.6
	c65.021,89.494,170.579,132.108,273.198,120.968c-36.742,7.768-65.612,36.292-81.412,84.919l-20.352,62.633l-33.96-11.033
	l-20.062,61.749l-0.501,1.543l-20.063,61.75l33.959,11.032l-20.35,62.633c-24.077,74.1,3.834,128.271,70.216,149.84
	c23.542,7.649,65.354,21.234,65.354,21.234l-13.715,42.207l73.581,23.909l2.062,0.67l73.58,23.906l13.716-42.209l-0.001-0.001
	c0,0,41.81,13.585,65.35,21.233c66.381,21.568,120.802-5.852,144.878-79.95l20.351-62.632l33.96,11.034l20.063-61.748l0.502-1.544
	l20.062-61.75l-33.96-11.034l20.351-62.631c24.076-74.099-3.831-128.271-70.211-149.839c-23.543-7.649-65.353-21.234-65.353-21.234
	l14.245-43.84L656.448,661.429z M570.839,600.508l-2.062-0.67l-73.58-23.908l-14.245,43.844c0,0-41.811-13.586-65.353-21.233
	c-17.187-5.584-33.566-7.876-48.83-6.934c44.818-7.135,88.677-24.655,127.908-53.159c41.395-30.074,72.753-68.822,93.409-111.938
	l14.286,43.968l-45.987,14.942l24.593,75.687l38.777-12.601l24.664,75.911L570.839,600.508z"/>
</svg>
