<?xml version="1.0" encoding="utf-8"?>
<!-- Generator: Adobe Illustrator 16.0.0, SVG Export Plug-In . SVG Version: 6.00 Build 0)  -->
<!DOCTYPE svg PUBLIC "-//W3C//DTD SVG 1.1//EN" "http://www.w3.org/Graphics/SVG/1.1/DTD/svg11.dtd">
<svg version="1.1" id="Calque_1" xmlns="http://www.w3.org/2000/svg" xmlns:xlink="http://www.w3.org/1999/xlink" x="0px" y="0px"
	 width="1190.551px" height="1190.551px" viewBox="0 0 1190.551 1190.551" enable-background="new 0 0 1190.551 1190.551"
	 xml:space="preserve">
<path fill="#010202" d="M644.942,347.496l-14.442,44.448l-45.987-14.941l-4.353,13.396c28.673-87.669,16.338-187.381-42.023-267.708
	C441.515-10.297,255.38-39.777,122.392,56.844S-40.077,339.601,56.544,472.588c65.021,89.494,170.579,132.108,273.198,120.968
	c-36.742,7.768-65.612,36.292-81.412,84.92l-20.351,62.632l-33.96-11.033l-20.063,61.749l-0.501,1.543l-20.063,61.75l33.959,11.032
	l-20.35,62.633c-24.077,74.1,3.834,128.272,70.216,149.84c23.542,7.649,65.354,21.234,65.354,21.234l-13.715,42.207l73.581,23.909
	l2.061,0.67l73.581,23.907l13.715-42.209l-0.001-0.001c0,0,41.81,13.585,65.35,21.233c66.381,21.568,120.802-5.852,144.878-79.95
	l20.351-62.632l33.96,11.034l20.063-61.748l0.502-1.544l20.063-61.75l-33.96-11.034l20.35-62.631
	c24.076-74.099-3.831-128.271-70.211-149.839c-23.543-7.649-65.352-21.234-65.352-21.234l14.245-43.84l98.287,75.639
	l312.345,101.486l41.376-127.342l-152.568-49.572l8.977-27.63l152.569,49.571l9.759-30.033l32.437,10.539l36.302-111.723
	L644.942,347.496z M548.449,600.496l-2.062-0.67l-73.58-23.908l-14.245,43.844c0,0-41.811-13.586-65.353-21.234
	c-17.186-5.584-33.566-7.876-48.83-6.933c44.819-7.135,88.677-24.655,127.909-53.159c51.89-37.7,88.019-89.028,107.05-145.51
	l-19.418,59.763l38.778,12.6l-36.692,112.924l60.022,46.191L548.449,600.496z"/>
</svg>
