<?xml version="1.0" encoding="utf-8"?>
<!-- Generator: Adobe Illustrator 16.0.0, SVG Export Plug-In . SVG Version: 6.00 Build 0)  -->
<!DOCTYPE svg PUBLIC "-//W3C//DTD SVG 1.1//EN" "http://www.w3.org/Graphics/SVG/1.1/DTD/svg11.dtd">
<svg version="1.1" id="Calque_1" xmlns="http://www.w3.org/2000/svg" xmlns:xlink="http://www.w3.org/1999/xlink" x="0px" y="0px"
	 width="1190.551px" height="1190.551px" viewBox="0 0 1190.551 1190.551" enable-background="new 0 0 1190.551 1190.551"
	 xml:space="preserve">
<path fill="#010202" d="M615.039,0l-3.261,46.623l-48.235-3.372l-5.552,79.386l40.675,2.844l-8.265,118.192
	c-10.178-55.747-36.344-109.207-78.66-153.027C397.552-27.602,209.125-30.89,90.879,83.299
	C-27.368,197.488-30.657,385.915,83.532,504.161c90.137,93.34,226.522,115.028,338.141,63.87
	c-8.379,4.827-16.609,10.855-24.625,18.072c-18.396,16.564-51.063,45.979-51.063,45.979l-30.845-34.257l-57.497,51.771l-1.61,1.449
	l-57.495,51.77l30.847,34.258c0,0-32.671,29.417-51.065,45.979c-51.87,46.704-55.334,107.545-3.2,165.445l44.065,48.939
	l-26.536,23.893l43.444,48.249l1.087,1.207l43.443,48.25l26.536-23.893l44.065,48.939c52.134,57.899,113.004,60.815,164.874,14.111
	c18.395-16.562,51.065-45.979,51.065-45.979l29.695,32.98l57.495-51.769l1.61-1.45l57.495-51.769l-29.697-32.982
	c0,0,32.669-29.416,51.063-45.979c51.869-46.703,55.333-107.543,3.2-165.442l-44.066-48.94l26.537-23.894l-43.443-48.249
	l-1.088-1.208l-43.443-48.249l-26.537,23.894l-44.065-48.939c-39.587-43.965-84.21-56.22-126.105-39.127
	c24.522-12.864,47.653-29.374,68.58-49.583c74.352-71.8,103.237-172.95,86.061-267.55l183.011,79.883l327.62,22.909l9.34-133.569
	l-160.03-11.19l2.027-28.981l160.029,11.19l2.203-31.502l34.023,2.379l8.194-117.188L615.039,0z"/>
</svg>
