<?xml version="1.0" encoding="utf-8"?>
<!-- Generator: Adobe Illustrator 16.0.0, SVG Export Plug-In . SVG Version: 6.00 Build 0)  -->
<!DOCTYPE svg PUBLIC "-//W3C//DTD SVG 1.1//EN" "http://www.w3.org/Graphics/SVG/1.1/DTD/svg11.dtd">
<svg version="1.1" id="Calque_1" xmlns="http://www.w3.org/2000/svg" xmlns:xlink="http://www.w3.org/1999/xlink" x="0px" y="0px"
	 width="1190.551px" height="1190.551px" viewBox="0 0 1190.551 1190.551" enable-background="new 0 0 1190.551 1190.551"
	 xml:space="preserve">
<path fill="#010202" d="M1137.252,563.624c34.154-70.026,14.055-127.557-48.68-158.154c-22.246-10.851-61.76-30.123-61.76-30.123
	l19.453-39.888l-69.537-33.915l-1.947-0.95l-69.537-33.915l-19.455,39.89c0,0-39.512-19.271-61.758-30.122
	c-62.734-30.598-120.441-11.018-154.598,59.009l-28.867,59.19l-32.096-15.654l-28.461,58.354l-0.713,1.461l-28.462,58.354
	l32.096,15.654l-28.868,59.188c-23.763,48.72-21.257,91.387,3.589,123.146c-49.912-56.596-121.223-94.368-202.446-100.048
	c-4.946-0.346-9.87-0.562-14.772-0.665h24.4v-19.726h34.885v19.726h41.244v-19.726h28.164v19.726h41.244v-19.726h28.631v-18.317
	h17.929v-39.453h-17.929v-32.276h17.929v-39.451h-17.929V408.23h17.929v-39.453h-17.929v-42.588h17.929v-39.451h-17.929v-39.453
	h17.929v-39.449h-17.929v-42.651h17.929v-39.451h-17.929V85.385h17.929v-39.45h-17.929V22.398H510.37V0.879h-41.244v21.52h-28.164
	V0.879h-41.244v21.52h-34.885V0.879h-41.246v21.52h-35.639V0.879h-41.244v21.52h-32.28V0.879h-41.242v21.52h-34.072V0.879H97.866
	v21.52H54.828v23.536H36.896v39.45h17.933v40.349H36.896v39.451h17.933v42.651H36.896v39.449h17.933v39.453H36.896v39.451h17.933
	v42.588H36.896v39.453h17.933v36.984H36.896v39.451h17.933v32.276H36.896v39.453h17.933v18.317h43.037v19.726h41.243v-19.726h34.072
	v19.726h41.242v-19.726h32.28v19.726h41.244v-19.726h35.639v19.726h5.167c-152.559,2.747-280.38,121.727-291.225,276.82
	c-11.467,163.981,112.171,306.211,276.152,317.678c163.981,11.466,306.209-112.172,317.678-276.152
	c5.551-79.396-20.57-153.692-67.607-210.518c10.189,10.841,23.245,20.216,38.986,27.895c22.25,10.852,61.76,30.122,61.76,30.122
	l-20.209,41.433l69.539,33.916l1.947,0.95l69.537,33.915l20.209-41.434c0,0,39.514,19.271,61.76,30.122
	c62.734,30.599,120.443,11.019,154.598-59.009l28.869-59.189l32.094,15.652l28.461-58.354l0.713-1.46l28.463-58.354l-32.096-15.652
	L1137.252,563.624z"/>
</svg>
