<?xml version="1.0" encoding="utf-8"?>
<!-- Generator: Adobe Illustrator 16.0.0, SVG Export Plug-In . SVG Version: 6.00 Build 0)  -->
<!DOCTYPE svg PUBLIC "-//W3C//DTD SVG 1.1//EN" "http://www.w3.org/Graphics/SVG/1.1/DTD/svg11.dtd">
<svg version="1.1" id="Calque_1" xmlns="http://www.w3.org/2000/svg" xmlns:xlink="http://www.w3.org/1999/xlink" x="0px" y="0px"
	 width="1190.551px" height="1190.551px" viewBox="0 0 1190.551 1190.551" enable-background="new 0 0 1190.551 1190.551"
	 xml:space="preserve">
<g>
	<polygon fill="#010202" points="327.938,573.834 362.823,573.834 362.823,593.559 404.067,593.559 404.067,573.834 
		432.231,573.834 432.231,593.559 473.475,593.559 473.475,573.834 502.106,573.834 502.106,555.516 520.034,555.516 
		520.034,516.063 502.106,516.063 502.106,483.787 520.034,483.787 520.034,444.336 502.106,444.336 502.106,407.351 
		520.034,407.351 520.034,367.898 502.106,367.898 502.106,325.31 520.034,325.31 520.034,285.859 502.106,285.859 502.106,246.406 
		520.034,246.406 520.034,206.957 502.106,206.957 502.106,164.305 520.034,164.305 520.034,124.854 502.106,124.854 
		502.106,84.506 520.034,84.506 520.034,45.055 502.106,45.055 502.106,21.519 473.475,21.519 473.475,0 432.231,0 432.231,21.519 
		404.067,21.519 404.067,0 362.823,0 362.823,21.519 327.938,21.519 327.938,0 286.692,0 286.692,21.519 251.053,21.519 251.053,0 
		209.809,0 209.809,21.519 177.529,21.519 177.529,0 136.286,0 136.286,21.519 102.214,21.519 102.214,0 60.97,0 60.97,21.519 
		17.932,21.519 17.932,45.055 0,45.055 0,84.506 17.932,84.506 17.932,124.854 0,124.854 0,164.305 17.932,164.305 17.932,206.957 
		0,206.957 0,246.406 17.932,246.406 17.932,285.859 0,285.859 0,325.31 17.932,325.31 17.932,367.898 0,367.898 0,407.351 
		17.932,407.351 17.932,444.336 0,444.336 0,483.787 17.932,483.787 17.932,516.063 0,516.063 0,555.516 17.932,555.516 
		17.932,573.834 60.97,573.834 60.97,593.559 102.214,593.559 102.214,573.834 136.286,573.834 136.286,593.559 177.529,593.559 
		177.529,573.834 209.809,573.834 209.809,593.559 251.053,593.559 251.053,573.834 286.692,573.834 286.692,593.559 
		297.34,593.559 327.938,593.559 	"/>
	<circle fill="#010202" cx="297.34" cy="891.199" r="297.64"/>
	<path fill="#010202" d="M1080.156,559.812l20.35-62.631c24.076-74.099-3.831-128.271-70.212-149.839
		c-23.543-7.649-65.351-21.233-65.351-21.233l14.245-43.842l-73.583-23.908l-2.061-0.67l-73.58-23.907l-14.246,43.843
		c0,0-41.811-13.585-65.352-21.233c-66.382-21.569-120.805,5.852-144.881,79.951l-20.35,62.631l-33.96-11.033l-20.063,61.748
		l-0.5,1.544l-20.063,61.749l33.959,11.034l-20.349,62.633c-24.076,74.098,3.833,128.271,70.216,149.84
		c23.54,7.649,65.352,21.234,65.352,21.234l-13.714,42.207l73.581,23.907l2.061,0.669l73.581,23.908l13.712-42.21
		c0,0,41.81,13.585,65.352,21.234c66.381,21.568,120.801-5.853,144.877-79.951l20.35-62.632l33.962,11.035l20.063-61.749
		l0.502-1.545l20.063-61.749L1080.156,559.812z"/>
</g>
</svg>
