<?xml version="1.0" encoding="utf-8"?>
<!-- Generator: Adobe Illustrator 16.0.0, SVG Export Plug-In . SVG Version: 6.00 Build 0)  -->
<!DOCTYPE svg PUBLIC "-//W3C//DTD SVG 1.1//EN" "http://www.w3.org/Graphics/SVG/1.1/DTD/svg11.dtd">
<svg version="1.1" id="Calque_1" xmlns="http://www.w3.org/2000/svg" xmlns:xlink="http://www.w3.org/1999/xlink" x="0px" y="0px"
	 width="1190.551px" height="1190.551px" viewBox="0 0 1190.551 1190.551" enable-background="new 0 0 1190.551 1190.551"
	 xml:space="preserve">
<path fill="#010202" d="M1111.311,623.736l20.351-62.633c24.076-74.099-3.835-128.271-70.216-149.841
	c-23.54-7.648-65.352-21.232-65.352-21.232l13.714-42.207l-73.58-23.909l-2.062-0.668l-73.58-23.909l-13.717,42.209
	c0,0-41.809-13.584-65.35-21.233c-66.381-21.568-120.802,5.852-144.878,79.951l-20.351,62.631l-33.96-11.034l-20.063,61.749
	l-0.502,1.544l-20.063,61.749l33.962,11.034l-20.351,62.63c-3.157,9.717-5.412,19.088-6.812,28.091v-39.122h-17.929v-23.536h-28.631
	V594.48h-41.244v21.519h-28.164V594.48h-41.243v21.519h-34.886V594.48h-37.239c154.189-11.177,275.813-139.8,275.813-296.84
	C594.98,133.258,461.722,0,297.34,0S-0.3,133.258-0.3,297.64c0,157.04,121.624,285.663,275.813,296.84h-37.237v21.519h-32.28V594.48
	h-41.242v21.519h-34.072V594.48H89.438v21.519H46.4v23.536H28.468v39.451H46.4v40.348H28.468v39.451H46.4v42.653H28.468v39.447H46.4
	v39.453H28.468v39.451H46.4v42.588H28.468v39.453H46.4v36.985H28.468v39.452H46.4v32.274H28.468v39.453H46.4v18.319h43.038v19.724
	h41.244v-19.724h34.072v19.724h41.242v-19.724h32.28v19.724h41.244v-19.724h35.639v19.724h41.246v-19.724h34.886v19.724h41.243
	v-19.724h28.164v19.724h41.244v-19.724h28.631v-18.319h17.929v-39.453h-17.929v-32.274h17.929v-39.452h-17.929v-36.985h17.929
	v-39.453h-17.929v-42.588h17.929v-39.451h-17.929v-39.453h17.929v-39.447h-17.929v-42.653h17.929v-38.636
	c6.826,38.269,33.744,66.194,77.023,80.257c23.543,7.649,65.35,21.233,65.35,21.233l-14.244,43.842l73.583,23.909l2.061,0.669
	l73.58,23.909l14.245-43.843c0,0,41.812,13.585,65.353,21.233c66.382,21.569,120.804-5.853,144.88-79.95l20.351-62.632
	l33.959,11.034l20.063-61.749l0.502-1.544l20.063-61.749L1111.311,623.736z M279.521,615.998v-21.265
	c5.897,0.348,11.835,0.546,17.819,0.546s11.922-0.198,17.819-0.546v21.265H279.521z M530.573,719.333v-40.348h17.878
	c-2.215,14.446-2.211,27.938-0.098,40.348H530.573z"/>
</svg>
