<?xml version="1.0" encoding="utf-8"?>
<!-- Generator: Adobe Illustrator 16.0.0, SVG Export Plug-In . SVG Version: 6.00 Build 0)  -->
<!DOCTYPE svg PUBLIC "-//W3C//DTD SVG 1.1//EN" "http://www.w3.org/Graphics/SVG/1.1/DTD/svg11.dtd">
<svg version="1.1" id="Calque_1" xmlns="http://www.w3.org/2000/svg" xmlns:xlink="http://www.w3.org/1999/xlink" x="0px" y="0px"
	 width="1190.551px" height="1190.551px" viewBox="0 0 1190.551 1190.551" enable-background="new 0 0 1190.551 1190.551"
	 xml:space="preserve">
<path fill="#010202" d="M1100.356,562.745c34.154-70.026,14.055-127.557-48.679-158.154c-22.247-10.851-61.761-30.123-61.761-30.123
	l19.454-39.888l-69.537-33.915l-1.947-0.95L868.349,265.8l-19.455,39.89c0,0-39.513-19.271-61.759-30.122
	c-62.733-30.598-120.441-11.018-154.596,59.009l-28.868,59.19l-32.096-15.654l-28.461,58.355l-0.713,1.461l-28.462,58.354
	l32.096,15.654l-28.869,59.188c-23.762,48.72-21.256,91.387,3.589,123.146c-49.912-56.595-121.223-94.368-202.446-100.048
	c-4.946-0.346-9.87-0.562-14.773-0.665h24.401v-19.726h34.885v19.726h41.244v-19.726h28.164v19.726h41.244v-19.726h28.631v-18.317
	h17.929v-39.453h-17.929v-32.276h17.929v-39.451h-17.929v-36.984h17.929v-39.453h-17.929V325.31h17.929v-39.451h-17.929v-39.453
	h17.929v-39.449h-17.929v-42.651h17.929v-39.451h-17.929V84.506h17.929v-39.45h-17.929V21.519h-28.631V0h-41.244v21.52h-28.164V0
	h-41.244v21.52h-34.885V0h-41.246v21.52h-35.639V0h-41.244v21.52h-32.28V0h-41.243v21.52h-34.072V0H60.97v21.52H17.932v23.536H0
	v39.45h17.933v40.349H0v39.451h17.933v42.651H0v39.449h17.933v39.453H0v39.451h17.933v42.588H0v39.453h17.933v36.984H0v39.451
	h17.933v32.276H0v39.453h17.933v18.317H60.97v19.726h41.243v-19.726h34.072v19.726h41.243v-19.726h32.28v19.726h41.244v-19.726
	h35.639v19.726h5.167C139.299,596.304,11.478,715.285,0.633,870.378c-11.467,163.981,112.171,306.211,276.152,317.678
	c163.982,11.466,306.211-112.172,317.678-276.153c5.552-79.396-20.569-153.692-67.606-210.517
	c10.189,10.841,23.245,20.216,38.986,27.894c22.249,10.852,61.759,30.122,61.759,30.122l-20.208,41.433l69.539,33.916l1.947,0.95
	l69.537,33.915l20.209-41.433c0,0,39.514,19.271,61.76,30.122c62.734,30.598,120.443,11.018,154.598-59.009l28.869-59.19
	l32.093,15.653l28.462-58.355l0.712-1.46l28.462-58.354l-32.094-15.653L1100.356,562.745z"/>
</svg>
