<?xml version="1.0" encoding="utf-8"?>
<!-- Generator: Adobe Illustrator 16.0.0, SVG Export Plug-In . SVG Version: 6.00 Build 0)  -->
<!DOCTYPE svg PUBLIC "-//W3C//DTD SVG 1.1//EN" "http://www.w3.org/Graphics/SVG/1.1/DTD/svg11.dtd">
<svg version="1.1" id="Calque_1" xmlns="http://www.w3.org/2000/svg" xmlns:xlink="http://www.w3.org/1999/xlink" x="0px" y="0px"
	 width="1190.551px" height="1190.551px" viewBox="0 0 1190.551 1190.551" enable-background="new 0 0 1190.551 1190.551"
	 xml:space="preserve">
<path fill="#010202" d="M1134.101,624.993l20.351-62.633c24.076-74.099-3.835-128.271-70.216-149.841
	c-23.54-7.648-65.352-21.232-65.352-21.232l13.714-42.207l-73.58-23.909l-2.062-0.668l-73.58-23.909l-13.718,42.209
	c0,0-41.809-13.584-65.35-21.233c-66.381-21.568-120.802,5.852-144.878,79.951l-20.352,62.631l-33.96-11.034l-20.062,61.749
	l-0.502,1.544l-20.063,61.749l33.962,11.034l-20.351,62.63c-3.157,9.717-5.412,19.088-6.812,28.091v-39.122h-17.929v-23.536h-28.631
	v-21.52h-41.244v21.519h-28.164v-21.519H414.08v21.519h-34.887v-21.519h-37.238c154.188-11.177,275.812-139.8,275.812-296.84
	C617.77,134.515,484.512,1.257,320.13,1.257S22.49,134.515,22.49,298.897c0,157.04,121.624,285.663,275.812,296.84h-37.237v21.519
	h-32.279v-21.519h-41.242v21.519h-34.072v-21.519h-41.244v21.519H69.19v23.536H51.258v39.451H69.19v40.348H51.258v39.451H69.19
	v42.652H51.258v39.447H69.19v39.453H51.258v39.451H69.19v42.588H51.258v39.453H69.19v36.985H51.258v39.452H69.19v32.273H51.258
	v39.453H69.19v18.319h43.038v19.724h41.244v-19.724h34.072v19.724h41.242v-19.724h32.279v19.724h41.244v-19.724h35.64v19.724h41.245
	v-19.724h34.887v19.724h41.242v-19.724h28.164v19.724h41.244v-19.724h28.631v-18.319h17.93v-39.453h-17.93v-32.273h17.93v-39.452
	h-17.93v-36.985h17.93v-39.453h-17.93v-42.588h17.93v-39.451h-17.93v-39.453h17.93v-39.446h-17.93v-42.653h17.93v-38.636
	c6.825,38.269,33.743,66.193,77.022,80.257c23.543,7.648,65.351,21.232,65.351,21.232l-14.244,43.843l73.583,23.908l2.061,0.669
	l73.58,23.909l14.245-43.843c0,0,41.812,13.585,65.353,21.233c66.383,21.568,120.805-5.854,144.88-79.95l20.352-62.632
	l33.959,11.033l20.062-61.749l0.502-1.544l20.063-61.749L1134.101,624.993z M302.311,617.255V595.99
	c5.897,0.348,11.835,0.545,17.819,0.545s11.922-0.197,17.819-0.545v21.265H302.311z M553.363,720.59v-40.348h17.878
	c-2.215,14.445-2.211,27.938-0.098,40.348H553.363z"/>
</svg>
