<?xml version="1.0" encoding="utf-8"?>
<!-- Generator: Adobe Illustrator 16.0.0, SVG Export Plug-In . SVG Version: 6.00 Build 0)  -->
<!DOCTYPE svg PUBLIC "-//W3C//DTD SVG 1.1//EN" "http://www.w3.org/Graphics/SVG/1.1/DTD/svg11.dtd">
<svg version="1.1" id="Calque_1" xmlns="http://www.w3.org/2000/svg" xmlns:xlink="http://www.w3.org/1999/xlink" x="0px" y="0px"
	 width="1190.551px" height="1190.551px" viewBox="0 0 1190.551 1190.551" enable-background="new 0 0 1190.551 1190.551"
	 xml:space="preserve">
<path fill="#010202" d="M1113.998,196.515v-39.451h-17.93v-23.536h-28.631v-21.519h-41.244v21.519H998.03v-21.519h-41.244v21.519
	h-34.885v-21.519h-41.246v21.519h-35.639v-21.519h-41.244v21.519h-32.28v-21.519h-41.243v21.519h-34.07v-21.519h-41.245v21.519
	h-43.038v23.536h-17.931v39.451h17.931v40.348h-17.931v35.714c-4.375-52.376-22.678-104.258-55.827-149.884
	C441.515-10.296,255.38-39.776,122.393,56.845C-10.595,153.466-40.076,339.601,56.545,472.589
	c58.095,79.961,148.553,122.481,240.361,122.69h-0.936h-64.927v35.707h-65.854c-77.912,0-120.81,43.285-120.81,113.083
	c0,24.752,0,68.715,0,68.715H0v77.367v2.167v77.367h44.381c0,0,0,43.961,0,68.713c0,69.797,42.896,113.081,120.808,113.081h65.854
	v35.709h64.927h1.625h64.926v-35.709h65.854c77.91,0,120.809-43.282,120.809-113.079c0-24.754,0-68.713,0-68.713h46.098v-77.369
	v-2.167v-77.367h-46.099c0,0,0-43.963,0-68.715c0-69.798-42.896-113.083-120.808-113.083H362.52V595.28h-61.596
	c59.564-0.666,119.505-19.165,171.365-56.843c72.947-52.999,114.743-132.932,121.675-216.252v36.231h17.931v39.453h-17.931v39.45
	h17.931v42.589h-17.931v39.452h17.931v36.985h-17.931v39.452h17.931v32.274h-17.931v39.453h17.931v18.318h43.038v19.725h41.245
	v-19.725h34.07v19.725h41.243v-19.725h32.28v19.725h41.244v-19.725h35.639v19.725h41.246v-19.725h34.885v19.725h41.244v-19.725
	h28.164v19.725h41.244v-19.725h28.631v-18.318h17.93v-39.453h-17.93v-32.274h17.93v-39.452h-17.93V519.36h17.93v-39.452h-17.93
	v-42.589h17.93v-39.45h-17.93v-39.453h17.93v-39.449h-17.93v-42.652h17.93v-39.451h-17.93v-40.348H1113.998z M611.895,318.966
	h-17.693c1.025-14.167,1.042-28.422,0.033-42.652h17.66V318.966z"/>
</svg>
