<?xml version="1.0" encoding="utf-8"?>
<!-- Generator: Adobe Illustrator 16.0.0, SVG Export Plug-In . SVG Version: 6.00 Build 0)  -->
<!DOCTYPE svg PUBLIC "-//W3C//DTD SVG 1.1//EN" "http://www.w3.org/Graphics/SVG/1.1/DTD/svg11.dtd">
<svg version="1.1" id="Calque_1" xmlns="http://www.w3.org/2000/svg" xmlns:xlink="http://www.w3.org/1999/xlink" x="0px" y="0px"
	 width="1190.551px" height="1190.551px" viewBox="0 0 1190.551 1190.551" enable-background="new 0 0 1190.551 1190.551"
	 xml:space="preserve">
<path fill="#010202" d="M1076.235,509.238v-65.854c0-77.912-43.282-120.81-113.079-120.81c-24.754,0-68.713,0-68.713,0v-46.099
	h-77.369h-2.167h-77.367v46.1c0,0-43.963,0-68.715,0c-69.798,0-113.083,42.896-113.083,120.809v65.854h-35.707v-0.185h-17.932
	v-40.348h17.932v-39.451h-17.932v-42.652h17.932v-39.449h-17.932v-39.453h17.932v-39.45h-17.932v-42.588h17.932v-39.453h-17.932
	v-36.985h17.932v-39.451h-17.932V77.496h17.932V38.043h-17.932V19.725h-43.038V0h-41.244v19.725h-34.071V0h-41.243v19.725h-32.28V0
	h-41.244v19.725h-35.639V0h-41.246v19.725h-34.885V0h-41.244v19.725H87.804V0H46.56v19.725H17.929v18.318H0v39.453h17.929v32.275H0
	v39.451h17.929v36.985H0v39.453h17.929v42.588H0v39.45h17.929v39.453H0v39.449h17.929v42.652H0v39.451h17.929v40.348H0v39.451
	h17.929v23.536H46.56v21.519h41.244V572.04h28.164v21.519h41.244V572.04h34.885v21.519h41.246V572.04h35.639v21.519h19.862
	C128.306,597.961-0.485,729.475-0.485,891.077c0,164.382,133.258,297.64,297.64,297.64s297.64-133.258,297.64-297.64
	c0-39.996-7.908-78.139-22.215-112.979c18.714,32.188,52.197,49.279,96.245,49.279c24.752,0,68.715,0,68.715,0v44.379h77.367h2.167
	h77.367v-44.38c0,0,43.961,0,68.713,0c69.797,0,113.081-42.896,113.081-120.809v-65.854h35.709v-64.927v-1.625v-64.926H1076.235z
	 M305.465,593.559h4.761V572.04h32.28v21.519h41.243V572.04h34.071v21.519h41.244V572.04h43.038v-23.536h17.932v25.659v1.624v64.927
	h35.707v65.854c0,19.486,2.708,36.782,7.861,51.765C515.971,662.912,418.612,596.661,305.465,593.559z"/>
</svg>
