<?xml version="1.0" encoding="utf-8"?>
<!-- Generator: Adobe Illustrator 16.0.0, SVG Export Plug-In . SVG Version: 6.00 Build 0)  -->
<!DOCTYPE svg PUBLIC "-//W3C//DTD SVG 1.1//EN" "http://www.w3.org/Graphics/SVG/1.1/DTD/svg11.dtd">
<svg version="1.1" id="Calque_1" xmlns="http://www.w3.org/2000/svg" xmlns:xlink="http://www.w3.org/1999/xlink" x="0px" y="0px"
	 width="1190.551px" height="1190.551px" viewBox="0 0 1190.551 1190.551" enable-background="new 0 0 1190.551 1190.551"
	 xml:space="preserve">
<path fill="#010202" d="M1115.781,510.155v-65.854c0-77.912-43.283-120.81-113.08-120.81c-24.754,0-68.713,0-68.713,0v-46.099
	h-77.369h-2.166h-77.367v46.1c0,0-43.963,0-68.715,0c-69.799,0-113.083,42.896-113.083,120.809v65.854h-35.707v-0.185h-17.932
	v-40.348h17.932v-39.451h-17.932v-42.652h17.932V348.07h-17.932v-39.453h17.932v-39.45h-17.932v-42.588h17.932v-39.453h-17.932
	v-36.985h17.932V110.69h-17.932V78.413h17.932V38.96h-17.932V20.642h-43.038V0.917h-41.244v19.725h-34.07V0.917h-41.243v19.725
	h-32.28V0.917h-41.244v19.725H272.89V0.917h-41.246v19.725H196.76V0.917h-41.244v19.725H127.35V0.917H86.106v19.725H57.475V38.96
	H39.547v39.453h17.929v32.275H39.547v39.451h17.929v36.985H39.547v39.453h17.929v42.588H39.547v39.45h17.929v39.453H39.547v39.449
	h17.929v42.652H39.547v39.451h17.929v40.348H39.547v39.451h17.929v23.536h28.631v21.519h41.244v-21.517h28.164v21.519h41.244
	v-21.519h34.885v21.519h41.246v-21.519h35.639v21.519h19.862C167.852,598.878,39.061,730.392,39.061,891.994
	c0,164.382,133.258,297.64,297.64,297.64s297.641-133.258,297.641-297.64c0-39.996-7.908-78.139-22.217-112.979
	c18.715,32.188,52.197,49.279,96.246,49.279c24.752,0,68.715,0,68.715,0v44.379h77.367h2.166h77.367v-44.38c0,0,43.961,0,68.713,0
	c69.797,0,113.082-42.896,113.082-120.809V641.63h35.709v-64.927v-1.625v-64.926h-35.709V510.155z M345.011,594.476h4.761v-21.519
	h32.28v21.519h41.243v-21.519h34.07v21.519h41.244v-21.519h43.038v-23.536h17.932v25.659v1.624v64.927h35.707v65.854
	c0,19.485,2.708,36.781,7.862,51.765C555.517,663.829,458.158,597.578,345.011,594.476z"/>
</svg>
