<?xml version="1.0" encoding="utf-8"?>
<!-- Generator: Adobe Illustrator 16.0.0, SVG Export Plug-In . SVG Version: 6.00 Build 0)  -->
<!DOCTYPE svg PUBLIC "-//W3C//DTD SVG 1.1//EN" "http://www.w3.org/Graphics/SVG/1.1/DTD/svg11.dtd">
<svg version="1.1" id="Calque_1" xmlns="http://www.w3.org/2000/svg" xmlns:xlink="http://www.w3.org/1999/xlink" x="0px" y="0px"
	 width="1190.551px" height="1190.551px" viewBox="0 0 1190.551 1190.551" enable-background="new 0 0 1190.551 1190.551"
	 xml:space="preserve">
<path fill="#010202" d="M1146.545,665.124l20.351-62.632c24.076-74.1-3.835-128.271-70.217-149.841
	c-23.54-7.648-65.352-21.234-65.352-21.234l13.714-42.207l-73.58-23.907l-2.062-0.67l-73.58-23.907l-13.715,42.209
	c0,0-41.809-13.585-65.35-21.233c-66.381-21.569-120.802,5.852-144.878,79.95l-20.352,62.632l-33.961-11.035l-20.062,61.748
	l-0.502,1.546l-2.221,6.831l7.162-40.616l-19.426-3.426l5.917-33.554l19.425,3.425l7.162-40.616l-19.426-3.426l5.604-31.789
	l19.427,3.425l7.162-40.617l-19.427-3.425l6.188-35.098l19.426,3.425l7.162-40.619l-19.422-3.427l6.058-34.354l19.425,3.425
	l7.162-40.617l-19.426-3.425l4.891-27.736l19.427,3.425l7.162-40.617l-19.427-3.425l4.973-28.196l-18.039-3.181l3.112-17.657
	l-38.854-6.851l-3.113,17.656l-31.786-5.604l3.113-17.656l-38.852-6.851l-3.113,17.656l-36.423-6.422l3.112-17.657l-38.854-6.851
	l-3.113,17.656l-41.94-7.396l3.113-17.656l-38.853-6.851l-3.113,17.656l-38.854-6.851L332.616,51l-38.851-6.851l-3.112,17.656
	l-42.006-7.406l3.113-17.656l-38.852-6.851l-3.113,17.656l-39.734-7.006l3.113-17.657l-38.849-6.849l-3.113,17.657l-23.179-4.087
	l-4.973,28.195L81.87,54.064l-7.162,40.617l21.192,3.737l-4.892,27.735l-21.191-3.736l-7.162,40.618l21.191,3.737l-6.058,34.354
	l-21.192-3.736l-7.162,40.619l21.192,3.736l-6.188,35.098l-21.192-3.736l-7.162,40.617l21.192,3.737l-5.605,31.789l-21.191-3.736
	l-7.161,40.616l21.19,3.736l-5.916,33.555l-21.192-3.736l-7.162,40.617l21.191,3.736l-7.474,42.385l23.179,4.087l-3.113,17.659
	l38.852,6.851l3.114-17.659l39.734,7.006l-3.113,17.66l38.852,6.851l3.114-17.66l42.004,7.406l-3.114,17.66l38.851,6.85
	l3.113-17.659l38.854,6.851l-3.114,17.66l38.852,6.851l3.114-17.66l41.941,7.396l-3.113,17.655
	c-80.896-14.969-167.582,3.457-237.509,58.091c-129.537,101.202-152.503,288.252-51.3,417.787
	c101.204,129.535,288.255,152.502,417.789,51.298c101.587-79.368,137.616-211.532,99.626-327.35
	c11.901,26.773,35.917,46.604,70.191,57.739c23.542,7.649,65.35,21.233,65.35,21.233l-14.244,43.842l73.582,23.908l2.062,0.67
	l73.58,23.907l14.246-43.844c0,0,41.811,13.586,65.352,21.234c66.382,21.568,120.804-5.853,144.88-79.951l20.352-62.632
	l33.959,11.034l20.062-61.748l0.502-1.545l20.063-61.748L1146.545,665.124z M590.548,691.956
	c-9.629,29.636-10.936,56.079-4.798,78.529c-10.334-26.984-24.792-52.912-43.509-76.869
	c-46.427-59.423-110.921-96.399-179.638-109.271l38.21,6.737l3.113-17.659l36.423,6.422l-3.112,17.659l38.852,6.851l3.113-17.659
	l31.786,5.604l-3.114,17.66l38.854,6.852l3.114-17.659l18.04,3.181l7.473-42.385l19.427,3.426l-17.845,54.917l33.962,11.035
	L590.548,691.956z"/>
</svg>
