<?xml version="1.0" encoding="utf-8"?>
<!-- Generator: Adobe Illustrator 16.0.0, SVG Export Plug-In . SVG Version: 6.00 Build 0)  -->
<!DOCTYPE svg PUBLIC "-//W3C//DTD SVG 1.1//EN" "http://www.w3.org/Graphics/SVG/1.1/DTD/svg11.dtd">
<svg version="1.1" id="Calque_1" xmlns="http://www.w3.org/2000/svg" xmlns:xlink="http://www.w3.org/1999/xlink" x="0px" y="0px"
	 width="1190.551px" height="1190.551px" viewBox="0 0 1190.551 1190.551" enable-background="new 0 0 1190.551 1190.551"
	 xml:space="preserve">
<path fill="#010202" d="M1049.981,385.041c-132.987-96.621-319.123-67.141-415.744,65.848
	c-22.713,31.261-38.453,65.46-47.523,100.742l5.99-37.819l-21.254-3.366l4.405-27.817l21.254,3.366l6.452-40.736l-21.254-3.366
	l5.457-34.456l21.254,3.366l6.452-40.738l-21.254-3.366l5.575-35.2l21.254,3.366l6.452-40.735l-21.254-3.367l5.05-31.882
	l21.254,3.366l6.452-40.735l-21.253-3.366l5.33-33.652l21.253,3.366l6.453-40.736l-21.256-3.366l6.734-42.508l-23.248-3.683
	l2.806-17.71l-38.965-6.173l-2.806,17.712l-39.852-6.312l2.806-17.711l-38.966-6.172l-2.805,17.712l-42.127-6.673l2.805-17.711
	l-38.963-6.171l-2.805,17.711l-38.968-6.172l2.806-17.711l-38.966-6.172l-2.805,17.711l-42.063-6.662l2.805-17.711l-38.967-6.172
	l-2.806,17.711l-36.529-5.785l2.805-17.711l-38.965-6.171l-2.806,17.71l-31.878-5.049l2.805-17.711L111.643,0l-2.806,17.711
	l-18.093-2.865l-6.732,42.508L64.53,54.268l-6.451,40.736l19.481,3.087l-5.33,33.651l-19.481-3.086l-6.452,40.735l19.482,3.086
	l-5.051,31.883l-19.481-3.086l-6.452,40.736l19.481,3.085l-5.574,35.201l-19.482-3.086l-6.452,40.738l19.481,3.085l-5.458,34.457
	l-19.481-3.087l-6.451,40.736l19.481,3.086l-4.405,27.817l-19.481-3.086l-6.454,40.737l19.483,3.085l-4.479,28.278l18.092,2.865
	l-2.805,17.708l38.968,6.172l2.805-17.708l31.878,5.049l-2.805,17.708l38.966,6.172l2.805-17.707l36.529,5.784l-2.805,17.709
	l38.968,6.172l2.805-17.709l42.063,6.663l-2.805,17.708l38.965,6.171l2.805-17.708l38.968,6.172l-2.805,17.708l38.963,6.172
	l2.805-17.709l42.127,6.673l-2.805,17.709l38.966,6.171l2.805-17.709l39.852,6.312l-2.805,17.709l38.965,6.171l2.805-17.709
	l23.246,3.683l4.479-28.279l21.01,3.328c-13.582,55.118-10.961,112.745,6.778,165.86c-12.323-28.065-38.803-50.12-79.08-63.207
	l-62.632-20.351l11.033-33.962l-61.748-20.062l-1.546-0.504l-61.749-20.062l-11.035,33.961l-62.631-20.351
	c-74.099-24.076-128.271,3.832-149.839,70.213c-7.649,23.543-21.233,65.351-21.233,65.351L48.484,697.15l-23.909,73.582
	l-0.669,2.061l-23.907,73.581l43.843,14.245c0,0-13.586,41.812-21.234,65.353c-21.569,66.382,5.853,120.804,79.95,144.88
	l62.632,20.35l-11.034,33.961l61.749,20.062l1.544,0.502l61.748,20.062l11.034-33.959l62.633,20.35
	c74.099,24.076,128.272-3.834,149.84-70.217c7.649-23.541,21.234-65.353,21.234-65.353l42.207,13.715l23.907-73.581l0.669-2.061
	l23.908-73.581l-42.206-13.713c0,0,13.584-41.81,21.233-65.351c8.229-25.327,9.318-48.91,3.413-69.733
	c19.882,52.055,54.573,99.133,103.016,134.328c132.987,96.621,319.123,67.141,415.744-65.848
	C1212.449,667.798,1182.969,481.662,1049.981,385.041z"/>
</svg>
