<?xml version="1.0" encoding="utf-8"?>
<!-- Generator: Adobe Illustrator 16.0.0, SVG Export Plug-In . SVG Version: 6.00 Build 0)  -->
<!DOCTYPE svg PUBLIC "-//W3C//DTD SVG 1.1//EN" "http://www.w3.org/Graphics/SVG/1.1/DTD/svg11.dtd">
<svg version="1.1" id="Calque_1" xmlns="http://www.w3.org/2000/svg" xmlns:xlink="http://www.w3.org/1999/xlink" x="0px" y="0px"
	 width="1190.551px" height="1190.551px" viewBox="0 0 1190.551 1190.551" enable-background="new 0 0 1190.551 1190.551"
	 xml:space="preserve">
<g>
	<polygon fill="#010202" points="366.305,574.69 401.19,574.69 401.19,594.415 442.434,594.415 442.434,574.69 470.598,574.69 
		470.598,594.415 511.842,594.415 511.842,574.69 540.473,574.69 540.473,556.372 558.401,556.372 558.401,516.919 540.473,516.919 
		540.473,484.643 558.401,484.643 558.401,445.192 540.473,445.192 540.473,408.207 558.401,408.207 558.401,368.754 
		540.473,368.754 540.473,326.166 558.401,326.166 558.401,286.715 540.473,286.715 540.473,247.262 558.401,247.262 
		558.401,207.813 540.473,207.813 540.473,165.161 558.401,165.161 558.401,125.71 540.473,125.71 540.473,85.362 558.401,85.362 
		558.401,45.911 540.473,45.911 540.473,22.375 511.842,22.375 511.842,0.856 470.598,0.856 470.598,22.375 442.434,22.375 
		442.434,0.856 401.19,0.856 401.19,22.375 366.305,22.375 366.305,0.856 325.059,0.856 325.059,22.375 289.42,22.375 289.42,0.856 
		248.176,0.856 248.176,22.375 215.896,22.375 215.896,0.856 174.654,0.856 174.654,22.375 140.581,22.375 140.581,0.856 
		99.337,0.856 99.337,22.375 56.299,22.375 56.299,45.911 38.367,45.911 38.367,85.362 56.299,85.362 56.299,125.71 38.367,125.71 
		38.367,165.161 56.299,165.161 56.299,207.813 38.367,207.813 38.367,247.262 56.299,247.262 56.299,286.715 38.367,286.715 
		38.367,326.166 56.299,326.166 56.299,368.754 38.367,368.754 38.367,408.207 56.299,408.207 56.299,445.192 38.367,445.192 
		38.367,484.643 56.299,484.643 56.299,516.919 38.367,516.919 38.367,556.372 56.299,556.372 56.299,574.69 99.337,574.69 
		99.337,594.415 140.581,594.415 140.581,574.69 174.654,574.69 174.654,594.415 215.896,594.415 215.896,574.69 248.176,574.69 
		248.176,594.415 289.42,594.415 289.42,574.69 325.059,574.69 325.059,594.415 335.707,594.415 366.305,594.415 	"/>
	<circle fill="#010202" cx="335.707" cy="892.055" r="297.64"/>
	<path fill="#010202" d="M1118.523,560.668l20.351-62.631c24.076-74.099-3.831-128.271-70.213-149.839
		c-23.543-7.649-65.351-21.233-65.351-21.233l14.245-43.842l-73.583-23.908l-2.062-0.67l-73.579-23.907l-14.246,43.843
		c0,0-41.812-13.585-65.353-21.233c-66.382-21.569-120.805,5.852-144.881,79.951l-20.35,62.631l-33.96-11.033l-20.063,61.748
		l-0.5,1.544l-20.062,61.749l33.959,11.034l-20.35,62.633c-24.076,74.099,3.833,128.271,70.217,149.841
		c23.539,7.648,65.352,21.232,65.352,21.232l-13.714,42.207l73.581,23.908l2.061,0.668l73.581,23.908l13.712-42.209
		c0,0,41.811,13.584,65.353,21.234c66.381,21.566,120.801-5.854,144.877-79.951l20.35-62.633l33.962,11.035l20.063-61.75
		l0.502-1.545l20.062-61.748L1118.523,560.668z"/>
</g>
</svg>
