<?xml version="1.0" encoding="utf-8"?>
<!-- Generator: Adobe Illustrator 16.0.0, SVG Export Plug-In . SVG Version: 6.00 Build 0)  -->
<!DOCTYPE svg PUBLIC "-//W3C//DTD SVG 1.1//EN" "http://www.w3.org/Graphics/SVG/1.1/DTD/svg11.dtd">
<svg version="1.1" id="Calque_1" xmlns="http://www.w3.org/2000/svg" xmlns:xlink="http://www.w3.org/1999/xlink" x="0px" y="0px"
	 width="1190.551px" height="1190.551px" viewBox="0 0 1190.551 1190.551" enable-background="new 0 0 1190.551 1190.551"
	 xml:space="preserve">
<path fill="#010202" d="M782.289,827.02c-3.705,0-7.365,0.188-10.976,0.555v-19.723h28.631v-18.318h17.93V750.08h-17.93v-32.275
	h17.93v-39.451h-17.93v-36.984h17.93v-39.453h-17.93v-42.588h17.93v-39.45h-17.93v-39.453h17.93v-39.449h-17.93v-42.652h17.93
	v-39.451h-17.93v-40.349h17.93v-39.45h-17.93v-23.539h-28.631v-21.518H754.68v-0.001c13.824-0.004,53.084-0.013,67.967,0.001
	c33.889,0.028,70.064-5.938,70.064-43.958c0.001-34.938-36.177-41.524-62.355-41.524c-10.553,0-59.851,0-75.674,0
	c-3.093,0-4.904,0-4.904,0c-44.541,0-377.811,0-389.578,0c-26.182,0-62.358,6.586-62.358,41.524
	c-0.002,38.021,36.176,43.987,70.062,43.958c16.961-0.018,338.195-0.002,381.87,0H730.07v21.518h-28.164v-21.518h-41.243v21.518
	h-34.886v-21.518h-41.246v21.518h-35.639v-21.518h-41.244v21.518h-32.278v-21.518h-41.241v21.518h-34.073v-21.518h-32.15h-9.095
	v21.518h-43.038v23.536H297.84v39.45h17.932v40.349H297.84v39.451h17.932v42.652H297.84v39.449h17.932v39.453H297.84v39.45h17.932
	v42.587H297.84v39.453h17.932v36.985H297.84v39.451h17.932v32.276H297.84v39.451h17.932v18.318h43.038v19.727h41.244v-19.727h34.073
	v19.727h41.241v-19.727h32.279v19.727h40.521c-50.471,8.812-88.957,52.943-88.957,105.895c0,59.275,48.225,107.5,107.5,107.5
	c59.273,0,107.5-48.225,107.5-107.5c0-52.951-38.487-97.082-88.957-105.895h40.521v-19.727h34.886v19.727h41.243v-19.727h28.164
	v19.727h41.23c-54.133,5.521-96.51,51.377-96.51,106.941c0,59.275,48.224,107.5,107.499,107.5c59.274,0,107.5-48.225,107.5-107.5
	S841.565,827.02,782.289,827.02z M566.712,825.971c-6.07,0-12.021,0.514-17.819,1.484v-19.604h35.639v19.604
	C578.733,826.484,572.781,825.971,566.712,825.971z"/>
</svg>
