<?xml version="1.0" encoding="utf-8"?>
<!-- Generator: Adobe Illustrator 16.0.0, SVG Export Plug-In . SVG Version: 6.00 Build 0)  -->
<!DOCTYPE svg PUBLIC "-//W3C//DTD SVG 1.1//EN" "http://www.w3.org/Graphics/SVG/1.1/DTD/svg11.dtd">
<svg version="1.1" id="Calque_1" xmlns="http://www.w3.org/2000/svg" xmlns:xlink="http://www.w3.org/1999/xlink" x="0px" y="0px"
	 width="1190.551px" height="1190.551px" viewBox="0 0 1190.551 1190.551" enable-background="new 0 0 1190.551 1190.551"
	 xml:space="preserve">
<path fill="#010202" d="M930.034,540.911c-12.476-4.054-22.726-2.021-31.092,3.415l0.029-0.021l-10.54-14.506l26.11-18.972
	l10.54,14.507l31.919-23.188l-10.541-14.509l14.819-10.768l-25.297-34.818l15.957-11.593l-24.242-33.367l-15.956,11.593
	l-20.027-27.565l15.957-11.594l-24.242-33.366l-15.957,11.594l-18.974-26.114l15.957-11.594l-24.242-33.367l-15.957,11.594
	l-20.948-28.832l15.957-11.594l-24.244-33.369l-15.957,11.594l-20.505-28.224l15.957-11.593l-24.242-33.368l-15.957,11.593
	l-16.555-22.785l15.957-11.593l-24.242-33.367l-15.957,11.593l-16.829-23.162l-14.819,10.768l-10.539-14.507l-31.918,23.19
	l10.539,14.506l-26.111,18.971l-10.539-14.507l-31.917,23.188l10.54,14.506l-29.923,21.74l-10.539-14.506l-31.918,23.19
	l10.539,14.505l-34.455,25.032l-10.539-14.504l-31.916,23.189l10.539,14.506l-31.917,23.189l-10.539-14.506l-31.915,23.188
	l10.54,14.507l-34.509,25.07l-10.538-14.506l-31.917,23.188l10.539,14.507l-32.643,23.715l-10.539-14.504l-31.916,23.187
	l10.539,14.506l-19.041,13.834l16.829,23.163l-17.408,12.649l24.242,33.367l17.407-12.648l16.556,22.785l-17.408,12.647
	l24.242,33.366l17.407-12.648l20.507,28.224l-17.409,12.647l24.244,33.369l17.407-12.648l20.948,28.833l-17.408,12.646
	l24.242,33.367l17.408-12.646l18.973,26.112l-17.406,12.648l18.229,25.091c-12.736-16.35-30.31-29.198-51.461-36.07
	c-56.374-18.316-117.14,12.645-135.457,69.02c-18.317,56.374,12.646,117.141,69.021,135.458c10.578,3.438,21.312,5.139,31.891,5.264
	c-20.711,0.694-41.433,7.36-59.423,20.431c-47.956,34.842-58.624,102.201-23.782,150.156
	c34.841,47.955,102.201,58.624,150.156,23.783c47.955-34.842,58.623-102.202,23.782-150.156
	c-20.799-28.627-53.186-43.962-86.114-44.266c44.034-1.393,84.568-29.979,98.948-74.23c10.662-32.815,4.621-67.117-13.405-93.672
	l1.858,2.561l17.407-12.647l20.028,27.565l-17.408,12.646l24.242,33.367l17.408-12.646l25.298,34.817l19.04-13.834l10.541,14.507
	l31.916-23.188l-10.539-14.507l32.642-23.718l10.54,14.509l31.916-23.188l-10.54-14.508l34.506-25.07l10.541,14.507l31.915-23.188
	l-10.54-14.507l31.918-23.19l10.54,14.509l31.916-23.188l-10.54-14.507l34.454-25.033l10.54,14.507l31.919-23.189l-10.54-14.508
	l29.922-21.739l10.54,14.508l28.577-20.763c-12.004,9.644-19.721,26.377-24.36,40.654c-3.262,10.037-18.493,56.92-23.384,71.972
	c-0.955,2.938-1.516,4.664-1.516,4.664c-13.764,42.359-116.749,359.317-120.387,370.511c-8.092,24.9-13.007,61.343,20.222,72.139
	c36.158,11.748,53.013-20.815,63.458-53.054c5.226-16.136,104.507-321.644,118.005-363.18c0,0,0.068-0.212,0.197-0.611
	c0.857-2.644,1.317-4.054,1.317-4.054h-0.001c4.27-13.15,16.393-50.489,21.005-64.64
	C960.688,588.911,966.193,552.66,930.034,540.911z"/>
</svg>
