<?xml version="1.0" encoding="utf-8"?>
<!-- Generator: Adobe Illustrator 16.0.0, SVG Export Plug-In . SVG Version: 6.00 Build 0)  -->
<!DOCTYPE svg PUBLIC "-//W3C//DTD SVG 1.1//EN" "http://www.w3.org/Graphics/SVG/1.1/DTD/svg11.dtd">
<svg version="1.1" id="Calque_1" xmlns="http://www.w3.org/2000/svg" xmlns:xlink="http://www.w3.org/1999/xlink" x="0px" y="0px"
	 width="1190.551px" height="1190.551px" viewBox="0 0 1190.551 1190.551" enable-background="new 0 0 1190.551 1190.551"
	 xml:space="preserve">
<path fill="#010202" d="M934.778,330.825v-41.244h-21.52v-43.038h-23.535v-17.932h-39.451v17.932h-40.348v-17.932h-39.451v17.932
	h-42.652v-17.932h-39.447v17.932H648.92v-17.932h-39.451v17.932h-42.588v-17.932h-39.453v17.932h-36.985v-17.932h-39.45v17.932
	h-32.275v-17.932h-39.453v17.932h-18.318v43.038h-19.726v4.796c-0.502-32.578-7.507-65.767-43.923-65.767
	c-34.938,0-41.523,36.18-41.523,62.359c0,10.554,0,59.85,0,75.674c0,3.091,0,4.904,0,4.904c0,44.541,0,377.811,0,389.578
	c0,26.182,6.586,62.357,41.522,62.357c38.021,0.004,43.987-36.176,43.958-70.062c-0.004-3.83-0.006-23.176-0.007-51.334h19.697
	v28.631h18.317v17.932h39.453v-17.932h32.275v17.932h38.809c-50.179,9.051-88.365,53.045-88.365,105.793
	c0,59.273,48.225,107.5,107.5,107.5c59.274,0,107.5-48.227,107.5-107.5c0-52.748-38.188-96.742-88.367-105.793h38.812v-17.932
	h42.588v17.932h39.451v-17.932h39.455v17.932h39.383c-49.062,9.945-86.107,53.408-86.107,105.359c0,59.273,48.223,107.5,107.5,107.5
	c59.271,0,107.5-48.227,107.5-107.5c0-51.953-37.049-95.415-86.109-105.359h39.385v-17.932h40.35v17.932h39.449v-17.932h23.537
	v-28.631h21.518v-41.244H913.26v-28.164h21.518v-41.243H913.26v-34.886h21.518v-41.246H913.26v-35.639h21.518V438.42H913.26v-32.279
	h21.518v-41.242H913.26v-34.073L934.778,330.825L934.778,330.825z M360.944,660.842h-19.698c0-9.027,0-18.452,0-28.164h19.698
	V660.842z M360.944,591.434h-19.697c0-11.535,0-23.219,0.001-34.886h19.696V591.434z M360.944,515.303h-19.695
	c0-12.202,0.001-24.15,0.001-35.639h19.694V515.303z M360.944,438.42h-19.692c0-11.917,0.001-22.793,0.001-32.279h19.691V438.42z
	 M360.944,364.898h-19.691c-0.002-7.69-0.005-20.978-0.006-34.073h19.697V364.898z M508.934,746.939
	c-6.306,0-12.483,0.551-18.493,1.598v-17.821h36.985v17.821C521.417,747.49,515.239,746.939,508.934,746.939z M749.147,746.507
	c-7.301,0-14.432,0.735-21.326,2.128v-17.918h42.652v17.918C763.578,747.242,756.448,746.507,749.147,746.507z"/>
</svg>
