<?xml version="1.0" encoding="utf-8"?>
<!-- Generator: Adobe Illustrator 16.0.0, SVG Export Plug-In . SVG Version: 6.00 Build 0)  -->
<!DOCTYPE svg PUBLIC "-//W3C//DTD SVG 1.1//EN" "http://www.w3.org/Graphics/SVG/1.1/DTD/svg11.dtd">
<svg version="1.1" id="Calque_1" xmlns="http://www.w3.org/2000/svg" xmlns:xlink="http://www.w3.org/1999/xlink" x="0px" y="0px"
	 width="1190.551px" height="1190.551px" viewBox="0 0 1190.551 1190.551" enable-background="new 0 0 1190.551 1190.551"
	 xml:space="preserve">
<g>
	<path fill="#010202" d="M822.651,705.053c-16.961,0.018-338.196,0.002-381.871,0h6.283v-17.932h36.986v17.932h39.453v-17.932
		h42.588v17.932h39.451v-17.932h39.451v17.932h39.449v-17.932h42.654v17.932h39.447v-17.932h40.35v17.932H822.651h23.695v-17.932
		h23.533V658.49h21.52v-41.244h-21.52v-28.164h21.52V547.84h-21.52v-34.886h21.52v-41.246h-21.52v-35.639h21.52v-41.244h-21.52
		v-32.278h21.52v-41.242h-21.52v-34.073h21.52v-41.245h-21.52v-43.038h-23.533v-17.932h-39.451v17.932h-40.35v-17.932h-39.449
		v17.932h-42.654v-17.932h-39.449v17.932h-39.451v-17.932h-39.451v17.932h-42.588v-17.932H484.05v17.932h-36.986v-17.932h-39.451
		v17.932h-32.274v-17.932h-39.453v17.932h-18.319v43.038h-19.724v41.244h19.724v34.073h-19.724v41.242h19.724v32.279h-19.724v41.244
		h19.724v35.639h-19.724v41.246h19.724v34.886h-19.724v41.243h19.724v28.164h-19.724v41.244h19.724v28.631h18.319v17.932h32.021
		h7.432v-17.932h32.273v17.932h28.264v0.001c-13.826,0.004-53.084,0.013-67.969-0.001c-33.889-0.028-70.065,5.938-70.065,43.958
		c0,34.938,36.18,41.522,62.357,41.522c6.321,0,26.54,0,45.144,0c12.455,0,24.186,0,30.532,0c3.09,0,4.902,0,4.902,0
		c20.015,0,98.322,0,179.564,0c99.562,0,203.533,0,210.014,0c26.182,0,62.357-6.586,62.357-41.522
		C892.717,710.99,856.537,705.024,822.651,705.053z"/>
	<path fill="#010202" d="M405.342,790.534c-59.274,0-107.5,48.225-107.5,107.5c0,59.276,48.225,107.5,107.5,107.5
		c59.274,0,107.5-48.225,107.5-107.5C512.842,838.758,464.617,790.534,405.342,790.534z"/>
	<path fill="#010202" d="M512.842,898.034c0,59.276,48.225,107.5,107.5,107.5c59.273,0,107.498-48.225,107.498-107.5
		s-48.225-107.5-107.498-107.5C561.067,790.534,512.842,838.758,512.842,898.034z"/>
</g>
</svg>
