<?xml version="1.0" encoding="utf-8"?>
<!-- Generator: Adobe Illustrator 16.0.0, SVG Export Plug-In . SVG Version: 6.00 Build 0)  -->
<!DOCTYPE svg PUBLIC "-//W3C//DTD SVG 1.1//EN" "http://www.w3.org/Graphics/SVG/1.1/DTD/svg11.dtd">
<svg version="1.1" id="Calque_1" xmlns="http://www.w3.org/2000/svg" xmlns:xlink="http://www.w3.org/1999/xlink" x="0px" y="0px"
	 width="1190.551px" height="1190.551px" viewBox="0 0 1190.551 1190.551" enable-background="new 0 0 1190.551 1190.551"
	 xml:space="preserve">
<path fill="#010202" d="M869.879,289.285h-23.533v-17.932h-15.991c26.182,0,62.356-6.586,62.356-41.523
	c0.005-38.021-36.174-43.987-70.062-43.959c-16.961,0.018-338.195,0.002-381.87,0c0,0-0.224,0-0.644,0c-2.777,0-4.262,0-4.262,0
	v0.001c-13.826,0.004-53.084,0.014-67.968-0.001c-33.889-0.027-70.066,5.938-70.066,43.958c0,34.938,36.18,41.523,62.357,41.523
	h-24.313v17.933h-18.319v43.038h-19.724v41.243h19.724v34.073h-19.724v41.243h19.724v32.279h-19.724v41.244h19.724v35.639h-19.724
	v41.247h19.724v34.886h-19.724v41.243h19.724v28.164h-19.724v41.244h19.724v28.631h18.319v17.93h39.453v-17.93h32.273v17.93h38.811
	c-50.181,9.053-88.366,53.048-88.366,105.793c0,59.275,48.224,107.5,107.5,107.5c59.274,0,107.5-48.225,107.5-107.5
	c0-52.745-38.188-96.74-88.366-105.793h38.812v-17.93h42.588v17.93h39.452v-17.93h39.45v17.93h39.386
	c-49.062,9.946-86.109,53.408-86.109,105.359c0,59.276,48.225,107.5,107.5,107.5c59.273,0,107.499-48.224,107.499-107.5
	c0-51.951-37.046-95.413-86.108-105.359h39.386v-17.93h40.35v17.93h39.452v-17.93h23.534v-28.631h21.519v-41.244H869.88v-28.164
	h21.519v-41.243H869.88v-34.885h21.519v-41.247H869.88v-35.639h21.519v-41.244H869.88v-32.279h21.519V407.64H869.88v-34.073h21.519
	v-41.243H869.88L869.879,289.285L869.879,289.285z M727.096,271.353v17.933h-42.654v-17.933
	C699.191,271.353,713.527,271.353,727.096,271.353z M484.049,271.353v17.933h-36.986v-17.933
	C455.461,271.353,468.218,271.353,484.049,271.353z M407.612,289.285h-32.274v-17.932c9.338,0,21.204,0,32.273,0L407.612,289.285
	L407.612,289.285z M465.556,789.682c-6.305,0-12.483,0.552-18.493,1.598V773.46h36.986v17.82
	C478.038,790.233,471.861,789.682,465.556,789.682z M566.09,289.285h-42.588v-17.932c13.348,0,27.677,0,42.588,0V289.285z
	 M644.992,289.285h-39.451v-17.932c13.062,0,26.292,0,39.45,0L644.992,289.285L644.992,289.285z M705.769,789.248
	c-7.3,0-14.432,0.734-21.327,2.128v-17.917h42.654v17.918C720.2,789.983,713.069,789.248,705.769,789.248z M806.894,289.285h-40.35
	v-17.932c15.942,0,29.703,0,40.35,0V289.285z"/>
</svg>
