<?xml version="1.0" encoding="utf-8"?>
<!-- Generator: Adobe Illustrator 16.0.0, SVG Export Plug-In . SVG Version: 6.00 Build 0)  -->
<!DOCTYPE svg PUBLIC "-//W3C//DTD SVG 1.1//EN" "http://www.w3.org/Graphics/SVG/1.1/DTD/svg11.dtd">
<svg version="1.1" id="Calque_1" xmlns="http://www.w3.org/2000/svg" xmlns:xlink="http://www.w3.org/1999/xlink" x="0px" y="0px"
	 width="1190.551px" height="1190.551px" viewBox="0 0 1190.551 1190.551" enable-background="new 0 0 1190.551 1190.551"
	 xml:space="preserve">
<g>
	<path fill="#010202" d="M830.355,705.053h15.989v-17.932h23.533V658.49h21.52v-41.244h-21.52v-28.164h21.52V547.84h-21.52v-34.886
		h21.52v-41.246h-21.52v-35.639h21.52v-41.244h-21.52v-32.278h21.52v-41.242h-21.52v-34.073h21.52v-41.245h-21.52v-43.038h-23.533
		v-17.932h-39.452v17.932h-40.35v-17.932h-39.448v17.932H684.44v-17.932H644.99v17.932h-39.451v-17.932h-39.451v17.932H523.5
		v-17.932h-39.453v17.932h-36.986v-17.932H407.61v17.932h-32.274v-17.932h-39.453v17.932h-18.319v43.038h-19.724v41.244h19.724
		v34.073h-19.724v41.242h19.724v32.279h-19.724v41.244h19.724v35.639h-19.724v41.246h19.724v34.886h-19.724v41.243h19.724v28.164
		h-19.724v41.244h19.724v28.631h18.319v17.932h24.316c-26.182,0-62.357,6.586-62.357,41.523
		c-0.002,38.02,36.176,43.986,70.062,43.957c16.961-0.017,338.195-0.002,381.87,0c0,0,0.223,0,0.643,0c2.778,0,4.265,0,4.265,0
		v-0.001c13.825-0.004,53.084-0.013,67.967,0.001c33.889,0.028,70.064-5.938,70.064-43.957
		C892.711,711.639,856.533,705.053,830.355,705.053z M375.335,705.053v-17.932h32.273v17.932
		C394.452,705.053,383.452,705.053,375.335,705.053z M447.061,705.053v-17.932h36.986v17.932
		C471.142,705.053,458.724,705.053,447.061,705.053z M523.5,705.053v-17.932h42.588v17.932
		C551.854,705.053,537.56,705.053,523.5,705.053z M605.539,705.053v-17.932h39.45v17.932
		C632.349,705.053,619.108,705.053,605.539,705.053z M684.44,705.053v-17.932h42.654v17.932
		C715.624,705.053,701.084,705.053,684.44,705.053z M766.542,705.053v-17.932h40.35v17.932
		C793.767,705.053,778.137,705.053,766.542,705.053z"/>
	<path fill="#010202" d="M405.339,790.534c-59.275,0-107.5,48.225-107.5,107.5s48.225,107.5,107.5,107.5
		c59.273,0,107.5-48.226,107.5-107.5C512.839,838.758,464.614,790.534,405.339,790.534z"/>
	<path fill="#010202" d="M620.339,790.534c-59.275,0-107.5,48.226-107.5,107.5c0,59.275,48.225,107.5,107.5,107.5
		c59.273,0,107.5-48.225,107.5-107.5C727.839,838.76,679.614,790.534,620.339,790.534z"/>
</g>
</svg>
