<?xml version="1.0" encoding="utf-8"?>
<!-- Generator: Adobe Illustrator 16.0.0, SVG Export Plug-In . SVG Version: 6.00 Build 0)  -->
<!DOCTYPE svg PUBLIC "-//W3C//DTD SVG 1.1//EN" "http://www.w3.org/Graphics/SVG/1.1/DTD/svg11.dtd">
<svg version="1.1" id="Calque_1" xmlns="http://www.w3.org/2000/svg" xmlns:xlink="http://www.w3.org/1999/xlink" x="0px" y="0px"
	 width="1190.551px" height="1190.551px" viewBox="0 0 1190.551 1190.551" enable-background="new 0 0 1190.551 1190.551"
	 xml:space="preserve">
<g>
	<path fill="#010202" d="M827.794,246.543h-23.533v-17.932h-39.452v17.932h-40.35v-17.932h-39.448v17.932h-42.654v-17.932h-39.449
		v17.932h-39.451v-17.932h-39.451v17.932h-42.588v-17.932h-39.453v17.932h-36.986v-17.932h-39.451v17.932h-32.274v-17.932h-39.453
		v17.932H275.48v43.038h-19.724v41.244h19.724v34.073h-19.724v41.242h19.724v32.279h-19.724v41.244h19.724v35.639h-19.724v41.246
		h19.724v34.886h-19.724v41.243h19.724v28.164h-19.724v41.244h19.724v28.631h18.319v17.931h39.453v-17.931h32.273v17.931h38.811
		c-50.18,9.053-88.365,53.047-88.365,105.793c0,59.273,48.224,107.5,107.5,107.5c59.274,0,107.5-48.227,107.5-107.5
		c0-52.746-38.188-96.74-88.366-105.793h38.812v-17.931h42.588v17.931h39.451v-17.931h39.45v17.931h39.386
		c-49.062,9.946-86.109,53.408-86.109,105.361c0,59.273,48.225,107.5,107.5,107.5c59.273,0,107.499-48.227,107.499-107.5
		c0-51.955-37.046-95.416-86.108-105.361h39.385v-17.931h40.35v17.931h39.452v-17.931h23.533v-28.631h21.52v-41.244h-21.52v-28.164
		h21.52v-41.243h-21.52v-34.886h21.52v-41.246h-21.52v-35.639h21.52v-41.244h-21.52v-32.278h21.52v-41.242h-21.52v-34.073h21.52
		v-41.245h-21.52L827.794,246.543L827.794,246.543z M423.471,746.939c-6.305,0-12.483,0.551-18.493,1.598v-17.821h36.986v17.821
		C435.953,747.49,429.776,746.939,423.471,746.939z M663.684,746.507c-7.3,0-14.432,0.735-21.327,2.128v-17.918h42.654v17.918
		C678.115,747.242,670.984,746.507,663.684,746.507z"/>
	<path fill="#010202" d="M934.794,298.677c0.028-33.889-5.938-70.066-43.956-70.066c-34.938,0-41.523,36.18-41.523,62.358
		c0,10.554,0,59.85,0,75.674c0,3.091,0,4.904,0,4.904c0,44.541,0,377.811,0,389.578c0,26.182,6.586,62.357,41.523,62.357
		c38.02,0.004,43.984-36.176,43.957-70.062c-0.018-16.961-0.003-338.195,0-381.87c0,0,0-0.223,0-0.644c0-2.777,0-4.262,0-4.262
		h-0.002C934.789,352.818,934.781,313.559,934.794,298.677z"/>
</g>
</svg>
