<?xml version="1.0" encoding="utf-8"?>
<!-- Generator: Adobe Illustrator 16.0.0, SVG Export Plug-In . SVG Version: 6.00 Build 0)  -->
<!DOCTYPE svg PUBLIC "-//W3C//DTD SVG 1.1//EN" "http://www.w3.org/Graphics/SVG/1.1/DTD/svg11.dtd">
<svg version="1.1" id="Calque_1" xmlns="http://www.w3.org/2000/svg" xmlns:xlink="http://www.w3.org/1999/xlink" x="0px" y="0px"
	 width="1190.551px" height="1190.551px" viewBox="0 0 1190.551 1190.551" enable-background="new 0 0 1190.551 1190.551"
	 xml:space="preserve">
<g>
	<path fill="#010202" d="M572.039,17.932h-23.534V0h-39.452v17.932h-40.349V0h-39.449v17.932h-42.654V0h-39.449v17.932H307.7V0
		h-39.451v17.932h-42.588V0h-39.453v17.932h-36.986V0h-39.451v17.932H77.496V0H38.043v17.932H19.724V60.97H0v41.244h19.724v34.073H0
		v41.242h19.724v32.279H0v41.244h19.724v35.639H0v41.246h19.724v34.886H0v41.243h19.724v28.164H0v41.244h19.724v28.631h18.319
		v17.931h39.453v-17.931h32.274v17.931h38.81c-50.179,9.052-88.365,53.046-88.365,105.793c0,59.273,48.224,107.5,107.5,107.5
		c59.275,0,107.5-48.226,107.5-107.5c0-52.747-38.188-96.741-88.366-105.793h38.812v-17.931h42.588v17.931H307.7v-17.931h39.451
		v17.931h39.385c-49.062,9.946-86.109,53.408-86.109,105.36c0,59.274,48.225,107.5,107.5,107.5
		c59.274,0,107.499-48.226,107.499-107.5c0-51.954-37.046-95.415-86.108-105.36h39.385v-17.931h40.349v17.931h39.452v-17.931h23.534
		v-28.631h21.519v-41.244h-21.519v-28.164h21.519v-41.243h-21.519v-34.886h21.519v-41.246h-21.519v-35.639h21.519v-41.244h-21.519
		V177.53h21.519v-41.242h-21.519v-34.073h21.519V60.97h-21.519V17.932z M167.715,518.329c-6.305,0-12.483,0.551-18.493,1.597
		v-17.821h36.986v17.821C180.198,518.88,174.02,518.329,167.715,518.329z M407.928,517.896c-7.3,0-14.432,0.735-21.327,2.128
		v-17.918h42.654v17.918C422.36,518.631,415.228,517.896,407.928,517.896z"/>
	<path fill="#010202" d="M679.039,70.066c0.028-33.889-5.938-70.066-43.957-70.066c-34.938,0-41.523,36.18-41.523,62.358
		c0,10.554,0,59.85,0,75.674c0,3.091,0,4.904,0,4.904c0,44.541,0,377.811,0,389.578c0,26.182,6.586,62.358,41.523,62.358
		c38.02,0.003,43.985-36.176,43.957-70.063c-0.017-16.961-0.002-338.195,0-381.87c0,0,0-0.223,0-0.644c0-2.777,0-4.262,0-4.262
		h-0.001C679.034,124.207,679.026,84.948,679.039,70.066z"/>
</g>
</svg>
