<?xml version="1.0" encoding="utf-8"?>
<!-- Generator: Adobe Illustrator 16.0.0, SVG Export Plug-In . SVG Version: 6.00 Build 0)  -->
<!DOCTYPE svg PUBLIC "-//W3C//DTD SVG 1.1//EN" "http://www.w3.org/Graphics/SVG/1.1/DTD/svg11.dtd">
<svg version="1.1" id="Calque_1" xmlns="http://www.w3.org/2000/svg" xmlns:xlink="http://www.w3.org/1999/xlink" x="0px" y="0px"
	 width="1190.551px" height="1190.551px" viewBox="0 0 1190.551 1190.551" enable-background="new 0 0 1190.551 1190.551"
	 xml:space="preserve">
<path fill="#010202" d="M484.45,678.484c-3.705,0-7.366,0.188-10.976,0.556v-19.724h28.631v-18.318h17.93v-39.452h-17.93v-32.276
	h17.93v-39.451h-17.93v-36.985h17.93v-39.453h-17.93v-42.588h17.93v-39.45h-17.93v-39.453h17.93v-39.449h-17.93v-42.652h17.93
	v-39.451h-17.93v-40.349h17.93v-39.45h-17.93V107h-28.631V85.482h-16.634v-0.001c13.825-0.004,53.084-0.013,67.967,0.001
	c33.889,0.028,70.065-5.938,70.065-43.958C594.873,6.586,558.695,0,532.516,0c-10.553,0-59.85,0-75.674,0c-3.092,0-4.904,0-4.904,0
	C407.397,0,74.127,0,62.36,0C36.178,0,0.001,6.586,0.001,41.524c-0.002,38.021,36.176,43.987,70.063,43.958
	c16.961-0.018,338.195-0.002,381.87,0h-19.704V107h-28.164V85.482h-41.243V107h-34.886V85.482h-41.246V107h-35.639V85.482h-41.244
	V107H177.53V85.482h-41.242V107h-34.073V85.482H70.065H60.97V107H17.932v23.536H0v39.45h17.932v40.349H0v39.451h17.932v42.652H0
	v39.449h17.932v39.453H0v39.45h17.932v42.588H0v39.453h17.932v36.985H0v39.451h17.932v32.276H0v39.452h17.932v18.318H60.97v19.726
	h41.244v-19.726h34.073v19.726h41.242v-19.726h32.279v19.726h40.521c-50.47,8.812-88.957,52.943-88.957,105.895
	c0,59.276,48.225,107.5,107.5,107.5c59.274,0,107.5-48.224,107.5-107.5c0-52.952-38.487-97.082-88.957-105.895h40.522v-19.726
	h34.886v19.726h41.243v-19.726h28.164v19.726h41.23c-54.133,5.521-96.51,51.377-96.51,106.942c0,59.275,48.224,107.5,107.5,107.5
	c59.274,0,107.5-48.225,107.5-107.5S543.725,678.484,484.45,678.484z M268.872,677.436c-6.07,0-12.021,0.514-17.819,1.485v-19.605
	h35.639v19.605C280.893,677.949,274.942,677.436,268.872,677.436z"/>
</svg>
