<?xml version="1.0" encoding="utf-8"?>
<!-- Generator: Adobe Illustrator 16.0.0, SVG Export Plug-In . SVG Version: 6.00 Build 0)  -->
<!DOCTYPE svg PUBLIC "-//W3C//DTD SVG 1.1//EN" "http://www.w3.org/Graphics/SVG/1.1/DTD/svg11.dtd">
<svg version="1.1" id="Calque_1" xmlns="http://www.w3.org/2000/svg" xmlns:xlink="http://www.w3.org/1999/xlink" x="0px" y="0px"
	 width="1190.551px" height="1190.551px" viewBox="0 0 1190.551 1190.551" enable-background="new 0 0 1190.551 1190.551"
	 xml:space="preserve">
<g>
	<path fill="#010202" d="M605.518,70.066c0.028-33.889-5.938-70.066-43.958-70.066c-34.938,0-41.524,36.18-41.524,62.358V38.043
		h-17.932V19.724h-43.038V0h-41.244v19.724h-34.072V0h-41.243v19.724h-32.279V0h-41.244v19.724h-35.639V0h-41.246v19.724h-34.886V0
		h-41.243v19.724H87.805V0H46.561v19.724H17.93v18.319H0v39.453h17.93v32.274H0v39.451h17.93v36.986H0v39.453h17.93v42.588H0v39.45
		h17.93v39.452H0v39.449h17.93v42.653H0v39.451h17.93v40.348H0v39.451h17.93v23.536h28.631v21.518h41.244V572.04h28.164v21.518
		h41.243V572.04h34.886v21.518h40.534c-50.475,8.808-88.968,52.939-88.968,105.896c0,59.273,48.225,107.5,107.5,107.5
		s107.5-48.226,107.5-107.5c0-52.957-38.494-97.089-88.969-105.896h40.532V572.04h32.279v21.518h41.243V572.04h34.072v21.518h41.244
		V572.04h43.038v-23.536h17.932v-15.99c0,26.182,6.586,62.358,41.524,62.358c38.02,0.003,43.987-36.176,43.958-70.063
		c-0.017-16.961-0.002-338.195,0-381.87c0,0,0-0.223,0-0.644c0-2.777,0-4.262,0-4.262h-0.001
		C605.513,124.207,605.504,84.948,605.518,70.066z M251.163,591.954c-6.07,0-12.021,0.514-17.819,1.485V572.04h35.639v21.399
		C263.184,592.468,257.233,591.954,251.163,591.954z M520.035,509.053h-17.932v-40.348h17.932
		C520.035,484.647,520.035,498.408,520.035,509.053z M520.035,429.254h-17.932v-42.653h17.932
		C520.035,401.349,520.035,415.686,520.035,429.254z M520.035,347.152h-17.932v-39.452h17.932
		C520.035,320.763,520.035,333.992,520.035,347.152z M520.035,268.249h-17.932v-42.588h17.932
		C520.035,239.01,520.035,253.338,520.035,268.249z M520.035,186.208h-17.932v-36.986h17.932
		C520.035,157.62,520.035,170.377,520.035,186.208z M520.035,109.771h-17.932V77.496h17.932
		C520.035,86.834,520.035,98.7,520.035,109.771z"/>
	<path fill="#010202" d="M490.999,588.717c-59.277,0-107.501,48.226-107.501,107.501c0,59.274,48.225,107.5,107.501,107.5
		c59.273,0,107.5-48.226,107.5-107.5C598.499,636.942,550.273,588.717,490.999,588.717z"/>
</g>
</svg>
