<?xml version="1.0" encoding="utf-8"?>
<!-- Generator: Adobe Illustrator 16.0.0, SVG Export Plug-In . SVG Version: 6.00 Build 0)  -->
<!DOCTYPE svg PUBLIC "-//W3C//DTD SVG 1.1//EN" "http://www.w3.org/Graphics/SVG/1.1/DTD/svg11.dtd">
<svg version="1.1" id="Calque_1" xmlns="http://www.w3.org/2000/svg" xmlns:xlink="http://www.w3.org/1999/xlink" x="0px" y="0px"
	 width="1190.551px" height="1190.551px" viewBox="0 0 1190.551 1190.551" enable-background="new 0 0 1190.551 1190.551"
	 xml:space="preserve">
<g>
	<path fill="#010202" d="M532.516,520.036h15.989v-17.931h23.534v-28.631h21.519v-41.244h-21.519v-28.164h21.519v-41.243h-21.519
		v-34.886h21.519v-41.246h-21.519v-35.639h21.519v-41.244h-21.519V177.53h21.519v-41.242h-21.519v-34.073h21.519V60.97h-21.519
		V17.932h-23.534V0h-39.452v17.932h-40.349V0h-39.449v17.932h-42.654V0h-39.449v17.932H307.7V0h-39.451v17.932h-42.588V0h-39.453
		v17.932h-36.986V0h-39.451v17.932H77.496V0H38.043v17.932H19.724V60.97H0v41.244h19.724v34.073H0v41.242h19.724v32.279H0v41.244
		h19.724v35.639H0v41.246h19.724v34.886H0v41.243h19.724v28.164H0v41.244h19.724v28.631h18.319v17.931H62.36
		c-26.182,0-62.358,6.586-62.358,41.523c-0.002,38.02,36.176,43.987,70.063,43.958c16.961-0.017,338.195-0.002,381.87,0
		c0,0,0.223,0,0.643,0c2.778,0,4.264,0,4.264,0v-0.001c13.825-0.004,53.084-0.013,67.967,0.001
		c33.889,0.028,70.065-5.938,70.065-43.958C594.873,526.622,558.695,520.036,532.516,520.036z M77.496,520.036v-17.931h32.274
		v17.931C96.614,520.036,85.614,520.036,77.496,520.036z M149.222,520.036v-17.931h36.986v17.931
		C173.303,520.036,160.885,520.036,149.222,520.036z M225.661,520.036v-17.931h42.588v17.931
		C254.015,520.036,239.721,520.036,225.661,520.036z M307.7,520.036v-17.931h39.451v17.931
		C334.51,520.036,321.269,520.036,307.7,520.036z M386.601,520.036v-17.931h42.654v17.931
		C417.785,520.036,403.245,520.036,386.601,520.036z M468.704,520.036v-17.931h40.349v17.931
		C495.928,520.036,480.298,520.036,468.704,520.036z"/>
	<path fill="#010202" d="M107.5,605.518c-59.275,0-107.5,48.224-107.5,107.5c0,59.275,48.225,107.5,107.5,107.5
		c59.274,0,107.5-48.226,107.5-107.5C215,653.741,166.775,605.518,107.5,605.518z"/>
	<path fill="#010202" d="M322.5,605.518c-59.275,0-107.5,48.225-107.5,107.5s48.225,107.5,107.5,107.5
		c59.274,0,107.5-48.225,107.5-107.5S381.775,605.518,322.5,605.518z"/>
</g>
</svg>
