<?xml version="1.0" encoding="utf-8"?>
<!-- Generator: Adobe Illustrator 16.0.0, SVG Export Plug-In . SVG Version: 6.00 Build 0)  -->
<!DOCTYPE svg PUBLIC "-//W3C//DTD SVG 1.1//EN" "http://www.w3.org/Graphics/SVG/1.1/DTD/svg11.dtd">
<svg version="1.1" id="Calque_1" xmlns="http://www.w3.org/2000/svg" xmlns:xlink="http://www.w3.org/1999/xlink" x="0px" y="0px"
	 width="1190.551px" height="1190.551px" viewBox="0 0 1190.551 1190.551" enable-background="new 0 0 1190.551 1190.551"
	 xml:space="preserve">
<path fill="#010202" d="M572.039,103.414h-23.534V85.482h-15.991c26.182,0,62.357-6.586,62.357-41.523
	C594.875,5.938,558.697-0.028,524.809,0c-16.961,0.018-338.195,0.002-381.87,0c0,0-0.224,0-0.644,0c-2.777,0-4.262,0-4.262,0v0.001
	C124.207,0.005,84.949,0.015,70.066,0C36.177-0.027-0.001,5.938-0.001,43.958c0,34.938,36.18,41.523,62.358,41.523H38.043v17.933
	H19.724v43.038H0v41.243h19.724v34.073H0v41.243h19.724v32.279H0v41.244h19.724v35.639H0v41.246h19.724v34.886H0v41.243h19.724
	v28.164H0v41.244h19.724v28.631h18.319v17.93h39.453v-17.93h32.274v17.93h38.81c-50.18,9.052-88.366,53.048-88.366,105.793
	c0,59.275,48.224,107.5,107.5,107.5c59.275,0,107.5-48.225,107.5-107.5c0-52.745-38.188-96.741-88.366-105.793h38.812v-17.93h42.588
	v17.93H307.7v-17.93h39.451v17.93h39.385c-49.062,9.946-86.109,53.408-86.109,105.359c0,59.276,48.225,107.5,107.5,107.5
	c59.274,0,107.499-48.224,107.499-107.5c0-51.951-37.046-95.413-86.108-105.359h39.386v-17.93h40.349v17.93h39.452v-17.93h23.534
	v-28.631h21.519v-41.244h-21.519v-28.164h21.519v-41.243h-21.519V413.42h21.519v-41.246h-21.519v-35.639h21.519v-41.244h-21.519
	v-32.279h21.519v-41.243h-21.519v-34.073h21.519v-41.243h-21.519V103.414z M429.255,85.482v17.933h-42.654V85.482
	C401.35,85.482,415.686,85.482,429.255,85.482z M186.208,85.482v17.933h-36.986V85.482C157.62,85.482,170.377,85.482,186.208,85.482
	z M109.771,103.414H77.496V85.482c9.338,0,21.204,0,32.274,0V103.414z M167.715,603.811c-6.305,0-12.483,0.551-18.493,1.597v-17.819
	h36.986v17.82C180.198,604.362,174.02,603.811,167.715,603.811z M268.249,103.414h-42.588V85.482c13.348,0,27.677,0,42.588,0
	V103.414z M347.152,103.414H307.7V85.482c13.063,0,26.292,0,39.451,0V103.414z M407.928,603.377c-7.3,0-14.432,0.734-21.327,2.128
	v-17.917h42.654v17.918C422.36,604.112,415.228,603.377,407.928,603.377z M509.053,103.414h-40.349V85.482
	c15.942,0,29.703,0,40.349,0V103.414z"/>
</svg>
