<?xml version="1.0" encoding="utf-8"?>
<!-- Generator: Adobe Illustrator 16.0.0, SVG Export Plug-In . SVG Version: 6.00 Build 0)  -->
<!DOCTYPE svg PUBLIC "-//W3C//DTD SVG 1.1//EN" "http://www.w3.org/Graphics/SVG/1.1/DTD/svg11.dtd">
<svg version="1.1" id="Calque_1" xmlns="http://www.w3.org/2000/svg" xmlns:xlink="http://www.w3.org/1999/xlink" x="0px" y="0px"
	 width="1190.551px" height="1190.551px" viewBox="0 0 1190.551 1190.551" enable-background="new 0 0 1190.551 1190.551"
	 xml:space="preserve">
<g>
	<path fill="#010202" d="M524.809,520.036c-16.961,0.018-338.195,0.002-381.87,0h6.283v-17.931h36.986v17.931h39.453v-17.931h42.588
		v17.931H307.7v-17.931h39.451v17.931h39.449v-17.931h42.654v17.931h39.449v-17.931h40.349v17.931H524.809h23.696v-17.931h23.534
		v-28.631h21.519v-41.244h-21.519v-28.164h21.519v-41.243h-21.519v-34.886h21.519v-41.246h-21.519v-35.639h21.519v-41.244h-21.519
		V177.53h21.519v-41.242h-21.519v-34.073h21.519V60.97h-21.519V17.932h-23.534V0h-39.452v17.932h-40.349V0h-39.449v17.932h-42.654V0
		h-39.449v17.932H307.7V0h-39.451v17.932h-42.588V0h-39.453v17.932h-36.986V0h-39.451v17.932H77.496V0H38.043v17.932H19.724V60.97H0
		v41.244h19.724v34.073H0v41.242h19.724v32.279H0v41.244h19.724v35.639H0v41.246h19.724v34.886H0v41.243h19.724v28.164H0v41.244
		h19.724v28.631h18.319v17.931h32.022h7.431v-17.931h32.274v17.931h28.263v0.001c-13.826,0.004-53.084,0.013-67.968-0.001
		c-33.889-0.028-70.066,5.938-70.066,43.958c0,34.938,36.18,41.523,62.358,41.523c6.321,0,26.54,0,45.143,0
		c12.455,0,24.186,0,30.532,0c3.09,0,4.903,0,4.903,0c20.014,0,98.322,0,179.564,0c99.563,0,203.533,0,210.014,0
		c26.182,0,62.357-6.586,62.357-41.523C594.875,525.974,558.697,520.008,524.809,520.036z"/>
	<path fill="#010202" d="M107.5,605.518c-59.274,0-107.5,48.224-107.5,107.5s48.225,107.5,107.5,107.5S215,772.293,215,713.018
		C215,653.741,166.776,605.518,107.5,605.518z"/>
	<path fill="#010202" d="M215,713.018c0,59.276,48.225,107.5,107.5,107.5c59.274,0,107.499-48.225,107.499-107.5
		c0-59.276-48.225-107.5-107.499-107.5S215,653.741,215,713.018z"/>
</g>
</svg>
