<?xml version="1.0" encoding="utf-8"?>
<!-- Generator: Adobe Illustrator 16.0.0, SVG Export Plug-In . SVG Version: 6.00 Build 0)  -->
<!DOCTYPE svg PUBLIC "-//W3C//DTD SVG 1.1//EN" "http://www.w3.org/Graphics/SVG/1.1/DTD/svg11.dtd">
<svg version="1.1" id="Calque_1" xmlns="http://www.w3.org/2000/svg" xmlns:xlink="http://www.w3.org/1999/xlink" x="0px" y="0px"
	 width="1190.551px" height="1190.551px" viewBox="0 0 1190.551 1190.551" enable-background="new 0 0 1190.551 1190.551"
	 xml:space="preserve">
<path fill="#010202" d="M700.755,459.485c-12.475-4.054-22.725-2.021-31.091,3.415l0.029-0.021l-10.54-14.506l26.11-18.972
	l10.54,14.507l31.919-23.188l-10.541-14.509l14.82-10.768l-25.297-34.818l15.957-11.593l-24.242-33.367l-15.957,11.593
	l-20.027-27.565l15.957-11.594l-24.242-33.366l-15.957,11.594l-18.974-26.114l15.957-11.594l-24.242-33.367l-15.957,11.594
	l-20.948-28.832l15.957-11.594l-24.244-33.369l-15.957,11.594l-20.505-28.224l15.957-11.593L520.995,71.46l-15.957,11.593
	l-16.555-22.785l15.957-11.593l-24.242-33.367l-15.957,11.593L447.412,3.739l-14.82,10.768L422.053,0L390.135,23.19l10.539,14.506
	l-26.111,18.971L364.024,42.16l-31.917,23.188l10.54,14.506l-29.923,21.74l-10.539-14.506l-31.918,23.19l10.539,14.505
	l-34.455,25.032l-10.539-14.504L203.896,158.5l10.539,14.506l-31.917,23.189l-10.539-14.506l-31.915,23.188l10.54,14.507
	l-34.509,25.07l-10.538-14.506L73.64,253.136l10.539,14.507l-32.643,23.715l-10.539-14.504L9.081,300.041l10.539,14.506
	L0.579,328.381l16.829,23.163L0,364.193l24.242,33.367l17.408-12.648l16.555,22.785l-17.408,12.648l24.242,33.366l17.408-12.648
	l20.506,28.224l-17.409,12.647l24.244,33.369l17.408-12.648l20.948,28.833l-17.408,12.647l24.242,33.367l17.408-12.647
	l18.973,26.113l-17.407,12.648l18.229,25.091c-12.736-16.35-30.31-29.198-51.461-36.07C84.346,574.32,23.58,605.281,5.263,661.656
	c-18.317,56.374,12.645,117.141,69.02,135.458c10.579,3.438,21.312,5.139,31.891,5.264c-20.711,0.694-41.433,7.36-59.423,20.431
	c-47.956,34.841-58.624,102.201-23.782,150.156c34.841,47.955,102.201,58.624,150.156,23.783
	c47.955-34.842,58.623-102.202,23.782-150.156c-20.798-28.627-53.185-43.962-86.114-44.266c44.034-1.392,84.569-29.979,98.948-74.23
	c10.663-32.816,4.622-67.118-13.405-93.672l1.859,2.56l17.407-12.647l20.028,27.565l-17.408,12.647l24.242,33.367l17.408-12.647
	l25.298,34.818l19.04-13.834l10.541,14.507l31.916-23.188l-10.539-14.507l32.642-23.717l10.54,14.508l31.916-23.188l-10.54-14.508
	l34.506-25.07l10.541,14.507l31.915-23.188l-10.54-14.507l31.918-23.19l10.54,14.508l31.916-23.188l-10.54-14.507l34.454-25.033
	l10.54,14.507l31.919-23.189l-10.54-14.508l29.922-21.739l10.54,14.508l28.577-20.763c-12.004,9.644-19.721,26.377-24.36,40.654
	c-3.262,10.037-18.494,56.92-23.384,71.971c-0.955,2.939-1.516,4.664-1.516,4.664c-13.764,42.36-116.749,359.318-120.387,370.511
	c-8.091,24.901-13.006,61.343,20.222,72.139c36.158,11.748,53.013-20.815,63.458-53.054
	c5.226-16.135,104.507-321.643,118.005-363.179c0,0,0.068-0.212,0.197-0.612c0.858-2.643,1.318-4.053,1.318-4.053h-0.001
	c4.269-13.151,16.392-50.49,21.004-64.64C731.409,507.485,736.914,471.234,700.755,459.485z"/>
</svg>
