<?xml version="1.0" encoding="utf-8"?>
<!-- Generator: Adobe Illustrator 16.0.0, SVG Export Plug-In . SVG Version: 6.00 Build 0)  -->
<!DOCTYPE svg PUBLIC "-//W3C//DTD SVG 1.1//EN" "http://www.w3.org/Graphics/SVG/1.1/DTD/svg11.dtd">
<svg version="1.1" id="Calque_1" xmlns="http://www.w3.org/2000/svg" xmlns:xlink="http://www.w3.org/1999/xlink" x="0px" y="0px"
	 width="1190.551px" height="1190.551px" viewBox="0 0 1190.551 1190.551" enable-background="new 0 0 1190.551 1190.551"
	 xml:space="preserve">
<path fill="#010202" d="M679.004,102.214V60.97h-21.518V17.932H633.95V0h-39.451v17.932h-40.348V0H514.7v17.932h-42.653V0H432.6
	v17.932h-39.452V0h-39.452v17.932h-42.588V0h-39.453v17.932h-36.986V0h-39.45v17.932h-32.275V0H123.49v17.932h-18.318V60.97H85.447
	v4.796C84.945,33.188,77.94-0.001,41.524-0.001C6.586-0.001,0,36.179,0,62.358c0,10.554,0,59.85,0,75.674c0,3.091,0,4.904,0,4.904
	c0,44.541,0,377.811,0,389.578c0,26.182,6.586,62.358,41.523,62.358c38.021,0.003,43.987-36.176,43.958-70.063
	c-0.004-3.83-0.006-23.176-0.007-51.334h19.697v28.631h18.318v17.931h39.453v-17.931h32.275v17.931h38.809
	c-50.179,9.052-88.366,53.046-88.366,105.793c0,59.273,48.225,107.5,107.5,107.5s107.5-48.226,107.5-107.5
	c0-52.747-38.187-96.741-88.366-105.793h38.812v-17.931h42.588v17.931h39.452v-17.931H432.6v17.931h39.383
	c-49.062,9.946-86.108,53.408-86.108,105.36c0,59.274,48.224,107.5,107.5,107.5c59.273,0,107.5-48.226,107.5-107.5
	c0-51.954-37.047-95.415-86.109-105.36h39.386v-17.931h40.348v17.931h39.451v-17.931h23.536v-28.631h21.518v-41.244h-21.518v-28.164
	h21.518v-41.243h-21.518v-34.886h21.518v-41.246h-21.518v-35.639h21.518v-41.244h-21.518V177.53h21.518v-41.242h-21.518v-34.073
	H679.004z M105.171,432.231H85.473c0-9.027,0-18.452,0-28.164h19.698V432.231z M105.171,362.823H85.474
	c0-11.535,0-23.219,0.001-34.886h19.696V362.823z M105.171,286.692H85.476c0-12.202,0.001-24.15,0.001-35.639h19.694V286.692z
	 M105.171,209.809H85.479c0-11.917,0.001-22.793,0.001-32.279h19.691V209.809z M105.171,136.287H85.48
	c-0.002-7.69-0.005-20.978-0.006-34.073h19.697V136.287z M253.161,518.329c-6.305,0-12.483,0.551-18.493,1.597v-17.821h36.986
	v17.821C265.644,518.88,259.466,518.329,253.161,518.329z M493.374,517.896c-7.3,0-14.432,0.735-21.327,2.128v-17.918H514.7v17.918
	C507.805,518.631,500.674,517.896,493.374,517.896z"/>
</svg>
