<?xml version="1.0" encoding="utf-8"?>
<!-- Generator: Adobe Illustrator 16.0.0, SVG Export Plug-In . SVG Version: 6.00 Build 0)  -->
<!DOCTYPE svg PUBLIC "-//W3C//DTD SVG 1.1//EN" "http://www.w3.org/Graphics/SVG/1.1/DTD/svg11.dtd">
<svg version="1.1" id="Calque_1" xmlns="http://www.w3.org/2000/svg" xmlns:xlink="http://www.w3.org/1999/xlink" x="0px" y="0px"
	 width="1190.551px" height="1190.551px" viewBox="0 0 1190.551 1190.551" enable-background="new 0 0 1190.551 1190.551"
	 xml:space="preserve">
<path fill="#010202" d="M894.475,174.601l8.203-38.591l-17.541-3.729l3.811-17.919l-42.098-8.948l4.1-19.293l-40.344-8.575
	l-4.1,19.293l-33.328-7.084l4.1-19.293l-40.342-8.575l-4.1,19.293l-31.574-6.711l4.102-19.293l-40.344-8.575l-4.102,19.293
	l-34.859-7.409l4.102-19.293l-40.344-8.576l-4.102,19.293l-34.123-7.253l4.1-19.294l-40.342-8.574l-4.101,19.293l-27.55-5.855
	l4.103-19.293l-40.343-8.576l-4.103,19.293l-28.004-5.952l-3.81,17.918l-17.539-3.728l-8.201,38.591l17.537,3.728l-6.71,31.57
	l-17.539-3.728l-8.202,38.589l17.539,3.728l-7.689,36.179l-17.537-3.729l-8.204,38.591l17.539,3.728l-8.854,41.656l-17.539-3.727
	l-8.202,38.589l17.538,3.728l-8.201,38.59l-17.539-3.729l-8.2,38.587l17.537,3.727l-8.869,41.721l-17.538-3.729l-8.201,38.59
	l17.538,3.728l-8.389,39.467l-17.539-3.728l-8.203,38.589l17.54,3.728l-4.895,23.021l28.004,5.953l-4.473,21.048l40.343,8.575
	l4.474-21.048l27.55,5.854l-4.475,21.048l40.342,8.576l4.475-21.048l34.123,7.253l-4.475,21.048l40.346,8.574l4.474-21.048
	l34.859,7.411l-4.475,21.048l40.345,8.575l4.473-21.048l31.574,6.71l-4.475,21.048l40.342,8.576l4.475-21.048l33.33,7.082
	l-4.475,21.05l40.344,8.573l4.473-21.048l42.096,8.949c-13.723,9.991-273.603,198.787-308.937,224.456c0,0-0.053,0.038-0.149,0.108
	c23.146-19.733,37.851-49.087,37.851-81.813c0-59.276-48.226-107.5-107.5-107.5s-107.5,48.224-107.5,107.5
	c0,59.273,48.225,107.5,107.5,107.5c20.538,0,39.746-5.793,56.084-15.825c-14.262,10.367-35.799,26.019-45.24,32.863
	c-27.435,19.9-53.195,45.991-30.848,76.749c20.524,28.252,53.644,12.344,74.825-3.037c-44.104,31.852-57.869,92.741-30.09,140.855
	c29.639,51.334,95.515,68.985,146.85,39.349c51.333-29.638,68.983-95.515,39.346-146.849
	c-29.636-51.333-95.513-68.985-146.847-39.349c-3.199,1.848-6.268,3.835-9.201,5.951c8.587-6.239,48.405-35.169,61.196-44.462
	c2.5-1.815,3.968-2.881,3.968-2.881c36.034-26.182,305.654-222.072,315.175-228.988c21.182-15.39,46.578-41.981,26.043-70.247
	c-22.35-30.761-55.123-14.321-82.523,5.619l4.895-23.021l17.541,3.727l8.201-38.589l-17.539-3.729l8.389-39.467l17.539,3.729
	l8.203-38.589l-17.541-3.729l8.869-41.72l17.539,3.728l8.201-38.587l-17.539-3.728l8.201-38.591l17.541,3.729l8.201-38.589
	l-17.541-3.726l8.855-41.657l17.539,3.729l8.203-38.591l-17.539-3.729l7.688-36.178l17.541,3.728l8.203-38.588l-17.541-3.729
	l6.711-31.569L894.475,174.601z"/>
</svg>
