<?xml version="1.0" encoding="utf-8"?>
<!-- Generator: Adobe Illustrator 16.0.0, SVG Export Plug-In . SVG Version: 6.00 Build 0)  -->
<!DOCTYPE svg PUBLIC "-//W3C//DTD SVG 1.1//EN" "http://www.w3.org/Graphics/SVG/1.1/DTD/svg11.dtd">
<svg version="1.1" id="Calque_1" xmlns="http://www.w3.org/2000/svg" xmlns:xlink="http://www.w3.org/1999/xlink" x="0px" y="0px"
	 width="1190.551px" height="1190.551px" viewBox="0 0 1190.551 1190.551" enable-background="new 0 0 1190.551 1190.551"
	 xml:space="preserve">
<g>
	<path fill="#010202" d="M463.75,612.266l31.755-16.18l8.956,17.575l36.749-18.727l-8.954-17.574l31.083-15.837l8.955,17.573
		l36.747-18.724l-8.954-17.574l25.095-12.785l8.954,17.574l36.749-18.726l-8.955-17.573l25.511-12.999l-8.316-16.321l15.976-8.141
		l-17.91-35.152l-15.978,8.14l-14.652-28.758l15.976-8.14l-17.91-35.15l-15.976,8.14l-16.791-32.954l15.976-8.142l-17.911-35.151
		l-15.976,8.14l-19.335-37.946l15.976-8.14l-17.91-35.152l-15.976,8.14l-17.911-35.15l15.976-8.141l-17.909-35.15l-15.976,8.142
		l-19.364-38.004l15.976-8.141l-17.91-35.152l-15.976,8.142l-18.317-35.95l15.976-8.142l-17.91-35.149l-15.977,8.139l-10.685-20.97
		l-25.511,12.998l-9.77-19.173l-36.748,18.725l9.769,19.172l-25.094,12.787l-9.77-19.173l-36.747,18.723l9.769,19.174
		l-31.084,15.838l-9.769-19.173L234.99,84.797l9.77,19.173l-31.755,16.18l-9.769-19.173l-36.749,18.725l9.77,19.173l-28.762,14.653
		l-9.769-19.172l-36.748,18.724l9.77,19.174l-30.359,15.468l-9.77-19.173L33.87,187.274l9.77,19.172L5.292,225.985l10.686,20.971
		l-15.979,8.141l17.911,35.151l15.977-8.141l18.318,35.95l-15.978,8.141l17.91,35.151l15.978-8.142l19.364,38.005l-15.978,8.141
		l17.909,35.149l15.978-8.141l17.912,35.151l-15.979,8.142l17.91,35.15l15.978-8.141l19.336,37.946l-15.978,8.141l17.91,35.153
		l15.979-8.143l16.79,32.956l-15.978,8.142l17.498,34.34c-12.919-20.83-32.964-37.387-58.046-45.536
		C84.346,581.345,23.58,612.306,5.263,668.681c-18.317,56.374,12.645,117.141,69.02,135.458c10.573,3.436,21.301,5.138,31.874,5.264
		c-20.706,0.698-41.42,7.363-59.406,20.431C-1.206,864.674-11.875,932.035,22.968,979.99
		c34.841,47.955,102.201,58.624,150.156,23.783c47.955-34.842,58.623-102.202,23.782-150.156
		c-20.795-28.623-53.176-43.958-86.101-44.266c44.029-1.396,84.558-29.984,98.934-74.23c10.066-30.981,5.246-63.286-10.492-89.146
		l15.911-8.105l14.651,28.756l-15.977,8.143l17.912,35.152l15.978-8.142l8.315,16.323l38.347-19.54l8.956,17.575l36.747-18.725
		l-8.953-17.575l30.359-15.469l8.953,17.574l36.748-18.723l-8.954-17.575l28.762-14.653l8.953,17.574l36.75-18.725L463.75,612.266z"
		/>
	<path fill="#010202" d="M660.86,546.609c-33.228-10.796-50.672,21.577-58.761,46.476c-3.262,10.037-18.496,56.919-23.385,71.97
		c-0.955,2.938-1.516,4.664-1.516,4.664c-13.764,42.36-116.75,359.318-120.387,370.51c-8.09,24.9-13.006,61.342,20.223,72.139
		c36.157,11.75,53.011-20.813,63.456-53.052c5.227-16.136,104.508-321.643,118.006-363.18c0,0,0.068-0.212,0.198-0.611
		c0.859-2.643,1.317-4.054,1.317-4.054h-0.001c4.269-13.15,16.392-50.49,21.004-64.641
		C691.514,594.609,697.018,558.357,660.86,546.609z"/>
</g>
</svg>
