<?xml version="1.0" encoding="utf-8"?>
<!-- Generator: Adobe Illustrator 16.0.0, SVG Export Plug-In . SVG Version: 6.00 Build 0)  -->
<!DOCTYPE svg PUBLIC "-//W3C//DTD SVG 1.1//EN" "http://www.w3.org/Graphics/SVG/1.1/DTD/svg11.dtd">
<svg version="1.1" id="Calque_1" xmlns="http://www.w3.org/2000/svg" xmlns:xlink="http://www.w3.org/1999/xlink" x="0px" y="0px"
	 width="1190.551px" height="1190.551px" viewBox="0 0 1190.551 1190.551" enable-background="new 0 0 1190.551 1190.551"
	 xml:space="preserve">
<g>
	<path fill="#010202" d="M711.48,650.13l31.755-16.18l8.956,17.575l36.749-18.727l-8.954-17.574l31.083-15.837l8.955,17.573
		l36.747-18.725l-8.954-17.574l25.095-12.785l8.954,17.574l36.749-18.726l-8.955-17.573l25.511-12.999l-8.315-16.321l15.976-8.141
		l-17.91-35.152l-15.978,8.141l-14.652-28.758l15.977-8.141l-17.91-35.149l-15.977,8.14l-16.791-32.954l15.977-8.142l-17.911-35.151
		l-15.977,8.141l-19.335-37.946l15.977-8.141l-17.91-35.151l-15.977,8.14l-17.91-35.149l15.976-8.142l-17.909-35.149l-15.976,8.142
		l-19.364-38.004l15.977-8.142l-17.91-35.151l-15.977,8.142l-18.316-35.95l15.976-8.142l-17.91-35.149l-15.977,8.14l-10.686-20.97
		l-25.511,12.997l-9.77-19.173l-36.748,18.726l9.769,19.172L597.073,88.55l-9.77-19.173L550.556,88.1l9.769,19.174l-31.084,15.838
		l-9.769-19.173l-36.752,18.723l9.77,19.173l-31.755,16.181l-9.77-19.173l-36.749,18.725l9.771,19.173l-28.762,14.653l-9.77-19.172
		l-36.748,18.724l9.771,19.174l-30.359,15.469l-9.77-19.174L281.6,225.139l9.77,19.172l-38.348,19.539l10.686,20.971l-15.979,8.142
		l17.911,35.15l15.977-8.141l18.318,35.95l-15.979,8.141l17.91,35.151l15.979-8.143l19.363,38.005l-15.978,8.142l17.909,35.148
		l15.978-8.141l17.912,35.15l-15.979,8.142l17.91,35.15l15.979-8.141l19.336,37.946l-15.979,8.141l17.91,35.153l15.979-8.144
		l16.79,32.956l-15.979,8.143l17.498,34.34c-12.919-20.83-32.964-37.388-58.046-45.536c-56.374-18.317-117.14,12.644-135.457,69.019
		c-18.317,56.374,12.646,117.142,69.021,135.458c10.572,3.437,21.301,5.139,31.874,5.265c-20.706,0.697-41.421,7.362-59.406,20.431
		c-47.957,34.84-58.626,102.201-23.783,150.156c34.841,47.955,102.201,58.624,150.156,23.783
		c47.955-34.843,58.623-102.202,23.781-150.156c-20.795-28.623-53.176-43.958-86.101-44.267
		c44.029-1.396,84.558-29.983,98.934-74.229c10.066-30.981,5.246-63.286-10.491-89.146l15.911-8.104l14.65,28.756l-15.977,8.144
		l17.912,35.151l15.978-8.142l8.315,16.322l38.347-19.539l8.956,17.574l36.747-18.725l-8.953-17.575l30.359-15.469l8.952,17.574
		l36.748-18.724l-8.954-17.575l28.763-14.652l8.952,17.573l36.75-18.725L711.48,650.13z"/>
	<path fill="#010202" d="M908.589,584.473c-33.228-10.796-50.672,21.578-58.761,46.476c-3.262,10.037-18.496,56.919-23.385,71.97
		c-0.955,2.938-1.517,4.664-1.517,4.664c-13.764,42.36-116.75,359.318-120.387,370.51c-8.09,24.9-13.006,61.343,20.223,72.14
		c36.157,11.75,53.012-20.813,63.456-53.052c5.228-16.137,104.508-321.644,118.006-363.181c0,0,0.068-0.212,0.198-0.61
		c0.859-2.644,1.317-4.055,1.317-4.055h-0.001c4.269-13.149,16.392-50.489,21.004-64.641
		C939.243,632.474,944.747,596.222,908.589,584.473z"/>
</g>
</svg>
