<?xml version="1.0" encoding="utf-8"?>
<!-- Generator: Adobe Illustrator 16.0.0, SVG Export Plug-In . SVG Version: 6.00 Build 0)  -->
<!DOCTYPE svg PUBLIC "-//W3C//DTD SVG 1.1//EN" "http://www.w3.org/Graphics/SVG/1.1/DTD/svg11.dtd">
<svg version="1.1" id="Calque_1" xmlns="http://www.w3.org/2000/svg" xmlns:xlink="http://www.w3.org/1999/xlink" x="0px" y="0px"
	 width="1190.551px" height="1190.551px" viewBox="0 0 1190.551 1190.551" enable-background="new 0 0 1190.551 1190.551"
	 xml:space="preserve">
<g>
	<path fill="#010202" d="M898.034,261.864c0.028-33.889-5.938-70.066-43.958-70.066c-34.938,0-41.524,36.18-41.524,62.358v-24.315
		H794.62v-18.319h-43.038v-19.724h-41.244v19.724h-34.071v-19.724h-41.243v19.724h-32.279v-19.724H561.5v19.724h-35.639v-19.724
		h-41.246v19.724H449.73v-19.724h-41.243v19.724h-28.165v-19.724h-41.244v19.724h-28.631v18.319h-17.93v39.453h17.93v32.274h-17.93
		v39.451h17.93v36.986h-17.93v39.453h17.93v42.588h-17.93v39.45h17.93v39.452h-17.93v39.449h17.93v42.653h-17.93v39.451h17.93
		v40.348h-17.93v39.451h17.93v23.535h28.631v21.519h41.244v-21.517h28.164v21.519h41.243v-21.519h34.886v21.519h40.534
		c-50.475,8.808-88.968,52.938-88.968,105.896c0,59.273,48.225,107.5,107.5,107.5c59.274,0,107.5-48.227,107.5-107.5
		c0-52.957-38.494-97.088-88.97-105.896h40.532v-21.519h32.279v21.519h41.243v-21.519h34.071v21.519h41.244v-21.519h43.038v-23.535
		h17.932v-15.99c0,26.182,6.586,62.357,41.524,62.357c38.02,0.004,43.987-36.176,43.958-70.062
		c-0.018-16.961-0.002-338.195,0-381.87c0,0,0-0.223,0-0.644c0-2.777,0-4.262,0-4.262h-0.001
		C898.03,316.005,898.021,276.747,898.034,261.864z M543.68,783.752c-6.07,0-12.021,0.514-17.819,1.485v-21.399h35.639v21.399
		C555.7,784.266,549.749,783.752,543.68,783.752z M812.551,700.852h-17.932v-40.348h17.932
		C812.551,676.445,812.551,690.207,812.551,700.852z M812.551,621.053h-17.932v-42.653h17.932
		C812.551,593.147,812.551,607.484,812.551,621.053z M812.551,538.95h-17.932v-39.452h17.932
		C812.551,512.562,812.551,525.791,812.551,538.95z M812.551,460.047h-17.932v-42.588h17.932
		C812.551,430.808,812.551,445.136,812.551,460.047z M812.551,378.006h-17.932v-36.986h17.932
		C812.551,349.418,812.551,362.175,812.551,378.006z M812.551,301.569h-17.932v-32.275h17.932
		C812.551,278.632,812.551,290.499,812.551,301.569z"/>
	<path fill="#010202" d="M783.515,780.516c-59.276,0-107.5,48.227-107.5,107.5c0,59.275,48.225,107.5,107.5,107.5
		c59.273,0,107.5-48.225,107.5-107.5S842.789,780.516,783.515,780.516z"/>
</g>
</svg>
