<?xml version="1.0" encoding="utf-8"?>
<!-- Generator: Adobe Illustrator 16.0.0, SVG Export Plug-In . SVG Version: 6.00 Build 0)  -->
<!DOCTYPE svg PUBLIC "-//W3C//DTD SVG 1.1//EN" "http://www.w3.org/Graphics/SVG/1.1/DTD/svg11.dtd">
<svg version="1.1" id="Calque_1" xmlns="http://www.w3.org/2000/svg" xmlns:xlink="http://www.w3.org/1999/xlink" x="0px" y="0px"
	 width="1190.551px" height="1190.551px" viewBox="0 0 1190.551 1190.551" enable-background="new 0 0 1190.551 1190.551"
	 xml:space="preserve">
<path fill="#010202" d="M472.089,341.603V121.197h122.872V0H0v121.196h122.872v220.406h122.873v253.56
	c-49.322-0.002-89.313-0.004-102.807-0.004c0,0-0.224,0-0.644,0c-2.777,0-4.262,0-4.262,0v0.001
	c-5.031,0.002-13.435,0.004-22.801,0.005C170.911,591.188,215,544.621,215,487.946c0-59.275-48.226-107.5-107.5-107.5
	c-59.275,0-107.5,48.226-107.5,107.5c0,56.683,44.101,103.256,99.792,107.221c-11.804,0-23.147-0.001-29.727-0.008
	c-33.889-0.027-70.066,5.938-70.066,43.959c0,34.938,36.18,41.522,62.358,41.522c10.554,0,59.85,0,75.675,0c3.09,0,4.903,0,4.903,0
	c44.541,0,377.81,0,389.578,0c26.182,0,62.359-6.586,62.359-41.522c0.002-38.022-36.176-43.987-70.064-43.959
	c-4.431,0.004-29.632,0.007-65.219,0.008c57.951-1.528,104.626-49.147,104.627-107.461c0-59.275-48.227-107.5-107.5-107.5
	c-59.276,0-107.501,48.224-107.501,107.5c0,58.315,46.676,105.935,104.632,107.461c-30.146,0.001-66.943,0-104.632,0v-107.46
	V341.603H472.089z"/>
</svg>
