<?xml version="1.0" encoding="utf-8"?>
<!-- Generator: Adobe Illustrator 16.0.0, SVG Export Plug-In . SVG Version: 6.00 Build 0)  -->
<!DOCTYPE svg PUBLIC "-//W3C//DTD SVG 1.1//EN" "http://www.w3.org/Graphics/SVG/1.1/DTD/svg11.dtd">
<svg version="1.1" id="Calque_1" xmlns="http://www.w3.org/2000/svg" xmlns:xlink="http://www.w3.org/1999/xlink" x="0px" y="0px"
	 width="1190.551px" height="1190.551px" viewBox="0 0 1190.551 1190.551" enable-background="new 0 0 1190.551 1190.551"
	 xml:space="preserve">
<g>
	<path fill="#010202" d="M472.089,341.603V121.197h122.872V0H0v121.196h41.523h81.349v220.406h122.873v253.26
		c-16.284-9.938-35.402-15.67-55.835-15.67c-51.614,0-94.842,36.566-105.157,85.153c0.538-6.037,0.733-12.225,0.728-18.339
		c-0.018-16.961-0.002-338.195,0-381.87c0,0,0-0.224,0-0.644c0-2.778,0-4.263,0-4.263h-0.001
		c-0.004-13.826-0.014-53.084,0.001-67.967c0.028-33.89-5.938-70.067-43.958-70.067C6.586,121.197,0,157.376,0,183.556
		c0,10.553,0,59.849,0,75.674c0,3.09,0,4.903,0,4.903c0,44.541,0,377.811,0,389.579c0,26.182,6.586,62.358,41.523,62.358
		c25.722,0.001,36.764-16.562,41.213-37.768c-0.215,2.77-0.326,5.567-0.326,8.391c0,59.274,48.225,107.5,107.5,107.5
		s107.5-48.225,107.5-107.5c0-38.562-20.414-72.441-50.999-91.415h102.805V341.603H472.089z"/>
	<path fill="#010202" d="M456.717,702.779c59.274,0,107.5-48.225,107.5-107.5c0-59.274-48.226-107.5-107.5-107.5
		c-59.276,0-107.501,48.225-107.501,107.5C349.216,654.555,397.442,702.779,456.717,702.779z"/>
</g>
</svg>
