<?xml version="1.0" encoding="utf-8"?>
<!-- Generator: Adobe Illustrator 16.0.0, SVG Export Plug-In . SVG Version: 6.00 Build 0)  -->
<!DOCTYPE svg PUBLIC "-//W3C//DTD SVG 1.1//EN" "http://www.w3.org/Graphics/SVG/1.1/DTD/svg11.dtd">
<svg version="1.1" id="Calque_1" xmlns="http://www.w3.org/2000/svg" xmlns:xlink="http://www.w3.org/1999/xlink" x="0px" y="0px"
	 width="1190.551px" height="1190.551px" viewBox="0 0 1190.551 1190.551" enable-background="new 0 0 1190.551 1190.551"
	 xml:space="preserve">
<g>
	<path fill="#010202" d="M595.279,0H474.082v122.872H253.675v122.873H0v103.471h253.675v122.872h220.407v122.873
		c-7.105,0-13.242,0-17.239,0c-3.09,0-4.904,0-4.904,0c-35.084,0-249.302,0-344.438,0c-25.645,0-42.641,0-45.14,0
		c-26.182,0-62.359,6.587-62.359,41.523c-0.002,38.022,36.176,43.987,70.064,43.958c16.961-0.017,338.195-0.002,381.87,0
		c0,0,0.223,0,0.643,0c2.778,0,4.264,0,4.264,0v-0.001c13.824-0.004,53.084-0.013,67.967,0.001
		c33.889,0.028,70.066-5.938,70.066-43.958c0-34.938-36.18-41.523-62.358-41.523h62.762V0z"/>
	<path fill="#010202" d="M215,487.461c0-59.275-48.226-107.5-107.5-107.5S0,428.186,0,487.461c0,59.274,48.224,107.5,107.5,107.5
		C166.776,594.961,215,546.736,215,487.461z"/>
	<path fill="#010202" d="M107.5,245.744c59.274,0,107.499-48.225,107.5-107.5c0-59.275-48.226-107.5-107.5-107.5
		C48.225,30.744,0,78.968,0,138.244C0,197.52,48.225,245.744,107.5,245.744z"/>
</g>
</svg>
