<?xml version="1.0" encoding="utf-8"?>
<!-- Generator: Adobe Illustrator 16.0.0, SVG Export Plug-In . SVG Version: 6.00 Build 0)  -->
<!DOCTYPE svg PUBLIC "-//W3C//DTD SVG 1.1//EN" "http://www.w3.org/Graphics/SVG/1.1/DTD/svg11.dtd">
<svg version="1.1" id="Calque_1" xmlns="http://www.w3.org/2000/svg" xmlns:xlink="http://www.w3.org/1999/xlink" x="0px" y="0px"
	 width="1190.551px" height="1190.551px" viewBox="0 0 1190.551 1190.551" enable-background="new 0 0 1190.551 1190.551"
	 xml:space="preserve">
<g>
	<path fill="#010202" d="M935.656,367.861c0.027-33.889-5.938-70.066-43.958-70.066c-34.938,0-41.524,36.18-41.524,62.358v-62.358
		H728.976v122.872H508.57V543.54H254.895v103.471h107.5H508.57v122.872h220.406v122.873h121.196v-62.447
		c0,26.182,6.586,62.359,41.524,62.359c38.021,0.003,43.985-36.176,43.958-70.064c-0.02-16.961-0.002-338.195,0-381.87
		c0,0,0-0.224,0-0.644c0-2.777,0-4.263,0-4.263h-0.001C935.651,422.002,935.639,382.743,935.656,367.861z"/>
	<path fill="#010202" d="M254.895,754.511c0,59.275,48.226,107.5,107.5,107.5c59.273,0,107.5-48.225,107.5-107.5
		c0-59.274-48.226-107.5-107.5-107.5C303.12,647.011,254.895,695.236,254.895,754.511z"/>
	<path fill="#010202" d="M362.395,543.539c59.274,0,107.5-48.225,107.5-107.5c0-59.275-48.225-107.5-107.5-107.5
		c-59.274,0-107.5,48.225-107.5,107.5C254.895,495.314,303.12,543.538,362.395,543.539z"/>
</g>
</svg>
