<?xml version="1.0" encoding="utf-8"?>
<!-- Generator: Adobe Illustrator 16.0.0, SVG Export Plug-In . SVG Version: 6.00 Build 0)  -->
<!DOCTYPE svg PUBLIC "-//W3C//DTD SVG 1.1//EN" "http://www.w3.org/Graphics/SVG/1.1/DTD/svg11.dtd">
<svg version="1.1" id="Calque_1" xmlns="http://www.w3.org/2000/svg" xmlns:xlink="http://www.w3.org/1999/xlink" x="0px" y="0px"
	 width="1190.551px" height="1190.551px" viewBox="0 0 1190.551 1190.551" enable-background="new 0 0 1190.551 1190.551"
	 xml:space="preserve">
<g>
	<path fill="#010202" d="M680.761,70.066c0.028-33.889-5.938-70.066-43.958-70.066c-34.938,0-41.524,36.18-41.524,62.358V0H474.082
		v122.872H253.675v122.873H0v103.471h107.5h146.175v122.872h220.407v122.873h121.196v-62.447c0,26.182,6.586,62.359,41.524,62.359
		c38.021,0.003,43.986-36.176,43.958-70.064c-0.019-16.961-0.002-338.195,0-381.87c0,0,0-0.224,0-0.644c0-2.777,0-4.263,0-4.263
		h-0.001C680.756,124.207,680.745,84.948,680.761,70.066z"/>
	<path fill="#010202" d="M0,456.716c0,59.275,48.226,107.5,107.5,107.5S215,515.991,215,456.716s-48.225-107.5-107.5-107.5
		S0,397.442,0,456.716z"/>
	<path fill="#010202" d="M107.5,245.744c59.275,0,107.5-48.225,107.5-107.5s-48.224-107.5-107.5-107.5
		C48.226,30.744,0,78.969,0,138.244S48.225,245.743,107.5,245.744z"/>
</g>
</svg>
