<?xml version="1.0" encoding="utf-8"?>
<!-- Generator: Adobe Illustrator 16.0.0, SVG Export Plug-In . SVG Version: 6.00 Build 0)  -->
<!DOCTYPE svg PUBLIC "-//W3C//DTD SVG 1.1//EN" "http://www.w3.org/Graphics/SVG/1.1/DTD/svg11.dtd">
<svg version="1.1" id="Calque_1" xmlns="http://www.w3.org/2000/svg" xmlns:xlink="http://www.w3.org/1999/xlink" x="0px" y="0px"
	 width="1190.551px" height="1190.551px" viewBox="0 0 1190.551 1190.551" enable-background="new 0 0 1190.551 1190.551"
	 xml:space="preserve">
<g>
	<path fill="#010202" d="M892.914,255.054H771.717v122.872H551.311v122.873H297.636v103.47h253.675v122.872h220.406v122.873
		c-7.104,0-13.241,0-17.238,0c-3.09,0-4.904,0-4.904,0c-35.084,0-249.302,0-344.438,0c-25.646,0-42.642,0-45.141,0
		c-26.182,0-62.358,6.587-62.358,41.523c-0.002,38.021,36.176,43.986,70.063,43.958c16.961-0.018,338.195-0.002,381.87,0
		c0,0,0.223,0,0.643,0c2.778,0,4.265,0,4.265,0v-0.001c13.824-0.004,53.084-0.014,67.967,0.001
		c33.889,0.027,70.065-5.938,70.065-43.958c0-34.938-36.18-41.523-62.357-41.523h62.762L892.914,255.054L892.914,255.054z"/>
	<path fill="#010202" d="M512.636,742.515c0-59.274-48.227-107.5-107.5-107.5c-59.274,0-107.5,48.226-107.5,107.5
		s48.224,107.5,107.5,107.5C464.411,850.015,512.636,801.79,512.636,742.515z"/>
	<path fill="#010202" d="M405.136,500.798c59.273,0,107.499-48.225,107.5-107.5c0-59.275-48.227-107.5-107.5-107.5
		c-59.275,0-107.5,48.224-107.5,107.5C297.636,452.574,345.861,500.798,405.136,500.798z"/>
</g>
</svg>
