<?xml version="1.0" encoding="utf-8"?>
<!-- Generator: Adobe Illustrator 16.0.0, SVG Export Plug-In . SVG Version: 6.00 Build 0)  -->
<!DOCTYPE svg PUBLIC "-//W3C//DTD SVG 1.1//EN" "http://www.w3.org/Graphics/SVG/1.1/DTD/svg11.dtd">
<svg version="1.1" id="Calque_1" xmlns="http://www.w3.org/2000/svg" xmlns:xlink="http://www.w3.org/1999/xlink" x="0px" y="0px"
	 width="1190.551px" height="1190.551px" viewBox="0 0 1190.551 1190.551" enable-background="new 0 0 1190.551 1190.551"
	 xml:space="preserve">
<g>
	<path fill="#010202" d="M142.936,85.482c44.541,0,377.81,0,389.578,0c26.182,0,62.359-6.586,62.359-41.523
		C594.875,5.937,558.698-0.028,524.809,0c-16.961,0.018-338.195,0.002-381.87,0c0,0-0.224,0-0.644,0c-2.777,0-4.262,0-4.262,0v0.001
		C124.207,0.005,84.949,0.015,70.066,0C36.177-0.027-0.001,5.938-0.001,43.958c0,34.938,36.18,41.523,62.358,41.523
		c6.321,0,26.54,0,45.143,0c12.455,0,24.186,0,30.532,0C141.122,85.482,142.936,85.482,142.936,85.482z"/>
	<path fill="#010202" d="M193.452,257.474c-10.923,16.822-17.277,36.873-17.278,58.381c0,59.275,48.226,107.5,107.5,107.5
		c59.275,0,107.5-48.224,107.5-107.5c0-59.274-48.225-107.5-107.5-107.5c-35.098,0-66.319,16.91-85.951,43.008
		C208.646,234.541,215,214.49,215,192.982c0-59.274-48.225-107.5-107.5-107.5S0,133.707,0,192.982
		c0,59.276,48.226,107.5,107.5,107.5C142.598,300.482,173.82,283.572,193.452,257.474z"/>
	<polygon fill="#010202" points="341.603,546.227 341.603,423.355 283.674,423.355 121.197,423.355 121.197,300.482 107.5,300.482 
		0,300.482 0,895.443 121.197,895.443 121.197,772.571 341.603,772.571 341.603,649.698 595.279,649.698 595.279,546.227 	"/>
</g>
</svg>
