<?xml version="1.0" encoding="utf-8"?>
<!-- Generator: Adobe Illustrator 16.0.0, SVG Export Plug-In . SVG Version: 6.00 Build 0)  -->
<!DOCTYPE svg PUBLIC "-//W3C//DTD SVG 1.1//EN" "http://www.w3.org/Graphics/SVG/1.1/DTD/svg11.dtd">
<svg version="1.1" id="Calque_1" xmlns="http://www.w3.org/2000/svg" xmlns:xlink="http://www.w3.org/1999/xlink" x="0px" y="0px"
	 width="1190.551px" height="1190.551px" viewBox="0 0 1190.551 1190.551" enable-background="new 0 0 1190.551 1190.551"
	 xml:space="preserve">
<path fill="#010202" d="M472.089,341.603V121.197h122.872V0H0v121.196h122.872v220.406h122.873v253.539
	c-16.142-9.695-35.022-15.279-55.184-15.279c-52.874,0-96.953,38.373-105.857,88.732c0.557-5.104,0.777-10.156,0.777-14.881
	c0-10.555,0-59.851,0-75.675c0-3.091,0-4.903,0-4.903c0-44.541,0-377.812,0-389.578c0-26.183-6.586-62.36-41.523-62.36
	C5.937,121.196-0.028,157.374,0,191.263c0.018,16.961,0.002,338.194,0,381.869c0,0,0,0.224,0,0.644c0,2.778,0,4.263,0,4.263h0.001
	C0.005,591.864,0.015,631.121,0,646.006c-0.027,33.889,5.938,70.065,43.958,70.065c25.734,0,36.078-19.63,39.746-40.433
	c-0.42,3.852-0.642,7.763-0.642,11.725c0,59.274,48.226,107.5,107.5,107.5c59.276,0,107.5-48.225,107.5-107.5
	c0-39.019-20.897-73.246-52.086-92.085h103.24c-0.368,3.609-0.556,7.271-0.556,10.976c0,59.275,48.225,107.5,107.5,107.5
	c59.276,0,107.5-48.225,107.5-107.5s-48.225-107.5-107.5-107.5c-55.568,0-101.426,42.382-106.943,96.52V341.603H472.089z"/>
</svg>
