<?xml version="1.0" encoding="utf-8"?>
<!-- Generator: Adobe Illustrator 16.0.0, SVG Export Plug-In . SVG Version: 6.00 Build 0)  -->
<!DOCTYPE svg PUBLIC "-//W3C//DTD SVG 1.1//EN" "http://www.w3.org/Graphics/SVG/1.1/DTD/svg11.dtd">
<svg version="1.1" id="Calque_1" xmlns="http://www.w3.org/2000/svg" xmlns:xlink="http://www.w3.org/1999/xlink" x="0px" y="0px"
	 width="1190.551px" height="1190.551px" viewBox="0 0 1190.551 1190.551" enable-background="new 0 0 1190.551 1190.551"
	 xml:space="preserve">
<g>
	<path fill="#010202" d="M440.573,233.036c44.541,0,377.81,0,389.578,0c26.182,0,62.359-6.586,62.359-41.523
		c0.002-38.022-36.176-43.987-70.064-43.959c-16.961,0.018-338.195,0.002-381.87,0c0,0-0.224,0-0.644,0c-2.777,0-4.262,0-4.262,0
		v0.001c-13.826,0.004-53.084,0.014-67.968-0.001c-33.889-0.027-70.066,5.938-70.066,43.958c0,34.938,36.18,41.523,62.357,41.523
		c6.321,0,26.54,0,45.144,0c12.455,0,24.186,0,30.532,0C438.759,233.036,440.573,233.036,440.573,233.036z"/>
	<path fill="#010202" d="M491.089,405.028c-10.924,16.822-17.277,36.873-17.278,58.381c0,59.275,48.226,107.5,107.5,107.5
		c59.275,0,107.5-48.224,107.5-107.5c0-59.274-48.225-107.5-107.5-107.5c-35.098,0-66.319,16.91-85.951,43.008
		c10.923-16.822,17.277-36.873,17.277-58.381c0-59.274-48.226-107.5-107.5-107.5c-59.275,0-107.5,48.225-107.5,107.5
		c0,59.276,48.226,107.5,107.5,107.5C440.235,448.036,471.456,431.126,491.089,405.028z"/>
	<polygon fill="#010202" points="639.24,693.781 639.24,570.909 581.311,570.909 418.833,570.909 418.833,448.036 405.137,448.036 
		297.637,448.036 297.637,1042.997 418.833,1042.997 418.833,920.125 639.24,920.125 639.24,797.252 892.915,797.252 
		892.915,693.781 	"/>
</g>
</svg>
