<?xml version="1.0" encoding="utf-8"?>
<!-- Generator: Adobe Illustrator 16.0.0, SVG Export Plug-In . SVG Version: 6.00 Build 0)  -->
<!DOCTYPE svg PUBLIC "-//W3C//DTD SVG 1.1//EN" "http://www.w3.org/Graphics/SVG/1.1/DTD/svg11.dtd">
<svg version="1.1" id="Calque_1" xmlns="http://www.w3.org/2000/svg" xmlns:xlink="http://www.w3.org/1999/xlink" x="0px" y="0px"
	 width="1190.551px" height="1190.551px" viewBox="0 0 1190.551 1190.551" enable-background="new 0 0 1190.551 1190.551"
	 xml:space="preserve">
<path fill="#010202" d="M769.885,596.559V376.153h122.871V254.956h-594.96v121.196h122.872v220.406h122.873v253.56
	c-49.322-0.002-89.313-0.004-102.808-0.004c0,0-0.224,0-0.644,0c-2.777,0-4.262,0-4.262,0v0.002
	c-5.031,0.002-13.436,0.004-22.802,0.004c55.681-3.976,99.77-50.543,99.77-107.217c0-59.275-48.227-107.5-107.5-107.5
	c-59.275,0-107.5,48.225-107.5,107.5c0,56.682,44.101,103.256,99.792,107.221c-11.805,0-23.147-0.002-29.728-0.008
	c-33.889-0.027-70.065,5.938-70.065,43.959c0,34.938,36.18,41.521,62.357,41.521c10.555,0,59.851,0,75.676,0c3.09,0,4.902,0,4.902,0
	c44.541,0,377.809,0,389.579,0c26.182,0,62.357-6.586,62.357-41.521c0.002-38.023-36.176-43.988-70.062-43.959
	c-4.432,0.004-29.633,0.006-65.219,0.008c57.949-1.528,104.625-49.147,104.627-107.461c0-59.275-48.229-107.5-107.5-107.5
	c-59.277,0-107.502,48.224-107.502,107.5c0,58.314,46.676,105.935,104.633,107.461c-30.146,0-66.943,0-104.633,0V742.662V596.559
	H769.885z"/>
</svg>
