<?xml version="1.0" encoding="utf-8"?>
<!-- Generator: Adobe Illustrator 16.0.0, SVG Export Plug-In . SVG Version: 6.00 Build 0)  -->
<!DOCTYPE svg PUBLIC "-//W3C//DTD SVG 1.1//EN" "http://www.w3.org/Graphics/SVG/1.1/DTD/svg11.dtd">
<svg version="1.1" id="Calque_1" xmlns="http://www.w3.org/2000/svg" xmlns:xlink="http://www.w3.org/1999/xlink" x="0px" y="0px"
	 width="1190.551px" height="1190.551px" viewBox="0 0 1190.551 1190.551" enable-background="new 0 0 1190.551 1190.551"
	 xml:space="preserve">
<g>
	<path fill="#010202" d="M638.641,0.001c-38.02-0.002-43.986,36.176-43.958,70.064c0.017,16.961,0.002,338.195,0,381.87
		c0,0,0,0.224,0,0.644c0,2.777,0,4.262,0,4.262h0.001c0.001,4.01,0.003,10.167,0.004,17.241H472.09V253.676h-15.373H349.216V146.177
		V0H245.745v253.676H123.761C175.348,245.815,215,201.154,215,147.405c0-59.275-48.226-107.5-107.5-107.5S0,88.129,0,147.405
		s48.224,107.5,107.5,107.5c5.219,0,10.351-0.381,15.373-1.104v220.282H0v121.196h594.962v-58.621
		c1.518,29.96,10.078,58.218,43.679,58.218c34.938,0,41.524-36.18,41.524-62.358c0-10.554,0-59.85,0-75.675c0-3.09,0-4.903,0-4.903
		c0-44.541,0-377.811,0-389.578C680.165,36.179,673.579,0.001,638.641,0.001z"/>
	<path fill="#010202" d="M456.717,253.676c59.274,0,107.5-48.223,107.5-107.499c0-59.275-48.226-107.5-107.5-107.5
		c-59.276,0-107.5,48.224-107.501,107.5C349.216,205.452,397.442,253.676,456.717,253.676z"/>
</g>
</svg>
