<?xml version="1.0" encoding="utf-8"?>
<!-- Generator: Adobe Illustrator 16.0.0, SVG Export Plug-In . SVG Version: 6.00 Build 0)  -->
<!DOCTYPE svg PUBLIC "-//W3C//DTD SVG 1.1//EN" "http://www.w3.org/Graphics/SVG/1.1/DTD/svg11.dtd">
<svg version="1.1" id="Calque_1" xmlns="http://www.w3.org/2000/svg" xmlns:xlink="http://www.w3.org/1999/xlink" x="0px" y="0px"
	 width="1190.551px" height="1190.551px" viewBox="0 0 1190.551 1190.551" enable-background="new 0 0 1190.551 1190.551"
	 xml:space="preserve">
<path fill="#010202" d="M472.089,341.603V121.197h122.872V0H0v121.196h41.523h81.349v220.406h122.873v253.533
	c-16.228-9.841-35.253-15.513-55.579-15.513c-52.692,0-96.649,38.108-105.764,88.212c0.811-7.126,1.085-14.529,1.079-21.828
	c-0.018-16.961-0.002-338.195,0-381.87c0,0,0-0.224,0-0.644c0-2.778,0-4.263,0-4.263h-0.001
	c-0.004-13.826-0.014-53.084,0.001-67.967c0.028-33.89-5.938-70.067-43.958-70.067C6.586,121.197,0,157.376,0,183.556
	c0,10.553,0,59.849,0,75.674c0,3.09,0,4.903,0,4.903c0,44.541,0,377.811,0,389.579c0,26.182,6.586,62.358,41.523,62.358
	c26.93,0.001,37.77-18.153,41.797-40.783c-0.428,3.888-0.655,7.836-0.655,11.836c0,59.273,48.226,107.499,107.5,107.5
	c59.276,0,107.5-48.227,107.5-107.5c0-38.853-20.718-72.956-51.687-91.845h103.236c-0.368,3.609-0.556,7.271-0.556,10.976
	c0,59.276,48.226,107.5,107.5,107.5c59.275,0,107.5-48.224,107.5-107.5c0-59.274-48.224-107.5-107.5-107.5
	c-55.569,0-101.426,42.383-106.943,96.52V341.603H472.089z"/>
</svg>
