<?xml version="1.0" encoding="utf-8"?>
<!-- Generator: Adobe Illustrator 16.0.0, SVG Export Plug-In . SVG Version: 6.00 Build 0)  -->
<!DOCTYPE svg PUBLIC "-//W3C//DTD SVG 1.1//EN" "http://www.w3.org/Graphics/SVG/1.1/DTD/svg11.dtd">
<svg version="1.1" id="Calque_1" xmlns="http://www.w3.org/2000/svg" xmlns:xlink="http://www.w3.org/1999/xlink" x="0px" y="0px"
	 width="1190.551px" height="1190.551px" viewBox="0 0 1190.551 1190.551" enable-background="new 0 0 1190.551 1190.551"
	 xml:space="preserve">
<g>
	<path fill="#010202" d="M893.834,297.637c-38.021-0.002-43.986,36.176-43.958,70.064c0.017,16.961,0.002,338.194,0,381.87
		c0,0,0,0.224,0,0.644c0,2.777,0,4.262,0,4.262h0.001c0.001,4.011,0.003,10.167,0.004,17.241H727.283V551.312H711.91H604.409
		V443.812V297.636H500.939v253.676H378.954c51.587-7.86,91.239-52.521,91.239-106.271c0-59.275-48.227-107.5-107.5-107.5
		c-59.274,0-107.5,48.224-107.5,107.5s48.224,107.5,107.5,107.5c5.219,0,10.351-0.381,15.373-1.104v220.282H255.194v121.196h594.962
		v-58.621c1.518,29.96,10.077,58.218,43.679,58.218c34.938,0,41.523-36.18,41.523-62.357c0-10.555,0-59.851,0-75.675
		c0-3.091,0-4.903,0-4.903c0-44.541,0-377.812,0-389.578C935.358,333.815,928.772,297.637,893.834,297.637z"/>
	<path fill="#010202" d="M711.91,551.312c59.273,0,107.5-48.223,107.5-107.499c0-59.274-48.227-107.5-107.5-107.5
		c-59.276,0-107.5,48.225-107.501,107.5C604.409,503.088,652.635,551.312,711.91,551.312z"/>
</g>
</svg>
