<?xml version="1.0" encoding="utf-8"?>
<!-- Generator: Adobe Illustrator 16.0.0, SVG Export Plug-In . SVG Version: 6.00 Build 0)  -->
<!DOCTYPE svg PUBLIC "-//W3C//DTD SVG 1.1//EN" "http://www.w3.org/Graphics/SVG/1.1/DTD/svg11.dtd">
<svg version="1.1" id="Calque_1" xmlns="http://www.w3.org/2000/svg" xmlns:xlink="http://www.w3.org/1999/xlink" x="0px" y="0px"
	 width="1190.551px" height="1190.551px" viewBox="0 0 1190.551 1190.551" enable-background="new 0 0 1190.551 1190.551"
	 xml:space="preserve">
<path fill="#010202" d="M769.884,539.447V319.041h122.872V197.844H297.795V319.04h122.872v220.406H543.54v253.539
	c-16.143-9.695-35.022-15.279-55.185-15.279c-52.874,0-96.953,38.374-105.856,88.732c0.557-5.104,0.776-10.156,0.776-14.881
	c0-10.555,0-59.852,0-75.675c0-3.091,0-4.903,0-4.903c0-44.541,0-377.812,0-389.578c0-26.183-6.586-62.36-41.522-62.36
	c-38.021-0.001-43.986,36.177-43.958,70.066c0.018,16.961,0.002,338.194,0,381.869c0,0,0,0.224,0,0.644c0,2.778,0,4.264,0,4.264
	h0.001c0.004,13.825,0.014,53.082-0.001,67.967c-0.027,33.889,5.938,70.065,43.958,70.065c25.733,0,36.078-19.63,39.746-40.434
	c-0.42,3.853-0.643,7.764-0.643,11.726c0,59.273,48.227,107.5,107.5,107.5c59.276,0,107.5-48.226,107.5-107.5
	c0-39.02-20.896-73.246-52.086-92.086h103.24c-0.368,3.609-0.556,7.271-0.556,10.977c0,59.275,48.225,107.5,107.499,107.5
	c59.276,0,107.5-48.225,107.5-107.5s-48.225-107.5-107.5-107.5c-55.567,0-101.426,42.382-106.942,96.52v-253.67H769.884z"/>
</svg>
