<?xml version="1.0" encoding="utf-8"?>
<!-- Generator: Adobe Illustrator 16.0.0, SVG Export Plug-In . SVG Version: 6.00 Build 0)  -->
<!DOCTYPE svg PUBLIC "-//W3C//DTD SVG 1.1//EN" "http://www.w3.org/Graphics/SVG/1.1/DTD/svg11.dtd">
<svg version="1.1" id="Calque_1" xmlns="http://www.w3.org/2000/svg" xmlns:xlink="http://www.w3.org/1999/xlink" x="0px" y="0px"
	 width="1190.551px" height="1190.551px" viewBox="0 0 1190.551 1190.551" enable-background="new 0 0 1190.551 1190.551"
	 xml:space="preserve">
<path fill="#010202" d="M580.022,799.975h192.537L976.08,902.184v-597.28L735.112,545.872
	c18.737-19.415,28.542-46.709,28.542-80.068c0-24.755,0-68.714,0-68.714h46.097v-77.368v-2.167v-77.367h-46.099
	c0,0,0-43.963,0-68.715c0-69.799-42.896-113.083-120.81-113.083H576.99V22.683h-64.926h-1.624h-64.927V58.39h-65.854
	c-77.912,0-120.81,43.284-120.81,113.083c0,24.752,0,68.715,0,68.715h-44.379v77.367v2.167v77.366h44.381c0,0,0,43.961,0,68.714
	c0,54.612,26.263,92.989,75.011,107.104H214.471v594.961h121.195v-122.873h220.406V922.123h253.676V818.652H556.073V695.779H335.667
	V573.41c13.104,3.594,27.788,5.472,43.992,5.472h65.854v35.709h64.927h1.624h64.926v-35.709h65.854
	c38.984,0,69.201-10.836,89.666-30.408L580.022,700.963V799.975z"/>
</svg>
