<?xml version="1.0" encoding="utf-8"?>
<!-- Generator: Adobe Illustrator 16.0.0, SVG Export Plug-In . SVG Version: 6.00 Build 0)  -->
<!DOCTYPE svg PUBLIC "-//W3C//DTD SVG 1.1//EN" "http://www.w3.org/Graphics/SVG/1.1/DTD/svg11.dtd">
<svg version="1.1" id="Calque_1" xmlns="http://www.w3.org/2000/svg" xmlns:xlink="http://www.w3.org/1999/xlink" x="0px" y="0px"
	 width="1190.551px" height="1190.551px" viewBox="0 0 1190.551 1190.551" enable-background="new 0 0 1190.551 1190.551"
	 xml:space="preserve">
<path fill="#010202" d="M556.063,549.18l203.521,102.209V54.108L472.09,341.602V121.197h122.873V0H0v121.196h122.873v220.406
	h122.873v253.676h34.755c-69.798,0-113.083,42.896-113.083,120.807v65.855h-35.707v64.926v1.624v64.927h35.707v65.854
	c0,77.912,43.285,120.809,113.083,120.809c24.752,0,68.715,0,68.715,0v44.38h77.366h2.167h77.367v-44.382c0,0,43.961,0,68.713,0
	c69.799,0,113.081-42.895,113.081-120.807v-65.854h35.709V848.49v-1.624v-64.926H687.91v-65.855
	c0-77.91-43.28-120.809-113.078-120.809c-24.755,0-68.714,0-68.714,0V549.18H556.063z M349.217,549.18V341.603h122.872
	L363.526,450.166v99.014H349.217z"/>
</svg>
