<?xml version="1.0" encoding="utf-8"?>
<!-- Generator: Adobe Illustrator 16.0.0, SVG Export Plug-In . SVG Version: 6.00 Build 0)  -->
<!DOCTYPE svg PUBLIC "-//W3C//DTD SVG 1.1//EN" "http://www.w3.org/Graphics/SVG/1.1/DTD/svg11.dtd">
<svg version="1.1" id="Calque_1" xmlns="http://www.w3.org/2000/svg" xmlns:xlink="http://www.w3.org/1999/xlink" x="0px" y="0px"
	 width="1190.551px" height="1190.551px" viewBox="0 0 1190.551 1190.551" enable-background="new 0 0 1190.551 1190.551"
	 xml:space="preserve">
<path fill="#010202" d="M987.968,298.997H795.432L591.908,196.788v35.972h-35.709v-65.854c0-77.912-43.281-120.809-113.079-120.809
	c-24.754,0-68.713,0-68.713,0V-0.002h-77.368h-2.167h-77.367v46.101c0,0-43.963,0-68.715,0
	c-69.799,0-113.083,42.896-113.083,120.807v65.854H0v64.927v1.624v64.926h35.707v65.854c0,66.844,31.861,107.912,84.991,118.232H0
	v594.961h121.196v-122.873h220.406V897.538h253.676v-103.47h-3.37H341.603V671.196H121.197V548.42
	c8.653,1.646,17.865,2.481,27.594,2.481c24.752,0,68.715,0,68.715,0v44.379h77.367h2.167h77.366v-44.381c0,0,43.961,0,68.713,0
	c69.797,0,113.081-42.896,113.081-120.808v-65.854h35.709v429.832l396.06-396.058V298.997z"/>
</svg>
