<?xml version="1.0" encoding="utf-8"?>
<!-- Generator: Adobe Illustrator 16.0.0, SVG Export Plug-In . SVG Version: 6.00 Build 0)  -->
<!DOCTYPE svg PUBLIC "-//W3C//DTD SVG 1.1//EN" "http://www.w3.org/Graphics/SVG/1.1/DTD/svg11.dtd">
<svg version="1.1" id="Calque_1" xmlns="http://www.w3.org/2000/svg" xmlns:xlink="http://www.w3.org/1999/xlink" x="0px" y="0px"
	 width="1190.551px" height="1190.551px" viewBox="0 0 1190.551 1190.551" enable-background="new 0 0 1190.551 1190.551"
	 xml:space="preserve">
<path fill="#010202" d="M1089.259,322.631H896.723L693.198,220.422v35.972H657.49v-65.854c0-77.912-43.28-120.809-113.079-120.809
	c-24.753,0-68.712,0-68.712,0V23.632H398.33h-2.167h-77.367v46.101c0,0-43.963,0-68.715,0c-69.799,0-113.083,42.896-113.083,120.807
	v65.854h-35.707v64.927v1.624v64.926h35.707v65.854c0,66.844,31.86,107.912,84.99,118.232H101.291v594.96h121.195v-122.873h220.406
	V921.172h253.676V817.703h-3.37H442.894V694.83H222.488V572.054c8.653,1.646,17.865,2.481,27.595,2.481c24.752,0,68.715,0,68.715,0
	v44.379h77.367h2.167h77.365v-44.381c0,0,43.962,0,68.713,0c69.797,0,113.081-42.896,113.081-120.808v-65.854h35.709v429.832
	l396.061-396.058L1089.259,322.631L1089.259,322.631z"/>
</svg>
