<?xml version="1.0" encoding="utf-8"?>
<!-- Generator: Adobe Illustrator 16.0.0, SVG Export Plug-In . SVG Version: 6.00 Build 0)  -->
<!DOCTYPE svg PUBLIC "-//W3C//DTD SVG 1.1//EN" "http://www.w3.org/Graphics/SVG/1.1/DTD/svg11.dtd">
<svg version="1.1" id="Calque_1" xmlns="http://www.w3.org/2000/svg" xmlns:xlink="http://www.w3.org/1999/xlink" x="0px" y="0px"
	 width="1190.551px" height="1190.551px" viewBox="0 0 1190.551 1190.551" enable-background="new 0 0 1190.551 1190.551"
	 xml:space="preserve">
<path fill="#010202" d="M943.095,223.406H750.559L547.035,121.197v597.135c-9.555-54.539-50.838-87.346-118.662-87.346H362.52
	v-35.707h-13.303V341.603H472.09V121.197h74.945h47.928V0H0v121.196h122.873v220.406h122.873v253.676h-14.703v35.707h-65.854
	c-77.912,0-120.81,43.285-120.81,113.083c0,24.752,0,68.715,0,68.715H0v77.367v2.167v77.367h44.381c0,0,0,43.961,0,68.713
	c0,69.797,42.896,113.081,120.808,113.081h65.854v35.709h64.927h1.624h64.926v-35.709h65.854
	c77.912,0,120.811-43.282,120.811-113.079c0-24.754,0-68.713,0-68.713h46.097v-77.369v-2.167v-77.367h-46.099c0,0,0-43.963,0-68.715
	c0-8.991-0.717-17.538-2.124-25.613L943.095,322.42V223.406z"/>
</svg>
