<?xml version="1.0" encoding="utf-8"?>
<!-- Generator: Adobe Illustrator 16.0.0, SVG Export Plug-In . SVG Version: 6.00 Build 0)  -->
<!DOCTYPE svg PUBLIC "-//W3C//DTD SVG 1.1//EN" "http://www.w3.org/Graphics/SVG/1.1/DTD/svg11.dtd">
<svg version="1.1" id="Calque_1" xmlns="http://www.w3.org/2000/svg" xmlns:xlink="http://www.w3.org/1999/xlink" x="0px" y="0px"
	 width="1190.551px" height="1190.551px" viewBox="0 0 1190.551 1190.551" enable-background="new 0 0 1190.551 1190.551"
	 xml:space="preserve">
<g>
	<path fill="#010202" d="M552.55,574.533c69.796,0,113.082-42.896,113.082-120.808v-65.854h35.709v-64.926v-1.624v-64.927h-35.709
		v-65.854c0-77.912-43.281-120.809-113.08-120.809c-24.753,0-68.712,0-68.712,0V23.632h-77.368h-2.167h-77.367v46.101
		c0,0-43.963,0-68.715,0c-69.799,0-113.083,42.896-113.083,120.807v65.854h-35.707v64.927v1.624v64.926h35.707v65.854
		c0,66.844,31.86,107.912,84.99,118.232H109.432v594.96h121.195v-122.873h220.406V921.172h253.675V817.703H451.035V694.83H230.629
		V572.054c8.653,1.646,17.865,2.481,27.595,2.481c24.752,0,68.715,0,68.715,0v44.379h77.367h2.167h77.365V596.83v-22.297
		C483.838,574.533,527.799,574.533,552.55,574.533z"/>
	<polygon fill="#010202" points="483.838,596.83 879.897,992.889 978.91,992.889 978.91,800.352 1081.119,596.83 	"/>
</g>
</svg>
