<?xml version="1.0" encoding="utf-8"?>
<!-- Generator: Adobe Illustrator 16.0.0, SVG Export Plug-In . SVG Version: 6.00 Build 0)  -->
<!DOCTYPE svg PUBLIC "-//W3C//DTD SVG 1.1//EN" "http://www.w3.org/Graphics/SVG/1.1/DTD/svg11.dtd">
<svg version="1.1" id="Calque_1" xmlns="http://www.w3.org/2000/svg" xmlns:xlink="http://www.w3.org/1999/xlink" x="0px" y="0px"
	 width="1190.551px" height="1190.551px" viewBox="0 0 1190.551 1190.551" enable-background="new 0 0 1190.551 1190.551"
	 xml:space="preserve">
<g>
	<path fill="#010202" d="M267.019,444.801c0,69.797,42.896,113.08,120.808,113.08h65.854v35.709h64.927h1.624h64.926v-35.709h65.854
		c77.912,0,120.811-43.281,120.811-113.078c0-24.755,0-68.714,0-68.714h46.098v-77.368v-2.167v-77.367h-46.1c0,0,0-43.963,0-68.715
		c0-69.799-42.896-113.083-120.809-113.083h-65.854V1.682h-64.926h-1.624h-64.927v35.707h-65.854
		c-77.912,0-120.81,43.284-120.81,113.083c0,24.752,0,68.715,0,68.715h-44.379v77.367v2.167v77.366h44.381
		C267.019,376.088,267.019,420.048,267.019,444.801z"/>
	<polygon fill="#010202" points="764.391,847.268 967.912,949.477 967.912,352.195 571.854,748.253 571.854,593.591 
		468.385,593.591 468.385,847.268 345.511,847.268 345.511,1067.672 222.638,1067.672 222.638,1188.869 817.602,1188.869 
		817.602,1067.672 694.729,1067.672 694.729,847.268 	"/>
</g>
</svg>
