<?xml version="1.0" encoding="utf-8"?>
<!-- Generator: Adobe Illustrator 16.0.0, SVG Export Plug-In . SVG Version: 6.00 Build 0)  -->
<!DOCTYPE svg PUBLIC "-//W3C//DTD SVG 1.1//EN" "http://www.w3.org/Graphics/SVG/1.1/DTD/svg11.dtd">
<svg version="1.1" id="Calque_1" xmlns="http://www.w3.org/2000/svg" xmlns:xlink="http://www.w3.org/1999/xlink" x="0px" y="0px"
	 width="1190.551px" height="1190.551px" viewBox="0 0 1190.551 1190.551" enable-background="new 0 0 1190.551 1190.551"
	 xml:space="preserve">
<path fill="#010202" d="M1066.823,225.088H874.287L670.762,122.879v597.135c-9.555-54.539-50.838-87.346-118.662-87.346h-65.853
	v-35.707h-13.303V343.285h122.874V122.879h74.943h47.93V1.682H123.728v121.196h122.873v220.406h122.873v253.675h-14.703v35.708
	h-65.854c-77.912,0-120.81,43.284-120.81,113.083c0,24.752,0,68.715,0,68.715h-44.379v77.367v2.167v77.366h44.381
	c0,0,0,43.961,0,68.713c0,69.798,42.896,113.082,120.808,113.082h65.854v35.709h64.927h1.624h64.926v-35.709h65.854
	c77.913,0,120.811-43.282,120.811-113.079c0-24.755,0-68.714,0-68.714h46.098v-77.368v-2.167v-77.367h-46.1c0,0,0-43.963,0-68.715
	c0-8.991-0.717-17.538-2.123-25.613l396.035-396.035V225.088z"/>
</svg>
