<?xml version="1.0" encoding="utf-8"?>
<!-- Generator: Adobe Illustrator 16.0.0, SVG Export Plug-In . SVG Version: 6.00 Build 0)  -->
<!DOCTYPE svg PUBLIC "-//W3C//DTD SVG 1.1//EN" "http://www.w3.org/Graphics/SVG/1.1/DTD/svg11.dtd">
<svg version="1.1" id="Calque_1" xmlns="http://www.w3.org/2000/svg" xmlns:xlink="http://www.w3.org/1999/xlink" x="0px" y="0px"
	 width="1190.551px" height="1190.551px" viewBox="0 0 1190.551 1190.551" enable-background="new 0 0 1190.551 1190.551"
	 xml:space="preserve">
<path fill="#010202" d="M764.392,596.961L967.912,699.17V101.89L571.856,497.946V343.285h122.873V122.879h122.873V1.682H222.639
	v121.196h122.873v220.406h122.873v253.675h-14.703v35.708h-65.854c-77.912,0-120.81,43.284-120.81,113.083
	c0,24.752,0,68.715,0,68.715h-44.379v77.367v2.167v77.366h44.381c0,0,0,43.961,0,68.713c0,69.798,42.896,113.082,120.808,113.082
	h65.854v35.709h64.927h1.624h64.926v-35.709h65.854c77.912,0,120.812-43.282,120.812-113.079c0-24.755,0-68.714,0-68.714h46.097
	v-77.368v-2.167v-77.367h-46.099c0,0,0-43.963,0-68.715c0-69.799-42.896-113.083-120.81-113.083h-65.854v-35.708h179.233V596.961z"
	/>
</svg>
