<?xml version="1.0" encoding="utf-8"?>
<!-- Generator: Adobe Illustrator 16.0.0, SVG Export Plug-In . SVG Version: 6.00 Build 0)  -->
<!DOCTYPE svg PUBLIC "-//W3C//DTD SVG 1.1//EN" "http://www.w3.org/Graphics/SVG/1.1/DTD/svg11.dtd">
<svg version="1.1" id="Calque_1" xmlns="http://www.w3.org/2000/svg" xmlns:xlink="http://www.w3.org/1999/xlink" x="0px" y="0px"
	 width="1190.551px" height="1190.551px" viewBox="0 0 1190.551 1190.551" enable-background="new 0 0 1190.551 1190.551"
	 xml:space="preserve">
<path fill="#010202" d="M771.546,572.226l203.521,102.208V77.153L687.573,364.647V144.243h122.873V23.045H215.484v121.196h122.873
	v220.406H461.23v253.676h34.755c-69.798,0-113.083,42.896-113.083,120.808v65.854h-35.707v64.928v1.623v64.928h35.707v65.854
	c0,77.912,43.285,120.809,113.083,120.809c24.752,0,68.715,0,68.715,0v44.381h77.365h2.167h77.367v-44.383c0,0,43.961,0,68.713,0
	c69.8,0,113.081-42.895,113.081-120.807v-65.854h35.709v-64.928v-1.623v-64.928h-35.709v-65.854
	c0-77.91-43.279-120.81-113.078-120.81c-24.755,0-68.714,0-68.714,0v-46.096H771.546z M564.7,572.226V364.648h122.872
	L579.009,473.211v99.014H564.7z"/>
</svg>
