<?xml version="1.0" encoding="utf-8"?>
<!-- Generator: Adobe Illustrator 16.0.0, SVG Export Plug-In . SVG Version: 6.00 Build 0)  -->
<!DOCTYPE svg PUBLIC "-//W3C//DTD SVG 1.1//EN" "http://www.w3.org/Graphics/SVG/1.1/DTD/svg11.dtd">
<svg version="1.1" id="Calque_1" xmlns="http://www.w3.org/2000/svg" xmlns:xlink="http://www.w3.org/1999/xlink" x="0px" y="0px"
	 width="1190.551px" height="1190.551px" viewBox="0 0 1190.551 1190.551" enable-background="new 0 0 1190.551 1190.551"
	 xml:space="preserve">
<path fill="#010202" d="M467.435,465.834l176.371,176.371c-20.463-19.533-50.657-30.348-89.601-30.348h-65.854v-35.707h-64.926
	h-1.624h-64.927v35.707h-65.854c-16.204,0-30.888,1.879-43.992,5.473V494.58h220.406V465.834v-94.128h253.676v-103.47H467.435
	V145.364H247.029V22.491H125.832v594.962H246.59c-49.621,13.791-76.379,52.369-76.379,107.488c0,24.752,0,68.715,0,68.715h-44.379
	v77.367v2.166v77.367h44.381c0,0,0,43.961,0,68.713c0,69.797,42.896,113.082,120.808,113.082h65.854v35.709h64.927h1.624h64.926
	v-35.709h65.854c77.912,0,120.812-43.283,120.812-113.08c0-24.754,0-68.713,0-68.713h46.097v-77.369v-2.166v-77.367h-46.099
	c0,0,0-43.963,0-68.715c0-33.328-9.788-60.605-28.491-80.02l216.97,216.971h99.017V669.357l102.209-203.523H467.435z"/>
</svg>
