<?xml version="1.0" encoding="utf-8"?>
<!-- Generator: Adobe Illustrator 16.0.0, SVG Export Plug-In . SVG Version: 6.00 Build 0)  -->
<!DOCTYPE svg PUBLIC "-//W3C//DTD SVG 1.1//EN" "http://www.w3.org/Graphics/SVG/1.1/DTD/svg11.dtd">
<svg version="1.1" id="Calque_1" xmlns="http://www.w3.org/2000/svg" xmlns:xlink="http://www.w3.org/1999/xlink" x="0px" y="0px"
	 width="1190.551px" height="1190.551px" viewBox="0 0 1190.551 1190.551" enable-background="new 0 0 1190.551 1190.551"
	 xml:space="preserve">
<path fill="#010202" d="M341.603,443.344l176.371,176.371c-20.463-19.533-50.657-30.348-89.6-30.348H362.52V553.66h-64.926h-1.624
	h-64.927v35.707h-65.854c-16.204,0-30.888,1.878-43.992,5.472v-122.75h220.406V443.344v-94.128h253.676v-103.47H341.603V122.873
	H121.197V0H0v594.962h120.758c-49.621,13.792-76.379,52.369-76.379,107.488c0,24.752,0,68.715,0,68.715H0v77.367v2.167v77.367
	h44.381c0,0,0,43.961,0,68.713c0,69.797,42.896,113.081,120.808,113.081h65.854v35.709h64.927h1.624h64.926v-35.709h65.854
	c77.912,0,120.811-43.282,120.811-113.079c0-24.754,0-68.713,0-68.713h46.097v-77.369v-2.167v-77.367h-46.099c0,0,0-43.963,0-68.715
	c0-33.328-9.788-60.605-28.491-80.018l216.97,216.97h99.016V646.866l102.209-203.522H341.603z"/>
</svg>
