<?xml version="1.0" encoding="utf-8"?>
<!-- Generator: Adobe Illustrator 16.0.0, SVG Export Plug-In . SVG Version: 6.00 Build 0)  -->
<!DOCTYPE svg PUBLIC "-//W3C//DTD SVG 1.1//EN" "http://www.w3.org/Graphics/SVG/1.1/DTD/svg11.dtd">
<svg version="1.1" id="Calque_1" xmlns="http://www.w3.org/2000/svg" xmlns:xlink="http://www.w3.org/1999/xlink" x="0px" y="0px"
	 width="1190.551px" height="1190.551px" viewBox="0 0 1190.551 1190.551" enable-background="new 0 0 1190.551 1190.551"
	 xml:space="preserve">
<g>
	<path fill="#010202" d="M892.914,148.662H297.636c0,164.384,133.259,297.641,297.639,297.641
		c82.188,0,156.596-33.312,210.458-87.172L409.679,755.187v99.015h192.536L805.737,956.41V359.126
		C859.6,305.264,892.914,230.854,892.914,148.662z"/>
	<path fill="#010202" d="M830.153,956.409c-3.959,0-13.367,0-24.414,0c-18.41,0-41.371,0-51.26,0c-3.094,0-4.904,0-4.904,0
		c-44.541,0-377.812,0-389.579,0c-26.182,0-62.357,6.586-62.357,41.521c-0.002,38.021,36.176,43.987,70.062,43.958
		c16.961-0.017,338.196-0.002,381.87,0c0,0,0.223,0,0.643,0c2.779,0,4.266,0,4.266,0v-0.001c13.824-0.004,53.084-0.013,67.967,0.001
		c33.889,0.028,70.064-5.938,70.064-43.958C892.508,962.994,856.33,956.409,830.153,956.409z"/>
</g>
</svg>
