<?xml version="1.0" encoding="utf-8"?>
<!-- Generator: Adobe Illustrator 16.0.0, SVG Export Plug-In . SVG Version: 6.00 Build 0)  -->
<!DOCTYPE svg PUBLIC "-//W3C//DTD SVG 1.1//EN" "http://www.w3.org/Graphics/SVG/1.1/DTD/svg11.dtd">
<svg version="1.1" id="Calque_1" xmlns="http://www.w3.org/2000/svg" xmlns:xlink="http://www.w3.org/1999/xlink" x="0px" y="0px"
	 width="1190.551px" height="1190.551px" viewBox="0 0 1190.551 1190.551" enable-background="new 0 0 1190.551 1190.551"
	 xml:space="preserve">
<g>
	<path fill="#010202" d="M297.64,297.64C297.64,133.259,164.382,0,0,0v595.278C164.383,595.279,297.64,462.021,297.64,297.64z"/>
	<path fill="#010202" d="M371.642,579.996c9.164-12.928,11.479-31.96,11.479-47.48c0-10.554,0-59.85,0-75.675
		c0-3.09,0-4.903,0-4.903c0-44.541,0-377.812,0-389.578c0-26.182-6.586-62.358-41.523-62.358
		c-38.021-0.002-43.987,36.176-43.958,70.063c0.018,16.961,0.002,338.195,0,381.87c0,0,0,0.224,0,0.644c0,2.777,0,4.262,0,4.262
		h0.001c0.004,13.826,0.013,53.084-0.001,67.968c-0.028,33.889,5.938,70.066,43.958,70.066c8.734,0,15.696-2.261,21.227-6.062
		L0,951.638v99.015h192.536l203.522,102.209V555.578L371.642,579.996z"/>
</g>
</svg>
