<?xml version="1.0" encoding="utf-8"?>
<!-- Generator: Adobe Illustrator 16.0.0, SVG Export Plug-In . SVG Version: 6.00 Build 0)  -->
<!DOCTYPE svg PUBLIC "-//W3C//DTD SVG 1.1//EN" "http://www.w3.org/Graphics/SVG/1.1/DTD/svg11.dtd">
<svg version="1.1" id="Calque_1" xmlns="http://www.w3.org/2000/svg" xmlns:xlink="http://www.w3.org/1999/xlink" x="0px" y="0px"
	 width="1190.551px" height="1190.551px" viewBox="0 0 1190.551 1190.551" enable-background="new 0 0 1190.551 1190.551"
	 xml:space="preserve">
<g>
	<path fill="#010202" d="M210.475,508.091c53.855-53.861,87.165-128.266,87.165-210.451C297.64,133.259,164.382,0,0,0v595.278
		c82.186,0,156.591-33.31,210.452-87.165L0,718.566v99.015h192.536l203.522,102.209V322.506L210.475,508.091z"/>
	<path fill="#010202" d="M532.516,919.789c-10.553,0-59.85,0-75.674,0c-3.092,0-4.904,0-4.904,0c-8.84,0-29.062,0-55.879,0
		c-108.297,0-324.268,0-333.699,0c-26.182,0-62.358,6.586-62.358,41.522c-0.002,38.022,36.176,43.987,70.063,43.958
		c16.961-0.017,338.195-0.002,381.87,0c0,0,0.223,0,0.643,0c2.778,0,4.264,0,4.264,0v-0.001c13.825-0.004,53.084-0.013,67.967,0.001
		c33.889,0.028,70.065-5.938,70.065-43.958C594.873,926.374,558.695,919.789,532.516,919.789z"/>
</g>
</svg>
