<?xml version="1.0" encoding="utf-8"?>
<!-- Generator: Adobe Illustrator 16.0.0, SVG Export Plug-In . SVG Version: 6.00 Build 0)  -->
<!DOCTYPE svg PUBLIC "-//W3C//DTD SVG 1.1//EN" "http://www.w3.org/Graphics/SVG/1.1/DTD/svg11.dtd">
<svg version="1.1" id="Calque_1" xmlns="http://www.w3.org/2000/svg" xmlns:xlink="http://www.w3.org/1999/xlink" x="0px" y="0px"
	 width="1190.551px" height="1190.551px" viewBox="0 0 1190.551 1190.551" enable-background="new 0 0 1190.551 1190.551"
	 xml:space="preserve">
<g>
	<path fill="#010202" d="M594.275,561.119c0,0,0,0.224,0,0.644c0,2.777,0,4.262,0,4.262h0.001
		c0.004,13.826,0.013,53.084-0.001,67.968c-0.028,33.89,5.938,70.066,43.958,70.066c34.939,0,41.523-36.18,41.523-62.357
		c0-10.555,0-59.851,0-75.676c0-3.09,0-4.903,0-4.903c0-44.541,0-377.812,0-389.578c0-26.182-6.586-62.358-41.523-62.358
		c-38.02-0.002-43.987,36.176-43.958,70.063C594.293,196.209,594.277,517.443,594.275,561.119z"/>
	<path fill="#010202" d="M296.635,1081.367h597.281l-396.06-396.059h-96.009c112.454-42.508,192.428-151.148,192.428-278.485
		c0-164.381-133.258-297.64-297.64-297.64v595.277c35.91,0,70.334-6.36,102.209-18.014v191.396L296.635,1081.367z"/>
</g>
</svg>
