<?xml version="1.0" encoding="utf-8"?>
<!-- Generator: Adobe Illustrator 16.0.0, SVG Export Plug-In . SVG Version: 6.00 Build 0)  -->
<!DOCTYPE svg PUBLIC "-//W3C//DTD SVG 1.1//EN" "http://www.w3.org/Graphics/SVG/1.1/DTD/svg11.dtd">
<svg version="1.1" id="Calque_1" xmlns="http://www.w3.org/2000/svg" xmlns:xlink="http://www.w3.org/1999/xlink" x="0px" y="0px"
	 width="1190.551px" height="1190.551px" viewBox="0 0 1190.551 1190.551" enable-background="new 0 0 1190.551 1190.551"
	 xml:space="preserve">
<g>
	<path fill="#010202" d="M595.279-0.001H0C0,164.383,133.259,297.64,297.639,297.64C462.021,297.64,595.279,164.382,595.279-0.001z"
		/>
	<path fill="#010202" d="M532.516,693.698c-5.454,0-21.26,0-37.443,0V501.163L597.281,297.64H297.639H0l396.06,396.059
		c-108.297,0-324.269,0-333.7,0c-26.182,0-62.358,6.586-62.358,41.524c-0.002,38.021,36.176,43.988,70.063,43.958
		c16.961-0.019,338.195-0.002,381.87,0c0,0,0.223,0,0.643,0c2.778,0,4.264,0,4.264,0v-0.001c13.825-0.004,53.084-0.013,67.967,0.001
		c33.889,0.028,70.065-5.938,70.065-43.958C594.873,700.284,558.695,693.698,532.516,693.698z"/>
</g>
</svg>
