<?xml version="1.0" encoding="utf-8"?>
<!-- Generator: Adobe Illustrator 16.0.0, SVG Export Plug-In . SVG Version: 6.00 Build 0)  -->
<!DOCTYPE svg PUBLIC "-//W3C//DTD SVG 1.1//EN" "http://www.w3.org/Graphics/SVG/1.1/DTD/svg11.dtd">
<svg version="1.1" id="Calque_1" xmlns="http://www.w3.org/2000/svg" xmlns:xlink="http://www.w3.org/1999/xlink" x="0px" y="0px"
	 width="1190.551px" height="1190.551px" viewBox="0 0 1190.551 1190.551" enable-background="new 0 0 1190.551 1190.551"
	 xml:space="preserve">
<g>
	<path fill="#010202" d="M891.914,205.685H296.635c0,164.384,133.259,297.641,297.639,297.641
		C758.656,503.326,891.914,370.067,891.914,205.685z"/>
	<path fill="#010202" d="M829.151,899.384c-5.453,0-21.26,0-37.443,0V706.849l102.209-203.523H594.274H296.635l396.06,396.059
		c-108.297,0-324.269,0-333.701,0c-26.182,0-62.357,6.586-62.357,41.523c-0.002,38.021,36.176,43.988,70.062,43.958
		c16.961-0.019,338.195-0.002,381.871,0c0,0,0.223,0,0.643,0c2.777,0,4.264,0,4.264,0v-0.001
		c13.826-0.004,53.084-0.013,67.967,0.001c33.889,0.028,70.064-5.938,70.064-43.958C891.508,905.97,855.33,899.384,829.151,899.384z
		"/>
</g>
</svg>
