<?xml version="1.0" encoding="utf-8"?>
<!-- Generator: Adobe Illustrator 16.0.0, SVG Export Plug-In . SVG Version: 6.00 Build 0)  -->
<!DOCTYPE svg PUBLIC "-//W3C//DTD SVG 1.1//EN" "http://www.w3.org/Graphics/SVG/1.1/DTD/svg11.dtd">
<svg version="1.1" id="Calque_1" xmlns="http://www.w3.org/2000/svg" xmlns:xlink="http://www.w3.org/1999/xlink" x="0px" y="0px"
	 width="1190.551px" height="1190.551px" viewBox="0 0 1190.551 1190.551" enable-background="new 0 0 1190.551 1190.551"
	 xml:space="preserve">
<path fill="#010202" d="M829.151,891.356h64.766L497.984,495.423c30.204,10.321,62.591,15.931,96.29,15.931
	c164.382,0,297.64-133.258,297.64-297.641H296.635c0,130.549,84.053,241.454,200.987,281.583h-98.778v192.536L296.635,891.356
	h62.359c-26.182,0-62.357,6.586-62.357,41.522c-0.002,38.021,36.176,43.987,70.062,43.958c16.961-0.018,338.195-0.002,381.87,0
	c0,0,0.223,0,0.643,0c2.778,0,4.265,0,4.265,0v-0.001c13.825-0.004,53.084-0.013,67.967,0.001
	c33.889,0.028,70.064-5.938,70.064-43.958C891.507,897.942,855.329,891.356,829.151,891.356z"/>
</svg>
