<?xml version="1.0" encoding="utf-8"?>
<!-- Generator: Adobe Illustrator 16.0.0, SVG Export Plug-In . SVG Version: 6.00 Build 0)  -->
<!DOCTYPE svg PUBLIC "-//W3C//DTD SVG 1.1//EN" "http://www.w3.org/Graphics/SVG/1.1/DTD/svg11.dtd">
<svg version="1.1" id="Calque_1" xmlns="http://www.w3.org/2000/svg" xmlns:xlink="http://www.w3.org/1999/xlink" x="0px" y="0px"
	 width="1190.551px" height="1190.551px" viewBox="0 0 1190.551 1190.551" enable-background="new 0 0 1190.551 1190.551"
	 xml:space="preserve">
<g>
	<path fill="#010202" d="M595.279-0.001H0C0,164.383,133.259,297.64,297.639,297.64c82.188,0,156.596-33.312,210.458-87.172
		L112.043,606.523v99.015h192.536l203.522,102.209V210.463C561.964,156.601,595.279,82.191,595.279-0.001z"/>
	<path fill="#010202" d="M532.516,807.746c-3.958,0-13.366,0-24.414,0c-18.409,0-41.371,0-51.26,0c-3.092,0-4.904,0-4.904,0
		c-44.541,0-377.812,0-389.578,0c-26.182,0-62.358,6.586-62.358,41.522c-0.002,38.021,36.176,43.987,70.063,43.958
		c16.961-0.017,338.195-0.002,381.87,0c0,0,0.223,0,0.643,0c2.778,0,4.264,0,4.264,0v-0.001c13.825-0.004,53.084-0.013,67.967,0.001
		c33.889,0.028,70.065-5.938,70.065-43.958C594.873,814.331,558.695,807.746,532.516,807.746z"/>
</g>
</svg>
