<?xml version="1.0" encoding="utf-8"?>
<!-- Generator: Adobe Illustrator 16.0.0, SVG Export Plug-In . SVG Version: 6.00 Build 0)  -->
<!DOCTYPE svg PUBLIC "-//W3C//DTD SVG 1.1//EN" "http://www.w3.org/Graphics/SVG/1.1/DTD/svg11.dtd">
<svg version="1.1" id="Calque_1" xmlns="http://www.w3.org/2000/svg" xmlns:xlink="http://www.w3.org/1999/xlink" x="0px" y="0px"
	 width="1190.551px" height="1190.551px" viewBox="0 0 1190.551 1190.551" enable-background="new 0 0 1190.551 1190.551"
	 xml:space="preserve">
<g>
	<path fill="#010202" d="M297.64,297.64C297.64,133.259,164.382,0,0,0v595.278c82.186,0,156.591-33.31,210.452-87.165L0,718.566
		v99.015h192.536l203.522,102.209V322.506L210.475,508.091C264.33,454.229,297.64,379.824,297.64,297.64z"/>
	<path fill="#010202" d="M481.541,70.066c0.027-33.889-5.938-70.066-43.959-70.066c-34.938,0-41.522,36.18-41.522,62.358
		c0,10.554,0,59.85,0,75.674c0,3.091,0,4.904,0,4.904c0,44.541,0,377.812,0,389.578c0,26.182,6.586,62.358,41.522,62.358
		c38.021,0.003,43.987-36.176,43.959-70.063c-0.018-16.961-0.003-338.195,0-381.87c0,0,0-0.223,0-0.644c0-2.777,0-4.262,0-4.262
		h-0.002C481.535,124.207,481.527,84.948,481.541,70.066z"/>
</g>
</svg>
