<?xml version="1.0" encoding="utf-8"?>
<!-- Generator: Adobe Illustrator 16.0.0, SVG Export Plug-In . SVG Version: 6.00 Build 0)  -->
<!DOCTYPE svg PUBLIC "-//W3C//DTD SVG 1.1//EN" "http://www.w3.org/Graphics/SVG/1.1/DTD/svg11.dtd">
<svg version="1.1" id="Calque_1" xmlns="http://www.w3.org/2000/svg" xmlns:xlink="http://www.w3.org/1999/xlink" x="0px" y="0px"
	 width="1190.551px" height="1190.551px" viewBox="0 0 1190.551 1190.551" enable-background="new 0 0 1190.551 1190.551"
	 xml:space="preserve">
<g>
	<path fill="#010202" d="M652.145,433.021c0-164.381-133.257-297.64-297.639-297.64v595.278c82.186,0,156.591-33.311,210.452-87.165
		L354.506,853.947v99.014h192.536l203.521,102.209V457.886L564.98,643.471C618.835,589.609,652.145,515.205,652.145,433.021z"/>
	<path fill="#010202" d="M836.045,205.446c0.027-33.889-5.938-70.066-43.959-70.066c-34.938,0-41.521,36.18-41.521,62.358
		c0,10.554,0,59.85,0,75.674c0,3.091,0,4.904,0,4.904c0,44.541,0,377.812,0,389.578c0,26.182,6.586,62.357,41.521,62.357
		c38.021,0.004,43.987-36.176,43.959-70.062c-0.018-16.961-0.003-338.195,0-381.87c0,0,0-0.223,0-0.644c0-2.777,0-4.262,0-4.262
		h-0.002C836.039,259.587,836.031,220.329,836.045,205.446z"/>
</g>
</svg>
