<?xml version="1.0" encoding="utf-8"?>
<!-- Generator: Adobe Illustrator 16.0.0, SVG Export Plug-In . SVG Version: 6.00 Build 0)  -->
<!DOCTYPE svg PUBLIC "-//W3C//DTD SVG 1.1//EN" "http://www.w3.org/Graphics/SVG/1.1/DTD/svg11.dtd">
<svg version="1.1" id="Calque_1" xmlns="http://www.w3.org/2000/svg" xmlns:xlink="http://www.w3.org/1999/xlink" x="0px" y="0px"
	 width="1190.551px" height="1190.551px" viewBox="0 0 1190.551 1190.551" enable-background="new 0 0 1190.551 1190.551"
	 xml:space="preserve">
<path fill="#010202" d="M891.697,232.575c-28.363-0.001-38.884,20.132-42.389,44.426c2.17-14.495,3.304-29.329,3.304-44.428H257.333
	c0,164.384,133.259,297.641,297.639,297.641c148.979,0,272.393-109.455,294.213-252.335c-1.097,8.014-1.454,16.455-1.447,24.76
	c0.004,4.129,0.006,26.292,0.007,58.087l-396.026,396.03v99.013h192.536l203.521,102.209V761.85
	c0.523,32.523,7.566,65.599,43.92,65.599c34.938,0,41.522-36.181,41.522-62.358c0-10.554,0-59.85,0-75.675c0-3.09,0-4.903,0-4.903
	c0-44.541,0-377.812,0-389.578C933.219,268.752,926.633,232.575,891.697,232.575z"/>
</svg>
