<?xml version="1.0" encoding="utf-8"?>
<!-- Generator: Adobe Illustrator 16.0.0, SVG Export Plug-In . SVG Version: 6.00 Build 0)  -->
<!DOCTYPE svg PUBLIC "-//W3C//DTD SVG 1.1//EN" "http://www.w3.org/Graphics/SVG/1.1/DTD/svg11.dtd">
<svg version="1.1" id="Calque_1" xmlns="http://www.w3.org/2000/svg" xmlns:xlink="http://www.w3.org/1999/xlink" x="0px" y="0px"
	 width="1190.551px" height="1190.551px" viewBox="0 0 1190.551 1190.551" enable-background="new 0 0 1190.551 1190.551"
	 xml:space="preserve">
<g>
	<path fill="#010202" d="M694.887,316.484c0-164.381-133.258-297.64-297.64-297.64v595.278
		C561.63,614.123,694.887,480.865,694.887,316.484z"/>
	<path fill="#010202" d="M768.889,598.84c9.164-12.928,11.479-31.959,11.479-47.479c0-10.554,0-59.85,0-75.675
		c0-3.09,0-4.903,0-4.903c0-44.541,0-377.812,0-389.578c0-26.182-6.586-62.358-41.523-62.358
		c-38.02-0.002-43.986,36.176-43.957,70.063c0.018,16.961,0.002,338.195,0,381.87c0,0,0,0.224,0,0.644c0,2.777,0,4.262,0,4.262l0,0
		c0.004,13.826,0.014,53.084,0,67.968c-0.029,33.889,5.938,70.065,43.957,70.065c8.734,0,15.697-2.26,21.229-6.062L397.247,970.482
		v99.016h192.536l203.522,102.209V574.422L768.889,598.84z"/>
</g>
</svg>
