<?xml version="1.0" encoding="utf-8"?>
<!-- Generator: Adobe Illustrator 16.0.0, SVG Export Plug-In . SVG Version: 6.00 Build 0)  -->
<!DOCTYPE svg PUBLIC "-//W3C//DTD SVG 1.1//EN" "http://www.w3.org/Graphics/SVG/1.1/DTD/svg11.dtd">
<svg version="1.1" id="Calque_1" xmlns="http://www.w3.org/2000/svg" xmlns:xlink="http://www.w3.org/1999/xlink" x="0px" y="0px"
	 width="1190.551px" height="1190.551px" viewBox="0 0 1190.551 1190.551" enable-background="new 0 0 1190.551 1190.551"
	 xml:space="preserve">
<g>
	<path fill="#010202" d="M508.314,600.731c53.855-53.86,87.165-128.265,87.165-210.45c0-164.381-133.258-297.64-297.64-297.64
		v595.278c82.186,0,156.591-33.311,210.452-87.165L297.839,811.207v99.015h192.536l203.521,102.209V415.147L508.314,600.731z"/>
	<path fill="#010202" d="M830.355,1012.43c-10.553,0-59.851,0-75.674,0c-3.093,0-4.904,0-4.904,0c-8.84,0-29.062,0-55.879,0
		c-108.297,0-324.268,0-333.699,0c-26.182,0-62.357,6.586-62.357,41.521c-0.002,38.022,36.176,43.987,70.062,43.958
		c16.961-0.017,338.195-0.002,381.87,0c0,0,0.223,0,0.643,0c2.778,0,4.265,0,4.265,0v-0.001c13.825-0.004,53.084-0.013,67.967,0.001
		c33.889,0.028,70.064-5.938,70.064-43.958C892.711,1019.015,856.533,1012.43,830.355,1012.43z"/>
</g>
</svg>
