<?xml version="1.0" encoding="utf-8"?>
<!-- Generator: Adobe Illustrator 16.0.0, SVG Export Plug-In . SVG Version: 6.00 Build 0)  -->
<!DOCTYPE svg PUBLIC "-//W3C//DTD SVG 1.1//EN" "http://www.w3.org/Graphics/SVG/1.1/DTD/svg11.dtd">
<svg version="1.1" id="Calque_1" xmlns="http://www.w3.org/2000/svg" xmlns:xlink="http://www.w3.org/1999/xlink" x="0px" y="0px"
	 width="1190.551px" height="1190.551px" viewBox="0 0 1190.551 1190.551" enable-background="new 0 0 1190.551 1190.551"
	 xml:space="preserve">
<g>
	<path fill="#010202" d="M850.313,242.666H255.034c0,164.383,133.257,297.64,297.639,297.64
		C717.055,540.306,850.313,407.048,850.313,242.666z"/>
	<path fill="#010202" d="M893.994,242.666c-38.021-0.001-43.986,36.178-43.959,70.065c0.018,16.961,0.002,338.195,0,381.87
		c0,0,0,0.224,0,0.644c0,2.777,0,4.262,0,4.262h0.002c0,3.599,0.002,8.928,0.004,15.094H684.063v-61.672H584.85V540.306h-32.178
		H435.144v58.991h-180.11v348.588h164.907v-96.531h183.678v96.531h163.568v-99.213h83.123v-69.42
		c1.51,29.986,10.057,58.287,43.684,58.287c34.938,0,41.523-36.18,41.523-62.358c0-10.554,0-59.851,0-75.675c0-3.09,0-4.903,0-4.903
		c0-44.541,0-377.811,0-389.578C935.518,278.842,928.932,242.666,893.994,242.666z"/>
</g>
</svg>
