<?xml version="1.0" encoding="utf-8"?>
<!-- Generator: Adobe Illustrator 16.0.0, SVG Export Plug-In . SVG Version: 6.00 Build 0)  -->
<!DOCTYPE svg PUBLIC "-//W3C//DTD SVG 1.1//EN" "http://www.w3.org/Graphics/SVG/1.1/DTD/svg11.dtd">
<svg version="1.1" id="Calque_1" xmlns="http://www.w3.org/2000/svg" xmlns:xlink="http://www.w3.org/1999/xlink" x="0px" y="0px"
	 width="1190.551px" height="1190.551px" viewBox="0 0 1190.551 1190.551" enable-background="new 0 0 1190.551 1190.551"
	 xml:space="preserve">
<path fill="#010202" d="M493.062,70.067C493.091,36.178,487.124,0,449.104,0c-34.938,0-41.524,36.18-41.524,62.359
	c0,3.513,0,11.329,0,20.765h-99.213V0H174.293v166.249h-61.672v99.212H0v149.706h58.992v180.098
	C39.923,591.43,20.198,589.408,0,589.408v595.279c164.383,0,297.641-133.257,297.641-297.639
	c0-144.159-102.491-264.372-238.579-291.771H407.58v-62.763c0,26.182,6.586,62.358,41.524,62.358
	c38.021,0.001,43.987-36.177,43.958-70.064c-0.017-16.961-0.002-338.195,0-381.87c0,0,0-0.223,0-0.644c0-2.777,0-4.262,0-4.262
	h-0.001C493.057,124.208,493.049,84.95,493.062,70.067z M407.58,430.371h-96.532V246.692h96.532
	C407.58,304.031,407.58,373.982,407.58,430.371z"/>
</svg>
