<?xml version="1.0" encoding="utf-8"?>
<!-- Generator: Adobe Illustrator 16.0.0, SVG Export Plug-In . SVG Version: 6.00 Build 0)  -->
<!DOCTYPE svg PUBLIC "-//W3C//DTD SVG 1.1//EN" "http://www.w3.org/Graphics/SVG/1.1/DTD/svg11.dtd">
<svg version="1.1" id="Calque_1" xmlns="http://www.w3.org/2000/svg" xmlns:xlink="http://www.w3.org/1999/xlink" x="0px" y="0px"
	 width="1190.551px" height="1190.551px" viewBox="0 0 1190.551 1190.551" enable-background="new 0 0 1190.551 1190.551"
	 xml:space="preserve">
<g>
	<path fill="#010202" d="M297.64,297.64C297.64,133.258,164.382,0,0,0v595.279C164.383,595.279,297.64,462.022,297.64,297.64z"/>
	<path fill="#010202" d="M429.029,710.58v-61.672h-99.212v-111.38c1.64,29.635,10.362,57.346,43.638,57.346
		c34.938,0,41.523-36.179,41.523-62.358c0-10.554,0-59.85,0-75.675c0-3.09,0-4.903,0-4.903c0-44.541,0-377.811,0-389.578
		C414.978,36.177,408.392,0,373.455,0c-38.021-0.001-43.987,36.178-43.958,70.065c0.017,16.961,0.002,338.195,0,381.87
		c0,0,0,0.223,0,0.643c0,2.778,0,4.262,0,4.262h0.001c0.004,13.826,0.013,53.084-0.001,67.968c-0.003,3.816,0.076,7.66,0.262,11.479
		H180.111v58.992H0v348.588h164.907v-96.531h183.679v96.531h163.568v-99.213h83.124V710.58H429.029z"/>
</g>
</svg>
