<?xml version="1.0" encoding="utf-8"?>
<!-- Generator: Adobe Illustrator 16.0.0, SVG Export Plug-In . SVG Version: 6.00 Build 0)  -->
<!DOCTYPE svg PUBLIC "-//W3C//DTD SVG 1.1//EN" "http://www.w3.org/Graphics/SVG/1.1/DTD/svg11.dtd">
<svg version="1.1" id="Calque_1" xmlns="http://www.w3.org/2000/svg" xmlns:xlink="http://www.w3.org/1999/xlink" x="0px" y="0px"
	 width="1190.551px" height="1190.551px" viewBox="0 0 1190.551 1190.551" enable-background="new 0 0 1190.551 1190.551"
	 xml:space="preserve">
<path fill="#010202" d="M841.806,72.999c0.029-33.889-5.938-70.067-43.958-70.067c-34.938,0-41.523,36.18-41.523,62.359
	c0,3.513,0,11.329,0,20.765h-99.213V2.932H523.038v166.249h-61.672v99.212H348.745v149.706h58.992v180.099
	c-19.069-3.835-38.795-5.857-58.992-5.857v595.279c164.383,0,297.64-133.258,297.64-297.64
	c0-144.159-102.491-264.372-238.579-291.771h348.518v-62.763c0,26.182,6.586,62.358,41.523,62.358
	c38.021,0.001,43.987-36.177,43.958-70.064c-0.017-16.961-0.002-338.195,0-381.87c0,0,0-0.223,0-0.644c0-2.777,0-4.262,0-4.262
	h-0.001C841.801,127.14,841.793,87.882,841.806,72.999z M756.324,433.303h-96.532V249.624h96.532
	C756.324,306.963,756.324,376.914,756.324,433.303z"/>
</svg>
