<?xml version="1.0" encoding="utf-8"?>
<!-- Generator: Adobe Illustrator 16.0.0, SVG Export Plug-In . SVG Version: 6.00 Build 0)  -->
<!DOCTYPE svg PUBLIC "-//W3C//DTD SVG 1.1//EN" "http://www.w3.org/Graphics/SVG/1.1/DTD/svg11.dtd">
<svg version="1.1" id="Calque_1" xmlns="http://www.w3.org/2000/svg" xmlns:xlink="http://www.w3.org/1999/xlink" x="0px" y="0px"
	 width="1190.551px" height="1190.551px" viewBox="0 0 1190.551 1190.551" enable-background="new 0 0 1190.551 1190.551"
	 xml:space="preserve">
<path fill="#010202" d="M451.538,0c-38.021-0.001-43.987,36.178-43.958,70.065c0.018,16.961,0.002,338.195,0,381.87
	c0,0,0,0.223,0,0.643c0,2.778,0,4.262,0,4.262h0.001c0.004,13.826,0.014,53.084-0.001,67.968c-0.003,4.165,0.085,8.363,0.311,12.525
	c-65.261,0.094-125.587,21.204-174.604,56.907v-165.21h61.672v-99.212H407.58V180.111h-58.992V0H0v164.907h96.532v183.679H0v163.568
	h99.213v83.124h132.65c-73.491,54.196-121.174,141.368-121.174,239.688c0,164.382,133.258,297.64,297.64,297.64V543.39
	c2.48,27.325,12.142,51.484,43.209,51.484c34.938,0,41.524-36.179,41.524-62.358c0-10.554,0-59.85,0-75.675c0-3.09,0-4.903,0-4.903
	c0-44.541,0-377.811,0-389.578C493.062,36.177,486.476,0,451.538,0z"/>
</svg>
