<?xml version="1.0" encoding="utf-8"?>
<!-- Generator: Adobe Illustrator 16.0.0, SVG Export Plug-In . SVG Version: 6.00 Build 0)  -->
<!DOCTYPE svg PUBLIC "-//W3C//DTD SVG 1.1//EN" "http://www.w3.org/Graphics/SVG/1.1/DTD/svg11.dtd">
<svg version="1.1" id="Calque_1" xmlns="http://www.w3.org/2000/svg" xmlns:xlink="http://www.w3.org/1999/xlink" x="0px" y="0px"
	 width="1190.551px" height="1190.551px" viewBox="0 0 1190.551 1190.551" enable-background="new 0 0 1190.551 1190.551"
	 xml:space="preserve">
<path fill="#010202" d="M830.151,902.929h62.764c0-146.858-106.363-268.862-246.256-293.208h163.131v-99.212h83.125V376.434h-166.25
	v-61.672h-99.211V202.141H477.747v58.992h-180.11v348.587h164.907v-96.532h183.679v96.459c-16.557-2.855-33.574-4.359-50.946-4.359
	c-164.383-0.001-297.641,133.257-297.641,297.64h62.358c-26.182,0-62.358,6.586-62.358,41.522
	c-0.001,38.021,36.178,43.987,70.064,43.958c16.961-0.017,338.196-0.002,381.87,0c0,0,0.223,0,0.643,0c2.779,0,4.264,0,4.264,0
	v-0.001c13.826-0.004,53.084-0.013,67.967,0.001c33.889,0.028,70.066-5.938,70.066-43.958
	C892.51,909.515,856.33,902.929,830.151,902.929z"/>
</svg>
