<?xml version="1.0" encoding="utf-8"?>
<!-- Generator: Adobe Illustrator 16.0.0, SVG Export Plug-In . SVG Version: 6.00 Build 0)  -->
<!DOCTYPE svg PUBLIC "-//W3C//DTD SVG 1.1//EN" "http://www.w3.org/Graphics/SVG/1.1/DTD/svg11.dtd">
<svg version="1.1" id="Calque_1" xmlns="http://www.w3.org/2000/svg" xmlns:xlink="http://www.w3.org/1999/xlink" x="0px" y="0px"
	 width="1190.551px" height="1190.551px" viewBox="0 0 1190.551 1190.551" enable-background="new 0 0 1190.551 1190.551"
	 xml:space="preserve">
<g>
	<path fill="#010202" d="M595.279,0H0C0,164.383,133.257,297.64,297.639,297.64C462.021,297.64,595.279,164.383,595.279,0z"/>
	<path fill="#010202" d="M638.96,0c-38.021-0.001-43.986,36.178-43.958,70.065c0.018,16.961,0.002,338.195,0,381.87
		c0,0,0,0.223,0,0.643c0,2.778,0,4.262,0,4.262h0.001c0.001,3.599,0.002,8.928,0.004,15.094H429.029v-61.672h-99.212V297.64h-32.178
		H180.111v58.992H0V705.22h164.907v-96.532h183.679v96.532h163.568v-99.213h83.124v-69.42c1.509,29.986,10.056,58.286,43.682,58.286
		c34.938,0,41.524-36.179,41.524-62.358c0-10.554,0-59.85,0-75.675c0-3.09,0-4.903,0-4.903c0-44.541,0-377.811,0-389.578
		C680.484,36.177,673.898,0,638.96,0z"/>
</g>
</svg>
