<?xml version="1.0" encoding="utf-8"?>
<!-- Generator: Adobe Illustrator 16.0.0, SVG Export Plug-In . SVG Version: 6.00 Build 0)  -->
<!DOCTYPE svg PUBLIC "-//W3C//DTD SVG 1.1//EN" "http://www.w3.org/Graphics/SVG/1.1/DTD/svg11.dtd">
<svg version="1.1" id="Calque_1" xmlns="http://www.w3.org/2000/svg" xmlns:xlink="http://www.w3.org/1999/xlink" x="0px" y="0px"
	 width="1190.551px" height="1190.551px" viewBox="0 0 1190.551 1190.551" enable-background="new 0 0 1190.551 1190.551"
	 xml:space="preserve">
<path fill="#010202" d="M809.79,490.509v-99.213h83.124V257.222H726.665V195.55h-99.212V82.929H477.747v58.992h-180.11v348.588
	h164.77c-69.309,54.494-113.824,139.104-113.824,234.112c0,161.66,128.886,293.215,289.506,297.525
	c-86.815-0.002-175.959-0.008-197.513-0.008c0,0-0.224,0-0.644,0c-2.777,0-4.262,0-4.262,0l0,0c-13.826,0.006-53.084,0.014-67.968,0
	c-33.888-0.027-70.065,5.939-70.065,43.959c0,34.938,36.18,41.523,62.358,41.523c10.554,0,59.85,0,75.675,0c3.09,0,4.903,0,4.903,0
	c44.541,0,377.81,0,389.578,0c26.182,0,62.358-6.586,62.358-41.523c0.002-38.021-36.178-43.986-70.064-43.959
	c-8.329,0.01-90.041,0.01-176.224,0.008V490.509H809.79z M462.544,490.402v-96.425h183.679v33.005
	C576.909,426.981,513.132,450.674,462.544,490.402z"/>
</svg>
