<?xml version="1.0" encoding="utf-8"?>
<!-- Generator: Adobe Illustrator 16.0.0, SVG Export Plug-In . SVG Version: 6.00 Build 0)  -->
<!DOCTYPE svg PUBLIC "-//W3C//DTD SVG 1.1//EN" "http://www.w3.org/Graphics/SVG/1.1/DTD/svg11.dtd">
<svg version="1.1" id="Calque_1" xmlns="http://www.w3.org/2000/svg" xmlns:xlink="http://www.w3.org/1999/xlink" x="0px" y="0px"
	 width="1190.551px" height="1190.551px" viewBox="0 0 1190.551 1190.551" enable-background="new 0 0 1190.551 1190.551"
	 xml:space="preserve">
<g>
	<path fill="#010202" d="M595.277,420.982c0-164.382-133.258-297.64-297.64-297.64v595.279
		C462.02,718.621,595.277,585.364,595.277,420.982z"/>
	<path fill="#010202" d="M726.665,833.922V772.25h-99.212V660.869c1.641,29.636,10.362,57.347,43.639,57.347
		c34.938,0,41.522-36.179,41.522-62.358c0-10.554,0-59.85,0-75.675c0-3.09,0-4.903,0-4.903c0-44.541,0-377.811,0-389.578
		c0-26.183-6.586-62.36-41.522-62.36c-38.021-0.001-43.987,36.178-43.958,70.065c0.017,16.961,0.002,338.195,0,381.87
		c0,0,0,0.223,0,0.643c0,2.778,0,4.262,0,4.262h0.001c0.004,13.826,0.013,53.084-0.001,67.969
		c-0.003,3.815,0.075,7.659,0.262,11.479H477.747v58.992h-180.11v348.588h164.907v-96.531h183.679v96.531H809.79v-99.213h83.124
		V833.922H726.665z"/>
</g>
</svg>
