<?xml version="1.0" encoding="utf-8"?>
<!-- Generator: Adobe Illustrator 16.0.0, SVG Export Plug-In . SVG Version: 6.00 Build 0)  -->
<!DOCTYPE svg PUBLIC "-//W3C//DTD SVG 1.1//EN" "http://www.w3.org/Graphics/SVG/1.1/DTD/svg11.dtd">
<svg version="1.1" id="Calque_1" xmlns="http://www.w3.org/2000/svg" xmlns:xlink="http://www.w3.org/1999/xlink" x="0px" y="0px"
	 width="1190.551px" height="1190.551px" viewBox="0 0 1190.551 1190.551" enable-background="new 0 0 1190.551 1190.551"
	 xml:space="preserve">
<path fill="#010202" d="M512.154,407.58v-99.213h83.124V174.293H429.029v-61.672h-99.212V0H180.111v58.992H0V407.58H164.77
	C95.461,462.074,50.946,546.684,50.946,641.691c0,161.661,128.885,293.216,289.505,297.526
	c-86.815-0.002-175.959-0.007-197.512-0.008c0,0-0.224,0-0.644,0c-2.777,0-4.262,0-4.262,0v0.001
	c-13.826,0.005-53.084,0.014-67.967-0.001C36.178,939.182,0,945.148,0,983.168c0,34.938,36.18,41.524,62.359,41.524
	c10.553,0,59.849,0,75.674,0c3.09,0,4.904,0,4.904,0c44.541,0,377.81,0,389.578,0c26.182,0,62.358-6.586,62.358-41.524
	c0.002-38.021-36.177-43.986-70.064-43.958c-8.329,0.009-90.041,0.01-176.224,0.008V407.58H512.154z M164.907,407.473v-96.425
	h183.679v33.005C279.273,344.052,215.495,367.745,164.907,407.473z"/>
</svg>
