<?xml version="1.0" encoding="utf-8"?>
<!-- Generator: Adobe Illustrator 16.0.0, SVG Export Plug-In . SVG Version: 6.00 Build 0)  -->
<!DOCTYPE svg PUBLIC "-//W3C//DTD SVG 1.1//EN" "http://www.w3.org/Graphics/SVG/1.1/DTD/svg11.dtd">
<svg version="1.1" id="Calque_1" xmlns="http://www.w3.org/2000/svg" xmlns:xlink="http://www.w3.org/1999/xlink" x="0px" y="0px"
	 width="1190.551px" height="1190.551px" viewBox="0 0 1190.551 1190.551" enable-background="new 0 0 1190.551 1190.551"
	 xml:space="preserve">
<path fill="#010202" d="M822.446,998.916c-9.677,0.01-118.406,0.01-218.119,0.006c160.193-4.785,288.588-136.139,288.588-297.49
	H705.217V536.525h-96.532V352.846h96.532V189.278h-99.214v-83.124H471.93v166.249h-61.672v99.212H297.637v149.706h58.992v180.111
	h-58.992c0,161.35,128.388,292.697,288.576,297.49c-67.933-0.002-128.4-0.006-145.637-0.006c0,0-0.224,0-0.644,0
	c-2.777,0-4.262,0-4.262,0l0,0c-13.826,0.004-53.084,0.014-67.968,0c-33.889-0.027-70.066,5.938-70.066,43.957
	c0,34.939,36.18,41.523,62.358,41.523c10.554,0,59.85,0,75.675,0c3.09,0,4.903,0,4.903,0c44.541,0,377.81,0,389.578,0
	c26.182,0,62.358-6.586,62.358-41.523C892.512,1004.854,856.333,998.887,822.446,998.916z"/>
</svg>
