<?xml version="1.0" encoding="utf-8"?>
<!-- Generator: Adobe Illustrator 16.0.0, SVG Export Plug-In . SVG Version: 6.00 Build 0)  -->
<!DOCTYPE svg PUBLIC "-//W3C//DTD SVG 1.1//EN" "http://www.w3.org/Graphics/SVG/1.1/DTD/svg11.dtd">
<svg version="1.1" id="Calque_1" xmlns="http://www.w3.org/2000/svg" xmlns:xlink="http://www.w3.org/1999/xlink" x="0px" y="0px"
	 width="1190.551px" height="1190.551px" viewBox="0 0 1190.551 1190.551" enable-background="new 0 0 1190.551 1190.551"
	 xml:space="preserve">
<path fill="#010202" d="M524.809,892.762c-9.677,0.01-118.406,0.009-218.119,0.006c160.193-4.786,288.588-136.138,288.588-297.49
	H407.58V430.371h-96.532V246.692h96.532V83.124h-99.213V0H174.293v166.249h-61.672v99.212H0v149.706h58.992v180.111H0
	c0,161.349,128.388,292.697,288.576,297.49c-67.932-0.002-128.4-0.005-145.636-0.006c0,0-0.224,0-0.644,0c-2.777,0-4.262,0-4.262,0
	v0.001c-13.826,0.004-53.084,0.013-67.967-0.001C36.178,892.734,0,898.7,0,936.72c0,34.938,36.18,41.523,62.359,41.523
	c10.553,0,59.849,0,75.674,0c3.09,0,4.904,0,4.904,0c44.541,0,377.81,0,389.578,0c26.182,0,62.358-6.586,62.358-41.523
	C594.876,898.699,558.697,892.733,524.809,892.762z"/>
</svg>
