<?xml version="1.0" encoding="utf-8"?>
<!-- Generator: Adobe Illustrator 16.0.0, SVG Export Plug-In . SVG Version: 6.00 Build 0)  -->
<!DOCTYPE svg PUBLIC "-//W3C//DTD SVG 1.1//EN" "http://www.w3.org/Graphics/SVG/1.1/DTD/svg11.dtd">
<svg version="1.1" id="Calque_1" xmlns="http://www.w3.org/2000/svg" xmlns:xlink="http://www.w3.org/1999/xlink" x="0px" y="0px"
	 width="1190.551px" height="1190.551px" viewBox="0 0 1190.551 1190.551" enable-background="new 0 0 1190.551 1190.551"
	 xml:space="preserve">
<path fill="#010202" d="M524.809,885.515c-16.961,0.017-338.195,0.002-381.87,0H524.809h70.47
	c0-164.382-133.257-297.641-297.639-297.641c-22.099,0-43.628,2.429-64.354,6.998V429.029h61.672v-99.212H407.58V180.111h-58.992V0
	H0v164.907h96.532v183.679H0v163.568h99.213v83.124h132.212C98.915,625.384,0,743.893,0,885.515h70.067h67.967v0.001
	c-13.826,0.004-53.084,0.013-67.967-0.001C36.178,885.487,0,891.453,0,929.473c0,34.938,36.18,41.524,62.359,41.524
	c10.553,0,59.849,0,75.674,0c3.09,0,4.904,0,4.904,0c44.541,0,377.81,0,389.578,0c26.182,0,62.358-6.587,62.358-41.524
	C594.876,891.452,558.697,885.486,524.809,885.515z"/>
</svg>
