<?xml version="1.0" encoding="utf-8"?>
<!-- Generator: Adobe Illustrator 16.0.0, SVG Export Plug-In . SVG Version: 6.00 Build 0)  -->
<!DOCTYPE svg PUBLIC "-//W3C//DTD SVG 1.1//EN" "http://www.w3.org/Graphics/SVG/1.1/DTD/svg11.dtd">
<svg version="1.1" id="Calque_1" xmlns="http://www.w3.org/2000/svg" xmlns:xlink="http://www.w3.org/1999/xlink" x="0px" y="0px"
	 width="1190.551px" height="1190.551px" viewBox="0 0 1190.551 1190.551" enable-background="new 0 0 1190.551 1190.551"
	 xml:space="preserve">
<path fill="#010202" d="M822.446,995.291c-16.961,0.018-338.196,0.002-381.871,0H822.446h70.469
	c0-164.381-133.256-297.641-297.638-297.641c-22.099,0-43.628,2.43-64.354,6.998V538.806h61.672v-99.212h112.623V289.888h-58.992
	V109.777H297.636v164.907h96.532v183.679h-96.532v163.568h99.213v83.124h132.212C396.552,735.16,297.636,853.67,297.636,995.291
	h70.066h67.968v0.002c-13.826,0.004-53.084,0.014-67.968-0.002c-33.889-0.027-70.066,5.939-70.066,43.959
	c0,34.938,36.18,41.523,62.358,41.523c10.554,0,59.85,0,75.675,0c3.09,0,4.903,0,4.903,0c44.541,0,377.81,0,389.578,0
	c26.182,0,62.359-6.586,62.359-41.523C892.512,1001.229,856.332,995.264,822.446,995.291z"/>
</svg>
