<?xml version="1.0" encoding="utf-8"?>
<!-- Generator: Adobe Illustrator 16.0.0, SVG Export Plug-In . SVG Version: 6.00 Build 0)  -->
<!DOCTYPE svg PUBLIC "-//W3C//DTD SVG 1.1//EN" "http://www.w3.org/Graphics/SVG/1.1/DTD/svg11.dtd">
<svg version="1.1" id="Calque_1" xmlns="http://www.w3.org/2000/svg" xmlns:xlink="http://www.w3.org/1999/xlink" x="0px" y="0px"
	 width="1190.551px" height="1190.551px" viewBox="0 0 1190.551 1190.551" enable-background="new 0 0 1190.551 1190.551"
	 xml:space="preserve">
<path fill="#010202" d="M800.281,28.973c-38.02-0.001-43.986,36.178-43.957,70.065c0.018,16.961,0.002,338.195,0,381.87
	c0,0,0,0.223,0,0.643c0,2.778,0,4.262,0,4.262h0.002c0.004,13.826,0.014,53.084-0.002,67.968c-0.002,4.165,0.086,8.363,0.311,12.525
	c-65.26,0.094-125.586,21.204-174.603,56.907v-165.21h61.671v-99.212h112.621V209.083h-58.992V28.973H348.745V193.88h96.532v183.679
	h-96.532v163.568h99.213v83.124h132.649c-73.49,54.196-121.174,141.369-121.174,239.688c0,164.382,133.258,297.64,297.641,297.64
	V572.363c2.479,27.325,12.141,51.484,43.207,51.484c34.939,0,41.525-36.179,41.525-62.358c0-10.554,0-59.85,0-75.675
	c0-3.09,0-4.903,0-4.903c0-44.541,0-377.811,0-389.578C841.807,65.149,835.221,28.973,800.281,28.973z"/>
</svg>
