<?xml version="1.0" encoding="utf-8"?>
<!-- Generator: Adobe Illustrator 16.0.0, SVG Export Plug-In . SVG Version: 6.00 Build 0)  -->
<!DOCTYPE svg PUBLIC "-//W3C//DTD SVG 1.1//EN" "http://www.w3.org/Graphics/SVG/1.1/DTD/svg11.dtd">
<svg version="1.1" id="Calque_1" xmlns="http://www.w3.org/2000/svg" xmlns:xlink="http://www.w3.org/1999/xlink" x="0px" y="0px"
	 width="1190.551px" height="1190.551px" viewBox="0 0 1190.551 1190.551" enable-background="new 0 0 1190.551 1190.551"
	 xml:space="preserve">
<path fill="#010202" d="M532.515,700.788h62.764c0-146.859-106.364-268.862-246.256-293.208h163.131v-99.213h83.124V174.293H429.029
	v-61.672h-99.212V0H180.111v58.992H0V407.58h164.907v-96.532h183.679v96.46c-16.556-2.856-33.574-4.36-50.945-4.36
	C133.258,403.147,0,536.405,0,700.788h62.359C36.177,700.788,0,707.374,0,742.311c-0.001,38.021,36.178,43.987,70.065,43.958
	c16.961-0.017,338.195-0.002,381.87,0c0,0,0.223,0,0.643,0c2.778,0,4.263,0,4.263,0v-0.001c13.826-0.004,53.084-0.013,67.967,0.001
	c33.889,0.028,70.066-5.938,70.066-43.958C594.874,707.374,558.695,700.788,532.515,700.788z"/>
</svg>
