<?xml version="1.0" encoding="utf-8"?>
<!-- Generator: Adobe Illustrator 16.0.0, SVG Export Plug-In . SVG Version: 6.00 Build 0)  -->
<!DOCTYPE svg PUBLIC "-//W3C//DTD SVG 1.1//EN" "http://www.w3.org/Graphics/SVG/1.1/DTD/svg11.dtd">
<svg version="1.1" id="Calque_1" xmlns="http://www.w3.org/2000/svg" xmlns:xlink="http://www.w3.org/1999/xlink" x="0px" y="0px"
	 width="1190.551px" height="1190.551px" viewBox="0 0 1190.551 1190.551" enable-background="new 0 0 1190.551 1190.551"
	 xml:space="preserve">
<path fill="#010202" d="M946.885,297.636c-38.021-0.001-43.985,36.178-43.958,70.065c0.019,16.961,0.002,338.195,0,381.87v-381.87
	v-70.065c-146.857,0-268.86,106.364-293.206,246.257V380.76h-99.213v-83.124H376.434v166.249h-61.672v99.212H202.141v149.706h58.992
	v180.111h348.588V728.007h-96.532V544.328h96.46c-2.856,16.556-4.36,33.575-4.36,50.947c0,164.381,133.258,297.64,297.64,297.64
	v-70.472v-67.968h0.001c0.005,13.826,0.015,53.084-0.001,67.968c-0.026,33.889,5.938,70.066,43.958,70.066
	c34.938,0,41.524-36.18,41.524-62.357c0-10.555,0-59.851,0-75.676c0-3.09,0-4.902,0-4.902c0-44.541,0-377.812,0-389.579
	C988.409,333.812,981.823,297.636,946.885,297.636z"/>
</svg>
