<?xml version="1.0" encoding="utf-8"?>
<!-- Generator: Adobe Illustrator 16.0.0, SVG Export Plug-In . SVG Version: 6.00 Build 0)  -->
<!DOCTYPE svg PUBLIC "-//W3C//DTD SVG 1.1//EN" "http://www.w3.org/Graphics/SVG/1.1/DTD/svg11.dtd">
<svg version="1.1" id="Calque_1" xmlns="http://www.w3.org/2000/svg" xmlns:xlink="http://www.w3.org/1999/xlink" x="0px" y="0px"
	 width="1190.551px" height="1190.551px" viewBox="0 0 1190.551 1190.551" enable-background="new 0 0 1190.551 1190.551"
	 xml:space="preserve">
<path fill="#010202" d="M610.551,901.001v55.712h-215.65V679.958h312.333v-70.472v-67.969h0.001
	c0.004,13.826,0.014,53.084-0.001,67.969c-0.027,33.889,5.938,70.065,43.956,70.065c34.938,0,41.524-36.181,41.524-62.358
	c0-10.554,0-59.85,0-75.675c0-3.09,0-4.903,0-4.903c0-44.541,0-377.811,0-389.578c0-26.182-6.586-62.358-41.524-62.358
	c-38.02-0.003-43.984,36.175-43.956,70.063c0.018,16.961,0.002,338.195,0,381.87V515.05h-96.532V331.371h96.532V167.802H608.02
	V84.678H473.947v166.249h-61.672v99.213H299.654v149.706h58.992v180.112h-58.992v425.915h591.244V901.001H610.551z"/>
</svg>
