<?xml version="1.0" encoding="utf-8"?>
<!-- Generator: Adobe Illustrator 16.0.0, SVG Export Plug-In . SVG Version: 6.00 Build 0)  -->
<!DOCTYPE svg PUBLIC "-//W3C//DTD SVG 1.1//EN" "http://www.w3.org/Graphics/SVG/1.1/DTD/svg11.dtd">
<svg version="1.1" id="Calque_1" xmlns="http://www.w3.org/2000/svg" xmlns:xlink="http://www.w3.org/1999/xlink" x="0px" y="0px"
	 width="1190.551px" height="1190.551px" viewBox="0 0 1190.551 1190.551" enable-background="new 0 0 1190.551 1190.551"
	 xml:space="preserve">
<g>
	<polygon fill="#010202" points="905.295,431.206 880.537,431.206 880.537,82.618 715.627,82.618 715.627,179.149 531.95,179.149 
		531.95,82.618 368.382,82.618 368.382,181.831 285.258,181.831 285.258,315.905 451.507,315.905 451.507,377.577 550.719,377.577 
		550.719,490.198 700.426,490.198 700.426,711.553 756.139,711.553 756.139,927.205 479.382,927.205 479.382,1022.453 
		810.067,1022.453 905.295,1022.453 	"/>
	<path fill="#010202" d="M428.196,1022.453c0,0-0.224,0-0.644,0c-2.777,0-4.262,0-4.262,0l0,0c-13.826,0.004-53.084,0.014-67.969,0
		c-33.889-0.029-70.065,5.938-70.065,43.957c0,34.939,36.18,41.523,62.357,41.523c10.555,0,59.851,0,75.676,0
		c3.09,0,4.902,0,4.902,0c44.541,0,377.81,0,389.578,0c26.182,0,62.357-6.586,62.357-41.523
		c0.006-38.02-36.174-43.986-70.062-43.957C793.106,1022.469,471.871,1022.455,428.196,1022.453z"/>
</g>
</svg>
