<?xml version="1.0" encoding="utf-8"?>
<!-- Generator: Adobe Illustrator 16.0.0, SVG Export Plug-In . SVG Version: 6.00 Build 0)  -->
<!DOCTYPE svg PUBLIC "-//W3C//DTD SVG 1.1//EN" "http://www.w3.org/Graphics/SVG/1.1/DTD/svg11.dtd">
<svg version="1.1" id="Calque_1" xmlns="http://www.w3.org/2000/svg" xmlns:xlink="http://www.w3.org/1999/xlink" x="0px" y="0px"
	 width="1190.551px" height="1190.551px" viewBox="0 0 1190.551 1190.551" enable-background="new 0 0 1190.551 1190.551"
	 xml:space="preserve">
<path fill="#010202" d="M800.281,2.013c-38.02-0.003-43.984,36.175-43.956,70.063c0.018,16.961,0.002,338.195,0,381.87v-21.563
	h-96.532V248.705h96.532V85.136h-99.214V2.012H523.038v166.249h-61.672v99.213H348.745V417.18h58.992v180.113h-58.992v591.246
	h204.871v-280.35h-55.712v-215.65h276.754v-95.246h-18.333V526.82v-67.968h0.001c0.004,13.826,0.014,53.084-0.001,67.968
	c-0.027,33.889,5.938,70.066,43.956,70.066c34.938,0,41.524-36.181,41.524-62.358c0-10.554,0-59.85,0-75.675c0-3.09,0-4.903,0-4.903
	c0-44.541,0-377.811,0-389.578C841.807,38.19,835.221,2.013,800.281,2.013z"/>
</svg>
