<?xml version="1.0" encoding="utf-8"?>
<!-- Generator: Adobe Illustrator 16.0.0, SVG Export Plug-In . SVG Version: 6.00 Build 0)  -->
<!DOCTYPE svg PUBLIC "-//W3C//DTD SVG 1.1//EN" "http://www.w3.org/Graphics/SVG/1.1/DTD/svg11.dtd">
<svg version="1.1" id="Calque_1" xmlns="http://www.w3.org/2000/svg" xmlns:xlink="http://www.w3.org/1999/xlink" x="0px" y="0px"
	 width="1190.551px" height="1190.551px" viewBox="0 0 1190.551 1190.551" enable-background="new 0 0 1190.551 1190.551"
	 xml:space="preserve">
<path fill="#010202" d="M415.168,407.58v-58.992H595.28V0H430.37v96.531H246.693V0H83.124v99.213H0v134.074v425.914h70.065h67.968
	v0.001c-13.826,0.004-53.084,0.015-67.968-0.001c-33.889-0.026-70.066,5.938-70.066,43.958c0,34.938,36.18,41.524,62.358,41.524
	c10.554,0,59.85,0,75.675,0c3.09,0,4.903,0,4.903,0c44.541,0,377.81,0,389.578,0c26.182,0,62.357-6.586,62.357-41.524
	c0.006-38.02-36.173-43.984-70.062-43.958c-16.961,0.019-338.195,0.002-381.87,0h381.87h66.437v-204.87H310.898v55.712H95.247
	V233.287h71.002v61.672h99.213V407.58H415.168z"/>
</svg>
