<?xml version="1.0" encoding="utf-8"?>
<!-- Generator: Adobe Illustrator 16.0.0, SVG Export Plug-In . SVG Version: 6.00 Build 0)  -->
<!DOCTYPE svg PUBLIC "-//W3C//DTD SVG 1.1//EN" "http://www.w3.org/Graphics/SVG/1.1/DTD/svg11.dtd">
<svg version="1.1" id="Calque_1" xmlns="http://www.w3.org/2000/svg" xmlns:xlink="http://www.w3.org/1999/xlink" x="0px" y="0px"
	 width="1190.551px" height="1190.551px" viewBox="0 0 1190.551 1190.551" enable-background="new 0 0 1190.551 1190.551"
	 xml:space="preserve">
<path fill="#010202" d="M524.809,1021.195c-16.961,0.019-338.195,0.002-381.87,0H524.809h66.437V816.323H310.898v55.712H95.247
	V595.28H407.58V430.371h-96.532V246.693h96.532V83.124h-99.213V0H174.293v166.249h-61.672v99.213H0v149.706h58.992V595.28H0v425.915
	h70.065h67.968v0.001c-13.826,0.004-53.084,0.015-67.968-0.001c-33.889-0.026-70.066,5.938-70.066,43.958
	c0,34.938,36.18,41.524,62.358,41.524c10.554,0,59.85,0,75.675,0c3.09,0,4.903,0,4.903,0c44.541,0,377.81,0,389.578,0
	c26.182,0,62.357-6.586,62.357-41.524C594.877,1027.133,558.698,1021.168,524.809,1021.195z"/>
</svg>
