<?xml version="1.0" encoding="utf-8"?>
<!-- Generator: Adobe Illustrator 16.0.0, SVG Export Plug-In . SVG Version: 6.00 Build 0)  -->
<!DOCTYPE svg PUBLIC "-//W3C//DTD SVG 1.1//EN" "http://www.w3.org/Graphics/SVG/1.1/DTD/svg11.dtd">
<svg version="1.1" id="Calque_1" xmlns="http://www.w3.org/2000/svg" xmlns:xlink="http://www.w3.org/1999/xlink" x="0px" y="0px"
	 width="1190.551px" height="1190.551px" viewBox="0 0 1190.551 1190.551" enable-background="new 0 0 1190.551 1190.551"
	 xml:space="preserve">
<path fill="#010202" d="M809.791,543.368v-99.213h83.125V310.081h-166.25v-61.672h-99.213V135.788H477.748v58.991H297.636v348.589
	v425.914h70.064h67.969v0.002c-13.826,0.006-53.084,0.014-67.969-0.002c-33.889-0.025-70.065,5.938-70.065,43.959
	c0,34.938,36.18,41.523,62.357,41.523c10.555,0,59.851,0,75.676,0c3.09,0,4.902,0,4.902,0c44.541,0,377.81,0,389.578,0
	c26.182,0,62.357-6.586,62.357-41.523c0.006-38.021-36.174-43.986-70.062-43.959c-16.961,0.02-338.195,0.002-381.87,0h381.87h66.438
	V764.41H608.533v55.715h-215.65V543.368h69.662v-96.532h183.677v96.532H809.791z"/>
</svg>
