<?xml version="1.0" encoding="utf-8"?>
<!-- Generator: Adobe Illustrator 16.0.0, SVG Export Plug-In . SVG Version: 6.00 Build 0)  -->
<!DOCTYPE svg PUBLIC "-//W3C//DTD SVG 1.1//EN" "http://www.w3.org/Graphics/SVG/1.1/DTD/svg11.dtd">
<svg version="1.1" id="Calque_1" xmlns="http://www.w3.org/2000/svg" xmlns:xlink="http://www.w3.org/1999/xlink" x="0px" y="0px"
	 width="1190.551px" height="1190.551px" viewBox="0 0 1190.551 1190.551" enable-background="new 0 0 1190.551 1190.551"
	 xml:space="preserve">
<path fill="#010202" d="M822.651,1063.133c-16.961,0.018-338.196,0.002-381.871,0H822.651h66.436V858.26H608.739v55.713h-215.65
	V637.217h312.333V472.308h-96.533V288.63h96.533V125.061h-99.215V41.937H472.135v166.249h-61.672v99.213H297.842v149.706h58.992
	v180.112h-58.992v425.916h70.064h67.969l0,0c-13.826,0.004-53.084,0.016-67.969,0c-33.889-0.027-70.065,5.938-70.065,43.957
	c0,34.938,36.18,41.523,62.357,41.523c10.555,0,59.851,0,75.676,0c3.09,0,4.902,0,4.902,0c44.541,0,377.81,0,389.578,0
	c26.182,0,62.357-6.586,62.357-41.523C892.719,1069.07,856.539,1063.105,822.651,1063.133z"/>
</svg>
