<?xml version="1.0" encoding="utf-8"?>
<!-- Generator: Adobe Illustrator 16.0.0, SVG Export Plug-In . SVG Version: 6.00 Build 0)  -->
<!DOCTYPE svg PUBLIC "-//W3C//DTD SVG 1.1//EN" "http://www.w3.org/Graphics/SVG/1.1/DTD/svg11.dtd">
<svg version="1.1" id="Calque_1" xmlns="http://www.w3.org/2000/svg" xmlns:xlink="http://www.w3.org/1999/xlink" x="0px" y="0px"
	 width="1190.551px" height="1190.551px" viewBox="0 0 1190.551 1190.551" enable-background="new 0 0 1190.551 1190.551"
	 xml:space="preserve">
<path fill="#010202" d="M524.809,1020.994c-12.169,0.012-180.982,0.008-291.521,0.004V854.946h61.672v-99.213H407.58V606.027
	h-58.992V425.915h242.657V221.044H310.898v55.712H95.247V0H0v425.915v164.909h96.531v183.679H0v163.567h99.213v82.932
	c-11.594,0-22.676-0.002-29.147-0.008c-33.889-0.028-70.066,5.938-70.066,43.958c0,34.938,36.18,41.524,62.358,41.524
	c10.554,0,59.85,0,75.675,0c3.09,0,4.903,0,4.903,0c44.541,0,377.81,0,389.578,0c26.182,0,62.357-6.586,62.357-41.524
	C594.877,1026.934,558.698,1020.966,524.809,1020.994z"/>
</svg>
