<?xml version="1.0" encoding="utf-8"?>
<!-- Generator: Adobe Illustrator 16.0.0, SVG Export Plug-In . SVG Version: 6.00 Build 0)  -->
<!DOCTYPE svg PUBLIC "-//W3C//DTD SVG 1.1//EN" "http://www.w3.org/Graphics/SVG/1.1/DTD/svg11.dtd">
<svg version="1.1" id="Calque_1" xmlns="http://www.w3.org/2000/svg" xmlns:xlink="http://www.w3.org/1999/xlink" x="0px" y="0px"
	 width="1190.551px" height="1190.551px" viewBox="0 0 1190.551 1190.551" enable-background="new 0 0 1190.551 1190.551"
	 xml:space="preserve">
<g>
	<polygon fill="#010202" points="892.916,484.375 892.916,135.788 728.006,135.788 728.006,232.319 544.329,232.319 
		544.329,135.788 380.76,135.788 380.76,235 297.636,235 297.636,369.075 463.885,369.075 463.885,430.747 563.098,430.747 
		563.098,543.368 297.636,543.368 297.636,748.238 577.984,748.238 577.984,692.527 793.633,692.527 793.633,969.281 
		822.446,969.281 888.881,969.281 888.881,543.368 712.805,543.368 712.805,484.375 	"/>
	<path fill="#010202" d="M440.575,969.281c0,0-0.224,0-0.644,0c-2.777,0-4.262,0-4.262,0v0.002
		c-13.826,0.006-53.084,0.014-67.969-0.002c-33.889-0.025-70.065,5.938-70.065,43.959c0,34.938,36.18,41.523,62.357,41.523
		c10.555,0,59.851,0,75.676,0c3.09,0,4.902,0,4.902,0c44.541,0,377.81,0,389.578,0c26.182,0,62.357-6.586,62.357-41.523
		c0.006-38.021-36.174-43.986-70.062-43.959C805.485,969.301,484.25,969.283,440.575,969.281z"/>
</g>
</svg>
