<?xml version="1.0" encoding="utf-8"?>
<!-- Generator: Adobe Illustrator 16.0.0, SVG Export Plug-In . SVG Version: 6.00 Build 0)  -->
<!DOCTYPE svg PUBLIC "-//W3C//DTD SVG 1.1//EN" "http://www.w3.org/Graphics/SVG/1.1/DTD/svg11.dtd">
<svg version="1.1" id="Calque_1" xmlns="http://www.w3.org/2000/svg" xmlns:xlink="http://www.w3.org/1999/xlink" x="0px" y="0px"
	 width="1190.551px" height="1190.551px" viewBox="0 0 1190.551 1190.551" enable-background="new 0 0 1190.551 1190.551"
	 xml:space="preserve">
<path fill="#010202" d="M822.649,1063.031c-12.168,0.012-180.98,0.008-291.52,0.004V896.983h61.672v-99.213h112.62V648.064h-58.992
	V467.952h242.656V263.081H608.739v55.712H393.088V42.037h-95.247v425.915v164.909h96.53V816.54h-96.53v163.567h99.213v82.932
	c-11.594,0-22.676-0.002-29.147-0.008c-33.889-0.028-70.065,5.938-70.065,43.958c0,34.938,36.18,41.524,62.357,41.524
	c10.555,0,59.851,0,75.676,0c3.09,0,4.902,0,4.902,0c44.541,0,377.81,0,389.578,0c26.182,0,62.357-6.587,62.357-41.524
	C892.717,1068.971,856.537,1063.003,822.649,1063.031z"/>
</svg>
