<?xml version="1.0" encoding="utf-8"?>
<!-- Generator: Adobe Illustrator 16.0.0, SVG Export Plug-In . SVG Version: 6.00 Build 0)  -->
<!DOCTYPE svg PUBLIC "-//W3C//DTD SVG 1.1//EN" "http://www.w3.org/Graphics/SVG/1.1/DTD/svg11.dtd">
<svg version="1.1" id="Calque_1" xmlns="http://www.w3.org/2000/svg" xmlns:xlink="http://www.w3.org/1999/xlink" x="0px" y="0px"
	 width="1190.551px" height="1190.551px" viewBox="0 0 1190.551 1190.551" enable-background="new 0 0 1190.551 1190.551"
	 xml:space="preserve">
<g>
	<polygon fill="#010202" points="595.28,348.588 595.28,0 430.37,0 430.37,96.531 246.693,96.531 246.693,0 83.124,0 83.124,99.213 
		0,99.213 0,233.287 166.249,233.287 166.249,294.959 265.462,294.959 265.462,407.58 0,407.58 0,612.45 280.348,612.45 
		280.348,556.739 495.998,556.739 495.998,833.494 524.809,833.494 591.245,833.494 591.245,407.58 415.168,407.58 415.168,348.588 
			"/>
	<path fill="#010202" d="M142.939,833.494c0,0-0.224,0-0.644,0c-2.777,0-4.262,0-4.262,0v0.001
		c-13.826,0.006-53.084,0.015-67.968-0.001c-33.889-0.026-70.066,5.938-70.066,43.958c0,34.938,36.18,41.524,62.358,41.524
		c10.554,0,59.85,0,75.675,0c3.09,0,4.903,0,4.903,0c44.541,0,377.81,0,389.578,0c26.182,0,62.357-6.586,62.357-41.524
		c0.006-38.02-36.173-43.985-70.062-43.958C507.848,833.513,186.614,833.496,142.939,833.494z"/>
</g>
</svg>
