<?xml version="1.0" encoding="utf-8"?>
<!-- Generator: Adobe Illustrator 16.0.0, SVG Export Plug-In . SVG Version: 6.00 Build 0)  -->
<!DOCTYPE svg PUBLIC "-//W3C//DTD SVG 1.1//EN" "http://www.w3.org/Graphics/SVG/1.1/DTD/svg11.dtd">
<svg version="1.1" id="Calque_1" xmlns="http://www.w3.org/2000/svg" xmlns:xlink="http://www.w3.org/1999/xlink" x="0px" y="0px"
	 width="1190.551px" height="1190.551px" viewBox="0 0 1190.551 1190.551" enable-background="new 0 0 1190.551 1190.551"
	 xml:space="preserve">
<path fill="#010202" d="M310.898,816.323v55.712H95.247V595.28H407.58c0,81.164,0,153.321,0,158.686
	c0,26.182,6.586,62.357,41.523,62.357c38.02,0.003,43.987-36.174,43.958-70.062c-0.017-16.961-0.002-338.195,0-381.87
	c0,0,0-0.224,0-0.644c0-2.778,0-4.263,0-4.263h-0.001c-0.004-13.826-0.013-53.084,0.001-67.967
	c0.028-33.89-5.938-70.067-43.958-70.067c-34.938,0-41.523,36.18-41.523,62.359c0,10.553,0,59.849,0,75.674c0,3.09,0,4.904,0,4.904
	c0,9.919,0,34.166,0,65.984h-96.532V246.693h96.532V83.124h-99.213V0H174.293v166.249h-61.672v99.213H0v149.706h58.992V595.28H0
	v425.915h591.245V816.323H310.898z"/>
</svg>
