<?xml version="1.0" encoding="utf-8"?>
<!-- Generator: Adobe Illustrator 16.0.0, SVG Export Plug-In . SVG Version: 6.00 Build 0)  -->
<!DOCTYPE svg PUBLIC "-//W3C//DTD SVG 1.1//EN" "http://www.w3.org/Graphics/SVG/1.1/DTD/svg11.dtd">
<svg version="1.1" id="Calque_1" xmlns="http://www.w3.org/2000/svg" xmlns:xlink="http://www.w3.org/1999/xlink" x="0px" y="0px"
	 width="1190.551px" height="1190.551px" viewBox="0 0 1190.551 1190.551" enable-background="new 0 0 1190.551 1190.551"
	 xml:space="preserve">
<g>
	<polygon fill="#010202" points="697.956,545.092 319.492,376.589 347.151,314.468 725.614,482.97 832.846,242.123 289.031,0.001 
		46.908,543.816 590.723,785.938 	"/>
	<path fill="#010202" d="M905.895,868.25l-29.521,47.246l-95.67-59.781c2.926,1.747,6.266,3.258,10.071,4.495
		c33.229,10.797,50.671-21.577,58.762-46.476c3.262-10.036,18.495-56.922,23.385-71.971c0.955-2.938,1.516-4.664,1.516-4.664
		c13.765-42.36,116.75-359.32,120.386-370.511c8.092-24.901,13.008-61.343-20.221-72.139
		c-36.159-11.751-53.012,20.812-63.459,53.052c-3.102,9.58-39.354,121.153-71.128,218.929l-80.641-50.39l-225.7,361.197
		l501.404,313.312l108.564-173.741L905.895,868.25z M839.813,567.051c-21.665,66.67-41.207,126.806-46.675,143.63
		c0,0-0.068,0.213-0.198,0.612c-0.857,2.643-1.316,4.053-1.316,4.053l0.002,0.001c-4.27,13.15-16.394,50.489-21.005,64.641
		c-9.188,28.194-14.552,59.476,8.479,74.726l-85.61-53.495L839.813,567.051z"/>
</g>
</svg>
