<?xml version="1.0" encoding="utf-8"?>
<!-- Generator: Adobe Illustrator 16.0.0, SVG Export Plug-In . SVG Version: 6.00 Build 0)  -->
<!DOCTYPE svg PUBLIC "-//W3C//DTD SVG 1.1//EN" "http://www.w3.org/Graphics/SVG/1.1/DTD/svg11.dtd">
<svg version="1.1" id="Calque_1" xmlns="http://www.w3.org/2000/svg" xmlns:xlink="http://www.w3.org/1999/xlink" x="0px" y="0px"
	 width="1190.551px" height="1190.551px" viewBox="0 0 1190.551 1190.551" enable-background="new 0 0 1190.551 1190.551"
	 xml:space="preserve">
<path fill="#010202" d="M880.78,2.014c-38.021-0.003-43.984,36.175-43.959,70.063c0.02,16.961,0.002,338.195,0,381.869
	c0,0,0,0.224,0,0.644c0,2.778,0,4.263,0,4.263h0.002c0.006,13.825,0.014,53.084-0.002,67.967c-0.021,27.478,3.9,56.457,25.65,66.439
	H694.16V2.013H489.292V282.36h55.712v215.652H268.248v95.247v595.279h263.64v-414.28h68v414.28h263.641V593.701
	c4.855,2.041,10.545,3.186,17.252,3.186c34.939,0,41.523-36.18,41.523-62.358c0-10.554,0-59.851,0-75.674c0-3.091,0-4.904,0-4.904
	c0-44.541,0-377.812,0-389.578C922.303,38.19,915.717,2.014,880.78,2.014z"/>
</svg>
