<?xml version="1.0" encoding="utf-8"?>
<!-- Generator: Adobe Illustrator 16.0.0, SVG Export Plug-In . SVG Version: 6.00 Build 0)  -->
<!DOCTYPE svg PUBLIC "-//W3C//DTD SVG 1.1//EN" "http://www.w3.org/Graphics/SVG/1.1/DTD/svg11.dtd">
<svg version="1.1" id="Calque_1" xmlns="http://www.w3.org/2000/svg" xmlns:xlink="http://www.w3.org/1999/xlink" x="0px" y="0px"
	 width="1190.551px" height="1190.551px" viewBox="0 0 1190.551 1190.551" enable-background="new 0 0 1190.551 1190.551"
	 xml:space="preserve">
<path fill="#010202" d="M612.532,0.001c-38.021-0.003-43.985,36.175-43.959,70.063c0.02,16.961,0.003,338.195,0,381.869
	c0,0,0,0.224,0,0.644c0,2.778,0,4.263,0,4.263h0.003c0.005,13.825,0.013,53.084-0.003,67.967
	c-0.021,27.478,3.9,56.457,25.651,66.439h-168.31V0h-204.87v280.347h55.712v215.652H0v95.247v595.279h263.64v-414.28h68v414.28
	h263.64V591.688c4.855,2.041,10.546,3.186,17.253,3.186c34.938,0,41.523-36.18,41.523-62.358c0-10.554,0-59.851,0-75.674
	c0-3.091,0-4.904,0-4.904c0-44.541,0-377.812,0-389.578C654.056,36.178,647.47,0.001,612.532,0.001z"/>
</svg>
