<?xml version="1.0" encoding="utf-8"?>
<!-- Generator: Adobe Illustrator 16.0.0, SVG Export Plug-In . SVG Version: 6.00 Build 0)  -->
<!DOCTYPE svg PUBLIC "-//W3C//DTD SVG 1.1//EN" "http://www.w3.org/Graphics/SVG/1.1/DTD/svg11.dtd">
<svg version="1.1" id="Calque_1" xmlns="http://www.w3.org/2000/svg" xmlns:xlink="http://www.w3.org/1999/xlink" x="0px" y="0px"
	 width="1190.551px" height="1190.551px" viewBox="0 0 1190.551 1190.551" enable-background="new 0 0 1190.551 1190.551"
	 xml:space="preserve">
<g>
	<polygon fill="#010202" points="651.048,545.091 272.584,376.588 300.242,314.467 678.706,482.969 785.938,242.122 242.122,0 
		0,543.815 543.815,785.937 	"/>
	<path fill="#010202" d="M858.987,868.249l-29.522,47.246l-95.67-59.781c2.926,1.747,6.266,3.258,10.072,4.495
		c33.229,10.797,50.671-21.577,58.761-46.476c3.262-10.036,18.495-56.921,23.385-71.97c0.955-2.939,1.516-4.664,1.516-4.664
		c13.764-42.361,116.75-359.32,120.386-370.511c8.091-24.901,13.007-61.343-20.221-72.139
		c-36.159-11.751-53.012,20.813-63.459,53.052c-3.102,9.58-39.354,121.153-71.128,218.929l-80.641-50.39l-225.7,361.197
		l501.404,313.312l108.565-173.741L858.987,868.249z M792.905,567.05c-21.665,66.67-41.207,126.806-46.675,143.63
		c0,0-0.068,0.213-0.198,0.612c-0.858,2.643-1.317,4.053-1.317,4.053l0.002,0.001c-4.269,13.15-16.393,50.489-21.005,64.64
		c-9.187,28.195-14.551,59.476,8.479,74.726l-85.61-53.495L792.905,567.05z"/>
</g>
</svg>
