<?xml version="1.0" encoding="utf-8"?>
<!-- Generator: Adobe Illustrator 16.0.0, SVG Export Plug-In . SVG Version: 6.00 Build 0)  -->
<!DOCTYPE svg PUBLIC "-//W3C//DTD SVG 1.1//EN" "http://www.w3.org/Graphics/SVG/1.1/DTD/svg11.dtd">
<svg version="1.1" id="Calque_1" xmlns="http://www.w3.org/2000/svg" xmlns:xlink="http://www.w3.org/1999/xlink" x="0px" y="0px"
	 width="1190.551px" height="1190.551px" viewBox="0 0 1190.551 1190.551" enable-background="new 0 0 1190.551 1190.551"
	 xml:space="preserve">
<path fill="#010202" d="M892.916,637.217V41.937h-595.28v595.28v425.916h70.065h67.969v0.002
	c-13.826,0.004-53.084,0.014-67.969-0.002c-33.889-0.025-70.066,5.938-70.066,43.959c0,34.938,36.18,41.521,62.357,41.521
	c10.555,0,59.852,0,75.676,0c3.09,0,4.902,0,4.902,0c44.541,0,377.81,0,389.578,0c26.182,0,62.359-6.586,62.359-41.521
	c0.004-38.021-36.176-43.984-70.064-43.959c-16.961,0.02-338.195,0.002-381.869,0h381.869h66.438V858.26H608.535v55.713H392.884
	V637.217h168.393v-414.28h68v414.28H892.916z"/>
</svg>
