<?xml version="1.0" encoding="utf-8"?>
<!-- Generator: Adobe Illustrator 16.0.0, SVG Export Plug-In . SVG Version: 6.00 Build 0)  -->
<!DOCTYPE svg PUBLIC "-//W3C//DTD SVG 1.1//EN" "http://www.w3.org/Graphics/SVG/1.1/DTD/svg11.dtd">
<svg version="1.1" id="Calque_1" xmlns="http://www.w3.org/2000/svg" xmlns:xlink="http://www.w3.org/1999/xlink" x="0px" y="0px"
	 width="1190.551px" height="1190.551px" viewBox="0 0 1190.551 1190.551" enable-background="new 0 0 1190.551 1190.551"
	 xml:space="preserve">
<path fill="#010202" d="M595.28,595.28V0H0v263.64H414.28v68H0v263.64v425.915h70.066h67.968v0.002
	c-13.826,0.004-53.084,0.014-67.968-0.002c-33.889-0.025-70.067,5.938-70.067,43.959c0,34.938,36.18,41.523,62.358,41.523
	c10.554,0,59.851,0,75.675,0c3.09,0,4.903,0,4.903,0c44.541,0,377.81,0,389.578,0c26.182,0,62.359-6.586,62.359-41.523
	c0.004-38.021-36.176-43.984-70.064-43.959c-16.961,0.02-338.195,0.002-381.869,0h381.869h66.437V816.323H310.899v55.712H95.247
	V595.28H595.28z"/>
</svg>
