<?xml version="1.0" encoding="utf-8"?>
<!-- Generator: Adobe Illustrator 16.0.0, SVG Export Plug-In . SVG Version: 6.00 Build 0)  -->
<!DOCTYPE svg PUBLIC "-//W3C//DTD SVG 1.1//EN" "http://www.w3.org/Graphics/SVG/1.1/DTD/svg11.dtd">
<svg version="1.1" id="Calque_1" xmlns="http://www.w3.org/2000/svg" xmlns:xlink="http://www.w3.org/1999/xlink" x="0px" y="0px"
	 width="1190.551px" height="1190.551px" viewBox="0 0 1190.551 1190.551" enable-background="new 0 0 1190.551 1190.551"
	 xml:space="preserve">
<path fill="#010202" d="M996.561,250.013c-38.021-0.003-43.986,36.175-43.959,70.063c0.004,2.718,0.006,13.262,0.006,29.216H747.75
	v-99.28H484.11v414.28h-68v-414.28H152.47v595.28h374.234v95.247h425.915V778.158c0.381,32.884,7.166,66.729,43.941,66.729
	c34.938,0,41.52-36.18,41.52-62.357c0-10.555,0-59.852,0-75.675c0-3.091,0-4.903,0-4.903c0-44.541,0-377.812,0-389.579
	C1038.082,286.189,1031.496,250.013,996.561,250.013z M803.461,845.292H747.75V629.64h55.711V845.292L803.461,845.292z"/>
</svg>
