<?xml version="1.0" encoding="utf-8"?>
<!-- Generator: Adobe Illustrator 16.0.0, SVG Export Plug-In . SVG Version: 6.00 Build 0)  -->
<!DOCTYPE svg PUBLIC "-//W3C//DTD SVG 1.1//EN" "http://www.w3.org/Graphics/SVG/1.1/DTD/svg11.dtd">
<svg version="1.1" id="Calque_1" xmlns="http://www.w3.org/2000/svg" xmlns:xlink="http://www.w3.org/1999/xlink" x="0px" y="0px"
	 width="1190.551px" height="1190.551px" viewBox="0 0 1190.551 1190.551" enable-background="new 0 0 1190.551 1190.551"
	 xml:space="preserve">
<g>
	<path fill="#010202" d="M888.88,467.852V262.98H608.534v55.712H392.883V41.937h-95.247v425.915v595.279h595.279V467.852H888.88z
		 M629.276,882.132h-68v-414.28h68V882.132z"/>
	<path fill="#010202" d="M830.152,1063.133c-10.553,0-59.851,0-75.674,0c-3.09,0-4.904,0-4.904,0c-44.541,0-377.812,0-389.578,0
		c-26.182,0-62.357,6.586-62.357,41.522c-0.003,38.021,36.175,43.984,70.062,43.959c16.961-0.02,338.195-0.002,381.869,0
		c0,0,0.223,0,0.643,0c2.779,0,4.265,0,4.265,0v-0.002c13.825-0.004,53.084-0.014,67.967,0.002
		c33.889,0.025,70.067-5.938,70.067-43.959C892.511,1069.718,856.33,1063.133,830.152,1063.133z"/>
</g>
</svg>
