<?xml version="1.0" encoding="utf-8"?>
<!-- Generator: Adobe Illustrator 16.0.0, SVG Export Plug-In . SVG Version: 6.00 Build 0)  -->
<!DOCTYPE svg PUBLIC "-//W3C//DTD SVG 1.1//EN" "http://www.w3.org/Graphics/SVG/1.1/DTD/svg11.dtd">
<svg version="1.1" id="Calque_1" xmlns="http://www.w3.org/2000/svg" xmlns:xlink="http://www.w3.org/1999/xlink" x="0px" y="0px"
	 width="1190.551px" height="1190.551px" viewBox="0 0 1190.551 1190.551" enable-background="new 0 0 1190.551 1190.551"
	 xml:space="preserve">
<g>
	<path fill="#010202" d="M809.032,532.714c0-10.554,0-59.851,0-75.674c0-3.091,0-4.904,0-4.904c0-44.541,0-377.812,0-389.578
		c0-26.182-6.586-62.358-41.523-62.358c-38.021-0.003-43.984,36.175-43.959,70.063c0.021,16.961,0.005,338.195,0,381.869V70.263
		V0.198H518.681v280.347h55.712v215.652H297.636v95.247h425.913v-66.439v-67.967h0.005c0.004,13.825,0.012,53.084-0.005,67.967
		c-0.024,33.889,5.938,70.067,43.959,70.067C802.448,595.072,809.032,558.893,809.032,532.714z"/>
	<polygon fill="#010202" points="767.508,595.072 297.636,595.072 297.636,858.712 711.915,858.712 711.915,926.712 
		297.636,926.712 297.636,1190.353 892.915,1190.353 892.915,595.072 	"/>
</g>
</svg>
