<?xml version="1.0" encoding="utf-8"?>
<!-- Generator: Adobe Illustrator 16.0.0, SVG Export Plug-In . SVG Version: 6.00 Build 0)  -->
<!DOCTYPE svg PUBLIC "-//W3C//DTD SVG 1.1//EN" "http://www.w3.org/Graphics/SVG/1.1/DTD/svg11.dtd">
<svg version="1.1" id="Calque_1" xmlns="http://www.w3.org/2000/svg" xmlns:xlink="http://www.w3.org/1999/xlink" x="0px" y="0px"
	 width="1190.551px" height="1190.551px" viewBox="0 0 1190.551 1190.551" enable-background="new 0 0 1190.551 1190.551"
	 xml:space="preserve">
<g>
	<path fill="#010202" d="M511.397,532.516c0-10.554,0-59.851,0-75.674c0-3.091,0-4.904,0-4.904c0-44.541,0-377.812,0-389.578
		c0-26.182-6.586-62.358-41.523-62.358c-38.021-0.003-43.985,36.175-43.959,70.063c0.02,16.961,0.004,338.195,0,381.869V70.065V0
		h-204.87v280.347h55.712v215.652H0v95.247h425.914v-66.439V456.84h0.004c0.004,13.825,0.012,53.084-0.004,67.967
		c-0.025,33.889,5.938,70.067,43.959,70.067C504.812,594.874,511.397,558.695,511.397,532.516z"/>
	<polygon fill="#010202" points="469.873,594.874 0,594.874 0,858.514 414.28,858.514 414.28,926.514 0,926.514 0,1190.154 
		595.28,1190.154 595.28,594.874 	"/>
</g>
</svg>
