<?xml version="1.0" encoding="utf-8"?>
<!-- Generator: Adobe Illustrator 16.0.0, SVG Export Plug-In . SVG Version: 6.00 Build 0)  -->
<!DOCTYPE svg PUBLIC "-//W3C//DTD SVG 1.1//EN" "http://www.w3.org/Graphics/SVG/1.1/DTD/svg11.dtd">
<svg version="1.1" id="Calque_1" xmlns="http://www.w3.org/2000/svg" xmlns:xlink="http://www.w3.org/1999/xlink" x="0px" y="0px"
	 width="1190.551px" height="1190.551px" viewBox="0 0 1190.551 1190.551" enable-background="new 0 0 1190.551 1190.551"
	 xml:space="preserve">
<path fill="#010202" d="M844.091,0.001c-38.022-0.003-43.987,36.175-43.959,70.063c0.003,2.718,0.005,13.262,0.006,29.216H595.28V0
	H331.64V414.28h-68V0H0V595.28h374.235v95.247h425.915v-162.38c0.381,32.883,7.166,66.728,43.94,66.728
	c34.938,0,41.521-36.18,41.521-62.358c0-10.554,0-59.851,0-75.674c0-3.091,0-4.904,0-4.904c0-44.541,0-377.812,0-389.578
	C885.613,36.178,879.027,0.001,844.091,0.001z M650.991,595.28H595.28V379.628h55.712V595.28z"/>
</svg>
