<?xml version="1.0" encoding="utf-8"?>
<!-- Generator: Adobe Illustrator 16.0.0, SVG Export Plug-In . SVG Version: 6.00 Build 0)  -->
<!DOCTYPE svg PUBLIC "-//W3C//DTD SVG 1.1//EN" "http://www.w3.org/Graphics/SVG/1.1/DTD/svg11.dtd">
<svg version="1.1" id="Calque_1" xmlns="http://www.w3.org/2000/svg" xmlns:xlink="http://www.w3.org/1999/xlink" x="0px" y="0px"
	 width="1190.551px" height="1190.551px" viewBox="0 0 1190.551 1190.551" enable-background="new 0 0 1190.551 1190.551"
	 xml:space="preserve">
<path fill="#010202" d="M470.037,0.001c-38.021-0.003-43.985,36.176-43.958,70.064c0.002,1.89,0.004,7.568,0.005,16.211h-51.993V0
	h-32.638v150.276h-43.362v112.501H125c-38.5,0-48.897-14-48.897-50c0-53.193,0-212.777,0-212.777H0v295.091v5.1v295.09h76.103
	c0,0,0-159.585,0-212.778c0-36,10.397-50,48.897-50h173.091v153.775h43.362v109h84.639v-67.924
	c0.282,33.13,6.876,67.521,43.945,67.521c34.938,0,41.524-36.18,41.524-62.358c0-10.554,0-59.85,0-75.675c0-3.09,0-4.903,0-4.903
	c0-44.541,0-377.811,0-389.577C511.562,36.179,504.976,0.001,470.037,0.001z M374.091,232.277h51.997
	c-0.001,68.564-0.005,142.41-0.007,186.001h-51.99V232.277z"/>
</svg>
