<?xml version="1.0" encoding="utf-8"?>
<!-- Generator: Adobe Illustrator 16.0.0, SVG Export Plug-In . SVG Version: 6.00 Build 0)  -->
<!DOCTYPE svg PUBLIC "-//W3C//DTD SVG 1.1//EN" "http://www.w3.org/Graphics/SVG/1.1/DTD/svg11.dtd">
<svg version="1.1" id="Calque_1" xmlns="http://www.w3.org/2000/svg" xmlns:xlink="http://www.w3.org/1999/xlink" x="0px" y="0px"
	 width="1190.551px" height="1190.551px" viewBox="0 0 1190.551 1190.551" enable-background="new 0 0 1190.551 1190.551"
	 xml:space="preserve">
<path fill="#010202" d="M809.531,297.638c-38.021-0.003-43.984,36.176-43.958,70.064c0.002,1.89,0.004,7.567,0.006,16.211h-51.993
	v-86.276h-32.638v150.276h-43.362V297.636h-76.104c0,0,0,159.585,0,212.778c0,36-10.396,50-48.896,50H339.495v32.312v5.101v32.312
	h173.091c38.5,0,48.896,14,48.896,50c0,53.193,0,212.777,0,212.777h76.104v-109h43.362v109h84.639v-67.924
	c0.281,33.13,6.876,67.521,43.944,67.521c34.938,0,41.524-36.18,41.524-62.357c0-10.555,0-59.851,0-75.676c0-3.09,0-4.902,0-4.902
	c0-44.541,0-377.812,0-389.577C851.057,333.816,844.471,297.638,809.531,297.638z M713.586,529.914h51.997
	c-0.001,68.563-0.006,142.41-0.008,186.001h-51.989V529.914L713.586,529.914z"/>
</svg>
