<?xml version="1.0" encoding="utf-8"?>
<!-- Generator: Adobe Illustrator 16.0.0, SVG Export Plug-In . SVG Version: 6.00 Build 0)  -->
<!DOCTYPE svg PUBLIC "-//W3C//DTD SVG 1.1//EN" "http://www.w3.org/Graphics/SVG/1.1/DTD/svg11.dtd">
<svg version="1.1" id="Calque_1" xmlns="http://www.w3.org/2000/svg" xmlns:xlink="http://www.w3.org/1999/xlink" x="0px" y="0px"
	 width="1190.551px" height="1190.551px" viewBox="0 0 1190.551 1190.551" enable-background="new 0 0 1190.551 1190.551"
	 xml:space="preserve">
<path fill="#010202" d="M418.022,0.001c-38.021-0.003-43.986,36.176-43.958,70.064c0.003,3.237,0.005,17.57,0.007,38.935h-43.342V0
	h-84.638v177h52v85.777H125c-38.5,0-48.897-14-48.897-50c0-53.193,0-212.777,0-212.777H0v295.091v5.1v295.09h76.103
	c0,0,0-159.585,0-212.778c0-36,10.397-50,48.897-50h173.091v30.499h-52v146h52v86.276h32.638V445.001h43.335
	c0,2.768,0,5.101,0,6.934c0,0,0,0.223,0,0.644c0,2.777,0,4.262,0,4.262h0.002c0.004,13.826,0.013,53.084-0.002,67.968
	c-0.027,33.889,5.938,70.066,43.958,70.066c34.938,0,41.524-36.18,41.524-62.358c0-10.554,0-59.85,0-75.675c0-3.09,0-4.903,0-4.903
	c0-44.541,0-377.811,0-389.577C459.546,36.179,452.96,0.001,418.022,0.001z"/>
</svg>
