<?xml version="1.0" encoding="utf-8"?>
<!-- Generator: Adobe Illustrator 16.0.0, SVG Export Plug-In . SVG Version: 6.00 Build 0)  -->
<!DOCTYPE svg PUBLIC "-//W3C//DTD SVG 1.1//EN" "http://www.w3.org/Graphics/SVG/1.1/DTD/svg11.dtd">
<svg version="1.1" id="Calque_1" xmlns="http://www.w3.org/2000/svg" xmlns:xlink="http://www.w3.org/1999/xlink" x="0px" y="0px"
	 width="1190.551px" height="1190.551px" viewBox="0 0 1190.551 1190.551" enable-background="new 0 0 1190.551 1190.551"
	 xml:space="preserve">
<path fill="#010202" d="M825.062,367.701c0.028-33.889-5.938-70.066-43.958-70.066c-34.938,0-41.522,36.18-41.522,62.358
	c0,6.492,0,27.64,0,46.643h-43.362V297.635h-84.638v177h52v85.777H490.49c-38.5,0-48.897-14-48.897-50c0-53.193,0-212.777,0-212.777
	H365.49v295.091v5.101v295.09h76.103c0,0,0-159.586,0-212.778c0-36,10.397-50,48.897-50H663.58v30.499h-52v146h52v86.275h32.638
	V742.636h43.362c0,48.312,0,83.812,0,87.513c0,26.182,6.587,62.358,41.522,62.358c38.021,0.004,43.987-36.177,43.958-70.063
	c-0.017-16.961-0.002-338.194,0-381.87c0,0,0-0.223,0-0.644c0-2.777,0-4.262,0-4.262h-0.001
	C825.057,421.842,825.048,382.584,825.062,367.701z"/>
</svg>
