<?xml version="1.0" encoding="utf-8"?>
<!-- Generator: Adobe Illustrator 16.0.0, SVG Export Plug-In . SVG Version: 6.00 Build 0)  -->
<!DOCTYPE svg PUBLIC "-//W3C//DTD SVG 1.1//EN" "http://www.w3.org/Graphics/SVG/1.1/DTD/svg11.dtd">
<svg version="1.1" id="Calque_1" xmlns="http://www.w3.org/2000/svg" xmlns:xlink="http://www.w3.org/1999/xlink" x="0px" y="0px"
	 width="1190.551px" height="1190.551px" viewBox="0 0 1190.551 1190.551" enable-background="new 0 0 1190.551 1190.551"
	 xml:space="preserve">
<path fill="#010202" d="M783.524,297.636c-38.02-0.003-43.984,36.176-43.957,70.064c0.002,3.237,0.004,17.57,0.006,38.935h-43.342
	v-109h-84.637v177h52v85.777H490.503c-38.5,0-48.897-14-48.897-50c0-53.193,0-212.777,0-212.777h-76.103v295.091v5.101v295.09
	h76.103c0,0,0-159.586,0-212.778c0-36,10.397-50,48.897-50h173.091v30.499h-52v146h52v86.275h32.637V742.636h43.336
	c0,2.769,0,5.101,0,6.935c0,0,0,0.223,0,0.644c0,2.776,0,4.262,0,4.262h0.002c0.004,13.826,0.014,53.084-0.002,67.968
	c-0.027,33.89,5.938,70.066,43.957,70.066c34.939,0,41.525-36.18,41.525-62.357c0-10.555,0-59.851,0-75.676c0-3.09,0-4.902,0-4.902
	c0-44.541,0-377.812,0-389.578C825.049,333.814,818.463,297.636,783.524,297.636z"/>
</svg>
