<?xml version="1.0" encoding="utf-8"?>
<!-- Generator: Adobe Illustrator 16.0.0, SVG Export Plug-In . SVG Version: 6.00 Build 0)  -->
<!DOCTYPE svg PUBLIC "-//W3C//DTD SVG 1.1//EN" "http://www.w3.org/Graphics/SVG/1.1/DTD/svg11.dtd">
<svg version="1.1" id="Calque_1" xmlns="http://www.w3.org/2000/svg" xmlns:xlink="http://www.w3.org/1999/xlink" x="0px" y="0px"
	 width="1190.551px" height="1190.551px" viewBox="0 0 1190.551 1190.551" enable-background="new 0 0 1190.551 1190.551"
	 xml:space="preserve">
<path fill="#010202" d="M382.502,76.103c53.193,0,212.777,0,212.777,0V0H300.189h-5.1H-0.001v76.103c0,0,159.585,0,212.778,0
	c36,0,50,10.397,50,48.897v173.091h-30.501v-52h-146v52H0v32.638h150.276v43.336c-2.947,0-5.416,0-7.338,0c0,0-0.224,0-0.644,0
	c-2.777,0-4.262,0-4.262,0v0.001c-13.826,0.005-53.084,0.014-67.968-0.001c-33.889-0.027-70.066,5.938-70.066,43.958
	c0,34.938,36.18,41.523,62.358,41.523c10.554,0,59.85,0,75.675,0c3.09,0,4.903,0,4.903,0c44.541,0,377.81,0,389.577,0
	c26.182,0,62.358-6.586,62.358-41.523c0.004-38.021-36.175-43.987-70.063-43.958c-3.217,0.003-17.389,0.005-38.53,0.007v-43.343h109
	v-84.638h-177v52h-85.775V125C332.502,86.5,346.502,76.103,382.502,76.103z"/>
</svg>
