<?xml version="1.0" encoding="utf-8"?>
<!-- Generator: Adobe Illustrator 16.0.0, SVG Export Plug-In . SVG Version: 6.00 Build 0)  -->
<!DOCTYPE svg PUBLIC "-//W3C//DTD SVG 1.1//EN" "http://www.w3.org/Graphics/SVG/1.1/DTD/svg11.dtd">
<svg version="1.1" id="Calque_1" xmlns="http://www.w3.org/2000/svg" xmlns:xlink="http://www.w3.org/1999/xlink" x="0px" y="0px"
	 width="1190.551px" height="1190.551px" viewBox="0 0 1190.551 1190.551" enable-background="new 0 0 1190.551 1190.551"
	 xml:space="preserve">
<path fill="#010202" d="M822.651,850.141c-5.723,0.006-46.076,0.008-98.717,0.008V673.209h-52V487.208h52v-146h-52v-86.277h-32.639
	v150.276h-43.361V254.93H519.83c0,0,0,159.585,0,212.778c0,36-10.396,50-48.896,50H297.843v32.312v5.1v32.312h173.091
	c38.5,0,48.896,14,48.896,50c0,52.602,0,209.232,0,212.711c-38.136-0.001-67.8-0.003-79.05-0.003c0,0-0.224,0-0.644,0
	c-2.777,0-4.262,0-4.262,0v0.001c-13.826,0.005-53.084,0.014-67.969-0.001c-33.889-0.026-70.065,5.938-70.065,43.959
	c0,34.938,36.18,41.522,62.357,41.522c10.555,0,59.851,0,75.675,0c3.091,0,4.903,0,4.903,0c44.541,0,377.81,0,389.578,0
	c26.182,0,62.357-6.587,62.357-41.522C892.717,856.077,856.539,850.111,822.651,850.141z M595.934,741.209h43.361v108.939
	c-14.49,0-29.053-0.001-43.361-0.001V741.209z"/>
</svg>
