<?xml version="1.0" encoding="utf-8"?>
<!-- Generator: Adobe Illustrator 16.0.0, SVG Export Plug-In . SVG Version: 6.00 Build 0)  -->
<!DOCTYPE svg PUBLIC "-//W3C//DTD SVG 1.1//EN" "http://www.w3.org/Graphics/SVG/1.1/DTD/svg11.dtd">
<svg version="1.1" id="Calque_1" xmlns="http://www.w3.org/2000/svg" xmlns:xlink="http://www.w3.org/1999/xlink" x="0px" y="0px"
	 width="1190.551px" height="1190.551px" viewBox="0 0 1190.551 1190.551" enable-background="new 0 0 1190.551 1190.551"
	 xml:space="preserve">
<path fill="#010202" d="M524.808,595.21c-5.722,0.006-46.075,0.008-98.716,0.008V418.278h-52.001V232.277h52.001v-146h-52.001V0
	h-32.638v150.276h-43.362V-0.001h-76.103c0,0,0,159.585,0,212.778c0,36-10.397,50-48.897,50H0v32.312v5.1v32.312h173.091
	c38.5,0,48.897,14,48.897,50c0,52.602,0,209.232,0,212.711c-38.136-0.001-67.8-0.003-79.05-0.003c0,0-0.224,0-0.644,0
	c-2.777,0-4.262,0-4.262,0v0.001c-13.826,0.005-53.084,0.014-67.968-0.001c-33.889-0.027-70.066,5.938-70.066,43.959
	c0,34.938,36.18,41.522,62.358,41.522c10.554,0,59.85,0,75.675,0c3.09,0,4.903,0,4.903,0c44.541,0,377.81,0,389.577,0
	c26.182,0,62.358-6.586,62.358-41.522C594.875,601.147,558.697,595.181,524.808,595.21z M298.091,486.278h43.362v108.94
	c-14.491,0-29.052-0.001-43.362-0.001V486.278z"/>
</svg>
