<?xml version="1.0" encoding="utf-8"?>
<!-- Generator: Adobe Illustrator 16.0.0, SVG Export Plug-In . SVG Version: 6.00 Build 0)  -->
<!DOCTYPE svg PUBLIC "-//W3C//DTD SVG 1.1//EN" "http://www.w3.org/Graphics/SVG/1.1/DTD/svg11.dtd">
<svg version="1.1" id="Calque_1" xmlns="http://www.w3.org/2000/svg" xmlns:xlink="http://www.w3.org/1999/xlink" x="0px" y="0px"
	 width="1190.551px" height="1190.551px" viewBox="0 0 1190.551 1190.551" enable-background="new 0 0 1190.551 1190.551"
	 xml:space="preserve">
<path fill="#010202" d="M639.133,0.001c-38.021-0.003-43.985,36.176-43.958,70.064c0.008,7.54,0.01,75.226,0.008,151.923
	c-4.337,0-160.229,0-212.681,0c-36,0-50-10.397-50-48.897V0H300.19h-5.1h-32.312v173.091c0,38.5-14,48.897-50,48.897
	c-53.193,0-212.777,0-212.777,0v76.103h109v43.362H0v84.638h177v-52h186.001v52H509v-52h86.178
	c-0.001,37.552-0.003,66.714-0.003,77.844c0,0,0,0.223,0,0.644c0,2.777,0,4.262,0,4.262h0.001
	c0.004,13.826,0.015,53.084-0.001,67.968c-0.026,33.889,5.938,70.066,43.958,70.066c34.938,0,41.524-36.18,41.524-62.358
	c0-10.554,0-59.85,0-75.675c0-3.09,0-4.903,0-4.903c0-44.541,0-377.811,0-389.577C680.657,36.179,674.072,0.001,639.133,0.001z
	 M445,341.453v-43.362h150.181c0,14.861-0.001,29.436-0.001,43.362H445z"/>
</svg>
