<?xml version="1.0" encoding="utf-8"?>
<!-- Generator: Adobe Illustrator 16.0.0, SVG Export Plug-In . SVG Version: 6.00 Build 0)  -->
<!DOCTYPE svg PUBLIC "-//W3C//DTD SVG 1.1//EN" "http://www.w3.org/Graphics/SVG/1.1/DTD/svg11.dtd">
<svg version="1.1" id="Calque_1" xmlns="http://www.w3.org/2000/svg" xmlns:xlink="http://www.w3.org/1999/xlink" x="0px" y="0px"
	 width="1190.551px" height="1190.551px" viewBox="0 0 1190.551 1190.551" enable-background="new 0 0 1190.551 1190.551"
	 xml:space="preserve">
<path fill="#010202" d="M892.915,870.826v-84.637h-177v52H529.914v-52h65.814V491.098v-5.1v-295.09h-76.104c0,0,0,159.585,0,212.778
	c0,36-10.396,50-48.896,50H297.638v32.312v5.1v32.312h173.091c38.5,0,48.896,14,48.896,50c0,53.193,0,212.777,0,212.777H383.914
	v52.001h-86.276v32.637h150.275v43.336c-2.946,0-5.416,0-7.338,0c0,0-0.224,0-0.644,0c-2.777,0-4.262,0-4.262,0v0.002
	c-13.826,0.004-53.084,0.012-67.969-0.002c-33.889-0.027-70.065,5.939-70.065,43.959c0,34.938,36.18,41.523,62.357,41.523
	c10.555,0,59.851,0,75.675,0c3.091,0,4.903,0,4.903,0c44.541,0,377.81,0,389.577,0c26.182,0,62.357-6.586,62.357-41.523
	c0.005-38.02-36.175-43.988-70.062-43.959c-3.217,0.004-17.389,0.006-38.53,0.008v-43.344h109.002V870.826z"/>
</svg>
