<?xml version="1.0" encoding="utf-8"?>
<!-- Generator: Adobe Illustrator 16.0.0, SVG Export Plug-In . SVG Version: 6.00 Build 0)  -->
<!DOCTYPE svg PUBLIC "-//W3C//DTD SVG 1.1//EN" "http://www.w3.org/Graphics/SVG/1.1/DTD/svg11.dtd">
<svg version="1.1" id="Calque_1" xmlns="http://www.w3.org/2000/svg" xmlns:xlink="http://www.w3.org/1999/xlink" x="0px" y="0px"
	 width="1190.551px" height="1190.551px" viewBox="0 0 1190.551 1190.551" enable-background="new 0 0 1190.551 1190.551"
	 xml:space="preserve">
<path fill="#010202" d="M892.916,637.58v-76.103c0,0-159.586,0-212.777,0c-36,0-50-10.397-50-48.897V339.489h-32.314h-5.099h-32.312
	V512.58c0,38.5-14,48.897-50,48.897c-53.192,0-212.776,0-212.776,0v76.103h109v43.362H297.635v84.638h62.359
	c-26.182,0-62.358,6.587-62.358,41.523c-0.003,38.021,36.176,43.986,70.063,43.958c16.96-0.018,338.195-0.003,381.869,0
	c0,0,0.223,0,0.643,0c2.779,0,4.266,0,4.266,0v-0.002c13.822-0.004,53.084-0.013,67.967,0.002
	c33.889,0.027,70.064-5.938,70.064-43.958c0-34.938-36.18-41.523-62.357-41.523c-3.85,0-12.861,0-23.516,0v-52h86.277v-32.638
	H742.635V637.58H892.916z M474.635,765.58v-52h186.001v52C604.879,765.58,533.747,765.58,474.635,765.58z"/>
</svg>
