<?xml version="1.0" encoding="utf-8"?>
<!-- Generator: Adobe Illustrator 16.0.0, SVG Export Plug-In . SVG Version: 6.00 Build 0)  -->
<!DOCTYPE svg PUBLIC "-//W3C//DTD SVG 1.1//EN" "http://www.w3.org/Graphics/SVG/1.1/DTD/svg11.dtd">
<svg version="1.1" id="Calque_1" xmlns="http://www.w3.org/2000/svg" xmlns:xlink="http://www.w3.org/1999/xlink" x="0px" y="0px"
	 width="1190.551px" height="1190.551px" viewBox="0 0 1190.551 1190.551" enable-background="new 0 0 1190.551 1190.551"
	 xml:space="preserve">
<path fill="#010202" d="M595.281,298.091v-76.103c0,0-159.585,0-212.778,0c-36,0-50-10.397-50-48.897V0H300.19h-5.1h-32.312v173.091
	c0,38.5-14,48.897-50,48.897c-53.193,0-212.777,0-212.777,0v76.103h109v43.362H0v84.638h62.36c-26.182,0-62.359,6.587-62.359,41.523
	c-0.003,38.021,36.176,43.987,70.064,43.958c16.96-0.017,338.194-0.002,381.869,0c0,0,0.223,0,0.643,0c2.778,0,4.264,0,4.264,0
	v-0.001c13.824-0.004,53.084-0.013,67.967,0.001c33.889,0.028,70.065-5.938,70.065-43.958c0-34.938-36.179-41.523-62.357-41.523
	c-3.849,0-12.861,0-23.516,0v-52h86.277v-32.638H445v-43.362H595.281z M177,426.091v-52h186.001v52
	C307.243,426.091,236.112,426.091,177,426.091z"/>
</svg>
