<?xml version="1.0" encoding="utf-8"?>
<!-- Generator: Adobe Illustrator 16.0.0, SVG Export Plug-In . SVG Version: 6.00 Build 0)  -->
<!DOCTYPE svg PUBLIC "-//W3C//DTD SVG 1.1//EN" "http://www.w3.org/Graphics/SVG/1.1/DTD/svg11.dtd">
<svg version="1.1" id="Calque_1" xmlns="http://www.w3.org/2000/svg" xmlns:xlink="http://www.w3.org/1999/xlink" x="0px" y="0px"
	 width="1190.551px" height="1190.551px" viewBox="0 0 1190.551 1190.551" enable-background="new 0 0 1190.551 1190.551"
	 xml:space="preserve">
<path fill="#010202" d="M807.694,406.635v-109h-84.639v67.886c-0.234-33.242-6.74-67.887-43.947-67.887
	c-34.938,0-41.521,36.18-41.521,62.358c0,10.554,0,59.85,0,75.675c0,3.09,0,4.903,0,4.903c0,14.992,0,62.697,0,119.842H464.495
	c-38.5,0-48.897-14-48.897-50c0-53.193,0-212.777,0-212.777h-76.103v295.091v5.1v295.09h76.103c0,0,0-159.585,0-212.777
	c0-36,10.397-50,48.897-50h173.091c0,96.408,0,193.748,0,200.011c0,26.182,6.586,62.358,41.521,62.358
	c38.021,0.004,43.988-36.176,43.959-70.063c-0.002-1.861-0.004-7.388-0.004-15.808h51.994v86.276h32.637V742.637h43.363V406.635
	H807.694z M775.057,660.637h-51.998c0.002-68.468,0.004-142.272,0.006-186.001h51.992V660.637z"/>
</svg>
