<?xml version="1.0" encoding="utf-8"?>
<!-- Generator: Adobe Illustrator 16.0.0, SVG Export Plug-In . SVG Version: 6.00 Build 0)  -->
<!DOCTYPE svg PUBLIC "-//W3C//DTD SVG 1.1//EN" "http://www.w3.org/Graphics/SVG/1.1/DTD/svg11.dtd">
<svg version="1.1" id="Calque_1" xmlns="http://www.w3.org/2000/svg" xmlns:xlink="http://www.w3.org/1999/xlink" x="0px" y="0px"
	 width="1190.551px" height="1190.551px" viewBox="0 0 1190.551 1190.551" enable-background="new 0 0 1190.551 1190.551"
	 xml:space="preserve">
<path fill="#010202" d="M595.278,679.917V595.28h-177v52H232.277v-52h65.814V300.189v-5.1V-0.001h-76.103c0,0,0,159.585,0,212.778
	c0,36-10.397,50-48.897,50H0v32.312v5.1v32.312h173.091c38.5,0,48.897,14,48.897,50c0,53.193,0,212.777,0,212.777H86.277v52H0
	v32.638h150.276v43.336c-2.947,0-5.416,0-7.338,0c0,0-0.224,0-0.644,0c-2.777,0-4.262,0-4.262,0v0.001
	c-13.826,0.004-53.084,0.013-67.968-0.001c-33.889-0.028-70.066,5.938-70.066,43.958c0,34.938,36.18,41.524,62.358,41.524
	c10.554,0,59.85,0,75.675,0c3.09,0,4.903,0,4.903,0c44.541,0,377.81,0,389.577,0c26.182,0,62.358-6.586,62.358-41.524
	c0.004-38.02-36.175-43.987-70.063-43.958c-3.217,0.004-17.389,0.006-38.53,0.007v-43.343H595.278z"/>
</svg>
