<?xml version="1.0" encoding="utf-8"?>
<!-- Generator: Adobe Illustrator 16.0.0, SVG Export Plug-In . SVG Version: 6.00 Build 0)  -->
<!DOCTYPE svg PUBLIC "-//W3C//DTD SVG 1.1//EN" "http://www.w3.org/Graphics/SVG/1.1/DTD/svg11.dtd">
<svg version="1.1" id="Calque_1" xmlns="http://www.w3.org/2000/svg" xmlns:xlink="http://www.w3.org/1999/xlink" x="0px" y="0px"
	 width="1190.551px" height="1190.551px" viewBox="0 0 1190.551 1190.551" enable-background="new 0 0 1190.551 1190.551"
	 xml:space="preserve">
<path fill="#010202" d="M595.28,817.268c0,0-159.584,0-212.778,0c-36,0-50-10.398-50-48.898V595.279h44.185V373.25l143.992-0.163
	V137.598H384.185V0H151.698v211.094H0v224.99h150.197v159.194h112.579l0.001,173.091c0,38.5-14,48.898-50,48.898
	c-53.193,0-212.777,0-212.777,0v76.102h70.065h67.968v0.001c-13.826,0.006-53.084,0.015-67.968-0.001
	c-33.889-0.026-70.066,5.938-70.066,43.958c0,34.938,36.18,41.524,62.358,41.524c10.554,0,59.85,0,75.675,0c3.09,0,4.903,0,4.903,0
	c44.541,0,377.81,0,389.577,0c26.182,0,62.358-6.586,62.358-41.524c0.005-38.02-36.174-43.985-70.063-43.958
	c-16.96,0.019-338.194,0.002-381.869,0h152.152h5.1h224.617h70.472V817.268z"/>
</svg>
