<?xml version="1.0" encoding="utf-8"?>
<!-- Generator: Adobe Illustrator 16.0.0, SVG Export Plug-In . SVG Version: 6.00 Build 0)  -->
<!DOCTYPE svg PUBLIC "-//W3C//DTD SVG 1.1//EN" "http://www.w3.org/Graphics/SVG/1.1/DTD/svg11.dtd">
<svg version="1.1" id="Calque_1" xmlns="http://www.w3.org/2000/svg" xmlns:xlink="http://www.w3.org/1999/xlink" x="0px" y="0px"
	 width="1190.551px" height="1190.551px" viewBox="0 0 1190.551 1190.551" enable-background="new 0 0 1190.551 1190.551"
	 xml:space="preserve">
<g>
	<polygon fill="#010202" points="136.493,595.279 368.98,595.279 368.98,384.185 520.678,384.185 520.678,159.195 370.48,159.195 
		370.48,0 143.992,0 143.992,222.029 0,222.192 0,457.681 136.493,457.681 	"/>
	<path fill="#010202" d="M524.808,1052.961c-16.96,0.017-338.194,0.002-381.869,0c0,0-0.224,0-0.644,0c-2.777,0-4.262,0-4.262,0
		v0.001c-13.48,0.004-51.126,0.013-66.795,0h4.865c0,0,0-159.584,0-212.779c0-36,10.397-50,48.897-50h173.091V757.87v-5.099V720.46
		H125c-38.5,0-48.897-14-48.897-50c0-53.194,0-212.778,0-212.778H0v295.091v5.099v295.091h69.867
		c-33.832-0.005-69.868,6.011-69.868,43.957c0,34.938,36.18,41.522,62.358,41.522c10.554,0,59.85,0,75.675,0c3.09,0,4.903,0,4.903,0
		c44.541,0,377.81,0,389.577,0c26.182,0,62.358-6.586,62.358-41.522C594.876,1058.898,558.698,1052.932,524.808,1052.961z"/>
</g>
</svg>
