<?xml version="1.0" encoding="utf-8"?>
<!-- Generator: Adobe Illustrator 16.0.0, SVG Export Plug-In . SVG Version: 6.00 Build 0)  -->
<!DOCTYPE svg PUBLIC "-//W3C//DTD SVG 1.1//EN" "http://www.w3.org/Graphics/SVG/1.1/DTD/svg11.dtd">
<svg version="1.1" id="Calque_1" xmlns="http://www.w3.org/2000/svg" xmlns:xlink="http://www.w3.org/1999/xlink" x="0px" y="0px"
	 width="1190.551px" height="1190.551px" viewBox="0 0 1190.551 1190.551" enable-background="new 0 0 1190.551 1190.551"
	 xml:space="preserve">
<path fill="#010202" d="M892.916,527.402V294.915H681.823V143.217H456.832v150.197H297.637v226.488h222.027l0.163,143.992H297.636
	v76.103c0,0,159.584,0,212.777,0c36,0,50,10.397,50,48.897v172.965c-56.991-0.002-104.821-0.004-119.839-0.005c0,0-0.224,0-0.644,0
	c-2.777,0-4.262,0-4.262,0v0.001c-13.826,0.004-53.085,0.014-67.969-0.001c-33.889-0.027-70.065,5.938-70.065,43.958
	c0,34.938,36.18,41.522,62.357,41.522c10.555,0,59.851,0,75.675,0c3.091,0,4.903,0,4.903,0c44.541,0,377.81,0,389.578,0
	c26.182,0,62.357-6.586,62.357-41.522c0.004-38.021-36.174-43.986-70.062-43.958c-8.846,0.009-100.467,0.009-192.307,0.007V788.894
	c0-38.5,14-48.897,50-48.897c53.191,0,212.775,0,212.775,0v-76.103H755.319V527.402H892.916z"/>
</svg>
