<?xml version="1.0" encoding="utf-8"?>
<!-- Generator: Adobe Illustrator 16.0.0, SVG Export Plug-In . SVG Version: 6.00 Build 0)  -->
<!DOCTYPE svg PUBLIC "-//W3C//DTD SVG 1.1//EN" "http://www.w3.org/Graphics/SVG/1.1/DTD/svg11.dtd">
<svg version="1.1" id="Calque_1" xmlns="http://www.w3.org/2000/svg" xmlns:xlink="http://www.w3.org/1999/xlink" x="0px" y="0px"
	 width="1190.551px" height="1190.551px" viewBox="0 0 1190.551 1190.551" enable-background="new 0 0 1190.551 1190.551"
	 xml:space="preserve">
<path fill="#010202" d="M595.279,384.185V151.698H384.185V0h-224.99v150.197H0v226.488h222.028l0.163,143.992H-0.001v76.102
	c0,0,159.584,0,212.778,0c36,0,50,10.398,50,48.898v172.965c-56.992-0.002-104.822-0.004-119.839-0.005c0,0-0.224,0-0.644,0
	c-2.777,0-4.262,0-4.262,0v0.001c-13.826,0.004-53.084,0.013-67.968-0.001c-33.889-0.028-70.066,5.938-70.066,43.958
	c0,34.938,36.18,41.522,62.358,41.522c10.554,0,59.85,0,75.675,0c3.09,0,4.903,0,4.903,0c44.541,0,377.81,0,389.577,0
	c26.182,0,62.358-6.586,62.358-41.522c0.005-38.021-36.174-43.987-70.063-43.958c-8.846,0.009-100.466,0.009-192.306,0.007
	l-0.001-172.967c0-38.5,14-48.898,50-48.898c53.193,0,212.777,0,212.777,0v-76.102H457.681V384.185H595.279z"/>
</svg>
