<?xml version="1.0" encoding="utf-8"?>
<!-- Generator: Adobe Illustrator 16.0.0, SVG Export Plug-In . SVG Version: 6.00 Build 0)  -->
<!DOCTYPE svg PUBLIC "-//W3C//DTD SVG 1.1//EN" "http://www.w3.org/Graphics/SVG/1.1/DTD/svg11.dtd">
<svg version="1.1" id="Calque_1" xmlns="http://www.w3.org/2000/svg" xmlns:xlink="http://www.w3.org/1999/xlink" x="0px" y="0px"
	 width="1190.551px" height="1190.551px" viewBox="0 0 1190.551 1190.551" enable-background="new 0 0 1190.551 1190.551"
	 xml:space="preserve">
<g>
	<polygon fill="#010202" points="434.335,621.333 666.821,621.333 666.821,410.239 818.52,410.239 818.52,185.249 668.321,185.249 
		668.321,26.054 441.834,26.054 441.834,248.083 297.842,248.246 297.842,483.735 434.335,483.735 	"/>
	<path fill="#010202" d="M822.649,1079.016c-16.959,0.018-338.194,0.002-381.869,0c0,0-0.224,0-0.644,0c-2.777,0-4.262,0-4.262,0
		l0,0c-13.48,0.004-51.126,0.014-66.796,0h4.865c0,0,0-159.584,0-212.779c0-36,10.397-50,48.897-50h173.09v-32.312v-5.098v-32.312
		h-173.09c-38.5,0-48.897-14-48.897-50c0-53.193,0-212.777,0-212.777h-76.103v295.092v5.098v295.092h69.867
		c-33.832-0.006-69.868,6.01-69.868,43.957c0,34.938,36.18,41.521,62.357,41.521c10.555,0,59.851,0,75.676,0c3.09,0,4.902,0,4.902,0
		c44.541,0,377.81,0,389.578,0c26.182,0,62.357-6.586,62.357-41.521C892.717,1084.953,856.539,1078.986,822.649,1079.016z"/>
</g>
</svg>
