<?xml version="1.0" encoding="utf-8"?>
<!-- Generator: Adobe Illustrator 16.0.0, SVG Export Plug-In . SVG Version: 6.00 Build 0)  -->
<!DOCTYPE svg PUBLIC "-//W3C//DTD SVG 1.1//EN" "http://www.w3.org/Graphics/SVG/1.1/DTD/svg11.dtd">
<svg version="1.1" id="Calque_1" xmlns="http://www.w3.org/2000/svg" xmlns:xlink="http://www.w3.org/1999/xlink" x="0px" y="0px"
	 width="1190.551px" height="1190.551px" viewBox="0 0 1190.551 1190.551" enable-background="new 0 0 1190.551 1190.551"
	 xml:space="preserve">
<g>
	<path fill="#010202" d="M434.332,1036.761h232.486V825.667h151.698v-224.99H668.319V441.481H441.831v222.029l-67.891,0.077
		c0-0.022,0-159.588,0-212.778c0-36,10.397-50,48.897-50h173.091v-32.312v-5.1v-32.312l-173.09,0.001c-38.5,0-48.897-14-48.897-50
		c0-53.193,0-212.777,0-212.777h-76.103V363.4v5.1v295.088h75.876l-75.876,0.085v235.488h136.493V1036.761z"/>
	<path fill="#010202" d="M830.355,1036.762c-10.553,0-59.851,0-75.674,0c-3.093,0-4.904,0-4.904,0c-44.541,0-377.811,0-389.577,0
		c-26.182,0-62.358,6.586-62.358,41.521c-0.002,38.021,36.175,43.986,70.063,43.958c16.96-0.017,338.194-0.002,381.869,0
		c0,0,0.223,0,0.643,0c2.778,0,4.265,0,4.265,0v-0.001c13.824-0.004,53.084-0.013,67.967,0.001
		c33.889,0.028,70.064-5.938,70.064-43.958C892.711,1043.347,856.533,1036.762,830.355,1036.762z"/>
</g>
</svg>
