<?xml version="1.0" encoding="utf-8"?>
<!-- Generator: Adobe Illustrator 16.0.0, SVG Export Plug-In . SVG Version: 6.00 Build 0)  -->
<!DOCTYPE svg PUBLIC "-//W3C//DTD SVG 1.1//EN" "http://www.w3.org/Graphics/SVG/1.1/DTD/svg11.dtd">
<svg version="1.1" id="Calque_1" xmlns="http://www.w3.org/2000/svg" xmlns:xlink="http://www.w3.org/1999/xlink" x="0px" y="0px"
	 width="1190.551px" height="1190.551px" viewBox="0 0 1190.551 1190.551" enable-background="new 0 0 1190.551 1190.551"
	 xml:space="preserve">
<g>
	<path fill="#010202" d="M680.137,885.816c-36,0-50-10.398-50-48.898V663.827h103.584V513.629h159.192V287.141H670.886
		l-0.163-143.991H435.234v136.492H297.636v232.488H508.73v151.698h51.683l0.001,173.091c0,38.5-14,48.898-50,48.898
		c-53.192,0-212.776,0-212.776,0v76.102h295.091h5.1h295.088v-76.102C892.915,885.816,733.331,885.816,680.137,885.816z"/>
	<path fill="#010202" d="M830.152,961.919c-10.553,0-59.851,0-75.674,0c-3.093,0-4.904,0-4.904,0c-44.541,0-377.811,0-389.577,0
		c-26.182,0-62.358,6.587-62.358,41.524c-0.002,38.019,36.175,43.984,70.063,43.958c16.96-0.019,338.194-0.004,381.869,0
		c0,0,0.223,0,0.643,0c2.778,0,4.265,0,4.265,0v-0.003c13.824-0.004,53.084-0.013,67.967,0.003
		c33.889,0.026,70.064-5.938,70.064-43.958C892.508,968.506,856.33,961.919,830.152,961.919z"/>
</g>
</svg>
