<?xml version="1.0" encoding="utf-8"?>
<!-- Generator: Adobe Illustrator 16.0.0, SVG Export Plug-In . SVG Version: 6.00 Build 0)  -->
<!DOCTYPE svg PUBLIC "-//W3C//DTD SVG 1.1//EN" "http://www.w3.org/Graphics/SVG/1.1/DTD/svg11.dtd">
<svg version="1.1" id="Calque_1" xmlns="http://www.w3.org/2000/svg" xmlns:xlink="http://www.w3.org/1999/xlink" x="0px" y="0px"
	 width="1190.551px" height="1190.551px" viewBox="0 0 1190.551 1190.551" enable-background="new 0 0 1190.551 1190.551"
	 xml:space="preserve">
<g>
	<path fill="#010202" d="M136.493,968.452H368.98V757.358h151.698V532.368H370.48V373.173H143.992v222.029l-67.89,0.077
		c0-0.022,0-159.588,0-212.778c0-36,10.397-50,48.897-50h173.091v-32.312v-5.1v-32.312L125,262.778c-38.5,0-48.897-14-48.897-50
		c0-53.193,0-212.777,0-212.777H0v295.091v5.1V595.28h75.876L0,595.365v235.488h136.493V968.452z"/>
	<path fill="#010202" d="M532.516,968.453c-10.553,0-59.85,0-75.674,0c-3.092,0-4.904,0-4.904,0c-44.541,0-377.811,0-389.577,0
		c-26.182,0-62.359,6.586-62.359,41.522c-0.002,38.021,36.175,43.986,70.064,43.958c16.96-0.017,338.194-0.002,381.869,0
		c0,0,0.223,0,0.643,0c2.778,0,4.264,0,4.264,0v-0.001c13.824-0.004,53.084-0.013,67.967,0.001
		c33.889,0.028,70.065-5.938,70.065-43.958C594.873,975.038,558.695,968.453,532.516,968.453z"/>
</g>
</svg>
