<?xml version="1.0" encoding="utf-8"?>
<!-- Generator: Adobe Illustrator 16.0.0, SVG Export Plug-In . SVG Version: 6.00 Build 0)  -->
<!DOCTYPE svg PUBLIC "-//W3C//DTD SVG 1.1//EN" "http://www.w3.org/Graphics/SVG/1.1/DTD/svg11.dtd">
<svg version="1.1" id="Calque_1" xmlns="http://www.w3.org/2000/svg" xmlns:xlink="http://www.w3.org/1999/xlink" x="0px" y="0px"
	 width="1190.551px" height="1190.551px" viewBox="0 0 1190.551 1190.551" enable-background="new 0 0 1190.551 1190.551"
	 xml:space="preserve">
<g>
	<polygon fill="#010202" points="520.678,159.195 370.48,159.195 370.48,0 143.992,0 143.992,222.029 0,222.192 0,457.681 
		136.493,457.681 136.493,595.279 368.98,595.279 368.98,384.185 410.504,384.185 520.678,384.185 	"/>
	<path fill="#010202" d="M76.103,670.46c0-53.194,0-212.778,0-212.778H0v295.091v5.099v295.091h76.103c0,0,0-159.584,0-212.779
		c0-36,10.397-50,48.897-50h173.091V757.87v-5.099V720.46H125C86.5,720.46,76.103,706.46,76.103,670.46z"/>
	<path fill="#010202" d="M368.981,446.543c0,10.554,0,59.85,0,75.675c0,3.09,0,4.903,0,4.903c0,44.541,0,377.811,0,389.576
		c0,26.184,6.586,62.36,41.523,62.36c38.02,0.002,43.985-36.175,43.959-70.065c-0.019-16.96-0.002-338.192,0-381.868
		c0,0,0-0.224,0-0.644c0-2.777,0-4.262,0-4.262h-0.001c-0.006-13.826-0.015-53.084,0.001-67.968
		c0.026-33.89-5.938-70.066-43.959-70.066C375.566,384.185,368.981,420.365,368.981,446.543z"/>
</g>
</svg>
