<?xml version="1.0" encoding="utf-8"?>
<!-- Generator: Adobe Illustrator 16.0.0, SVG Export Plug-In . SVG Version: 6.00 Build 0)  -->
<!DOCTYPE svg PUBLIC "-//W3C//DTD SVG 1.1//EN" "http://www.w3.org/Graphics/SVG/1.1/DTD/svg11.dtd">
<svg version="1.1" id="Calque_1" xmlns="http://www.w3.org/2000/svg" xmlns:xlink="http://www.w3.org/1999/xlink" x="0px" y="0px"
	 width="1190.551px" height="1190.551px" viewBox="0 0 1190.551 1190.551" enable-background="new 0 0 1190.551 1190.551"
	 xml:space="preserve">
<path fill="#010202" d="M810.522,1036.67c-7.965,0.009-83.046,0.01-164.967,0.008l61.423-44.626c0,0-93.801-129.106-125.069-172.145
	c-21.158-29.123-20.977-46.562,10.172-69.191l140.032-101.74l-18.992-26.142l-2.998-4.125l-18.992-26.142L551.1,694.31
	c-31.147,22.63-47.789,17.414-68.949-11.709c-12.924-17.788-36.531-50.281-59.783-82.285l170.778-124.078l89.166,122.728
	l182.021-132.247l-88.284-121.513l128.791-93.572L771.712,68.4L592.087,198.906L507.319,82.511L316.804,220.927l80.229,110.425
	L285.714,412.23l71.368,98.229l-61.568,44.732l173.45,238.733l2.997,4.125l173.373,238.628
	c-92.449-0.001-193.537-0.007-216.683-0.008c0,0-0.224,0-0.644,0c-2.777,0-4.262,0-4.262,0v0.001
	c-13.826,0.005-53.085,0.014-67.969-0.001c-33.889-0.027-70.065,5.938-70.065,43.958c0,34.938,36.18,41.522,62.357,41.522
	c10.555,0,59.851,0,75.675,0c3.091,0,4.903,0,4.903,0c44.541,0,377.81,0,389.577,0c26.182,0,62.357-6.586,62.357-41.522
	C880.589,1042.606,844.411,1036.642,810.522,1036.67z"/>
</svg>
