<?xml version="1.0" encoding="utf-8"?>
<!-- Generator: Adobe Illustrator 16.0.0, SVG Export Plug-In . SVG Version: 6.00 Build 0)  -->
<!DOCTYPE svg PUBLIC "-//W3C//DTD SVG 1.1//EN" "http://www.w3.org/Graphics/SVG/1.1/DTD/svg11.dtd">
<svg version="1.1" id="Calque_1" xmlns="http://www.w3.org/2000/svg" xmlns:xlink="http://www.w3.org/1999/xlink" x="0px" y="0px"
	 width="1190.551px" height="1190.551px" viewBox="0 0 1190.551 1190.551" enable-background="new 0 0 1190.551 1190.551"
	 xml:space="preserve">
<g>
	<path fill="#010202" d="M382.501,742.667c-36,0-50-10.398-50-48.898V520.678h103.584V370.48h159.193V143.991H373.25L373.087,0
		H137.598v136.492H0V368.98h211.094v151.698h51.683l0.001,173.091c0,38.5-14,48.898-50,48.898c-53.193,0-212.777,0-212.777,0v76.102
		h295.091h5.1H595.28v-76.102C595.28,742.667,435.696,742.667,382.501,742.667z"/>
	<path fill="#010202" d="M532.516,818.77c-10.553,0-59.85,0-75.674,0c-3.092,0-4.904,0-4.904,0c-44.541,0-377.811,0-389.577,0
		c-26.182,0-62.359,6.586-62.359,41.524c-0.002,38.019,36.175,43.984,70.064,43.958c16.96-0.019,338.194-0.004,381.869,0
		c0,0,0.223,0,0.643,0c2.778,0,4.264,0,4.264,0v-0.003c13.824-0.004,53.084-0.013,67.967,0.003
		c33.889,0.026,70.065-5.938,70.065-43.958C594.873,825.356,558.695,818.77,532.516,818.77z"/>
</g>
</svg>
