<?xml version="1.0" encoding="utf-8"?>
<!-- Generator: Adobe Illustrator 16.0.0, SVG Export Plug-In . SVG Version: 6.00 Build 0)  -->
<!DOCTYPE svg PUBLIC "-//W3C//DTD SVG 1.1//EN" "http://www.w3.org/Graphics/SVG/1.1/DTD/svg11.dtd">
<svg version="1.1" id="Calque_1" xmlns="http://www.w3.org/2000/svg" xmlns:xlink="http://www.w3.org/1999/xlink" x="0px" y="0px"
	 width="1190.551px" height="1190.551px" viewBox="0 0 1190.551 1190.551" enable-background="new 0 0 1190.551 1190.551"
	 xml:space="preserve">
<path fill="#010202" d="M524.808,968.269c-7.965,0.008-83.046,0.009-164.967,0.007l61.423-44.626
	c0,0-93.801-129.106-125.069-172.144c-21.159-29.123-20.977-46.562,10.171-69.192l140.033-101.74l-18.992-26.141l-2.998-4.126
	l-18.993-26.141l-140.03,101.742c-31.147,22.63-47.789,17.414-68.949-11.709c-12.924-17.788-36.531-50.281-59.783-82.285
	l170.778-124.078l89.166,122.727l182.021-132.246l-88.284-121.513l128.791-93.572L485.999-0.001L306.373,130.505L221.605,14.11
	L31.09,152.526l80.229,110.425L0,343.829l71.368,98.229L9.8,486.79l173.45,238.733l2.997,4.125L359.62,968.276
	c-92.449-0.001-193.537-0.006-216.682-0.007c0,0-0.224,0-0.644,0c-2.777,0-4.262,0-4.262,0v0.001
	c-13.826,0.004-53.084,0.013-67.968-0.001c-33.889-0.028-70.066,5.938-70.066,43.958c0,34.938,36.18,41.522,62.358,41.522
	c10.554,0,59.85,0,75.675,0c3.09,0,4.903,0,4.903,0c44.541,0,377.81,0,389.577,0c26.182,0,62.358-6.586,62.358-41.522
	C594.876,974.205,558.698,968.24,524.808,968.269z"/>
</svg>
