<?xml version="1.0" encoding="utf-8"?>
<!-- Generator: Adobe Illustrator 16.0.0, SVG Export Plug-In . SVG Version: 6.00 Build 0)  -->
<!DOCTYPE svg PUBLIC "-//W3C//DTD SVG 1.1//EN" "http://www.w3.org/Graphics/SVG/1.1/DTD/svg11.dtd">
<svg version="1.1" id="Calque_1" xmlns="http://www.w3.org/2000/svg" xmlns:xlink="http://www.w3.org/1999/xlink" x="0px" y="0px"
	 width="1190.551px" height="1190.551px" viewBox="0 0 1190.551 1190.551" enable-background="new 0 0 1190.551 1190.551"
	 xml:space="preserve">
<g>
	<polygon fill="#010202" points="855.615,227.989 705.416,227.989 705.416,68.794 478.929,68.794 478.929,290.823 334.937,290.986 
		334.937,526.475 471.43,526.475 471.43,664.072 703.916,664.072 703.916,452.979 745.441,452.979 855.615,452.979 	"/>
	<path fill="#010202" d="M411.039,739.254c0-53.194,0-212.778,0-212.778h-76.103v295.091v5.099v295.091h76.103
		c0,0,0-159.584,0-212.779c0-36,10.397-50,48.897-50h173.091v-32.313v-5.099v-32.312H459.937
		C421.437,789.254,411.039,775.254,411.039,739.254z"/>
	<path fill="#010202" d="M703.917,515.337c0,10.554,0,59.85,0,75.675c0,3.09,0,4.903,0,4.903c0,44.541,0,377.811,0,389.576
		c0,26.184,6.586,62.359,41.523,62.359c38.02,0.002,43.984-36.175,43.959-70.064c-0.02-16.96-0.002-338.192,0-381.868
		c0,0,0-0.224,0-0.644c0-2.777,0-4.262,0-4.262h-0.001c-0.007-13.826-0.016-53.084,0.001-67.968
		c0.025-33.89-5.938-70.066-43.959-70.066C710.502,452.979,703.917,489.159,703.917,515.337z"/>
</g>
</svg>
