<?xml version="1.0" encoding="utf-8"?>
<!-- Generator: Adobe Illustrator 16.0.0, SVG Export Plug-In . SVG Version: 6.00 Build 0)  -->
<!DOCTYPE svg PUBLIC "-//W3C//DTD SVG 1.1//EN" "http://www.w3.org/Graphics/SVG/1.1/DTD/svg11.dtd">
<svg version="1.1" id="Calque_1" xmlns="http://www.w3.org/2000/svg" xmlns:xlink="http://www.w3.org/1999/xlink" x="0px" y="0px"
	 width="1190.551px" height="1190.551px" viewBox="0 0 1190.551 1190.551" enable-background="new 0 0 1190.551 1190.551"
	 xml:space="preserve">
<g>
	<path fill="#010202" d="M520.678,373.087V137.598H384.185V0H151.698v211.094H0v224.99v295.092v5.099v295.089h76.103
		c0,0,0-159.584,0-212.778c0-36,10.397-50,48.897-50h173.091v-32.312v-5.099v-32.312H125c-38.5,0-48.897-14-48.897-50
		c0-53.193,0-212.777,0-212.777h74.095v159.194h226.488V443.266V373.25L520.678,373.087z"/>
	<path fill="#010202" d="M376.686,825.135c0,0,0,0.223,0,0.643c0,2.778,0,4.264,0,4.264h0.001
		c0.004,13.826,0.014,53.084-0.001,67.967c-0.027,33.889,5.938,70.066,43.958,70.066c34.938,0,41.524-36.18,41.524-62.358
		c0-10.553,0-59.849,0-75.674c0-3.09,0-4.904,0-4.904c0-44.541,0-377.811,0-389.577c0-26.182-6.586-62.359-41.524-62.359
		c-38.02-0.002-43.985,36.175-43.958,70.064C376.703,460.226,376.688,781.46,376.686,825.135z"/>
</g>
</svg>
