<?xml version="1.0" encoding="utf-8"?>
<!-- Generator: Adobe Illustrator 16.0.0, SVG Export Plug-In . SVG Version: 6.00 Build 0)  -->
<!DOCTYPE svg PUBLIC "-//W3C//DTD SVG 1.1//EN" "http://www.w3.org/Graphics/SVG/1.1/DTD/svg11.dtd">
<svg version="1.1" id="Calque_1" xmlns="http://www.w3.org/2000/svg" xmlns:xlink="http://www.w3.org/1999/xlink" x="0px" y="0px"
	 width="1190.551px" height="1190.551px" viewBox="0 0 1190.551 1190.551" enable-background="new 0 0 1190.551 1190.551"
	 xml:space="preserve">
<path fill="#010202" d="M527.007,770.686L435.82,490.041l93.896,47.841l102.824-201.801L434.71,235.282l65.226-128.372L290.115,0
	l-61.968,121.615L105.546,59.149L-0.002,266.296l188.087,95.833l-68.869,135.164l98.325,50.1c-1.787-0.866-3.714-1.641-5.79-2.315
	c-36.159-11.748-53.011,20.814-63.458,53.055C143.069,614.267,43.787,919.773,30.289,961.31c0,0-0.068,0.212-0.199,0.611
	c-0.859,2.643-1.316,4.054-1.316,4.054h0.001c-4.269,13.151-16.392,50.49-21.004,64.641c-10.499,32.222-16.005,68.473,20.154,80.222
	c33.228,10.796,50.673-21.578,58.762-46.476c3.262-10.036,18.495-56.92,23.385-71.971c0.955-2.938,1.516-4.664,1.516-4.664
	c13.764-42.359,116.748-359.317,120.386-370.509c7.584-23.343,12.378-56.828-14.425-69.822l102.135,52.041l68.189-133.826
	l47.947,24.43l-72.377,23.518c0,0,49.314,151.773,65.753,202.364c11.125,34.238,5.562,50.768-31.054,62.663l-164.62,53.488
	l9.985,30.731l1.575,4.849l9.985,30.73l164.619-53.49c36.616-11.896,50.831-1.794,61.956,32.443
	c16.438,50.59,65.752,202.363,65.752,202.363l72.377-23.517l-91.188-280.648L527.007,770.686z"/>
</svg>
