<?xml version="1.0" encoding="utf-8"?>
<!-- Generator: Adobe Illustrator 16.0.0, SVG Export Plug-In . SVG Version: 6.00 Build 0)  -->
<!DOCTYPE svg PUBLIC "-//W3C//DTD SVG 1.1//EN" "http://www.w3.org/Graphics/SVG/1.1/DTD/svg11.dtd">
<svg version="1.1" id="Calque_1" xmlns="http://www.w3.org/2000/svg" xmlns:xlink="http://www.w3.org/1999/xlink" x="0px" y="0px"
	 width="1190.551px" height="1190.551px" viewBox="0 0 1190.551 1190.551" enable-background="new 0 0 1190.551 1190.551"
	 xml:space="preserve">
<g>
	<polygon fill="#010202" points="602.978,970.976 396.978,970.976 396.978,760.976 508.978,760.976 508.978,557.976 
		634.783,557.976 634.783,407.779 793.977,407.779 793.977,181.291 571.948,181.291 571.785,37.298 336.296,37.298 336.296,173.792 
		198.698,173.792 198.698,406.279 409.792,406.279 409.792,557.976 198.698,557.976 198.698,1153.253 793.978,1153.253 
		793.978,855.615 602.978,855.615 	"/>
	<path fill="#010202" d="M929.495,770.134c-10.556,0-59.852,0-75.677,0c-3.09,0-4.901,0-4.901,0c-44.541,0-377.812,0-389.577,0
		c-26.183,0-62.359,6.586-62.359,41.522c-0.004,38.021,36.175,43.985,70.064,43.958c16.96-0.018,338.191-0.002,381.869,0
		c0,0,0.223,0,0.643,0c2.778,0,4.262,0,4.262,0v-0.001c13.826-0.005,53.084-0.014,67.969,0.001
		c33.89,0.027,70.065-5.938,70.065-43.958C991.853,776.719,955.674,770.134,929.495,770.134z"/>
</g>
</svg>
