<?xml version="1.0" encoding="utf-8"?>
<!-- Generator: Adobe Illustrator 16.0.0, SVG Export Plug-In . SVG Version: 6.00 Build 0)  -->
<!DOCTYPE svg PUBLIC "-//W3C//DTD SVG 1.1//EN" "http://www.w3.org/Graphics/SVG/1.1/DTD/svg11.dtd">
<svg version="1.1" id="Calque_1" xmlns="http://www.w3.org/2000/svg" xmlns:xlink="http://www.w3.org/1999/xlink" x="0px" y="0px"
	 width="1190.551px" height="1190.551px" viewBox="0 0 1190.551 1190.551" enable-background="new 0 0 1190.551 1190.551"
	 xml:space="preserve">
<path fill="#010202" d="M935.656,107.364c0.025-33.889-5.938-70.066-43.958-70.066c-34.938,0-41.524,36.18-41.524,62.358
	c0,10.554,0,59.85,0,75.675c0,3.09,0,4.903,0,4.903c0,40.246,0,316.214,0,377.742H712.575V421.482h137.598V188.995H639.079V37.298
	h-224.99v150.196H254.895v226.488h222.027l0.163,143.993h-222.19v297.64h191V740.255h206v210h-112v202.998h310.279V569.811
	c0,26.181,6.586,62.359,41.524,62.359c38.02,0.003,43.984-36.174,43.958-70.064c-0.02-16.96-0.002-338.194,0-381.869
	c0,0,0-0.223,0-0.644c0-2.777,0-4.262,0-4.262h-0.001C935.652,161.505,935.64,122.247,935.656,107.364z"/>
</svg>
