<?xml version="1.0" encoding="utf-8"?>
<!-- Generator: Adobe Illustrator 16.0.0, SVG Export Plug-In . SVG Version: 6.00 Build 0)  -->
<!DOCTYPE svg PUBLIC "-//W3C//DTD SVG 1.1//EN" "http://www.w3.org/Graphics/SVG/1.1/DTD/svg11.dtd">
<svg version="1.1" id="Calque_1" xmlns="http://www.w3.org/2000/svg" xmlns:xlink="http://www.w3.org/1999/xlink" x="0px" y="0px"
	 width="1190.551px" height="1190.551px" viewBox="0 0 1190.551 1190.551" enable-background="new 0 0 1190.551 1190.551"
	 xml:space="preserve">
<g>
	<polygon fill="#010202" points="384.185,595.28 595.278,595.28 595.278,0 297.639,0 297.639,191 413,191 413,397 203,397 203,285 
		0,285 0,595.28 159.195,595.28 159.195,745.477 0,745.477 0,971.966 222.029,971.966 222.192,1115.957 457.681,1115.957 
		457.681,979.465 595.279,979.465 595.279,746.977 384.185,746.977 	"/>
	<path fill="#010202" d="M680.761,284.498c0.026-33.889-5.938-70.066-43.958-70.066c-34.938,0-41.524,36.18-41.524,62.358
		c0,10.554,0,59.85,0,75.675c0,3.09,0,4.903,0,4.903c0,44.541,0,377.811,0,389.577c0,26.182,6.586,62.358,41.524,62.358
		c38.019,0.005,43.984-36.174,43.958-70.063c-0.019-16.96-0.002-338.194,0-381.869c0,0,0-0.223,0-0.644c0-2.777,0-4.262,0-4.262
		h-0.001C680.756,338.64,680.745,299.382,680.761,284.498z"/>
</g>
</svg>
