<?xml version="1.0" encoding="utf-8"?>
<!-- Generator: Adobe Illustrator 16.0.0, SVG Export Plug-In . SVG Version: 6.00 Build 0)  -->
<!DOCTYPE svg PUBLIC "-//W3C//DTD SVG 1.1//EN" "http://www.w3.org/Graphics/SVG/1.1/DTD/svg11.dtd">
<svg version="1.1" id="Calque_1" xmlns="http://www.w3.org/2000/svg" xmlns:xlink="http://www.w3.org/1999/xlink" x="0px" y="0px"
	 width="1190.551px" height="1190.551px" viewBox="0 0 1190.551 1190.551" enable-background="new 0 0 1190.551 1190.551"
	 xml:space="preserve">
<g>
	<polygon fill="#010202" points="639.079,632.577 850.172,632.577 850.172,37.297 552.534,37.297 552.534,228.297 667.895,228.297 
		667.895,434.297 457.895,434.297 457.895,322.297 254.895,322.297 254.895,632.577 414.09,632.577 414.09,782.773 254.895,782.773 
		254.895,1009.263 476.924,1009.263 477.087,1153.254 712.575,1153.254 712.575,1016.762 850.173,1016.762 850.173,784.273 
		639.079,784.273 	"/>
	<path fill="#010202" d="M935.656,321.795c0.025-33.889-5.938-70.066-43.958-70.066c-34.938,0-41.524,36.18-41.524,62.358
		c0,10.554,0,59.85,0,75.675c0,3.09,0,4.903,0,4.903c0,44.541,0,377.811,0,389.577c0,26.182,6.586,62.357,41.524,62.357
		c38.019,0.005,43.983-36.174,43.958-70.062c-0.02-16.96-0.002-338.194,0-381.869c0,0,0-0.223,0-0.644c0-2.777,0-4.262,0-4.262
		h-0.001C935.651,375.937,935.639,336.679,935.656,321.795z"/>
</g>
</svg>
