<?xml version="1.0" encoding="utf-8"?>
<!-- Generator: Adobe Illustrator 16.0.0, SVG Export Plug-In . SVG Version: 6.00 Build 0)  -->
<!DOCTYPE svg PUBLIC "-//W3C//DTD SVG 1.1//EN" "http://www.w3.org/Graphics/SVG/1.1/DTD/svg11.dtd">
<svg version="1.1" id="Calque_1" xmlns="http://www.w3.org/2000/svg" xmlns:xlink="http://www.w3.org/1999/xlink" x="0px" y="0px"
	 width="1190.551px" height="1190.551px" viewBox="0 0 1190.551 1190.551" enable-background="new 0 0 1190.551 1190.551"
	 xml:space="preserve">
<path fill="#010202" d="M894.131,37.298c-38.018-0.002-43.984,36.176-43.957,70.064c0.02,16.96,0.002,338.194,0,381.869V107.363
	V37.297H552.535v191h115.362v206h-210v-112h-203v310.28h137.598v136.494H254.896v232.487H465.99v151.695h224.991v-150.195h159.193
	V776.57H628.147l-0.164-143.993h222.189v-70.472v-67.968h0.002c0.004,13.826,0.012,53.084-0.002,67.968
	c-0.025,33.889,5.939,70.066,43.959,70.066c34.938,0,41.523-36.181,41.523-62.358c0-10.554,0-59.85,0-75.675c0-3.09,0-4.903,0-4.903
	c0-44.541,0-377.811,0-389.577C935.656,73.476,929.071,37.298,894.131,37.298z"/>
</svg>
