<?xml version="1.0" encoding="utf-8"?>
<!-- Generator: Adobe Illustrator 16.0.0, SVG Export Plug-In . SVG Version: 6.00 Build 0)  -->
<!DOCTYPE svg PUBLIC "-//W3C//DTD SVG 1.1//EN" "http://www.w3.org/Graphics/SVG/1.1/DTD/svg11.dtd">
<svg version="1.1" id="Calque_1" xmlns="http://www.w3.org/2000/svg" xmlns:xlink="http://www.w3.org/1999/xlink" x="0px" y="0px"
	 width="1190.551px" height="1190.551px" viewBox="0 0 1190.551 1190.551" enable-background="new 0 0 1190.551 1190.551"
	 xml:space="preserve">
<path fill="#010202" d="M928.584,820.075V584.586H792.092V446.988H559.605v20.094H444.244v-206h210v112h203V62.802H261.967v595.28
	h145.94v224.989h150.197v159.196c-106.065,0-226.78,0-233.778,0c-26.182,0-62.358,6.586-62.358,41.522
	c-0.002,38.021,36.175,43.985,70.063,43.958c16.96-0.018,338.194-0.002,381.87,0c0,0,0.223,0,0.643,0c2.777,0,4.264,0,4.264,0
	v-0.001c13.824-0.004,53.084-0.014,67.967,0.001c33.889,0.027,70.064-5.938,70.064-43.958c0-34.938-36.178-41.522-62.355-41.522
	c-2.031,0-5.504,0-9.889,0v-222.03L928.584,820.075z"/>
</svg>
