<?xml version="1.0" encoding="utf-8"?>
<!-- Generator: Adobe Illustrator 16.0.0, SVG Export Plug-In . SVG Version: 6.00 Build 0)  -->
<!DOCTYPE svg PUBLIC "-//W3C//DTD SVG 1.1//EN" "http://www.w3.org/Graphics/SVG/1.1/DTD/svg11.dtd">
<svg version="1.1" id="Calque_1" xmlns="http://www.w3.org/2000/svg" xmlns:xlink="http://www.w3.org/1999/xlink" x="0px" y="0px"
	 width="1190.551px" height="1190.551px" viewBox="0 0 1190.551 1190.551" enable-background="new 0 0 1190.551 1190.551"
	 xml:space="preserve">
<g>
	<polygon fill="#010202" points="404.28,933.678 198.28,933.678 198.28,723.678 310.28,723.678 310.28,520.678 436.085,520.678 
		436.085,370.481 595.279,370.481 595.279,143.993 373.25,143.993 373.087,0 137.598,0 137.598,136.494 0,136.494 0,368.981 
		211.094,368.981 211.094,520.678 0,520.678 0,1115.955 595.28,1115.955 595.28,818.317 404.28,818.317 	"/>
	<path fill="#010202" d="M730.797,732.836c-10.555,0-59.851,0-75.676,0c-3.09,0-4.902,0-4.902,0c-44.541,0-377.812,0-389.577,0
		c-26.183,0-62.36,6.586-62.36,41.522c-0.003,38.021,36.175,43.986,70.065,43.958c16.96-0.017,338.192-0.002,381.869,0
		c0,0,0.223,0,0.643,0c2.778,0,4.262,0,4.262,0v-0.001c13.826-0.004,53.084-0.013,67.968,0.001
		c33.89,0.028,70.066-5.938,70.066-43.958C793.155,739.421,756.976,732.836,730.797,732.836z"/>
</g>
</svg>
