<?xml version="1.0" encoding="utf-8"?>
<!-- Generator: Adobe Illustrator 16.0.0, SVG Export Plug-In . SVG Version: 6.00 Build 0)  -->
<!DOCTYPE svg PUBLIC "-//W3C//DTD SVG 1.1//EN" "http://www.w3.org/Graphics/SVG/1.1/DTD/svg11.dtd">
<svg version="1.1" id="Calque_1" xmlns="http://www.w3.org/2000/svg" xmlns:xlink="http://www.w3.org/1999/xlink" x="0px" y="0px"
	 width="1190.551px" height="1190.551px" viewBox="0 0 1190.551 1190.551" enable-background="new 0 0 1190.551 1190.551"
	 xml:space="preserve">
<path fill="#010202" d="M639.081,0.001c-38.021-0.002-43.986,36.176-43.958,70.064c0.01,9.983,0.009,125.4,0.006,227.573H404.28V413
	h-206V203h112V0H0v595.277h159.194v150.197H0v226.489h222.028l0.163,143.991h235.489V979.463h137.598V746.975H384.185V595.278
	H595.28v-61.397c1.134,30.967,9.164,60.994,43.802,60.994c34.938,0,41.524-36.18,41.524-62.358c0-10.554,0-59.85,0-75.675
	c0-3.09,0-4.903,0-4.903c0-44.541,0-377.811,0-389.577C680.606,36.179,674.02,0.001,639.081,0.001z"/>
</svg>
