<?xml version="1.0" encoding="utf-8"?>
<!-- Generator: Adobe Illustrator 16.0.0, SVG Export Plug-In . SVG Version: 6.00 Build 0)  -->
<!DOCTYPE svg PUBLIC "-//W3C//DTD SVG 1.1//EN" "http://www.w3.org/Graphics/SVG/1.1/DTD/svg11.dtd">
<svg version="1.1" id="Calque_1" xmlns="http://www.w3.org/2000/svg" xmlns:xlink="http://www.w3.org/1999/xlink" x="0px" y="0px"
	 width="1190.551px" height="1190.551px" viewBox="0 0 1190.551 1190.551" enable-background="new 0 0 1190.551 1190.551"
	 xml:space="preserve">
<path fill="#010202" d="M680.762,70.066c0.026-33.889-5.938-70.066-43.958-70.066c-34.938,0-41.524,36.18-41.524,62.358
	c0,10.554,0,59.85,0,75.675c0,3.09,0,4.903,0,4.903c0,17.959,0,82.863,0,154.703h-191V413h-206V203h112V0H0v595.277h159.194v150.197
	H0v226.489h222.028l0.163,143.991h235.489V979.463h137.598V746.975H384.185V595.278H595.28v-62.765
	c0,26.182,6.586,62.359,41.524,62.359c38.02,0.003,43.985-36.174,43.958-70.064c-0.019-16.96-0.002-338.194,0-381.869
	c0,0,0-0.223,0-0.644c0-2.777,0-4.262,0-4.262h-0.001C680.757,124.207,680.746,84.949,680.762,70.066z"/>
</svg>
