<?xml version="1.0" encoding="utf-8"?>
<!-- Generator: Adobe Illustrator 16.0.0, SVG Export Plug-In . SVG Version: 6.00 Build 0)  -->
<!DOCTYPE svg PUBLIC "-//W3C//DTD SVG 1.1//EN" "http://www.w3.org/Graphics/SVG/1.1/DTD/svg11.dtd">
<svg version="1.1" id="Calque_1" xmlns="http://www.w3.org/2000/svg" xmlns:xlink="http://www.w3.org/1999/xlink" x="0px" y="0px"
	 width="1190.551px" height="1190.551px" viewBox="0 0 1190.551 1190.551" enable-background="new 0 0 1190.551 1190.551"
	 xml:space="preserve">
<path fill="#010202" d="M639.236,0.001c-38.019-0.002-43.985,36.176-43.958,70.064c0.019,16.96,0.002,338.194,0,381.869V70.066V0
	H297.639v191H413v206H203V285H0V595.28h137.598v136.494H0v232.488h211.094v151.695h224.991V965.762h159.193V739.273H373.25
	l-0.163-143.993h222.19v-70.472V456.84h0.001c0.004,13.826,0.013,53.084-0.001,67.968c-0.027,33.889,5.938,70.066,43.958,70.066
	c34.938,0,41.524-36.18,41.524-62.358c0-10.554,0-59.85,0-75.675c0-3.09,0-4.903,0-4.903c0-44.541,0-377.811,0-389.577
	C680.76,36.179,674.174,0.001,639.236,0.001z"/>
</svg>
