<?xml version="1.0" encoding="utf-8"?>
<!-- Generator: Adobe Illustrator 16.0.0, SVG Export Plug-In . SVG Version: 6.00 Build 0)  -->
<!DOCTYPE svg PUBLIC "-//W3C//DTD SVG 1.1//EN" "http://www.w3.org/Graphics/SVG/1.1/DTD/svg11.dtd">
<svg version="1.1" id="Calque_1" xmlns="http://www.w3.org/2000/svg" xmlns:xlink="http://www.w3.org/1999/xlink" x="0px" y="0px"
	 width="1190.551px" height="1190.551px" viewBox="0 0 1190.551 1190.551" enable-background="new 0 0 1190.551 1190.551"
	 xml:space="preserve">
<path fill="#010202" d="M1016.761,392.493V254.895H784.273v211.094H632.575V254.895H334.937v191h115.361v206h-210v-112h-203v310.28
	h62.359c-26.182,0-62.358,6.586-62.358,41.523c-0.002,38.021,36.175,43.985,70.063,43.958c16.96-0.019,338.194-0.002,381.869,0
	c0,0,0.223,0,0.643,0c2.778,0,4.265,0,4.265,0v-0.001c13.823-0.004,53.084-0.015,67.967,0.001
	c33.889,0.026,70.064-5.938,70.064-43.958c0-34.938-36.179-41.523-62.356-41.523h62.762V690.979h150.197v159.193h226.489V628.145
	l143.991-0.163V392.493H1016.761z"/>
</svg>
