<?xml version="1.0" encoding="utf-8"?>
<!-- Generator: Adobe Illustrator 16.0.0, SVG Export Plug-In . SVG Version: 6.00 Build 0)  -->
<!DOCTYPE svg PUBLIC "-//W3C//DTD SVG 1.1//EN" "http://www.w3.org/Graphics/SVG/1.1/DTD/svg11.dtd">
<svg version="1.1" id="Calque_1" xmlns="http://www.w3.org/2000/svg" xmlns:xlink="http://www.w3.org/1999/xlink" x="0px" y="0px"
	 width="1190.551px" height="1190.551px" viewBox="0 0 1190.551 1190.551" enable-background="new 0 0 1190.551 1190.551"
	 xml:space="preserve">
<path fill="#010202" d="M965.762,159.195V0H739.273v222.028l-143.993,0.163V0H0v297.639h191c0,9.374,0,17.686,0,22.672
	c0,3.09,0,4.903,0,4.903c0,44.541,0,377.811,0,389.578c0,26.182,6.586,62.358,41.523,62.358
	c38.021,0.002,43.987-36.175,43.958-70.063c-0.018-16.96-0.002-338.194,0-381.869c0,0,0-0.224,0-0.644c0-2.778,0-4.263,0-4.263
	h-0.001c-0.004-13.826-0.014-53.084,0.001-67.967c0.028-33.89-5.938-70.067-43.958-70.067c-34.938,0-41.523,36.18-41.523,62.359
	v-62.359h41.523H397v210H285v203H595.28V457.681h136.494v137.598h232.488V384.185h151.695v-224.99H965.762z"/>
</svg>
