<?xml version="1.0" encoding="utf-8"?>
<!-- Generator: Adobe Illustrator 16.0.0, SVG Export Plug-In . SVG Version: 6.00 Build 0)  -->
<!DOCTYPE svg PUBLIC "-//W3C//DTD SVG 1.1//EN" "http://www.w3.org/Graphics/SVG/1.1/DTD/svg11.dtd">
<svg version="1.1" id="Calque_1" xmlns="http://www.w3.org/2000/svg" xmlns:xlink="http://www.w3.org/1999/xlink" x="0px" y="0px"
	 width="1190.551px" height="1190.551px" viewBox="0 0 1190.551 1190.551" enable-background="new 0 0 1190.551 1190.551"
	 xml:space="preserve">
<path fill="#010202" d="M894.053,37.299c-38.021-0.002-43.985,36.176-43.958,70.064c0.011,9.983,0.01,125.4,0.007,227.573h-190.85
	v115.362h-206v-210h112v-203H254.973v595.277h159.193v150.196H254.973v226.49H477l0.163,143.99h235.489v-136.49H850.25V784.273
	H639.157V632.576h211.095v-61.397c1.134,30.967,9.164,60.995,43.803,60.995c34.938,0,41.523-36.18,41.523-62.358
	c0-10.554,0-59.85,0-75.675c0-3.09,0-4.903,0-4.903c0-44.541,0-377.811,0-389.577C935.578,73.478,928.992,37.299,894.053,37.299z"/>
</svg>
