<?xml version="1.0" encoding="utf-8"?>
<!-- Generator: Adobe Illustrator 16.0.0, SVG Export Plug-In . SVG Version: 6.00 Build 0)  -->
<!DOCTYPE svg PUBLIC "-//W3C//DTD SVG 1.1//EN" "http://www.w3.org/Graphics/SVG/1.1/DTD/svg11.dtd">
<svg version="1.1" id="Calque_1" xmlns="http://www.w3.org/2000/svg" xmlns:xlink="http://www.w3.org/1999/xlink" x="0px" y="0px"
	 width="1190.551px" height="1190.551px" viewBox="0 0 1190.551 1190.551" enable-background="new 0 0 1190.551 1190.551"
	 xml:space="preserve">
<path fill="#010202" d="M979.463,137.598V0H746.975v211.094H595.278V0H297.639v191H413v206H203V285H0V595.28h62.36
	c-26.182,0-62.359,6.586-62.359,41.524c-0.002,38.02,36.175,43.985,70.064,43.958c16.96-0.019,338.194-0.002,381.869,0
	c0,0,0.223,0,0.643,0c2.778,0,4.264,0,4.264,0v-0.001c13.824-0.004,53.084-0.015,67.967,0.001
	c33.889,0.026,70.065-5.938,70.065-43.958c0-34.938-36.179-41.524-62.357-41.524h62.762V436.084h150.197v159.194h226.489V373.25
	l143.991-0.163V137.598H979.463z"/>
</svg>
