<?xml version="1.0" encoding="utf-8"?>
<!-- Generator: Adobe Illustrator 16.0.0, SVG Export Plug-In . SVG Version: 6.00 Build 0)  -->
<!DOCTYPE svg PUBLIC "-//W3C//DTD SVG 1.1//EN" "http://www.w3.org/Graphics/SVG/1.1/DTD/svg11.dtd">
<svg version="1.1" id="Calque_1" xmlns="http://www.w3.org/2000/svg" xmlns:xlink="http://www.w3.org/1999/xlink" x="0px" y="0px"
	 width="1190.551px" height="1190.551px" viewBox="0 0 1190.551 1190.551" enable-background="new 0 0 1190.551 1190.551"
	 xml:space="preserve">
<path fill="#010202" d="M983.653,627.324V489.728H751.166c0-111.435,0-312.726,0-321.823c0-26.182-6.586-62.359-41.523-62.359
	c-38.02-0.002-43.984,36.176-43.959,70.064c0.02,16.96,0.002,338.194,0,381.869V175.609v-70.066H70.405v297.639h191V287.821h206v210
	h-112v203h244.064v224.989h150.197v159.197h226.488V862.977l143.992-0.162v-235.49H983.653z M751.166,700.821h-85.482v-70.47
	v-67.968h0.002c0.004,13.826,0.014,53.083-0.002,67.968c-0.025,33.889,5.939,70.066,43.959,70.066
	c34.938,0,41.523-36.181,41.523-62.358V700.821z"/>
</svg>
