<?xml version="1.0" encoding="utf-8"?>
<!-- Generator: Adobe Illustrator 16.0.0, SVG Export Plug-In . SVG Version: 6.00 Build 0)  -->
<!DOCTYPE svg PUBLIC "-//W3C//DTD SVG 1.1//EN" "http://www.w3.org/Graphics/SVG/1.1/DTD/svg11.dtd">
<svg version="1.1" id="Calque_1" xmlns="http://www.w3.org/2000/svg" xmlns:xlink="http://www.w3.org/1999/xlink" x="0px" y="0px"
	 width="1190.551px" height="1190.551px" viewBox="0 0 1190.551 1190.551" enable-background="new 0 0 1190.551 1190.551"
	 xml:space="preserve">
<path fill="#010202" d="M666.619,757.273V521.784H530.125V384.186H297.639v20.094H182.278v-206h210v112h203V0H0V595.28h145.941
	v224.99h150.197v159.196c-106.065,0-226.78,0-233.778,0c-26.182,0-62.359,6.586-62.359,41.522
	c-0.002,38.021,36.175,43.986,70.064,43.958c16.96-0.017,338.194-0.002,381.869,0c0,0,0.223,0,0.643,0c2.778,0,4.264,0,4.264,0
	v-0.001c13.824-0.004,53.084-0.013,67.967,0.001c33.889,0.028,70.065-5.938,70.065-43.958c0-34.938-36.179-41.522-62.357-41.522
	c-2.03,0-5.504,0-9.889,0v-222.03L666.619,757.273z"/>
</svg>
