<?xml version="1.0" encoding="utf-8"?>
<!-- Generator: Adobe Illustrator 16.0.0, SVG Export Plug-In . SVG Version: 6.00 Build 0)  -->
<!DOCTYPE svg PUBLIC "-//W3C//DTD SVG 1.1//EN" "http://www.w3.org/Graphics/SVG/1.1/DTD/svg11.dtd">
<svg version="1.1" id="Calque_1" xmlns="http://www.w3.org/2000/svg" xmlns:xlink="http://www.w3.org/1999/xlink" x="0px" y="0px"
	 width="1190.551px" height="1190.551px" viewBox="0 0 1190.551 1190.551" enable-background="new 0 0 1190.551 1190.551"
	 xml:space="preserve">
<path fill="#010202" d="M913.248,521.781V384.184H680.762c0-111.435,0-312.726,0-321.823c0-26.182-6.586-62.359-41.524-62.359
	c-38.019-0.002-43.985,36.176-43.958,70.064c0.019,16.96,0.002,338.194,0,381.869V70.066V0H0v297.639h191V182.278h206v210H285v203
	h244.064v224.99h150.197v159.196H905.75v-222.03l143.992-0.163V521.781H913.248z M680.762,595.278H595.28v-70.47V456.84h0.001
	c0.004,13.826,0.013,53.084-0.001,67.968c-0.027,33.889,5.938,70.066,43.958,70.066c34.938,0,41.524-36.18,41.524-62.358V595.278z"
	/>
</svg>
