<?xml version="1.0" encoding="utf-8"?>
<!-- Generator: Adobe Illustrator 16.0.0, SVG Export Plug-In . SVG Version: 6.00 Build 0)  -->
<!DOCTYPE svg PUBLIC "-//W3C//DTD SVG 1.1//EN" "http://www.w3.org/Graphics/SVG/1.1/DTD/svg11.dtd">
<svg version="1.1" id="Calque_1" xmlns="http://www.w3.org/2000/svg" xmlns:xlink="http://www.w3.org/1999/xlink" x="0px" y="0px"
	 width="1190.551px" height="1190.551px" viewBox="0 0 1190.551 1190.551" enable-background="new 0 0 1190.551 1190.551"
	 xml:space="preserve">
<g>
	<path fill="#010202" d="M431.53,397.182h29.053v160.421h31.579v34.104h117.475v-58.995c0,26.182,6.586,62.358,41.521,62.358
		c38.021,0.002,43.986-36.177,43.959-70.065c-0.018-16.961-0.002-338.195,0-381.87c0,0,0-0.224,0-0.644c0-2.777,0-4.263,0-4.263
		h-0.002c-0.004-13.825-0.012-53.084,0.002-67.967c0.029-33.885-5.938-70.064-43.957-70.064c-34.938,0-41.523,36.18-41.523,62.359
		V48.551h-46.739V0.198h-79.58v40.773H364.583l-66.946,188.211v328.421H431.53V397.182z"/>
	<polygon fill="#010202" points="297.636,595.072 297.636,1190.353 595.275,1190.353 595.275,999.353 479.916,999.353 
		479.916,793.353 689.914,793.353 689.914,905.353 892.914,905.353 892.914,595.072 	"/>
</g>
</svg>
