<?xml version="1.0" encoding="utf-8"?>
<!-- Generator: Adobe Illustrator 16.0.0, SVG Export Plug-In . SVG Version: 6.00 Build 0)  -->
<!DOCTYPE svg PUBLIC "-//W3C//DTD SVG 1.1//EN" "http://www.w3.org/Graphics/SVG/1.1/DTD/svg11.dtd">
<svg version="1.1" id="Calque_1" xmlns="http://www.w3.org/2000/svg" xmlns:xlink="http://www.w3.org/1999/xlink" x="0px" y="0px"
	 width="1190.551px" height="1190.551px" viewBox="0 0 1190.551 1190.551" enable-background="new 0 0 1190.551 1190.551"
	 xml:space="preserve">
<path fill="#010202" d="M892.915,98.895H595.277v191h115.359v206H500.637v-112h-203v310.281H367.7h67.969l0,0
	c-13.826,0.004-53.086,0.014-67.969,0c-33.887-0.027-70.064,5.938-70.064,43.957c0,34.938,36.18,41.523,62.357,41.523H345.99v46.738
	h-48.353v79.58h40.772v118.734l188.21,66.947H855.04V957.762H694.62v-29.053h160.421v-31.578h34.106V779.656h-58.997
	c26.182,0,62.356-6.586,62.356-41.523c0.005-38.02-36.175-43.984-70.062-43.957c-16.961,0.018-338.195,0.002-381.87,0h381.87h70.471
	V98.895L892.915,98.895z"/>
</svg>
