<?xml version="1.0" encoding="utf-8"?>
<!-- Generator: Adobe Illustrator 16.0.0, SVG Export Plug-In . SVG Version: 6.00 Build 0)  -->
<!DOCTYPE svg PUBLIC "-//W3C//DTD SVG 1.1//EN" "http://www.w3.org/Graphics/SVG/1.1/DTD/svg11.dtd">
<svg version="1.1" id="Calque_1" xmlns="http://www.w3.org/2000/svg" xmlns:xlink="http://www.w3.org/1999/xlink" x="0px" y="0px"
	 width="1190.551px" height="1190.551px" viewBox="0 0 1190.551 1190.551" enable-background="new 0 0 1190.551 1190.551"
	 xml:space="preserve">
<path fill="#010202" d="M680.761,70.065C680.788,36.179,674.823,0,636.803,0c-34.938,0-41.524,36.18-41.524,62.358V0H0V595.28
	h297.639l-14.36,40.371v328.421h133.895V803.651h29.053v160.421h31.579v34.104h117.474V532.515c0,26.182,6.586,62.358,41.524,62.358
	c38.02,0.002,43.985-36.177,43.958-70.065c-0.019-16.961-0.002-338.195,0-381.87c0,0,0-0.224,0-0.644c0-2.777,0-4.263,0-4.263
	h-0.001C680.756,124.206,680.745,84.948,680.761,70.065z M595.279,455.02h-46.737v-48.354h-79.579v40.774H350.226l-52.587,147.838
	v-191H182.28v-206h209.999v112h203C595.279,360.804,595.279,413.557,595.279,455.02z"/>
</svg>
