<?xml version="1.0" encoding="utf-8"?>
<!-- Generator: Adobe Illustrator 16.0.0, SVG Export Plug-In . SVG Version: 6.00 Build 0)  -->
<!DOCTYPE svg PUBLIC "-//W3C//DTD SVG 1.1//EN" "http://www.w3.org/Graphics/SVG/1.1/DTD/svg11.dtd">
<svg version="1.1" id="Calque_1" xmlns="http://www.w3.org/2000/svg" xmlns:xlink="http://www.w3.org/1999/xlink" x="0px" y="0px"
	 width="1190.551px" height="1190.551px" viewBox="0 0 1190.551 1190.551" enable-background="new 0 0 1190.551 1190.551"
	 xml:space="preserve">
<path fill="#010202" d="M892.914,98.895H595.275v191h115.36v206h-210v-112h-203v310.28h34.104V828.07H492.16v29.053H331.74v31.578
	h-34.104v117.474h62.359c-26.182,0-62.357,6.586-62.357,41.523c-0.002,38.021,36.176,43.985,70.063,43.958
	c16.961-0.019,338.196-0.002,381.87,0c0,0,0.223,0,0.643,0c2.779,0,4.266,0,4.266,0v-0.001c13.826-0.004,53.084-0.015,67.967,0.001
	c33.885,0.027,70.062-5.938,70.062-43.958c0-34.938-36.178-41.523-62.355-41.523h10.641v-46.736h48.354v-79.58h-40.773V761.121
	l-188.211-66.947h232.754V98.895H892.914z"/>
</svg>
