<?xml version="1.0" encoding="utf-8"?>
<!-- Generator: Adobe Illustrator 16.0.0, SVG Export Plug-In . SVG Version: 6.00 Build 0)  -->
<!DOCTYPE svg PUBLIC "-//W3C//DTD SVG 1.1//EN" "http://www.w3.org/Graphics/SVG/1.1/DTD/svg11.dtd">
<svg version="1.1" id="Calque_1" xmlns="http://www.w3.org/2000/svg" xmlns:xlink="http://www.w3.org/1999/xlink" x="0px" y="0px"
	 width="1190.551px" height="1190.551px" viewBox="0 0 1190.551 1190.551" enable-background="new 0 0 1190.551 1190.551"
	 xml:space="preserve">
<path fill="#010202" d="M901.213,144.382c-38.021-0.002-43.986,36.176-43.958,70.064c0.012,12.062,0.008,178,0.004,288.567h-46.544
	v-48.352h32.378v-310.28H247.815v595.28h297.639v272.405h133.894V851.646h29.056v160.421h31.576v34.104h117.476V679.316
	c1.278,30.588,9.516,59.938,43.76,59.938c34.938,0,41.522-36.181,41.522-62.358c0-10.554,0-59.85,0-75.674c0-3.091,0-4.904,0-4.904
	c0-44.541,0-377.811,0-389.578C942.736,180.559,936.15,144.382,901.213,144.382z M731.135,495.435H612.401l-66.947,188.21V548.661
	H430.094v-206h209.999v112h91.042V495.435L731.135,495.435z"/>
</svg>
