<?xml version="1.0" encoding="utf-8"?>
<!-- Generator: Adobe Illustrator 16.0.0, SVG Export Plug-In . SVG Version: 6.00 Build 0)  -->
<!DOCTYPE svg PUBLIC "-//W3C//DTD SVG 1.1//EN" "http://www.w3.org/Graphics/SVG/1.1/DTD/svg11.dtd">
<svg version="1.1" id="Calque_1" xmlns="http://www.w3.org/2000/svg" xmlns:xlink="http://www.w3.org/1999/xlink" x="0px" y="0px"
	 width="1190.551px" height="1190.551px" viewBox="0 0 1190.551 1190.551" enable-background="new 0 0 1190.551 1190.551"
	 xml:space="preserve">
<g>
	<polygon fill="#010202" points="892.915,409.175 892.915,98.895 297.637,98.895 297.637,694.175 345.99,694.175 345.99,740.912 
		297.637,740.912 297.637,820.492 338.41,820.492 338.41,939.227 526.62,1006.175 822.445,1006.175 855.041,1006.175 
		855.041,872.281 694.62,872.281 694.62,843.227 855.041,843.227 855.041,811.649 889.148,811.649 889.148,694.175 595.276,694.175 
		595.276,503.175 479.916,503.175 479.916,297.175 689.915,297.175 689.915,409.175 	"/>
	<path fill="#010202" d="M440.574,1006.175c0,0-0.224,0-0.644,0c-2.777,0-4.262,0-4.262,0v0.001
		c-13.826,0.004-53.086,0.015-67.969-0.001c-33.887-0.026-70.064,5.938-70.064,43.958c0,34.938,36.18,41.523,62.357,41.523
		c10.555,0,59.851,0,75.676,0c3.09,0,4.902,0,4.902,0c44.541,0,377.81,0,389.578,0c26.182,0,62.356-6.586,62.356-41.523
		c0.004-38.02-36.175-43.984-70.062-43.958C805.484,1006.192,484.249,1006.176,440.574,1006.175z"/>
</g>
</svg>
