<?xml version="1.0" encoding="utf-8"?>
<!-- Generator: Adobe Illustrator 16.0.0, SVG Export Plug-In . SVG Version: 6.00 Build 0)  -->
<!DOCTYPE svg PUBLIC "-//W3C//DTD SVG 1.1//EN" "http://www.w3.org/Graphics/SVG/1.1/DTD/svg11.dtd">
<svg version="1.1" id="Calque_1" xmlns="http://www.w3.org/2000/svg" xmlns:xlink="http://www.w3.org/1999/xlink" x="0px" y="0px"
	 width="1190.551px" height="1190.551px" viewBox="0 0 1190.551 1190.551" enable-background="new 0 0 1190.551 1190.551"
	 xml:space="preserve">
<path fill="#010202" d="M595.279,0H297.64v191h115.359v206H203V285H0V595.28h70.064h67.968v0.001
	c-13.826,0.004-53.085,0.014-67.968-0.001c-33.887-0.027-70.065,5.938-70.065,43.958c0,34.938,36.18,41.524,62.358,41.524H48.353
	v46.737H0v79.58h40.773v118.735l188.21,66.947h328.421V858.867H396.984v-29.053h160.421v-31.579h34.106V680.762h-58.997
	c26.182,0,62.357-6.586,62.357-41.524c0.004-38.019-36.175-43.985-70.063-43.958c-16.961,0.018-338.195,0.002-381.87,0h381.87
	h70.471V0z"/>
</svg>
