<?xml version="1.0" encoding="utf-8"?>
<!-- Generator: Adobe Illustrator 16.0.0, SVG Export Plug-In . SVG Version: 6.00 Build 0)  -->
<!DOCTYPE svg PUBLIC "-//W3C//DTD SVG 1.1//EN" "http://www.w3.org/Graphics/SVG/1.1/DTD/svg11.dtd">
<svg version="1.1" id="Calque_1" xmlns="http://www.w3.org/2000/svg" xmlns:xlink="http://www.w3.org/1999/xlink" x="0px" y="0px"
	 width="1190.551px" height="1190.551px" viewBox="0 0 1190.551 1190.551" enable-background="new 0 0 1190.551 1190.551"
	 xml:space="preserve">
<path fill="#010202" d="M833.148,962.689l66.947-188.209V446.059H766.199V606.48h-29.053V446.059h-31.579v-34.104h180.166v-310.28
	H290.456v595.281h297.639v258.156h46.738v48.291c-88.038-0.002-179.562-0.008-201.439-0.008c0,0-0.224,0-0.644,0
	c-2.777,0-4.262,0-4.262,0l0,0c-13.826,0.006-53.085,0.016-67.969,0c-33.885-0.025-70.063,5.938-70.063,43.957
	c0,34.939,36.18,41.525,62.357,41.525c10.555,0,59.851,0,75.676,0c3.09,0,4.902,0,4.902,0c44.541,0,377.81,0,389.578,0
	c26.182,0,62.357-6.586,62.357-41.525c0.003-38.02-36.177-43.982-70.064-43.957c-5.799,0.006-47.169,0.008-100.85,0.008v-40.713
	H833.148L833.148,962.689z M588.095,411.955v94H472.736v-206h209.999v112H588.095z"/>
</svg>
