<?xml version="1.0" encoding="utf-8"?>
<!-- Generator: Adobe Illustrator 16.0.0, SVG Export Plug-In . SVG Version: 6.00 Build 0)  -->
<!DOCTYPE svg PUBLIC "-//W3C//DTD SVG 1.1//EN" "http://www.w3.org/Graphics/SVG/1.1/DTD/svg11.dtd">
<svg version="1.1" id="Calque_1" xmlns="http://www.w3.org/2000/svg" xmlns:xlink="http://www.w3.org/1999/xlink" x="0px" y="0px"
	 width="1190.551px" height="1190.551px" viewBox="0 0 1190.551 1190.551" enable-background="new 0 0 1190.551 1190.551"
	 xml:space="preserve">
<path fill="#010202" d="M542.692,861.016l66.947-188.21V344.385H475.744v160.421h-29.053V344.385h-31.579V310.28h180.166V0H0V595.28
	h297.639v258.157h46.738v48.291c-88.038-0.002-179.562-0.007-201.439-0.008c0,0-0.224,0-0.644,0c-2.777,0-4.262,0-4.262,0v0.001
	c-13.826,0.006-53.085,0.015-67.968-0.001C36.179,901.694,0,907.658,0,945.678c0,34.938,36.18,41.524,62.358,41.524
	c10.554,0,59.85,0,75.675,0c3.09,0,4.903,0,4.903,0c44.541,0,377.81,0,389.578,0c26.182,0,62.358-6.586,62.358-41.524
	c0.002-38.02-36.177-43.984-70.065-43.958c-5.799,0.007-47.169,0.009-100.85,0.009v-40.713H542.692z M297.639,310.28v94H182.28v-206
	h209.999v112H297.639z"/>
</svg>
