<?xml version="1.0" encoding="utf-8"?>
<!-- Generator: Adobe Illustrator 16.0.0, SVG Export Plug-In . SVG Version: 6.00 Build 0)  -->
<!DOCTYPE svg PUBLIC "-//W3C//DTD SVG 1.1//EN" "http://www.w3.org/Graphics/SVG/1.1/DTD/svg11.dtd">
<svg version="1.1" id="Calque_1" xmlns="http://www.w3.org/2000/svg" xmlns:xlink="http://www.w3.org/1999/xlink" x="0px" y="0px"
	 width="1190.551px" height="1190.551px" viewBox="0 0 1190.551 1190.551" enable-background="new 0 0 1190.551 1190.551"
	 xml:space="preserve">
<path fill="#010202" d="M595.279,0H297.64v191h115.359v206H203V285H0V595.28h34.104v133.896h160.421v29.052H34.105v31.579H0V907.28
	H62.36c-26.182,0-62.358,6.586-62.358,41.524c-0.002,38.02,36.176,43.985,70.064,43.958c16.961-0.019,338.195-0.002,381.87,0
	c0,0,0.223,0,0.643,0c2.778,0,4.264,0,4.264,0v-0.001c13.826-0.004,53.084-0.015,67.967,0.001
	c33.886,0.027,70.064-5.938,70.064-43.958c0-34.938-36.179-41.524-62.357-41.524h10.641v-46.736h48.354v-79.58h-40.774V662.227
	l-188.21-66.947h232.753V0z"/>
</svg>
