<?xml version="1.0" encoding="utf-8"?>
<!-- Generator: Adobe Illustrator 16.0.0, SVG Export Plug-In . SVG Version: 6.00 Build 0)  -->
<!DOCTYPE svg PUBLIC "-//W3C//DTD SVG 1.1//EN" "http://www.w3.org/Graphics/SVG/1.1/DTD/svg11.dtd">
<svg version="1.1" id="Calque_1" xmlns="http://www.w3.org/2000/svg" xmlns:xlink="http://www.w3.org/1999/xlink" x="0px" y="0px"
	 width="1190.551px" height="1190.551px" viewBox="0 0 1190.551 1190.551" enable-background="new 0 0 1190.551 1190.551"
	 xml:space="preserve">
<g>
	<polygon fill="#010202" points="595.279,310.28 595.279,0 0,0 0,595.28 48.353,595.28 48.353,642.018 0,642.018 0,721.598 
		40.774,721.598 40.774,840.332 228.984,907.28 524.808,907.28 557.405,907.28 557.405,773.387 396.984,773.387 396.984,744.332 
		557.405,744.332 557.405,712.755 591.511,712.755 591.511,595.28 297.639,595.28 297.639,404.28 182.28,404.28 182.28,198.28 
		392.279,198.28 392.279,310.28 	"/>
	<path fill="#010202" d="M142.938,907.28c0,0-0.224,0-0.644,0c-2.777,0-4.262,0-4.262,0v0.001
		c-13.826,0.004-53.085,0.015-67.968-0.001c-33.887-0.026-70.065,5.938-70.065,43.958c0,34.938,36.18,41.524,62.358,41.524
		c10.554,0,59.85,0,75.675,0c3.09,0,4.903,0,4.903,0c44.541,0,377.81,0,389.578,0c26.182,0,62.357-6.586,62.357-41.524
		c0.004-38.019-36.175-43.984-70.063-43.958C507.847,907.298,186.613,907.281,142.938,907.28z"/>
</g>
</svg>
