<?xml version="1.0" encoding="utf-8"?>
<!-- Generator: Adobe Illustrator 16.0.0, SVG Export Plug-In . SVG Version: 6.00 Build 0)  -->
<!DOCTYPE svg PUBLIC "-//W3C//DTD SVG 1.1//EN" "http://www.w3.org/Graphics/SVG/1.1/DTD/svg11.dtd">
<svg version="1.1" id="Calque_1" xmlns="http://www.w3.org/2000/svg" xmlns:xlink="http://www.w3.org/1999/xlink" x="0px" y="0px"
	 width="1190.551px" height="1190.551px" viewBox="0 0 1190.551 1190.551" enable-background="new 0 0 1190.551 1190.551"
	 xml:space="preserve">
<path fill="#010202" d="M935.656,166.252c0.026-33.886-5.938-70.065-43.958-70.065c-34.938,0-41.524,36.18-41.524,62.358V96.188
	H254.895v595.28h297.639l-14.36,40.371v328.421h133.896V899.839h29.053v160.421H732.7v34.104h117.474v-465.66
	c0,26.182,6.586,62.357,41.524,62.357c38.02,0.002,43.984-36.177,43.958-70.064c-0.02-16.961-0.002-338.195,0-381.871
	c0,0,0-0.224,0-0.644c0-2.777,0-4.263,0-4.263h-0.001C935.651,220.394,935.639,181.136,935.656,166.252z M850.173,551.208h-46.737
	v-48.354h-79.578v40.774H605.12l-52.587,147.837v-191H437.174v-206h209.999v112h203
	C850.173,456.991,850.173,509.745,850.173,551.208z"/>
</svg>
