<?xml version="1.0" encoding="utf-8"?>
<!-- Generator: Adobe Illustrator 16.0.0, SVG Export Plug-In . SVG Version: 6.00 Build 0)  -->
<!DOCTYPE svg PUBLIC "-//W3C//DTD SVG 1.1//EN" "http://www.w3.org/Graphics/SVG/1.1/DTD/svg11.dtd">
<svg version="1.1" id="Calque_1" xmlns="http://www.w3.org/2000/svg" xmlns:xlink="http://www.w3.org/1999/xlink" x="0px" y="0px"
	 width="1190.551px" height="1190.551px" viewBox="0 0 1190.551 1190.551" enable-background="new 0 0 1190.551 1190.551"
	 xml:space="preserve">
<g>
	<path fill="#010202" d="M133.894,396.984h29.053v160.421h31.579v34.105H312v-58.995c0,26.182,6.586,62.358,41.523,62.358
		c38.021,0.002,43.986-36.177,43.958-70.065c-0.018-16.961-0.002-338.195,0-381.87c0,0,0-0.224,0-0.644c0-2.777,0-4.263,0-4.263
		h-0.001c-0.004-13.825-0.013-53.084,0.001-67.967C397.51,36.179,391.544,0,353.524,0C318.586,0,312,36.18,312,62.359V48.353
		h-46.738V0h-79.58v40.773H66.947L0,228.984v328.421h133.894V396.984z"/>
	<polygon fill="#010202" points="0,594.874 0,1190.154 297.639,1190.154 297.639,999.154 182.28,999.154 182.28,793.154 
		392.279,793.154 392.279,905.154 595.279,905.154 595.279,594.874 	"/>
</g>
</svg>
