<?xml version="1.0" encoding="utf-8"?>
<!-- Generator: Adobe Illustrator 16.0.0, SVG Export Plug-In . SVG Version: 6.00 Build 0)  -->
<!DOCTYPE svg PUBLIC "-//W3C//DTD SVG 1.1//EN" "http://www.w3.org/Graphics/SVG/1.1/DTD/svg11.dtd">
<svg version="1.1" id="Calque_1" xmlns="http://www.w3.org/2000/svg" xmlns:xlink="http://www.w3.org/1999/xlink" x="0px" y="0px"
	 width="1190.551px" height="1190.551px" viewBox="0 0 1190.551 1190.551" enable-background="new 0 0 1190.551 1190.551"
	 xml:space="preserve">
<path fill="#010202" d="M892.239,189.819c-36.75-0.003-43.551,33.795-43.938,66.657v-114.84H305.142v46.737H256.79v79.58h40.772
	v118.735l188.211,66.948H256.79v595.278h595.279V751.354c5.041,19.037,16.271,33.338,40.17,33.338
	c34.939,0,41.523-36.18,41.523-62.357c0-10.555,0-59.851,0-75.676c0-3.09,0-4.902,0-4.902c0-44.541,0-377.812,0-389.579
	C933.762,225.995,927.176,189.819,892.239,189.819z M661.069,751.275v115.361h-206v-210h112v-203h247.125V319.742h-160.42v-29.053
	h160.42V259.11h34.092c0,0.258-0.004,0.516-0.004,0.773c0.018,16.961,0.002,338.194,0,381.871c0,0,0,0.223,0,0.643
	c0,2.777,0,4.263,0,4.263l0,0c0.004,13.826,0.014,53.084,0,67.968c-0.012,12.557,0.809,25.422,3.768,36.648H661.069z"/>
</svg>
