<?xml version="1.0" encoding="utf-8"?>
<!-- Generator: Adobe Illustrator 16.0.0, SVG Export Plug-In . SVG Version: 6.00 Build 0)  -->
<!DOCTYPE svg PUBLIC "-//W3C//DTD SVG 1.1//EN" "http://www.w3.org/Graphics/SVG/1.1/DTD/svg11.dtd">
<svg version="1.1" id="Calque_1" xmlns="http://www.w3.org/2000/svg" xmlns:xlink="http://www.w3.org/1999/xlink" x="0px" y="0px"
	 width="1190.551px" height="1190.551px" viewBox="0 0 1190.551 1190.551" enable-background="new 0 0 1190.551 1190.551"
	 xml:space="preserve">
<path fill="#010202" d="M635.449,48.183c-36.75-0.003-43.551,33.795-43.938,66.657V0H48.353v46.737H0v79.58h40.773v118.735
	L228.984,312H0v595.278H595.28v-297.56c5.04,19.037,16.27,33.337,40.17,33.337c34.938,0,41.522-36.179,41.522-62.358
	c0-10.554,0-59.85,0-75.675c0-3.09,0-4.903,0-4.903c0-44.541,0-377.811,0-389.578C676.972,84.359,670.386,48.183,635.449,48.183z
	 M404.28,609.64V725h-206V515h112V312h247.125V178.106H396.984v-29.053h160.421v-31.579h34.091c0,0.258-0.004,0.516-0.004,0.773
	c0.017,16.961,0.002,338.194,0,381.87c0,0,0,0.224,0,0.644c0,2.777,0,4.262,0,4.262h0.001c0.004,13.826,0.013,53.084-0.001,67.968
	c-0.011,12.556,0.808,25.422,3.768,36.649H404.28z"/>
</svg>
