<?xml version="1.0" encoding="utf-8"?>
<!-- Generator: Adobe Illustrator 16.0.0, SVG Export Plug-In . SVG Version: 6.00 Build 0)  -->
<!DOCTYPE svg PUBLIC "-//W3C//DTD SVG 1.1//EN" "http://www.w3.org/Graphics/SVG/1.1/DTD/svg11.dtd">
<svg version="1.1" id="Calque_1" xmlns="http://www.w3.org/2000/svg" xmlns:xlink="http://www.w3.org/1999/xlink" x="0px" y="0px"
	 width="1190.551px" height="1190.551px" viewBox="0 0 1190.551 1190.551" enable-background="new 0 0 1190.551 1190.551"
	 xml:space="preserve">
<path fill="#010202" d="M833.543,575.427h-79.579v40.772H635.35c145.427-19.574,257.565-144.156,257.565-294.946
	c0-164.382-133.258-297.64-297.64-297.64s-297.64,133.258-297.64,297.64c0,73.082,26.354,139.997,70.058,191.8
	c-6.532-6.764-15.702-10.896-28.535-10.896c-34.937,0-41.522,36.179-41.522,62.359c0,10.553,0,59.849,0,75.675
	c0,3.09,0,4.902,0,4.902c0,44.541,0,377.811,0,389.578c0,26.184,6.586,62.357,41.522,62.357
	c38.021,0.004,43.987-36.174,43.958-70.062c-0.018-16.961-0.002-338.193,0-381.869c0,0,0-0.225,0-0.645c0-2.777,0-4.262,0-4.262
	h-0.001c-0.004-13.826-0.014-53.085,0.001-67.968c0.018-20.637-2.204-42.106-12.517-55.754
	c54.569,62.75,134.987,102.424,224.675,102.424c13.548,0,26.879-0.923,39.947-2.677l-66.941,188.191v328.422h133.896V972.41h29.053
	v160.42h31.579v34.107h117.474V623.779h-46.737L833.543,575.427L833.543,575.427z"/>
</svg>
