<?xml version="1.0" encoding="utf-8"?>
<!-- Generator: Adobe Illustrator 16.0.0, SVG Export Plug-In . SVG Version: 6.00 Build 0)  -->
<!DOCTYPE svg PUBLIC "-//W3C//DTD SVG 1.1//EN" "http://www.w3.org/Graphics/SVG/1.1/DTD/svg11.dtd">
<svg version="1.1" id="Calque_1" xmlns="http://www.w3.org/2000/svg" xmlns:xlink="http://www.w3.org/1999/xlink" x="0px" y="0px"
	 width="1190.551px" height="1190.551px" viewBox="0 0 1190.551 1190.551" enable-background="new 0 0 1190.551 1190.551"
	 xml:space="preserve">
<path fill="#010202" d="M535.908,551.513h-79.579v40.773H337.714C483.141,572.712,595.28,448.13,595.28,297.34
	C595.28,132.958,462.022-0.3,297.64-0.3S0,132.958,0,297.34c0,73.082,26.355,139.997,70.058,191.8
	c-6.532-6.764-15.702-10.896-28.535-10.896C6.586,478.244,0,514.423,0,540.603c0,10.553,0,59.849,0,75.674c0,3.09,0,4.904,0,4.904
	c0,44.541,0,377.81,0,389.578c0,26.182,6.586,62.357,41.523,62.357c38.021,0.004,43.987-36.174,43.958-70.062
	c-0.018-16.961-0.002-338.195,0-381.87c0,0,0-0.224,0-0.645c0-2.776,0-4.262,0-4.262h-0.001
	c-0.004-13.826-0.014-53.084,0.001-67.967c0.017-20.637-2.204-42.106-12.517-55.754c54.569,62.75,134.987,102.424,224.675,102.424
	c13.548,0,26.879-0.923,39.947-2.677l-66.941,188.192v328.421H404.54V948.496h29.053v160.421h31.579v34.106h117.474V599.865h-46.737
	V551.513z"/>
</svg>
