<?xml version="1.0" encoding="utf-8"?>
<!-- Generator: Adobe Illustrator 16.0.0, SVG Export Plug-In . SVG Version: 6.00 Build 0)  -->
<!DOCTYPE svg PUBLIC "-//W3C//DTD SVG 1.1//EN" "http://www.w3.org/Graphics/SVG/1.1/DTD/svg11.dtd">
<svg version="1.1" id="Calque_1" xmlns="http://www.w3.org/2000/svg" xmlns:xlink="http://www.w3.org/1999/xlink" x="0px" y="0px"
	 width="1190.551px" height="1190.551px" viewBox="0 0 1190.551 1190.551" enable-background="new 0 0 1190.551 1190.551"
	 xml:space="preserve">
<g>
	<polygon fill="#010202" points="178.106,34.105 178.106,194.526 149.053,194.526 149.053,34.105 117.474,34.105 117.474,0 0,0 
		0,543.157 46.738,543.157 46.738,591.51 126.318,591.51 126.318,550.736 245.053,550.736 312,362.526 312,70.065 312,34.105 	"/>
	<path fill="#010202" d="M353.246,594.792c0.891,0.043,1.784,0.082,2.712,0.082c34.938,0,41.523-36.18,41.523-62.358
		c0-10.554,0-59.85,0-75.675c0-3.09,0-4.903,0-4.903c0-44.541,0-377.811,0-389.578c0-26.182-6.586-62.358-41.523-62.358
		C317.938-0.002,311.972,36.177,312,70.065c0.018,16.961,0.002,338.195,0,381.87c0,0,0,0.224,0,0.644c0,2.777,0,4.262,0,4.262h0.001
		c0.004,13.826,0.014,53.084-0.001,67.968c-0.023,29.195,4.42,60.066,29.956,68.064c-14.459-2.159-29.255-3.288-44.316-3.288
		C133.258,589.584,0,722.842,0,887.225c0,164.382,133.258,297.64,297.64,297.64s297.64-133.258,297.64-297.64
		C595.28,741.849,491.049,620.838,353.246,594.792z"/>
</g>
</svg>
