<?xml version="1.0" encoding="utf-8"?>
<!-- Generator: Adobe Illustrator 16.0.0, SVG Export Plug-In . SVG Version: 6.00 Build 0)  -->
<!DOCTYPE svg PUBLIC "-//W3C//DTD SVG 1.1//EN" "http://www.w3.org/Graphics/SVG/1.1/DTD/svg11.dtd">
<svg version="1.1" id="Calque_1" xmlns="http://www.w3.org/2000/svg" xmlns:xlink="http://www.w3.org/1999/xlink" x="0px" y="0px"
	 width="1190.551px" height="1190.551px" viewBox="0 0 1190.551 1190.551" enable-background="new 0 0 1190.551 1190.551"
	 xml:space="preserve">
<g>
	<circle fill="#010202" cx="297.459" cy="297.625" r="297.64"/>
	<polygon fill="#010202" points="554.422,677.483 575.618,634.023 504.093,599.138 486.218,635.785 379.5,583.735 236.822,723.55 
		92.851,1018.733 213.195,1077.427 283.518,933.243 309.632,945.978 239.307,1090.164 267.69,1104.008 252.74,1134.661 
		358.325,1186.158 596.429,697.971 	"/>
	<path fill="#010202" d="M906.548,1105.068c-16.961,0.018-338.194,0.002-381.87,0c0,0-0.223,0-0.643,0c-2.778,0-4.262,0-4.262,0
		v0.001c-13.826,0.004-53.084,0.014-67.968-0.001c-33.889-0.027-70.066,5.938-70.066,43.958c0,34.938,36.179,41.524,62.359,41.524
		c10.553,0,59.849,0,75.674,0c3.09,0,4.903,0,4.903,0c44.541,0,377.811,0,389.578,0c26.183,0,62.359-6.586,62.359-41.524
		C976.615,1111.007,940.437,1105.041,906.548,1105.068z"/>
</g>
</svg>
