<?xml version="1.0" encoding="utf-8"?>
<!-- Generator: Adobe Illustrator 16.0.0, SVG Export Plug-In . SVG Version: 6.00 Build 0)  -->
<!DOCTYPE svg PUBLIC "-//W3C//DTD SVG 1.1//EN" "http://www.w3.org/Graphics/SVG/1.1/DTD/svg11.dtd">
<svg version="1.1" id="Calque_1" xmlns="http://www.w3.org/2000/svg" xmlns:xlink="http://www.w3.org/1999/xlink" x="0px" y="0px"
	 width="1190.551px" height="1190.551px" viewBox="0 0 1190.551 1190.551" enable-background="new 0 0 1190.551 1190.551"
	 xml:space="preserve">
<path fill="#010202" d="M635.178,289.177c-26.289-0.002-37.248,17.299-41.502,39.178c1.056-10.195,1.604-20.541,1.604-31.015
	C595.28,132.958,462.022-0.3,297.64-0.3S0,132.958,0,297.34c0,160.02,126.284,290.526,284.625,297.341H34.105v133.894h160.421
	v29.053H34.105v31.579H0V906.68h543.156v-46.737h48.354v-33.894c1.549,29.88,10.148,58.002,43.668,58.002
	c34.938,0,41.524-36.181,41.524-62.359c0-10.553,0-59.849,0-75.674c0-3.09,0-4.904,0-4.904c0-44.541,0-377.811,0-389.578
	C676.702,325.354,670.116,289.177,635.178,289.177z M362.526,594.681h-51.872c142.889-6.15,259.666-113.025,281.098-251.423
	c-0.392,5.285-0.536,10.662-0.532,15.983c0.019,16.961,0.002,338.195,0,381.87c0,0,0,0.223,0,0.643c0,2.778,0,4.264,0,4.264h0.001
	c0.002,7.044,0.006,20.687,0.007,34.346h-40.492V661.627L362.526,594.681z"/>
</svg>
