<?xml version="1.0" encoding="utf-8"?>
<!-- Generator: Adobe Illustrator 16.0.0, SVG Export Plug-In . SVG Version: 6.00 Build 0)  -->
<!DOCTYPE svg PUBLIC "-//W3C//DTD SVG 1.1//EN" "http://www.w3.org/Graphics/SVG/1.1/DTD/svg11.dtd">
<svg version="1.1" id="Calque_1" xmlns="http://www.w3.org/2000/svg" xmlns:xlink="http://www.w3.org/1999/xlink" x="0px" y="0px"
	 width="1190.551px" height="1190.551px" viewBox="0 0 1190.551 1190.551" enable-background="new 0 0 1190.551 1190.551"
	 xml:space="preserve">
<path fill="#010202" d="M931.973,1105.219c-16.961,0.018-338.195,0.002-381.87,0c0,0-0.225,0-0.645,0c-2.777,0-4.263,0-4.263,0l0,0
	c-13.826,0.004-53.084,0.016-67.967,0c-15.226-0.014-30.9,1.195-43.562,5.967l66.851-187.932V594.831h-1.347
	c158.341-6.815,284.626-137.321,284.626-297.341c0-164.382-133.258-297.64-297.64-297.64c-164.382,0-297.64,133.258-297.64,297.64
	c0,160.02,126.284,290.526,284.625,297.341H366.622v160.423h-29.053V594.831H305.99v-34.105H188.517v543.159h46.736v48.352h79.58
	v-40.771h118.109c-15.137,5.922-25.781,17.1-25.781,37.713c0,34.938,36.181,41.523,62.359,41.523c10.553,0,59.849,0,75.674,0
	c3.09,0,4.904,0,4.904,0c44.541,0,377.809,0,389.577,0c26.184,0,62.357-6.586,62.357-41.523
	C1002.039,1111.156,965.862,1105.191,931.973,1105.219z"/>
</svg>
