<?xml version="1.0" encoding="utf-8"?>
<!-- Generator: Adobe Illustrator 16.0.0, SVG Export Plug-In . SVG Version: 6.00 Build 0)  -->
<!DOCTYPE svg PUBLIC "-//W3C//DTD SVG 1.1//EN" "http://www.w3.org/Graphics/SVG/1.1/DTD/svg11.dtd">
<svg version="1.1" id="Calque_1" xmlns="http://www.w3.org/2000/svg" xmlns:xlink="http://www.w3.org/1999/xlink" x="0px" y="0px"
	 width="1190.551px" height="1190.551px" viewBox="0 0 1190.551 1190.551" enable-background="new 0 0 1190.551 1190.551"
	 xml:space="preserve">
<path fill="#010202" d="M1068.578,23.751c-10.553,0-59.85,0-75.674,0c-3.09,0-4.902,0-4.902,0c-44.541,0-377.812,0-389.578,0
	c-26.183,0-62.359,6.586-62.359,41.523c-0.001,9.053,2.068,16.271,5.65,22.041c-50.713-40.104-114.79-64.05-184.463-64.05
	c-164.382,0-297.641,133.258-297.641,297.64s133.259,297.64,297.641,297.64c11.582,0,23.002-0.685,34.24-1.972L324.554,804.76
	v328.421h133.895V972.76h29.053v160.421h31.579v34.104h117.472V624.13h-46.735v-48.354h-78.771
	c86.212-52.134,143.845-146.77,143.845-254.87c0-86.836-37.195-164.979-96.513-219.387c13.281,6.244,30.802,7.729,47.75,7.714
	c16.961-0.019,338.193-0.002,381.869,0c0,0,0.225,0,0.645,0c2.777,0,4.262,0,4.262,0v-0.001c13.826-0.004,53.084-0.014,67.967,0.001
	c33.891,0.027,70.068-5.938,70.068-43.958C1130.938,30.337,1094.76,23.751,1068.578,23.751z M510.237,616.55H391.695
	c42.966-4.951,83.145-19.043,118.542-40.295V616.55z"/>
</svg>
