<?xml version="1.0" encoding="utf-8"?>
<!-- Generator: Adobe Illustrator 16.0.0, SVG Export Plug-In . SVG Version: 6.00 Build 0)  -->
<!DOCTYPE svg PUBLIC "-//W3C//DTD SVG 1.1//EN" "http://www.w3.org/Graphics/SVG/1.1/DTD/svg11.dtd">
<svg version="1.1" id="Calque_1" xmlns="http://www.w3.org/2000/svg" xmlns:xlink="http://www.w3.org/1999/xlink" x="0px" y="0px"
	 width="1190.551px" height="1190.551px" viewBox="0 0 1190.551 1190.551" enable-background="new 0 0 1190.551 1190.551"
	 xml:space="preserve">
<path fill="#010202" d="M830.152,1006.023h10.641v-46.736h48.354v-79.58h-40.774V760.971l-188.21-66.945H608.29
	c158.34-6.815,284.625-137.321,284.625-297.341c0-164.382-133.258-297.64-297.64-297.64s-297.64,133.258-297.64,297.64
	c0,160.02,126.284,290.526,284.625,297.341H331.74v133.894h160.421v29.053H331.74v31.579h-34.104v117.473h62.359
	c-26.182,0-62.357,6.588-62.357,41.524c-0.003,38.021,36.176,43.987,70.062,43.958c16.961-0.018,338.195-0.002,381.87,0
	c0,0,0.223,0,0.643,0c2.778,0,4.265,0,4.265,0v-0.001c13.825-0.004,53.084-0.013,67.967,0.001
	c33.889,0.028,70.064-5.938,70.064-43.958C892.508,1012.61,856.33,1006.023,830.152,1006.023z"/>
</svg>
