<?xml version="1.0" encoding="utf-8"?>
<!-- Generator: Adobe Illustrator 16.0.0, SVG Export Plug-In . SVG Version: 6.00 Build 0)  -->
<!DOCTYPE svg PUBLIC "-//W3C//DTD SVG 1.1//EN" "http://www.w3.org/Graphics/SVG/1.1/DTD/svg11.dtd">
<svg version="1.1" id="Calque_1" xmlns="http://www.w3.org/2000/svg" xmlns:xlink="http://www.w3.org/1999/xlink" x="0px" y="0px"
	 width="1190.551px" height="1190.551px" viewBox="0 0 1190.551 1190.551" enable-background="new 0 0 1190.551 1190.551"
	 xml:space="preserve">
<path fill="#010202" d="M524.809,906.68c-16.961,0.019-338.195,0.004-381.87,0H524.809h18.348v-46.737h48.354v-79.58h-40.774
	V661.627l-188.21-66.946h-51.872C468.995,587.866,595.28,457.36,595.28,297.34C595.28,132.958,462.022-0.3,297.64-0.3
	S0,132.958,0,297.34c0,160.02,126.284,290.526,284.625,297.341H34.105v133.894h160.421v29.053H34.105v31.579H0V906.68h70.065h67.968
	v0.001c-13.826,0.006-53.084,0.015-67.968-0.001c-33.889-0.026-70.066,5.938-70.066,43.958c0,34.938,36.18,41.524,62.358,41.524
	c10.554,0,59.85,0,75.675,0c3.09,0,4.903,0,4.903,0c44.541,0,377.81,0,389.578,0c26.182,0,62.357-6.586,62.357-41.524
	C594.877,912.618,558.698,906.653,524.809,906.68z"/>
</svg>
