<?xml version="1.0" encoding="utf-8"?>
<!-- Generator: Adobe Illustrator 16.0.0, SVG Export Plug-In . SVG Version: 6.00 Build 0)  -->
<!DOCTYPE svg PUBLIC "-//W3C//DTD SVG 1.1//EN" "http://www.w3.org/Graphics/SVG/1.1/DTD/svg11.dtd">
<svg version="1.1" id="Calque_1" xmlns="http://www.w3.org/2000/svg" xmlns:xlink="http://www.w3.org/1999/xlink" x="0px" y="0px"
	 width="1190.551px" height="1190.551px" viewBox="0 0 1190.551 1190.551" enable-background="new 0 0 1190.551 1190.551"
	 xml:space="preserve">
<path fill="#010202" d="M532.516,906.68h10.641v-46.737h48.354v-79.58h-40.774V661.627l-188.21-66.946h-51.872
	C468.995,587.866,595.28,457.36,595.28,297.34C595.28,132.958,462.022-0.3,297.64-0.3S0,132.958,0,297.34
	c0,160.02,126.284,290.526,284.625,297.341H34.105v133.894h160.421v29.053H34.105v31.579H0V906.68H62.36
	c-26.182,0-62.358,6.588-62.358,41.524c-0.003,38.021,36.176,43.987,70.063,43.958c16.961-0.017,338.195-0.002,381.87,0
	c0,0,0.223,0,0.643,0c2.778,0,4.264,0,4.264,0v-0.001c13.825-0.004,53.084-0.013,67.967,0.001
	c33.889,0.028,70.065-5.938,70.065-43.958C594.873,913.267,558.695,906.68,532.516,906.68z"/>
</svg>
