<?xml version="1.0" encoding="utf-8"?>
<!-- Generator: Adobe Illustrator 16.0.0, SVG Export Plug-In . SVG Version: 6.00 Build 0)  -->
<!DOCTYPE svg PUBLIC "-//W3C//DTD SVG 1.1//EN" "http://www.w3.org/Graphics/SVG/1.1/DTD/svg11.dtd">
<svg version="1.1" id="Calque_1" xmlns="http://www.w3.org/2000/svg" xmlns:xlink="http://www.w3.org/1999/xlink" x="0px" y="0px"
	 width="1190.551px" height="1190.551px" viewBox="0 0 1190.551 1190.551" enable-background="new 0 0 1190.551 1190.551"
	 xml:space="preserve">
<path fill="#010202" d="M822.446,1006.023c-16.961,0.02-338.196,0.004-381.871,0H822.446h18.348v-46.736h48.354v-79.58h-40.773
	V760.971l-188.211-66.945h-51.871c158.34-6.814,284.625-137.321,284.625-297.341c0-164.382-133.258-297.64-297.64-297.64
	c-164.382,0-297.64,133.258-297.64,297.64c0,160.02,126.284,290.527,284.625,297.341H331.741V827.92h160.421v29.053H331.741v31.578
	h-34.104v117.473h70.064h67.969v0.002c-13.826,0.006-53.084,0.016-67.969-0.002c-33.889-0.025-70.065,5.939-70.065,43.959
	c0,34.938,36.18,41.523,62.357,41.523c10.555,0,59.851,0,75.676,0c3.09,0,4.902,0,4.902,0c44.541,0,377.81,0,389.578,0
	c26.182,0,62.357-6.586,62.357-41.523C892.514,1011.963,856.334,1005.998,822.446,1006.023z"/>
</svg>
