<?xml version="1.0" encoding="utf-8"?>
<!-- Generator: Adobe Illustrator 16.0.0, SVG Export Plug-In . SVG Version: 6.00 Build 0)  -->
<!DOCTYPE svg PUBLIC "-//W3C//DTD SVG 1.1//EN" "http://www.w3.org/Graphics/SVG/1.1/DTD/svg11.dtd">
<svg version="1.1" id="Calque_1" xmlns="http://www.w3.org/2000/svg" xmlns:xlink="http://www.w3.org/1999/xlink" x="0px" y="0px"
	 width="1190.551px" height="1190.551px" viewBox="0 0 1190.551 1190.551" enable-background="new 0 0 1190.551 1190.551"
	 xml:space="preserve">
<g>
	<circle fill="#010202" cx="404.52" cy="297.633" r="297.64"/>
	<polygon fill="#010202" points="661.483,677.491 682.678,634.031 611.154,599.146 593.279,635.793 486.561,583.743 
		343.882,723.558 199.911,1018.741 320.255,1077.435 390.578,933.251 416.693,945.986 346.367,1090.172 374.75,1104.016 
		359.801,1134.669 465.386,1186.166 703.49,697.979 	"/>
	<path fill="#010202" d="M1013.609,1105.076c-16.961,0.018-338.194,0.002-381.87,0c0,0-0.224,0-0.644,0c-2.777,0-4.262,0-4.262,0
		v0.001c-13.826,0.004-53.084,0.014-67.968-0.001c-33.889-0.027-70.066,5.938-70.066,43.958c0,34.938,36.18,41.523,62.359,41.523
		c10.553,0,59.849,0,75.674,0c3.09,0,4.903,0,4.903,0c44.541,0,377.811,0,389.577,0c26.184,0,62.359-6.586,62.359-41.523
		C1083.675,1111.015,1047.497,1105.049,1013.609,1105.076z"/>
</g>
</svg>
