<?xml version="1.0" encoding="utf-8"?>
<!-- Generator: Adobe Illustrator 16.0.0, SVG Export Plug-In . SVG Version: 6.00 Build 0)  -->
<!DOCTYPE svg PUBLIC "-//W3C//DTD SVG 1.1//EN" "http://www.w3.org/Graphics/SVG/1.1/DTD/svg11.dtd">
<svg version="1.1" id="Calque_1" xmlns="http://www.w3.org/2000/svg" xmlns:xlink="http://www.w3.org/1999/xlink" x="0px" y="0px"
	 width="1190.551px" height="1190.551px" viewBox="0 0 1190.551 1190.551" enable-background="new 0 0 1190.551 1190.551"
	 xml:space="preserve">
<path fill="#010202" d="M892.103,431.262c-26.289-0.002-37.248,17.299-41.502,39.178c1.056-10.195,1.604-20.541,1.604-31.015
	c0-164.382-133.258-297.64-297.64-297.64s-297.64,133.258-297.64,297.64c0,160.02,126.284,290.526,284.625,297.341H291.03V870.66
	H451.45v29.053H291.03v31.58h-34.104v117.473H800.08v-46.736h48.354v-33.895c1.549,29.879,10.147,58.002,43.668,58.002
	c34.938,0,41.523-36.182,41.523-62.359c0-10.553,0-59.85,0-75.674c0-3.09,0-4.904,0-4.904c0-44.541,0-377.811,0-389.578
	C933.626,467.439,927.04,431.262,892.103,431.262z M619.45,736.767h-51.872c142.89-6.149,259.666-113.024,281.099-251.423
	c-0.393,5.285-0.536,10.662-0.532,15.983c0.019,16.961,0.002,338.195,0,381.871c0,0,0,0.223,0,0.643c0,2.777,0,4.264,0,4.264h0.001
	c0.002,7.045,0.006,20.688,0.007,34.346H807.66V803.713L619.45,736.767z"/>
</svg>
