<?xml version="1.0" encoding="utf-8"?>
<!-- Generator: Adobe Illustrator 16.0.0, SVG Export Plug-In . SVG Version: 6.00 Build 0)  -->
<!DOCTYPE svg PUBLIC "-//W3C//DTD SVG 1.1//EN" "http://www.w3.org/Graphics/SVG/1.1/DTD/svg11.dtd">
<svg version="1.1" id="Calque_1" xmlns="http://www.w3.org/2000/svg" xmlns:xlink="http://www.w3.org/1999/xlink" x="0px" y="0px"
	 width="1190.551px" height="1190.551px" viewBox="0 0 1190.551 1190.551" enable-background="new 0 0 1190.551 1190.551"
	 xml:space="preserve">
<path fill="#010202" d="M743.456,1105.068c-16.961,0.019-338.195,0.002-381.87,0c0,0-0.224,0-0.644,0c-2.778,0-4.263,0-4.263,0
	v0.001c-13.826,0.004-53.084,0.015-67.967-0.001c-15.225-0.012-30.9,1.197-43.562,5.967L312,923.103V594.681h-1.346
	C468.995,587.866,595.28,457.36,595.28,297.34C595.28,132.958,462.022-0.3,297.64-0.3S0,132.958,0,297.34
	c0,160.02,126.284,290.526,284.625,297.341h-106.52v160.422h-29.053V594.681h-31.579v-34.105H0v543.158h46.737v48.352h79.58v-40.772
	h118.109c-15.137,5.922-25.781,17.101-25.781,37.713c0,34.938,36.18,41.524,62.359,41.524c10.553,0,59.849,0,75.674,0
	c3.09,0,4.904,0,4.904,0c44.541,0,377.81,0,389.578,0c26.182,0,62.357-6.586,62.357-41.524
	C813.522,1111.007,777.344,1105.041,743.456,1105.068z"/>
</svg>
