<?xml version="1.0" encoding="utf-8"?>
<!-- Generator: Adobe Illustrator 16.0.0, SVG Export Plug-In . SVG Version: 6.00 Build 0)  -->
<!DOCTYPE svg PUBLIC "-//W3C//DTD SVG 1.1//EN" "http://www.w3.org/Graphics/SVG/1.1/DTD/svg11.dtd">
<svg version="1.1" id="Calque_1" xmlns="http://www.w3.org/2000/svg" xmlns:xlink="http://www.w3.org/1999/xlink" x="0px" y="0px"
	 width="1190.551px" height="1190.551px" viewBox="0 0 1190.551 1190.551" enable-background="new 0 0 1190.551 1190.551"
	 xml:space="preserve">
<path fill="#010202" d="M350.429,596.236c1.77,0.182,3.598,0.299,5.529,0.299c34.938,0,41.523-36.18,41.523-62.359
	c0-10.553,0-59.85,0-75.674c0-3.091,0-4.904,0-4.904c0-44.541,0-377.81,0-389.578c0-26.182-6.586-62.358-41.523-62.358
	C317.938,1.657,311.972,37.835,312,71.724c0.018,16.961,0.002,338.195,0,381.87V71.724V48.353h-46.738V0h-79.58v40.773H66.947
	L0,228.984v328.421h133.894V396.984h29.053v160.421h31.579v34.105H297.34H312v-65.043V458.5h0.001
	c0.004,13.825,0.014,53.084-0.001,67.967c-0.024,30.184,4.726,62.158,32.622,68.796c-15.4-2.458-31.189-3.753-47.282-3.753
	C132.958,591.51-0.3,724.768-0.3,889.15s133.258,297.64,297.64,297.64s297.64-133.258,297.64-297.64
	C594.98,742.889,489.48,621.272,350.429,596.236z"/>
</svg>
