<?xml version="1.0" encoding="utf-8"?>
<!-- Generator: Adobe Illustrator 16.0.0, SVG Export Plug-In . SVG Version: 6.00 Build 0)  -->
<!DOCTYPE svg PUBLIC "-//W3C//DTD SVG 1.1//EN" "http://www.w3.org/Graphics/SVG/1.1/DTD/svg11.dtd">
<svg version="1.1" id="Calque_1" xmlns="http://www.w3.org/2000/svg" xmlns:xlink="http://www.w3.org/1999/xlink" x="0px" y="0px"
	 width="1190.551px" height="1190.551px" viewBox="0 0 1190.551 1190.551" enable-background="new 0 0 1190.551 1190.551"
	 xml:space="preserve">
<path fill="#010202" d="M956.915,1064.254V945.519l-188.209-66.946H440.292c46.882-45.288,236.479-228.363,264.725-255.636
	c0,0,0.16-0.155,0.463-0.446c1.998-1.93,3.065-2.961,3.065-2.961l-0.001-0.001c9.943-9.606,38.177-36.884,48.893-47.212
	c24.396-23.521,46.276-52.944,19.866-80.294c-23.911-24.76-53.965-5.331-72.856,12.639c11.909-12.336,22.919-25.868,32.839-40.576
	c91.921-136.278,55.962-321.271-80.316-413.192C520.69-41.029,335.697-5.07,243.776,131.209s-55.962,321.272,80.315,413.193
	c115.672,78.021,266.427,63.897,365.588-25.488c-13.69,13.222-32.729,31.607-40.514,39.125c-2.224,2.146-3.528,3.406-3.528,3.406
	c-32.04,30.94-271.772,262.449-280.237,270.624c-18.834,18.188-40.283,48.057-16.014,73.188
	c26.409,27.352,56.578,6.512,80.938-17.051c1.23-1.19,4.697-4.54,9.962-9.626v133.887h160.421v29.053H440.285v31.579h-34.104
	v117.475h543.157v-46.737h48.353v-79.58h-40.775V1064.254z"/>
</svg>
