<?xml version="1.0" encoding="utf-8"?>
<!-- Generator: Adobe Illustrator 16.0.0, SVG Export Plug-In . SVG Version: 6.00 Build 0)  -->
<!DOCTYPE svg PUBLIC "-//W3C//DTD SVG 1.1//EN" "http://www.w3.org/Graphics/SVG/1.1/DTD/svg11.dtd">
<svg version="1.1" id="Calque_1" xmlns="http://www.w3.org/2000/svg" xmlns:xlink="http://www.w3.org/1999/xlink" x="0px" y="0px"
	 width="1190.551px" height="1190.551px" viewBox="0 0 1190.551 1190.551" enable-background="new 0 0 1190.551 1190.551"
	 xml:space="preserve">
<g>
	<polygon fill="#010202" points="475.741,36.948 475.741,197.369 446.689,197.369 446.689,36.948 415.11,36.948 415.11,2.843 
		297.636,2.843 297.636,546 344.373,546 344.373,594.353 423.953,594.353 423.953,553.579 542.689,553.579 609.636,365.369 
		609.636,72.908 609.636,36.948 	"/>
	<path fill="#010202" d="M650.882,597.635c0.891,0.043,1.783,0.082,2.712,0.082c34.938,0,41.522-36.18,41.522-62.358
		c0-10.554,0-59.85,0-75.675c0-3.09,0-4.903,0-4.903c0-44.541,0-377.811,0-389.578c0-26.182-6.586-62.358-41.522-62.358
		c-38.021-0.004-43.986,36.175-43.958,70.063c0.018,16.961,0.002,338.195,0,381.87c0,0,0,0.224,0,0.644c0,2.777,0,4.262,0,4.262
		h0.001c0.004,13.826,0.014,53.084-0.001,67.968c-0.023,29.195,4.42,60.066,29.956,68.064c-14.459-2.159-29.255-3.288-44.316-3.288
		c-164.382-0.001-297.64,133.257-297.64,297.64s133.258,297.641,297.64,297.641s297.64-133.258,297.64-297.641
		C892.915,744.691,788.685,623.681,650.882,597.635z"/>
</g>
</svg>
