<?xml version="1.0" encoding="utf-8"?>
<!-- Generator: Adobe Illustrator 16.0.0, SVG Export Plug-In . SVG Version: 6.00 Build 0)  -->
<!DOCTYPE svg PUBLIC "-//W3C//DTD SVG 1.1//EN" "http://www.w3.org/Graphics/SVG/1.1/DTD/svg11.dtd">
<svg version="1.1" id="Calque_1" xmlns="http://www.w3.org/2000/svg" xmlns:xlink="http://www.w3.org/1999/xlink" x="0px" y="0px"
	 width="1190.551px" height="1190.551px" viewBox="0 0 1190.551 1190.551" enable-background="new 0 0 1190.551 1190.551"
	 xml:space="preserve">
<path fill="#010202" d="M648.365,598.117c1.77,0.182,3.598,0.299,5.529,0.299c34.938,0,41.522-36.181,41.522-62.36
	c0-10.553,0-59.85,0-75.674c0-3.091,0-4.904,0-4.904c0-44.541,0-377.81,0-389.578c0-26.182-6.586-62.358-41.522-62.358
	c-38.021-0.005-43.986,36.173-43.958,70.062c0.018,16.961,0.002,338.195,0,381.87V73.604V50.233h-46.738V1.88h-79.58v40.773H364.882
	l-66.946,188.211v328.421h133.894V398.864h29.053v160.421h31.579v34.104h102.814h14.66v-65.043V460.38h0.001
	c0.004,13.825,0.014,53.084-0.001,67.967c-0.024,30.184,4.726,62.158,32.622,68.796c-15.4-2.458-31.189-3.753-47.282-3.753
	c-164.382,0-297.64,133.258-297.64,297.641c0,164.381,133.258,297.639,297.64,297.639s297.64-133.258,297.64-297.639
	C892.915,744.77,787.415,623.152,648.365,598.117z"/>
</svg>
