<?xml version="1.0" encoding="utf-8"?>
<!-- Generator: Adobe Illustrator 16.0.0, SVG Export Plug-In . SVG Version: 6.00 Build 0)  -->
<!DOCTYPE svg PUBLIC "-//W3C//DTD SVG 1.1//EN" "http://www.w3.org/Graphics/SVG/1.1/DTD/svg11.dtd">
<svg version="1.1" id="Calque_1" xmlns="http://www.w3.org/2000/svg" xmlns:xlink="http://www.w3.org/1999/xlink" x="0px" y="0px"
	 width="1190.551px" height="1190.551px" viewBox="0 0 1190.551 1190.551" enable-background="new 0 0 1190.551 1190.551"
	 xml:space="preserve">
<g>
	<path fill="#010202" d="M1074.84,771.878c-66.86-150.17-242.798-217.708-392.969-150.848
		c-35.809,15.942-66.904,38.099-92.613,64.616l22.017-32.642l-16.351-11.029l19.052-28.248l16.354,11.029l23.062-34.193
		l-16.352-11.029l18.05-26.761l16.352,11.03l23.063-34.193l-16.352-11.029l19.929-29.546l16.353,11.029l23.064-34.194l-16.354-11.03
		l19.509-28.921l16.353,11.029l23.062-34.192l-16.353-11.029l15.749-23.349l16.353,11.029l23.062-34.193l-16.352-11.029
		l16.01-23.736l-15.188-10.243l10.027-14.865l-32.709-22.062l-10.025,14.864l-26.758-18.048l10.026-14.864l-32.706-22.061
		l-10.026,14.864l-30.663-20.683l10.026-14.864l-32.708-22.062l-10.026,14.864l-35.307-23.814l10.026-14.865l-32.707-22.061
		l-10.026,14.864l-32.707-22.061l10.026-14.865l-32.704-22.06l-10.024,14.867l-35.36-23.852l10.025-14.864l-32.707-22.062
		l-10.025,14.865L412.87,36.82l10.026-14.864L390.189-0.105L380.163,14.76L360.651,1.599l-16.012,23.736l-17.839-12.033
		l-23.062,34.193l17.839,12.032l-15.749,23.349l-17.839-12.032l-23.062,34.192l17.839,12.032l-19.508,28.922l-17.839-12.033
		l-23.064,34.195l17.84,12.032l-19.93,29.546l-17.84-12.032l-23.062,34.192l17.84,12.033l-18.051,26.76l-17.839-12.032
		l-23.062,34.192l17.839,12.032l-19.055,28.249l-17.839-12.033l-23.064,34.193l17.839,12.032l-24.065,35.681l19.513,13.161
		l-10.028,14.867l32.706,22.061l10.027-14.866l33.45,22.562l-10.027,14.866l32.706,22.061l10.027-14.866l35.36,23.852
		l-10.026,14.866l32.704,22.06l10.026-14.866l32.708,22.061l-10.026,14.866l32.706,22.062l10.026-14.867l35.308,23.815
		l-10.027,14.866l32.708,22.062l10.027-14.865l30.662,20.682l-10.026,14.866l32.706,22.061l10.026-14.866l26.759,18.049
		l-10.027,14.866l32.708,22.062l10.026-14.866l15.188,10.243l24.065-35.68l16.085,10.849
		c-81.082,84.714-107.565,213.232-56.921,326.982c66.86,150.171,242.799,217.707,392.969,150.847
		C1074.164,1097.986,1141.701,922.049,1074.84,771.878z"/>
	<path fill="#010202" d="M541.87,91.438c16.594,3.51,330.805,70.312,373.524,79.395c0,0,0.219,0.047,0.629,0.134
		c2.719,0.578,4.169,0.887,4.169,0.887v-0.001c13.524,2.87,51.928,11.023,66.481,14.132c33.143,7.073,69.771,8.76,77.676-28.43
		c7.265-34.175-26.755-48.139-52.362-53.582c-10.322-2.193-58.541-12.443-74.021-15.733c-3.021-0.643-4.797-1.02-4.797-1.02
		C889.601,77.958,563.616,8.668,552.104,6.221c-25.609-5.443-62.365-6.522-69.63,27.651
		C474.569,71.062,508.716,84.419,541.87,91.438z"/>
</g>
</svg>
