<?xml version="1.0" encoding="utf-8"?>
<!-- Generator: Adobe Illustrator 16.0.0, SVG Export Plug-In . SVG Version: 6.00 Build 0)  -->
<!DOCTYPE svg PUBLIC "-//W3C//DTD SVG 1.1//EN" "http://www.w3.org/Graphics/SVG/1.1/DTD/svg11.dtd">
<svg version="1.1" id="Calque_1" xmlns="http://www.w3.org/2000/svg" xmlns:xlink="http://www.w3.org/1999/xlink" x="0px" y="0px"
	 width="1190.551px" height="1190.551px" viewBox="0 0 1190.551 1190.551" enable-background="new 0 0 1190.551 1190.551"
	 xml:space="preserve">
<g>
	<path fill="#010202" d="M1101.574,795.267l-14.82-10.769l10.539-14.504l-31.918-23.191l-10.539,14.508l-26.109-18.973
		l10.539-14.505l-31.918-23.188l-10.539,14.506l-29.922-21.739l10.539-14.507l-31.918-23.189l-10.539,14.506l-34.455-25.031
		l10.539-14.508l-31.916-23.188l-10.539,14.507l-31.918-23.189l10.539-14.505l-31.916-23.188l-10.537,14.506l-34.508-25.07
		l10.539-14.505l-31.916-23.189l-10.539,14.501l-32.643-23.715l10.537-14.506l-31.914-23.189l-10.541,14.507l-19.041-13.834
		l-16.826,23.163l-17.191-12.489c2.277-2.903,4.523-5.84,6.709-8.849c96.621-132.987,67.141-319.123-65.847-415.744
		c-132.986-96.621-319.122-67.14-415.743,65.848s-67.141,319.123,65.848,415.744c128.354,93.254,306.205,69.028,405.313-52.337
		l-20.74,28.546l17.408,12.647l-16.555,22.785l-17.409-12.648l-24.24,33.366l17.408,12.647l-20.508,28.224l-17.406-12.646
		l-24.244,33.367l17.408,12.649l-20.947,28.832l-17.409-12.648l-24.242,33.368l17.408,12.646l-18.972,26.114l-17.41-12.647
		l-24.241,33.367l17.407,12.646l-20.026,27.565l-17.408-12.647l-24.242,33.368l17.408,12.646l-25.298,34.818l19.041,13.834
		l-10.541,14.507l31.917,23.189l10.54-14.509l32.643,23.716l-10.539,14.509l31.917,23.188l10.54-14.508l34.507,25.071l-10.54,14.507
		l31.915,23.188l10.54-14.507l31.917,23.188l-10.541,14.507l31.917,23.188l10.539-14.507l34.455,25.032l-10.539,14.508
		l31.916,23.188l10.541-14.506l29.922,21.738l-10.541,14.512l31.918,23.188l10.539-14.508l26.111,18.971l-10.539,14.508
		l31.918,23.189l10.539-14.507l14.818,10.767l25.297-34.817l15.957,11.594l24.244-33.366l-15.957-11.594l20.027-27.565
		l15.957,11.594l24.242-33.366l-15.957-11.593l18.973-26.115l15.957,11.594l24.244-33.366l-15.957-11.594l20.947-28.833
		l15.957,11.594l24.242-33.369l-15.957-11.593l20.508-28.224l15.957,11.594l24.24-33.366l-15.957-11.594l16.555-22.786
		l15.957,11.594l24.242-33.365l-15.955-11.595L1101.574,795.267z"/>
	<path fill="#010202" d="M613.807,1105.229c-16.961,0.019-338.195,0.002-381.87,0c0,0-0.224,0-0.644,0c-2.777,0-4.262,0-4.262,0
		v0.001c-13.826,0.004-53.084,0.015-67.969-0.001c-33.888-0.027-70.065,5.938-70.065,43.958c0,34.938,36.18,41.523,62.357,41.523
		c10.555,0,59.851,0,75.676,0c3.09,0,4.902,0,4.902,0c44.541,0,377.809,0,389.579,0c26.182,0,62.357-6.586,62.357-41.523
		C683.873,1111.168,647.694,1105.202,613.807,1105.229z"/>
</g>
</svg>
