<?xml version="1.0" encoding="utf-8"?>
<!-- Generator: Adobe Illustrator 16.0.0, SVG Export Plug-In . SVG Version: 6.00 Build 0)  -->
<!DOCTYPE svg PUBLIC "-//W3C//DTD SVG 1.1//EN" "http://www.w3.org/Graphics/SVG/1.1/DTD/svg11.dtd">
<svg version="1.1" id="Calque_1" xmlns="http://www.w3.org/2000/svg" xmlns:xlink="http://www.w3.org/1999/xlink" x="0px" y="0px"
	 width="1190.551px" height="1190.551px" viewBox="0 0 1190.551 1190.551" enable-background="new 0 0 1190.551 1190.551"
	 xml:space="preserve">
<path fill="#010202" d="M823.123,652.413c-102.843-74.72-237.459-74.006-337.893-8.349l30.072-21.851l-12.648-17.408l28.833-20.947
	l12.647,17.407l33.367-24.242l-12.647-17.407l26.114-18.975l12.647,17.409l33.366-24.242l-12.647-17.408l27.565-20.028
	l12.647,17.409l33.367-24.243l-12.647-17.407l34.818-25.298l-13.834-19.041l14.507-10.54l-23.188-31.916l-14.509,10.54
	l-23.716-32.643l14.508-10.541l-23.188-31.917l-14.507,10.542l-25.071-34.509l14.507-10.539l-23.188-31.915l-14.507,10.541
	l-23.189-31.918l14.507-10.54l-23.188-31.916l-14.508,10.54l-25.032-34.455l14.508-10.54l-23.19-31.919L493.3,134.689l-21.74-29.923
	l14.507-10.539L462.878,62.31l-14.507,10.54l-18.971-26.11l14.507-10.541L420.718,4.281l-14.508,10.54L395.443,0l-34.817,25.298
	L349.031,9.341l-33.366,24.241l11.593,15.957l-27.565,20.028l-11.594-15.957l-33.366,24.241l11.594,15.957l-26.113,18.975
	l-11.595-15.957l-33.366,24.241l11.593,15.957l-28.833,20.949l-11.592-15.957l-33.37,24.243l11.594,15.957l-28.224,20.505
	l-11.593-15.957l-33.367,24.243l11.594,15.956L60.269,243.52l-11.595-15.957l-33.366,24.241l11.593,15.957l-23.163,16.83
	l10.768,14.82L-0.001,309.95l23.19,31.917l14.506-10.539l18.972,26.112L42.161,367.98l23.188,31.916l14.505-10.539l21.741,29.923
	L87.09,429.819l23.188,31.918l14.506-10.54l25.033,34.455l-14.506,10.539l23.189,31.917l14.506-10.539l23.188,31.917l-14.505,10.538
	l23.188,31.916l14.506-10.539l25.069,34.506l-14.505,10.539l23.188,31.917l14.506-10.539l23.717,32.644l-14.506,10.537
	l23.189,31.918l14.506-10.539l13.834,19.041l23.162-16.83l12.648,17.408l33.366-24.242l-12.646-17.407l22.785-16.555l12.646,17.407
	l33.366-24.24l-12.647-17.41l28.224-20.505l12.536,17.255c-28.08,18.916-53.388,42.977-74.443,71.956
	c-63.578,87.508-72.548,198.024-33.363,290.91c-2.826-5.164-6.019-10.036-9.188-14.399c-6.203-8.537-35.179-48.419-44.48-61.222
	c-1.816-2.5-2.882-3.968-2.882-3.968C291.284,893.548,95.394,623.928,88.477,614.407c-15.389-21.182-41.982-46.578-70.248-26.042
	c-30.759,22.348-14.319,55.124,5.621,82.522c9.982,13.712,198.788,273.604,224.458,308.939c0,0,0.13,0.18,0.377,0.52
	c1.633,2.247,2.505,3.447,2.505,3.447l0.002,0.001c8.13,11.183,31.213,42.938,39.948,54.986
	c19.897,27.434,45.988,53.194,76.747,30.847c17.538-12.741,18.056-30.335,12.25-46.913c20.66,42.855,51.906,81.367,93.09,111.29
	c132.988,96.621,319.123,67.141,415.744-65.848C985.592,935.17,956.112,749.034,823.123,652.413z"/>
</svg>
