<?xml version="1.0" encoding="utf-8"?>
<!-- Generator: Adobe Illustrator 16.0.0, SVG Export Plug-In . SVG Version: 6.00 Build 0)  -->
<!DOCTYPE svg PUBLIC "-//W3C//DTD SVG 1.1//EN" "http://www.w3.org/Graphics/SVG/1.1/DTD/svg11.dtd">
<svg version="1.1" id="Calque_1" xmlns="http://www.w3.org/2000/svg" xmlns:xlink="http://www.w3.org/1999/xlink" x="0px" y="0px"
	 width="1190.551px" height="1190.551px" viewBox="0 0 1190.551 1190.551" enable-background="new 0 0 1190.551 1190.551"
	 xml:space="preserve">
<path fill="#010202" d="M748.254,463.063c7.062-7.843,40.047-44.477,50.637-56.237c2.066-2.297,3.281-3.645,3.281-3.645
	c29.803-33.1,252.805-280.768,260.678-289.513c17.521-19.457,36.832-50.748,10.869-74.127c-28.254-25.44-56.895-2.547-79.549,22.656
	c-11.338,12.616-226.297,251.328-255.521,283.785c0,0-0.148,0.166-0.43,0.478c-1.859,2.064-2.854,3.166-2.854,3.166v0.001
	c-9.248,10.277-35.51,39.458-45.479,50.509c-7.055,7.821-13.824,16.194-18.959,24.784c49.756-105.254,34.869-234.577-47.904-326.506
	c-109.994-122.16-298.19-132.024-420.35-22.03C80.514,186.377,70.651,374.574,180.644,496.733
	c92.643,102.891,240.759,126.109,358.174,65.157l-29.342,16.94l8.965,15.527l-36.883,21.295l-8.965-15.528l-34.165,19.726
	l8.964,15.528l-34.166,19.727l-8.967-15.528L370.096,659.3l8.967,15.528l-36.939,21.327l-8.965-15.527l-34.166,19.727l8.965,15.527
	l-34.941,20.174l-8.966-15.527l-34.164,19.727l8.965,15.526l-20.383,11.77l14.314,24.795l-18.635,10.759l20.621,35.719
	l18.636-10.759l14.082,24.391l-18.636,10.759l20.622,35.719l18.635-10.761l17.442,30.214l-18.636,10.759l20.623,35.72l18.636-10.759
	l17.819,30.864l-18.635,10.759l20.622,35.719l18.634-10.759l16.141,27.954l-18.636,10.759l20.622,35.718l18.636-10.759
	l17.036,29.508l-18.636,10.76l20.623,35.72l18.634-10.761l21.521,37.271l20.382-11.768l8.967,15.528l34.166-19.726l-8.967-15.529
	l34.941-20.175l8.966,15.53l34.166-19.727l-8.966-15.528l36.939-21.327l8.967,15.529l34.162-19.725l-8.965-15.53l34.166-19.726
	l8.965,15.529l34.168-19.727l-8.967-15.529l36.881-21.293l8.967,15.528l34.168-19.727l-8.967-15.529l32.031-18.493l8.965,15.529
	l34.168-19.726l-8.969-15.529l27.951-16.138l8.965,15.529l34.17-19.727l-8.967-15.53l15.865-9.159l-21.52-37.271l17.08-9.862
	l-20.621-35.719l-17.08,9.862l-17.039-29.509l17.084-9.862l-20.623-35.717l-17.08,9.86l-16.141-27.952l17.08-9.862l-20.621-35.719
	l-17.082,9.861l-17.818-30.864l17.08-9.861l-20.623-35.72l-17.08,9.861l-17.443-30.211l17.084-9.862l-20.623-35.717l-17.08,9.861
	l-14.082-24.391l17.08-9.861l-20.623-35.718l-17.078,9.861l-14.273-24.721C716.33,493.223,735.408,477.331,748.254,463.063z
	 M680.922,500.55l-8.965-15.529l-34.166,19.728l8.963,15.528l-27.951,16.138l-8.963-15.528l-34.166,19.726l8.965,15.527
	l-32.03,18.492l-8.873-15.367c20.19-10.97,39.432-24.449,57.258-40.5c26.861-24.187,48.287-52.154,64.207-82.369
	c-6.086,15.481-5.127,31.181,10.469,45.225c6.875,6.19,13.969,9.164,21.01,9.831L680.922,500.55z"/>
</svg>
