<?xml version="1.0" encoding="utf-8"?>
<!-- Generator: Adobe Illustrator 16.0.0, SVG Export Plug-In . SVG Version: 6.00 Build 0)  -->
<!DOCTYPE svg PUBLIC "-//W3C//DTD SVG 1.1//EN" "http://www.w3.org/Graphics/SVG/1.1/DTD/svg11.dtd">
<svg version="1.1" id="Calque_1" xmlns="http://www.w3.org/2000/svg" xmlns:xlink="http://www.w3.org/1999/xlink" x="0px" y="0px"
	 width="1190.551px" height="1190.551px" viewBox="0 0 1190.551 1190.551" enable-background="new 0 0 1190.551 1190.551"
	 xml:space="preserve">
<path fill="#010202" d="M768.447,567.533c7.062-7.842,40.047-44.477,50.636-56.237c2.067-2.295,3.281-3.645,3.281-3.645
	c29.805-33.1,252.806-280.767,260.68-289.513c17.52-19.457,36.832-50.748,10.867-74.127c-28.255-25.44-56.896-2.547-79.552,22.656
	c-8.229,9.159-123.795,137.5-197.684,219.556l-11.865-13.176l13.614-12.258l-28.799-31.983l14.656-13.198l-27.597-30.65
	l-14.657,13.198l-22.801-25.321l14.659-13.198l-27.598-30.649l-14.657,13.198l-21.6-23.988L704.69,205l-27.598-30.65l-14.658,13.198
	l-23.848-26.484l14.657-13.198l-27.599-30.652l-14.658,13.198l-23.343-25.925l14.658-13.198l-27.592-30.651L560.05,73.834
	l-18.846-20.93l14.658-13.197l-27.598-30.65l-14.658,13.197L494.45,0.979l-13.613,12.258L468.838-0.089L439.518,26.31l11.999,13.325
	l-23.984,21.597l-11.998-13.324l-29.317,26.397l11.997,13.324l-27.485,24.749l-11.998-13.325l-29.318,26.399l11.998,13.325
	l-31.649,28.497l-11.997-13.325l-29.317,26.397l11.997,13.325l-29.317,26.398l-11.998-13.324l-29.316,26.396l11.998,13.324
	l-31.696,28.539l-11.998-13.324l-29.317,26.397l11.997,13.326l-29.984,26.998l-11.997-13.326l-29.322,26.401l11.999,13.325
	l-17.492,15.748l19.158,21.278l-15.991,14.398l27.598,30.65l15.99-14.398l18.847,20.931l-15.991,14.398l27.598,30.649l15.991-14.398
	l23.343,25.925l-15.99,14.397l27.599,30.653l15.991-14.398l23.847,26.484l-15.99,14.398l27.598,30.648l15.991-14.396l21.599,23.986
	l-15.99,14.399l27.598,30.648l15.991-14.397l22.799,25.32l-15.991,14.397l27.598,30.65l15.991-14.397l28.798,31.982l17.49-15.749
	l12,13.327l29.317-26.397l-11.999-13.327l29.983-26.998l11.954,13.277c-99.896,92.305-126.406,244.535-55.539,367.28
	c82.19,142.358,264.224,191.135,406.583,108.942c142.358-82.189,191.135-264.225,108.943-406.583
	c-51.24-88.75-141.285-141.121-236.33-148.069C738.695,595.868,756.338,580.98,768.447,567.533z M758.408,450.929
	c-1.857,2.064-2.853,3.168-2.853,3.168h0.002c-9.248,10.278-35.511,39.458-45.479,50.509
	c-22.696,25.166-42.471,56.044-14.217,81.485c6.433,5.792,13.058,8.765,19.649,9.671c-55.884-3.167-113.291,9.35-165.386,39.427
	c-16.347,9.438-31.441,20.205-45.264,32.062l21.223-19.107l-11.999-13.326l31.696-28.54l11.999,13.326l29.315-26.396l-11.998-13.326
	l29.318-26.398l11.999,13.326l29.315-26.398l-11.997-13.326l31.647-28.497l11.999,13.326l29.319-26.398l-11.999-13.326
	l27.485-24.749l11.999,13.326l29.318-26.397l-11.999-13.326l23.983-21.597l11.999,13.326l27.896-25.117
	c-27.268,30.28-48.664,54.042-56.547,62.796C758.839,450.452,758.69,450.617,758.408,450.929z"/>
</svg>
