<?xml version="1.0" encoding="utf-8"?>
<!-- Generator: Adobe Illustrator 16.0.0, SVG Export Plug-In . SVG Version: 6.00 Build 0)  -->
<!DOCTYPE svg PUBLIC "-//W3C//DTD SVG 1.1//EN" "http://www.w3.org/Graphics/SVG/1.1/DTD/svg11.dtd">
<svg version="1.1" id="Calque_1" xmlns="http://www.w3.org/2000/svg" xmlns:xlink="http://www.w3.org/1999/xlink" x="0px" y="0px"
	 width="1190.551px" height="1190.551px" viewBox="0 0 1190.551 1190.551" enable-background="new 0 0 1190.551 1190.551"
	 xml:space="preserve">
<path fill="#010202" d="M945.481,652.254c-102.844-74.72-237.459-74.006-337.893-8.349l30.072-21.852l-12.648-17.408l28.833-20.947
	l12.647,17.407l33.366-24.242l-12.646-17.407l26.114-18.975l12.646,17.409l33.366-24.242l-12.646-17.408l27.564-20.028
	l12.647,17.409l33.365-24.243l-12.646-17.407l34.817-25.298l-13.834-19.041l14.508-10.54l-23.189-31.916l-14.508,10.54
	l-23.716-32.643l14.508-10.541l-23.188-31.917l-14.508,10.542l-25.07-34.509l14.507-10.539l-23.188-31.915l-14.507,10.541
	l-23.188-31.918l14.507-10.54l-23.188-31.916l-14.508,10.54l-25.032-34.455l14.509-10.54l-23.19-31.919l-14.506,10.542
	l-21.741-29.923l14.507-10.539l-23.189-31.917l-14.508,10.54l-18.971-26.11l14.507-10.541L543.076,4.122l-14.508,10.54
	L517.801-0.159l-34.816,25.298L471.388,9.182l-33.365,24.241l11.593,15.957l-27.565,20.028l-11.594-15.957l-33.366,24.241
	l11.595,15.957l-26.113,18.975l-11.595-15.957l-33.366,24.241l11.593,15.957l-28.833,20.949l-11.592-15.957l-33.37,24.243
	l11.594,15.957l-28.224,20.505l-11.593-15.957l-33.367,24.243l11.594,15.956l-22.786,16.557l-11.595-15.957l-33.366,24.241
	l11.593,15.957l-23.163,16.83l10.769,14.82l-14.507,10.539l23.189,31.917l14.506-10.539l18.973,26.112l-14.506,10.54l23.188,31.916
	l14.505-10.539l21.741,29.923l-14.505,10.539l23.188,31.918l14.507-10.54l25.032,34.455l-14.506,10.539l23.189,31.917l14.506-10.539
	l23.188,31.917l-14.505,10.538l23.188,31.916l14.506-10.539l25.069,34.506l-14.506,10.539l23.188,31.917l14.506-10.539
	l23.717,32.644l-14.506,10.537l23.189,31.918l14.506-10.539l13.834,19.041l23.162-16.83l12.647,17.408l33.366-24.242l-12.646-17.407
	l22.784-16.555l12.646,17.407l33.365-24.24l-12.646-17.41l28.224-20.505l12.537,17.255c-28.081,18.916-53.388,42.978-74.443,71.956
	c-63.578,87.508-72.548,198.024-33.363,290.91c-2.826-5.164-6.019-10.036-9.188-14.398c-6.203-8.537-35.18-48.42-44.48-61.223
	c-1.816-2.5-2.882-3.968-2.882-3.968c-26.181-36.035-222.071-305.655-228.988-315.176c-15.389-21.182-41.981-46.578-70.248-26.042
	c-30.759,22.348-14.318,55.124,5.621,82.521c9.982,13.712,198.788,273.604,224.458,308.939c0,0,0.13,0.18,0.377,0.52
	c1.633,2.247,2.505,3.447,2.505,3.447l0.002,0.001c8.13,11.183,31.213,42.938,39.948,54.986
	c19.897,27.434,45.988,53.193,76.747,30.847c17.538-12.741,18.056-30.335,12.25-46.913c20.66,42.855,51.906,81.367,93.09,111.29
	c132.989,96.621,319.123,67.141,415.744-65.848C1107.949,935.011,1078.469,748.875,945.481,652.254z"/>
</svg>
