<?xml version="1.0" encoding="utf-8"?>
<!-- Generator: Adobe Illustrator 16.0.0, SVG Export Plug-In . SVG Version: 6.00 Build 0)  -->
<!DOCTYPE svg PUBLIC "-//W3C//DTD SVG 1.1//EN" "http://www.w3.org/Graphics/SVG/1.1/DTD/svg11.dtd">
<svg version="1.1" id="Calque_1" xmlns="http://www.w3.org/2000/svg" xmlns:xlink="http://www.w3.org/1999/xlink" x="0px" y="0px"
	 width="1190.551px" height="1190.551px" viewBox="0 0 1190.551 1190.551" enable-background="new 0 0 1190.551 1190.551"
	 xml:space="preserve">
<g>
	<path fill="#010202" d="M891.51,652.253c-102.843-74.72-237.459-74.006-337.893-8.349l30.072-21.852l-12.648-17.408l28.833-20.947
		l12.647,17.407l33.366-24.242l-12.646-17.407l26.114-18.975l12.646,17.409l33.366-24.242l-12.646-17.408l27.564-20.028
		l12.647,17.409l33.366-24.243l-12.646-17.407l34.818-25.298l-13.834-19.041l14.507-10.54l-23.188-31.916l-14.509,10.54
		l-23.716-32.643l14.508-10.541l-23.188-31.917l-14.508,10.542l-25.07-34.509l14.507-10.539l-23.188-31.915l-14.507,10.541
		l-23.188-31.918l14.507-10.54l-23.188-31.916l-14.508,10.54l-25.032-34.455l14.509-10.54l-23.19-31.919l-14.506,10.542
		l-21.74-29.923l14.507-10.539L531.266,62.15l-14.508,10.54l-18.971-26.11l14.507-10.541L489.106,4.121l-14.508,10.54L463.83-0.16
		l-34.816,25.298L417.418,9.181l-33.365,24.241l11.593,15.957L368.08,69.407L356.487,53.45L323.12,77.691l11.595,15.957
		l-26.113,18.975l-11.595-15.957l-33.366,24.241l11.593,15.957l-28.833,20.949l-11.592-15.957l-33.37,24.243l11.594,15.957
		l-28.224,20.505l-11.593-15.957l-33.367,24.243l11.594,15.956l-22.786,16.557l-11.595-15.957l-33.366,24.241l11.593,15.957
		l-23.163,16.83l10.769,14.82L68.387,309.79l23.189,31.917l14.506-10.539l18.973,26.112l-14.506,10.54l23.188,31.916l14.505-10.539
		l21.741,29.923l-14.505,10.539l23.188,31.918l14.507-10.54l25.032,34.455l-14.506,10.539l23.189,31.917l14.506-10.539
		l23.188,31.917l-14.505,10.538l23.188,31.916l14.506-10.539l25.069,34.506l-14.506,10.539l23.188,31.917l14.506-10.539
		l23.717,32.644l-14.506,10.537l23.189,31.918l14.506-10.539l13.834,19.041l23.162-16.83l12.647,17.408l33.366-24.242
		l-12.646-17.407l22.784-16.555l12.646,17.407l33.365-24.24l-12.646-17.41l28.224-20.505l12.536,17.255
		c-28.08,18.916-53.388,42.978-74.442,71.956c-96.621,132.988-67.141,319.123,65.848,415.744s319.123,67.141,415.744-65.848
		C1053.98,935.01,1024.499,748.874,891.51,652.253z"/>
	<path fill="#010202" d="M1052.103-0.16c-16.961,0.018-338.195,0.002-381.87,0c0,0-0.224,0-0.644,0c-2.777,0-4.264,0-4.264,0v0.001
		c-13.824,0.004-53.083,0.014-67.966-0.001c-33.89-0.027-70.065,5.938-70.065,43.958c0,34.938,36.18,41.523,62.357,41.523
		c10.553,0,59.85,0,75.674,0c3.092,0,4.904,0,4.904,0c44.541,0,377.811,0,389.578,0c26.182,0,62.356-6.586,62.356-41.523
		C1122.168,5.778,1085.99-0.188,1052.103-0.16z"/>
</g>
</svg>
