<?xml version="1.0" encoding="utf-8"?>
<!-- Generator: Adobe Illustrator 16.0.0, SVG Export Plug-In . SVG Version: 6.00 Build 0)  -->
<!DOCTYPE svg PUBLIC "-//W3C//DTD SVG 1.1//EN" "http://www.w3.org/Graphics/SVG/1.1/DTD/svg11.dtd">
<svg version="1.1" id="Calque_1" xmlns="http://www.w3.org/2000/svg" xmlns:xlink="http://www.w3.org/1999/xlink" x="0px" y="0px"
	 width="1190.551px" height="1190.551px" viewBox="0 0 1190.551 1190.551" enable-background="new 0 0 1190.551 1190.551"
	 xml:space="preserve">
<path fill="#010202" d="M856.509,131.426c-38.02-0.003-43.983,36.176-43.958,70.063c0.02,16.962,0.002,338.195,0,381.87
	c0,0,0,0.224,0,0.644c0,2.777,0,4.263,0,4.263h0.001c0.004,13.825,0.016,53.083-0.001,67.968
	c-0.013,16.254,1.365,33.025,6.986,46.088c-52.95-63.963-132.138-105.408-221.07-107.847h4.275v-21.518h32.279v21.518h41.243
	v-21.518h34.071v21.518h41.244v-21.518h43.038v-23.536h17.932V509.97h-17.932v-40.348h17.932v-39.451h-17.932v-42.653h17.932
	v-39.449h-17.932v-39.452h17.932v-39.45h-17.932V226.58h17.932v-25.089v-14.364h-17.932v-36.986h17.932v-39.451h-17.932V78.414
	h17.932V38.96h-17.932V20.642H751.58V0.917h-41.244v19.724h-34.071V0.917h-41.243v19.724h-32.279V0.917h-41.244v19.724H525.86V0.917
	h-41.246v19.724h-34.886V0.917h-41.243v19.724h-28.163V0.917h-41.244v19.724h-28.631V38.96h-17.93v39.453h17.93v32.274h-17.93
	v39.451h17.93v36.986h-17.93v39.453h17.93v42.588h-17.93v39.45h17.93v39.452h-17.93v39.449h17.93v42.653h-17.93v39.451h17.93v40.348
	h-17.93v39.451h17.93v23.536h28.631v21.518h41.244v-21.516h28.164v21.518h41.243v-21.518h34.886v21.518h41.246v-21.518h35.639
	v21.518h20.348c-160.539,4.401-289.33,135.917-289.33,297.519c0,164.381,133.258,297.639,297.64,297.639
	s297.64-133.258,297.64-297.639c0-64.301-20.392-123.836-55.057-172.498c6.035,4.291,13.789,6.803,23.771,6.803
	c34.938,0,41.524-36.178,41.524-62.355c0-10.557,0-59.852,0-75.676c0-3.091,0-4.904,0-4.904c0-44.541,0-377.811,0-389.577
	C898.034,167.604,891.448,131.426,856.509,131.426z"/>
</svg>
