<?xml version="1.0" encoding="utf-8"?>
<!-- Generator: Adobe Illustrator 16.0.0, SVG Export Plug-In . SVG Version: 6.00 Build 0)  -->
<!DOCTYPE svg PUBLIC "-//W3C//DTD SVG 1.1//EN" "http://www.w3.org/Graphics/SVG/1.1/DTD/svg11.dtd">
<svg version="1.1" id="Calque_1" xmlns="http://www.w3.org/2000/svg" xmlns:xlink="http://www.w3.org/1999/xlink" x="0px" y="0px"
	 width="1190.551px" height="1190.551px" viewBox="0 0 1190.551 1190.551" enable-background="new 0 0 1190.551 1190.551"
	 xml:space="preserve">
<g>
	<path fill="#010202" d="M823.123,652.413c-102.843-74.72-237.459-74.006-337.893-8.349l30.072-21.851l-12.648-17.408l28.833-20.947
		l12.647,17.407l33.367-24.242l-12.647-17.407l26.114-18.975l12.647,17.409l33.366-24.242l-12.647-17.408l27.565-20.028
		l12.647,17.409l33.367-24.243l-12.647-17.407l34.818-25.298l-13.834-19.041l14.507-10.54l-23.188-31.916l-14.509,10.54
		l-23.716-32.643l14.508-10.541l-23.188-31.917l-14.507,10.542l-25.071-34.509l14.507-10.539l-23.188-31.915l-14.507,10.541
		l-23.189-31.918l14.507-10.54l-23.188-31.916l-14.508,10.54l-25.032-34.455l14.508-10.54l-23.19-31.919L493.3,134.689
		l-21.74-29.923l14.507-10.539L462.878,62.31l-14.507,10.54l-18.971-26.11l14.507-10.541L420.718,4.281l-14.508,10.54L395.443,0
		l-34.817,25.298L349.031,9.341l-33.366,24.241l11.593,15.957l-27.565,20.028l-11.594-15.957l-33.366,24.241l11.594,15.957
		l-26.113,18.975l-11.595-15.957l-33.366,24.241l11.593,15.957l-28.833,20.949l-11.592-15.957l-33.37,24.243l11.594,15.957
		l-28.224,20.505l-11.593-15.957l-33.367,24.243l11.594,15.956L60.269,243.52l-11.595-15.957l-33.366,24.241l11.593,15.957
		l-23.163,16.83l10.768,14.82L-0.001,309.95l23.19,31.917l14.506-10.539l18.972,26.112L42.161,367.98l23.188,31.916l14.505-10.539
		l21.741,29.923L87.09,429.819l23.188,31.918l14.506-10.54l25.033,34.455l-14.506,10.539l23.189,31.917l14.506-10.539l23.188,31.917
		l-14.505,10.538l23.188,31.916l14.506-10.539l25.069,34.506l-14.505,10.539l23.188,31.917l14.506-10.539l23.717,32.644
		l-14.506,10.537l23.189,31.918l14.506-10.539l13.834,19.041l23.162-16.83l12.648,17.408l33.366-24.242l-12.646-17.407
		l22.785-16.555l12.646,17.407l33.366-24.24l-12.647-17.41l28.224-20.505l12.536,17.255c-28.08,18.916-53.388,42.977-74.443,71.956
		c-96.621,132.988-67.14,319.123,65.848,415.744c132.988,96.621,319.123,67.141,415.744-65.848
		C985.592,935.17,956.112,749.034,823.123,652.413z"/>
	<path fill="#010202" d="M983.715,0c-16.961,0.018-338.195,0.002-381.87,0c0,0-0.223,0-0.643,0c-2.778,0-4.264,0-4.264,0v0.001
		C583.114,0.005,543.855,0.015,528.972,0c-33.889-0.027-70.065,5.938-70.065,43.958c0,34.938,36.179,41.523,62.357,41.523
		c10.553,0,59.85,0,75.674,0c3.092,0,4.904,0,4.904,0c44.541,0,377.811,0,389.578,0c26.182,0,62.357-6.586,62.357-41.523
		C1053.781,5.938,1017.603-0.028,983.715,0z"/>
</g>
</svg>
