<?xml version="1.0" encoding="utf-8"?>
<!-- Generator: Adobe Illustrator 16.0.0, SVG Export Plug-In . SVG Version: 6.00 Build 0)  -->
<!DOCTYPE svg PUBLIC "-//W3C//DTD SVG 1.1//EN" "http://www.w3.org/Graphics/SVG/1.1/DTD/svg11.dtd">
<svg version="1.1" id="Calque_1" xmlns="http://www.w3.org/2000/svg" xmlns:xlink="http://www.w3.org/1999/xlink" x="0px" y="0px"
	 width="1190.551px" height="1190.551px" viewBox="0 0 1190.551 1190.551" enable-background="new 0 0 1190.551 1190.551"
	 xml:space="preserve">
<g>
	<path fill="#010202" d="M1012.578,795.105l-14.822-10.768l10.54-14.504l-31.919-23.191l-10.538,14.507l-26.11-18.972l10.539-14.505
		l-31.917-23.189l-10.539,14.506l-29.923-21.739l10.54-14.507l-31.919-23.189l-10.539,14.506l-34.454-25.032l10.538-14.507
		l-31.915-23.188l-10.54,14.507l-31.918-23.19l10.539-14.505l-31.915-23.188l-10.537,14.506l-34.509-25.07l10.54-14.505
		l-31.916-23.189L649.345,531.2l-32.643-23.715l10.538-14.506l-31.915-23.189l-10.54,14.507l-19.041-13.834l-16.828,23.163
		l-17.19-12.489c2.276-2.903,4.523-5.84,6.709-8.849c96.621-132.987,67.141-319.123-65.848-415.744
		C339.601-40.077,153.465-10.596,56.844,122.392s-67.141,319.123,65.848,415.744c128.353,93.254,306.205,69.028,405.312-52.337
		l-20.739,28.546l17.407,12.647l-16.553,22.785l-17.41-12.648l-24.24,33.366l17.408,12.647l-20.507,28.224l-17.407-12.646
		l-24.244,33.367l17.408,12.649l-20.947,28.832l-17.409-12.648l-24.242,33.368l17.408,12.646l-18.972,26.114l-17.41-12.647
		l-24.241,33.367l17.407,12.646l-20.026,27.566l-17.409-12.648l-24.242,33.368l17.408,12.647l-25.297,34.818l19.041,13.834
		l-10.541,14.507l31.917,23.19l10.54-14.509l32.642,23.716l-10.539,14.508l31.917,23.189l10.54-14.508l34.507,25.071l-10.54,14.507
		l31.915,23.188l10.54-14.507l31.917,23.188l-10.541,14.507l31.917,23.189l10.54-14.507l34.455,25.032l-10.54,14.508l31.917,23.188
		l10.541-14.506l29.922,21.739L612.68,1125.2l31.918,23.189l10.54-14.508l26.111,18.971l-10.54,14.508l31.918,23.189l10.54-14.507
		l14.819,10.767l25.297-34.818l15.957,11.594l24.244-33.366l-15.957-11.594l20.027-27.565l15.957,11.593l24.242-33.366
		l-15.957-11.593l18.972-26.115l15.958,11.594l24.243-33.366l-15.957-11.594l20.948-28.833l15.957,11.594l24.243-33.369
		l-15.957-11.593l20.506-28.224l15.957,11.594l24.242-33.366l-15.958-11.594l16.554-22.786l15.957,11.594l24.244-33.366
		l-15.957-11.594L1012.578,795.105z"/>
	<path fill="#010202" d="M524.81,1105.068c-16.961,0.019-338.195,0.002-381.87,0c0,0-0.224,0-0.644,0c-2.777,0-4.262,0-4.262,0
		v0.001c-13.826,0.004-53.084,0.015-67.968-0.001C36.178,1105.041,0,1111.006,0,1149.026c0,34.938,36.18,41.524,62.358,41.524
		c10.554,0,59.85,0,75.675,0c3.09,0,4.903,0,4.903,0c44.541,0,377.81,0,389.578,0c26.182,0,62.358-6.586,62.358-41.524
		C594.875,1111.007,558.697,1105.041,524.81,1105.068z"/>
</g>
</svg>
