<?xml version="1.0" encoding="utf-8"?>
<!-- Generator: Adobe Illustrator 16.0.0, SVG Export Plug-In . SVG Version: 6.00 Build 0)  -->
<!DOCTYPE svg PUBLIC "-//W3C//DTD SVG 1.1//EN" "http://www.w3.org/Graphics/SVG/1.1/DTD/svg11.dtd">
<svg version="1.1" id="Calque_1" xmlns="http://www.w3.org/2000/svg" xmlns:xlink="http://www.w3.org/1999/xlink" x="0px" y="0px"
	 width="1190.551px" height="1190.551px" viewBox="0 0 1190.551 1190.551" enable-background="new 0 0 1190.551 1190.551"
	 xml:space="preserve">
<path fill="#010202" d="M1058.118,757.79C988.88,621.903,829.611,561.984,689.997,613.629c11.51-5.763,22.636-15.399,32.722-25.503
	c11.981-12.006,239.14-239.142,270.022-270.023c0,0,0.158-0.157,0.455-0.454c1.965-1.965,3.014-3.014,3.014-3.014l-0.001-0.001
	c9.775-9.779,37.528-37.544,48.062-48.059c23.982-23.943,45.347-53.743,18.462-80.628c-24.705-24.704-54.944-3.779-73.456,14.732
	c-7.462,7.463-42.319,42.32-53.51,53.51c-2.186,2.186-3.469,3.468-3.469,3.468c-31.495,31.495-267.15,267.152-275.473,275.474
	c-6.957,6.958-14.255,15.571-19.343,24.925l10.98-21.55l-15.978-8.14l19.336-37.946l15.976,8.141l17.91-35.151l-15.977-8.142
	l17.911-35.15l15.977,8.14l17.908-35.149l-15.976-8.14l19.363-38.004l15.978,8.14l17.908-35.151l-15.975-8.14l18.317-35.95
	l15.977,8.14l17.909-35.15l-15.975-8.141l10.685-20.971l-25.51-12.999l9.769-19.172l-36.749-18.725l-9.769,19.173l-25.096-12.786
	l9.771-19.173l-36.748-18.724l-9.771,19.173l-31.084-15.838l9.771-19.173l-36.75-18.726l-9.77,19.173l-31.755-16.181l9.77-19.172
	l-36.747-18.724L529.3,87.041l-28.76-14.655l9.77-19.174l-36.747-18.724l-9.771,19.174l-30.358-15.469l9.77-19.174L406.454,0.296
	l-9.77,19.172L358.338-0.07l-10.687,20.971l-15.978-8.142l-17.911,35.152l15.978,8.141l-18.315,35.95l-15.979-8.141l-17.91,35.151
	l15.979,8.14l-19.363,38.004l-15.979-8.14l-17.909,35.149l15.978,8.14l-17.911,35.153l-15.978-8.143l-17.91,35.151l15.978,8.142
	l-19.335,37.945l-15.979-8.14l-17.91,35.151l15.979,8.143l-16.791,32.954l-15.979-8.141l-17.91,35.15l15.979,8.142l-14.653,28.757
	l-15.979-8.139l-17.912,35.154l15.979,8.14l-8.316,16.322l38.347,19.54l-8.954,17.573l36.749,18.725l8.954-17.573l30.359,15.469
	l-8.954,17.573l36.747,18.724l8.954-17.573l28.762,14.654L269.6,596.73l36.748,18.727l8.955-17.574l31.754,16.18l-8.953,17.573
	l36.749,18.726l8.956-17.572l31.082,15.837l-8.953,17.575l36.748,18.723l8.954-17.574l25.095,12.786l-8.956,17.575l36.75,18.725
	l8.953-17.574l25.511,12.998l8.316-16.321l15.856,8.079c-72.971,88.656-90.903,215.582-35.446,324.426
	c74.628,146.466,253.859,204.701,400.325,130.074C1074.509,1083.486,1132.746,904.255,1058.118,757.79z M563.564,703.13
	l17.633-34.607l-15.977-8.141l14.653-28.758l15.976,8.141l17.91-35.15l-15.976-8.141l16.791-32.954l15.975,8.14l5.188-10.18
	c-6.957,14.659-7.942,30.81,6.354,45.107c12.236,12.237,25.076,14.477,37.693,11.023c-7.399,3.052-14.738,6.408-21.993,10.104
	C620.368,646.785,588.721,672.694,563.564,703.13z"/>
</svg>
