<?xml version="1.0" encoding="utf-8"?>
<!-- Generator: Adobe Illustrator 16.0.0, SVG Export Plug-In . SVG Version: 6.00 Build 0)  -->
<!DOCTYPE svg PUBLIC "-//W3C//DTD SVG 1.1//EN" "http://www.w3.org/Graphics/SVG/1.1/DTD/svg11.dtd">
<svg version="1.1" id="Calque_1" xmlns="http://www.w3.org/2000/svg" xmlns:xlink="http://www.w3.org/1999/xlink" x="0px" y="0px"
	 width="1190.551px" height="1190.551px" viewBox="0 0 1190.551 1190.551" enable-background="new 0 0 1190.551 1190.551"
	 xml:space="preserve">
<path fill="#010202" d="M984.624,1105.07c-16.961,0.018-338.192,0.002-381.87,0c0,0-0.223,0-0.643,0c-2.778,0-4.262,0-4.262,0l0,0
	c-13.826,0.004-53.085,0.016-67.968,0c-9.229-0.008-18.62,0.438-27.41,1.844c66.742-15.861,128.362-54.734,171.849-114.586
	c96.621-132.988,67.14-319.123-65.848-415.745c-48.95-35.564-105.101-54.023-161.337-56.545h14.057v-17.933h42.588v17.933h39.453
	v-17.933h36.987v17.933h39.448v-17.933h32.275v17.933h39.453v-17.933h18.32v-43.038h19.723v-41.244h-19.723v-34.072h19.723v-41.243
	h-19.723v-32.279h19.723v-41.244h-19.723v-35.639h19.723v-41.246h-19.723v-34.886h19.723v-41.243h-19.723V87.807h19.723V46.562
	h-19.723V17.932h-18.32V0.001h-39.453v17.93h-32.275V0.001h-39.448v17.93h-36.986V0.001h-39.453v17.93h-42.588V0.001h-39.451v17.93
	H382.29V0.001h-39.447v17.93H300.19V0.001h-39.451v17.93H220.39V0.001h-39.451v17.93h-23.536v28.631h-21.518v41.244h21.518v28.164
	h-21.518v41.243h21.518V192.1h-21.518v41.246h21.518v35.639h-21.518v41.244h21.518v32.279h-21.518v41.243h21.518v34.072h-21.518
	v41.244h21.518v43.038h23.536v17.933h39.451v-17.933h40.348v17.933h39.451v-17.933h42.653v17.933h39.447v-17.933h39.452v17.862
	c-87.864,3.54-173.312,45.798-229.013,122.461c-96.621,132.988-67.141,319.123,65.848,415.744
	c69.948,50.822,154.598,66.736,233.192,51.072c-18.339,5.217-31.953,16.467-31.953,39.781c0,34.938,36.179,41.523,62.358,41.523
	c10.554,0,59.85,0,75.675,0c3.09,0,4.901,0,4.901,0c44.541,0,377.812,0,389.578,0c26.185,0,62.359-6.586,62.359-41.523
	C1054.692,1111.008,1018.514,1105.043,984.624,1105.07z"/>
</svg>
