<?xml version="1.0" encoding="utf-8"?>
<!-- Generator: Adobe Illustrator 16.0.0, SVG Export Plug-In . SVG Version: 6.00 Build 0)  -->
<!DOCTYPE svg PUBLIC "-//W3C//DTD SVG 1.1//EN" "http://www.w3.org/Graphics/SVG/1.1/DTD/svg11.dtd">
<svg version="1.1" id="Calque_1" xmlns="http://www.w3.org/2000/svg" xmlns:xlink="http://www.w3.org/1999/xlink" x="0px" y="0px"
	 width="1190.551px" height="1190.551px" viewBox="0 0 1190.551 1190.551" enable-background="new 0 0 1190.551 1190.551"
	 xml:space="preserve">
<g>
	<circle fill="#010202" cx="590.022" cy="892.054" r="297.64"/>
	<path fill="#010202" d="M856.647,96.229c-36.562-0.003-43.479,33.453-43.931,66.156v-36.676h-17.93V85.361h17.93V45.911h-17.93
		V22.375h-28.631V0.856h-41.244v21.518h-28.164V0.856h-41.242v21.518h-34.887V0.856h-41.246v21.518h-35.639V0.856H502.49v21.518
		h-32.278V0.856H428.97v21.518h-34.073V0.856h-41.245v21.518h-43.038v23.536h-17.932v39.451h17.932v40.348h-17.932v39.451h17.932
		v42.653h-17.932v39.448h17.932v39.452h-17.932v39.451h17.932v42.588h-17.932v39.453h17.932v36.986h-17.932v39.451h17.932v32.274
		h-17.932v39.453h17.932v18.319h43.038v19.724h41.244v-19.724h34.073v19.724h41.241v-19.724h32.279v19.724h41.244v-19.724h35.639
		v19.724h10.648h30.598v-19.724h34.886v19.724h41.243v-19.724h28.164v19.724h41.244v-19.724h28.631V556.37h17.903
		c0.004,15.957,0.012,50.831-0.002,64.663c-0.028,33.892,5.938,70.067,43.958,70.067c34.938,0,41.523-36.179,41.523-62.359
		c0-10.553,0-59.849,0-75.674c0-3.09,0-4.903,0-4.903c0-44.541,0-377.811,0-389.578C898.171,132.404,891.585,96.229,856.647,96.229z
		 M794.787,165.161h17.907c-0.001,0.377-0.006,0.755-0.005,1.132c0.004,3.367,0.006,18.729,0.007,41.521h-17.909V165.161
		L794.787,165.161z M794.787,247.263h17.91c0,12.342,0,25.605,0,39.452h-17.91V247.263z M794.787,326.166h17.91
		c0,14.059-0.001,28.357-0.001,42.588h-17.909V326.166L794.787,326.166z M794.787,408.207h17.907c0,12.71-0.001,25.116-0.001,36.986
		h-17.906V408.207L794.787,408.207z M794.787,484.644h17.904c0,12.012-0.001,22.898-0.001,32.274h-17.903V484.644L794.787,484.644z"
		/>
</g>
</svg>
