<?xml version="1.0" encoding="utf-8"?>
<!-- Generator: Adobe Illustrator 16.0.0, SVG Export Plug-In . SVG Version: 6.00 Build 0)  -->
<!DOCTYPE svg PUBLIC "-//W3C//DTD SVG 1.1//EN" "http://www.w3.org/Graphics/SVG/1.1/DTD/svg11.dtd">
<svg version="1.1" id="Calque_1" xmlns="http://www.w3.org/2000/svg" xmlns:xlink="http://www.w3.org/1999/xlink" x="0px" y="0px"
	 width="1190.551px" height="1190.551px" viewBox="0 0 1190.551 1190.551" enable-background="new 0 0 1190.551 1190.551"
	 xml:space="preserve">
<path fill="#010202" d="M848.74,1105.068c-16.961,0.019-338.193,0.002-381.87,0c0,0-0.223,0-0.643,0c-2.778,0-4.262,0-4.262,0v0.001
	c-13.826,0.004-53.085,0.015-67.968-0.001c-9.228-0.007-18.62,0.438-27.41,1.845c66.743-15.861,128.363-54.734,171.849-114.587
	c96.621-132.988,67.14-319.123-65.848-415.744c-48.95-35.564-105.1-54.023-161.337-56.545h14.057v-17.933h42.588v17.933h39.453
	v-17.933h36.987v17.933h39.449v-17.933h32.275v17.933h39.453v-17.933h18.32v-43.038h19.723v-41.244h-19.723v-34.072h19.723v-41.243
	h-19.723v-32.279h19.723v-41.244h-19.723v-35.639h19.723v-41.246h-19.723v-34.886h19.723v-41.243h-19.723V87.805h19.723V46.561
	h-19.723V17.93h-18.32V0h-39.453v17.93h-32.275V0h-39.449v17.93H407.35V0h-39.453v17.93h-42.588V0h-39.451v17.93h-39.452V0h-39.448
	v17.93h-42.653V0h-39.451v17.93H84.505V0H45.054v17.93H21.518v28.631H0v41.244h21.518v28.164H0v41.243h21.518v34.886H0v41.246
	h21.518v35.639H0v41.244h21.518v32.279H0v41.243h21.518v34.072H0v41.244h21.518v43.038h23.536v17.933h39.451v-17.933h40.348v17.933
	h39.451v-17.933h42.653v17.933h39.448v-17.933h39.452v17.862c-87.865,3.54-173.313,45.798-229.013,122.462
	c-96.621,132.988-67.141,319.123,65.848,415.744c69.948,50.821,154.597,66.736,233.192,51.072
	c-18.339,5.217-31.953,16.466-31.953,39.781c0,34.938,36.179,41.524,62.358,41.524c10.554,0,59.85,0,75.675,0
	c3.09,0,4.902,0,4.902,0c44.541,0,377.812,0,389.578,0c26.184,0,62.359-6.586,62.359-41.524
	C918.807,1111.007,882.629,1105.041,848.74,1105.068z"/>
</svg>
