<?xml version="1.0" encoding="utf-8"?>
<!-- Generator: Adobe Illustrator 16.0.0, SVG Export Plug-In . SVG Version: 6.00 Build 0)  -->
<!DOCTYPE svg PUBLIC "-//W3C//DTD SVG 1.1//EN" "http://www.w3.org/Graphics/SVG/1.1/DTD/svg11.dtd">
<svg version="1.1" id="Calque_1" xmlns="http://www.w3.org/2000/svg" xmlns:xlink="http://www.w3.org/1999/xlink" x="0px" y="0px"
	 width="1190.551px" height="1190.551px" viewBox="0 0 1190.551 1190.551" enable-background="new 0 0 1190.551 1190.551"
	 xml:space="preserve">
<path fill="#010202" d="M563.993,130.509c-38.02-0.003-43.984,36.176-43.958,70.063c0.019,16.962,0.002,338.195,0,381.87
	c0,0,0,0.224,0,0.644c0,2.777,0,4.263,0,4.263h0.001c0.004,13.825,0.015,53.083-0.001,67.967
	c-0.013,16.255,1.365,33.026,6.986,46.089c-52.95-63.963-132.138-105.408-221.071-107.847h4.276V572.04h32.279v21.518h41.243V572.04
	h34.072v21.518h41.244V572.04h43.038v-23.536h17.932v-39.451h-17.932v-40.348h17.932v-39.451h-17.932v-42.653h17.932v-39.449
	h-17.932v-39.452h17.932v-39.45h-17.932v-42.588h17.932v-25.089v-14.364h-17.932v-36.986h17.932v-39.451h-17.932V77.496h17.932
	V38.043h-17.932V19.724h-43.038V0h-41.244v19.724h-34.072V0h-41.243v19.724h-32.279V0h-41.244v19.724h-35.639V0h-41.246v19.724
	h-34.886V0h-41.243v19.724H87.805V0H46.561v19.724H17.93v18.319H0v39.453h17.93v32.274H0v39.451h17.93v36.986H0v39.453h17.93v42.588
	H0v39.45h17.93v39.452H0v39.449h17.93v42.653H0v39.451h17.93v40.348H0v39.451h17.93v23.536h28.631v21.518h41.244V572.04h28.164
	v21.518h41.243V572.04h34.886v21.518h41.246V572.04h35.639v21.518h20.347C128.791,597.96,0,729.475,0,891.076
	c0,164.382,133.258,297.64,297.64,297.64s297.64-133.258,297.64-297.64c0-64.3-20.392-123.835-55.057-172.498
	c6.035,4.292,13.789,6.804,23.771,6.804c34.938,0,41.524-36.179,41.524-62.357c0-10.555,0-59.851,0-75.675c0-3.091,0-4.904,0-4.904
	c0-44.541,0-377.811,0-389.577C605.518,166.686,598.932,130.509,563.993,130.509z"/>
</svg>
