<?xml version="1.0" encoding="utf-8"?>
<!-- Generator: Adobe Illustrator 16.0.0, SVG Export Plug-In . SVG Version: 6.00 Build 0)  -->
<!DOCTYPE svg PUBLIC "-//W3C//DTD SVG 1.1//EN" "http://www.w3.org/Graphics/SVG/1.1/DTD/svg11.dtd">
<svg version="1.1" id="Calque_1" xmlns="http://www.w3.org/2000/svg" xmlns:xlink="http://www.w3.org/1999/xlink" x="0px" y="0px"
	 width="1190.551px" height="1190.551px" viewBox="0 0 1190.551 1190.551" enable-background="new 0 0 1190.551 1190.551"
	 xml:space="preserve">
<g>
	<circle fill="#010202" cx="297.34" cy="891.198" r="297.64"/>
	<path fill="#010202" d="M563.965,95.372c-36.561-0.003-43.478,33.453-43.93,66.156v-36.676h-17.93V84.505h17.93V45.054h-17.93
		V21.518h-28.631V0h-41.244v21.518h-28.164V0h-41.243v21.518h-34.886V0h-41.246v21.518h-35.639V0h-41.244v21.518H177.53V0h-41.242
		v21.518h-34.073V0H60.97v21.518H17.932v23.536H0v39.451h17.932v40.348H0v39.451h17.932v42.653H0v39.448h17.932v39.452H0v39.451
		h17.932v42.588H0v39.453h17.932v36.986H0v39.451h17.932v32.274H0v39.453h17.932v18.319H60.97v19.724h41.244v-19.724h34.073v19.724
		h41.242v-19.724h32.279v19.724h41.244v-19.724h35.639v19.724h10.648h30.598v-19.724h34.886v19.724h41.243v-19.724h28.164v19.724
		h41.244v-19.724h28.631v-18.319h17.903c0.004,15.957,0.012,50.831-0.002,64.663c-0.028,33.891,5.938,70.067,43.958,70.067
		c34.938,0,41.524-36.179,41.524-62.359c0-10.553,0-59.849,0-75.674c0-3.09,0-4.903,0-4.903c0-44.541,0-377.811,0-389.578
		C605.49,131.548,598.904,95.372,563.965,95.372z M502.106,164.304h17.907c-0.001,0.377-0.006,0.755-0.005,1.132
		c0.004,3.367,0.006,18.729,0.007,41.521h-17.909V164.304z M502.106,246.406h17.91c0,12.342,0,25.606,0,39.452h-17.91V246.406z
		 M502.106,325.309h17.91c0,14.059-0.001,28.357-0.001,42.588h-17.909V325.309z M502.106,407.35h17.907
		c0,12.71-0.001,25.116-0.001,36.986h-17.906V407.35z M502.106,483.787h17.904c0,12.012-0.001,22.898-0.001,32.274h-17.903V483.787z
		"/>
</g>
</svg>
