<?xml version="1.0" encoding="utf-8"?>
<!-- Generator: Adobe Illustrator 16.0.0, SVG Export Plug-In . SVG Version: 6.00 Build 0)  -->
<!DOCTYPE svg PUBLIC "-//W3C//DTD SVG 1.1//EN" "http://www.w3.org/Graphics/SVG/1.1/DTD/svg11.dtd">
<svg version="1.1" id="Calque_1" xmlns="http://www.w3.org/2000/svg" xmlns:xlink="http://www.w3.org/1999/xlink" x="0px" y="0px"
	 width="1190.551px" height="1190.551px" viewBox="0 0 1190.551 1190.551" enable-background="new 0 0 1190.551 1190.551"
	 xml:space="preserve">
<g>
	<path fill="#010202" d="M984.937,771.982c-66.86-150.17-242.798-217.707-392.969-150.847
		c-35.808,15.942-66.904,38.098-92.613,64.616l22.018-32.642l-16.352-11.029l19.053-28.248l16.353,11.029l23.062-34.192
		l-16.352-11.029l18.05-26.761l16.352,11.03l23.063-34.193l-16.352-11.029l19.929-29.546l16.353,11.029l23.064-34.194l-16.353-11.03
		l19.508-28.921l16.353,11.029l23.062-34.192l-16.352-11.029l15.749-23.349l16.352,11.029l23.063-34.193l-16.352-11.029
		l16.01-23.736l-15.188-10.243l10.027-14.865l-32.709-22.062l-10.025,14.864l-26.758-18.048l10.026-14.864l-32.706-22.061
		l-10.026,14.864l-30.663-20.683l10.026-14.864l-32.708-22.062l-10.026,14.864l-35.307-23.814l10.026-14.865l-32.707-22.061
		l-10.026,14.864l-32.707-22.061l10.026-14.865l-32.704-22.06L424.483,105.4l-35.361-23.852l10.026-14.864l-32.707-22.062
		l-10.026,14.865l-33.449-22.562l10.026-14.864L300.285,0l-10.026,14.865L270.747,1.704L254.736,25.44l-17.839-12.033L213.834,47.6
		l17.839,12.032l-15.749,23.349l-17.839-12.032l-23.062,34.192l17.839,12.032l-19.508,28.922l-17.839-12.033l-23.065,34.195
		l17.84,12.032l-19.929,29.546l-17.84-12.032l-23.063,34.192l17.84,12.033l-18.051,26.76l-17.839-12.032l-23.062,34.192
		l17.839,12.032L47.13,333.229l-17.839-12.033L6.227,355.389l17.839,12.032L0,403.102l19.513,13.161L9.485,431.13l32.706,22.061
		l10.027-14.866l33.45,22.562l-10.027,14.866l32.706,22.061l10.027-14.866l35.361,23.852l-10.027,14.866l32.704,22.06l10.027-14.866
		l32.708,22.061l-10.027,14.866l32.706,22.062l10.027-14.867l35.307,23.815l-10.027,14.866l32.708,22.062l10.027-14.866
		l30.663,20.682l-10.027,14.866l32.706,22.061l10.027-14.866l26.758,18.048l-10.027,14.867l32.708,22.062l10.027-14.866
		l15.188,10.243l24.066-35.68l16.084,10.849c-81.082,84.714-107.565,213.233-56.92,326.982
		c66.86,150.171,242.799,217.707,392.969,150.847C984.261,1098.091,1051.798,922.153,984.937,771.982z"/>
	<path fill="#010202" d="M451.966,91.543c16.594,3.51,330.806,70.312,373.525,79.395c0,0,0.218,0.047,0.629,0.134
		c2.718,0.578,4.169,0.887,4.169,0.887v-0.001c13.524,2.87,51.927,11.023,66.481,14.132c33.143,7.073,69.771,8.76,77.676-28.43
		c7.264-34.175-26.755-48.139-52.363-53.582c-10.322-2.193-58.541-12.443-74.021-15.733c-3.022-0.643-4.797-1.02-4.797-1.02
		C799.698,78.063,473.712,8.773,462.201,6.326c-25.61-5.443-62.366-6.522-69.63,27.651
		C384.665,71.167,418.812,84.524,451.966,91.543z"/>
</g>
</svg>
