<?xml version="1.0" encoding="utf-8"?>
<!-- Generator: Adobe Illustrator 16.0.0, SVG Export Plug-In . SVG Version: 6.00 Build 0)  -->
<!DOCTYPE svg PUBLIC "-//W3C//DTD SVG 1.1//EN" "http://www.w3.org/Graphics/SVG/1.1/DTD/svg11.dtd">
<svg version="1.1" id="Calque_1" xmlns="http://www.w3.org/2000/svg" xmlns:xlink="http://www.w3.org/1999/xlink" x="0px" y="0px"
	 width="1190.551px" height="1190.551px" viewBox="0 0 1190.551 1190.551" enable-background="new 0 0 1190.551 1190.551"
	 xml:space="preserve">
<path fill="#010202" d="M711.905,382.182l17.959-11.854l-22.721-34.421l-17.96,11.854l-15.516-23.505l17.96-11.854l-22.721-34.421
	l-17.959,11.855l-19.219-29.115l17.959-11.854l-22.723-34.423l-17.959,11.854l-19.633-29.742l17.959-11.854l-22.722-34.423
	l-17.959,11.855l-17.782-26.939l17.959-11.854L544.108,88.92l-17.959,11.855L507.379,72.34l17.959-11.855l-22.721-34.421
	l-17.959,11.854l-23.71-35.919l-19.643,12.966L431.427,0l-32.925,21.733l9.878,14.965l-33.673,22.228l-9.878-14.965l-32.925,21.733
	l9.878,14.965l-35.597,23.497l-9.878-14.965l-32.923,21.732l9.878,14.965l-32.926,21.734l-9.878-14.965l-32.926,21.733l9.879,14.965
	l-35.542,23.461l-9.879-14.965l-32.927,21.735l9.878,14.965l-30.866,20.375l-9.879-14.965l-32.925,21.733l9.879,14.965
	l-26.937,17.78l-9.879-14.964L5.41,281.212l9.878,14.965L0,306.267l23.71,35.919L7.248,353.053l22.722,34.421l16.462-10.866
	l18.77,28.436L48.739,415.91l22.721,34.42l16.462-10.866l17.783,26.939l-16.462,10.866l22.722,34.422l16.462-10.866l19.633,29.742
	l-16.462,10.867l22.722,34.422l16.462-10.866L190,594.105l-16.462,10.866L165.788,592l-37.223,22.239l-55.906-93.571L0,564.08
	l90.783,151.945l44.64-26.671l95.398,159.671l-44.639,26.671l74.884,125.335l44.64-26.671l44.251,74.063l28.02-16.741
	l-77.077-129.006l37.222-22.239L173.54,604.974l22.719,34.418l16.462-10.867l15.516,23.506l-16.462,10.866l22.721,34.421
	l16.462-10.866l15.773,23.895l15.287-10.092l9.878,14.964l32.927-21.734l-9.878-14.964l26.937-17.78l9.876,14.962
	c-12.582,6.1-24.167,14.764-33.93,25.939c-39,44.639-34.411,112.686,10.227,151.684c39.635,34.628,97.721,34.889,137.545,3.266
	c-28.387,26.453-41.5,67.433-30.482,107.353c15.769,57.139,75.085,90.797,132.225,75.027c57.139-15.77,90.798-75.081,75.027-132.225
	c-15.77-57.14-75.087-90.797-132.226-75.027c-14.278,3.94-27.09,10.601-38.031,19.267c2.646-2.473,5.193-5.102,7.626-7.887
	c38.999-44.639,34.412-112.684-10.227-151.684c-33.458-29.231-80.066-33.975-117.737-15.721l32.91-21.724l-9.878-14.964
	l30.867-20.375l9.877,14.964l32.928-21.735l-9.878-14.964l35.542-23.461l9.878,14.964l32.926-21.734l-9.878-14.964l32.926-21.733
	l9.877,14.964l32.924-21.732l-9.878-14.964l35.597-23.497l9.877,14.964l32.925-21.733l-9.877-14.964l33.673-22.228l9.878,14.964
	l32.925-21.733l-9.878-14.964l19.643-12.966L711.905,382.182z"/>
</svg>
