<?xml version="1.0" encoding="utf-8"?>
<!-- Generator: Adobe Illustrator 16.0.0, SVG Export Plug-In . SVG Version: 6.00 Build 0)  -->
<!DOCTYPE svg PUBLIC "-//W3C//DTD SVG 1.1//EN" "http://www.w3.org/Graphics/SVG/1.1/DTD/svg11.dtd">
<svg version="1.1" id="Calque_1" xmlns="http://www.w3.org/2000/svg" xmlns:xlink="http://www.w3.org/1999/xlink" x="0px" y="0px"
	 width="1190.551px" height="1190.551px" viewBox="0 0 1190.551 1190.551" enable-background="new 0 0 1190.551 1190.551"
	 xml:space="preserve">
<g>
	<path fill="#010202" d="M364.193,732.002l33.368-24.241l-12.65-17.409l22.787-16.555l12.647,17.408l33.366-24.241l-12.648-17.41
		l28.223-20.504l12.649,17.409l33.368-24.245l-12.648-17.409l28.832-20.946l12.648,17.409l33.368-24.243l-12.649-17.409
		l26.115-18.975l12.648,17.409l33.367-24.242l-12.649-17.409l27.565-20.025l12.647,17.408l33.367-24.242l-12.648-17.409
		l34.819-25.297l-13.834-19.043l14.506-10.539l-23.188-31.916l-14.507,10.539l-23.716-32.642l14.507-10.54l-23.188-31.916
		l-14.507,10.539l-25.07-34.506l14.507-10.54l-23.188-31.915l-14.506,10.541l-23.19-31.918l14.508-10.539l-23.19-31.918
		l-14.507,10.539l-25.031-34.453l14.506-10.54l-23.19-31.919l-14.506,10.54l-21.739-29.921l14.506-10.54l-23.188-31.916
		L448.371,72.85l-18.971-26.111l14.506-10.54L420.717,4.28l-14.506,10.541L395.444,0l-34.819,25.298L349.031,9.34l-33.368,24.243
		l11.596,15.958l-27.565,20.026L288.099,53.61l-33.367,24.242l11.595,15.957l-26.115,18.975l-11.593-15.958l-33.369,24.243
		l11.596,15.958l-28.833,20.946l-11.593-15.957L133.05,166.26l11.594,15.957l-28.224,20.506l-11.594-15.958L71.46,211.006
		l11.595,15.959L60.268,243.52l-11.594-15.958l-33.366,24.242l11.594,15.957L3.74,284.591l10.767,14.818l-14.507,10.54l23.19,31.918
		l14.506-10.539l18.971,26.112L42.16,367.98l23.189,31.916l14.505-10.539l21.739,29.922L87.09,429.818l23.19,31.919l14.504-10.539
		l25.033,34.453l-14.506,10.539l23.188,31.918l14.506-10.539l23.189,31.917l-14.505,10.538l10.747,14.792
		c-19.684-25.345-50.437-41.687-84.938-41.687c-59.274,0-107.5,48.225-107.5,107.5s48.227,107.5,107.5,107.5
		c59.275,0,107.5-48.225,107.5-107.5c0-22.233-6.785-42.913-18.394-60.075l8.271,11.385l14.505-10.539l25.07,34.508l-14.505,10.537
		l23.188,31.918l14.506-10.539l23.716,32.643l-14.504,10.538l23.188,31.917l14.506-10.539l13.833,19.04l23.163-16.829
		L364.193,732.002z"/>
	<polygon fill="#010202" points="724.323,508.724 697.916,489.538 609.585,611.116 574.506,585.631 377.011,857.459 
		412.089,882.946 348.021,971.128 416.496,1020.879 520.533,877.682 478.464,847.117 587.793,696.641 629.862,727.206 
		715.68,609.088 673.611,578.523 	"/>
	<path fill="#010202" d="M75.634,753.394c-56.374,18.317-87.336,79.085-69.02,135.458c18.317,56.375,79.084,87.335,135.458,69.02
		c56.373-18.318,87.337-79.083,69.02-135.458C192.775,766.039,132.013,735.075,75.634,753.394z"/>
</g>
</svg>
