<?xml version="1.0" encoding="utf-8"?>
<!-- Generator: Adobe Illustrator 16.0.0, SVG Export Plug-In . SVG Version: 6.00 Build 0)  -->
<!DOCTYPE svg PUBLIC "-//W3C//DTD SVG 1.1//EN" "http://www.w3.org/Graphics/SVG/1.1/DTD/svg11.dtd">
<svg version="1.1" id="Calque_1" xmlns="http://www.w3.org/2000/svg" xmlns:xlink="http://www.w3.org/1999/xlink" x="0px" y="0px"
	 width="1190.551px" height="1190.551px" viewBox="0 0 1190.551 1190.551" enable-background="new 0 0 1190.551 1190.551"
	 xml:space="preserve">
<path fill="#010202" d="M892.059,141.217V99.973h-19.725V71.342h-18.318v-17.93h-39.453v17.93h-32.276v-17.93h-39.448v17.93h-36.986
	v-17.93h-39.454v17.93H623.81v-17.93h-39.452v17.93h-39.452v-17.93h-39.447v17.93h-42.652v-17.93h-39.451v17.93h-40.349v-17.93
	h-39.451v17.93h-23.536v28.631H298.5v41.244h21.519v28.165H298.5v41.242h21.519v34.886H298.5v41.246h21.519v35.638H298.5v41.245
	h21.519v32.279H298.5v41.243h21.519v34.071H298.5v41.244h21.519v43.039h23.536v17.932h39.451v-17.932h40.348v17.932h39.45
	l-41.917,13.619l54.674,168.271c-10.375-8.829-22.6-15.819-36.339-20.284c-56.374-18.316-117.141,12.644-135.458,69.019
	c-18.317,56.374,12.646,117.142,69.02,135.458c56.375,18.316,117.142-12.646,135.458-69.021
	c13.844-42.605-0.467-87.718-32.617-115.12l49.414-16.055l57.478,176.896l-49.455,16.068l45.117,138.855l49.454-16.068
	l26.661,82.053l31.043-10.086L638.898,984.13l41.237-13.398l-82.23-253.078c7.064,19.467,19.803,37.101,37.782,50.163
	c47.954,34.841,115.315,24.173,150.156-23.781c34.841-47.956,24.172-115.314-23.783-150.157
	c-17.984-13.067-38.699-19.732-59.405-20.431h3.197v-17.932h36.986v17.932h39.448v-17.932h32.276v17.932h39.453v-17.932h18.318
	v-43.039h19.725v-41.244h-19.725v-34.071h19.725v-41.243h-19.725v-32.279h19.725v-41.245h-19.725v-35.638h19.725V245.51h-19.725
	v-34.886h19.725v-41.242h-19.725v-28.165H892.059z M611.904,617.66c-20.271,27.898-25.133,62.364-16.215,93.176l-19.384-59.658
	l-41.238,13.399l-33.683-103.665l-38.579,12.535v-17.931h42.652v17.932h39.447v-17.932h39.452v17.932h39.452v-17.932h42.587v17.932
	h29.147C663.473,574.477,632.181,589.751,611.904,617.66z"/>
</svg>
