<?xml version="1.0" encoding="utf-8"?>
<!-- Generator: Adobe Illustrator 16.0.0, SVG Export Plug-In . SVG Version: 6.00 Build 0)  -->
<!DOCTYPE svg PUBLIC "-//W3C//DTD SVG 1.1//EN" "http://www.w3.org/Graphics/SVG/1.1/DTD/svg11.dtd">
<svg version="1.1" id="Calque_1" xmlns="http://www.w3.org/2000/svg" xmlns:xlink="http://www.w3.org/1999/xlink" x="0px" y="0px"
	 width="1190.551px" height="1190.551px" viewBox="0 0 1190.551 1190.551" enable-background="new 0 0 1190.551 1190.551"
	 xml:space="preserve">
<g>
	<polygon fill="#010202" points="317.058,649.69 360.097,649.69 360.097,669.416 401.341,669.416 401.341,649.69 435.413,649.69 
		435.413,669.416 476.656,669.416 476.656,649.69 508.935,649.69 508.935,669.416 550.18,669.416 550.18,649.69 585.818,649.69 
		585.818,669.416 627.064,669.416 627.064,649.69 661.949,649.69 661.949,669.416 703.193,669.416 703.193,649.69 731.357,649.69 
		731.357,669.416 772.601,669.416 772.601,649.69 801.232,649.69 801.232,631.373 819.16,631.373 819.16,591.92 801.232,591.92 
		801.232,559.644 819.16,559.644 819.16,520.193 801.232,520.193 801.232,483.208 819.16,483.208 819.16,443.754 801.232,443.754 
		801.232,401.167 819.16,401.167 819.16,361.715 801.232,361.715 801.232,322.263 819.16,322.263 819.16,282.814 801.232,282.814 
		801.232,240.162 819.16,240.162 819.16,200.711 801.232,200.711 801.232,160.363 819.16,160.363 819.16,120.912 801.232,120.912 
		801.232,97.376 772.601,97.376 772.601,75.857 731.357,75.857 731.357,97.376 703.193,97.376 703.193,75.857 661.949,75.857 
		661.949,97.376 627.064,97.376 627.064,75.857 585.818,75.857 585.818,97.376 550.18,97.376 550.18,75.857 508.935,75.857 
		508.935,97.376 476.656,97.376 476.656,75.857 435.413,75.857 435.413,97.376 401.341,97.376 401.341,75.857 360.097,75.857 
		360.097,97.376 317.058,97.376 317.058,120.912 299.127,120.912 299.127,160.363 317.058,160.363 317.058,200.711 299.127,200.711 
		299.127,240.162 317.058,240.162 317.058,282.814 299.127,282.814 299.127,322.263 317.058,322.263 317.058,361.715 
		299.127,361.715 299.127,401.167 317.058,401.167 317.058,443.754 299.127,443.754 299.127,483.208 317.058,483.208 
		317.058,520.193 299.127,520.193 299.127,559.644 317.058,559.644 317.058,591.92 299.127,591.92 299.127,631.373 317.058,631.373 
			"/>
	<path fill="#010202" d="M799.283,865.305l82.055,26.659l10.086-31.041L748.5,814.484l13.399-41.239L442.346,669.417l-13.399,41.235
		l-103.664-33.682l-26.155,80.497l168.331,54.693c-31.538,27.472-45.462,72.154-31.745,114.375
		c18.316,56.375,79.084,87.335,135.458,69.021c24.081-7.824,43.52-23.398,56.466-43.063c-15.147,25.648-19.662,57.42-9.755,87.91
		c18.316,56.374,79.079,87.338,135.457,69.019c56.375-18.315,87.336-79.085,69.02-135.457
		c-10.658-32.806-35.693-56.999-65.871-67.892l26.729,8.686L799.283,865.305z M483.532,762.708l84,27.295
		c-19.904-5.731-41.661-5.793-62.801,1.075c-14.147,4.599-26.694,11.87-37.265,21.074L483.532,762.708z M686.901,904.944
		c-24.081,7.824-43.52,23.398-56.467,43.064c15.147-25.649,19.662-57.421,9.755-87.911c-10.659-32.806-35.694-57-65.874-67.893
		l86.113,27.98l-16.069,49.454l105.34,34.227C729.793,898.137,708.039,898.076,686.901,904.944z"/>
</g>
</svg>
