<?xml version="1.0" encoding="utf-8"?>
<!-- Generator: Adobe Illustrator 16.0.0, SVG Export Plug-In . SVG Version: 6.00 Build 0)  -->
<!DOCTYPE svg PUBLIC "-//W3C//DTD SVG 1.1//EN" "http://www.w3.org/Graphics/SVG/1.1/DTD/svg11.dtd">
<svg version="1.1" id="Calque_1" xmlns="http://www.w3.org/2000/svg" xmlns:xlink="http://www.w3.org/1999/xlink" x="0px" y="0px"
	 width="1190.551px" height="1190.551px" viewBox="0 0 1190.551 1190.551" enable-background="new 0 0 1190.551 1190.551"
	 xml:space="preserve">
<path fill="#010202" d="M941.151,403.255l13.836-19.041l-23.164-16.83l12.646-17.409l-33.365-24.241l-12.648,17.409l-22.785-16.556
	l12.648-17.409l-33.367-24.242l-12.648,17.409L814.08,281.84l12.646-17.409l-33.367-24.243l-12.648,17.409l-28.83-20.947
	l12.648-17.409l-33.369-24.243l-12.65,17.409l-26.111-18.975l12.646-17.409l-33.365-24.241l-12.648,17.409l-27.564-20.026
	l12.65-17.41l-33.369-24.244L598.1,124.92l-34.82-25.297l-13.834,19.041l-14.507-10.54l-23.189,31.916l14.508,10.54l-23.717,32.643
	l-14.507-10.539l-23.188,31.916l14.507,10.539l-25.07,34.507l-14.506-10.54l-23.188,31.916l14.507,10.539l-23.188,31.918
	L393.4,302.938l-23.19,31.917l14.508,10.54l-25.032,34.453l-14.507-10.539l-23.189,31.919l14.506,10.539l-21.738,29.922
	l-14.509-10.539l-23.188,31.916l14.506,10.541l-18.972,26.11l-14.507-10.539l-23.189,31.919l14.507,10.539l-10.767,14.819
	l34.817,25.297l-11.593,15.959l33.366,24.244l11.594-15.958l27.565,20.026l-11.596,15.957l33.367,24.242l11.594-15.957
	l26.114,18.974l-11.593,15.959l33.366,24.243l11.595-15.96l28.832,20.947l-11.595,15.958l33.369,24.244l11.594-15.958l28.224,20.505
	l-11.594,15.958l33.365,24.243l11.595-15.959l22.785,16.556l-11.594,15.958l33.368,24.241l11.594-15.958l23.162,16.83l10.768-14.819
	l14.506,10.538l23.189-31.918l-14.506-10.539l18.971-26.111l14.508,10.539l8.002-11.016c-11.604,17.16-18.385,37.833-18.385,60.062
	c0,16.261,3.637,31.685,10.129,45.515l-319.407-103.78l-13.398,41.236l-103.666-33.681l-26.154,80.496l168.328,54.693
	c-31.538,27.473-45.462,72.155-31.744,114.375c18.316,56.375,79.083,87.336,135.458,69.021
	c56.373-18.316,87.336-79.083,69.019-135.458c-10.655-32.793-35.675-56.983-65.838-67.881l86.079,27.97l-16.069,49.453
	l138.856,45.117l16.068-49.453l82.055,26.658l10.086-31.041l-142.924-46.438l13.348-41.079
	c17.213,36.475,54.344,61.776,97.275,61.776c59.275,0,107.5-48.226,107.5-107.5c0-59.273-48.225-107.5-107.5-107.5
	c-34.492,0-65.238,16.333-84.924,41.668l10.992-15.129l-14.506-10.539l21.74-29.922l14.506,10.538l23.189-31.92l-14.506-10.538
	l25.031-34.453l14.506,10.538l23.189-31.918l-14.506-10.538l23.189-31.917l14.506,10.54l23.188-31.916l-14.506-10.539l25.07-34.506
	l14.506,10.539l23.188-31.917l-14.506-10.539l23.717-32.642l14.506,10.539l23.188-31.916L941.151,403.255z M440.502,881.179
	c-14.147,4.598-26.693,11.869-37.263,21.072l16.064-49.442l83.98,27.288C483.385,874.37,461.635,874.312,440.502,881.179z"/>
</svg>
