<?xml version="1.0" encoding="utf-8"?>
<!-- Generator: Adobe Illustrator 16.0.0, SVG Export Plug-In . SVG Version: 6.00 Build 0)  -->
<!DOCTYPE svg PUBLIC "-//W3C//DTD SVG 1.1//EN" "http://www.w3.org/Graphics/SVG/1.1/DTD/svg11.dtd">
<svg version="1.1" id="Calque_1" xmlns="http://www.w3.org/2000/svg" xmlns:xlink="http://www.w3.org/1999/xlink" x="0px" y="0px"
	 width="1190.551px" height="1190.551px" viewBox="0 0 1190.551 1190.551" enable-background="new 0 0 1190.551 1190.551"
	 xml:space="preserve">
<path fill="#010202" d="M942.248,453.246l17.959-11.854l-22.721-34.421l-17.96,11.854L904.01,395.32l17.961-11.854l-22.722-34.421
	L881.29,360.9l-19.219-29.115l17.959-11.854l-22.723-34.423l-17.959,11.854l-19.634-29.742l17.959-11.854l-22.722-34.423
	l-17.959,11.854l-17.782-26.939l17.959-11.854l-22.719-34.421l-17.959,11.855l-18.77-28.435l17.959-11.855L732.96,97.128
	l-17.959,11.854l-23.71-35.919l-19.643,12.966l-9.878-14.965l-32.925,21.733l9.878,14.965l-33.673,22.228l-9.878-14.965
	l-32.926,21.733l9.879,14.965l-35.598,23.497l-9.878-14.965l-32.923,21.732l9.878,14.965l-32.926,21.734l-9.878-14.965
	l-32.926,21.733l9.879,14.965l-35.542,23.461l-9.88-14.965l-32.927,21.735l9.878,14.965l-30.865,20.375l-9.88-14.965l-32.925,21.733
	l9.879,14.965l-26.937,17.78l-9.879-14.964l-32.924,21.737l9.878,14.965l-15.288,10.09l23.71,35.919l-16.462,10.867l22.722,34.421
	l16.462-10.866l18.771,28.436l-16.464,10.866l22.722,34.42l16.462-10.866l17.783,26.939l-16.462,10.866l22.722,34.422l16.462-10.866
	l19.633,29.742l-16.462,10.867l22.722,34.422l16.463-10.865l19.218,29.114l-16.462,10.866l-7.75-12.971l-37.224,22.238
	l-55.905-93.571l-72.659,43.413l90.783,151.945l44.64-26.672l95.397,159.672l-44.639,26.67l74.884,125.336l44.641-26.672
	l44.251,74.062l28.02-16.74L531.243,973.74l37.223-22.238L403.884,676.037l22.719,34.418l16.462-10.865l15.516,23.506
	l-16.462,10.865l22.722,34.422l16.462-10.867l15.772,23.895l15.287-10.092l9.878,14.965l32.927-21.734l-9.878-14.963l26.938-17.781
	l9.876,14.963c-12.582,6.1-24.167,14.764-33.93,25.938c-39,44.641-34.411,112.688,10.227,151.686
	c39.635,34.627,97.721,34.889,137.545,3.266c-28.387,26.453-41.5,67.434-30.482,107.354c15.77,57.139,75.085,90.797,132.226,75.025
	c57.139-15.77,90.798-75.08,75.026-132.225c-15.77-57.139-75.087-90.797-132.226-75.027c-14.278,3.941-27.09,10.602-38.031,19.268
	c2.646-2.473,5.193-5.102,7.626-7.887c38.999-44.639,34.412-112.684-10.227-151.684c-33.458-29.232-80.066-33.975-117.737-15.721
	l32.91-21.725l-9.878-14.965l30.867-20.375l9.877,14.965l32.928-21.734l-9.878-14.965l35.542-23.461l9.878,14.964l32.926-21.733
	l-9.878-14.965l32.926-21.732l9.877,14.964l32.925-21.732l-9.878-14.964l35.597-23.497l9.877,14.964l32.925-21.733l-9.877-14.964
	l33.673-22.228l9.878,14.964l32.926-21.733l-9.879-14.964l19.644-12.966L942.248,453.246z"/>
</svg>
