<?xml version="1.0" encoding="utf-8"?>
<!-- Generator: Adobe Illustrator 16.0.0, SVG Export Plug-In . SVG Version: 6.00 Build 0)  -->
<!DOCTYPE svg PUBLIC "-//W3C//DTD SVG 1.1//EN" "http://www.w3.org/Graphics/SVG/1.1/DTD/svg11.dtd">
<svg version="1.1" id="Calque_1" xmlns="http://www.w3.org/2000/svg" xmlns:xlink="http://www.w3.org/1999/xlink" x="0px" y="0px"
	 width="1190.551px" height="1190.551px" viewBox="0 0 1190.551 1190.551" enable-background="new 0 0 1190.551 1190.551"
	 xml:space="preserve">
<path fill="#010202" d="M509.002,596.034h86.274v-32.64H444.998v-43.359h38.788v-17.932h32.276v17.932h39.453v-17.932h18.318
	v-43.039h19.725v-41.244h-19.725v-34.071h19.725v-41.243h-19.725v-32.279h19.725v-41.245h-19.725v-35.638h19.725v-41.246h-19.725
	v-34.886h19.725V115.97h-19.725V87.805h19.725V46.561h-19.725V17.93h-18.318V0h-39.453v17.93h-32.276V0h-39.449v17.93h-36.986V0
	h-39.454v17.93H325.31V0h-39.452v17.93h-39.452V0h-39.448v17.93h-42.652V0h-39.451v17.93H84.506V0H45.055v17.93H21.519v28.631H0
	v41.244h21.519v28.165H0v41.242h21.519v34.886H0v41.246h21.519v35.638H0v41.245h21.519v32.279H0v41.243h21.519v34.071H0v41.244
	h21.519v43.039h23.536v17.932h39.451v-17.932h40.348v17.931H109v43.36H0v84.64h176.562c-9.813,16.211-15.467,35.207-15.467,55.5
	c0,59.275,48.225,107.5,107.5,107.5c47.253,0,87.483-30.648,101.858-73.109c-0.948,5.732-1.45,11.612-1.45,17.609
	c0,59.276,48.226,107.5,107.499,107.5c59.274,0,107.5-48.224,107.5-107.5c0-59.274-48.22-107.5-107.5-107.5
	c-47.252,0-87.483,30.649-101.858,73.11c0.949-5.732,1.451-11.613,1.451-17.61c0-59.274-48.226-107.5-107.5-107.5
	c-38.683,0-72.656,20.543-91.595,51.288v-51.288h91.595h94.404v52h113.503h32.5V596.034z M444.337,502.104v17.931h-36.986v-17.931
	H444.337z M164.305,520.034v-17.931h42.652v17.931H164.305z M246.406,520.034v-17.931h39.452v17.931H246.406z M325.31,520.034
	v-17.931h42.587v17.931H325.31z"/>
</svg>
