<?xml version="1.0" encoding="utf-8"?>
<!-- Generator: Adobe Illustrator 16.0.0, SVG Export Plug-In . SVG Version: 6.00 Build 0)  -->
<!DOCTYPE svg PUBLIC "-//W3C//DTD SVG 1.1//EN" "http://www.w3.org/Graphics/SVG/1.1/DTD/svg11.dtd">
<svg version="1.1" id="Calque_1" xmlns="http://www.w3.org/2000/svg" xmlns:xlink="http://www.w3.org/1999/xlink" x="0px" y="0px"
	 width="1190.551px" height="1190.551px" viewBox="0 0 1190.551 1190.551" enable-background="new 0 0 1190.551 1190.551"
	 xml:space="preserve">
<path fill="#010202" d="M473.474,593.559v-19.725h28.631v-18.318h17.93v-39.453h-17.93v-32.275h17.93v-39.451h-17.93v-36.985h17.93
	v-39.454h-17.93V325.31h17.93v-39.452h-17.93v-39.452h17.93v-39.448h-17.93v-42.652h17.93v-39.451h-17.93V84.506h17.93V45.055
	h-17.93V21.519h-28.631V0H432.23v21.519h-28.164V0h-41.243v21.519h-34.886V0h-41.246v21.519h-35.638V0h-41.245v21.519h-32.279V0
	h-41.242v21.519h-34.072V0H60.97v21.519H17.931v23.536H0v39.451h17.931v40.348H0v39.451h17.931v42.652H0v39.448h17.931v39.452H0
	v39.452h17.931v42.587H0v39.454h17.931v36.985H0v39.451h17.931v32.275H0v39.453h17.931v18.318H60.97v19.725h25.306v52H0v32.64
	h150.277v43.317c-13.117-5.713-27.582-8.889-42.777-8.889c-59.274,0-107.5,48.228-107.5,107.5c0,59.276,48.226,107.5,107.5,107.5
	c56.008,0,102.143-43.058,107.059-97.811c0.41,58.927,48.464,106.742,107.49,106.742c59.275,0,107.5-48.228,107.5-107.5
	c0-59.276-48.225-107.5-107.5-107.5c-56.007,0-102.143,43.058-107.059,97.811c-0.304-43.717-26.835-81.312-64.614-97.811h171.672
	h164.228v-43.36h109v-84.64H473.474z M102.214,593.559v-19.725h34.072v19.725H102.214z M177.529,593.559v-19.725h32.279v19.725
	H177.529z M418.277,593.559v52H232.278v-52h18.775v-19.725h35.638v19.725h41.246v-19.725h34.886v19.725h41.243v-19.725h28.164
	v19.725H418.277z"/>
</svg>
