<?xml version="1.0" encoding="utf-8"?>
<!-- Generator: Adobe Illustrator 16.0.0, SVG Export Plug-In . SVG Version: 6.00 Build 0)  -->
<!DOCTYPE svg PUBLIC "-//W3C//DTD SVG 1.1//EN" "http://www.w3.org/Graphics/SVG/1.1/DTD/svg11.dtd">
<svg version="1.1" id="Calque_1" xmlns="http://www.w3.org/2000/svg" xmlns:xlink="http://www.w3.org/1999/xlink" x="0px" y="0px"
	 width="1190.551px" height="1190.551px" viewBox="0 0 1190.551 1190.551" enable-background="new 0 0 1190.551 1190.551"
	 xml:space="preserve">
<g>
	<path fill="#010202" d="M706.252,432.593l14.506-10.539l-23.188-31.919l-14.506,10.539l-18.972-26.111l14.505-10.539
		l-23.188-31.917l-14.506,10.539l-21.74-29.921l14.506-10.539l-23.19-31.919l-14.506,10.539l-25.032-34.453l14.506-10.539
		l-23.189-31.918l-14.505,10.539l-23.189-31.918l14.507-10.538l-23.189-31.915l-14.504,10.539l-25.07-34.507l14.505-10.539
		l-23.189-31.916L453.115,84.18L429.4,51.537l14.506-10.538L420.717,9.082l-14.506,10.539L392.377,0.58l-23.162,16.828
		L356.567-0.001l-33.368,24.243l12.648,17.409l-22.785,16.555l-12.647-17.41l-33.366,24.242l12.648,17.409l-28.224,20.506
		l-12.649-17.409l-33.368,24.245l12.649,17.409l-28.833,20.946l-12.648-17.409l-33.368,24.243l12.649,17.409l-26.114,18.974
		l-12.649-17.409l-33.366,24.242l12.648,17.409L68.859,235.63L56.21,218.221l-33.366,24.242l12.648,17.409L0.672,285.17
		l13.834,19.042L0,314.751l23.189,31.916l14.506-10.539l23.716,32.643L46.905,379.31l23.188,31.917l14.507-10.54l25.071,34.506
		l-14.508,10.54l23.188,31.916l14.507-10.541l23.188,31.918l-14.507,10.539l23.19,31.917l14.506-10.539l25.031,34.454
		l-14.506,10.539l2.668,3.673c-19.684-25.339-50.433-41.677-84.93-41.677c-59.275,0-107.5,48.224-107.5,107.5
		c0,59.273,48.227,107.5,107.5,107.5c59.275,0,107.5-48.227,107.5-107.5c0-22.229-6.782-42.904-18.386-60.064l16.338,22.487
		l14.507-10.539l21.738,29.921l-14.506,10.54l23.189,31.915l14.506-10.538l18.971,26.111l-14.506,10.54l23.19,31.919l14.506-10.541
		l10.768,14.82l34.819-25.298l11.594,15.958l33.366-24.243l-11.593-15.958l27.563-20.027l11.595,15.958l33.366-24.241
		l-11.595-15.958l26.114-18.974l11.595,15.957l33.367-24.242l-11.594-15.958l28.833-20.947l11.593,15.958l33.369-24.244
		l-11.595-15.957l28.225-20.507l11.593,15.959l33.367-24.242l-72.588,99.907l-35.078-25.485L344.138,867.246l35.079,25.486
		l-64.068,88.184l68.475,49.749L487.66,887.469l-42.067-30.563l109.326-150.478l42.07,30.565l85.817-118.118l-42.068-30.565
		l50.712-69.799l-19.366-14.069l33.367-24.243l-11.595-15.957l23.164-16.829L706.252,432.593z M665.044,499.326l-15.744,21.67
		l-11.596-15.958l22.785-16.555l11.594,15.957L665.044,499.326z"/>
	<path fill="#010202" d="M75.634,758.197c-56.374,18.315-87.336,79.085-69.02,135.458c18.317,56.374,79.084,87.335,135.458,69.018
		c56.373-18.316,87.336-79.083,69.02-135.458C192.775,770.842,132.012,739.878,75.634,758.197z"/>
</g>
</svg>
