<?xml version="1.0" encoding="utf-8"?>
<!-- Generator: Adobe Illustrator 16.0.0, SVG Export Plug-In . SVG Version: 6.00 Build 0)  -->
<!DOCTYPE svg PUBLIC "-//W3C//DTD SVG 1.1//EN" "http://www.w3.org/Graphics/SVG/1.1/DTD/svg11.dtd">
<svg version="1.1" id="Calque_1" xmlns="http://www.w3.org/2000/svg" xmlns:xlink="http://www.w3.org/1999/xlink" x="0px" y="0px"
	 width="1190.551px" height="1190.551px" viewBox="0 0 1190.551 1190.551" enable-background="new 0 0 1190.551 1190.551"
	 xml:space="preserve">
<path fill="#010202" d="M509.002,721.559v-52h86.274V636.92H444.998v-43.361h28.476v-19.725h28.631v-18.318h17.93v-39.453h-17.93
	v-32.275h17.93v-39.451h-17.93v-36.985h17.93v-39.454h-17.93V325.31h17.93v-39.452h-17.93v-39.452h17.93v-39.448h-17.93v-42.652
	h17.93v-39.451h-17.93V84.506h17.93V45.055h-17.93V21.519h-28.631V0H432.23v21.519h-28.164V0h-41.243v21.519h-34.886V0h-41.246
	v21.519h-35.638V0h-41.245v21.519h-32.279V0h-41.242v21.519h-34.072V0H60.97v21.519H17.931v23.536H0v39.451h17.931v40.348H0v39.451
	h17.931v42.652H0v39.448h17.931v39.452H0v39.452h17.931v42.587H0v39.454h17.931v36.985H0v39.451h17.931v32.275H0v39.453h17.931
	v18.318H60.97v19.725h41.244v-19.725h34.072v19.725H109v43.361H0v84.639h176.856c-9.812,16.211-15.467,35.207-15.467,55.5
	c0,59.273,48.227,107.5,107.5,107.5c48.52,0,89.626-32.314,102.951-76.547c-1.357,6.81-2.075,13.847-2.075,21.049
	c0,59.273,48.227,107.5,107.501,107.5s107.5-48.226,107.5-107.5s-48.226-107.5-107.5-107.5c-48.519,0-89.626,32.31-102.951,76.544
	c1.357-6.809,2.074-13.845,2.074-21.046c0-59.275-48.224-107.5-107.5-107.5c-38.882,0-73.009,20.751-91.89,51.76v-51.76h91.89
	h94.109v52H509.002z M404.066,573.834h28.164v19.725h-28.164V573.834z M177.529,593.559v-19.725h32.279v19.725H177.529z
	 M251.053,593.559v-19.725h35.638v19.725H251.053z M327.937,593.559v-19.725h34.886v19.725H327.937z"/>
</svg>
