<?xml version="1.0" encoding="utf-8"?>
<!-- Generator: Adobe Illustrator 16.0.0, SVG Export Plug-In . SVG Version: 6.00 Build 0)  -->
<!DOCTYPE svg PUBLIC "-//W3C//DTD SVG 1.1//EN" "http://www.w3.org/Graphics/SVG/1.1/DTD/svg11.dtd">
<svg version="1.1" id="Calque_1" xmlns="http://www.w3.org/2000/svg" xmlns:xlink="http://www.w3.org/1999/xlink" x="0px" y="0px"
	 width="1190.551px" height="1190.551px" viewBox="0 0 1190.551 1190.551" enable-background="new 0 0 1190.551 1190.551"
	 xml:space="preserve">
<path fill="#010202" d="M593.559,87.805V46.561h-19.725V17.93h-18.318V0h-39.453v17.93h-32.276V0h-39.449v17.93h-36.986V0h-39.454
	v17.93H325.31V0h-39.452v17.93h-39.452V0h-39.448v17.93h-42.652V0h-39.451v17.93H84.506V0H45.055v17.93H21.519v28.631H0v41.244
	h21.519v28.165H0v41.242h21.519v34.886H0v41.246h21.519v35.638H0v41.245h21.519v32.279H0v41.243h21.519v34.071H0v41.244h21.519
	v43.039h23.536v17.932h39.451v-17.932h40.348v17.932h39.45l-41.917,13.619l54.674,168.271c-10.375-8.829-22.6-15.82-36.339-20.284
	C84.348,663.324,23.581,694.284,5.264,750.659c-18.317,56.374,12.646,117.142,69.019,135.458
	c56.375,18.317,117.142-12.646,135.458-69.02c13.844-42.606-0.466-87.718-32.617-115.12l49.414-16.055l57.478,176.896
	l-49.455,16.069l45.117,138.855l49.454-16.068l26.661,82.053l31.043-10.086l-46.438-142.923l41.237-13.399l-82.23-253.078
	c7.064,19.467,19.802,37.101,37.782,50.163c47.954,34.841,115.315,24.173,150.156-23.781
	c34.841-47.956,24.172-115.315-23.783-150.157c-17.984-13.067-38.699-19.732-59.405-20.431h3.197v-17.932h36.986v17.932h39.449
	v-17.932h32.276v17.932h39.453v-17.932h18.318v-43.039h19.725v-41.244h-19.725v-34.071h19.725v-41.243h-19.725v-32.279h19.725
	v-41.245h-19.725v-35.638h19.725v-41.246h-19.725v-34.886h19.725V115.97h-19.725V87.805H593.559z M313.404,564.248
	c-20.271,27.899-25.133,62.364-16.215,93.176l-19.384-59.658l-41.238,13.399L202.884,507.5l-38.579,12.535v-17.931h42.652v17.932
	h39.448v-17.932h39.452v17.932h39.452v-17.932h42.587v17.932h29.147C364.973,521.065,333.681,536.339,313.404,564.248z"/>
</svg>
