<?xml version="1.0" encoding="utf-8"?>
<!-- Generator: Adobe Illustrator 16.0.0, SVG Export Plug-In . SVG Version: 6.00 Build 0)  -->
<!DOCTYPE svg PUBLIC "-//W3C//DTD SVG 1.1//EN" "http://www.w3.org/Graphics/SVG/1.1/DTD/svg11.dtd">
<svg version="1.1" id="Calque_1" xmlns="http://www.w3.org/2000/svg" xmlns:xlink="http://www.w3.org/1999/xlink" x="0px" y="0px"
	 width="1190.551px" height="1190.551px" viewBox="0 0 1190.551 1190.551" enable-background="new 0 0 1190.551 1190.551"
	 xml:space="preserve">
<g>
	<polygon fill="#010202" points="942.278,432.765 960.237,420.911 937.516,386.49 919.556,398.343 904.041,374.839 922.001,362.984 
		899.28,328.563 881.321,340.419 862.102,311.304 880.061,299.45 857.339,265.026 839.38,276.881 819.746,247.139 837.705,235.285 
		814.984,200.861 797.025,212.717 779.242,185.777 797.201,173.923 774.481,139.502 756.522,151.357 737.752,122.922 
		755.711,111.066 732.99,76.646 715.031,88.5 691.321,52.582 671.678,65.547 661.8,50.583 628.875,72.315 638.753,87.281 
		605.08,109.508 595.203,94.543 562.277,116.276 572.156,131.242 536.558,154.739 526.68,139.773 493.759,161.506 503.635,176.471 
		470.711,198.206 460.833,183.241 427.907,204.974 437.786,219.938 402.244,243.399 392.365,228.435 359.437,250.17 
		369.315,265.134 338.45,285.509 328.57,270.545 295.645,292.278 305.524,307.244 278.589,325.023 268.71,310.06 235.784,331.794 
		245.662,346.759 230.374,356.85 254.084,392.769 237.622,403.635 260.343,438.057 276.804,427.19 295.575,455.626 279.112,466.493 
		301.834,500.913 318.296,490.046 336.079,516.985 319.617,527.852 342.339,562.273 358.801,551.408 378.432,581.149 
		361.97,592.017 384.692,626.438 401.154,615.572 420.374,644.688 403.912,655.553 426.633,689.975 443.094,679.107 
		458.609,702.613 442.147,713.479 464.869,747.9 481.331,737.035 497.103,760.928 512.39,750.838 522.268,765.801 555.195,744.066 
		354.598,973.668 387.253,1002.197 315.537,1084.281 379.276,1139.969 495.731,1006.676 456.571,972.463 578.948,832.391 
		618.107,866.604 714.168,756.654 675.008,722.441 731.772,657.469 707.192,635.994 608.318,749.166 575.666,720.637 
		555.195,744.066 545.317,729.102 572.255,711.322 582.133,726.287 615.056,704.553 605.178,689.59 636.046,669.215 
		645.923,684.178 678.85,662.443 668.972,647.479 704.514,624.018 714.392,638.981 747.318,617.248 737.44,602.283 770.365,580.55 
		780.242,595.514 813.167,573.782 803.289,558.817 838.885,535.321 848.762,550.285 881.687,528.551 871.81,513.587 
		905.483,491.359 915.361,506.324 948.285,484.59 938.407,469.626 958.05,456.661 	"/>
	<path fill="#010202" d="M780.243,595.514c-50.886,30.402-67.549,96.535-37.146,147.42c30.401,50.885,96.535,67.549,147.42,37.146
		c50.885-30.404,67.55-96.535,37.146-147.42C897.261,581.774,831.128,565.111,780.243,595.514z"/>
	<path fill="#010202" d="M366.426,933.158c57.139-15.77,90.798-75.082,75.027-132.227c-15.771-57.139-75.087-90.795-132.227-75.025
		s-90.796,75.086-75.025,132.225C249.969,915.268,309.287,948.928,366.426,933.158z"/>
</g>
</svg>
