<?xml version="1.0" encoding="utf-8"?>
<!-- Generator: Adobe Illustrator 16.0.0, SVG Export Plug-In . SVG Version: 6.00 Build 0)  -->
<!DOCTYPE svg PUBLIC "-//W3C//DTD SVG 1.1//EN" "http://www.w3.org/Graphics/SVG/1.1/DTD/svg11.dtd">
<svg version="1.1" id="Calque_1" xmlns="http://www.w3.org/2000/svg" xmlns:xlink="http://www.w3.org/1999/xlink" x="0px" y="0px"
	 width="1190.551px" height="1190.551px" viewBox="0 0 1190.551 1190.551" enable-background="new 0 0 1190.551 1190.551"
	 xml:space="preserve">
<path fill="#010202" d="M771.112,720.557v-19.725h28.631v-18.318h17.93v-39.453h-17.93v-32.275h17.93v-39.451h-17.93V534.35h17.93
	v-39.454h-17.93v-42.588h17.93v-39.452h-17.93v-39.452h17.93v-39.448h-17.93v-42.652h17.93v-39.451h-17.93v-40.349h17.93v-39.451
	h-17.93v-23.536h-28.631v-21.519h-41.244v21.519h-28.164v-21.519H660.46v21.519h-34.886v-21.519h-41.246v21.519h-35.638v-21.519
	h-41.245v21.519h-32.279v-21.519h-41.241v21.519h-34.072v-21.519h-41.245v21.519h-43.039v23.536h-17.931v39.451h17.931v40.348
	h-17.931v39.451h17.931v42.652h-17.931v39.448h17.931v39.452h-17.931v39.452h17.931v42.587h-17.931v39.454h17.931v36.985h-17.931
	v39.451h17.931v32.275h-17.931v39.453h17.931v18.318h43.039v19.725h25.306v52h-86.275v32.641h150.276v43.316
	c-13.116-5.713-27.582-8.889-42.776-8.889c-59.274,0-107.5,48.229-107.5,107.5c0,59.275,48.226,107.5,107.5,107.5
	c56.008,0,102.143-43.059,107.059-97.811c0.41,58.926,48.464,106.74,107.49,106.74c59.274,0,107.5-48.227,107.5-107.5
	c0-59.275-48.226-107.5-107.5-107.5c-56.007,0-102.144,43.059-107.06,97.812c-0.304-43.717-26.835-81.312-64.613-97.812h171.672
	h164.228v-43.359h109v-84.64H771.112V720.557z M399.852,720.557v-19.725h34.072v19.725H399.852z M475.166,720.557v-19.725h32.279
	v19.725H475.166z M715.914,720.557v52H529.915v-52h18.775v-19.725h35.638v19.725h41.246v-19.725h34.886v19.725h41.243v-19.725
	h28.164v19.725H715.914z"/>
</svg>
