<?xml version="1.0" encoding="utf-8"?>
<!-- Generator: Adobe Illustrator 16.0.0, SVG Export Plug-In . SVG Version: 6.00 Build 0)  -->
<!DOCTYPE svg PUBLIC "-//W3C//DTD SVG 1.1//EN" "http://www.w3.org/Graphics/SVG/1.1/DTD/svg11.dtd">
<svg version="1.1" id="Calque_1" xmlns="http://www.w3.org/2000/svg" xmlns:xlink="http://www.w3.org/1999/xlink" x="0px" y="0px"
	 width="1190.551px" height="1190.551px" viewBox="0 0 1190.551 1190.551" enable-background="new 0 0 1190.551 1190.551"
	 xml:space="preserve">
<path fill="#010202" d="M706.253,303.632l13.835-19.041l-23.164-16.83l12.648-17.409l-33.366-24.241l-12.648,17.409l-22.786-16.556
	l12.648-17.409l-33.366-24.242l-12.648,17.409l-28.224-20.505l12.648-17.409l-33.368-24.243l-12.649,17.409l-28.83-20.947
	l12.648-17.409l-33.369-24.243l-12.649,17.409l-26.113-18.975L470.148,76.4l-33.366-24.241l-12.648,17.409l-27.565-20.026
	l12.65-17.41L375.85,7.888l-12.648,17.409L328.382,0l-13.834,19.041l-14.507-10.54l-23.189,31.916l14.508,10.54L267.643,83.6
	l-14.507-10.539l-23.188,31.916l14.506,10.539l-25.07,34.507l-14.506-10.54l-23.188,31.916l14.507,10.539l-23.189,31.918
	l-14.506-10.541l-23.19,31.917l14.508,10.54l-25.033,34.453l-14.506-10.539l-23.19,31.919l14.506,10.539l-21.738,29.922
	L65.35,331.527l-23.188,31.916l14.506,10.541l-18.971,26.11L23.19,389.555l-23.19,31.919l14.507,10.539L3.74,446.832l34.818,25.297
	l-11.593,15.959l33.366,24.243l11.594-15.958L99.49,516.4l-11.595,15.957l33.367,24.242l11.594-15.957l26.114,18.973l-11.593,15.959
	l33.366,24.243l11.595-15.959l28.832,20.947l-11.595,15.958l33.37,24.244l11.593-15.958l28.224,20.505l-11.594,15.958l33.365,24.243
	l11.595-15.959l22.785,16.555L327.32,706.31l33.368,24.241l11.594-15.958l23.162,16.83l10.768-14.82l14.506,10.539l23.189-31.918
	l-14.505-10.539l18.971-26.112l14.506,10.539l8.003-11.015c-11.603,17.16-18.384,37.833-18.384,60.061
	c0,16.261,3.636,31.685,10.127,45.515L143.219,659.893l-13.398,41.236L26.155,667.448L0,747.944l168.328,54.694
	c-31.538,27.472-45.462,72.155-31.744,114.375c18.317,56.375,79.083,87.336,135.458,69.02
	c56.373-18.316,87.336-79.083,69.019-135.458c-10.655-32.793-35.675-56.983-65.838-67.881l86.079,27.97l-16.069,49.453
	l138.856,45.117l16.069-49.453l82.054,26.659l10.086-31.041L449.374,804.96l13.347-41.079
	c17.214,36.474,54.345,61.776,97.276,61.776c59.276,0,107.5-48.225,107.5-107.5c0-59.273-48.224-107.5-107.5-107.5
	c-34.492,0-65.239,16.333-84.923,41.668l10.992-15.129l-14.506-10.539l21.739-29.922l14.506,10.538l23.19-31.919l-14.506-10.538
	l25.032-34.454l14.506,10.539l23.189-31.918l-14.506-10.539l23.189-31.917l14.507,10.54l23.187-31.916l-14.506-10.539l25.071-34.506
	l14.505,10.539l23.188-31.917l-14.506-10.539l23.716-32.642l14.506,10.539l23.188-31.916L706.253,303.632z M205.604,781.555
	c-14.148,4.597-26.694,11.869-37.263,21.072l16.065-49.442l83.98,27.288C248.487,774.746,226.738,774.688,205.604,781.555z"/>
</svg>
