<?xml version="1.0" encoding="utf-8"?>
<!-- Generator: Adobe Illustrator 16.0.0, SVG Export Plug-In . SVG Version: 6.00 Build 0)  -->
<!DOCTYPE svg PUBLIC "-//W3C//DTD SVG 1.1//EN" "http://www.w3.org/Graphics/SVG/1.1/DTD/svg11.dtd">
<svg version="1.1" id="Calque_1" xmlns="http://www.w3.org/2000/svg" xmlns:xlink="http://www.w3.org/1999/xlink" x="0px" y="0px"
	 width="1190.551px" height="1190.551px" viewBox="0 0 1190.551 1190.551" enable-background="new 0 0 1190.551 1190.551"
	 xml:space="preserve">
<g>
	<path fill="#010202" d="M941.15,512.536l14.506-10.539l-23.188-31.919l-14.506,10.539l-18.972-26.111l14.505-10.539l-23.188-31.917
		L875.8,422.589l-21.74-29.921l14.507-10.539l-23.19-31.919L830.87,360.75l-25.032-34.453l14.506-10.539l-23.188-31.918
		l-14.505,10.539l-23.189-31.918l14.507-10.538l-23.188-31.915l-14.504,10.539l-25.07-34.507L725.71,185.5l-23.189-31.916
		l-14.509,10.539l-23.715-32.643l14.506-10.538l-23.188-31.917l-14.506,10.539l-13.834-19.041l-23.162,16.828l-12.648-17.409
		l-33.368,24.243l12.648,17.409l-22.785,16.555l-12.646-17.41l-33.366,24.242l12.647,17.409l-28.224,20.506l-12.648-17.409
		l-33.368,24.245l12.648,17.409l-28.833,20.946l-12.647-17.409l-33.368,24.243l12.648,17.409l-26.113,18.974l-12.649-17.409
		l-33.366,24.242l12.648,17.409l-27.565,20.027l-12.648-17.409l-33.366,24.242l12.648,17.409l-34.82,25.298l13.834,19.042
		l-14.506,10.539l23.188,31.916l14.506-10.539l23.717,32.643l-14.507,10.539l23.188,31.917l14.507-10.54l25.071,34.506
		l-14.508,10.54l23.188,31.916l14.507-10.541l23.188,31.918l-14.507,10.539l23.189,31.917l14.506-10.539l25.031,34.453
		l-14.506,10.539l2.668,3.674c-19.684-25.34-50.433-41.678-84.93-41.678c-59.275,0-107.5,48.225-107.5,107.5
		c0,59.273,48.227,107.5,107.5,107.5c59.274,0,107.5-48.227,107.5-107.5c0-22.229-6.782-42.903-18.387-60.063l16.339,22.486
		l14.507-10.538l21.737,29.921l-14.506,10.54l23.189,31.914l14.506-10.537l18.971,26.11l-14.506,10.54l23.19,31.919l14.506-10.541
		l10.768,14.82l34.819-25.298l11.594,15.958l33.366-24.243l-11.593-15.958l27.562-20.027l11.595,15.958l33.366-24.24l-11.595-15.958
		l26.114-18.975l11.595,15.957l33.367-24.242l-11.595-15.958l28.833-20.947l11.594,15.959l33.369-24.244l-11.596-15.957
		l28.226-20.508l11.593,15.959l33.367-24.241l-72.588,99.907l-35.078-25.485L579.035,947.189l35.079,25.486l-64.068,88.184
		l68.476,49.749l104.035-143.196L680.49,936.85l109.326-150.479l42.069,30.565l85.817-118.118l-42.068-30.564l50.712-69.8
		l-19.365-14.069l33.366-24.243l-11.595-15.957l23.164-16.829L941.15,512.536z M899.942,579.27l-15.744,21.67l-11.597-15.958
		l22.785-16.555l11.594,15.957L899.942,579.27z"/>
	<path fill="#010202" d="M310.531,838.141c-56.374,18.314-87.336,79.085-69.021,135.458c18.317,56.374,79.085,87.335,135.458,69.018
		c56.373-18.315,87.337-79.083,69.021-135.458C427.672,850.785,366.909,819.821,310.531,838.141z"/>
</g>
</svg>
