<?xml version="1.0" encoding="utf-8"?>
<!-- Generator: Adobe Illustrator 16.0.0, SVG Export Plug-In . SVG Version: 6.00 Build 0)  -->
<!DOCTYPE svg PUBLIC "-//W3C//DTD SVG 1.1//EN" "http://www.w3.org/Graphics/SVG/1.1/DTD/svg11.dtd">
<svg version="1.1" id="Calque_1" xmlns="http://www.w3.org/2000/svg" xmlns:xlink="http://www.w3.org/1999/xlink" x="0px" y="0px"
	 width="1190.551px" height="1190.551px" viewBox="0 0 1190.551 1190.551" enable-background="new 0 0 1190.551 1190.551"
	 xml:space="preserve">
<g>
	<polygon fill="#010202" points="17.931,573.834 60.97,573.834 60.97,593.559 102.214,593.559 102.214,573.834 136.286,573.834 
		136.286,593.559 177.529,593.559 177.529,573.834 209.808,573.834 209.808,593.559 251.053,593.559 251.053,573.834 
		286.691,573.834 286.691,593.559 327.937,593.559 327.937,573.834 362.823,573.834 362.823,593.559 404.066,593.559 
		404.066,573.834 432.23,573.834 432.23,593.559 473.474,593.559 473.474,573.834 502.105,573.834 502.105,555.516 520.034,555.516 
		520.034,516.063 502.105,516.063 502.105,483.787 520.034,483.787 520.034,444.336 502.105,444.336 502.105,407.351 
		520.034,407.351 520.034,367.897 502.105,367.897 502.105,325.31 520.034,325.31 520.034,285.858 502.105,285.858 502.105,246.406 
		520.034,246.406 520.034,206.957 502.105,206.957 502.105,164.305 520.034,164.305 520.034,124.854 502.105,124.854 
		502.105,84.506 520.034,84.506 520.034,45.055 502.105,45.055 502.105,21.519 473.474,21.519 473.474,0 432.23,0 432.23,21.519 
		404.066,21.519 404.066,0 362.823,0 362.823,21.519 327.937,21.519 327.937,0 286.691,0 286.691,21.519 251.053,21.519 251.053,0 
		209.808,0 209.808,21.519 177.529,21.519 177.529,0 136.286,0 136.286,21.519 102.214,21.519 102.214,0 60.97,0 60.97,21.519 
		17.931,21.519 17.931,45.055 0,45.055 0,84.506 17.931,84.506 17.931,124.854 0,124.854 0,164.305 17.931,164.305 17.931,206.957 
		0,206.957 0,246.406 17.931,246.406 17.931,285.858 0,285.858 0,325.31 17.931,325.31 17.931,367.897 0,367.897 0,407.351 
		17.931,407.351 17.931,444.336 0,444.336 0,483.787 17.931,483.787 17.931,516.063 0,516.063 0,555.516 17.931,555.516 	"/>
	<path fill="#010202" d="M500.157,789.448l82.054,26.659l10.086-31.041l-142.923-46.438l13.399-41.239L143.219,593.56
		l-13.399,41.236L26.156,601.114l-26.156,80.497l168.331,54.694c-31.538,27.471-45.462,72.154-31.745,114.375
		c18.317,56.375,79.084,87.335,135.458,69.02c24.081-7.824,43.52-23.398,56.466-43.063c-15.147,25.648-19.662,57.42-9.755,87.91
		c18.317,56.374,79.079,87.338,135.457,69.018c56.375-18.315,87.336-79.085,69.02-135.457
		c-10.658-32.805-35.693-56.999-65.871-67.891l26.728,8.685L500.157,789.448z M184.406,686.852l84,27.294
		c-19.905-5.731-41.662-5.792-62.801,1.076c-14.148,4.598-26.695,11.87-37.265,21.074L184.406,686.852z M387.774,829.088
		c-24.081,7.824-43.52,23.398-56.467,43.064c15.147-25.649,19.662-57.421,9.755-87.911c-10.659-32.806-35.695-57-65.874-67.892
		l86.113,27.98l-16.069,49.454l105.34,34.227C430.667,822.28,408.912,822.22,387.774,829.088z"/>
</g>
</svg>
