<?xml version="1.0" encoding="utf-8"?>
<!-- Generator: Adobe Illustrator 16.0.0, SVG Export Plug-In . SVG Version: 6.00 Build 0)  -->
<!DOCTYPE svg PUBLIC "-//W3C//DTD SVG 1.1//EN" "http://www.w3.org/Graphics/SVG/1.1/DTD/svg11.dtd">
<svg version="1.1" id="Calque_1" xmlns="http://www.w3.org/2000/svg" xmlns:xlink="http://www.w3.org/1999/xlink" x="0px" y="0px"
	 width="1190.551px" height="1190.551px" viewBox="0 0 1190.551 1190.551" enable-background="new 0 0 1190.551 1190.551"
	 xml:space="preserve">
<path fill="#010202" d="M806.64,759.793h86.273v-32.641H742.635v-43.359h38.788v-17.932h32.276v17.932h39.453v-17.932h18.317
	v-43.039h19.726v-41.244H871.47v-34.071h19.726v-41.243H871.47v-32.279h19.726V432.74H871.47v-35.638h19.726v-41.246H871.47V320.97
	h19.726v-41.242H871.47v-28.165h19.726v-41.244H871.47v-28.631h-18.317v-17.93h-39.453v17.93h-32.276v-17.93h-39.448v17.93h-36.986
	v-17.93h-39.454v17.93h-42.587v-17.93h-39.452v17.93h-39.452v-17.93h-39.447v17.93h-42.652v-17.93h-39.451v17.93h-40.349v-17.93
	h-39.451v17.93h-23.536v28.631h-21.519v41.244h21.519v28.165h-21.519v41.242h21.519v34.886h-21.519v41.246h21.519v35.638h-21.519
	v41.245h21.519v32.279h-21.519v41.243h21.519v34.071h-21.519v41.244h21.519v43.039h23.536v17.932h39.451v-17.932h40.348v17.932
	h-15.854v43.359h-109v84.641h176.562c-9.812,16.211-15.467,35.207-15.467,55.5c0,59.273,48.225,107.5,107.5,107.5
	c47.253,0,87.483-30.648,101.858-73.109c-0.948,5.732-1.45,11.611-1.45,17.609c0,59.275,48.226,107.5,107.499,107.5
	s107.5-48.225,107.5-107.5s-48.221-107.5-107.5-107.5c-47.253,0-87.483,30.648-101.858,73.109
	c0.949-5.732,1.451-11.613,1.451-17.609c0-59.275-48.226-107.5-107.5-107.5c-38.683,0-72.656,20.543-91.595,51.287v-51.287h91.595
	h94.404v52h113.502h32.5L806.64,759.793L806.64,759.793z M741.975,665.862v17.931h-36.986v-17.931H741.975z M461.943,683.793
	v-17.932h42.652v17.932H461.943z M544.043,683.793v-17.932h39.452v17.932H544.043z M622.948,683.793v-17.932h42.587v17.932H622.948z
	"/>
</svg>
