<?xml version="1.0" encoding="utf-8"?>
<!-- Generator: Adobe Illustrator 16.0.0, SVG Export Plug-In . SVG Version: 6.00 Build 0)  -->
<!DOCTYPE svg PUBLIC "-//W3C//DTD SVG 1.1//EN" "http://www.w3.org/Graphics/SVG/1.1/DTD/svg11.dtd">
<svg version="1.1" id="Calque_1" xmlns="http://www.w3.org/2000/svg" xmlns:xlink="http://www.w3.org/1999/xlink" x="0px" y="0px"
	 width="1190.551px" height="1190.551px" viewBox="0 0 1190.551 1190.551" enable-background="new 0 0 1190.551 1190.551"
	 xml:space="preserve">
<g>
	<path fill="#010202" d="M597.308,816.838l33.368-24.241l-12.649-17.409l22.786-16.555l12.647,17.408l33.366-24.241l-12.648-17.41
		l28.223-20.504l12.649,17.409l33.368-24.245l-12.648-17.409l28.832-20.945l12.648,17.408l33.367-24.242l-12.648-17.409
		l26.115-18.976l12.647,17.409l33.367-24.241l-12.649-17.41l27.565-20.024l12.647,17.408l33.366-24.242l-12.647-17.409
		l34.818-25.297l-13.834-19.043l14.507-10.539l-23.188-31.916l-14.507,10.539l-23.716-32.642l14.507-10.54l-23.188-31.916
		l-14.507,10.539l-25.069-34.506l14.507-10.54l-23.188-31.915l-14.506,10.541l-23.189-31.918l14.508-10.539l-23.19-31.918
		l-14.507,10.539l-25.031-34.453l14.506-10.54l-23.189-31.919l-14.506,10.54l-21.739-29.921l14.506-10.54l-23.188-31.916
		l-14.51,10.539l-18.971-26.111l14.506-10.54l-23.188-31.919l-14.506,10.541l-10.768-14.821l-34.818,25.298l-11.595-15.958
		l-33.367,24.243l11.596,15.958l-27.565,20.026l-11.595-15.957l-33.367,24.242l11.596,15.957l-26.115,18.975l-11.593-15.958
		l-33.369,24.243l11.596,15.958l-28.833,20.946l-11.593-15.957l-33.37,24.244l11.594,15.957l-28.224,20.506l-11.594-15.958
		l-33.366,24.241l11.595,15.959l-22.787,16.555l-11.594-15.958l-33.366,24.242l11.594,15.957l-23.161,16.83l10.767,14.818
		l-14.507,10.54l23.189,31.918l14.506-10.539l18.972,26.112l-14.507,10.54l23.188,31.916l14.505-10.539l21.739,29.922
		l-14.503,10.539l23.189,31.919l14.505-10.539l25.032,34.453l-14.506,10.539l23.188,31.917l14.506-10.539l23.188,31.918
		l-14.505,10.537l10.747,14.793c-19.684-25.346-50.437-41.688-84.938-41.688c-59.274,0-107.5,48.225-107.5,107.5
		s48.227,107.5,107.5,107.5c59.274,0,107.5-48.225,107.5-107.5c0-22.232-6.785-42.913-18.395-60.074l8.271,11.385l14.505-10.539
		l25.07,34.508l-14.506,10.537l23.188,31.918l14.506-10.539l23.716,32.643l-14.504,10.538l23.188,31.917l14.506-10.539l13.833,19.04
		l23.163-16.829L597.308,816.838z"/>
	<polygon fill="#010202" points="957.438,593.56 931.031,574.374 842.7,695.952 807.621,670.467 610.126,942.295 645.204,967.782 
		581.136,1055.964 649.612,1105.715 753.648,962.518 711.579,931.953 820.908,781.477 862.977,812.042 948.795,693.924 
		906.726,663.359 	"/>
	<path fill="#010202" d="M308.749,838.229c-56.374,18.317-87.336,79.085-69.021,135.458c18.317,56.375,79.085,87.336,135.458,69.021
		c56.373-18.318,87.338-79.083,69.021-135.458S365.128,819.911,308.749,838.229z"/>
</g>
</svg>
