<?xml version="1.0" encoding="utf-8"?>
<!-- Generator: Adobe Illustrator 16.0.0, SVG Export Plug-In . SVG Version: 6.00 Build 0)  -->
<!DOCTYPE svg PUBLIC "-//W3C//DTD SVG 1.1//EN" "http://www.w3.org/Graphics/SVG/1.1/DTD/svg11.dtd">
<svg version="1.1" id="Calque_1" xmlns="http://www.w3.org/2000/svg" xmlns:xlink="http://www.w3.org/1999/xlink" x="0px" y="0px"
	 width="1190.551px" height="1190.551px" viewBox="0 0 1190.551 1190.551" enable-background="new 0 0 1190.551 1190.551"
	 xml:space="preserve">
<g>
	<polygon fill="#010202" points="711.905,382.182 729.864,370.328 707.143,335.907 689.183,347.761 673.668,324.257 
		691.628,312.402 668.907,277.981 650.948,289.837 631.729,260.721 649.688,248.867 626.966,214.444 609.007,226.299 
		589.374,196.556 607.333,184.702 584.611,150.279 566.652,162.135 548.87,135.195 566.829,123.341 544.108,88.92 526.149,100.775 
		507.379,72.34 525.338,60.484 502.617,26.063 484.658,37.918 460.948,1.999 441.305,14.965 431.427,0 398.502,21.733 
		408.38,36.698 374.707,58.926 364.829,43.961 331.904,65.694 341.782,80.659 306.185,104.156 296.307,89.191 263.385,110.924 
		273.262,125.888 240.337,147.623 230.459,132.658 197.533,154.391 207.412,169.356 171.87,192.817 161.991,177.852 
		129.064,199.588 138.942,214.552 108.076,234.927 98.197,219.963 65.272,241.696 75.151,256.661 48.215,274.441 38.336,259.477 
		5.41,281.212 15.288,296.177 0,306.267 23.71,342.186 7.248,353.053 29.969,387.474 46.431,376.608 65.201,405.044 48.739,415.91 
		71.46,450.33 87.922,439.464 105.705,466.403 89.243,477.269 111.965,511.691 128.427,500.825 148.059,530.567 131.597,541.434 
		154.319,575.856 170.781,564.99 190,594.105 173.538,604.971 196.259,639.392 212.72,628.525 228.236,652.031 211.774,662.897 
		234.495,697.318 250.957,686.452 266.73,710.346 282.017,700.255 291.895,715.219 324.822,693.484 124.225,923.086 
		156.879,951.614 85.163,1033.699 148.903,1089.386 265.358,956.093 226.198,921.88 348.574,781.809 387.734,816.022 
		483.795,706.072 444.635,671.859 501.399,606.887 476.819,585.412 377.945,698.583 345.292,670.054 324.822,693.484 
		314.944,678.52 341.881,660.74 351.759,675.704 384.683,653.97 374.805,639.007 405.673,618.632 415.55,633.595 448.477,611.86 
		438.599,596.896 474.141,573.435 484.019,588.399 516.945,566.665 507.067,551.701 539.993,529.968 549.87,544.931 
		582.794,523.199 572.916,508.235 608.512,484.738 618.389,499.702 651.314,477.969 641.437,463.005 675.11,440.777 
		684.988,455.741 717.913,434.008 708.035,419.044 727.677,406.078 	"/>
	<path fill="#010202" d="M549.871,544.931c-50.886,30.402-67.549,96.535-37.147,147.42c30.402,50.885,96.535,67.549,147.42,37.146
		s67.55-96.535,37.147-147.42S600.755,514.529,549.871,544.931z"/>
	<path fill="#010202" d="M136.052,882.575c57.139-15.769,90.798-75.081,75.027-132.225c-15.77-57.139-75.087-90.796-132.226-75.027
		c-57.14,15.77-90.796,75.086-75.026,132.226C19.596,864.686,78.913,898.345,136.052,882.575z"/>
</g>
</svg>
