<?xml version="1.0" encoding="utf-8"?>
<!-- Generator: Adobe Illustrator 16.0.0, SVG Export Plug-In . SVG Version: 6.00 Build 0)  -->
<!DOCTYPE svg PUBLIC "-//W3C//DTD SVG 1.1//EN" "http://www.w3.org/Graphics/SVG/1.1/DTD/svg11.dtd">
<svg version="1.1" id="Calque_1" xmlns="http://www.w3.org/2000/svg" xmlns:xlink="http://www.w3.org/1999/xlink" x="0px" y="0px"
	 width="1190.551px" height="1190.551px" viewBox="0 0 1190.551 1190.551" enable-background="new 0 0 1190.551 1190.551"
	 xml:space="preserve">
<g>
	<polygon fill="#010202" points="474.082,0 474.082,122.872 253.675,122.872 253.675,245.745 107.5,245.745 0,245.745 0,349.217 
		253.675,349.217 253.675,472.088 474.082,472.088 474.082,594.961 418.277,594.961 418.277,646.962 232.278,646.962 
		232.278,594.961 107.5,594.961 86.276,594.961 86.276,646.962 0,646.962 0,679.601 150.278,679.601 150.278,722.962 
		486.277,722.962 486.277,679.601 595.277,679.601 595.277,594.961 595.28,594.961 595.28,0 	"/>
	<path fill="#010202" d="M215,487.461c0-59.274-48.225-107.499-107.5-107.5c-59.274,0-107.5,48.227-107.5,107.5
		c0,59.275,48.226,107.5,107.5,107.5S215,546.737,215,487.461z"/>
	<path fill="#010202" d="M215,138.245c0-59.275-48.226-107.5-107.5-107.5C48.227,30.745,0,78.97,0,138.245
		c0,59.273,48.225,107.499,107.5,107.5C166.775,245.745,215,197.519,215,138.245z"/>
</g>
</svg>
