<?xml version="1.0" encoding="utf-8"?>
<!-- Generator: Adobe Illustrator 16.0.0, SVG Export Plug-In . SVG Version: 6.00 Build 0)  -->
<!DOCTYPE svg PUBLIC "-//W3C//DTD SVG 1.1//EN" "http://www.w3.org/Graphics/SVG/1.1/DTD/svg11.dtd">
<svg version="1.1" id="Calque_1" xmlns="http://www.w3.org/2000/svg" xmlns:xlink="http://www.w3.org/1999/xlink" x="0px" y="0px"
	 width="1190.551px" height="1190.551px" viewBox="0 0 1190.551 1190.551" enable-background="new 0 0 1190.551 1190.551"
	 xml:space="preserve">
<g>
	<path fill="#010202" d="M444.998,638.64v-43.36h149.964V474.082H472.09V253.676h-15.373H349.216V146.177V0H245.745v253.676H125.738
		C176.357,244.989,215,200.789,215,147.731c0-59.274-48.225-107.5-107.5-107.5c-59.274,0-107.499,48.224-107.5,107.5
		c0,59.274,48.227,107.5,107.5,107.5c5.219,0,10.351-0.381,15.373-1.104v219.956H0V595.28h109v43.36H0v84.64h177v-52h185.999v52H509
		v-52h86.276v-32.64H444.998z"/>
	<path fill="#010202" d="M456.717,253.676c59.274,0,107.5-48.225,107.5-107.499s-48.226-107.5-107.5-107.5
		c-59.275,0-107.499,48.224-107.501,107.5C349.216,205.451,397.443,253.676,456.717,253.676z"/>
</g>
</svg>
