<?xml version="1.0" encoding="utf-8"?>
<!-- Generator: Adobe Illustrator 16.0.0, SVG Export Plug-In . SVG Version: 6.00 Build 0)  -->
<!DOCTYPE svg PUBLIC "-//W3C//DTD SVG 1.1//EN" "http://www.w3.org/Graphics/SVG/1.1/DTD/svg11.dtd">
<svg version="1.1" id="Calque_1" xmlns="http://www.w3.org/2000/svg" xmlns:xlink="http://www.w3.org/1999/xlink" x="0px" y="0px"
	 width="1190.551px" height="1190.551px" viewBox="0 0 1190.551 1190.551" enable-background="new 0 0 1190.551 1190.551"
	 xml:space="preserve">
<g>
	<path fill="#010202" d="M679.921,109V0H595.28H474.082v122.872H253.675v122.873H107.5H0v103.472h107.5h146.175v122.871h220.407
		v122.873H595.28v-85.96h52v86.275h32.642V444.999h43.358V109H679.921z M647.28,362.999h-52V177h52V362.999z"/>
	<path fill="#010202" d="M0,456.717c0,59.273,48.224,107.498,107.5,107.5c59.274,0,107.5-48.227,107.5-107.5
		c0-59.276-48.226-107.5-107.5-107.5S0,397.441,0,456.717z"/>
	<path fill="#010202" d="M215,138.245c0-59.274-48.226-107.499-107.5-107.5C48.226,30.745,0,78.972,0,138.245
		c0,59.275,48.226,107.5,107.5,107.5C166.774,245.745,215,197.521,215,138.245z"/>
</g>
</svg>
