<?xml version="1.0" encoding="utf-8"?>
<!-- Generator: Adobe Illustrator 16.0.0, SVG Export Plug-In . SVG Version: 6.00 Build 0)  -->
<!DOCTYPE svg PUBLIC "-//W3C//DTD SVG 1.1//EN" "http://www.w3.org/Graphics/SVG/1.1/DTD/svg11.dtd">
<svg version="1.1" id="Calque_1" xmlns="http://www.w3.org/2000/svg" xmlns:xlink="http://www.w3.org/1999/xlink" x="0px" y="0px"
	 width="1190.551px" height="1190.551px" viewBox="0 0 1190.551 1190.551" enable-background="new 0 0 1190.551 1190.551"
	 xml:space="preserve">
<g>
	<path fill="#010202" d="M723.821,702.217V589.364c14.956,7.901,31.984,12.384,50.043,12.384c59.274,0,107.5-48.227,107.5-107.5
		c0-59.275-48.226-107.5-107.5-107.5c-4.445,0-8.827,0.276-13.133,0.804v-51.917h86.275v-32.64H696.728v-43.36H360.731v43.36h-109
		v84.64h177v-52h68.745v253.676H374.604v220.406H251.731v121.199h594.962V809.717h-15.372h-107.5V702.217L723.821,702.217z
		 M600.947,335.635h13.783v52h145.309c-52.769,6.805-93.675,52.021-93.675,106.613c0,41.175,23.275,77.012,57.355,95.062H600.947
		V335.635z"/>
	<path fill="#010202" d="M938.821,702.217c0-59.273-48.227-107.499-107.5-107.5c-59.275,0-107.5,48.227-107.5,107.5
		c0,59.275,48.225,107.5,107.5,107.5C890.594,809.717,938.821,761.493,938.821,702.217z"/>
</g>
</svg>
