<?xml version="1.0" encoding="utf-8"?>
<!-- Generator: Adobe Illustrator 16.0.0, SVG Export Plug-In . SVG Version: 6.00 Build 0)  -->
<!DOCTYPE svg PUBLIC "-//W3C//DTD SVG 1.1//EN" "http://www.w3.org/Graphics/SVG/1.1/DTD/svg11.dtd">
<svg version="1.1" id="Calque_1" xmlns="http://www.w3.org/2000/svg" xmlns:xlink="http://www.w3.org/1999/xlink" x="0px" y="0px"
	 width="1190.551px" height="1190.551px" viewBox="0 0 1190.551 1190.551" enable-background="new 0 0 1190.551 1190.551"
	 xml:space="preserve">
<path fill="#010202" d="M892.914,318.275v-84.64h-177v52h-186v-52H383.913v52h-86.275v32.64h150.276v43.36H297.637v121.197H420.51
	v220.282c-5.022-0.724-10.153-1.104-15.372-1.104c-59.274,0-107.499,48.225-107.5,107.5c0,59.275,48.227,107.502,107.5,107.502
	c59.274,0,107.5-48.227,107.5-107.502c0-53.748-39.652-98.41-91.239-106.271h121.984v253.677h103.471v-146.1
	c0.043,59.238,48.25,107.422,107.5,107.422c59.273,0,107.5-48.225,107.5-107.499c0-59.272-48.227-107.5-107.5-107.5
	c-59.25,0-107.457,48.185-107.5,107.423V703.239h107.5h15.373V482.833h122.871V361.635H783.914v-43.36H892.914z"/>
</svg>
