<?xml version="1.0" encoding="utf-8"?>
<!-- Generator: Adobe Illustrator 16.0.0, SVG Export Plug-In . SVG Version: 6.00 Build 0)  -->
<!DOCTYPE svg PUBLIC "-//W3C//DTD SVG 1.1//EN" "http://www.w3.org/Graphics/SVG/1.1/DTD/svg11.dtd">
<svg version="1.1" id="Calque_1" xmlns="http://www.w3.org/2000/svg" xmlns:xlink="http://www.w3.org/1999/xlink" x="0px" y="0px"
	 width="1190.551px" height="1190.551px" viewBox="0 0 1190.551 1190.551" enable-background="new 0 0 1190.551 1190.551"
	 xml:space="preserve">
<path fill="#010202" d="M595.277,84.64V0h-177v52H232.278V0H86.276v52H0v32.64h150.277V128H0v121.197h122.872v220.282
	c-5.022-0.723-10.153-1.104-15.372-1.104c-59.274,0-107.499,48.224-107.5,107.5c0,59.274,48.227,107.501,107.5,107.501
	c59.275,0,107.5-48.227,107.5-107.501c0-53.748-39.652-98.411-91.239-106.271h121.984V723.28h103.472V577.181
	c0.042,59.239,48.25,107.423,107.499,107.423c59.274,0,107.5-48.226,107.5-107.5c0-59.273-48.226-107.5-107.5-107.5
	c-59.249,0-107.456,48.184-107.499,107.423V469.604h107.499h15.373V249.198h122.873V128H486.277V84.64H595.277z"/>
</svg>
