<?xml version="1.0" encoding="utf-8"?>
<!-- Generator: Adobe Illustrator 16.0.0, SVG Export Plug-In . SVG Version: 6.00 Build 0)  -->
<!DOCTYPE svg PUBLIC "-//W3C//DTD SVG 1.1//EN" "http://www.w3.org/Graphics/SVG/1.1/DTD/svg11.dtd">
<svg version="1.1" id="Calque_1" xmlns="http://www.w3.org/2000/svg" xmlns:xlink="http://www.w3.org/1999/xlink" x="0px" y="0px"
	 width="1190.551px" height="1190.551px" viewBox="0 0 1190.551 1190.551" enable-background="new 0 0 1190.551 1190.551"
	 xml:space="preserve">
<path fill="#010202" d="M892.915,583.01V479.54H639.24V357.555c7.861,51.587,52.522,91.239,106.27,91.239
	c59.274,0,107.499-48.225,107.5-107.5c0-59.274-48.226-107.5-107.5-107.5c-59.273,0-107.498,48.226-107.498,107.5
	c0,5.219,0.381,10.351,1.104,15.373H418.833V233.794H297.636v594.961h86.274v52h-86.274v32.639h150.276v43.361h335.999v-43.361h109
	v-84.639h-147.4h-29.6v52H529.913v-52h-111.08V705.883h220.282c-0.723,5.022-1.104,10.154-1.104,15.373
	c0,59.274,48.226,107.5,107.499,107.5s107.5-48.226,107.5-107.5s-48.226-107.5-107.5-107.5c-53.747,0-98.41,39.652-106.271,91.24
	V583.01H892.915z"/>
</svg>
