<?xml version="1.0" encoding="utf-8"?>
<!-- Generator: Adobe Illustrator 16.0.0, SVG Export Plug-In . SVG Version: 6.00 Build 0)  -->
<!DOCTYPE svg PUBLIC "-//W3C//DTD SVG 1.1//EN" "http://www.w3.org/Graphics/SVG/1.1/DTD/svg11.dtd">
<svg version="1.1" id="Calque_1" xmlns="http://www.w3.org/2000/svg" xmlns:xlink="http://www.w3.org/1999/xlink" x="0px" y="0px"
	 width="1190.551px" height="1190.551px" viewBox="0 0 1190.551 1190.551" enable-background="new 0 0 1190.551 1190.551"
	 xml:space="preserve">
<g>
	<path fill="#010202" d="M723.28,232.278V86.276h-52V0h-32.64v150.277h-43.36v95.468H341.604V123.76
		c7.861,51.587,52.524,91.24,106.271,91.24c59.276,0,107.5-48.226,107.5-107.5S507.151,0,447.874,0
		c-59.273,0-107.498,48.224-107.499,107.5c0,5.219,0.381,10.351,1.104,15.373H121.198V0H0v594.961h121.197V472.089h220.406V349.216
		H595.28v137.061h43.36v109h84.64v-177h-52V232.278H723.28z"/>
	<path fill="#010202" d="M448.547,375.565c-59.273,0-107.498,48.225-107.499,107.5c0,59.274,48.227,107.5,107.499,107.5
		c59.276,0,107.5-48.226,107.5-107.5C556.047,423.791,507.823,375.565,448.547,375.565z"/>
</g>
</svg>
