<?xml version="1.0" encoding="utf-8"?>
<!-- Generator: Adobe Illustrator 16.0.0, SVG Export Plug-In . SVG Version: 6.00 Build 0)  -->
<!DOCTYPE svg PUBLIC "-//W3C//DTD SVG 1.1//EN" "http://www.w3.org/Graphics/SVG/1.1/DTD/svg11.dtd">
<svg version="1.1" id="Calque_1" xmlns="http://www.w3.org/2000/svg" xmlns:xlink="http://www.w3.org/1999/xlink" x="0px" y="0px"
	 width="1190.551px" height="1190.551px" viewBox="0 0 1190.551 1190.551" enable-background="new 0 0 1190.551 1190.551"
	 xml:space="preserve">
<path fill="#010202" d="M939.448,488.333c0-59.275-48.228-107.5-107.5-107.5c-59.274,0-107.5,48.225-107.5,107.5
	c0,47.692,31.223,88.223,74.298,102.245c-7.663-1.74-15.632-2.663-23.814-2.663c-18.744,0-36.38,4.828-51.738,13.297V380.833
	h108.755h14.117V259.635H251.104v121.197h122.872v220.406h122.873v253.678H483.38v-52H337.379v52h-86.275v32.641H401.38v43.359
	h335.999v-43.359h109v-84.641h-71.448H669.38v52h-69.06V601.239h122.824c-33.184,18.321-55.712,53.666-55.712,94.177
	c0,59.275,48.226,107.5,107.498,107.5c59.275,0,107.5-48.225,107.5-107.5c0-47.691-31.222-88.224-74.298-102.246
	c7.663,1.74,15.632,2.664,23.813,2.664C891.22,595.834,939.448,547.607,939.448,488.333z"/>
</svg>
