<?xml version="1.0" encoding="utf-8"?>
<!-- Generator: Adobe Illustrator 16.0.0, SVG Export Plug-In . SVG Version: 6.00 Build 0)  -->
<!DOCTYPE svg PUBLIC "-//W3C//DTD SVG 1.1//EN" "http://www.w3.org/Graphics/SVG/1.1/DTD/svg11.dtd">
<svg version="1.1" id="Calque_1" xmlns="http://www.w3.org/2000/svg" xmlns:xlink="http://www.w3.org/1999/xlink" x="0px" y="0px"
	 width="1190.551px" height="1190.551px" viewBox="0 0 1190.551 1190.551" enable-background="new 0 0 1190.551 1190.551"
	 xml:space="preserve">
<g>
	<path fill="#010202" d="M742.635,872.275v-43.359H892.6V707.717H769.728V487.311h-15.373H646.854V379.812V233.635H543.383v253.676
		H423.375c50.619-8.687,89.263-52.887,89.263-105.945c0-59.274-48.226-107.5-107.5-107.5s-107.499,48.224-107.5,107.5
		c0,59.274,48.227,107.5,107.5,107.5c5.219,0,10.351-0.381,15.373-1.104v219.957H297.638v121.197h109v43.359h-109v84.641h177v-52
		h185.999v52h146.001v-52h86.275v-32.641H742.635z"/>
	<path fill="#010202" d="M754.355,487.311c59.273,0,107.5-48.225,107.5-107.499c0-59.274-48.227-107.5-107.5-107.5
		c-59.275,0-107.499,48.224-107.501,107.5C646.854,439.086,695.08,487.311,754.355,487.311z"/>
</g>
</svg>
