<?xml version="1.0" encoding="utf-8"?>
<!-- Generator: Adobe Illustrator 16.0.0, SVG Export Plug-In . SVG Version: 6.00 Build 0)  -->
<!DOCTYPE svg PUBLIC "-//W3C//DTD SVG 1.1//EN" "http://www.w3.org/Graphics/SVG/1.1/DTD/svg11.dtd">
<svg version="1.1" id="Calque_1" xmlns="http://www.w3.org/2000/svg" xmlns:xlink="http://www.w3.org/1999/xlink" x="0px" y="0px"
	 width="1190.551px" height="1190.551px" viewBox="0 0 1190.551 1190.551" enable-background="new 0 0 1190.551 1190.551"
	 xml:space="preserve">
<g>
	<path fill="#010202" d="M627.921,109V0H543.28v177h52v68.745H341.604V122.873H121.198V0H0v594.961h121.197v-15.372v-107.5h107.5
		h112.854c-7.901,14.957-12.385,31.986-12.385,50.046c0,59.273,48.224,107.5,107.5,107.501c59.273,0,107.5-48.228,107.5-107.501
		c0-4.446-0.277-8.828-0.804-13.134h51.917v86.275h32.642V444.999h43.358V109H627.921z M595.28,362.999h-52V508.31
		c-6.805-52.77-52.023-93.675-106.613-93.675c-41.176,0-77.012,23.274-95.062,57.354V349.216H595.28V362.999z"/>
	<path fill="#010202" d="M121.198,579.589c0,59.275,48.226,107.501,107.5,107.501s107.5-48.226,107.5-107.501
		c0-59.274-48.225-107.499-107.5-107.5C169.423,472.089,121.198,520.316,121.198,579.589z"/>
</g>
</svg>
