<?xml version="1.0" encoding="utf-8"?>
<!-- Generator: Adobe Illustrator 16.0.0, SVG Export Plug-In . SVG Version: 6.00 Build 0)  -->
<!DOCTYPE svg PUBLIC "-//W3C//DTD SVG 1.1//EN" "http://www.w3.org/Graphics/SVG/1.1/DTD/svg11.dtd">
<svg version="1.1" id="Calque_1" xmlns="http://www.w3.org/2000/svg" xmlns:xlink="http://www.w3.org/1999/xlink" x="0px" y="0px"
	 width="1190.551px" height="1190.551px" viewBox="0 0 1190.551 1190.551" enable-background="new 0 0 1190.551 1190.551"
	 xml:space="preserve">
<path fill="#010202" d="M595.28,349.216V245.745H341.604V123.761C349.465,175.348,394.126,215,447.874,215
	c59.274,0,107.499-48.225,107.5-107.5c0-59.274-48.226-107.5-107.5-107.5S340.375,48.226,340.375,107.5
	c0,5.219,0.381,10.351,1.104,15.373H121.198V0H0v594.961h86.275v52.001H0v32.639h150.277v43.361h335.999v-43.361h109v-84.64H447.875
	h-29.599v52.001H232.278v-52.001h-111.08V472.089h220.282c-0.723,5.022-1.104,10.153-1.104,15.372
	c0,59.275,48.226,107.5,107.5,107.5c59.273,0,107.5-48.225,107.5-107.5c0-59.274-48.226-107.499-107.5-107.5
	c-53.748,0-98.411,39.653-106.271,91.24V349.216H595.28z"/>
</svg>
