<?xml version="1.0" encoding="utf-8"?>
<!-- Generator: Adobe Illustrator 16.0.0, SVG Export Plug-In . SVG Version: 6.00 Build 0)  -->
<!DOCTYPE svg PUBLIC "-//W3C//DTD SVG 1.1//EN" "http://www.w3.org/Graphics/SVG/1.1/DTD/svg11.dtd">
<svg version="1.1" id="Calque_1" xmlns="http://www.w3.org/2000/svg" xmlns:xlink="http://www.w3.org/1999/xlink" x="0px" y="0px"
	 width="1190.551px" height="1190.551px" viewBox="0 0 1190.551 1190.551" enable-background="new 0 0 1190.551 1190.551"
	 xml:space="preserve">
<g>
	<polygon fill="#010202" points="771.717,233.794 771.717,356.667 551.311,356.667 551.311,479.54 405.136,479.54 297.636,479.54 
		297.636,583.011 551.311,583.011 551.311,705.883 771.717,705.883 771.717,828.756 715.912,828.756 715.912,880.756 
		529.913,880.756 529.913,828.756 405.136,828.756 383.911,828.756 383.911,880.756 297.636,880.756 297.636,913.395 
		447.913,913.395 447.913,956.756 783.912,956.756 783.912,913.395 892.912,913.395 892.912,828.756 892.915,828.756 
		892.915,233.794 	"/>
	<path fill="#010202" d="M512.636,721.256c0-59.274-48.226-107.5-107.5-107.5s-107.5,48.227-107.5,107.5
		c0,59.274,48.226,107.5,107.5,107.5C464.409,828.756,512.636,780.531,512.636,721.256z"/>
	<path fill="#010202" d="M512.636,372.04c0-59.275-48.227-107.5-107.5-107.5s-107.5,48.225-107.5,107.5
		c0,59.273,48.225,107.499,107.5,107.5C464.41,479.54,512.636,431.313,512.636,372.04z"/>
</g>
</svg>
