<?xml version="1.0" encoding="utf-8"?>
<!-- Generator: Adobe Illustrator 16.0.0, SVG Export Plug-In . SVG Version: 6.00 Build 0)  -->
<!DOCTYPE svg PUBLIC "-//W3C//DTD SVG 1.1//EN" "http://www.w3.org/Graphics/SVG/1.1/DTD/svg11.dtd">
<svg version="1.1" id="Calque_1" xmlns="http://www.w3.org/2000/svg" xmlns:xlink="http://www.w3.org/1999/xlink" x="0px" y="0px"
	 width="1190.551px" height="1190.551px" viewBox="0 0 1190.551 1190.551" enable-background="new 0 0 1190.551 1190.551"
	 xml:space="preserve">
<g>
	<path fill="#010202" d="M913.557,406.638v-109h-84.642H707.717V420.51H487.311v122.873H341.136h-107.5v103.472h107.5h146.175
		v122.871h220.406v122.873h121.198v-85.96h52v86.274h32.643V742.637h43.357V406.638H913.557z M880.915,660.637h-52V474.638h52
		V660.637z"/>
	<path fill="#010202" d="M233.636,754.354c0,59.273,48.224,107.498,107.5,107.5c59.273,0,107.5-48.227,107.5-107.5
		c0-59.276-48.227-107.5-107.5-107.5C281.862,646.854,233.636,695.078,233.636,754.354z"/>
	<path fill="#010202" d="M448.636,435.883c0-59.274-48.227-107.499-107.5-107.5c-59.274,0-107.5,48.227-107.5,107.5
		c0,59.274,48.226,107.5,107.5,107.5C400.409,543.383,448.636,495.158,448.636,435.883z"/>
</g>
</svg>
