<?xml version="1.0" encoding="utf-8"?>
<!-- Generator: Adobe Illustrator 16.0.0, SVG Export Plug-In . SVG Version: 6.00 Build 0)  -->
<!DOCTYPE svg PUBLIC "-//W3C//DTD SVG 1.1//EN" "http://www.w3.org/Graphics/SVG/1.1/DTD/svg11.dtd">
<svg version="1.1" id="Calque_1" xmlns="http://www.w3.org/2000/svg" xmlns:xlink="http://www.w3.org/1999/xlink" x="0px" y="0px"
	 width="1190.551px" height="1190.551px" viewBox="0 0 1190.551 1190.551" enable-background="new 0 0 1190.551 1190.551"
	 xml:space="preserve">
<path fill="#010202" d="M556.728,230.198v-109h38.234V0H0v121.197h122.872v220.282c-5.022-0.722-10.153-1.104-15.372-1.104
	c-59.274,0-107.5,48.227-107.5,107.5c0,59.275,48.226,107.5,107.5,107.5c6.953,0,13.751-0.671,20.34-1.938
	c-44.812,12.959-77.677,54.356-77.677,103.288c0,59.272,48.225,107.497,107.5,107.5c59.274,0,107.5-48.228,107.5-107.5
	c0-22.831-7.16-44.018-19.344-61.445h103.397V341.604h122.872v-43.406h52v185.999h-52v146.002h52v86.276h32.639V566.197h43.361
	V230.198H556.728z M157.663,549.224c-6.953,0-13.75,0.671-20.339,1.938C182.136,538.203,215,496.806,215,447.875
	c0-53.749-39.653-98.411-91.241-106.271h121.986v253.568C226.288,567.411,194.061,549.224,157.663,549.224z"/>
</svg>
