<?xml version="1.0" encoding="utf-8"?>
<!-- Generator: Adobe Illustrator 16.0.0, SVG Export Plug-In . SVG Version: 6.00 Build 0)  -->
<!DOCTYPE svg PUBLIC "-//W3C//DTD SVG 1.1//EN" "http://www.w3.org/Graphics/SVG/1.1/DTD/svg11.dtd">
<svg version="1.1" id="Calque_1" xmlns="http://www.w3.org/2000/svg" xmlns:xlink="http://www.w3.org/1999/xlink" x="0px" y="0px"
	 width="1190.551px" height="1190.551px" viewBox="0 0 1190.551 1190.551" enable-background="new 0 0 1190.551 1190.551"
	 xml:space="preserve">
<g>
	<path fill="#010202" d="M887.557,360.73v-109h-84.641v177h52v68.745H601.24V374.604H380.834V251.73H259.636v594.961h121.196
		v-15.372v-107.5h107.5h112.855c-7.902,14.957-12.385,31.986-12.385,50.046c0,59.273,48.223,107.5,107.499,107.501
		c59.273,0,107.502-48.228,107.502-107.501c0-4.445-0.277-8.828-0.805-13.134h51.916v86.274h32.643V696.729h43.357V360.73H887.557z
		 M854.916,614.729h-52v145.312c-6.805-52.771-52.023-93.676-106.613-93.676c-41.176,0-77.012,23.274-95.062,57.354V600.946h253.676
		V614.729z"/>
	<path fill="#010202" d="M380.834,831.319c0,59.275,48.227,107.501,107.5,107.501c59.274,0,107.5-48.226,107.5-107.501
		c0-59.274-48.225-107.499-107.5-107.5C429.059,723.819,380.834,772.047,380.834,831.319z"/>
</g>
</svg>
