<?xml version="1.0" encoding="utf-8"?>
<!-- Generator: Adobe Illustrator 16.0.0, SVG Export Plug-In . SVG Version: 6.00 Build 0)  -->
<!DOCTYPE svg PUBLIC "-//W3C//DTD SVG 1.1//EN" "http://www.w3.org/Graphics/SVG/1.1/DTD/svg11.dtd">
<svg version="1.1" id="Calque_1" xmlns="http://www.w3.org/2000/svg" xmlns:xlink="http://www.w3.org/1999/xlink" x="0px" y="0px"
	 width="1190.551px" height="1190.551px" viewBox="0 0 1190.551 1190.551" enable-background="new 0 0 1190.551 1190.551"
	 xml:space="preserve">
<g>
	<path fill="#010202" d="M956.915,529.915V383.913h-52v-86.276h-32.64v150.277h-43.36v95.468H575.24V421.396
		c7.861,51.588,52.524,91.24,106.271,91.24c59.275,0,107.5-48.226,107.5-107.5c0-59.273-48.225-107.5-107.502-107.5
		c-59.272,0-107.497,48.225-107.498,107.5c0,5.219,0.381,10.352,1.104,15.373H354.833V297.637H233.636v594.961h121.196V769.726
		h220.406V646.853h253.677v137.062h43.36v109h84.64v-177h-52V529.915H956.915z"/>
	<path fill="#010202" d="M682.183,673.202c-59.273,0-107.498,48.225-107.499,107.5c0,59.273,48.227,107.5,107.499,107.5
		c59.275,0,107.5-48.227,107.5-107.5C789.683,721.428,741.458,673.202,682.183,673.202z"/>
</g>
</svg>
