<?xml version="1.0" encoding="utf-8"?>
<!-- Generator: Adobe Illustrator 16.0.0, SVG Export Plug-In . SVG Version: 6.00 Build 0)  -->
<!DOCTYPE svg PUBLIC "-//W3C//DTD SVG 1.1//EN" "http://www.w3.org/Graphics/SVG/1.1/DTD/svg11.dtd">
<svg version="1.1" id="Calque_1" xmlns="http://www.w3.org/2000/svg" xmlns:xlink="http://www.w3.org/1999/xlink" x="0px" y="0px"
	 width="1190.551px" height="1190.551px" viewBox="0 0 1190.551 1190.551" enable-background="new 0 0 1190.551 1190.551"
	 xml:space="preserve">
<path fill="#010202" d="M851.959,443.361v-109h38.234V213.163H295.232V334.36h122.872v220.282
	c-5.022-0.722-10.153-1.104-15.372-1.104c-59.274,0-107.5,48.228-107.5,107.5c0,59.274,48.226,107.5,107.5,107.5
	c6.953,0,13.751-0.671,20.34-1.938c-44.812,12.959-77.677,54.356-77.677,103.288c0,59.272,48.225,107.497,107.5,107.5
	c59.273,0,107.5-48.228,107.5-107.5c0-22.83-7.16-44.018-19.345-61.444h103.397V554.767H767.32v-43.406h52V697.36h-52v146.002h52
	v86.275h32.639V779.36h43.361V443.361H851.959z M452.895,762.387c-6.953,0-13.75,0.672-20.339,1.938
	c44.812-12.959,77.676-54.356,77.676-103.287c0-53.749-39.653-98.411-91.241-106.271h121.986v253.568
	C521.52,780.574,489.292,762.387,452.895,762.387z"/>
</svg>
