<?xml version="1.0" encoding="utf-8"?>
<!-- Generator: Adobe Illustrator 16.0.0, SVG Export Plug-In . SVG Version: 6.00 Build 0)  -->
<!DOCTYPE svg PUBLIC "-//W3C//DTD SVG 1.1//EN" "http://www.w3.org/Graphics/SVG/1.1/DTD/svg11.dtd">
<svg version="1.1" id="Calque_1" xmlns="http://www.w3.org/2000/svg" xmlns:xlink="http://www.w3.org/1999/xlink" x="0px" y="0px"
	 width="1190.551px" height="1190.551px" viewBox="0 0 1190.551 1190.551" enable-background="new 0 0 1190.551 1190.551"
	 xml:space="preserve">
<polygon fill="#010202" points="1075.658,109 1075.658,0 991.019,0 991.019,102.209 798.483,102.209 594.959,0 594.959,474.082 
	472.09,474.082 472.09,253.676 349.216,253.676 349.216,0 245.745,0 245.745,253.676 122.872,253.676 122.872,474.082 0,474.082 
	0,595.279 594.959,595.279 594.959,597.281 991.019,201.223 991.019,177 1043.019,177 1043.019,362.999 991.019,362.999 
	991.019,509.001 1043.019,509.001 1043.019,595.277 1075.658,595.277 1075.658,444.999 1119.019,444.999 1119.019,109 "/>
</svg>
