<?xml version="1.0" encoding="utf-8"?>
<!-- Generator: Adobe Illustrator 16.0.0, SVG Export Plug-In . SVG Version: 6.00 Build 0)  -->
<!DOCTYPE svg PUBLIC "-//W3C//DTD SVG 1.1//EN" "http://www.w3.org/Graphics/SVG/1.1/DTD/svg11.dtd">
<svg version="1.1" id="Calque_1" xmlns="http://www.w3.org/2000/svg" xmlns:xlink="http://www.w3.org/1999/xlink" x="0px" y="0px"
	 width="1190.551px" height="1190.551px" viewBox="0 0 1190.551 1190.551" enable-background="new 0 0 1190.551 1190.551"
	 xml:space="preserve">
<polygon fill="#010202" points="956.755,331.884 956.755,185.882 904.755,185.882 904.755,99.606 872.115,99.606 872.115,249.884 
	828.755,249.884 828.755,573.688 705.886,573.688 705.886,353.282 583.012,353.282 583.012,99.606 479.541,99.606 479.541,353.282 
	356.668,353.282 356.668,573.688 233.796,573.688 233.796,694.885 336.005,694.885 336.005,887.422 233.796,1090.945 
	831.076,1090.945 435.019,694.885 828.755,694.885 828.755,585.883 872.115,585.883 872.115,694.883 956.755,694.883 
	956.755,517.883 904.755,517.883 904.755,331.884 "/>
</svg>
