<?xml version="1.0" encoding="utf-8"?>
<!-- Generator: Adobe Illustrator 16.0.0, SVG Export Plug-In . SVG Version: 6.00 Build 0)  -->
<!DOCTYPE svg PUBLIC "-//W3C//DTD SVG 1.1//EN" "http://www.w3.org/Graphics/SVG/1.1/DTD/svg11.dtd">
<svg version="1.1" id="Calque_1" xmlns="http://www.w3.org/2000/svg" xmlns:xlink="http://www.w3.org/1999/xlink" x="0px" y="0px"
	 width="1190.551px" height="1190.551px" viewBox="0 0 1190.551 1190.551" enable-background="new 0 0 1190.551 1190.551"
	 xml:space="preserve">
<polygon fill="#010202" points="1090.785,434.859 1090.785,335.845 898.248,335.845 694.725,233.636 694.725,707.718 
	571.856,707.718 571.856,487.312 448.982,487.312 448.982,233.636 345.511,233.636 345.511,487.312 222.638,487.312 
	222.638,707.718 99.766,707.718 99.766,828.914 364.727,828.914 364.727,880.915 278.451,880.915 278.451,913.555 428.729,913.555 
	428.729,956.915 764.729,956.915 764.729,913.555 873.729,913.555 873.729,828.914 696.729,828.914 696.729,880.915 
	510.729,880.915 510.729,828.914 694.725,828.914 694.725,830.917 "/>
</svg>
