<?xml version="1.0" encoding="utf-8"?>
<!-- Generator: Adobe Illustrator 16.0.0, SVG Export Plug-In . SVG Version: 6.00 Build 0)  -->
<!DOCTYPE svg PUBLIC "-//W3C//DTD SVG 1.1//EN" "http://www.w3.org/Graphics/SVG/1.1/DTD/svg11.dtd">
<svg version="1.1" id="Calque_1" xmlns="http://www.w3.org/2000/svg" xmlns:xlink="http://www.w3.org/1999/xlink" x="0px" y="0px"
	 width="1190.551px" height="1190.551px" viewBox="0 0 1190.551 1190.551" enable-background="new 0 0 1190.551 1190.551"
	 xml:space="preserve">
<polygon fill="#010202" points="991.019,201.223 991.019,102.209 798.483,102.209 594.959,0 594.959,474.082 472.09,474.082 
	472.09,253.676 349.216,253.676 349.216,0 245.745,0 245.745,253.676 122.872,253.676 122.872,474.082 0,474.082 0,595.279 
	264.961,595.279 264.961,647.279 178.685,647.279 178.685,679.919 328.963,679.919 328.963,723.279 664.963,723.279 
	664.963,679.919 773.963,679.919 773.963,595.279 596.963,595.279 596.963,647.279 410.963,647.279 410.963,595.279 
	594.959,595.279 594.959,597.281 "/>
</svg>
