<?xml version="1.0" encoding="utf-8"?>
<!-- Generator: Adobe Illustrator 16.0.0, SVG Export Plug-In . SVG Version: 6.00 Build 0)  -->
<!DOCTYPE svg PUBLIC "-//W3C//DTD SVG 1.1//EN" "http://www.w3.org/Graphics/SVG/1.1/DTD/svg11.dtd">
<svg version="1.1" id="Calque_1" xmlns="http://www.w3.org/2000/svg" xmlns:xlink="http://www.w3.org/1999/xlink" x="0px" y="0px"
	 width="1190.551px" height="1190.551px" viewBox="0 0 1190.551 1190.551" enable-background="new 0 0 1190.551 1190.551"
	 xml:space="preserve">
<g>
	<polygon fill="#010202" points="396.059,595.279 349.215,595.279 349.215,341.603 472.089,341.603 472.089,121.197 
		594.959,121.197 594.959,0 0,0 0,121.197 122.871,121.197 122.871,341.603 245.744,341.603 245.744,595.279 203.523,595.279 
		0,493.07 0,1090.351 396.059,694.294 	"/>
	<polygon fill="#010202" points="444.998,1090.351 444.998,1046.99 109,1046.99 109,1090.351 0,1090.351 0,1174.99 177,1174.99 
		177,1122.99 362.999,1122.99 362.999,1174.99 509,1174.99 509,1122.99 595.277,1122.99 595.277,1090.351 	"/>
</g>
</svg>
