<?xml version="1.0" encoding="utf-8"?>
<!-- Generator: Adobe Illustrator 16.0.0, SVG Export Plug-In . SVG Version: 6.00 Build 0)  -->
<!DOCTYPE svg PUBLIC "-//W3C//DTD SVG 1.1//EN" "http://www.w3.org/Graphics/SVG/1.1/DTD/svg11.dtd">
<svg version="1.1" id="Calque_1" xmlns="http://www.w3.org/2000/svg" xmlns:xlink="http://www.w3.org/1999/xlink" x="0px" y="0px"
	 width="1190.551px" height="1190.551px" viewBox="0 0 1190.551 1190.551" enable-background="new 0 0 1190.551 1190.551"
	 xml:space="preserve">
<g>
	<polygon fill="#010202" points="693.696,603.059 646.852,603.059 646.852,349.383 769.727,349.383 769.727,128.978 
		892.596,128.978 892.596,7.78 297.637,7.78 297.637,128.978 420.509,128.978 420.509,349.383 543.382,349.383 543.382,603.059 
		501.16,603.059 297.637,500.85 297.637,1098.131 693.696,702.074 	"/>
	<polygon fill="#010202" points="742.635,1098.131 742.635,1054.771 406.637,1054.771 406.637,1098.131 297.637,1098.131 
		297.637,1182.771 474.637,1182.771 474.637,1130.771 660.637,1130.771 660.637,1182.771 806.637,1182.771 806.637,1130.771 
		892.914,1130.771 892.914,1098.131 	"/>
</g>
</svg>
