<?xml version="1.0" encoding="utf-8"?>
<!-- Generator: Adobe Illustrator 16.0.0, SVG Export Plug-In . SVG Version: 6.00 Build 0)  -->
<!DOCTYPE svg PUBLIC "-//W3C//DTD SVG 1.1//EN" "http://www.w3.org/Graphics/SVG/1.1/DTD/svg11.dtd">
<svg version="1.1" id="Calque_1" xmlns="http://www.w3.org/2000/svg" xmlns:xlink="http://www.w3.org/1999/xlink" x="0px" y="0px"
	 width="1190.551px" height="1190.551px" viewBox="0 0 1190.551 1190.551" enable-background="new 0 0 1190.551 1190.551"
	 xml:space="preserve">
<polygon fill="#010202" points="1111.424,405.635 1111.424,296.635 1026.785,296.635 1026.785,398.844 834.248,398.844 
	630.725,296.635 630.725,770.717 507.856,770.717 507.856,550.311 384.982,550.311 384.982,296.635 281.511,296.635 
	281.511,550.311 158.638,550.311 158.638,770.717 35.766,770.717 35.766,891.914 630.725,891.914 630.725,893.916 1026.785,497.858 
	1026.785,473.635 1078.785,473.635 1078.785,659.634 1026.785,659.634 1026.785,805.636 1078.785,805.636 1078.785,891.912 
	1111.424,891.912 1111.424,741.634 1154.785,741.634 1154.785,405.635 "/>
</svg>
