<?xml version="1.0" encoding="utf-8"?>
<!-- Generator: Adobe Illustrator 16.0.0, SVG Export Plug-In . SVG Version: 6.00 Build 0)  -->
<!DOCTYPE svg PUBLIC "-//W3C//DTD SVG 1.1//EN" "http://www.w3.org/Graphics/SVG/1.1/DTD/svg11.dtd">
<svg version="1.1" id="Calque_1" xmlns="http://www.w3.org/2000/svg" xmlns:xlink="http://www.w3.org/1999/xlink" x="0px" y="0px"
	 width="1190.551px" height="1190.551px" viewBox="0 0 1190.551 1190.551" enable-background="new 0 0 1190.551 1190.551"
	 xml:space="preserve">
<polygon fill="#010202" points="495.072,798.483 597.281,594.96 121.197,594.96 121.197,472.089 341.603,472.089 341.603,349.216 
	595.279,349.216 595.279,245.745 341.603,245.745 341.603,122.872 121.197,122.872 121.197,0 0,0 0,594.96 396.058,991.019 
	418.277,991.019 418.277,1043.019 232.278,1043.019 232.278,991.019 86.276,991.019 86.276,1043.019 0,1043.019 0,1075.658 
	150.278,1075.658 150.278,1119.019 486.277,1119.019 486.277,1075.658 595.277,1075.658 595.277,991.019 495.072,991.019 "/>
</svg>
