<?xml version="1.0" encoding="utf-8"?>
<!-- Generator: Adobe Illustrator 16.0.0, SVG Export Plug-In . SVG Version: 6.00 Build 0)  -->
<!DOCTYPE svg PUBLIC "-//W3C//DTD SVG 1.1//EN" "http://www.w3.org/Graphics/SVG/1.1/DTD/svg11.dtd">
<svg version="1.1" id="Calque_1" xmlns="http://www.w3.org/2000/svg" xmlns:xlink="http://www.w3.org/1999/xlink" x="0px" y="0px"
	 width="1190.551px" height="1190.551px" viewBox="0 0 1190.551 1190.551" enable-background="new 0 0 1190.551 1190.551"
	 xml:space="preserve">
<polygon fill="#010202" points="791.707,834.249 893.916,630.726 417.832,630.726 417.832,507.854 638.239,507.854 638.239,384.981 
	891.914,384.981 891.914,281.511 638.239,281.511 638.239,158.638 417.832,158.638 417.832,35.766 296.635,35.766 296.635,630.726 
	692.694,1026.784 714.912,1026.784 714.912,1078.785 528.913,1078.785 528.913,1026.784 382.911,1026.784 382.911,1078.785 
	296.635,1078.785 296.635,1111.424 446.913,1111.424 446.913,1154.785 782.912,1154.785 782.912,1111.424 891.912,1111.424 
	891.912,1026.784 791.707,1026.784 "/>
</svg>
