<?xml version="1.0" encoding="utf-8"?>
<!-- Generator: Adobe Illustrator 16.0.0, SVG Export Plug-In . SVG Version: 6.00 Build 0)  -->
<!DOCTYPE svg PUBLIC "-//W3C//DTD SVG 1.1//EN" "http://www.w3.org/Graphics/SVG/1.1/DTD/svg11.dtd">
<svg version="1.1" id="Calque_1" xmlns="http://www.w3.org/2000/svg" xmlns:xlink="http://www.w3.org/1999/xlink" x="0px" y="0px"
	 width="1190.551px" height="1190.551px" viewBox="0 0 1190.551 1190.551" enable-background="new 0 0 1190.551 1190.551"
	 xml:space="preserve">
<g>
	<polygon fill="#010202" points="892.914,668.656 892.914,73.696 771.717,73.696 771.717,196.567 551.312,196.567 551.312,319.44 
		297.636,319.44 297.636,422.911 551.312,422.911 551.312,545.784 501.159,545.784 297.636,443.575 297.636,1040.855 
		693.696,644.798 693.696,545.784 771.717,545.784 771.717,668.656 	"/>
	<polygon fill="#010202" points="447.914,1073.496 447.914,1116.855 783.912,1116.855 783.912,1073.496 892.912,1073.496 
		892.912,988.855 715.912,988.855 715.912,1040.855 529.914,1040.855 529.914,988.855 383.912,988.855 383.912,1040.855 
		297.636,1040.855 297.636,1073.496 	"/>
</g>
</svg>
