<?xml version="1.0" encoding="utf-8"?>
<!-- Generator: Adobe Illustrator 16.0.0, SVG Export Plug-In . SVG Version: 6.00 Build 0)  -->
<!DOCTYPE svg PUBLIC "-//W3C//DTD SVG 1.1//EN" "http://www.w3.org/Graphics/SVG/1.1/DTD/svg11.dtd">
<svg version="1.1" id="Calque_1" xmlns="http://www.w3.org/2000/svg" xmlns:xlink="http://www.w3.org/1999/xlink" x="0px" y="0px"
	 width="1190.551px" height="1190.551px" viewBox="0 0 1190.551 1190.551" enable-background="new 0 0 1190.551 1190.551"
	 xml:space="preserve">
<g>
	<polygon fill="#010202" points="693.696,607.379 646.852,607.379 646.852,353.703 769.727,353.703 769.727,133.297 
		892.596,133.297 892.596,12.1 297.637,12.1 297.637,133.297 420.509,133.297 420.509,353.703 543.382,353.703 543.382,607.379 
		501.16,607.379 297.637,505.17 297.637,1102.451 693.696,706.395 	"/>
	<polygon fill="#010202" points="715.914,1050.451 715.914,1102.451 529.915,1102.451 529.915,1050.451 383.913,1050.451 
		383.913,1102.451 297.637,1102.451 297.637,1135.09 447.915,1135.09 447.915,1178.451 783.914,1178.451 783.914,1135.09 
		892.914,1135.09 892.914,1050.451 	"/>
</g>
</svg>
