<?xml version="1.0" encoding="utf-8"?>
<!-- Generator: Adobe Illustrator 16.0.0, SVG Export Plug-In . SVG Version: 6.00 Build 0)  -->
<!DOCTYPE svg PUBLIC "-//W3C//DTD SVG 1.1//EN" "http://www.w3.org/Graphics/SVG/1.1/DTD/svg11.dtd">
<svg version="1.1" id="Calque_1" xmlns="http://www.w3.org/2000/svg" xmlns:xlink="http://www.w3.org/1999/xlink" x="0px" y="0px"
	 width="1190.551px" height="1190.551px" viewBox="0 0 1190.551 1190.551" enable-background="new 0 0 1190.551 1190.551"
	 xml:space="preserve">
<g>
	<path fill="#010202" d="M297.64,0C133.258,0,0,133.259,0,297.639h396.059h199.22C595.279,133.259,462.021,0,297.64,0z"/>
	<polygon fill="#010202" points="0,693.697 0,792.712 192.536,792.712 396.059,894.921 396.059,297.639 	"/>
	<polygon fill="#010202" points="445,894.921 396.059,894.921 109,894.921 109,938.28 0,938.28 0,1022.921 177,1022.921 
		177,970.921 363,970.921 363,1022.921 509.003,1022.921 509.003,970.921 595.277,970.921 595.277,938.28 445,938.28 	"/>
</g>
</svg>
