<?xml version="1.0" encoding="utf-8"?>
<!-- Generator: Adobe Illustrator 16.0.0, SVG Export Plug-In . SVG Version: 6.00 Build 0)  -->
<!DOCTYPE svg PUBLIC "-//W3C//DTD SVG 1.1//EN" "http://www.w3.org/Graphics/SVG/1.1/DTD/svg11.dtd">
<svg version="1.1" id="Calque_1" xmlns="http://www.w3.org/2000/svg" xmlns:xlink="http://www.w3.org/1999/xlink" x="0px" y="0px"
	 width="1190.551px" height="1190.551px" viewBox="0 0 1190.551 1190.551" enable-background="new 0 0 1190.551 1190.551"
	 xml:space="preserve">
<g>
	<path fill="#010202" d="M595.276,83.815c-164.382,0-297.64,133.259-297.64,297.639h396.059h199.219
		C892.914,217.074,759.656,83.815,595.276,83.815z"/>
	<polygon fill="#010202" points="297.636,777.512 297.636,876.527 490.173,876.527 693.696,978.736 693.696,381.454 	"/>
	<polygon fill="#010202" points="742.637,978.736 693.696,978.736 406.636,978.736 406.636,1022.096 297.636,1022.096 
		297.636,1106.736 474.636,1106.736 474.636,1054.736 660.637,1054.736 660.637,1106.736 806.639,1106.736 806.639,1054.736 
		892.912,1054.736 892.912,1022.096 742.637,1022.096 	"/>
</g>
</svg>
