<?xml version="1.0" encoding="utf-8"?>
<!-- Generator: Adobe Illustrator 16.0.0, SVG Export Plug-In . SVG Version: 6.00 Build 0)  -->
<!DOCTYPE svg PUBLIC "-//W3C//DTD SVG 1.1//EN" "http://www.w3.org/Graphics/SVG/1.1/DTD/svg11.dtd">
<svg version="1.1" id="Calque_1" xmlns="http://www.w3.org/2000/svg" xmlns:xlink="http://www.w3.org/1999/xlink" x="0px" y="0px"
	 width="1190.551px" height="1190.551px" viewBox="0 0 1190.551 1190.551" enable-background="new 0 0 1190.551 1190.551"
	 xml:space="preserve">
<g>
	<path fill="#010202" d="M512.156,308.366h83.124V174.293H429.031v-61.672h-99.213V0H180.112v58.991H0V407.58h164.909v530.2
		c164.381,0.001,297.64-133.256,297.64-297.638c0-94.12-43.699-178.021-111.899-232.562h161.506V308.366z M164.909,342.501v-31.453
		h183.679v94.875C298,366.195,234.221,342.501,164.909,342.501z"/>
	<polygon fill="#010202" points="86.275,989.781 0,989.781 0,1022.419 150.277,1022.419 150.277,1065.781 486.277,1065.781 
		486.277,1022.419 595.277,1022.419 595.277,937.781 418.277,937.781 418.277,989.781 232.277,989.781 232.277,937.781 
		164.909,937.781 86.275,937.781 	"/>
</g>
</svg>
