<?xml version="1.0" encoding="utf-8"?>
<!-- Generator: Adobe Illustrator 16.0.0, SVG Export Plug-In . SVG Version: 6.00 Build 0)  -->
<!DOCTYPE svg PUBLIC "-//W3C//DTD SVG 1.1//EN" "http://www.w3.org/Graphics/SVG/1.1/DTD/svg11.dtd">
<svg version="1.1" id="Calque_1" xmlns="http://www.w3.org/2000/svg" xmlns:xlink="http://www.w3.org/1999/xlink" x="0px" y="0px"
	 width="1190.551px" height="1190.551px" viewBox="0 0 1190.551 1190.551" enable-background="new 0 0 1190.551 1190.551"
	 xml:space="preserve">
<g>
	<path fill="#010202" d="M809.791,370.751h83.124V236.678H726.666v-61.672h-99.213V62.385H477.747v58.991H297.636v348.589h164.909
		v530.2c164.381,0.001,297.64-133.256,297.64-297.639c0-94.12-43.699-178.021-111.899-232.562h161.506V370.751z M462.545,404.886
		v-31.453h183.679v94.875C595.636,428.58,531.857,404.886,462.545,404.886z"/>
	<polygon fill="#010202" points="383.91,1052.166 297.636,1052.166 297.636,1084.804 447.912,1084.804 447.912,1128.166 
		783.912,1128.166 783.912,1084.804 892.912,1084.804 892.912,1000.166 715.912,1000.166 715.912,1052.166 529.912,1052.166 
		529.912,1000.166 462.545,1000.166 383.91,1000.166 	"/>
</g>
</svg>
