<?xml version="1.0" encoding="utf-8"?>
<!-- Generator: Adobe Illustrator 16.0.0, SVG Export Plug-In . SVG Version: 6.00 Build 0)  -->
<!DOCTYPE svg PUBLIC "-//W3C//DTD SVG 1.1//EN" "http://www.w3.org/Graphics/SVG/1.1/DTD/svg11.dtd">
<svg version="1.1" id="Calque_1" xmlns="http://www.w3.org/2000/svg" xmlns:xlink="http://www.w3.org/1999/xlink" x="0px" y="0px"
	 width="1190.551px" height="1190.551px" viewBox="0 0 1190.551 1190.551" enable-background="new 0 0 1190.551 1190.551"
	 xml:space="preserve">
<g>
	<path fill="#010202" d="M-0.001,705.22h595.278c0.002-164.382-133.256-297.64-297.638-297.64
		C133.257,407.58-0.001,540.838-0.001,705.22z"/>
	<polygon fill="#010202" points="679.918,109 679.918,0 595.28,0 430.37,0 430.37,96.531 246.692,96.531 246.692,0 83.124,0 
		83.124,99.213 0,99.213 0,233.287 166.249,233.287 166.249,294.959 265.462,294.959 265.462,407.58 297.64,407.58 415.168,407.58 
		415.168,348.588 595.28,348.588 595.28,177 647.28,177 647.28,363 595.28,363 595.28,509.002 647.28,509.002 647.28,595.277 
		679.918,595.277 679.918,445 723.28,445 723.28,109 	"/>
</g>
</svg>
