<?xml version="1.0" encoding="utf-8"?>
<!-- Generator: Adobe Illustrator 16.0.0, SVG Export Plug-In . SVG Version: 6.00 Build 0)  -->
<!DOCTYPE svg PUBLIC "-//W3C//DTD SVG 1.1//EN" "http://www.w3.org/Graphics/SVG/1.1/DTD/svg11.dtd">
<svg version="1.1" id="Calque_1" xmlns="http://www.w3.org/2000/svg" xmlns:xlink="http://www.w3.org/1999/xlink" x="0px" y="0px"
	 width="1190.551px" height="1190.551px" viewBox="0 0 1190.551 1190.551" enable-background="new 0 0 1190.551 1190.551"
	 xml:space="preserve">
<g>
	<path fill="#010202" d="M233.635,947.885h595.277c0.002-164.381-133.256-297.639-297.637-297.639
		C366.893,650.246,233.635,783.504,233.635,947.885z"/>
	<polygon fill="#010202" points="956.916,474.942 956.916,328.94 904.916,328.94 904.916,242.666 872.278,242.666 872.278,392.942 
		828.916,392.942 828.916,242.666 664.006,242.666 664.006,339.197 480.328,339.197 480.328,242.666 316.76,242.666 316.76,341.878 
		233.636,341.878 233.636,475.953 399.885,475.953 399.885,537.625 499.098,537.625 499.098,650.246 531.276,650.246 
		648.805,650.246 648.805,591.253 828.916,591.253 828.916,728.942 872.278,728.942 872.278,837.942 956.916,837.942 
		956.916,660.942 904.916,660.942 904.916,474.942 	"/>
</g>
</svg>
