<?xml version="1.0" encoding="utf-8"?>
<!-- Generator: Adobe Illustrator 16.0.0, SVG Export Plug-In . SVG Version: 6.00 Build 0)  -->
<!DOCTYPE svg PUBLIC "-//W3C//DTD SVG 1.1//EN" "http://www.w3.org/Graphics/SVG/1.1/DTD/svg11.dtd">
<svg version="1.1" id="Calque_1" xmlns="http://www.w3.org/2000/svg" xmlns:xlink="http://www.w3.org/1999/xlink" x="0px" y="0px"
	 width="1190.551px" height="1190.551px" viewBox="0 0 1190.551 1190.551" enable-background="new 0 0 1190.551 1190.551"
	 xml:space="preserve">
<polygon fill="#010202" points="444.998,1064.555 444.998,1021.194 407.58,1021.194 407.58,856.284 311.048,856.284 
	311.048,672.606 407.58,672.606 407.58,509.038 308.366,509.038 308.366,425.914 591.246,425.914 591.246,221.044 310.899,221.044 
	310.899,276.756 95.248,276.756 95.248,0 0,0 0,425.914 174.293,425.914 174.293,592.163 112.621,592.163 112.621,691.377 
	0,691.377 0,841.081 58.991,841.081 58.991,1021.194 109,1021.194 109,1064.555 0,1064.555 0,1149.194 177,1149.194 177,1097.194 
	362.999,1097.194 362.999,1149.194 509,1149.194 509,1097.194 595.276,1097.194 595.276,1064.555 "/>
</svg>
