<?xml version="1.0" encoding="utf-8"?>
<!-- Generator: Adobe Illustrator 16.0.0, SVG Export Plug-In . SVG Version: 6.00 Build 0)  -->
<!DOCTYPE svg PUBLIC "-//W3C//DTD SVG 1.1//EN" "http://www.w3.org/Graphics/SVG/1.1/DTD/svg11.dtd">
<svg version="1.1" id="Calque_1" xmlns="http://www.w3.org/2000/svg" xmlns:xlink="http://www.w3.org/1999/xlink" x="0px" y="0px"
	 width="1190.551px" height="1190.551px" viewBox="0 0 1190.551 1190.551" enable-background="new 0 0 1190.551 1190.551"
	 xml:space="preserve">
<polygon fill="#010202" points="888.883,1041.873 888.883,615.959 530.925,615.959 530.925,449.709 592.597,449.709 
	592.597,350.496 705.218,350.496 705.218,200.79 646.226,200.79 646.226,20.678 297.638,20.678 297.638,185.586 394.168,185.586 
	394.168,369.266 297.638,369.266 297.638,532.834 396.851,532.834 396.851,615.959 297.638,615.959 297.638,820.828 
	577.986,820.828 577.986,765.115 793.635,765.115 793.635,1041.873 715.913,1041.873 715.913,1093.873 529.914,1093.873 
	529.914,1041.873 383.912,1041.873 383.912,1093.873 297.638,1093.873 297.638,1126.512 447.914,1126.512 447.914,1169.873 
	783.913,1169.873 783.913,1126.512 892.913,1126.512 892.913,1041.873 "/>
</svg>
