<?xml version="1.0" encoding="utf-8"?>
<!-- Generator: Adobe Illustrator 16.0.0, SVG Export Plug-In . SVG Version: 6.00 Build 0)  -->
<!DOCTYPE svg PUBLIC "-//W3C//DTD SVG 1.1//EN" "http://www.w3.org/Graphics/SVG/1.1/DTD/svg11.dtd">
<svg version="1.1" id="Calque_1" xmlns="http://www.w3.org/2000/svg" xmlns:xlink="http://www.w3.org/1999/xlink" x="0px" y="0px"
	 width="1190.551px" height="1190.551px" viewBox="0 0 1190.551 1190.551" enable-background="new 0 0 1190.551 1190.551"
	 xml:space="preserve">
<polygon fill="#010202" points="742.635,1085.232 742.635,1041.873 705.218,1041.873 705.218,876.963 608.686,876.963 
	608.686,693.285 705.218,693.285 705.218,529.716 606.004,529.716 606.004,446.592 888.883,446.592 888.883,241.722 
	608.536,241.722 608.536,297.434 392.886,297.434 392.886,20.678 297.638,20.678 297.638,446.592 471.931,446.592 471.931,612.842 
	410.259,612.842 410.259,712.055 297.638,712.055 297.638,861.76 356.629,861.76 356.629,1041.873 406.638,1041.873 
	406.638,1085.232 297.638,1085.232 297.638,1169.873 474.638,1169.873 474.638,1117.873 660.637,1117.873 660.637,1169.873 
	806.638,1169.873 806.638,1117.873 892.913,1117.873 892.913,1085.232 "/>
</svg>
