<?xml version="1.0" encoding="utf-8"?>
<!-- Generator: Adobe Illustrator 16.0.0, SVG Export Plug-In . SVG Version: 6.00 Build 0)  -->
<!DOCTYPE svg PUBLIC "-//W3C//DTD SVG 1.1//EN" "http://www.w3.org/Graphics/SVG/1.1/DTD/svg11.dtd">
<svg version="1.1" id="Calque_1" xmlns="http://www.w3.org/2000/svg" xmlns:xlink="http://www.w3.org/1999/xlink" x="0px" y="0px"
	 width="1190.551px" height="1190.551px" viewBox="0 0 1190.551 1190.551" enable-background="new 0 0 1190.551 1190.551"
	 xml:space="preserve">
<polygon fill="#010202" points="535.579,232.277 535.579,86.275 483.579,86.275 483.579,0 450.941,0 450.941,150.277 
	407.58,150.277 407.58,180.112 348.588,180.112 348.588,0 0,0 0,164.908 96.531,164.908 96.531,348.588 0,348.588 0,512.156 
	99.213,512.156 99.213,595.28 0,595.28 0,1186.527 204.87,1186.527 204.87,906.179 149.157,906.179 149.157,690.528 
	425.913,690.528 425.913,595.28 233.287,595.28 233.287,429.031 294.959,429.031 294.959,329.818 407.58,329.818 407.58,486.276 
	450.941,486.276 450.941,595.276 535.579,595.276 535.579,418.276 483.579,418.276 483.579,232.277 "/>
</svg>
