<?xml version="1.0" encoding="utf-8"?>
<!-- Generator: Adobe Illustrator 16.0.0, SVG Export Plug-In . SVG Version: 6.00 Build 0)  -->
<!DOCTYPE svg PUBLIC "-//W3C//DTD SVG 1.1//EN" "http://www.w3.org/Graphics/SVG/1.1/DTD/svg11.dtd">
<svg version="1.1" id="Calque_1" xmlns="http://www.w3.org/2000/svg" xmlns:xlink="http://www.w3.org/1999/xlink" x="0px" y="0px"
	 width="1190.551px" height="1190.551px" viewBox="0 0 1190.551 1190.551" enable-background="new 0 0 1190.551 1190.551"
	 xml:space="preserve">
<polygon fill="#010202" points="595.28,348.588 595.28,0 430.37,0 430.37,96.531 246.692,96.531 246.692,0 83.124,0 83.124,99.213 
	0,99.213 0,233.287 166.249,233.287 166.249,294.959 265.462,294.959 265.462,407.58 0,407.58 0,998.826 109,998.826 109,1042.188 
	0,1042.188 0,1126.826 177,1126.826 177,1074.826 362.999,1074.826 362.999,1126.826 509,1126.826 509,1074.826 595.276,1074.826 
	595.276,1042.188 444.998,1042.188 444.998,998.826 204.87,998.826 204.87,718.479 149.157,718.479 149.157,502.828 
	425.913,502.828 425.913,407.58 415.168,407.58 415.168,348.588 "/>
</svg>
