<?xml version="1.0" encoding="utf-8"?>
<!-- Generator: Adobe Illustrator 16.0.0, SVG Export Plug-In . SVG Version: 6.00 Build 0)  -->
<!DOCTYPE svg PUBLIC "-//W3C//DTD SVG 1.1//EN" "http://www.w3.org/Graphics/SVG/1.1/DTD/svg11.dtd">
<svg version="1.1" id="Calque_1" xmlns="http://www.w3.org/2000/svg" xmlns:xlink="http://www.w3.org/1999/xlink" x="0px" y="0px"
	 width="1190.551px" height="1190.551px" viewBox="0 0 1190.551 1190.551" enable-background="new 0 0 1190.551 1190.551"
	 xml:space="preserve">
<polygon fill="#010202" points="591.246,1021.194 591.246,595.28 233.287,595.28 233.287,429.031 294.959,429.031 294.959,329.818 
	407.58,329.818 407.58,180.112 348.588,180.112 348.588,0 0,0 0,164.908 96.531,164.908 96.531,348.588 0,348.588 0,512.156 
	99.213,512.156 99.213,595.28 0,595.28 0,800.15 280.348,800.15 280.348,744.438 495.998,744.438 495.998,1021.194 
	418.276,1021.194 418.276,1073.194 232.277,1073.194 232.277,1021.194 86.275,1021.194 86.275,1073.194 0,1073.194 0,1105.833 
	150.277,1105.833 150.277,1149.194 486.276,1149.194 486.276,1105.833 595.276,1105.833 595.276,1021.194 "/>
</svg>
