<?xml version="1.0" encoding="utf-8"?>
<!-- Generator: Adobe Illustrator 16.0.0, SVG Export Plug-In . SVG Version: 6.00 Build 0)  -->
<!DOCTYPE svg PUBLIC "-//W3C//DTD SVG 1.1//EN" "http://www.w3.org/Graphics/SVG/1.1/DTD/svg11.dtd">
<svg version="1.1" id="Calque_1" xmlns="http://www.w3.org/2000/svg" xmlns:xlink="http://www.w3.org/1999/xlink" x="0px" y="0px"
	 width="1190.551px" height="1190.551px" viewBox="0 0 1190.551 1190.551" enable-background="new 0 0 1190.551 1190.551"
	 xml:space="preserve">
<polygon fill="#010202" points="863.065,234.289 863.065,88.287 811.065,88.287 811.065,2.012 778.427,2.012 778.427,152.289 
	735.067,152.289 735.067,182.124 676.074,182.124 676.074,2.012 327.487,2.012 327.487,166.92 424.017,166.92 424.017,350.6 
	327.487,350.6 327.487,514.168 426.699,514.168 426.699,597.292 327.487,597.292 327.487,1188.539 532.357,1188.539 532.357,908.19 
	476.644,908.19 476.644,692.54 753.399,692.54 753.399,597.292 560.774,597.292 560.774,431.043 622.446,431.043 622.446,331.83 
	735.067,331.83 735.067,488.288 778.427,488.288 778.427,597.287 863.065,597.287 863.065,420.288 811.065,420.288 811.065,234.289 
	"/>
</svg>
