<?xml version="1.0" encoding="utf-8"?>
<!-- Generator: Adobe Illustrator 16.0.0, SVG Export Plug-In . SVG Version: 6.00 Build 0)  -->
<!DOCTYPE svg PUBLIC "-//W3C//DTD SVG 1.1//EN" "http://www.w3.org/Graphics/SVG/1.1/DTD/svg11.dtd">
<svg version="1.1" id="Calque_1" xmlns="http://www.w3.org/2000/svg" xmlns:xlink="http://www.w3.org/1999/xlink" x="0px" y="0px"
	 width="1190.551px" height="1190.551px" viewBox="0 0 1190.551 1190.551" enable-background="new 0 0 1190.551 1190.551"
	 xml:space="preserve">
<polygon fill="#010202" points="892.915,380.45 892.915,31.862 728.005,31.862 728.005,128.394 544.327,128.394 544.327,31.862 
	380.76,31.862 380.76,131.075 297.636,131.075 297.636,265.149 463.885,265.149 463.885,326.821 563.098,326.821 563.098,439.442 
	297.636,439.442 297.636,1030.688 406.636,1030.688 406.636,1074.05 297.636,1074.05 297.636,1158.688 474.636,1158.688 
	474.636,1106.688 660.635,1106.688 660.635,1158.688 806.636,1158.688 806.636,1106.688 892.911,1106.688 892.911,1074.05 
	742.633,1074.05 742.633,1030.688 502.506,1030.688 502.506,750.341 446.793,750.341 446.793,534.69 723.548,534.69 
	723.548,439.442 712.804,439.442 712.804,380.45 "/>
</svg>
