<?xml version="1.0" encoding="utf-8"?>
<!-- Generator: Adobe Illustrator 16.0.0, SVG Export Plug-In . SVG Version: 6.00 Build 0)  -->
<!DOCTYPE svg PUBLIC "-//W3C//DTD SVG 1.1//EN" "http://www.w3.org/Graphics/SVG/1.1/DTD/svg11.dtd">
<svg version="1.1" id="Calque_1" xmlns="http://www.w3.org/2000/svg" xmlns:xlink="http://www.w3.org/1999/xlink" x="0px" y="0px"
	 width="1190.551px" height="1190.551px" viewBox="0 0 1190.551 1190.551" enable-background="new 0 0 1190.551 1190.551"
	 xml:space="preserve">
<polygon fill="#010202" points="595.28,595.28 595.28,0 0,0 0,263.639 414.28,263.639 414.28,331.639 0,331.639 0,595.28 
	109,595.28 109,638.641 0,638.641 0,723.28 0,1149.194 591.245,1149.194 591.245,944.323 310.899,944.323 310.899,1000.034 
	95.247,1000.034 95.247,723.28 177,723.28 177,671.28 362.999,671.28 362.999,723.28 509,723.28 509,671.28 595.276,671.28 
	595.276,638.641 444.998,638.641 444.998,595.28 "/>
</svg>
