<?xml version="1.0" encoding="utf-8"?>
<!-- Generator: Adobe Illustrator 16.0.0, SVG Export Plug-In . SVG Version: 6.00 Build 0)  -->
<!DOCTYPE svg PUBLIC "-//W3C//DTD SVG 1.1//EN" "http://www.w3.org/Graphics/SVG/1.1/DTD/svg11.dtd">
<svg version="1.1" id="Calque_1" xmlns="http://www.w3.org/2000/svg" xmlns:xlink="http://www.w3.org/1999/xlink" x="0px" y="0px"
	 width="1190.551px" height="1190.551px" viewBox="0 0 1190.551 1190.551" enable-background="new 0 0 1190.551 1190.551"
	 xml:space="preserve">
<polygon fill="#010202" points="892.915,637.64 892.915,42.359 629.277,42.359 629.277,456.64 561.277,456.64 561.277,42.359 
	297.636,42.359 297.636,637.64 297.636,842.51 577.983,842.51 577.983,786.799 793.633,786.799 793.633,1063.554 742.633,1063.554 
	742.633,1020.191 406.636,1020.191 406.636,1063.554 297.636,1063.554 297.636,1148.191 474.636,1148.191 474.636,1096.191 
	660.635,1096.191 660.635,1148.191 806.636,1148.191 806.636,1096.191 892.911,1096.191 892.911,1063.554 888.88,1063.554 
	888.88,637.64 "/>
</svg>
