<?xml version="1.0" encoding="utf-8"?>
<!-- Generator: Adobe Illustrator 16.0.0, SVG Export Plug-In . SVG Version: 6.00 Build 0)  -->
<!DOCTYPE svg PUBLIC "-//W3C//DTD SVG 1.1//EN" "http://www.w3.org/Graphics/SVG/1.1/DTD/svg11.dtd">
<svg version="1.1" id="Calque_1" xmlns="http://www.w3.org/2000/svg" xmlns:xlink="http://www.w3.org/1999/xlink" x="0px" y="0px"
	 width="1190.551px" height="1190.551px" viewBox="0 0 1190.551 1190.551" enable-background="new 0 0 1190.551 1190.551"
	 xml:space="preserve">
<polygon fill="#010202" points="892.915,615.959 892.915,20.678 297.636,20.678 297.636,284.317 711.915,284.317 711.915,352.317 
	297.636,352.317 297.636,615.959 406.636,615.959 406.636,659.318 297.636,659.318 297.636,743.959 297.636,1169.873 
	888.88,1169.873 888.88,965.002 608.534,965.002 608.534,1020.713 392.883,1020.713 392.883,743.959 474.636,743.959 
	474.636,691.959 660.635,691.959 660.635,743.959 806.636,743.959 806.636,691.959 892.911,691.959 892.911,659.318 
	742.633,659.318 742.633,615.959 "/>
</svg>
