<?xml version="1.0" encoding="utf-8"?>
<!-- Generator: Adobe Illustrator 16.0.0, SVG Export Plug-In . SVG Version: 6.00 Build 0)  -->
<!DOCTYPE svg PUBLIC "-//W3C//DTD SVG 1.1//EN" "http://www.w3.org/Graphics/SVG/1.1/DTD/svg11.dtd">
<svg version="1.1" id="Calque_1" xmlns="http://www.w3.org/2000/svg" xmlns:xlink="http://www.w3.org/1999/xlink" x="0px" y="0px"
	 width="1190.551px" height="1190.551px" viewBox="0 0 1190.551 1190.551" enable-background="new 0 0 1190.551 1190.551"
	 xml:space="preserve">
<polygon fill="#010202" points="595.28,595.28 595.28,0 331.641,0 331.641,414.28 263.641,414.28 263.641,0 0,0 0,595.28 0,800.15 
	280.347,800.15 280.347,744.439 495.998,744.439 495.998,1021.194 444.998,1021.194 444.998,977.832 109,977.832 109,1021.194 
	0,1021.194 0,1105.832 177,1105.832 177,1053.832 362.999,1053.832 362.999,1105.832 509,1105.832 509,1053.832 595.276,1053.832 
	595.276,1021.194 591.245,1021.194 591.245,595.28 "/>
</svg>
