<?xml version="1.0" encoding="utf-8"?>
<!-- Generator: Adobe Illustrator 16.0.0, SVG Export Plug-In . SVG Version: 6.00 Build 0)  -->
<!DOCTYPE svg PUBLIC "-//W3C//DTD SVG 1.1//EN" "http://www.w3.org/Graphics/SVG/1.1/DTD/svg11.dtd">
<svg version="1.1" id="Calque_1" xmlns="http://www.w3.org/2000/svg" xmlns:xlink="http://www.w3.org/1999/xlink" x="0px" y="0px"
	 width="1190.551px" height="1190.551px" viewBox="0 0 1190.551 1190.551" enable-background="new 0 0 1190.551 1190.551"
	 xml:space="preserve">
<path fill="#010202" d="M418.278,968.452v52h-186v-52H368.98V757.359h151.698v-224.99H370.48V373.174H143.992v222.028l-67.89,0.077
	c0-0.066,0-159.595,0-212.777c0-36,10.397-50,48.897-50h173.091V300.19v-5.1v-32.312H125c-38.5,0-48.897-14-48.897-50
	c0-53.193,0-212.777,0-212.777H0v295.091v5.1v295.09h75.424L0,595.366v235.489h136.493v137.597H86.277v52H0v32.639h150.277v43.361
	h336v-43.361h109v-84.639H418.278z"/>
</svg>
