<?xml version="1.0" encoding="utf-8"?>
<!-- Generator: Adobe Illustrator 16.0.0, SVG Export Plug-In . SVG Version: 6.00 Build 0)  -->
<!DOCTYPE svg PUBLIC "-//W3C//DTD SVG 1.1//EN" "http://www.w3.org/Graphics/SVG/1.1/DTD/svg11.dtd">
<svg version="1.1" id="Calque_1" xmlns="http://www.w3.org/2000/svg" xmlns:xlink="http://www.w3.org/1999/xlink" x="0px" y="0px"
	 width="1190.551px" height="1190.551px" viewBox="0 0 1190.551 1190.551" enable-background="new 0 0 1190.551 1190.551"
	 xml:space="preserve">
<path fill="#010202" d="M919.615,380.87V234.869h-52v-86.277h-32.641v150.277h-43.359v-12.681H655.121V148.591H422.634v211.094
	H270.938v224.99h150.195v159.194H270.937v76.104c0,0,159.585,0,212.777,0c36,0,50,10.396,50,48.896v173.091h32.312h5.1h32.312
	V868.87c0-38.5,14-48.896,50-48.896c53.192,0,212.776,0,212.776,0v-76.104h53.397v-177h-52v-186H919.615z M647.622,743.869V521.841
	l143.992-0.164v113.192h43.359v109H647.622L647.622,743.869z"/>
</svg>
