<?xml version="1.0" encoding="utf-8"?>
<!-- Generator: Adobe Illustrator 16.0.0, SVG Export Plug-In . SVG Version: 6.00 Build 0)  -->
<!DOCTYPE svg PUBLIC "-//W3C//DTD SVG 1.1//EN" "http://www.w3.org/Graphics/SVG/1.1/DTD/svg11.dtd">
<svg version="1.1" id="Calque_1" xmlns="http://www.w3.org/2000/svg" xmlns:xlink="http://www.w3.org/1999/xlink" x="0px" y="0px"
	 width="1190.551px" height="1190.551px" viewBox="0 0 1190.551 1190.551" enable-background="new 0 0 1190.551 1190.551"
	 xml:space="preserve">
<g>
	<polygon fill="#010202" points="855.615,452.979 855.615,227.989 705.416,227.989 705.416,68.794 478.929,68.794 478.929,290.823 
		334.937,290.987 334.937,526.475 471.43,526.475 471.43,664.072 660.556,664.072 660.556,1000.073 703.916,1000.073 
		703.916,1109.073 788.554,1109.073 788.554,932.073 736.556,932.073 736.556,746.073 788.554,746.073 788.554,600.072 
		736.556,600.072 736.556,513.795 703.916,513.795 703.916,452.979 	"/>
	<path fill="#010202" d="M459.937,789.252c-38.5,0-48.897-14-48.897-50c0-53.192,0-212.776,0-212.776h-76.103v295.091v5.099v295.091
		h76.103c0,0,0-159.586,0-212.778c0-36,10.397-50,48.897-50h173.091v-32.312v-5.099v-32.314H459.937V789.252z"/>
</g>
</svg>
