<?xml version="1.0" encoding="utf-8"?>
<!-- Generator: Adobe Illustrator 16.0.0, SVG Export Plug-In . SVG Version: 6.00 Build 0)  -->
<!DOCTYPE svg PUBLIC "-//W3C//DTD SVG 1.1//EN" "http://www.w3.org/Graphics/SVG/1.1/DTD/svg11.dtd">
<svg version="1.1" id="Calque_1" xmlns="http://www.w3.org/2000/svg" xmlns:xlink="http://www.w3.org/1999/xlink" x="0px" y="0px"
	 width="1190.551px" height="1190.551px" viewBox="0 0 1190.551 1190.551" enable-background="new 0 0 1190.551 1190.551"
	 xml:space="preserve">
<path fill="#010202" d="M648.677,232.279V86.278h-52V0.001h-32.64v150.277h-43.36v-12.681H384.184V0H151.697v211.094H0v224.99
	h150.196v159.194H-0.001v76.104c0,0,159.585,0,212.778,0c36,0,50,10.396,50,48.896v173.091h32.312h5.1h32.312V720.279
	c0-38.5,14-48.896,50-48.896c53.193,0,212.777,0,212.777,0v-76.104h53.397v-177h-52v-186H648.677z M376.685,595.279V373.25
	l143.992-0.164v113.192h43.36v109H376.685z"/>
</svg>
