<?xml version="1.0" encoding="utf-8"?>
<!-- Generator: Adobe Illustrator 16.0.0, SVG Export Plug-In . SVG Version: 6.00 Build 0)  -->
<!DOCTYPE svg PUBLIC "-//W3C//DTD SVG 1.1//EN" "http://www.w3.org/Graphics/SVG/1.1/DTD/svg11.dtd">
<svg version="1.1" id="Calque_1" xmlns="http://www.w3.org/2000/svg" xmlns:xlink="http://www.w3.org/1999/xlink" x="0px" y="0px"
	 width="1190.551px" height="1190.551px" viewBox="0 0 1190.551 1190.551" enable-background="new 0 0 1190.551 1190.551"
	 xml:space="preserve">
<path fill="#010202" d="M855.614,217.193H719.121V79.595H486.634v211.094H334.937v224.99h43.359v150.276h-43.359v336.001h43.359v109
	h84.641v-177h-52v-186h52V601.955h-52V515.68h74.195v159.194h226.489V452.845l0.896-0.001c0,0.08,0,159.598,0,212.777
	c0,36-10.398,50-48.898,50H490.528v32.312v5.1v32.312h173.091v0.002c38.5,0,48.898,14,48.898,50c0,53.192,0,212.776,0,212.776
	h76.102v-295.09v-5.099V452.843h-75.283l142.277-0.162V217.193z"/>
</svg>
