<?xml version="1.0" encoding="utf-8"?>
<!-- Generator: Adobe Illustrator 16.0.0, SVG Export Plug-In . SVG Version: 6.00 Build 0)  -->
<!DOCTYPE svg PUBLIC "-//W3C//DTD SVG 1.1//EN" "http://www.w3.org/Graphics/SVG/1.1/DTD/svg11.dtd">
<svg version="1.1" id="Calque_1" xmlns="http://www.w3.org/2000/svg" xmlns:xlink="http://www.w3.org/1999/xlink" x="0px" y="0px"
	 width="1190.551px" height="1190.551px" viewBox="0 0 1190.551 1190.551" enable-background="new 0 0 1190.551 1190.551"
	 xml:space="preserve">
<g>
	<polygon fill="#010202" points="520.678,384.185 520.678,159.195 370.48,159.195 370.48,0 143.992,0 143.992,222.029 0,222.193 
		0,457.681 136.493,457.681 136.493,595.279 325.619,595.279 325.619,931.279 368.98,931.279 368.98,1040.279 453.618,1040.279 
		453.618,863.279 401.619,863.279 401.619,677.279 453.618,677.279 453.618,531.278 401.619,531.278 401.619,445.001 
		368.98,445.001 368.98,384.185 	"/>
	<path fill="#010202" d="M125,720.458c-38.5,0-48.897-14-48.897-50c0-53.192,0-212.776,0-212.776H0v295.091v5.099v295.091h76.103
		c0,0,0-159.586,0-212.778c0-36,10.397-50,48.897-50h173.091v-32.312v-5.099V720.46H125V720.458z"/>
</g>
</svg>
