<?xml version="1.0" encoding="utf-8"?>
<!-- Generator: Adobe Illustrator 16.0.0, SVG Export Plug-In . SVG Version: 6.00 Build 0)  -->
<!DOCTYPE svg PUBLIC "-//W3C//DTD SVG 1.1//EN" "http://www.w3.org/Graphics/SVG/1.1/DTD/svg11.dtd">
<svg version="1.1" id="Calque_1" xmlns="http://www.w3.org/2000/svg" xmlns:xlink="http://www.w3.org/1999/xlink" x="0px" y="0px"
	 width="1190.551px" height="1190.551px" viewBox="0 0 1190.551 1190.551" enable-background="new 0 0 1190.551 1190.551"
	 xml:space="preserve">
<g>
	<polygon fill="#010202" points="892.914,489.728 892.914,257.241 681.821,257.241 681.821,105.544 456.831,105.544 
		456.831,255.741 297.636,255.741 297.636,482.229 519.665,482.229 519.829,626.221 755.317,626.221 755.317,666.729 
		807.317,666.729 807.317,852.728 755.317,852.728 755.317,998.729 807.317,998.729 807.317,1085.007 839.955,1085.007 
		839.955,934.728 883.317,934.728 883.317,598.729 839.955,598.729 839.955,489.728 	"/>
	<path fill="#010202" d="M422.636,745.008c-38.5,0-48.897-14-48.897-50.001c0-53.192,0-212.777,0-212.777h-76.103v295.091v5.1
		v295.091h76.103c0,0,0-159.585,0-212.778c0-36,10.397-50,48.897-50h173.091v-32.312v-5.099V745.01L422.636,745.008L422.636,745.008
		z"/>
</g>
</svg>
