<?xml version="1.0" encoding="utf-8"?>
<!-- Generator: Adobe Illustrator 16.0.0, SVG Export Plug-In . SVG Version: 6.00 Build 0)  -->
<!DOCTYPE svg PUBLIC "-//W3C//DTD SVG 1.1//EN" "http://www.w3.org/Graphics/SVG/1.1/DTD/svg11.dtd">
<svg version="1.1" id="Calque_1" xmlns="http://www.w3.org/2000/svg" xmlns:xlink="http://www.w3.org/1999/xlink" x="0px" y="0px"
	 width="1190.551px" height="1190.551px" viewBox="0 0 1190.551 1190.551" enable-background="new 0 0 1190.551 1190.551"
	 xml:space="preserve">
<path fill="#010202" d="M742.637,1058.901v-43.36h8.682V720.449v-5.099V420.26h-75.283l142.279-0.162V184.61H681.821V47.012H449.334
	v211.094H297.637v224.99h150.195v159.193h226.488V420.262l0.896-0.001c0,0.08,0,159.597,0,212.776
	c0,36.001-10.396,50.001-48.896,50.001H453.228v32.312v5.1v32.312h173.092v0.002c38.5,0,48.896,14,48.896,50
	c0,53.192,0,212.776,0,212.776h-268.58v43.36h-109v84.64h177v-52h186v52h146v-52h86.277v-32.64H742.637V1058.901z"/>
</svg>
