<?xml version="1.0" encoding="utf-8"?>
<!-- Generator: Adobe Illustrator 16.0.0, SVG Export Plug-In . SVG Version: 6.00 Build 0)  -->
<!DOCTYPE svg PUBLIC "-//W3C//DTD SVG 1.1//EN" "http://www.w3.org/Graphics/SVG/1.1/DTD/svg11.dtd">
<svg version="1.1" id="Calque_1" xmlns="http://www.w3.org/2000/svg" xmlns:xlink="http://www.w3.org/1999/xlink" x="0px" y="0px"
	 width="1190.551px" height="1190.551px" viewBox="0 0 1190.551 1190.551" enable-background="new 0 0 1190.551 1190.551"
	 xml:space="preserve">
<g>
	<polygon fill="#010202" points="595.279,384.184 595.279,151.697 384.185,151.697 384.185,0 159.195,0 159.195,150.197 0,150.197 
		0,376.685 222.029,376.685 222.193,520.677 457.681,520.677 457.681,561.184 509.681,561.184 509.681,747.184 457.681,747.184 
		457.681,893.185 509.681,893.185 509.681,979.463 542.32,979.463 542.32,829.184 585.681,829.184 585.681,493.184 542.32,493.184 
		542.32,384.184 	"/>
	<path fill="#010202" d="M125,639.464c-38.5,0-48.897-14-48.897-50.001c0-53.193,0-212.777,0-212.777H0v295.091v5.1v295.091h76.103
		c0,0,0-159.585,0-212.779c0-36,10.397-50,48.897-50h173.091v-32.312v-5.099v-32.312L125,639.464L125,639.464z"/>
</g>
</svg>
