<?xml version="1.0" encoding="utf-8"?>
<!-- Generator: Adobe Illustrator 16.0.0, SVG Export Plug-In . SVG Version: 6.00 Build 0)  -->
<!DOCTYPE svg PUBLIC "-//W3C//DTD SVG 1.1//EN" "http://www.w3.org/Graphics/SVG/1.1/DTD/svg11.dtd">
<svg version="1.1" id="Calque_1" xmlns="http://www.w3.org/2000/svg" xmlns:xlink="http://www.w3.org/1999/xlink" x="0px" y="0px"
	 width="1190.551px" height="1190.551px" viewBox="0 0 1190.551 1190.551" enable-background="new 0 0 1190.551 1190.551"
	 xml:space="preserve">
<path fill="#010202" d="M680.139,755.973c53.192,0,212.776,0,212.776,0v-76.104H674.322V457.841l143.992-0.164V222.189H681.821
	V84.591H449.333v211.094H297.637v224.99h150.195v159.194H297.636v76.104c0,0,159.585,0,212.777,0c36,0,50,10.396,50,48.896V977.96
	H406.637v43.361h-109v84.639h177v-52h186v52h146v-52h86.276v-32.639H742.637V977.96H630.139V804.87
	C630.139,766.37,644.139,755.973,680.139,755.973z"/>
</svg>
