<?xml version="1.0" encoding="utf-8"?>
<!-- Generator: Adobe Illustrator 16.0.0, SVG Export Plug-In . SVG Version: 6.00 Build 0)  -->
<!DOCTYPE svg PUBLIC "-//W3C//DTD SVG 1.1//EN" "http://www.w3.org/Graphics/SVG/1.1/DTD/svg11.dtd">
<svg version="1.1" id="Calque_1" xmlns="http://www.w3.org/2000/svg" xmlns:xlink="http://www.w3.org/1999/xlink" x="0px" y="0px"
	 width="1190.551px" height="1190.551px" viewBox="0 0 1190.551 1190.551" enable-background="new 0 0 1190.551 1190.551"
	 xml:space="preserve">
<path fill="#010202" d="M445,1011.89v-43.361h8.682V673.438v-5.099V373.248h-75.283l142.278-0.162V137.598H384.184V0H151.697
	v211.094H0v224.99h150.196v159.194h226.488V373.25l0.896-0.001c0,0.08,0,159.597,0,212.777c0,36-10.397,50-48.897,50H155.591v32.312
	v5.099v32.312h173.092v0.002c38.5,0,48.897,14,48.897,50c0,53.192,0,212.776,0,212.776H109v43.361H0v84.639h177v-52h186v52h146v-52
	h86.277v-32.639H445z"/>
</svg>
