<?xml version="1.0" encoding="utf-8"?>
<!-- Generator: Adobe Illustrator 16.0.0, SVG Export Plug-In . SVG Version: 6.00 Build 0)  -->
<!DOCTYPE svg PUBLIC "-//W3C//DTD SVG 1.1//EN" "http://www.w3.org/Graphics/SVG/1.1/DTD/svg11.dtd">
<svg version="1.1" id="Calque_1" xmlns="http://www.w3.org/2000/svg" xmlns:xlink="http://www.w3.org/1999/xlink" x="0px" y="0px"
	 width="1190.551px" height="1190.551px" viewBox="0 0 1190.551 1190.551" enable-background="new 0 0 1190.551 1190.551"
	 xml:space="preserve">
<g>
	<polygon fill="#010202" points="373.25,143.991 373.086,0 137.598,0 137.598,136.492 0,136.492 0,368.98 211.094,368.98 
		211.094,520.678 436.084,520.678 436.084,370.48 595.279,370.48 595.279,143.991 	"/>
	<path fill="#010202" d="M418.278,964.26h-186v-52H86.277v52H76.103c0-0.167,0-159.611,0-212.777c0-36,10.397-50,48.897-50h173.091
		v-32.312v-5.101v-32.312H125c-38.5,0-48.897-14-48.897-50.001c0-53.193,0-212.777,0-212.777H0v295.091v5.101V964.26v0.002v32.637
		h150.277v43.361h336v-43.361h109V912.26h-177V964.26z"/>
</g>
</svg>
