<?xml version="1.0" encoding="utf-8"?>
<!-- Generator: Adobe Illustrator 16.0.0, SVG Export Plug-In . SVG Version: 6.00 Build 0)  -->
<!DOCTYPE svg PUBLIC "-//W3C//DTD SVG 1.1//EN" "http://www.w3.org/Graphics/SVG/1.1/DTD/svg11.dtd">
<svg version="1.1" id="Calque_1" xmlns="http://www.w3.org/2000/svg" xmlns:xlink="http://www.w3.org/1999/xlink" x="0px" y="0px"
	 width="1190.551px" height="1190.551px" viewBox="0 0 1190.551 1190.551" enable-background="new 0 0 1190.551 1190.551"
	 xml:space="preserve">
<path fill="#010202" d="M742.637,1068.637v-43.359h-336v43.359H373.74c0-0.084,0-159.598,0-212.775c0-36,10.397-50,48.897-50
	h173.091v-32.312v-5.1v-32.311H422.637v-0.002c-38.5,0-48.897-14-48.897-50c0-53.193,0-212.778,0-212.778h74.094v159.194h226.489
	v-222.03l143.992-0.164V174.871H681.821V37.273H449.334v211.094H297.637v224.99v295.092v5.1v295.088v0.002v84.639h177v-52h186v52
	h146v-52h86.277v-32.641H742.637z"/>
</svg>
