<?xml version="1.0" encoding="utf-8"?>
<!-- Generator: Adobe Illustrator 16.0.0, SVG Export Plug-In . SVG Version: 6.00 Build 0)  -->
<!DOCTYPE svg PUBLIC "-//W3C//DTD SVG 1.1//EN" "http://www.w3.org/Graphics/SVG/1.1/DTD/svg11.dtd">
<svg version="1.1" id="Calque_1" xmlns="http://www.w3.org/2000/svg" xmlns:xlink="http://www.w3.org/1999/xlink" x="0px" y="0px"
	 width="1190.551px" height="1190.551px" viewBox="0 0 1190.551 1190.551" enable-background="new 0 0 1190.551 1190.551"
	 xml:space="preserve">
<path fill="#010202" d="M715.914,1015.501v52h-186v-52h136.703V804.408h151.697v-224.99H668.117V420.223H441.63v222.028
	l-67.891,0.077c0-0.066,0-159.595,0-212.777c0-36,10.397-50,48.897-50h173.091v-32.312v-5.1v-32.312h-173.09
	c-38.5,0-48.897-14-48.897-50c0-53.193,0-212.777,0-212.777h-76.103v295.091v5.1v295.09h75.424l-75.424,0.084v235.489h136.493
	v137.597h-50.217v52h-86.276v32.639h150.276v43.361h336v-43.361h109v-84.639H715.914L715.914,1015.501z"/>
</svg>
