<?xml version="1.0" encoding="utf-8"?>
<!-- Generator: Adobe Illustrator 16.0.0, SVG Export Plug-In . SVG Version: 6.00 Build 0)  -->
<!DOCTYPE svg PUBLIC "-//W3C//DTD SVG 1.1//EN" "http://www.w3.org/Graphics/SVG/1.1/DTD/svg11.dtd">
<svg version="1.1" id="Calque_1" xmlns="http://www.w3.org/2000/svg" xmlns:xlink="http://www.w3.org/1999/xlink" x="0px" y="0px"
	 width="1190.551px" height="1190.551px" viewBox="0 0 1190.551 1190.551" enable-background="new 0 0 1190.551 1190.551"
	 xml:space="preserve">
<g>
	<polygon fill="#010202" points="670.887,219.137 670.723,75.146 435.234,75.146 435.234,211.638 297.636,211.638 297.636,444.125 
		508.73,444.125 508.73,595.823 733.721,595.823 733.721,445.625 892.914,445.625 892.914,219.137 	"/>
	<path fill="#010202" d="M715.914,1039.405h-186v-52H383.913v52h-10.174c0-0.167,0-159.61,0-212.776c0-36,10.397-50,48.897-50
		h173.091v-32.312v-5.101v-32.312H422.636c-38.5,0-48.897-14-48.897-50.001c0-53.193,0-212.777,0-212.777h-76.103v295.091v5.101
		v295.088v0.002v32.638h150.276v43.36h336v-43.36h109v-84.64h-177v52H715.914z"/>
</g>
</svg>
