<?xml version="1.0" encoding="utf-8"?>
<!-- Generator: Adobe Illustrator 16.0.0, SVG Export Plug-In . SVG Version: 6.00 Build 0)  -->
<!DOCTYPE svg PUBLIC "-//W3C//DTD SVG 1.1//EN" "http://www.w3.org/Graphics/SVG/1.1/DTD/svg11.dtd">
<svg version="1.1" id="Calque_1" xmlns="http://www.w3.org/2000/svg" xmlns:xlink="http://www.w3.org/1999/xlink" x="0px" y="0px"
	 width="1190.551px" height="1190.551px" viewBox="0 0 1190.551 1190.551" enable-background="new 0 0 1190.551 1190.551"
	 xml:space="preserve">
<g>
	<polygon fill="#010202" points="670.887,214.817 670.723,70.826 435.234,70.826 435.234,207.318 297.636,207.318 297.636,439.806 
		508.73,439.806 508.73,591.503 733.721,591.503 733.721,441.306 892.914,441.306 892.914,214.817 	"/>
	<path fill="#010202" d="M742.637,991.725h-336v43.361h-32.897c0-0.168,0-159.611,0-212.777c0-36,10.397-50,48.897-50h173.091
		v-32.312v-5.1v-32.312H422.636c-38.5,0-48.897-14-48.897-50.002c0-53.192,0-212.776,0-212.776h-76.103v295.091v5.102v295.088v0.002
		v84.637h177v-52h186v52h146v-52h86.275v-32.639H742.637V991.725z"/>
</g>
</svg>
