<?xml version="1.0" encoding="utf-8"?>
<!-- Generator: Adobe Illustrator 16.0.0, SVG Export Plug-In . SVG Version: 6.00 Build 0)  -->
<!DOCTYPE svg PUBLIC "-//W3C//DTD SVG 1.1//EN" "http://www.w3.org/Graphics/SVG/1.1/DTD/svg11.dtd">
<svg version="1.1" id="Calque_1" xmlns="http://www.w3.org/2000/svg" xmlns:xlink="http://www.w3.org/1999/xlink" x="0px" y="0px"
	 width="1190.551px" height="1190.551px" viewBox="0 0 1190.551 1190.551" enable-background="new 0 0 1190.551 1190.551"
	 xml:space="preserve">
<polygon fill="#010202" points="1115.957,384.185 1115.957,159.196 965.759,159.196 965.759,0 739.271,0 739.271,222.03 
	595.279,222.193 595.279,297.64 404.279,297.64 404.279,413 198.279,413 198.279,203 310.279,203 310.279,0 0,0 0,595.279 
	595.279,595.279 595.279,457.681 731.772,457.681 731.772,595.28 964.259,595.28 964.259,384.185 1007.618,384.185 
	1007.618,534.463 964.26,534.463 964.26,870.464 1007.618,870.464 1007.618,979.464 1092.26,979.464 1092.26,802.464 
	1040.26,802.464 1040.26,616.464 1092.26,616.464 1092.26,470.462 1040.26,470.462 1040.26,384.185 "/>
</svg>
