<?xml version="1.0" encoding="utf-8"?>
<!-- Generator: Adobe Illustrator 16.0.0, SVG Export Plug-In . SVG Version: 6.00 Build 0)  -->
<!DOCTYPE svg PUBLIC "-//W3C//DTD SVG 1.1//EN" "http://www.w3.org/Graphics/SVG/1.1/DTD/svg11.dtd">
<svg version="1.1" id="Calque_1" xmlns="http://www.w3.org/2000/svg" xmlns:xlink="http://www.w3.org/1999/xlink" x="0px" y="0px"
	 width="1190.551px" height="1190.551px" viewBox="0 0 1190.551 1190.551" enable-background="new 0 0 1190.551 1190.551"
	 xml:space="preserve">
<polygon fill="#010202" points="928.584,798.814 928.584,563.325 792.094,563.325 792.094,425.727 559.606,425.727 559.606,445.822 
	444.245,445.822 444.245,239.822 654.245,239.822 654.245,351.822 857.245,351.822 857.245,41.543 261.967,41.543 261.967,636.822 
	407.907,636.822 407.907,861.811 558.106,861.811 558.106,1021.008 680.244,1021.008 680.244,1073.008 494.244,1073.008 
	494.244,1021.008 348.243,1021.008 348.243,1073.008 261.967,1073.008 261.967,1105.646 412.244,1105.646 412.244,1149.008 
	748.244,1149.008 748.244,1105.646 857.244,1105.646 857.244,1021.008 784.595,1021.008 784.595,798.977 "/>
</svg>
