<?xml version="1.0" encoding="utf-8"?>
<!-- Generator: Adobe Illustrator 16.0.0, SVG Export Plug-In . SVG Version: 6.00 Build 0)  -->
<!DOCTYPE svg PUBLIC "-//W3C//DTD SVG 1.1//EN" "http://www.w3.org/Graphics/SVG/1.1/DTD/svg11.dtd">
<svg version="1.1" id="Calque_1" xmlns="http://www.w3.org/2000/svg" xmlns:xlink="http://www.w3.org/1999/xlink" x="0px" y="0px"
	 width="1190.551px" height="1190.551px" viewBox="0 0 1190.551 1190.551" enable-background="new 0 0 1190.551 1190.551"
	 xml:space="preserve">
<polygon fill="#010202" points="1153.254,489.729 1153.254,264.739 1003.056,264.739 1003.056,105.543 776.568,105.543 
	776.568,327.574 632.575,327.736 632.575,403.184 441.575,403.184 441.575,518.543 235.575,518.543 235.575,308.543 
	347.575,308.543 347.575,105.543 37.297,105.543 37.297,700.822 632.575,700.822 632.575,563.225 769.069,563.225 769.069,700.824 
	1001.556,700.824 1001.556,489.729 1044.914,489.729 1044.914,640.006 1001.557,640.006 1001.557,976.008 1044.914,976.008 
	1044.914,1085.008 1129.557,1085.008 1129.557,908.008 1077.557,908.008 1077.557,722.008 1129.557,722.008 1129.557,576.005 
	1077.557,576.005 1077.557,489.729 "/>
</svg>
