<?xml version="1.0" encoding="utf-8"?>
<!-- Generator: Adobe Illustrator 16.0.0, SVG Export Plug-In . SVG Version: 6.00 Build 0)  -->
<!DOCTYPE svg PUBLIC "-//W3C//DTD SVG 1.1//EN" "http://www.w3.org/Graphics/SVG/1.1/DTD/svg11.dtd">
<svg version="1.1" id="Calque_1" xmlns="http://www.w3.org/2000/svg" xmlns:xlink="http://www.w3.org/1999/xlink" x="0px" y="0px"
	 width="1190.551px" height="1190.551px" viewBox="0 0 1190.551 1190.551" enable-background="new 0 0 1190.551 1190.551"
	 xml:space="preserve">
<polygon fill="#010202" points="780.742,1015.54 780.742,804.444 932.438,804.444 932.438,579.456 782.242,579.456 782.242,420.26 
	555.753,420.26 555.753,451.29 440.392,451.29 440.392,245.29 650.393,245.29 650.393,357.29 853.393,357.29 853.393,47.011 
	258.114,47.011 258.114,642.289 555.753,642.289 411.76,642.453 411.76,877.94 548.254,877.94 548.254,1015.54 367.114,1015.54 
	367.114,1058.899 258.114,1058.899 258.114,1143.54 435.114,1143.54 435.114,1091.54 621.114,1091.54 621.114,1143.54 
	767.114,1143.54 767.114,1091.54 853.391,1091.54 853.391,1058.899 703.114,1058.899 703.114,1015.54 "/>
</svg>
