<?xml version="1.0" encoding="utf-8"?>
<!-- Generator: Adobe Illustrator 16.0.0, SVG Export Plug-In . SVG Version: 6.00 Build 0)  -->
<!DOCTYPE svg PUBLIC "-//W3C//DTD SVG 1.1//EN" "http://www.w3.org/Graphics/SVG/1.1/DTD/svg11.dtd">
<svg version="1.1" id="Calque_1" xmlns="http://www.w3.org/2000/svg" xmlns:xlink="http://www.w3.org/1999/xlink" x="0px" y="0px"
	 width="1190.551px" height="1190.551px" viewBox="0 0 1190.551 1190.551" enable-background="new 0 0 1190.551 1190.551"
	 xml:space="preserve">
<polygon fill="#010202" points="522.628,968.529 522.628,757.434 674.324,757.434 674.324,532.445 524.128,532.445 524.128,373.249 
	297.639,373.249 297.639,404.279 182.279,404.279 182.279,198.279 392.279,198.279 392.279,310.279 595.279,310.279 595.279,0 0,0 
	0,595.279 297.639,595.279 153.647,595.442 153.647,830.93 290.14,830.93 290.14,968.529 109,968.529 109,1011.889 0,1011.889 
	0,1096.529 177,1096.529 177,1044.529 363,1044.529 363,1096.529 509,1096.529 509,1044.529 595.278,1044.529 595.278,1011.889 
	445,1011.889 445,968.529 "/>
</svg>
