<?xml version="1.0" encoding="utf-8"?>
<!-- Generator: Adobe Illustrator 16.0.0, SVG Export Plug-In . SVG Version: 6.00 Build 0)  -->
<!DOCTYPE svg PUBLIC "-//W3C//DTD SVG 1.1//EN" "http://www.w3.org/Graphics/SVG/1.1/DTD/svg11.dtd">
<svg version="1.1" id="Calque_1" xmlns="http://www.w3.org/2000/svg" xmlns:xlink="http://www.w3.org/1999/xlink" x="0px" y="0px"
	 width="1190.551px" height="1190.551px" viewBox="0 0 1190.551 1190.551" enable-background="new 0 0 1190.551 1190.551"
	 xml:space="preserve">
<polygon fill="#010202" points="522.628,979.465 522.628,757.434 666.618,757.271 666.618,521.782 530.127,521.782 530.127,384.184 
	297.639,384.184 297.639,404.279 182.279,404.279 182.279,198.279 392.279,198.279 392.279,310.279 595.279,310.279 595.279,0 0,0 
	0,595.279 145.941,595.279 145.941,820.268 296.139,820.268 296.139,979.465 109,979.465 109,1022.823 0,1022.823 0,1107.465 
	177,1107.465 177,1055.465 363,1055.465 363,1107.465 509,1107.465 509,1055.465 595.278,1055.465 595.278,1022.823 445,1022.823 
	445,979.465 "/>
</svg>
