<?xml version="1.0" encoding="utf-8"?>
<!-- Generator: Adobe Illustrator 16.0.0, SVG Export Plug-In . SVG Version: 6.00 Build 0)  -->
<!DOCTYPE svg PUBLIC "-//W3C//DTD SVG 1.1//EN" "http://www.w3.org/Graphics/SVG/1.1/DTD/svg11.dtd">
<svg version="1.1" id="Calque_1" xmlns="http://www.w3.org/2000/svg" xmlns:xlink="http://www.w3.org/1999/xlink" x="0px" y="0px"
	 width="1190.551px" height="1190.551px" viewBox="0 0 1190.551 1190.551" enable-background="new 0 0 1190.551 1190.551"
	 xml:space="preserve">
<polygon fill="#010202" points="979.465,137.599 979.465,0 746.977,0 746.977,211.095 595.279,211.095 595.279,0 297.64,0 
	297.64,191 413,191 413,397 203,397 203,285 0,285 0,595.279 109,595.279 109,638.639 0,638.639 0,723.279 177,723.279 177,671.279 
	363,671.279 363,723.279 509,723.279 509,671.279 595.278,671.279 595.278,638.639 445,638.639 445,595.279 595.279,595.279 
	595.279,436.084 745.477,436.084 745.477,595.28 971.966,595.28 971.966,373.25 1115.957,373.087 1115.957,137.599 "/>
</svg>
