<?xml version="1.0" encoding="utf-8"?>
<!-- Generator: Adobe Illustrator 16.0.0, SVG Export Plug-In . SVG Version: 6.00 Build 0)  -->
<!DOCTYPE svg PUBLIC "-//W3C//DTD SVG 1.1//EN" "http://www.w3.org/Graphics/SVG/1.1/DTD/svg11.dtd">
<svg version="1.1" id="Calque_1" xmlns="http://www.w3.org/2000/svg" xmlns:xlink="http://www.w3.org/1999/xlink" x="0px" y="0px"
	 width="1190.551px" height="1190.551px" viewBox="0 0 1190.551 1190.551" enable-background="new 0 0 1190.551 1190.551"
	 xml:space="preserve">
<polygon fill="#010202" points="297.637,77.636 297.637,375.275 488.637,375.275 488.637,259.915 694.636,259.915 694.636,469.915 
	582.637,469.915 582.637,672.914 715.913,672.914 715.913,724.915 529.914,724.915 529.914,672.914 383.913,672.914 
	383.913,724.915 297.637,724.915 297.637,757.556 447.914,757.556 447.914,800.915 331.741,800.915 331.741,934.81 492.162,934.81 
	492.162,963.861 331.741,963.861 331.741,995.44 297.637,995.44 297.637,1112.915 840.792,1112.915 840.792,1066.179 
	889.148,1066.179 889.148,986.598 848.372,986.598 848.372,867.861 660.162,800.915 783.913,800.915 783.913,757.556 
	892.913,757.556 892.913,672.914 892.914,672.914 892.914,77.636 "/>
</svg>
