<?xml version="1.0" encoding="utf-8"?>
<!-- Generator: Adobe Illustrator 16.0.0, SVG Export Plug-In . SVG Version: 6.00 Build 0)  -->
<!DOCTYPE svg PUBLIC "-//W3C//DTD SVG 1.1//EN" "http://www.w3.org/Graphics/SVG/1.1/DTD/svg11.dtd">
<svg version="1.1" id="Calque_1" xmlns="http://www.w3.org/2000/svg" xmlns:xlink="http://www.w3.org/1999/xlink" x="0px" y="0px"
	 width="1190.551px" height="1190.551px" viewBox="0 0 1190.551 1190.551" enable-background="new 0 0 1190.551 1190.551"
	 xml:space="preserve">
<polygon fill="#010202" points="701.914,815.275 701.914,930.635 495.915,930.635 495.915,720.635 607.914,720.635 607.914,517.636 
	474.637,517.636 474.637,465.636 660.636,465.636 660.636,517.636 806.638,517.636 806.638,465.636 892.913,465.636 
	892.913,432.996 742.634,432.996 742.634,389.636 855.042,389.636 855.042,255.742 694.621,255.742 694.621,226.688 
	855.042,226.688 855.042,195.11 889.148,195.11 889.148,77.636 345.99,77.636 345.99,124.373 297.637,124.373 297.637,203.954 
	338.411,203.954 338.411,322.688 526.621,389.636 406.637,389.636 406.637,432.996 297.637,432.996 297.637,517.636 
	297.637,1112.915 892.914,1112.915 892.914,815.275 "/>
</svg>
