<?xml version="1.0" encoding="utf-8"?>
<!-- Generator: Adobe Illustrator 16.0.0, SVG Export Plug-In . SVG Version: 6.00 Build 0)  -->
<!DOCTYPE svg PUBLIC "-//W3C//DTD SVG 1.1//EN" "http://www.w3.org/Graphics/SVG/1.1/DTD/svg11.dtd">
<svg version="1.1" id="Calque_1" xmlns="http://www.w3.org/2000/svg" xmlns:xlink="http://www.w3.org/1999/xlink" x="0px" y="0px"
	 width="1190.551px" height="1190.551px" viewBox="0 0 1190.551 1190.551" enable-background="new 0 0 1190.551 1190.551"
	 xml:space="preserve">
<g>
	<polygon fill="#010202" points="297.64,0 297.64,191 413,191 413,396.999 203,396.999 203,285 0,285 0,595.278 595.279,595.278 
		595.279,470.387 595.279,0 	"/>
	<path fill="#010202" d="M1120.005,185.536l-115.955-66.947l-80.211,138.929l-25.16-14.526l80.211-138.929l-27.349-15.789
		l17.053-29.536L866.858,0L595.279,470.387l40.476,23.369l-24.177,41.876l68.919,39.79l20.388-35.312l59.468,34.334l-290.984,168
		l21.681,37.551l-94.397,54.5l42.32,73.3l153.286-88.5l-26-45.033l161.08-92.999l26,45.033l126.44-73.001l-26-45.033l74.719-43.139
		l-16.32-28.267l-108.465,62.622l152.083-129.521L1120.005,185.536z M782.032,611.995l-21.68-37.55l43.359,25.034L782.032,611.995z"
		/>
</g>
</svg>
