<?xml version="1.0" encoding="utf-8"?>
<!-- Generator: Adobe Illustrator 16.0.0, SVG Export Plug-In . SVG Version: 6.00 Build 0)  -->
<!DOCTYPE svg PUBLIC "-//W3C//DTD SVG 1.1//EN" "http://www.w3.org/Graphics/SVG/1.1/DTD/svg11.dtd">
<svg version="1.1" id="Calque_1" xmlns="http://www.w3.org/2000/svg" xmlns:xlink="http://www.w3.org/1999/xlink" x="0px" y="0px"
	 width="1190.551px" height="1190.551px" viewBox="0 0 1190.551 1190.551" enable-background="new 0 0 1190.551 1190.551"
	 xml:space="preserve">
<g>
	<polygon fill="#010202" points="332.913,141.378 332.913,332.378 448.273,332.378 448.273,538.377 238.273,538.377 
		238.273,426.378 35.273,426.378 35.273,736.656 630.551,736.656 630.551,611.765 630.551,141.378 	"/>
	<path fill="#010202" d="M1155.278,326.914l-115.955-66.947l-80.211,138.929l-25.16-14.526l80.211-138.929l-27.348-15.789
		l17.053-29.536l-101.736-58.738l-271.58,470.387l40.477,23.369L646.85,677.01l68.92,39.79l20.389-35.312l59.467,34.334
		l-290.984,168l21.682,37.551l-94.397,54.5l42.32,73.3l153.286-88.5l-26-45.033l161.08-92.999l26,45.033l126.439-73.001l-26-45.033
		l74.721-43.139l-16.32-28.267l-108.465,62.621l152.082-129.521L1155.278,326.914z M817.305,753.373l-21.68-37.551l43.359,25.034
		L817.305,753.373z"/>
</g>
</svg>
