<?xml version="1.0" encoding="utf-8"?>
<!-- Generator: Adobe Illustrator 16.0.0, SVG Export Plug-In . SVG Version: 6.00 Build 0)  -->
<!DOCTYPE svg PUBLIC "-//W3C//DTD SVG 1.1//EN" "http://www.w3.org/Graphics/SVG/1.1/DTD/svg11.dtd">
<svg version="1.1" id="Calque_1" xmlns="http://www.w3.org/2000/svg" xmlns:xlink="http://www.w3.org/1999/xlink" x="0px" y="0px"
	 width="1190.551px" height="1190.551px" viewBox="0 0 1190.551 1190.551" enable-background="new 0 0 1190.551 1190.551"
	 xml:space="preserve">
<polygon fill="#010202" points="404.278,737.64 404.278,852.999 198.279,852.999 198.279,642.999 310.278,642.999 310.278,440 
	177,440 177,388 362.999,388 362.999,440 509.001,440 509.001,388 595.277,388 595.277,355.36 444.998,355.36 444.998,312 
	557.406,312 557.406,178.106 396.985,178.106 396.985,149.053 557.406,149.053 557.406,117.474 591.511,117.474 591.511,0 48.354,0 
	48.354,46.737 0,46.737 0,126.318 40.775,126.318 40.775,245.053 228.985,312 109,312 109,355.36 0,355.36 0,440 0,1035.279 
	595.278,1035.279 595.278,737.64 "/>
</svg>
