<?xml version="1.0" encoding="utf-8"?>
<!-- Generator: Adobe Illustrator 16.0.0, SVG Export Plug-In . SVG Version: 6.00 Build 0)  -->
<!DOCTYPE svg PUBLIC "-//W3C//DTD SVG 1.1//EN" "http://www.w3.org/Graphics/SVG/1.1/DTD/svg11.dtd">
<svg version="1.1" id="Calque_1" xmlns="http://www.w3.org/2000/svg" xmlns:xlink="http://www.w3.org/1999/xlink" x="0px" y="0px"
	 width="1190.551px" height="1190.551px" viewBox="0 0 1190.551 1190.551" enable-background="new 0 0 1190.551 1190.551"
	 xml:space="preserve">
<polygon fill="#010202" points="595.278,907.279 595.278,609.64 404.278,609.64 404.278,724.999 198.279,724.999 198.279,515 
	310.278,515 310.278,312 557.406,312 557.406,178.106 396.985,178.106 396.985,149.053 557.406,149.053 557.406,117.474 
	591.511,117.474 591.511,0 48.354,0 48.354,46.737 0,46.737 0,126.318 40.775,126.318 40.775,245.053 228.985,312 0,312 0,907.279 
	109,907.279 109,950.639 0,950.639 0,1035.279 177,1035.279 177,983.279 362.999,983.279 362.999,1035.279 509.001,1035.279 
	509.001,983.279 595.277,983.279 595.277,950.639 444.998,950.639 444.998,907.279 "/>
</svg>
