<?xml version="1.0" encoding="utf-8"?>
<!-- Generator: Adobe Illustrator 16.0.0, SVG Export Plug-In . SVG Version: 6.00 Build 0)  -->
<!DOCTYPE svg PUBLIC "-//W3C//DTD SVG 1.1//EN" "http://www.w3.org/Graphics/SVG/1.1/DTD/svg11.dtd">
<svg version="1.1" id="Calque_1" xmlns="http://www.w3.org/2000/svg" xmlns:xlink="http://www.w3.org/1999/xlink" x="0px" y="0px"
	 width="1190.551px" height="1190.551px" viewBox="0 0 1190.551 1190.551" enable-background="new 0 0 1190.551 1190.551"
	 xml:space="preserve">
<path fill="#010202" d="M791.883,565.124h-32.617c80.523-53.268,133.648-144.624,133.648-248.401
	c0-164.382-133.258-297.639-297.638-297.639c-164.382,0-297.639,133.257-297.639,297.639c0,160.028,126.297,290.538,284.649,297.34
	H475.743V774.48H446.69V614.062h-31.579v-34.106H297.637v543.157h46.735v48.354h79.581v-40.775h118.735l66.948-188.211V614.062
	h-1.373c55.652-2.391,107.338-20.06,150.98-48.925v150.265h-43.359V1051.4h43.359v109h84.639v-177h-52V797.402h52V651.4h-52V565.124
	z"/>
</svg>
