<?xml version="1.0" encoding="utf-8"?>
<!-- Generator: Adobe Illustrator 16.0.0, SVG Export Plug-In . SVG Version: 6.00 Build 0)  -->
<!DOCTYPE svg PUBLIC "-//W3C//DTD SVG 1.1//EN" "http://www.w3.org/Graphics/SVG/1.1/DTD/svg11.dtd">
<svg version="1.1" id="Calque_1" xmlns="http://www.w3.org/2000/svg" xmlns:xlink="http://www.w3.org/1999/xlink" x="0px" y="0px"
	 width="1190.551px" height="1190.551px" viewBox="0 0 1190.551 1190.551" enable-background="new 0 0 1190.551 1190.551"
	 xml:space="preserve">
<g>
	<circle fill="#010202" cx="595.126" cy="375.275" r="297.639"/>
	<polygon fill="#010202" points="742.784,1028.273 742.784,984.914 840.943,984.914 840.943,938.176 889.298,938.176 
		889.298,858.598 848.523,858.598 848.523,739.861 660.313,672.914 595.126,672.914 331.893,672.914 331.893,806.809 
		492.313,806.809 492.313,835.861 331.893,835.861 331.893,867.439 297.787,867.439 297.787,984.914 406.787,984.914 
		406.787,1028.273 297.787,1028.273 297.787,1112.914 474.787,1112.914 474.787,1060.914 660.786,1060.914 660.786,1112.914 
		806.788,1112.914 806.788,1060.914 893.064,1060.914 893.064,1028.273 	"/>
</g>
</svg>
