<?xml version="1.0" encoding="utf-8"?>
<!-- Generator: Adobe Illustrator 16.0.0, SVG Export Plug-In . SVG Version: 6.00 Build 0)  -->
<!DOCTYPE svg PUBLIC "-//W3C//DTD SVG 1.1//EN" "http://www.w3.org/Graphics/SVG/1.1/DTD/svg11.dtd">
<svg version="1.1" id="Calque_1" xmlns="http://www.w3.org/2000/svg" xmlns:xlink="http://www.w3.org/1999/xlink" x="0px" y="0px"
	 width="1190.551px" height="1190.551px" viewBox="0 0 1190.551 1190.551" enable-background="new 0 0 1190.551 1190.551"
	 xml:space="preserve">
<path fill="#010202" d="M986.619,43.36V0H650.62V43.36h-109v84.223C487.836,50.468,398.488,0,297.339,0
	C132.958,0-0.3,133.257-0.3,297.639s133.258,297.639,297.639,297.639c18.134,0,35.888-1.627,53.128-4.733l-66.93,188.16v328.42
	h133.895v-160.42h29.053v160.42h31.579v34.106h117.474V598.073h-46.735V549.72h-79.581v40.774H350.728
	c138.902-25.157,244.25-146.7,244.25-292.855c0-63.051-19.622-121.509-53.068-169.639h176.71V76h185.999v52h146.001V76h86.277V43.36
	H986.619z"/>
</svg>
