<?xml version="1.0" encoding="utf-8"?>
<!-- Generator: Adobe Illustrator 16.0.0, SVG Export Plug-In . SVG Version: 6.00 Build 0)  -->
<!DOCTYPE svg PUBLIC "-//W3C//DTD SVG 1.1//EN" "http://www.w3.org/Graphics/SVG/1.1/DTD/svg11.dtd">
<svg version="1.1" id="Calque_1" xmlns="http://www.w3.org/2000/svg" xmlns:xlink="http://www.w3.org/1999/xlink" x="0px" y="0px"
	 width="1190.551px" height="1190.551px" viewBox="0 0 1190.551 1190.551" enable-background="new 0 0 1190.551 1190.551"
	 xml:space="preserve">
<path fill="#010202" d="M548.802,598.073V549.72h-79.581v40.774H350.728c138.902-25.157,244.25-146.7,244.25-292.855
	C594.978,133.257,461.721,0,297.339,0C132.958,0-0.3,133.257-0.3,297.639c0,80.959,32.339,154.354,84.784,208.013H0v177h52v185.999
	H0v146.001h52v86.277h32.64V950.651H128V614.652H84.64V505.81c54.03,55.198,129.357,89.467,212.699,89.467
	c18.134,0,35.888-1.627,53.128-4.733l-66.93,188.16v328.42h133.895v-160.42h29.053v160.42h31.579v34.106h117.474V598.073H548.802z"
	/>
</svg>
