<?xml version="1.0" encoding="utf-8"?>
<!-- Generator: Adobe Illustrator 16.0.0, SVG Export Plug-In . SVG Version: 6.00 Build 0)  -->
<!DOCTYPE svg PUBLIC "-//W3C//DTD SVG 1.1//EN" "http://www.w3.org/Graphics/SVG/1.1/DTD/svg11.dtd">
<svg version="1.1" id="Calque_1" xmlns="http://www.w3.org/2000/svg" xmlns:xlink="http://www.w3.org/1999/xlink" x="0px" y="0px"
	 width="1190.551px" height="1190.551px" viewBox="0 0 1190.551 1190.551" enable-background="new 0 0 1190.551 1190.551"
	 xml:space="preserve">
<path fill="#010202" d="M538.313,551.352h-79.579v40.775H340.106c144.262-20.612,255.171-144.649,255.171-294.609
	c0-164.382-133.258-297.64-297.639-297.64C133.257-0.122,0,133.136,0,297.518C0,378.161,32.087,451.3,84.172,504.903H0v177.001h52
	v185.999H0v146.001h52v86.275h32.64V949.903H128V613.904H84.64V505.382c54.051,55.378,129.502,89.774,212.999,89.774
	c14.381,0,28.517-1.042,42.353-3.013L273.05,780.338v328.419h133.895V948.338h29.053v160.419h31.579v34.105H585.05V599.707h-46.737
	V551.352z"/>
</svg>
