<?xml version="1.0" encoding="utf-8"?>
<!-- Generator: Adobe Illustrator 16.0.0, SVG Export Plug-In . SVG Version: 6.00 Build 0)  -->
<!DOCTYPE svg PUBLIC "-//W3C//DTD SVG 1.1//EN" "http://www.w3.org/Graphics/SVG/1.1/DTD/svg11.dtd">
<svg version="1.1" id="Calque_1" xmlns="http://www.w3.org/2000/svg" xmlns:xlink="http://www.w3.org/1999/xlink" x="0px" y="0px"
	 width="1190.551px" height="1190.551px" viewBox="0 0 1190.551 1190.551" enable-background="new 0 0 1190.551 1190.551"
	 xml:space="preserve">
<g>
	<polygon fill="#010202" points="476.042,774.633 446.99,774.633 446.99,614.212 415.41,614.212 415.41,580.106 297.937,580.106 
		297.937,1123.262 344.673,1123.262 344.673,1171.617 424.254,1171.617 424.254,1130.842 542.99,1130.842 609.937,942.633 
		609.937,614.212 595.276,614.212 476.042,614.212 	"/>
	<path fill="#010202" d="M832.574,572.081H747.99c86.807-51.996,144.924-146.958,144.924-255.508
		c0-164.382-133.257-297.639-297.639-297.639c-164.381,0-297.639,133.257-297.639,297.639
		c0,164.382,133.258,297.639,297.639,297.639c55.81,0,108.022-15.375,152.659-42.099v176.969h52V935.08h-52v146h52v86.279h32.64
		V1017.08h43.36v-336h-43.36V572.081z"/>
</g>
</svg>
