<?xml version="1.0" encoding="utf-8"?>
<!-- Generator: Adobe Illustrator 16.0.0, SVG Export Plug-In . SVG Version: 6.00 Build 0)  -->
<!DOCTYPE svg PUBLIC "-//W3C//DTD SVG 1.1//EN" "http://www.w3.org/Graphics/SVG/1.1/DTD/svg11.dtd">
<svg version="1.1" id="Calque_1" xmlns="http://www.w3.org/2000/svg" xmlns:xlink="http://www.w3.org/1999/xlink" x="0px" y="0px"
	 width="1190.551px" height="1190.551px" viewBox="0 0 1190.551 1190.551" enable-background="new 0 0 1190.551 1190.551"
	 xml:space="preserve">
<path fill="#010202" d="M742.634,984.614H608.289c158.34-6.814,284.625-137.318,284.625-297.339
	c0-160.019-126.284-290.524-284.625-297.339H855.04V256.042H694.62v-29.053h160.42v-31.579h34.106V77.937H345.99v46.736h-48.354
	v79.581h40.773v118.735l188.211,66.948h55.641c-158.342,6.815-284.625,137.321-284.625,297.339
	c0,160.021,126.283,290.523,284.625,297.339H406.637v43.36h-109v84.64h177v-52h185.999v52h146.001v-52h86.275v-32.64H742.634
	V984.614z"/>
</svg>
