<?xml version="1.0" encoding="utf-8"?>
<!-- Generator: Adobe Illustrator 16.0.0, SVG Export Plug-In . SVG Version: 6.00 Build 0)  -->
<!DOCTYPE svg PUBLIC "-//W3C//DTD SVG 1.1//EN" "http://www.w3.org/Graphics/SVG/1.1/DTD/svg11.dtd">
<svg version="1.1" id="Calque_1" xmlns="http://www.w3.org/2000/svg" xmlns:xlink="http://www.w3.org/1999/xlink" x="0px" y="0px"
	 width="1190.551px" height="1190.551px" viewBox="0 0 1190.551 1190.551" enable-background="new 0 0 1190.551 1190.551"
	 xml:space="preserve">
<path fill="#010202" d="M759.704,620.037h32.578V469.76h43.36V133.761h-43.36v-109h-84.64v177h52V387.76h-52v146.001h52v86.235
	c-47.101-31.259-103.603-49.485-164.367-49.485c-17.896,0-35.425,1.583-52.452,4.61l66.813-187.834V58.867H475.742v160.42H446.69
	V58.867h-31.579V24.761H297.637v543.157h46.735v48.354h79.581v-40.775H540.83C402.452,601.078,297.637,722.367,297.637,868.15
	c0,164.382,133.257,297.64,297.639,297.64c164.381,0,297.639-133.258,297.639-297.64
	C892.914,764.561,839.984,673.347,759.704,620.037z"/>
</svg>
