<?xml version="1.0" encoding="utf-8"?>
<!-- Generator: Adobe Illustrator 16.0.0, SVG Export Plug-In . SVG Version: 6.00 Build 0)  -->
<!DOCTYPE svg PUBLIC "-//W3C//DTD SVG 1.1//EN" "http://www.w3.org/Graphics/SVG/1.1/DTD/svg11.dtd">
<svg version="1.1" id="Calque_1" xmlns="http://www.w3.org/2000/svg" xmlns:xlink="http://www.w3.org/1999/xlink" x="0px" y="0px"
	 width="1190.551px" height="1190.551px" viewBox="0 0 1190.551 1190.551" enable-background="new 0 0 1190.551 1190.551"
	 xml:space="preserve">
<g>
	<polygon fill="#010202" points="178.106,755.698 149.053,755.698 149.053,595.278 117.474,595.278 117.474,561.172 0,561.172 
		0,1104.328 46.737,1104.328 46.737,1152.683 126.318,1152.683 126.318,1111.907 245.053,1111.907 312,923.698 312,595.278 
		297.339,595.278 178.106,595.278 	"/>
	<path fill="#010202" d="M534.638,553.147h-84.584c86.807-51.996,144.924-146.958,144.924-255.508
		C594.978,133.257,461.721,0,297.339,0C132.958,0-0.3,133.257-0.3,297.639s133.258,297.639,297.639,297.639
		c55.81,0,108.023-15.375,152.66-42.099v176.968h52v185.999h-52v146.001h52v86.278h32.639V998.146h43.361V662.147h-43.361V553.147z"
		/>
</g>
</svg>
