<?xml version="1.0" encoding="utf-8"?>
<!-- Generator: Adobe Illustrator 16.0.0, SVG Export Plug-In . SVG Version: 6.00 Build 0)  -->
<!DOCTYPE svg PUBLIC "-//W3C//DTD SVG 1.1//EN" "http://www.w3.org/Graphics/SVG/1.1/DTD/svg11.dtd">
<svg version="1.1" id="Calque_1" xmlns="http://www.w3.org/2000/svg" xmlns:xlink="http://www.w3.org/1999/xlink" x="0px" y="0px"
	 width="1190.551px" height="1190.551px" viewBox="0 0 1190.551 1190.551" enable-background="new 0 0 1190.551 1190.551"
	 xml:space="preserve">
<path fill="#010202" d="M846.459,622.733V574.38h-79.582v40.774H648.385c138.902-25.157,244.25-146.7,244.25-292.855
	c0-164.382-133.258-297.639-297.639-297.639c-164.381,0-297.639,133.257-297.639,297.639c0,80.959,32.339,154.354,84.783,208.013
	h-84.483v177h52v185.999h-52v146.001h52v86.276h32.64V975.312h43.36V639.312h-43.36V530.47
	c54.03,55.198,129.357,89.467,212.699,89.467c18.133,0,35.887-1.627,53.127-4.733l-66.929,188.16v328.42h133.894v-160.42h29.053
	v160.42h31.58v34.106h117.473V622.733H846.459z"/>
</svg>
