<?xml version="1.0" encoding="utf-8"?>
<!-- Generator: Adobe Illustrator 16.0.0, SVG Export Plug-In . SVG Version: 6.00 Build 0)  -->
<!DOCTYPE svg PUBLIC "-//W3C//DTD SVG 1.1//EN" "http://www.w3.org/Graphics/SVG/1.1/DTD/svg11.dtd">
<svg version="1.1" id="Calque_1" xmlns="http://www.w3.org/2000/svg" xmlns:xlink="http://www.w3.org/1999/xlink" x="0px" y="0px"
	 width="1190.551px" height="1190.551px" viewBox="0 0 1190.551 1190.551" enable-background="new 0 0 1190.551 1190.551"
	 xml:space="preserve">
<path fill="#010202" d="M494.247,545.74h-32.619c80.525-53.268,133.649-144.624,133.649-248.401
	C595.278,132.957,462.02-0.3,297.639-0.3C133.257-0.3,0,132.957,0,297.339c0,160.028,126.297,290.538,284.65,297.34H178.106v160.419
	h-29.053V594.679h-31.579v-34.106H0v543.158h46.736v48.353h79.581v-40.775h118.735L312,923.098V594.679h-1.373
	c55.653-2.391,107.338-20.06,150.98-48.925v150.265h-43.36v335.999h43.36v109h84.64v-177h-52V778.019h52V632.018h-52V545.74z"/>
</svg>
