<?xml version="1.0" encoding="utf-8"?>
<!-- Generator: Adobe Illustrator 16.0.0, SVG Export Plug-In . SVG Version: 6.00 Build 0)  -->
<!DOCTYPE svg PUBLIC "-//W3C//DTD SVG 1.1//EN" "http://www.w3.org/Graphics/SVG/1.1/DTD/svg11.dtd">
<svg version="1.1" id="Calque_1" xmlns="http://www.w3.org/2000/svg" xmlns:xlink="http://www.w3.org/1999/xlink" x="0px" y="0px"
	 width="1190.551px" height="1190.551px" viewBox="0 0 1190.551 1190.551" enable-background="new 0 0 1190.551 1190.551"
	 xml:space="preserve">
<path fill="#010202" d="M1013.596,68.02V24.66h-336v43.36h-109v84.223C514.813,75.127,425.465,24.66,324.316,24.66
	c-164.381,0-297.639,133.257-297.639,297.639c0,164.382,133.258,297.639,297.639,297.639c18.134,0,35.888-1.627,53.128-4.732
	l-66.93,188.16v328.42h133.895v-160.42h29.053v160.42h31.579v34.105h117.473V622.732H575.78v-48.353h-79.581v40.775H377.705
	c138.902-25.158,244.25-146.701,244.25-292.856c0-63.051-19.623-121.509-53.069-169.639h176.709v-52h186v52h146v-52h86.277V68.02
	H1013.596z"/>
</svg>
