<?xml version="1.0" encoding="utf-8"?>
<!-- Generator: Adobe Illustrator 16.0.0, SVG Export Plug-In . SVG Version: 6.00 Build 0)  -->
<!DOCTYPE svg PUBLIC "-//W3C//DTD SVG 1.1//EN" "http://www.w3.org/Graphics/SVG/1.1/DTD/svg11.dtd">
<svg version="1.1" id="Calque_1" xmlns="http://www.w3.org/2000/svg" xmlns:xlink="http://www.w3.org/1999/xlink" x="0px" y="0px"
	 width="1190.551px" height="1190.551px" viewBox="0 0 1190.551 1190.551" enable-background="new 0 0 1190.551 1190.551"
	 xml:space="preserve">
<g>
	<circle fill="#010202" cx="297.339" cy="297.639" r="297.639"/>
	<polygon fill="#010202" points="444.998,950.638 444.998,907.278 543.156,907.278 543.156,860.54 591.511,860.54 591.511,780.961 
		550.736,780.961 550.736,662.225 362.526,595.278 297.339,595.278 34.106,595.278 34.106,729.173 194.526,729.173 194.526,758.225 
		34.106,758.225 34.106,789.804 0,789.804 0,907.278 109,907.278 109,950.638 0,950.638 0,1035.278 177,1035.278 177,983.278 
		362.999,983.278 362.999,1035.278 509.001,1035.278 509.001,983.278 595.277,983.278 595.277,950.638 	"/>
</g>
</svg>
