<?xml version="1.0" encoding="utf-8"?>
<!-- Generator: Adobe Illustrator 16.0.0, SVG Export Plug-In . SVG Version: 6.00 Build 0)  -->
<!DOCTYPE svg PUBLIC "-//W3C//DTD SVG 1.1//EN" "http://www.w3.org/Graphics/SVG/1.1/DTD/svg11.dtd">
<svg version="1.1" id="Calque_1" xmlns="http://www.w3.org/2000/svg" xmlns:xlink="http://www.w3.org/1999/xlink" x="0px" y="0px"
	 width="1190.551px" height="1190.551px" viewBox="0 0 1190.551 1190.551" enable-background="new 0 0 1190.551 1190.551"
	 xml:space="preserve">
<path fill="#010202" d="M1002.03,363.223v-48.354h-79.582v40.776H803.711l-66.93,188.158c0.172-4.157,0.281-8.33,0.281-12.528
	c0.002-164.382-133.256-297.639-297.637-297.639c-164.381,0-297.639,133.257-297.639,297.639
	c0,164.382,133.258,297.639,297.639,297.639c160.02,0,290.524-126.283,297.338-284.625v327.984h-149.68v-43.359H439.426H251.087
	v43.359h-109v84.641h177v-52h185.999v52h146v-52h86.275v-32.641h133.297V711.855h29.053v160.418h31.578v34.105h117.475V363.223
	H1002.03z"/>
</svg>
