<?xml version="1.0" encoding="utf-8"?>
<!-- Generator: Adobe Illustrator 16.0.0, SVG Export Plug-In . SVG Version: 6.00 Build 0)  -->
<!DOCTYPE svg PUBLIC "-//W3C//DTD SVG 1.1//EN" "http://www.w3.org/Graphics/SVG/1.1/DTD/svg11.dtd">
<svg version="1.1" id="Calque_1" xmlns="http://www.w3.org/2000/svg" xmlns:xlink="http://www.w3.org/1999/xlink" x="0px" y="0px"
	 width="1190.551px" height="1190.551px" viewBox="0 0 1190.551 1190.551" enable-background="new 0 0 1190.551 1190.551"
	 xml:space="preserve">
<path fill="#010202" d="M509.001,388h86.275V355.36H444.998V312h112.406V178.106h-160.42v-29.053h160.42v-31.579h34.106V0H48.354
	v46.736H0v79.581h40.774v118.735L228.985,312H109v43.359H0V440h177v-52h185.999v51.643c-21.126-4.757-43.097-7.283-65.66-7.283
	C132.958,432.361-0.3,565.618-0.3,729.999c0,164.382,133.258,297.639,297.639,297.639c164.382,0,297.639-133.257,297.639-297.639
	c0-141.238-98.377-259.499-230.347-289.999h144.37V388z"/>
</svg>
