<?xml version="1.0" encoding="utf-8"?>
<!-- Generator: Adobe Illustrator 16.0.0, SVG Export Plug-In . SVG Version: 6.00 Build 0)  -->
<!DOCTYPE svg PUBLIC "-//W3C//DTD SVG 1.1//EN" "http://www.w3.org/Graphics/SVG/1.1/DTD/svg11.dtd">
<svg version="1.1" id="Calque_1" xmlns="http://www.w3.org/2000/svg" xmlns:xlink="http://www.w3.org/1999/xlink" x="0px" y="0px"
	 width="1190.551px" height="1190.551px" viewBox="0 0 1190.551 1190.551" enable-background="new 0 0 1190.551 1190.551"
	 xml:space="preserve">
<path fill="#010202" d="M806.789,469.457h86.273v-32.64H742.785v-43.36h112.406V259.562h-160.42v-29.053h160.42v-31.579h34.105
	V81.457H346.141v46.736h-48.354v79.581h40.773v118.735l188.211,66.948H406.788v43.359h-109v84.641h177v-52h186V521.1
	c-21.127-4.757-43.098-7.283-65.661-7.283c-164.381,0.001-297.639,133.258-297.639,297.639
	c0,164.383,133.258,297.639,297.639,297.639c164.381,0,297.639-133.256,297.639-297.639c0-141.238-98.377-259.499-230.348-289.999
	h144.371V469.457L806.789,469.457z"/>
</svg>
