<?xml version="1.0" encoding="utf-8"?>
<!-- Generator: Adobe Illustrator 16.0.0, SVG Export Plug-In . SVG Version: 6.00 Build 0)  -->
<!DOCTYPE svg PUBLIC "-//W3C//DTD SVG 1.1//EN" "http://www.w3.org/Graphics/SVG/1.1/DTD/svg11.dtd">
<svg version="1.1" id="Calque_1" xmlns="http://www.w3.org/2000/svg" xmlns:xlink="http://www.w3.org/1999/xlink" x="0px" y="0px"
	 width="1190.551px" height="1190.551px" viewBox="0 0 1190.551 1190.551" enable-background="new 0 0 1190.551 1190.551"
	 xml:space="preserve">
<path fill="#010202" d="M462.068,595.277h32.578V444.999h43.36V109h-43.36V0h-84.64v177h52v185.999h-52V509h52v86.236
	c-47.1-31.26-103.602-49.486-164.367-49.486c-17.897,0-35.425,1.583-52.452,4.61L312,362.526V34.106H178.106v160.42h-29.053V34.106
	h-31.579V0H0v543.157h46.736v48.354h79.581v-40.775h116.877C104.816,576.317,0,697.606,0,843.39
	c0,164.381,133.257,297.639,297.639,297.639c164.381,0,297.639-133.258,297.639-297.639
	C595.278,739.8,542.347,648.586,462.068,595.277z"/>
</svg>
