<?xml version="1.0" encoding="utf-8"?>
<!-- Generator: Adobe Illustrator 16.0.0, SVG Export Plug-In . SVG Version: 6.00 Build 0)  -->
<!DOCTYPE svg PUBLIC "-//W3C//DTD SVG 1.1//EN" "http://www.w3.org/Graphics/SVG/1.1/DTD/svg11.dtd">
<svg version="1.1" id="Calque_1" xmlns="http://www.w3.org/2000/svg" xmlns:xlink="http://www.w3.org/1999/xlink" x="0px" y="0px"
	 width="1190.551px" height="1190.551px" viewBox="0 0 1190.551 1190.551" enable-background="new 0 0 1190.551 1190.551"
	 xml:space="preserve">
<path fill="#010202" d="M835.949,575.257h-79.578v40.775H637.742c144.262-20.612,255.172-144.649,255.172-294.609
	c0-164.382-133.258-297.64-297.639-297.64c-164.381,0-297.638,133.258-297.638,297.64c0,80.643,32.087,153.782,84.172,207.385
	h-84.172V705.81h52v185.999h-52v146.001h52v86.274h32.64V973.809h43.36V637.81h-43.36V529.287
	c54.051,55.378,129.502,89.774,212.999,89.774c14.38,0,28.517-1.042,42.353-3.013l-66.942,188.194v328.419h133.895V972.243h29.053
	v160.419h31.578v34.105h117.475V623.612h-46.738V575.257z"/>
</svg>
