<?xml version="1.0" encoding="utf-8"?>
<!-- Generator: Adobe Illustrator 16.0.0, SVG Export Plug-In . SVG Version: 6.00 Build 0)  -->
<!DOCTYPE svg PUBLIC "-//W3C//DTD SVG 1.1//EN" "http://www.w3.org/Graphics/SVG/1.1/DTD/svg11.dtd">
<svg version="1.1" id="Calque_1" xmlns="http://www.w3.org/2000/svg" xmlns:xlink="http://www.w3.org/1999/xlink" x="0px" y="0px"
	 width="1190.551px" height="1190.551px" viewBox="0 0 1190.551 1190.551" enable-background="new 0 0 1190.551 1190.551"
	 xml:space="preserve">
<path fill="#010202" d="M859.943,129.587V81.233h-79.582v40.776H661.625l-66.929,188.158c0.172-4.157,0.281-8.33,0.281-12.528
	C594.978,133.257,461.721,0,297.339,0C132.958,0-0.3,133.257-0.3,297.639s133.258,297.639,297.639,297.639
	c160.02,0,290.524-126.283,297.339-284.625v327.985h-149.68v-43.36H297.339H109v43.36H0v84.64h177v-52h185.999v52h146.002v-52
	h86.275v-32.64h133.296V478.219h29.053v160.419h31.579v34.105h117.474V129.587H859.943z"/>
</svg>
