<?xml version="1.0" encoding="utf-8"?>
<!-- Generator: Adobe Illustrator 16.0.0, SVG Export Plug-In . SVG Version: 6.00 Build 0)  -->
<!DOCTYPE svg PUBLIC "-//W3C//DTD SVG 1.1//EN" "http://www.w3.org/Graphics/SVG/1.1/DTD/svg11.dtd">
<svg version="1.1" id="Calque_1" xmlns="http://www.w3.org/2000/svg" xmlns:xlink="http://www.w3.org/1999/xlink" x="0px" y="0px"
	 width="1190.551px" height="1190.551px" viewBox="0 0 1190.551 1190.551" enable-background="new 0 0 1190.551 1190.551"
	 xml:space="preserve">
<path fill="#010202" d="M444.998,906.678H310.653c158.34-6.815,284.625-137.319,284.625-297.339
	c0-160.019-126.284-290.524-284.625-297.339h246.751V178.106h-160.42v-29.053h160.42v-31.579h34.106V0H48.354v46.736H0v79.581
	h40.774v118.735L228.985,312h55.64C126.283,318.815,0,449.321,0,609.339c0,160.02,126.283,290.523,284.625,297.339H109v43.36H0
	v84.64h177v-52h185.999v52h146.002v-52h86.275v-32.64H444.998V906.678z"/>
</svg>
