<?xml version="1.0" encoding="utf-8"?>
<!-- Generator: Adobe Illustrator 16.0.0, SVG Export Plug-In . SVG Version: 6.00 Build 0)  -->
<!DOCTYPE svg PUBLIC "-//W3C//DTD SVG 1.1//EN" "http://www.w3.org/Graphics/SVG/1.1/DTD/svg11.dtd">
<svg version="1.1" id="Calque_1" xmlns="http://www.w3.org/2000/svg" xmlns:xlink="http://www.w3.org/1999/xlink" x="0px" y="0px"
	 width="1190.551px" height="1190.551px" viewBox="0 0 1190.551 1190.551" enable-background="new 0 0 1190.551 1190.551"
	 xml:space="preserve">
<path fill="#010202" d="M932.854,543.029v52H746.855v-52H600.853v-32.877h-17.932v-40.347h17.932v-39.452h-17.932v-42.652h17.932
	v-39.449h-17.932v-39.451h17.932v-39.452h-17.932v-42.587h17.932v-39.454h-17.932v-36.985h17.932v-39.451h-17.932V78.596h17.932
	V39.142h-17.932V20.824h-43.038V1.099h-41.244v19.725h-34.071V1.099h-41.243v19.725h-32.279V1.099h-41.244v19.725h-35.639V1.099
	h-41.246v19.725h-34.886V1.099h-41.243v19.725h-28.164V1.099h-41.244v19.725H98.748v18.318h-17.93v39.454h17.93v32.274h-17.93
	v39.451h17.93v36.985h-17.93v39.454h17.93v42.587h-17.93v39.452h17.93v39.451h-17.93v39.449h17.93v42.652h-17.93v39.452h17.93
	v40.347h-17.93v39.451h17.93v23.536h28.631v21.519h41.244v-21.517h28.164v21.519h41.243v-21.519h34.886v21.519h41.246v-21.519
	h35.639v21.519h11.672C204.939,603.402,80.697,733.091,80.697,891.812c0,164.382,133.259,297.641,297.641,297.641
	s297.64-133.259,297.64-297.641c0-114.867-65.078-214.521-160.367-264.144h149.246v43.359h335.999v-43.359h109v-84.641H932.854
	V543.029z M600.853,595.029h-86.273v32.097c-37.283-19.229-79.152-30.8-123.534-32.666v-21.322h32.279v21.519h41.243v-21.519h34.071
	v21.519h41.244v-21.519h43.038v-23.536h17.932V595.029z"/>
</svg>
