<?xml version="1.0" encoding="utf-8"?>
<!-- Generator: Adobe Illustrator 16.0.0, SVG Export Plug-In . SVG Version: 6.00 Build 0)  -->
<!DOCTYPE svg PUBLIC "-//W3C//DTD SVG 1.1//EN" "http://www.w3.org/Graphics/SVG/1.1/DTD/svg11.dtd">
<svg version="1.1" id="Calque_1" xmlns="http://www.w3.org/2000/svg" xmlns:xlink="http://www.w3.org/1999/xlink" x="0px" y="0px"
	 width="1190.551px" height="1190.551px" viewBox="0 0 1190.551 1190.551" enable-background="new 0 0 1190.551 1190.551"
	 xml:space="preserve">
<path fill="#010202" d="M852.036,541.93v52H666.037v-52H520.035v-32.877h-17.932v-40.347h17.932v-39.452h-17.932v-42.652h17.932
	v-39.449h-17.932v-39.451h17.932v-39.452h-17.932v-42.587h17.932v-39.454h-17.932v-36.985h17.932v-39.451h-17.932V77.497h17.932
	V38.043h-17.932V19.725h-43.038V0h-41.244v19.725h-34.072V0h-41.243v19.725h-32.279V0h-41.244v19.725h-35.639V0h-41.246v19.725
	h-34.886V0h-41.243v19.725H87.805V0H46.561v19.725H17.93v18.318H0v39.454h17.93v32.274H0v39.451h17.93v36.985H0v39.454h17.93v42.587
	H0v39.452h17.93v39.451H0v39.449h17.93v42.652H0v39.452h17.93v40.347H0v39.451h17.93v23.536h28.631v21.519h41.244V572.04h28.164
	v21.519h41.243V572.04h34.886v21.519h41.246V572.04h35.639v21.519h11.672C124.12,602.304-0.122,731.992-0.122,890.713
	c0,164.382,133.259,297.641,297.641,297.641s297.64-133.259,297.64-297.641c0-114.867-65.078-214.521-160.368-264.144h149.247v43.36
	h335.999v-43.36h109v-84.64H852.036z M520.035,593.93h-86.274v32.097c-37.283-19.229-79.152-30.8-123.534-32.665V572.04h32.279
	v21.519h41.243V572.04h34.072v21.519h41.244V572.04h43.038v-23.536h17.932V593.93z"/>
</svg>
