<?xml version="1.0" encoding="utf-8"?>
<!-- Generator: Adobe Illustrator 16.0.0, SVG Export Plug-In . SVG Version: 6.00 Build 0)  -->
<!DOCTYPE svg PUBLIC "-//W3C//DTD SVG 1.1//EN" "http://www.w3.org/Graphics/SVG/1.1/DTD/svg11.dtd">
<svg version="1.1" id="Calque_1" xmlns="http://www.w3.org/2000/svg" xmlns:xlink="http://www.w3.org/1999/xlink" x="0px" y="0px"
	 width="1190.551px" height="1190.551px" viewBox="0 0 1190.551 1190.551" enable-background="new 0 0 1190.551 1190.551"
	 xml:space="preserve">
<path fill="#010202" d="M651.154,533.824v-109h-84.499c18.346-38.645,28.625-81.862,28.625-127.484
	C595.28,132.958,462.022-0.3,297.64-0.3S0,132.958,0,297.34c0,157.562,122.437,286.509,277.355,296.938h-38.781v19.725h-34.886
	v-19.725h-41.243v19.725h-28.163v-19.725H93.037v19.725h-28.63v18.318H46.477v39.454h17.931v32.274H46.477v39.451h17.931v36.985
	H46.477v39.454h17.931v42.587H46.477v39.453h17.931v39.452H46.477v39.447h17.931v42.652H46.477v39.452h17.931v40.347H46.477v39.451
	h17.931v23.536h28.63v21.519h41.245v-21.519h28.163v21.519h41.243v-21.519h34.886v21.519h41.246v-21.519h35.639v21.519h41.244
	v-21.519h32.279v21.519h41.242v-21.519h34.073v21.519h41.244v-21.519h43.038v-23.536h17.932v-39.451H548.58v-40.347h17.932v-39.452
	H548.58V980.88h17.932v-39.447H548.58v-39.452h17.932v31.845h52v86.277h32.642V869.823h43.358V533.824H651.154z M279.821,614.003
	v-19.568c5.897,0.348,11.835,0.546,17.819,0.546s11.922-0.198,17.819-0.546v19.568H279.821z M566.512,862.528H548.58v-42.587h17.932
	V862.528z M618.512,787.823h-52v-7.337H548.58v-36.985h17.932V704.05H548.58v-32.274h17.932v-39.454H548.58v-18.318h-43.038v-19.725
	h-41.244v19.725h-34.073v-19.725h-41.242v19.725h-32.279v-19.725h-38.779c109.943-7.402,203.518-74.491,248.587-169.147v176.693h52
	V787.823z"/>
</svg>
