<?xml version="1.0" encoding="utf-8"?>
<!-- Generator: Adobe Illustrator 16.0.0, SVG Export Plug-In . SVG Version: 6.00 Build 0)  -->
<!DOCTYPE svg PUBLIC "-//W3C//DTD SVG 1.1//EN" "http://www.w3.org/Graphics/SVG/1.1/DTD/svg11.dtd">
<svg version="1.1" id="Calque_1" xmlns="http://www.w3.org/2000/svg" xmlns:xlink="http://www.w3.org/1999/xlink" x="0px" y="0px"
	 width="1190.551px" height="1190.551px" viewBox="0 0 1190.551 1190.551" enable-background="new 0 0 1190.551 1190.551"
	 xml:space="preserve">
<path fill="#010202" d="M676.803,570.459V424.457h-52v-86.275h-32.325c1.833-13.354,2.802-26.984,2.802-40.842
	C595.28,132.958,462.022-0.3,297.64-0.3S0,132.958,0,297.34c0,157.562,122.437,286.509,277.355,296.938h-38.779v21.519h-32.279
	v-21.519h-41.242v21.519h-34.073v-21.519H89.738v21.519H46.699v23.536H28.768v39.451h17.932v40.347H28.768v39.452h17.932v42.652
	H28.768v39.45h17.932v39.45H28.768v39.452h17.932v42.587H28.768v39.454h17.932v36.985H28.768v39.452h17.932v32.273H28.768v39.454
	h17.932v18.318h43.038v19.725h41.244v-19.725h34.073v19.725h41.242v-19.725h32.279v19.725h41.244v-19.725h35.639v19.725h41.246
	v-19.725h34.886v19.725h41.243v-19.725h28.164v19.725h41.244v-19.725h28.631v-18.318h17.93v-39.454h-17.93v-32.273h17.93v-39.452
	h-17.93v-36.985h17.93v-39.454h-17.93v-42.587h17.93v-39.452h-17.93v-39.45h17.93v-16.228h43.36v109h84.64v-177h-52V570.459H676.803
	z M279.821,615.797v-21.362c5.897,0.348,11.835,0.546,17.819,0.546s11.922-0.198,17.819-0.546v21.362H279.821z M548.803,801.236
	h-17.93v-42.652h17.93V801.236z M548.803,719.131h-17.93v-40.347h17.93V719.131z M548.803,488.459v150.874h-17.93v-23.536h-28.631
	v-21.519h-41.244v21.519h-28.164v-21.519h-41.243v21.519h-34.886v-21.519h-38.781c140.528-9.461,254.311-116.446,274.239-253.85
	v148.03H548.803z"/>
</svg>
