<?xml version="1.0" encoding="utf-8"?>
<!-- Generator: Adobe Illustrator 16.0.0, SVG Export Plug-In . SVG Version: 6.00 Build 0)  -->
<!DOCTYPE svg PUBLIC "-//W3C//DTD SVG 1.1//EN" "http://www.w3.org/Graphics/SVG/1.1/DTD/svg11.dtd">
<svg version="1.1" id="Calque_1" xmlns="http://www.w3.org/2000/svg" xmlns:xlink="http://www.w3.org/1999/xlink" x="0px" y="0px"
	 width="1190.551px" height="1190.551px" viewBox="0 0 1190.551 1190.551" enable-background="new 0 0 1190.551 1190.551"
	 xml:space="preserve">
<path fill="#010202" d="M919.535,396.148V250.146h-52v-86.275h-32.641v150.277h-43.359v33.922h-17.932v-39.451h17.932v-39.452
	h-17.932V226.58h17.932v-39.454h-17.932v-36.985h17.932V110.69h-17.932V78.414h17.932V38.96h-17.932V20.642h-43.039V0.917h-41.244
	v19.725h-34.07V0.917h-41.244v19.725h-32.279V0.917h-41.244v19.725h-35.639V0.917h-41.246v19.725h-34.886V0.917h-41.243v19.725
	h-28.164V0.917h-41.244v19.725H289.43V38.96h-17.93v39.454h17.93v32.274h-17.93v39.451h17.93v36.985h-17.93v39.454h17.93v42.587
	h-17.93v39.452h17.93v39.451h-17.93v39.449h17.93v42.652h-17.93v39.452h17.93v40.347h-17.93v39.451h17.93v23.536h28.631v21.519
	h41.244v-21.517h28.164v21.519h41.243v-21.519h34.886v21.519h41.246v-21.519h35.639v21.519h19.861
	c-160.538,4.402-289.329,135.916-289.329,297.518c0,164.382,133.258,297.64,297.64,297.64c164.382,0,297.64-133.258,297.64-297.64
	c0-47.747-11.262-92.856-31.244-132.849h84.484V582.147h-52V396.148H919.535z M773.604,387.519h17.932v42.652h-17.932V387.519z
	 M773.604,469.623h17.932v40.347h-17.932V469.623z M576.966,594.476h4.762v-21.519h32.279v21.519h41.244v-21.519h34.07v21.519
	h41.244v-21.519h43.039v-23.536h17.932v100.725h43.359v108.688C787.19,663.637,689.948,597.573,576.966,594.476z"/>
</svg>
