<?xml version="1.0" encoding="utf-8"?>
<!-- Generator: Adobe Illustrator 16.0.0, SVG Export Plug-In . SVG Version: 6.00 Build 0)  -->
<!DOCTYPE svg PUBLIC "-//W3C//DTD SVG 1.1//EN" "http://www.w3.org/Graphics/SVG/1.1/DTD/svg11.dtd">
<svg version="1.1" id="Calque_1" xmlns="http://www.w3.org/2000/svg" xmlns:xlink="http://www.w3.org/1999/xlink" x="0px" y="0px"
	 width="1190.551px" height="1190.551px" viewBox="0 0 1190.551 1190.551" enable-background="new 0 0 1190.551 1190.551"
	 xml:space="preserve">
<g>
	<polygon fill="#010202" points="545.368,539.289 584.819,539.289 584.819,557.219 624.268,557.219 624.268,539.289 
		666.922,539.289 666.922,557.219 706.371,557.219 706.371,539.289 746.719,539.289 746.719,557.219 786.172,557.219 
		786.172,539.289 809.705,539.289 809.705,510.658 831.225,510.658 831.225,469.414 809.705,469.414 809.705,441.25 831.225,441.25 
		831.225,400.006 809.705,400.006 809.705,365.121 831.225,365.121 831.225,323.875 809.705,323.875 809.705,288.235 
		831.225,288.235 831.225,246.992 809.705,246.992 809.705,214.713 831.225,214.713 831.225,173.47 809.705,173.47 809.705,139.396 
		831.225,139.396 831.225,98.152 809.705,98.152 809.705,55.115 786.172,55.115 786.172,37.183 746.719,37.183 746.719,55.115 
		706.371,55.115 706.371,37.183 666.922,37.183 666.922,55.115 624.268,55.115 624.268,37.183 584.819,37.183 584.819,55.115 
		545.368,55.115 545.368,37.183 505.916,37.183 505.916,55.115 463.329,55.115 463.329,37.183 423.875,37.183 423.875,55.115 
		386.889,55.115 386.889,37.183 347.438,37.183 347.438,55.115 315.164,55.115 315.164,37.183 275.71,37.183 275.71,55.115 
		257.391,55.115 257.391,98.152 237.667,98.152 237.667,139.396 257.391,139.396 257.391,173.47 237.667,173.47 237.667,214.713 
		257.391,214.713 257.391,246.992 237.667,246.992 237.667,288.235 257.391,288.235 257.391,323.875 237.667,323.875 
		237.667,365.121 257.391,365.121 257.391,400.006 237.667,400.006 237.667,441.25 257.391,441.25 257.391,469.414 237.667,469.414 
		237.667,510.658 257.391,510.658 257.391,539.289 275.71,539.289 275.71,557.219 315.164,557.219 315.164,539.289 347.438,539.289 
		347.438,557.219 386.889,557.219 386.889,539.289 423.875,539.289 423.875,557.219 463.329,557.219 463.329,539.289 
		505.916,539.289 505.916,557.219 535.007,557.219 545.368,557.219 	"/>
	<path fill="#010202" d="M909.823,667.09V558.091h-84.639V735.09h52v185.999h-51.945c4.84-21.301,7.406-43.465,7.406-66.23
		c0-164.382-133.258-297.64-297.639-297.64c-164.382,0-297.639,133.258-297.639,297.64s133.258,297.641,297.64,297.641
		c141.525,0,259.974-98.78,290.177-231.155v145.748h52v86.276h32.641v-150.279h43.359V667.09H909.823z"/>
</g>
</svg>
