<?xml version="1.0" encoding="utf-8"?>
<!-- Generator: Adobe Illustrator 16.0.0, SVG Export Plug-In . SVG Version: 6.00 Build 0)  -->
<!DOCTYPE svg PUBLIC "-//W3C//DTD SVG 1.1//EN" "http://www.w3.org/Graphics/SVG/1.1/DTD/svg11.dtd">
<svg version="1.1" id="Calque_1" xmlns="http://www.w3.org/2000/svg" xmlns:xlink="http://www.w3.org/1999/xlink" x="0px" y="0px"
	 width="1190.551px" height="1190.551px" viewBox="0 0 1190.551 1190.551" enable-background="new 0 0 1190.551 1190.551"
	 xml:space="preserve">
<path fill="#010202" d="M721.559,537.862V391.86h-52v-86.276H636.92v150.278h-43.361v-38.04h-19.724v-34.072h19.724v-41.243h-19.724
	v-32.279h19.724v-41.244h-19.724v-35.639h19.724v-41.246h-19.724v-34.886h19.724v-41.243h-19.724V87.805h19.724V46.561h-19.724
	V17.93h-18.319V0h-39.454v17.93h-32.275V0h-39.449v17.93h-36.986V0h-39.454v17.93H325.31V0h-39.452v17.93h-39.452V0h-39.448v17.93
	h-42.652V0h-39.452v17.93H84.506V0H45.055v17.93H21.519v28.631H0v41.244h21.519v28.164H0v41.243h21.519v34.886H0v41.246h21.519
	v35.639H0v41.244h21.519v32.279H0v41.243h21.519v34.072H0v41.244h21.519v43.038h23.536v17.933h39.451v-17.933h40.347v17.933h39.452
	v-17.933h42.652v17.933h39.448v-17.933h39.452v17.933h11.482h27.97v-17.933h42.587v17.933h39.454v-17.933h36.986v17.933h39.449
	v-17.933h32.275v17.933h39.454v-17.933h18.319v-43.038h19.724v329.482c-14.64-150.71-141.666-268.512-296.219-268.512
	c-164.382,0-297.64,133.258-297.64,297.64s133.258,297.64,297.64,297.64s297.64-133.258,297.64-297.64
	c0-8.699-0.396-17.306-1.127-25.815h43.067v109h84.639v-177h-52V537.862H721.559z"/>
</svg>
