<?xml version="1.0" encoding="utf-8"?>
<!-- Generator: Adobe Illustrator 16.0.0, SVG Export Plug-In . SVG Version: 6.00 Build 0)  -->
<!DOCTYPE svg PUBLIC "-//W3C//DTD SVG 1.1//EN" "http://www.w3.org/Graphics/SVG/1.1/DTD/svg11.dtd">
<svg version="1.1" id="Calque_1" xmlns="http://www.w3.org/2000/svg" xmlns:xlink="http://www.w3.org/1999/xlink" x="0px" y="0px"
	 width="1190.551px" height="1190.551px" viewBox="0 0 1190.551 1190.551" enable-background="new 0 0 1190.551 1190.551"
	 xml:space="preserve">
<path fill="#010202" d="M905.803,1062.551v52H719.804v-52H574.156c77.841-53.686,128.871-143.464,128.871-245.175
	c0-160.02-126.284-290.525-284.625-297.34h14.656v-17.933h42.587v17.933h39.454v-17.933h36.986v17.933h39.448v-17.933h32.275v17.933
	h39.454v-17.933h18.319v-43.038h19.724v-41.244h-19.724v-34.072h19.724v-41.243h-19.724v-32.279h19.724v-41.244h-19.724v-35.639
	h19.724v-41.246h-19.724v-34.886h19.724v-41.243h-19.724V87.805h19.724V46.561h-19.724V17.93h-18.319V0h-39.454v17.93h-32.275V0
	h-39.448v17.93h-36.986V0h-39.454v17.93h-42.587V0h-39.452v17.93h-39.452V0h-39.447v17.93h-42.652V0h-39.452v17.93h-40.348V0
	h-39.451v17.93h-23.536v28.631h-21.519v41.244h21.519v28.164h-21.519v41.243h21.519v34.886h-21.519v41.246h21.519v35.639h-21.519
	v41.244h21.519v32.279h-21.519v41.243h21.519v34.072h-21.519v41.244h21.519v43.038h23.536v17.933h39.451v-17.933h40.347v17.933
	h39.452v-17.933h42.652v17.933h39.447v-17.933h39.452v17.886c-158.917,6.19-285.856,136.955-285.856,297.387
	c0,164.382,133.258,297.64,297.64,297.64c62.516,0,120.52-19.289,168.414-52.219v51.754h-86.277v32.64h150.279v43.36h335.999v-43.36
	h109v-84.64H905.803z"/>
</svg>
