<?xml version="1.0" encoding="utf-8"?>
<!-- Generator: Adobe Illustrator 16.0.0, SVG Export Plug-In . SVG Version: 6.00 Build 0)  -->
<!DOCTYPE svg PUBLIC "-//W3C//DTD SVG 1.1//EN" "http://www.w3.org/Graphics/SVG/1.1/DTD/svg11.dtd">
<svg version="1.1" id="Calque_1" xmlns="http://www.w3.org/2000/svg" xmlns:xlink="http://www.w3.org/1999/xlink" x="0px" y="0px"
	 width="1190.551px" height="1190.551px" viewBox="0 0 1190.551 1190.551" enable-background="new 0 0 1190.551 1190.551"
	 xml:space="preserve">
<path fill="#010202" d="M899.173,535.332v-109h-84.499c18.346-38.646,28.625-81.862,28.625-127.484
	c0-164.382-133.258-297.64-297.64-297.64s-297.64,133.258-297.64,297.64c0,157.562,122.437,286.509,277.354,296.938h-38.78v19.726
	h-34.887v-19.726h-41.243v19.726h-28.162v-19.726h-41.245v19.726h-28.63v18.318h-17.931v39.454h17.932v32.273h-17.932v39.451h17.932
	v36.984h-17.932v39.454h17.932v42.587h-17.932v39.453h17.932v39.452h-17.932v39.447h17.932v42.652h-17.932v39.451h17.932v40.348
	h-17.932v39.451h17.932v23.536h28.63v21.519h41.245v-21.519h28.162v21.519h41.243v-21.519h34.887v21.519h41.245v-21.519h35.64
	v21.519h41.244v-21.519h32.278v21.519h41.242v-21.519h34.073v21.519h41.243v-21.519h43.038v-23.536h17.933v-39.451h-17.933v-40.348
	h17.933v-39.452h-17.933v-42.649h17.933V942.94h-17.933v-39.452h17.933v31.846h52v86.276h32.642V871.331h43.358V535.332H899.173z
	 M527.84,615.511v-19.567c5.897,0.348,11.835,0.545,17.819,0.545s11.922-0.197,17.819-0.545v19.567H527.84z M814.531,864.036
	h-17.933v-42.587h17.933V864.036z M866.531,789.331h-52v-7.337h-17.933v-36.985h17.933v-39.451h-17.933v-32.273h17.933V633.83
	h-17.933v-18.318h-43.037v-19.725h-41.244v19.725h-34.073v-19.725h-41.242v19.725h-32.278v-19.725h-38.779
	c109.942-7.402,203.518-74.491,248.587-169.147v176.693h52V789.331L866.531,789.331z"/>
</svg>
