<?xml version="1.0" encoding="utf-8"?>
<!-- Generator: Adobe Illustrator 16.0.0, SVG Export Plug-In . SVG Version: 6.00 Build 0)  -->
<!DOCTYPE svg PUBLIC "-//W3C//DTD SVG 1.1//EN" "http://www.w3.org/Graphics/SVG/1.1/DTD/svg11.dtd">
<svg version="1.1" id="Calque_1" xmlns="http://www.w3.org/2000/svg" xmlns:xlink="http://www.w3.org/1999/xlink" x="0px" y="0px"
	 width="1190.551px" height="1190.551px" viewBox="0 0 1190.551 1190.551" enable-background="new 0 0 1190.551 1190.551"
	 xml:space="preserve">
<path fill="#010202" d="M850.191,510.397v52.001H664.192v-52.001H518.19v52.001h-85.157
	c96.051-49.372,161.761-149.45,161.761-264.879c0-164.382-133.258-297.641-297.64-297.641S-0.485,133.137-0.485,297.519
	c0,161.602,128.791,293.117,289.329,297.519h-20.595v17.932h-42.587v-17.932h-39.454v17.932h-36.985v-17.932h-39.451v17.932H77.497
	v-17.932H38.043v17.932H19.725v43.038H0v41.244h19.725v34.072H0v41.243h19.725v32.279H0v41.244h19.725v35.639H0v41.246h19.725
	v34.886H0v41.243h19.725v28.164H0v41.244h19.725v28.631h18.318v17.931h39.454v-17.931h32.274v17.931h39.451v-17.931h36.985v17.931
	h39.454v-17.931h42.587v17.931h39.452v-17.931h39.451v17.931h39.449v-17.931h42.653v17.931h39.45v-17.931h40.348v17.931h39.452
	v-17.931h23.534v-28.631h21.52v-41.244h-21.52v-28.164h21.52v-41.243h-21.52v-34.886h21.52v-41.246h-21.52V846.09h21.52v-41.244
	h-21.52v-32.279h21.52v-41.243h-21.52v-34.072h21.52v-41.244h-21.52v-43.038h-23.534v-17.932h33.687v43.359h335.999v-43.359h109
	v-84.641H850.191z M429.255,595.037v17.932h-42.653v-17.932h-39.449v17.932h-39.451v-17.932h-2.236
	c45.425-1.246,88.305-12.669,126.447-32.071v32.071H429.255z M509.053,612.969h-40.348v-17.932h40.348V612.969z"/>
</svg>
