<?xml version="1.0" encoding="utf-8"?>
<!-- Generator: Adobe Illustrator 16.0.0, SVG Export Plug-In . SVG Version: 6.00 Build 0)  -->
<!DOCTYPE svg PUBLIC "-//W3C//DTD SVG 1.1//EN" "http://www.w3.org/Graphics/SVG/1.1/DTD/svg11.dtd">
<svg version="1.1" id="Calque_1" xmlns="http://www.w3.org/2000/svg" xmlns:xlink="http://www.w3.org/1999/xlink" x="0px" y="0px"
	 width="1190.551px" height="1190.551px" viewBox="0 0 1190.551 1190.551" enable-background="new 0 0 1190.551 1190.551"
	 xml:space="preserve">
<path fill="#010202" d="M875.934,291.066v-109h-84.641v25.896h-17.93v-42.652h17.93v-39.452h-17.93V85.512h17.93V46.061h-17.93
	V22.524h-28.631V1.005h-41.244v21.519h-28.164V1.005h-41.242v21.519h-34.887V1.005h-41.247v21.519H522.31V1.005h-41.244v21.519
	h-32.278V1.005h-41.241v21.519h-34.073V1.005h-41.245v21.519H289.19v23.536h-17.932v39.452h17.932v40.346h-17.932v39.452h17.932
	v42.652h-17.932v39.449h17.932v39.451h-17.932v39.452h17.932v42.587h-17.932v39.454h17.932v36.985h-17.932v39.451h17.932v32.274
	h-17.932v39.454h17.932v18.318h43.038v19.725h41.244v-19.725h34.073v19.725h41.241v-19.725h32.279v19.725h41.244v-19.725h35.639
	v19.646c-159.306,5.765-286.69,136.706-286.69,297.421c0,164.383,133.258,297.641,297.64,297.641
	c164.381,0,297.639-133.258,297.639-297.641c0-40.602-8.141-79.297-22.861-114.562h32.258V627.064h43.359V291.066H875.934z
	 M773.364,247.412h17.93v39.451h-17.93V247.412L773.364,247.412z M773.364,484.792h17.93v-39.451h-17.93v-36.985h17.93v-39.454
	h-17.93v-42.587h17.93v32.751h52v185.999h-52v-27.998h-17.93V484.792L773.364,484.792z M581.912,594.564h17.284v-19.725h34.887
	v19.725h41.242v-19.725h28.164v19.725h41.244v-19.725h28.631v-18.318h17.93v134.547h52v85.338
	C799.787,673.172,699.725,599.635,581.912,594.564z"/>
</svg>
