<?xml version="1.0" encoding="utf-8"?>
<!-- Generator: Adobe Illustrator 16.0.0, SVG Export Plug-In . SVG Version: 6.00 Build 0)  -->
<!DOCTYPE svg PUBLIC "-//W3C//DTD SVG 1.1//EN" "http://www.w3.org/Graphics/SVG/1.1/DTD/svg11.dtd">
<svg version="1.1" id="Calque_1" xmlns="http://www.w3.org/2000/svg" xmlns:xlink="http://www.w3.org/1999/xlink" x="0px" y="0px"
	 width="1190.551px" height="1190.551px" viewBox="0 0 1190.551 1190.551" enable-background="new 0 0 1190.551 1190.551"
	 xml:space="preserve">
<path fill="#010202" d="M648.035,395.231V249.229h-52v-86.275h-32.64v150.277h-43.36v33.922h-17.932v-39.451h17.932v-39.452h-17.932
	v-42.587h17.932v-39.454h-17.932v-36.985h17.932v-39.451h-17.932V77.497h17.932V38.043h-17.932V19.725h-43.038V0h-41.244v19.725
	h-34.072V0h-41.243v19.725h-32.279V0h-41.244v19.725h-35.639V0h-41.246v19.725h-34.886V0h-41.243v19.725H87.805V0H46.561v19.725
	H17.93v18.318H0v39.454h17.93v32.274H0v39.451h17.93v36.985H0v39.454h17.93v42.587H0v39.452h17.93v39.451H0v39.449h17.93v42.652H0
	v39.452h17.93v40.347H0v39.451h17.93v23.536h28.631v21.519h41.244V572.04h28.164v21.519h41.243V572.04h34.886v21.519h41.246V572.04
	h35.639v21.519h19.861C128.306,597.961-0.485,729.475-0.485,891.077c0,164.382,133.258,297.64,297.64,297.64
	s297.64-133.258,297.64-297.64c0-47.747-11.261-92.856-31.244-132.849h84.485V581.23h-52V395.231H648.035z M502.104,386.602h17.932
	v42.652h-17.932V386.602z M502.104,468.706h17.932v40.347h-17.932V468.706z M305.465,593.559h4.762V572.04h32.279v21.519h41.243
	V572.04h34.072v21.519h41.244V572.04h43.038v-23.536h17.932v100.725h43.36v108.688C515.69,662.72,418.448,596.656,305.465,593.559z"
	/>
</svg>
