<?xml version="1.0" encoding="utf-8"?>
<!-- Generator: Adobe Illustrator 16.0.0, SVG Export Plug-In . SVG Version: 6.00 Build 0)  -->
<!DOCTYPE svg PUBLIC "-//W3C//DTD SVG 1.1//EN" "http://www.w3.org/Graphics/SVG/1.1/DTD/svg11.dtd">
<svg version="1.1" id="Calque_1" xmlns="http://www.w3.org/2000/svg" xmlns:xlink="http://www.w3.org/1999/xlink" x="0px" y="0px"
	 width="1190.551px" height="1190.551px" viewBox="0 0 1190.551 1190.551" enable-background="new 0 0 1190.551 1190.551"
	 xml:space="preserve">
<path fill="#010202" d="M604.676,290.061v-109h-84.641v25.896h-17.93v-42.652h17.93v-39.452h-17.93V84.507h17.93V45.055h-17.93
	V21.519h-28.631V0h-41.244v21.519h-28.164V0h-41.243v21.519h-34.886V0h-41.246v21.519h-35.639V0h-41.244v21.519H177.53V0h-41.242
	v21.519h-34.073V0H60.97v21.519H17.932v23.536H0v39.452h17.932v40.346H0v39.452h17.932v42.652H0v39.449h17.932v39.451H0v39.452
	h17.932v42.587H0v39.454h17.932v36.985H0v39.451h17.932v32.274H0v39.454h17.932v18.318H60.97v19.725h41.244v-19.725h34.073v19.725
	h41.242v-19.725h32.279v19.725h41.244v-19.725h35.639v19.646C127.385,599.243,0,730.184,0,890.899
	c0,164.383,133.258,297.641,297.64,297.641s297.64-133.258,297.64-297.641c0-40.601-8.142-79.297-22.862-114.562h32.258V626.06
	h43.359V290.061H604.676z M502.106,246.406h17.93v39.451h-17.93V246.406z M502.106,483.787h17.93v-39.451h-17.93v-36.985h17.93
	v-39.454h-17.93V325.31h17.93v32.751h52V544.06h-52v-27.998h-17.93V483.787z M310.654,593.559h17.284v-19.725h34.886v19.725h41.243
	v-19.725h28.164v19.725h41.244v-19.725h28.631v-18.318h17.93v134.546h52v85.339C528.53,672.167,428.466,598.629,310.654,593.559z"/>
</svg>
