<?xml version="1.0" encoding="utf-8"?>
<!-- Generator: Adobe Illustrator 16.0.0, SVG Export Plug-In . SVG Version: 6.00 Build 0)  -->
<!DOCTYPE svg PUBLIC "-//W3C//DTD SVG 1.1//EN" "http://www.w3.org/Graphics/SVG/1.1/DTD/svg11.dtd">
<svg version="1.1" id="Calque_1" xmlns="http://www.w3.org/2000/svg" xmlns:xlink="http://www.w3.org/1999/xlink" x="0px" y="0px"
	 width="1190.551px" height="1190.551px" viewBox="0 0 1190.551 1190.551" enable-background="new 0 0 1190.551 1190.551"
	 xml:space="preserve">
<path fill="#010202" d="M932.115,548.196v52.001H746.115v-52.001H600.114v52.001h-85.157
	c96.052-49.372,161.762-149.45,161.762-264.879c0-164.382-133.259-297.641-297.641-297.641S81.439,170.936,81.439,335.318
	c0,161.602,128.791,293.117,289.329,297.52h-20.595v17.932h-42.587v-17.932h-39.454v17.932h-36.985v-17.932h-39.451v17.932h-32.274
	v-17.932h-39.454v17.932h-18.318v43.037H81.924v41.244h19.725v34.072H81.924v41.244h19.725v32.277H81.924v41.244h19.725v35.641
	H81.924v41.244h19.725v34.887H81.924v41.242h19.725v28.164H81.924v41.244h19.725v28.631h18.318v17.932h39.454v-17.932h32.273v17.932
	h39.451v-17.932h36.985v17.932h39.454v-17.932h42.587v17.932h39.452v-17.932h39.45v17.932h39.449v-17.932h42.653v17.932h39.449
	v-17.932h40.349v17.932h39.452v-17.932h23.533v-28.631h21.521v-41.244H653.96v-28.164h21.521V995.66H653.96v-34.887h21.521v-41.246
	H653.96v-35.639h21.521v-41.244H653.96v-32.277h21.521v-41.244H653.96v-34.072h21.521v-41.244H653.96V650.77h-23.533v-17.932h33.687
	v43.357h335.999v-43.357h109v-84.642H932.115L932.115,548.196z M511.179,632.836v17.932h-42.653v-17.932h-39.449v17.932h-39.45
	v-17.932h-2.236c45.425-1.246,88.305-12.668,126.446-32.07v32.07H511.179z M590.977,650.768h-40.349v-17.932h40.349V650.768z"/>
</svg>
