<?xml version="1.0" encoding="utf-8"?>
<!-- Generator: Adobe Illustrator 16.0.0, SVG Export Plug-In . SVG Version: 6.00 Build 0)  -->
<!DOCTYPE svg PUBLIC "-//W3C//DTD SVG 1.1//EN" "http://www.w3.org/Graphics/SVG/1.1/DTD/svg11.dtd">
<svg version="1.1" id="Calque_1" xmlns="http://www.w3.org/2000/svg" xmlns:xlink="http://www.w3.org/1999/xlink" x="0px" y="0px"
	 width="1190.551px" height="1190.551px" viewBox="0 0 1190.551 1190.551" enable-background="new 0 0 1190.551 1190.551"
	 xml:space="preserve">
<path fill="#010202" d="M933.677,571.967V425.965h-52V339.69h-32.325c1.833-13.354,2.802-26.984,2.802-40.842
	c0-164.382-133.258-297.64-297.64-297.64s-297.64,133.258-297.64,297.64c0,157.562,122.437,286.509,277.354,296.938H495.45v21.52
	h-32.279v-21.52h-41.242v21.52h-34.073v-21.52h-41.244v21.52h-43.038v23.536h-17.932v39.451h17.933v40.347h-17.933v39.452h17.933
	v42.652h-17.933v39.449h17.933v39.45h-17.933v39.452h17.933v42.587h-17.933v39.454h17.933v36.985h-17.933v39.451h17.933v32.273
	h-17.933v39.454h17.933v18.317h43.037v19.726h41.244v-19.726h34.073v19.726h41.242v-19.726h32.279v19.726h41.243v-19.726h35.64
	v19.726h41.246v-19.726h34.886v19.726h41.243v-19.726h28.163v19.726h41.244v-19.726h28.631V1151.3h17.931v-39.454h-17.931v-32.273
	h17.931v-39.451h-17.931v-36.985h17.931v-39.454h-17.931v-42.587h17.931v-39.452h-17.931v-39.45h17.931v-16.228h43.359v109h84.641
	v-177h-52V571.967H933.677z M536.695,617.305v-21.361c5.897,0.348,11.835,0.545,17.819,0.545s11.922-0.197,17.819-0.545v21.361
	H536.695z M805.677,802.744h-17.931v-42.652h17.931V802.744z M805.677,720.639h-17.931v-40.347h17.931V720.639z M805.677,489.967
	v150.874h-17.931v-23.536h-28.631v-21.52h-41.244v21.52h-28.163v-21.52h-41.243v21.52h-34.886v-21.52h-38.781
	c140.527-9.46,254.311-116.445,274.238-253.85v148.03L805.677,489.967L805.677,489.967z"/>
</svg>
