<?xml version="1.0" encoding="utf-8"?>
<!-- Generator: Adobe Illustrator 16.0.0, SVG Export Plug-In . SVG Version: 6.00 Build 0)  -->
<!DOCTYPE svg PUBLIC "-//W3C//DTD SVG 1.1//EN" "http://www.w3.org/Graphics/SVG/1.1/DTD/svg11.dtd">
<svg version="1.1" id="Calque_1" xmlns="http://www.w3.org/2000/svg" xmlns:xlink="http://www.w3.org/1999/xlink" x="0px" y="0px"
	 width="1190.551px" height="1190.551px" viewBox="0 0 1190.551 1190.551" enable-background="new 0 0 1190.551 1190.551"
	 xml:space="preserve">
<path fill="#010202" d="M648.035,232.278V86.276h-52V0h-32.64v150.277h-43.36v35.931h-17.932v-36.985h17.932v-39.451h-17.932V77.497
	h17.932V38.043h-17.932V19.725h-43.038V0h-41.244v19.725h-34.072V0h-41.243v19.725h-32.279V0h-41.244v19.725h-35.639V0h-41.246
	v19.725h-34.886V0h-41.243v19.725H87.805V0H46.561v19.725H17.93v18.318H0v39.454h17.93v32.274H0v39.451h17.93v36.985H0v39.454h17.93
	v42.587H0v39.452h17.93v39.451H0v39.449h17.93v42.652H0v39.452h17.93v40.347H0v39.451h17.93v23.536h28.631v21.519h41.244V572.04
	h28.164v21.519h41.243V572.04h34.886v21.519h41.246V572.04h35.639v21.519h36.744c-154.75,10.603-277,139.473-277,296.915
	c0,164.382,133.258,297.64,297.64,297.64s297.64-133.258,297.64-297.64c0-157.442-122.249-286.312-277-296.915h36.743V572.04h34.072
	v21.519h41.244V572.04h43.038v-23.536h17.932v-39.451h-17.932v-40.347h17.932v17.57h43.36v109h84.64v-177h-52V232.278H648.035z
	 M326.366,592.834c-5.416,0-10.795,0.154-16.14,0.439V572.04h32.279v21.233C337.161,592.988,331.782,592.834,326.366,592.834z
	 M520.035,429.254h-17.932v-42.652h17.932V429.254z M520.035,347.153h-17.932v-39.451h17.932V347.153z M520.035,268.249h-17.932
	v-42.587h17.932V268.249z"/>
</svg>
