<?xml version="1.0" encoding="utf-8"?>
<!-- Generator: Adobe Illustrator 16.0.0, SVG Export Plug-In . SVG Version: 6.00 Build 0)  -->
<!DOCTYPE svg PUBLIC "-//W3C//DTD SVG 1.1//EN" "http://www.w3.org/Graphics/SVG/1.1/DTD/svg11.dtd">
<svg version="1.1" id="Calque_1" xmlns="http://www.w3.org/2000/svg" xmlns:xlink="http://www.w3.org/1999/xlink" x="0px" y="0px"
	 width="1190.551px" height="1190.551px" viewBox="0 0 1190.551 1190.551" enable-background="new 0 0 1190.551 1190.551"
	 xml:space="preserve">
<g>
	<polygon fill="#010202" points="307.701,502.106 347.153,502.106 347.153,520.036 386.602,520.036 386.602,502.106 
		429.255,502.106 429.255,520.036 468.705,520.036 468.705,502.106 509.053,502.106 509.053,520.036 548.505,520.036 
		548.505,502.106 572.039,502.106 572.039,473.475 593.559,473.475 593.559,432.231 572.039,432.231 572.039,404.067 
		593.559,404.067 593.559,362.823 572.039,362.823 572.039,327.938 593.559,327.938 593.559,286.692 572.039,286.692 
		572.039,251.053 593.559,251.053 593.559,209.809 572.039,209.809 572.039,177.53 593.559,177.53 593.559,136.287 572.039,136.287 
		572.039,102.214 593.559,102.214 593.559,60.97 572.039,60.97 572.039,17.932 548.505,17.932 548.505,0 509.053,0 509.053,17.932 
		468.705,17.932 468.705,0 429.255,0 429.255,17.932 386.602,17.932 386.602,0 347.153,0 347.153,17.932 307.701,17.932 307.701,0 
		268.249,0 268.249,17.932 225.662,17.932 225.662,0 186.208,0 186.208,17.932 149.223,17.932 149.223,0 109.772,0 109.772,17.932 
		77.497,17.932 77.497,0 38.043,0 38.043,17.932 19.725,17.932 19.725,60.97 0,60.97 0,102.214 19.725,102.214 19.725,136.287 
		0,136.287 0,177.53 19.725,177.53 19.725,209.809 0,209.809 0,251.053 19.725,251.053 19.725,286.692 0,286.692 0,327.938 
		19.725,327.938 19.725,362.823 0,362.823 0,404.067 19.725,404.067 19.725,432.231 0,432.231 0,473.475 19.725,473.475 
		19.725,502.106 38.043,502.106 38.043,520.036 77.497,520.036 77.497,502.106 109.772,502.106 109.772,520.036 149.223,520.036 
		149.223,502.106 186.208,502.106 186.208,520.036 225.662,520.036 225.662,502.106 268.249,502.106 268.249,520.036 
		297.34,520.036 307.701,520.036 	"/>
	<path fill="#010202" d="M672.157,629.907V520.908h-84.64v176.999h52v185.999h-51.945c4.84-21.301,7.407-43.465,7.407-66.23
		c0-164.382-133.258-297.64-297.64-297.64S-0.3,653.294-0.3,817.676s133.258,297.64,297.64,297.64
		c141.526,0,259.974-98.78,290.178-231.155v145.748h52v86.276h32.64V965.906h43.36V629.907H672.157z"/>
</g>
</svg>
