<?xml version="1.0" encoding="utf-8"?>
<!-- Generator: Adobe Illustrator 16.0.0, SVG Export Plug-In . SVG Version: 6.00 Build 0)  -->
<!DOCTYPE svg PUBLIC "-//W3C//DTD SVG 1.1//EN" "http://www.w3.org/Graphics/SVG/1.1/DTD/svg11.dtd">
<svg version="1.1" id="Calque_1" xmlns="http://www.w3.org/2000/svg" xmlns:xlink="http://www.w3.org/1999/xlink" x="0px" y="0px"
	 width="1190.551px" height="1190.551px" viewBox="0 0 1190.551 1190.551" enable-background="new 0 0 1190.551 1190.551"
	 xml:space="preserve">
<path fill="#010202" d="M956.206,575.48V429.478h-52v-86.276h-32.639V493.48h-43.361v-38.04h-19.725v-34.072h19.725v-41.243h-19.725
	v-32.279h19.725v-41.244h-19.725v-35.639h19.725v-41.246h-19.725v-34.886h19.725v-41.243h-19.725v-28.165h19.725V84.179h-19.725
	V55.548h-18.318v-17.93h-39.454v17.93h-32.275v-17.93h-39.448v17.93h-36.986v-17.93h-39.454v17.93h-42.588v-17.93h-39.452v17.93
	h-39.452v-17.93h-39.447v17.93h-42.652v-17.93h-39.452v17.93h-40.348v-17.93h-39.451v17.93h-23.536v28.631h-21.519v41.244h21.519
	v28.164h-21.519v41.243h21.519v34.886h-21.519v41.246h21.519v35.639h-21.519v41.244h21.519v32.279h-21.519v41.243h21.519v34.072
	h-21.519v41.244h21.519v43.038h23.536v17.933h39.451v-17.933H359.5v17.933h39.452v-17.933h42.652v17.933h39.447v-17.933h39.452
	v17.933h11.482h27.97v-17.933h42.587v17.933h39.454v-17.933h36.986v17.933h39.448v-17.933h32.275v17.933h39.454v-17.933h18.318
	v-43.038h19.725v329.482c-14.641-150.71-141.666-268.512-296.219-268.512c-164.382,0-297.641,133.258-297.641,297.64
	s133.259,297.64,297.641,297.64s297.64-133.258,297.64-297.64c0-8.699-0.396-17.306-1.127-25.814h43.067v109h84.639v-177h-52V575.48
	H956.206z"/>
</svg>
