<?xml version="1.0" encoding="utf-8"?>
<!-- Generator: Adobe Illustrator 16.0.0, SVG Export Plug-In . SVG Version: 6.00 Build 0)  -->
<!DOCTYPE svg PUBLIC "-//W3C//DTD SVG 1.1//EN" "http://www.w3.org/Graphics/SVG/1.1/DTD/svg11.dtd">
<svg version="1.1" id="Calque_1" xmlns="http://www.w3.org/2000/svg" xmlns:xlink="http://www.w3.org/1999/xlink" x="0px" y="0px"
	 width="1190.551px" height="1190.551px" viewBox="0 0 1190.551 1190.551" enable-background="new 0 0 1190.551 1190.551"
	 xml:space="preserve">
<path fill="#010202" d="M919.292,233.496V87.494h-52V1.218h-32.64v150.277h-43.36v35.931h-17.932v-36.985h17.932V110.99h-17.932
	V78.715h17.932V39.261h-17.932V20.943h-43.038V1.218h-41.244v19.725h-34.071V1.218h-41.243v19.725h-32.279V1.218H540.24v19.725
	h-35.639V1.218h-41.246v19.725H428.47V1.218h-41.243v19.725h-28.164V1.218h-41.244v19.725h-28.631v18.318h-17.93v39.454h17.93
	v32.274h-17.93v39.451h17.93v36.985h-17.93v39.454h17.93v42.587h-17.93v39.452h17.93v39.451h-17.93v39.449h17.93v42.652h-17.93
	v39.452h17.93v40.347h-17.93v39.451h17.93v23.536h28.631v21.519h41.244v-21.517h28.164v21.519h41.243v-21.519h34.886v21.519h41.246
	v-21.519h35.639v21.519h36.744c-154.75,10.604-277,139.473-277,296.914c0,164.383,133.258,297.641,297.641,297.641
	c164.381,0,297.64-133.258,297.64-297.641c0-157.441-122.249-286.311-277-296.914h36.743v-21.519h34.071v21.519h41.244v-21.519
	h43.038v-23.536h17.932v-39.451h-17.932v-40.347h17.932v17.57h43.36v109h84.64v-177h-52V233.496H919.292z M597.624,594.052
	c-5.416,0-10.796,0.154-16.141,0.439v-21.233h32.279v21.233C608.419,594.206,603.04,594.052,597.624,594.052z M791.292,430.472
	h-17.932V387.82h17.932V430.472z M791.292,348.371h-17.932V308.92h17.932V348.371z M791.292,269.467h-17.932V226.88h17.932V269.467z
	"/>
</svg>
