<?xml version="1.0" encoding="utf-8"?>
<!-- Generator: Adobe Illustrator 16.0.0, SVG Export Plug-In . SVG Version: 6.00 Build 0)  -->
<!DOCTYPE svg PUBLIC "-//W3C//DTD SVG 1.1//EN" "http://www.w3.org/Graphics/SVG/1.1/DTD/svg11.dtd">
<svg version="1.1" id="Calque_1" xmlns="http://www.w3.org/2000/svg" xmlns:xlink="http://www.w3.org/1999/xlink" x="0px" y="0px"
	 width="1190.551px" height="1190.551px" viewBox="0 0 1190.551 1190.551" enable-background="new 0 0 1190.551 1190.551"
	 xml:space="preserve">
<path fill="#010202" d="M593.558,102.214V60.969h-21.52V17.931h-23.534V0h-39.452v17.931h-40.349V0h-39.449v17.931h-42.653V0h-39.45
	v17.931h-39.451V0h-39.451v17.931H225.66V0h-39.453v17.931h-36.985V0h-39.451v17.931H77.495V0H38.042v17.931H19.724v43.038H0v41.245
	h19.724v34.072H0v41.242h19.724v32.279H0v41.245h19.724v35.638H0v41.246h19.724v34.886H0v41.243h19.724v28.164H0v41.244h19.724
	v28.631h18.318v17.931H0v295.092v5.099v295.09h76.103c0,0,0-88.01,0-155.099c0.042,59.239,48.25,107.423,107.499,107.423
	c59.274,0,107.5-48.226,107.5-107.5c0-59.273-48.227-107.5-107.5-107.5c-59.25,0-107.457,48.185-107.499,107.423
	c0-23.188,0-43.866,0-57.527c0-36,10.397-50,48.897-50h173.09v-32.312v-5.1v-32.312L125,782.813c-38.5,0-48.897-14-48.897-50
	c0-53.194,0-212.777,0-212.777h1.393v-17.931h32.275v17.931h39.451v-17.931h36.985v17.931h39.453v-17.931h42.588v17.931h39.451
	v-17.931h39.451v17.931h39.385c-49.062,9.946-86.108,53.406-86.108,105.359c0,59.273,48.227,107.5,107.5,107.5
	c59.275,0,107.501-48.227,107.501-107.5c0-51.953-37.047-95.414-86.109-105.359h39.385v-17.931h40.349v17.931h39.452v-17.931h23.534
	v-28.631h21.52V432.23h-21.52v-28.164h21.52v-41.243h-21.52v-34.886h21.52v-41.246h-21.52v-35.638h21.52v-41.245h-21.52v-32.279
	h21.52v-41.242h-21.52v-34.072H593.558z M407.927,517.895c-7.3,0-14.431,0.735-21.326,2.128v-17.918h42.653v17.918
	C422.359,518.63,415.227,517.895,407.927,517.895z"/>
</svg>
