<?xml version="1.0" encoding="utf-8"?>
<!-- Generator: Adobe Illustrator 16.0.0, SVG Export Plug-In . SVG Version: 6.00 Build 0)  -->
<!DOCTYPE svg PUBLIC "-//W3C//DTD SVG 1.1//EN" "http://www.w3.org/Graphics/SVG/1.1/DTD/svg11.dtd">
<svg version="1.1" id="Calque_1" xmlns="http://www.w3.org/2000/svg" xmlns:xlink="http://www.w3.org/1999/xlink" x="0px" y="0px"
	 width="1190.551px" height="1190.551px" viewBox="0 0 1190.551 1190.551" enable-background="new 0 0 1190.551 1190.551"
	 xml:space="preserve">
<path fill="#010202" d="M855.293,85.363V45.913h-17.93V22.376h-28.631V0.857h-41.244v21.519h-28.164V0.857h-41.242v21.519h-34.887
	V0.857h-41.246v21.519h-35.637V0.857h-41.245v21.519h-32.279V0.857h-41.241v21.519h-34.072V0.857h-41.246v21.519H353.19v23.536
	H335.26v39.451h17.931v40.348H335.26v39.451h17.931v42.652H335.26v39.45h17.931v39.451H335.26v39.451h17.931v42.588H335.26v39.453
	h17.931v36.985H335.26v39.451h17.931v32.275H335.26v39.453h17.931v18.318h43.038v19.724h41.245v-19.724h34.072v19.724h41.241
	v-19.724h32.279v19.724h40.533c-50.477,8.808-88.969,52.94-88.969,105.896c0,25.442,8.891,48.844,23.72,67.274
	c-19.581-20.433-47.126-33.175-77.592-33.175c-59.273,0-107.5,48.225-107.5,107.5c0,59.272,48.226,107.5,107.5,107.5
	c53.778,0,98.461-39.7,106.284-91.331v31.426v5.101v32.312h173.09c38.498,0,48.896,14,48.896,50c0,53.193,0,212.777,0,212.777
	h76.102V894.604v-5.101v-295.09h-38.398V574.69h28.631v-18.318h17.93v-39.453h-17.93v-32.275h17.93v-39.451h-17.93v-36.985h17.93
	v-39.453h-17.93v-42.588h17.93v-39.451h-17.93v-39.451h17.93v-39.45h-17.93v-42.652h17.93v-39.451h-17.93V85.363H855.293z
	 M586.312,574.691h35.637v19.605c-5.797-0.971-11.748-1.485-17.816-1.485c-6.07,0-12.022,0.514-17.82,1.485L586.312,574.691
	L586.312,574.691z M722.133,857.194H549.169c0.714-4.994,1.091-10.095,1.091-15.282c0-25.441-8.892-48.844-23.721-67.274
	c19.581,20.433,47.125,33.175,77.592,33.175c59.273,0,107.5-48.225,107.5-107.5c0-52.956-38.492-97.089-88.969-105.896h40.533
	v-19.724h34.885v19.724h41.244v-19.724h28.164v19.724h3.543c0,0.083,0,159.598,0,212.779
	C771.031,843.194,760.633,857.194,722.133,857.194z"/>
</svg>
