<?xml version="1.0" encoding="utf-8"?>
<!-- Generator: Adobe Illustrator 16.0.0, SVG Export Plug-In . SVG Version: 6.00 Build 0)  -->
<!DOCTYPE svg PUBLIC "-//W3C//DTD SVG 1.1//EN" "http://www.w3.org/Graphics/SVG/1.1/DTD/svg11.dtd">
<svg version="1.1" id="Calque_1" xmlns="http://www.w3.org/2000/svg" xmlns:xlink="http://www.w3.org/1999/xlink" x="0px" y="0px"
	 width="1190.551px" height="1190.551px" viewBox="0 0 1190.551 1190.551" enable-background="new 0 0 1190.551 1190.551"
	 xml:space="preserve">
<g>
	<path fill="#010202" d="M892.055,720.704V679.46H872.33v-28.632h-18.318v-17.93h-39.453v17.931h-32.275v-17.931h-39.449v17.931
		h-36.986v-17.931h-39.453v17.931h-42.588v-17.931h-27.221V337.807v-5.1V37.617h-76.103c0,0,0,159.585,0,212.779
		c0,36-10.396,50-48.896,50h-173.09v32.312v5.099v32.312h173.09c38.5,0,48.896,14,48.896,50c0,53.193,0,212.777,0,212.777h-15.029
		v17.931h-42.652v-17.929h-38.703c50.686-8.633,89.398-52.862,89.398-105.967c0-59.275-48.227-107.5-107.5-107.5
		c-59.274,0-107.5,48.224-107.5,107.5c0,59.273,48.225,107.5,107.5,107.5c5.907,0,11.703-0.486,17.354-1.409v17.807h-40.348v-17.93
		h-39.451v17.931h-23.536v28.632h-21.519v41.244h21.519v28.162h-21.519v41.243h21.519v34.888h-21.519v41.244h21.519v35.639h-21.519
		v41.246h21.519v32.277h-21.519v41.243h21.519v34.071h-21.519v41.245h21.519v43.039h23.536v17.931h39.451v-17.931h40.348v17.931
		h39.451v-17.931h42.652v17.931h39.45v-17.931h39.45v17.931h39.451v-17.931h42.588v17.931h39.453v-17.931h36.986v17.931h39.449
		v-17.931h32.275v17.931h39.453v-17.931h18.318v-43.039h19.725v-41.245h-19.725v-34.071h19.725v-41.243h-19.725v-32.277h19.725
		v-41.246h-19.725v-35.639h19.725v-41.244h-19.725V790.11h19.725v-41.243h-19.725v-28.162L892.055,720.704L892.055,720.704z
		 M584.355,650.828h-39.45v-17.93h39.45V650.828z"/>
	<path fill="#010202" d="M405.997,300.299c59.274,0,107.5-48.226,107.5-107.499c0-59.274-48.226-107.5-107.5-107.5
		s-107.5,48.225-107.5,107.5S346.723,300.299,405.997,300.299z"/>
</g>
</svg>
