<?xml version="1.0" encoding="utf-8"?>
<!-- Generator: Adobe Illustrator 16.0.0, SVG Export Plug-In . SVG Version: 6.00 Build 0)  -->
<!DOCTYPE svg PUBLIC "-//W3C//DTD SVG 1.1//EN" "http://www.w3.org/Graphics/SVG/1.1/DTD/svg11.dtd">
<svg version="1.1" id="Calque_1" xmlns="http://www.w3.org/2000/svg" xmlns:xlink="http://www.w3.org/1999/xlink" x="0px" y="0px"
	 width="1190.551px" height="1190.551px" viewBox="0 0 1190.551 1190.551" enable-background="new 0 0 1190.551 1190.551"
	 xml:space="preserve">
<g>
	<path fill="#010202" d="M382.501,815.546c-36,0-50-10.398-50-48.898v-173.09h-4.564v-19.724h34.886v19.724h41.243v-19.724h28.164
		v19.724h7.869h33.375v-19.724h28.631v-18.318h17.93v-39.453h-17.93v-32.275h17.93v-39.451h-17.93v-36.985h17.93v-39.453h-17.93
		V325.31h17.93v-39.451h-17.93v-39.451h17.93v-39.45h-17.93v-42.652h17.93v-39.451h-17.93V84.506h17.93V45.055h-17.93V21.519
		h-28.631V0H432.23v21.519h-28.164V0h-41.243v21.519h-34.886V0h-41.246v21.519h-35.638V0h-41.245v21.519h-32.279V0h-41.242v21.519
		h-34.072V0H60.969v21.519H17.931v23.536H0v39.451h17.931v40.348H0v39.451h17.931v42.652H0v39.45h17.931v39.451H0v39.451h17.931
		v42.588H0v39.453h17.931v36.985H0v39.451h17.931v32.275H0v39.453h17.931v18.318h43.038v19.724h41.245v-19.724h34.072v19.724h41.242
		v-19.724h32.279v19.724h41.245v-19.724h35.638v19.724h-23.914l0.001,173.09c0,38.5-14,48.898-50,48.898
		c-53.193,0-212.777,0-212.777,0v76.102h295.091h5.1h295.09v-76.102C595.281,815.546,435.696,815.546,382.501,815.546z"/>
	<path fill="#010202" d="M220.69,700.501c0-59.273-48.225-107.499-107.5-107.499c-59.274,0-107.5,48.225-107.5,107.499
		c0,59.275,48.227,107.5,107.5,107.5C172.465,808.001,220.69,759.777,220.69,700.501z"/>
	<path fill="#010202" d="M332.599,701.058c0,59.272,48.225,107.5,107.5,107.5s107.5-48.227,107.5-107.5
		c0-59.275-48.226-107.5-107.5-107.5C380.823,593.558,332.599,641.782,332.599,701.058z"/>
</g>
</svg>
