<?xml version="1.0" encoding="utf-8"?>
<!-- Generator: Adobe Illustrator 16.0.0, SVG Export Plug-In . SVG Version: 6.00 Build 0)  -->
<!DOCTYPE svg PUBLIC "-//W3C//DTD SVG 1.1//EN" "http://www.w3.org/Graphics/SVG/1.1/DTD/svg11.dtd">
<svg version="1.1" id="Calque_1" xmlns="http://www.w3.org/2000/svg" xmlns:xlink="http://www.w3.org/1999/xlink" x="0px" y="0px"
	 width="1190.551px" height="1190.551px" viewBox="0 0 1190.551 1190.551" enable-background="new 0 0 1190.551 1190.551"
	 xml:space="preserve">
<g>
	<path fill="#010202" d="M855.292,78.35V38.897h-17.931V20.579h-43.038V0.855h-41.245v19.724h-34.07V0.855h-41.243v19.724h-32.279
		V0.855H604.24v19.724h-35.638V0.855h-41.246v19.724h-34.886V0.855h-41.243v19.724h-28.164V0.855H381.82v19.724h-28.631v18.318
		h-17.93V78.35h17.93v32.275h-17.93v39.451h17.93v36.985h-17.93v39.453h17.93v42.588h-17.93v39.45h17.93v39.452h-17.93v39.45h17.93
		v42.652h-17.93v39.451h17.93v40.348h-17.93v39.451h17.93v23.536h28.631v21.519h41.244v-21.519h28.164v21.519h41.243v-21.519h34.886
		v21.519h39.438c-49.937,9.251-87.873,53.126-87.873,105.698c0,59.275,48.225,107.5,107.5,107.5
		c59.273,0,107.499-48.225,107.499-107.5c0-52.572-37.938-96.447-87.872-105.698h39.437v-21.519h32.279v21.519h41.243v-21.519h34.07
		v21.519h41.245v-21.519h43.038v-23.536h17.931v-39.451h-17.931v-40.348h17.931v-39.451h-17.931v-42.652h17.931v-39.45h-17.931
		v-39.452h17.931v-39.45h-17.931v-42.587h17.931v-39.453h-17.931v-36.985h17.931v-39.451h-17.931V78.35H855.292z M586.422,592.611
		c-6.07,0-12.021,0.514-17.819,1.485v-21.202h35.638v21.202C598.443,593.125,592.491,592.611,586.422,592.611z"/>
	<path fill="#010202" d="M411.362,807.191c0-53.193,0-212.777,0-212.777h-76.103v295.092v5.098v295.092h76.103
		c0,0,0-88.102,0-155.205c0.042,59.238,48.25,107.424,107.499,107.424c59.274,0,107.5-48.227,107.5-107.5
		c0-59.225-48.144-107.414-107.346-107.498h114.334v-32.312v-5.098v-32.312h-173.09
		C421.759,857.191,411.362,843.191,411.362,807.191z M411.362,1034.336c0-23.146,0-43.781,0-57.422c0-36,10.397-50,48.897-50h58.447
		C459.528,926.998,411.404,975.146,411.362,1034.336z"/>
</g>
</svg>
