<?xml version="1.0" encoding="utf-8"?>
<!-- Generator: Adobe Illustrator 16.0.0, SVG Export Plug-In . SVG Version: 6.00 Build 0)  -->
<!DOCTYPE svg PUBLIC "-//W3C//DTD SVG 1.1//EN" "http://www.w3.org/Graphics/SVG/1.1/DTD/svg11.dtd">
<svg version="1.1" id="Calque_1" xmlns="http://www.w3.org/2000/svg" xmlns:xlink="http://www.w3.org/1999/xlink" x="0px" y="0px"
	 width="1190.551px" height="1190.551px" viewBox="0 0 1190.551 1190.551" enable-background="new 0 0 1190.551 1190.551"
	 xml:space="preserve">
<path fill="#010202" d="M892.055,125.422V84.178H872.33V55.547h-18.318v-17.93h-39.453v17.93h-32.275v-17.93h-39.449v17.93h-36.986
	v-17.93h-39.453v17.93h-42.588v-17.93h-39.452v17.93h-39.45v-17.93h-39.45v17.93h-42.652v-17.93h-39.451v17.93h-40.349v-17.93
	h-39.451v17.93h-23.536v28.631h-21.519v41.244h21.519v28.164h-21.519v41.243h21.519v34.886h-21.519v41.246h21.519v35.638h-21.519
	v41.245h21.519v32.279h-21.519v41.243h21.519v34.071h-21.519v41.245h21.519v43.038h23.536v17.932h-45.055v295.092v5.099v295.091
	h76.103c0,0,0-88.011,0-155.1c0.042,59.239,48.25,107.423,107.499,107.423c59.274,0,107.5-48.226,107.5-107.5
	c0-59.272-48.227-107.5-107.5-107.5c-59.25,0-107.457,48.186-107.499,107.423c0-23.188,0-43.865,0-57.526c0-36,10.397-50,48.897-50
	h173.089v-32.312v-5.1v-32.312l-173.089,0.001c-38.5,0-48.897-14-48.897-50c0-53.193,0-212.776,0-212.776h8.403v-17.932h40.348
	v17.932h39.392c-49.064,9.944-86.114,53.405-86.114,105.36c0,59.271,48.225,107.5,107.5,107.5c59.273,0,107.5-48.229,107.5-107.5
	c0-51.955-37.049-95.417-86.114-105.36h39.39v-17.932h39.451v17.932h39.451v-17.932h42.588v17.932h39.453v-17.932h36.986v17.932
	h39.449v-17.932h32.275v17.932h39.453v-17.932h18.318v-43.038h19.725v-41.245h-19.725v-34.071h19.725v-41.243h-19.725v-32.279
	h19.725V306.6h-19.725v-35.638h19.725v-41.246h-19.725V194.83h19.725v-41.243h-19.725v-28.165H892.055z M484.128,555.513
	c-7.3,0-14.431,0.735-21.326,2.128v-17.92h42.652v17.92C498.558,556.248,491.427,555.513,484.128,555.513z"/>
</svg>
