<?xml version="1.0" encoding="utf-8"?>
<!-- Generator: Adobe Illustrator 16.0.0, SVG Export Plug-In . SVG Version: 6.00 Build 0)  -->
<!DOCTYPE svg PUBLIC "-//W3C//DTD SVG 1.1//EN" "http://www.w3.org/Graphics/SVG/1.1/DTD/svg11.dtd">
<svg version="1.1" id="Calque_1" xmlns="http://www.w3.org/2000/svg" xmlns:xlink="http://www.w3.org/1999/xlink" x="0px" y="0px"
	 width="1190.551px" height="1190.551px" viewBox="0 0 1190.551 1190.551" enable-background="new 0 0 1190.551 1190.551"
	 xml:space="preserve">
<path fill="#010202" d="M440.077,815.546c59.238-0.042,107.423-48.252,107.423-107.499c0-59.275-48.227-107.5-107.5-107.5
	c-59.25,0-107.457,48.183-107.499,107.423V593.558h-22.274v-21.519h32.279v21.519h41.243v-21.519h34.071v21.519h41.245v-21.519
	h43.038v-23.536h17.931v-39.451h-17.931v-40.348h17.931v-39.451h-17.931v-42.652h17.931v-39.45h-17.931v-39.452h17.931v-39.45
	h-17.931V225.66h17.931v-39.453h-17.931v-36.985h17.931v-39.451h-17.931V77.495h17.931V38.042h-17.931V19.724h-43.038V0h-41.245
	v19.724h-34.071V0h-41.243v19.724h-32.279V0h-41.245v19.724h-35.638V0h-41.246v19.724h-34.886V0h-41.243v19.724H87.805V0H46.561
	v19.724H17.93v18.318H0v39.453h17.93v32.275H0v39.451h17.93v36.985H0v39.453h17.93v42.588H0v39.45h17.93v39.452H0v39.45h17.93
	v42.652H0v39.451h17.93v40.348H0v39.451h17.93v23.536h28.631v21.519h41.244v-21.519h28.164v21.519h41.243v-21.519h34.886v21.519
	h41.246v-21.519h35.638v21.519h-6.205l0.001,173.09c0,38.5-14,48.898-50,48.898c-22.634,0-64.531,0-105.2,0
	C166.815,815.504,215,767.296,215,708.047c0-59.275-48.227-107.5-107.5-107.5c-59.275,0-107.5,48.225-107.5,107.5
	c0,59.248,48.183,107.457,107.423,107.499c-54.852,0-107.423,0-107.423,0v76.102h295.091h5.1h295.09v-76.102
	C595.281,815.546,507.179,815.546,440.077,815.546z M332.501,766.648v-58.523c0.042,59.211,48.208,107.38,107.422,107.422
	c-23.146,0-43.782,0-57.422,0C346.501,815.546,332.501,805.148,332.501,766.648z"/>
</svg>
