<?xml version="1.0" encoding="utf-8"?>
<!-- Generator: Adobe Illustrator 16.0.0, SVG Export Plug-In . SVG Version: 6.00 Build 0)  -->
<!DOCTYPE svg PUBLIC "-//W3C//DTD SVG 1.1//EN" "http://www.w3.org/Graphics/SVG/1.1/DTD/svg11.dtd">
<svg version="1.1" id="Calque_1" xmlns="http://www.w3.org/2000/svg" xmlns:xlink="http://www.w3.org/1999/xlink" x="0px" y="0px"
	 width="1190.551px" height="1190.551px" viewBox="0 0 1190.551 1190.551" enable-background="new 0 0 1190.551 1190.551"
	 xml:space="preserve">
<path fill="#010202" d="M520.034,84.506V45.055h-17.93V21.519h-28.631V0H432.23v21.519h-28.164V0h-41.243v21.519h-34.886V0h-41.246
	v21.519h-35.638V0h-41.245v21.519h-32.279V0h-41.242v21.519h-34.072V0H60.969v21.519H17.931v23.536H0v39.451h17.931v40.348H0v39.451
	h17.931v42.652H0v39.45h17.931v39.451H0v39.451h17.931v42.588H0v39.453h17.931v36.985H0v39.451h17.931v32.275H0v39.453h17.931
	v18.318h43.038v19.724h41.245v-19.724h34.072v19.724h41.242v-19.724h32.279v19.724h40.533
	c-50.476,8.808-88.969,52.94-88.969,105.896c0,25.442,8.891,48.844,23.72,67.275c-19.581-20.433-47.126-33.175-77.592-33.175
	c-59.273,0-107.5,48.224-107.5,107.5c0,59.272,48.226,107.5,107.5,107.5c53.779,0,98.461-39.701,106.284-91.331v31.425v5.101v32.312
	l173.09-0.001c38.5,0,48.898,14,48.898,50c0,53.194,0,212.778,0,212.778h76.102V893.747v-5.101v-295.09h-38.4v-19.723h28.631
	v-18.318h17.93v-39.453h-17.93v-32.275h17.93v-39.451h-17.93v-36.985h17.93v-39.453h-17.93V325.31h17.93v-39.451h-17.93v-39.451
	h17.93v-39.45h-17.93v-42.652h17.93v-39.451h-17.93V84.506H520.034z M251.053,573.834h35.638v19.605
	c-5.798-0.971-11.749-1.485-17.818-1.485c-6.07,0-12.021,0.514-17.819,1.485V573.834z M386.874,856.337H213.909
	c0.714-4.994,1.091-10.095,1.091-15.282c0-25.442-8.891-48.844-23.72-67.275c19.581,20.433,47.125,33.175,77.592,33.175
	c59.274,0,107.5-48.225,107.5-107.5c0-52.956-38.493-97.089-88.969-105.896h40.533v-19.724h34.886v19.724h41.243v-19.724h28.164
	v19.724h3.543c0,0.083,0,159.598,0,212.779C435.773,842.337,425.374,856.337,386.874,856.337z"/>
</svg>
