<?xml version="1.0" encoding="utf-8"?>
<!-- Generator: Adobe Illustrator 16.0.0, SVG Export Plug-In . SVG Version: 6.00 Build 0)  -->
<!DOCTYPE svg PUBLIC "-//W3C//DTD SVG 1.1//EN" "http://www.w3.org/Graphics/SVG/1.1/DTD/svg11.dtd">
<svg version="1.1" id="Calque_1" xmlns="http://www.w3.org/2000/svg" xmlns:xlink="http://www.w3.org/1999/xlink" x="0px" y="0px"
	 width="1190.551px" height="1190.551px" viewBox="0 0 1190.551 1190.551" enable-background="new 0 0 1190.551 1190.551"
	 xml:space="preserve">
<path fill="#010202" d="M855.291,85.363V45.912h-17.93V22.376h-28.631V0.857h-41.242v21.519h-28.164V0.857H698.08v21.519h-34.885
	V0.857h-41.246v21.519h-35.638V0.857h-41.245v21.519h-32.279V0.857h-41.241v21.519h-34.072V0.857h-41.246v21.519h-43.038v23.536
	h-17.931v39.451h17.931v40.348h-17.931v39.451h17.931v42.652h-17.931v39.45h17.931v39.451h-17.931v39.451h17.931v42.588h-17.931
	v39.453h17.931v36.985h-17.931v39.451h17.931v32.275h-17.931v39.453h17.931v18.318h43.038v19.724h41.245v-19.724h34.072v19.724
	h41.241v-19.724h32.279v19.724h40.533c-50.477,8.808-88.969,52.94-88.969,105.896c0,59.275,48.225,107.5,107.5,107.5
	c59.223,0,107.416-48.141,107.498-107.346c0,41.145,0,83.811,0,106.729c0,36-10.396,50-48.896,50H489.641v32.312v5.102v32.174
	c-14.177-6.898-30.085-10.775-46.883-10.775c-59.275,0-107.5,48.227-107.5,107.5s48.225,107.5,107.5,107.5
	c59.272,0,107.5-48.227,107.5-107.5c0-42.367-24.643-79.086-60.342-96.588h172.816c38.5,0,48.896,14,48.896,50
	c0,53.193,0,212.777,0,212.777h76.104v-295.09v-5.1V594.415h21v-19.724h28.631v-18.318h17.93V516.92h-17.93v-32.275h17.93v-39.451
	h-17.93v-36.985h17.93v-39.453h-17.93v-42.589h17.93v-39.451h-17.93v-39.451h17.93v-39.45h-17.93v-42.652h17.93v-39.451h-17.93
	V85.363H855.291z M767.489,574.691v19.723h-28.164v-19.723H767.489z M586.311,574.691h35.638v19.605
	c-5.799-0.971-11.75-1.485-17.818-1.485c-6.07,0-12.021,0.514-17.819,1.485L586.311,574.691L586.311,574.691z M622.662,594.415
	h40.533v-19.724h34.885v19.724h13.549c0,0.047,0,51.526,0,105.741C711.555,647.27,673.088,603.215,622.662,594.415z"/>
</svg>
