<?xml version="1.0" encoding="utf-8"?>
<!-- Generator: Adobe Illustrator 16.0.0, SVG Export Plug-In . SVG Version: 6.00 Build 0)  -->
<!DOCTYPE svg PUBLIC "-//W3C//DTD SVG 1.1//EN" "http://www.w3.org/Graphics/SVG/1.1/DTD/svg11.dtd">
<svg version="1.1" id="Calque_1" xmlns="http://www.w3.org/2000/svg" xmlns:xlink="http://www.w3.org/1999/xlink" x="0px" y="0px"
	 width="1190.551px" height="1190.551px" viewBox="0 0 1190.551 1190.551" enable-background="new 0 0 1190.551 1190.551"
	 xml:space="preserve">
<g>
	<path fill="#010202" d="M593.695,257.417c0,0,0,159.585,0,212.779c0,36-10.396,50-48.896,50H371.707v32.312v5.099v32.312h173.091
		c38.5,0,48.896,14.001,48.896,50.001c0,53.192,0,212.776,0,212.776h76.104V557.607v-5.099V257.417H593.695z"/>
	<path fill="#010202" d="M112.37,520.035h36.852v-17.931h36.985v17.931h39.453v-17.931h42.588v17.931h39.451v-17.931h39.451v17.931
		h39.45v-17.931h42.653v17.931h39.449v-17.931h40.349v17.931h39.452v-17.931h23.534v-28.631h21.52V432.23h-21.52v-28.164h21.52
		v-41.243h-21.52v-34.886h21.52v-41.246h-21.52v-35.638h21.52v-41.245h-21.52v-32.279h21.52v-41.242h-21.52v-34.072h21.52V60.969
		h-21.52V17.931h-23.534V0h-39.452v17.931h-40.349V0h-39.449v17.931h-42.653V0h-39.45v17.931h-39.451V0h-39.451v17.931H225.66V0
		h-39.453v17.931h-36.985V0h-39.451v17.931H77.495V0H38.042v17.931H19.724v43.038H0v41.245h19.724v34.072H0v41.242h19.724v32.279H0
		v41.245h19.724v35.638H0v41.246h19.724v34.886H0v41.243h19.724v28.164H0v41.244h19.724v28.631h18.318v17.931h39.453v-17.931h32.275
		v17.844c-0.755-0.016-1.511-0.029-2.271-0.029C48.225,519.92,0,568.146,0,627.419c0,59.275,48.225,107.5,107.5,107.5
		c59.273,0,107.5-48.224,107.5-107.5C215,569.779,169.392,522.592,112.37,520.035z"/>
	<path fill="#010202" d="M296.512,622.318c-59.273,0-107.5,48.224-107.5,107.5c0,59.275,48.226,107.5,107.5,107.5
		s107.5-48.226,107.5-107.5C404.012,670.541,355.786,622.318,296.512,622.318z"/>
</g>
</svg>
