<?xml version="1.0" encoding="utf-8"?>
<!-- Generator: Adobe Illustrator 16.0.0, SVG Export Plug-In . SVG Version: 6.00 Build 0)  -->
<!DOCTYPE svg PUBLIC "-//W3C//DTD SVG 1.1//EN" "http://www.w3.org/Graphics/SVG/1.1/DTD/svg11.dtd">
<svg version="1.1" id="Calque_1" xmlns="http://www.w3.org/2000/svg" xmlns:xlink="http://www.w3.org/1999/xlink" x="0px" y="0px"
	 width="1190.551px" height="1190.551px" viewBox="0 0 1190.551 1190.551" enable-background="new 0 0 1190.551 1190.551"
	 xml:space="preserve">
<path fill="#010202" d="M593.558,87.805V46.561h-19.724V17.93h-18.318V0h-39.453v17.93h-32.276V0h-39.449v17.93h-36.986V0h-39.453
	v17.93H325.31V0h-39.451v17.93h-39.451V0h-39.45v17.93h-42.652V0h-39.451v17.93H84.506V0H45.055v17.93H21.519v28.631H0v41.244
	h21.519v28.164H0v41.243h21.519v34.886H0v41.246h21.519v35.638H0v41.245h21.519v32.279H0v41.243h21.519v34.071H0v41.245h21.519
	v43.038h23.536v17.932H0v295.092v5.099v295.09h76.103c0,0,0-88.01,0-155.099c0.042,59.239,48.25,107.423,107.499,107.423
	c59.274,0,107.5-48.226,107.5-107.5c0-59.273-48.227-107.5-107.5-107.5c-59.25,0-107.457,48.185-107.499,107.423
	c0-23.188,0-43.866,0-57.527c0-36,10.397-50,48.897-50h173.09v-32.312v-5.1v-32.312L125,782.813c-38.5,0-48.897-14-48.897-50
	c0-53.194,0-212.777,0-212.777h8.403v-17.932h40.348v17.932h39.391c-49.064,9.944-86.114,53.405-86.114,105.36
	c0,59.272,48.225,107.5,107.5,107.5c59.274,0,107.5-48.228,107.5-107.5c0-51.955-37.049-95.417-86.114-105.36h39.39v-17.932h39.451
	v17.932h39.451v-17.932h42.588v17.932h39.453v-17.932h36.986v17.932h39.449v-17.932h32.276v17.932h39.453v-17.932h18.318v-43.038
	h19.724v-41.245h-19.724v-34.071h19.724v-41.243h-19.724v-32.279h19.724v-41.245h-19.724v-35.638h19.724v-41.246h-19.724v-34.886
	h19.724v-41.243h-19.724V87.805H593.558z M185.631,517.896c-7.3,0-14.431,0.735-21.326,2.128v-17.92h42.652v17.92
	C200.062,518.631,192.931,517.896,185.631,517.896z"/>
</svg>
