<?xml version="1.0" encoding="utf-8"?>
<!-- Generator: Adobe Illustrator 16.0.0, SVG Export Plug-In . SVG Version: 6.00 Build 0)  -->
<!DOCTYPE svg PUBLIC "-//W3C//DTD SVG 1.1//EN" "http://www.w3.org/Graphics/SVG/1.1/DTD/svg11.dtd">
<svg version="1.1" id="Calque_1" xmlns="http://www.w3.org/2000/svg" xmlns:xlink="http://www.w3.org/1999/xlink" x="0px" y="0px"
	 width="1190.551px" height="1190.551px" viewBox="0 0 1190.551 1190.551" enable-background="new 0 0 1190.551 1190.551"
	 xml:space="preserve">
<g>
	<path fill="#010202" d="M774.552,593.707c-2.349,0-4.676,0.084-6.986,0.233v-21.046h43.038v-23.536h17.931v-39.451h-17.931v-40.348
		h17.931v-39.451h-17.931v-42.652h17.931v-39.45h-17.931v-39.452h17.931v-39.45h-17.931v-42.589h17.931v-39.453h-17.931v-36.985
		h17.931v-39.451h-17.931V78.35h17.931V38.897h-17.931V20.579h-43.038V0.855h-41.245v19.724h-34.07V0.855h-41.243v19.724h-32.279
		V0.855h-41.245v19.724h-35.638V0.855h-41.246v19.724h-34.886V0.855H424.47v19.724h-28.165V0.855h-41.244v19.724H326.43v18.318
		H308.5V78.35h17.93v32.275H308.5v39.451h17.93v36.985H308.5v39.453h17.93v42.588H308.5v39.45h17.93v39.452H308.5v39.45h17.93
		v42.652H308.5v39.451h17.93v40.348H308.5v39.451h17.93v23.536h28.631v21.519h41.244v-21.519h28.164v21.519h41.243v-21.519h34.886
		v21.519h39.438c-49.937,9.251-87.873,53.126-87.873,105.698c0,59.275,48.225,107.5,107.5,107.5
		c57.99,0,105.396-46.16,107.423-103.668c1.457,58.016,49.104,104.762,107.465,104.762c59.272,0,107.5-48.225,107.5-107.5
		C882.052,641.932,833.823,593.707,774.552,593.707z M618.727,572.894h32.279v21.519h41.243v-21.519h34.07v21.519h35.948
		c-52.267,5.974-93.26,49.575-95.141,102.962c-1.29-51.354-38.771-93.871-87.837-102.962h39.437V572.894L618.727,572.894z
		 M541.844,572.894h35.638v21.202c-5.798-0.971-11.749-1.485-17.817-1.485c-6.07,0-12.021,0.514-17.819,1.485L541.844,572.894
		L541.844,572.894z"/>
	<path fill="#010202" d="M384.603,807.191c0-53.193,0-212.777,0-212.777H308.5v295.092v5.098v295.092h76.103
		c0,0,0-159.584,0-212.779c0-36,10.397-50,48.897-50h173.09v-32.312v-5.098v-32.312H433.5
		C395,857.191,384.603,843.191,384.603,807.191z"/>
</g>
</svg>
