<?xml version="1.0" encoding="utf-8"?>
<!-- Generator: Adobe Illustrator 16.0.0, SVG Export Plug-In . SVG Version: 6.00 Build 0)  -->
<!DOCTYPE svg PUBLIC "-//W3C//DTD SVG 1.1//EN" "http://www.w3.org/Graphics/SVG/1.1/DTD/svg11.dtd">
<svg version="1.1" id="Calque_1" xmlns="http://www.w3.org/2000/svg" xmlns:xlink="http://www.w3.org/1999/xlink" x="0px" y="0px"
	 width="1190.551px" height="1190.551px" viewBox="0 0 1190.551 1190.551" enable-background="new 0 0 1190.551 1190.551"
	 xml:space="preserve">
<g>
	<path fill="#010202" d="M680.137,964.998c-36,0-50-10.397-50-48.897V743.01h-4.564v-19.724h34.885v19.724h41.244v-19.724h28.164
		v19.724h7.869h33.375v-19.724h28.631v-18.317h17.93v-39.453h-17.93V633.24h17.93v-39.451h-17.93v-36.985h17.93v-39.453h-17.93
		v-42.589h17.93v-39.451h-17.93V395.86h17.93v-39.45h-17.93v-42.652h17.93v-39.451h-17.93v-40.349h17.93v-39.451h-17.93v-23.536
		H771.11v-21.519h-41.244v21.519h-28.164v-21.519h-41.244v21.519h-34.885v-21.519h-41.247v21.519h-35.638v-21.519h-41.245v21.519
		h-32.279v-21.519h-41.241v21.519H399.85v-21.519h-41.246v21.519h-43.038v23.536h-17.931v39.451h17.931v40.348h-17.931v39.451
		h17.931v42.652h-17.931v39.45h17.931v39.451h-17.931v39.451h17.931v42.588h-17.931v39.453h17.931v36.985h-17.931v39.451h17.931
		v32.275h-17.931v39.453h17.931v18.317h43.038v19.724h41.245v-19.724h34.072v19.724h41.241v-19.724h32.279v19.724h41.245v-19.724
		h35.638v19.724h-23.914l0.001,173.091c0,38.5-14,48.897-50,48.897c-53.192,0-212.776,0-212.776,0v76.103h295.091h5.1h295.09
		v-76.103C892.916,964.998,733.33,964.998,680.137,964.998z"/>
	<path fill="#010202" d="M518.325,849.953c0-59.273-48.225-107.499-107.5-107.499c-59.273,0-107.5,48.225-107.5,107.499
		c0,59.275,48.228,107.5,107.5,107.5C470.1,957.453,518.325,909.229,518.325,849.953z"/>
	<path fill="#010202" d="M630.235,850.51c0,59.272,48.225,107.5,107.5,107.5c59.273,0,107.5-48.227,107.5-107.5
		c0-59.274-48.227-107.5-107.5-107.5C678.457,743.01,630.235,791.234,630.235,850.51z"/>
</g>
</svg>
