<?xml version="1.0" encoding="utf-8"?>
<!-- Generator: Adobe Illustrator 16.0.0, SVG Export Plug-In . SVG Version: 6.00 Build 0)  -->
<!DOCTYPE svg PUBLIC "-//W3C//DTD SVG 1.1//EN" "http://www.w3.org/Graphics/SVG/1.1/DTD/svg11.dtd">
<svg version="1.1" id="Calque_1" xmlns="http://www.w3.org/2000/svg" xmlns:xlink="http://www.w3.org/1999/xlink" x="0px" y="0px"
	 width="1190.551px" height="1190.551px" viewBox="0 0 1190.551 1190.551" enable-background="new 0 0 1190.551 1190.551"
	 xml:space="preserve">
<g>
	<path fill="#010202" d="M520.034,77.495V38.042h-17.931V19.724h-43.038V0h-41.245v19.724h-34.071V0h-41.243v19.724h-32.279V0
		h-41.245v19.724h-35.638V0h-41.246v19.724h-34.886V0h-41.243v19.724H87.805V0H46.561v19.724H17.93v18.318H0v39.453h17.93v32.275H0
		v39.451h17.93v36.985H0v39.453h17.93v42.588H0v39.45h17.93v39.452H0v39.45h17.93v42.652H0v39.451h17.93v40.348H0v39.451h17.93
		v23.536h28.631v21.519h41.244v-21.519h28.164v21.519h41.243v-21.519h34.886v21.519h39.438
		c-49.936,9.251-87.873,53.126-87.873,105.698c0,59.276,48.225,107.5,107.5,107.5c59.274,0,107.499-48.224,107.499-107.5
		c0-52.572-37.937-96.447-87.872-105.698h39.437v-21.519h32.279v21.519h41.243v-21.519h34.071v21.519h41.245v-21.519h43.038v-23.536
		h17.931v-39.451h-17.931v-40.348h17.931v-39.451h-17.931v-42.652h17.931v-39.45h-17.931v-39.452h17.931v-39.45h-17.931V225.66
		h17.931v-39.453h-17.931v-36.985h17.931v-39.451h-17.931V77.495H520.034z M251.163,591.756c-6.07,0-12.021,0.514-17.819,1.485
		v-21.202h35.638v21.202C263.184,592.27,257.233,591.756,251.163,591.756z"/>
	<path fill="#010202" d="M76.103,806.337c0-53.194,0-212.778,0-212.778H0V888.65v5.099v295.092h76.103c0,0,0-88.103,0-155.205
		c0.042,59.237,48.25,107.423,107.499,107.423c59.274,0,107.5-48.227,107.5-107.5c0-59.224-48.144-107.414-107.346-107.498H298.09
		v-32.312v-5.099v-32.312H125C86.5,856.337,76.103,842.337,76.103,806.337z M76.103,1033.481c0-23.146,0-43.781,0-57.421
		c0-36,10.397-50,48.897-50h58.448C124.269,926.144,76.145,974.292,76.103,1033.481z"/>
</g>
</svg>
