<?xml version="1.0" encoding="utf-8"?>
<!-- Generator: Adobe Illustrator 16.0.0, SVG Export Plug-In . SVG Version: 6.00 Build 0)  -->
<!DOCTYPE svg PUBLIC "-//W3C//DTD SVG 1.1//EN" "http://www.w3.org/Graphics/SVG/1.1/DTD/svg11.dtd">
<svg version="1.1" id="Calque_1" xmlns="http://www.w3.org/2000/svg" xmlns:xlink="http://www.w3.org/1999/xlink" x="0px" y="0px"
	 width="1190.551px" height="1190.551px" viewBox="0 0 1190.551 1190.551" enable-background="new 0 0 1190.551 1190.551"
	 xml:space="preserve">
<g>
	<path fill="#010202" d="M854.071,426.344c0,0,0,159.585,0,212.779c0,36-10.395,50-48.895,50H632.084v32.312v5.099v32.312h173.09
		c38.5,0,48.896,14.002,48.896,50.002c0,53.191,0,212.775,0,212.775h76.104V726.534v-5.099V426.344H854.071z"/>
	<path fill="#010202" d="M372.747,688.963h36.852v-17.932h36.985v17.932h39.453v-17.932h42.588v17.932h39.451v-17.932h39.45v17.932
		h39.451v-17.932h42.652v17.932h39.449v-17.932h40.35v17.932h39.451v-17.932h23.533V642.4h21.521v-41.243h-21.521v-28.164h21.521
		V531.75h-21.521v-34.886h21.521v-41.246h-21.521V419.98h21.521v-41.245h-21.521v-32.279h21.521v-41.242h-21.521v-34.072h21.521
		v-41.246h-21.521v-43.038h-23.533v-17.931h-39.451v17.931h-40.35v-17.931h-39.449v17.931h-42.652v-17.931h-39.451v17.931h-39.451
		v-17.931h-39.45v17.931h-42.588v-17.931h-39.453v17.931h-36.985v-17.931h-39.451v17.931h-32.275v-17.931h-39.453v17.931H280.1
		v43.038h-19.724v41.245H280.1v34.072h-19.724v41.242H280.1v32.279h-19.724v41.245H280.1v35.638h-19.724v41.246H280.1v34.886
		h-19.724v41.243H280.1v28.164h-19.724V642.4H280.1v28.631h18.318v17.932h39.453v-17.932h32.274v17.844
		c-0.755-0.016-1.511-0.029-2.271-0.029c-59.274,0.002-107.499,48.228-107.499,107.5c0,59.275,48.225,107.5,107.5,107.5
		c59.272,0,107.5-48.223,107.5-107.5C475.377,738.706,429.768,691.52,372.747,688.963z"/>
	<path fill="#010202" d="M556.888,791.246c-59.273,0-107.5,48.223-107.5,107.5c0,59.273,48.226,107.5,107.5,107.5
		c59.274,0,107.5-48.227,107.5-107.5C664.389,839.469,616.162,791.246,556.888,791.246z"/>
</g>
</svg>
