<?xml version="1.0" encoding="utf-8"?>
<!-- Generator: Adobe Illustrator 16.0.0, SVG Export Plug-In . SVG Version: 6.00 Build 0)  -->
<!DOCTYPE svg PUBLIC "-//W3C//DTD SVG 1.1//EN" "http://www.w3.org/Graphics/SVG/1.1/DTD/svg11.dtd">
<svg version="1.1" id="Calque_1" xmlns="http://www.w3.org/2000/svg" xmlns:xlink="http://www.w3.org/1999/xlink" x="0px" y="0px"
	 width="1190.551px" height="1190.551px" viewBox="0 0 1190.551 1190.551" enable-background="new 0 0 1190.551 1190.551"
	 xml:space="preserve">
<path fill="#010202" d="M892.054,139.831V98.586h-21.521V55.548H847V37.617h-39.452v17.931h-40.35V37.617H727.75v17.931h-42.653
	V37.617h-39.45v17.931h-39.451V37.617h-39.45v17.931h-42.589V37.617h-39.453v17.931h-36.985V37.617h-39.451v17.931h-32.275V37.617
	h-39.453v17.931H318.22v43.038h-19.724v41.245h19.724v34.072h-19.724v41.242h19.724v32.279h-19.724v41.245h19.724v35.638h-19.724
	v41.246h19.724v34.886h-19.724v41.243h19.724v28.164h-19.724v41.244h19.724v28.631h18.318v17.931h-38.042v295.092v5.1v295.09h76.103
	c0,0,0-88.011,0-155.1c0.042,59.239,48.25,107.423,107.499,107.423c59.274,0,107.5-48.226,107.5-107.5
	c0-59.272-48.227-107.5-107.5-107.5c-59.25,0-107.457,48.186-107.499,107.423c0-23.188,0-43.865,0-57.526c0-36,10.397-50,48.897-50
	h173.09v-32.312v-5.1V820.43h-173.09c-38.5,0-48.897-14-48.897-50c0-53.193,0-212.776,0-212.776h1.394v-17.931h32.274v17.931h39.451
	v-17.931h36.985v17.931h39.453v-17.931h42.588v17.931h39.451v-17.931h39.45v17.931h39.386
	c-49.062,9.946-86.108,53.405-86.108,105.358c0,59.273,48.227,107.5,107.5,107.5c59.274,0,107.501-48.227,107.501-107.5
	c0-51.953-37.047-95.414-86.109-105.358h39.385v-17.931h40.35v17.931h39.452v-17.931h23.533v-28.631h21.521v-41.244h-21.521v-28.164
	h21.521V400.44h-21.521v-34.886h21.521v-41.246h-21.521V288.67h21.521v-41.245h-21.521v-32.279h21.521v-41.242h-21.521v-34.072
	L892.054,139.831L892.054,139.831z M706.423,555.512c-7.3,0-14.431,0.735-21.326,2.128v-17.918h42.653v17.918
	C720.855,556.247,713.723,555.512,706.423,555.512z"/>
</svg>
