<?xml version="1.0" encoding="utf-8"?>
<!-- Generator: Adobe Illustrator 16.0.0, SVG Export Plug-In . SVG Version: 6.00 Build 0)  -->
<!DOCTYPE svg PUBLIC "-//W3C//DTD SVG 1.1//EN" "http://www.w3.org/Graphics/SVG/1.1/DTD/svg11.dtd">
<svg version="1.1" id="Calque_1" xmlns="http://www.w3.org/2000/svg" xmlns:xlink="http://www.w3.org/1999/xlink" x="0px" y="0px"
	 width="1190.551px" height="1190.551px" viewBox="0 0 1190.551 1190.551" enable-background="new 0 0 1190.551 1190.551"
	 xml:space="preserve">
<path fill="#010202" d="M737.711,964.997c59.238-0.042,107.424-48.252,107.424-107.499c0-59.275-48.227-107.5-107.5-107.5
	c-59.25,0-107.457,48.184-107.498,107.423V743.01h-22.275v-21.52h32.279v21.52h41.244v-21.52h34.07v21.52h41.244v-21.52h43.039
	v-23.536h17.93v-39.451h-17.93v-40.348h17.93v-39.451h-17.93v-42.652h17.93v-39.45h-17.93V457.15h17.93V417.7h-17.93v-42.589h17.93
	v-39.453h-17.93v-36.985h17.93v-39.451h-17.93v-32.276h17.93v-39.453h-17.93v-18.318h-43.039v-19.724h-41.244v19.724h-34.07v-19.724
	h-41.244v19.724h-32.279v-19.724h-41.245v19.724h-35.638v-19.724h-41.246v19.724h-34.886v-19.724h-41.243v19.724H385.44v-19.724
	h-41.244v19.724h-28.631v18.318h-17.93v39.453h17.93v32.275h-17.93v39.451h17.93v36.985h-17.93v39.453h17.93v42.588h-17.93v39.45
	h17.93V496.6h-17.93v39.45h17.93v42.652h-17.93v39.451h17.93v40.348h-17.93v39.451h17.93v23.536h28.631v21.52h41.244v-21.52h28.164
	v21.52h41.243v-21.52h34.886v21.52h41.246v-21.52h35.638v21.52h-6.205l0.001,173.09c0,38.5-14,48.897-50,48.897
	c-22.634,0-64.53,0-105.199,0c59.236-0.04,107.422-48.248,107.422-107.497c0-59.275-48.228-107.5-107.5-107.5
	c-59.275,0-107.5,48.225-107.5,107.5c0,59.248,48.183,107.457,107.423,107.499c-54.853,0-107.423,0-107.423,0v76.103h295.091h5.1
	h295.09v-76.103C892.916,964.997,804.815,964.997,737.711,964.997z M630.137,916.1v-58.523
	c0.041,59.211,48.207,107.38,107.422,107.422c-23.146,0-43.783,0-57.422,0C644.137,964.997,630.137,954.6,630.137,916.1z"/>
</svg>
