<?xml version="1.0" encoding="utf-8"?>
<!-- Generator: Adobe Illustrator 16.0.0, SVG Export Plug-In . SVG Version: 6.00 Build 0)  -->
<!DOCTYPE svg PUBLIC "-//W3C//DTD SVG 1.1//EN" "http://www.w3.org/Graphics/SVG/1.1/DTD/svg11.dtd">
<svg version="1.1" id="Calque_1" xmlns="http://www.w3.org/2000/svg" xmlns:xlink="http://www.w3.org/1999/xlink" x="0px" y="0px"
	 width="1190.551px" height="1190.551px" viewBox="0 0 1190.551 1190.551" enable-background="new 0 0 1190.551 1190.551"
	 xml:space="preserve">
<g>
	<path fill="#010202" d="M375.115,590.938h122.873v253.676h103.471V590.938h122.77c-29.285,19.226-48.666,52.353-48.666,89.925
		c0,59.273,48.225,107.5,107.5,107.5c59.273,0,107.5-48.227,107.5-107.5s-48.227-107.5-107.5-107.5
		c-21.658,0-41.836,6.444-58.73,17.507V370.533h122.873V249.335H252.243v121.196h122.872V590.938z"/>
	<path fill="#010202" d="M725.528,865.111c-36,0-50-10.396-50-48.896v-173.09h-32.311h-5.1h-32.314v173.09
		c0,38.5-14,48.896-50,48.896c-42.659,0-153.735,0-196.062,0c-10.452,0-16.716,0-16.716,0v76.104h295.091h5.1h295.092v-76.104
		C938.309,865.111,778.723,865.111,725.528,865.111z"/>
	<path fill="#010202" d="M467.243,757.611c0-59.275-48.226-107.5-107.5-107.5s-107.5,48.225-107.5,107.5
		c0,59.273,48.227,107.5,107.5,107.5C419.018,865.111,467.243,816.887,467.243,757.611z"/>
</g>
</svg>
