<?xml version="1.0" encoding="utf-8"?>
<!-- Generator: Adobe Illustrator 16.0.0, SVG Export Plug-In . SVG Version: 6.00 Build 0)  -->
<!DOCTYPE svg PUBLIC "-//W3C//DTD SVG 1.1//EN" "http://www.w3.org/Graphics/SVG/1.1/DTD/svg11.dtd">
<svg version="1.1" id="Calque_1" xmlns="http://www.w3.org/2000/svg" xmlns:xlink="http://www.w3.org/1999/xlink" x="0px" y="0px"
	 width="1190.551px" height="1190.551px" viewBox="0 0 1190.551 1190.551" enable-background="new 0 0 1190.551 1190.551"
	 xml:space="preserve">
<g>
	<path fill="#010202" d="M341.603,718.153V595.43c17.891,13.296,40.036,21.173,63.987,21.173c59.274,0,107.501-48.226,107.501-107.5
		c0-59.275-48.227-107.5-107.501-107.5c-59.272,0-107.5,48.225-107.5,107.5c0,35.232,17.039,66.56,43.309,86.178H298.09v-86.178
		V300.19v-5.1V-0.001h-76.103c0,0,0,159.586,0,212.779c0,36-10.397,50-48.897,50H0v32.312v5.099v32.314l173.09-0.001
		c38.5,0,48.897,14,48.897,50c0,53.193,0,212.777,0,212.777H121.197V472.407H0v594.961h121.196V944.496h220.406V821.623h253.676
		V718.153H341.603z"/>
	<path fill="#010202" d="M107.5,262.681c59.275,0,107.5-48.225,107.5-107.5c0-59.274-48.224-107.5-107.5-107.5
		C48.226,47.681,0,95.907,0,155.181C0,214.456,48.225,262.681,107.5,262.681z"/>
</g>
</svg>
