<?xml version="1.0" encoding="utf-8"?>
<!-- Generator: Adobe Illustrator 16.0.0, SVG Export Plug-In . SVG Version: 6.00 Build 0)  -->
<!DOCTYPE svg PUBLIC "-//W3C//DTD SVG 1.1//EN" "http://www.w3.org/Graphics/SVG/1.1/DTD/svg11.dtd">
<svg version="1.1" id="Calque_1" xmlns="http://www.w3.org/2000/svg" xmlns:xlink="http://www.w3.org/1999/xlink" x="0px" y="0px"
	 width="1190.551px" height="1190.551px" viewBox="0 0 1190.551 1190.551" enable-background="new 0 0 1190.551 1190.551"
	 xml:space="preserve">
<g>
	<polygon fill="#010202" points="297.795,131.359 297.795,252.557 420.667,252.557 420.667,472.962 543.54,472.962 543.54,726.639 
		647.01,726.639 647.01,472.962 769.883,472.962 769.883,252.557 892.756,252.557 892.756,131.359 	"/>
	<path fill="#010202" d="M689.158,742.136c-39.854,0-74.709,21.8-93.273,54.1V764.1V759v-32.313l-173.09,0.001
		c-38.5,0-48.897-14-48.897-50c0-53.193,0-212.778,0-212.778h-76.103v295.092v5.1v295.091h76.103c0,0,0-88.01,0-155.098
		c0.042,59.237,48.251,107.423,107.499,107.423c59.275,0,107.5-48.225,107.5-107.5c0-7.593-0.796-15-2.3-22.15
		c13.724,43.577,54.511,75.271,102.562,75.271c59.275,0,107.5-48.227,107.5-107.5C796.658,790.361,748.432,742.136,689.158,742.136z
		 M481.396,796.516c-59.248,0-107.457,48.181-107.499,107.423c0-23.188,0-43.866,0-57.526c0-36,10.397-50,48.897-50h172.989
		c-8.984,15.702-14.126,33.873-14.126,53.224c0,7.591,0.797,14.999,2.301,22.148C570.232,828.206,529.447,796.516,481.396,796.516z"
		/>
</g>
</svg>
