<?xml version="1.0" encoding="utf-8"?>
<!-- Generator: Adobe Illustrator 16.0.0, SVG Export Plug-In . SVG Version: 6.00 Build 0)  -->
<!DOCTYPE svg PUBLIC "-//W3C//DTD SVG 1.1//EN" "http://www.w3.org/Graphics/SVG/1.1/DTD/svg11.dtd">
<svg version="1.1" id="Calque_1" xmlns="http://www.w3.org/2000/svg" xmlns:xlink="http://www.w3.org/1999/xlink" x="0px" y="0px"
	 width="1190.551px" height="1190.551px" viewBox="0 0 1190.551 1190.551" enable-background="new 0 0 1190.551 1190.551"
	 xml:space="preserve">
<g>
	<path fill="#010202" d="M594.962,595.279V474.082H472.09V253.676H349.216V0H245.745v253.676H123.767
		C175.35,245.812,215,201.152,215,147.406c0-59.274-48.228-107.5-107.5-107.5C48.226,39.906,0,88.132,0,147.406
		c0,59.275,48.226,107.5,107.5,107.5c5.219,0,10.351-0.381,15.373-1.104v220.281H0v121.196h-0.001v76.104c0,0,52.62,0,107.501,0
		c40.693,0,82.63,0,105.278,0c36,0,50,10.396,50,48.896v173.09h32.312h5.1h32.313l-0.001-173.09c0-38.5,14-48.896,50-48.896
		c53.193,0,212.777,0,212.777,0v-76.104H594.962z"/>
	<path fill="#010202" d="M0,778.882c0,59.274,48.225,107.5,107.5,107.5c59.273,0,107.5-48.225,107.5-107.5
		s-48.227-107.5-107.5-107.5C48.225,671.382,0,719.606,0,778.882z"/>
</g>
</svg>
