<?xml version="1.0" encoding="utf-8"?>
<!-- Generator: Adobe Illustrator 16.0.0, SVG Export Plug-In . SVG Version: 6.00 Build 0)  -->
<!DOCTYPE svg PUBLIC "-//W3C//DTD SVG 1.1//EN" "http://www.w3.org/Graphics/SVG/1.1/DTD/svg11.dtd">
<svg version="1.1" id="Calque_1" xmlns="http://www.w3.org/2000/svg" xmlns:xlink="http://www.w3.org/1999/xlink" x="0px" y="0px"
	 width="1190.551px" height="1190.551px" viewBox="0 0 1190.551 1190.551" enable-background="new 0 0 1190.551 1190.551"
	 xml:space="preserve">
<path fill="#010202" d="M595.281,594.961H300.19h-5.1H121.197V472.089h220.406V349.216h253.676V245.745H341.603V122.873H121.197V0H0
	v594.961h-0.001v76.103c0,0,52.571,0,107.424,0C48.183,671.106,0,719.312,0,778.563c0,59.275,48.223,107.5,107.5,107.5
	c59.274,0,107.5-48.226,107.5-107.5c0-59.251-48.183-107.457-107.423-107.499c40.669,0,82.567,0,105.201,0c36,0,50,10.396,50,48.896
	v173.092h32.312h5.1h32.313l-0.001-173.092c0-38.5,14-48.896,50-48.896c13.661,0,34.339,0,57.528,0
	c-59.238,0.042-107.423,48.251-107.423,107.499c0,59.275,48.227,107.5,107.5,107.5c59.276,0,107.5-48.225,107.5-107.5
	c0-59.248-48.182-107.457-107.423-107.499c67.088,0,155.095,0,155.095,0V594.961z"/>
</svg>
