<?xml version="1.0" encoding="utf-8"?>
<!-- Generator: Adobe Illustrator 16.0.0, SVG Export Plug-In . SVG Version: 6.00 Build 0)  -->
<!DOCTYPE svg PUBLIC "-//W3C//DTD SVG 1.1//EN" "http://www.w3.org/Graphics/SVG/1.1/DTD/svg11.dtd">
<svg version="1.1" id="Calque_1" xmlns="http://www.w3.org/2000/svg" xmlns:xlink="http://www.w3.org/1999/xlink" x="0px" y="0px"
	 width="1190.551px" height="1190.551px" viewBox="0 0 1190.551 1190.551" enable-background="new 0 0 1190.551 1190.551"
	 xml:space="preserve">
<path fill="#010202" d="M474.081,0v122.872H253.677v122.873H0v103.471h253.677v122.871h-31.689c0,0,0,159.587,0,212.779
	c0,36-10.397,50-48.897,50h-65.513C166.817,734.824,215,686.617,215,627.367c0-59.271-48.225-107.499-107.5-107.499
	C48.226,519.868,0,568.095,0,627.367c0,59.25,48.185,107.457,107.423,107.499H0v32.312v5.099v32.313l107.452,0.001
	C48.199,804.617,0,852.83,0,912.091c0,59.276,48.225,107.5,107.5,107.5c59.273,0,107.5-48.222,107.5-107.5
	c0-59.26-48.201-107.474-107.452-107.499h65.542c38.5,0,48.897,14,48.897,50c0,53.192,0,212.776,0,212.776h76.103V772.278v-5.099
	V472.088h175.991v122.873h121.197V0H474.081z"/>
</svg>
