<?xml version="1.0" encoding="utf-8"?>
<!-- Generator: Adobe Illustrator 16.0.0, SVG Export Plug-In . SVG Version: 6.00 Build 0)  -->
<!DOCTYPE svg PUBLIC "-//W3C//DTD SVG 1.1//EN" "http://www.w3.org/Graphics/SVG/1.1/DTD/svg11.dtd">
<svg version="1.1" id="Calque_1" xmlns="http://www.w3.org/2000/svg" xmlns:xlink="http://www.w3.org/1999/xlink" x="0px" y="0px"
	 width="1190.551px" height="1190.551px" viewBox="0 0 1190.551 1190.551" enable-background="new 0 0 1190.551 1190.551"
	 xml:space="preserve">
<g>
	<path fill="#010202" d="M646.853,743.87V490.194h122.873V269.789h122.873V148.591H297.637v121.196h122.872v220.406h122.873v253.676
		H405.137H297.636v76.104c0,0,52.62,0,107.501,0c40.692,0,82.63,0,105.277,0c36,0,50,10.396,50,48.896v173.09h32.312h5.1h32.313
		l-0.001-173.09c0-38.5,14-48.896,50-48.896c53.192,0,212.776,0,212.776,0v-76.104L646.853,743.87L646.853,743.87z"/>
	<path fill="#010202" d="M297.637,927.473c0,59.275,48.225,107.5,107.5,107.5c59.274,0,107.5-48.225,107.5-107.5
		c0-59.273-48.225-107.5-107.5-107.5C345.863,819.973,297.637,868.199,297.637,927.473z"/>
	<path fill="#010202" d="M512.637,636.37c0-59.275-48.227-107.5-107.5-107.5c-59.272,0-107.5,48.225-107.5,107.5
		c0,59.274,48.227,107.5,107.5,107.5C464.411,743.87,512.637,695.645,512.637,636.37z"/>
</g>
</svg>
