<?xml version="1.0" encoding="utf-8"?>
<!-- Generator: Adobe Illustrator 16.0.0, SVG Export Plug-In . SVG Version: 6.00 Build 0)  -->
<!DOCTYPE svg PUBLIC "-//W3C//DTD SVG 1.1//EN" "http://www.w3.org/Graphics/SVG/1.1/DTD/svg11.dtd">
<svg version="1.1" id="Calque_1" xmlns="http://www.w3.org/2000/svg" xmlns:xlink="http://www.w3.org/1999/xlink" x="0px" y="0px"
	 width="1190.551px" height="1190.551px" viewBox="0 0 1190.551 1190.551" enable-background="new 0 0 1190.551 1190.551"
	 xml:space="preserve">
<g>
	<path fill="#010202" d="M639.24,779.745V657.021c17.892,13.296,40.036,21.173,63.987,21.173c59.273,0,107.501-48.226,107.501-107.5
		c0-59.275-48.228-107.5-107.501-107.5c-59.272,0-107.5,48.225-107.5,107.5c0,35.232,17.039,66.56,43.309,86.178h-43.309v-86.178
		V361.782v-5.1V61.591h-76.104c0,0,0,159.586,0,212.779c0,36-10.396,50-48.896,50h-173.09v32.312v5.099v32.314l173.09-0.001
		c38.5,0,48.896,14,48.896,50c0,53.193,0,212.777,0,212.777h-100.79V533.999H297.637v594.961h121.195v-122.872h220.406V883.215
		h253.676v-103.47H639.24z"/>
	<path fill="#010202" d="M405.137,324.273c59.274,0,107.5-48.225,107.5-107.5c0-59.274-48.225-107.5-107.5-107.5
		c-59.274,0-107.5,48.226-107.5,107.5C297.637,276.048,345.862,324.273,405.137,324.273z"/>
</g>
</svg>
