<?xml version="1.0" encoding="utf-8"?>
<!-- Generator: Adobe Illustrator 16.0.0, SVG Export Plug-In . SVG Version: 6.00 Build 0)  -->
<!DOCTYPE svg PUBLIC "-//W3C//DTD SVG 1.1//EN" "http://www.w3.org/Graphics/SVG/1.1/DTD/svg11.dtd">
<svg version="1.1" id="Calque_1" xmlns="http://www.w3.org/2000/svg" xmlns:xlink="http://www.w3.org/1999/xlink" x="0px" y="0px"
	 width="1190.551px" height="1190.551px" viewBox="0 0 1190.551 1190.551" enable-background="new 0 0 1190.551 1190.551"
	 xml:space="preserve">
<g>
	<path fill="#010202" d="M694.075-0.001c0,0,0,159.586,0,212.779c0,36-10.396,50-48.896,50H472.09v-9.103h-15.373H349.216v-107.5V0
		H245.745v253.676H123.768C175.35,245.812,215,201.153,215,147.406c0-59.274-48.227-107.5-107.5-107.5
		C48.225,39.906,0,88.13,0,147.406s48.225,107.5,107.5,107.5c5.219,0,10.351-0.382,15.373-1.104v220.281H0v121.196h594.962V474.082
		H472.09V332.504l173.089-0.001c38.5,0,48.896,14,48.896,50c0,53.193,0,212.777,0,212.777h76.104V300.19v-5.1V-0.001H694.075z"/>
	<path fill="#010202" d="M456.717,253.676c59.271,0,107.5-48.225,107.5-107.5c0-59.274-48.229-107.5-107.5-107.5
		c-59.275,0-107.501,48.226-107.501,107.5C349.216,205.451,397.442,253.676,456.717,253.676z"/>
</g>
</svg>
