<?xml version="1.0" encoding="utf-8"?>
<!-- Generator: Adobe Illustrator 16.0.0, SVG Export Plug-In . SVG Version: 6.00 Build 0)  -->
<!DOCTYPE svg PUBLIC "-//W3C//DTD SVG 1.1//EN" "http://www.w3.org/Graphics/SVG/1.1/DTD/svg11.dtd">
<svg version="1.1" id="Calque_1" xmlns="http://www.w3.org/2000/svg" xmlns:xlink="http://www.w3.org/1999/xlink" x="0px" y="0px"
	 width="1190.551px" height="1190.551px" viewBox="0 0 1190.551 1190.551" enable-background="new 0 0 1190.551 1190.551"
	 xml:space="preserve">
<g>
	<polygon fill="#010202" points="0,0 0,121.197 122.872,121.197 122.872,341.603 245.745,341.603 245.745,595.279 349.216,595.279 
		349.216,341.603 472.089,341.603 472.089,121.197 594.962,121.197 594.962,0 	"/>
	<path fill="#010202" d="M391.364,610.776c-39.853,0-74.709,21.8-93.273,54.1V632.74v-5.099v-32.314L125,595.328
		c-38.5,0-48.897-14-48.897-50c0-53.193,0-212.778,0-212.778H0v295.092v5.099v295.091h76.103c0,0,0-88.01,0-155.098
		c0.042,59.238,48.251,107.423,107.499,107.423c59.275,0,107.5-48.224,107.5-107.5c0-7.592-0.796-15-2.3-22.15
		c13.725,43.577,54.511,75.27,102.562,75.27c59.275,0,107.5-48.226,107.5-107.5C498.864,659.002,450.638,610.776,391.364,610.776z
		 M183.602,665.156c-59.248,0-107.457,48.181-107.499,107.423c0-23.188,0-43.866,0-57.526c0-36,10.397-50,48.897-50h172.99
		c-8.985,15.702-14.127,33.873-14.127,53.223c0,7.591,0.796,14.999,2.3,22.149C272.438,696.847,231.653,665.156,183.602,665.156z"/>
</g>
</svg>
