<?xml version="1.0" encoding="utf-8"?>
<!-- Generator: Adobe Illustrator 16.0.0, SVG Export Plug-In . SVG Version: 6.00 Build 0)  -->
<!DOCTYPE svg PUBLIC "-//W3C//DTD SVG 1.1//EN" "http://www.w3.org/Graphics/SVG/1.1/DTD/svg11.dtd">
<svg version="1.1" id="Calque_1" xmlns="http://www.w3.org/2000/svg" xmlns:xlink="http://www.w3.org/1999/xlink" x="0px" y="0px"
	 width="1190.551px" height="1190.551px" viewBox="0 0 1190.551 1190.551" enable-background="new 0 0 1190.551 1190.551"
	 xml:space="preserve">
<path fill="#010202" d="M892.916,743.711H597.825h-5.1H418.832V620.838h220.406V497.965h253.676V394.495H639.239V271.623H418.832
	V148.75H297.636v594.961h-0.001v76.104c0,0,52.57,0,107.424,0c-59.24,0.041-107.423,48.248-107.423,107.498
	c0,59.275,48.223,107.5,107.5,107.5c59.273,0,107.5-48.227,107.5-107.5c0-59.25-48.184-107.457-107.423-107.498
	c40.669,0,82.566,0,105.2,0c36,0,50,10.395,50,48.895v173.092h32.312h5.1h32.313l-0.001-173.092c0-38.5,14-48.895,50-48.895
	c13.661,0,34.339,0,57.527,0c-59.237,0.041-107.423,48.25-107.423,107.498c0,59.275,48.228,107.5,107.5,107.5
	c59.276,0,107.5-48.225,107.5-107.5c0-59.248-48.182-107.457-107.423-107.498c67.088,0,155.095,0,155.095,0v-76.104H892.916z"/>
</svg>
