<?xml version="1.0" encoding="utf-8"?>
<!-- Generator: Adobe Illustrator 16.0.0, SVG Export Plug-In . SVG Version: 6.00 Build 0)  -->
<!DOCTYPE svg PUBLIC "-//W3C//DTD SVG 1.1//EN" "http://www.w3.org/Graphics/SVG/1.1/DTD/svg11.dtd">
<svg version="1.1" id="Calque_1" xmlns="http://www.w3.org/2000/svg" xmlns:xlink="http://www.w3.org/1999/xlink" x="0px" y="0px"
	 width="1190.551px" height="1190.551px" viewBox="0 0 1190.551 1190.551" enable-background="new 0 0 1190.551 1190.551"
	 xml:space="preserve">
<g>
	<path fill="#010202" d="M742.032,735.02c-38.5,0-48.896-14-48.896-49.999c0-53.193,0-212.778,0-212.778h177.572V368.771H617.032
		V246.793c7.864,51.583,52.526,91.233,106.27,91.233c59.275,0,107.5-48.227,107.5-107.5c0-59.275-48.225-107.5-107.5-107.5
		c-59.271,0-107.499,48.225-107.499,107.5c0,5.219,0.382,10.351,1.104,15.373h-220.28V123.026H275.43v594.961h107.5h13.695V595.115
		h220.406v172.219v5.1v295.091h76.104c0,0,0-159.586,0-212.778c0-36,10.396-50,48.896-50h173.09v-32.312v-5.1v-32.314
		L742.032,735.02z"/>
	<path fill="#010202" d="M275.43,825.486c0,59.276,48.225,107.5,107.5,107.5c59.274,0,107.5-48.223,107.5-107.5
		c0-59.272-48.225-107.499-107.5-107.499C323.656,717.987,275.43,766.214,275.43,825.486z"/>
</g>
</svg>
