<?xml version="1.0" encoding="utf-8"?>
<!-- Generator: Adobe Illustrator 16.0.0, SVG Export Plug-In . SVG Version: 6.00 Build 0)  -->
<!DOCTYPE svg PUBLIC "-//W3C//DTD SVG 1.1//EN" "http://www.w3.org/Graphics/SVG/1.1/DTD/svg11.dtd">
<svg version="1.1" id="Calque_1" xmlns="http://www.w3.org/2000/svg" xmlns:xlink="http://www.w3.org/1999/xlink" x="0px" y="0px"
	 width="1190.551px" height="1190.551px" viewBox="0 0 1190.551 1190.551" enable-background="new 0 0 1190.551 1190.551"
	 xml:space="preserve">
<g>
	<path fill="#010202" d="M122.872,341.603h122.873v253.676h103.471V341.603h122.771c-29.285,19.225-48.666,52.352-48.666,89.925
		c0,59.273,48.224,107.5,107.5,107.5c59.272,0,107.5-48.227,107.5-107.5c0-59.274-48.228-107.5-107.5-107.5
		c-21.659,0-41.837,6.444-58.731,17.507V121.197h122.873V0H0v121.196h122.872V341.603z"/>
	<path fill="#010202" d="M473.286,615.776c-36,0-50-10.396-50-48.897v-173.09h-32.312h-5.1h-32.314l0.001,173.09
		c0,38.501-14,48.897-50,48.897c-42.659,0-153.736,0-196.062,0c-10.452,0-16.716,0-16.716,0v76.104h295.091h5.1h295.092v-76.104
		C686.067,615.776,526.481,615.776,473.286,615.776z"/>
	<path fill="#010202" d="M215,508.276c0-59.275-48.225-107.5-107.5-107.5c-59.274,0-107.5,48.224-107.5,107.5
		c0,59.274,48.227,107.5,107.5,107.5C166.776,615.776,215,567.551,215,508.276z"/>
</g>
</svg>
