<?xml version="1.0" encoding="utf-8"?>
<!-- Generator: Adobe Illustrator 16.0.0, SVG Export Plug-In . SVG Version: 6.00 Build 0)  -->
<!DOCTYPE svg PUBLIC "-//W3C//DTD SVG 1.1//EN" "http://www.w3.org/Graphics/SVG/1.1/DTD/svg11.dtd">
<svg version="1.1" id="Calque_1" xmlns="http://www.w3.org/2000/svg" xmlns:xlink="http://www.w3.org/1999/xlink" x="0px" y="0px"
	 width="1190.551px" height="1190.551px" viewBox="0 0 1190.551 1190.551" enable-background="new 0 0 1190.551 1190.551"
	 xml:space="preserve">
<g>
	<path fill="#010202" d="M349.216,595.279V341.603h122.873V121.197h122.873V0H0v121.196h122.872v220.406h122.873v253.676H107.5
		H-0.001v76.104c0,0,52.62,0,107.501,0c40.693,0,82.63,0,105.278,0c36,0,50,10.396,50,48.896v173.09h32.312h5.1h32.313
		l-0.001-173.09c0-38.5,14-48.896,50-48.896c53.193,0,212.777,0,212.777,0v-76.104H349.216z"/>
	<path fill="#010202" d="M0,778.882c0,59.274,48.225,107.5,107.5,107.5S215,838.156,215,778.882c0-59.275-48.224-107.5-107.5-107.5
		C48.226,671.382,0,719.608,0,778.882z"/>
	<path fill="#010202" d="M215,487.779c0-59.275-48.226-107.5-107.5-107.5c-59.272,0-107.5,48.225-107.5,107.5
		c0,59.274,48.227,107.5,107.5,107.5C166.775,595.279,215,547.053,215,487.779z"/>
</g>
</svg>
