<?xml version="1.0" encoding="utf-8"?>
<!-- Generator: Adobe Illustrator 16.0.0, SVG Export Plug-In . SVG Version: 6.00 Build 0)  -->
<!DOCTYPE svg PUBLIC "-//W3C//DTD SVG 1.1//EN" "http://www.w3.org/Graphics/SVG/1.1/DTD/svg11.dtd">
<svg version="1.1" id="Calque_1" xmlns="http://www.w3.org/2000/svg" xmlns:xlink="http://www.w3.org/1999/xlink" x="0px" y="0px"
	 width="1190.551px" height="1190.551px" viewBox="0 0 1190.551 1190.551" enable-background="new 0 0 1190.551 1190.551"
	 xml:space="preserve">
<path fill="#010202" d="M771.717,61.591v122.872H551.314v122.873H297.637v103.471h253.677v122.871h-31.689c0,0,0,159.587,0,212.779
	c0,36-10.396,50-48.896,50h-65.513c59.238-0.041,107.422-48.248,107.422-107.498c0-59.271-48.226-107.5-107.5-107.5
	s-107.5,48.226-107.5,107.5c0,59.25,48.185,107.457,107.423,107.498H297.637v32.312v5.1v32.312h107.452
	c-59.253,0.027-107.452,48.24-107.452,107.5c0,59.277,48.225,107.5,107.5,107.5c59.272,0,107.5-48.221,107.5-107.5
	c0-59.26-48.201-107.473-107.452-107.498h65.542c38.5,0,48.896,14,48.896,50c0,53.191,0,212.775,0,212.775h76.104v-295.09v-5.1
	v-295.09h175.99v122.874h121.197V61.591H771.717z"/>
</svg>
