<?xml version="1.0" encoding="utf-8"?>
<!-- Generator: Adobe Illustrator 16.0.0, SVG Export Plug-In . SVG Version: 6.00 Build 0)  -->
<!DOCTYPE svg PUBLIC "-//W3C//DTD SVG 1.1//EN" "http://www.w3.org/Graphics/SVG/1.1/DTD/svg11.dtd">
<svg version="1.1" id="Calque_1" xmlns="http://www.w3.org/2000/svg" xmlns:xlink="http://www.w3.org/1999/xlink" x="0px" y="0px"
	 width="1190.551px" height="1190.551px" viewBox="0 0 1190.551 1190.551" enable-background="new 0 0 1190.551 1190.551"
	 xml:space="preserve">
<path fill="#010202" d="M382.502,694.075c-36,0-50-10.396-50-48.896v-173.09h9.046c-5.788,13.188-9.008,27.749-9.008,43.05
	c0,59.273,48.228,107.5,107.5,107.5c59.275,0,107.5-48.227,107.5-107.5c0-59.276-48.225-107.5-107.5-107.5
	c-43.924,0-81.776,26.486-98.438,64.325V349.216h253.676V245.745H341.603V123.761C349.464,175.348,394.125,215,447.873,215
	c59.274,0,107.5-48.224,107.5-107.5c0-59.274-48.226-107.5-107.5-107.5S340.374,48.225,340.374,107.5
	c0,5.219,0.381,10.351,1.104,15.373H121.197V0H0v594.961h121.196V472.089h141.58l0.001,173.09c0,38.5-14,48.896-50,48.896
	c-53.193,0-212.777,0-212.777,0v76.104h295.091h5.1h295.091v-76.104C595.281,694.075,435.696,694.075,382.502,694.075z"/>
</svg>
