<?xml version="1.0" encoding="utf-8"?>
<!-- Generator: Adobe Illustrator 16.0.0, SVG Export Plug-In . SVG Version: 6.00 Build 0)  -->
<!DOCTYPE svg PUBLIC "-//W3C//DTD SVG 1.1//EN" "http://www.w3.org/Graphics/SVG/1.1/DTD/svg11.dtd">
<svg version="1.1" id="Calque_1" xmlns="http://www.w3.org/2000/svg" xmlns:xlink="http://www.w3.org/1999/xlink" x="0px" y="0px"
	 width="1190.551px" height="1190.551px" viewBox="0 0 1190.551 1190.551" enable-background="new 0 0 1190.551 1190.551"
	 xml:space="preserve">
<g>
	<path fill="#010202" d="M904.26,297.635c0,0,0,159.586,0,212.779c0,36-10.395,50-48.895,50h-173.09v-9.104h-15.373h-107.5v-107.5
		V297.636H455.931v253.676H333.954c51.582-7.863,91.232-52.522,91.232-106.27c0-59.274-48.228-107.5-107.5-107.5
		c-59.275,0-107.5,48.224-107.5,107.5s48.225,107.5,107.5,107.5c5.219,0,10.351-0.382,15.373-1.104v220.281H210.186v121.196h594.962
		V771.718H682.276V630.14l173.09-0.001c38.5,0,48.895,14,48.895,50c0,53.193,0,212.777,0,212.777h76.105v-295.09v-5.101V297.635
		H904.26z"/>
	<path fill="#010202" d="M666.903,551.312c59.271,0,107.5-48.225,107.5-107.5c0-59.273-48.229-107.5-107.5-107.5
		c-59.275,0-107.5,48.227-107.5,107.5C559.402,503.087,607.627,551.312,666.903,551.312z"/>
</g>
</svg>
