<?xml version="1.0" encoding="utf-8"?>
<!-- Generator: Adobe Illustrator 16.0.0, SVG Export Plug-In . SVG Version: 6.00 Build 0)  -->
<!DOCTYPE svg PUBLIC "-//W3C//DTD SVG 1.1//EN" "http://www.w3.org/Graphics/SVG/1.1/DTD/svg11.dtd">
<svg version="1.1" id="Calque_1" xmlns="http://www.w3.org/2000/svg" xmlns:xlink="http://www.w3.org/1999/xlink" x="0px" y="0px"
	 width="1190.551px" height="1190.551px" viewBox="0 0 1190.551 1190.551" enable-background="new 0 0 1190.551 1190.551"
	 xml:space="preserve">
<g>
	<polygon fill="#010202" points="396.058,595.279 349.216,595.279 349.216,341.603 472.089,341.603 472.089,121.197 
		594.962,121.197 594.962,0 0,0 0,121.197 122.872,121.197 122.872,341.603 245.745,341.603 245.745,595.279 203.522,595.279 
		0,493.07 0,1090.351 396.058,694.292 	"/>
	<path fill="#010202" d="M382.502,1090.351c-36,0-50-10.398-50-48.898v-173.09H300.19h-5.1h-32.313l0.001,173.09
		c0,38.5-14,48.898-50,48.898c-53.193,0-212.777,0-212.777,0v76.102h295.091h5.1h295.091v-76.102
		C595.281,1090.351,435.696,1090.351,382.502,1090.351z"/>
</g>
</svg>
