<?xml version="1.0" encoding="utf-8"?>
<!-- Generator: Adobe Illustrator 16.0.0, SVG Export Plug-In . SVG Version: 6.00 Build 0)  -->
<!DOCTYPE svg PUBLIC "-//W3C//DTD SVG 1.1//EN" "http://www.w3.org/Graphics/SVG/1.1/DTD/svg11.dtd">
<svg version="1.1" id="Calque_1" xmlns="http://www.w3.org/2000/svg" xmlns:xlink="http://www.w3.org/1999/xlink" x="0px" y="0px"
	 width="1190.551px" height="1190.551px" viewBox="0 0 1190.551 1190.551" enable-background="new 0 0 1190.551 1190.551"
	 xml:space="preserve">
<g>
	<polygon fill="#010202" points="693.692,607.328 646.85,607.328 646.85,353.652 769.723,353.652 769.723,133.246 892.596,133.246 
		892.596,12.049 297.635,12.049 297.635,133.246 420.507,133.246 420.507,353.652 543.38,353.652 543.38,607.328 501.156,607.328 
		297.635,505.119 297.635,1102.399 693.692,706.341 	"/>
	<path fill="#010202" d="M680.137,1102.399c-36,0-50-10.397-50-48.897v-173.09h-32.312h-5.1h-32.313l0.001,173.09
		c0,38.5-14,48.897-50,48.897c-53.192,0-212.776,0-212.776,0v76.103h295.091h5.1h295.09v-76.103
		C892.914,1102.399,733.33,1102.399,680.137,1102.399z"/>
</g>
</svg>
