<?xml version="1.0" encoding="utf-8"?>
<!-- Generator: Adobe Illustrator 16.0.0, SVG Export Plug-In . SVG Version: 6.00 Build 0)  -->
<!DOCTYPE svg PUBLIC "-//W3C//DTD SVG 1.1//EN" "http://www.w3.org/Graphics/SVG/1.1/DTD/svg11.dtd">
<svg version="1.1" id="Calque_1" xmlns="http://www.w3.org/2000/svg" xmlns:xlink="http://www.w3.org/1999/xlink" x="0px" y="0px"
	 width="1190.551px" height="1190.551px" viewBox="0 0 1190.551 1190.551" enable-background="new 0 0 1190.551 1190.551"
	 xml:space="preserve">
<g>
	<polygon fill="#010202" points="1090.785,249.799 898.249,249.799 694.727,147.59 694.727,621.672 571.857,621.672 
		571.857,401.266 448.983,401.266 448.983,147.59 345.512,147.59 345.512,401.266 222.64,401.266 222.64,621.672 99.767,621.672 
		99.767,742.869 694.727,742.869 694.727,744.871 1090.785,348.813 	"/>
	<path fill="#010202" d="M394.857,744.871H99.766v76.104c0,0,159.586,0,212.778,0c36,0,50,10.396,50,48.896v173.09h32.312h5.1
		h32.313l-0.001-173.09c0-38.5,14-48.896,50-48.896c53.192,0,212.776,0,212.776,0v-76.104h-0.319h-294.77H394.857z"/>
</g>
</svg>
