<?xml version="1.0" encoding="utf-8"?>
<!-- Generator: Adobe Illustrator 16.0.0, SVG Export Plug-In . SVG Version: 6.00 Build 0)  -->
<!DOCTYPE svg PUBLIC "-//W3C//DTD SVG 1.1//EN" "http://www.w3.org/Graphics/SVG/1.1/DTD/svg11.dtd">
<svg version="1.1" id="Calque_1" xmlns="http://www.w3.org/2000/svg" xmlns:xlink="http://www.w3.org/1999/xlink" x="0px" y="0px"
	 width="1190.551px" height="1190.551px" viewBox="0 0 1190.551 1190.551" enable-background="new 0 0 1190.551 1190.551"
	 xml:space="preserve">
<g>
	<path fill="#010202" d="M866.584,243.063V121.868H271.623v121.196h122.872V463.47h122.873v253.676h103.47V575.569l173.09-0.001
		c38.5,0,48.896,14,48.896,50c0,53.192,0,212.775,0,212.775h76.104V543.254v-5.1V243.063H866.584z M793.928,505.844h-173.09v-42.373
		h122.873V243.065h99.113c0,0.083,0,159.599,0,212.779C842.824,491.844,832.428,505.844,793.928,505.844z"/>
	<polygon fill="#010202" points="373.832,672.625 373.832,865.162 271.623,1068.684 868.903,1068.684 472.845,672.625 	"/>
</g>
</svg>
