<?xml version="1.0" encoding="utf-8"?>
<!-- Generator: Adobe Illustrator 16.0.0, SVG Export Plug-In . SVG Version: 6.00 Build 0)  -->
<!DOCTYPE svg PUBLIC "-//W3C//DTD SVG 1.1//EN" "http://www.w3.org/Graphics/SVG/1.1/DTD/svg11.dtd">
<svg version="1.1" id="Calque_1" xmlns="http://www.w3.org/2000/svg" xmlns:xlink="http://www.w3.org/1999/xlink" x="0px" y="0px"
	 width="1190.551px" height="1190.551px" viewBox="0 0 1190.551 1190.551" enable-background="new 0 0 1190.551 1190.551"
	 xml:space="preserve">
<g>
	<polygon fill="#010202" points="375.115,392.911 497.988,392.911 497.988,646.586 601.458,646.586 601.458,392.911 
		724.331,392.911 724.331,172.505 847.204,172.505 847.204,51.308 252.242,51.308 252.242,172.505 375.115,172.505 	"/>
	<path fill="#010202" d="M643.217,743.187h295.092v-76.104c0,0-159.586,0-212.78,0c-36,0-50-10.396-50-48.897v-173.09h-32.312h-5.1
		h-32.314l0.001,173.09c0,38.501-14,48.897-50,48.897c-53.192,0-212.776,0-212.776,0v76.104h11.425v192.534l-102.21,203.522h597.279
		L453.465,743.187h184.652H643.217z"/>
</g>
</svg>
