<?xml version="1.0" encoding="utf-8"?>
<!-- Generator: Adobe Illustrator 16.0.0, SVG Export Plug-In . SVG Version: 6.00 Build 0)  -->
<!DOCTYPE svg PUBLIC "-//W3C//DTD SVG 1.1//EN" "http://www.w3.org/Graphics/SVG/1.1/DTD/svg11.dtd">
<svg version="1.1" id="Calque_1" xmlns="http://www.w3.org/2000/svg" xmlns:xlink="http://www.w3.org/1999/xlink" x="0px" y="0px"
	 width="1190.551px" height="1190.551px" viewBox="0 0 1190.551 1190.551" enable-background="new 0 0 1190.551 1190.551"
	 xml:space="preserve">
<path fill="#010202" d="M796.057,634.287V413.881H673.184V160.205H569.713v141.578l-173.09,0.002c-38.5,0-48.897-14-48.897-50
	c0-53.193,0-212.777,0-212.777h-76.103v295.091v5.1v295.091h52.346v121.197h-52.346l396.057,396.057h99.014V959.008l102.209-203.523
	h50.025V634.287H796.057z M396.623,371.508h173.09v42.373H446.841v220.406h-99.115c0-0.084,0-159.6,0-212.779
	C347.725,385.508,358.123,371.508,396.623,371.508z"/>
</svg>
