<?xml version="1.0" encoding="utf-8"?>
<!-- Generator: Adobe Illustrator 16.0.0, SVG Export Plug-In . SVG Version: 6.00 Build 0)  -->
<!DOCTYPE svg PUBLIC "-//W3C//DTD SVG 1.1//EN" "http://www.w3.org/Graphics/SVG/1.1/DTD/svg11.dtd">
<svg version="1.1" id="Calque_1" xmlns="http://www.w3.org/2000/svg" xmlns:xlink="http://www.w3.org/1999/xlink" x="0px" y="0px"
	 width="1190.551px" height="1190.551px" viewBox="0 0 1190.551 1190.551" enable-background="new 0 0 1190.551 1190.551"
	 xml:space="preserve">
<g>
	<polygon fill="#010202" points="419.508,397.195 542.381,397.195 542.381,650.871 645.852,650.871 645.852,397.195 
		768.725,397.195 768.725,176.789 891.598,176.789 891.598,55.592 296.635,55.592 296.635,176.789 419.508,176.789 	"/>
	<path fill="#010202" d="M893.916,1134.959L497.858,738.901h-99.014v192.537l-26.106,51.983c0-0.061,0-159.595,0-212.777
		c0-36,10.397-50,48.897-50h173.09v-32.312v-5.1v-32.313l-173.09,0.001c-38.5,0-48.897-14-48.897-50c0-53.193,0-212.778,0-212.778
		h-76.103v295.092v5.1v295.091h76.102l-76.102,151.535H893.916z"/>
</g>
</svg>
