<?xml version="1.0" encoding="utf-8"?>
<!-- Generator: Adobe Illustrator 16.0.0, SVG Export Plug-In . SVG Version: 6.00 Build 0)  -->
<!DOCTYPE svg PUBLIC "-//W3C//DTD SVG 1.1//EN" "http://www.w3.org/Graphics/SVG/1.1/DTD/svg11.dtd">
<svg version="1.1" id="Calque_1" xmlns="http://www.w3.org/2000/svg" xmlns:xlink="http://www.w3.org/1999/xlink" x="0px" y="0px"
	 width="1190.551px" height="1190.551px" viewBox="0 0 1190.551 1190.551" enable-background="new 0 0 1190.551 1190.551"
	 xml:space="preserve">
<g>
	<path fill="#010202" d="M594.962,121.196V0H0v121.196h122.872v220.406h122.873v253.676h103.471V453.701l173.09-0.001
		c38.5,0,48.896,14,48.896,50c0,53.193,0,212.777,0,212.777h76.104V421.387v-5.1V121.196H594.962z M522.306,383.976h-173.09v-42.373
		h122.873V121.197h99.113c0,0.083,0,159.599,0,212.779C571.202,369.976,560.806,383.976,522.306,383.976z"/>
	<polygon fill="#010202" points="102.209,550.757 102.209,743.294 0,946.815 597.281,946.815 201.223,550.757 	"/>
</g>
</svg>
