<?xml version="1.0" encoding="utf-8"?>
<!-- Generator: Adobe Illustrator 16.0.0, SVG Export Plug-In . SVG Version: 6.00 Build 0)  -->
<!DOCTYPE svg PUBLIC "-//W3C//DTD SVG 1.1//EN" "http://www.w3.org/Graphics/SVG/1.1/DTD/svg11.dtd">
<svg version="1.1" id="Calque_1" xmlns="http://www.w3.org/2000/svg" xmlns:xlink="http://www.w3.org/1999/xlink" x="0px" y="0px"
	 width="1190.551px" height="1190.551px" viewBox="0 0 1190.551 1190.551" enable-background="new 0 0 1190.551 1190.551"
	 xml:space="preserve">
<g>
	<polygon fill="#010202" points="297.795,51.144 297.795,172.341 420.667,172.341 420.667,392.747 543.54,392.747 543.54,646.423 
		647.01,646.423 647.01,392.747 769.883,392.747 769.883,172.341 892.756,172.341 892.756,51.144 	"/>
	<path fill="#010202" d="M595.885,683.885v-5.1v-32.314l-173.09,0.002c-38.5,0-48.897-14-48.897-50c0-53.194,0-212.779,0-212.779
		h-76.103v295.091v5.1v295.092h76.102v58.223h192.536l203.521,102.207V542.125L595.885,716.193V683.885z M373.897,938.182
		c0-50.986,0-135.928,0-171.984c0-36,10.397-50,48.897-50h173.086L373.897,938.182z"/>
</g>
</svg>
