<?xml version="1.0" encoding="utf-8"?>
<!-- Generator: Adobe Illustrator 16.0.0, SVG Export Plug-In . SVG Version: 6.00 Build 0)  -->
<!DOCTYPE svg PUBLIC "-//W3C//DTD SVG 1.1//EN" "http://www.w3.org/Graphics/SVG/1.1/DTD/svg11.dtd">
<svg version="1.1" id="Calque_1" xmlns="http://www.w3.org/2000/svg" xmlns:xlink="http://www.w3.org/1999/xlink" x="0px" y="0px"
	 width="1190.551px" height="1190.551px" viewBox="0 0 1190.551 1190.551" enable-background="new 0 0 1190.551 1190.551"
	 xml:space="preserve">
<g>
	<polygon fill="#010202" points="766.694,519.086 766.694,326.55 868.903,123.028 271.623,123.028 620.838,472.244 667.68,519.086 	
		"/>
	<path fill="#010202" d="M842.824,351.044c0,0,0,159.586,0,212.779c0,36-10.396,50-48.896,50h-173.09V472.244h-103.47V725.92
		H394.496v220.407H271.623v121.195h594.961V946.327H743.713V725.92H620.838v-42.371h173.09c38.5,0,48.896,14,48.896,50
		c0,53.193,0,212.777,0,212.777h76.104V651.234v-5.1v-295.09H842.824z"/>
</g>
</svg>
