<?xml version="1.0" encoding="utf-8"?>
<!-- Generator: Adobe Illustrator 16.0.0, SVG Export Plug-In . SVG Version: 6.00 Build 0)  -->
<!DOCTYPE svg PUBLIC "-//W3C//DTD SVG 1.1//EN" "http://www.w3.org/Graphics/SVG/1.1/DTD/svg11.dtd">
<svg version="1.1" id="Calque_1" xmlns="http://www.w3.org/2000/svg" xmlns:xlink="http://www.w3.org/1999/xlink" x="0px" y="0px"
	 width="1190.551px" height="1190.551px" viewBox="0 0 1190.551 1190.551" enable-background="new 0 0 1190.551 1190.551"
	 xml:space="preserve">
<g>
	<polygon fill="#010202" points="495.072,396.058 495.072,203.522 597.281,0 0,0 349.216,349.216 396.058,396.058 	"/>
	<path fill="#010202" d="M571.202,228.016c0,0,0,159.586,0,212.779c0,36-10.396,50-48.896,50h-173.09V349.216H245.745v253.676
		H122.873v220.407H0v121.195h594.962V823.299H472.09V602.892H349.216v-42.371l173.09-0.001c38.5,0,48.896,14,48.896,50
		c0,53.194,0,212.778,0,212.778h76.104V528.206v-5.1V228.016H571.202z"/>
</g>
</svg>
