<?xml version="1.0" encoding="utf-8"?>
<!-- Generator: Adobe Illustrator 16.0.0, SVG Export Plug-In . SVG Version: 6.00 Build 0)  -->
<!DOCTYPE svg PUBLIC "-//W3C//DTD SVG 1.1//EN" "http://www.w3.org/Graphics/SVG/1.1/DTD/svg11.dtd">
<svg version="1.1" id="Calque_1" xmlns="http://www.w3.org/2000/svg" xmlns:xlink="http://www.w3.org/1999/xlink" x="0px" y="0px"
	 width="1190.551px" height="1190.551px" viewBox="0 0 1190.551 1190.551" enable-background="new 0 0 1190.551 1190.551"
	 xml:space="preserve">
<g>
	<polygon fill="#010202" points="122.872,341.603 245.745,341.603 245.745,595.279 349.216,595.279 349.216,341.603 
		472.089,341.603 472.089,121.197 594.962,121.197 594.962,0 0,0 0,121.197 122.872,121.197 	"/>
	<path fill="#010202" d="M390.975,691.879h295.092v-76.104c0,0-159.586,0-212.78,0c-36,0-50-10.396-50-48.897v-173.09h-32.312h-5.1
		h-32.314l0.001,173.09c0,38.501-14,48.897-50,48.897c-53.193,0-212.777,0-212.777,0v76.104h11.425v192.534L0,1087.936h597.28
		L201.223,691.879h184.652H390.975z"/>
</g>
</svg>
