<?xml version="1.0" encoding="utf-8"?>
<!-- Generator: Adobe Illustrator 16.0.0, SVG Export Plug-In . SVG Version: 6.00 Build 0)  -->
<!DOCTYPE svg PUBLIC "-//W3C//DTD SVG 1.1//EN" "http://www.w3.org/Graphics/SVG/1.1/DTD/svg11.dtd">
<svg version="1.1" id="Calque_1" xmlns="http://www.w3.org/2000/svg" xmlns:xlink="http://www.w3.org/1999/xlink" x="0px" y="0px"
	 width="1190.551px" height="1190.551px" viewBox="0 0 1190.551 1190.551" enable-background="new 0 0 1190.551 1190.551"
	 xml:space="preserve">
<path fill="#010202" d="M524.434,595.281V374.875H401.561V121.198H298.09v141.578L125,262.778c-38.5,0-48.897-14-48.897-50
	c0-53.193,0-212.777,0-212.777H0v295.091v5.1v295.091h52.346v121.196H0l396.058,396.058h99.014V920.001l102.209-203.523h50.025
	V595.281H524.434z M125,332.502h173.09v42.373H175.218v220.405H76.103c0-0.083,0-159.599,0-212.778
	C76.103,346.502,86.5,332.502,125,332.502z"/>
</svg>
