<?xml version="1.0" encoding="utf-8"?>
<!-- Generator: Adobe Illustrator 16.0.0, SVG Export Plug-In . SVG Version: 6.00 Build 0)  -->
<!DOCTYPE svg PUBLIC "-//W3C//DTD SVG 1.1//EN" "http://www.w3.org/Graphics/SVG/1.1/DTD/svg11.dtd">
<svg version="1.1" id="Calque_1" xmlns="http://www.w3.org/2000/svg" xmlns:xlink="http://www.w3.org/1999/xlink" x="0px" y="0px"
	 width="1190.551px" height="1190.551px" viewBox="0 0 1190.551 1190.551" enable-background="new 0 0 1190.551 1190.551"
	 xml:space="preserve">
<g>
	<polygon fill="#010202" points="991.019,102.209 798.483,102.209 594.96,0 594.96,474.082 472.09,474.082 472.09,253.676 
		349.216,253.676 349.216,0 245.745,0 245.745,253.676 122.873,253.676 122.873,474.082 0,474.082 0,595.279 594.96,595.279 
		594.96,597.281 991.019,201.223 	"/>
	<path fill="#010202" d="M295.09,597.281H-0.001v76.104c0,0,159.586,0,212.779,0c36,0,50,10.396,50,48.896v173.09h32.312h5.1h32.313
		l-0.001-173.09c0-38.5,14-48.896,50-48.896c53.193,0,212.777,0,212.777,0v-76.104h-0.32H300.19H295.09z"/>
</g>
</svg>
