<?xml version="1.0" encoding="utf-8"?>
<!-- Generator: Adobe Illustrator 16.0.0, SVG Export Plug-In . SVG Version: 6.00 Build 0)  -->
<!DOCTYPE svg PUBLIC "-//W3C//DTD SVG 1.1//EN" "http://www.w3.org/Graphics/SVG/1.1/DTD/svg11.dtd">
<svg version="1.1" id="Calque_1" xmlns="http://www.w3.org/2000/svg" xmlns:xlink="http://www.w3.org/1999/xlink" x="0px" y="0px"
	 width="1190.551px" height="1190.551px" viewBox="0 0 1190.551 1190.551" enable-background="new 0 0 1190.551 1190.551"
	 xml:space="preserve">
<g>
	<polygon fill="#010202" points="0,0 0,121.197 122.872,121.197 122.872,341.603 245.745,341.603 245.745,595.279 349.216,595.279 
		349.216,341.603 472.089,341.603 472.089,121.197 594.962,121.197 594.962,0 	"/>
	<path fill="#010202" d="M298.09,632.74v-5.099v-32.314L125,595.328c-38.5,0-48.897-14-48.897-50c0-53.193,0-212.778,0-212.778H0
		v295.092v5.099v295.091h76.102v58.223h192.536l203.521,102.208V490.981L298.09,665.05V632.74z M76.103,887.037
		c0-50.986,0-135.928,0-171.984c0-36,10.397-50,48.897-50h173.087L76.103,887.037z"/>
</g>
</svg>
