<?xml version="1.0" encoding="utf-8"?>
<!-- Generator: Adobe Illustrator 16.0.0, SVG Export Plug-In . SVG Version: 6.00 Build 0)  -->
<!DOCTYPE svg PUBLIC "-//W3C//DTD SVG 1.1//EN" "http://www.w3.org/Graphics/SVG/1.1/DTD/svg11.dtd">
<svg version="1.1" id="Calque_1" xmlns="http://www.w3.org/2000/svg" xmlns:xlink="http://www.w3.org/1999/xlink" x="0px" y="0px"
	 width="1190.551px" height="1190.551px" viewBox="0 0 1190.551 1190.551" enable-background="new 0 0 1190.551 1190.551"
	 xml:space="preserve">
<g>
	<polygon fill="#010202" points="122.872,341.603 245.745,341.603 245.745,595.279 349.216,595.279 349.216,341.603 
		472.089,341.603 472.089,121.197 594.962,121.197 594.962,0 0,0 0,121.197 122.872,121.197 	"/>
	<path fill="#010202" d="M597.281,1079.367L201.223,683.31h-99.014v192.537L76.103,927.83c0-0.061,0-159.595,0-212.777
		c0-36,10.397-50,48.897-50h173.09V632.74v-5.099v-32.314L125,595.328c-38.5,0-48.897-14-48.897-50c0-53.193,0-212.778,0-212.778H0
		v295.092v5.099v295.091h76.102L0,1079.367H597.281z"/>
</g>
</svg>
