<?xml version="1.0" encoding="utf-8"?>
<!-- Generator: Adobe Illustrator 16.0.0, SVG Export Plug-In . SVG Version: 6.00 Build 0)  -->
<!DOCTYPE svg PUBLIC "-//W3C//DTD SVG 1.1//EN" "http://www.w3.org/Graphics/SVG/1.1/DTD/svg11.dtd">
<svg version="1.1" id="Calque_1" xmlns="http://www.w3.org/2000/svg" xmlns:xlink="http://www.w3.org/1999/xlink" x="0px" y="0px"
	 width="1190.551px" height="1190.551px" viewBox="0 0 1190.551 1190.551" enable-background="new 0 0 1190.551 1190.551"
	 xml:space="preserve">
<g>
	<path fill="#010202" d="M891.914,131.161H296.635c-0.001,164.384,133.257,297.641,297.639,297.641
		C758.656,428.802,891.914,295.543,891.914,131.161z"/>
	<path fill="#010202" d="M629.137,934.391v-173.09l63.557,63.559h99.014V632.324l102.209-203.522H594.274H296.635l332.5,332.499
		h-32.312h-5.099h-32.312l0.001,173.09c0,38.5-14,48.898-50,48.898c-53.192,0-212.776,0-212.776,0v76.102h295.091h5.1h295.09
		v-76.102c0,0-159.586,0-212.779,0C643.137,983.289,629.137,972.891,629.137,934.391z"/>
</g>
</svg>
