<?xml version="1.0" encoding="utf-8"?>
<!-- Generator: Adobe Illustrator 16.0.0, SVG Export Plug-In . SVG Version: 6.00 Build 0)  -->
<!DOCTYPE svg PUBLIC "-//W3C//DTD SVG 1.1//EN" "http://www.w3.org/Graphics/SVG/1.1/DTD/svg11.dtd">
<svg version="1.1" id="Calque_1" xmlns="http://www.w3.org/2000/svg" xmlns:xlink="http://www.w3.org/1999/xlink" x="0px" y="0px"
	 width="1190.551px" height="1190.551px" viewBox="0 0 1190.551 1190.551" enable-background="new 0 0 1190.551 1190.551"
	 xml:space="preserve">
<g>
	<path fill="#010202" d="M595.275,299.935c0-164.382-133.259-297.641-297.641-297.641v595.278
		C462.017,597.575,595.275,464.317,595.275,299.935z"/>
	<path fill="#010202" d="M680.136,1112.154c-36,0-50-10.396-50-48.896V890.166l63.557,31.918V324.803l-396.058,396.06v99.014
		h192.536l139.964,70.289h-32.312h-5.1h-32.312l0.001,173.092c0,38.5-14,48.896-50,48.896c-53.192,0-212.776,0-212.776,0v76.104
		h295.091h5.1h295.091v-76.104C892.915,1112.154,733.33,1112.154,680.136,1112.154z"/>
</g>
</svg>
