<?xml version="1.0" encoding="utf-8"?>
<!-- Generator: Adobe Illustrator 16.0.0, SVG Export Plug-In . SVG Version: 6.00 Build 0)  -->
<!DOCTYPE svg PUBLIC "-//W3C//DTD SVG 1.1//EN" "http://www.w3.org/Graphics/SVG/1.1/DTD/svg11.dtd">
<svg version="1.1" id="Calque_1" xmlns="http://www.w3.org/2000/svg" xmlns:xlink="http://www.w3.org/1999/xlink" x="0px" y="0px"
	 width="1190.551px" height="1190.551px" viewBox="0 0 1190.551 1190.551" enable-background="new 0 0 1190.551 1190.551"
	 xml:space="preserve">
<path fill="#010202" d="M746.642,396.795h-5.099H446.455V99.606c-164.383-0.001-297.641,133.257-297.641,297.639
	c0,164.382,133.258,297.64,297.641,297.64V472.897c0.167,0,159.612,0,212.779,0c36,0,50,10.397,50,48.897v173.09H446.455H148.815
	l396.059,396.06h99.014V898.407l102.209-203.521h0.551h32.312l-0.001-173.09c0-38.5,14-48.897,50-48.897
	c53.194,0,212.778,0,212.778,0v-76.103H746.642L746.642,396.795z"/>
</svg>
