<?xml version="1.0" encoding="utf-8"?>
<!-- Generator: Adobe Illustrator 16.0.0, SVG Export Plug-In . SVG Version: 6.00 Build 0)  -->
<!DOCTYPE svg PUBLIC "-//W3C//DTD SVG 1.1//EN" "http://www.w3.org/Graphics/SVG/1.1/DTD/svg11.dtd">
<svg version="1.1" id="Calque_1" xmlns="http://www.w3.org/2000/svg" xmlns:xlink="http://www.w3.org/1999/xlink" x="0px" y="0px"
	 width="1190.551px" height="1190.551px" viewBox="0 0 1190.551 1190.551" enable-background="new 0 0 1190.551 1190.551"
	 xml:space="preserve">
<g>
	<path fill="#010202" d="M297.64,297.64C297.64,133.258,164.381-0.001-0.001-0.001v595.278
		C164.382,595.28,297.64,462.022,297.64,297.64z"/>
	<path fill="#010202" d="M382.501,1109.859c-36,0-50-10.396-50-48.896V887.871l63.557,31.918V322.508L0,718.567v99.014h192.536
		L332.5,887.87h-32.311h-5.1h-32.312l0.001,173.092c0,38.5-14,48.896-50,48.896c-53.193,0-212.777,0-212.777,0v76.104h295.091h5.1
		h295.091v-76.104C595.281,1109.859,435.696,1109.859,382.501,1109.859z"/>
</g>
</svg>
