<?xml version="1.0" encoding="utf-8"?>
<!-- Generator: Adobe Illustrator 16.0.0, SVG Export Plug-In . SVG Version: 6.00 Build 0)  -->
<!DOCTYPE svg PUBLIC "-//W3C//DTD SVG 1.1//EN" "http://www.w3.org/Graphics/SVG/1.1/DTD/svg11.dtd">
<svg version="1.1" id="Calque_1" xmlns="http://www.w3.org/2000/svg" xmlns:xlink="http://www.w3.org/1999/xlink" x="0px" y="0px"
	 width="1190.551px" height="1190.551px" viewBox="0 0 1190.551 1190.551" enable-background="new 0 0 1190.551 1190.551"
	 xml:space="preserve">
<path fill="#010202" d="M332.501,803.229V630.14l63.558,63.558h99.014V501.162L597.281,297.64h-2.004
	C595.279,133.259,462.021,0,297.64,0C133.257,0-0.001,133.259-0.001,297.641h0.002L332.5,630.139h-32.312h-5.1h-32.312l0.001,173.09
	c0,38.5-14,48.898-50,48.898c-53.193,0-212.777,0-212.777,0v76.102h295.091h5.1h295.091v-76.102c0,0-159.586,0-212.78,0
	C346.501,852.127,332.501,841.729,332.501,803.229z"/>
</svg>
