<?xml version="1.0" encoding="utf-8"?>
<!-- Generator: Adobe Illustrator 16.0.0, SVG Export Plug-In . SVG Version: 6.00 Build 0)  -->
<!DOCTYPE svg PUBLIC "-//W3C//DTD SVG 1.1//EN" "http://www.w3.org/Graphics/SVG/1.1/DTD/svg11.dtd">
<svg version="1.1" id="Calque_1" xmlns="http://www.w3.org/2000/svg" xmlns:xlink="http://www.w3.org/1999/xlink" x="0px" y="0px"
	 width="1190.551px" height="1190.551px" viewBox="0 0 1190.551 1190.551" enable-background="new 0 0 1190.551 1190.551"
	 xml:space="preserve">
<path fill="#010202" d="M595.278,720.568c0.002-164.382-133.256-297.64-297.638-297.64c-82.172,0-156.567,33.3-210.426,87.14
	l308.844-308.845v-99.014H203.522L0,0v597.281l87.139-87.139c-53.84,53.859-87.14,128.253-87.14,210.425v76.104
	c0,0,159.586,0,212.78,0c36,0,50,10.396,50,48.896v173.092h32.312h5.099h32.312V845.568c0-38.5,14-48.896,50-48.896
	c53.193,0,212.777,0,212.777,0v-76.104H595.278z"/>
</svg>
