<?xml version="1.0" encoding="utf-8"?>
<!-- Generator: Adobe Illustrator 16.0.0, SVG Export Plug-In . SVG Version: 6.00 Build 0)  -->
<!DOCTYPE svg PUBLIC "-//W3C//DTD SVG 1.1//EN" "http://www.w3.org/Graphics/SVG/1.1/DTD/svg11.dtd">
<svg version="1.1" id="Calque_1" xmlns="http://www.w3.org/2000/svg" xmlns:xlink="http://www.w3.org/1999/xlink" x="0px" y="0px"
	 width="1190.551px" height="1190.551px" viewBox="0 0 1190.551 1190.551" enable-background="new 0 0 1190.551 1190.551"
	 xml:space="preserve">
<g>
	<path fill="#010202" d="M892.914,407.403c0.001-164.381-133.257-297.64-297.638-297.64c-164.382,0-297.64,133.259-297.641,297.64
		l0,0v76.103c0,0,159.586,0,212.779,0c36,0,50,10.397,50,48.897v173.09h32.312h5.099h32.312v-173.09c0-38.5,14-48.897,50-48.897
		c36.059,0,121.004,0,171.988,0c24.228,0,40.788,0,40.788,0L892.914,407.403L892.914,407.403z"/>
	<polygon fill="#010202" points="456.071,978.578 648.606,978.578 852.128,1080.787 852.128,483.505 456.071,879.564 	"/>
</g>
</svg>
