<?xml version="1.0" encoding="utf-8"?>
<!-- Generator: Adobe Illustrator 16.0.0, SVG Export Plug-In . SVG Version: 6.00 Build 0)  -->
<!DOCTYPE svg PUBLIC "-//W3C//DTD SVG 1.1//EN" "http://www.w3.org/Graphics/SVG/1.1/DTD/svg11.dtd">
<svg version="1.1" id="Calque_1" xmlns="http://www.w3.org/2000/svg" xmlns:xlink="http://www.w3.org/1999/xlink" x="0px" y="0px"
	 width="1190.551px" height="1190.551px" viewBox="0 0 1190.551 1190.551" enable-background="new 0 0 1190.551 1190.551"
	 xml:space="preserve">
<path fill="#010202" d="M617.43,743.187h295.09v-76.104c0,0-159.586,0-212.779,0c-36,0-50-10.396-50-48.897v-173.09h-32.312h-5.1
	h-32.312v173.09c0,12.03-1.366,21.316-4.345,28.398V51.308c-164.383-0.001-297.641,133.257-297.641,297.639
	c0,164.382,133.257,297.639,297.64,297.64c-6.553,15.583-20.904,20.497-45.655,20.497c-53.193,0-212.777,0-212.777,0v76.104h63.002
	v192.534l-102.209,203.521h597.28L479.254,743.187H612.33H617.43z"/>
</svg>
