<?xml version="1.0" encoding="utf-8"?>
<!-- Generator: Adobe Illustrator 16.0.0, SVG Export Plug-In . SVG Version: 6.00 Build 0)  -->
<!DOCTYPE svg PUBLIC "-//W3C//DTD SVG 1.1//EN" "http://www.w3.org/Graphics/SVG/1.1/DTD/svg11.dtd">
<svg version="1.1" id="Calque_1" xmlns="http://www.w3.org/2000/svg" xmlns:xlink="http://www.w3.org/1999/xlink" x="0px" y="0px"
	 width="1190.551px" height="1190.551px" viewBox="0 0 1190.551 1190.551" enable-background="new 0 0 1190.551 1190.551"
	 xml:space="preserve">
<path fill="#010202" d="M629.137,934.39V761.301l63.558,63.559h99.014V632.323l102.208-203.522h-2.004
	c0.002-164.381-133.256-297.64-297.637-297.64c-164.383,0-297.641,133.259-297.641,297.641h0.002L629.136,761.3h-32.312h-5.1
	h-32.312l0.001,173.09c0,38.5-14,48.898-50,48.898c-53.192,0-212.776,0-212.776,0v76.102h295.091h5.1h295.091v-76.102
	c0,0-159.586,0-212.779,0C643.137,983.288,629.137,972.89,629.137,934.39z"/>
</svg>
