<?xml version="1.0" encoding="utf-8"?>
<!-- Generator: Adobe Illustrator 16.0.0, SVG Export Plug-In . SVG Version: 6.00 Build 0)  -->
<!DOCTYPE svg PUBLIC "-//W3C//DTD SVG 1.1//EN" "http://www.w3.org/Graphics/SVG/1.1/DTD/svg11.dtd">
<svg version="1.1" id="Calque_1" xmlns="http://www.w3.org/2000/svg" xmlns:xlink="http://www.w3.org/1999/xlink" x="0px" y="0px"
	 width="1190.551px" height="1190.551px" viewBox="0 0 1190.551 1190.551" enable-background="new 0 0 1190.551 1190.551"
	 xml:space="preserve">
<g>
	<path fill="#010202" d="M892.914,119.705H297.636c-0.001,164.384,133.257,297.641,297.639,297.641
		C759.656,417.346,892.914,284.087,892.914,119.705z"/>
	<path fill="#010202" d="M297.636,315.137V912.42l174.068-174.07v32.309v5.1v32.312h173.092c38.5,0,48.896,14,48.896,50
		c0,53.191,0,212.775,0,212.775h76.102v-295.09v-5.1v-295.09h-76.102v-58.221h-98.419h-94.117L297.636,315.137z M693.694,516.359
		c0,50.986,0,135.93,0,171.987c0,35.999-10.396,49.999-48.896,49.999H471.709L693.694,516.359z"/>
</g>
</svg>
