<?xml version="1.0" encoding="utf-8"?>
<!-- Generator: Adobe Illustrator 16.0.0, SVG Export Plug-In . SVG Version: 6.00 Build 0)  -->
<!DOCTYPE svg PUBLIC "-//W3C//DTD SVG 1.1//EN" "http://www.w3.org/Graphics/SVG/1.1/DTD/svg11.dtd">
<svg version="1.1" id="Calque_1" xmlns="http://www.w3.org/2000/svg" xmlns:xlink="http://www.w3.org/1999/xlink" x="0px" y="0px"
	 width="1190.551px" height="1190.551px" viewBox="0 0 1190.551 1190.551" enable-background="new 0 0 1190.551 1190.551"
	 xml:space="preserve">
<path fill="#010202" d="M595.278,297.64C595.279,133.259,462.021,0,297.64,0C133.257,0-0.001,133.259-0.001,297.641h0.002
	l76.101,76.101H0v295.091v5.101v295.091h76.103c0,0,0-159.586,0-212.781c0-36,10.397-50,48.897-50h173.09v-32.312v-5.101v-32.312
	L125,636.52c-38.5,0-48.897-14-48.897-50c0-53.183,0-212.71,0-212.777l319.956,319.955h99.014V501.162L597.281,297.64H595.278z"/>
</svg>
