<?xml version="1.0" encoding="utf-8"?>
<!-- Generator: Adobe Illustrator 16.0.0, SVG Export Plug-In . SVG Version: 6.00 Build 0)  -->
<!DOCTYPE svg PUBLIC "-//W3C//DTD SVG 1.1//EN" "http://www.w3.org/Graphics/SVG/1.1/DTD/svg11.dtd">
<svg version="1.1" id="Calque_1" xmlns="http://www.w3.org/2000/svg" xmlns:xlink="http://www.w3.org/1999/xlink" x="0px" y="0px"
	 width="1190.551px" height="1190.551px" viewBox="0 0 1190.551 1190.551" enable-background="new 0 0 1190.551 1190.551"
	 xml:space="preserve">
<path fill="#010202" d="M891.913,408.403c0.001-164.381-133.257-297.64-297.638-297.64c-164.383,0-297.641,133.259-297.641,297.641
	h0.002l76.101,76.101h-76.102v295.091v5.101v295.092h76.103c0,0,0-159.586,0-212.781c0-36,10.397-50,48.897-50h173.09v-32.312
	v-5.101v-32.312l-173.09,0.001c-38.5,0-48.897-14-48.897-49.999c0-53.184,0-212.71,0-212.777l319.956,319.955h99.014V611.925
	l102.208-203.522H891.913z"/>
</svg>
