<?xml version="1.0" encoding="utf-8"?>
<!-- Generator: Adobe Illustrator 16.0.0, SVG Export Plug-In . SVG Version: 6.00 Build 0)  -->
<!DOCTYPE svg PUBLIC "-//W3C//DTD SVG 1.1//EN" "http://www.w3.org/Graphics/SVG/1.1/DTD/svg11.dtd">
<svg version="1.1" id="Calque_1" xmlns="http://www.w3.org/2000/svg" xmlns:xlink="http://www.w3.org/1999/xlink" x="0px" y="0px"
	 width="1190.551px" height="1190.551px" viewBox="0 0 1190.551 1190.551" enable-background="new 0 0 1190.551 1190.551"
	 xml:space="preserve">
<g>
	<path fill="#010202" d="M595.279-0.001H0C-0.001,164.383,133.257,297.64,297.639,297.64S595.279,164.382,595.279-0.001z"/>
	<path fill="#010202" d="M0,195.431v597.283l174.069-174.07v32.309v5.099v32.312l173.091,0.001c38.5,0,48.897,14,48.897,50
		c0,53.192,0,212.776,0,212.776h76.102V656.05v-5.099V355.861h-76.102V297.64h-98.419h-94.117L0,195.431z M396.058,396.654
		c0,50.986,0,135.929,0,171.987c0,35.999-10.397,49.999-48.897,49.999H174.073L396.058,396.654z"/>
</g>
</svg>
