<?xml version="1.0" encoding="utf-8"?>
<!-- Generator: Adobe Illustrator 16.0.0, SVG Export Plug-In . SVG Version: 6.00 Build 0)  -->
<!DOCTYPE svg PUBLIC "-//W3C//DTD SVG 1.1//EN" "http://www.w3.org/Graphics/SVG/1.1/DTD/svg11.dtd">
<svg version="1.1" id="Calque_1" xmlns="http://www.w3.org/2000/svg" xmlns:xlink="http://www.w3.org/1999/xlink" x="0px" y="0px"
	 width="1190.551px" height="1190.551px" viewBox="0 0 1190.551 1190.551" enable-background="new 0 0 1190.551 1190.551"
	 xml:space="preserve">
<path fill="#010202" d="M680.137,1110.977c-36,0-50-10.397-50-48.897v-173.09h262.775
	c0.002-164.383-133.256-297.641-297.638-297.641c-22.099,0-43.627,2.429-64.353,6.998V432.503h61.672V333.29h112.622V183.583
	h-58.992V3.472H297.635V168.38h96.53v183.679h-96.53v163.568h99.213v83.124h132.216c-132.512,30.104-231.43,148.615-231.43,290.238
	h262.776l0.001,173.09c0,38.5-14,48.897-50,48.897c-53.192,0-212.776,0-212.776,0v76.103h295.091h5.1h295.09v-76.103
	C892.916,1110.977,733.33,1110.977,680.137,1110.977z"/>
</svg>
