<?xml version="1.0" encoding="utf-8"?>
<!-- Generator: Adobe Illustrator 16.0.0, SVG Export Plug-In . SVG Version: 6.00 Build 0)  -->
<!DOCTYPE svg PUBLIC "-//W3C//DTD SVG 1.1//EN" "http://www.w3.org/Graphics/SVG/1.1/DTD/svg11.dtd">
<svg version="1.1" id="Calque_1" xmlns="http://www.w3.org/2000/svg" xmlns:xlink="http://www.w3.org/1999/xlink" x="0px" y="0px"
	 width="1190.551px" height="1190.551px" viewBox="0 0 1190.551 1190.551" enable-background="new 0 0 1190.551 1190.551"
	 xml:space="preserve">
<path fill="#010202" d="M597.826,798.84h-2.474c164.345-0.041,297.562-133.283,297.562-297.639H712.805v-58.992h180.111V93.621
	h-164.91v96.531H544.329V93.621H380.76v99.213h-83.124v134.074h166.249v61.672h99.213v112.621H297.636
	c-0.001,164.356,133.215,297.598,297.562,297.639h-2.472H297.635v76.104c0,0,159.586,0,212.779,0c36,0,50,10.396,50,48.896v173.09
	h32.312h5.099h32.312V923.84c0-38.5,14-48.896,50-48.896c53.191,0,212.775,0,212.775,0V798.84H597.826z"/>
</svg>
