<?xml version="1.0" encoding="utf-8"?>
<!-- Generator: Adobe Illustrator 16.0.0, SVG Export Plug-In . SVG Version: 6.00 Build 0)  -->
<!DOCTYPE svg PUBLIC "-//W3C//DTD SVG 1.1//EN" "http://www.w3.org/Graphics/SVG/1.1/DTD/svg11.dtd">
<svg version="1.1" id="Calque_1" xmlns="http://www.w3.org/2000/svg" xmlns:xlink="http://www.w3.org/1999/xlink" x="0px" y="0px"
	 width="1190.551px" height="1190.551px" viewBox="0 0 1190.551 1190.551" enable-background="new 0 0 1190.551 1190.551"
	 xml:space="preserve">
<path fill="#010202" d="M791.475,479.974H657.399v166.249h-61.671v29.492h-173.09c-38.5,0-48.897-14-48.897-50
	c0-53.193,0-212.777,0-212.777h519.174c0.002-164.382-133.256-297.641-297.637-297.641c-164.383,0-297.641,133.259-297.641,297.641
	h0.001v295.091v5.101v295.092h76.103c0,0,0-159.586,0-212.781c0-36,10.397-50,48.897-50h60.469v149.705h58.992v180.109h348.589
	V910.346h-96.533v-183.68h96.533V563.098h-99.213V479.974L791.475,479.974z"/>
</svg>
