<?xml version="1.0" encoding="utf-8"?>
<!-- Generator: Adobe Illustrator 16.0.0, SVG Export Plug-In . SVG Version: 6.00 Build 0)  -->
<!DOCTYPE svg PUBLIC "-//W3C//DTD SVG 1.1//EN" "http://www.w3.org/Graphics/SVG/1.1/DTD/svg11.dtd">
<svg version="1.1" id="Calque_1" xmlns="http://www.w3.org/2000/svg" xmlns:xlink="http://www.w3.org/1999/xlink" x="0px" y="0px"
	 width="1190.551px" height="1190.551px" viewBox="0 0 1190.551 1190.551" enable-background="new 0 0 1190.551 1190.551"
	 xml:space="preserve">
<path fill="#010202" d="M382.501,927.208c-36,0-50-10.398-50-48.898V705.22h-32.312h-2.473
	c164.346-0.042,297.562-133.284,297.562-297.64h-83.123v-99.213h83.124V174.293H429.031v-61.672h-99.213V0H180.112v58.991H0V407.58
	c-0.001,164.356,133.215,297.598,297.562,297.64h-2.473h-32.312l0.001,173.09c0,38.5-14,48.898-50,48.898
	c-53.193,0-212.777,0-212.777,0v76.102h295.091h5.1h295.091v-76.102C595.281,927.208,435.696,927.208,382.501,927.208z
	 M164.908,311.048h183.679v96.532H164.908V311.048z"/>
</svg>
