<?xml version="1.0" encoding="utf-8"?>
<!-- Generator: Adobe Illustrator 16.0.0, SVG Export Plug-In . SVG Version: 6.00 Build 0)  -->
<!DOCTYPE svg PUBLIC "-//W3C//DTD SVG 1.1//EN" "http://www.w3.org/Graphics/SVG/1.1/DTD/svg11.dtd">
<svg version="1.1" id="Calque_1" xmlns="http://www.w3.org/2000/svg" xmlns:xlink="http://www.w3.org/1999/xlink" x="0px" y="0px"
	 width="1190.551px" height="1190.551px" viewBox="0 0 1190.551 1190.551" enable-background="new 0 0 1190.551 1190.551"
	 xml:space="preserve">
<path fill="#010202" d="M433.634,1114.447c-35.999,0-49.999-10.396-49.999-48.896V892.46h-32.312h-5.1h-32.105
	c156.715-8.554,281.161-138.329,281.161-297.181H407.58V430.371h-96.532V246.693h96.532V83.124h-99.213V0H174.293v166.249h-61.672
	v99.213H0v149.706h58.992V595.28H0c-0.001,164.382,133.257,297.642,297.639,297.642c5.46,0,10.884-0.157,16.271-0.448l0.001,173.077
	c0,38.5-14,48.896-50,48.896c-53.193,0-212.777,0-212.777,0v76.104h295.091h5.1h295.091v-76.104
	C646.415,1114.447,486.829,1114.447,433.634,1114.447z"/>
</svg>
