<?xml version="1.0" encoding="utf-8"?>
<!-- Generator: Adobe Illustrator 16.0.0, SVG Export Plug-In . SVG Version: 6.00 Build 0)  -->
<!DOCTYPE svg PUBLIC "-//W3C//DTD SVG 1.1//EN" "http://www.w3.org/Graphics/SVG/1.1/DTD/svg11.dtd">
<svg version="1.1" id="Calque_1" xmlns="http://www.w3.org/2000/svg" xmlns:xlink="http://www.w3.org/1999/xlink" x="0px" y="0px"
	 width="1190.551px" height="1190.551px" viewBox="0 0 1190.551 1190.551" enable-background="new 0 0 1190.551 1190.551"
	 xml:space="preserve">
<path fill="#010202" d="M493.837,364.678H359.762v166.249H298.09v29.492L125,560.418c-38.5,0-48.897-14-48.897-50
	c0-53.193,0-212.777,0-212.777h519.175C595.28,133.259,462.022,0,297.64,0C133.257,0-0.001,133.259-0.001,297.641H0v295.091v5.1
	v295.092h76.103c0,0,0-159.586,0-212.781c0-36,10.397-50,48.897-50h60.469v149.705h58.992v180.11H593.05V795.05h-96.533V611.37
	h96.533V447.802h-99.213V364.678z"/>
</svg>
