<?xml version="1.0" encoding="utf-8"?>
<!-- Generator: Adobe Illustrator 16.0.0, SVG Export Plug-In . SVG Version: 6.00 Build 0)  -->
<!DOCTYPE svg PUBLIC "-//W3C//DTD SVG 1.1//EN" "http://www.w3.org/Graphics/SVG/1.1/DTD/svg11.dtd">
<svg version="1.1" id="Calque_1" xmlns="http://www.w3.org/2000/svg" xmlns:xlink="http://www.w3.org/1999/xlink" x="0px" y="0px"
	 width="1190.551px" height="1190.551px" viewBox="0 0 1190.551 1190.551" enable-background="new 0 0 1190.551 1190.551"
	 xml:space="preserve">
<path fill="#010202" d="M705.701,1114.447c-35.999,0-49.999-10.396-49.999-48.896V892.46H623.39h-5.1h-32.104
	c156.714-8.554,281.16-138.329,281.16-297.181H679.648V430.371h-96.532V246.693h96.532V83.124h-99.214V0H446.361v166.249h-61.672
	v99.213H272.068v149.706h58.992V595.28h-58.992c-0.001,164.382,133.257,297.642,297.639,297.642c5.46,0,10.884-0.157,16.271-0.448
	l0.001,173.077c0,38.5-14,48.896-50,48.896c-53.193,0-212.777,0-212.777,0v76.104h295.091h5.101h295.091v-76.104
	C918.482,1114.447,758.896,1114.447,705.701,1114.447z"/>
</svg>
