<?xml version="1.0" encoding="utf-8"?>
<!-- Generator: Adobe Illustrator 16.0.0, SVG Export Plug-In . SVG Version: 6.00 Build 0)  -->
<!DOCTYPE svg PUBLIC "-//W3C//DTD SVG 1.1//EN" "http://www.w3.org/Graphics/SVG/1.1/DTD/svg11.dtd">
<svg version="1.1" id="Calque_1" xmlns="http://www.w3.org/2000/svg" xmlns:xlink="http://www.w3.org/1999/xlink" x="0px" y="0px"
	 width="1190.551px" height="1190.551px" viewBox="0 0 1190.551 1190.551" enable-background="new 0 0 1190.551 1190.551"
	 xml:space="preserve">
<path fill="#010202" d="M300.19,705.22h-2.474c164.346-0.042,297.562-133.284,297.562-297.64h-180.11v-58.992H595.28V0H430.37
	v96.531H246.693V0H83.124v99.213H0v134.074h166.249v61.672h99.213V407.58H0c-0.001,164.356,133.215,297.598,297.562,297.64h-2.472
	H-0.001v76.102c0,0,159.586,0,212.78,0c36,0,50,10.398,50,48.898v173.09h32.312h5.099h32.312V830.22c0-38.5,14-48.898,50-48.898
	c53.193,0,212.777,0,212.777,0V705.22H300.19z"/>
</svg>
