<?xml version="1.0" encoding="utf-8"?>
<!-- Generator: Adobe Illustrator 16.0.0, SVG Export Plug-In . SVG Version: 6.00 Build 0)  -->
<!DOCTYPE svg PUBLIC "-//W3C//DTD SVG 1.1//EN" "http://www.w3.org/Graphics/SVG/1.1/DTD/svg11.dtd">
<svg version="1.1" id="Calque_1" xmlns="http://www.w3.org/2000/svg" xmlns:xlink="http://www.w3.org/1999/xlink" x="0px" y="0px"
	 width="1190.551px" height="1190.551px" viewBox="0 0 1190.551 1190.551" enable-background="new 0 0 1190.551 1190.551"
	 xml:space="preserve">
<path fill="#010202" d="M593.05,808.41V644.841h-99.213v-83.124H359.762v166.249H298.09v29.49L125,757.457
	c-38.5,0-48.897-14-48.897-50c0-49.963,0-193.778,0-211.066c54.49,60.696,133.549,98.887,221.538,98.887V0
	C133.258-0.001,0,133.257,0,297.639c0,75.571,28.18,144.55,74.584,197.041H0v295.092v5.099v295.091h76.103c0,0,0-159.586,0-212.781
	c0-36,10.397-50,48.897-50h60.469v149.705h58.992v180.112H593.05V992.088h-96.533V808.41H593.05z"/>
</svg>
