<?xml version="1.0" encoding="utf-8"?>
<!-- Generator: Adobe Illustrator 16.0.0, SVG Export Plug-In . SVG Version: 6.00 Build 0)  -->
<!DOCTYPE svg PUBLIC "-//W3C//DTD SVG 1.1//EN" "http://www.w3.org/Graphics/SVG/1.1/DTD/svg11.dtd">
<svg version="1.1" id="Calque_1" xmlns="http://www.w3.org/2000/svg" xmlns:xlink="http://www.w3.org/1999/xlink" x="0px" y="0px"
	 width="1190.551px" height="1190.551px" viewBox="0 0 1190.551 1190.551" enable-background="new 0 0 1190.551 1190.551"
	 xml:space="preserve">
<path fill="#010202" d="M382.501,1107.505c-36,0-50-10.398-50-48.898V885.518h262.776
	c0.002-164.383-133.256-297.641-297.638-297.641c-22.099,0-43.627,2.429-64.353,6.998V429.031h61.672v-99.213H407.58V180.112
	h-58.992V0H0v164.908h96.531v183.679H0v163.568h99.213v83.124h132.216C98.917,625.383-0.001,743.895-0.001,885.518h262.777
	l0.001,173.089c0,38.5-14,48.898-50,48.898c-53.193,0-212.777,0-212.777,0v76.102h295.091h5.1h295.091v-76.102
	C595.281,1107.505,435.696,1107.505,382.501,1107.505z"/>
</svg>
