<?xml version="1.0" encoding="utf-8"?>
<!-- Generator: Adobe Illustrator 16.0.0, SVG Export Plug-In . SVG Version: 6.00 Build 0)  -->
<!DOCTYPE svg PUBLIC "-//W3C//DTD SVG 1.1//EN" "http://www.w3.org/Graphics/SVG/1.1/DTD/svg11.dtd">
<svg version="1.1" id="Calque_1" xmlns="http://www.w3.org/2000/svg" xmlns:xlink="http://www.w3.org/1999/xlink" x="0px" y="0px"
	 width="1190.551px" height="1190.551px" viewBox="0 0 1190.551 1190.551" enable-background="new 0 0 1190.551 1190.551"
	 xml:space="preserve">
<g>
	<path fill="#010202" d="M-0.001,892.921h595.278C595.28,728.537,462.022,595.28,297.64,595.28
		C133.257,595.28-0.001,728.537-0.001,892.921z"/>
	<path fill="#010202" d="M693.55,354.269c-36,0-50-10.397-50-48.897V132.281h-32.312h-5.099h-32.312l-0.001,173.091
		c0,38.5-14,48.897-50,48.897c-53.192,0-212.777,0-212.777,0V246.693h96.532V83.124h-99.213V0H174.293v166.249h-61.672v99.213H0
		v149.706h58.992V595.28H297.64h109.94V430.371h198.56h5.099H906.33v-76.103C906.33,354.269,746.743,354.269,693.55,354.269z"/>
</g>
</svg>
