<?xml version="1.0" encoding="utf-8"?>
<!-- Generator: Adobe Illustrator 16.0.0, SVG Export Plug-In . SVG Version: 6.00 Build 0)  -->
<!DOCTYPE svg PUBLIC "-//W3C//DTD SVG 1.1//EN" "http://www.w3.org/Graphics/SVG/1.1/DTD/svg11.dtd">
<svg version="1.1" id="Calque_1" xmlns="http://www.w3.org/2000/svg" xmlns:xlink="http://www.w3.org/1999/xlink" x="0px" y="0px"
	 width="1190.551px" height="1190.551px" viewBox="0 0 1190.551 1190.551" enable-background="new 0 0 1190.551 1190.551"
	 xml:space="preserve">
<path fill="#010202" d="M680.135,1020.828c-36,0-50-10.398-50-48.898V798.84h-32.312h-2.472
	c164.345-0.041,297.562-133.283,297.562-297.639h-83.123v-99.213h83.123V267.914H726.664v-61.672h-99.213V93.621H477.746v58.991
	H297.635v348.589c-0.001,164.356,133.215,297.598,297.562,297.639h-2.473h-32.312l0.001,173.09c0,38.5-14,48.898-50,48.898
	c-53.192,0-212.776,0-212.776,0v76.102h295.091h5.1h295.09v-76.102C892.914,1020.828,733.33,1020.828,680.135,1020.828z
	 M462.543,404.668h183.678v96.532H462.543V404.668z"/>
</svg>
