<?xml version="1.0" encoding="utf-8"?>
<!-- Generator: Adobe Illustrator 16.0.0, SVG Export Plug-In . SVG Version: 6.00 Build 0)  -->
<!DOCTYPE svg PUBLIC "-//W3C//DTD SVG 1.1//EN" "http://www.w3.org/Graphics/SVG/1.1/DTD/svg11.dtd">
<svg version="1.1" id="Calque_1" xmlns="http://www.w3.org/2000/svg" xmlns:xlink="http://www.w3.org/1999/xlink" x="0px" y="0px"
	 width="1190.551px" height="1190.551px" viewBox="0 0 1190.551 1190.551" enable-background="new 0 0 1190.551 1190.551"
	 xml:space="preserve">
<g>
	<path fill="#010202" d="M595.278,297.64C595.279,133.259,462.021,0,297.64,0C133.257,0-0.001,133.259-0.001,297.641h83.125v99.212
		H0v134.074h166.249v61.672h99.213V705.22h149.706v-58.992H595.28V297.64H595.278z M246.693,394.172v-96.531H430.37v96.531H246.693z
		"/>
	<path fill="#010202" d="M76.103,743.704c0-53.192,0-212.776,0-212.776H0v295.091v5.099v295.093h76.103c0,0,0-159.587,0-212.781
		c0-36,10.397-50,48.897-50h173.09v-32.312v-5.099v-32.312L125,793.704C86.5,793.704,76.103,779.704,76.103,743.704z"/>
</g>
</svg>
