<?xml version="1.0" encoding="utf-8"?>
<!-- Generator: Adobe Illustrator 16.0.0, SVG Export Plug-In . SVG Version: 6.00 Build 0)  -->
<!DOCTYPE svg PUBLIC "-//W3C//DTD SVG 1.1//EN" "http://www.w3.org/Graphics/SVG/1.1/DTD/svg11.dtd">
<svg version="1.1" id="Calque_1" xmlns="http://www.w3.org/2000/svg" xmlns:xlink="http://www.w3.org/1999/xlink" x="0px" y="0px"
	 width="1190.551px" height="1190.551px" viewBox="0 0 1190.551 1190.551" enable-background="new 0 0 1190.551 1190.551"
	 xml:space="preserve">
<g>
	<path fill="#010202" d="M892.914,329.81c0-164.381-133.258-297.64-297.638-297.64c-164.383,0-297.641,133.259-297.641,297.641
		h83.125v99.212h-83.124v134.074h166.249v61.673h99.213v112.62h149.707v-58.992h180.111V329.81H892.914z M544.329,426.342v-96.531
		h183.677v96.531H544.329z"/>
	<path fill="#010202" d="M373.739,775.874c0-53.192,0-212.776,0-212.776h-76.103v295.091v5.1v295.093h76.103
		c0,0,0-159.587,0-212.781c0-36,10.397-50,48.897-50h173.09v-32.312v-5.1v-32.312l-173.09-0.003
		C384.136,825.874,373.739,811.874,373.739,775.874z"/>
</g>
</svg>
