<?xml version="1.0" encoding="utf-8"?>
<!-- Generator: Adobe Illustrator 16.0.0, SVG Export Plug-In . SVG Version: 6.00 Build 0)  -->
<!DOCTYPE svg PUBLIC "-//W3C//DTD SVG 1.1//EN" "http://www.w3.org/Graphics/SVG/1.1/DTD/svg11.dtd">
<svg version="1.1" id="Calque_1" xmlns="http://www.w3.org/2000/svg" xmlns:xlink="http://www.w3.org/1999/xlink" x="0px" y="0px"
	 width="1190.551px" height="1190.551px" viewBox="0 0 1190.551 1190.551" enable-background="new 0 0 1190.551 1190.551"
	 xml:space="preserve">
<g>
	<path fill="#010202" d="M142.111,1041.736h595.277c0.003-164.385-133.255-297.641-297.637-297.641
		C275.368,744.096,142.111,877.352,142.111,1041.736z"/>
	<path fill="#010202" d="M835.661,503.084c-36,0-50-10.397-50-48.897V281.096h-32.312h-5.099h-32.312l-0.001,173.091
		c0,38.5-14,48.897-50,48.897c-53.191,0-212.776,0-212.776,0V395.508h96.532V231.939H450.48v-83.124H316.405v166.249h-61.672v99.213
		H142.112v149.706h58.992v180.113h238.647h109.94v-164.91h198.56h5.099h295.091v-76.103
		C1048.441,503.084,888.854,503.084,835.661,503.084z"/>
</g>
</svg>
