<?xml version="1.0" encoding="utf-8"?>
<!-- Generator: Adobe Illustrator 16.0.0, SVG Export Plug-In . SVG Version: 6.00 Build 0)  -->
<!DOCTYPE svg PUBLIC "-//W3C//DTD SVG 1.1//EN" "http://www.w3.org/Graphics/SVG/1.1/DTD/svg11.dtd">
<svg version="1.1" id="Calque_1" xmlns="http://www.w3.org/2000/svg" xmlns:xlink="http://www.w3.org/1999/xlink" x="0px" y="0px"
	 width="1190.551px" height="1190.551px" viewBox="0 0 1190.551 1190.551" enable-background="new 0 0 1190.551 1190.551"
	 xml:space="preserve">
<g>
	<path fill="#010202" d="M290.706,1041.736h595.277c0.003-164.385-133.255-297.641-297.637-297.641
		C423.964,744.096,290.706,877.352,290.706,1041.736z"/>
	<path fill="#010202" d="M823.74,246.593c0,0,0,159.586,0,212.78c0,36-10.396,50-48.896,50h-173.09V395.508h96.532V231.939h-99.213
		v-83.124H465v166.249h-61.672v99.213H290.707v149.706h58.992v180.113h238.647h109.94v-164.91h-96.532v-0.091l173.09,0.001
		c38.5,0,48.896,14,48.896,50c0,53.193,0,212.777,0,212.777h76.104V546.782v-5.099v-295.09H823.74z"/>
</g>
</svg>
