<?xml version="1.0" encoding="utf-8"?>
<!-- Generator: Adobe Illustrator 16.0.0, SVG Export Plug-In . SVG Version: 6.00 Build 0)  -->
<!DOCTYPE svg PUBLIC "-//W3C//DTD SVG 1.1//EN" "http://www.w3.org/Graphics/SVG/1.1/DTD/svg11.dtd">
<svg version="1.1" id="Calque_1" xmlns="http://www.w3.org/2000/svg" xmlns:xlink="http://www.w3.org/1999/xlink" x="0px" y="0px"
	 width="1190.551px" height="1190.551px" viewBox="0 0 1190.551 1190.551" enable-background="new 0 0 1190.551 1190.551"
	 xml:space="preserve">
<path fill="#010202" d="M789.842,234.494c0,0,0,159.586,0,212.78c0,36-10.396,50-48.896,50h-173
	c34.204-48.463,54.303-107.592,54.303-171.42c0-164.382-133.259-297.641-297.641-297.641V623.49
	c65.098,0.001,125.302-20.912,174.294-56.365v166.181h-61.672v99.213H324.608v149.705H383.6v180.113h348.587v-164.91h-96.531
	V813.752h96.531v-163.57h-99.213v-83.125h-133.98c26.603-19.267,49.898-42.817,68.859-69.654v32.181v5.099v32.312l173.089,0.001
	c38.5,0,48.898,14,48.898,50c0,53.193,0,212.777,0,212.777h76.102V534.682v-5.099v-295.09H789.842z"/>
</svg>
