<?xml version="1.0" encoding="utf-8"?>
<!-- Generator: Adobe Illustrator 16.0.0, SVG Export Plug-In . SVG Version: 6.00 Build 0)  -->
<!DOCTYPE svg PUBLIC "-//W3C//DTD SVG 1.1//EN" "http://www.w3.org/Graphics/SVG/1.1/DTD/svg11.dtd">
<svg version="1.1" id="Calque_1" xmlns="http://www.w3.org/2000/svg" xmlns:xlink="http://www.w3.org/1999/xlink" x="0px" y="0px"
	 width="1190.551px" height="1190.551px" viewBox="0 0 1190.551 1190.551" enable-background="new 0 0 1190.551 1190.551"
	 xml:space="preserve">
<path fill="#010202" d="M550.913,670.358c-38.5,0-48.896-14-48.896-50c0-53.193,0-212.777,0-212.777h10.139v-99.213h83.124V174.293
	H429.031v-61.671h-99.213V0H180.112v58.993H0V407.58h164.908v-96.532h183.679v96.532H221.044v280.348h55.712v215.65H0v95.247
	h425.913v4.034h76.104c0,0,0-159.585,0-212.781c0-36,10.396-50,48.896-50h173.092v-32.311v-5.099v-32.312L550.913,670.358z"/>
</svg>
