<?xml version="1.0" encoding="utf-8"?>
<!-- Generator: Adobe Illustrator 16.0.0, SVG Export Plug-In . SVG Version: 6.00 Build 0)  -->
<!DOCTYPE svg PUBLIC "-//W3C//DTD SVG 1.1//EN" "http://www.w3.org/Graphics/SVG/1.1/DTD/svg11.dtd">
<svg version="1.1" id="Calque_1" xmlns="http://www.w3.org/2000/svg" xmlns:xlink="http://www.w3.org/1999/xlink" x="0px" y="0px"
	 width="1190.551px" height="1190.551px" viewBox="0 0 1190.551 1190.551" enable-background="new 0 0 1190.551 1190.551"
	 xml:space="preserve">
<g>
	<path fill="#010202" d="M0,0v204.87h88.419v164.908h96.532v183.679H88.419v163.568h99.213v83.124h134.074V633.901h61.671v-99.213
		h112.621V425.914h95.247V0H0z M495.998,384.982h-58.991V204.87H280.348v-55.713h215.65V384.982z"/>
	<path fill="#010202" d="M76.103,750.252c0-53.194,0-212.778,0-212.778H0v295.091v5.1v295.09h76.103c0,0,0-159.585,0-212.781
		c0-36,10.397-50,48.897-50h173.09v-32.311v-5.101V800.25L125,800.252C86.5,800.252,76.103,786.252,76.103,750.252z"/>
</g>
</svg>
