<?xml version="1.0" encoding="utf-8"?>
<!-- Generator: Adobe Illustrator 16.0.0, SVG Export Plug-In . SVG Version: 6.00 Build 0)  -->
<!DOCTYPE svg PUBLIC "-//W3C//DTD SVG 1.1//EN" "http://www.w3.org/Graphics/SVG/1.1/DTD/svg11.dtd">
<svg version="1.1" id="Calque_1" xmlns="http://www.w3.org/2000/svg" xmlns:xlink="http://www.w3.org/1999/xlink" x="0px" y="0px"
	 width="1190.551px" height="1190.551px" viewBox="0 0 1190.551 1190.551" enable-background="new 0 0 1190.551 1190.551"
	 xml:space="preserve">
<path fill="#010202" d="M592.727,745.878h5.099h295.09v-76.103c0,0-159.585,0-212.779,0c-36,0-50-10.397-50-48.897v-173.09h-32.312
	h-5.1h-0.13v-99.213h112.622V198.87h-58.993V18.758H297.636v164.908h96.532v183.679h-96.532v163.568h99.213v83.124h134.074V447.789
	h29.487l0.002,173.09c0,38.5-14,48.897-50,48.897c-53.192,0-212.776,0-212.776,0v76.103v425.914H888.88v-204.87H608.533v55.712
	h-215.65V745.878H592.727z"/>
</svg>
