<?xml version="1.0" encoding="utf-8"?>
<!-- Generator: Adobe Illustrator 16.0.0, SVG Export Plug-In . SVG Version: 6.00 Build 0)  -->
<!DOCTYPE svg PUBLIC "-//W3C//DTD SVG 1.1//EN" "http://www.w3.org/Graphics/SVG/1.1/DTD/svg11.dtd">
<svg version="1.1" id="Calque_1" xmlns="http://www.w3.org/2000/svg" xmlns:xlink="http://www.w3.org/1999/xlink" x="0px" y="0px"
	 width="1190.551px" height="1190.551px" viewBox="0 0 1190.551 1190.551" enable-background="new 0 0 1190.551 1190.551"
	 xml:space="preserve">
<path fill="#010202" d="M728.005,736.75v96.531H544.328V736.75h34.28c0,0,0-159.585,0-212.78c0-36,10.397-50,48.897-50h173.089
	v-32.312v-5.1v-32.312l-173.089,0.002c-38.5,0-48.897-14-48.897-50c0-53.193,0-212.777,0-212.777h144.939V46.223H297.636v591.246
	h204.87v99.28H380.76v99.213h-83.124v134.073h166.249v61.672h99.213v112.621h149.706v-58.992h180.111V736.75H728.005z
	 M446.793,357.121V141.47h55.713v215.65L446.793,357.121L446.793,357.121z"/>
</svg>
