<?xml version="1.0" encoding="utf-8"?>
<!-- Generator: Adobe Illustrator 16.0.0, SVG Export Plug-In . SVG Version: 6.00 Build 0)  -->
<!DOCTYPE svg PUBLIC "-//W3C//DTD SVG 1.1//EN" "http://www.w3.org/Graphics/SVG/1.1/DTD/svg11.dtd">
<svg version="1.1" id="Calque_1" xmlns="http://www.w3.org/2000/svg" xmlns:xlink="http://www.w3.org/1999/xlink" x="0px" y="0px"
	 width="1190.551px" height="1190.551px" viewBox="0 0 1190.551 1190.551" enable-background="new 0 0 1190.551 1190.551"
	 xml:space="preserve">
<path fill="#010202" d="M425.912,573.674c0,0,0,8.243,0,21.605H407.58V430.371h-96.532V246.693h96.532V83.124h-99.213V0H174.293
	v166.249h-61.671v99.213H0v149.706h58.993V595.28H0v591.246h204.87V906.178h-55.713V690.527h276.755c0,37.645,0,75.011,0,95.927
	c0,36-10.396,50-48.896,50H203.925v32.312v5.099v32.312l173.091-0.001c38.5,0,48.896,14,48.896,50c0,53.192,0,212.776,0,212.776
	h76.104V873.862v-5.098v-295.09H425.912z"/>
</svg>
