<?xml version="1.0" encoding="utf-8"?>
<!-- Generator: Adobe Illustrator 16.0.0, SVG Export Plug-In . SVG Version: 6.00 Build 0)  -->
<!DOCTYPE svg PUBLIC "-//W3C//DTD SVG 1.1//EN" "http://www.w3.org/Graphics/SVG/1.1/DTD/svg11.dtd">
<svg version="1.1" id="Calque_1" xmlns="http://www.w3.org/2000/svg" xmlns:xlink="http://www.w3.org/1999/xlink" x="0px" y="0px"
	 width="1190.551px" height="1190.551px" viewBox="0 0 1190.551 1190.551" enable-background="new 0 0 1190.551 1190.551"
	 xml:space="preserve">
<path fill="#010202" d="M532.579,483.822c-38.5,0-48.896-14-48.896-50c0-53.193,0-212.777,0-212.777H407.58V83.124h-99.213V0
	H174.293v166.249h-61.671v99.213H0v149.706h58.993V595.28H0v425.914h591.245v-204.87H483.683c0,0,0-159.585,0-212.781
	c0-35.999,10.396-49.999,48.896-49.999h173.092v-32.312v-5.1V483.82L532.579,483.822z M311.048,246.693h96.532v183.679h-96.532
	V246.693z M310.898,816.323v55.712H95.247V595.28H407.58v221.044H310.898z"/>
</svg>
