<?xml version="1.0" encoding="utf-8"?>
<!-- Generator: Adobe Illustrator 16.0.0, SVG Export Plug-In . SVG Version: 6.00 Build 0)  -->
<!DOCTYPE svg PUBLIC "-//W3C//DTD SVG 1.1//EN" "http://www.w3.org/Graphics/SVG/1.1/DTD/svg11.dtd">
<svg version="1.1" id="Calque_1" xmlns="http://www.w3.org/2000/svg" xmlns:xlink="http://www.w3.org/1999/xlink" x="0px" y="0px"
	 width="1190.551px" height="1190.551px" viewBox="0 0 1190.551 1190.551" enable-background="new 0 0 1190.551 1190.551"
	 xml:space="preserve">
<path fill="#010202" d="M512.156,407.58v-99.213h83.124V174.293H429.031v-61.671h-99.213V0H180.112v58.993H0V407.58v425.913h262.775
	l0.002,173.092c0,38.5-14,48.896-50,48.896c-53.193,0-212.777,0-212.777,0v76.104h295.091h5.099h295.09v-76.104
	c0,0-159.585,0-212.78,0c-36,0-50-10.396-50-48.896V833.493h258.746v-204.87H310.898v55.712H95.247V407.58h69.661v-96.532h183.679
	v96.532H512.156z"/>
</svg>
