<?xml version="1.0" encoding="utf-8"?>
<!-- Generator: Adobe Illustrator 16.0.0, SVG Export Plug-In . SVG Version: 6.00 Build 0)  -->
<!DOCTYPE svg PUBLIC "-//W3C//DTD SVG 1.1//EN" "http://www.w3.org/Graphics/SVG/1.1/DTD/svg11.dtd">
<svg version="1.1" id="Calque_1" xmlns="http://www.w3.org/2000/svg" xmlns:xlink="http://www.w3.org/1999/xlink" x="0px" y="0px"
	 width="1190.551px" height="1190.551px" viewBox="0 0 1190.551 1190.551" enable-background="new 0 0 1190.551 1190.551"
	 xml:space="preserve">
<path fill="#010202" d="M726.666,220.516v-61.671h-99.213V46.223H477.748v58.993H297.636v348.587v591.245h204.87v99.28h76.103
	c0,0,0-159.585,0-212.78c0-36,10.397-50,48.897-50h173.09v-32.312v-5.099v-32.312l-173.09,0.001c-38.5,0-48.897-14-48.897-50
	c0-53.193,0-212.776,0-212.776h144.94v-95.247h86.242V354.59h83.123V220.516H726.666z M502.507,764.701h-55.713v-215.65h55.713
	V764.701z M462.545,453.803v-96.532h183.678v96.532H462.545z"/>
</svg>
