<?xml version="1.0" encoding="utf-8"?>
<!-- Generator: Adobe Illustrator 16.0.0, SVG Export Plug-In . SVG Version: 6.00 Build 0)  -->
<!DOCTYPE svg PUBLIC "-//W3C//DTD SVG 1.1//EN" "http://www.w3.org/Graphics/SVG/1.1/DTD/svg11.dtd">
<svg version="1.1" id="Calque_1" xmlns="http://www.w3.org/2000/svg" xmlns:xlink="http://www.w3.org/1999/xlink" x="0px" y="0px"
	 width="1190.551px" height="1190.551px" viewBox="0 0 1190.551 1190.551" enable-background="new 0 0 1190.551 1190.551"
	 xml:space="preserve">
<path fill="#010202" d="M429.031,174.293v-61.671h-99.213V0H180.112v58.993H0V407.58v591.245h204.87v99.281h76.103
	c0,0,0-159.585,0-212.781c0-36,10.397-50,48.897-50h173.089v-32.311v-5.099v-32.312l-173.089,0.001c-38.5,0-48.897-14-48.897-50
	c0-53.194,0-212.777,0-212.777h144.94V407.58h86.242v-99.213h83.124V174.293H429.031z M204.87,718.478h-55.713v-215.65h55.713
	V718.478z M164.908,407.58v-96.532h183.679v96.532H164.908z"/>
</svg>
