<?xml version="1.0" encoding="utf-8"?>
<!-- Generator: Adobe Illustrator 16.0.0, SVG Export Plug-In . SVG Version: 6.00 Build 0)  -->
<!DOCTYPE svg PUBLIC "-//W3C//DTD SVG 1.1//EN" "http://www.w3.org/Graphics/SVG/1.1/DTD/svg11.dtd">
<svg version="1.1" id="Calque_1" xmlns="http://www.w3.org/2000/svg" xmlns:xlink="http://www.w3.org/1999/xlink" x="0px" y="0px"
	 width="1190.551px" height="1190.551px" viewBox="0 0 1190.551 1190.551" enable-background="new 0 0 1190.551 1190.551"
	 xml:space="preserve">
<path fill="#010202" d="M892.915,367.854V19.267h-164.91v96.531H544.328V19.267H380.76v99.213h-83.124v134.074h166.249v61.671
	h99.213v112.622H297.636v204.869h280.348c0,51.33,0,124.338,0,157.068c0,36-10.396,50-48.896,50H355.995v32.312v5.101v32.312
	l173.092-0.002c38.5,0,48.896,14,48.896,50c0,53.193,0,212.777,0,212.777h76.104V876.193v-5.1v-295.09h139.547V852.76h95.247
	V426.847H712.804v-58.993H892.915L892.915,367.854z"/>
</svg>
