<?xml version="1.0" encoding="utf-8"?>
<!-- Generator: Adobe Illustrator 16.0.0, SVG Export Plug-In . SVG Version: 6.00 Build 0)  -->
<!DOCTYPE svg PUBLIC "-//W3C//DTD SVG 1.1//EN" "http://www.w3.org/Graphics/SVG/1.1/DTD/svg11.dtd">
<svg version="1.1" id="Calque_1" xmlns="http://www.w3.org/2000/svg" xmlns:xlink="http://www.w3.org/1999/xlink" x="0px" y="0px"
	 width="1190.551px" height="1190.551px" viewBox="0 0 1190.551 1190.551" enable-background="new 0 0 1190.551 1190.551"
	 xml:space="preserve">
<path fill="#010202" d="M295.091,727.12h5.099h295.09v-76.102c0,0-159.585,0-212.78,0c-36,0-50-10.398-50-48.898v-173.09h-32.312
	h-5.1h-0.13v-99.213H407.58V180.112h-58.993V0H0v164.908h96.532v183.679H0v163.568h99.213v83.124h134.074V429.031h29.488
	l0.002,173.09c0,38.5-14,48.898-50,48.898c-53.193,0-212.777,0-212.777,0v76.102v425.914h591.245v-204.87H310.898v55.712H95.247
	V727.12H295.091z"/>
</svg>
