<?xml version="1.0" encoding="utf-8"?>
<!-- Generator: Adobe Illustrator 16.0.0, SVG Export Plug-In . SVG Version: 6.00 Build 0)  -->
<!DOCTYPE svg PUBLIC "-//W3C//DTD SVG 1.1//EN" "http://www.w3.org/Graphics/SVG/1.1/DTD/svg11.dtd">
<svg version="1.1" id="Calque_1" xmlns="http://www.w3.org/2000/svg" xmlns:xlink="http://www.w3.org/1999/xlink" x="0px" y="0px"
	 width="1190.551px" height="1190.551px" viewBox="0 0 1190.551 1190.551" enable-background="new 0 0 1190.551 1190.551"
	 xml:space="preserve">
<path fill="#010202" d="M809.791,475.112v-99.213h83.124V241.825H726.666v-61.671h-99.213V67.532H477.747v58.993H297.636v348.587
	h164.908v198.56v5.099v295.09h-69.661V697.104h-95.247v425.914H888.88v-204.87H608.533v55.712h-69.887c0,0,0-159.585,0-212.779
	c0-36,10.397-50,48.897-50h173.089V678.77v-5.1v-32.312l-173.089,0.002c-38.5,0-48.897-14-48.897-50c0-53.194,0-212.778,0-212.778
	h107.576v96.532h163.568V475.112z"/>
</svg>
