<?xml version="1.0" encoding="utf-8"?>
<!-- Generator: Adobe Illustrator 16.0.0, SVG Export Plug-In . SVG Version: 6.00 Build 0)  -->
<!DOCTYPE svg PUBLIC "-//W3C//DTD SVG 1.1//EN" "http://www.w3.org/Graphics/SVG/1.1/DTD/svg11.dtd">
<svg version="1.1" id="Calque_1" xmlns="http://www.w3.org/2000/svg" xmlns:xlink="http://www.w3.org/1999/xlink" x="0px" y="0px"
	 width="1190.551px" height="1190.551px" viewBox="0 0 1190.551 1190.551" enable-background="new 0 0 1190.551 1190.551"
	 xml:space="preserve">
<path fill="#010202" d="M595.28,348.587V0H430.37v96.531H246.693V0H83.124v99.213H0v134.074h166.249v61.671h99.213V407.58H0v204.869
	h280.348c0,51.33,0,124.338,0,157.069c0,36-10.397,50-48.897,50H58.36v32.311v5.101v32.312l173.091-0.002
	c38.5,0,48.897,14,48.897,50c0,53.194,0,212.778,0,212.778h76.103V856.927v-5.1v-295.09h139.548v276.756h95.247V407.58H415.168
	v-58.993H595.28z"/>
</svg>
