<?xml version="1.0" encoding="utf-8"?>
<!-- Generator: Adobe Illustrator 16.0.0, SVG Export Plug-In . SVG Version: 6.00 Build 0)  -->
<!DOCTYPE svg PUBLIC "-//W3C//DTD SVG 1.1//EN" "http://www.w3.org/Graphics/SVG/1.1/DTD/svg11.dtd">
<svg version="1.1" id="Calque_1" xmlns="http://www.w3.org/2000/svg" xmlns:xlink="http://www.w3.org/1999/xlink" x="0px" y="0px"
	 width="1190.551px" height="1190.551px" viewBox="0 0 1190.551 1190.551" enable-background="new 0 0 1190.551 1190.551"
	 xml:space="preserve">
<g>
	<path fill="#010202" d="M299.654,28.898v204.87h88.419v164.908h96.532v183.679h-96.532v163.569h99.213v83.123H621.36V662.799
		h61.671v-99.213h112.62V454.812h95.247V28.898H299.654z M795.651,413.88h-58.99V233.768H580.001v-55.713h215.649V413.88z"/>
	<path fill="#010202" d="M375.756,779.15c0-53.195,0-212.778,0-212.778h-76.103v295.091v5.1v295.09h76.103c0,0,0-159.584,0-212.781
		c0-36,10.397-50,48.897-50h173.09v-32.311v-5.1v-32.312l-173.09,0.002C386.154,829.15,375.756,815.15,375.756,779.15z"/>
</g>
</svg>
