<?xml version="1.0" encoding="utf-8"?>
<!-- Generator: Adobe Illustrator 16.0.0, SVG Export Plug-In . SVG Version: 6.00 Build 0)  -->
<!DOCTYPE svg PUBLIC "-//W3C//DTD SVG 1.1//EN" "http://www.w3.org/Graphics/SVG/1.1/DTD/svg11.dtd">
<svg version="1.1" id="Calque_1" xmlns="http://www.w3.org/2000/svg" xmlns:xlink="http://www.w3.org/1999/xlink" x="0px" y="0px"
	 width="1190.551px" height="1190.551px" viewBox="0 0 1190.551 1190.551" enable-background="new 0 0 1190.551 1190.551"
	 xml:space="preserve">
<path fill="#010202" d="M775.018,568.5c-38.5,0-48.895-14-48.895-50c0-53.193,0-212.777,0-212.777H650.02V167.802h-99.212V84.678
	H416.733v166.249h-61.671v99.213H242.44v149.706h58.993v180.113H242.44v425.914h591.244V901.002H726.123c0,0,0-159.584,0-212.781
	c0-35.998,10.395-49.998,48.895-49.998h173.094V605.91v-5.1v-32.312L775.018,568.5z M553.488,331.371h96.532V515.05h-96.532V331.371
	L553.488,331.371z M553.338,901.002v55.711h-215.65V679.959H650.02v221.043H553.338L553.338,901.002z"/>
</svg>
