<?xml version="1.0" encoding="utf-8"?>
<!-- Generator: Adobe Illustrator 16.0.0, SVG Export Plug-In . SVG Version: 6.00 Build 0)  -->
<!DOCTYPE svg PUBLIC "-//W3C//DTD SVG 1.1//EN" "http://www.w3.org/Graphics/SVG/1.1/DTD/svg11.dtd">
<svg version="1.1" id="Calque_1" xmlns="http://www.w3.org/2000/svg" xmlns:xlink="http://www.w3.org/1999/xlink" x="0px" y="0px"
	 width="1190.551px" height="1190.551px" viewBox="0 0 1190.551 1190.551" enable-background="new 0 0 1190.551 1190.551"
	 xml:space="preserve">
<path fill="#010202" d="M770.179,575.686c0,0,0,8.243,0,21.605h-18.331V432.383h-96.532V248.705h96.532V85.136h-99.214V2.012
	H518.561v166.249H456.89v99.213H344.268V417.18h58.993v180.113h-58.993v591.246h204.87v-280.35h-55.713v-215.65h276.754
	c0,37.645,0,75.012,0,95.928c0,36-10.396,50-48.896,50H548.193v32.311v5.1v32.312l173.091-0.002c38.5,0,48.896,14,48.896,50
	c0,53.193,0,212.777,0,212.777h76.104v-295.09v-5.1V575.686H770.179L770.179,575.686z"/>
</svg>
