<?xml version="1.0" encoding="utf-8"?>
<!-- Generator: Adobe Illustrator 16.0.0, SVG Export Plug-In . SVG Version: 6.00 Build 0)  -->
<!DOCTYPE svg PUBLIC "-//W3C//DTD SVG 1.1//EN" "http://www.w3.org/Graphics/SVG/1.1/DTD/svg11.dtd">
<svg version="1.1" id="Calque_1" xmlns="http://www.w3.org/2000/svg" xmlns:xlink="http://www.w3.org/1999/xlink" x="0px" y="0px"
	 width="1190.551px" height="1190.551px" viewBox="0 0 1190.551 1190.551" enable-background="new 0 0 1190.551 1190.551"
	 xml:space="preserve">
<path fill="#010202" d="M809.791,437.063V337.85h83.124V203.776H726.666v-61.671h-99.213V29.483H477.747v58.993H297.636v348.587
	v425.914H560.41l0.002,173.092c0,38.5-14,48.895-50,48.895c-53.192,0-212.776,0-212.776,0v76.105h295.091h5.099h295.09v-76.105
	c0,0-159.585,0-212.779,0c-36,0-50-10.395-50-48.895V862.977h258.745V658.105H608.533v55.713h-215.65V437.063h69.661v-96.532
	h183.679v96.532H809.791z"/>
</svg>
