<?xml version="1.0" encoding="utf-8"?>
<!-- Generator: Adobe Illustrator 16.0.0, SVG Export Plug-In . SVG Version: 6.00 Build 0)  -->
<!DOCTYPE svg PUBLIC "-//W3C//DTD SVG 1.1//EN" "http://www.w3.org/Graphics/SVG/1.1/DTD/svg11.dtd">
<svg version="1.1" id="Calque_1" xmlns="http://www.w3.org/2000/svg" xmlns:xlink="http://www.w3.org/1999/xlink" x="0px" y="0px"
	 width="1190.551px" height="1190.551px" viewBox="0 0 1190.551 1190.551" enable-background="new 0 0 1190.551 1190.551"
	 xml:space="preserve">
<path fill="#010202" d="M512.156,407.58v-99.213h83.124V174.293H429.031v-61.671h-99.213V0H180.112v58.993H0V407.58h164.908v198.56
	v5.098v295.09H95.247V629.572H0v425.914h591.245v-204.87H310.898v55.712h-69.887c0,0,0-159.585,0-212.779c0-36,10.397-50,48.897-50
	h173.09v-32.312v-5.099v-32.312l-173.09,0.002c-38.5,0-48.897-14-48.897-50c0-53.194,0-212.778,0-212.778h107.576v96.532H512.156z"
	/>
</svg>
