<?xml version="1.0" encoding="utf-8"?>
<!-- Generator: Adobe Illustrator 16.0.0, SVG Export Plug-In . SVG Version: 6.00 Build 0)  -->
<!DOCTYPE svg PUBLIC "-//W3C//DTD SVG 1.1//EN" "http://www.w3.org/Graphics/SVG/1.1/DTD/svg11.dtd">
<svg version="1.1" id="Calque_1" xmlns="http://www.w3.org/2000/svg" xmlns:xlink="http://www.w3.org/1999/xlink" x="0px" y="0px"
	 width="1190.551px" height="1190.551px" viewBox="0 0 1190.551 1190.551" enable-background="new 0 0 1190.551 1190.551"
	 xml:space="preserve">
<path fill="#010202" d="M958.412,525.008c0,0,0,159.584,0,212.78c0,9-0.65,16.626-2.228,23.001V169.544h-204.87V70.263H156.037
	v595.28h263.638v-414.28h68v414.28h42.597v95.247h425.914c-4.729,19.124-17.797,26.999-46.672,26.999h-173.09v32.312v5.1v32.312
	l173.09-0.002c38.5,0,48.897,14,48.897,50c0,53.194,0,212.778,0,212.778h76.103V825.197V820.1V525.008H958.412z M807.027,665.543
	h-55.712V449.891h55.712V665.543z"/>
</svg>
