<?xml version="1.0" encoding="utf-8"?>
<!-- Generator: Adobe Illustrator 16.0.0, SVG Export Plug-In . SVG Version: 6.00 Build 0)  -->
<!DOCTYPE svg PUBLIC "-//W3C//DTD SVG 1.1//EN" "http://www.w3.org/Graphics/SVG/1.1/DTD/svg11.dtd">
<svg version="1.1" id="Calque_1" xmlns="http://www.w3.org/2000/svg" xmlns:xlink="http://www.w3.org/1999/xlink" x="0px" y="0px"
	 width="1190.551px" height="1190.551px" viewBox="0 0 1190.551 1190.551" enable-background="new 0 0 1190.551 1190.551"
	 xml:space="preserve">
<path fill="#010202" d="M802.375,454.745c0,0,0,159.584,0,212.78c0,9-0.65,16.626-2.227,23.001V99.281h-204.87V0H0V595.28h263.638
	V181h68V595.28h42.597v95.247h425.914c-4.729,19.124-17.797,26.999-46.672,26.999h-173.09v32.312v5.099v32.312l173.09-0.002
	c38.5,0,48.898,14,48.898,50c0,53.194,0,212.778,0,212.778h76.102V754.935v-5.098V454.745H802.375z M650.99,595.28h-55.712V379.628
	h55.712V595.28z"/>
</svg>
