<?xml version="1.0" encoding="utf-8"?>
<!-- Generator: Adobe Illustrator 16.0.0, SVG Export Plug-In . SVG Version: 6.00 Build 0)  -->
<!DOCTYPE svg PUBLIC "-//W3C//DTD SVG 1.1//EN" "http://www.w3.org/Graphics/SVG/1.1/DTD/svg11.dtd">
<svg version="1.1" id="Calque_1" xmlns="http://www.w3.org/2000/svg" xmlns:xlink="http://www.w3.org/1999/xlink" x="0px" y="0px"
	 width="1190.551px" height="1190.551px" viewBox="0 0 1190.551 1190.551" enable-background="new 0 0 1190.551 1190.551"
	 xml:space="preserve">
<path fill="#010202" d="M855.977,111.797c0,0,0,159.585,0,212.778c0,9-0.65,16.626-2.227,23.001V37.298H258.472v595.278h137.599
	v136.493H258.472v232.488h211.095v151.695h224.99v-150.195H853.75V776.569H631.723l-0.164-143.993h-75.448v-191h-115.36v-206h210
	v112h203c-4.729,19.125-17.797,26.999-46.672,26.999h-173.09v32.312v5.1V444.3h173.09c38.5,0,48.898,14,48.898,50
	c0,53.193,0,212.777,0,212.777h76.102v-295.09v-5.1v-295.09H855.977z"/>
</svg>
