<?xml version="1.0" encoding="utf-8"?>
<!-- Generator: Adobe Illustrator 16.0.0, SVG Export Plug-In . SVG Version: 6.00 Build 0)  -->
<!DOCTYPE svg PUBLIC "-//W3C//DTD SVG 1.1//EN" "http://www.w3.org/Graphics/SVG/1.1/DTD/svg11.dtd">
<svg version="1.1" id="Calque_1" xmlns="http://www.w3.org/2000/svg" xmlns:xlink="http://www.w3.org/1999/xlink" x="0px" y="0px"
	 width="1190.551px" height="1190.551px" viewBox="0 0 1190.551 1190.551" enable-background="new 0 0 1190.551 1190.551"
	 xml:space="preserve">
<g>
	<polygon fill="#010202" points="481.776,557.975 717.264,557.975 717.264,421.482 854.864,421.482 854.864,188.995 
		643.768,188.995 643.768,37.298 418.779,37.298 418.779,187.495 259.585,187.495 259.585,413.983 481.613,413.983 	"/>
	<path fill="#010202" d="M633.326,557.976v191h115.359v206h-210v-112H335.687c0-18.656,0-35.04,0-46.49c0-36,10.397-50,48.897-50
		h173.091v-32.312v-5.1v-32.312H384.585v-0.001c-38.5,0-48.897-14-48.897-50.001c0-53.193,0-212.777,0-212.777h-76.103v295.091v5.1
		v295.091h76.102v143.988h595.281V557.976H633.326z"/>
</g>
</svg>
