<?xml version="1.0" encoding="utf-8"?>
<!-- Generator: Adobe Illustrator 16.0.0, SVG Export Plug-In . SVG Version: 6.00 Build 0)  -->
<!DOCTYPE svg PUBLIC "-//W3C//DTD SVG 1.1//EN" "http://www.w3.org/Graphics/SVG/1.1/DTD/svg11.dtd">
<svg version="1.1" id="Calque_1" xmlns="http://www.w3.org/2000/svg" xmlns:xlink="http://www.w3.org/1999/xlink" x="0px" y="0px"
	 width="1190.551px" height="1190.551px" viewBox="0 0 1190.551 1190.551" enable-background="new 0 0 1190.551 1190.551"
	 xml:space="preserve">
<g>
	<polygon fill="#010202" points="524.127,373.25 297.639,373.25 297.639,404.279 182.279,404.279 182.279,198.279 392.279,198.279 
		392.279,310.279 595.279,310.279 595.279,0 0,0 0,595.279 297.639,595.279 153.647,595.442 153.647,830.93 290.14,830.93 
		290.14,968.529 522.627,968.529 522.627,757.434 674.323,757.434 674.323,532.445 524.127,532.445 	"/>
	<path fill="#010202" d="M746.115,199.803c0,0,0,159.585,0,212.779c0,36-10.396,50-48.896,50h-173.09v32.312v5.1v32.312h173.09
		c38.5,0,48.896,14,48.896,50c0,53.194,0,212.778,0,212.778h76.104V499.993v-5.1V199.803H746.115z"/>
</g>
</svg>
