<?xml version="1.0" encoding="utf-8"?>
<!-- Generator: Adobe Illustrator 16.0.0, SVG Export Plug-In . SVG Version: 6.00 Build 0)  -->
<!DOCTYPE svg PUBLIC "-//W3C//DTD SVG 1.1//EN" "http://www.w3.org/Graphics/SVG/1.1/DTD/svg11.dtd">
<svg version="1.1" id="Calque_1" xmlns="http://www.w3.org/2000/svg" xmlns:xlink="http://www.w3.org/1999/xlink" x="0px" y="0px"
	 width="1190.551px" height="1190.551px" viewBox="0 0 1190.551 1190.551" enable-background="new 0 0 1190.551 1190.551"
	 xml:space="preserve">
<g>
	<polygon fill="#010202" points="708.293,484.261 481.805,484.261 481.805,515.29 366.445,515.29 366.445,309.29 576.445,309.29 
		576.445,421.29 779.445,421.29 779.445,111.011 184.166,111.011 184.166,706.289 481.805,706.289 337.813,706.453 337.813,941.94 
		474.306,941.94 474.306,1079.54 706.793,1079.54 706.793,868.444 858.489,868.444 858.489,643.455 708.293,643.455 	"/>
	<path fill="#010202" d="M930.281,310.813c0,0,0,159.585,0,212.779c0,36-10.396,50-48.896,50h-173.09v32.312v5.101v32.312h173.09
		c38.5,0,48.896,14,48.896,50c0,53.194,0,212.778,0,212.778h76.104V611.004v-5.1V310.813H930.281z"/>
</g>
</svg>
