<?xml version="1.0" encoding="utf-8"?>
<!-- Generator: Adobe Illustrator 16.0.0, SVG Export Plug-In . SVG Version: 6.00 Build 0)  -->
<!DOCTYPE svg PUBLIC "-//W3C//DTD SVG 1.1//EN" "http://www.w3.org/Graphics/SVG/1.1/DTD/svg11.dtd">
<svg version="1.1" id="Calque_1" xmlns="http://www.w3.org/2000/svg" xmlns:xlink="http://www.w3.org/1999/xlink" x="0px" y="0px"
	 width="1190.551px" height="1190.551px" viewBox="0 0 1190.551 1190.551" enable-background="new 0 0 1190.551 1190.551"
	 xml:space="preserve">
<path fill="#010202" d="M799.323,262.778c-38.5,0-48.896-14-48.896-50c0-53.193,0-212.777,0-212.777h-76.104v295.092v5.099v232.254
	H524.127V373.25H297.639v31.028h-115.36v-206h210v112h203V0H0v595.278h297.639l-143.992,0.163V830.93H290.14v137.599h232.487
	V757.434h151.696V595.281h76.104c0,0,0-159.585,0-212.778c0-36,10.396-50,48.896-50h173.091V300.19v-5.1v-32.312H799.323z"/>
</svg>
