<?xml version="1.0" encoding="utf-8"?>
<!-- Generator: Adobe Illustrator 16.0.0, SVG Export Plug-In . SVG Version: 6.00 Build 0)  -->
<!DOCTYPE svg PUBLIC "-//W3C//DTD SVG 1.1//EN" "http://www.w3.org/Graphics/SVG/1.1/DTD/svg11.dtd">
<svg version="1.1" id="Calque_1" xmlns="http://www.w3.org/2000/svg" xmlns:xlink="http://www.w3.org/1999/xlink" x="0px" y="0px"
	 width="1190.551px" height="1190.551px" viewBox="0 0 1190.551 1190.551" enable-background="new 0 0 1190.551 1190.551"
	 xml:space="preserve">
<g>
	<polygon fill="#010202" points="632.381,632.576 854.573,632.576 854.573,37.298 556.933,37.298 556.933,228.298 672.293,228.298 
		672.293,434.298 462.294,434.298 462.294,322.298 259.294,322.298 259.294,632.576 396.892,632.576 396.892,769.069 
		259.294,769.069 259.294,1001.558 470.388,1001.558 470.388,1153.253 695.377,1153.253 695.377,1003.058 854.573,1003.058 
		854.573,776.569 632.543,776.569 	"/>
	<path fill="#010202" d="M855.156,406.931c0,0,0,159.585,0,212.779c0,36-10.398,50-48.898,50H633.166v32.312v5.102v32.312h173.092
		c38.5,0,48.896,14,48.896,50c0,53.194,0,212.778,0,212.778h76.104V707.121v-5.102V406.93L855.156,406.931L855.156,406.931z"/>
</g>
</svg>
