<?xml version="1.0" encoding="utf-8"?>
<!-- Generator: Adobe Illustrator 16.0.0, SVG Export Plug-In . SVG Version: 6.00 Build 0)  -->
<!DOCTYPE svg PUBLIC "-//W3C//DTD SVG 1.1//EN" "http://www.w3.org/Graphics/SVG/1.1/DTD/svg11.dtd">
<svg version="1.1" id="Calque_1" xmlns="http://www.w3.org/2000/svg" xmlns:xlink="http://www.w3.org/1999/xlink" x="0px" y="0px"
	 width="1190.551px" height="1190.551px" viewBox="0 0 1190.551 1190.551" enable-background="new 0 0 1190.551 1190.551"
	 xml:space="preserve">
<path fill="#010202" d="M606.173,403.791c0,0,0,159.585,0,212.779c0,36-10.398,50-48.898,50H384.184v-71.292h211.095V0H297.64v191
	H413v206H203V285H0v310.278h159.194v150.197H0v226.489h222.028l0.163,143.99H457.68V979.464h137.599V746.976H384.184v-10.682
	h173.091c38.5,0,48.898,14,48.898,50c0,53.194,0,212.778,0,212.778h76.102V703.982v-5.101v-295.09H606.173z"/>
</svg>
