<?xml version="1.0" encoding="utf-8"?>
<!-- Generator: Adobe Illustrator 16.0.0, SVG Export Plug-In . SVG Version: 6.00 Build 0)  -->
<!DOCTYPE svg PUBLIC "-//W3C//DTD SVG 1.1//EN" "http://www.w3.org/Graphics/SVG/1.1/DTD/svg11.dtd">
<svg version="1.1" id="Calque_1" xmlns="http://www.w3.org/2000/svg" xmlns:xlink="http://www.w3.org/1999/xlink" x="0px" y="0px"
	 width="1190.551px" height="1190.551px" viewBox="0 0 1190.551 1190.551" enable-background="new 0 0 1190.551 1190.551"
	 xml:space="preserve">
<g>
	<polygon fill="#010202" points="222.192,520.677 457.68,520.677 457.68,384.184 595.279,384.184 595.279,151.697 384.184,151.697 
		384.184,0 159.195,0 159.195,150.197 0,150.197 0,376.685 222.029,376.685 	"/>
	<path fill="#010202" d="M373.742,520.678v191h115.359v206h-210v-112H76.103c0-18.657,0-35.04,0-46.49c0-36,10.397-50,48.897-50
		h173.091v-32.312v-5.1v-32.312H125v-0.001c-38.5,0-48.897-14-48.897-50.001c0-53.193,0-212.777,0-212.777H0v295.091v5.1v295.091
		h76.102v143.988h595.28V520.678H373.742z"/>
</g>
</svg>
