<?xml version="1.0" encoding="utf-8"?>
<!-- Generator: Adobe Illustrator 16.0.0, SVG Export Plug-In . SVG Version: 6.00 Build 0)  -->
<!DOCTYPE svg PUBLIC "-//W3C//DTD SVG 1.1//EN" "http://www.w3.org/Graphics/SVG/1.1/DTD/svg11.dtd">
<svg version="1.1" id="Calque_1" xmlns="http://www.w3.org/2000/svg" xmlns:xlink="http://www.w3.org/1999/xlink" x="0px" y="0px"
	 width="1190.551px" height="1190.551px" viewBox="0 0 1190.551 1190.551" enable-background="new 0 0 1190.551 1190.551"
	 xml:space="preserve">
<path fill="#010202" d="M872.229,708.17c-36,0-50-10.396-50-48.896V486.182h-32.312h-5.101h-32.312v173.091h-0.001
	c0,38.5-14,48.896-50,48.896c-53.194,0-212.778,0-212.778,0v76.104h-0.001V632.577H700.82V37.298H403.182v191h115.36v206h-210v-112
	h-203v310.278h159.193v150.197H105.542v226.488H327.57l0.163,143.99h235.489v-136.49h137.599V784.273h83.997h5.1h295.092V708.17
	C1085.008,708.17,925.423,708.17,872.229,708.17z"/>
</svg>
