<?xml version="1.0" encoding="utf-8"?>
<!-- Generator: Adobe Illustrator 16.0.0, SVG Export Plug-In . SVG Version: 6.00 Build 0)  -->
<!DOCTYPE svg PUBLIC "-//W3C//DTD SVG 1.1//EN" "http://www.w3.org/Graphics/SVG/1.1/DTD/svg11.dtd">
<svg version="1.1" id="Calque_1" xmlns="http://www.w3.org/2000/svg" xmlns:xlink="http://www.w3.org/1999/xlink" x="0px" y="0px"
	 width="1190.551px" height="1190.551px" viewBox="0 0 1190.551 1190.551" enable-background="new 0 0 1190.551 1190.551"
	 xml:space="preserve">
<path fill="#010202" d="M766.687,670.872c-36,0-50-10.396-50-48.896V448.884h-32.312h-5.1h-32.312v173.092h-0.001
	c0,38.5-14,48.896-50,48.896c-53.194,0-212.778,0-212.778,0v76.104h-0.001V595.279h211.095V0H297.64v191H413v206H203V285H0v310.278
	h159.194v150.197H0v226.489h222.028l0.163,143.99H457.68V979.464h137.599V746.976h83.997h5.1h295.091v-76.104
	C979.466,670.872,819.881,670.872,766.687,670.872z"/>
</svg>
