<?xml version="1.0" encoding="utf-8"?>
<!-- Generator: Adobe Illustrator 16.0.0, SVG Export Plug-In . SVG Version: 6.00 Build 0)  -->
<!DOCTYPE svg PUBLIC "-//W3C//DTD SVG 1.1//EN" "http://www.w3.org/Graphics/SVG/1.1/DTD/svg11.dtd">
<svg version="1.1" id="Calque_1" xmlns="http://www.w3.org/2000/svg" xmlns:xlink="http://www.w3.org/1999/xlink" x="0px" y="0px"
	 width="1190.551px" height="1190.551px" viewBox="0 0 1190.551 1190.551" enable-background="new 0 0 1190.551 1190.551"
	 xml:space="preserve">
<g>
	<polygon fill="#010202" points="468.019,525.046 693.008,525.046 693.008,374.849 852.203,374.849 852.203,148.36 630.174,148.36 
		630.012,4.369 394.523,4.369 394.523,140.862 256.925,140.862 256.925,373.349 468.019,373.349 	"/>
	<path fill="#010202" d="M857.524,590.904c0,0,0,159.585,0,212.776c0,13.501-1.463,23.907-5.32,31.643V525.047H256.925v595.277
		h297.639v-191h-115.36v-206h210v112h203c-6.43,12.89-19.514,18.356-43.576,18.356H635.535v32.312v5.099v32.312h173.092v0.002
		c38.5,0,48.896,14,48.896,50c0,53.191,0,212.775,0,212.775h76.104V891.093v-5.099v-295.09H857.524L857.524,590.904z"/>
</g>
</svg>
