<?xml version="1.0" encoding="utf-8"?>
<!-- Generator: Adobe Illustrator 16.0.0, SVG Export Plug-In . SVG Version: 6.00 Build 0)  -->
<!DOCTYPE svg PUBLIC "-//W3C//DTD SVG 1.1//EN" "http://www.w3.org/Graphics/SVG/1.1/DTD/svg11.dtd">
<svg version="1.1" id="Calque_1" xmlns="http://www.w3.org/2000/svg" xmlns:xlink="http://www.w3.org/1999/xlink" x="0px" y="0px"
	 width="1190.551px" height="1190.551px" viewBox="0 0 1190.551 1190.551" enable-background="new 0 0 1190.551 1190.551"
	 xml:space="preserve">
<g>
	<polygon fill="#010202" points="211.095,520.677 436.084,520.677 436.084,370.48 595.279,370.48 595.279,143.991 373.25,143.991 
		373.087,0 137.599,0 137.599,136.493 0,136.493 0,368.98 211.095,368.98 	"/>
	<path fill="#010202" d="M600.599,586.535c0,0,0,159.585,0,212.777c0,13.501-1.462,23.907-5.32,31.642V520.678H0v595.277h297.639
		v-191h-115.36v-206h210v112h203c-6.43,12.89-19.514,18.357-43.576,18.357H378.611v32.312v5.099v32.312h173.092v0.002
		c38.5,0,48.896,14,48.896,50c0,53.192,0,212.776,0,212.776h76.104V886.724v-5.099v-295.09H600.599z"/>
</g>
</svg>
