<?xml version="1.0" encoding="utf-8"?>
<!-- Generator: Adobe Illustrator 16.0.0, SVG Export Plug-In . SVG Version: 6.00 Build 0)  -->
<!DOCTYPE svg PUBLIC "-//W3C//DTD SVG 1.1//EN" "http://www.w3.org/Graphics/SVG/1.1/DTD/svg11.dtd">
<svg version="1.1" id="Calque_1" xmlns="http://www.w3.org/2000/svg" xmlns:xlink="http://www.w3.org/1999/xlink" x="0px" y="0px"
	 width="1190.551px" height="1190.551px" viewBox="0 0 1190.551 1190.551" enable-background="new 0 0 1190.551 1190.551"
	 xml:space="preserve">
<g>
	<polygon fill="#010202" points="373.087,595.279 595.279,595.279 595.279,0 297.64,0 297.64,191 413,191 413,397 203,397 203,285 
		0,285 0,595.279 137.599,595.279 137.599,731.772 0,731.772 0,964.26 211.095,964.26 211.095,1115.955 436.084,1115.955 
		436.084,965.76 595.279,965.76 595.279,739.271 373.25,739.271 	"/>
	<path fill="#010202" d="M595.863,369.633c0,0,0,159.585,0,212.779c0,36-10.398,50-48.898,50H373.873v32.312v5.101v32.312h173.091
		c38.5,0,48.898,14,48.898,50c0,53.194,0,212.778,0,212.778h76.102V669.823v-5.101v-295.09H595.863z"/>
</g>
</svg>
