<?xml version="1.0" encoding="utf-8"?>
<!-- Generator: Adobe Illustrator 16.0.0, SVG Export Plug-In . SVG Version: 6.00 Build 0)  -->
<!DOCTYPE svg PUBLIC "-//W3C//DTD SVG 1.1//EN" "http://www.w3.org/Graphics/SVG/1.1/DTD/svg11.dtd">
<svg version="1.1" id="Calque_1" xmlns="http://www.w3.org/2000/svg" xmlns:xlink="http://www.w3.org/1999/xlink" x="0px" y="0px"
	 width="1190.551px" height="1190.551px" viewBox="0 0 1190.551 1190.551" enable-background="new 0 0 1190.551 1190.551"
	 xml:space="preserve">
<path fill="#010202" d="M860.311,441.089c0,0,0,159.584,0,212.78c0,36-10.398,50-48.898,50h-173.09v-71.293h211.094V37.298H551.778
	v191h115.361v206h-210v-112h-203v310.278h159.193v150.197H254.138v226.488h222.027l0.163,143.99h235.49v-136.49h137.598V784.273
	H638.323v-10.682h173.09c38.5,0,48.898,14,48.898,50c0,53.195,0,212.779,0,212.779h76.102v-295.09v-5.102v-295.09H860.311z"/>
</svg>
