<?xml version="1.0" encoding="utf-8"?>
<!-- Generator: Adobe Illustrator 16.0.0, SVG Export Plug-In . SVG Version: 6.00 Build 0)  -->
<!DOCTYPE svg PUBLIC "-//W3C//DTD SVG 1.1//EN" "http://www.w3.org/Graphics/SVG/1.1/DTD/svg11.dtd">
<svg version="1.1" id="Calque_1" xmlns="http://www.w3.org/2000/svg" xmlns:xlink="http://www.w3.org/1999/xlink" x="0px" y="0px"
	 width="1190.551px" height="1190.551px" viewBox="0 0 1190.551 1190.551" enable-background="new 0 0 1190.551 1190.551"
	 xml:space="preserve">
<path fill="#010202" d="M908.391,373.789c-38.5,0-48.895-14-48.895-50c0-53.193,0-212.777,0-212.777h-76.105v295.092v5.099v232.254
	H633.196V484.261H406.708v31.028h-115.36v-206h210v112h203V111.011H109.069v595.278h297.639l-143.992,0.162V941.94h136.493v137.6
	h232.487V868.444h151.695V706.292h76.105c0,0,0-159.585,0-212.778c0-36,10.395-50,48.895-50h173.092v-32.313v-5.1v-32.312H908.391
	L908.391,373.789z"/>
</svg>
