<?xml version="1.0" encoding="utf-8"?>
<!-- Generator: Adobe Illustrator 16.0.0, SVG Export Plug-In . SVG Version: 6.00 Build 0)  -->
<!DOCTYPE svg PUBLIC "-//W3C//DTD SVG 1.1//EN" "http://www.w3.org/Graphics/SVG/1.1/DTD/svg11.dtd">
<svg version="1.1" id="Calque_1" xmlns="http://www.w3.org/2000/svg" xmlns:xlink="http://www.w3.org/1999/xlink" x="0px" y="0px"
	 width="1190.551px" height="1190.551px" viewBox="0 0 1190.551 1190.551" enable-background="new 0 0 1190.551 1190.551"
	 xml:space="preserve">
<path fill="#010202" d="M701.915,891.033v115.359h-206v-210h112V593.394H423.953v-40.776h118.735l10.314-28.997v32.308v5.1v32.312
	h173.091v0.002c38.5,0,48.896,14,48.896,50c0,53.195,0,212.779,0,212.779h76.104V561.028v-5.1v-295.09H774.99
	c0,0,0,159.585,0,212.778c0,36-10.396,50-48.896,50h-173.09l56.633-159.208V35.987H475.741v160.421h-29.053V35.987H415.11V1.881
	H297.637v543.156h46.735v48.354h-46.735v595.278h595.277V891.033H701.915z"/>
</svg>
