<?xml version="1.0" encoding="utf-8"?>
<!-- Generator: Adobe Illustrator 16.0.0, SVG Export Plug-In . SVG Version: 6.00 Build 0)  -->
<!DOCTYPE svg PUBLIC "-//W3C//DTD SVG 1.1//EN" "http://www.w3.org/Graphics/SVG/1.1/DTD/svg11.dtd">
<svg version="1.1" id="Calque_1" xmlns="http://www.w3.org/2000/svg" xmlns:xlink="http://www.w3.org/1999/xlink" x="0px" y="0px"
	 width="1190.551px" height="1190.551px" viewBox="0 0 1190.551 1190.551" enable-background="new 0 0 1190.551 1190.551"
	 xml:space="preserve">
<g>
	<polygon fill="#010202" points="481.494,629.385 347.599,629.385 347.599,789.807 318.546,789.807 318.546,629.385 
		286.967,629.385 286.967,595.279 764.773,595.279 764.773,297.641 573.773,297.641 573.773,413 367.773,413 367.773,203 
		479.773,203 479.773,0 169.494,0 169.494,595.279 169.494,1138.436 216.231,1138.436 216.231,1186.791 295.811,1186.791 
		295.811,1146.016 414.546,1146.016 481.494,957.807 	"/>
	<path fill="#010202" d="M808.277,1114.447c-36,0-50-10.396-50-48.896v-173.09h-32.312h-5.1h-32.312v173.09h-0.001
		c0,38.5-14,48.896-50,48.896c-53.193,0-212.778,0-212.778,0v76.104h295.091h5.102h295.09v-76.104
		C1021.057,1114.447,861.472,1114.447,808.277,1114.447z"/>
</g>
</svg>
