<?xml version="1.0" encoding="utf-8"?>
<!-- Generator: Adobe Illustrator 16.0.0, SVG Export Plug-In . SVG Version: 6.00 Build 0)  -->
<!DOCTYPE svg PUBLIC "-//W3C//DTD SVG 1.1//EN" "http://www.w3.org/Graphics/SVG/1.1/DTD/svg11.dtd">
<svg version="1.1" id="Calque_1" xmlns="http://www.w3.org/2000/svg" xmlns:xlink="http://www.w3.org/1999/xlink" x="0px" y="0px"
	 width="1190.551px" height="1190.551px" viewBox="0 0 1190.551 1190.551" enable-background="new 0 0 1190.551 1190.551"
	 xml:space="preserve">
<path fill="#010202" d="M404.279,889.151v115.36h-206V794.512h112v-203H126.317v-40.776h118.735l10.314-28.997v32.308v5.1v32.312
	h173.092v0.002c38.5,0,48.896,14,48.896,50c0,53.194,0,212.778,0,212.778h76.103V559.147v-5.1v-295.09h-76.103
	c0,0,0,159.585,0,212.778c0,36-10.397,50-48.897,50h-173.09L312,362.527V34.106H178.105v160.421h-29.053V34.106h-31.579V0H0v543.156
	h46.736v48.355H0v595.277h595.278V889.151H404.279z"/>
</svg>
