<?xml version="1.0" encoding="utf-8"?>
<!-- Generator: Adobe Illustrator 16.0.0, SVG Export Plug-In . SVG Version: 6.00 Build 0)  -->
<!DOCTYPE svg PUBLIC "-//W3C//DTD SVG 1.1//EN" "http://www.w3.org/Graphics/SVG/1.1/DTD/svg11.dtd">
<svg version="1.1" id="Calque_1" xmlns="http://www.w3.org/2000/svg" xmlns:xlink="http://www.w3.org/1999/xlink" x="0px" y="0px"
	 width="1190.551px" height="1190.551px" viewBox="0 0 1190.551 1190.551" enable-background="new 0 0 1190.551 1190.551"
	 xml:space="preserve">
<path fill="#010202" d="M727.232,673.89c-38.501,0-48.898-14-48.898-50c0-53.194,0-212.778,0-212.778h-76.103V50.235h-46.737V1.881
	h-79.58v40.774H357.178l-66.947,188.21v328.421h133.895V398.865h29.053v160.421h31.579v34.106h117.474v112.811v5.101v295.089
	H488.509v-210h112v-203H290.231v595.277h595.277V891.032h-191v115.359h-16.176c0-0.084,0-159.598,0-212.777
	c0-36,10.397-50,48.898-50h173.09v-32.312v-5.101v-32.312L727.232,673.89L727.232,673.89z"/>
</svg>
