<?xml version="1.0" encoding="utf-8"?>
<!-- Generator: Adobe Illustrator 16.0.0, SVG Export Plug-In . SVG Version: 6.00 Build 0)  -->
<!DOCTYPE svg PUBLIC "-//W3C//DTD SVG 1.1//EN" "http://www.w3.org/Graphics/SVG/1.1/DTD/svg11.dtd">
<svg version="1.1" id="Calque_1" xmlns="http://www.w3.org/2000/svg" xmlns:xlink="http://www.w3.org/1999/xlink" x="0px" y="0px"
	 width="1190.551px" height="1190.551px" viewBox="0 0 1190.551 1190.551" enable-background="new 0 0 1190.551 1190.551"
	 xml:space="preserve">
<g>
	<polygon fill="#010202" points="312,629.385 178.105,629.385 178.105,789.806 149.052,789.806 149.052,629.385 117.473,629.385 
		117.473,595.279 595.279,595.279 595.279,297.64 404.279,297.64 404.279,412.999 198.279,412.999 198.279,203 310.279,203 
		310.279,0 0,0 0,595.279 0,1138.436 46.737,1138.436 46.737,1186.79 126.317,1186.79 126.317,1146.015 245.052,1146.015 
		312,957.806 	"/>
	<path fill="#010202" d="M638.783,1114.447c-36,0-50-10.396-50-48.896V892.46h-32.312h-5.099h-32.312v173.09h-0.001
		c0,38.5-14,48.896-50,48.896c-53.194,0-212.778,0-212.778,0v76.104h295.091h5.101h295.09v-76.104
		C851.563,1114.447,691.978,1114.447,638.783,1114.447z"/>
</g>
</svg>
