<?xml version="1.0" encoding="utf-8"?>
<!-- Generator: Adobe Illustrator 16.0.0, SVG Export Plug-In . SVG Version: 6.00 Build 0)  -->
<!DOCTYPE svg PUBLIC "-//W3C//DTD SVG 1.1//EN" "http://www.w3.org/Graphics/SVG/1.1/DTD/svg11.dtd">
<svg version="1.1" id="Calque_1" xmlns="http://www.w3.org/2000/svg" xmlns:xlink="http://www.w3.org/1999/xlink" x="0px" y="0px"
	 width="1190.551px" height="1190.551px" viewBox="0 0 1190.551 1190.551" enable-background="new 0 0 1190.551 1190.551"
	 xml:space="preserve">
<path fill="#010202" d="M595.279,595.279V0H0v297.639h191V182.28h206v209.999H285v203h142.126v40.775H308.392l-10.302,28.961
	v-32.312v-5.099v-32.312H125v-0.002c-38.5,0-48.897-14-48.897-50c0-53.193,0-212.777,0-212.777H0v295.091v5.099v295.092h76.103
	c0,0,0-159.585,0-212.779c0-36,10.397-50,48.897-50H298.09l-56.646,159.247v328.421h133.895V992.263h29.054v160.421h31.578v34.107
	h117.475V643.633h-46.738v-48.354H595.279z"/>
</svg>
