<?xml version="1.0" encoding="utf-8"?>
<!-- Generator: Adobe Illustrator 16.0.0, SVG Export Plug-In . SVG Version: 6.00 Build 0)  -->
<!DOCTYPE svg PUBLIC "-//W3C//DTD SVG 1.1//EN" "http://www.w3.org/Graphics/SVG/1.1/DTD/svg11.dtd">
<svg version="1.1" id="Calque_1" xmlns="http://www.w3.org/2000/svg" xmlns:xlink="http://www.w3.org/1999/xlink" x="0px" y="0px"
	 width="1190.551px" height="1190.551px" viewBox="0 0 1190.551 1190.551" enable-background="new 0 0 1190.551 1190.551"
	 xml:space="preserve">
<path fill="#010202" d="M854.864,384.38V1.881H557.224v191h115.36v206h-210v-112h-203v310.277v543.158h46.735v48.354h79.58v-40.774
	h118.735l66.949-188.209v-328.42H437.689v160.42h-29.053v-160.42h-31.579V597.16h477.806c0,35.999-10.396,49.999-48.896,49.999
	H632.875v32.312v5.1v32.311h173.092v0.001c38.5,0,48.895,14,48.895,50c0,53.194,0,212.778,0,212.778h76.105V684.57v-5.1V384.38
	H854.864z"/>
</svg>
