<?xml version="1.0" encoding="utf-8"?>
<!-- Generator: Adobe Illustrator 16.0.0, SVG Export Plug-In . SVG Version: 6.00 Build 0)  -->
<!DOCTYPE svg PUBLIC "-//W3C//DTD SVG 1.1//EN" "http://www.w3.org/Graphics/SVG/1.1/DTD/svg11.dtd">
<svg version="1.1" id="Calque_1" xmlns="http://www.w3.org/2000/svg" xmlns:xlink="http://www.w3.org/1999/xlink" x="0px" y="0px"
	 width="1190.551px" height="1190.551px" viewBox="0 0 1190.551 1190.551" enable-background="new 0 0 1190.551 1190.551"
	 xml:space="preserve">
<path fill="#010202" d="M595.279,382.499V0H297.64v191h115.359v206H203V285H0v310.278v543.157h46.736v48.354h79.58v-40.774h118.735
	L312,957.806v-328.42H178.105v160.42h-29.053v-160.42h-31.579v-34.107h477.806c0,35.999-10.397,49.999-48.896,49.999H373.291v32.312
	v5.099V715h173.091v0.001c38.5,0,48.896,14,48.896,50c0,53.194,0,212.778,0,212.778h76.104V682.689v-5.099V382.499H595.279z"/>
</svg>
