<?xml version="1.0" encoding="utf-8"?>
<!-- Generator: Adobe Illustrator 16.0.0, SVG Export Plug-In . SVG Version: 6.00 Build 0)  -->
<!DOCTYPE svg PUBLIC "-//W3C//DTD SVG 1.1//EN" "http://www.w3.org/Graphics/SVG/1.1/DTD/svg11.dtd">
<svg version="1.1" id="Calque_1" xmlns="http://www.w3.org/2000/svg" xmlns:xlink="http://www.w3.org/1999/xlink" x="0px" y="0px"
	 width="1190.551px" height="1190.551px" viewBox="0 0 1190.551 1190.551" enable-background="new 0 0 1190.551 1190.551"
	 xml:space="preserve">
<path fill="#010202" d="M580.781,813.049c-36,0-50-10.398-50-48.898v-173.09h-32.312h-5.101h-32.312v173.09
	c0,38.5-14,48.898-50,48.898c-53.194,0-212.778,0-212.778,0v-18.537h112v-203H126.317v-40.776h118.735L312,362.527V34.106H178.105
	v160.421h-29.053V34.106h-31.579V0H0v543.156h46.736v48.355H0v595.277h595.278V889.151H793.56v-76.102
	C793.56,813.049,633.975,813.049,580.781,813.049z M404.279,1004.511h-206v-115.36h206V1004.511z"/>
</svg>
