<?xml version="1.0" encoding="utf-8"?>
<!-- Generator: Adobe Illustrator 16.0.0, SVG Export Plug-In . SVG Version: 6.00 Build 0)  -->
<!DOCTYPE svg PUBLIC "-//W3C//DTD SVG 1.1//EN" "http://www.w3.org/Graphics/SVG/1.1/DTD/svg11.dtd">
<svg version="1.1" id="Calque_1" xmlns="http://www.w3.org/2000/svg" xmlns:xlink="http://www.w3.org/1999/xlink" x="0px" y="0px"
	 width="1190.551px" height="1190.551px" viewBox="0 0 1190.551 1190.551" enable-background="new 0 0 1190.551 1190.551"
	 xml:space="preserve">
<path fill="#010202" d="M892.914,597.158V1.88H297.636v297.639h191V184.16h206v209.999h-112v203h142.125v40.775H606.028
	l-10.301,28.961v-32.312v-5.1v-32.312h-173.09v-0.002c-38.5,0-48.897-14-48.897-50c0-53.193,0-212.777,0-212.777h-76.103v295.09v5.1
	v295.092h76.103c0,0,0-159.585,0-212.779c0-36,10.397-50,48.897-50h173.09L539.08,826.143v328.421h133.895V994.143h29.055v160.421
	h31.578v34.107h117.475V645.513h-46.738v-48.354H892.914z"/>
</svg>
