<?xml version="1.0" encoding="utf-8"?>
<!-- Generator: Adobe Illustrator 16.0.0, SVG Export Plug-In . SVG Version: 6.00 Build 0)  -->
<!DOCTYPE svg PUBLIC "-//W3C//DTD SVG 1.1//EN" "http://www.w3.org/Graphics/SVG/1.1/DTD/svg11.dtd">
<svg version="1.1" id="Calque_1" xmlns="http://www.w3.org/2000/svg" xmlns:xlink="http://www.w3.org/1999/xlink" x="0px" y="0px"
	 width="1190.551px" height="1190.551px" viewBox="0 0 1190.551 1190.551" enable-background="new 0 0 1190.551 1190.551"
	 xml:space="preserve">
<path fill="#010202" d="M779.276,814.93c-36,0-50-10.396-50-48.896V592.942h-32.311h-5.102h-32.312v173.091
	c0,38.5-14,48.896-50,48.896c-53.194,0-212.778,0-212.778,0v-18.537h112V593.394H324.812v-40.776h118.735l66.948-188.209V35.987
	H376.6v160.421h-29.053V35.987h-31.579V1.881H198.496v543.156h46.735v48.354h-46.735v595.278h595.278V891.033h198.281V814.93
	C992.055,814.93,832.471,814.93,779.276,814.93z M602.774,1006.393h-206V891.033h206V1006.393z"/>
</svg>
