<?xml version="1.0" encoding="utf-8"?>
<!-- Generator: Adobe Illustrator 16.0.0, SVG Export Plug-In . SVG Version: 6.00 Build 0)  -->
<!DOCTYPE svg PUBLIC "-//W3C//DTD SVG 1.1//EN" "http://www.w3.org/Graphics/SVG/1.1/DTD/svg11.dtd">
<svg version="1.1" id="Calque_1" xmlns="http://www.w3.org/2000/svg" xmlns:xlink="http://www.w3.org/1999/xlink" x="0px" y="0px"
	 width="1190.551px" height="1190.551px" viewBox="0 0 1190.551 1190.551" enable-background="new 0 0 1190.551 1190.551"
	 xml:space="preserve">
<g>
	<path fill="#010202" d="M857.524,451.314c0,0,0,159.585,0,212.778c0,13.5-1.462,23.907-5.32,31.641V100.456H256.925v297.639h191
		V282.736h206v209.999h-112v203h310.277c-6.43,12.891-19.515,18.357-43.577,18.357h-173.09v32.312v5.1v32.312l173.092,0.002
		c38.5,0,48.896,14,48.896,50c0,53.191,0,212.775,0,212.775h76.103v-295.09v-5.1v-295.09H857.524z"/>
	<polygon fill="#010202" points="807.66,845.045 619.451,778.096 291.031,778.096 291.031,911.99 451.451,911.99 451.451,941.045 
		291.031,941.045 291.031,972.623 256.925,972.623 256.925,1090.096 800.08,1090.096 800.08,1043.359 848.437,1043.359 
		848.437,963.779 807.66,963.779 	"/>
</g>
</svg>
