<?xml version="1.0" encoding="utf-8"?>
<!-- Generator: Adobe Illustrator 16.0.0, SVG Export Plug-In . SVG Version: 6.00 Build 0)  -->
<!DOCTYPE svg PUBLIC "-//W3C//DTD SVG 1.1//EN" "http://www.w3.org/Graphics/SVG/1.1/DTD/svg11.dtd">
<svg version="1.1" id="Calque_1" xmlns="http://www.w3.org/2000/svg" xmlns:xlink="http://www.w3.org/1999/xlink" x="0px" y="0px"
	 width="1190.551px" height="1190.551px" viewBox="0 0 1190.551 1190.551" enable-background="new 0 0 1190.551 1190.551"
	 xml:space="preserve">
<path fill="#010202" d="M595.279,240.081V0H0v595.278h48.354v46.737H0v79.581h40.774V840.33l188.209,66.948h328.421V773.385H396.984
	V744.33h160.421v-31.579h34.106V595.279H297.639v-191H182.28v-206h209.999v112h203c0,49.782,0,112.826,0,142.581
	c0,36-10.396,50-48.896,50H373.291v32.312v5.1v32.312h173.091v0.002c38.5,0,48.896,14,48.896,50c0,53.194,0,212.778,0,212.778
	h76.104V540.271v-5.1v-295.09H595.279z"/>
</svg>
