<?xml version="1.0" encoding="utf-8"?>
<!-- Generator: Adobe Illustrator 16.0.0, SVG Export Plug-In . SVG Version: 6.00 Build 0)  -->
<!DOCTYPE svg PUBLIC "-//W3C//DTD SVG 1.1//EN" "http://www.w3.org/Graphics/SVG/1.1/DTD/svg11.dtd">
<svg version="1.1" id="Calque_1" xmlns="http://www.w3.org/2000/svg" xmlns:xlink="http://www.w3.org/1999/xlink" x="0px" y="0px"
	 width="1190.551px" height="1190.551px" viewBox="0 0 1190.551 1190.551" enable-background="new 0 0 1190.551 1190.551"
	 xml:space="preserve">
<path fill="#010202" d="M854.864,384.38v-84.859h-191V414.88h-206V204.881h112v-203H259.585v595.277v543.158h46.735v48.354h79.58
	v-40.775h118.735l66.949-188.208V631.266H437.69v160.421h-29.053V631.266h-31.579V597.16h477.806
	c0,35.999-10.397,49.999-48.896,49.999H632.875v32.312v5.1v32.312l173.092,0.002c38.5,0,48.896,14,48.896,50
	c0,53.192,0,212.776,0,212.776h76.104V684.57v-5.1V384.38H854.864z"/>
</svg>
