<?xml version="1.0" encoding="utf-8"?>
<!-- Generator: Adobe Illustrator 16.0.0, SVG Export Plug-In . SVG Version: 6.00 Build 0)  -->
<!DOCTYPE svg PUBLIC "-//W3C//DTD SVG 1.1//EN" "http://www.w3.org/Graphics/SVG/1.1/DTD/svg11.dtd">
<svg version="1.1" id="Calque_1" xmlns="http://www.w3.org/2000/svg" xmlns:xlink="http://www.w3.org/1999/xlink" x="0px" y="0px"
	 width="1190.551px" height="1190.551px" viewBox="0 0 1190.551 1190.551" enable-background="new 0 0 1190.551 1190.551"
	 xml:space="preserve">
<path fill="#010202" d="M595.279,382.499V297.64h-191v115.359h-206V203h112V0H0v595.278v543.157h46.736v48.354h79.58v-40.775
	h118.735L312,957.806V629.385H178.105v160.421h-29.053V629.385h-31.579v-34.106h477.806c0,35.999-10.398,49.999-48.897,49.999
	H373.29v32.312v5.099v32.312l173.092,0.002c38.5,0,48.896,14,48.896,50c0,53.192,0,212.776,0,212.776h76.103V682.689v-5.099V382.499
	H595.279z"/>
</svg>
