<?xml version="1.0" encoding="utf-8"?>
<!-- Generator: Adobe Illustrator 16.0.0, SVG Export Plug-In . SVG Version: 6.00 Build 0)  -->
<!DOCTYPE svg PUBLIC "-//W3C//DTD SVG 1.1//EN" "http://www.w3.org/Graphics/SVG/1.1/DTD/svg11.dtd">
<svg version="1.1" id="Calque_1" xmlns="http://www.w3.org/2000/svg" xmlns:xlink="http://www.w3.org/1999/xlink" x="0px" y="0px"
	 width="1190.551px" height="1190.551px" viewBox="0 0 1190.551 1190.551" enable-background="new 0 0 1190.551 1190.551"
	 xml:space="preserve">
<g>
	<path fill="#010202" d="M600.599,350.859c0,0,0,159.585,0,212.778c0,13.5-1.462,23.907-5.32,31.641V0H0v297.639h191V182.28h206
		v209.999H285v203h310.278c-6.43,12.89-19.515,18.358-43.577,18.358H378.611v32.312v5.099v32.312l173.092,0.002
		c38.5,0,48.896,14,48.896,50c0,53.192,0,212.776,0,212.776h76.103V651.048v-5.099V350.859H600.599z"/>
	<polygon fill="#010202" points="550.736,744.589 362.527,677.64 34.106,677.64 34.106,811.534 194.527,811.534 194.527,840.589 
		34.106,840.589 34.106,872.168 0,872.168 0,989.64 543.156,989.64 543.156,942.903 591.512,942.903 591.512,863.323 
		550.736,863.323 	"/>
</g>
</svg>
