<?xml version="1.0" encoding="utf-8"?>
<!-- Generator: Adobe Illustrator 16.0.0, SVG Export Plug-In . SVG Version: 6.00 Build 0)  -->
<!DOCTYPE svg PUBLIC "-//W3C//DTD SVG 1.1//EN" "http://www.w3.org/Graphics/SVG/1.1/DTD/svg11.dtd">
<svg version="1.1" id="Calque_1" xmlns="http://www.w3.org/2000/svg" xmlns:xlink="http://www.w3.org/1999/xlink" x="0px" y="0px"
	 width="1190.551px" height="1190.551px" viewBox="0 0 1190.551 1190.551" enable-background="new 0 0 1190.551 1190.551"
	 xml:space="preserve">
<path fill="#010202" d="M720.279,262.778c-38.5,0-48.896-14-48.896-50c0-53.193,0-212.777,0-212.777h-76.104H0v297.639h191V182.28
	h206v209.999H285v203H48.354v46.737H0v79.58h40.774V840.33l188.209,66.948h328.421V773.385H396.984V744.33h160.421v-31.577h34.106
	V595.279h3.768v0.002h76.104c0,0,0-159.585,0-212.778c0-36,10.396-50,48.896-50h173.09V300.19v-5.1v-32.312H720.279z"/>
</svg>
