<?xml version="1.0" encoding="utf-8"?>
<!-- Generator: Adobe Illustrator 16.0.0, SVG Export Plug-In . SVG Version: 6.00 Build 0)  -->
<!DOCTYPE svg PUBLIC "-//W3C//DTD SVG 1.1//EN" "http://www.w3.org/Graphics/SVG/1.1/DTD/svg11.dtd">
<svg version="1.1" id="Calque_1" xmlns="http://www.w3.org/2000/svg" xmlns:xlink="http://www.w3.org/1999/xlink" x="0px" y="0px"
	 width="1190.551px" height="1190.551px" viewBox="0 0 1190.551 1190.551" enable-background="new 0 0 1190.551 1190.551"
	 xml:space="preserve">
<path fill="#010202" d="M854.864,381.717V141.636H259.585v595.278h48.354v46.736h-48.354v79.582h40.773v118.734l188.209,66.947
	h328.421V915.021h-160.42v-29.055h160.42v-31.58h34.107V736.915H557.223v-191H441.864v-206h210v112h203
	c0,49.782,0,112.826,0,142.581c0,36-10.396,50-48.896,50H632.875v32.312v5.1v32.312h173.092v0.002c38.5,0,48.895,14,48.895,50
	c0,53.193,0,212.777,0,212.777h76.105V681.907v-5.101V381.717H854.864L854.864,381.717z"/>
</svg>
