<?xml version="1.0" encoding="utf-8"?>
<!-- Generator: Adobe Illustrator 16.0.0, SVG Export Plug-In . SVG Version: 6.00 Build 0)  -->
<!DOCTYPE svg PUBLIC "-//W3C//DTD SVG 1.1//EN" "http://www.w3.org/Graphics/SVG/1.1/DTD/svg11.dtd">
<svg version="1.1" id="Calque_1" xmlns="http://www.w3.org/2000/svg" xmlns:xlink="http://www.w3.org/1999/xlink" x="0px" y="0px"
	 width="1190.551px" height="1190.551px" viewBox="0 0 1190.551 1190.551" enable-background="new 0 0 1190.551 1190.551"
	 xml:space="preserve">
<path fill="#010202" d="M868.869,404.414c-38.5,0-48.895-14-48.895-50c0-53.193,0-212.777,0-212.777h-76.105H148.592v297.639h191
	v-115.36h206v209.999h-112v203H196.945v46.737h-48.354v79.58h40.773v118.734l188.209,66.948h328.42V915.021H545.575v-29.055h160.421
	v-31.577h34.105V736.914h3.768v0.003h76.105c0,0,0-159.585,0-212.778c0-36,10.395-50,48.895-50h173.09v-32.313v-5.1v-32.312H868.869
	L868.869,404.414z"/>
</svg>
