<?xml version="1.0" encoding="utf-8"?>
<!-- Generator: Adobe Illustrator 16.0.0, SVG Export Plug-In . SVG Version: 6.00 Build 0)  -->
<!DOCTYPE svg PUBLIC "-//W3C//DTD SVG 1.1//EN" "http://www.w3.org/Graphics/SVG/1.1/DTD/svg11.dtd">
<svg version="1.1" id="Calque_1" xmlns="http://www.w3.org/2000/svg" xmlns:xlink="http://www.w3.org/1999/xlink" x="0px" y="0px"
	 width="1190.551px" height="1190.551px" viewBox="0 0 1190.551 1190.551" enable-background="new 0 0 1190.551 1190.551"
	 xml:space="preserve">
<path fill="#010202" d="M948.09,547.676c-36,0-50-10.396-50-48.896V325.688H865.78h-5.1h-32.312V498.78l0,0
	c0,38.5-14,48.897-50,48.897c-53.193,0-212.778,0-212.778,0v27.749H486.01v40.773H367.388
	c145.431-19.57,257.573-144.154,257.573-294.946c0-164.382-133.258-297.64-297.64-297.64s-297.64,133.258-297.64,297.64
	c0,164.382,133.258,297.64,297.64,297.64c13.548,0,26.879-0.923,39.947-2.677l-66.941,188.191v328.422h133.895V972.408h29.053
	v160.422h31.579v34.107h117.473V623.779h248.355h5.098h295.09v-76.105C1160.869,547.676,1001.285,547.676,948.09,547.676z"/>
</svg>
