<?xml version="1.0" encoding="utf-8"?>
<!-- Generator: Adobe Illustrator 16.0.0, SVG Export Plug-In . SVG Version: 6.00 Build 0)  -->
<!DOCTYPE svg PUBLIC "-//W3C//DTD SVG 1.1//EN" "http://www.w3.org/Graphics/SVG/1.1/DTD/svg11.dtd">
<svg version="1.1" id="Calque_1" xmlns="http://www.w3.org/2000/svg" xmlns:xlink="http://www.w3.org/1999/xlink" x="0px" y="0px"
	 width="1190.551px" height="1190.551px" viewBox="0 0 1190.551 1190.551" enable-background="new 0 0 1190.551 1190.551"
	 xml:space="preserve">
<g>
	<path fill="#010202" d="M854.365,421.479c0.691-8.28,1.063-16.651,1.063-25.109c0-164.382-133.258-297.64-297.64-297.64
		s-297.64,133.258-297.64,297.64c0,164.382,133.258,297.641,297.64,297.641c25.735,0,50.707-3.269,74.524-9.408v31.968v5.1v32.312
		h173.09l0,0c38.5,0,48.897,14,48.897,50c0,53.193,0,212.777,0,212.777h76.103V721.668v-5.098V421.479H854.365z M805.403,684.258
		H633.586c119.628-31.413,209.829-135.405,220.715-262.069c0,11.541,0,160.944,0,212.069
		C854.301,670.258,843.903,684.258,805.403,684.258z"/>
	<polygon fill="#010202" points="308.502,826.561 260.149,826.561 260.149,906.141 300.923,906.141 300.923,1024.875 
		489.132,1091.82 817.553,1091.82 817.553,957.928 657.132,957.928 657.132,928.875 817.553,928.875 817.553,897.295 
		851.659,897.295 851.659,779.822 308.502,779.822 	"/>
</g>
</svg>
