<?xml version="1.0" encoding="utf-8"?>
<!-- Generator: Adobe Illustrator 16.0.0, SVG Export Plug-In . SVG Version: 6.00 Build 0)  -->
<!DOCTYPE svg PUBLIC "-//W3C//DTD SVG 1.1//EN" "http://www.w3.org/Graphics/SVG/1.1/DTD/svg11.dtd">
<svg version="1.1" id="Calque_1" xmlns="http://www.w3.org/2000/svg" xmlns:xlink="http://www.w3.org/1999/xlink" x="0px" y="0px"
	 width="1190.551px" height="1190.551px" viewBox="0 0 1190.551 1190.551" enable-background="new 0 0 1190.551 1190.551"
	 xml:space="preserve">
<g>
	<path fill="#010202" d="M594.216,322.449c0.692-8.28,1.064-16.651,1.064-25.109C595.28,132.958,462.022-0.3,297.64-0.3
		S0,132.958,0,297.34s133.258,297.641,297.64,297.641c25.735,0,50.707-3.268,74.524-9.408v31.968v5.099v32.312h173.09v0.001
		c38.5,0,48.898,14,48.898,50c0,53.194,0,212.778,0,212.778h76.102V622.639v-5.099V322.449H594.216z M545.254,585.228H373.438
		c119.628-31.413,209.829-135.405,220.715-262.069c0,11.541,0,160.944,0,212.069C594.153,571.228,583.754,585.228,545.254,585.228z"
		/>
	<polygon fill="#010202" points="48.354,727.53 0,727.53 0,807.11 40.775,807.11 40.775,925.846 228.984,992.791 557.405,992.791 
		557.405,858.898 396.984,858.898 396.984,829.846 557.405,829.846 557.405,798.266 591.511,798.266 591.511,680.792 
		48.354,680.792 	"/>
</g>
</svg>
