<?xml version="1.0" encoding="utf-8"?>
<!-- Generator: Adobe Illustrator 16.0.0, SVG Export Plug-In . SVG Version: 6.00 Build 0)  -->
<!DOCTYPE svg PUBLIC "-//W3C//DTD SVG 1.1//EN" "http://www.w3.org/Graphics/SVG/1.1/DTD/svg11.dtd">
<svg version="1.1" id="Calque_1" xmlns="http://www.w3.org/2000/svg" xmlns:xlink="http://www.w3.org/1999/xlink" x="0px" y="0px"
	 width="1190.551px" height="1190.551px" viewBox="0 0 1190.551 1190.551" enable-background="new 0 0 1190.551 1190.551"
	 xml:space="preserve">
<path fill="#010202" d="M918.41,523.762c-36,0-50-10.396-50-48.896V301.775h-32.312h-5.099h-32.312v173.091h-0.001
	c0,38.5-14,48.897-50,48.897c-53.193,0-212.777,0-212.777,0v27.749h-79.579v40.774H337.707
	C483.138,572.715,595.28,448.132,595.28,297.34C595.28,132.958,462.022-0.3,297.64-0.3S0,132.958,0,297.34
	s133.258,297.64,297.64,297.64c13.548,0,26.879-0.923,39.947-2.677l-66.941,188.192v328.421H404.54V948.495h29.053v160.421h31.579
	v34.107h117.473V599.865H831h5.099h295.09v-76.104C1131.189,523.762,971.604,523.762,918.41,523.762z"/>
</svg>
