<?xml version="1.0" encoding="utf-8"?>
<!-- Generator: Adobe Illustrator 16.0.0, SVG Export Plug-In . SVG Version: 6.00 Build 0)  -->
<!DOCTYPE svg PUBLIC "-//W3C//DTD SVG 1.1//EN" "http://www.w3.org/Graphics/SVG/1.1/DTD/svg11.dtd">
<svg version="1.1" id="Calque_1" xmlns="http://www.w3.org/2000/svg" xmlns:xlink="http://www.w3.org/1999/xlink" x="0px" y="0px"
	 width="1190.551px" height="1190.551px" viewBox="0 0 1190.551 1190.551" enable-background="new 0 0 1190.551 1190.551"
	 xml:space="preserve">
<g>
	<polygon fill="#010202" points="543.156,265.262 591.512,265.262 591.512,185.682 550.736,185.682 550.736,66.947 362.527,0 
		34.106,0 34.106,133.894 194.527,133.894 194.527,162.947 34.106,162.947 34.106,194.526 0,194.526 0,311.999 297.519,311.999 
		543.156,311.999 	"/>
	<path fill="#010202" d="M508.839,1114.447c-36,0-50-10.396-50-48.896V892.46h-32.312h-5.1h-30.974
		c118.866-39.037,204.705-150.896,204.705-282.821c0-164.382-133.258-297.64-297.64-297.64S-0.122,445.257-0.122,609.639
		s133.259,297.64,297.641,297.64c31.962,0,62.739-5.059,91.597-14.384v172.655c0,38.5-14,48.896-50,48.896
		c-53.193,0-212.777,0-212.777,0v76.104h295.091h5.1h295.09v-76.104C721.618,1114.447,562.033,1114.447,508.839,1114.447z"/>
</g>
</svg>
