<?xml version="1.0" encoding="utf-8"?>
<!-- Generator: Adobe Illustrator 16.0.0, SVG Export Plug-In . SVG Version: 6.00 Build 0)  -->
<!DOCTYPE svg PUBLIC "-//W3C//DTD SVG 1.1//EN" "http://www.w3.org/Graphics/SVG/1.1/DTD/svg11.dtd">
<svg version="1.1" id="Calque_1" xmlns="http://www.w3.org/2000/svg" xmlns:xlink="http://www.w3.org/1999/xlink" x="0px" y="0px"
	 width="1190.551px" height="1190.551px" viewBox="0 0 1190.551 1190.551" enable-background="new 0 0 1190.551 1190.551"
	 xml:space="preserve">
<path fill="#010202" d="M845.762,23.682h-5.1H545.573v75.524C492.937,52.169,423.482,23.56,347.336,23.56
	c-164.382,0-297.64,133.259-297.64,297.641s133.258,297.64,297.64,297.64c12.08,0,23.985-0.739,35.688-2.138l-66.789,187.763
	v328.421H450.13V972.465h29.055v160.421h31.578v34.105h117.472V623.836h-46.737v-48.354h-79.395
	c85.673-52.256,142.874-146.587,142.874-254.281c0-87.922-38.135-166.93-98.75-221.416c11.056,0,160.907,0,212.125,0
	c36,0,50,10.397,50,48.897v173.09h32.312h5.1h32.311v-173.09h0.002c0-38.5,14-48.897,50-48.897c53.195,0,212.779,0,212.779,0V23.682
	H845.762z M501.917,616.256H386.621c41.786-5.51,80.841-19.678,115.296-40.659V616.256z"/>
</svg>
