<?xml version="1.0" encoding="utf-8"?>
<!-- Generator: Adobe Illustrator 16.0.0, SVG Export Plug-In . SVG Version: 6.00 Build 0)  -->
<!DOCTYPE svg PUBLIC "-//W3C//DTD SVG 1.1//EN" "http://www.w3.org/Graphics/SVG/1.1/DTD/svg11.dtd">
<svg version="1.1" id="Calque_1" xmlns="http://www.w3.org/2000/svg" xmlns:xlink="http://www.w3.org/1999/xlink" x="0px" y="0px"
	 width="1190.551px" height="1190.551px" viewBox="0 0 1190.551 1190.551" enable-background="new 0 0 1190.551 1190.551"
	 xml:space="preserve">
<path fill="#010202" d="M534.276,477.866c38.26-50.076,61.004-112.641,61.004-180.526C595.28,132.958,462.022-0.3,297.64-0.3
	S0,132.958,0,297.34c0,160.028,126.298,290.539,284.651,297.341H178.105v160.422h-29.053V594.681h-31.579v-34.106H0v543.158h46.736
	v48.353h79.58v-40.773h118.735l66.947-188.209V810.367H485.09v0.002c38.5,0,48.896,14,48.896,50c0,53.192,0,212.776,0,212.776
	h76.104V778.055v-5.099v-295.09H534.276z M485.09,740.644H311.999V594.681h-1.371c91.009-3.909,171.417-48.68,223.358-116.438
	c0,8.489,0,160.698,0,212.4C533.987,726.644,523.59,740.644,485.09,740.644z"/>
</svg>
