<?xml version="1.0" encoding="utf-8"?>
<!-- Generator: Adobe Illustrator 16.0.0, SVG Export Plug-In . SVG Version: 6.00 Build 0)  -->
<!DOCTYPE svg PUBLIC "-//W3C//DTD SVG 1.1//EN" "http://www.w3.org/Graphics/SVG/1.1/DTD/svg11.dtd">
<svg version="1.1" id="Calque_1" xmlns="http://www.w3.org/2000/svg" xmlns:xlink="http://www.w3.org/1999/xlink" x="0px" y="0px"
	 width="1190.551px" height="1190.551px" viewBox="0 0 1190.551 1190.551" enable-background="new 0 0 1190.551 1190.551"
	 xml:space="preserve">
<path fill="#010202" d="M711.134,262.083c0,0,0,159.586,0,212.779c0,36-10.398,50-48.898,50H489.51
	C554.187,470.264,595.28,388.607,595.28,297.34C595.28,132.958,462.022-0.3,297.64-0.3S0,132.958,0,297.34
	c0,160.02,126.284,290.526,284.625,297.341H48.354v46.736H0v79.58h40.774v118.736l188.209,66.945h328.421V772.785H396.984v-29.052
	h160.421v-31.58h34.106V594.681H310.654c67.861-2.921,129.825-28.56,178.492-69.51v32.003v5.099v32.312h173.09v0.002
	c38.5,0,48.898,14,48.898,50c0,53.192,0,212.776,0,212.776h76.102V562.273v-5.099V262.083H711.134z"/>
</svg>
