<?xml version="1.0" encoding="utf-8"?>
<!-- Generator: Adobe Illustrator 16.0.0, SVG Export Plug-In . SVG Version: 6.00 Build 0)  -->
<!DOCTYPE svg PUBLIC "-//W3C//DTD SVG 1.1//EN" "http://www.w3.org/Graphics/SVG/1.1/DTD/svg11.dtd">
<svg version="1.1" id="Calque_1" xmlns="http://www.w3.org/2000/svg" xmlns:xlink="http://www.w3.org/1999/xlink" x="0px" y="0px"
	 width="1190.551px" height="1190.551px" viewBox="0 0 1190.551 1190.551" enable-background="new 0 0 1190.551 1190.551"
	 xml:space="preserve">
<path fill="#010202" d="M912.791,404.169c0,0,0,159.586,0,212.779c0,36-10.398,50-48.898,50H691.168
	c64.676-54.598,105.77-136.255,105.77-227.522c0-164.382-133.258-297.64-297.64-297.64c-164.382,0-297.64,133.258-297.64,297.64
	c0,160.02,126.284,290.527,284.625,297.341H250.011v46.736h-48.354v79.58h40.773V981.82l188.209,66.943h328.42V914.871h-160.42
	V885.82h160.422v-31.58h34.105V736.768H512.311c67.861-2.922,129.826-28.561,178.492-69.51v32.002v5.1v32.312h173.09v0.002
	c38.5,0,48.898,14,48.898,50c0,53.191,0,212.775,0,212.775h76.102v-295.09v-5.1v-295.09H912.791z"/>
</svg>
