<?xml version="1.0" encoding="utf-8"?>
<!-- Generator: Adobe Illustrator 16.0.0, SVG Export Plug-In . SVG Version: 6.00 Build 0)  -->
<!DOCTYPE svg PUBLIC "-//W3C//DTD SVG 1.1//EN" "http://www.w3.org/Graphics/SVG/1.1/DTD/svg11.dtd">
<svg version="1.1" id="Calque_1" xmlns="http://www.w3.org/2000/svg" xmlns:xlink="http://www.w3.org/1999/xlink" x="0px" y="0px"
	 width="1190.551px" height="1190.551px" viewBox="0 0 1190.551 1190.551" enable-background="new 0 0 1190.551 1190.551"
	 xml:space="preserve">
<path fill="#010202" d="M933.643,242.979c0,0,0,159.585,0,212.778c0,36-10.395,50-48.895,50H711.957
	c40.146-50.729,64.125-114.84,64.125-184.557c0-164.382-133.258-297.641-297.64-297.641c-164.382,0-297.639,133.26-297.639,297.642
	c0,164.382,133.258,297.641,297.64,297.641c12.08,0,23.985-0.74,35.688-2.139l-66.789,187.764v328.42h133.896V972.465h29.053
	v160.422h31.58v34.105h117.471V623.836h-46.736v-48.354h-79.395c30.074-18.344,56.633-41.878,78.445-69.351v31.939v5.099v32.312
	h173.092v0.001c38.5,0,48.895,14,48.895,50c0,53.193,0,212.777,0,212.777h76.105V543.169v-5.1v-295.09H933.643z M633.024,616.256
	H517.728c41.786-5.51,80.84-19.678,115.295-40.659V616.256z"/>
</svg>
