<?xml version="1.0" encoding="utf-8"?>
<!-- Generator: Adobe Illustrator 16.0.0, SVG Export Plug-In . SVG Version: 6.00 Build 0)  -->
<!DOCTYPE svg PUBLIC "-//W3C//DTD SVG 1.1//EN" "http://www.w3.org/Graphics/SVG/1.1/DTD/svg11.dtd">
<svg version="1.1" id="Calque_1" xmlns="http://www.w3.org/2000/svg" xmlns:xlink="http://www.w3.org/1999/xlink" x="0px" y="0px"
	 width="1190.551px" height="1190.551px" viewBox="0 0 1190.551 1190.551" enable-background="new 0 0 1190.551 1190.551"
	 xml:space="preserve">
<path fill="#010202" d="M795.581,0h-5.099h-295.09v75.524C442.756,28.488,373.301-0.122,297.155-0.122
	c-164.382,0-297.64,133.259-297.64,297.641s133.258,297.64,297.64,297.64c12.08,0,23.985-0.739,35.688-2.138l-66.789,187.763
	v328.421h133.895V948.783h29.054v160.421h31.579v34.106h117.472V600.154h-46.737V551.8h-79.395
	c85.673-52.256,142.873-146.587,142.873-254.281c0-87.922-38.133-166.93-98.75-221.416c11.056,0,160.908,0,212.126,0
	c36,0,50,10.397,50,48.897v173.09h32.312h5.099h32.312V125h0.002c0-38.5,14-48.897,50-48.897c53.194,0,212.778,0,212.778,0V0
	H795.581z M451.736,592.574H336.44c41.786-5.51,80.841-19.678,115.296-40.659V592.574z"/>
</svg>
