<?xml version="1.0" encoding="utf-8"?>
<!-- Generator: Adobe Illustrator 16.0.0, SVG Export Plug-In . SVG Version: 6.00 Build 0)  -->
<!DOCTYPE svg PUBLIC "-//W3C//DTD SVG 1.1//EN" "http://www.w3.org/Graphics/SVG/1.1/DTD/svg11.dtd">
<svg version="1.1" id="Calque_1" xmlns="http://www.w3.org/2000/svg" xmlns:xlink="http://www.w3.org/1999/xlink" x="0px" y="0px"
	 width="1190.551px" height="1190.551px" viewBox="0 0 1190.551 1190.551" enable-background="new 0 0 1190.551 1190.551"
	 xml:space="preserve">
<path fill="#010202" d="M533.987,113.721c0,0,0,159.585,0,212.778c0,36-10.396,50-48.896,50H311.999V48.354h-46.737V0h-79.58v40.774
	H66.947L0,228.984v328.421h133.894V396.984h29.053v160.421h31.579v34.106H297.34h14.659V446.223H485.09v0.001
	c38.5,0,48.896,14,48.896,50c0,51.732,0,204.084,0,212.415C479.602,637.45,393.843,591.511,297.34,591.511
	c-164.382,0-297.64,133.258-297.64,297.64s133.258,297.64,297.64,297.64s297.64-133.258,297.64-297.64
	c0-67.716-22.628-130.137-60.715-180.149h75.825V413.91v-5.1v-295.09H533.987z"/>
</svg>
