<?xml version="1.0" encoding="utf-8"?>
<!-- Generator: Adobe Illustrator 16.0.0, SVG Export Plug-In . SVG Version: 6.00 Build 0)  -->
<!DOCTYPE svg PUBLIC "-//W3C//DTD SVG 1.1//EN" "http://www.w3.org/Graphics/SVG/1.1/DTD/svg11.dtd">
<svg version="1.1" id="Calque_1" xmlns="http://www.w3.org/2000/svg" xmlns:xlink="http://www.w3.org/1999/xlink" x="0px" y="0px"
	 width="1190.551px" height="1190.551px" viewBox="0 0 1190.551 1190.551" enable-background="new 0 0 1190.551 1190.551"
	 xml:space="preserve">
<path fill="#010202" d="M727.228,857.858v-0.002c-38.498,0-48.896-14-48.896-50c0-53.192,0-212.776,0-212.776h-75.123
	c157.253-7.983,282.301-138.014,282.301-297.251c0-164.382-133.258-297.64-297.64-297.64s-297.64,133.258-297.64,297.64
	c0,160.028,126.298,290.539,284.65,297.341H468.335v160.422h-29.053V595.17h-31.579v-34.106H290.231v543.158h46.735v48.353h79.58
	v-40.772h118.735l66.947-188.209v266.768h76.103c0,0,0-159.585,0-212.777c0-36,10.397-50,48.896-50h173.094v-32.312v-5.1v-32.312
	H727.228V857.858z M600.86,595.17c0.456-0.02,0.915-0.03,1.371-0.052v0.052H600.86z"/>
</svg>
