<?xml version="1.0" encoding="utf-8"?>
<!-- Generator: Adobe Illustrator 16.0.0, SVG Export Plug-In . SVG Version: 6.00 Build 0)  -->
<!DOCTYPE svg PUBLIC "-//W3C//DTD SVG 1.1//EN" "http://www.w3.org/Graphics/SVG/1.1/DTD/svg11.dtd">
<svg version="1.1" id="Calque_1" xmlns="http://www.w3.org/2000/svg" xmlns:xlink="http://www.w3.org/1999/xlink" x="0px" y="0px"
	 width="1190.551px" height="1190.551px" viewBox="0 0 1190.551 1190.551" enable-background="new 0 0 1190.551 1190.551"
	 xml:space="preserve">
<path fill="#010202" d="M436.998,857.369v-0.002c-38.499,0-48.896-14-48.896-50c0-53.192,0-212.776,0-212.776h-75.123
	C470.232,586.608,595.28,456.577,595.28,297.34C595.28,132.958,462.022-0.3,297.64-0.3S0,132.958,0,297.34
	c0,160.028,126.298,290.539,284.651,297.341H178.105v160.422h-29.053V594.681h-31.579v-34.106H0v543.158h46.736v48.353h79.58
	v-40.773h118.735l66.947-188.209v266.768h76.103c0,0,0-159.585,0-212.777c0-36,10.397-50,48.896-50H610.09v-32.312v-5.099v-32.312
	H436.998z M310.629,594.681c0.456-0.02,0.915-0.03,1.371-0.052v0.052H310.629z"/>
</svg>
