<?xml version="1.0" encoding="utf-8"?>
<!-- Generator: Adobe Illustrator 16.0.0, SVG Export Plug-In . SVG Version: 6.00 Build 0)  -->
<!DOCTYPE svg PUBLIC "-//W3C//DTD SVG 1.1//EN" "http://www.w3.org/Graphics/SVG/1.1/DTD/svg11.dtd">
<svg version="1.1" id="Calque_1" xmlns="http://www.w3.org/2000/svg" xmlns:xlink="http://www.w3.org/1999/xlink" x="0px" y="0px"
	 width="1190.551px" height="1190.551px" viewBox="0 0 1190.551 1190.551" enable-background="new 0 0 1190.551 1190.551"
	 xml:space="preserve">
<path fill="#010202" d="M824.367,115.601c0,0,0,159.585,0,212.778c0,36-10.396,50-48.896,50H602.379V50.234h-46.737V1.88h-79.58
	v40.774H357.327l-66.946,188.21v328.421h133.894V398.864h29.053v160.421h31.579v34.106H587.72h14.659V448.103h173.092v0.001
	c38.5,0,48.895,14,48.895,50c0,51.732,0,204.083,0,212.415C769.983,639.33,684.223,593.391,587.72,593.391
	c-164.382,0-297.64,133.258-297.64,297.641c0,164.382,133.258,297.64,297.64,297.64c164.381,0,297.639-133.258,297.639-297.64
	c0-67.717-22.627-130.138-60.715-180.149h75.826V415.79v-5.1V115.6h-76.104V115.601z"/>
</svg>
