<?xml version="1.0" encoding="utf-8"?>
<!-- Generator: Adobe Illustrator 16.0.0, SVG Export Plug-In . SVG Version: 6.00 Build 0)  -->
<!DOCTYPE svg PUBLIC "-//W3C//DTD SVG 1.1//EN" "http://www.w3.org/Graphics/SVG/1.1/DTD/svg11.dtd">
<svg version="1.1" id="Calque_1" xmlns="http://www.w3.org/2000/svg" xmlns:xlink="http://www.w3.org/1999/xlink" x="0px" y="0px"
	 width="1190.551px" height="1190.551px" viewBox="0 0 1190.551 1190.551" enable-background="new 0 0 1190.551 1190.551"
	 xml:space="preserve">
<path fill="#010202" d="M752.355,219.297c0,0,0,159.585,0,212.778c0,36-10.396,50-48.896,50H530.669
	c40.147-50.729,64.125-114.84,64.125-184.557c0-164.382-133.258-297.641-297.64-297.641S-0.485,133.137-0.485,297.519
	s133.258,297.64,297.64,297.64c12.08,0,23.985-0.739,35.688-2.138l-66.789,187.763v328.421h133.895V948.783h29.054v160.421h31.579
	v34.106h117.472V600.154h-46.737V551.8h-79.395c30.075-18.344,56.633-41.878,78.447-69.351v31.939v5.099v32.312h173.09v0.001
	c38.5,0,48.896,14,48.896,50.001c0,53.192,0,212.776,0,212.776h76.104V519.487v-5.1v-295.09H752.355z M451.736,592.574H336.44
	c41.786-5.51,80.841-19.678,115.296-40.659V592.574z"/>
</svg>
