<?xml version="1.0" encoding="utf-8"?>
<!-- Generator: Adobe Illustrator 16.0.0, SVG Export Plug-In . SVG Version: 6.00 Build 0)  -->
<!DOCTYPE svg PUBLIC "-//W3C//DTD SVG 1.1//EN" "http://www.w3.org/Graphics/SVG/1.1/DTD/svg11.dtd">
<svg version="1.1" id="Calque_1" xmlns="http://www.w3.org/2000/svg" xmlns:xlink="http://www.w3.org/1999/xlink" x="0px" y="0px"
	 width="1190.551px" height="1190.551px" viewBox="0 0 1190.551 1190.551" enable-background="new 0 0 1190.551 1190.551"
	 xml:space="preserve">
<path fill="#010202" d="M824.506,497.249c38.26-50.076,61.004-112.641,61.004-180.526c0-164.382-133.258-297.64-297.64-297.64
	s-297.64,133.258-297.64,297.64c0,160.028,126.298,290.54,284.65,297.341H468.335v160.423h-29.053V614.063h-31.579v-34.106H290.231
	v543.158h46.735v48.354h79.58v-40.773h118.735l66.947-188.209V829.75h173.092v0.002c38.5,0,48.896,14,48.896,50
	c0,53.191,0,212.775,0,212.775h76.104v-295.09v-5.1V497.249H824.506z M775.321,760.025H602.23V614.063h-1.371
	c91.009-3.909,171.417-48.68,223.357-116.438c0,8.489,0,160.699,0,212.4C824.217,746.025,813.821,760.025,775.321,760.025z"/>
</svg>
