<?xml version="1.0" encoding="utf-8"?>
<!-- Generator: Adobe Illustrator 16.0.0, SVG Export Plug-In . SVG Version: 6.00 Build 0)  -->
<!DOCTYPE svg PUBLIC "-//W3C//DTD SVG 1.1//EN" "http://www.w3.org/Graphics/SVG/1.1/DTD/svg11.dtd">
<svg version="1.1" id="Calque_1" xmlns="http://www.w3.org/2000/svg" xmlns:xlink="http://www.w3.org/1999/xlink" x="0px" y="0px"
	 width="1190.551px" height="1190.551px" viewBox="0 0 1190.551 1190.551" enable-background="new 0 0 1190.551 1190.551"
	 xml:space="preserve">
<path fill="#010202" d="M905.018,320.088c0,0,0,159.585,0,212.778c0,36-10.398,50-48.898,50H683.03v-8.176h28.631v-18.319h17.93
	v-39.453h-17.93v-32.274h17.93v-39.451h-17.93v-36.987h17.93v-39.453h-17.93v-42.588h17.93v-39.451h-17.93v-39.452h17.93v-39.448
	h-17.93v-42.653h17.93V125.71h-17.93V85.361h17.93V45.911h-17.93V22.375H683.03V0.856h-41.244v21.518h-28.164V0.856h-41.244v21.518
	h-34.885V0.856h-41.247v21.518h-35.638V0.856h-41.244v21.518h-32.28V0.856h-41.241v21.518H311.77V0.856h-41.245v21.518h-43.038
	v23.536h-17.932v39.451h17.932v40.348h-17.932v39.451h17.932v42.653h-17.932v39.448h17.932v39.452h-17.932v39.451h17.932v42.588
	h-17.932v39.453h17.932v36.986h-17.932v39.451h17.932v32.274h-17.932v39.453h17.932v18.319h43.038v19.724h41.244v-19.724h34.072
	v19.724h41.241v-19.724h32.28v19.724h41.244v-19.724h35.638v19.724h10.828h30.419v-19.724h34.885v19.724h41.243v-19.724h28.166
	v19.724h41.244v20.766v5.099v31.715c-49.291-36.188-110.122-57.579-175.957-57.579c-164.382,0-297.641,133.258-297.641,297.64
	s133.259,297.641,297.641,297.641c164.382,0,297.64-133.259,297.64-297.641c0-98.184-47.549-185.25-120.865-239.463h172.271v0.001
	c38.5,0,48.898,14,48.898,50c0,53.191,0,212.775,0,212.775h76.102v-295.09v-5.099v-295.09H905.018z"/>
</svg>
