<?xml version="1.0" encoding="utf-8"?>
<!-- Generator: Adobe Illustrator 16.0.0, SVG Export Plug-In . SVG Version: 6.00 Build 0)  -->
<!DOCTYPE svg PUBLIC "-//W3C//DTD SVG 1.1//EN" "http://www.w3.org/Graphics/SVG/1.1/DTD/svg11.dtd">
<svg version="1.1" id="Calque_1" xmlns="http://www.w3.org/2000/svg" xmlns:xlink="http://www.w3.org/1999/xlink" x="0px" y="0px"
	 width="1190.551px" height="1190.551px" viewBox="0 0 1190.551 1190.551" enable-background="new 0 0 1190.551 1190.551"
	 xml:space="preserve">
<g>
	<path fill="#010202" d="M273.591,857.191c-38.5,0-48.897-14-48.897-50c0-53.193,0-212.777,0-212.777h-76.103v295.092v5.098v295.092
		h76.103c0,0,0-159.584,0-212.777c0-36,10.397-50,48.897-50h173.09v-32.314v-5.1v-23.941v-8.369L273.591,857.191z"/>
	<path fill="#010202" d="M744.321,567.921c-43.573,0-84.958,9.366-122.255,26.19V574.69h28.631v-18.319h17.929v-39.453h-17.929
		v-32.274h17.929v-39.451h-17.929v-36.988h17.929v-39.453h-17.929v-42.588h17.929v-39.451h-17.929v-39.452h17.929v-39.448h-17.929
		V165.16h17.929v-39.451h-17.929V85.36h17.929V45.909h-17.929V22.373h-28.631V0.855h-41.244v21.518h-28.165V0.855h-41.243v21.518
		h-34.885V0.855h-41.247v21.518h-35.638V0.855H358.4v21.518h-32.28V0.855h-41.241v21.518h-34.072V0.855h-41.245v21.518h-43.038
		v23.536h-17.932V85.36h17.932v40.348h-17.932v39.451h17.932v42.653h-17.932v39.448h17.932v39.452h-17.932v39.451h17.932v42.588
		h-17.932v39.453h17.932v36.986h-17.932v39.451h17.932v32.274h-17.932v39.453h17.932v18.319h43.038v19.724h41.244v-19.724h34.072
		v19.724h41.241v-19.724h32.28v19.724h41.244v-19.724h35.638v19.724h41.247v-19.724h34.885v19.724h41.243v-19.724h28.165v19.724
		h40.582c-103.052,46.792-174.722,150.601-174.722,271.149c0,164.383,133.258,297.641,297.64,297.641s297.64-133.258,297.64-297.641
		C1041.959,701.178,908.702,567.921,744.321,567.921z"/>
</g>
</svg>
