<?xml version="1.0" encoding="utf-8"?>
<!-- Generator: Adobe Illustrator 16.0.0, SVG Export Plug-In . SVG Version: 6.00 Build 0)  -->
<!DOCTYPE svg PUBLIC "-//W3C//DTD SVG 1.1//EN" "http://www.w3.org/Graphics/SVG/1.1/DTD/svg11.dtd">
<svg version="1.1" id="Calque_1" xmlns="http://www.w3.org/2000/svg" xmlns:xlink="http://www.w3.org/1999/xlink" x="0px" y="0px"
	 width="1190.551px" height="1190.551px" viewBox="0 0 1190.551 1190.551" enable-background="new 0 0 1190.551 1190.551"
	 xml:space="preserve">
<path fill="#010202" d="M831.397,362.518L831.397,362.518c-38.5,0.001-48.896-13.999-48.896-49.999c0-53.193,0-212.778,0-212.778
	h-76.104v25.968h-17.93V85.361h17.93V45.91h-17.93V22.374h-28.631V0.856h-41.244v21.518h-28.165V0.856h-41.243v21.518H514.3V0.856
	h-41.247v21.518h-35.638V0.856h-41.244v21.518h-32.28V0.856h-41.241v21.518h-34.072V0.856h-41.244v21.518h-43.038V45.91h-17.932
	v39.451h17.932v40.348h-17.932v39.451h17.932v42.653h-17.932v39.448h17.932v39.452h-17.932v39.451h17.932v42.588h-17.932v39.453
	h17.932v36.986h-17.932v39.451h17.932v32.274h-17.932v39.453h17.932v18.319h43.038v19.724h41.244v-19.724h34.072v19.724h41.241
	v-19.724h32.28v19.724h41.244v-19.724h35.638v19.724h10.649H514.3v-19.724h34.885v19.724h41.243v-19.724h28.165v19.724h41.244
	v-19.724h28.631v-18.319h17.93v138.234c-54.523-61.449-134.079-100.189-222.694-100.189c-164.382,0-297.64,133.258-297.64,297.641
	c0,164.381,133.258,297.641,297.64,297.641c164.381,0,297.639-133.26,297.639-297.641c0-75.566-28.176-144.541-74.574-197.031H782.5
	c0,0,0-159.585,0-212.778c0-36,10.396-50,48.896-50h173.092v-32.313v-5.1V362.52H831.397V362.518z M688.469,165.16h17.928v42.653
	h-17.928V165.16L688.469,165.16z M688.469,247.262h17.928v39.452h-17.928V247.262L688.469,247.262z M688.469,326.165h17.928v42.588
	h-17.928V326.165L688.469,326.165z M688.469,408.206h17.928v36.986h-17.928V408.206L688.469,408.206z M688.469,516.918v-32.274
	h17.928v32.274H688.469z"/>
</svg>
