<?xml version="1.0" encoding="utf-8"?>
<!-- Generator: Adobe Illustrator 16.0.0, SVG Export Plug-In . SVG Version: 6.00 Build 0)  -->
<!DOCTYPE svg PUBLIC "-//W3C//DTD SVG 1.1//EN" "http://www.w3.org/Graphics/SVG/1.1/DTD/svg11.dtd">
<svg version="1.1" id="Calque_1" xmlns="http://www.w3.org/2000/svg" xmlns:xlink="http://www.w3.org/1999/xlink" x="0px" y="0px"
	 width="1190.551px" height="1190.551px" viewBox="0 0 1190.551 1190.551" enable-background="new 0 0 1190.551 1190.551"
	 xml:space="preserve">
<g>
	<polygon fill="#010202" points="388.984,574.69 423.869,574.69 423.869,594.414 465.112,594.414 465.112,574.69 493.277,574.69 
		493.277,594.414 534.521,594.414 534.521,574.69 563.152,574.69 563.152,556.371 581.08,556.371 581.08,516.918 563.152,516.918 
		563.152,484.643 581.08,484.643 581.08,445.192 563.152,445.192 563.152,408.206 581.08,408.206 581.08,368.753 563.152,368.753 
		563.152,326.165 581.08,326.165 581.08,286.714 563.152,286.714 563.152,247.262 581.08,247.262 581.08,207.813 563.152,207.813 
		563.152,165.16 581.08,165.16 581.08,125.709 563.152,125.709 563.152,85.361 581.08,85.361 581.08,45.91 563.152,45.91 
		563.152,22.374 534.521,22.374 534.521,0.856 493.277,0.856 493.277,22.374 465.112,22.374 465.112,0.856 423.869,0.856 
		423.869,22.374 388.984,22.374 388.984,0.856 347.737,0.856 347.737,22.374 312.099,22.374 312.099,0.856 270.855,0.856 
		270.855,22.374 238.575,22.374 238.575,0.856 197.333,0.856 197.333,22.374 163.26,22.374 163.26,0.856 122.016,0.856 
		122.016,22.374 78.978,22.374 78.978,45.91 61.047,45.91 61.047,85.361 78.978,85.361 78.978,125.709 61.047,125.709 
		61.047,165.16 78.978,165.16 78.978,207.813 61.047,207.813 61.047,247.262 78.978,247.262 78.978,286.714 61.047,286.714 
		61.047,326.165 78.978,326.165 78.978,368.753 61.047,368.753 61.047,408.206 78.978,408.206 78.978,445.192 61.047,445.192 
		61.047,484.643 78.978,484.643 78.978,516.918 61.047,516.918 61.047,556.371 78.978,556.371 78.978,574.69 122.016,574.69 
		122.016,594.414 163.26,594.414 163.26,574.69 197.333,574.69 197.333,594.414 238.575,594.414 238.575,574.69 270.855,574.69 
		270.855,594.414 312.099,594.414 312.099,574.69 347.737,574.69 347.737,594.414 358.386,594.414 388.984,594.414 	"/>
	<path fill="#010202" d="M917.024,576.101c-36,0-50-10.397-50-48.897v-173.09h-32.312h-5.1h-32.311v173.09
		c0,38.5-14,48.897-50,48.897c-53.195,0-212.779,0-212.779,0v76.022c-49.321-36.268-110.22-57.709-176.136-57.709
		c-164.382,0-297.64,133.258-297.64,297.641c0,164.381,133.258,297.641,297.64,297.641s297.639-133.26,297.639-297.641
		c0-98.418-47.779-185.666-121.394-239.852h294.982h5.1h295.092v-76.102C1129.803,576.101,970.219,576.101,917.024,576.101z"/>
</g>
</svg>
