<?xml version="1.0" encoding="utf-8"?>
<!-- Generator: Adobe Illustrator 16.0.0, SVG Export Plug-In . SVG Version: 6.00 Build 0)  -->
<!DOCTYPE svg PUBLIC "-//W3C//DTD SVG 1.1//EN" "http://www.w3.org/Graphics/SVG/1.1/DTD/svg11.dtd">
<svg version="1.1" id="Calque_1" xmlns="http://www.w3.org/2000/svg" xmlns:xlink="http://www.w3.org/1999/xlink" x="0px" y="0px"
	 width="1190.551px" height="1190.551px" viewBox="0 0 1190.551 1190.551" enable-background="new 0 0 1190.551 1190.551"
	 xml:space="preserve">
<path fill="#010202" d="M868.01,492.094c-38.5,0-48.898-14-48.898-50c0-53.193,0-212.777,0-212.777H743.01v18.26h-21.52v-32.28
	h21.52v-41.242h-21.52v-34.071h21.52V98.738h-21.52V55.7h-23.533V37.768h-39.453V55.7h-40.35V37.768h-39.448V55.7h-42.654V37.768
	h-39.449V55.7h-39.451V37.768h-39.451V55.7h-42.588V37.768H335.66V55.7h-36.986V37.768h-39.451V55.7h-32.274V37.768h-39.453V55.7
	h-18.319v43.038h-19.724v41.245h19.724v34.071h-19.724v41.242h19.724v32.28h-19.724v41.244h19.724v35.638h-19.724v41.247h19.724
	v34.886h-19.724v41.242h19.724v28.165h-19.724v41.244h19.724v28.631h18.319v17.93h39.453v-17.93h32.273v17.93h39.451v-17.93h36.986
	v17.93h39.453v-17.93H417.7v17.93h16.376c-158.34,6.815-284.624,137.322-284.624,297.339c0,164.383,133.258,297.641,297.64,297.641
	c164.381,0,297.639-133.258,297.639-297.641c0-10.312-0.525-20.502-1.549-30.545h75.93c0,0,0-159.584,0-212.779
	c0-36,10.398-50,48.898-50h173.09v-32.312v-5.1v-32.312H868.01L868.01,492.094z M721.49,288.821h21.52v35.638h-21.52V288.821z
	 M721.49,365.706h21.52v34.886h-21.52V365.706z M721.49,441.834h21.52v28.165h-21.52V441.834z M457.152,557.691v-17.817h39.45v17.93
	h39.449v-17.93h42.654v17.93h39.449v-17.93h40.35v17.93h39.451v-17.93h23.533v-28.631h21.52v13.165v5.1v293.585
	C727.373,677.061,606.131,562.642,457.152,557.691z"/>
</svg>
