<?xml version="1.0" encoding="utf-8"?>
<!-- Generator: Adobe Illustrator 16.0.0, SVG Export Plug-In . SVG Version: 6.00 Build 0)  -->
<!DOCTYPE svg PUBLIC "-//W3C//DTD SVG 1.1//EN" "http://www.w3.org/Graphics/SVG/1.1/DTD/svg11.dtd">
<svg version="1.1" id="Calque_1" xmlns="http://www.w3.org/2000/svg" xmlns:xlink="http://www.w3.org/1999/xlink" x="0px" y="0px"
	 width="1190.551px" height="1190.551px" viewBox="0 0 1190.551 1190.551" enable-background="new 0 0 1190.551 1190.551"
	 xml:space="preserve">
<path fill="#010202" d="M645.034,361.662L645.034,361.662c-38.5,0.001-48.896-13.999-48.896-49.999c0-53.193,0-212.778,0-212.778
	h-76.104v25.968h-17.929V84.505h17.929V45.054h-17.929V21.518h-28.631V0h-41.244v21.518h-28.165V0h-41.243v21.518h-34.885V0h-41.247
	v21.518h-35.638V0h-41.244v21.518h-32.28V0h-41.242v21.518h-34.072V0H60.97v21.518H17.932v23.536H0v39.451h17.932v40.348H0v39.451
	h17.932v42.653H0v39.448h17.932v39.452H0v39.451h17.932v42.588H0v39.453h17.932v36.986H0v39.451h17.932v32.274H0v39.453h17.932
	v18.319H60.97v19.724h41.244v-19.724h34.072v19.724h41.242v-19.724h32.28v19.724h41.244v-19.724h35.638v19.724h10.649h30.598
	v-19.724h34.885v19.724h41.243v-19.724h28.165v19.724h41.244v-19.724h28.631v-18.319h17.929v138.234
	C465.51,632.298,385.955,593.558,297.34,593.558c-164.382,0-297.64,133.258-297.64,297.64s133.258,297.641,297.64,297.641
	s297.64-133.259,297.64-297.641c0-75.566-28.176-144.541-74.575-197.031h75.733c0,0,0-159.585,0-212.778c0-36,10.396-50,48.896-50
	h173.092v-32.313v-5.1v-32.312H645.034z M502.106,164.304h17.929v42.653h-17.929V164.304z M502.106,246.406h17.929v39.452h-17.929
	V246.406z M502.106,325.309h17.929v42.588h-17.929V325.309z M502.106,407.35h17.929v36.986h-17.929V407.35z M502.106,516.062
	v-32.274h17.929v32.274H502.106z"/>
</svg>
