<?xml version="1.0" encoding="utf-8"?>
<!-- Generator: Adobe Illustrator 16.0.0, SVG Export Plug-In . SVG Version: 6.00 Build 0)  -->
<!DOCTYPE svg PUBLIC "-//W3C//DTD SVG 1.1//EN" "http://www.w3.org/Graphics/SVG/1.1/DTD/svg11.dtd">
<svg version="1.1" id="Calque_1" xmlns="http://www.w3.org/2000/svg" xmlns:xlink="http://www.w3.org/1999/xlink" x="0px" y="0px"
	 width="1190.551px" height="1190.551px" viewBox="0 0 1190.551 1190.551" enable-background="new 0 0 1190.551 1190.551"
	 xml:space="preserve">
<g>
	<polygon fill="#010202" points="327.938,573.834 362.823,573.834 362.823,593.558 404.066,593.558 404.066,573.834 
		432.231,573.834 432.231,593.558 473.475,593.558 473.475,573.834 502.106,573.834 502.106,555.515 520.034,555.515 
		520.034,516.062 502.106,516.062 502.106,483.787 520.034,483.787 520.034,444.336 502.106,444.336 502.106,407.35 520.034,407.35 
		520.034,367.897 502.106,367.897 502.106,325.309 520.034,325.309 520.034,285.858 502.106,285.858 502.106,246.406 
		520.034,246.406 520.034,206.957 502.106,206.957 502.106,164.304 520.034,164.304 520.034,124.853 502.106,124.853 
		502.106,84.505 520.034,84.505 520.034,45.054 502.106,45.054 502.106,21.518 473.475,21.518 473.475,0 432.231,0 432.231,21.518 
		404.066,21.518 404.066,0 362.823,0 362.823,21.518 327.938,21.518 327.938,0 286.691,0 286.691,21.518 251.053,21.518 251.053,0 
		209.809,0 209.809,21.518 177.529,21.518 177.529,0 136.286,0 136.286,21.518 102.214,21.518 102.214,0 60.97,0 60.97,21.518 
		17.932,21.518 17.932,45.054 0,45.054 0,84.505 17.932,84.505 17.932,124.853 0,124.853 0,164.304 17.932,164.304 17.932,206.957 
		0,206.957 0,246.406 17.932,246.406 17.932,285.858 0,285.858 0,325.309 17.932,325.309 17.932,367.897 0,367.897 0,407.35 
		17.932,407.35 17.932,444.336 0,444.336 0,483.787 17.932,483.787 17.932,516.062 0,516.062 0,555.515 17.932,555.515 
		17.932,573.834 60.97,573.834 60.97,593.558 102.214,593.558 102.214,573.834 136.286,573.834 136.286,593.558 177.529,593.558 
		177.529,573.834 209.809,573.834 209.809,593.558 251.053,593.558 251.053,573.834 286.691,573.834 286.691,593.558 
		297.34,593.558 327.938,593.558 	"/>
	<path fill="#010202" d="M855.978,575.245c-36,0-50-10.397-50-48.897v-173.09h-32.313h-5.1h-32.311v173.09
		c0,38.5-14,48.897-50,48.897c-53.194,0-212.778,0-212.778,0v76.023C424.155,615,363.256,593.558,297.34,593.558
		c-164.382,0-297.64,133.258-297.64,297.64s133.258,297.641,297.64,297.641s297.64-133.259,297.64-297.641
		c0-98.418-47.779-185.665-121.395-239.85h294.982h5.1h295.091v-76.103C1068.757,575.245,909.172,575.245,855.978,575.245z"/>
</g>
</svg>
