<?xml version="1.0" encoding="utf-8"?>
<!-- Generator: Adobe Illustrator 16.0.0, SVG Export Plug-In . SVG Version: 6.00 Build 0)  -->
<!DOCTYPE svg PUBLIC "-//W3C//DTD SVG 1.1//EN" "http://www.w3.org/Graphics/SVG/1.1/DTD/svg11.dtd">
<svg version="1.1" id="Calque_1" xmlns="http://www.w3.org/2000/svg" xmlns:xlink="http://www.w3.org/1999/xlink" x="0px" y="0px"
	 width="1190.551px" height="1190.551px" viewBox="0 0 1190.551 1190.551" enable-background="new 0 0 1190.551 1190.551"
	 xml:space="preserve">
<path fill="#010202" d="M916.874,576.021c-36,0-50-10.397-50-48.897V354.033h-32.313h-5.1h-32.311v173.091
	c0,38.5-14,48.897-50,48.897c-53.194,0-212.778,0-212.778,0v75.735c-46.001-33.739-102.046-54.576-162.822-57.192h17.284V574.84
	h34.886v19.724h41.242V574.84h28.165v19.724h41.244V574.84h28.631v-18.319h17.929v-39.453h-17.929v-32.274h17.929v-39.451h-17.929
	v-36.987h17.929v-39.453h-17.929v-42.588h17.929v-39.451h-17.929v-39.452h17.929v-39.448h-17.929v-42.653h17.929V125.86h-17.929
	V85.511h17.929V46.06h-17.929V22.524h-28.631V1.006h-41.244v21.518h-28.165V1.006H423.72v21.518h-34.886V1.006h-41.247v21.518
	h-35.638V1.006h-41.244v21.518h-32.28V1.006h-41.241v21.518h-34.072V1.006h-41.245v21.518H78.828V46.06H60.897v39.451h17.932v40.348
	H60.897v39.451h17.932v42.653H60.897v39.448h17.932v39.452H60.897v39.451h17.932v42.588H60.897v39.453h17.932v36.986H60.897v39.451
	h17.932v32.274H60.897v39.453h17.932v18.319h43.038v19.724h41.244v-19.724h34.072v19.724h41.241v-19.724h32.28v19.724h41.244
	v-19.724h35.638v19.645C188.281,600.249,60.897,731.189,60.897,891.904c0,164.383,133.258,297.641,297.64,297.641
	s297.64-133.258,297.64-297.641c0-98.376-47.737-185.592-121.301-239.781h294.588h5.1h295.092v-76.102
	C1129.654,576.021,970.069,576.021,916.874,576.021z"/>
</svg>
