<?xml version="1.0" encoding="utf-8"?>
<!-- Generator: Adobe Illustrator 16.0.0, SVG Export Plug-In . SVG Version: 6.00 Build 0)  -->
<!DOCTYPE svg PUBLIC "-//W3C//DTD SVG 1.1//EN" "http://www.w3.org/Graphics/SVG/1.1/DTD/svg11.dtd">
<svg version="1.1" id="Calque_1" xmlns="http://www.w3.org/2000/svg" xmlns:xlink="http://www.w3.org/1999/xlink" x="0px" y="0px"
	 width="1190.551px" height="1190.551px" viewBox="0 0 1190.551 1190.551" enable-background="new 0 0 1190.551 1190.551"
	 xml:space="preserve">
<path fill="#010202" d="M845.632,721.023c-38.5,0-48.898-14-48.898-50c0-53.191,0-212.777,0-212.777H720.89
	c29.262-46.072,46.219-100.729,46.219-159.349c0-164.382-133.258-297.64-297.64-297.64s-297.64,133.258-297.64,297.64
	c0,157.045,121.632,285.671,275.828,296.841h-37.251v21.518h-32.279v-21.518h-41.243v21.518h-34.072v-21.518h-41.244v21.518H218.53
	v23.535h-17.933v39.451h17.933v40.348h-17.933v39.451h17.933v42.654h-17.933v39.447h17.933v39.451h-17.933v39.451h17.933v42.588
	h-17.933v39.453h17.933v36.986h-17.933v39.453h17.933v32.271h-17.933v39.453h17.933v18.32h43.038v19.723h41.243v-19.723h34.072
	v19.723h41.243v-19.723h32.279v19.723h41.244v-19.723h35.639v19.723h41.246v-19.723h34.886v19.723h41.243v-19.723h28.165v19.723
	h41.242v-19.723h28.633v-18.32h17.929v-39.453h-17.929v-32.271h17.929v-26h76.102c0,0,0-159.586,0-212.777c0-36,10.398-50,48.898-50
	h173.09v-32.314v-5.098v-32.312H845.632L845.632,721.023z M451.651,617.254V595.99c5.897,0.348,11.834,0.547,17.818,0.547
	c5.983,0,11.922-0.199,17.819-0.547v21.264H451.651z M720.632,1040.074h-17.929v-36.986h17.929V1040.074z M720.632,963.633h-17.929
	v-42.588h17.929V963.633z M720.632,881.594h-17.929v-39.451h17.929V881.594z M720.632,802.695h-17.929v-42.654h17.929V802.695z
	 M720.632,720.59h-17.929v-40.348h17.929V720.59z M702.703,640.791v-23.537h-28.633v-21.517h-41.242v21.517h-28.165v-21.517H563.42
	v21.517h-34.886v-21.517H491.28c96.469-6.988,180.187-59.946,229.353-137.079v182.133H702.703z"/>
</svg>
