<?xml version="1.0" encoding="utf-8"?>
<!-- Generator: Adobe Illustrator 16.0.0, SVG Export Plug-In . SVG Version: 6.00 Build 0)  -->
<!DOCTYPE svg PUBLIC "-//W3C//DTD SVG 1.1//EN" "http://www.w3.org/Graphics/SVG/1.1/DTD/svg11.dtd">
<svg version="1.1" id="Calque_1" xmlns="http://www.w3.org/2000/svg" xmlns:xlink="http://www.w3.org/1999/xlink" x="0px" y="0px"
	 width="1190.551px" height="1190.551px" viewBox="0 0 1190.551 1190.551" enable-background="new 0 0 1190.551 1190.551"
	 xml:space="preserve">
<path fill="#010202" d="M718.558,454.326c-38.5,0-48.898-14-48.898-50c0-53.193,0-212.777,0-212.777h-76.102v18.26h-21.519v-32.28
	h21.519v-41.242h-21.519v-34.071h21.519V60.97h-21.519V17.932h-23.534V0h-39.452v17.932h-40.349V0h-39.449v17.932h-42.654V0h-39.449
	v17.932H307.7V0h-39.451v17.932h-42.588V0h-39.453v17.932h-36.986V0h-39.451v17.932H77.496V0H38.043v17.932H19.724V60.97H0v41.245
	h19.724v34.071H0v41.242h19.724v32.28H0v41.244h19.724v35.638H0v41.247h19.724v34.886H0v41.242h19.724v28.165H0v41.244h19.724
	v28.631h18.319v17.93h39.453v-17.93h32.274v17.93h39.451v-17.93h36.986v17.93h39.453v-17.93h42.588v17.93h16.376
	C126.284,526.85,0,657.356,0,817.375c0,164.382,133.258,297.64,297.64,297.64s297.64-133.258,297.64-297.64
	c0-10.312-0.526-20.502-1.55-30.545h75.93c0,0,0-159.585,0-212.779c0-36,10.398-50,48.898-50h173.09v-32.313v-5.1v-32.312H718.558z
	 M572.039,251.053h21.519v35.638h-21.519V251.053z M572.039,327.938h21.519v34.886h-21.519V327.938z M572.039,404.066h21.519v28.165
	h-21.519V404.066z M307.7,519.923v-17.817h39.451v17.93h39.449v-17.93h42.654v17.93h39.449v-17.93h40.349v17.93h39.452v-17.93
	h23.534v-28.631h21.519v13.165v5.1v293.585C577.921,639.293,456.679,524.874,307.7,519.923z"/>
</svg>
