<?xml version="1.0" encoding="utf-8"?>
<!-- Generator: Adobe Illustrator 16.0.0, SVG Export Plug-In . SVG Version: 6.00 Build 0)  -->
<!DOCTYPE svg PUBLIC "-//W3C//DTD SVG 1.1//EN" "http://www.w3.org/Graphics/SVG/1.1/DTD/svg11.dtd">
<svg version="1.1" id="Calque_1" xmlns="http://www.w3.org/2000/svg" xmlns:xlink="http://www.w3.org/1999/xlink" x="0px" y="0px"
	 width="1190.551px" height="1190.551px" viewBox="0 0 1190.551 1190.551" enable-background="new 0 0 1190.551 1190.551"
	 xml:space="preserve">
<path fill="#010202" d="M855.978,575.015c-36,0-50-10.397-50-48.897V353.027h-32.313h-5.1h-32.311v173.091
	c0,38.5-14,48.897-50,48.897c-53.194,0-212.778,0-212.778,0v75.735c-46.001-33.739-102.046-54.576-162.822-57.192h17.284v-19.724
	h34.885v19.724h41.243v-19.724h28.165v19.724h41.244v-19.724h28.631v-18.319h17.929v-39.453h-17.929v-32.274h17.929v-39.451h-17.929
	V407.35h17.929v-39.453h-17.929v-42.588h17.929v-39.451h-17.929v-39.452h17.929v-39.448h-17.929v-42.653h17.929v-39.451h-17.929
	V84.505h17.929V45.054h-17.929V21.518h-28.631V0h-41.244v21.518h-28.165V0h-41.243v21.518h-34.885V0h-41.247v21.518h-35.638V0
	h-41.244v21.518h-32.28V0h-41.242v21.518h-34.072V0H60.97v21.518H17.932v23.536H0v39.451h17.932v40.348H0v39.451h17.932v42.653H0
	v39.448h17.932v39.452H0v39.451h17.932v42.588H0v39.453h17.932v36.986H0v39.451h17.932v32.274H0v39.453h17.932v18.319H60.97v19.724
	h41.244v-19.724h34.072v19.724h41.242v-19.724h32.28v19.724h41.244v-19.724h35.638v19.645C127.384,599.243,0,730.184,0,890.898
	c0,164.383,133.258,297.641,297.64,297.641s297.64-133.258,297.64-297.641c0-98.376-47.738-185.591-121.301-239.781h294.588h5.1
	h295.091v-76.102C1068.757,575.015,909.172,575.015,855.978,575.015z"/>
</svg>
