<?xml version="1.0" encoding="utf-8"?>
<!-- Generator: Adobe Illustrator 16.0.0, SVG Export Plug-In . SVG Version: 6.00 Build 0)  -->
<!DOCTYPE svg PUBLIC "-//W3C//DTD SVG 1.1//EN" "http://www.w3.org/Graphics/SVG/1.1/DTD/svg11.dtd">
<svg version="1.1" id="Calque_1" xmlns="http://www.w3.org/2000/svg" xmlns:xlink="http://www.w3.org/1999/xlink" x="0px" y="0px"
	 width="1190.551px" height="1190.551px" viewBox="0 0 1190.551 1190.551" enable-background="new 0 0 1190.551 1190.551"
	 xml:space="preserve">
<path fill="#010202" d="M673.503,719.766c-38.5,0-48.898-14-48.898-50c0-53.192,0-212.777,0-212.777h-75.844
	c29.262-46.072,46.219-100.728,46.219-159.349C594.98,133.258,461.722,0,297.34,0S-0.3,133.258-0.3,297.64
	c0,157.045,121.632,285.671,275.829,296.841h-37.251v21.517h-32.28v-21.517h-41.243v21.517h-34.072v-21.517H89.439v21.517H46.401
	v23.536H28.468v39.451h17.933v40.348H28.468v39.451h17.933v42.654H28.468v39.447h17.933v39.452H28.468v39.451h17.933v42.588H28.468
	v39.453h17.933v36.986H28.468v39.452h17.933v32.273H28.468v39.453h17.933v18.319h43.038v19.724h41.243v-19.724h34.072v19.724h41.243
	v-19.724h32.28v19.724h41.244v-19.724h35.638v19.724h41.247v-19.724h34.885v19.724h41.244v-19.724H460.7v19.724h41.242v-19.724
	h28.633v-18.319h17.928v-39.453h-17.928v-32.273h17.928v-25.999h76.102c0,0,0-159.585,0-212.777c0-36,10.398-50,48.898-50h173.09
	v-32.314v-5.099v-32.312H673.503z M279.522,615.997v-21.264c5.897,0.348,11.834,0.546,17.818,0.546s11.922-0.198,17.819-0.546
	v21.264H279.522z M548.503,1038.816h-17.928v-36.986h17.928V1038.816z M548.503,962.376h-17.928v-42.588h17.928V962.376z
	 M548.503,880.337h-17.928v-39.452h17.928V880.337z M548.503,801.438h-17.928v-42.654h17.928V801.438z M548.503,719.332h-17.928
	v-40.348h17.928V719.332z M530.575,639.533v-23.536h-28.633v-21.517H460.7v21.517h-28.165v-21.517h-41.244v21.517h-34.885v-21.517
	h-37.255c96.468-6.988,180.186-59.946,229.352-137.079v182.132H530.575z"/>
</svg>
