<?xml version="1.0" encoding="utf-8"?>
<!-- Generator: Adobe Illustrator 16.0.0, SVG Export Plug-In . SVG Version: 6.00 Build 0)  -->
<!DOCTYPE svg PUBLIC "-//W3C//DTD SVG 1.1//EN" "http://www.w3.org/Graphics/SVG/1.1/DTD/svg11.dtd">
<svg version="1.1" id="Calque_1" xmlns="http://www.w3.org/2000/svg" xmlns:xlink="http://www.w3.org/1999/xlink" x="0px" y="0px"
	 width="1190.551px" height="1190.551px" viewBox="0 0 1190.551 1190.551" enable-background="new 0 0 1190.551 1190.551"
	 xml:space="preserve">
<path fill="#010202" d="M620.534,594.766c-8.509,0-16.928,0.377-25.255,1.077v-75.808h-46.774v-17.93h23.534v-28.631h21.519v-41.244
	h-21.519v-28.165h21.519v-41.242h-21.519v-34.886h21.519v-41.247h-21.519v-35.638h21.519v-41.244h-21.519v-32.28h21.519v-41.242
	h-21.519v-34.071h21.519V60.97h-21.519V17.932h-23.534V0h-39.452v17.932h-40.349V0h-39.449v17.932h-42.654V0h-39.449v17.932H307.7V0
	h-39.451v17.932h-42.588V0h-39.453v17.932h-36.986V0h-39.451v17.932H77.496V0H38.043v17.932H19.724V60.97H0v41.245h19.724v34.071H0
	v41.242h19.724v32.28H0v41.244h19.724v35.638H0v41.247h19.724v34.886H0v41.242h19.724v28.165H0v41.244h19.724v28.631h18.319v17.93
	H-0.001v76.103c0,0,159.585,0,212.778,0c36,0,50,10.396,50,48.896v173.09h32.313h5.1h32.049c-6.1,23.744-9.345,48.634-9.345,74.281
	c0,164.383,133.258,297.641,297.64,297.641s297.64-133.258,297.64-297.641C918.174,728.024,784.916,594.766,620.534,594.766z
	 M468.704,502.106h40.349v17.93h-40.349V502.106z M386.601,502.106h42.654v17.93h-42.654V502.106z M77.496,520.035v-17.93h32.274
	v17.93H77.496z M149.222,520.035v-17.93h36.986v17.93H149.222z M225.661,520.035v-17.93h42.588v17.93H225.661z M307.7,502.106
	h39.451v17.93H307.7V502.106z M332.503,817.142V645.034h-0.001c0-38.5,14-48.896,50-48.896c48.654,0,186.312,0,209.454,0
	C466.353,608.106,363.519,698.117,332.503,817.142z"/>
</svg>
