<?xml version="1.0" encoding="utf-8"?>
<!-- Generator: Adobe Illustrator 16.0.0, SVG Export Plug-In . SVG Version: 6.00 Build 0)  -->
<!DOCTYPE svg PUBLIC "-//W3C//DTD SVG 1.1//EN" "http://www.w3.org/Graphics/SVG/1.1/DTD/svg11.dtd">
<svg version="1.1" id="Calque_1" xmlns="http://www.w3.org/2000/svg" xmlns:xlink="http://www.w3.org/1999/xlink" x="0px" y="0px"
	 width="1190.551px" height="1190.551px" viewBox="0 0 1190.551 1190.551" enable-background="new 0 0 1190.551 1190.551"
	 xml:space="preserve">
<g>
	<path fill="#010202" d="M125,856.337c-38.5,0-48.897-14-48.897-50c0-53.194,0-212.778,0-212.778H0V888.65v5.099v295.092h76.103
		c0,0,0-159.585,0-212.779c0-36,10.397-50,48.897-50h173.09v-32.314v-5.099v-23.942v-8.369L125,856.337z"/>
	<path fill="#010202" d="M595.73,567.066c-43.573,0-84.958,9.366-122.255,26.19v-19.421h28.631v-18.319h17.929v-39.453h-17.929
		v-32.274h17.929v-39.451h-17.929V407.35h17.929v-39.453h-17.929v-42.588h17.929v-39.451h-17.929v-39.452h17.929v-39.448h-17.929
		v-42.653h17.929v-39.451h-17.929V84.505h17.929V45.054h-17.929V21.518h-28.631V0h-41.244v21.518h-28.165V0h-41.243v21.518h-34.885
		V0h-41.247v21.518h-35.638V0h-41.244v21.518h-32.28V0h-41.242v21.518h-34.072V0H60.97v21.518H17.932v23.536H0v39.451h17.932v40.348
		H0v39.451h17.932v42.653H0v39.448h17.932v39.452H0v39.451h17.932v42.588H0v39.453h17.932v36.986H0v39.451h17.932v32.274H0v39.453
		h17.932v18.319H60.97v19.724h41.244v-19.724h34.072v19.724h41.242v-19.724h32.28v19.724h41.244v-19.724h35.638v19.724h41.247
		v-19.724h34.885v19.724h41.243v-19.724h28.165v19.724h40.582C369.76,640.348,298.09,744.156,298.09,864.705
		c0,164.383,133.258,297.641,297.64,297.641s297.64-133.258,297.64-297.641C893.369,700.323,760.112,567.066,595.73,567.066z"/>
</g>
</svg>
