<?xml version="1.0" encoding="utf-8"?>
<!-- Generator: Adobe Illustrator 16.0.0, SVG Export Plug-In . SVG Version: 6.00 Build 0)  -->
<!DOCTYPE svg PUBLIC "-//W3C//DTD SVG 1.1//EN" "http://www.w3.org/Graphics/SVG/1.1/DTD/svg11.dtd">
<svg version="1.1" id="Calque_1" xmlns="http://www.w3.org/2000/svg" xmlns:xlink="http://www.w3.org/1999/xlink" x="0px" y="0px"
	 width="1190.551px" height="1190.551px" viewBox="0 0 1190.551 1190.551" enable-background="new 0 0 1190.551 1190.551"
	 xml:space="preserve">
<path fill="#010202" d="M756.723,595.019c-8.51,0-16.928,0.377-25.256,1.077v-75.808h-46.773v-17.93h23.533v-28.631h21.52v-41.244
	h-21.52v-28.165h21.52v-41.242h-21.52v-34.886h21.52v-41.247h-21.52v-35.638h21.52v-41.244h-21.52v-32.28h21.52v-41.242h-21.52
	v-34.071h21.52V61.222h-21.52V18.185h-23.533V0.252h-39.451v17.932h-40.35V0.252h-39.449v17.932H522.79V0.252h-39.449v17.932
	h-39.451V0.252h-39.451v17.932H361.85V0.252h-39.453v17.932h-36.986V0.252H245.96v17.932h-32.274V0.252h-39.453v17.932h-18.319
	v43.038h-19.724v41.245h19.724v34.071h-19.724v41.242h19.724v32.28h-19.724v41.244h19.724v35.638h-19.724v41.247h19.724v34.886
	h-19.724v41.242h19.724v28.165h-19.724v41.244h19.724v28.631h18.319v17.93h-38.044v76.103c0,0,159.585,0,212.777,0
	c36,0,50,10.396,50,48.896v173.09h32.313h5.1h32.049c-6.1,23.744-9.345,48.633-9.345,74.281
	c0,164.383,133.258,297.641,297.64,297.641c164.383,0,297.641-133.258,297.641-297.641
	C1054.364,728.277,921.106,595.019,756.723,595.019z M604.893,502.358h40.35v17.93h-40.35V502.358z M522.79,502.358h42.654v17.93
	H522.79V502.358z M213.685,520.288v-17.93h32.273v17.93H213.685z M285.411,520.288v-17.93h36.986v17.93H285.411z M361.85,520.288
	v-17.93h42.588v17.93H361.85z M443.889,502.358h39.45v17.93h-39.45V502.358z M468.692,817.395V645.287h-0.001
	c0-38.5,14-48.896,50-48.896c48.653,0,186.311,0,209.454,0C602.541,608.359,499.708,698.369,468.692,817.395z"/>
</svg>
