<?xml version="1.0" encoding="utf-8"?>
<!-- Generator: Adobe Illustrator 16.0.0, SVG Export Plug-In . SVG Version: 6.00 Build 0)  -->
<!DOCTYPE svg PUBLIC "-//W3C//DTD SVG 1.1//EN" "http://www.w3.org/Graphics/SVG/1.1/DTD/svg11.dtd">
<svg version="1.1" id="Calque_1" xmlns="http://www.w3.org/2000/svg" xmlns:xlink="http://www.w3.org/1999/xlink" x="0px" y="0px"
	 width="1190.551px" height="1190.551px" viewBox="0 0 1190.551 1190.551" enable-background="new 0 0 1190.551 1190.551"
	 xml:space="preserve">
<g>
	<path fill="#010202" d="M503.323,712.688l11.595,15.959l33.367-24.244l-11.594-15.957l27.564-20.025l11.594,15.955l33.366-24.24
		l-11.595-15.957l26.114-18.975l11.596,15.957l33.366-24.24l-11.596-15.959l28.833-20.947l11.595,15.957l33.369-24.244
		l-11.596-15.957l28.226-20.505l11.593,15.957l33.368-24.242l-11.597-15.958l22.785-16.555l11.597,15.959l33.364-24.243
		l-11.593-15.957l23.162-16.83l-10.768-14.819l14.506-10.539l-23.19-31.919l-14.506,10.539l-18.971-26.111l14.506-10.539
		l-23.188-31.917l-14.507,10.54l-21.739-29.922l14.506-10.539l-23.189-31.919L739.16,286.79l-25.032-34.453l14.506-10.539
		l-23.188-31.918l-14.505,10.54l-23.189-31.917l14.505-10.54l-23.188-31.915l-14.506,10.54l-25.069-34.508l14.506-10.539
		L610.81,79.623l-14.506,10.539l-23.715-32.641l14.506-10.539l-23.188-31.917l-14.506,10.539L535.566,6.562l-23.162,16.829
		L499.755,5.983l-33.366,24.242l12.647,17.408l-22.785,16.555l-12.646-17.407l-33.367,24.241l12.647,17.408l-28.224,20.506
		l-12.647-17.409l-33.368,24.244l12.646,17.408l-28.832,20.948l-12.647-17.408l-33.367,24.242l12.647,17.408l-26.114,18.975
		l-12.647-17.409l-33.366,24.242l12.648,17.408l-27.565,20.026l-12.646-17.407l-33.369,24.242l12.648,17.408l-34.82,25.299
		l13.834,19.042l-14.506,10.539l23.188,31.916l14.506-10.539l23.717,32.641l-14.508,10.54l23.188,31.918l14.508-10.539
		l25.069,34.506l-14.506,10.54l23.188,31.915l14.506-10.541l23.189,31.918l-14.507,10.539l23.189,31.917l14.506-10.539
		l25.031,34.454l-14.506,10.539l2.423,3.335c-12.736-16.352-30.311-29.202-51.464-36.075
		c-56.374-18.317-117.142,12.646-135.458,69.02c-18.317,56.375,12.646,117.141,69.02,135.457
		c10.611,3.447,21.378,5.148,31.987,5.264c-20.743,0.678-41.5,7.344-59.519,20.434c-47.953,34.84-58.624,102.199-23.781,150.156
		c34.842,47.953,102.204,58.623,150.156,23.781c47.956-34.842,58.625-102.201,23.783-150.154
		c-20.814-28.648-53.235-43.984-86.191-44.266c44.062-1.361,84.637-29.957,99.024-74.232c10.662-32.818,4.62-67.123-13.409-93.677
		l16.621,22.876l14.507-10.539l21.738,29.922l-14.508,10.539l23.189,31.916l14.507-10.539l18.971,26.109l-14.506,10.541l23.19,31.92
		l14.506-10.541l10.768,14.82L503.323,712.688z"/>
	<polygon fill="#010202" points="904.526,770.291 953.72,618.889 738.315,548.899 669.706,760.061 532.71,715.721 459.941,939.682 
		589.753,981.859 547.233,1112.725 768.343,1184.568 833.573,983.805 977.845,1030.682 1047.371,816.705 	"/>
</g>
</svg>
