<?xml version="1.0" encoding="utf-8"?>
<!-- Generator: Adobe Illustrator 16.0.0, SVG Export Plug-In . SVG Version: 6.00 Build 0)  -->
<!DOCTYPE svg PUBLIC "-//W3C//DTD SVG 1.1//EN" "http://www.w3.org/Graphics/SVG/1.1/DTD/svg11.dtd">
<svg version="1.1" id="Calque_1" xmlns="http://www.w3.org/2000/svg" xmlns:xlink="http://www.w3.org/1999/xlink" x="0px" y="0px"
	 width="1190.551px" height="1190.551px" viewBox="0 0 1190.551 1190.551" enable-background="new 0 0 1190.551 1190.551"
	 xml:space="preserve">
<path fill="#010202" d="M770.718,732.308c17.586,12.547,39.092,19.936,62.293,19.936c59.273,0,107.5-48.224,107.5-107.5
	c0-59.274-48.222-107.5-107.5-107.5c-32.207,0-61.147,14.241-80.866,36.752v-17.622h17.93v-39.454h-17.93v-32.274h17.93v-39.451
	h-17.93v-36.985h17.93v-39.454h-17.93v-42.588h17.93v-39.452h-17.93v-39.452h17.93v-39.448h-17.93v-42.652h17.93v-39.452h-17.93
	V85.363h17.93V45.913h-17.93V22.375h-28.631V0.857H682.27v21.518h-28.164V0.857h-41.243v21.518h-34.886V0.857h-41.246v21.518
	h-35.638V0.857h-41.245v21.518h-32.279V0.857h-41.241v21.518h-34.072V0.857h-41.246v21.518h-43.038v23.537H250.04v39.451h17.931
	v40.347H250.04v39.452h17.931v42.652H250.04v39.448h17.931v39.452H250.04v39.452h17.931v42.587H250.04v39.454h17.931v36.985H250.04
	v39.451h17.931v32.274H250.04v39.454h17.931v18.318h43.038v19.725h41.245v-19.725h34.072v19.725h15.409V805.51H250.04v224.987
	h150.195v159.196h226.489v-114.65V967.665l107.494-0.12c-59.273,0.003-107.494,48.227-107.494,107.5
	c0,59.274,48.224,107.5,107.5,107.5s107.5-48.224,107.5-107.5c0-59.273-48.224-107.497-107.495-107.5l36.487-0.041L770.718,732.308
	L770.718,732.308z M427.569,594.417v-19.725h32.279v19.725H427.569z M501.093,594.417v-19.725h35.638v19.725H501.093z
	 M577.977,594.417v-19.725h34.886v19.725H577.977z M634.225,594.417h19.881v-19.725h28.164v19.725h41.244v-19.725h28.023
	c-16.212,18.829-26.026,43.315-26.026,70.052c0,35.897,17.688,67.736,44.806,87.271H634.225V594.417z"/>
</svg>
