<?xml version="1.0" encoding="utf-8"?>
<!-- Generator: Adobe Illustrator 16.0.0, SVG Export Plug-In . SVG Version: 6.00 Build 0)  -->
<!DOCTYPE svg PUBLIC "-//W3C//DTD SVG 1.1//EN" "http://www.w3.org/Graphics/SVG/1.1/DTD/svg11.dtd">
<svg version="1.1" id="Calque_1" xmlns="http://www.w3.org/2000/svg" xmlns:xlink="http://www.w3.org/1999/xlink" x="0px" y="0px"
	 width="1190.551px" height="1190.551px" viewBox="0 0 1190.551 1190.551" enable-background="new 0 0 1190.551 1190.551"
	 xml:space="preserve">
<g>
	<path fill="#010202" d="M0,1077.744c0,59.275,48.225,107.5,107.5,107.5c59.274,0,107.5-48.224,107.5-107.5
		c0-59.273-48.227-107.5-107.5-107.5C48.225,970.244,0,1018.471,0,1077.744z"/>
	<path fill="#010202" d="M694.492,637.757c0-59.276-48.225-107.501-107.5-107.501c-34.472,0-65.203,16.314-84.889,41.623v-23.375
		h17.931v-39.451h-17.931v-40.347h17.931v-39.452h-17.931v-42.652h17.931v-39.449h-17.931v-39.451h17.931v-39.452h-17.931v-42.587
		h17.931v-39.454h-17.931v-36.985h17.931v-39.451h-17.931V77.497h17.931V38.043h-17.931V19.725h-43.038V0h-41.245v19.725h-34.071V0
		h-41.243v19.725h-32.279V0h-41.244v19.725h-35.639V0h-41.246v19.725h-34.886V0h-41.243v19.725H87.805V0H46.561v19.725H17.93v18.318
		H0v39.454h17.93v32.274H0v39.451h17.93v36.985H0v39.454h17.93v42.587H0v39.452h17.93v39.451H0v39.449h17.93v42.652H0v39.452h17.93
		v40.347H0v39.451h17.93v23.537h28.631v21.518h41.244v-21.518h28.164v21.518h41.243v-21.518h34.886v21.518h-32.903v150.198H0
		v226.487h107.5h114.528l0.162,143.992H457.68V977.743h137.598V745.257h-8.285h-202.81V593.559h-0.434v-21.518h34.071v21.518h41.245
		v-21.518h42.914c-14.088,18.184-22.487,40.985-22.487,65.716c0,59.273,48.222,107.5,107.5,107.5
		C646.268,745.257,694.492,697.03,694.492,637.757z M233.344,593.559v-21.518h35.639v21.518H233.344z M310.227,593.559v-21.518
		h32.279v21.518H310.227z"/>
</g>
</svg>
