<?xml version="1.0" encoding="utf-8"?>
<!-- Generator: Adobe Illustrator 16.0.0, SVG Export Plug-In . SVG Version: 6.00 Build 0)  -->
<!DOCTYPE svg PUBLIC "-//W3C//DTD SVG 1.1//EN" "http://www.w3.org/Graphics/SVG/1.1/DTD/svg11.dtd">
<svg version="1.1" id="Calque_1" xmlns="http://www.w3.org/2000/svg" xmlns:xlink="http://www.w3.org/1999/xlink" x="0px" y="0px"
	 width="1190.551px" height="1190.551px" viewBox="0 0 1190.551 1190.551" enable-background="new 0 0 1190.551 1190.551"
	 xml:space="preserve">
<g>
	<path fill="#010202" d="M248.03,1080.397c0,59.275,48.225,107.5,107.5,107.5c59.273,0,107.5-48.225,107.5-107.5
		c0-59.273-48.228-107.5-107.5-107.5C296.255,972.897,248.03,1021.124,248.03,1080.397z"/>
	<path fill="#010202" d="M942.522,640.41c0-59.276-48.225-107.501-107.5-107.501c-34.473,0-65.203,16.314-84.889,41.623v-23.375
		h17.93v-39.451h-17.93v-40.347h17.93v-39.452h-17.93v-42.652h17.93v-39.449h-17.93v-39.451h17.93v-39.452h-17.93v-42.587h17.93
		v-39.454h-17.93v-36.985h17.93v-39.451h-17.93V80.15h17.93V40.696h-17.93V22.378h-43.039V2.653H665.85v19.725h-34.07V2.653h-41.244
		v19.725h-32.279V2.653h-41.244v19.725h-35.639V2.653h-41.246v19.725h-34.886V2.653h-41.243v19.725h-28.164V2.653h-41.244v19.725
		H265.96v18.318h-17.93V80.15h17.93v32.274h-17.93v39.451h17.93v36.985h-17.93v39.454h17.93v42.587h-17.93v39.452h17.93v39.451
		h-17.93v39.449h17.93v42.652h-17.93v39.452h17.93v40.347h-17.93v39.451h17.93v23.537h28.631v21.519h41.244v-21.519h28.164v21.519
		h41.243v-21.519h34.886v21.519h-32.903v150.197H248.03v226.487h107.5h114.527l0.162,143.992h235.49V980.396h137.598V747.91h-8.285
		H632.213V596.213h-0.434v-21.519h34.07v21.519h41.244v-21.519h42.914c-14.088,18.184-22.486,40.985-22.486,65.716
		c0,59.273,48.223,107.5,107.5,107.5C894.297,747.91,942.522,699.684,942.522,640.41z M481.374,596.213v-21.519h35.639v21.519
		H481.374z M558.257,596.213v-21.519h32.279v21.519H558.257z"/>
</g>
</svg>
