<?xml version="1.0" encoding="utf-8"?>
<!-- Generator: Adobe Illustrator 16.0.0, SVG Export Plug-In . SVG Version: 6.00 Build 0)  -->
<!DOCTYPE svg PUBLIC "-//W3C//DTD SVG 1.1//EN" "http://www.w3.org/Graphics/SVG/1.1/DTD/svg11.dtd">
<svg version="1.1" id="Calque_1" xmlns="http://www.w3.org/2000/svg" xmlns:xlink="http://www.w3.org/1999/xlink" x="0px" y="0px"
	 width="1190.551px" height="1190.551px" viewBox="0 0 1190.551 1190.551" enable-background="new 0 0 1190.551 1190.551"
	 xml:space="preserve">
<path fill="#010202" d="M614.885,215c59.275,0,107.5-48.227,107.5-107.5c0-59.275-48.225-107.5-107.5-107.5
	c-59.274,0-107.5,48.225-107.5,107.5c0,18.726,4.817,36.346,13.271,51.694H370.481V0H143.992v222.028L0,222.191V457.68h136.493
	v137.598h-26.722v17.931H77.497v-17.931H38.043v17.931H19.725v43.038H0v41.245h19.725v34.072H0v41.243h19.725v32.278H0v41.244
	h19.725v35.641H0v41.246h19.725v34.885H0v41.244h19.725v28.164H0v41.242h19.725v28.633h18.318v17.929h39.454v-17.929h32.274v17.929
	h39.451v-17.929h36.985v17.929h39.454v-17.929h42.587v17.929h39.452v-17.929h39.451v17.929h39.449v-17.929h42.653v17.929h39.45
	v-17.929h40.348v17.929h39.452v-17.929h23.536v-28.633h21.518v-41.242h-21.518v-28.164h21.518v-41.244h-21.518v-34.885h21.518
	V881.97h-21.518v-35.641h21.518v-41.244h-21.518v-32.278h21.518v-41.243h-21.518v-34.072h21.518v-41.245h-21.518v-43.038h-23.536
	v-17.915c0.132,0,0.263,0.005,0.395,0.005c59.275,0,107.5-48.227,107.5-107.5c0-59.275-48.225-107.5-107.5-107.5
	c-9.764,0-19.224,1.316-28.222,3.767V159.234C538.99,192.447,574.35,215,614.885,215z M186.208,613.208h-36.985v-17.931h36.985
	V613.208z M268.249,613.208h-42.587v-17.931h42.587V613.208z M347.153,613.208h-39.451v-17.931h39.451V613.208z M441.4,487.798
	c0,58.734,47.351,106.611,105.884,107.479h-38.23v17.931h-40.348v-17.931h-39.45v17.931h-42.653v-17.931h-17.621V384.183h151.262
	C474.835,396.757,441.4,438.444,441.4,487.798z"/>
</svg>
