<?xml version="1.0" encoding="utf-8"?>
<!-- Generator: Adobe Illustrator 16.0.0, SVG Export Plug-In . SVG Version: 6.00 Build 0)  -->
<!DOCTYPE svg PUBLIC "-//W3C//DTD SVG 1.1//EN" "http://www.w3.org/Graphics/SVG/1.1/DTD/svg11.dtd">
<svg version="1.1" id="Calque_1" xmlns="http://www.w3.org/2000/svg" xmlns:xlink="http://www.w3.org/1999/xlink" x="0px" y="0px"
	 width="1190.551px" height="1190.551px" viewBox="0 0 1190.551 1190.551" enable-background="new 0 0 1190.551 1190.551"
	 xml:space="preserve">
<path fill="#010202" d="M771.008,732.107c17.479,12.299,38.767,19.531,61.713,19.531c59.275,0,107.5-48.228,107.5-107.5
	c0-59.274-48.225-107.5-107.5-107.5c-31.895,0-60.583,13.966-80.287,36.098v-23.375h17.931v-39.451h-17.931v-40.347h17.931v-39.452
	h-17.931v-42.652h17.931v-39.449h-17.931V308.56h17.931v-39.452h-17.931v-42.587h17.931v-39.454h-17.931v-36.985h17.931V110.63
	h-17.931V78.354h17.931V38.9h-17.931V20.583h-43.038V0.857h-41.245v19.725h-34.07V0.857h-41.243v19.725h-32.279V0.857h-41.244
	v19.725h-35.639V0.857h-41.246v19.725h-34.886V0.857H366.3v19.725h-28.165V0.857h-41.244v19.725H268.26V38.9h-17.93v39.454h17.93
	v32.274h-17.93v39.451h17.93v36.985h-17.93v39.454h17.93v42.587h-17.93v39.452h17.93v39.451h-17.93v39.449h17.93v42.652h-17.93
	v39.452h17.93v40.347h-17.93v39.451h17.93v23.537h28.631v21.518h41.244v-21.518h28.164v21.518h35.728V805.51H250.33v224.987h150.195
	v159.196h226.489v-114.65V967.665l107.494-0.12c-59.272,0.003-107.494,48.226-107.494,107.5s48.226,107.5,107.5,107.5
	c59.276,0,107.5-48.226,107.5-107.5c0-59.273-48.221-107.497-107.495-107.5l36.487-0.041L771.008,732.107L771.008,732.107z
	 M407.542,594.417v-21.518h34.886v21.518H407.542z M483.674,594.417v-21.518h35.639v21.518H483.674z M560.557,594.417v-21.518
	h32.279v21.518H560.557z M634.079,594.417v-21.518h34.07v21.518h41.245v-21.518h42.896c-16.831,18.981-27.069,43.936-27.069,71.24
	c0,36.268,18.059,68.396,45.653,87.876H634.515V594.417H634.079z"/>
</svg>
