<?xml version="1.0" encoding="utf-8"?>
<!-- Generator: Adobe Illustrator 16.0.0, SVG Export Plug-In . SVG Version: 6.00 Build 0)  -->
<!DOCTYPE svg PUBLIC "-//W3C//DTD SVG 1.1//EN" "http://www.w3.org/Graphics/SVG/1.1/DTD/svg11.dtd">
<svg version="1.1" id="Calque_1" xmlns="http://www.w3.org/2000/svg" xmlns:xlink="http://www.w3.org/1999/xlink" x="0px" y="0px"
	 width="1190.551px" height="1190.551px" viewBox="0 0 1190.551 1190.551" enable-background="new 0 0 1190.551 1190.551"
	 xml:space="preserve">
<g>
	<path fill="#010202" d="M360.133,706.705l11.595,15.958l33.367-24.243l-11.594-15.958l27.565-20.025l11.594,15.956l33.366-24.241
		l-11.595-15.958l26.114-18.974l11.596,15.958l33.366-24.241l-11.595-15.959l28.833-20.947l11.594,15.957l33.369-24.244
		l-11.595-15.957l28.225-20.505l11.593,15.957l33.368-24.242l-11.596-15.958l22.785-16.555l11.596,15.959l33.365-24.243
		l-11.593-15.957l23.162-16.83l-10.768-14.819l14.506-10.539l-23.19-31.919l-14.506,10.539l-18.971-26.111l14.506-10.539
		l-23.188-31.917l-14.507,10.54l-21.739-29.922l14.506-10.539l-23.19-31.919l-14.506,10.539l-25.032-34.453l14.506-10.539
		l-23.189-31.918l-14.504,10.54l-23.19-31.917l14.505-10.54l-23.188-31.915l-14.505,10.54l-25.07-34.508l14.506-10.539
		L467.621,73.64l-14.506,10.539L429.4,51.538l14.506-10.539L420.717,9.082l-14.506,10.539L392.376,0.579l-23.162,16.829L356.566,0
		l-33.367,24.242l12.648,17.408l-22.785,16.555l-12.647-17.407l-33.367,24.241l12.648,17.408l-28.224,20.506l-12.648-17.409
		l-33.368,24.244l12.647,17.408l-28.832,20.948l-12.648-17.408l-33.367,24.242l12.648,17.408l-26.115,18.975l-12.647-17.409
		l-33.366,24.242l12.648,17.408l-27.565,20.026l-12.646-17.407l-33.369,24.242l12.648,17.408L0.672,285.17l13.834,19.042L0,314.751
		l23.189,31.916l14.506-10.539l23.716,32.641l-14.507,10.54l23.188,31.918l14.508-10.539l25.069,34.506l-14.506,10.54l23.188,31.915
		l14.506-10.541l23.189,31.918l-14.507,10.539l23.19,31.917l14.506-10.539l25.031,34.454l-14.506,10.539l2.423,3.335
		c-12.736-16.352-30.311-29.202-51.464-36.075c-56.374-18.317-117.142,12.646-135.458,69.02
		c-18.317,56.375,12.646,117.141,69.02,135.458c10.611,3.447,21.377,5.147,31.987,5.263c-20.743,0.678-41.5,7.343-59.519,20.434
		C-1.204,808.211-11.875,875.57,22.968,923.527c34.842,47.954,102.204,58.622,150.156,23.782
		c47.956-34.842,58.625-102.202,23.783-150.156c-20.814-28.648-53.235-43.984-86.191-44.265
		c44.063-1.361,84.637-29.956,99.024-74.233c10.663-32.818,4.621-67.122-13.409-93.676l16.621,22.876l14.507-10.539l21.738,29.921
		l-14.507,10.54l23.189,31.916l14.507-10.539l18.971,26.11l-14.506,10.541l23.19,31.919l14.506-10.541l10.768,14.82L360.133,706.705
		z"/>
	<polygon fill="#010202" points="761.336,764.309 810.531,612.906 595.126,542.916 526.517,754.077 389.521,709.737 
		316.751,933.698 446.564,975.876 404.043,1106.742 625.154,1178.585 690.384,977.822 834.656,1024.698 904.182,810.722 	"/>
</g>
</svg>
