<?xml version="1.0" encoding="utf-8"?>
<!-- Generator: Adobe Illustrator 16.0.0, SVG Export Plug-In . SVG Version: 6.00 Build 0)  -->
<!DOCTYPE svg PUBLIC "-//W3C//DTD SVG 1.1//EN" "http://www.w3.org/Graphics/SVG/1.1/DTD/svg11.dtd">
<svg version="1.1" id="Calque_1" xmlns="http://www.w3.org/2000/svg" xmlns:xlink="http://www.w3.org/1999/xlink" x="0px" y="0px"
	 width="1190.551px" height="1190.551px" viewBox="0 0 1190.551 1190.551" enable-background="new 0 0 1190.551 1190.551"
	 xml:space="preserve">
<g>
	<path fill="#010202" d="M717.584,1145.783c59.275,0,107.5-48.229,107.5-107.5c0-59.276-48.225-107.5-107.5-107.5
		s-107.5,48.224-107.5,107.5C610.084,1097.557,658.307,1145.783,717.584,1145.783z"/>
	<path fill="#010202" d="M849.653,538.766c-22.521,0-43.445,6.968-60.738,18.854v-17.897h18.32v-43.038h19.723V455.44h-19.723
		v-34.071h19.723v-41.243h-19.723v-32.279h19.723v-41.244h-19.723v-35.639h19.723v-41.246h-19.723v-34.886h19.723v-41.243h-19.723
		v-28.165h19.723V84.18h-19.723V55.549h-18.32v-17.93h-39.453v17.93h-32.275v-17.93h-39.449v17.93H640.75v-17.93h-39.453v17.93
		h-42.588v-17.93h-39.452v17.93h-39.452v-17.93h-39.447v17.93h-42.652v-17.93h-39.452v17.93h-40.348v-17.93h-39.451v17.93h-23.537
		V84.18h-21.518v41.244h21.518v28.164h-21.518v41.243h21.518v34.886h-21.518v41.246h21.518v35.639h-21.518v41.244h21.518v32.279
		h-21.518v41.243h21.518v34.071h-21.518v41.245h21.518v43.038h23.537v17.932h39.451v-17.932h40.347v17.932h26.844V768.75H233.399
		v224.986h150.195v159.195h226.49v-114.648V930.902l143.992-0.161v-235.3c17.879,34.608,54.006,58.325,95.576,58.325
		c59.273,0,107.5-48.227,107.5-107.5C957.153,586.99,908.928,538.766,849.653,538.766z M397.704,557.654v-17.932h42.652v17.932
		H397.704z M479.804,557.654v-17.932h39.452v17.932H479.804z M558.709,557.654v-17.932h42.586v17.932H558.709z M617.584,695.253
		V557.654h23.166v-17.932h36.986v17.932h39.447v-17.932h32.275v17.932h39.404c-28.189,19.399-46.711,51.881-46.711,88.611
		c0,17.634,4.27,34.287,11.824,48.986L617.584,695.253L617.584,695.253z"/>
</g>
</svg>
