<?xml version="1.0" encoding="utf-8"?>
<!-- Generator: Adobe Illustrator 16.0.0, SVG Export Plug-In . SVG Version: 6.00 Build 0)  -->
<!DOCTYPE svg PUBLIC "-//W3C//DTD SVG 1.1//EN" "http://www.w3.org/Graphics/SVG/1.1/DTD/svg11.dtd">
<svg version="1.1" id="Calque_1" xmlns="http://www.w3.org/2000/svg" xmlns:xlink="http://www.w3.org/1999/xlink" x="0px" y="0px"
	 width="1190.551px" height="1190.551px" viewBox="0 0 1190.551 1190.551" enable-background="new 0 0 1190.551 1190.551"
	 xml:space="preserve">
<g>
	<path fill="#010202" d="M708.237,1045.915V895.717h159.195V669.229H645.405l-0.162-143.991h34.264v-17.932h36.986v17.932h39.448
		v-17.932h32.275v17.932h39.454v-17.932h18.319v-43.038h19.724v-41.245H845.99v-34.071h19.724v-41.243H845.99v-32.279h19.724
		v-41.244H845.99v-35.639h19.724V197.3H845.99v-34.886h19.724v-41.243H845.99V93.006h19.724V51.762H845.99V23.131H827.67V5.201
		h-39.454v17.93h-32.275V5.201h-39.448v17.93h-36.986V5.201h-39.454v17.93h-42.587V5.201h-39.452v17.93h-39.452V5.201h-39.447v17.93
		h-42.652V5.201h-39.452v17.93h-40.348V5.201H317.21v17.93h-23.537v28.631h-21.518v41.244h21.518v28.164h-21.518v41.243h21.518
		v34.886h-21.518v41.246h21.518v35.639h-21.518v41.244h21.518v32.279h-21.518v41.243h21.518v34.071h-21.518v41.245h21.518v43.038
		h23.537v17.932h39.451v-17.932h40.347v17.932h12.746v136.492H272.156v232.487H483.25v151.266
		c-12.599-45.369-54.269-78.768-103.595-78.768c-59.274,0-107.5,48.225-107.5,107.5c0,59.273,48.225,107.5,107.5,107.5
		c59.273,0,107.5-48.228,107.5-107.5c0-9.792-1.323-19.278-3.788-28.3L708.237,1045.915L708.237,1045.915z M597.465,507.305h42.587
		v17.932h-42.587V507.305z M518.561,507.305h39.452v17.932h-39.452V507.305z M436.46,525.236v-17.932h42.652v17.932H436.46z"/>
	<path fill="#010202" d="M810.896,970.351c-59.272,0-107.5,48.221-107.5,107.499c0,59.273,48.229,107.5,107.5,107.5
		c59.276,0,107.5-48.227,107.5-107.5C918.396,1018.575,870.173,970.351,810.896,970.351z"/>
</g>
</svg>
