<?xml version="1.0" encoding="utf-8"?>
<!-- Generator: Adobe Illustrator 16.0.0, SVG Export Plug-In . SVG Version: 6.00 Build 0)  -->
<!DOCTYPE svg PUBLIC "-//W3C//DTD SVG 1.1//EN" "http://www.w3.org/Graphics/SVG/1.1/DTD/svg11.dtd">
<svg version="1.1" id="Calque_1" xmlns="http://www.w3.org/2000/svg" xmlns:xlink="http://www.w3.org/1999/xlink" x="0px" y="0px"
	 width="1190.551px" height="1190.551px" viewBox="0 0 1190.551 1190.551" enable-background="new 0 0 1190.551 1190.551"
	 xml:space="preserve">
<g>
	<path fill="#010202" d="M436.082,1040.714V890.516h159.195V664.027H373.249l-0.162-143.991h34.264v-17.932h36.986v17.932h39.449
		v-17.932h32.275v17.932h39.454v-17.932h18.319v-43.038h19.724v-41.245h-19.724v-34.071h19.724v-41.243h-19.724v-32.279h19.724
		v-41.244h-19.724v-35.639h19.724v-41.246h-19.724v-34.886h19.724v-41.243h-19.724V87.805h19.724V46.561h-19.724V17.93h-18.319V0
		h-39.454v17.93h-32.275V0h-39.449v17.93h-36.986V0h-39.454v17.93H325.31V0h-39.452v17.93h-39.452V0h-39.448v17.93h-42.652V0
		h-39.452v17.93H84.506V0H45.055v17.93H21.518v28.631H0v41.244h21.518v28.164H0v41.243h21.518v34.886H0v41.246h21.518v35.639H0
		v41.244h21.518v32.279H0v41.243h21.518v34.071H0v41.245h21.518v43.038h23.537v17.932h39.451v-17.932h40.347v17.932h12.746v136.492
		H0v232.488h211.095v151.265c-12.599-45.369-54.269-78.767-103.595-78.767c-59.274,0-107.5,48.224-107.5,107.5
		c0,59.273,48.225,107.5,107.5,107.5c59.274,0,107.5-48.228,107.5-107.5c0-9.792-1.323-19.279-3.788-28.3H436.082z M325.31,502.104
		h42.587v17.932H325.31V502.104z M246.406,502.104h39.452v17.932h-39.452V502.104z M164.305,520.035v-17.932h42.652v17.932H164.305z
		"/>
	<path fill="#010202" d="M538.741,965.149c-59.273,0-107.5,48.221-107.5,107.5c0,59.273,48.228,107.5,107.5,107.5
		c59.276,0,107.5-48.227,107.5-107.5C646.241,1013.374,598.018,965.149,538.741,965.149z"/>
</g>
</svg>
