<?xml version="1.0" encoding="utf-8"?>
<!-- Generator: Adobe Illustrator 16.0.0, SVG Export Plug-In . SVG Version: 6.00 Build 0)  -->
<!DOCTYPE svg PUBLIC "-//W3C//DTD SVG 1.1//EN" "http://www.w3.org/Graphics/SVG/1.1/DTD/svg11.dtd">
<svg version="1.1" id="Calque_1" xmlns="http://www.w3.org/2000/svg" xmlns:xlink="http://www.w3.org/1999/xlink" x="0px" y="0px"
	 width="1190.551px" height="1190.551px" viewBox="0 0 1190.551 1190.551" enable-background="new 0 0 1190.551 1190.551"
	 xml:space="preserve">
<g>
	<path fill="#010202" d="M778.035,752.875c14.372,7.139,30.553,11.161,47.658,11.161c59.275,0,107.5-48.222,107.5-107.5
		c0-59.273-48.228-107.499-107.5-107.499c-24.964,0-47.967,8.554-66.232,22.884v-23.417h17.931v-39.451h-17.931v-40.347h17.931
		v-39.452h-17.931v-42.652h17.931v-39.449h-17.931v-39.451h17.931V268.25h-17.931v-42.587h17.931v-39.454h-17.931v-36.985h17.931
		v-39.451h-17.931V77.497h17.931V38.043h-17.931V19.725h-43.038V0h-41.245v19.725h-34.07V0h-41.243v19.725h-32.279V0h-41.244v19.725
		h-35.639V0h-41.246v19.725h-34.886V0h-41.243v19.725h-28.165V0h-41.244v19.725h-28.631v18.318h-17.93v39.454h17.93v32.274h-17.93
		v39.451h17.93v36.985h-17.93v39.454h17.93v42.587h-17.93V307.7h17.93v39.451h-17.93V386.6h17.93v42.652h-17.93v39.452h17.93v40.347
		h-17.93v39.451h17.93v23.537h28.631v21.518h41.244v-21.518h28.164v21.518h28.023v222.028l-143.992,0.164v235.488h136.493v137.6
		h232.486V977.741h151.697L778.035,752.875L778.035,752.875z M414.57,593.559v-21.518h34.886v21.518H414.57z M490.701,593.559
		v-21.518h35.639v21.518H490.701z M567.584,593.559v-21.518h32.279v21.518H567.584z M627.838,593.559h13.27v-21.518h34.07v21.518
		h41.245v-21.518h42.884c-25.02,19.7-41.113,50.254-41.113,84.495c0,42.072,24.299,78.571,59.597,96.217H627.838V593.559z"/>
	<path fill="#010202" d="M799.687,975.551c-59.274,0-107.5,48.227-107.5,107.5c0,59.274,48.226,107.5,107.5,107.5
		c59.275,0,107.5-48.226,107.5-107.5C907.187,1023.775,858.965,975.551,799.687,975.551z"/>
</g>
</svg>
