<?xml version="1.0" encoding="utf-8"?>
<!-- Generator: Adobe Illustrator 16.0.0, SVG Export Plug-In . SVG Version: 6.00 Build 0)  -->
<!DOCTYPE svg PUBLIC "-//W3C//DTD SVG 1.1//EN" "http://www.w3.org/Graphics/SVG/1.1/DTD/svg11.dtd">
<svg version="1.1" id="Calque_1" xmlns="http://www.w3.org/2000/svg" xmlns:xlink="http://www.w3.org/1999/xlink" x="0px" y="0px"
	 width="1190.551px" height="1190.551px" viewBox="0 0 1190.551 1190.551" enable-background="new 0 0 1190.551 1190.551"
	 xml:space="preserve">
<g>
	<path fill="#010202" d="M471.243,531.657h39.383v-17.932h39.452v17.932h39.452v-17.932h42.587v17.932h39.453v-17.932h36.986v17.932
		h39.449v-17.932h32.275v17.932h39.453v-17.932h18.32v-43.038h19.723v-41.245h-19.723v-34.071h19.723v-41.243h-19.723v-32.279
		h19.723v-41.244h-19.723v-35.639h19.723V203.72h-19.723v-34.886h19.723v-41.243h-19.723V99.427h19.723V58.183h-19.723V29.552
		h-18.32v-17.93h-39.453v17.93h-32.275v-17.93h-39.449v17.93h-36.986v-17.93h-39.453v17.93H589.53v-17.93h-39.452v17.93h-39.452
		v-17.93h-39.447v17.93h-42.652v-17.93h-39.452v17.93h-40.348v-17.93h-39.451v17.93h-23.537v28.631H264.22v41.244h21.518v28.164
		H264.22v41.243h21.518v34.886H264.22v41.246h21.518v35.639H264.22v41.244h21.518v32.279H264.22v41.243h21.518v34.071H264.22v41.245
		h21.518v43.038h23.537v17.932h39.451v-17.932h40.347v17.932h39.387c-49.062,9.946-86.107,53.406-86.107,105.358
		c0,59.274,48.225,107.5,107.5,107.5c59.273,0,107.5-48.228,107.5-107.5C557.351,585.064,520.304,541.603,471.243,531.657z
		 M428.525,513.726h42.652v17.919c-6.896-1.393-14.026-2.128-21.326-2.128s-14.431,0.735-21.326,2.128V513.726z"/>
	<path fill="#010202" d="M789.838,671.021v-137.6H557.351v103.595v107.502H405.654v224.902c-10.671-3.56-22.079-5.492-33.931-5.492
		c-59.273,0-107.5,48.227-107.5,107.5c0,59.275,48.222,107.5,107.5,107.5c59.273,0,107.5-48.226,107.5-107.5
		c0-47.328-30.747-87.608-73.312-101.925h149.94v159.195h226.487V906.67l143.992-0.162V671.021H789.838z"/>
</g>
</svg>
