<?xml version="1.0" encoding="utf-8"?>
<!-- Generator: Adobe Illustrator 16.0.0, SVG Export Plug-In . SVG Version: 6.00 Build 0)  -->
<!DOCTYPE svg PUBLIC "-//W3C//DTD SVG 1.1//EN" "http://www.w3.org/Graphics/SVG/1.1/DTD/svg11.dtd">
<svg version="1.1" id="Calque_1" xmlns="http://www.w3.org/2000/svg" xmlns:xlink="http://www.w3.org/1999/xlink" x="0px" y="0px"
	 width="1190.551px" height="1190.551px" viewBox="0 0 1190.551 1190.551" enable-background="new 0 0 1190.551 1190.551"
	 xml:space="preserve">
<g>
	<path fill="#010202" d="M484.186,1108.164c59.275,0,107.5-48.228,107.5-107.5c0-59.276-48.225-107.5-107.5-107.5
		s-107.5,48.224-107.5,107.5C376.686,1059.938,424.909,1108.164,484.186,1108.164z"/>
	<path fill="#010202" d="M616.254,501.147c-22.522,0-43.445,6.968-60.738,18.854v-17.897h18.319v-43.038h19.724v-41.245h-19.724
		v-34.071h19.724v-41.243h-19.724v-32.279h19.724v-41.244h-19.724v-35.639h19.724v-41.246h-19.724v-34.886h19.724v-41.243h-19.724
		V87.805h19.724V46.561h-19.724V17.93h-18.319V0h-39.454v17.93h-32.275V0h-39.449v17.93h-36.986V0h-39.454v17.93H325.31V0h-39.452
		v17.93h-39.452V0h-39.448v17.93h-42.652V0h-39.452v17.93H84.506V0H45.055v17.93H21.518v28.631H0v41.244h21.518v28.164H0v41.243
		h21.518v34.886H0v41.246h21.518v35.639H0v41.244h21.518v32.279H0v41.243h21.518v34.071H0v41.245h21.518v43.038h23.537v17.932
		h39.451v-17.932h40.347v17.932h26.844v211.096H0v224.986h150.196v159.195h226.489v-114.648V893.283l143.992-0.161V657.822
		c17.879,34.609,54.007,58.325,95.576,58.325c59.274,0,107.5-48.226,107.5-107.5C723.754,549.371,675.529,501.147,616.254,501.147z
		 M164.305,520.035v-17.932h42.652v17.932H164.305z M246.406,520.035v-17.932h39.452v17.932H246.406z M325.31,520.035v-17.932
		h42.587v17.932H325.31z M384.185,657.634V520.035h23.166v-17.932h36.986v17.932h39.449v-17.932h32.275v17.932h39.404
		c-28.189,19.399-46.711,51.881-46.711,88.611c0,17.634,4.269,34.288,11.825,48.987H384.185z"/>
</g>
</svg>
