<?xml version="1.0" encoding="utf-8"?>
<!-- Generator: Adobe Illustrator 16.0.0, SVG Export Plug-In . SVG Version: 6.00 Build 0)  -->
<!DOCTYPE svg PUBLIC "-//W3C//DTD SVG 1.1//EN" "http://www.w3.org/Graphics/SVG/1.1/DTD/svg11.dtd">
<svg version="1.1" id="Calque_1" xmlns="http://www.w3.org/2000/svg" xmlns:xlink="http://www.w3.org/1999/xlink" x="0px" y="0px"
	 width="1190.551px" height="1190.551px" viewBox="0 0 1190.551 1190.551" enable-background="new 0 0 1190.551 1190.551"
	 xml:space="preserve">
<g>
	<path fill="#010202" d="M368.981,1011.719c0,59.273,48.227,107.5,107.5,107.5c59.276,0,107.5-48.227,107.5-107.5
		c0-59.275-48.224-107.5-107.5-107.5C417.206,904.219,368.981,952.442,368.981,1011.719z"/>
	<path fill="#010202" d="M604.261,504.271c-20.399,0-39.489,5.712-55.756,15.62v-17.786h23.536v-28.631h21.518V432.23h-21.518
		v-28.164h21.518v-41.242h-21.518v-34.887h21.518v-41.246h-21.518v-35.639h21.518v-41.244h-21.518v-32.279h21.518v-41.242h-21.518
		v-34.071h21.518V60.969h-21.518V17.931h-23.536V0h-39.452v17.931h-40.348V0h-39.45v17.931h-42.653V0h-39.449v17.931h-39.451V0
		h-39.452v17.931h-42.587V0h-39.454v17.931h-36.985V0h-39.451v17.931H77.497V0H38.043v17.931H19.725v43.038H0v41.246h19.725v34.071
		H0v41.242h19.725v32.279H0v41.244h19.725v35.639H0v41.246h19.725v34.887H0v41.242h19.725v28.164H0v41.244h19.725v28.631h18.318
		v17.931h39.454v-17.931h32.274v17.931h34.221v222.028L0,742.226v235.489h136.493v137.598h232.487v-103.594v-107.5h107.5h44.197
		V679.29c19.724,24.368,49.861,39.979,83.583,39.979c59.275,0,107.5-48.226,107.5-107.5S663.536,504.271,604.261,504.271z
		 M149.223,520.035v-17.931h36.985v17.931H149.223z M225.662,520.035v-17.931h42.587v17.931H225.662z M307.701,520.035v-17.931
		h39.451v17.931H307.701z M370.481,679.23V520.035h16.121v-17.931h42.653v17.931h39.45v-17.931h40.348v17.931h39.221
		c-30.871,18.911-51.513,52.957-51.513,91.734c0,25.527,8.949,49.001,23.868,67.46H370.481z"/>
</g>
</svg>
