<?xml version="1.0" encoding="utf-8"?>
<!-- Generator: Adobe Illustrator 16.0.0, SVG Export Plug-In . SVG Version: 6.00 Build 0)  -->
<!DOCTYPE svg PUBLIC "-//W3C//DTD SVG 1.1//EN" "http://www.w3.org/Graphics/SVG/1.1/DTD/svg11.dtd">
<svg version="1.1" id="Calque_1" xmlns="http://www.w3.org/2000/svg" xmlns:xlink="http://www.w3.org/1999/xlink" x="0px" y="0px"
	 width="1190.551px" height="1190.551px" viewBox="0 0 1190.551 1190.551" enable-background="new 0 0 1190.551 1190.551"
	 xml:space="preserve">
<g>
	<path fill="#010202" d="M608.376,1047.385c0,59.273,48.228,107.5,107.5,107.5c59.276,0,107.5-48.227,107.5-107.5
		c0-59.274-48.224-107.5-107.5-107.5C656.602,939.885,608.376,988.108,608.376,1047.385z"/>
	<path fill="#010202" d="M843.656,539.937c-20.399,0-39.489,5.712-55.756,15.62v-17.786h23.536V509.14h21.518v-41.244h-21.518
		v-28.164h21.518V398.49h-21.518v-34.887h21.518v-41.246h-21.518v-35.639h21.518v-41.244h-21.518v-32.279h21.518v-41.242h-21.518
		v-34.071h21.518V96.635h-21.518V53.597h-23.536V35.666h-39.452v17.931H708.1V35.666h-39.449v17.931h-42.653V35.666h-39.449v17.931
		h-39.45V35.666h-39.452v17.931h-42.587V35.666h-39.454v17.931h-36.985V35.666h-39.451v17.931h-32.275V35.666h-39.454v17.931H259.12
		v43.038h-19.725v41.246h19.725v34.071h-19.725v41.242h19.725v32.279h-19.725v41.244h19.725v35.639h-19.725v41.246h19.725v34.887
		h-19.725v41.242h19.725v28.164h-19.725v41.244h19.725v28.631h18.318v17.931h39.454V537.77h32.273v17.931h34.222v222.028
		l-143.992,0.162v235.489h136.493v137.598h232.486v-103.594v-107.5h107.5h44.197V714.956c19.724,24.368,49.86,39.979,83.583,39.979
		c59.274,0,107.5-48.226,107.5-107.5C951.156,588.161,902.931,539.937,843.656,539.937z M388.618,555.701V537.77h36.985v17.931
		H388.618z M465.058,555.701V537.77h42.587v17.931H465.058z M547.097,555.701V537.77h39.45v17.931H547.097z M609.876,714.896
		V555.701h16.121V537.77h42.653v17.931H708.1V537.77h40.349v17.931h39.221c-30.871,18.911-51.513,52.957-51.513,91.733
		c0,25.527,8.949,49.001,23.868,67.46H609.876V714.896z"/>
</g>
</svg>
