<?xml version="1.0" encoding="utf-8"?>
<!-- Generator: Adobe Illustrator 16.0.0, SVG Export Plug-In . SVG Version: 6.00 Build 0)  -->
<!DOCTYPE svg PUBLIC "-//W3C//DTD SVG 1.1//EN" "http://www.w3.org/Graphics/SVG/1.1/DTD/svg11.dtd">
<svg version="1.1" id="Calque_1" xmlns="http://www.w3.org/2000/svg" xmlns:xlink="http://www.w3.org/1999/xlink" x="0px" y="0px"
	 width="1190.551px" height="1190.551px" viewBox="0 0 1190.551 1190.551" enable-background="new 0 0 1190.551 1190.551"
	 xml:space="preserve">
<g>
	<path fill="#010202" d="M207.023,520.035h39.383v-17.932h39.452v17.932h39.452v-17.932h42.587v17.932h39.454v-17.932h36.986v17.932
		h39.449v-17.932h32.275v17.932h39.454v-17.932h18.319v-43.038h19.724v-41.245h-19.724v-34.071h19.724v-41.243h-19.724v-32.279
		h19.724v-41.244h-19.724v-35.639h19.724v-41.246h-19.724v-34.886h19.724v-41.243h-19.724V87.805h19.724V46.561h-19.724V17.93
		h-18.319V0h-39.454v17.93h-32.275V0h-39.449v17.93h-36.986V0h-39.454v17.93H325.31V0h-39.452v17.93h-39.452V0h-39.448v17.93
		h-42.652V0h-39.452v17.93H84.506V0H45.055v17.93H21.518v28.631H0v41.244h21.518v28.164H0v41.243h21.518v34.886H0v41.246h21.518
		v35.639H0v41.244h21.518v32.279H0v41.243h21.518v34.071H0v41.245h21.518v43.038h23.537v17.932h39.451v-17.932h40.347v17.932h39.387
		c-49.062,9.946-86.108,53.406-86.108,105.359c0,59.274,48.225,107.5,107.5,107.5c59.274,0,107.5-48.228,107.5-107.5
		C293.131,573.442,256.084,529.981,207.023,520.035z M164.305,502.104h42.652v17.919c-6.896-1.393-14.026-2.128-21.326-2.128
		s-14.431,0.735-21.326,2.128V502.104z"/>
	<path fill="#010202" d="M525.618,659.399V521.8H293.131v103.595v107.501H141.434v224.903c-10.671-3.56-22.079-5.492-33.931-5.492
		c-59.273,0-107.5,48.226-107.5,107.5c0,59.275,48.222,107.5,107.5,107.5c59.274,0,107.5-48.226,107.5-107.5
		c0-47.328-30.747-87.609-73.312-101.925h149.94v159.195h226.488V895.048l143.992-0.162V659.399H525.618z"/>
</g>
</svg>
