<?xml version="1.0" encoding="utf-8"?>
<!-- Generator: Adobe Illustrator 16.0.0, SVG Export Plug-In . SVG Version: 6.00 Build 0)  -->
<!DOCTYPE svg PUBLIC "-//W3C//DTD SVG 1.1//EN" "http://www.w3.org/Graphics/SVG/1.1/DTD/svg11.dtd">
<svg version="1.1" id="Calque_1" xmlns="http://www.w3.org/2000/svg" xmlns:xlink="http://www.w3.org/1999/xlink" x="0px" y="0px"
	 width="1190.551px" height="1190.551px" viewBox="0 0 1190.551 1190.551" enable-background="new 0 0 1190.551 1190.551"
	 xml:space="preserve">
<path fill="#010202" d="M520.678,731.25c17.479,12.299,38.767,19.531,61.713,19.531c59.276,0,107.5-48.227,107.5-107.5
	c0-59.274-48.224-107.5-107.5-107.5c-31.894,0-60.583,13.966-80.287,36.098v-23.375h17.931v-39.451h-17.931v-40.347h17.931v-39.452
	h-17.931v-42.652h17.931v-39.449h-17.931v-39.451h17.931v-39.452h-17.931v-42.587h17.931v-39.454h-17.931v-36.985h17.931v-39.451
	h-17.931V77.497h17.931V38.043h-17.931V19.725h-43.038V0h-41.245v19.725h-34.071V0h-41.243v19.725h-32.279V0h-41.244v19.725h-35.639
	V0h-41.246v19.725h-34.886V0h-41.243v19.725H87.805V0H46.561v19.725H17.93v18.318H0v39.454h17.93v32.274H0v39.451h17.93v36.985H0
	v39.454h17.93v42.587H0v39.452h17.93v39.451H0v39.449h17.93v42.652H0v39.452h17.93v40.347H0v39.451h17.93v23.537h28.631v21.518
	h41.244v-21.518h28.164v21.518h35.728v211.095H0v224.988h150.196v159.196h226.489v-114.651V966.808l107.494-0.121
	c-59.272,0.003-107.494,48.226-107.494,107.5c0,59.275,48.226,107.5,107.5,107.5c59.276,0,107.5-48.225,107.5-107.5
	c0-59.273-48.221-107.497-107.495-107.5l36.487-0.041V731.25z M157.212,593.559v-21.518h34.886v21.518H157.212z M233.344,593.559
	v-21.518h35.639v21.518H233.344z M310.227,593.559v-21.518h32.279v21.518H310.227z M383.749,593.559v-21.518h34.071v21.518h41.245
	v-21.518h42.895c-16.831,18.981-27.069,43.936-27.069,71.24c0,36.268,18.059,68.396,45.653,87.876H384.185V593.559H383.749z"/>
</svg>
