<?xml version="1.0" encoding="utf-8"?>
<!-- Generator: Adobe Illustrator 16.0.0, SVG Export Plug-In . SVG Version: 6.00 Build 0)  -->
<!DOCTYPE svg PUBLIC "-//W3C//DTD SVG 1.1//EN" "http://www.w3.org/Graphics/SVG/1.1/DTD/svg11.dtd">
<svg version="1.1" id="Calque_1" xmlns="http://www.w3.org/2000/svg" xmlns:xlink="http://www.w3.org/1999/xlink" x="0px" y="0px"
	 width="1190.551px" height="1190.551px" viewBox="0 0 1190.551 1190.551" enable-background="new 0 0 1190.551 1190.551"
	 xml:space="preserve">
<path fill="#010202" d="M848.968,252.619c59.274,0,107.5-48.227,107.5-107.5c0-59.275-48.226-107.5-107.5-107.5
	s-107.5,48.225-107.5,107.5c0,18.726,4.816,36.346,13.271,51.694H604.564V37.619H378.075v222.028l-143.992,0.163v235.489h136.493
	v137.597h-26.723v17.932H311.58v-17.932h-39.454v17.932h-18.318v43.038h-19.725v41.245h19.725v34.072h-19.725v41.242h19.725v32.278
	h-19.725v41.244h19.725v35.641h-19.725v41.246h19.725v34.885h-19.725v41.244h19.725v28.164h-19.725v41.242h19.725v28.633h18.318
	v17.929h39.454v-17.929h32.273v17.929h39.451v-17.929h36.985v17.929h39.454v-17.929h42.587v17.929h39.452v-17.929h39.45v17.929
	h39.449v-17.929h42.653v17.929h39.449v-17.929h40.349v17.929h39.452v-17.929h23.535v-28.633h21.519v-41.242h-21.519v-28.164h21.519
	V995.72h-21.519v-34.885h21.519v-41.246h-21.519v-35.641h21.519v-41.244h-21.519v-32.278h21.519v-41.242h-21.519v-34.072h21.519
	v-41.245h-21.519v-43.038h-23.535v-17.915c0.132,0,0.263,0.005,0.395,0.005c59.275,0,107.5-48.227,107.5-107.5
	c0-59.275-48.225-107.5-107.5-107.5c-9.764,0-19.224,1.316-28.222,3.767V196.853C773.073,230.066,808.433,252.619,848.968,252.619z
	 M420.291,650.827h-36.985v-17.931h36.985V650.827z M502.332,650.827h-42.587v-17.931h42.587V650.827z M581.236,650.827h-39.45
	v-17.931h39.45V650.827z M675.483,525.417c0,58.734,47.352,106.611,105.884,107.479h-38.229v17.931h-40.349v-17.931h-39.449v17.931
	h-42.653v-17.931h-17.621V421.802h151.262C708.918,434.376,675.483,476.063,675.483,525.417z"/>
</svg>
