<?xml version="1.0" encoding="utf-8"?>
<!-- Generator: Adobe Illustrator 16.0.0, SVG Export Plug-In . SVG Version: 6.00 Build 0)  -->
<!DOCTYPE svg PUBLIC "-//W3C//DTD SVG 1.1//EN" "http://www.w3.org/Graphics/SVG/1.1/DTD/svg11.dtd">
<svg version="1.1" id="Calque_1" xmlns="http://www.w3.org/2000/svg" xmlns:xlink="http://www.w3.org/1999/xlink" x="0px" y="0px"
	 width="1190.551px" height="1190.551px" viewBox="0 0 1190.551 1190.551" enable-background="new 0 0 1190.551 1190.551"
	 xml:space="preserve">
<g>
	<path fill="#010202" d="M520.678,752.875c14.372,7.139,30.553,11.161,47.658,11.161c59.276,0,107.5-48.222,107.5-107.5
		c0-59.273-48.227-107.499-107.5-107.499c-24.963,0-47.966,8.554-66.232,22.884v-23.417h17.931v-39.451h-17.931v-40.347h17.931
		v-39.452h-17.931v-42.652h17.931v-39.449h-17.931v-39.451h17.931v-39.452h-17.931v-42.587h17.931v-39.454h-17.931v-36.985h17.931
		v-39.451h-17.931V77.497h17.931V38.043h-17.931V19.725h-43.038V0h-41.245v19.725h-34.071V0h-41.243v19.725h-32.279V0h-41.244
		v19.725h-35.639V0h-41.246v19.725h-34.886V0h-41.243v19.725H87.805V0H46.561v19.725H17.93v18.318H0v39.454h17.93v32.274H0v39.451
		h17.93v36.985H0v39.454h17.93v42.587H0v39.452h17.93v39.451H0v39.449h17.93v42.652H0v39.452h17.93v40.347H0v39.451h17.93v23.537
		h28.631v21.518h41.244v-21.518h28.164v21.518h28.023v222.028L0,815.749v235.488h136.493v137.6h232.487V977.741h151.697V752.875z
		 M157.212,593.559v-21.518h34.886v21.518H157.212z M233.344,593.559v-21.518h35.639v21.518H233.344z M310.227,593.559v-21.518
		h32.279v21.518H310.227z M370.481,593.559h13.269v-21.518h34.071v21.518h41.245v-21.518h42.884
		c-25.02,19.7-41.114,50.254-41.114,84.495c0,42.072,24.299,78.571,59.597,96.217H370.481V593.559z"/>
	<path fill="#010202" d="M542.33,975.551c-59.275,0-107.5,48.226-107.5,107.5s48.225,107.5,107.5,107.5s107.5-48.226,107.5-107.5
		C649.83,1023.775,601.608,975.551,542.33,975.551z"/>
</g>
</svg>
