<?xml version="1.0" encoding="utf-8"?>
<!-- Generator: Adobe Illustrator 16.0.0, SVG Export Plug-In . SVG Version: 6.00 Build 0)  -->
<!DOCTYPE svg PUBLIC "-//W3C//DTD SVG 1.1//EN" "http://www.w3.org/Graphics/SVG/1.1/DTD/svg11.dtd">
<svg version="1.1" id="Calque_1" xmlns="http://www.w3.org/2000/svg" xmlns:xlink="http://www.w3.org/1999/xlink" x="0px" y="0px"
	 width="1190.551px" height="1190.551px" viewBox="0 0 1190.551 1190.551" enable-background="new 0 0 1190.551 1190.551"
	 xml:space="preserve">
<path fill="#010202" d="M384.183,746.976V595.441c19.133,17.521,44.604,28.228,72.531,28.228c59.278,0,107.5-48.225,107.5-107.499
	c0-59.275-48.228-107.5-107.5-107.5c-59.173,0-107.33,48.058-107.497,107.192V341.603h122.872V121.197h122.873V0H0v121.196h122.872
	v220.406h122.873v253.676h-86.501c33.208-18.314,55.757-53.672,55.757-94.201c0-59.28-48.226-107.5-107.5-107.5
	s-107.5,48.227-107.5,107.5c0,59.275,48.226,107.5,107.5,107.5c18.726,0,36.345-4.817,51.693-13.271v150.169H0v226.489h222.028
	l0.162,143.992h235.488V979.464h137.6V746.976H384.183z M349.217,516.477c0.088,31.14,13.485,59.206,34.792,78.802h-34.792V516.477z
	"/>
</svg>
