<?xml version="1.0" encoding="utf-8"?>
<!-- Generator: Adobe Illustrator 16.0.0, SVG Export Plug-In . SVG Version: 6.00 Build 0)  -->
<!DOCTYPE svg PUBLIC "-//W3C//DTD SVG 1.1//EN" "http://www.w3.org/Graphics/SVG/1.1/DTD/svg11.dtd">
<svg version="1.1" id="Calque_1" xmlns="http://www.w3.org/2000/svg" xmlns:xlink="http://www.w3.org/1999/xlink" x="0px" y="0px"
	 width="1190.551px" height="1190.551px" viewBox="0 0 1190.551 1190.551" enable-background="new 0 0 1190.551 1190.551"
	 xml:space="preserve">
<g>
	<path fill="#010202" d="M447.834,599.009h226.488V376.98l107.413-0.121c-59.239,0.049-107.41,48.254-107.41,107.499
		c0,59.274,48.228,107.5,107.5,107.5c59.276,0,107.5-48.226,107.5-107.5c0-59.249-48.183-107.458-107.425-107.499l36.414-0.041
		V141.33H681.822V3.73H449.334v211.096H297.638v224.988h150.195L447.834,599.009L447.834,599.009z"/>
	<polygon fill="#010202" points="771.719,591.859 771.719,714.732 551.315,714.732 551.315,837.604 297.638,837.604 
		297.638,941.074 405.135,941.074 551.315,941.074 551.315,1063.947 771.719,1063.947 771.719,1186.82 892.916,1186.82 
		892.916,591.859 	"/>
	<path fill="#010202" d="M297.635,1048.574c0,59.273,48.225,107.5,107.5,107.5c59.278,0,107.5-48.225,107.5-107.5
		c0-59.273-48.228-107.5-107.5-107.5C345.86,941.074,297.635,989.301,297.635,1048.574z"/>
</g>
</svg>
