<?xml version="1.0" encoding="utf-8"?>
<!-- Generator: Adobe Illustrator 16.0.0, SVG Export Plug-In . SVG Version: 6.00 Build 0)  -->
<!DOCTYPE svg PUBLIC "-//W3C//DTD SVG 1.1//EN" "http://www.w3.org/Graphics/SVG/1.1/DTD/svg11.dtd">
<svg version="1.1" id="Calque_1" xmlns="http://www.w3.org/2000/svg" xmlns:xlink="http://www.w3.org/1999/xlink" x="0px" y="0px"
	 width="1190.551px" height="1190.551px" viewBox="0 0 1190.551 1190.551" enable-background="new 0 0 1190.551 1190.551"
	 xml:space="preserve">
<g>
	<path fill="#010202" d="M968.785,418.833h122.873V297.636H496.698v121.196H619.57v16.404H483.076v-137.6H250.589v211.096H98.893
		V733.72h150.195v159.194h226.488V670.886l143.992-0.162v-31.485h122.874v253.677h103.47V746.97
		c0.125,59.168,48.298,107.269,107.497,107.269c59.281,0,107.5-48.225,107.5-107.5c0-59.273-48.228-107.5-107.5-107.5
		c-59.199,0-107.372,48.102-107.497,107.27v-107.27h107.497h15.375L968.785,418.833L968.785,418.833z"/>
	<path fill="#010202" d="M583.078,670.769c-59.275,0-107.5,48.226-107.5,107.5c0,59.275,48.225,107.5,107.5,107.5
		s107.5-48.225,107.5-107.5C690.578,718.988,642.354,670.769,583.078,670.769z"/>
</g>
</svg>
