<?xml version="1.0" encoding="utf-8"?>
<!-- Generator: Adobe Illustrator 16.0.0, SVG Export Plug-In . SVG Version: 6.00 Build 0)  -->
<!DOCTYPE svg PUBLIC "-//W3C//DTD SVG 1.1//EN" "http://www.w3.org/Graphics/SVG/1.1/DTD/svg11.dtd">
<svg version="1.1" id="Calque_1" xmlns="http://www.w3.org/2000/svg" xmlns:xlink="http://www.w3.org/1999/xlink" x="0px" y="0px"
	 width="1190.551px" height="1190.551px" viewBox="0 0 1190.551 1190.551" enable-background="new 0 0 1190.551 1190.551"
	 xml:space="preserve">
<path fill="#010202" d="M892.914,883.213v-103.47H773.117c59.168-0.125,107.27-48.298,107.27-107.497
	c0-59.279-48.227-107.5-107.5-107.5c-53.748,0-98.41,39.653-106.271,91.241v-210.21h151.697V220.787H668.115V61.592H441.629V283.62
	l-143.992,0.163v235.488H434.13v137.6h-15.298V533.998H297.636v594.961h121.195v-122.873h220.405
	c-0.369,3.609-0.557,7.271-0.557,10.977c0,59.275,48.225,107.5,107.5,107.5c59.279,0,107.5-48.225,107.5-107.5
	c0-59.272-48.227-107.5-107.5-107.5c-55.562,0-101.416,42.375-106.941,96.502V883.213H892.914z M666.492,656.871
	c-0.723,5.022-1.104,10.154-1.104,15.375c0,59.198,48.1,107.372,107.268,107.497H639.239V656.871H666.492z"/>
</svg>
