<?xml version="1.0" encoding="utf-8"?>
<!-- Generator: Adobe Illustrator 16.0.0, SVG Export Plug-In . SVG Version: 6.00 Build 0)  -->
<!DOCTYPE svg PUBLIC "-//W3C//DTD SVG 1.1//EN" "http://www.w3.org/Graphics/SVG/1.1/DTD/svg11.dtd">
<svg version="1.1" id="Calque_1" xmlns="http://www.w3.org/2000/svg" xmlns:xlink="http://www.w3.org/1999/xlink" x="0px" y="0px"
	 width="1190.551px" height="1190.551px" viewBox="0 0 1190.551 1190.551" enable-background="new 0 0 1190.551 1190.551"
	 xml:space="preserve">
<g>
	<path fill="#010202" d="M436.084,520.678V370.48h159.194V143.991H373.25L373.088,0H137.6v136.492H0V368.98h211.096v151.698h34.649
		v253.675H125.741c50.619-8.689,89.256-52.888,89.256-105.944c0-59.275-48.227-107.5-107.5-107.5
		c-59.275,0-107.5,48.225-107.5,107.5c0,59.273,48.225,107.5,107.5,107.5c5.22,0,10.353-0.382,15.376-1.104v219.955H0v121.197
		h594.962V994.759H472.09V774.353H349.216V666.85V520.678H436.084z"/>
	<path fill="#010202" d="M456.717,774.35c59.273,0,107.5-48.226,107.5-107.5c0-59.276-48.227-107.5-107.5-107.5
		c-59.275,0-107.501,48.224-107.501,107.5C349.216,726.131,397.441,774.35,456.717,774.35z"/>
</g>
</svg>
