<?xml version="1.0" encoding="utf-8"?>
<!-- Generator: Adobe Illustrator 16.0.0, SVG Export Plug-In . SVG Version: 6.00 Build 0)  -->
<!DOCTYPE svg PUBLIC "-//W3C//DTD SVG 1.1//EN" "http://www.w3.org/Graphics/SVG/1.1/DTD/svg11.dtd">
<svg version="1.1" id="Calque_1" xmlns="http://www.w3.org/2000/svg" xmlns:xlink="http://www.w3.org/1999/xlink" x="0px" y="0px"
	 width="1190.551px" height="1190.551px" viewBox="0 0 1190.551 1190.551" enable-background="new 0 0 1190.551 1190.551"
	 xml:space="preserve">
<path fill="#010202" d="M595.279,370.48V143.991H373.25L373.088,0H137.6v136.492H0V368.98h211.096v151.698H0v121.195h122.872
	v220.279c-5.022-0.722-10.154-1.104-15.373-1.104c-59.274,0-107.5,48.224-107.5,107.5c0,59.278,48.225,107.5,107.5,107.5
	c59.274,0,107.5-48.228,107.5-107.5c0-53.745-39.646-98.402-91.226-106.27h121.972v253.676h103.472V970.087
	c0.167,59.134,48.324,107.192,107.497,107.192c59.278,0,107.5-48.225,107.5-107.5c0-59.273-48.228-107.5-107.5-107.5
	c-59.173,0-107.33,48.061-107.497,107.192V862.28h107.497h15.375V641.873h122.873V520.678H436.084V370.48H595.279z"/>
</svg>
