<?xml version="1.0" encoding="utf-8"?>
<!-- Generator: Adobe Illustrator 16.0.0, SVG Export Plug-In . SVG Version: 6.00 Build 0)  -->
<!DOCTYPE svg PUBLIC "-//W3C//DTD SVG 1.1//EN" "http://www.w3.org/Graphics/SVG/1.1/DTD/svg11.dtd">
<svg version="1.1" id="Calque_1" xmlns="http://www.w3.org/2000/svg" xmlns:xlink="http://www.w3.org/1999/xlink" x="0px" y="0px"
	 width="1190.551px" height="1190.551px" viewBox="0 0 1190.551 1190.551" enable-background="new 0 0 1190.551 1190.551"
	 xml:space="preserve">
<path fill="#010202" d="M384.183,473.005c7.873,51.574,52.527,91.211,106.268,91.211c59.28,0,107.5-48.226,107.5-107.5
	s-48.226-107.5-107.5-107.5c-59.276,0-107.5,48.226-107.5,107.5c0,5.219,0.381,10.351,1.104,15.373h-42.452V349.216H490.45h104.828
	V245.745H341.603V123.757c7.858,51.591,52.522,91.247,106.271,91.247c59.275,0,107.5-48.225,107.5-107.5
	c0-59.28-48.225-107.5-107.5-107.5c-59.273,0-107.499,48.227-107.499,107.5c0,5.218,0.381,10.349,1.104,15.37H121.197V0H0v594.961
	h121.196V472.089h37.998v150.196H0v226.488h222.028l0.162,143.992h235.488V856.273h137.6V623.785H384.183V473.005z"/>
</svg>
