<?xml version="1.0" encoding="utf-8"?>
<!-- Generator: Adobe Illustrator 16.0.0, SVG Export Plug-In . SVG Version: 6.00 Build 0)  -->
<!DOCTYPE svg PUBLIC "-//W3C//DTD SVG 1.1//EN" "http://www.w3.org/Graphics/SVG/1.1/DTD/svg11.dtd">
<svg version="1.1" id="Calque_1" xmlns="http://www.w3.org/2000/svg" xmlns:xlink="http://www.w3.org/1999/xlink" x="0px" y="0px"
	 width="1190.551px" height="1190.551px" viewBox="0 0 1190.551 1190.551" enable-background="new 0 0 1190.551 1190.551"
	 xml:space="preserve">
<path fill="#010202" d="M755.316,557.974V421.481h137.6V188.995H681.82V37.297H456.831v150.196H297.637v226.488h107.268
	c-59.168,0.126-107.269,48.299-107.269,107.498c0,59.28,48.225,107.5,107.5,107.5c59.273,0,107.5-48.227,107.5-107.5
	c0-59.199-48.102-107.372-107.27-107.497h114.298l0.162,143.992h23.556V811.65H420.51v220.406H297.637v121.197h594.962v-121.197
	H769.727V811.65h-15.143c59.167-0.125,107.27-48.299,107.27-107.496c0-59.281-48.228-107.501-107.5-107.501
	c-59.275,0-107.501,48.226-107.501,107.501c0,59.197,48.101,107.371,107.27,107.496h-107.27V704.154v-146.18H755.316z"/>
</svg>
