<?xml version="1.0" encoding="utf-8"?>
<!-- Generator: Adobe Illustrator 16.0.0, SVG Export Plug-In . SVG Version: 6.00 Build 0)  -->
<!DOCTYPE svg PUBLIC "-//W3C//DTD SVG 1.1//EN" "http://www.w3.org/Graphics/SVG/1.1/DTD/svg11.dtd">
<svg version="1.1" id="Calque_1" xmlns="http://www.w3.org/2000/svg" xmlns:xlink="http://www.w3.org/1999/xlink" x="0px" y="0px"
	 width="1190.551px" height="1190.551px" viewBox="0 0 1190.551 1190.551" enable-background="new 0 0 1190.551 1190.551"
	 xml:space="preserve">
<g>
	<polygon fill="#010202" points="892.916,650.2 892.916,55.239 771.719,55.239 771.719,178.111 551.315,178.111 551.315,300.984 
		297.638,300.984 297.638,404.456 405.135,404.456 551.315,404.456 551.315,527.327 771.719,527.327 771.719,650.2 	"/>
	<path fill="#010202" d="M297.635,511.956c0,59.274,48.225,107.5,107.5,107.5c10.445,0,20.546-1.504,30.103-4.295v135.966h-137.6
		v232.487h211.096v151.697h224.988V985.114h159.193V758.626H670.888l-0.162-143.991H437.001
		c43.769-13.61,75.634-54.493,75.634-102.679c0-59.275-48.228-107.5-107.5-107.5C345.86,404.456,297.635,452.681,297.635,511.956z"
		/>
	<path fill="#010202" d="M405.138,300.98c59.273,0,107.5-48.226,107.5-107.5c0-59.275-48.227-107.5-107.5-107.5
		c-59.274,0-107.5,48.225-107.5,107.5C297.638,252.761,345.863,300.98,405.138,300.98z"/>
</g>
</svg>
