<?xml version="1.0" encoding="utf-8"?>
<!-- Generator: Adobe Illustrator 16.0.0, SVG Export Plug-In . SVG Version: 6.00 Build 0)  -->
<!DOCTYPE svg PUBLIC "-//W3C//DTD SVG 1.1//EN" "http://www.w3.org/Graphics/SVG/1.1/DTD/svg11.dtd">
<svg version="1.1" id="Calque_1" xmlns="http://www.w3.org/2000/svg" xmlns:xlink="http://www.w3.org/1999/xlink" x="0px" y="0px"
	 width="1190.551px" height="1190.551px" viewBox="0 0 1190.551 1190.551" enable-background="new 0 0 1190.551 1190.551"
	 xml:space="preserve">
<g>
	<path fill="#010202" d="M733.723,557.975V407.777h159.193V181.288H670.889l-0.162-143.991H435.238v136.492h-137.6v232.488h211.096
		v151.698h34.649v253.675H423.38c50.618-8.688,89.256-52.888,89.256-105.943c0-59.275-48.228-107.5-107.5-107.5
		c-59.275,0-107.5,48.225-107.5,107.5c0,59.272,48.225,107.5,107.5,107.5c5.22,0,10.353-0.382,15.376-1.104v219.955H297.638v121.197
		H892.6v-121.198H769.729V811.65H646.854V704.146V557.975H733.723z"/>
	<path fill="#010202" d="M754.356,811.646c59.271,0,107.5-48.226,107.5-107.5c0-59.275-48.229-107.5-107.5-107.5
		c-59.275,0-107.502,48.225-107.502,107.5C646.854,763.428,695.078,811.646,754.356,811.646z"/>
</g>
</svg>
