<?xml version="1.0" encoding="utf-8"?>
<!-- Generator: Adobe Illustrator 16.0.0, SVG Export Plug-In . SVG Version: 6.00 Build 0)  -->
<!DOCTYPE svg PUBLIC "-//W3C//DTD SVG 1.1//EN" "http://www.w3.org/Graphics/SVG/1.1/DTD/svg11.dtd">
<svg version="1.1" id="Calque_1" xmlns="http://www.w3.org/2000/svg" xmlns:xlink="http://www.w3.org/1999/xlink" x="0px" y="0px"
	 width="1190.551px" height="1190.551px" viewBox="0 0 1190.551 1190.551" enable-background="new 0 0 1190.551 1190.551"
	 xml:space="preserve">
<g>
	<path fill="#010202" d="M436.084,520.678V370.48h159.194V143.991H373.25L373.088,0H137.6v136.492H0V368.98h211.096v151.697h-89.899
		V397.804H0v594.961h121.196v-15.142c0.125,59.17,48.299,107.27,107.497,107.27c59.28,0,107.5-48.225,107.5-107.5
		s-48.227-107.5-107.5-107.5c-59.198,0-107.372,48.1-107.497,107.27v-107.27h107.497h112.909V747.02h253.676V643.55H341.603V520.678
		H436.084z"/>
	<path fill="#010202" d="M448.547,773.371c-59.273,0-107.499,48.226-107.499,107.5c0,59.276,48.226,107.5,107.499,107.5
		c59.275,0,107.5-48.224,107.5-107.5C556.047,821.591,507.823,773.371,448.547,773.371z"/>
</g>
</svg>
