<?xml version="1.0" encoding="utf-8"?>
<!-- Generator: Adobe Illustrator 16.0.0, SVG Export Plug-In . SVG Version: 6.00 Build 0)  -->
<!DOCTYPE svg PUBLIC "-//W3C//DTD SVG 1.1//EN" "http://www.w3.org/Graphics/SVG/1.1/DTD/svg11.dtd">
<svg version="1.1" id="Calque_1" xmlns="http://www.w3.org/2000/svg" xmlns:xlink="http://www.w3.org/1999/xlink" x="0px" y="0px"
	 width="1190.551px" height="1190.551px" viewBox="0 0 1190.551 1190.551" enable-background="new 0 0 1190.551 1190.551"
	 xml:space="preserve">
<g>
	<path fill="#010202" d="M733.721,573.507V423.309h159.193V196.82H670.887l-0.162-143.991H435.237v136.492h-137.6v232.488h211.096
		v151.697h-89.899V450.633H297.637v594.961h121.195v-15.142c0.125,59.17,48.3,107.27,107.497,107.27
		c59.28,0,107.5-48.225,107.5-107.5c0-59.274-48.227-107.5-107.5-107.5c-59.197,0-107.372,48.101-107.497,107.271V922.722h107.497
		h112.909V799.849h253.676v-103.47H639.24V573.507H733.721z"/>
	<path fill="#010202" d="M746.184,826.2c-59.273,0-107.499,48.226-107.499,107.5c0,59.275,48.226,107.5,107.499,107.5
		c59.274,0,107.5-48.225,107.5-107.5C853.684,874.42,805.459,826.2,746.184,826.2z"/>
</g>
</svg>
