<?xml version="1.0" encoding="utf-8"?>
<!-- Generator: Adobe Illustrator 16.0.0, SVG Export Plug-In . SVG Version: 6.00 Build 0)  -->
<!DOCTYPE svg PUBLIC "-//W3C//DTD SVG 1.1//EN" "http://www.w3.org/Graphics/SVG/1.1/DTD/svg11.dtd">
<svg version="1.1" id="Calque_1" xmlns="http://www.w3.org/2000/svg" xmlns:xlink="http://www.w3.org/1999/xlink" x="0px" y="0px"
	 width="1190.551px" height="1190.551px" viewBox="0 0 1190.551 1190.551" enable-background="new 0 0 1190.551 1190.551"
	 xml:space="preserve">
<path fill="#010202" d="M681.82,784.273V632.738c19.133,17.521,44.604,28.229,72.531,28.229c59.277,0,107.5-48.226,107.5-107.5
	c0-59.275-48.229-107.5-107.5-107.5c-59.173,0-107.33,48.058-107.497,107.192V378.9h122.872V158.495h122.873V37.297H297.637v121.196
	h122.872v220.406h122.873v253.676h-86.501c33.208-18.313,55.757-53.672,55.757-94.201c0-59.28-48.227-107.5-107.5-107.5
	c-59.274,0-107.5,48.227-107.5,107.5c0,59.275,48.226,107.5,107.5,107.5c18.726,0,36.345-4.818,51.692-13.271v150.168H297.637
	v226.49h222.027l0.162,143.992h235.488v-136.492h137.6V784.273H681.82z M646.854,553.774c0.088,31.14,13.485,59.206,34.792,78.802
	h-34.792V553.774z"/>
</svg>
