<?xml version="1.0" encoding="utf-8"?>
<!-- Generator: Adobe Illustrator 16.0.0, SVG Export Plug-In . SVG Version: 6.00 Build 0)  -->
<!DOCTYPE svg PUBLIC "-//W3C//DTD SVG 1.1//EN" "http://www.w3.org/Graphics/SVG/1.1/DTD/svg11.dtd">
<svg version="1.1" id="Calque_1" xmlns="http://www.w3.org/2000/svg" xmlns:xlink="http://www.w3.org/1999/xlink" x="0px" y="0px"
	 width="1190.551px" height="1190.551px" viewBox="0 0 1190.551 1190.551" enable-background="new 0 0 1190.551 1190.551"
	 xml:space="preserve">
<path fill="#010202" d="M595.279,821.621V718.151H475.481c59.169-0.125,107.269-48.298,107.269-107.497
	c0-59.279-48.225-107.5-107.5-107.5c-53.747,0-98.41,39.653-106.271,91.24v-210.21h151.698V159.195H370.48V0H143.992v222.028
	L0,222.191v235.488h136.493v137.6h-15.297V472.406H0v594.961h121.196V944.494H341.6c-0.368,3.609-0.556,7.271-0.556,10.977
	c0,59.275,48.225,107.5,107.499,107.5c59.28,0,107.5-48.225,107.5-107.5c0-59.273-48.226-107.5-107.5-107.5
	c-55.562,0-101.415,42.375-106.94,96.502V821.621H595.279z M368.856,595.279c-0.723,5.023-1.104,10.155-1.104,15.375
	c0,59.199,48.101,107.372,107.268,107.497H341.603V595.279H368.856z"/>
</svg>
