<?xml version="1.0" encoding="utf-8"?>
<!-- Generator: Adobe Illustrator 16.0.0, SVG Export Plug-In . SVG Version: 6.00 Build 0)  -->
<!DOCTYPE svg PUBLIC "-//W3C//DTD SVG 1.1//EN" "http://www.w3.org/Graphics/SVG/1.1/DTD/svg11.dtd">
<svg version="1.1" id="Calque_1" xmlns="http://www.w3.org/2000/svg" xmlns:xlink="http://www.w3.org/1999/xlink" x="0px" y="0px"
	 width="1190.551px" height="1190.551px" viewBox="0 0 1190.551 1190.551" enable-background="new 0 0 1190.551 1190.551"
	 xml:space="preserve">
<path fill="#010202" d="M457.679,520.677V384.184h137.6V151.697H384.183V0H159.195v150.196H0v226.488h107.268
	C48.1,376.81-0.001,424.983-0.001,484.182c0,59.28,48.225,107.5,107.5,107.5c59.274,0,107.5-48.227,107.5-107.5
	c0-59.199-48.101-107.372-107.269-107.497h114.298l0.162,143.992h23.555v253.676H122.873v220.406H0v121.197h594.962V994.759H472.09
	V774.353h-15.142c59.167-0.125,107.269-48.298,107.269-107.497c0-59.28-48.227-107.5-107.5-107.5
	c-59.275,0-107.501,48.226-107.501,107.5c0,59.199,48.101,107.372,107.27,107.497h-107.27V666.856V520.677H457.679z"/>
</svg>
