<?xml version="1.0" encoding="utf-8"?>
<!-- Generator: Adobe Illustrator 16.0.0, SVG Export Plug-In . SVG Version: 6.00 Build 0)  -->
<!DOCTYPE svg PUBLIC "-//W3C//DTD SVG 1.1//EN" "http://www.w3.org/Graphics/SVG/1.1/DTD/svg11.dtd">
<svg version="1.1" id="Calque_1" xmlns="http://www.w3.org/2000/svg" xmlns:xlink="http://www.w3.org/1999/xlink" x="0px" y="0px"
	 width="1190.551px" height="1190.551px" viewBox="0 0 1190.551 1190.551" enable-background="new 0 0 1190.551 1190.551"
	 xml:space="preserve">
<g>
	<path fill="#010202" d="M150.197,595.279h226.488V373.25l107.413-0.121c-59.239,0.049-107.41,48.254-107.41,107.499
		c0,59.274,48.228,107.5,107.5,107.5c59.276,0,107.5-48.226,107.5-107.5c0-59.249-48.183-107.458-107.425-107.499l36.414-0.041
		V137.6H384.184V0H151.697v211.096H0v224.988h150.196V595.279z"/>
	<polygon fill="#010202" points="474.082,588.129 474.082,711.002 253.677,711.002 253.677,833.873 0,833.873 0,937.345 
		107.497,937.345 253.677,937.345 253.677,1060.218 474.082,1060.218 474.082,1183.091 595.279,1183.091 595.279,588.129 	"/>
	<path fill="#010202" d="M-0.003,1044.845c0,59.273,48.225,107.5,107.5,107.5c59.279,0,107.5-48.226,107.5-107.5
		c0-59.275-48.227-107.5-107.5-107.5C48.222,937.345-0.003,985.57-0.003,1044.845z"/>
</g>
</svg>
