<?xml version="1.0" encoding="utf-8"?>
<!-- Generator: Adobe Illustrator 16.0.0, SVG Export Plug-In . SVG Version: 6.00 Build 0)  -->
<!DOCTYPE svg PUBLIC "-//W3C//DTD SVG 1.1//EN" "http://www.w3.org/Graphics/SVG/1.1/DTD/svg11.dtd">
<svg version="1.1" id="Calque_1" xmlns="http://www.w3.org/2000/svg" xmlns:xlink="http://www.w3.org/1999/xlink" x="0px" y="0px"
	 width="1190.551px" height="1190.551px" viewBox="0 0 1190.551 1190.551" enable-background="new 0 0 1190.551 1190.551"
	 xml:space="preserve">
<path fill="#010202" d="M892.915,407.778V181.29H670.887l-0.162-143.991H435.237v136.492h-137.6v232.488h211.096v151.698H297.637
	v121.196h122.872v220.279c-5.022-0.723-10.154-1.105-15.373-1.105c-59.274,0-107.5,48.225-107.5,107.5
	c0,59.279,48.225,107.5,107.5,107.5c59.273,0,107.5-48.227,107.5-107.5c0-53.744-39.646-98.4-91.227-106.27h121.973v253.676h103.472
	v-145.867c0.167,59.135,48.324,107.193,107.497,107.193c59.277,0,107.5-48.227,107.5-107.5s-48.229-107.5-107.5-107.5
	c-59.173,0-107.33,48.061-107.497,107.191V899.578h107.497h15.375V679.172h122.873V557.976H733.721V407.778H892.915z"/>
</svg>
