<?xml version="1.0" encoding="utf-8"?>
<!-- Generator: Adobe Illustrator 16.0.0, SVG Export Plug-In . SVG Version: 6.00 Build 0)  -->
<!DOCTYPE svg PUBLIC "-//W3C//DTD SVG 1.1//EN" "http://www.w3.org/Graphics/SVG/1.1/DTD/svg11.dtd">
<svg version="1.1" id="Calque_1" xmlns="http://www.w3.org/2000/svg" xmlns:xlink="http://www.w3.org/1999/xlink" x="0px" y="0px"
	 width="1190.551px" height="1190.551px" viewBox="0 0 1190.551 1190.551" enable-background="new 0 0 1190.551 1190.551"
	 xml:space="preserve">
<g>
	<polygon fill="#010202" points="358.192,595.279 590.679,595.279 590.679,384.185 742.376,384.185 742.376,159.195 
		592.179,159.195 592.179,0 365.691,0 365.691,222.029 221.698,222.191 221.698,457.681 358.192,457.681 	"/>
	<polygon fill="#010202" points="845.979,1069.352 845.979,848.947 723.106,848.947 723.106,595.271 619.636,595.271 
		619.636,848.947 496.765,848.947 617.757,727.953 617.757,628.941 425.22,628.941 221.698,526.732 221.698,1124.014 
		496.765,848.947 496.765,1069.352 373.891,1069.352 373.891,1190.551 968.853,1190.551 968.853,1069.352 	"/>
</g>
</svg>
