<?xml version="1.0" encoding="utf-8"?>
<!-- Generator: Adobe Illustrator 16.0.0, SVG Export Plug-In . SVG Version: 6.00 Build 0)  -->
<!DOCTYPE svg PUBLIC "-//W3C//DTD SVG 1.1//EN" "http://www.w3.org/Graphics/SVG/1.1/DTD/svg11.dtd">
<svg version="1.1" id="Calque_1" xmlns="http://www.w3.org/2000/svg" xmlns:xlink="http://www.w3.org/1999/xlink" x="0px" y="0px"
	 width="1190.551px" height="1190.551px" viewBox="0 0 1190.551 1190.551" enable-background="new 0 0 1190.551 1190.551"
	 xml:space="preserve">
<g>
	<polygon fill="#010202" points="341.604,595.279 368.981,595.279 368.981,384.184 520.678,384.184 520.678,159.195 
		370.481,159.195 370.481,0 143.992,0 143.992,222.029 0,222.191 0,457.68 136.493,457.68 136.493,595.279 121.198,595.279 
		121.198,472.405 0,472.405 0,1067.366 121.198,1067.366 121.198,944.493 341.604,944.493 341.604,821.62 595.28,821.62 
		595.28,718.15 341.604,718.15 	"/>
	<polygon fill="#010202" points="364.386,599.875 364.386,698.887 556.924,698.887 760.445,801.096 760.445,203.815 	"/>
</g>
</svg>
