<?xml version="1.0" encoding="utf-8"?>
<!-- Generator: Adobe Illustrator 16.0.0, SVG Export Plug-In . SVG Version: 6.00 Build 0)  -->
<!DOCTYPE svg PUBLIC "-//W3C//DTD SVG 1.1//EN" "http://www.w3.org/Graphics/SVG/1.1/DTD/svg11.dtd">
<svg version="1.1" id="Calque_1" xmlns="http://www.w3.org/2000/svg" xmlns:xlink="http://www.w3.org/1999/xlink" x="0px" y="0px"
	 width="1190.551px" height="1190.551px" viewBox="0 0 1190.551 1190.551" enable-background="new 0 0 1190.551 1190.551"
	 xml:space="preserve">
<polygon fill="#010202" points="595.28,747.02 595.28,643.55 341.604,643.55 341.604,520.679 436.084,520.679 436.084,370.481 
	595.279,370.481 595.279,143.991 373.25,143.991 373.088,0 137.599,0 137.599,136.492 0,136.492 0,368.981 211.095,368.981 
	211.095,520.679 121.198,520.679 121.198,397.804 0,397.804 0,992.766 121.198,992.766 121.198,869.893 341.604,869.893 
	341.604,747.02 737.662,1143.078 836.677,1143.078 836.677,950.543 938.886,747.02 "/>
</svg>
