<?xml version="1.0" encoding="utf-8"?>
<!-- Generator: Adobe Illustrator 16.0.0, SVG Export Plug-In . SVG Version: 6.00 Build 0)  -->
<!DOCTYPE svg PUBLIC "-//W3C//DTD SVG 1.1//EN" "http://www.w3.org/Graphics/SVG/1.1/DTD/svg11.dtd">
<svg version="1.1" id="Calque_1" xmlns="http://www.w3.org/2000/svg" xmlns:xlink="http://www.w3.org/1999/xlink" x="0px" y="0px"
	 width="1190.551px" height="1190.551px" viewBox="0 0 1190.551 1190.551" enable-background="new 0 0 1190.551 1190.551"
	 xml:space="preserve">
<g>
	<polygon fill="#010202" points="606.487,520.68 646.512,520.68 646.512,370.481 805.706,370.481 805.706,143.992 583.678,143.992 
		583.516,0 348.027,0 348.027,136.493 210.428,136.493 210.428,368.981 421.523,368.981 421.523,520.678 413.949,520.678 
		210.428,418.469 210.428,1015.75 606.487,619.691 	"/>
	<polygon fill="#010202" points="858.925,595.588 858.925,718.463 638.521,718.463 638.521,841.336 384.844,841.336 
		384.844,944.805 638.521,944.805 638.521,1067.676 858.925,1067.676 858.925,1190.551 980.123,1190.551 980.123,595.588 	"/>
</g>
</svg>
