<?xml version="1.0" encoding="utf-8"?>
<!-- Generator: Adobe Illustrator 16.0.0, SVG Export Plug-In . SVG Version: 6.00 Build 0)  -->
<!DOCTYPE svg PUBLIC "-//W3C//DTD SVG 1.1//EN" "http://www.w3.org/Graphics/SVG/1.1/DTD/svg11.dtd">
<svg version="1.1" id="Calque_1" xmlns="http://www.w3.org/2000/svg" xmlns:xlink="http://www.w3.org/1999/xlink" x="0px" y="0px"
	 width="1190.551px" height="1190.551px" viewBox="0 0 1190.551 1190.551" enable-background="new 0 0 1190.551 1190.551"
	 xml:space="preserve">
<polygon fill="#010202" points="595.28,396.059 595.28,472.406 474.082,472.406 474.082,595.279 368.981,595.279 368.981,384.184 
	520.678,384.184 520.678,159.195 370.481,159.195 370.481,0 143.992,0 143.992,222.029 0,222.191 0,457.68 136.493,457.68 
	136.493,595.279 253.676,595.279 253.676,718.152 0,718.152 0,821.622 253.676,821.622 253.676,944.493 474.082,944.493 
	474.082,1067.367 595.28,1067.367 595.28,495.072 787.817,495.072 991.34,597.281 991.34,0 "/>
</svg>
