<?xml version="1.0" encoding="utf-8"?>
<!-- Generator: Adobe Illustrator 16.0.0, SVG Export Plug-In . SVG Version: 6.00 Build 0)  -->
<!DOCTYPE svg PUBLIC "-//W3C//DTD SVG 1.1//EN" "http://www.w3.org/Graphics/SVG/1.1/DTD/svg11.dtd">
<svg version="1.1" id="Calque_1" xmlns="http://www.w3.org/2000/svg" xmlns:xlink="http://www.w3.org/1999/xlink" x="0px" y="0px"
	 width="1190.551px" height="1190.551px" viewBox="0 0 1190.551 1190.551" enable-background="new 0 0 1190.551 1190.551"
	 xml:space="preserve">
<polygon fill="#010202" points="486.137,537.571 486.137,409.96 630.129,409.798 630.129,174.31 493.636,174.31 493.636,36.71 
	261.148,36.71 261.148,247.805 109.452,247.805 109.452,472.794 259.648,472.794 259.648,631.989 486.137,631.989 486.137,658.77 
	312.973,658.77 109.452,556.561 109.452,1153.84 505.51,757.783 505.51,658.77 609.01,658.77 609.01,879.176 731.883,879.176 
	731.883,1132.852 835.354,1132.852 835.354,879.176 958.225,879.176 958.225,658.77 1081.1,658.77 1081.1,537.571 "/>
</svg>
