<?xml version="1.0" encoding="utf-8"?>
<!-- Generator: Adobe Illustrator 16.0.0, SVG Export Plug-In . SVG Version: 6.00 Build 0)  -->
<!DOCTYPE svg PUBLIC "-//W3C//DTD SVG 1.1//EN" "http://www.w3.org/Graphics/SVG/1.1/DTD/svg11.dtd">
<svg version="1.1" id="Calque_1" xmlns="http://www.w3.org/2000/svg" xmlns:xlink="http://www.w3.org/1999/xlink" x="0px" y="0px"
	 width="1190.551px" height="1190.551px" viewBox="0 0 1190.551 1190.551" enable-background="new 0 0 1190.551 1190.551"
	 xml:space="preserve">
<g>
	<polygon fill="#010202" points="136.493,595.279 368.981,595.279 368.981,384.184 520.678,384.184 520.678,159.195 
		370.481,159.195 370.481,0 143.992,0 143.992,222.029 0,222.191 0,457.68 136.493,457.68 	"/>
	<polygon fill="#010202" points="624.281,1069.352 624.281,848.946 501.408,848.946 501.408,595.27 397.938,595.27 397.938,848.946 
		275.067,848.946 396.059,727.953 396.059,628.941 203.522,628.941 0,526.732 0,1124.013 275.067,848.946 275.067,1069.352 
		152.193,1069.352 152.193,1190.55 747.155,1190.55 747.155,1069.352 	"/>
</g>
</svg>
