<?xml version="1.0" encoding="utf-8"?>
<!-- Generator: Adobe Illustrator 16.0.0, SVG Export Plug-In . SVG Version: 6.00 Build 0)  -->
<!DOCTYPE svg PUBLIC "-//W3C//DTD SVG 1.1//EN" "http://www.w3.org/Graphics/SVG/1.1/DTD/svg11.dtd">
<svg version="1.1" id="Calque_1" xmlns="http://www.w3.org/2000/svg" xmlns:xlink="http://www.w3.org/1999/xlink" x="0px" y="0px"
	 width="1190.551px" height="1190.551px" viewBox="0 0 1190.551 1190.551" enable-background="new 0 0 1190.551 1190.551"
	 xml:space="preserve">
<g>
	<polygon fill="#010202" points="396.059,520.679 436.084,520.679 436.084,370.481 595.279,370.481 595.279,143.991 373.25,143.991 
		373.088,0 137.599,0 137.599,136.492 0,136.492 0,368.981 211.095,368.981 211.095,520.678 203.522,520.678 0,418.469 0,1015.749 
		396.059,619.691 	"/>
	<polygon fill="#010202" points="648.498,595.588 648.498,718.462 428.093,718.462 428.093,841.335 174.416,841.335 
		174.416,944.805 428.093,944.805 428.093,1067.676 648.498,1067.676 648.498,1190.55 769.696,1190.55 769.696,595.588 	"/>
</g>
</svg>
