<?xml version="1.0" encoding="utf-8"?>
<!-- Generator: Adobe Illustrator 16.0.0, SVG Export Plug-In . SVG Version: 6.00 Build 0)  -->
<!DOCTYPE svg PUBLIC "-//W3C//DTD SVG 1.1//EN" "http://www.w3.org/Graphics/SVG/1.1/DTD/svg11.dtd">
<svg version="1.1" id="Calque_1" xmlns="http://www.w3.org/2000/svg" xmlns:xlink="http://www.w3.org/1999/xlink" x="0px" y="0px"
	 width="1190.551px" height="1190.551px" viewBox="0 0 1190.551 1190.551" enable-background="new 0 0 1190.551 1190.551"
	 xml:space="preserve">
<g>
	<polygon fill="#010202" points="556.657,656.871 584.034,656.871 584.034,445.776 735.731,445.776 735.731,220.787 
		585.534,220.787 585.534,61.592 359.046,61.592 359.046,283.621 215.053,283.783 215.053,519.272 351.547,519.272 351.547,656.871 
		336.251,656.871 336.251,533.998 215.053,533.998 215.053,1128.959 336.251,1128.959 336.251,1006.086 556.657,1006.086 
		556.657,883.213 810.332,883.213 810.332,779.742 556.657,779.742 	"/>
	<polygon fill="#010202" points="579.439,661.467 579.439,760.479 771.977,760.479 975.498,862.688 975.498,265.407 	"/>
</g>
</svg>
