<?xml version="1.0" encoding="utf-8"?>
<!-- Generator: Adobe Illustrator 16.0.0, SVG Export Plug-In . SVG Version: 6.00 Build 0)  -->
<!DOCTYPE svg PUBLIC "-//W3C//DTD SVG 1.1//EN" "http://www.w3.org/Graphics/SVG/1.1/DTD/svg11.dtd">
<svg version="1.1" id="Calque_1" xmlns="http://www.w3.org/2000/svg" xmlns:xlink="http://www.w3.org/1999/xlink" x="0px" y="0px"
	 width="1190.551px" height="1190.551px" viewBox="0 0 1190.551 1190.551" enable-background="new 0 0 1190.551 1190.551"
	 xml:space="preserve">
<polygon fill="#010202" points="376.686,500.861 376.686,373.25 520.678,373.088 520.678,137.599 384.185,137.599 384.185,0 
	151.697,0 151.697,211.095 0,211.095 0,436.084 150.197,436.084 150.197,595.279 376.686,595.279 376.686,622.059 203.522,622.059 
	0,519.85 0,1117.13 396.059,721.072 396.059,622.059 499.559,622.059 499.559,842.466 622.432,842.466 622.432,1096.141 
	725.903,1096.141 725.903,842.466 848.774,842.466 848.774,622.059 971.648,622.059 971.648,500.861 "/>
</svg>
