<?xml version="1.0" encoding="utf-8"?>
<!-- Generator: Adobe Illustrator 16.0.0, SVG Export Plug-In . SVG Version: 6.00 Build 0)  -->
<!DOCTYPE svg PUBLIC "-//W3C//DTD SVG 1.1//EN" "http://www.w3.org/Graphics/SVG/1.1/DTD/svg11.dtd">
<svg version="1.1" id="Calque_1" xmlns="http://www.w3.org/2000/svg" xmlns:xlink="http://www.w3.org/1999/xlink" x="0px" y="0px"
	 width="1190.551px" height="1190.551px" viewBox="0 0 1190.551 1190.551" enable-background="new 0 0 1190.551 1190.551"
	 xml:space="preserve">
<polygon fill="#010202" points="721.112,770.756 721.112,667.286 467.436,667.286 467.436,544.416 561.917,544.416 561.917,394.217 
	721.112,394.217 721.112,167.728 499.083,167.728 498.921,23.736 263.431,23.736 263.431,160.229 125.833,160.229 125.833,392.717 
	336.927,392.717 336.927,544.416 247.03,544.416 247.03,421.54 125.833,421.54 125.833,1016.502 247.03,1016.502 247.03,893.629 
	467.436,893.629 467.436,770.756 863.494,1166.814 962.51,1166.814 962.51,974.279 1064.719,770.756 "/>
</svg>
