<?xml version="1.0" encoding="utf-8"?>
<!-- Generator: Adobe Illustrator 16.0.0, SVG Export Plug-In . SVG Version: 6.00 Build 0)  -->
<!DOCTYPE svg PUBLIC "-//W3C//DTD SVG 1.1//EN" "http://www.w3.org/Graphics/SVG/1.1/DTD/svg11.dtd">
<svg version="1.1" id="Calque_1" xmlns="http://www.w3.org/2000/svg" xmlns:xlink="http://www.w3.org/1999/xlink" x="0px" y="0px"
	 width="1190.551px" height="1190.551px" viewBox="0 0 1190.551 1190.551" enable-background="new 0 0 1190.551 1190.551"
	 xml:space="preserve">
<polygon fill="#010202" points="694.885,457.651 694.885,533.998 573.687,533.998 573.687,656.871 468.586,656.871 468.586,445.776 
	620.283,445.776 620.283,220.787 470.086,220.787 470.086,61.592 243.598,61.592 243.598,283.621 99.606,283.783 99.606,519.272 
	236.099,519.272 236.099,656.871 353.281,656.871 353.281,779.744 99.606,779.744 99.606,883.214 353.281,883.214 353.281,1006.085 
	573.687,1006.085 573.687,1128.959 694.885,1128.959 694.885,556.664 887.422,556.664 1090.946,658.873 1090.946,61.592 "/>
</svg>
