<?xml version="1.0" encoding="utf-8"?>
<!-- Generator: Adobe Illustrator 16.0.0, SVG Export Plug-In . SVG Version: 6.00 Build 0)  -->
<!DOCTYPE svg PUBLIC "-//W3C//DTD SVG 1.1//EN" "http://www.w3.org/Graphics/SVG/1.1/DTD/svg11.dtd">
<svg version="1.1" id="Calque_1" xmlns="http://www.w3.org/2000/svg" xmlns:xlink="http://www.w3.org/1999/xlink" x="0px" y="0px"
	 width="1190.551px" height="1190.551px" viewBox="0 0 1190.551 1190.551" enable-background="new 0 0 1190.551 1190.551"
	 xml:space="preserve">
<g>
	<polygon fill="#010202" points="261.233,446.456 261.233,657.551 109.537,657.551 109.537,882.539 259.733,882.539 
		259.733,1041.736 486.222,1041.736 486.222,819.705 630.215,819.543 630.215,584.055 493.721,584.055 493.721,446.456 
		407.176,446.456 	"/>
	<path fill="#010202" d="M483.84,436.469c127.225-33.822,220.975-149.782,220.975-287.654H109.537
		c0,164.383,133.258,297.641,297.639,297.641c26.479,0,52.145-3.476,76.581-9.965l9.965,9.965l386.072,386.071h99.012V639.99
		l102.209-203.521H483.84L483.84,436.469z"/>
</g>
</svg>
