<?xml version="1.0" encoding="utf-8"?>
<!-- Generator: Adobe Illustrator 16.0.0, SVG Export Plug-In . SVG Version: 6.00 Build 0)  -->
<!DOCTYPE svg PUBLIC "-//W3C//DTD SVG 1.1//EN" "http://www.w3.org/Graphics/SVG/1.1/DTD/svg11.dtd">
<svg version="1.1" id="Calque_1" xmlns="http://www.w3.org/2000/svg" xmlns:xlink="http://www.w3.org/1999/xlink" x="0px" y="0px"
	 width="1190.551px" height="1190.551px" viewBox="0 0 1190.551 1190.551" enable-background="new 0 0 1190.551 1190.551"
	 xml:space="preserve">
<g>
	<polygon fill="#010202" points="151.697,297.64 151.697,508.735 0,508.735 0,733.723 150.197,733.723 150.197,892.92 
		376.686,892.92 376.686,670.889 520.678,670.727 520.678,435.239 384.185,435.239 384.185,297.64 297.639,297.64 	"/>
	<path fill="#010202" d="M374.303,287.653C501.528,253.831,595.279,137.871,595.279-0.001H0
		C0,164.382,133.258,297.64,297.639,297.64c26.479,0,52.144-3.476,76.581-9.965l9.965,9.965l386.071,386.071h99.013V491.175
		l102.209-203.522H374.303z"/>
</g>
</svg>
