<?xml version="1.0" encoding="utf-8"?>
<!-- Generator: Adobe Illustrator 16.0.0, SVG Export Plug-In . SVG Version: 6.00 Build 0)  -->
<!DOCTYPE svg PUBLIC "-//W3C//DTD SVG 1.1//EN" "http://www.w3.org/Graphics/SVG/1.1/DTD/svg11.dtd">
<svg version="1.1" id="Calque_1" xmlns="http://www.w3.org/2000/svg" xmlns:xlink="http://www.w3.org/1999/xlink" x="0px" y="0px"
	 width="1190.551px" height="1190.551px" viewBox="0 0 1190.551 1190.551" enable-background="new 0 0 1190.551 1190.551"
	 xml:space="preserve">
<path fill="#010202" d="M777.6,236.755c-109.542,0-205.247,59.187-256.922,147.315V159.196H370.481V0H143.993V222.03L0,222.192
	V457.68h136.494v137.599h43.616v58.992H0v348.588h164.908v-96.532h183.679v96.532h163.567v-99.213h83.124V769.655
	c50.371,39.093,113.623,62.38,182.321,62.38V236.755z M429.03,769.572V707.9h-99.212V595.279h39.163V384.184h151.63
	c-25.829,44.094-40.65,95.418-40.65,150.21c0,95.636,45.114,180.725,115.21,235.178H429.03z"/>
</svg>
