<?xml version="1.0" encoding="utf-8"?>
<!-- Generator: Adobe Illustrator 16.0.0, SVG Export Plug-In . SVG Version: 6.00 Build 0)  -->
<!DOCTYPE svg PUBLIC "-//W3C//DTD SVG 1.1//EN" "http://www.w3.org/Graphics/SVG/1.1/DTD/svg11.dtd">
<svg version="1.1" id="Calque_1" xmlns="http://www.w3.org/2000/svg" xmlns:xlink="http://www.w3.org/1999/xlink" x="0px" y="0px"
	 width="1190.551px" height="1190.551px" viewBox="0 0 1190.551 1190.551" enable-background="new 0 0 1190.551 1190.551"
	 xml:space="preserve">
<path fill="#010202" d="M950.013,460.469v-137.6H717.528v211.096H616.199v-99.214h83.124V300.678H533.074v-61.672h-99.212V126.385
	H284.156v58.991h-180.11v348.589h164.908v530.201c164.382,0,297.641-133.258,297.641-297.639c0-2.531-0.033-5.057-0.097-7.574
	h149.529v159.195h226.486V696.119l143.993-0.162V460.469H950.013z M268.953,437.433h183.679v94.875
	c-50.588-39.728-114.367-63.421-183.679-63.421V437.433z M454.694,533.965h111.135v211.291
	C559.796,659.826,517.711,584.361,454.694,533.965z"/>
</svg>
