<?xml version="1.0" encoding="utf-8"?>
<!-- Generator: Adobe Illustrator 16.0.0, SVG Export Plug-In . SVG Version: 6.00 Build 0)  -->
<!DOCTYPE svg PUBLIC "-//W3C//DTD SVG 1.1//EN" "http://www.w3.org/Graphics/SVG/1.1/DTD/svg11.dtd">
<svg version="1.1" id="Calque_1" xmlns="http://www.w3.org/2000/svg" xmlns:xlink="http://www.w3.org/1999/xlink" x="0px" y="0px"
	 width="1190.551px" height="1190.551px" viewBox="0 0 1190.551 1190.551" enable-background="new 0 0 1190.551 1190.551"
	 xml:space="preserve">
<path fill="#010202" d="M701,557.843V421.481h137.6V188.994H627.504V37.297H402.516v150.196H243.321v226.488H465.35l0.162,143.993
	H243.321v164.909h96.532v183.678h-96.532v163.569h99.213v83.124h134.074V987.006h61.672v-99.214h112.621V752.975
	c14.062,151.303,141.354,269.754,296.33,269.754V427.451C844.856,427.45,754.561,479.142,701,557.843z M591.909,738.085v-180.11h109
	c-32.385,47.642-51.318,105.165-51.318,167.114c0,4.356,0.115,8.687,0.299,12.996H591.909z"/>
</svg>
