<?xml version="1.0" encoding="utf-8"?>
<!-- Generator: Adobe Illustrator 16.0.0, SVG Export Plug-In . SVG Version: 6.00 Build 0)  -->
<!DOCTYPE svg PUBLIC "-//W3C//DTD SVG 1.1//EN" "http://www.w3.org/Graphics/SVG/1.1/DTD/svg11.dtd">
<svg version="1.1" id="Calque_1" xmlns="http://www.w3.org/2000/svg" xmlns:xlink="http://www.w3.org/1999/xlink" x="0px" y="0px"
	 width="1190.551px" height="1190.551px" viewBox="0 0 1190.551 1190.551" enable-background="new 0 0 1190.551 1190.551"
	 xml:space="preserve">
<path fill="#010202" d="M887.313,738.085v-180.11H701.924V421.481h137.6V188.994H628.428V37.297H403.44v150.196H244.245v226.488
	h222.029l0.16,142.225c-54.511-61.122-133.849-99.623-222.189-99.623v595.278c164.383,0,297.641-133.259,297.641-297.639
	c0-10.586-0.562-21.039-1.641-31.34h95.013v183.678h-96.534v163.569h99.213v83.124h134.076V987.006h61.67v-99.214h112.623V738.085
	H887.313z M468.004,557.975h70.721v152.847C530.236,652.73,504.973,600.093,468.004,557.975z"/>
</svg>
