<?xml version="1.0" encoding="utf-8"?>
<!-- Generator: Adobe Illustrator 16.0.0, SVG Export Plug-In . SVG Version: 6.00 Build 0)  -->
<!DOCTYPE svg PUBLIC "-//W3C//DTD SVG 1.1//EN" "http://www.w3.org/Graphics/SVG/1.1/DTD/svg11.dtd">
<svg version="1.1" id="Calque_1" xmlns="http://www.w3.org/2000/svg" xmlns:xlink="http://www.w3.org/1999/xlink" x="0px" y="0px"
	 width="1190.551px" height="1190.551px" viewBox="0 0 1190.551 1190.551" enable-background="new 0 0 1190.551 1190.551"
	 xml:space="preserve">
<path fill="#010202" d="M457.68,520.546V384.184h137.599V151.697H384.184V0H159.196v150.196H0v226.488H222.03l0.162,143.993H0
	v164.909h96.532v183.678H0v163.569h99.213v83.124h134.074V949.709h61.672v-99.214H407.58V715.678
	c14.062,151.303,141.354,269.754,296.33,269.754V390.154C601.535,390.153,511.24,441.845,457.68,520.546z M348.588,700.788v-180.11
	h109c-32.385,47.642-51.318,105.165-51.318,167.114c0,4.356,0.114,8.686,0.299,12.996H348.588z"/>
</svg>
