<?xml version="1.0" encoding="utf-8"?>
<!-- Generator: Adobe Illustrator 16.0.0, SVG Export Plug-In . SVG Version: 6.00 Build 0)  -->
<!DOCTYPE svg PUBLIC "-//W3C//DTD SVG 1.1//EN" "http://www.w3.org/Graphics/SVG/1.1/DTD/svg11.dtd">
<svg version="1.1" id="Calque_1" xmlns="http://www.w3.org/2000/svg" xmlns:xlink="http://www.w3.org/1999/xlink" x="0px" y="0px"
	 width="1190.551px" height="1190.551px" viewBox="0 0 1190.551 1190.551" enable-background="new 0 0 1190.551 1190.551"
	 xml:space="preserve">
<path fill="#010202" d="M845.968,334.084v-137.6H613.483V407.58H512.155v-99.214h83.124V174.293H429.03v-61.672h-99.212V0H180.111
	v58.991H0V407.58h164.908V937.78c164.382,0.001,297.641-133.257,297.641-297.638c0-2.532-0.033-5.057-0.096-7.574h149.529v159.196
	h226.486v-222.03l143.993-0.162V334.084H845.968z M164.908,311.048h183.679v94.875c-50.588-39.728-114.367-63.421-183.679-63.421
	V311.048z M350.649,407.58h111.135v211.291C455.751,533.441,413.666,457.976,350.649,407.58z"/>
</svg>
