<?xml version="1.0" encoding="utf-8"?>
<!-- Generator: Adobe Illustrator 16.0.0, SVG Export Plug-In . SVG Version: 6.00 Build 0)  -->
<!DOCTYPE svg PUBLIC "-//W3C//DTD SVG 1.1//EN" "http://www.w3.org/Graphics/SVG/1.1/DTD/svg11.dtd">
<svg version="1.1" id="Calque_1" xmlns="http://www.w3.org/2000/svg" xmlns:xlink="http://www.w3.org/1999/xlink" x="0px" y="0px"
	 width="1190.551px" height="1190.551px" viewBox="0 0 1190.551 1190.551" enable-background="new 0 0 1190.551 1190.551"
	 xml:space="preserve">
<path fill="#010202" d="M773.04,233.196c-106.397,0-199.738,55.839-252.362,139.799V137.599H384.184V0H151.697v211.095H0v224.988
	h150.196v159.195h29.914v58.992H0v348.588h164.908v-96.532h183.679v96.532h163.567v-99.213h83.124V769.577
	c49.604,36.994,111.124,58.896,177.762,58.896V233.196z M429.03,769.572V707.9h-99.212V595.279h46.867V373.249l143.935-0.162
	c-28.643,45.737-45.219,99.802-45.219,157.747c0,97.74,47.115,184.475,119.87,238.737H429.03z"/>
</svg>
