<?xml version="1.0" encoding="utf-8"?>
<!-- Generator: Adobe Illustrator 16.0.0, SVG Export Plug-In . SVG Version: 6.00 Build 0)  -->
<!DOCTYPE svg PUBLIC "-//W3C//DTD SVG 1.1//EN" "http://www.w3.org/Graphics/SVG/1.1/DTD/svg11.dtd">
<svg version="1.1" id="Calque_1" xmlns="http://www.w3.org/2000/svg" xmlns:xlink="http://www.w3.org/1999/xlink" x="0px" y="0px"
	 width="1190.551px" height="1190.551px" viewBox="0 0 1190.551 1190.551" enable-background="new 0 0 1190.551 1190.551"
	 xml:space="preserve">
<path fill="#010202" d="M981.795,327.042c-106.396,0-199.737,55.839-252.361,139.799V231.445H592.94V93.846H360.452v211.095H208.756
	v224.988h150.195v159.195h29.914v58.991H208.756v348.59h164.908v-96.533h183.679v96.533h163.566V997.49h83.124V863.424
	c49.604,36.994,111.124,58.895,177.762,58.895V327.042L981.795,327.042z M637.785,863.418v-61.672h-99.212V689.125h46.867v-222.03
	l143.935-0.162c-28.643,45.737-45.219,99.802-45.219,157.747c0,97.74,47.115,184.475,119.87,238.738H637.785L637.785,863.418z"/>
</svg>
