<?xml version="1.0" encoding="utf-8"?>
<!-- Generator: Adobe Illustrator 16.0.0, SVG Export Plug-In . SVG Version: 6.00 Build 0)  -->
<!DOCTYPE svg PUBLIC "-//W3C//DTD SVG 1.1//EN" "http://www.w3.org/Graphics/SVG/1.1/DTD/svg11.dtd">
<svg version="1.1" id="Calque_1" xmlns="http://www.w3.org/2000/svg" xmlns:xlink="http://www.w3.org/1999/xlink" x="0px" y="0px"
	 width="1190.551px" height="1190.551px" viewBox="0 0 1190.551 1190.551" enable-background="new 0 0 1190.551 1190.551"
	 xml:space="preserve">
<path fill="#010202" d="M643.069,700.788v-180.11H457.68V384.184h137.599V151.697H384.184V0H159.196v150.196H0v226.488H222.03
	l0.16,142.225c-54.511-61.122-133.849-99.623-222.19-99.623v595.278c164.383,0,297.641-133.258,297.641-297.638
	c0-10.586-0.562-21.039-1.641-31.34h95.014v183.678H294.48v163.569h99.214v83.124h134.075V949.709h61.671v-99.214h112.622V700.788
	H643.069z M223.759,520.678h70.721v152.846C285.991,615.434,260.729,562.796,223.759,520.678z"/>
</svg>
