<?xml version="1.0" encoding="utf-8"?>
<!-- Generator: Adobe Illustrator 16.0.0, SVG Export Plug-In . SVG Version: 6.00 Build 0)  -->
<!DOCTYPE svg PUBLIC "-//W3C//DTD SVG 1.1//EN" "http://www.w3.org/Graphics/SVG/1.1/DTD/svg11.dtd">
<svg version="1.1" id="Calque_1" xmlns="http://www.w3.org/2000/svg" xmlns:xlink="http://www.w3.org/1999/xlink" x="0px" y="0px"
	 width="1190.551px" height="1190.551px" viewBox="0 0 1190.551 1190.551" enable-background="new 0 0 1190.551 1190.551"
	 xml:space="preserve">
<path fill="#010202" d="M984.075,330.601c-109.542,0-205.247,59.187-256.922,147.315V253.042H576.956V93.846H350.469v222.03
	l-143.993,0.162v235.488H342.97v137.599h43.615v58.992H206.476v348.588h164.908v-96.532h183.679v96.532h163.566v-99.213h83.124
	V863.501c50.371,39.093,113.623,62.38,182.321,62.38L984.075,330.601L984.075,330.601z M635.505,863.418v-61.672h-99.212V689.125
	h39.163V478.03h151.63c-25.829,44.094-40.649,95.418-40.649,150.21c0,95.636,45.113,180.725,115.21,235.178H635.505L635.505,863.418
	z"/>
</svg>
