<?xml version="1.0" encoding="utf-8"?>
<!-- Generator: Adobe Illustrator 16.0.0, SVG Export Plug-In . SVG Version: 6.00 Build 0)  -->
<!DOCTYPE svg PUBLIC "-//W3C//DTD SVG 1.1//EN" "http://www.w3.org/Graphics/SVG/1.1/DTD/svg11.dtd">
<svg version="1.1" id="Calque_1" xmlns="http://www.w3.org/2000/svg" xmlns:xlink="http://www.w3.org/1999/xlink" x="0px" y="0px"
	 width="1190.551px" height="1190.551px" viewBox="0 0 1190.551 1190.551" enable-background="new 0 0 1190.551 1190.551"
	 xml:space="preserve">
<polygon fill="#010202" points="833.493,615.926 833.493,520.678 457.68,520.678 457.68,384.184 595.279,384.184 595.279,151.697 
	384.184,151.697 384.184,0 159.195,0 159.195,150.197 0,150.197 0,376.685 222.029,376.685 222.191,520.678 407.58,520.678 
	407.58,700.788 348.588,700.788 348.588,520.679 0,520.679 0,685.585 96.532,685.585 96.532,869.265 0,869.265 0,1032.832 
	99.213,1032.832 99.213,1115.956 233.287,1115.956 233.287,949.707 294.959,949.707 294.959,850.494 407.58,850.494 
	407.58,1111.925 612.45,1111.925 612.45,831.575 556.739,831.575 556.739,615.926 "/>
</svg>
