<?xml version="1.0" encoding="utf-8"?>
<!-- Generator: Adobe Illustrator 16.0.0, SVG Export Plug-In . SVG Version: 6.00 Build 0)  -->
<!DOCTYPE svg PUBLIC "-//W3C//DTD SVG 1.1//EN" "http://www.w3.org/Graphics/SVG/1.1/DTD/svg11.dtd">
<svg version="1.1" id="Calque_1" xmlns="http://www.w3.org/2000/svg" xmlns:xlink="http://www.w3.org/1999/xlink" x="0px" y="0px"
	 width="1190.551px" height="1190.551px" viewBox="0 0 1190.551 1190.551" enable-background="new 0 0 1190.551 1190.551"
	 xml:space="preserve">
<polygon fill="#010202" points="659.2,767.369 659.2,603.802 559.988,603.802 559.988,520.678 436.084,520.678 436.084,370.481 
	595.279,370.481 595.279,143.992 373.25,143.992 373.088,0 137.599,0 137.599,136.494 0,136.494 0,368.981 211.095,368.981 
	211.095,520.678 0,520.678 0,1111.925 204.871,1111.925 204.871,831.575 149.159,831.575 149.159,615.926 425.913,615.926 
	425.913,520.678 425.914,520.678 425.914,686.927 364.242,686.927 364.242,786.14 251.621,786.14 251.621,935.846 310.613,935.846 
	310.613,1115.956 659.2,1115.956 659.2,951.049 562.67,951.049 562.67,767.369 "/>
</svg>
