<?xml version="1.0" encoding="utf-8"?>
<!-- Generator: Adobe Illustrator 16.0.0, SVG Export Plug-In . SVG Version: 6.00 Build 0)  -->
<!DOCTYPE svg PUBLIC "-//W3C//DTD SVG 1.1//EN" "http://www.w3.org/Graphics/SVG/1.1/DTD/svg11.dtd">
<svg version="1.1" id="Calque_1" xmlns="http://www.w3.org/2000/svg" xmlns:xlink="http://www.w3.org/1999/xlink" x="0px" y="0px"
	 width="1190.551px" height="1190.551px" viewBox="0 0 1190.551 1190.551" enable-background="new 0 0 1190.551 1190.551"
	 xml:space="preserve">
<polygon fill="#010202" points="924.875,804.666 924.875,641.1 825.663,641.1 825.663,557.975 701.76,557.975 701.76,407.778 
	860.954,407.778 860.954,181.29 638.926,181.29 638.764,37.297 403.275,37.297 403.275,173.792 265.676,173.792 265.676,406.278 
	476.771,406.278 476.771,557.975 265.676,557.975 265.676,1149.223 470.547,1149.223 470.547,868.873 414.835,868.873 
	414.835,653.223 691.588,653.223 691.588,557.975 691.589,557.975 691.589,724.225 629.918,724.225 629.918,823.438 
	517.297,823.438 517.297,973.143 576.288,973.143 576.288,1153.254 924.875,1153.254 924.875,988.346 828.346,988.346 
	828.346,804.666 "/>
</svg>
