<?xml version="1.0" encoding="utf-8"?>
<!-- Generator: Adobe Illustrator 16.0.0, SVG Export Plug-In . SVG Version: 6.00 Build 0)  -->
<!DOCTYPE svg PUBLIC "-//W3C//DTD SVG 1.1//EN" "http://www.w3.org/Graphics/SVG/1.1/DTD/svg11.dtd">
<svg version="1.1" id="Calque_1" xmlns="http://www.w3.org/2000/svg" xmlns:xlink="http://www.w3.org/1999/xlink" x="0px" y="0px"
	 width="1190.551px" height="1190.551px" viewBox="0 0 1190.551 1190.551" enable-background="new 0 0 1190.551 1190.551"
	 xml:space="preserve">
<polygon fill="#010202" points="723.356,557.975 723.356,421.481 860.954,421.481 860.954,188.995 649.86,188.995 649.86,37.297 
	424.87,37.297 424.87,187.495 265.676,187.495 265.676,413.982 487.704,413.982 487.866,557.975 720.004,557.975 720.004,838.324 
	775.716,838.324 775.716,1053.975 498.963,1053.975 498.963,987.004 560.635,987.004 560.635,887.791 673.256,887.791 
	673.256,738.086 614.264,738.086 614.264,557.977 265.676,557.977 265.676,722.883 362.208,722.883 362.208,906.562 
	265.676,906.562 265.676,1070.129 364.889,1070.129 364.889,1153.254 498.963,1153.254 498.963,1149.223 924.875,1149.223 
	924.875,557.975 "/>
</svg>
