<?xml version="1.0" encoding="utf-8"?>
<!-- Generator: Adobe Illustrator 16.0.0, SVG Export Plug-In . SVG Version: 6.00 Build 0)  -->
<!DOCTYPE svg PUBLIC "-//W3C//DTD SVG 1.1//EN" "http://www.w3.org/Graphics/SVG/1.1/DTD/svg11.dtd">
<svg version="1.1" id="Calque_1" xmlns="http://www.w3.org/2000/svg" xmlns:xlink="http://www.w3.org/1999/xlink" x="0px" y="0px"
	 width="1190.551px" height="1190.551px" viewBox="0 0 1190.551 1190.551" enable-background="new 0 0 1190.551 1190.551"
	 xml:space="preserve">
<polygon fill="#010202" points="1153.254,265.654 1153.254,2.013 557.975,2.013 557.975,161.208 407.777,161.208 407.777,2.013 
	181.289,2.013 181.289,224.042 37.297,224.205 37.297,459.693 173.79,459.693 173.79,597.291 258.341,597.291 258.341,877.639 
	314.054,877.639 314.054,1093.292 37.297,1093.292 37.297,1188.538 463.209,1188.538 463.209,597.291 406.277,597.291 
	406.277,386.197 557.975,386.197 557.975,597.293 1153.254,597.293 1153.254,333.654 738.975,333.654 738.975,265.654 "/>
</svg>
