<?xml version="1.0" encoding="utf-8"?>
<!-- Generator: Adobe Illustrator 16.0.0, SVG Export Plug-In . SVG Version: 6.00 Build 0)  -->
<!DOCTYPE svg PUBLIC "-//W3C//DTD SVG 1.1//EN" "http://www.w3.org/Graphics/SVG/1.1/DTD/svg11.dtd">
<svg version="1.1" id="Calque_1" xmlns="http://www.w3.org/2000/svg" xmlns:xlink="http://www.w3.org/1999/xlink" x="0px" y="0px"
	 width="1190.551px" height="1190.551px" viewBox="0 0 1190.551 1190.551" enable-background="new 0 0 1190.551 1190.551"
	 xml:space="preserve">
<polygon fill="#010202" points="1115.957,263.641 1115.957,0 520.678,0 520.678,159.196 370.48,159.196 370.48,0 143.992,0 
	143.992,222.029 0,222.192 0,457.68 136.493,457.68 136.493,595.279 221.044,595.279 221.044,875.626 276.757,875.626 
	276.757,1091.279 0,1091.279 0,1186.525 425.913,1186.525 425.913,595.279 368.98,595.279 368.98,384.184 520.678,384.184 
	520.678,595.28 1115.957,595.28 1115.957,331.641 701.678,331.641 701.678,263.641 "/>
</svg>
