<?xml version="1.0" encoding="utf-8"?>
<!-- Generator: Adobe Illustrator 16.0.0, SVG Export Plug-In . SVG Version: 6.00 Build 0)  -->
<!DOCTYPE svg PUBLIC "-//W3C//DTD SVG 1.1//EN" "http://www.w3.org/Graphics/SVG/1.1/DTD/svg11.dtd">
<svg version="1.1" id="Calque_1" xmlns="http://www.w3.org/2000/svg" xmlns:xlink="http://www.w3.org/1999/xlink" x="0px" y="0px"
	 width="1190.551px" height="1190.551px" viewBox="0 0 1190.551 1190.551" enable-background="new 0 0 1190.551 1190.551"
	 xml:space="preserve">
<polygon fill="#010202" points="816.323,0 816.323,280.347 872.035,280.347 872.035,496 595.279,496 595.279,520.678 
	457.68,520.678 457.68,384.185 595.279,384.185 595.279,151.698 384.184,151.698 384.184,0 159.196,0 159.196,150.198 0,150.198 
	0,376.686 222.029,376.686 222.192,520.678 0,520.678 0,1115.957 595.279,1115.957 595.279,852.319 181,852.319 181,784.319 
	595.279,784.319 595.279,591.246 1021.194,591.246 1021.194,0 "/>
</svg>
