<?xml version="1.0" encoding="utf-8"?>
<!-- Generator: Adobe Illustrator 16.0.0, SVG Export Plug-In . SVG Version: 6.00 Build 0)  -->
<!DOCTYPE svg PUBLIC "-//W3C//DTD SVG 1.1//EN" "http://www.w3.org/Graphics/SVG/1.1/DTD/svg11.dtd">
<svg version="1.1" id="Calque_1" xmlns="http://www.w3.org/2000/svg" xmlns:xlink="http://www.w3.org/1999/xlink" x="0px" y="0px"
	 width="1190.551px" height="1190.551px" viewBox="0 0 1190.551 1190.551" enable-background="new 0 0 1190.551 1190.551"
	 xml:space="preserve">
<polygon fill="#010202" points="453.636,557.976 453.636,557.975 577.721,557.975 577.721,407.778 736.916,407.778 736.916,181.289 
	514.886,181.289 514.723,37.297 279.235,37.297 279.235,173.79 141.636,173.79 141.636,406.278 352.731,406.278 352.731,557.975 
	319.741,557.975 319.741,718.396 290.689,718.396 290.689,557.975 259.11,557.975 259.11,523.869 141.636,523.869 141.636,1067.027 
	188.373,1067.027 188.373,1115.38 267.953,1115.38 267.953,1074.605 386.689,1074.605 453.636,886.396 453.636,1153.254 
	751.276,1153.254 751.276,962.254 635.914,962.254 635.914,756.254 845.914,756.254 845.914,868.254 1048.914,868.254 
	1048.914,557.976 "/>
</svg>
