<?xml version="1.0" encoding="utf-8"?>
<!-- Generator: Adobe Illustrator 16.0.0, SVG Export Plug-In . SVG Version: 6.00 Build 0)  -->
<!DOCTYPE svg PUBLIC "-//W3C//DTD SVG 1.1//EN" "http://www.w3.org/Graphics/SVG/1.1/DTD/svg11.dtd">
<svg version="1.1" id="Calque_1" xmlns="http://www.w3.org/2000/svg" xmlns:xlink="http://www.w3.org/1999/xlink" x="0px" y="0px"
	 width="1190.551px" height="1190.551px" viewBox="0 0 1190.551 1190.551" enable-background="new 0 0 1190.551 1190.551"
	 xml:space="preserve">
<g>
	<polygon fill="#010202" points="361.795,544.475 586.785,544.475 586.785,394.278 745.98,394.278 745.98,167.789 523.95,167.789 
		523.787,23.797 288.299,23.797 288.299,160.29 150.7,160.29 150.7,392.778 361.795,392.778 	"/>
	<path fill="#010202" d="M999.077,1040.438V921.702l-188.211-66.947h-64.889V544.476H150.7v595.278h297.64v27h543.159v-46.736
		h48.352v-79.58H999.077L999.077,1040.438z M642.865,1017.702H482.447v31.579H448.34V948.754H332.979v-206h210v112h-60.531v133.896
		h160.419L642.865,1017.702L642.865,1017.702z"/>
</g>
</svg>
