<?xml version="1.0" encoding="utf-8"?>
<!-- Generator: Adobe Illustrator 16.0.0, SVG Export Plug-In . SVG Version: 6.00 Build 0)  -->
<!DOCTYPE svg PUBLIC "-//W3C//DTD SVG 1.1//EN" "http://www.w3.org/Graphics/SVG/1.1/DTD/svg11.dtd">
<svg version="1.1" id="Calque_1" xmlns="http://www.w3.org/2000/svg" xmlns:xlink="http://www.w3.org/1999/xlink" x="0px" y="0px"
	 width="1190.551px" height="1190.551px" viewBox="0 0 1190.551 1190.551" enable-background="new 0 0 1190.551 1190.551"
	 xml:space="preserve">
<polygon fill="#010202" points="541.74,551.239 541.74,407.778 700.935,407.778 700.935,181.29 478.906,181.29 478.742,37.297 
	243.254,37.297 243.254,173.791 105.656,173.791 105.656,406.278 316.75,406.278 316.75,557.975 541.74,557.975 541.74,597.975 
	493.386,597.975 493.386,677.555 534.161,677.555 534.161,796.291 700.933,855.615 509.935,855.615 509.935,970.977 
	303.935,970.977 303.935,760.977 415.935,760.977 415.935,557.977 105.656,557.977 105.656,1153.254 700.935,1153.254 
	700.935,855.615 722.371,863.24 1050.792,863.24 1050.792,729.344 890.371,729.344 890.371,700.291 1050.792,700.291 
	1050.792,668.713 1084.896,668.713 1084.896,551.239 "/>
</svg>
