<?xml version="1.0" encoding="utf-8"?>
<!-- Generator: Adobe Illustrator 16.0.0, SVG Export Plug-In . SVG Version: 6.00 Build 0)  -->
<!DOCTYPE svg PUBLIC "-//W3C//DTD SVG 1.1//EN" "http://www.w3.org/Graphics/SVG/1.1/DTD/svg11.dtd">
<svg version="1.1" id="Calque_1" xmlns="http://www.w3.org/2000/svg" xmlns:xlink="http://www.w3.org/1999/xlink" x="0px" y="0px"
	 width="1190.551px" height="1190.551px" viewBox="0 0 1190.551 1190.551" enable-background="new 0 0 1190.551 1190.551"
	 xml:space="preserve">
<polygon fill="#010202" points="436.085,513.942 436.085,370.481 595.28,370.481 595.28,143.992 373.25,143.992 373.087,0 
	137.599,0 137.599,136.493 0,136.493 0,368.981 211.095,368.981 211.095,520.678 436.084,520.678 436.084,560.678 387.731,560.678 
	387.731,640.258 428.506,640.258 428.506,758.994 595.278,818.317 404.28,818.317 404.28,933.679 198.28,933.679 198.28,723.679 
	310.28,723.679 310.28,520.679 0,520.679 0,1115.956 595.28,1115.956 595.28,818.318 616.716,825.943 945.137,825.943 
	945.137,692.046 784.716,692.046 784.716,662.994 945.137,662.994 945.137,631.415 979.241,631.415 979.241,513.942 "/>
</svg>
