<?xml version="1.0" encoding="utf-8"?>
<!-- Generator: Adobe Illustrator 16.0.0, SVG Export Plug-In . SVG Version: 6.00 Build 0)  -->
<!DOCTYPE svg PUBLIC "-//W3C//DTD SVG 1.1//EN" "http://www.w3.org/Graphics/SVG/1.1/DTD/svg11.dtd">
<svg version="1.1" id="Calque_1" xmlns="http://www.w3.org/2000/svg" xmlns:xlink="http://www.w3.org/1999/xlink" x="0px" y="0px"
	 width="1190.551px" height="1190.551px" viewBox="0 0 1190.551 1190.551" enable-background="new 0 0 1190.551 1190.551"
	 xml:space="preserve">
<polygon fill="#010202" points="1016.762,279.234 1016.762,141.635 784.273,141.635 784.273,352.73 632.575,352.73 632.575,141.635 
	334.936,141.635 334.936,332.635 450.297,332.635 450.297,538.635 240.297,538.635 240.297,426.635 37.297,426.635 37.297,736.916 
	71.403,736.916 71.403,870.811 231.823,870.811 231.823,899.861 71.403,899.861 71.403,931.441 37.297,931.441 37.297,1048.916 
	580.453,1048.916 580.453,1002.178 628.808,1002.178 628.808,922.6 588.033,922.6 588.033,803.861 399.823,736.916 632.575,736.916 
	632.575,577.719 782.773,577.719 782.773,736.916 1009.263,736.916 1009.263,514.885 1153.254,514.722 1153.254,279.234 "/>
</svg>
