<?xml version="1.0" encoding="utf-8"?>
<!-- Generator: Adobe Illustrator 16.0.0, SVG Export Plug-In . SVG Version: 6.00 Build 0)  -->
<!DOCTYPE svg PUBLIC "-//W3C//DTD SVG 1.1//EN" "http://www.w3.org/Graphics/SVG/1.1/DTD/svg11.dtd">
<svg version="1.1" id="Calque_1" xmlns="http://www.w3.org/2000/svg" xmlns:xlink="http://www.w3.org/1999/xlink" x="0px" y="0px"
	 width="1190.551px" height="1190.551px" viewBox="0 0 1190.551 1190.551" enable-background="new 0 0 1190.551 1190.551"
	 xml:space="preserve">
<polygon fill="#010202" points="312,520.679 312,520.678 436.085,520.678 436.085,370.481 595.28,370.481 595.28,143.992 
	373.25,143.992 373.087,0 137.599,0 137.599,136.493 0,136.493 0,368.981 211.095,368.981 211.095,520.678 178.105,520.678 
	178.105,681.099 149.053,681.099 149.053,520.678 117.474,520.678 117.474,486.572 0,486.572 0,1029.73 46.737,1029.73 
	46.737,1078.083 126.317,1078.083 126.317,1037.309 245.053,1037.309 312,849.099 312,1115.957 609.64,1115.957 609.64,924.957 
	494.279,924.957 494.279,718.957 704.279,718.957 704.279,830.957 907.279,830.957 907.279,520.679 "/>
</svg>
