<?xml version="1.0" encoding="utf-8"?>
<!-- Generator: Adobe Illustrator 16.0.0, SVG Export Plug-In . SVG Version: 6.00 Build 0)  -->
<!DOCTYPE svg PUBLIC "-//W3C//DTD SVG 1.1//EN" "http://www.w3.org/Graphics/SVG/1.1/DTD/svg11.dtd">
<svg version="1.1" id="Calque_1" xmlns="http://www.w3.org/2000/svg" xmlns:xlink="http://www.w3.org/1999/xlink" x="0px" y="0px"
	 width="1190.551px" height="1190.551px" viewBox="0 0 1190.551 1190.551" enable-background="new 0 0 1190.551 1190.551"
	 xml:space="preserve">
<path fill="#010202" d="M1078.186,620.061V501.324l-188.21-66.947H561.907c21.314-41.019,33.372-87.617,33.372-137.037
	C595.28,132.958,462.022-0.3,297.64-0.3S0,132.958,0,297.34c0,160.028,126.298,290.539,284.651,297.341H159.195v150.196H0v226.489
	h222.028l0.162,143.993H457.68V978.865h137.599V746.377h475.328V699.64h48.354v-79.579H1078.186z M721.976,597.324H561.555v31.579
	h-34.104v117.474H384.183V594.681h-73.554c109.184-4.69,203.114-68.191,250.926-159.636v133.227h160.421V597.324z"/>
</svg>
