<?xml version="1.0" encoding="utf-8"?>
<!-- Generator: Adobe Illustrator 16.0.0, SVG Export Plug-In . SVG Version: 6.00 Build 0)  -->
<!DOCTYPE svg PUBLIC "-//W3C//DTD SVG 1.1//EN" "http://www.w3.org/Graphics/SVG/1.1/DTD/svg11.dtd">
<svg version="1.1" id="Calque_1" xmlns="http://www.w3.org/2000/svg" xmlns:xlink="http://www.w3.org/1999/xlink" x="0px" y="0px"
	 width="1190.551px" height="1190.551px" viewBox="0 0 1190.551 1190.551" enable-background="new 0 0 1190.551 1190.551"
	 xml:space="preserve">
<path fill="#010202" d="M1093.542,536.677V417.94l-188.21-66.947H576.911V159.34H426.714V0.146H200.226v222.028l-143.992,0.163
	v235.489h136.493v137.599H340.91c-158.365,6.79-284.677,137.303-284.677,297.341c0,164.382,133.258,297.64,297.64,297.64
	s297.64-133.258,297.64-297.64c0-92.522-42.216-175.183-108.436-229.772h542.886v-46.736h48.354v-79.58H1093.542z M737.332,513.94
	H576.911v31.579h-34.105v117.255c-48.279-39.706-109.282-64.492-175.97-67.351h58.378V384.329h151.697v100.56h160.421V513.94z"/>
</svg>
