<?xml version="1.0" encoding="utf-8"?>
<!-- Generator: Adobe Illustrator 16.0.0, SVG Export Plug-In . SVG Version: 6.00 Build 0)  -->
<!DOCTYPE svg PUBLIC "-//W3C//DTD SVG 1.1//EN" "http://www.w3.org/Graphics/SVG/1.1/DTD/svg11.dtd">
<svg version="1.1" id="Calque_1" xmlns="http://www.w3.org/2000/svg" xmlns:xlink="http://www.w3.org/1999/xlink" x="0px" y="0px"
	 width="1190.551px" height="1190.551px" viewBox="0 0 1190.551 1190.551" enable-background="new 0 0 1190.551 1190.551"
	 xml:space="preserve">
<path fill="#010202" d="M915.022,369.213v160.421h-29.053V369.213h-31.578v-34.105H736.916c0-0.007,0-0.015,0-0.022
	c0-164.383-133.258-297.641-297.639-297.641c-164.382,0-297.64,133.258-297.64,297.64c0,160.02,126.284,290.526,284.625,297.341
	H279.236v136.491H141.637v232.488h211.096v151.699h224.988v-150.199h159.193V878.266h46.738v48.354h79.58v-40.773h118.734
	l66.947-188.211V369.213H915.022z M514.887,776.418l-0.162-143.991h-62.435c158.317-6.813,284.583-137.279,284.625-297.264v441.255
	H514.887z"/>
</svg>
