<?xml version="1.0" encoding="utf-8"?>
<!-- Generator: Adobe Illustrator 16.0.0, SVG Export Plug-In . SVG Version: 6.00 Build 0)  -->
<!DOCTYPE svg PUBLIC "-//W3C//DTD SVG 1.1//EN" "http://www.w3.org/Graphics/SVG/1.1/DTD/svg11.dtd">
<svg version="1.1" id="Calque_1" xmlns="http://www.w3.org/2000/svg" xmlns:xlink="http://www.w3.org/1999/xlink" x="0px" y="0px"
	 width="1190.551px" height="1190.551px" viewBox="0 0 1190.551 1190.551" enable-background="new 0 0 1190.551 1190.551"
	 xml:space="preserve">
<path fill="#010202" d="M785.941,376.578v-48.354H706.36v40.775H587.625l-4.041,11.36c7.606-26.299,11.695-54.091,11.695-82.84
	c0-164.382-133.258-297.641-297.64-297.641S0,133.137,0,297.519c0,161.602,128.791,293.117,289.329,297.519H143.992v222.028
	L0,817.228v235.489h136.493v137.599h232.487V979.22h151.697v-93.59h133.894V725.209h29.055V885.63h31.577v34.104h117.475V376.578
	H785.941z M520.678,754.232H370.481V595.037h-64.53c119.485-3.276,221.378-76.967,265.68-181.071l-50.952,143.243V754.232z"/>
</svg>
