<?xml version="1.0" encoding="utf-8"?>
<!-- Generator: Adobe Illustrator 16.0.0, SVG Export Plug-In . SVG Version: 6.00 Build 0)  -->
<!DOCTYPE svg PUBLIC "-//W3C//DTD SVG 1.1//EN" "http://www.w3.org/Graphics/SVG/1.1/DTD/svg11.dtd">
<svg version="1.1" id="Calque_1" xmlns="http://www.w3.org/2000/svg" xmlns:xlink="http://www.w3.org/1999/xlink" x="0px" y="0px"
	 width="1190.551px" height="1190.551px" viewBox="0 0 1190.551 1190.551" enable-background="new 0 0 1190.551 1190.551"
	 xml:space="preserve">
<path fill="#010202" d="M595.279,384.185V151.697H384.183V0H159.195v150.196H0v226.489h222.028l0.162,143.992H457.68V384.185h76.882
	v46.737h-48.354v79.581h40.775v118.453c-54.592-66.129-137.195-108.277-229.643-108.277c-164.382,0-297.64,133.258-297.64,297.64
	s133.258,297.641,297.64,297.641S594.98,982.7,594.98,818.319c0-71.751-25.393-137.569-67.677-188.967l187.89,66.833h328.421
	V562.291H883.193v-29.054h160.421v-31.578h34.105V384.185H595.279z"/>
</svg>
