<?xml version="1.0" encoding="utf-8"?>
<!-- Generator: Adobe Illustrator 16.0.0, SVG Export Plug-In . SVG Version: 6.00 Build 0)  -->
<!DOCTYPE svg PUBLIC "-//W3C//DTD SVG 1.1//EN" "http://www.w3.org/Graphics/SVG/1.1/DTD/svg11.dtd">
<svg version="1.1" id="Calque_1" xmlns="http://www.w3.org/2000/svg" xmlns:xlink="http://www.w3.org/1999/xlink" x="0px" y="0px"
	 width="1190.551px" height="1190.551px" viewBox="0 0 1190.551 1190.551" enable-background="new 0 0 1190.551 1190.551"
	 xml:space="preserve">
<path fill="#010202" d="M988.415,245.414V197.06h-79.579v40.775H790.1l-53.297,149.835c9.004-28.404,13.875-58.647,13.875-90.031
	C750.678,133.257,617.42,0,453.038,0s-297.64,133.258-297.64,297.64c0,164.382,133.258,297.64,297.64,297.64
	c0.066,0,0.133-0.002,0.199-0.002v222.023l-143.992,0.162v235.488h136.493v137.6h232.489V979.453h151.695V754.467H679.728V595.271
	H453.733c125.364-0.287,232.521-78.075,276.097-187.997l-6.678,18.771v328.42h133.896v-160.42H886.1v160.42h31.579v34.105h117.474
	V245.414H988.415z"/>
</svg>
