<?xml version="1.0" encoding="utf-8"?>
<!-- Generator: Adobe Illustrator 16.0.0, SVG Export Plug-In . SVG Version: 6.00 Build 0)  -->
<!DOCTYPE svg PUBLIC "-//W3C//DTD SVG 1.1//EN" "http://www.w3.org/Graphics/SVG/1.1/DTD/svg11.dtd">
<svg version="1.1" id="Calque_1" xmlns="http://www.w3.org/2000/svg" xmlns:xlink="http://www.w3.org/1999/xlink" x="0px" y="0px"
	 width="1190.551px" height="1190.551px" viewBox="0 0 1190.551 1190.551" enable-background="new 0 0 1190.551 1190.551"
	 xml:space="preserve">
<path fill="#010202" d="M1037.309,536.531V417.795l-188.21-66.947H520.678V159.195H370.481V0H143.992v222.028L0,222.191V457.68
	h136.493v137.599h148.184C126.312,602.068,0,732.582,0,892.62c0,164.382,133.258,297.64,297.64,297.64s297.64-133.258,297.64-297.64
	c0-92.522-42.216-175.182-108.436-229.772h542.886v-46.737h48.354v-79.58H1037.309z M681.099,513.795H520.678v31.579h-34.105
	v117.255c-48.28-39.706-109.283-64.492-175.97-67.351h58.378V384.183h151.697v100.56h160.421V513.795z"/>
</svg>
