<?xml version="1.0" encoding="utf-8"?>
<!-- Generator: Adobe Illustrator 16.0.0, SVG Export Plug-In . SVG Version: 6.00 Build 0)  -->
<!DOCTYPE svg PUBLIC "-//W3C//DTD SVG 1.1//EN" "http://www.w3.org/Graphics/SVG/1.1/DTD/svg11.dtd">
<svg version="1.1" id="Calque_1" xmlns="http://www.w3.org/2000/svg" xmlns:xlink="http://www.w3.org/1999/xlink" x="0px" y="0px"
	 width="1190.551px" height="1190.551px" viewBox="0 0 1190.551 1190.551" enable-background="new 0 0 1190.551 1190.551"
	 xml:space="preserve">
<path fill="#010202" d="M785.941,123.578V75.224H706.36v40.775H587.625l-66.947,188.21v-166.61H384.185V0H151.697v211.097H0v224.987
	h150.196v159.194h225.994C212.129,595.655,79.245,728.76,79.245,892.909c0,164.383,133.258,297.641,297.64,297.641
	s297.64-133.258,297.64-297.641c0-111.961-61.83-209.466-153.197-260.279h133.244V472.209h29.055V632.63h31.577v34.104h117.475
	V123.578H785.941z M376.885,595.27c-0.066,0-0.133,0.002-0.199,0.002V373.25l143.992-0.162v259.179
	C478.052,608.699,429.04,595.27,376.885,595.27z"/>
</svg>
