<?xml version="1.0" encoding="utf-8"?>
<!-- Generator: Adobe Illustrator 16.0.0, SVG Export Plug-In . SVG Version: 6.00 Build 0)  -->
<!DOCTYPE svg PUBLIC "-//W3C//DTD SVG 1.1//EN" "http://www.w3.org/Graphics/SVG/1.1/DTD/svg11.dtd">
<svg version="1.1" id="Calque_1" xmlns="http://www.w3.org/2000/svg" xmlns:xlink="http://www.w3.org/1999/xlink" x="0px" y="0px"
	 width="1190.551px" height="1190.551px" viewBox="0 0 1190.551 1190.551" enable-background="new 0 0 1190.551 1190.551"
	 xml:space="preserve">
<path fill="#010202" d="M512.537,503.441c51.247-53.466,82.743-126.014,82.743-205.922c0-164.382-133.258-297.641-297.64-297.641
	S0,133.137,0,297.519c0,161.602,128.791,293.117,289.329,297.519H143.992v222.028L0,817.228v235.489h136.493v137.599h232.487V979.22
	h151.697V754.233l172.076,61.209h328.421V681.546H860.754v-29.053h160.421v-31.579h34.104V503.441H512.537z M370.481,754.232
	V595.037h-64.53c80.944-2.22,153.81-36.758,206.173-91.173v46.312h-48.354v79.581h40.775v118.735l16.132,5.738H370.481z"/>
</svg>
