<?xml version="1.0" encoding="utf-8"?>
<!-- Generator: Adobe Illustrator 16.0.0, SVG Export Plug-In . SVG Version: 6.00 Build 0)  -->
<!DOCTYPE svg PUBLIC "-//W3C//DTD SVG 1.1//EN" "http://www.w3.org/Graphics/SVG/1.1/DTD/svg11.dtd">
<svg version="1.1" id="Calque_1" xmlns="http://www.w3.org/2000/svg" xmlns:xlink="http://www.w3.org/1999/xlink" x="0px" y="0px"
	 width="1190.551px" height="1190.551px" viewBox="0 0 1190.551 1190.551" enable-background="new 0 0 1190.551 1190.551"
	 xml:space="preserve">
<path fill="#010202" d="M832.717,245.414V197.06h-79.579v40.775H634.402l-53.297,149.835c9.004-28.404,13.875-58.647,13.875-90.031
	C594.98,133.258,461.722,0,297.34,0S-0.3,133.258-0.3,297.64s133.258,297.64,297.64,297.64c0.066,0,0.133-0.002,0.199-0.002v222.024
	l-143.992,0.162v235.487H290.04v137.601H522.53V979.453h151.695V754.467H524.03V595.271H298.034
	c125.365-0.287,232.521-78.075,276.097-187.997l-6.677,18.771v328.421H701.35V594.045h29.052v160.421h31.579v34.104h117.474V245.414
	H832.717z"/>
</svg>
