<?xml version="1.0" encoding="utf-8"?>
<!-- Generator: Adobe Illustrator 16.0.0, SVG Export Plug-In . SVG Version: 6.00 Build 0)  -->
<!DOCTYPE svg PUBLIC "-//W3C//DTD SVG 1.1//EN" "http://www.w3.org/Graphics/SVG/1.1/DTD/svg11.dtd">
<svg version="1.1" id="Calque_1" xmlns="http://www.w3.org/2000/svg" xmlns:xlink="http://www.w3.org/1999/xlink" x="0px" y="0px"
	 width="1190.551px" height="1190.551px" viewBox="0 0 1190.551 1190.551" enable-background="new 0 0 1190.551 1190.551"
	 xml:space="preserve">
<path fill="#010202" d="M595.616,510.416v46.736h-48.211c61.14-54.511,99.652-133.86,99.652-222.216
	c0-164.381-133.257-297.639-297.639-297.639s-297.64,133.258-297.64,297.64c0,164.382,133.258,297.64,297.64,297.64
	c75.958,0,145.257-28.469,197.847-75.299v79.457h40.773v118.734l59.316,21.1H425.328l-0.162-143.992h-75.748H189.677V769.07H52.078
	v232.486h211.096v151.697h224.988v-150.197h159.194V776.57l128.893,45.846h328.42V688.521h-160.42v-29.053h160.42v-31.58h34.105
	V510.416H595.616z"/>
</svg>
