<?xml version="1.0" encoding="utf-8"?>
<!-- Generator: Adobe Illustrator 16.0.0, SVG Export Plug-In . SVG Version: 6.00 Build 0)  -->
<!DOCTYPE svg PUBLIC "-//W3C//DTD SVG 1.1//EN" "http://www.w3.org/Graphics/SVG/1.1/DTD/svg11.dtd">
<svg version="1.1" id="Calque_1" xmlns="http://www.w3.org/2000/svg" xmlns:xlink="http://www.w3.org/1999/xlink" x="0px" y="0px"
	 width="1190.551px" height="1190.551px" viewBox="0 0 1190.551 1190.551" enable-background="new 0 0 1190.551 1190.551"
	 xml:space="preserve">
<path fill="#010202" d="M773.385,331.468v160.421h-29.053V331.468h-31.578v-34.105H595.279c0-0.007,0-0.015,0-0.022
	C595.28,132.958,462.022-0.3,297.64-0.3S0,132.958,0,297.34c0,160.02,126.284,290.526,284.625,297.341H137.599v136.492H0v232.488
	h211.096v151.698h224.988V965.161h159.194V840.52h46.737v48.354h79.581V848.1h118.735l66.946-188.21V331.468H773.385z
	 M373.25,738.672l-0.162-143.991h-62.434c158.316-6.814,284.583-137.279,284.625-297.264v441.255H373.25z"/>
</svg>
