<?xml version="1.0" encoding="utf-8"?>
<!-- Generator: Adobe Illustrator 16.0.0, SVG Export Plug-In . SVG Version: 6.00 Build 0)  -->
<!DOCTYPE svg PUBLIC "-//W3C//DTD SVG 1.1//EN" "http://www.w3.org/Graphics/SVG/1.1/DTD/svg11.dtd">
<svg version="1.1" id="Calque_1" xmlns="http://www.w3.org/2000/svg" xmlns:xlink="http://www.w3.org/1999/xlink" x="0px" y="0px"
	 width="1190.551px" height="1190.551px" viewBox="0 0 1190.551 1190.551" enable-background="new 0 0 1190.551 1190.551"
	 xml:space="preserve">
<path fill="#010202" d="M543.539,473.119v46.736h-48.211c61.139-54.511,99.652-133.86,99.652-222.216
	C594.98,133.258,461.722,0,297.34,0S-0.3,133.258-0.3,297.64s133.258,297.64,297.64,297.64c75.958,0,145.257-28.469,197.847-75.299
	v79.456h40.773v118.735l59.317,21.1H373.25l-0.162-143.992H297.34H137.599v136.493H0v232.488h211.096v151.697h224.988V965.761
	h159.194V739.273L724.17,785.12h328.421V651.225H892.17v-29.053h160.421v-31.579h34.105V473.119H543.539z"/>
</svg>
