<?xml version="1.0" encoding="utf-8"?>
<!-- Generator: Adobe Illustrator 16.0.0, SVG Export Plug-In . SVG Version: 6.00 Build 0)  -->
<!DOCTYPE svg PUBLIC "-//W3C//DTD SVG 1.1//EN" "http://www.w3.org/Graphics/SVG/1.1/DTD/svg11.dtd">
<svg version="1.1" id="Calque_1" xmlns="http://www.w3.org/2000/svg" xmlns:xlink="http://www.w3.org/1999/xlink" x="0px" y="0px"
	 width="1190.551px" height="1190.551px" viewBox="0 0 1190.551 1190.551" enable-background="new 0 0 1190.551 1190.551"
	 xml:space="preserve">
<path fill="#010202" d="M651.844,421.48V188.993H440.749V37.295H215.76v150.196H56.566V413.98h222.027l0.162,143.992h235.49V421.48
	h76.882v46.737h-48.354v79.581h40.775v118.454c-54.592-66.129-137.194-108.277-229.643-108.277
	c-164.382,0-297.64,133.258-297.64,297.641c0,164.381,133.258,297.641,297.64,297.641s297.639-133.26,297.639-297.641
	c0-71.752-25.393-137.57-67.676-188.969l187.889,66.834h328.422V599.586H939.758v-29.054h160.422v-31.578h34.105V421.48H651.844z"/>
</svg>
