<?xml version="1.0" encoding="utf-8"?>
<!-- Generator: Adobe Illustrator 16.0.0, SVG Export Plug-In . SVG Version: 6.00 Build 0)  -->
<!DOCTYPE svg PUBLIC "-//W3C//DTD SVG 1.1//EN" "http://www.w3.org/Graphics/SVG/1.1/DTD/svg11.dtd">
<svg version="1.1" id="Calque_1" xmlns="http://www.w3.org/2000/svg" xmlns:xlink="http://www.w3.org/1999/xlink" x="0px" y="0px"
	 width="1190.551px" height="1190.551px" viewBox="0 0 1190.551 1190.551" enable-background="new 0 0 1190.551 1190.551"
	 xml:space="preserve">
<path fill="#010202" d="M580.173,503.619c51.248-53.466,82.744-126.014,82.744-205.922c0-164.382-133.258-297.641-297.64-297.641
	S67.636,133.315,67.636,297.697c0,161.602,128.791,293.117,289.329,297.519H211.629v222.028l-143.992,0.162v235.488H204.13v137.6
	h232.486V979.398h151.697V754.412l172.076,61.209h328.422V681.725h-160.42v-29.053h160.42v-31.58h34.104V503.619H580.173z
	 M438.117,754.41V595.215h-64.529c80.943-2.22,153.81-36.758,206.172-91.173v46.312h-48.354v79.582h40.775V748.67l16.132,5.738
	H438.117V754.41z"/>
</svg>
