<?xml version="1.0" encoding="utf-8"?>
<!-- Generator: Adobe Illustrator 16.0.0, SVG Export Plug-In . SVG Version: 6.00 Build 0)  -->
<!DOCTYPE svg PUBLIC "-//W3C//DTD SVG 1.1//EN" "http://www.w3.org/Graphics/SVG/1.1/DTD/svg11.dtd">
<svg version="1.1" id="Calque_1" xmlns="http://www.w3.org/2000/svg" xmlns:xlink="http://www.w3.org/1999/xlink" x="0px" y="0px"
	 width="1190.551px" height="1190.551px" viewBox="0 0 1190.551 1190.551" enable-background="new 0 0 1190.551 1190.551"
	 xml:space="preserve">
<path fill="#010202" d="M964.877,123.579V75.225h-79.582V116H766.561l-66.947,188.21V137.6H563.121V0H330.633v211.097H178.936
	v224.987h150.195v159.194h225.994C391.065,595.656,258.181,728.76,258.181,892.91c0,164.383,133.258,297.641,297.64,297.641
	c164.382,0,297.64-133.258,297.64-297.641c0-111.961-61.83-209.467-153.197-260.279h133.244V472.209h29.055v160.421h31.576v34.104
	h117.477V123.579H964.877z M555.821,595.271c-0.066,0-0.133,0.002-0.199,0.002V373.25l143.992-0.162v259.179
	C656.989,608.699,607.975,595.271,555.821,595.271z"/>
</svg>
