<?xml version="1.0" encoding="utf-8"?>
<!-- Generator: Adobe Illustrator 16.0.0, SVG Export Plug-In . SVG Version: 6.00 Build 0)  -->
<!DOCTYPE svg PUBLIC "-//W3C//DTD SVG 1.1//EN" "http://www.w3.org/Graphics/SVG/1.1/DTD/svg11.dtd">
<svg version="1.1" id="Calque_1" xmlns="http://www.w3.org/2000/svg" xmlns:xlink="http://www.w3.org/1999/xlink" x="0px" y="0px"
	 width="1190.551px" height="1190.551px" viewBox="0 0 1190.551 1190.551" enable-background="new 0 0 1190.551 1190.551"
	 xml:space="preserve">
<path fill="#010202" d="M914.871,267.516v160.421H885.82V267.516h-31.58v-34.104H736.766v88.511
	C729.95,163.58,599.446,37.296,439.426,37.296c-164.382,0-297.64,133.258-297.64,297.64c0,164.382,133.258,297.64,297.64,297.64
	c160.02,0,290.524-126.284,297.34-284.625v428.618h-221.43l-0.162-143.992h-75.748H279.685V769.07H142.086v232.487h211.096v151.697
	H578.17v-150.198h159.193V776.567h46.139v48.354h79.581v-40.775H981.82l66.945-188.209V267.516H914.871z"/>
</svg>
