<?xml version="1.0" encoding="utf-8"?>
<!-- Generator: Adobe Illustrator 16.0.0, SVG Export Plug-In . SVG Version: 6.00 Build 0)  -->
<!DOCTYPE svg PUBLIC "-//W3C//DTD SVG 1.1//EN" "http://www.w3.org/Graphics/SVG/1.1/DTD/svg11.dtd">
<svg version="1.1" id="Calque_1" xmlns="http://www.w3.org/2000/svg" xmlns:xlink="http://www.w3.org/1999/xlink" x="0px" y="0px"
	 width="1190.551px" height="1190.551px" viewBox="0 0 1190.551 1190.551" enable-background="new 0 0 1190.551 1190.551"
	 xml:space="preserve">
<path fill="#010202" d="M1113.981,657.807V539.07l-188.21-66.947H597.701c21.314-41.019,33.372-87.617,33.372-137.037
	c0.001-164.382-133.257-297.64-297.639-297.64s-297.64,133.258-297.64,297.64c0,160.028,126.298,290.54,284.65,297.341H194.99
	v150.196H35.795v226.488h222.027l0.162,143.994h235.49v-136.494h137.599V784.123h475.328v-46.738h48.354v-79.578H1113.981
	L1113.981,657.807z M757.771,635.07H597.35v31.578h-34.104v117.475H419.978V632.427h-73.554
	c109.184-4.69,203.113-68.191,250.926-159.636v133.227h160.421V635.07L757.771,635.07z"/>
</svg>
