<?xml version="1.0" encoding="utf-8"?>
<!-- Generator: Adobe Illustrator 16.0.0, SVG Export Plug-In . SVG Version: 6.00 Build 0)  -->
<!DOCTYPE svg PUBLIC "-//W3C//DTD SVG 1.1//EN" "http://www.w3.org/Graphics/SVG/1.1/DTD/svg11.dtd">
<svg version="1.1" id="Calque_1" xmlns="http://www.w3.org/2000/svg" xmlns:xlink="http://www.w3.org/1999/xlink" x="0px" y="0px"
	 width="1190.551px" height="1190.551px" viewBox="0 0 1190.551 1190.551" enable-background="new 0 0 1190.551 1190.551"
	 xml:space="preserve">
<g>
	<circle fill="#010202" cx="297.34" cy="297.64" r="297.64"/>
	<polygon fill="#010202" points="942.521,357.765 942.521,198.57 716.031,198.57 716.031,420.599 572.039,420.761 572.039,613.212 
		548.505,613.212 548.505,595.28 509.052,595.28 509.052,613.212 468.704,613.212 468.704,595.28 429.255,595.28 429.255,613.212 
		386.601,613.212 386.601,595.28 347.152,595.28 347.152,613.212 307.7,613.212 307.7,595.28 297.34,595.28 268.249,595.28 
		268.249,613.212 225.661,613.212 225.661,595.28 186.208,595.28 186.208,613.212 149.222,613.212 149.222,595.28 109.771,595.28 
		109.771,613.212 77.496,613.212 77.496,595.28 38.043,595.28 38.043,613.212 19.724,613.212 19.724,656.249 0,656.249 0,697.493 
		19.724,697.493 19.724,731.566 0,731.566 0,772.809 19.724,772.809 19.724,805.089 0,805.089 0,846.331 19.724,846.331 
		19.724,881.971 0,881.971 0,923.218 19.724,923.218 19.724,958.103 0,958.103 0,999.346 19.724,999.346 19.724,1027.51 0,1027.51 
		0,1068.755 19.724,1068.755 19.724,1097.385 38.043,1097.385 38.043,1115.315 77.496,1115.315 77.496,1097.385 109.771,1097.385 
		109.771,1115.315 149.222,1115.315 149.222,1097.385 186.208,1097.385 186.208,1115.315 225.661,1115.315 225.661,1097.385 
		268.249,1097.385 268.249,1115.315 307.7,1115.315 307.7,1097.385 347.152,1097.385 347.152,1115.315 386.601,1115.315 
		386.601,1097.385 429.255,1097.385 429.255,1115.315 468.704,1115.315 468.704,1097.385 509.052,1097.385 509.052,1115.315 
		548.505,1115.315 548.505,1097.385 572.039,1097.385 572.039,1068.755 593.558,1068.755 593.558,1027.51 572.039,1027.51 
		572.039,999.346 593.558,999.346 593.558,958.103 572.039,958.103 572.039,923.218 593.558,923.218 593.558,881.971 
		572.039,881.971 572.039,846.331 593.558,846.331 593.558,805.089 572.039,805.089 572.039,772.809 593.558,772.809 
		593.558,731.566 572.039,731.566 572.039,697.493 593.558,697.493 593.558,656.249 708.532,656.249 708.532,793.848 
		941.021,793.848 941.021,582.753 1092.719,582.753 1092.719,357.765 	"/>
</g>
</svg>
