<?xml version="1.0" encoding="utf-8"?>
<!-- Generator: Adobe Illustrator 16.0.0, SVG Export Plug-In . SVG Version: 6.00 Build 0)  -->
<!DOCTYPE svg PUBLIC "-//W3C//DTD SVG 1.1//EN" "http://www.w3.org/Graphics/SVG/1.1/DTD/svg11.dtd">
<svg version="1.1" id="Calque_1" xmlns="http://www.w3.org/2000/svg" xmlns:xlink="http://www.w3.org/1999/xlink" x="0px" y="0px"
	 width="1190.551px" height="1190.551px" viewBox="0 0 1190.551 1190.551" enable-background="new 0 0 1190.551 1190.551"
	 xml:space="preserve">
<path fill="#010202" d="M965.584,396.538V237.344H739.095v222.028l-143.992,0.161V430.11h-17.931v-42.653h17.931v-39.449h-17.931
	v-39.452h17.931v-39.45h-17.931v-42.588h17.931v-39.453h-17.931v-36.986h17.931v-39.451h-17.931V78.352h17.931V38.899h-17.931V20.58
	h-43.038V0.856h-41.245V20.58h-34.07V0.856h-41.243V20.58h-32.279V0.856h-41.244V20.58h-35.639V0.856h-41.246V20.58h-34.886V0.856
	h-41.243V20.58h-28.165V0.856h-41.244V20.58H92.998v18.319h-17.93v39.453h17.93v32.274h-17.93v39.451h17.93v36.986h-17.93v39.453
	h17.93v42.588h-17.93v39.45h17.93v39.452h-17.93v39.449h17.93v42.653h-17.93v39.451h17.93v40.347h-17.93v39.452h17.93v23.536h28.631
	v21.518h41.244v-21.516h28.164v21.518h41.243v-21.518h34.886v21.518h41.246v-21.518h35.639v21.518h28.357h12.887v-21.518h32.279
	v21.518h41.243v-21.518h34.07v21.518h41.245v-21.518h43.038V549.36h17.931v145.246c-54.523-61.451-134.078-100.191-222.693-100.191
	c-164.382,0-297.64,133.258-297.64,297.641c0,164.381,133.258,297.641,297.64,297.641s297.64-133.26,297.64-297.641
	c0-75.566-28.176-144.543-74.576-197.033h136.124v137.6h232.488V621.525h151.698V396.538H965.584z M577.172,509.908v-40.347h17.931
	v40.347H577.172z"/>
</svg>
