<?xml version="1.0" encoding="utf-8"?>
<!-- Generator: Adobe Illustrator 16.0.0, SVG Export Plug-In . SVG Version: 6.00 Build 0)  -->
<!DOCTYPE svg PUBLIC "-//W3C//DTD SVG 1.1//EN" "http://www.w3.org/Graphics/SVG/1.1/DTD/svg11.dtd">
<svg version="1.1" id="Calque_1" xmlns="http://www.w3.org/2000/svg" xmlns:xlink="http://www.w3.org/1999/xlink" x="0px" y="0px"
	 width="1190.551px" height="1190.551px" viewBox="0 0 1190.551 1190.551" enable-background="new 0 0 1190.551 1190.551"
	 xml:space="preserve">
<g>
	<circle fill="#010202" cx="346.406" cy="335.258" r="297.64"/>
	<polygon fill="#010202" points="991.586,395.383 991.586,236.188 765.096,236.188 765.096,458.217 621.104,458.379 621.104,650.83 
		597.571,650.83 597.571,632.898 558.118,632.898 558.118,650.83 517.769,650.83 517.769,632.898 478.321,632.898 478.321,650.83 
		435.667,650.83 435.667,632.898 396.218,632.898 396.218,650.83 356.766,650.83 356.766,632.898 346.406,632.898 317.315,632.898 
		317.315,650.83 274.727,650.83 274.727,632.898 235.274,632.898 235.274,650.83 198.288,650.83 198.288,632.898 158.837,632.898 
		158.837,650.83 126.562,650.83 126.562,632.898 87.109,632.898 87.109,650.83 68.79,650.83 68.79,693.867 49.066,693.867 
		49.066,735.111 68.79,735.111 68.79,769.185 49.066,769.185 49.066,810.427 68.79,810.427 68.79,842.707 49.066,842.707 
		49.066,883.949 68.79,883.949 68.79,919.589 49.066,919.589 49.066,960.836 68.79,960.836 68.79,995.722 49.066,995.722 
		49.066,1036.964 68.79,1036.964 68.79,1065.128 49.066,1065.128 49.066,1106.373 68.79,1106.373 68.79,1135.003 87.109,1135.003 
		87.109,1152.933 126.562,1152.933 126.562,1135.003 158.837,1135.003 158.837,1152.933 198.288,1152.933 198.288,1135.003 
		235.274,1135.003 235.274,1152.933 274.727,1152.933 274.727,1135.003 317.315,1135.003 317.315,1152.933 356.766,1152.933 
		356.766,1135.003 396.218,1135.003 396.218,1152.933 435.667,1152.933 435.667,1135.003 478.321,1135.003 478.321,1152.933 
		517.769,1152.933 517.769,1135.003 558.118,1135.003 558.118,1152.933 597.571,1152.933 597.571,1135.003 621.104,1135.003 
		621.104,1106.373 642.623,1106.373 642.623,1065.128 621.104,1065.128 621.104,1036.964 642.623,1036.964 642.623,995.722 
		621.104,995.722 621.104,960.836 642.623,960.836 642.623,919.589 621.104,919.589 621.104,883.949 642.623,883.949 
		642.623,842.707 621.104,842.707 621.104,810.427 642.623,810.427 642.623,769.185 621.104,769.185 621.104,735.111 
		642.623,735.111 642.623,693.867 757.598,693.867 757.598,831.466 990.086,831.466 990.086,620.371 1141.785,620.371 
		1141.785,395.383 	"/>
</g>
</svg>
