<?xml version="1.0" encoding="utf-8"?>
<!-- Generator: Adobe Illustrator 16.0.0, SVG Export Plug-In . SVG Version: 6.00 Build 0)  -->
<!DOCTYPE svg PUBLIC "-//W3C//DTD SVG 1.1//EN" "http://www.w3.org/Graphics/SVG/1.1/DTD/svg11.dtd">
<svg version="1.1" id="Calque_1" xmlns="http://www.w3.org/2000/svg" xmlns:xlink="http://www.w3.org/1999/xlink" x="0px" y="0px"
	 width="1190.551px" height="1190.551px" viewBox="0 0 1190.551 1190.551" enable-background="new 0 0 1190.551 1190.551"
	 xml:space="preserve">
<path fill="#010202" d="M890.516,395.682V236.488H664.027v222.028l-143.992,0.161v-29.423h-17.931v-42.653h17.931v-39.449h-17.931
	v-39.452h17.931v-39.45h-17.931v-42.588h17.931v-39.453h-17.931v-36.986h17.931v-39.451h-17.931V77.496h17.931V38.043h-17.931
	V19.724h-43.038V0h-41.245v19.724h-34.071V0h-41.243v19.724h-32.279V0h-41.244v19.724h-35.639V0h-41.246v19.724h-34.886V0h-41.243
	v19.724H87.805V0H46.561v19.724H17.93v18.319H0v39.453h17.93v32.274H0v39.451h17.93v36.986H0v39.453h17.93v42.588H0v39.45h17.93
	v39.452H0v39.449h17.93v42.653H0v39.451h17.93v40.347H0v39.452h17.93v23.536h28.631v21.518h41.244V572.04h28.164v21.518h41.243
	V572.04h34.886v21.518h41.246V572.04h35.639v21.518h28.357h12.887V572.04h32.279v21.518h41.243V572.04h34.071v21.518h41.245V572.04
	h43.038v-23.536h17.931v145.245C465.51,632.298,385.955,593.558,297.34,593.558c-164.382,0-297.64,133.258-297.64,297.64
	s133.258,297.641,297.64,297.641s297.64-133.259,297.64-297.641c0-75.566-28.176-144.542-74.576-197.032h136.124v137.599h232.488
	V620.669h151.698V395.682H890.516z M502.104,509.052v-40.347h17.931v40.347H502.104z"/>
</svg>
