<?xml version="1.0" encoding="utf-8"?>
<!-- Generator: Adobe Illustrator 16.0.0, SVG Export Plug-In . SVG Version: 6.00 Build 0)  -->
<!DOCTYPE svg PUBLIC "-//W3C//DTD SVG 1.1//EN" "http://www.w3.org/Graphics/SVG/1.1/DTD/svg11.dtd">
<svg version="1.1" id="Calque_1" xmlns="http://www.w3.org/2000/svg" xmlns:xlink="http://www.w3.org/1999/xlink" x="0px" y="0px"
	 width="1190.551px" height="1190.551px" viewBox="0 0 1190.551 1190.551" enable-background="new 0 0 1190.551 1190.551"
	 xml:space="preserve">
<path fill="#010202" d="M1175.412,658.757l-35.431-223.7l-219.294,34.732l-22.686-142.193l-232.59,36.839l21.354,134.812
	l-131.251,20.788v-17.931h18.319v-43.038h19.724v-41.245h-19.724v-34.071h19.724v-41.243h-19.724v-32.279h19.724v-41.244h-19.724
	v-35.639h19.724v-41.246h-19.724v-34.886h19.724v-41.243h-19.724V87.805h19.724V46.561h-19.724V17.93h-18.319V0h-39.453v17.93
	h-32.275V0h-39.449v17.93H407.35V0h-39.453v17.93h-42.588V0h-39.451v17.93h-39.452V0h-39.448v17.93h-42.653V0h-39.451v17.93H84.506
	V0H45.054v17.93H21.518v28.631H0v41.244h21.518v28.164H0v41.243h21.518v34.886H0v41.246h21.518v35.639H0v41.244h21.518v32.279H0
	v41.243h21.518v34.071H0v41.245h21.518v43.038h23.536v17.932h39.452v-17.932h40.347v17.932h39.451v-17.932h42.653v17.932h39.448
	v-17.932h39.452v17.932h5.578c-28.554,0.577-57.505,5.287-86.071,14.568C49.029,585.401-36.529,753.315,14.268,909.652
	s218.712,241.894,375.049,191.097c148.131-48.131,232.695-201.409,197.955-350.357l208.455-33.016l23.729,149.829l222.22-35.195
	l-23.496-148.349L1175.412,658.757z M580.413,725.699C540.192,601.91,426.538,522.518,303.347,520.035h21.961v-17.932h42.588v17.932
	h39.453v-17.932h36.987v17.932h39.449v-17.932h32.275v17.932h39.447l-4.649,0.736l36.271,229.009
	C585.237,741.735,583.013,733.701,580.413,725.699z"/>
</svg>
