<?xml version="1.0" encoding="utf-8"?>
<!-- Generator: Adobe Illustrator 16.0.0, SVG Export Plug-In . SVG Version: 6.00 Build 0)  -->
<!DOCTYPE svg PUBLIC "-//W3C//DTD SVG 1.1//EN" "http://www.w3.org/Graphics/SVG/1.1/DTD/svg11.dtd">
<svg version="1.1" id="Calque_1" xmlns="http://www.w3.org/2000/svg" xmlns:xlink="http://www.w3.org/1999/xlink" x="0px" y="0px"
	 width="1190.551px" height="1190.551px" viewBox="0 0 1190.551 1190.551" enable-background="new 0 0 1190.551 1190.551"
	 xml:space="preserve">
<path fill="#010202" d="M904.22,395.682v-137.6H671.732v211.096H520.034v-24.842h-17.93V407.35h17.93v-39.453h-17.93v-42.588h17.93
	v-39.451h-17.93v-39.452h17.93v-39.448h-17.93v-42.653h17.93v-39.451h-17.93V84.506h17.93V45.054h-17.93V21.518h-28.631V0H432.23
	v21.518h-28.164V0h-41.243v21.518h-34.886V0h-41.246v21.518h-35.639V0h-41.244v21.518h-32.279V0h-41.242v21.518h-34.072V0H60.969
	v21.518H17.931v23.536H0v39.452h17.931v40.347H0v39.451h17.931v42.653H0v39.448h17.931v39.452H0v39.451h17.931v42.588H0v39.453
	h17.931v36.986H0v39.451h17.931v32.274H0v39.453h17.931v18.319h43.038v19.724h41.245v-19.724h34.072v19.724h41.242v-19.724h32.279
	v19.724h41.244v-19.724h35.639v19.724h10.649h30.597v-19.724h34.886v19.724h41.243v-19.724h28.164v19.724h41.244v-19.724h28.631
	v-18.319h17.93v138.234C465.51,632.298,385.955,593.558,297.34,593.558c-164.382,0-297.64,133.258-297.64,297.64
	s133.258,297.641,297.64,297.641s297.64-133.259,297.64-297.641c0-75.566-28.176-144.542-74.576-197.032h149.828v159.196h226.489
	v-222.03l143.993-0.162V395.682H904.22z M502.105,516.062v-32.274h17.93v32.274H502.105z"/>
</svg>
