<?xml version="1.0" encoding="utf-8"?>
<!-- Generator: Adobe Illustrator 16.0.0, SVG Export Plug-In . SVG Version: 6.00 Build 0)  -->
<!DOCTYPE svg PUBLIC "-//W3C//DTD SVG 1.1//EN" "http://www.w3.org/Graphics/SVG/1.1/DTD/svg11.dtd">
<svg version="1.1" id="Calque_1" xmlns="http://www.w3.org/2000/svg" xmlns:xlink="http://www.w3.org/1999/xlink" x="0px" y="0px"
	 width="1190.551px" height="1190.551px" viewBox="0 0 1190.551 1190.551" enable-background="new 0 0 1190.551 1190.551"
	 xml:space="preserve">
<path fill="#010202" d="M979.288,396.538v-137.6H746.8v211.096H595.102v39.874h-17.931v-40.347h17.931v-39.451h-17.931v-42.653
	h17.931v-39.449h-17.931v-39.452h17.931v-39.45h-17.931v-42.588h17.931v-39.453h-17.931v-36.986h17.931v-39.451h-17.931V78.352
	h17.931V38.898h-17.931V20.58h-43.038V0.855h-41.245V20.58h-34.07V0.855h-41.243V20.58h-32.279V0.855h-41.244V20.58h-35.639V0.855
	h-41.246V20.58h-34.886V0.855h-41.243V20.58h-28.164V0.855h-41.244V20.58H92.998v18.319h-17.93v39.453h17.93v32.274h-17.93v39.451
	h17.93v36.986h-17.93v39.453h17.93v42.588h-17.93v39.45h17.93v39.452h-17.93v39.449h17.93v42.653h-17.93v39.451h17.93v40.347h-17.93
	v39.452h17.93v23.536h28.631v21.518h41.244v-21.516h28.164v21.518h41.243v-21.518h34.886v21.518h41.246v-21.518h35.639v21.518
	h41.244v-21.518h32.279v21.518h41.243v-21.518h34.07v21.518h41.245v-21.518h43.038v-23.536h17.931v145.246
	c-54.523-61.451-134.078-100.191-222.693-100.191c-164.382,0-297.64,133.258-297.64,297.64s133.258,297.641,297.64,297.641
	s297.64-133.259,297.64-297.641c0-75.567-28.177-144.543-74.577-197.033H745.3v159.196h226.489v-222.03l143.993-0.162V396.538
	H979.288z"/>
</svg>
