<?xml version="1.0" encoding="utf-8"?>
<!-- Generator: Adobe Illustrator 16.0.0, SVG Export Plug-In . SVG Version: 6.00 Build 0)  -->
<!DOCTYPE svg PUBLIC "-//W3C//DTD SVG 1.1//EN" "http://www.w3.org/Graphics/SVG/1.1/DTD/svg11.dtd">
<svg version="1.1" id="Calque_1" xmlns="http://www.w3.org/2000/svg" xmlns:xlink="http://www.w3.org/1999/xlink" x="0px" y="0px"
	 width="1190.551px" height="1190.551px" viewBox="0 0 1190.551 1190.551" enable-background="new 0 0 1190.551 1190.551"
	 xml:space="preserve">
<path fill="#010202" d="M1066.153,514.273l60.32-123.674L917.514,288.683l-92.537,189.731l-136.346-66.5l-98.628,202.217
	L725,679.975l-69.555,142.604c-23.9-130.5-133.588-233.395-272.039-243.076c-27.358-1.913-54.106-0.046-79.749,5.122l-3.103-17.604
	l41.938-7.395l3.114,17.657l38.853-6.851l-3.113-17.657l38.853-6.851l3.114,17.657l38.85-6.851l-3.113-17.656l42.006-7.408
	l3.111,17.658l38.853-6.851l-3.112-17.658l39.732-7.006l3.114,17.657l38.853-6.851l-3.113-17.657l23.178-4.087l-4.973-28.196
	l21.191-3.736l-7.162-40.617l-21.191,3.736l-4.891-27.736l21.191-3.736l-7.162-40.616l-21.189,3.736l-6.059-34.356l21.189-3.736
	l-7.162-40.619l-21.189,3.736l-6.189-35.098l21.191-3.736l-7.162-40.617l-21.191,3.736l-5.604-31.789l21.189-3.736l-7.158-40.616
	l-21.193,3.736l-5.917-33.554l21.19-3.737l-7.161-40.618l-21.191,3.736l-7.474-42.384l-23.179,4.087l-3.115-17.656l-38.853,6.852
	l3.115,17.657L455.83,48l-3.112-17.659l-38.853,6.851l3.113,17.659l-42.005,7.406l-3.113-17.658l-38.85,6.85l3.113,17.658
	l-38.854,6.852L294.156,58.3l-38.852,6.851l3.113,17.659l-41.94,7.396l-3.113-17.659l-38.854,6.852l3.112,17.658l-36.424,6.423
	l-3.114-17.659l-38.852,6.851l3.114,17.659l-31.785,5.604l-3.113-17.659l-38.854,6.852l3.112,17.658l-18.037,3.178l7.474,42.386
	L1.72,171.773l7.162,40.618l19.424-3.425l5.917,33.555l-19.425,3.426l7.162,40.615l19.425-3.425l5.604,31.789l-19.424,3.425
	l7.161,40.617l19.426-3.425l6.188,35.098l-19.426,3.425l7.162,40.619l19.426-3.424l6.058,34.355l-19.424,3.425l7.161,40.616
	l19.424-3.425l4.891,27.736l-19.424,3.425l7.162,40.617l19.425-3.425l4.972,28.194l18.04-3.181l3.114,17.657l38.854-6.852
	l-3.113-17.657l31.784-5.604l3.113,17.657l38.853-6.852l-3.113-17.656l36.424-6.423l3.114,17.657l36.341-6.408
	C174.305,611.828,75.222,719.918,65.731,855.652c-11.467,163.98,112.171,306.211,276.152,317.678
	c163.98,11.467,306.21-112.172,317.677-276.152c1.77-25.305,0.312-50.088-4.004-73.955l203.223,99.121l97.332-199.557l129.49,62.975
	l103.229-211.654L1066.153,514.273z"/>
</svg>
