<?xml version="1.0" encoding="utf-8"?>
<!-- Generator: Adobe Illustrator 16.0.0, SVG Export Plug-In . SVG Version: 6.00 Build 0)  -->
<!DOCTYPE svg PUBLIC "-//W3C//DTD SVG 1.1//EN" "http://www.w3.org/Graphics/SVG/1.1/DTD/svg11.dtd">
<svg version="1.1" id="Calque_1" xmlns="http://www.w3.org/2000/svg" xmlns:xlink="http://www.w3.org/1999/xlink" x="0px" y="0px"
	 width="1190.551px" height="1190.551px" viewBox="0 0 1190.551 1190.551" enable-background="new 0 0 1190.551 1190.551"
	 xml:space="preserve">
<path fill="#010202" d="M979.288,396.538v-137.6H746.8v211.096H595.102v-24.842h-17.93v-36.986h17.93v-39.453h-17.93v-42.588h17.93
	v-39.451h-17.93v-39.452h17.93v-39.448h-17.93v-42.653h17.93V125.71h-17.93V85.362h17.93V45.91h-17.93V22.374h-28.631V0.856h-41.243
	v21.518h-28.164V0.856h-41.243v21.518h-34.886V0.856h-41.246v21.518H326.12V0.856h-41.244v21.518h-32.279V0.856h-41.241v21.518
	h-34.072V0.856h-41.246v21.518H92.999V45.91H75.069v39.452h17.931v40.347H75.069v39.451h17.931v42.653H75.069v39.448h17.931v39.452
	H75.069v39.451h17.931v42.588H75.069v39.453h17.931v36.986H75.069v39.451h17.931v32.274H75.069v39.453h17.931v18.319h43.038v19.724
	h41.245v-19.724h34.072v19.724h41.241v-19.724h32.279v19.724h41.244v-19.724h35.639v19.724h10.649h30.597v-19.724h34.886v19.724
	h41.243v-19.724h28.164v19.724h41.244v-19.724h28.631v-18.319h17.93v138.234c-54.523-61.449-134.078-100.189-222.693-100.189
	c-164.382,0-297.64,133.258-297.64,297.641c0,164.381,133.258,297.641,297.64,297.641s297.64-133.26,297.64-297.641
	c0-75.566-28.176-144.543-74.576-197.033H745.3v159.197h226.489V632.188l143.993-0.162V396.538H979.288z M577.173,516.918v-32.274
	h17.93v32.274H577.173z"/>
</svg>
