<?xml version="1.0" encoding="utf-8"?>
<!-- Generator: Adobe Illustrator 16.0.0, SVG Export Plug-In . SVG Version: 6.00 Build 0)  -->
<!DOCTYPE svg PUBLIC "-//W3C//DTD SVG 1.1//EN" "http://www.w3.org/Graphics/SVG/1.1/DTD/svg11.dtd">
<svg version="1.1" id="Calque_1" xmlns="http://www.w3.org/2000/svg" xmlns:xlink="http://www.w3.org/1999/xlink" x="0px" y="0px"
	 width="1190.551px" height="1190.551px" viewBox="0 0 1190.551 1190.551" enable-background="new 0 0 1190.551 1190.551"
	 xml:space="preserve">
<path fill="#010202" d="M1005.141,442.107V304.508H772.653v211.095H620.954v-4.361h21.52v-41.244h-21.52v-28.164h21.52v-41.242
	h-21.52v-34.887h21.52v-41.246h-21.52V288.82h21.52v-41.244h-21.52v-32.279h21.52v-41.242h-21.52v-34.072h21.52V98.737h-21.52
	V55.699h-23.533V37.768h-39.453v17.931h-40.349V37.768h-39.448v17.931h-42.654V37.768h-39.449v17.931h-39.451V37.768h-39.451v17.931
	h-42.588V37.768h-39.453v17.931h-36.986V37.768h-39.451v17.931h-32.274V37.768H86.959v17.931H68.64v43.038H48.916v41.245H68.64
	v34.072H48.916v41.242H68.64v32.279H48.916v41.244H68.64v35.639H48.916v41.246H68.64v34.887H48.916v41.242H68.64v28.164H48.916
	v41.244H68.64v28.631h18.319v17.931h39.453v-17.931h32.273v17.931h39.451v-17.931h36.986v17.931h39.453v-17.931h42.588v17.931
	h16.376C175.2,564.618,48.916,695.125,48.916,855.143c0,164.383,133.258,297.641,297.64,297.641s297.64-133.258,297.64-297.641
	c0-40.598-8.141-79.289-22.857-114.553h149.814v159.195h226.489V677.758l143.993-0.162V442.107H1005.141z M356.616,557.691v-17.818
	h39.45v17.931h39.449v-17.931h42.654v17.931h39.448v-17.931h40.349v17.931h39.453v-17.931h23.533v199.781
	C577.089,635.555,475.711,561.649,356.616,557.691z"/>
</svg>
