<?xml version="1.0" encoding="utf-8"?>
<!-- Generator: Adobe Illustrator 16.0.0, SVG Export Plug-In . SVG Version: 6.00 Build 0)  -->
<!DOCTYPE svg PUBLIC "-//W3C//DTD SVG 1.1//EN" "http://www.w3.org/Graphics/SVG/1.1/DTD/svg11.dtd">
<svg version="1.1" id="Calque_1" xmlns="http://www.w3.org/2000/svg" xmlns:xlink="http://www.w3.org/1999/xlink" x="0px" y="0px"
	 width="1190.551px" height="1190.551px" viewBox="0 0 1190.551 1190.551" enable-background="new 0 0 1190.551 1190.551"
	 xml:space="preserve">
<path fill="#010202" d="M968.887,520.799V369.102H743.899v150.197H584.704v-22.615h19.724v-41.245h-19.724v-34.071h19.724v-41.243
	h-19.724v-32.279h19.724v-41.244h-19.724v-35.639h19.724v-41.246h-19.724v-34.886h19.724v-41.243h-19.724v-28.165h19.724V84.179
	h-19.724V55.548h-18.319v-17.93h-39.453v17.93h-32.275v-17.93h-39.448v17.93h-36.988v-17.93h-39.453v17.93h-42.588v-17.93h-39.451
	v17.93h-39.452v-17.93h-39.447v17.93h-42.653v-17.93h-39.451v17.93H95.376v-17.93H55.924v17.93H32.387v28.631H10.87v41.244h21.518
	v28.164H10.87v41.243h21.518v34.886H10.87v41.246h21.518v35.639H10.87v41.244h21.518v32.279H10.87v41.243h21.518v34.071H10.87
	v41.245h21.518v43.038h23.536v17.932h39.452v-17.932h40.347v17.932h39.451v-17.932h42.653v17.932h39.447v-17.932h39.452v17.932
	h11.482h27.969v-17.932h42.588v17.932h39.453v-17.932h36.987v17.932h39.448v-17.932h32.275v17.932h39.453v-17.932h18.319v205.209
	c-43.84-109.738-151.105-187.277-276.492-187.277c-164.382,0-297.64,133.257-297.64,297.64c0,164.382,133.258,297.64,297.64,297.64
	s297.64-133.258,297.64-297.64c0-38.667-7.377-75.61-20.795-109.504h221.678l0.162,143.992h235.488V753.288h137.598V520.799H968.887
	z"/>
</svg>
