<?xml version="1.0" encoding="utf-8"?>
<!-- Generator: Adobe Illustrator 16.0.0, SVG Export Plug-In . SVG Version: 6.00 Build 0)  -->
<!DOCTYPE svg PUBLIC "-//W3C//DTD SVG 1.1//EN" "http://www.w3.org/Graphics/SVG/1.1/DTD/svg11.dtd">
<svg version="1.1" id="Calque_1" xmlns="http://www.w3.org/2000/svg" xmlns:xlink="http://www.w3.org/1999/xlink" x="0px" y="0px"
	 width="1190.551px" height="1190.551px" viewBox="0 0 1190.551 1190.551" enable-background="new 0 0 1190.551 1190.551"
	 xml:space="preserve">
<path fill="#010202" d="M890.516,394.756V235.561H664.027V457.59l-143.992,0.162v-13.416h-17.93V407.35h17.93v-39.453h-17.93
	v-42.588h17.93v-39.451h-17.93v-39.452h17.93v-39.448h-17.93v-42.653h17.93v-39.451h-17.93V84.506h17.93V45.054h-17.93V21.518
	h-28.631V0H432.23v21.518h-28.164V0h-41.243v21.518h-34.886V0h-41.246v21.518h-35.639V0h-41.244v21.518h-32.279V0h-41.242v21.518
	h-34.072V0H60.969v21.518H17.931v23.536H0v39.452h17.931v40.347H0v39.451h17.931v42.653H0v39.448h17.931v39.452H0v39.451h17.931
	v42.588H0v39.453h17.931v36.986H0v39.451h17.931v32.274H0v39.453h17.931v18.319h43.038v19.724h41.245v-19.724h34.072v19.724h41.242
	v-19.724h32.279v19.724h41.244v-19.724h35.639v19.645C127.384,599.243,0,730.184,0,890.898
	c0,164.383,133.258,297.641,297.64,297.641s297.64-133.258,297.64-297.641c0-75.867-28.401-145.091-75.131-197.658h136.379v137.6
	h232.488V619.743h151.698V394.756H890.516z M502.105,483.787h17.93v32.274h-17.93V483.787z M310.654,593.558h17.283v-19.724h34.886
	v19.724h41.243v-19.724h28.164v19.724h41.244v-19.724h28.631v-18.319h17.93v137.597
	C468.207,634.877,393.863,597.139,310.654,593.558z"/>
</svg>
