<?xml version="1.0" encoding="utf-8"?>
<!-- Generator: Adobe Illustrator 16.0.0, SVG Export Plug-In . SVG Version: 6.00 Build 0)  -->
<!DOCTYPE svg PUBLIC "-//W3C//DTD SVG 1.1//EN" "http://www.w3.org/Graphics/SVG/1.1/DTD/svg11.dtd">
<svg version="1.1" id="Calque_1" xmlns="http://www.w3.org/2000/svg" xmlns:xlink="http://www.w3.org/1999/xlink" x="0px" y="0px"
	 width="1190.551px" height="1190.551px" viewBox="0 0 1190.551 1190.551" enable-background="new 0 0 1190.551 1190.551"
	 xml:space="preserve">
<path fill="#010202" d="M965.434,395.762V236.567H738.946v222.029l-143.993,0.162v-13.416h-17.93v-36.986h17.93v-39.453h-17.93
	v-42.588h17.93v-39.451h-17.93v-39.452h17.93v-39.448h-17.93v-42.653h17.93V125.86h-17.93V85.512h17.93V46.06h-17.93V22.524h-28.631
	V1.006h-41.244v21.518h-28.164V1.006h-41.243v21.518h-34.886V1.006h-41.246v21.518H325.97V1.006h-41.244v21.518h-32.279V1.006
	h-41.241v21.518h-34.072V1.006h-41.246v21.518H92.849V46.06H74.919v39.452h17.931v40.347H74.919v39.451h17.931v42.653H74.919v39.448
	h17.931v39.452H74.919v39.451h17.931v42.588H74.919v39.453h17.931v36.986H74.919v39.451h17.931v32.274H74.919v39.453h17.931v18.319
	h43.038v19.724h41.245v-19.724h34.072v19.724h41.241v-19.724h32.279v19.724h41.244v-19.724h35.639v19.645
	C202.302,600.249,74.919,731.189,74.919,891.904c0,164.383,133.258,297.641,297.64,297.641s297.639-133.258,297.639-297.641
	c0-75.867-28.4-145.092-75.13-197.658h136.378v137.6h232.488V620.749h151.699V395.762H965.434z M577.023,484.793h17.93v32.274
	h-17.93V484.793L577.023,484.793z M385.572,594.564h17.283V574.84h34.886v19.724h41.243V574.84h28.164v19.724h41.244V574.84h28.631
	v-18.319h17.93v137.597C543.125,635.883,468.781,598.145,385.572,594.564z"/>
</svg>
