<?xml version="1.0" encoding="utf-8"?>
<!-- Generator: Adobe Illustrator 16.0.0, SVG Export Plug-In . SVG Version: 6.00 Build 0)  -->
<!DOCTYPE svg PUBLIC "-//W3C//DTD SVG 1.1//EN" "http://www.w3.org/Graphics/SVG/1.1/DTD/svg11.dtd">
<svg version="1.1" id="Calque_1" xmlns="http://www.w3.org/2000/svg" xmlns:xlink="http://www.w3.org/1999/xlink" x="0px" y="0px"
	 width="1190.551px" height="1190.551px" viewBox="0 0 1190.551 1190.551" enable-background="new 0 0 1190.551 1190.551"
	 xml:space="preserve">
<path fill="#010202" d="M1183.171,696.334l-35.431-223.7l-219.294,34.732L905.76,365.173l-232.59,36.839l21.354,134.812
	l-131.251,20.788v-17.931h18.318v-43.038h19.725v-41.244h-19.725v-34.071h19.725v-41.243h-19.725v-32.279h19.725v-41.244h-19.725
	v-35.639h19.725v-41.246h-19.725V194.79h19.725v-41.243h-19.725v-28.165h19.725V84.138h-19.725V55.507h-18.318v-17.93h-39.453v17.93
	h-32.275v-17.93h-39.448v17.93H415.11v-17.93h-39.453v17.93h-42.588v-17.93h-39.451v17.93h-39.452v-17.93h-39.447v17.93h-42.653
	v-17.93h-39.451v17.93H92.266v-17.93H52.814v17.93H29.278v28.631H7.76v41.244h21.518v28.164H7.76v41.243h21.518v34.886H7.76v41.246
	h21.518v35.639H7.76v41.244h21.518v32.279H7.76v41.243h21.518v34.07H7.76v41.245h21.518v43.038h23.536v17.932h39.452V539.68h40.347
	v17.932h39.451V539.68h42.653v17.932h39.447V539.68h39.452v17.932h5.578c-28.554,0.577-57.505,5.287-86.071,14.568
	C56.788,622.978-28.769,790.893,22.028,947.229s218.712,241.894,375.049,191.097c148.131-48.131,232.695-201.409,197.955-350.357
	l208.455-33.016l23.729,149.829l222.221-35.195l-23.496-148.349L1183.171,696.334z M588.172,763.276
	c-40.221-123.789-153.875-203.182-277.065-205.665h21.961V539.68h42.588v17.932h39.453V539.68h36.987v17.932h39.448V539.68h32.275
	v17.932h39.447l-4.649,0.736l36.271,229.01C592.996,779.312,590.773,771.278,588.172,763.276z"/>
</svg>
