<?xml version="1.0" encoding="utf-8"?>
<!-- Generator: Adobe Illustrator 16.0.0, SVG Export Plug-In . SVG Version: 6.00 Build 0)  -->
<!DOCTYPE svg PUBLIC "-//W3C//DTD SVG 1.1//EN" "http://www.w3.org/Graphics/SVG/1.1/DTD/svg11.dtd">
<svg version="1.1" id="Calque_1" xmlns="http://www.w3.org/2000/svg" xmlns:xlink="http://www.w3.org/1999/xlink" x="0px" y="0px"
	 width="1190.551px" height="1190.551px" viewBox="0 0 1190.551 1190.551" enable-background="new 0 0 1190.551 1190.551"
	 xml:space="preserve">
<path fill="#010202" d="M904.22,395.682v-137.6H671.732v211.096H520.034v39.874h-17.931v-40.347h17.931v-39.451h-17.931v-42.653
	h17.931v-39.449h-17.931v-39.452h17.931v-39.45h-17.931v-42.588h17.931v-39.453h-17.931v-36.986h17.931v-39.451h-17.931V77.496
	h17.931V38.043h-17.931V19.724h-43.038V0h-41.245v19.724h-34.071V0h-41.243v19.724h-32.279V0h-41.244v19.724h-35.639V0h-41.246
	v19.724h-34.886V0h-41.243v19.724H87.805V0H46.561v19.724H17.93v18.319H0v39.453h17.93v32.274H0v39.451h17.93v36.986H0v39.453h17.93
	v42.588H0v39.45h17.93v39.452H0v39.449h17.93v42.653H0v39.451h17.93v40.347H0v39.452h17.93v23.536h28.631v21.518h41.244V572.04
	h28.164v21.518h41.243V572.04h34.886v21.518h41.246V572.04h35.639v21.518h41.244V572.04h32.279v21.518h41.243V572.04h34.071v21.518
	h41.245V572.04h43.038v-23.536h17.931V693.75C465.51,632.299,385.955,593.559,297.34,593.559
	c-164.382,0-297.64,133.258-297.64,297.64s133.258,297.641,297.64,297.641s297.64-133.259,297.64-297.641
	c0-75.567-28.177-144.543-74.577-197.033h149.829v159.196h226.489v-222.03l143.993-0.162V395.682H904.22z"/>
</svg>
