<?xml version="1.0" encoding="utf-8"?>
<!-- Generator: Adobe Illustrator 16.0.0, SVG Export Plug-In . SVG Version: 6.00 Build 0)  -->
<!DOCTYPE svg PUBLIC "-//W3C//DTD SVG 1.1//EN" "http://www.w3.org/Graphics/SVG/1.1/DTD/svg11.dtd">
<svg version="1.1" id="Calque_1" xmlns="http://www.w3.org/2000/svg" xmlns:xlink="http://www.w3.org/1999/xlink" x="0px" y="0px"
	 width="1190.551px" height="1190.551px" viewBox="0 0 1190.551 1190.551" enable-background="new 0 0 1190.551 1190.551"
	 xml:space="preserve">
<path fill="#010202" d="M956.225,404.339V266.74H723.737v211.095H572.039v-4.361h21.519V432.23h-21.519v-28.164h21.519v-41.242
	h-21.519v-34.887h21.519v-41.246h-21.519v-35.639h21.519v-41.244h-21.519v-32.279h21.519v-41.242h-21.519v-34.072h21.519V60.969
	h-21.519V17.931h-23.534V0h-39.453v17.931h-40.348V0h-39.449v17.931h-42.654V0h-39.449v17.931H307.7V0h-39.451v17.931h-42.588V0
	h-39.453v17.931h-36.986V0h-39.451v17.931H77.496V0H38.043v17.931H19.724v43.038H0v41.245h19.724v34.072H0v41.242h19.724v32.279H0
	v41.244h19.724v35.639H0v41.246h19.724v34.887H0v41.242h19.724v28.164H0v41.244h19.724v28.631h18.319v17.931h39.453v-17.931h32.274
	v17.931h39.451v-17.931h36.986v17.931h39.453v-17.931h42.588v17.931h16.376C126.284,526.85,0,657.356,0,817.375
	c0,164.382,133.258,297.64,297.64,297.64s297.64-133.258,297.64-297.64c0-40.598-8.141-79.29-22.858-114.553h149.815v159.195
	h226.489V639.989l143.993-0.161V404.339H956.225z M307.7,519.923v-17.818h39.451v17.931h39.449v-17.931h42.654v17.931h39.449
	v-17.931h40.348v17.931h39.453v-17.931h23.534v199.782C528.173,597.786,426.795,523.881,307.7,519.923z"/>
</svg>
