<?xml version="1.0" encoding="utf-8"?>
<!-- Generator: Adobe Illustrator 16.0.0, SVG Export Plug-In . SVG Version: 6.00 Build 0)  -->
<!DOCTYPE svg PUBLIC "-//W3C//DTD SVG 1.1//EN" "http://www.w3.org/Graphics/SVG/1.1/DTD/svg11.dtd">
<svg version="1.1" id="Calque_1" xmlns="http://www.w3.org/2000/svg" xmlns:xlink="http://www.w3.org/1999/xlink" x="0px" y="0px"
	 width="1190.551px" height="1190.551px" viewBox="0 0 1190.551 1190.551" enable-background="new 0 0 1190.551 1190.551"
	 xml:space="preserve">
<path fill="#010202" d="M1135.041,346.75l-72.77-223.962l-129.812,42.179L889.939,34.103l-221.109,71.843l65.233,200.763
	L589.98,353.524c21.025-109.799-20.963-226.919-117.391-296.979C339.602-40.076,153.466-10.595,56.845,122.393
	c-96.621,132.987-67.141,319.122,65.848,415.744c95.093,69.089,217.354,73.688,314.638,22.086l-32.119,18.542l8.966,15.528
	l-36.882,21.293l-8.965-15.528l-34.167,19.727l8.966,15.527l-34.167,19.727l-8.964-15.528l-34.165,19.725l8.965,15.528
	l-36.938,21.326l-8.964-15.527l-34.166,19.725l8.965,15.528l-34.941,20.174l-8.966-15.528l-34.165,19.727l8.964,15.527
	l-20.382,11.768l14.314,24.796l-18.635,10.759l20.622,35.719l18.635-10.76l14.083,24.391l-18.636,10.76l20.621,35.717l18.636-10.759
	l17.442,30.212l-18.635,10.76l20.623,35.72l18.636-10.758l17.818,30.863l-18.635,10.759l20.621,35.719l18.636-10.76l16.141,27.956
	l-18.636,10.758l20.622,35.718l18.635-10.76l17.035,29.508l-18.635,10.759l20.622,35.719l18.636-10.759l21.52,37.273l20.382-11.77
	l8.966,15.53l34.166-19.728l-8.965-15.528l34.941-20.174l8.966,15.53l34.165-19.726l-8.966-15.53l36.938-21.326l8.967,15.528
	l34.163-19.724l-8.966-15.529l34.166-19.726l8.966,15.528l34.167-19.725l-8.967-15.528l36.882-21.295l8.966,15.528l34.167-19.727
	l-8.965-15.527l32.03-18.494l8.967,15.528l34.165-19.726l-8.965-15.528l27.951-16.138l8.965,15.53l34.168-19.728l-8.966-15.529
	l15.863-9.159l-21.518-37.272l17.08-9.861l-20.621-35.72l-17.081,9.862l-17.037-29.506l17.082-9.862l-20.621-35.719l-17.083,9.862
	l-16.139-27.954l17.082-9.862l-20.622-35.719l-17.083,9.862l-17.819-30.864l17.083-9.862l-20.623-35.72l-17.082,9.863
	l-17.442-30.214l17.081-9.86l-19.932-34.523l142.847-46.413l49.192,151.403l215.405-69.989l-68.612-211.162L1135.041,346.75z
	 M658.625,566.367l-17.082,9.86l-14.083-24.39l17.083-9.862l-20.622-35.719l-17.083,9.862l-14.314-24.796l-15.864,9.16
	l-8.965-15.528l-34.169,19.728l8.967,15.527l-27.951,16.138l-8.965-15.528l-34.167,19.726l8.966,15.527l-32.03,18.493l-8.923-15.454
	c37.929-20.509,71.978-49.61,99.015-86.823c26.476-36.441,43.461-76.875,51.465-118.361l69.413,213.633L658.625,566.367z"/>
</svg>
