<?xml version="1.0" encoding="utf-8"?>
<!-- Generator: Adobe Illustrator 16.0.0, SVG Export Plug-In . SVG Version: 6.00 Build 0)  -->
<!DOCTYPE svg PUBLIC "-//W3C//DTD SVG 1.1//EN" "http://www.w3.org/Graphics/SVG/1.1/DTD/svg11.dtd">
<svg version="1.1" id="Calque_1" xmlns="http://www.w3.org/2000/svg" xmlns:xlink="http://www.w3.org/1999/xlink" x="0px" y="0px"
	 width="1190.551px" height="1190.551px" viewBox="0 0 1190.551 1190.551" enable-background="new 0 0 1190.551 1190.551"
	 xml:space="preserve">
<path fill="#010202" d="M1162.807,346.908l-72.771-223.962l-129.812,42.179L917.704,34.262l-221.109,71.843l65.233,200.763
	l-144.083,46.815c21.025-109.799-20.963-226.919-117.391-296.979C367.367-39.918,181.231-10.437,84.61,122.552
	c-96.621,132.986-67.141,319.122,65.848,415.744c95.094,69.088,217.354,73.688,314.638,22.086l-32.118,18.542l8.966,15.528
	l-36.882,21.292l-8.965-15.528l-34.167,19.728l8.966,15.526l-34.167,19.728l-8.964-15.528l-34.165,19.726l8.965,15.527
	l-36.938,21.326l-8.964-15.527l-34.166,19.726l8.965,15.527l-34.94,20.175l-8.966-15.528l-34.165,19.727l8.964,15.527
	l-20.382,11.768l14.313,24.797l-18.635,10.759l20.622,35.719l18.635-10.76l14.083,24.391l-18.636,10.76l20.621,35.718l18.636-10.76
	l17.442,30.212l-18.636,10.761l20.623,35.72l18.637-10.758l17.817,30.863l-18.635,10.759l20.621,35.719l18.636-10.76l16.142,27.956
	l-18.637,10.758l20.622,35.718l18.636-10.76l17.034,29.508l-18.635,10.759l20.622,35.72l18.636-10.759l21.521,37.272l20.382-11.771
	l8.966,15.53l34.166-19.728l-8.965-15.528l34.94-20.174l8.967,15.53l34.164-19.727l-8.966-15.529l36.938-21.326l8.967,15.527
	l34.163-19.724l-8.966-15.529l34.167-19.726l8.966,15.527l34.167-19.725l-8.967-15.527l36.882-21.296l8.966,15.528l34.167-19.727
	l-8.965-15.527l32.03-18.494l8.967,15.528l34.165-19.727l-8.965-15.527l27.95-16.139l8.966,15.53l34.168-19.728l-8.967-15.529
	l15.863-9.159l-21.518-37.271l17.08-9.861l-20.621-35.72l-17.081,9.861l-17.037-29.506l17.082-9.861l-20.621-35.72l-17.083,9.862
	l-16.139-27.954l17.082-9.861l-20.622-35.72l-17.083,9.862l-17.819-30.864l17.083-9.862l-20.623-35.72l-17.082,9.863l-17.442-30.214
	l17.081-9.86l-19.932-34.522l142.847-46.413l49.192,151.402l215.405-69.988l-68.612-211.162L1162.807,346.908z M686.391,566.526
	l-17.082,9.86l-14.084-24.39l17.084-9.862l-20.622-35.719l-17.083,9.862l-14.314-24.796l-15.864,9.16l-8.965-15.528l-34.169,19.729
	l8.967,15.527l-27.951,16.138l-8.965-15.528l-34.167,19.726l8.966,15.527l-32.029,18.493l-8.923-15.454
	c37.929-20.509,71.978-49.61,99.015-86.823c26.476-36.441,43.461-76.875,51.465-118.361l69.413,213.634L686.391,566.526z"/>
</svg>
