<?xml version="1.0" encoding="utf-8"?>
<!-- Generator: Adobe Illustrator 16.0.0, SVG Export Plug-In . SVG Version: 6.00 Build 0)  -->
<!DOCTYPE svg PUBLIC "-//W3C//DTD SVG 1.1//EN" "http://www.w3.org/Graphics/SVG/1.1/DTD/svg11.dtd">
<svg version="1.1" id="Calque_1" xmlns="http://www.w3.org/2000/svg" xmlns:xlink="http://www.w3.org/1999/xlink" x="0px" y="0px"
	 width="1190.551px" height="1190.551px" viewBox="0 0 1190.551 1190.551" enable-background="new 0 0 1190.551 1190.551"
	 xml:space="preserve">
<path fill="#010202" d="M1064.433,497.789l60.319-123.674L915.793,272.199l-92.537,189.731l-136.345-66.5l-98.628,202.217
	l134.997,65.843l-69.555,142.604c-23.9-130.499-133.588-233.395-272.038-243.076c-27.359-1.913-54.107-0.046-79.749,5.122
	l-3.103-17.604l41.939-7.395l3.114,17.657l38.852-6.851l-3.113-17.657l38.853-6.851l3.114,17.657l38.85-6.851l-3.113-17.656
	l42.005-7.408l3.112,17.658l38.852-6.851l-3.112-17.658l39.732-7.006l3.115,17.657l38.853-6.851l-3.114-17.657l23.178-4.087
	l-4.972-28.196l21.191-3.736l-7.162-40.617l-21.191,3.736l-4.891-27.736l21.191-3.736l-7.162-40.616l-21.189,3.736l-6.06-34.356
	l21.191-3.736l-7.162-40.619l-21.191,3.736l-6.188-35.098l21.191-3.736l-7.162-40.617l-21.191,3.736l-5.604-31.789l21.19-3.736
	l-7.16-40.616l-21.192,3.736l-5.917-33.554l21.191-3.737l-7.162-40.618l-21.191,3.736l-7.474-42.384l-23.178,4.087L529.583,0
	l-38.853,6.852l3.115,17.657l-39.735,7.007l-3.112-17.659l-38.853,6.851l3.113,17.659l-42.005,7.406l-3.113-17.658l-38.85,6.85
	l3.114,17.658l-38.854,6.852l-3.114-17.659l-38.852,6.851l3.114,17.659l-41.941,7.396l-3.113-17.659l-38.854,6.852l3.113,17.658
	l-36.424,6.423l-3.114-17.659l-38.852,6.851l3.114,17.659l-31.785,5.604l-3.113-17.659l-38.854,6.852l3.113,17.658L11.95,109.48
	l7.474,42.386L0,155.289l7.162,40.618l19.424-3.425l5.917,33.555l-19.425,3.426l7.162,40.615l19.425-3.425l5.604,31.789
	l-19.424,3.425l7.161,40.617l19.426-3.425l6.188,35.098l-19.425,3.425l7.162,40.619l19.425-3.424l6.058,34.355l-19.424,3.425
	l7.161,40.616l19.424-3.425l4.891,27.736l-19.424,3.425l7.162,40.617l19.425-3.425l4.972,28.195l18.04-3.181l3.114,17.657
	l38.853-6.851l-3.113-17.657l31.784-5.604l3.114,17.657l38.852-6.851l-3.113-17.657l36.424-6.423l3.114,17.657l36.341-6.408
	c-126.852,26.71-225.935,134.8-235.426,270.533c-11.467,163.982,112.171,306.211,276.152,317.678s306.211-112.171,317.678-276.152
	c1.77-25.305,0.312-50.088-4.005-73.955L857.06,905.86l97.331-199.557l129.49,62.975l103.23-211.654L1064.433,497.789z"/>
</svg>
