<?xml version="1.0" encoding="utf-8"?>
<!-- Generator: Adobe Illustrator 16.0.0, SVG Export Plug-In . SVG Version: 6.00 Build 0)  -->
<!DOCTYPE svg PUBLIC "-//W3C//DTD SVG 1.1//EN" "http://www.w3.org/Graphics/SVG/1.1/DTD/svg11.dtd">
<svg version="1.1" id="Calque_1" xmlns="http://www.w3.org/2000/svg" xmlns:xlink="http://www.w3.org/1999/xlink" x="0px" y="0px"
	 width="1190.551px" height="1190.551px" viewBox="0 0 1190.551 1190.551" enable-background="new 0 0 1190.551 1190.551"
	 xml:space="preserve">
<g>
	<polygon fill="#010202" points="15.208,562.26 57.827,568.25 55.082,587.783 95.925,593.522 98.67,573.99 132.41,578.731 
		129.665,598.264 170.508,604.005 173.253,584.471 205.218,588.964 202.472,608.497 243.315,614.237 246.06,594.704 
		281.352,599.664 278.607,619.197 319.452,624.937 322.197,605.404 356.744,610.26 353.999,629.793 394.841,635.533 397.586,616 
		425.475,619.92 422.73,639.452 463.573,645.192 466.318,625.659 494.671,629.644 497.219,611.505 514.974,614 520.466,574.93 
		502.711,572.435 507.203,540.473 524.957,542.969 530.448,503.901 512.693,501.406 517.841,464.781 535.594,467.276 
		541.086,428.207 523.331,425.712 529.259,383.539 547.012,386.034 552.504,346.967 534.749,344.471 540.239,305.403 
		557.994,307.898 563.484,268.833 545.73,266.338 551.666,224.1 569.421,226.595 574.911,187.528 557.156,185.033 562.772,145.078 
		580.526,147.573 586.016,108.507 568.262,106.01 571.538,82.704 543.185,78.719 546.18,57.41 505.338,51.67 502.343,72.979 
		474.453,69.059 477.448,47.75 436.606,42.01 433.611,63.32 399.064,58.465 402.059,37.155 361.215,31.415 358.22,52.724 
		322.927,47.764 325.923,26.455 285.08,20.715 282.086,42.024 250.12,37.532 253.115,16.222 212.272,10.482 209.278,31.792 
		175.537,27.05 178.532,5.74 137.689,0 134.695,21.309 92.076,15.32 88.8,38.627 71.043,36.132 65.552,75.198 83.309,77.694 
		77.694,117.649 59.936,115.154 54.446,154.22 72.204,156.717 66.267,198.953 48.51,196.458 43.019,235.523 60.777,238.019 
		55.287,277.088 37.529,274.592 32.039,313.659 49.796,316.154 43.869,358.328 26.111,355.833 20.621,394.901 38.378,397.397 
		33.231,434.022 15.473,431.526 9.983,470.594 27.74,473.09 23.249,505.051 5.491,502.555 0,541.625 17.758,544.12 	"/>
	<polygon fill="#010202" points="767.534,522.385 215.599,745.381 327.096,1021.346 504.189,949.797 460.974,842.837 
		651.974,765.668 730.641,960.376 626.798,1002.332 702.843,1190.551 990.529,1074.317 	"/>
	<path fill="#010202" d="M212.66,845.883c-12.323-57.979-69.522-95.124-127.501-82.801c-57.98,12.324-95.124,69.521-82.801,127.502
		c10.472,49.264,53.341,83.479,101.559,85.094c-46.797,1.543-88.93,33.818-100.805,81.447
		c-14.341,57.516,20.785,115.974,78.3,130.313s115.974-20.784,130.313-78.3c14.34-57.514-20.785-115.974-78.3-130.313
		c-7.497-1.869-15.008-2.891-22.437-3.139c6.243-0.205,12.553-0.96,18.872-2.303C187.839,961.06,224.984,903.862,212.66,845.883z"/>
</g>
</svg>
