<?xml version="1.0" encoding="utf-8"?>
<!-- Generator: Adobe Illustrator 16.0.0, SVG Export Plug-In . SVG Version: 6.00 Build 0)  -->
<!DOCTYPE svg PUBLIC "-//W3C//DTD SVG 1.1//EN" "http://www.w3.org/Graphics/SVG/1.1/DTD/svg11.dtd">
<svg version="1.1" id="Calque_1" xmlns="http://www.w3.org/2000/svg" xmlns:xlink="http://www.w3.org/1999/xlink" x="0px" y="0px"
	 width="1190.551px" height="1190.551px" viewBox="0 0 1190.551 1190.551" enable-background="new 0 0 1190.551 1190.551"
	 xml:space="preserve">
<g>
	<path fill="#010202" d="M443.828,771.914c0-59.273-48.226-107.5-107.5-107.5s-107.5,48.227-107.5,107.5
		c0,59.276,48.226,107.5,107.5,107.5C395.601,879.414,443.828,831.19,443.828,771.914z"/>
	<path fill="#010202" d="M854.223,301.283c-51.955,0-95.418,37.052-105.361,86.119v-39.395H730.93v-39.452h17.932v-39.451H730.93
		v-42.588h17.932v-39.453H730.93v-36.985h17.932v-39.451H730.93V78.352h17.932V38.898H730.93V20.581h-43.037V0.855h-41.244v19.725
		h-34.07V0.855h-41.245v19.725h-32.279V0.855H497.81v19.725h-35.639V0.855h-41.246v19.725H386.04V0.855h-41.243v19.725h-28.165
		V0.855h-41.244v19.725h-28.631v18.318h-17.929v39.453h17.929v32.275h-17.929v39.451h17.929v36.985h-17.929v39.453h17.929v42.588
		h-17.929v39.452h17.929v39.451h-17.929v39.45h17.929v42.652h-17.929v39.451h17.929v40.348h-17.929v39.451h17.929v23.536h28.631
		v21.519h41.244v-21.518h28.164v21.519h41.243v-21.519h34.886v21.519h41.246v-21.519h35.639v21.519h28.658v191h115.361v206h-210
		v-112h-95.5h-107.5v310.281h595.278V594.415H687.893v-21.519h43.037v-23.536h17.932v-39.451H730.93v-40.348h17.932v-39.396
		c9.943,49.066,53.404,86.119,105.361,86.119c59.273,0,107.5-48.227,107.5-107.5C961.723,349.508,913.496,301.283,854.223,301.283z
		 M539.053,594.415v-21.519h32.279v21.519H539.053L539.053,594.415z M612.576,594.415v-21.519h34.07v21.519H612.576L612.576,594.415
		z M730.93,430.109v-42.652h17.922c-1.393,6.896-2.129,14.026-2.129,21.326c0,7.3,0.736,14.431,2.129,21.326H730.93L730.93,430.109z
		"/>
</g>
</svg>
