<?xml version="1.0" encoding="utf-8"?>
<!-- Generator: Adobe Illustrator 16.0.0, SVG Export Plug-In . SVG Version: 6.00 Build 0)  -->
<!DOCTYPE svg PUBLIC "-//W3C//DTD SVG 1.1//EN" "http://www.w3.org/Graphics/SVG/1.1/DTD/svg11.dtd">
<svg version="1.1" id="Calque_1" xmlns="http://www.w3.org/2000/svg" xmlns:xlink="http://www.w3.org/1999/xlink" x="0px" y="0px"
	 width="1190.551px" height="1190.551px" viewBox="0 0 1190.551 1190.551" enable-background="new 0 0 1190.551 1190.551"
	 xml:space="preserve">
<g>
	<path fill="#010202" d="M182.279,997.84v-206h210v112h12.86h190.14V593.559H459.065V572.04h43.038v-23.536h17.932v-39.451h-17.932
		v-40.348h17.932v-39.451h-17.932v-42.652h17.932v-39.45h-17.932V307.7h17.932v-39.451h-17.932v-42.588h17.932v-39.453h-17.932
		v-36.985h17.932v-39.451h-17.932V77.496h17.932V38.043h-17.932V19.725h-43.038V0h-41.244v19.725h-34.071V0h-41.244v19.725h-32.279
		V0h-41.244v19.725h-35.639V0h-41.246v19.725h-34.886V0h-41.243v19.725H87.804V0H46.56v19.725H17.929v18.318H0v39.453h17.929v32.275
		H0v39.451h17.929v36.985H0v39.453h17.929v42.588H0V307.7h17.929v39.451H0v39.45h17.929v42.652H0v39.451h17.929v40.348H0v39.451
		h17.929v23.536H46.56v21.519H0v595.281h297.639v-177.5v-13.5H182.279z M383.749,572.04h34.071v21.519h-34.071V572.04z
		 M310.226,572.04h32.279v21.519h-32.279V572.04z M233.343,572.04h35.639v21.519h-35.639V572.04z M87.804,593.559V572.04h28.164
		v21.519H87.804z M157.211,572.04h34.886v21.519h-34.886V572.04z"/>
	<path fill="#010202" d="M607.578,975.551c-44.933,0-83.509,27.715-99.549,66.944c2.993-9.866,4.61-20.325,4.61-31.155
		c0-59.275-48.226-107.5-107.5-107.5s-107.5,48.223-107.5,107.5c0,59.273,48.226,107.5,107.5,107.5
		c44.933,0,83.509-27.716,99.549-66.945c-2.993,9.866-4.61,20.325-4.61,31.156c0,59.274,48.225,107.5,107.5,107.5
		s107.5-48.226,107.5-107.5C715.078,1023.776,666.854,975.551,607.578,975.551z"/>
</g>
</svg>
