<?xml version="1.0" encoding="utf-8"?>
<!-- Generator: Adobe Illustrator 16.0.0, SVG Export Plug-In . SVG Version: 6.00 Build 0)  -->
<!DOCTYPE svg PUBLIC "-//W3C//DTD SVG 1.1//EN" "http://www.w3.org/Graphics/SVG/1.1/DTD/svg11.dtd">
<svg version="1.1" id="Calque_1" xmlns="http://www.w3.org/2000/svg" xmlns:xlink="http://www.w3.org/1999/xlink" x="0px" y="0px"
	 width="1190.551px" height="1190.551px" viewBox="0 0 1190.551 1190.551" enable-background="new 0 0 1190.551 1190.551"
	 xml:space="preserve">
<g>
	<path fill="#010202" d="M182.279,924.315v-206h210v112h12.86h190.14v-310.28h-39.763v-17.932h18.319v-43.038h19.724v-41.244
		h-19.724v-34.071h19.724v-41.244h-19.724v-32.279h19.724v-41.244h-19.724v-35.639h19.724v-41.246h-19.724v-34.886h19.724v-41.243
		h-19.724V87.804h19.724V46.56h-19.724V17.929h-18.319V0h-39.453v17.929h-32.276V0h-39.449v17.929h-36.986V0h-39.453v17.929H325.31
		V0h-39.451v17.929h-39.452V0h-39.449v17.929h-42.652V0h-39.451v17.929H84.506V0H45.055v17.929H21.519V46.56H0v41.244h21.519v28.164
		H0v41.243h21.519v34.886H0v41.246h21.519v35.639H0v41.244h21.519v32.279H0v41.244h21.519v34.071H0v41.244h21.519v43.038h23.536
		v17.932H0v595.28h297.639v-177.5v-13.5H182.279z M516.063,502.103v17.932h-32.276v-17.932H516.063z M444.337,502.103v17.932
		h-36.986v-17.932H444.337z M367.898,502.103v17.932H325.31v-17.932H367.898z M285.859,502.103v17.932h-39.452v-17.932H285.859z
		 M206.957,502.103v17.932h-42.652v-17.932H206.957z M84.506,502.103h40.348v17.932H84.506V502.103z"/>
	<path fill="#010202" d="M563.204,975.551c-29.474,0-56.212,11.927-75.651,31.203c15.648-18.677,25.086-42.726,25.086-68.939
		c0-59.276-48.227-107.5-107.5-107.5c-59.275,0-107.5,48.224-107.5,107.5c0,59.275,48.224,107.5,107.5,107.5
		c29.473,0,56.212-11.927,75.651-31.204c-15.649,18.677-25.086,42.726-25.086,68.94c0,59.274,48.225,107.5,107.5,107.5
		c59.273,0,107.5-48.226,107.5-107.5C670.704,1023.776,622.479,975.551,563.204,975.551z"/>
</g>
</svg>
