<?xml version="1.0" encoding="utf-8"?>
<!-- Generator: Adobe Illustrator 16.0.0, SVG Export Plug-In . SVG Version: 6.00 Build 0)  -->
<!DOCTYPE svg PUBLIC "-//W3C//DTD SVG 1.1//EN" "http://www.w3.org/Graphics/SVG/1.1/DTD/svg11.dtd">
<svg version="1.1" id="Calque_1" xmlns="http://www.w3.org/2000/svg" xmlns:xlink="http://www.w3.org/1999/xlink" x="0px" y="0px"
	 width="1190.551px" height="1190.551px" viewBox="0 0 1190.551 1190.551" enable-background="new 0 0 1190.551 1190.551"
	 xml:space="preserve">
<path fill="#010202" d="M846.174,543.09c-19.58,0-37.953,5.265-53.781,14.45v-17.818h18.318v-43.038h19.725V455.44h-19.725v-34.071
	h19.725v-41.244h-19.725v-32.279h19.725v-41.244h-19.725v-35.639h19.725v-41.246h-19.725v-34.886h19.725v-41.243h-19.725v-28.165
	h19.725V84.179h-19.725V55.548h-18.318V37.619H752.94v17.929h-32.276V37.619h-39.448v17.929h-36.986V37.619h-39.453v17.929h-42.589
	V37.619h-39.451v17.929h-39.451V37.619h-39.449v17.929h-42.652V37.619h-39.451v17.929h-40.349V37.619h-39.451v17.929h-23.536v28.631
	h-21.519v41.244h21.519v28.164h-21.519v41.243h21.519v34.886h-21.519v41.246h21.519v35.639h-21.519v41.244h21.519v32.279h-21.519
	v41.244h21.519v34.071h-21.519v41.244h21.519v43.038h23.536v17.933h-45.055v595.277h595.279V855.295H654.657h-13.501v115.358h-206
	v-210h112V557.654h15.03v-17.933h42.588v17.933h39.453v-17.933h36.986v17.933h39.448v-17.933h32.276v17.933h39.259
	c-31.981,18.647-53.524,53.32-53.524,92.936c0,15.89,3.469,30.981,9.683,44.566c-18.452-32.717-53.536-54.861-93.699-54.861
	c-59.274,0-107.5,48.225-107.5,107.5c0,59.272,48.225,107.5,107.5,107.5c59.274,0,107.499-48.228,107.499-107.5
	c0-15.89-3.469-30.981-9.683-44.566c18.453,32.717,53.537,54.861,93.701,54.861c59.274,0,107.5-48.226,107.5-107.5
	C953.674,591.315,905.449,543.09,846.174,543.09z M321.383,557.654v-17.933h40.348v17.933H321.383z M401.182,557.654v-17.933h42.652
	v17.933H401.182z M483.282,557.654v-17.933h39.452v17.933H483.282z"/>
</svg>
