<?xml version="1.0" encoding="utf-8"?>
<!-- Generator: Adobe Illustrator 16.0.0, SVG Export Plug-In . SVG Version: 6.00 Build 0)  -->
<!DOCTYPE svg PUBLIC "-//W3C//DTD SVG 1.1//EN" "http://www.w3.org/Graphics/SVG/1.1/DTD/svg11.dtd">
<svg version="1.1" id="Calque_1" xmlns="http://www.w3.org/2000/svg" xmlns:xlink="http://www.w3.org/1999/xlink" x="0px" y="0px"
	 width="1190.551px" height="1190.551px" viewBox="0 0 1190.551 1190.551" enable-background="new 0 0 1190.551 1190.551"
	 xml:space="preserve">
<path fill="#010202" d="M832.586,753.727c59.275,0,107.5-48.227,107.5-107.5c0-59.275-48.225-107.5-107.5-107.5
	c-31.746,0-60.32,13.839-80.018,35.795v-18.149h17.93V516.92h-17.93v-32.275h17.93v-39.451h-17.93v-36.985h17.93v-39.453h-17.93
	v-42.588h17.93v-39.451h-17.93v-39.452h17.93v-39.449h-17.93v-42.652h17.93v-39.451h-17.93V85.364h17.93V45.913h-17.93V22.377
	h-28.631V0.858h-41.244v21.519H654.53V0.858h-41.242v21.519h-34.886V0.858h-41.246v21.519h-35.639V0.858h-41.244v21.519h-32.278
	V0.858h-41.242v21.519h-34.072V0.858h-41.245v21.519h-43.038v23.536h-17.932v39.451h17.932v40.348h-17.932v39.451h17.932v42.652
	h-17.932v39.449h17.932v39.452h-17.932v39.451h17.932v42.588h-17.932v39.453h17.932v36.985h-17.932v39.451h17.932v32.275h-17.932
	v39.453h17.932v18.318h43.038v19.725h-60.97v595.278h595.28V892.057h-177.5h-13.5v115.359h-206v-210h112v-12.859V594.416h17.658
	v-19.725h34.887v19.725h41.242v-19.725h28.164v19.725h41.244v-19.725h28.479c-16.986,19.018-27.332,44.09-27.332,71.536
	c0,25.27,8.771,48.525,23.42,66.898c-19.705-22.115-48.383-36.07-80.264-36.07c-59.271,0-107.5,48.227-107.5,107.5
	c0,59.275,48.228,107.5,107.5,107.5c59.277,0,107.5-48.225,107.5-107.5c0-25.27-8.77-48.527-23.418-66.9
	C772.03,739.771,800.707,753.727,832.586,753.727z M352.678,594.417v-19.725h34.072v19.725H352.678z M427.994,594.417v-19.725
	h32.279v19.725H427.994z M501.517,594.417v-19.725h35.639v19.725H501.517z"/>
</svg>
