<?xml version="1.0" encoding="utf-8"?>
<!-- Generator: Adobe Illustrator 16.0.0, SVG Export Plug-In . SVG Version: 6.00 Build 0)  -->
<!DOCTYPE svg PUBLIC "-//W3C//DTD SVG 1.1//EN" "http://www.w3.org/Graphics/SVG/1.1/DTD/svg11.dtd">
<svg version="1.1" id="Calque_1" xmlns="http://www.w3.org/2000/svg" xmlns:xlink="http://www.w3.org/1999/xlink" x="0px" y="0px"
	 width="1190.551px" height="1190.551px" viewBox="0 0 1190.551 1190.551" enable-background="new 0 0 1190.551 1190.551"
	 xml:space="preserve">
<g>
	<path fill="#010202" d="M637.726,450.619h-206v-210h112v-12.86V37.619H233.447v595.277h38.043v17.935h-18.318v43.037h-19.725
		v41.243h19.725v34.072h-19.725v41.243h19.725v32.28h-19.725v41.242h19.725v35.64h-19.725v41.247h19.725v34.885h-19.725v41.243
		h19.725v28.164h-19.725v41.245h19.725v28.63h18.318v17.929h39.453v-17.929h32.274v17.929h39.451v-17.929h36.985v17.929h39.453
		v-17.929h42.588v17.929h39.452v-17.929h39.45v17.929h39.45v-17.929H662.7v17.929h39.448v-17.929h40.35v17.929h39.452v-17.929
		h23.533v-28.63h21.521v-41.245h-21.521v-28.164h21.521v-41.243h-21.521v-34.885h21.521v-41.247h-21.521v-35.64h21.521v-41.242
		h-21.521v-32.28h21.521v-41.243h-21.521v-34.072h21.521v-41.243h-21.521v-43.037H781.95v-17.935h46.773V335.259h-177.5h-13.5
		v115.36H637.726z M343.218,650.831h-32.275v-17.935h32.274L343.218,650.831L343.218,650.831z M419.655,650.831h-36.985v-17.935
		h36.985V650.831z M501.696,650.831h-42.588v-17.935h42.588V650.831z M580.598,650.831h-39.451v-17.935h39.45L580.598,650.831
		L580.598,650.831z M742.499,632.898v17.934h-40.35v-17.934H742.499z M662.701,632.898v17.934h-42.653v-17.934H662.701z"/>
	<path fill="#010202" d="M849.605,37.619c-59.274,0-107.5,48.227-107.5,107.5c0,13.554,2.528,26.526,7.126,38.48
		c-16.879-37.314-54.46-63.34-98.006-63.34c-59.273,0-107.5,48.226-107.5,107.5c0,59.275,48.227,107.5,107.5,107.5
		c59.275,0,107.5-48.225,107.5-107.5c0-13.553-2.528-26.526-7.126-38.479c16.879,37.314,54.46,63.34,98.006,63.34
		c59.273,0,107.5-48.225,107.5-107.5S908.879,37.619,849.605,37.619z"/>
</g>
</svg>
