<?xml version="1.0" encoding="utf-8"?>
<!-- Generator: Adobe Illustrator 16.0.0, SVG Export Plug-In . SVG Version: 6.00 Build 0)  -->
<!DOCTYPE svg PUBLIC "-//W3C//DTD SVG 1.1//EN" "http://www.w3.org/Graphics/SVG/1.1/DTD/svg11.dtd">
<svg version="1.1" id="Calque_1" xmlns="http://www.w3.org/2000/svg" xmlns:xlink="http://www.w3.org/1999/xlink" x="0px" y="0px"
	 width="1190.551px" height="1190.551px" viewBox="0 0 1190.551 1190.551" enable-background="new 0 0 1190.551 1190.551"
	 xml:space="preserve">
<path fill="#010202" d="M843.979,460.947c-43.812,0-81.585,26.353-98.311,64.038c3.909-11.128,6.042-23.085,6.042-35.532
	c0-59.274-48.227-107.5-107.5-107.5c-59.274,0-107.5,48.225-107.5,107.5c0,59.274,48.226,107.5,107.5,107.5
	c4.291,0,8.521-0.262,12.682-0.752v19.66h-34.07v-19.725h-41.244v19.727h-32.279v-19.727h-12.587V489.453v-84.317h-115.36v-206h210
	v112h203V0.856H239.073v595.281h46.56v19.727h-28.631v18.316h-17.929v39.453h17.929v32.275h-17.929v39.451h17.929v36.984h-17.929
	v39.451h17.929v42.59h-17.929v39.449h17.929v39.453h-17.929v39.451h17.929v42.65h-17.929v39.451h17.929v40.348h-17.929v39.451
	h17.929v23.535h28.631v21.521h41.244v-21.521h28.164v21.521h41.243v-21.521h34.886v21.521h41.246v-21.521h35.639v21.521h41.244
	v-21.521h32.279v21.521h41.244v-21.521h34.07v21.521h41.244v-21.521h43.038v-23.535h17.932v-39.451h-17.932v-40.348h17.932v-39.451
	h-17.932v-42.65h17.932v-39.451h-17.932v-39.451h17.932v-39.451h-17.932v-42.588h17.932v-39.453h-17.932v-36.982h17.932V705.91
	h-17.932v-32.277h17.932v-39.287c19.688,25.297,50.411,41.604,84.873,41.604c59.275,0,107.5-48.225,107.5-107.5
	C951.479,509.173,903.255,460.947,843.979,460.947z M355.04,615.861h-28.164v-19.725h28.164V615.861z M431.169,615.861h-34.886
	v-19.725h34.886V615.861z M508.054,615.861h-35.639v-19.725h35.639V615.861z M741.175,634.18v-18.316h-43.038v-19.727h-40.671
	c38.076-4.704,70.043-29.396,85.057-63.22c-3.908,11.128-6.042,23.084-6.042,35.531c0,24.737,8.404,47.546,22.5,65.732H741.175
	L741.175,634.18z"/>
</svg>
