<?xml version="1.0" encoding="utf-8"?>
<!-- Generator: Adobe Illustrator 16.0.0, SVG Export Plug-In . SVG Version: 6.00 Build 0)  -->
<!DOCTYPE svg PUBLIC "-//W3C//DTD SVG 1.1//EN" "http://www.w3.org/Graphics/SVG/1.1/DTD/svg11.dtd">
<svg version="1.1" id="Calque_1" xmlns="http://www.w3.org/2000/svg" xmlns:xlink="http://www.w3.org/1999/xlink" x="0px" y="0px"
	 width="1190.551px" height="1190.551px" viewBox="0 0 1190.551 1190.551" enable-background="new 0 0 1190.551 1190.551"
	 xml:space="preserve">
<path fill="#010202" d="M604.907,460.091c-43.813,0-81.585,26.353-98.311,64.038c3.909-11.128,6.042-23.085,6.042-35.532
	c0-59.274-48.226-107.5-107.5-107.5s-107.5,48.225-107.5,107.5c0,59.274,48.226,107.5,107.5,107.5c4.291,0,8.521-0.261,12.682-0.752
	v19.661h-34.071V595.28h-41.244v19.727h-32.279V595.28h-12.587V488.597V404.28h-115.36v-206h210v112h203V0H0V595.28h46.56v19.727
	H17.929v18.316H0v39.453h17.929v32.277H0v39.451h17.929v36.983H0v39.453h17.929v42.588H0v39.451h17.929v39.452H0v39.451h17.929
	v42.65H0v39.451h17.929v40.348H0v39.451h17.929v23.536H46.56v21.521h41.244v-21.521h28.164v21.521h41.243v-21.521h34.886v21.521
	h41.246v-21.521h35.639v21.521h41.244v-21.521h32.279v21.521h41.244v-21.521h34.071v21.521h41.244v-21.521h43.038v-23.536h17.932
	v-39.451h-17.932v-40.348h17.932v-39.451h-17.932v-42.65h17.932v-39.451h-17.932V902.98h17.932v-39.451h-17.932v-42.588h17.932
	v-39.453h-17.932v-36.983h17.932v-39.451h-17.932v-32.277h17.932v-39.287c19.687,25.297,50.411,41.603,84.873,41.603
	c59.275,0,107.5-48.225,107.5-107.5C712.407,508.317,664.183,460.091,604.907,460.091z M115.968,615.006H87.804V595.28h28.164
	V615.006z M192.097,615.006h-34.886V595.28h34.886V615.006z M268.982,615.006h-35.639V595.28h35.639V615.006z M502.103,633.323
	v-18.316h-43.038V595.28h-40.671c38.076-4.703,70.043-29.395,85.057-63.219c-3.909,11.128-6.042,23.084-6.042,35.531
	c0,24.737,8.404,47.546,22.5,65.731H502.103z"/>
</svg>
