<?xml version="1.0" encoding="utf-8"?>
<!-- Generator: Adobe Illustrator 16.0.0, SVG Export Plug-In . SVG Version: 6.00 Build 0)  -->
<!DOCTYPE svg PUBLIC "-//W3C//DTD SVG 1.1//EN" "http://www.w3.org/Graphics/SVG/1.1/DTD/svg11.dtd">
<svg version="1.1" id="Calque_1" xmlns="http://www.w3.org/2000/svg" xmlns:xlink="http://www.w3.org/1999/xlink" x="0px" y="0px"
	 width="1190.551px" height="1190.551px" viewBox="0 0 1190.551 1190.551" enable-background="new 0 0 1190.551 1190.551"
	 xml:space="preserve">
<g>
	<path fill="#010202" d="M442.202,924.315v-206h210v112h12.86h190.14v-310.28H815.44v-17.932h18.318v-43.038h19.725v-41.244h-19.725
		V383.75h19.725v-41.244h-19.725v-32.279h19.725v-41.244h-19.725v-35.639h19.725v-41.246h-19.725v-34.886h19.725v-41.243h-19.725
		V87.804h19.725V46.56h-19.725V17.929H815.44V0h-39.453v17.929H743.71V0h-39.448v17.929h-36.986V0h-39.453v17.929h-42.589V0h-39.451
		v17.929h-39.451V0h-39.449v17.929H424.23V0h-39.451v17.929H344.43V0h-39.451v17.929h-23.536V46.56h-21.519v41.244h21.519v28.164
		h-21.519v41.243h21.519v34.886h-21.519v41.246h21.519v35.639h-21.519v41.244h21.519v32.279h-21.519v41.244h21.519v34.071h-21.519
		v41.244h21.519v43.038h23.536v17.932h-45.055v595.28h297.639v-177.5v-13.5L442.202,924.315L442.202,924.315z M775.987,502.103
		v17.932H743.71v-17.932H775.987L775.987,502.103z M704.261,502.103v17.932h-36.986v-17.932H704.261L704.261,502.103z
		 M627.822,502.103v17.932h-42.588v-17.932H627.822L627.822,502.103z M545.782,502.103v17.932h-39.451v-17.932H545.782
		L545.782,502.103z M466.881,502.103v17.932h-42.652v-17.932H466.881L466.881,502.103z M344.43,502.103h40.348v17.932H344.43
		V502.103z"/>
	<path fill="#010202" d="M823.127,975.551c-29.474,0-56.212,11.928-75.65,31.203c15.647-18.677,25.086-42.726,25.086-68.938
		c0-59.276-48.228-107.5-107.5-107.5c-59.275,0-107.5,48.224-107.5,107.5c0,59.274,48.224,107.499,107.5,107.499
		c29.473,0,56.212-11.927,75.65-31.203c-15.648,18.677-25.086,42.726-25.086,68.939c0,59.274,48.226,107.5,107.5,107.5
		c59.273,0,107.5-48.226,107.5-107.5S882.403,975.551,823.127,975.551z"/>
</g>
</svg>
