<?xml version="1.0" encoding="utf-8"?>
<!-- Generator: Adobe Illustrator 16.0.0, SVG Export Plug-In . SVG Version: 6.00 Build 0)  -->
<!DOCTYPE svg PUBLIC "-//W3C//DTD SVG 1.1//EN" "http://www.w3.org/Graphics/SVG/1.1/DTD/svg11.dtd">
<svg version="1.1" id="Calque_1" xmlns="http://www.w3.org/2000/svg" xmlns:xlink="http://www.w3.org/1999/xlink" x="0px" y="0px"
	 width="1190.551px" height="1190.551px" viewBox="0 0 1190.551 1190.551" enable-background="new 0 0 1190.551 1190.551"
	 xml:space="preserve">
<g>
	<path fill="#010202" d="M404.28,413h-206V203h112v-12.86V0H0v595.278h38.043v17.934H19.725v43.037H0v41.243h19.725v34.072H0v41.244
		h19.725v32.28H0v41.242h19.725v35.64H0v41.247h19.725v34.885H0v41.243h19.725v28.164H0v41.245h19.725v28.63h18.318v17.929h39.453
		v-17.929h32.275v17.929h39.451v-17.929h36.985v17.929h39.453v-17.929h42.588v17.929H307.7v-17.929h39.451v17.929h39.45v-17.929
		h42.653v17.929h39.449v-17.929h40.349v17.929h39.452v-17.929h23.534v-28.63h21.52v-41.245h-21.52v-28.164h21.52v-41.243h-21.52
		v-34.885h21.52v-41.247h-21.52v-35.64h21.52v-41.242h-21.52v-32.28h21.52v-41.244h-21.52v-34.072h21.52v-41.243h-21.52v-43.037
		h-23.534v-17.934h46.774V297.64h-177.5h-13.5V413z M109.772,613.212H77.496v-17.934h32.275V613.212z M186.208,613.212h-36.985
		v-17.934h36.985V613.212z M268.249,613.212h-42.588v-17.934h42.588V613.212z M347.152,613.212H307.7v-17.934h39.451V613.212z
		 M509.053,595.279v17.934h-40.349v-17.934H509.053z M429.255,595.279v17.934h-42.653v-17.934H429.255z"/>
	<path fill="#010202" d="M616.159,0c-59.275,0-107.5,48.227-107.5,107.5c0,13.554,2.528,26.526,7.126,38.48
		c-16.879-37.314-54.46-63.34-98.006-63.34c-59.274,0-107.5,48.226-107.5,107.5c0,59.275,48.226,107.5,107.5,107.5
		c59.275,0,107.5-48.225,107.5-107.5c0-13.553-2.528-26.526-7.126-38.479c16.879,37.314,54.46,63.34,98.006,63.34
		c59.273,0,107.5-48.225,107.5-107.5C723.659,48.226,675.433,0,616.159,0z"/>
</g>
</svg>
