<?xml version="1.0" encoding="utf-8"?>
<!-- Generator: Adobe Illustrator 16.0.0, SVG Export Plug-In . SVG Version: 6.00 Build 0)  -->
<!DOCTYPE svg PUBLIC "-//W3C//DTD SVG 1.1//EN" "http://www.w3.org/Graphics/SVG/1.1/DTD/svg11.dtd">
<svg version="1.1" id="Calque_1" xmlns="http://www.w3.org/2000/svg" xmlns:xlink="http://www.w3.org/1999/xlink" x="0px" y="0px"
	 width="1190.551px" height="1190.551px" viewBox="0 0 1190.551 1190.551" enable-background="new 0 0 1190.551 1190.551"
	 xml:space="preserve">
<g>
	<path fill="#010202" d="M420.015,997.84v-206h210v112h12.859h190.141V593.559H696.801V572.04h43.039v-23.536h17.932v-39.451H739.84
		v-40.348h17.932v-39.451H739.84v-42.652h17.932v-39.45H739.84V307.7h17.932v-39.451H739.84v-42.588h17.932v-39.453H739.84v-36.985
		h17.932v-39.451H739.84V77.496h17.932V38.043H739.84V19.725h-43.039V0h-41.244v19.725h-34.07V0h-41.244v19.725h-32.279V0h-41.244
		v19.725h-35.639V0h-41.246v19.725h-34.886V0h-41.243v19.725h-28.165V0h-41.244v19.725h-28.631v18.318h-17.929v39.453h17.929v32.275
		h-17.929v39.451h17.929v36.985h-17.929v39.453h17.929v42.588h-17.929V307.7h17.929v39.451h-17.929v39.45h17.929v42.652h-17.929
		v39.451h17.929v40.348h-17.929v39.451h17.929v23.536h28.631v21.519h-46.56v595.281h297.639v-177.5v-13.5L420.015,997.84
		L420.015,997.84z M621.487,572.04h34.07v21.519h-34.07V572.04L621.487,572.04z M547.963,572.04h32.279v21.519h-32.279V572.04z
		 M471.08,572.04h35.639v21.519H471.08V572.04L471.08,572.04z M325.541,593.559V572.04h28.164v21.519H325.541L325.541,593.559z
		 M394.948,572.04h34.886v21.519h-34.886V572.04z"/>
	<path fill="#010202" d="M845.315,975.551c-44.934,0-83.51,27.715-99.549,66.944c2.992-9.866,4.609-20.325,4.609-31.155
		c0-59.275-48.227-107.5-107.5-107.5c-59.274,0-107.5,48.223-107.5,107.5c0,59.273,48.226,107.5,107.5,107.5
		c44.934,0,83.51-27.716,99.549-66.945c-2.992,9.866-4.609,20.325-4.609,31.156c0,59.274,48.225,107.5,107.5,107.5
		s107.5-48.226,107.5-107.5S904.59,975.551,845.315,975.551z"/>
</g>
</svg>
