<?xml version="1.0" encoding="utf-8"?>
<!-- Generator: Adobe Illustrator 16.0.0, SVG Export Plug-In . SVG Version: 6.00 Build 0)  -->
<!DOCTYPE svg PUBLIC "-//W3C//DTD SVG 1.1//EN" "http://www.w3.org/Graphics/SVG/1.1/DTD/svg11.dtd">
<svg version="1.1" id="Calque_1" xmlns="http://www.w3.org/2000/svg" xmlns:xlink="http://www.w3.org/1999/xlink" x="0px" y="0px"
	 width="1190.551px" height="1190.551px" viewBox="0 0 1190.551 1190.551" enable-background="new 0 0 1190.551 1190.551"
	 xml:space="preserve">
<g>
	<path fill="#010202" d="M442.201,924.315v-206h210v112h12.86h190.14v-310.28h-46.772v-17.929h23.533v-28.631h21.521v-41.244
		h-21.521v-28.164h21.521v-41.243h-21.521v-34.886h21.521v-41.246h-21.521v-35.638h21.521v-41.245h-21.521V177.53h21.521v-41.244
		h-21.521v-34.071h21.521V60.97h-21.521V17.932h-23.533V0h-39.452v17.932h-40.35V0h-39.448v17.932h-42.653V0h-39.45v17.932h-39.452
		V0h-39.451v17.932h-42.588V0h-39.453v17.932h-36.985V0h-39.451v17.932h-32.275V0h-39.453v17.932h-18.318V60.97h-19.725v41.244
		h19.725v34.071h-19.725v41.244h19.725v32.279h-19.725v41.245h19.725v35.638h-19.725v41.246h19.725v34.886h-19.725v41.243h19.725
		v28.164h-19.725v41.244h19.725v28.631h18.318v17.929h-38.043v595.28h297.639v-177.5v-13.5L442.201,924.315L442.201,924.315z
		 M728.626,502.106h40.35v17.929h-40.35V502.106z M646.525,502.106h42.653v17.929h-42.653V502.106z M567.623,502.106h39.45v17.929
		h-39.45V502.106z M485.584,502.106h42.588v17.929h-42.588V502.106z M337.419,520.034v-17.929h32.274v17.929H337.419z
		 M409.146,502.106h36.985v17.929h-36.985V502.106z"/>
	<path fill="#010202" d="M823.128,975.551c-29.478,0-56.219,11.931-75.658,31.211c15.651-18.678,25.092-42.729,25.092-68.946
		c0-59.275-48.227-107.5-107.5-107.5c-59.274,0-107.5,48.224-107.5,107.5c0,59.274,48.226,107.499,107.5,107.499
		c29.478,0,56.219-11.93,75.659-31.211c-15.652,18.679-25.093,42.729-25.093,68.947c0,59.274,48.226,107.5,107.5,107.5
		c59.273,0,107.5-48.226,107.5-107.5S882.403,975.551,823.128,975.551z"/>
</g>
</svg>
