<?xml version="1.0" encoding="utf-8"?>
<!-- Generator: Adobe Illustrator 16.0.0, SVG Export Plug-In . SVG Version: 6.00 Build 0)  -->
<!DOCTYPE svg PUBLIC "-//W3C//DTD SVG 1.1//EN" "http://www.w3.org/Graphics/SVG/1.1/DTD/svg11.dtd">
<svg version="1.1" id="Calque_1" xmlns="http://www.w3.org/2000/svg" xmlns:xlink="http://www.w3.org/1999/xlink" x="0px" y="0px"
	 width="1190.551px" height="1190.551px" viewBox="0 0 1190.551 1190.551" enable-background="new 0 0 1190.551 1190.551"
	 xml:space="preserve">
<path fill="#010202" d="M582.123,752.869c59.275,0,107.5-48.226,107.5-107.5c0-59.275-48.225-107.5-107.5-107.5
	c-31.748,0-60.321,13.839-80.018,35.795v-18.149h17.929v-39.453h-17.929v-32.275h17.929v-39.451h-17.929v-36.985h17.929v-39.453
	h-17.929V325.31h17.929v-39.451h-17.929v-39.452h17.929v-39.449h-17.929v-42.652h17.929v-39.451h-17.929V84.506h17.929V45.055
	h-17.929V21.519h-28.631V0h-41.244v21.519h-28.164V0h-41.242v21.519h-34.887V0h-41.246v21.519h-35.639V0h-41.244v21.519H177.53V0
	h-41.243v21.519h-34.072V0H60.97v21.519H17.932v23.536H0v39.451h17.932v40.348H0v39.451h17.932v42.652H0v39.449h17.932v39.452H0
	v39.451h17.932v42.588H0v39.453h17.932v36.985H0v39.451h17.932v32.275H0v39.453h17.932v18.318H60.97v19.725H0v595.278H595.28
	V891.198h-177.5h-13.5v115.36h-206v-210h112v-12.86v-190.14h17.658v-19.725h34.887v19.725h41.242v-19.725h28.164v19.725h41.244
	v-19.725h28.48c-16.988,19.018-27.332,44.09-27.332,71.535c0,25.27,8.77,48.527,23.418,66.9
	c-19.704-22.116-48.381-36.071-80.262-36.071c-59.273,0-107.5,48.226-107.5,107.5c0,59.275,48.227,107.5,107.5,107.5
	c59.276,0,107.5-48.225,107.5-107.5c0-25.27-8.77-48.527-23.418-66.9C521.565,738.914,550.243,752.869,582.123,752.869z
	 M102.214,593.559v-19.725h34.072v19.725H102.214z M177.53,593.559v-19.725h32.279v19.725H177.53z M251.053,593.559v-19.725h35.639
	v19.725H251.053z"/>
</svg>
