<?xml version="1.0" encoding="utf-8"?>
<!-- Generator: Adobe Illustrator 16.0.0, SVG Export Plug-In . SVG Version: 6.00 Build 0)  -->
<!DOCTYPE svg PUBLIC "-//W3C//DTD SVG 1.1//EN" "http://www.w3.org/Graphics/SVG/1.1/DTD/svg11.dtd">
<svg version="1.1" id="Calque_1" xmlns="http://www.w3.org/2000/svg" xmlns:xlink="http://www.w3.org/1999/xlink" x="0px" y="0px"
	 width="1190.551px" height="1190.551px" viewBox="0 0 1190.551 1190.551" enable-background="new 0 0 1190.551 1190.551"
	 xml:space="preserve">
<path fill="#010202" d="M609.297,505.471c-19.58,0-37.953,5.265-53.781,14.45v-17.818h18.319v-43.038h19.724v-41.244h-19.724
	v-34.071h19.724v-41.244h-19.724v-32.279h19.724v-41.244h-19.724v-35.639h19.724v-41.246h-19.724v-34.886h19.724v-41.243h-19.724
	V87.804h19.724V46.56h-19.724V17.929h-18.319V0h-39.453v17.929h-32.276V0h-39.449v17.929h-36.986V0h-39.453v17.929H325.31V0h-39.451
	v17.929h-39.452V0h-39.449v17.929h-42.652V0h-39.451v17.929H84.506V0H45.055v17.929H21.519V46.56H0v41.244h21.519v28.164H0v41.243
	h21.519v34.886H0v41.246h21.519v35.639H0v41.244h21.519v32.279H0v41.244h21.519v34.071H0v41.244h21.519v43.038h23.536v17.933H0
	v595.278H595.28V817.676H417.781H404.28v115.358h-206v-210h112V520.035h15.03v-17.933h42.588v17.933h39.453v-17.933h36.986v17.933
	h39.449v-17.933h32.276v17.933h39.259c-31.982,18.647-53.525,53.321-53.525,92.936c0,15.889,3.469,30.981,9.683,44.566
	c-18.452-32.717-53.536-54.861-93.699-54.861c-59.275,0-107.5,48.224-107.5,107.5c0,59.272,48.224,107.5,107.5,107.5
	c59.274,0,107.499-48.228,107.499-107.5c0-15.89-3.469-30.982-9.683-44.567c18.453,32.717,53.537,54.862,93.701,54.862
	c59.275,0,107.5-48.226,107.5-107.5C716.797,553.696,668.573,505.471,609.297,505.471z M84.506,520.035v-17.933h40.348v17.933
	H84.506z M164.305,520.035v-17.933h42.652v17.933H164.305z M246.406,520.035v-17.933h39.452v17.933H246.406z"/>
</svg>
