<?xml version="1.0" encoding="utf-8"?>
<!-- Generator: Adobe Illustrator 16.0.0, SVG Export Plug-In . SVG Version: 6.00 Build 0)  -->
<!DOCTYPE svg PUBLIC "-//W3C//DTD SVG 1.1//EN" "http://www.w3.org/Graphics/SVG/1.1/DTD/svg11.dtd">
<svg version="1.1" id="Calque_1" xmlns="http://www.w3.org/2000/svg" xmlns:xlink="http://www.w3.org/1999/xlink" x="0px" y="0px"
	 width="1190.551px" height="1190.551px" viewBox="0 0 1190.551 1190.551" enable-background="new 0 0 1190.551 1190.551"
	 xml:space="preserve">
<g>
	<polygon fill="#010202" points="115.267,562.213 157.886,568.204 155.141,587.737 195.984,593.476 198.729,573.944 
		232.469,578.685 229.724,598.218 270.567,603.959 273.312,584.425 305.277,588.917 302.531,608.451 343.373,614.191 
		346.118,594.658 381.41,599.618 378.665,619.151 419.511,624.892 422.255,605.358 456.803,610.214 454.058,629.747 494.9,635.487 
		497.645,615.954 525.533,619.874 522.788,639.406 563.631,645.146 566.376,625.613 594.73,629.598 597.278,611.459 
		615.032,613.954 620.525,574.884 602.77,572.389 607.261,540.427 625.015,542.922 630.506,503.854 612.751,501.36 617.9,464.735 
		635.653,467.229 641.145,428.161 623.389,425.666 629.318,383.493 647.071,385.988 652.563,346.92 634.807,344.425 
		640.297,305.356 658.052,307.852 663.542,268.787 645.788,266.292 651.725,224.054 669.48,226.548 674.969,187.481 
		657.214,184.987 662.83,145.032 680.584,147.527 686.074,108.46 668.321,105.963 671.596,82.658 643.243,78.672 646.239,57.364 
		605.397,51.624 602.402,72.933 574.511,69.013 577.506,47.704 536.664,41.963 533.669,63.273 499.122,58.418 502.117,37.109 
		461.274,31.369 458.279,52.678 422.986,47.718 425.982,26.409 385.139,20.668 382.145,41.978 350.179,37.486 353.174,16.176 
		312.33,10.436 309.336,31.746 275.596,27.003 278.591,5.694 237.747,-0.046 234.753,21.263 192.135,15.273 188.859,38.581 
		171.102,36.085 165.611,75.152 183.367,77.647 177.752,117.603 159.994,115.107 154.504,154.173 172.263,156.67 166.325,198.907 
		148.569,196.412 143.077,235.477 160.835,237.973 155.346,277.042 137.587,274.545 132.098,313.613 149.855,316.107 
		143.928,358.282 126.169,355.787 120.68,394.854 138.437,397.351 133.289,433.976 115.531,431.479 110.041,470.547 
		127.799,473.043 123.308,505.004 105.55,502.509 100.059,541.579 117.817,544.074 	"/>
	<polygon fill="#010202" points="867.592,522.338 315.657,745.335 427.155,1021.3 604.247,949.751 561.032,842.791 752.032,765.622 
		830.699,960.33 726.857,1002.286 802.902,1190.505 1090.587,1074.271 	"/>
	<path fill="#010202" d="M312.719,845.837c-12.323-57.979-69.522-95.124-127.501-82.801c-57.98,12.324-95.124,69.521-82.802,127.502
		c10.473,49.264,53.342,83.479,101.56,85.094c-46.797,1.543-88.931,33.818-100.806,81.447
		c-14.341,57.516,20.785,115.974,78.301,130.312c57.515,14.34,115.974-20.783,130.312-78.3
		c14.34-57.514-20.785-115.974-78.3-130.312c-7.497-1.869-15.008-2.892-22.438-3.14c6.243-0.205,12.554-0.96,18.872-2.303
		C287.898,961.014,325.042,903.816,312.719,845.837z"/>
</g>
</svg>
