<?xml version="1.0" encoding="utf-8"?>
<!-- Generator: Adobe Illustrator 16.0.0, SVG Export Plug-In . SVG Version: 6.00 Build 0)  -->
<!DOCTYPE svg PUBLIC "-//W3C//DTD SVG 1.1//EN" "http://www.w3.org/Graphics/SVG/1.1/DTD/svg11.dtd">
<svg version="1.1" id="Calque_1" xmlns="http://www.w3.org/2000/svg" xmlns:xlink="http://www.w3.org/1999/xlink" x="0px" y="0px"
	 width="1190.551px" height="1190.551px" viewBox="0 0 1190.551 1190.551" enable-background="new 0 0 1190.551 1190.551"
	 xml:space="preserve">
<g>
	<path fill="#010202" d="M0,998.698c0,59.275,48.227,107.5,107.5,107.5c59.275,0,107.5-48.225,107.5-107.5
		c0-59.273-48.225-107.5-107.5-107.5C48.226,891.198,0,939.423,0,998.698z"/>
	<path fill="#010202" d="M625.396,300.428c-51.957,0-95.419,37.051-105.361,86.119v-39.395h-17.932V307.7h17.932v-39.451h-17.932
		v-42.588h17.932v-39.453h-17.932v-36.985h17.932v-39.451h-17.932V77.496h17.932V38.043h-17.932V19.725h-43.038V0h-41.244v19.725
		h-34.071V0h-41.244v19.725h-32.279V0h-41.244v19.725h-35.639V0h-41.246v19.725h-34.886V0h-41.243v19.725H87.804V0H46.56v19.725
		H17.929v18.318H0v39.453h17.929v32.275H0v39.451h17.929v36.985H0v39.453h17.929v42.588H0V307.7h17.929v39.451H0v39.45h17.929
		v42.652H0v39.451h17.929v40.348H0v39.451h17.929v23.536H46.56v21.519H0v297.639h107.5H191v-115.36h206v210H285v203H595.28V593.559
		H459.065V572.04h43.038v-23.536h17.932v-39.451h-17.932v-40.348h17.932v-39.396c9.942,49.066,53.404,86.119,105.361,86.119
		c59.272,0,107.5-48.225,107.5-107.5S684.668,300.428,625.396,300.428z M87.804,593.559V572.04h28.164v21.519H87.804z
		 M157.211,593.559V572.04h34.886v21.519H157.211z M233.343,593.559V572.04h35.639v21.519H233.343z M310.226,593.559V572.04h32.279
		v21.519H310.226z M383.749,593.559V572.04h34.071v21.519H383.749z M502.103,429.254v-42.652h17.921
		c-1.393,6.896-2.128,14.026-2.128,21.326s0.735,14.431,2.128,21.326H502.103z"/>
</g>
</svg>
