<?xml version="1.0" encoding="utf-8"?>
<!-- Generator: Adobe Illustrator 16.0.0, SVG Export Plug-In . SVG Version: 6.00 Build 0)  -->
<!DOCTYPE svg PUBLIC "-//W3C//DTD SVG 1.1//EN" "http://www.w3.org/Graphics/SVG/1.1/DTD/svg11.dtd">
<svg version="1.1" id="Calque_1" xmlns="http://www.w3.org/2000/svg" xmlns:xlink="http://www.w3.org/1999/xlink" x="0px" y="0px"
	 width="1190.551px" height="1190.551px" viewBox="0 0 1190.551 1190.551" enable-background="new 0 0 1190.551 1190.551"
	 xml:space="preserve">
<g>
	<path fill="#010202" d="M701.915,297.794v115.361h-206v-210h112v-203H297.637v595.28h474.081v122.871H551.313V841.18H405.367
		c59.169-0.125,107.27-48.3,107.27-107.497c0-59.273-48.228-107.5-107.5-107.5c-59.275,0-107.5,48.227-107.5,107.5
		c0,59.197,48.1,107.372,107.269,107.497H297.637V944.65h107.5h146.176v122.872h220.405v122.873h121.196v-594.96V297.794H701.915z"
		/>
	<path fill="#010202" d="M297.637,1052.149c0,59.275,48.225,107.5,107.5,107.5c59.273,0,107.5-48.223,107.5-107.5
		c0-59.273-48.228-107.5-107.5-107.5C345.862,944.649,297.637,992.876,297.637,1052.149z"/>
</g>
</svg>
