<?xml version="1.0" encoding="utf-8"?>
<!-- Generator: Adobe Illustrator 16.0.0, SVG Export Plug-In . SVG Version: 6.00 Build 0)  -->
<!DOCTYPE svg PUBLIC "-//W3C//DTD SVG 1.1//EN" "http://www.w3.org/Graphics/SVG/1.1/DTD/svg11.dtd">
<svg version="1.1" id="Calque_1" xmlns="http://www.w3.org/2000/svg" xmlns:xlink="http://www.w3.org/1999/xlink" x="0px" y="0px"
	 width="1190.551px" height="1190.551px" viewBox="0 0 1190.551 1190.551" enable-background="new 0 0 1190.551 1190.551"
	 xml:space="preserve">
<g>
	<polygon fill="#010202" points="297.639,0 297.639,191 413,191 413,397 203,397 203,285 0,285 0,595.279 595.28,595.279 595.28,0 	
		"/>
	<polygon fill="#010202" points="474.082,718.15 253.676,718.15 253.676,841.023 107.503,841.023 0,841.023 0,944.493 
		107.5,944.493 253.676,944.493 253.676,1067.365 474.082,1067.365 474.082,1190.239 595.279,1190.239 595.279,595.28 
		474.082,595.28 	"/>
	<path fill="#010202" d="M0,1051.993c0,59.276,48.226,107.5,107.5,107.5s107.5-48.224,107.5-107.5
		c0-59.274-48.224-107.5-107.5-107.5C48.226,944.493,0,992.721,0,1051.993z"/>
	<path fill="#010202" d="M215.003,733.523c0-59.275-48.226-107.5-107.5-107.5s-107.5,48.228-107.5,107.5
		c0,59.276,48.226,107.5,107.5,107.5S215.003,792.799,215.003,733.523z"/>
</g>
</svg>
