<?xml version="1.0" encoding="utf-8"?>
<!-- Generator: Adobe Illustrator 16.0.0, SVG Export Plug-In . SVG Version: 6.00 Build 0)  -->
<!DOCTYPE svg PUBLIC "-//W3C//DTD SVG 1.1//EN" "http://www.w3.org/Graphics/SVG/1.1/DTD/svg11.dtd">
<svg version="1.1" id="Calque_1" xmlns="http://www.w3.org/2000/svg" xmlns:xlink="http://www.w3.org/1999/xlink" x="0px" y="0px"
	 width="1190.551px" height="1190.551px" viewBox="0 0 1190.551 1190.551" enable-background="new 0 0 1190.551 1190.551"
	 xml:space="preserve">
<g>
	<polygon fill="#010202" points="944.653,942.52 944.653,722.114 821.781,722.114 821.781,468.438 718.309,468.438 718.309,126.834 
		123.031,126.834 123.031,424.475 230.531,424.475 314.031,424.475 314.031,309.114 520.031,309.114 520.031,519.114 
		408.031,519.114 408.031,722.114 595.436,722.114 595.436,942.52 472.565,942.52 472.565,1063.717 1067.524,1063.717 
		1067.524,942.52 	"/>
	<path fill="#010202" d="M123.031,531.975c0,59.275,48.226,107.5,107.5,107.5c59.273,0,107.5-48.225,107.5-107.5
		c0-59.274-48.225-107.5-107.5-107.5C171.257,424.475,123.031,472.701,123.031,531.975z"/>
	<path fill="#010202" d="M230.528,639.475c-59.274,0-107.5,48.226-107.5,107.5c0,59.276,48.225,107.5,107.5,107.5
		c59.273,0,107.5-48.226,107.5-107.5C338.028,687.699,289.802,639.475,230.528,639.475z"/>
</g>
</svg>
