<?xml version="1.0" encoding="utf-8"?>
<!-- Generator: Adobe Illustrator 16.0.0, SVG Export Plug-In . SVG Version: 6.00 Build 0)  -->
<!DOCTYPE svg PUBLIC "-//W3C//DTD SVG 1.1//EN" "http://www.w3.org/Graphics/SVG/1.1/DTD/svg11.dtd">
<svg version="1.1" id="Calque_1" xmlns="http://www.w3.org/2000/svg" xmlns:xlink="http://www.w3.org/1999/xlink" x="0px" y="0px"
	 width="1190.551px" height="1190.551px" viewBox="0 0 1190.551 1190.551" enable-background="new 0 0 1190.551 1190.551"
	 xml:space="preserve">
<g>
	<path fill="#010202" d="M715.415,297.795h-13.5v115.361h-206v-210h112v-12.861V0.156H297.637v595.28h474.081v122.871H551.313
		V841.18H297.637V944.65h107.269c-59.169,0.125-107.269,48.299-107.269,107.496c0,59.275,48.227,107.5,107.5,107.5
		c59.274,0,107.5-48.225,107.5-107.5c0-59.195-48.101-107.371-107.27-107.496h145.945v122.871h220.406v122.873h121.195V595.436
		V297.795H715.415z"/>
	<path fill="#010202" d="M715.415,297.795c59.276,0,107.5-48.226,107.5-107.5c0-59.275-48.224-107.5-107.5-107.5
		c-59.273,0-107.5,48.223-107.5,107.5C607.915,249.569,656.142,297.795,715.415,297.795z"/>
</g>
</svg>
