<?xml version="1.0" encoding="utf-8"?>
<!-- Generator: Adobe Illustrator 16.0.0, SVG Export Plug-In . SVG Version: 6.00 Build 0)  -->
<!DOCTYPE svg PUBLIC "-//W3C//DTD SVG 1.1//EN" "http://www.w3.org/Graphics/SVG/1.1/DTD/svg11.dtd">
<svg version="1.1" id="Calque_1" xmlns="http://www.w3.org/2000/svg" xmlns:xlink="http://www.w3.org/1999/xlink" x="0px" y="0px"
	 width="1190.551px" height="1190.551px" viewBox="0 0 1190.551 1190.551" enable-background="new 0 0 1190.551 1190.551"
	 xml:space="preserve">
<g>
	<polygon fill="#010202" points="523.985,595.279 508.612,595.279 401.112,595.279 401.112,487.779 401.112,341.603 
		297.641,341.603 297.641,404.279 182.28,404.279 182.28,198.279 392.28,198.279 392.28,310.279 595.28,310.279 595.28,0 0,0 
		0,595.279 174.769,595.279 174.769,815.685 51.896,815.685 51.896,936.882 646.856,936.882 646.856,815.685 631.488,815.685 
		523.985,815.685 	"/>
	<path fill="#010202" d="M508.612,595.279c59.275,0,107.5-48.224,107.5-107.5c0-59.274-48.223-107.5-107.5-107.5
		c-59.273,0-107.5,48.227-107.5,107.5C401.112,547.055,449.338,595.279,508.612,595.279z"/>
	<path fill="#010202" d="M738.988,708.185c0-59.275-48.225-107.5-107.5-107.5c-59.273,0-107.5,48.227-107.5,107.5
		c0,59.276,48.227,107.5,107.5,107.5C690.763,815.685,738.988,767.461,738.988,708.185z"/>
</g>
</svg>
