<?xml version="1.0" encoding="utf-8"?>
<!-- Generator: Adobe Illustrator 16.0.0, SVG Export Plug-In . SVG Version: 6.00 Build 0)  -->
<!DOCTYPE svg PUBLIC "-//W3C//DTD SVG 1.1//EN" "http://www.w3.org/Graphics/SVG/1.1/DTD/svg11.dtd">
<svg version="1.1" id="Calque_1" xmlns="http://www.w3.org/2000/svg" xmlns:xlink="http://www.w3.org/1999/xlink" x="0px" y="0px"
	 width="1190.551px" height="1190.551px" viewBox="0 0 1190.551 1190.551" enable-background="new 0 0 1190.551 1190.551"
	 xml:space="preserve">
<g>
	<polygon fill="#010202" points="595.275,0.156 595.275,191.156 710.636,191.156 710.636,397.156 500.636,397.156 500.636,285.156 
		297.636,285.156 297.636,595.435 892.915,595.435 892.915,0.156 	"/>
	<polygon fill="#010202" points="771.717,718.307 551.312,718.307 551.312,841.18 405.139,841.18 297.636,841.18 297.636,944.648 
		405.136,944.648 551.312,944.648 551.312,1067.521 771.717,1067.521 771.717,1190.395 892.914,1190.395 892.914,595.436 
		771.717,595.436 	"/>
	<path fill="#010202" d="M297.636,1052.148c0,59.277,48.226,107.5,107.5,107.5c59.273,0,107.5-48.223,107.5-107.5
		c0-59.273-48.225-107.5-107.5-107.5C345.862,944.648,297.636,992.877,297.636,1052.148z"/>
	<path fill="#010202" d="M512.639,733.68c0-59.275-48.227-107.5-107.5-107.5c-59.274,0-107.5,48.227-107.5,107.5
		c0,59.275,48.226,107.5,107.5,107.5C464.412,841.18,512.639,792.955,512.639,733.68z"/>
</g>
</svg>
