<?xml version="1.0" encoding="utf-8"?>
<!-- Generator: Adobe Illustrator 16.0.0, SVG Export Plug-In . SVG Version: 6.00 Build 0)  -->
<!DOCTYPE svg PUBLIC "-//W3C//DTD SVG 1.1//EN" "http://www.w3.org/Graphics/SVG/1.1/DTD/svg11.dtd">
<svg version="1.1" id="Calque_1" xmlns="http://www.w3.org/2000/svg" xmlns:xlink="http://www.w3.org/1999/xlink" x="0px" y="0px"
	 width="1190.551px" height="1190.551px" viewBox="0 0 1190.551 1190.551" enable-background="new 0 0 1190.551 1190.551"
	 xml:space="preserve">
<path fill="#010202" d="M1006.086,331.376h122.873V210.179h-594.96v121.196h122.871v176.442h-191v115.362h-206v-210h112v-203H61.593
	v595.28h595.277V551.782h122.873v253.675h103.416c-14.895,18.453-23.832,41.907-23.832,67.415c0,59.272,48.229,107.5,107.5,107.5
	c59.277,0,107.5-48.228,107.5-107.5c0-54.258-40.406-99.249-92.707-106.479c3,0.252,6.033,0.389,9.096,0.389
	c59.273,0,107.5-48.225,107.5-107.5c0-59.273-48.225-107.5-107.5-107.5c-59.273,0-107.5,48.227-107.5,107.5
	c0,54.258,40.408,99.248,92.707,106.479c-3-0.252-6.031-0.389-9.096-0.389c-33.736,0-63.887,15.625-83.611,40.016V659.281v-107.5
	h107.5h15.371V331.376z"/>
</svg>
