<?xml version="1.0" encoding="utf-8"?>
<!-- Generator: Adobe Illustrator 16.0.0, SVG Export Plug-In . SVG Version: 6.00 Build 0)  -->
<!DOCTYPE svg PUBLIC "-//W3C//DTD SVG 1.1//EN" "http://www.w3.org/Graphics/SVG/1.1/DTD/svg11.dtd">
<svg version="1.1" id="Calque_1" xmlns="http://www.w3.org/2000/svg" xmlns:xlink="http://www.w3.org/1999/xlink" x="0px" y="0px"
	 width="1190.551px" height="1190.551px" viewBox="0 0 1190.551 1190.551" enable-background="new 0 0 1190.551 1190.551"
	 xml:space="preserve">
<g>
	<path fill="#010202" d="M595.28,594.96H121.197V472.089h220.406V349.216h253.676V245.745H341.603V123.758
		c7.861,51.587,52.524,91.24,106.271,91.24c59.276,0,107.5-48.226,107.5-107.5s-48.224-107.5-107.5-107.5
		c-59.274,0-107.499,48.225-107.499,107.5c0,5.22,0.382,10.353,1.104,15.376H121.197V0H0v594.96v595.278h297.641v-177.5v-13.5
		H182.28v-206h210v112h12.861H595.28V594.96z"/>
	<path fill="#010202" d="M297.641,1012.739c0,59.276,48.226,107.5,107.5,107.5c59.275,0,107.5-48.224,107.5-107.5
		c0-59.273-48.222-107.5-107.5-107.5C345.866,905.239,297.641,953.466,297.641,1012.739z"/>
</g>
</svg>
