<?xml version="1.0" encoding="utf-8"?>
<!-- Generator: Adobe Illustrator 16.0.0, SVG Export Plug-In . SVG Version: 6.00 Build 0)  -->
<!DOCTYPE svg PUBLIC "-//W3C//DTD SVG 1.1//EN" "http://www.w3.org/Graphics/SVG/1.1/DTD/svg11.dtd">
<svg version="1.1" id="Calque_1" xmlns="http://www.w3.org/2000/svg" xmlns:xlink="http://www.w3.org/1999/xlink" x="0px" y="0px"
	 width="1190.551px" height="1190.551px" viewBox="0 0 1190.551 1190.551" enable-background="new 0 0 1190.551 1190.551"
	 xml:space="preserve">
<g>
	<path fill="#010202" d="M595.279,297.639h-177.5h-13.5V413h-206V203h112v-12.861V0H0V595.28v594.96h121.196v-122.871h220.406
		V944.495h253.676V841.025H341.603V719.02c7.852,51.598,52.519,91.26,106.274,91.26c59.274,0,107.5-48.224,107.5-107.5
		c0-59.273-48.226-107.5-107.5-107.5s-107.5,48.228-107.5,107.5c0,5.22,0.381,10.351,1.104,15.373H121.197V595.28h326.681h147.401
		V297.639z"/>
	<path fill="#010202" d="M417.779,297.639c59.275,0,107.5-48.223,107.5-107.5c0-59.275-48.226-107.5-107.5-107.5
		c-59.275,0-107.5,48.225-107.5,107.5C310.279,249.413,358.503,297.639,417.779,297.639z"/>
</g>
</svg>
