<?xml version="1.0" encoding="utf-8"?>
<!-- Generator: Adobe Illustrator 16.0.0, SVG Export Plug-In . SVG Version: 6.00 Build 0)  -->
<!DOCTYPE svg PUBLIC "-//W3C//DTD SVG 1.1//EN" "http://www.w3.org/Graphics/SVG/1.1/DTD/svg11.dtd">
<svg version="1.1" id="Calque_1" xmlns="http://www.w3.org/2000/svg" xmlns:xlink="http://www.w3.org/1999/xlink" x="0px" y="0px"
	 width="1190.551px" height="1190.551px" viewBox="0 0 1190.551 1190.551" enable-background="new 0 0 1190.551 1190.551"
	 xml:space="preserve">
<g>
	<path fill="#010202" d="M417.779,297.639h-13.5V413h-206V203h112v-12.861V0H0V595.28h474.082v122.871H253.676v122.873H0v103.471
		h107.269C48.1,944.619,0,992.794,0,1051.991c0,59.275,48.227,107.5,107.5,107.5c59.275,0,107.5-48.225,107.5-107.5
		c0-59.196-48.1-107.372-107.269-107.497h145.945v122.872h220.406v122.873h121.196V595.28V297.639H417.779z"/>
	<path fill="#010202" d="M417.779,297.639c59.276,0,107.5-48.226,107.5-107.5c0-59.275-48.224-107.5-107.5-107.5
		c-59.274,0-107.5,48.223-107.5,107.5C310.279,249.413,358.505,297.639,417.779,297.639z"/>
</g>
</svg>
