<?xml version="1.0" encoding="utf-8"?>
<!-- Generator: Adobe Illustrator 16.0.0, SVG Export Plug-In . SVG Version: 6.00 Build 0)  -->
<!DOCTYPE svg PUBLIC "-//W3C//DTD SVG 1.1//EN" "http://www.w3.org/Graphics/SVG/1.1/DTD/svg11.dtd">
<svg version="1.1" id="Calque_1" xmlns="http://www.w3.org/2000/svg" xmlns:xlink="http://www.w3.org/1999/xlink" x="0px" y="0px"
	 width="1190.551px" height="1190.551px" viewBox="0 0 1190.551 1190.551" enable-background="new 0 0 1190.551 1190.551"
	 xml:space="preserve">
<g>
	<path fill="#010202" d="M595.28,595.279V0H297.639v191H413v206H203V285h-95.5H0v310.278v594.96h121.196v-122.871h220.406V944.494
		h253.676V841.024H341.603V719.042c7.861,51.588,52.522,91.239,106.271,91.239c59.275,0,107.5-48.225,107.5-107.5
		c0-59.273-48.226-107.499-107.5-107.499s-107.499,48.226-107.499,107.499c0,5.219,0.381,10.349,1.104,15.37H121.197V595.279H595.28
		z"/>
	<path fill="#010202" d="M215,177.5C215,118.226,166.776,70,107.5,70S0,118.223,0,177.5C0,236.775,48.227,285,107.5,285
		C166.776,285,215,236.775,215,177.5z"/>
</g>
</svg>
