<?xml version="1.0" encoding="utf-8"?>
<!-- Generator: Adobe Illustrator 16.0.0, SVG Export Plug-In . SVG Version: 6.00 Build 0)  -->
<!DOCTYPE svg PUBLIC "-//W3C//DTD SVG 1.1//EN" "http://www.w3.org/Graphics/SVG/1.1/DTD/svg11.dtd">
<svg version="1.1" id="Calque_1" xmlns="http://www.w3.org/2000/svg" xmlns:xlink="http://www.w3.org/1999/xlink" x="0px" y="0px"
	 width="1190.551px" height="1190.551px" viewBox="0 0 1190.551 1190.551" enable-background="new 0 0 1190.551 1190.551"
	 xml:space="preserve">
<g>
	<polygon fill="#010202" points="749.766,722.113 734.393,722.113 626.893,722.113 626.893,614.613 626.893,468.438 
		523.423,468.438 523.423,531.113 408.061,531.113 408.061,325.113 618.061,325.113 618.061,437.113 821.061,437.113 
		821.061,126.834 225.782,126.834 225.782,722.113 400.551,722.113 400.551,942.52 277.677,942.52 277.677,1063.717 
		872.637,1063.717 872.637,942.52 857.27,942.52 749.766,942.52 	"/>
	<path fill="#010202" d="M734.393,722.113c59.275,0,107.5-48.224,107.5-107.5c0-59.274-48.223-107.5-107.5-107.5
		c-59.271,0-107.5,48.227-107.5,107.5C626.893,673.89,675.119,722.113,734.393,722.113z"/>
	<path fill="#010202" d="M964.77,835.02c0-59.275-48.225-107.5-107.5-107.5c-59.273,0-107.5,48.227-107.5,107.5
		c0,59.275,48.227,107.5,107.5,107.5C916.545,942.52,964.77,894.295,964.77,835.02z"/>
</g>
</svg>
