<?xml version="1.0" encoding="utf-8"?>
<!-- Generator: Adobe Illustrator 16.0.0, SVG Export Plug-In . SVG Version: 6.00 Build 0)  -->
<!DOCTYPE svg PUBLIC "-//W3C//DTD SVG 1.1//EN" "http://www.w3.org/Graphics/SVG/1.1/DTD/svg11.dtd">
<svg version="1.1" id="Calque_1" xmlns="http://www.w3.org/2000/svg" xmlns:xlink="http://www.w3.org/1999/xlink" x="0px" y="0px"
	 width="1190.551px" height="1190.551px" viewBox="0 0 1190.551 1190.551" enable-background="new 0 0 1190.551 1190.551"
	 xml:space="preserve">
<g>
	<path fill="#010202" d="M892.915,595.435V0.156H595.275v191h115.361v206h-210v-112h-95.5h-107.5v310.278v594.96h121.195v-122.871
		h220.406V944.65h253.676v-103.47H639.239V719.198c7.861,51.588,52.522,91.239,106.271,91.239c59.275,0,107.5-48.226,107.5-107.5
		c0-59.273-48.226-107.499-107.5-107.499c-59.273,0-107.498,48.226-107.498,107.499c0,5.219,0.381,10.349,1.104,15.37H418.832
		V595.435H892.915z"/>
	<path fill="#010202" d="M512.636,177.656c0-59.274-48.225-107.5-107.5-107.5c-59.276,0-107.5,48.223-107.5,107.5
		c0,59.275,48.227,107.5,107.5,107.5C464.411,285.156,512.636,236.931,512.636,177.656z"/>
</g>
</svg>
