<?xml version="1.0" encoding="utf-8"?>
<!-- Generator: Adobe Illustrator 16.0.0, SVG Export Plug-In . SVG Version: 6.00 Build 0)  -->
<!DOCTYPE svg PUBLIC "-//W3C//DTD SVG 1.1//EN" "http://www.w3.org/Graphics/SVG/1.1/DTD/svg11.dtd">
<svg version="1.1" id="Calque_1" xmlns="http://www.w3.org/2000/svg" xmlns:xlink="http://www.w3.org/1999/xlink" x="0px" y="0px"
	 width="1190.551px" height="1190.551px" viewBox="0 0 1190.551 1190.551" enable-background="new 0 0 1190.551 1190.551"
	 xml:space="preserve">
<g>
	<path fill="#010202" d="M404.279,297.639V413h-206V203h112V0H0V595.28h474.082v122.871H253.676v122.873H107.731
		C166.9,840.899,215,792.725,215,733.527c0-59.273-48.227-107.5-107.5-107.5c-59.275,0-107.5,48.227-107.5,107.5
		c0,59.198,48.1,107.372,107.269,107.497H0v103.471h107.5h146.176v122.872h220.406v122.873h121.196V595.28V297.639H404.279z"/>
	<path fill="#010202" d="M0,1051.994c0,59.275,48.225,107.5,107.5,107.5c59.274,0,107.5-48.223,107.5-107.5
		c0-59.273-48.227-107.5-107.5-107.5C48.225,944.494,0,992.721,0,1051.994z"/>
</g>
</svg>
