<?xml version="1.0" encoding="utf-8"?>
<!-- Generator: Adobe Illustrator 16.0.0, SVG Export Plug-In . SVG Version: 6.00 Build 0)  -->
<!DOCTYPE svg PUBLIC "-//W3C//DTD SVG 1.1//EN" "http://www.w3.org/Graphics/SVG/1.1/DTD/svg11.dtd">
<svg version="1.1" id="Calque_1" xmlns="http://www.w3.org/2000/svg" xmlns:xlink="http://www.w3.org/1999/xlink" x="0px" y="0px"
	 width="1190.551px" height="1190.551px" viewBox="0 0 1190.551 1190.551" enable-background="new 0 0 1190.551 1190.551"
	 xml:space="preserve">
<g>
	<path fill="#010202" d="M892.915,595.117H418.832V472.246h220.406V349.373h253.676V245.902H639.239V123.915
		c7.861,51.587,52.524,91.24,106.271,91.24c59.276,0,107.5-48.226,107.5-107.5s-48.224-107.5-107.5-107.5
		c-59.273,0-107.498,48.225-107.498,107.5c0,5.22,0.382,10.353,1.104,15.376H418.832V0.157H297.636v594.96v595.278h297.641v-177.5
		v-13.5H479.915v-206h210v112h12.861h190.139V595.117z"/>
	<path fill="#010202" d="M595.277,1012.896c0,59.275,48.227,107.5,107.5,107.5c59.274,0,107.5-48.225,107.5-107.5
		c0-59.273-48.222-107.5-107.5-107.5C643.502,905.396,595.277,953.623,595.277,1012.896z"/>
</g>
</svg>
