<?xml version="1.0" encoding="utf-8"?>
<!-- Generator: Adobe Illustrator 16.0.0, SVG Export Plug-In . SVG Version: 6.00 Build 0)  -->
<!DOCTYPE svg PUBLIC "-//W3C//DTD SVG 1.1//EN" "http://www.w3.org/Graphics/SVG/1.1/DTD/svg11.dtd">
<svg version="1.1" id="Calque_1" xmlns="http://www.w3.org/2000/svg" xmlns:xlink="http://www.w3.org/1999/xlink" x="0px" y="0px"
	 width="1190.551px" height="1190.551px" viewBox="0 0 1190.551 1190.551" enable-background="new 0 0 1190.551 1190.551"
	 xml:space="preserve">
<g>
	<path fill="#010202" d="M892.914,297.794h-177.5h-13.5v115.361h-206v-210h112v-12.861V0.155H297.636v595.28v594.96h121.195
		v-122.871h220.407V944.65h253.676v-103.47H639.239V719.175c7.854,51.599,52.52,91.261,106.275,91.261
		c59.273,0,107.5-48.225,107.5-107.5c0-59.273-48.227-107.5-107.5-107.5c-59.275,0-107.5,48.228-107.5,107.5
		c0,5.22,0.381,10.351,1.104,15.373H418.833V595.436h326.681h147.4V297.794z"/>
	<path fill="#010202" d="M715.414,297.794c59.275,0,107.5-48.223,107.5-107.5c0-59.275-48.225-107.5-107.5-107.5
		c-59.273,0-107.5,48.225-107.5,107.5C607.914,249.568,656.139,297.794,715.414,297.794z"/>
</g>
</svg>
