<?xml version="1.0" encoding="utf-8"?>
<!-- Generator: Adobe Illustrator 16.0.0, SVG Export Plug-In . SVG Version: 6.00 Build 0)  -->
<!DOCTYPE svg PUBLIC "-//W3C//DTD SVG 1.1//EN" "http://www.w3.org/Graphics/SVG/1.1/DTD/svg11.dtd">
<svg version="1.1" id="Calque_1" xmlns="http://www.w3.org/2000/svg" xmlns:xlink="http://www.w3.org/1999/xlink" x="0px" y="0px"
	 width="1190.551px" height="1190.551px" viewBox="0 0 1190.551 1190.551" enable-background="new 0 0 1190.551 1190.551"
	 xml:space="preserve">
<path fill="#010202" d="M735.792,505.178v186.794c-34.684-99.259-120.449-174.526-225.8-194.298h159.28v-99.213h83.124V264.387
	H586.149v-61.672h-99.213V90.094H337.23v58.991h-180.11v348.589h164.908v-96.532h183.679v95.756
	c-16.557-2.855-33.575-4.36-50.947-4.36c-164.383,0-297.641,133.259-297.641,297.642h281.035v310.277h595.279V505.178H735.792z
	 M851.153,902.179h-210v-112h111.243c0-32.851-5.335-64.451-15.163-94h113.92V902.179L851.153,902.179z"/>
</svg>
