<?xml version="1.0" encoding="utf-8"?>
<!-- Generator: Adobe Illustrator 16.0.0, SVG Export Plug-In . SVG Version: 6.00 Build 0)  -->
<!DOCTYPE svg PUBLIC "-//W3C//DTD SVG 1.1//EN" "http://www.w3.org/Graphics/SVG/1.1/DTD/svg11.dtd">
<svg version="1.1" id="Calque_1" xmlns="http://www.w3.org/2000/svg" xmlns:xlink="http://www.w3.org/1999/xlink" x="0px" y="0px"
	 width="1190.551px" height="1190.551px" viewBox="0 0 1190.551 1190.551" enable-background="new 0 0 1190.551 1190.551"
	 xml:space="preserve">
<path fill="#010202" d="M774.422,440.682V93.846h-164.91v96.532H425.835V93.846H262.267v99.213h-83.124v134.074h166.249v61.672
	h99.213v112.621H179.143v595.279H774.42V800.818c54.367,71.441,140.285,117.572,236.988,117.572V323.111
	C914.705,323.11,828.789,369.24,774.422,440.682z M583.422,799.066v115.359h-206v-210h112v-203h104.891v-58.992h178.766
	c-37.244,49.699-59.309,111.43-59.309,178.315c0,66.886,22.064,128.616,59.309,178.315H583.422V799.066z"/>
</svg>
