<?xml version="1.0" encoding="utf-8"?>
<!-- Generator: Adobe Illustrator 16.0.0, SVG Export Plug-In . SVG Version: 6.00 Build 0)  -->
<!DOCTYPE svg PUBLIC "-//W3C//DTD SVG 1.1//EN" "http://www.w3.org/Graphics/SVG/1.1/DTD/svg11.dtd">
<svg version="1.1" id="Calque_1" xmlns="http://www.w3.org/2000/svg" xmlns:xlink="http://www.w3.org/1999/xlink" x="0px" y="0px"
	 width="1190.551px" height="1190.551px" viewBox="0 0 1190.551 1190.551" enable-background="new 0 0 1190.551 1190.551"
	 xml:space="preserve">
<path fill="#010202" d="M750.592,689.064V391.485h-191v115.361h-206v-210h112v-203H155.314v595.278h180.109v58.991H155.314v348.59
	h164.908v-96.533h183.679v96.533h163.566V997.49h83.124V863.479c37.279,121.828,150.609,210.434,284.646,210.434V478.633
	C901.201,478.632,787.871,567.236,750.592,689.064z M584.343,863.418v-61.672H485.13V689.125h265.443
	c-8.428,27.564-12.977,56.822-12.977,87.146c0,30.322,4.548,59.582,12.977,87.146H584.343L584.343,863.418z"/>
</svg>
