<?xml version="1.0" encoding="utf-8"?>
<!-- Generator: Adobe Illustrator 16.0.0, SVG Export Plug-In . SVG Version: 6.00 Build 0)  -->
<!DOCTYPE svg PUBLIC "-//W3C//DTD SVG 1.1//EN" "http://www.w3.org/Graphics/SVG/1.1/DTD/svg11.dtd">
<svg version="1.1" id="Calque_1" xmlns="http://www.w3.org/2000/svg" xmlns:xlink="http://www.w3.org/1999/xlink" x="0px" y="0px"
	 width="1190.551px" height="1190.551px" viewBox="0 0 1190.551 1190.551" enable-background="new 0 0 1190.551 1190.551"
	 xml:space="preserve">
<path fill="#010202" d="M987.594,336.133c-71.933-0.001-137.904,25.516-189.358,67.991V93.846H202.957v595.278h180.109v58.991
	H202.957v348.59h164.908v-96.533h183.679v96.533h163.566V997.49h83.124V863.42c51.454,42.475,117.427,67.992,189.358,67.992
	L987.594,336.133L987.594,336.133z M631.987,863.418v-61.672h-99.213V689.125h-32.177v-191H385.236v-206h210v112h203
	c-66.132,54.591-108.282,137.196-108.282,229.646c0,92.449,42.15,175.055,108.281,229.646H631.987L631.987,863.418z"/>
</svg>
