<?xml version="1.0" encoding="utf-8"?>
<!-- Generator: Adobe Illustrator 16.0.0, SVG Export Plug-In . SVG Version: 6.00 Build 0)  -->
<!DOCTYPE svg PUBLIC "-//W3C//DTD SVG 1.1//EN" "http://www.w3.org/Graphics/SVG/1.1/DTD/svg11.dtd">
<svg version="1.1" id="Calque_1" xmlns="http://www.w3.org/2000/svg" xmlns:xlink="http://www.w3.org/1999/xlink" x="0px" y="0px"
	 width="1190.551px" height="1190.551px" viewBox="0 0 1190.551 1190.551" enable-background="new 0 0 1190.551 1190.551"
	 xml:space="preserve">
<path fill="#010202" d="M859.737,499.316l46.141-291.318L703.53,175.949l-43.856,276.894L587.95,0L0,93.122l41.242,260.393
	l409.179-64.808l10.638,67.163L51.88,420.677l41.242,260.396l314.494-49.812l-14.899,94.075l372.38,58.979H562.097v310.28h595.28
	v-595.28H859.737z M680.965,674.555l-273.348-43.294l273.457-43.312l-21.398-135.104l55.025,8.715L680.965,674.555z
	 M975.097,896.316h-210v-112l48.289,7.648l46.351-292.646v190.998h115.36V896.316z"/>
</svg>
