<?xml version="1.0" encoding="utf-8"?>
<!-- Generator: Adobe Illustrator 16.0.0, SVG Export Plug-In . SVG Version: 6.00 Build 0)  -->
<!DOCTYPE svg PUBLIC "-//W3C//DTD SVG 1.1//EN" "http://www.w3.org/Graphics/SVG/1.1/DTD/svg11.dtd">
<svg version="1.1" id="Calque_1" xmlns="http://www.w3.org/2000/svg" xmlns:xlink="http://www.w3.org/1999/xlink" x="0px" y="0px"
	 width="1190.551px" height="1190.551px" viewBox="0 0 1190.551 1190.551" enable-background="new 0 0 1190.551 1190.551"
	 xml:space="preserve">
<path fill="#010202" d="M876.323,547.294l46.142-291.318l-202.349-32.049l-43.855,276.894L604.536,47.978L16.587,141.1
	l41.242,260.393l409.179-64.808l10.638,67.163L68.467,468.655l41.242,260.396l314.494-49.812l-14.899,94.076l372.38,58.979h-203
	v310.279h595.28V547.293L876.323,547.294L876.323,547.294z M697.552,722.533l-273.348-43.295l273.456-43.311l-21.397-135.105
	l55.024,8.715L697.552,722.533z M991.684,944.295h-210v-112l48.289,7.646l46.351-292.646v190.999h115.36V944.295z"/>
</svg>
