<?xml version="1.0" encoding="utf-8"?>
<!-- Generator: Adobe Illustrator 16.0.0, SVG Export Plug-In . SVG Version: 6.00 Build 0)  -->
<!DOCTYPE svg PUBLIC "-//W3C//DTD SVG 1.1//EN" "http://www.w3.org/Graphics/SVG/1.1/DTD/svg11.dtd">
<svg version="1.1" id="Calque_1" xmlns="http://www.w3.org/2000/svg" xmlns:xlink="http://www.w3.org/1999/xlink" x="0px" y="0px"
	 width="1190.551px" height="1190.551px" viewBox="0 0 1190.551 1190.551" enable-background="new 0 0 1190.551 1190.551"
	 xml:space="preserve">
<path fill="#010202" d="M912.567,383.62v160.422h-29.052V383.62h-31.579v-34.104h-117.04c2.934-16.773,4.475-34.024,4.475-51.638
	c0-164.382-133.257-297.64-297.639-297.64s-297.641,133.258-297.641,297.64c0,158.721,124.242,288.409,280.775,297.154H144.213
	v595.28h595.279V892.674h-191v115.358h-206v-210h112V595.229c140.19-5.916,255.29-108.786,279.969-243.298v540.744h46.738v48.354
	h79.58v-40.775h118.735l66.945-188.21V383.62H912.567z"/>
</svg>
