<?xml version="1.0" encoding="utf-8"?>
<!-- Generator: Adobe Illustrator 16.0.0, SVG Export Plug-In . SVG Version: 6.00 Build 0)  -->
<!DOCTYPE svg PUBLIC "-//W3C//DTD SVG 1.1//EN" "http://www.w3.org/Graphics/SVG/1.1/DTD/svg11.dtd">
<svg version="1.1" id="Calque_1" xmlns="http://www.w3.org/2000/svg" xmlns:xlink="http://www.w3.org/1999/xlink" x="0px" y="0px"
	 width="1190.551px" height="1190.551px" viewBox="0 0 1190.551 1190.551" enable-background="new 0 0 1190.551 1190.551"
	 xml:space="preserve">
<path fill="#010202" d="M751.033,594.984c-4.652,0-9.275,0.122-13.875,0.333v-297.39h-191v115.36h-206v-210h112v-203H141.879v595.28
	v543.157h46.736v48.354h79.58v-40.774h118.734l66.949-188.211v-48.604c8.746,156.534,138.434,280.774,297.153,280.774
	c164.383,0,297.641-133.258,297.641-297.64C1048.672,728.241,915.414,594.984,751.033,594.984z M453.879,875.76V629.673H319.983
	v160.42H290.93v-160.42h-31.578v-34.105h473.275C582.396,604.735,462.283,725.322,453.879,875.76z"/>
</svg>
