<?xml version="1.0" encoding="utf-8"?>
<!-- Generator: Adobe Illustrator 16.0.0, SVG Export Plug-In . SVG Version: 6.00 Build 0)  -->
<!DOCTYPE svg PUBLIC "-//W3C//DTD SVG 1.1//EN" "http://www.w3.org/Graphics/SVG/1.1/DTD/svg11.dtd">
<svg version="1.1" id="Calque_1" xmlns="http://www.w3.org/2000/svg" xmlns:xlink="http://www.w3.org/1999/xlink" x="0px" y="0px"
	 width="1190.551px" height="1190.551px" viewBox="0 0 1190.551 1190.551" enable-background="new 0 0 1190.551 1190.551"
	 xml:space="preserve">
<path fill="#010202" d="M1130.783,468.957V350.222l-188.209-66.948H614.153v6.077C609.764,128.801,478.245-0.004,316.634-0.004
	c-164.382,0-297.641,133.258-297.641,297.64c0,164.356,133.217,297.597,297.562,297.639H19.115v595.28h297.64v-191h-115.36v-206h210
	v112h203v-310.28h508.811v-46.736h48.354v-79.58L1130.783,468.957L1130.783,468.957z M774.574,446.222H614.153v31.579h-34.106
	v117.473H316.711c161.575-0.041,293.053-128.829,297.442-289.354v111.25h160.422V446.222z"/>
</svg>
