<?xml version="1.0" encoding="utf-8"?>
<!-- Generator: Adobe Illustrator 16.0.0, SVG Export Plug-In . SVG Version: 6.00 Build 0)  -->
<!DOCTYPE svg PUBLIC "-//W3C//DTD SVG 1.1//EN" "http://www.w3.org/Graphics/SVG/1.1/DTD/svg11.dtd">
<svg version="1.1" id="Calque_1" xmlns="http://www.w3.org/2000/svg" xmlns:xlink="http://www.w3.org/1999/xlink" x="0px" y="0px"
	 width="1190.551px" height="1190.551px" viewBox="0 0 1190.551 1190.551" enable-background="new 0 0 1190.551 1190.551"
	 xml:space="preserve">
<path fill="#010202" d="M390.088,580.321C509.206,541.429,595.28,429.446,595.28,297.34C595.28,132.958,462.022-0.3,297.64-0.3
	S0,132.958,0,297.34c0,160.02,126.284,290.526,284.625,297.341H0v595.279H595.28v-297.64h303.634V758.425h-160.42v-29.053h160.42
	v-31.578h34.104V580.321H390.088z M404.28,892.321v115.359h-206v-210h112V594.695c27.672-1.157,54.365-6.09,79.582-14.301v46.664
	h-48.354v79.58h40.775v118.734l188.211,66.948H404.28z"/>
</svg>
