<?xml version="1.0" encoding="utf-8"?>
<!-- Generator: Adobe Illustrator 16.0.0, SVG Export Plug-In . SVG Version: 6.00 Build 0)  -->
<!DOCTYPE svg PUBLIC "-//W3C//DTD SVG 1.1//EN" "http://www.w3.org/Graphics/SVG/1.1/DTD/svg11.dtd">
<svg version="1.1" id="Calque_1" xmlns="http://www.w3.org/2000/svg" xmlns:xlink="http://www.w3.org/1999/xlink" x="0px" y="0px"
	 width="1190.551px" height="1190.551px" viewBox="0 0 1190.551 1190.551" enable-background="new 0 0 1190.551 1190.551"
	 xml:space="preserve">
<path fill="#010202" d="M904.126,766.116V647.382l-188.21-66.947H389.043c119.597-38.613,206.115-150.833,206.115-283.279
	c0-164.382-133.258-297.64-297.64-297.64S-0.122,132.774-0.122,297.156c0,164.356,133.217,297.597,297.563,297.639H0v595.28H595.28
	V892.436h-191v115.358h-206v-210h112v-203h-12.684c31.336-0.008,61.535-4.872,89.899-13.857v133.392h160.421v29.053H387.495v31.578
	h-34.104v117.475h543.156v-46.738h48.355v-79.58H904.126z"/>
</svg>
