<?xml version="1.0" encoding="utf-8"?>
<!-- Generator: Adobe Illustrator 16.0.0, SVG Export Plug-In . SVG Version: 6.00 Build 0)  -->
<!DOCTYPE svg PUBLIC "-//W3C//DTD SVG 1.1//EN" "http://www.w3.org/Graphics/SVG/1.1/DTD/svg11.dtd">
<svg version="1.1" id="Calque_1" xmlns="http://www.w3.org/2000/svg" xmlns:xlink="http://www.w3.org/1999/xlink" x="0px" y="0px"
	 width="1190.551px" height="1190.551px" viewBox="0 0 1190.551 1190.551" enable-background="new 0 0 1190.551 1190.551"
	 xml:space="preserve">
<path fill="#010202" d="M594.68,0v284.625C587.865,126.284,457.36,0,297.34,0C132.958,0-0.3,133.258-0.3,297.64
	s133.258,297.64,297.64,297.64c13.284,0,26.36-0.883,39.184-2.57v46.417h-48.354v79.58h40.775V837.44l188.21,66.948h328.421V770.494
	H685.155V741.44h160.421v-31.578h34.104V595.28h310.28V0H594.68z M991.68,392.28h-112v200.108H338.823
	C483.565,572.2,594.98,447.942,594.98,297.64h190.7V182.28h206V392.28z"/>
</svg>
