<?xml version="1.0" encoding="utf-8"?>
<!-- Generator: Adobe Illustrator 16.0.0, SVG Export Plug-In . SVG Version: 6.00 Build 0)  -->
<!DOCTYPE svg PUBLIC "-//W3C//DTD SVG 1.1//EN" "http://www.w3.org/Graphics/SVG/1.1/DTD/svg11.dtd">
<svg version="1.1" id="Calque_1" xmlns="http://www.w3.org/2000/svg" xmlns:xlink="http://www.w3.org/1999/xlink" x="0px" y="0px"
	 width="1190.551px" height="1190.551px" viewBox="0 0 1190.551 1190.551" enable-background="new 0 0 1190.551 1190.551"
	 xml:space="preserve">
<path fill="#010202" d="M389.052,580.677c119.403-38.726,205.742-150.85,205.742-283.158c0-164.382-133.258-297.641-297.64-297.641
	S-0.485,133.137-0.485,297.519c0,161.602,128.791,293.117,289.329,297.519H0v595.279H595.28v-297.64h302.576V758.783H737.435
	v-29.055h160.421v-31.578h34.104V580.677H389.052z M404.28,892.677v115.361h-206v-210h112V595.037h-4.814
	c29.009-0.795,56.975-5.755,83.338-14.279v46.658h-48.354v79.58h40.775v118.732l188.211,66.948H404.28z"/>
</svg>
