<?xml version="1.0" encoding="utf-8"?>
<!-- Generator: Adobe Illustrator 16.0.0, SVG Export Plug-In . SVG Version: 6.00 Build 0)  -->
<!DOCTYPE svg PUBLIC "-//W3C//DTD SVG 1.1//EN" "http://www.w3.org/Graphics/SVG/1.1/DTD/svg11.dtd">
<svg version="1.1" id="Calque_1" xmlns="http://www.w3.org/2000/svg" xmlns:xlink="http://www.w3.org/1999/xlink" x="0px" y="0px"
	 width="1190.551px" height="1190.551px" viewBox="0 0 1190.551 1190.551" enable-background="new 0 0 1190.551 1190.551"
	 xml:space="preserve">
<path fill="#010202" d="M1027.011,766.596V647.861l-188.21-66.946H511.929c119.597-38.613,206.114-150.833,206.114-283.279
	c0-164.382-133.258-297.64-297.64-297.64s-297.64,133.258-297.64,297.64c0,164.356,133.217,297.597,297.562,297.639h-297.44v595.28
	h595.279v-297.64h-191v115.358h-206v-210h112v-203h-12.684c31.336-0.008,61.535-4.872,89.899-13.856v133.392h160.421v29.053H510.381
	v31.578h-34.104v117.475h543.156v-46.737h48.354v-79.58L1027.011,766.596L1027.011,766.596z"/>
</svg>
