<?xml version="1.0" encoding="utf-8"?>
<!-- Generator: Adobe Illustrator 16.0.0, SVG Export Plug-In . SVG Version: 6.00 Build 0)  -->
<!DOCTYPE svg PUBLIC "-//W3C//DTD SVG 1.1//EN" "http://www.w3.org/Graphics/SVG/1.1/DTD/svg11.dtd">
<svg version="1.1" id="Calque_1" xmlns="http://www.w3.org/2000/svg" xmlns:xlink="http://www.w3.org/1999/xlink" x="0px" y="0px"
	 width="1190.551px" height="1190.551px" viewBox="0 0 1190.551 1190.551" enable-background="new 0 0 1190.551 1190.551"
	 xml:space="preserve">
<path fill="#010202" d="M609.155,594.697c-4.652,0-9.275,0.122-13.875,0.333V297.64h-191V413h-206V203h112V0H0V595.28v543.157
	h46.737v48.354h79.58v-40.774h118.734L312,957.806v-48.604c8.746,156.534,138.434,280.775,297.154,280.775
	c164.382,0,297.64-133.258,297.64-297.64C906.794,727.954,773.536,594.697,609.155,594.697z M312,875.473V629.386H178.105v160.42
	h-29.053v-160.42h-31.578V595.28h473.275C440.518,604.448,320.405,725.035,312,875.473z"/>
</svg>
