<?xml version="1.0" encoding="utf-8"?>
<!-- Generator: Adobe Illustrator 16.0.0, SVG Export Plug-In . SVG Version: 6.00 Build 0)  -->
<!DOCTYPE svg PUBLIC "-//W3C//DTD SVG 1.1//EN" "http://www.w3.org/Graphics/SVG/1.1/DTD/svg11.dtd">
<svg version="1.1" id="Calque_1" xmlns="http://www.w3.org/2000/svg" xmlns:xlink="http://www.w3.org/1999/xlink" x="0px" y="0px"
	 width="1190.551px" height="1190.551px" viewBox="0 0 1190.551 1190.551" enable-background="new 0 0 1190.551 1190.551"
	 xml:space="preserve">
<path fill="#010202" d="M595.125,143.082v284.625c-6.815-158.341-137.32-284.625-297.34-284.625
	c-164.382,0-297.64,133.258-297.64,297.64c0,164.382,133.258,297.64,297.64,297.64c13.284,0,26.36-0.883,39.184-2.57v46.418h-48.354
	v79.58h40.774v118.732l188.21,66.947h328.421V913.576H685.6v-29.055h160.421v-31.578h34.104V738.361h310.28v-595.28H595.125z
	 M992.125,535.362h-112V735.47H339.268c144.742-20.188,256.157-144.446,256.157-294.748h190.7v-115.36h206V535.362z"/>
</svg>
