<?xml version="1.0" encoding="utf-8"?>
<!-- Generator: Adobe Illustrator 16.0.0, SVG Export Plug-In . SVG Version: 6.00 Build 0)  -->
<!DOCTYPE svg PUBLIC "-//W3C//DTD SVG 1.1//EN" "http://www.w3.org/Graphics/SVG/1.1/DTD/svg11.dtd">
<svg version="1.1" id="Calque_1" xmlns="http://www.w3.org/2000/svg" xmlns:xlink="http://www.w3.org/1999/xlink" x="0px" y="0px"
	 width="1190.551px" height="1190.551px" viewBox="0 0 1190.551 1190.551" enable-background="new 0 0 1190.551 1190.551"
	 xml:space="preserve">
<path fill="#010202" d="M913.805,344.386v160.42h-29.053v-160.42h-31.578v-34.105H738.129V0h-595.28v595.28H439.94
	c-164.027,0.417-296.869,133.504-296.869,297.629c0,164.383,133.258,297.641,297.641,297.641
	c164.382,0,297.64-133.258,297.64-297.641c0-13.385-0.898-26.559-2.609-39.475h46.697v48.355h79.58v-40.775h118.732l66.949-188.209
	v-328.42H913.805z M440.712,595.271c-0.073,0-0.147,0.003-0.223,0.003V404.281h-115.36v-206h210v112h200.573v542.877
	C716.268,707.574,591.612,595.271,440.712,595.271z"/>
</svg>
