<?xml version="1.0" encoding="utf-8"?>
<!-- Generator: Adobe Illustrator 16.0.0, SVG Export Plug-In . SVG Version: 6.00 Build 0)  -->
<!DOCTYPE svg PUBLIC "-//W3C//DTD SVG 1.1//EN" "http://www.w3.org/Graphics/SVG/1.1/DTD/svg11.dtd">
<svg version="1.1" id="Calque_1" xmlns="http://www.w3.org/2000/svg" xmlns:xlink="http://www.w3.org/1999/xlink" x="0px" y="0px"
	 width="1190.551px" height="1190.551px" viewBox="0 0 1190.551 1190.551" enable-background="new 0 0 1190.551 1190.551"
	 xml:space="preserve">
<path fill="#010202" d="M770.956,344.386v160.42h-29.053v-160.42h-31.578V310.28H595.28V0H0V595.28h297.091
	C133.064,595.697,0.222,728.785,0.222,892.909c0,164.383,133.258,297.641,297.641,297.641c164.382,0,297.64-133.258,297.64-297.641
	c0-13.384-0.898-26.557-2.61-39.473h46.697v48.354h79.58v-40.774h118.734l66.949-188.21v-328.42H770.956z M297.863,595.27
	c-0.074,0-0.148,0.003-0.223,0.003V404.28H182.28v-206h210v112h200.573v542.877C573.419,707.573,448.763,595.27,297.863,595.27z"/>
</svg>
