<?xml version="1.0" encoding="utf-8"?>
<!-- Generator: Adobe Illustrator 16.0.0, SVG Export Plug-In . SVG Version: 6.00 Build 0)  -->
<!DOCTYPE svg PUBLIC "-//W3C//DTD SVG 1.1//EN" "http://www.w3.org/Graphics/SVG/1.1/DTD/svg11.dtd">
<svg version="1.1" id="Calque_1" xmlns="http://www.w3.org/2000/svg" xmlns:xlink="http://www.w3.org/1999/xlink" x="0px" y="0px"
	 width="1190.551px" height="1190.551px" viewBox="0 0 1190.551 1190.551" enable-background="new 0 0 1190.551 1190.551"
	 xml:space="preserve">
<g>
	<path fill="#010202" d="M595.126,18.933v284.625c-6.815-158.341-137.32-284.625-297.34-284.625
		c-164.382,0-297.64,133.258-297.64,297.64c0,164.382,133.258,297.64,297.64,297.64c160.02,0,290.524-126.284,297.34-284.625
		v284.625h297.642v-191H777.406v-206h210v112h202.998V18.933H595.126z"/>
	<polygon fill="#010202" points="178.551,774.633 149.498,774.633 149.498,614.213 117.92,614.213 117.92,580.107 0.446,580.107 
		0.446,1123.264 47.183,1123.264 47.183,1171.618 126.763,1171.618 126.763,1130.843 245.498,1130.843 312.446,942.633 
		312.446,614.213 297.786,614.213 178.551,614.213 	"/>
</g>
</svg>
