<?xml version="1.0" encoding="utf-8"?>
<!-- Generator: Adobe Illustrator 16.0.0, SVG Export Plug-In . SVG Version: 6.00 Build 0)  -->
<!DOCTYPE svg PUBLIC "-//W3C//DTD SVG 1.1//EN" "http://www.w3.org/Graphics/SVG/1.1/DTD/svg11.dtd">
<svg version="1.1" id="Calque_1" xmlns="http://www.w3.org/2000/svg" xmlns:xlink="http://www.w3.org/1999/xlink" x="0px" y="0px"
	 width="1190.551px" height="1190.551px" viewBox="0 0 1190.551 1190.551" enable-background="new 0 0 1190.551 1190.551"
	 xml:space="preserve">
<path fill="#010202" d="M518.855,580.766c119.117-38.892,205.191-150.875,205.191-282.981c0-164.382-133.258-297.64-297.64-297.64
	s-297.64,133.258-297.64,297.64c0,160.02,126.284,290.526,284.625,297.341H128.767v595.279h595.279v-297.64h303.635V758.87H867.26
	v-29.053h160.421v-31.578h34.104V580.766H518.855z M533.046,892.767v115.358h-206v-210h112V595.14
	c27.673-1.157,54.365-6.09,79.582-14.301v46.664h-48.354v79.58h40.775v118.734l188.21,66.948L533.046,892.767L533.046,892.767z"/>
</svg>
