<?xml version="1.0" encoding="utf-8"?>
<!-- Generator: Adobe Illustrator 16.0.0, SVG Export Plug-In . SVG Version: 6.00 Build 0)  -->
<!DOCTYPE svg PUBLIC "-//W3C//DTD SVG 1.1//EN" "http://www.w3.org/Graphics/SVG/1.1/DTD/svg11.dtd">
<svg version="1.1" id="Calque_1" xmlns="http://www.w3.org/2000/svg" xmlns:xlink="http://www.w3.org/1999/xlink" x="0px" y="0px"
	 width="1190.551px" height="1190.551px" viewBox="0 0 1190.551 1190.551" enable-background="new 0 0 1190.551 1190.551"
	 xml:space="preserve">
<path fill="#010202" d="M518.59,580.854c119.402-38.726,205.742-150.85,205.742-283.158c0-164.382-133.259-297.641-297.641-297.641
	S129.053,133.314,129.053,297.697c0,161.602,128.791,293.117,289.329,297.519H129.538v595.279h595.279V892.854h302.576V758.961
	H866.973v-29.055h160.421v-31.578h34.104V580.854H518.59z M533.818,892.854v115.361h-206v-210h112V595.215h-4.813
	c29.009-0.795,56.975-5.755,83.338-14.279v46.658h-48.354v79.58h40.774v118.732l188.211,66.947L533.818,892.854L533.818,892.854z"/>
</svg>
