<?xml version="1.0" encoding="utf-8"?>
<!-- Generator: Adobe Illustrator 16.0.0, SVG Export Plug-In . SVG Version: 6.00 Build 0)  -->
<!DOCTYPE svg PUBLIC "-//W3C//DTD SVG 1.1//EN" "http://www.w3.org/Graphics/SVG/1.1/DTD/svg11.dtd">
<svg version="1.1" id="Calque_1" xmlns="http://www.w3.org/2000/svg" xmlns:xlink="http://www.w3.org/1999/xlink" x="0px" y="0px"
	 width="1190.551px" height="1190.551px" viewBox="0 0 1190.551 1190.551" enable-background="new 0 0 1190.551 1190.551"
	 xml:space="preserve">
<g>
	<path fill="#010202" d="M594.68,0v284.625C587.865,126.284,457.36,0,297.34,0C132.958,0-0.3,133.258-0.3,297.64
		s133.258,297.64,297.64,297.64c160.02,0,290.525-126.284,297.34-284.625V595.28h297.642v-191H776.96v-206h210v112h203V0H594.68z"/>
	<polygon fill="#010202" points="178.105,755.7 149.052,755.7 149.052,595.28 117.474,595.28 117.474,561.175 0,561.175 0,1104.331 
		46.738,1104.331 46.738,1152.686 126.318,1152.686 126.318,1111.91 245.052,1111.91 312,923.7 312,595.28 297.34,595.28 
		178.105,595.28 	"/>
</g>
</svg>
