<?xml version="1.0" encoding="utf-8"?>
<!-- Generator: Adobe Illustrator 16.0.0, SVG Export Plug-In . SVG Version: 6.00 Build 0)  -->
<!DOCTYPE svg PUBLIC "-//W3C//DTD SVG 1.1//EN" "http://www.w3.org/Graphics/SVG/1.1/DTD/svg11.dtd">
<svg version="1.1" id="Calque_1" xmlns="http://www.w3.org/2000/svg" xmlns:xlink="http://www.w3.org/1999/xlink" x="0px" y="0px"
	 width="1190.551px" height="1190.551px" viewBox="0 0 1190.551 1190.551" enable-background="new 0 0 1190.551 1190.551"
	 xml:space="preserve">
<path fill="#010202" d="M768.354,383.382v160.422h-29.052V383.382h-31.579v-34.104h-117.04c2.934-16.773,4.475-34.024,4.475-51.638
	C595.158,133.258,461.901,0,297.519,0S-0.122,133.258-0.122,297.64c0,158.721,124.242,288.409,280.776,297.154H0v595.28H595.28
	V892.436h-191v115.358h-206v-210h112V594.99c140.19-5.916,255.29-108.786,279.969-243.298v540.744h46.738v48.354h79.58v-40.775
	h118.735l66.946-188.21V383.382H768.354z"/>
</svg>
