<?xml version="1.0" encoding="utf-8"?>
<!-- Generator: Adobe Illustrator 16.0.0, SVG Export Plug-In . SVG Version: 6.00 Build 0)  -->
<!DOCTYPE svg PUBLIC "-//W3C//DTD SVG 1.1//EN" "http://www.w3.org/Graphics/SVG/1.1/DTD/svg11.dtd">
<svg version="1.1" id="Calque_1" xmlns="http://www.w3.org/2000/svg" xmlns:xlink="http://www.w3.org/1999/xlink" x="0px" y="0px"
	 width="1190.551px" height="1190.551px" viewBox="0 0 1190.551 1190.551" enable-background="new 0 0 1190.551 1190.551"
	 xml:space="preserve">
<path fill="#010202" d="M520.034,98.886v10.886h-17.931V77.496h17.931V38.043h-17.931V19.725h-43.038V0h-41.244v19.725h-34.072V0
	h-41.243v19.725h-32.279V0h-41.244v19.725h-35.639V0h-41.246v19.725h-34.886V0H115.97v19.725H87.805V0H46.561v19.725H17.93v18.318H0
	v39.453h17.93v32.275H0v39.451h17.93v36.985H0v39.453h17.93v42.588H0V307.7h17.93v39.451H0v39.45h17.93v42.652H0v39.451h17.93
	v40.348H0v39.451h17.93v23.536h28.631v21.519h41.244V572.04h28.165v21.519h41.242V572.04h34.886v21.519h41.246V572.04h35.639v21.519
	h28.357h12.887V572.04h32.279v21.519h41.243V572.04h34.072v21.519h41.244V572.04h43.038v-23.536h17.931V693.75
	C465.51,632.299,385.955,593.559,297.34,593.559c-164.382,0-297.64,133.258-297.64,297.64c0,164.383,133.258,297.641,297.64,297.641
	s297.64-133.258,297.64-297.641c0-75.566-28.176-144.542-74.576-197.032h297.272v-191H702.315v-206h210v112h203V98.886H520.034z
	 M502.104,149.223h17.931v36.985h-17.931V149.223z M502.104,225.661h17.931v42.588h-17.931V225.661z M502.104,307.7h17.931v39.451
	h-17.931V307.7z M502.104,386.602h17.931v42.652h-17.931V386.602z M502.104,509.053v-40.348h17.931v40.348H502.104z"/>
</svg>
