<?xml version="1.0" encoding="utf-8"?>
<!-- Generator: Adobe Illustrator 16.0.0, SVG Export Plug-In . SVG Version: 6.00 Build 0)  -->
<!DOCTYPE svg PUBLIC "-//W3C//DTD SVG 1.1//EN" "http://www.w3.org/Graphics/SVG/1.1/DTD/svg11.dtd">
<svg version="1.1" id="Calque_1" xmlns="http://www.w3.org/2000/svg" xmlns:xlink="http://www.w3.org/1999/xlink" x="0px" y="0px"
	 width="1190.551px" height="1190.551px" viewBox="0 0 1190.551 1190.551" enable-background="new 0 0 1190.551 1190.551"
	 xml:space="preserve">
<path fill="#010202" d="M520.034,97.961v26.893h-17.93V84.506h17.93V45.055h-17.93V21.519h-28.631V0H432.23v21.519h-28.164V0
	h-41.242v21.519h-34.887V0h-41.246v21.519h-35.639V0h-41.244v21.519h-32.279V0h-41.242v21.519h-34.073V0H60.969v21.519H17.931
	v23.536H0v39.451h17.931v40.348H0v39.451h17.931v42.652H0v39.449h17.931v39.452H0v39.451h17.931v42.588H0v39.453h17.931v36.985H0
	v39.451h17.931v32.275H0v39.453h17.931v18.318h43.038v19.725h41.244v-19.725h34.073v19.725h41.242v-19.725h32.279v19.725h41.244
	v-19.725h35.639v19.646C127.384,599.244,0,730.185,0,890.899c0,164.383,133.258,297.641,297.64,297.641
	s297.64-133.258,297.64-297.641c0-75.867-28.401-145.091-75.131-197.658h297.528v-191H702.315v-206h210v112h203V97.961H520.034z
	 M502.105,164.305h17.93v42.652h-17.93V164.305z M502.105,246.406h17.93v39.452h-17.93V246.406z M502.105,325.31h17.93v42.588
	h-17.93V325.31z M502.105,407.351h17.93v36.985h-17.93V407.351z M502.105,483.787h17.93v32.275h-17.93V483.787z M310.654,593.559
	h17.283v-19.725h34.887v19.725h41.242v-19.725h28.164v19.725h41.244v-19.725h28.631v-18.318h17.93v137.597
	C468.207,634.878,393.863,597.14,310.654,593.559z"/>
</svg>
