<?xml version="1.0" encoding="utf-8"?>
<!-- Generator: Adobe Illustrator 16.0.0, SVG Export Plug-In . SVG Version: 6.00 Build 0)  -->
<!DOCTYPE svg PUBLIC "-//W3C//DTD SVG 1.1//EN" "http://www.w3.org/Graphics/SVG/1.1/DTD/svg11.dtd">
<svg version="1.1" id="Calque_1" xmlns="http://www.w3.org/2000/svg" xmlns:xlink="http://www.w3.org/1999/xlink" x="0px" y="0px"
	 width="1190.551px" height="1190.551px" viewBox="0 0 1190.551 1190.551" enable-background="new 0 0 1190.551 1190.551"
	 xml:space="preserve">
<path fill="#010202" d="M520.034,395.665v-27.768h-17.93V325.31h17.93v-39.451h-17.93v-39.452h17.93v-39.449h-17.93v-42.652h17.93
	v-39.451h-17.93V84.506h17.93V45.055h-17.93V21.519h-28.631V0H432.23v21.519h-28.164V0h-41.242v21.519h-34.887V0h-41.246v21.519
	h-35.639V0h-41.244v21.519h-32.279V0h-41.242v21.519h-34.073V0H60.969v21.519H17.931v23.536H0v39.451h17.931v40.348H0v39.451h17.931
	v42.652H0v39.449h17.931v39.452H0v39.451h17.931v42.588H0v39.453h17.931v36.985H0v39.451h17.931v32.275H0v39.453h17.931v18.318
	h43.038v19.725h41.244v-19.725h34.073v19.725h41.242v-19.725h32.279v19.725h41.244v-19.725h35.639v19.456
	C127.327,598.992-0.122,729.958-0.122,890.713c0,164.382,133.259,297.641,297.641,297.641s297.64-133.259,297.64-297.641
	c0-75.747-28.312-144.872-74.91-197.408h190.786V577.946h206v210h-112v203h310.28v-595.28H520.034z M502.105,407.351h17.93v36.985
	h-17.93V407.351z M502.105,483.787h17.93v32.275h-17.93V483.787z M314.383,593.559h13.554v-19.725h34.887v19.725h41.242v-19.725
	h28.164v19.725h41.244v-19.725h28.631v-18.318h17.93v137.548C469.001,635.652,396.099,598.124,314.383,593.559z"/>
</svg>
