<?xml version="1.0" encoding="utf-8"?>
<!-- Generator: Adobe Illustrator 16.0.0, SVG Export Plug-In . SVG Version: 6.00 Build 0)  -->
<!DOCTYPE svg PUBLIC "-//W3C//DTD SVG 1.1//EN" "http://www.w3.org/Graphics/SVG/1.1/DTD/svg11.dtd">
<svg version="1.1" id="Calque_1" xmlns="http://www.w3.org/2000/svg" xmlns:xlink="http://www.w3.org/1999/xlink" x="0px" y="0px"
	 width="1190.551px" height="1190.551px" viewBox="0 0 1190.551 1190.551" enable-background="new 0 0 1190.551 1190.551"
	 xml:space="preserve">
<path fill="#010202" d="M1189.846,531.838h-191v115.359h-206v-210h112v-203H594.565v13.229h-21.521v-32.279h21.521v-41.243h-21.521
	v-34.072h21.521V98.588h-21.521V55.549h-23.533V37.618h-39.452v17.931h-40.35V37.618h-39.448v17.931h-42.653V37.618h-39.45v17.931
	h-39.451V37.618h-39.451v17.931h-42.588V37.618h-39.453v17.931h-36.985V37.618h-39.451v17.931H78.502V37.618H39.049v17.931H20.731
	v43.039H1.006v41.243h19.725v34.072H1.006v41.243h19.725v32.279H1.006v41.244h19.725v35.639H1.006v41.246h19.725v34.886H1.006
	v41.243h19.725v28.164H1.006v41.244h19.725v28.631h18.318v17.93h39.453v-17.93h32.274v17.93h39.451v-17.93h36.985v17.93h39.453
	v-17.93h42.588v17.93h39.452v-17.93h39.45v17.93h39.45v-17.93h42.653v17.93h39.448v-17.93h40.35v17.93h39.452v-17.93h23.533v-28.631
	h21.521v315.073c-14.64-150.711-141.666-268.512-296.219-268.512c-164.382,0-297.64,133.257-297.64,297.64
	c0,164.382,133.258,297.641,297.64,297.641s297.64-133.259,297.64-297.641c0-8.699-0.396-17.306-1.127-25.814h594.987
	L1189.846,531.838L1189.846,531.838z M573.044,288.67h21.521v35.639h-21.521V288.67z M573.044,365.555h21.521v34.886h-21.521
	V365.555z M573.044,469.848v-28.164h21.521v28.164H573.044z"/>
</svg>
