<?xml version="1.0" encoding="utf-8"?>
<!-- Generator: Adobe Illustrator 16.0.0, SVG Export Plug-In . SVG Version: 6.00 Build 0)  -->
<!DOCTYPE svg PUBLIC "-//W3C//DTD SVG 1.1//EN" "http://www.w3.org/Graphics/SVG/1.1/DTD/svg11.dtd">
<svg version="1.1" id="Calque_1" xmlns="http://www.w3.org/2000/svg" xmlns:xlink="http://www.w3.org/1999/xlink" x="0px" y="0px"
	 width="1190.551px" height="1190.551px" viewBox="0 0 1190.551 1190.551" enable-background="new 0 0 1190.551 1190.551"
	 xml:space="preserve">
<path fill="#010202" d="M594.416,367.131c11.752-96.597-24.023-197.018-104.125-264.23C364.367-2.761,176.63,13.664,70.967,139.587
	C-34.695,265.511-18.271,453.25,107.653,558.913c57.765,48.471,128.535,71.229,198.424,69.534l-20.592,0.719l0.625,17.92
	l-39.428,1.377l-0.626-17.92l-39.426,1.377l0.626,17.919l-42.626,1.489l-0.626-17.92l-39.428,1.377l0.626,17.92l-40.323,1.407
	l-0.625-17.919l-39.428,1.377l0.625,17.919l-23.521,0.821l0.999,28.613l-21.505,0.751l1.438,41.22l21.506-0.751l0.983,28.146
	L3.847,755.04l1.438,41.218l21.507-0.751l1.217,34.865l-21.506,0.751l1.438,41.221l21.506-0.751l1.244,35.617l-21.506,0.751
	l1.439,41.219l21.506-0.75l1.126,32.26l-21.506,0.751l1.438,41.218l21.506-0.751l1.189,34.052l-21.506,0.751l1.438,41.22
	l21.506-0.752l1.502,43.013l23.521-0.821l0.626,17.921l39.427-1.377l-0.626-17.92l40.324-1.408l0.625,17.92l39.428-1.377
	l-0.626-17.92l42.626-1.487l0.626,17.92l39.426-1.377l-0.626-17.92l39.429-1.377l0.626,17.92l39.427-1.377l-0.625-17.92
	l42.562-1.486l0.626,17.92l39.43-1.377l-0.625-17.92l36.962-1.291l0.626,17.92l39.427-1.376l-0.626-17.921l32.257-1.126l0.626,17.92
	l39.429-1.377l-0.626-17.92l18.308-0.64l-1.502-43.013l19.713-0.688l-1.439-41.22l-19.713,0.688l-1.188-34.052l19.713-0.688
	l-1.439-41.218l-19.713,0.688l-1.127-32.26l19.713-0.688l-1.438-41.219l-19.714,0.688l-1.242-35.617l19.713-0.688l-1.439-41.222
	l-19.713,0.688l-1.218-34.865l19.713-0.688l-1.441-41.219l-19.713,0.688l-0.982-28.146l19.714-0.688l-1.439-41.219l-19.713,0.688
	l-1-28.613l-18.307,0.64l-0.626-17.918l-39.43,1.376l0.626,17.919l-32.257,1.126l-0.625-17.918l-39.428,1.377l0.626,17.919
	l-36.963,1.291l-0.625-17.919l-39.43,1.376l0.626,17.92l-42.562,1.485l-0.626-17.92l-12.247,0.429
	c80.191-3.715,158.645-39.646,214.313-105.991c38.144-45.458,60.37-98.974,67.284-153.774l-10.34,296.134l190.883,6.666
	l4.026-115.29l205.875,7.189l-7.329,209.872l-111.932-3.909l-7.085,202.877l310.091,10.828l20.775-594.917L594.416,367.131z"/>
</svg>
