<?xml version="1.0" encoding="utf-8"?>
<!-- Generator: Adobe Illustrator 16.0.0, SVG Export Plug-In . SVG Version: 6.00 Build 0)  -->
<!DOCTYPE svg PUBLIC "-//W3C//DTD SVG 1.1//EN" "http://www.w3.org/Graphics/SVG/1.1/DTD/svg11.dtd">
<svg version="1.1" id="Calque_1" xmlns="http://www.w3.org/2000/svg" xmlns:xlink="http://www.w3.org/1999/xlink" x="0px" y="0px"
	 width="1190.551px" height="1190.551px" viewBox="0 0 1190.551 1190.551" enable-background="new 0 0 1190.551 1190.551"
	 xml:space="preserve">
<path fill="#010202" d="M893.507,806.859L761.093,649.054l160.869-134.985l71.992,85.796l155.507-130.484L950.017,231.692
	L494.006,614.33l66.132,78.812c-54.911-61.06-134.574-99.095-222.505-98.722h13.868v-21.52h32.278v21.52h41.243v-21.52h34.072v21.52
	h41.244v-21.52h43.038v-23.536h17.931v-39.45h-17.931v-40.349h17.931v-39.451h-17.931v-42.651h17.931v-39.45h-17.931v-39.452h17.931
	v-39.451h-17.931v-42.588h17.931V187.07h-17.931v-36.984h17.931v-39.451h-17.931V78.358h17.931V38.905h-17.931V20.587h-43.038V0.862
	h-41.244v19.726h-34.072V0.862H383.78v19.726h-32.278V0.862h-41.244v19.726h-35.64V0.862h-41.245v19.726h-34.887V0.862h-41.242
	v19.726h-28.164V0.862H87.835v19.726H59.204v18.317h-17.93v39.453h17.93v32.276h-17.93v39.451h17.93v36.984h-17.93v39.453h17.93
	v42.588h-17.93v39.452h17.93v39.452h-17.93v39.45h17.93v42.651h-17.93v39.451h17.93v40.349h-17.93v39.45h17.93v23.536h28.631v21.52
	h41.244v-21.52h28.164v21.52h41.242v-21.52h34.887v21.52h41.245v-21.52h35.64v21.52h25.547c-2.479,0.025-4.966,0.079-7.459,0.166
	c-164.28,5.737-292.808,143.564-287.07,307.847c5.736,164.281,143.563,292.808,307.847,287.07
	c164.282-5.736,292.808-143.563,287.071-307.847c-2.282-65.352-25.484-125.032-62.924-172.866l303.376,361.549l228.005-191.318
	L981.878,732.706L893.507,806.859z"/>
</svg>
