<?xml version="1.0" encoding="utf-8"?>
<!-- Generator: Adobe Illustrator 16.0.0, SVG Export Plug-In . SVG Version: 6.00 Build 0)  -->
<!DOCTYPE svg PUBLIC "-//W3C//DTD SVG 1.1//EN" "http://www.w3.org/Graphics/SVG/1.1/DTD/svg11.dtd">
<svg version="1.1" id="Calque_1" xmlns="http://www.w3.org/2000/svg" xmlns:xlink="http://www.w3.org/1999/xlink" x="0px" y="0px"
	 width="1190.551px" height="1190.551px" viewBox="0 0 1190.551 1190.551" enable-background="new 0 0 1190.551 1190.551"
	 xml:space="preserve">
<path fill="#010202" d="M592.992,333.805c11.752-96.597-24.024-197.018-104.125-264.23
	C362.943-36.087,175.205-19.662,69.542,106.261C-36.12,232.185-19.696,419.924,106.228,525.587
	c57.764,48.47,128.535,71.229,198.424,69.534l-20.592,0.719l0.625,17.92l-39.428,1.377l-0.626-17.92l-39.426,1.377l0.626,17.919
	l-42.626,1.489l-0.626-17.92l-39.427,1.377l0.626,17.92l-40.324,1.407l-0.625-17.919l-39.427,1.377l0.625,17.919l-23.521,0.821
	l0.999,28.614L0,652.349l1.439,41.219l21.506-0.751l0.983,28.146l-21.506,0.751l1.439,41.218l21.506-0.751l1.217,34.865
	l-21.506,0.751l1.439,41.221l21.506-0.751l1.244,35.617l-21.506,0.751l1.439,41.219l21.506-0.751l1.126,32.26l-21.506,0.751
	l1.439,41.218l21.506-0.751l1.189,34.052l-21.506,0.751l1.439,41.22l21.506-0.752l1.502,43.012l23.521-0.821l0.626,17.921
	l39.427-1.377l-0.626-17.92l40.324-1.408l0.625,17.92l39.428-1.377l-0.626-17.92l42.626-1.488l0.626,17.92l39.426-1.377
	l-0.626-17.92l39.428-1.377l0.626,17.92l39.427-1.377l-0.625-17.92l42.562-1.486l0.626,17.92l39.429-1.377l-0.625-17.92
	l36.962-1.291l0.626,17.92l39.427-1.376l-0.626-17.921l32.257-1.126l0.626,17.92l39.429-1.377l-0.626-17.92l18.307-0.64
	l-1.502-43.012l19.713-0.688l-1.439-41.219l-19.713,0.688l-1.188-34.052l19.713-0.688l-1.439-41.218l-19.713,0.688l-1.127-32.26
	l19.713-0.688l-1.439-41.219l-19.713,0.688l-1.243-35.617l19.713-0.688l-1.439-41.221l-19.713,0.688l-1.218-34.865l19.713-0.688
	L595.62,701l-19.713,0.688l-0.983-28.146l19.714-0.688l-1.439-41.219l-19.713,0.688l-1-28.613l-18.307,0.64l-0.626-17.919
	l-39.429,1.376l0.626,17.92l-32.257,1.126l-0.625-17.919l-39.428,1.377l0.626,17.919l-36.963,1.291l-0.625-17.919l-39.43,1.376
	l0.626,17.92l-42.562,1.486l-0.626-17.92l-12.247,0.428c80.191-3.714,158.644-39.646,214.313-105.99
	c38.144-45.458,60.37-98.974,67.285-153.774l-10.34,296.134l190.883,6.666l4.026-115.29l205.875,7.189l-7.329,209.872
	l-111.932-3.909l-7.085,202.877l310.091,10.828l20.775-594.917L592.992,333.805z"/>
</svg>
