<?xml version="1.0" encoding="utf-8"?>
<!-- Generator: Adobe Illustrator 16.0.0, SVG Export Plug-In . SVG Version: 6.00 Build 0)  -->
<!DOCTYPE svg PUBLIC "-//W3C//DTD SVG 1.1//EN" "http://www.w3.org/Graphics/SVG/1.1/DTD/svg11.dtd">
<svg version="1.1" id="Calque_1" xmlns="http://www.w3.org/2000/svg" xmlns:xlink="http://www.w3.org/1999/xlink" x="0px" y="0px"
	 width="1190.551px" height="1190.551px" viewBox="0 0 1190.551 1190.551" enable-background="new 0 0 1190.551 1190.551"
	 xml:space="preserve">
<path fill="#010202" d="M854.784,49.819c-156.116,0-284.144,120.198-296.626,273.097v-36.203h-17.93v-39.452h17.93v-39.449h-17.93
	V165.16h17.93v-39.451h-17.93V85.361h17.93V45.911h-17.93V22.375h-28.631V0.855h-41.243v21.519h-28.164V0.855h-41.241v21.519
	h-34.888V0.855h-41.246v21.519h-35.639V0.855h-41.244v21.519h-32.279V0.855h-41.241v21.519h-34.073V0.855H99.094v21.519H56.056
	v23.536H38.125v39.451h17.931v40.348H38.125v39.451h17.931v42.652H38.125v39.449h17.931v39.452H38.125v39.451h17.931v42.588H38.125
	v39.453h17.931v36.985H38.125v39.451h17.931v32.275H38.125v39.453h17.931v18.318h43.038v19.725H38.125v297.64h191V776.695h206v210
	h-112v203h310.279V594.415H511.599v-19.725h28.631v-18.318h17.93v-39.453h-17.93v-32.275h17.93v-39.451h-17.93v-36.985h17.93
	v-36.205C570.642,524.901,698.67,645.1,854.785,645.1c164.383,0,297.641-133.258,297.641-297.64S1019.166,49.819,854.784,49.819z
	 M140.338,594.415v-19.725h34.073v19.725H140.338z M215.654,594.415v-19.725h32.279v19.725H215.654z M289.177,594.415v-19.725
	h35.639v19.725H289.177z M366.062,594.415v-19.725h34.888v19.725H366.062z M442.191,594.415v-19.725h28.164v19.725H442.191z
	 M540.23,368.753v-42.588h17.682c-0.498,7.035-0.766,14.133-0.766,21.294s0.269,14.259,0.766,21.294H540.23z"/>
</svg>
