<?xml version="1.0" encoding="utf-8"?>
<!-- Generator: Adobe Illustrator 16.0.0, SVG Export Plug-In . SVG Version: 6.00 Build 0)  -->
<!DOCTYPE svg PUBLIC "-//W3C//DTD SVG 1.1//EN" "http://www.w3.org/Graphics/SVG/1.1/DTD/svg11.dtd">
<svg version="1.1" id="Calque_1" xmlns="http://www.w3.org/2000/svg" xmlns:xlink="http://www.w3.org/1999/xlink" x="0px" y="0px"
	 width="1190.551px" height="1190.551px" viewBox="0 0 1190.551 1190.551" enable-background="new 0 0 1190.551 1190.551"
	 xml:space="preserve">
<path fill="#010202" d="M794.308,372.454c-123.309,0-229.103,74.985-274.273,181.843v-38.235h-17.93v-32.275h17.93v-39.451h-17.93
	v-36.985h17.93v-39.453h-17.93V325.31h17.93v-39.451h-17.93v-39.452h17.93v-39.449h-17.93v-42.652h17.93v-39.451h-17.93V84.506
	h17.93V45.055h-17.93V21.519h-28.631V0H432.23v21.519h-28.164V0h-41.242v21.519h-34.887V0h-41.246v21.519h-35.639V0h-41.244v21.519
	h-32.279V0h-41.242v21.519h-34.073V0H60.969v21.519H17.931v23.536H0v39.451h17.931v40.348H0v39.451h17.931v42.652H0v39.449h17.931
	v39.452H0v39.451h17.931v42.588H0v39.453h17.931v36.985H0v39.451h17.931v32.275H0v39.453h17.931v18.318h43.038v19.725H0v595.281
	H595.28V891.386c52.73,47.457,122.502,76.348,199.028,76.348c164.382,0,297.64-133.258,297.64-297.64
	S958.69,372.454,794.308,372.454z M251.052,573.834h35.639v19.725h-35.639V573.834z M102.213,593.559v-19.725h34.073v19.725H102.213
	z M177.529,573.834h32.279v19.725h-32.279V573.834z M404.28,891.198v115.36h-206v-210h112v-203h17.657v-19.725h34.887v19.725h41.242
	v-19.725h28.164v19.725h41.244v-19.725h28.631v-18.318h17.432c-14.724,35.269-22.868,73.971-22.868,114.578
	c0,87.754,37.984,166.629,98.399,221.104H404.28z"/>
</svg>
