<?xml version="1.0" encoding="utf-8"?>
<!-- Generator: Adobe Illustrator 16.0.0, SVG Export Plug-In . SVG Version: 6.00 Build 0)  -->
<!DOCTYPE svg PUBLIC "-//W3C//DTD SVG 1.1//EN" "http://www.w3.org/Graphics/SVG/1.1/DTD/svg11.dtd">
<svg version="1.1" id="Calque_1" xmlns="http://www.w3.org/2000/svg" xmlns:xlink="http://www.w3.org/1999/xlink" x="0px" y="0px"
	 width="1190.551px" height="1190.551px" viewBox="0 0 1190.551 1190.551" enable-background="new 0 0 1190.551 1190.551"
	 xml:space="preserve">
<path fill="#010202" d="M557.802,99.741v10.886h-17.931V78.352h17.931V38.898h-17.931V20.581h-43.038V0.855h-41.244v19.725h-34.071
	V0.855h-41.243v19.725h-32.279V0.855h-41.244v19.725h-35.639V0.855h-41.246v19.725H194.98V0.855h-41.242v19.725h-28.165V0.855
	H84.329v19.725H55.698v18.318h-17.93v39.453h17.93v32.275h-17.93v39.451h17.93v36.985h-17.93v39.453h17.93v42.588h-17.93v39.452
	h17.93v39.451h-17.93v39.45h17.93v42.652h-17.93v39.451h17.93v40.348h-17.93v39.451h17.93v23.536h28.631v21.519h41.244v-21.518
	h28.165v21.519h41.242v-21.519h34.886v21.519h41.246v-21.519h35.639v21.519h28.357h12.887v-21.519h32.279v21.519h41.243v-21.519
	h34.071v21.519h41.244v-21.519h43.038v-23.536h17.931v145.246c-54.523-61.451-134.078-100.191-222.693-100.191
	c-164.382,0-297.64,133.258-297.64,297.64c0,164.383,133.258,297.641,297.64,297.641s297.64-133.258,297.64-297.641
	c0-75.566-28.176-144.542-74.577-197.032h297.272v-191H740.082v-206h210v112h203V99.741H557.802z M539.872,150.079h17.931v36.985
	h-17.931V150.079L539.872,150.079z M539.872,226.517h17.931v42.588h-17.931V226.517L539.872,226.517z M539.872,308.556h17.931
	v39.451h-17.931V308.556L539.872,308.556z M539.872,387.458h17.931v42.652h-17.931V387.458L539.872,387.458z M539.872,509.909
	v-40.348h17.931v40.348H539.872z"/>
</svg>
