<?xml version="1.0" encoding="utf-8"?>
<!-- Generator: Adobe Illustrator 16.0.0, SVG Export Plug-In . SVG Version: 6.00 Build 0)  -->
<!DOCTYPE svg PUBLIC "-//W3C//DTD SVG 1.1//EN" "http://www.w3.org/Graphics/SVG/1.1/DTD/svg11.dtd">
<svg version="1.1" id="Calque_1" xmlns="http://www.w3.org/2000/svg" xmlns:xlink="http://www.w3.org/1999/xlink" x="0px" y="0px"
	 width="1190.551px" height="1190.551px" viewBox="0 0 1190.551 1190.551" enable-background="new 0 0 1190.551 1190.551"
	 xml:space="preserve">
<path fill="#010202" d="M1152.932,98.966H855.293v191h115.357v206h-210v-112h-203v-35.81H539.72v-39.451h17.931v-39.451H539.72
	v-42.588h17.931v-39.453H539.72v-36.985h17.931v-39.451H539.72V78.501h17.931V39.048H539.72V20.73h-43.038V1.005h-41.243V20.73
	h-34.072V1.005h-41.243V20.73h-32.279V1.005H306.6V20.73h-35.639V1.005h-41.246V20.73H194.83V1.005h-41.242V20.73h-28.165V1.005
	H84.178V20.73H55.548v18.318h-17.93v39.453h17.93v32.275h-17.93v39.451h17.93v36.985h-17.93v39.453h17.93v42.588h-17.93v39.452
	h17.93v39.451h-17.93v39.45h17.93v42.652h-17.93v39.451h17.93v40.348h-17.93v39.451h17.93v23.536h28.631v21.519h41.244v-21.518
	h28.165v21.519h41.242v-21.519h34.886v21.519h41.246v-21.519H306.6v21.519h15.644c-158.342,6.814-284.626,137.32-284.626,297.34
	c0,164.383,133.258,297.641,297.64,297.641s297.639-133.258,297.639-297.641c0-75.867-28.4-145.092-75.13-197.658h595.167V98.966
	H1152.932z M539.721,387.607h17.931v42.652h-17.931V387.607L539.721,387.607z M539.721,469.71h17.931v40.348h-17.931V469.71
	L539.721,469.71z M347.844,594.548v-21.503h32.279v21.519h41.243v-21.519h34.071v21.519h41.244v-21.519h43.038v-23.536h17.931
	v144.608C505.735,635.785,431.225,598.018,347.844,594.548z"/>
</svg>
