<?xml version="1.0" encoding="utf-8"?>
<!-- Generator: Adobe Illustrator 16.0.0, SVG Export Plug-In . SVG Version: 6.00 Build 0)  -->
<!DOCTYPE svg PUBLIC "-//W3C//DTD SVG 1.1//EN" "http://www.w3.org/Graphics/SVG/1.1/DTD/svg11.dtd">
<svg version="1.1" id="Calque_1" xmlns="http://www.w3.org/2000/svg" xmlns:xlink="http://www.w3.org/1999/xlink" x="0px" y="0px"
	 width="1190.551px" height="1190.551px" viewBox="0 0 1190.551 1190.551" enable-background="new 0 0 1190.551 1190.551"
	 xml:space="preserve">
<path fill="#010202" d="M1183.824,250.239H886.184v191h115.359v206h-210v-112H600.424l5.004-15.396l-20.466-6.649l10.78-33.179
	l20.465,6.649l12.746-39.227l-20.465-6.65l11.012-33.895l20.467,6.65l12.744-39.226l-20.465-6.649l9.975-30.699l20.465,6.649
	l12.746-39.225l-20.467-6.649l10.529-32.405l20.467,6.649l12.744-39.226l-20.465-6.649l13.299-40.932l-22.385-7.273l5.541-17.053
	l-37.521-12.191l-5.541,17.054l-38.373-12.469l5.541-17.053l-37.519-12.191l-5.541,17.054l-40.564-13.181l5.541-17.053
	l-37.52-12.191l-5.541,17.054l-37.521-12.191l5.541-17.054l-37.52-12.19l-5.541,17.053l-40.504-13.16l5.541-17.054L330.132,48.9
	l-5.541,17.054l-35.175-11.43l5.541-17.054l-37.52-12.191l-5.541,17.054L221.2,32.359l5.541-17.054L189.219,3.114l-5.541,17.054
	l-17.421-5.661l-13.3,40.932l-18.76-6.096l-12.745,39.226l18.76,6.096l-10.529,32.405l-18.76-6.096l-12.744,39.225l18.76,6.096
	l-9.976,30.699l-18.76-6.096l-12.745,39.226l18.76,6.095l-11.013,33.896l-18.76-6.096l-12.746,39.228l18.76,6.095l-10.78,33.179
	l-18.76-6.095L28.175,375.65l18.761,6.096l-8.703,26.785l-18.761-6.095L6.727,441.659l18.76,6.095l-8.849,27.229l17.422,5.661
	l-5.54,17.052l37.521,12.192l5.541-17.053l30.696,9.974l-5.541,17.053l37.521,12.191l5.54-17.053l35.175,11.429l-5.54,17.053
	l37.521,12.191l5.541-17.053l40.504,13.161l-5.541,17.052l37.521,12.191l5.54-17.053l37.521,12.191l-5.344,16.445
	c-97.774-5.609-196.284,37.103-258.125,122.22c-96.621,132.988-67.142,319.123,65.848,415.744
	c132.987,96.621,319.123,67.141,415.744-65.849c47.817-65.815,64.732-144.646,53.517-219.206h584.145V250.239L1183.824,250.239z
	 M365.56,588.354l40.563,13.181l-2.364,7.275c-13.545-4.749-27.318-8.471-41.214-11.181L365.56,588.354z M480.315,648.981
	c-12.919-9.387-26.344-17.566-40.136-24.595l3.464-10.66l38.374,12.468l-5.541,17.053l37.521,12.191l5.54-17.054l22.385,7.272
	l8.847-27.229l20.467,6.65l12.744-39.226l-20.466-6.65l8.703-26.785l16.326,5.305v240.4
	C569.851,740.214,533.313,687.487,480.315,648.981z"/>
</svg>
