<?xml version="1.0" encoding="utf-8"?>
<!-- Generator: Adobe Illustrator 16.0.0, SVG Export Plug-In . SVG Version: 6.00 Build 0)  -->
<!DOCTYPE svg PUBLIC "-//W3C//DTD SVG 1.1//EN" "http://www.w3.org/Graphics/SVG/1.1/DTD/svg11.dtd">
<svg version="1.1" id="Calque_1" xmlns="http://www.w3.org/2000/svg" xmlns:xlink="http://www.w3.org/1999/xlink" x="0px" y="0px"
	 width="1190.551px" height="1190.551px" viewBox="0 0 1190.551 1190.551" enable-background="new 0 0 1190.551 1190.551"
	 xml:space="preserve">
<path fill="#010202" d="M816.66,48.964c-156.116,0-284.144,120.198-296.626,273.097v-36.203h-17.93v-39.452h17.93v-39.449h-17.93
	v-42.652h17.93v-39.451h-17.93V84.506h17.93V45.055h-17.93V21.519h-28.631V0H432.23v21.519h-28.164V0h-41.242v21.519h-34.887V0
	h-41.246v21.519h-35.639V0h-41.244v21.519h-32.279V0h-41.242v21.519h-34.073V0H60.969v21.519H17.931v23.536H0v39.451h17.931v40.348
	H0v39.451h17.931v42.652H0v39.449h17.931v39.452H0v39.451h17.931v42.588H0v39.453h17.931v36.985H0v39.451h17.931v32.275H0v39.453
	h17.931v18.318h43.038v19.725H0v297.64h191V775.84h206v210H285v203H595.28V593.559H473.474v-19.725h28.631v-18.318h17.93v-39.453
	h-17.93v-32.275h17.93v-39.451h-17.93v-36.985h17.93v-36.205c12.482,152.899,140.51,273.097,296.626,273.097
	c164.382,0,297.64-133.258,297.64-297.64S981.042,48.964,816.66,48.964z M102.213,593.559v-19.725h34.073v19.725H102.213z
	 M177.529,593.559v-19.725h32.279v19.725H177.529z M251.052,593.559v-19.725h35.639v19.725H251.052z M327.937,593.559v-19.725
	h34.887v19.725H327.937z M404.066,593.559v-19.725h28.164v19.725H404.066z M502.105,367.898V325.31h17.682
	c-0.498,7.035-0.766,14.133-0.766,21.294s0.269,14.259,0.766,21.294H502.105z"/>
</svg>
