<?xml version="1.0" encoding="utf-8"?>
<!-- Generator: Adobe Illustrator 16.0.0, SVG Export Plug-In . SVG Version: 6.00 Build 0)  -->
<!DOCTYPE svg PUBLIC "-//W3C//DTD SVG 1.1//EN" "http://www.w3.org/Graphics/SVG/1.1/DTD/svg11.dtd">
<svg version="1.1" id="Calque_1" xmlns="http://www.w3.org/2000/svg" xmlns:xlink="http://www.w3.org/1999/xlink" x="0px" y="0px"
	 width="1190.551px" height="1190.551px" viewBox="0 0 1190.551 1190.551" enable-background="new 0 0 1190.551 1190.551"
	 xml:space="preserve">
<path fill="#010202" d="M557.652,98.966v26.893h-17.93V85.511h17.93V46.061h-17.93V22.524h-28.631V1.005h-41.243v21.519h-28.164
	V1.005h-41.241v21.519h-34.888V1.005h-41.246v21.519H288.67V1.005h-41.244v21.519h-32.279V1.005h-41.241v21.519h-34.073V1.005
	H98.587v21.519H55.549v23.536H37.618v39.451h17.931v40.348H37.618v39.451h17.931v42.652H37.618v39.449h17.931v39.452H37.618v39.451
	h17.931v42.588H37.618v39.453h17.931v36.985H37.618v39.451h17.931v32.275H37.618v39.453h17.931v18.318h43.038v19.725h41.244v-19.725
	h34.073v19.725h41.241v-19.725h32.279v19.725h41.244v-19.725h35.639v19.646C165.002,600.25,37.618,731.189,37.618,891.904
	c0,164.383,133.258,297.641,297.64,297.641s297.64-133.258,297.64-297.641c0-75.867-28.4-145.092-75.131-197.658h297.528v-191
	H739.933v-206h210v112h203V98.966H557.652z M539.723,165.311h17.93v42.652h-17.93V165.311L539.723,165.311z M539.723,247.412h17.93
	v39.452h-17.93V247.412L539.723,247.412z M539.723,326.315h17.93v42.588h-17.93V326.315L539.723,326.315z M539.723,408.356h17.93
	v36.985h-17.93V408.356L539.723,408.356z M539.723,484.792h17.93v32.275h-17.93V484.792L539.723,484.792z M348.272,594.564h17.283
	v-19.725h34.887v19.725h41.242v-19.725h28.164v19.725h41.244v-19.725h28.631v-18.318h17.93v137.598
	C505.824,635.883,431.481,598.145,348.272,594.564z"/>
</svg>
