<?xml version="1.0" encoding="utf-8"?>
<!-- Generator: Adobe Illustrator 16.0.0, SVG Export Plug-In . SVG Version: 6.00 Build 0)  -->
<!DOCTYPE svg PUBLIC "-//W3C//DTD SVG 1.1//EN" "http://www.w3.org/Graphics/SVG/1.1/DTD/svg11.dtd">
<svg version="1.1" id="Calque_1" xmlns="http://www.w3.org/2000/svg" xmlns:xlink="http://www.w3.org/1999/xlink" x="0px" y="0px"
	 width="1190.551px" height="1190.551px" viewBox="0 0 1190.551 1190.551" enable-background="new 0 0 1190.551 1190.551"
	 xml:space="preserve">
<path fill="#010202" d="M1188.84,494.22h-191v115.359h-206v-210h112v-203H593.559v13.229h-21.52v-32.279h21.52v-41.243h-21.52
	v-34.072h21.52V60.97h-21.52V17.931h-23.534V0h-39.452v17.931h-40.349V0h-39.449v17.931h-42.653V0h-39.45v17.931H307.7V0h-39.451
	v17.931h-42.588V0h-39.453v17.931h-36.985V0h-39.451v17.931H77.496V0H38.043v17.931H19.725V60.97H0v41.243h19.725v34.072H0v41.243
	h19.725v32.279H0v41.244h19.725v35.639H0v41.246h19.725v34.886H0v41.243h19.725v28.164H0v41.244h19.725v28.631h18.318v17.93h39.453
	v-17.93h32.275v17.93h39.451v-17.93h36.985v17.93h39.453v-17.93h42.588v17.93H307.7v-17.93h39.451v17.93h39.45v-17.93h42.653v17.93
	h39.449v-17.93h40.349v17.93h39.452v-17.93h23.534v-28.631h21.52v315.073c-14.64-150.711-141.666-268.512-296.219-268.512
	c-164.382,0-297.64,133.257-297.64,297.64c0,164.382,133.258,297.64,297.64,297.64s297.64-133.258,297.64-297.64
	c0-8.699-0.396-17.306-1.127-25.815h594.987V494.22z M572.039,251.052h21.52v35.639h-21.52V251.052z M572.039,327.937h21.52v34.886
	h-21.52V327.937z M572.039,432.23v-28.164h21.52v28.164H572.039z"/>
</svg>
