<?xml version="1.0" encoding="utf-8"?>
<!-- Generator: Adobe Illustrator 16.0.0, SVG Export Plug-In . SVG Version: 6.00 Build 0)  -->
<!DOCTYPE svg PUBLIC "-//W3C//DTD SVG 1.1//EN" "http://www.w3.org/Graphics/SVG/1.1/DTD/svg11.dtd">
<svg version="1.1" id="Calque_1" xmlns="http://www.w3.org/2000/svg" xmlns:xlink="http://www.w3.org/1999/xlink" x="0px" y="0px"
	 width="1190.551px" height="1190.551px" viewBox="0 0 1190.551 1190.551" enable-background="new 0 0 1190.551 1190.551"
	 xml:space="preserve">
<path fill="#010202" d="M692.504,966.545c-39.293-39.293-101.692-41.749-143.874-7.368l53.331-104.669l-87.41-44.537
	c14.002,6.69,29.666,10.442,46.191,10.442c59.276,0,107.5-48.225,107.5-107.5c0-59.274-48.224-107.5-107.5-107.5
	c-34.497,0-65.248,16.338-84.932,41.679l15-20.646l-14.506-10.54l25.07-34.506l14.506,10.539l23.188-31.914l-14.506-10.54
	l23.189-31.918l14.507,10.539l23.189-31.917l-14.507-10.539l25.032-34.455l14.507,10.54l23.19-31.918l-14.507-10.54l21.738-29.921
	l14.507,10.54l23.188-31.917l-14.506-10.539l18.971-26.112l14.507,10.54l23.189-31.918l-14.506-10.54l10.767-14.819l-34.818-25.297
	l11.594-15.958l-33.367-24.243l-11.594,15.958l-27.565-20.027l11.594-15.958l-33.366-24.242l-11.594,15.958l-26.114-18.973
	l11.594-15.958l-33.367-24.243l-11.594,15.958l-28.833-20.948l11.595-15.958l-33.369-24.243l-11.594,15.958l-28.224-20.506
	L449.59,65.91l-33.366-24.242L404.63,57.626l-22.785-16.554l11.594-15.958L360.071,0.871l-11.594,15.958L325.314,0l-10.767,14.82
	L300.042,4.281l-23.19,31.918l14.506,10.539l-18.972,26.111L257.881,62.31l-23.189,31.917l14.506,10.539l-21.738,29.921
	l-14.506-10.539l-23.19,31.918l14.506,10.539l-25.032,34.454L164.73,190.52l-23.189,31.917l14.506,10.539l-23.189,31.919
	l-14.506-10.539l-23.188,31.915l14.506,10.538l-25.07,34.507l-14.506-10.539l-23.188,31.916l14.506,10.539l-23.717,32.643
	l-14.506-10.539L0,417.253l14.506,10.539l-13.833,19.04l23.162,16.828l-12.648,17.41l33.367,24.242l12.648-17.409l22.785,16.555
	l-12.648,17.409l33.366,24.241l12.648-17.409l28.224,20.506l-12.648,17.409l33.369,24.244l12.648-17.409l28.832,20.947
	l-12.648,17.41l33.367,24.242l12.648-17.409l26.114,18.974l-12.648,17.409l33.366,24.241l12.648-17.409l27.565,20.028
	l-12.648,17.409l33.366,24.241L118.005,607.92l-21.219,41.643L53.702,627.61l-36.128,70.907l36.33,18.511L0,822.822l137.303,145.097
	l292.626,149.1l60.787-119.301l-142.937-72.83l13.189-25.886l142.937,72.829l14.336-28.137l30.388,15.483
	c-2.812,2.292-5.534,4.748-8.154,7.367c-41.914,41.914-41.913,110.115,0,152.028c41.914,41.914,110.114,41.913,152.028,0
	C734.416,1076.66,734.418,1008.459,692.504,966.545z M344.91,723.534l12.648-17.409l34.818,25.297l13.834-19.04l14.507,10.54
	l23.188-31.917l-14.507-10.539l23.717-32.643l14.506,10.54l4.005-5.513c-11.603,17.16-18.385,37.834-18.385,60.062
	c0,40.752,22.794,76.28,56.302,94.506L344.91,723.534z"/>
</svg>
