<?xml version="1.0" encoding="utf-8"?>
<!-- Generator: Adobe Illustrator 16.0.0, SVG Export Plug-In . SVG Version: 6.00 Build 0)  -->
<!DOCTYPE svg PUBLIC "-//W3C//DTD SVG 1.1//EN" "http://www.w3.org/Graphics/SVG/1.1/DTD/svg11.dtd">
<svg version="1.1" id="Calque_1" xmlns="http://www.w3.org/2000/svg" xmlns:xlink="http://www.w3.org/1999/xlink" x="0px" y="0px"
	 width="1190.551px" height="1190.551px" viewBox="0 0 1190.551 1190.551" enable-background="new 0 0 1190.551 1190.551"
	 xml:space="preserve">
<g>
	<polygon fill="#010202" points="312,641.911 265.263,641.911 265.263,593.558 233.344,593.558 233.344,572.039 268.983,572.039 
		268.983,593.558 310.227,593.558 310.227,572.039 342.506,572.039 342.506,593.558 383.749,593.558 383.749,572.039 
		417.822,572.039 417.822,593.558 419.5,593.558 459.066,593.558 459.066,572.039 502.104,572.039 502.104,548.505 520.034,548.505 
		520.034,509.053 502.104,509.053 502.104,468.705 520.034,468.705 520.034,429.255 502.104,429.255 502.104,386.602 
		520.034,386.602 520.034,347.153 502.104,347.153 502.104,307.7 520.034,307.7 520.034,268.248 502.104,268.248 502.104,225.66 
		520.034,225.66 520.034,186.207 502.104,186.207 502.104,149.223 520.034,149.223 520.034,109.772 502.104,109.772 502.104,77.496 
		520.034,77.496 520.034,38.043 502.104,38.043 502.104,19.725 459.066,19.725 459.066,0 417.822,0 417.822,19.725 383.749,19.725 
		383.749,0 342.506,0 342.506,19.725 310.227,19.725 310.227,0 268.983,0 268.983,19.725 233.344,19.725 233.344,0 192.098,0 
		192.098,19.725 157.212,19.725 157.212,0 115.969,0 115.969,19.725 87.805,19.725 87.805,0 46.561,0 46.561,19.725 17.93,19.725 
		17.93,38.043 0,38.043 0,77.496 17.93,77.496 17.93,109.772 0,109.772 0,149.223 17.93,149.223 17.93,186.207 0,186.207 0,225.66 
		17.93,225.66 17.93,268.248 0,268.248 0,307.7 17.93,307.7 17.93,347.153 0,347.153 0,386.602 17.93,386.602 17.93,429.255 
		0,429.255 0,468.705 17.93,468.705 17.93,509.053 0,509.053 0,548.505 17.93,548.505 17.93,572.039 46.561,572.039 46.561,593.558 
		87.805,593.558 87.805,572.039 115.969,572.039 115.969,593.558 157.212,593.558 157.212,572.039 192.098,572.039 192.098,593.558 
		185.683,593.558 185.683,634.334 66.948,634.334 0,822.544 0,1150.964 133.895,1150.964 133.895,990.544 162.948,990.544 
		162.948,1150.964 194.527,1150.964 194.527,1185.069 312,1185.069 312,916.058 312,701.058 	"/>
	<path fill="#010202" d="M312,701.058c0,59.275,48.225,107.5,107.5,107.5c59.274,0,107.5-48.226,107.5-107.5
		c0-59.276-48.226-107.5-107.5-107.5S312,641.781,312,701.058z"/>
	<path fill="#010202" d="M419.5,808.558c-59.272,0-107.5,48.224-107.5,107.5c0,59.275,48.226,107.5,107.5,107.5
		S527,975.332,527,916.058C527,856.781,478.775,808.558,419.5,808.558z"/>
</g>
</svg>
