<?xml version="1.0" encoding="utf-8"?>
<!-- Generator: Adobe Illustrator 16.0.0, SVG Export Plug-In . SVG Version: 6.00 Build 0)  -->
<!DOCTYPE svg PUBLIC "-//W3C//DTD SVG 1.1//EN" "http://www.w3.org/Graphics/SVG/1.1/DTD/svg11.dtd">
<svg version="1.1" id="Calque_1" xmlns="http://www.w3.org/2000/svg" xmlns:xlink="http://www.w3.org/1999/xlink" x="0px" y="0px"
	 width="1190.551px" height="1190.551px" viewBox="0 0 1190.551 1190.551" enable-background="new 0 0 1190.551 1190.551"
	 xml:space="preserve">
<g>
	<path fill="#010202" d="M550.736,779.24V660.507l-188.21-66.949h-34.589v-19.724h34.886v19.724h41.243v-19.724h28.164v19.724
		h41.244v-19.724h28.631v-18.319h17.93v-39.453h-17.93v-32.275h17.93v-39.45h-17.93v-36.985h17.93v-39.453h-17.93V325.31h17.93
		v-39.452h-17.93v-39.453h17.93v-39.448h-17.93v-42.652h17.93v-39.451h-17.93V84.505h17.93V45.054h-17.93V21.519h-28.631V0H432.23
		v21.519h-28.164V0h-41.243v21.519h-34.886V0h-41.246v21.519h-35.639V0h-41.244v21.519h-32.279V0h-41.242v21.519h-34.073V0H60.97
		v21.519H17.931v23.535H0v39.451h17.931v40.348H0v39.451h17.931v42.652H0v39.448h17.931v39.453H0v39.452h17.931v42.588H0v39.453
		h17.931v36.985H0v39.45h17.931v32.275H0v39.453h17.931v18.319H60.97v19.724H34.105v133.895h160.421v29.055H34.105v31.579H0v117.472
		h107.5h215h220.656v-46.737h48.354v-79.58H550.736z M102.213,593.558v-19.724h34.073v19.724H102.213z M177.529,593.558v-19.724
		h32.279v19.724H177.529z M251.052,593.558v-19.724h35.639v19.724H251.052z"/>
	<path fill="#010202" d="M107.5,905.558c-59.274,0-107.5,48.224-107.5,107.5c0,59.275,48.225,107.5,107.5,107.5
		c59.274,0,107.5-48.226,107.5-107.5C215,953.781,166.775,905.558,107.5,905.558z"/>
	<path fill="#010202" d="M215,1013.058c0,59.275,48.227,107.5,107.5,107.5c59.275,0,107.5-48.225,107.5-107.5
		c0-59.273-48.225-107.5-107.5-107.5C263.226,905.558,215,953.783,215,1013.058z"/>
</g>
</svg>
