<?xml version="1.0" encoding="utf-8"?>
<!-- Generator: Adobe Illustrator 16.0.0, SVG Export Plug-In . SVG Version: 6.00 Build 0)  -->
<!DOCTYPE svg PUBLIC "-//W3C//DTD SVG 1.1//EN" "http://www.w3.org/Graphics/SVG/1.1/DTD/svg11.dtd">
<svg version="1.1" id="Calque_1" xmlns="http://www.w3.org/2000/svg" xmlns:xlink="http://www.w3.org/1999/xlink" x="0px" y="0px"
	 width="1190.551px" height="1190.551px" viewBox="0 0 1190.551 1190.551" enable-background="new 0 0 1190.551 1190.551"
	 xml:space="preserve">
<path fill="#010202" d="M473.474,593.558v-19.724h28.631v-18.319h17.93v-39.453h-17.93v-32.275h17.93v-39.45h-17.93v-36.985h17.93
	v-39.453h-17.93V325.31h17.93v-39.452h-17.93v-39.453h17.93v-39.448h-17.93v-42.652h17.93v-39.451h-17.93V84.505h17.93V45.054
	h-17.93V21.519h-28.631V0H432.23v21.519h-28.164V0h-41.243v21.519h-34.886V0h-41.246v21.519h-35.639V0h-41.244v21.519h-32.279V0
	h-41.242v21.519h-34.073V0H60.97v21.519H17.931v23.535H0v39.451h17.931v40.348H0v39.451h17.931v42.652H0v39.448h17.931v39.453H0
	v39.452h17.931v42.588H0v39.453h17.931v36.985H0v39.45h17.931v32.275H0v39.453h17.931v18.319H60.97v19.724H48.354v46.738H0v79.58
	h40.774V838.61l98.655,35.093c-10.091-3.146-20.816-4.841-31.929-4.841c-59.274,0-107.5,48.228-107.5,107.5
	c0,59.276,48.226,107.5,107.5,107.5c51.331,0,94.368-36.167,104.983-84.356c-0.561,4.44-0.852,8.963-0.852,13.553
	c0,59.275,48.226,107.5,107.5,107.5c59.273,0,107.5-48.226,107.5-107.5c0-59.276-48.227-107.5-107.5-107.5
	c-51.33,0-94.368,36.167-104.983,84.356c0.561-4.44,0.852-8.963,0.852-13.553c0-45.229-28.081-84.021-67.723-99.868l81.708,29.064
	h90.147h238.273V771.664H396.985V742.61h160.421v-31.579h34.105V593.558H473.474z M102.213,593.558v-19.724h34.073v19.724H102.213z
	 M177.529,593.558v-19.724h32.279v19.724H177.529z M251.052,593.558v-19.724h35.639v19.724H251.052z M327.937,593.558v-19.724
	h34.886v19.724H327.937z M404.066,593.558v-19.724h28.164v19.724H404.066z"/>
</svg>
