<?xml version="1.0" encoding="utf-8"?>
<!-- Generator: Adobe Illustrator 16.0.0, SVG Export Plug-In . SVG Version: 6.00 Build 0)  -->
<!DOCTYPE svg PUBLIC "-//W3C//DTD SVG 1.1//EN" "http://www.w3.org/Graphics/SVG/1.1/DTD/svg11.dtd">
<svg version="1.1" id="Calque_1" xmlns="http://www.w3.org/2000/svg" xmlns:xlink="http://www.w3.org/1999/xlink" x="0px" y="0px"
	 width="1190.551px" height="1190.551px" viewBox="0 0 1190.551 1190.551" enable-background="new 0 0 1190.551 1190.551"
	 xml:space="preserve">
<path fill="#010202" d="M655.526,889.518c-28.558-9.279-58.24-5.905-82.964,7.007L603.8,783.338l-82.425-22.748
	c22.272,5.825,46.562,4.592,69.321-5.136c54.505-23.297,79.896-86.596,56.6-141.1c-20.675-48.37-72.849-73.804-122.426-62.639
	l35.789-15.297l-7.047-16.488l34.008-14.535l7.047,16.488l36.276-15.506l-7.047-16.487l29.679-12.686l7.047,16.488l36.278-15.507
	l-7.048-16.487l16.845-7.2l-16.915-39.574l18.137-7.752l-16.209-37.926L673.571,377l-13.392-31.331l18.138-7.753l-16.21-37.924
	l-18.138,7.753l-12.687-29.682l18.138-7.753l-16.21-37.925l-18.138,7.753l-14.007-32.771l18.138-7.753l-16.211-37.927l-18.138,7.753
	l-13.711-32.079l18.138-7.752l-16.209-37.924l-18.138,7.752L543.866,73.54l18.138-7.752l-16.21-37.926l-18.138,7.753L516.403,9.288
	l-16.844,7.199L492.512,0l-36.278,15.506l7.047,16.487l-29.679,12.686l-7.047-16.487l-36.276,15.506l7.047,16.486l-34.008,14.536
	l-7.047-16.487l-36.278,15.506l7.047,16.487l-39.161,16.738l-7.047-16.487l-36.277,15.506l7.048,16.487l-36.278,15.506
	l-7.047-16.487l-36.274,15.505l7.047,16.486l-39.22,16.764l-7.047-16.487L96.507,169.26l7.047,16.487l-37.102,15.858l-7.047-16.487
	l-36.276,15.505l7.047,16.487l-21.641,9.25l11.253,26.327L0,261.145l16.21,37.925l19.788-8.457l11.068,25.897l-19.787,8.458
	l16.21,37.924l19.787-8.458l13.711,32.079L57.2,394.97l16.211,37.927l19.787-8.457l14.007,32.771l-19.787,8.457l16.21,37.925
	l19.787-8.457l12.687,29.681l-19.787,8.458l16.209,37.924l19.787-8.457l13.392,31.331l-19.787,8.458l16.21,37.925l19.787-8.458
	l16.915,39.574l-118.61-32.734L67.783,683.89l-46.611-12.863L0,747.739l39.306,10.848L7.718,873.043l163.617,114.606l316.586,87.372
	l29.605-107.273c-12.331,53.635,18.247,108.925,71.561,126.248c56.374,18.316,117.142-12.646,135.458-69.02
	C742.862,968.601,711.899,907.836,655.526,889.518z M220.469,662.323l7.047,16.487l36.276-15.505l-7.047-16.488l37.101-15.857
	l7.048,16.488l36.276-15.505l-7.048-16.488l39.22-16.764l7.048,16.488l36.274-15.505l-7.048-16.488l36.278-15.506l7.048,16.488
	l36.277-15.506l-7.048-16.488l39.161-16.737l7.007,16.394c-6.111,1.409-12.18,3.375-18.145,5.924
	c-54.505,23.297-79.896,86.594-56.6,141.1c13.103,30.654,38.857,52.099,68.584,60.854l-319.351-88.136L220.469,662.323z
	 M520.067,958.542l3.475-12.591l-154.641-42.678l7.729-28.006l154.64,42.678l8.401-30.44l32.819,9.058
	c-24.047,12.581-43.394,34.188-52.423,61.976C520.068,958.538,520.067,958.541,520.067,958.542z"/>
</svg>
