<?xml version="1.0" encoding="utf-8"?>
<!-- Generator: Adobe Illustrator 16.0.0, SVG Export Plug-In . SVG Version: 6.00 Build 0)  -->
<!DOCTYPE svg PUBLIC "-//W3C//DTD SVG 1.1//EN" "http://www.w3.org/Graphics/SVG/1.1/DTD/svg11.dtd">
<svg version="1.1" id="Calque_1" xmlns="http://www.w3.org/2000/svg" xmlns:xlink="http://www.w3.org/1999/xlink" x="0px" y="0px"
	 width="1190.551px" height="1190.551px" viewBox="0 0 1190.551 1190.551" enable-background="new 0 0 1190.551 1190.551"
	 xml:space="preserve">
<path fill="#010202" d="M925.81,986.816c-39.293-39.293-101.692-41.749-143.874-7.368l53.331-104.669l-87.41-44.537
	c14.002,6.69,29.666,10.442,46.19,10.442c59.276,0,107.5-48.225,107.5-107.5c0-59.274-48.224-107.5-107.5-107.5
	c-34.497,0-65.248,16.338-84.932,41.679l15-20.646l-14.506-10.54l25.069-34.506l14.507,10.539l23.188-31.914l-14.506-10.54
	l23.189-31.918l14.507,10.539l23.188-31.917l-14.507-10.539l25.032-34.455l14.507,10.54l23.19-31.918l-14.508-10.54l21.738-29.921
	l14.507,10.54l23.188-31.917l-14.506-10.539l18.971-26.112l14.507,10.54l23.189-31.918l-14.506-10.54l10.767-14.819l-34.818-25.297
	l11.595-15.958l-33.367-24.243l-11.594,15.958l-27.565-20.027l11.594-15.958L832.8,195.096l-11.594,15.958l-26.113-18.973
	l11.594-15.958L773.32,151.88l-11.594,15.958l-28.833-20.948l11.595-15.958l-33.369-24.243l-11.594,15.958L671.3,102.141
	l11.596-15.959L649.53,61.94l-11.594,15.958l-22.785-16.554l11.594-15.958l-33.368-24.243l-11.594,15.958L558.62,20.272
	l-10.767,14.82l-14.505-10.539l-23.19,31.918l14.506,10.539l-18.972,26.111l-14.505-10.539l-23.189,31.917l14.507,10.539
	l-21.738,29.921L446.26,144.42l-23.19,31.918l14.506,10.539l-25.032,34.454l-14.508-10.539l-23.188,31.917l14.506,10.539
	l-23.189,31.919l-14.506-10.539l-23.188,31.915l14.506,10.538l-25.07,34.507L303.4,341.049l-23.188,31.916l14.507,10.539
	l-23.718,32.643l-14.506-10.539l-23.188,31.917l14.506,10.539l-13.833,19.04l23.162,16.828l-12.648,17.41l33.367,24.242
	l12.648-17.409l22.784,16.555l-12.647,17.409l33.366,24.241l12.647-17.409l28.225,20.506l-12.648,17.409l33.369,24.244
	l12.647-17.409l28.832,20.947l-12.647,17.409l33.367,24.242l12.647-17.409l26.114,18.975l-12.648,17.409l33.366,24.24l12.648-17.408
	l27.564,20.027l-12.647,17.409l33.366,24.241L351.311,628.191l-21.219,41.643l-43.084-21.952l-36.128,70.906L287.21,737.3
	l-53.903,105.794L370.609,988.19l292.625,149.101l60.787-119.302l-142.937-72.83l13.189-25.886l142.936,72.829l14.336-28.137
	l30.389,15.482c-2.812,2.292-5.534,4.748-8.154,7.367c-41.914,41.914-41.913,110.115,0,152.028
	c41.914,41.914,110.114,41.912,152.028,0C967.722,1096.932,967.724,1028.73,925.81,986.816z M578.217,743.806l12.647-17.409
	l34.818,25.297l13.834-19.04l14.507,10.54l23.188-31.917l-14.507-10.539l23.717-32.643l14.506,10.54l4.006-5.514
	c-11.604,17.16-18.386,37.834-18.386,60.062c0,40.752,22.794,76.28,56.303,94.506L578.217,743.806z"/>
</svg>
