<?xml version="1.0" encoding="utf-8"?>
<!-- Generator: Adobe Illustrator 16.0.0, SVG Export Plug-In . SVG Version: 6.00 Build 0)  -->
<!DOCTYPE svg PUBLIC "-//W3C//DTD SVG 1.1//EN" "http://www.w3.org/Graphics/SVG/1.1/DTD/svg11.dtd">
<svg version="1.1" id="Calque_1" xmlns="http://www.w3.org/2000/svg" xmlns:xlink="http://www.w3.org/1999/xlink" x="0px" y="0px"
	 width="1190.551px" height="1190.551px" viewBox="0 0 1190.551 1190.551" enable-background="new 0 0 1190.551 1190.551"
	 xml:space="preserve">
<g>
	<path fill="#010202" d="M599.322,930.228l150.746,54.867l10.801-29.675l32.047,11.666l40.181-110.391l-115.708-42.113
		c47.396,15.755,101.058-3.376,126.983-48.281c29.638-51.336,11.986-117.212-39.349-146.849
		c-40.292-23.263-89.54-17.388-123.196,11.038l-8.903-15.421l34.166-19.727l8.968,15.527l34.165-19.726l-8.966-15.528l36.884-21.295
		l8.966,15.529l34.166-19.727l-8.966-15.528l32.029-18.491l8.967,15.527l34.164-19.726l-8.965-15.528l27.951-16.139l8.966,15.53
		l34.166-19.728l-8.964-15.528l15.863-9.16l-21.52-37.271l17.082-9.863L931.425,368.5l-17.082,9.862l-17.036-29.508l17.082-9.862
		l-20.622-35.718l-17.082,9.862l-16.141-27.954l17.084-9.862l-20.622-35.719l-17.083,9.862L822.104,218.6l17.082-9.862
		l-20.623-35.72l-17.082,9.862l-17.442-30.209l17.083-9.862l-20.623-35.718l-17.082,9.862l-14.082-24.391l17.082-9.862
		L745.794,46.98l-17.082,9.862l-14.314-24.794l-15.864,9.159l-8.965-15.528l-34.167,19.727l8.965,15.528l-27.952,16.138
		l-8.965-15.527l-34.165,19.725l8.966,15.528l-32.03,18.492l-8.965-15.528l-34.167,19.727l8.965,15.528l-36.883,21.294
		l-8.965-15.528l-34.167,19.727l8.966,15.527l-34.167,19.727l-8.967-15.527l-34.162,19.724l8.965,15.528l-36.938,21.326
		l-8.967-15.528l-34.163,19.723l8.965,15.528l-34.941,20.174l-8.966-15.528l-34.167,19.726l8.968,15.528l-20.384,11.768
		l14.316,24.795l-18.637,10.759l20.622,35.717l18.636-10.758l14.082,24.391l-18.636,10.76l20.622,35.717l18.636-10.76l17.441,30.213
		l-18.636,10.76l20.623,35.72l18.636-10.76l17.82,30.864l-18.637,10.76l20.622,35.719l18.637-10.76l16.139,27.954l-18.636,10.76
		l20.621,35.718l18.637-10.761l17.036,29.509l-18.637,10.761l20.623,35.718l18.636-10.759l21.521,37.271l20.382-11.768l8.965,15.528
		l34.165-19.726l-8.965-15.529l34.941-20.174l8.965,15.529l34.166-19.727l-8.965-15.528l36.938-21.325l8.966,15.526l33.588-19.392
		c-9.007,7.706-16.883,17.034-23.139,27.87c-29.637,51.331-11.985,117.208,39.348,146.848c4.68,2.702,9.48,5.006,14.364,6.933
		L322.694,670.926l-15.984,43.918l-45.438-16.538l-27.217,74.781l38.314,13.945l-40.609,111.576l153.962,127.28l308.614,112.327
		l45.795-125.82l-150.746-54.867L599.322,930.228z"/>
	<path fill="#010202" d="M957.149,1038.693c-10.293-58.375-66.158-97.491-124.533-87.198c-58.373,10.292-97.493,66.157-87.2,124.533
		c10.293,58.372,66.16,97.492,124.534,87.199S967.442,1097.068,957.149,1038.693z"/>
</g>
</svg>
