<?xml version="1.0" encoding="utf-8"?>
<!-- Generator: Adobe Illustrator 16.0.0, SVG Export Plug-In . SVG Version: 6.00 Build 0)  -->
<!DOCTYPE svg PUBLIC "-//W3C//DTD SVG 1.1//EN" "http://www.w3.org/Graphics/SVG/1.1/DTD/svg11.dtd">
<svg version="1.1" id="Calque_1" xmlns="http://www.w3.org/2000/svg" xmlns:xlink="http://www.w3.org/1999/xlink" x="0px" y="0px"
	 width="1190.551px" height="1190.551px" viewBox="0 0 1190.551 1190.551" enable-background="new 0 0 1190.551 1190.551"
	 xml:space="preserve">
<g>
	<polygon fill="#010202" points="643.776,644.652 597.038,644.652 597.038,596.299 565.119,596.299 565.119,574.78 600.758,574.78 
		600.758,596.299 642.002,596.299 642.002,574.78 674.281,574.78 674.281,596.299 715.525,596.299 715.525,574.78 749.597,574.78 
		749.597,596.299 751.276,596.299 790.841,596.299 790.841,574.78 833.879,574.78 833.879,551.246 851.809,551.246 851.809,511.794 
		833.879,511.794 833.879,471.446 851.809,471.446 851.809,431.996 833.879,431.996 833.879,389.343 851.809,389.343 
		851.809,349.894 833.879,349.894 833.879,310.441 851.809,310.441 851.809,270.989 833.879,270.989 833.879,228.401 
		851.809,228.401 851.809,188.948 833.879,188.948 833.879,151.964 851.809,151.964 851.809,112.513 833.879,112.513 
		833.879,80.237 851.809,80.237 851.809,40.784 833.879,40.784 833.879,22.466 790.841,22.466 790.841,2.741 749.597,2.741 
		749.597,22.466 715.525,22.466 715.525,2.741 674.281,2.741 674.281,22.466 642.002,22.466 642.002,2.741 600.758,2.741 
		600.758,22.466 565.119,22.466 565.119,2.741 523.873,2.741 523.873,22.466 488.988,22.466 488.988,2.741 447.744,2.741 
		447.744,22.466 419.58,22.466 419.58,2.741 378.336,2.741 378.336,22.466 349.705,22.466 349.705,40.784 331.776,40.784 
		331.776,80.237 349.705,80.237 349.705,112.513 331.776,112.513 331.776,151.964 349.705,151.964 349.705,188.948 331.776,188.948 
		331.776,228.401 349.705,228.401 349.705,270.989 331.776,270.989 331.776,310.441 349.705,310.441 349.705,349.894 
		331.776,349.894 331.776,389.343 349.705,389.343 349.705,431.996 331.776,431.996 331.776,471.446 349.705,471.446 
		349.705,511.794 331.776,511.794 331.776,551.246 349.705,551.246 349.705,574.78 378.336,574.78 378.336,596.299 419.58,596.299 
		419.58,574.78 447.744,574.78 447.744,596.299 488.988,596.299 488.988,574.78 523.873,574.78 523.873,596.299 517.458,596.299 
		517.458,637.074 398.723,637.074 331.776,825.285 331.776,1153.705 465.67,1153.705 465.67,993.285 494.723,993.285 
		494.723,1153.705 526.302,1153.705 526.302,1187.811 643.776,1187.811 643.776,918.799 643.776,703.799 	"/>
	<path fill="#010202" d="M643.776,703.799c0,59.275,48.225,107.5,107.5,107.5c59.273,0,107.5-48.227,107.5-107.5
		c0-59.275-48.227-107.5-107.5-107.5C692.001,596.299,643.776,644.521,643.776,703.799z"/>
	<path fill="#010202" d="M751.276,811.299c-59.272,0-107.5,48.225-107.5,107.5s48.226,107.5,107.5,107.5
		c59.273,0,107.5-48.227,107.5-107.5C858.776,859.521,810.55,811.299,751.276,811.299z"/>
</g>
</svg>
