<?xml version="1.0" encoding="utf-8"?>
<!-- Generator: Adobe Illustrator 16.0.0, SVG Export Plug-In . SVG Version: 6.00 Build 0)  -->
<!DOCTYPE svg PUBLIC "-//W3C//DTD SVG 1.1//EN" "http://www.w3.org/Graphics/SVG/1.1/DTD/svg11.dtd">
<svg version="1.1" id="Calque_1" xmlns="http://www.w3.org/2000/svg" xmlns:xlink="http://www.w3.org/1999/xlink" x="0px" y="0px"
	 width="1190.551px" height="1190.551px" viewBox="0 0 1190.551 1190.551" enable-background="new 0 0 1190.551 1190.551"
	 xml:space="preserve">
<g>
	<polygon fill="#010202" points="934.754,685.376 956.707,642.292 885.801,606.164 867.289,642.494 761.496,588.59 727.785,620.49 
		733.957,581.522 716.248,578.718 721.297,546.839 739.006,549.643 745.178,510.678 727.469,507.874 733.254,471.344 
		750.963,474.149 757.135,435.182 739.426,432.378 746.088,390.314 763.797,393.119 769.969,354.152 752.26,351.347 
		758.432,312.381 776.141,315.185 782.311,276.221 764.602,273.417 771.276,231.29 788.985,234.094 795.156,195.13 777.448,192.325 
		783.758,152.473 801.467,155.278 807.639,116.313 789.93,113.509 793.612,90.263 765.332,85.784 768.699,64.53 727.963,58.078 
		724.596,79.332 696.78,74.927 700.145,53.673 659.41,47.22 656.043,68.474 621.588,63.017 624.955,41.763 584.216,35.31 
		580.849,56.565 545.65,50.99 549.015,29.735 508.28,23.284 504.913,44.538 473.032,39.488 476.398,18.234 435.663,11.782 
		432.296,33.036 398.643,27.706 402.009,6.452 361.273,0 357.907,21.254 315.399,14.521 311.717,37.766 294.006,34.962 
		287.835,73.927 305.545,76.732 299.234,116.584 281.524,113.778 275.352,152.744 293.062,155.549 286.389,197.676 268.679,194.87 
		262.508,233.834 280.219,236.638 274.047,275.606 256.336,272.801 250.165,311.767 267.875,314.572 261.213,356.635 
		243.502,353.831 237.331,392.799 255.041,395.603 249.255,432.132 231.545,429.327 225.373,468.292 243.084,471.097 
		238.035,502.976 220.325,500.171 214.153,539.138 231.864,541.943 228.997,560.036 271.505,566.768 268.42,586.251 
		309.157,592.702 312.242,573.22 345.896,578.551 342.81,598.033 383.545,604.484 386.63,585.003 418.511,590.052 415.427,609.534 
		456.163,615.986 459.248,596.504 494.449,602.079 491.363,621.561 532.1,628.013 535.187,608.531 569.642,613.989 566.557,633.47 
		607.293,639.923 610.377,620.44 638.196,624.846 635.11,644.329 675.846,650.781 678.932,631.299 707.211,635.777 710.076,617.684 
		727.785,620.49 616.401,725.892 467.299,1018.517 586.6,1079.304 659.43,936.368 685.317,949.558 612.489,1092.494 
		640.623,1106.831 625.141,1137.219 729.811,1190.551 976.399,706.594 	"/>
	<path fill="#010202" d="M378.885,823.114c-16.502-8.408-34.18-12.132-51.51-11.666c38.127-1.029,74.563-22.336,93.063-58.646
		c26.909-52.813,5.834-117.678-46.979-144.587c-52.814-26.911-117.677-5.836-144.587,46.979
		c-26.91,52.814-5.835,117.677,46.979,144.588c16.502,8.408,34.18,12.131,51.51,11.666c-38.127,1.029-74.563,22.338-93.062,58.645
		c-26.91,52.814-5.835,117.678,46.979,144.587c52.813,26.911,117.677,5.835,144.587-46.979
		C452.774,914.888,431.701,850.025,378.885,823.114z"/>
</g>
</svg>
