<?xml version="1.0" encoding="utf-8"?>
<!-- Generator: Adobe Illustrator 16.0.0, SVG Export Plug-In . SVG Version: 6.00 Build 0)  -->
<!DOCTYPE svg PUBLIC "-//W3C//DTD SVG 1.1//EN" "http://www.w3.org/Graphics/SVG/1.1/DTD/svg11.dtd">
<svg version="1.1" id="Calque_1" xmlns="http://www.w3.org/2000/svg" xmlns:xlink="http://www.w3.org/1999/xlink" x="0px" y="0px"
	 width="1190.551px" height="1190.551px" viewBox="0 0 1190.551 1190.551" enable-background="new 0 0 1190.551 1190.551"
	 xml:space="preserve">
<path fill="#010202" d="M885.893,935.16c-28.557-9.279-58.24-5.904-82.963,7.008l31.238-113.188l-82.426-22.748
	c22.271,5.824,46.562,4.592,69.32-5.137c54.506-23.297,79.896-86.596,56.602-141.1c-20.676-48.37-72.85-73.804-122.428-62.639
	l35.789-15.297l-7.047-16.488l34.008-14.535l7.047,16.488l36.277-15.506l-7.047-16.487l29.678-12.686l7.047,16.488l36.279-15.507
	l-7.049-16.487l16.846-7.2l-16.916-39.574l18.139-7.752l-16.209-37.926l-18.141,7.754l-13.391-31.331l18.137-7.753l-16.209-37.924
	l-18.139,7.753l-12.688-29.682l18.139-7.753l-16.211-37.925l-18.137,7.753l-14.008-32.771l18.139-7.753l-16.211-37.927
	l-18.139,7.753l-13.711-32.079l18.139-7.752l-16.209-37.924l-18.139,7.752l-11.068-25.897l18.139-7.752l-16.209-37.926
	l-18.139,7.753L746.77,54.93l-16.844,7.199l-7.047-16.487l-36.277,15.506l7.047,16.487l-29.68,12.686l-7.047-16.487L620.647,89.34
	l7.047,16.486l-34.008,14.536l-7.047-16.487l-36.277,15.506l7.047,16.487l-39.161,16.738l-7.047-16.487l-36.277,15.506l7.048,16.487
	l-36.277,15.506l-7.048-16.487l-36.273,15.505l7.047,16.486l-39.22,16.764l-7.047-16.487l-36.277,15.503l7.047,16.487
	l-37.102,15.858l-7.048-16.487l-36.275,15.505l7.047,16.487l-21.641,9.25l11.253,26.327l-19.788,8.458l16.21,37.925l19.788-8.457
	l11.067,25.897l-19.787,8.458l16.21,37.924l19.787-8.458l13.711,32.079l-19.786,8.457l16.211,37.927l19.787-8.457l14.007,32.771
	l-19.787,8.457l16.21,37.925l19.787-8.457l12.687,29.681l-19.787,8.458l16.209,37.925l19.787-8.457l13.393,31.33l-19.787,8.459
	l16.21,37.924l19.787-8.457l16.915,39.574l-118.61-32.734l-12.435,45.051L251.54,716.67l-21.172,76.711l39.306,10.848
	l-31.588,114.457l163.617,114.605l316.586,87.373l29.604-107.273c-12.33,53.635,18.248,108.924,71.562,126.248
	c56.373,18.316,117.141-12.646,135.457-69.021S942.266,953.479,885.893,935.16z M450.837,707.965l7.047,16.486l36.276-15.504
	l-7.047-16.488l37.101-15.857l7.048,16.488l36.276-15.504l-7.048-16.488l39.219-16.764l7.049,16.486l36.273-15.504l-7.047-16.488
	l36.277-15.506l7.047,16.488l36.277-15.506l-7.047-16.488l39.16-16.737l7.008,16.394c-6.111,1.41-12.182,3.375-18.146,5.924
	c-54.504,23.298-79.895,86.594-56.6,141.102c13.104,30.652,38.857,52.098,68.584,60.854l-319.35-88.137L450.837,707.965z
	 M750.434,1004.184l3.475-12.59l-154.641-42.678l7.73-28.008l154.639,42.68l8.402-30.441l32.818,9.059
	c-24.047,12.58-43.395,34.188-52.424,61.977C750.436,1004.18,750.434,1004.184,750.434,1004.184z"/>
</svg>
