<?xml version="1.0" encoding="utf-8"?>
<!-- Generator: Adobe Illustrator 16.0.0, SVG Export Plug-In . SVG Version: 6.00 Build 0)  -->
<!DOCTYPE svg PUBLIC "-//W3C//DTD SVG 1.1//EN" "http://www.w3.org/Graphics/SVG/1.1/DTD/svg11.dtd">
<svg version="1.1" id="Calque_1" xmlns="http://www.w3.org/2000/svg" xmlns:xlink="http://www.w3.org/1999/xlink" x="0px" y="0px"
	 width="1190.551px" height="1190.551px" viewBox="0 0 1190.551 1190.551" enable-background="new 0 0 1190.551 1190.551"
	 xml:space="preserve">
<path fill="#010202" d="M772.994,628.555V608.83h28.631v-18.318h17.93v-39.453h-17.93v-32.275h17.93v-39.45h-17.93v-36.985h17.93
	v-39.453h-17.93v-42.589h17.93v-39.452h-17.93v-39.453h17.93v-39.448h-17.93v-42.652h17.93v-39.451h-17.93v-40.349h17.93V80.051
	h-17.93V56.516h-28.631V34.997H731.75v21.519h-28.164V34.997h-41.244v21.519h-34.885V34.997h-41.247v21.519h-35.639V34.997h-41.244
	v21.519h-32.279V34.997h-41.241v21.519h-34.073V34.997H360.49v21.519h-43.039v23.535H299.52v39.451h17.931v40.348H299.52v39.451
	h17.931v42.652H299.52V281.4h17.931v39.453H299.52v39.452h17.931v42.588H299.52v39.453h17.931v36.985H299.52v39.45h17.931v32.275
	H299.52v39.453h17.931v18.318h43.039v19.725h-12.616v46.738H299.52v79.58h40.773v118.736l98.654,35.092
	c-10.091-3.146-20.815-4.84-31.928-4.84c-59.274,0-107.5,48.225-107.5,107.5c0,59.273,48.227,107.5,107.5,107.5
	c51.328,0,94.362-36.164,104.98-84.35c-0.561,4.439-0.851,8.957-0.851,13.545c0,59.275,48.226,107.5,107.5,107.5
	c59.271,0,107.5-48.225,107.5-107.5c0-59.273-48.229-107.5-107.5-107.5c-51.329,0-94.364,36.164-104.982,84.348
	c0.562-4.438,0.852-8.957,0.852-13.543c0-45.23-28.08-84.021-67.722-99.867l81.705,29.062h90.147h238.273V806.66h-160.42v-29.053
	h160.422v-31.58h34.105V628.555H772.994z M401.733,628.555V608.83h34.073v19.725H401.733z M477.049,628.555V608.83h32.279v19.725
	H477.049z M550.572,628.555V608.83h35.639v19.725H550.572z M627.457,628.555V608.83h34.885v19.725H627.457z M703.586,628.555V608.83
	h28.164v19.725H703.586z"/>
</svg>
