<?xml version="1.0" encoding="utf-8"?>
<!-- Generator: Adobe Illustrator 16.0.0, SVG Export Plug-In . SVG Version: 6.00 Build 0)  -->
<!DOCTYPE svg PUBLIC "-//W3C//DTD SVG 1.1//EN" "http://www.w3.org/Graphics/SVG/1.1/DTD/svg11.dtd">
<svg version="1.1" id="Calque_1" xmlns="http://www.w3.org/2000/svg" xmlns:xlink="http://www.w3.org/1999/xlink" x="0px" y="0px"
	 width="1190.551px" height="1190.551px" viewBox="0 0 1190.551 1190.551" enable-background="new 0 0 1190.551 1190.551"
	 xml:space="preserve">
<g>
	<polygon fill="#010202" points="939.019,403.741 957.656,392.981 937.034,357.262 918.398,368.022 904.316,343.63 922.952,332.872 
		902.33,297.155 883.695,307.914 866.251,277.702 884.887,266.942 864.265,231.222 845.627,241.982 827.81,211.118 846.444,200.358 
		825.823,164.639 807.187,175.399 791.045,147.445 809.683,136.685 789.062,100.967 770.425,111.726 753.388,82.219 772.026,71.458 
		751.404,35.742 732.767,46.5 711.248,9.228 690.867,20.997 681.901,5.467 647.736,25.193 656.7,40.721 621.758,60.896 
		612.793,45.367 578.628,65.092 587.594,80.622 550.656,101.947 541.69,86.417 507.526,106.143 516.491,121.671 482.323,141.398 
		473.359,125.869 439.192,145.595 448.157,161.124 411.276,182.417 402.31,166.889 368.143,186.616 377.108,202.145 
		345.078,220.636 336.114,205.107 301.948,224.833 310.913,240.362 282.961,256.5 273.996,240.971 239.828,260.698 248.793,276.227 
		232.93,285.385 254.449,322.657 237.366,332.52 257.989,368.239 275.072,358.376 292.108,387.884 275.026,397.746 295.647,433.464 
		312.729,423.601 328.868,451.556 311.786,461.418 332.408,497.137 349.49,487.274 367.31,518.138 350.228,528.001 370.851,563.721 
		387.933,553.859 405.376,584.071 388.294,593.934 408.915,629.65 425.997,619.789 440.079,644.179 422.997,654.041 
		443.619,689.759 460.701,679.896 475.017,704.692 490.881,695.534 499.846,711.061 534.013,691.334 525.048,675.807 553,659.669 
		561.965,675.198 596.131,655.47 587.167,639.943 619.195,621.452 628.16,636.979 662.327,617.253 653.363,601.724 690.243,580.431 
		699.209,595.958 733.376,576.233 724.411,560.706 758.578,540.979 767.542,556.506 801.707,536.782 792.742,521.254 
		829.679,499.927 838.645,515.457 872.811,495.731 863.845,480.203 898.788,460.029 907.753,475.557 941.918,455.832 
		932.953,440.302 953.335,428.535 	"/>
	<path fill="#010202" d="M738.259,843.124l-25.16-14.527l80.211-138.928l-27.35-15.79l17.053-29.536L681.28,585.607
		l-247.759,429.131c29.569-51.322,11.909-117.144-39.396-146.765c-51.331-29.636-117.21-11.986-146.849,39.349
		c-29.636,51.332-11.984,117.211,39.349,146.849c51.307,29.62,117.138,12.003,146.8-39.264l-23.723,41.087l40.476,23.369
		l-24.178,41.877l68.919,39.789l20.388-35.312l102.828,59.366l152.082-129.521l164.211-284.422l-115.955-66.947L738.259,843.124z"/>
	<path fill="#010202" d="M296.772,650.412c-51.333,29.638-68.984,95.515-39.348,146.848c29.638,51.334,95.515,68.985,146.848,39.348
		c51.334-29.638,68.985-95.514,39.348-146.848C413.983,638.426,348.107,620.773,296.772,650.412z"/>
</g>
</svg>
