<?xml version="1.0" encoding="utf-8"?>
<!-- Generator: Adobe Illustrator 16.0.0, SVG Export Plug-In . SVG Version: 6.00 Build 0)  -->
<!DOCTYPE svg PUBLIC "-//W3C//DTD SVG 1.1//EN" "http://www.w3.org/Graphics/SVG/1.1/DTD/svg11.dtd">
<svg version="1.1" id="Calque_1" xmlns="http://www.w3.org/2000/svg" xmlns:xlink="http://www.w3.org/1999/xlink" x="0px" y="0px"
	 width="1190.551px" height="1190.551px" viewBox="0 0 1190.551 1190.551" enable-background="new 0 0 1190.551 1190.551"
	 xml:space="preserve">
<g>
	<path fill="#010202" d="M850.256,814.236V695.504l-188.21-66.949h-34.589V608.83h34.886v19.725h41.243V608.83h28.164v19.725h41.244
		V608.83h28.631v-18.318h17.93v-39.453h-17.93v-32.275h17.93v-39.45h-17.93v-36.985h17.93v-39.453h-17.93v-42.589h17.93v-39.452
		h-17.93v-39.453h17.93v-39.448h-17.93v-42.652h17.93v-39.451h-17.93v-40.349h17.93V80.051h-17.93V56.516h-28.631V34.997H731.75
		v21.519h-28.164V34.997h-41.243v21.519h-34.886V34.997h-41.246v21.519h-35.639V34.997h-41.244v21.519h-32.279V34.997h-41.241
		v21.519h-34.073V34.997H360.49v21.519h-43.039v23.535h-17.931v39.451h17.931v40.348h-17.931v39.451h17.931v42.652h-17.931V281.4
		h17.931v39.453h-17.931v39.452h17.931v42.588h-17.931v39.453h17.931v36.985h-17.931v39.45h17.931v32.275h-17.931v39.453h17.931
		v18.318h43.039v19.725h-26.865v133.895h160.421v29.055H333.625v31.58h-34.104v117.471h107.5h215h220.655v-46.736h48.354v-79.58
		H850.256z M401.734,628.555V608.83h34.073v19.725H401.734z M477.049,628.555V608.83h32.279v19.725H477.049z M550.573,628.555
		V608.83h35.639v19.725H550.573z"/>
	<path fill="#010202" d="M407.021,940.555c-59.274,0-107.5,48.225-107.5,107.5s48.225,107.5,107.5,107.5
		c59.273,0,107.5-48.227,107.5-107.5C514.521,988.777,466.295,940.555,407.021,940.555z"/>
	<path fill="#010202" d="M514.521,1048.055c0,59.275,48.227,107.5,107.5,107.5c59.274,0,107.5-48.225,107.5-107.5
		c0-59.273-48.226-107.5-107.5-107.5S514.521,988.779,514.521,1048.055z"/>
</g>
</svg>
