<?xml version="1.0" encoding="utf-8"?>
<!-- Generator: Adobe Illustrator 16.0.0, SVG Export Plug-In . SVG Version: 6.00 Build 0)  -->
<!DOCTYPE svg PUBLIC "-//W3C//DTD SVG 1.1//EN" "http://www.w3.org/Graphics/SVG/1.1/DTD/svg11.dtd">
<svg version="1.1" id="Calque_1" xmlns="http://www.w3.org/2000/svg" xmlns:xlink="http://www.w3.org/1999/xlink" x="0px" y="0px"
	 width="1190.551px" height="1190.551px" viewBox="0 0 1190.551 1190.551" enable-background="new 0 0 1190.551 1190.551"
	 xml:space="preserve">
<g>
	<polygon fill="#010202" points="706.088,398.274 724.725,387.514 704.104,351.795 685.467,362.555 671.385,338.163 
		690.022,327.405 669.4,291.688 650.764,302.447 633.321,272.235 651.957,261.475 631.334,225.755 612.697,236.515 594.879,205.651 
		613.513,194.891 592.893,159.172 574.256,169.932 558.115,141.978 576.752,131.218 556.131,95.5 537.495,106.259 520.458,76.752 
		539.095,65.991 518.473,30.275 499.836,41.033 478.318,3.761 457.937,15.53 448.97,0 414.805,19.726 423.77,35.254 388.827,55.429 
		379.863,39.9 345.698,59.625 354.663,75.155 317.725,96.48 308.759,80.95 274.595,100.676 283.561,116.204 249.393,135.931 
		240.428,120.402 206.261,140.128 215.227,155.657 178.345,176.95 169.379,161.422 135.212,181.149 144.177,196.678 
		112.148,215.169 103.183,199.64 69.017,219.366 77.983,234.895 50.031,251.033 41.066,235.504 6.898,255.231 15.863,270.76 
		-0.001,279.918 21.519,317.19 4.436,327.053 25.058,362.772 42.141,352.909 59.177,382.417 42.095,392.279 62.716,427.997 
		79.798,418.134 95.938,446.089 78.856,455.951 99.478,491.67 116.56,481.807 134.379,512.671 117.297,522.534 137.92,558.254 
		155.002,548.392 172.446,578.604 155.364,588.467 175.985,624.184 193.067,614.322 207.149,638.712 190.067,648.574 
		210.689,684.292 227.771,674.43 242.086,699.226 257.95,690.067 266.915,705.594 301.082,685.867 292.117,670.34 320.07,654.202 
		329.034,669.731 363.2,650.003 354.237,634.477 386.264,615.985 395.23,631.513 429.397,611.786 420.432,596.257 457.313,574.964 
		466.279,590.491 500.446,570.766 491.481,555.239 525.648,535.512 534.612,551.039 568.777,531.315 559.812,515.787 
		596.749,494.46 605.714,509.99 639.88,490.264 630.915,474.736 665.858,454.562 674.823,470.09 708.988,450.365 700.023,434.835 
		720.405,423.068 	"/>
	<path fill="#010202" d="M505.329,837.657l-25.161-14.527l80.211-138.928l-27.349-15.79l17.053-29.536L448.349,580.14
		L200.59,1009.271c29.569-51.322,11.909-117.143-39.396-146.764c-51.331-29.636-117.21-11.986-146.849,39.349
		c-29.636,51.332-11.984,117.21,39.349,146.848c51.306,29.62,117.137,12.003,146.799-39.264l-23.722,41.087l40.475,23.37
		l-24.177,41.876l68.919,39.79l20.387-35.312l102.828,59.366l152.083-129.52l164.211-284.422l-115.955-66.947L505.329,837.657z"/>
	<path fill="#010202" d="M63.841,644.945c-51.333,29.638-68.984,95.515-39.348,146.848c29.638,51.334,95.515,68.985,146.848,39.348
		c51.334-29.638,68.985-95.514,39.348-146.848C181.052,632.959,115.176,615.307,63.841,644.945z"/>
</g>
</svg>
