<?xml version="1.0" encoding="utf-8"?>
<!-- Generator: Adobe Illustrator 16.0.0, SVG Export Plug-In . SVG Version: 6.00 Build 0)  -->
<!DOCTYPE svg PUBLIC "-//W3C//DTD SVG 1.1//EN" "http://www.w3.org/Graphics/SVG/1.1/DTD/svg11.dtd">
<svg version="1.1" id="Calque_1" xmlns="http://www.w3.org/2000/svg" xmlns:xlink="http://www.w3.org/1999/xlink" x="0px" y="0px"
	 width="1190.551px" height="1190.551px" viewBox="0 0 1190.551 1190.551" enable-background="new 0 0 1190.551 1190.551"
	 xml:space="preserve">
<path fill="#010202" d="M772.994,628.555V608.83h28.631v-18.319h17.93v-39.453h-17.93v-32.275h17.93v-39.45h-17.93v-36.985h17.93
	v-39.453h-17.93v-42.589h17.93v-39.452h-17.93v-39.453h17.93v-39.448h-17.93v-42.652h17.93V159.85h-17.93v-40.349h17.93V80.05
	h-17.93V56.515h-28.631V34.996H731.75v21.519h-28.164V34.996h-41.244v21.519h-34.885V34.996h-41.247v21.519h-35.639V34.996h-41.244
	v21.519h-32.279V34.996h-41.241v21.519h-34.073V34.996H360.49v21.519h-43.039V80.05H299.52v39.451h17.931v40.348H299.52V199.3
	h17.931v42.652H299.52V281.4h17.931v39.453H299.52v39.452h17.931v42.588H299.52v39.453h17.931v36.985H299.52v39.45h17.931v32.275
	H299.52v39.453h17.931v18.319h43.039v19.725h-12.616v46.737H299.52v79.58h40.773v118.736l98.655,35.093
	c-10.091-3.146-20.816-4.841-31.929-4.841c-59.274,0-107.5,48.228-107.5,107.5c0,59.275,48.226,107.5,107.5,107.5
	c51.331,0,94.368-36.167,104.982-84.356c-0.561,4.44-0.852,8.963-0.852,13.553c0,59.275,48.226,107.5,107.5,107.5
	c59.273,0,107.5-48.226,107.5-107.5c0-59.275-48.227-107.5-107.5-107.5c-51.33,0-94.368,36.168-104.983,84.356
	c0.562-4.44,0.853-8.963,0.853-13.553c0-45.229-28.081-84.021-67.724-99.868l81.708,29.064h90.148h238.271V806.66h-160.42v-29.054
	h160.422v-31.579h34.105V628.555H772.994z M401.733,628.555V608.83h34.073v19.725H401.733z M477.049,628.555V608.83h32.279v19.725
	H477.049z M550.572,628.555V608.83h35.639v19.725H550.572z M627.457,628.555V608.83h34.885v19.725H627.457z M703.586,628.555V608.83
	h28.164v19.725H703.586z"/>
</svg>
