<?xml version="1.0" encoding="utf-8"?>
<!-- Generator: Adobe Illustrator 16.0.0, SVG Export Plug-In . SVG Version: 6.00 Build 0)  -->
<!DOCTYPE svg PUBLIC "-//W3C//DTD SVG 1.1//EN" "http://www.w3.org/Graphics/SVG/1.1/DTD/svg11.dtd">
<svg version="1.1" id="Calque_1" xmlns="http://www.w3.org/2000/svg" xmlns:xlink="http://www.w3.org/1999/xlink" x="0px" y="0px"
	 width="1190.551px" height="1190.551px" viewBox="0 0 1190.551 1190.551" enable-background="new 0 0 1190.551 1190.551"
	 xml:space="preserve">
<g>
	<polygon fill="#010202" points="720.602,685.376 742.555,642.292 671.648,606.164 653.137,642.494 547.344,588.59 513.633,620.49 
		519.804,581.522 502.095,578.718 507.144,546.839 524.853,549.643 531.025,510.678 513.316,507.874 519.101,471.344 
		536.81,474.149 542.982,435.182 525.273,432.378 531.935,390.314 549.645,393.119 555.816,354.152 538.107,351.347 
		544.279,312.381 561.988,315.185 568.159,276.221 550.45,273.417 557.123,231.29 574.832,234.094 581.003,195.13 563.294,192.325 
		569.606,152.473 587.315,155.278 593.486,116.313 575.777,113.509 579.459,90.263 551.18,85.784 554.547,64.53 513.81,58.078 
		510.444,79.332 482.627,74.927 485.993,53.673 445.258,47.22 441.891,68.474 407.435,63.017 410.802,41.763 370.063,35.31 
		366.697,56.565 331.497,50.99 334.863,29.735 294.127,23.284 290.76,44.538 258.879,39.488 262.245,18.234 221.51,11.782 
		218.143,33.036 184.49,27.706 187.856,6.452 147.12,0 143.754,21.254 101.246,14.521 97.564,37.766 79.853,34.962 73.682,73.927 
		91.392,76.732 85.081,116.584 67.371,113.778 61.199,152.744 78.909,155.549 72.237,197.676 54.527,194.87 48.355,233.834 
		66.066,236.638 59.894,275.606 42.183,272.801 36.012,311.767 53.722,314.572 47.06,356.635 29.349,353.831 23.178,392.799 
		40.888,395.603 35.102,432.132 17.392,429.327 11.22,468.292 28.931,471.097 23.882,502.976 6.172,500.171 0,539.138 
		17.711,541.943 14.844,560.036 57.352,566.768 54.267,586.251 95.004,592.702 98.089,573.22 131.743,578.551 128.657,598.033 
		169.392,604.484 172.477,585.003 204.359,590.052 201.274,609.534 242.01,615.986 245.095,596.504 280.296,602.079 277.21,621.561 
		317.948,628.013 321.034,608.531 355.49,613.989 352.405,633.47 393.14,639.923 396.225,620.44 424.043,624.846 420.957,644.329 
		461.694,650.781 464.779,631.299 493.058,635.777 495.924,617.684 513.633,620.49 402.247,725.892 253.146,1018.517 
		372.448,1079.304 445.278,936.368 471.164,949.558 398.335,1092.494 426.471,1106.831 410.988,1137.219 515.658,1190.551 
		762.246,706.594 	"/>
	<path fill="#010202" d="M164.732,823.114c-16.502-8.408-34.18-12.132-51.51-11.666c38.127-1.029,74.563-22.336,93.063-58.645
		c26.91-52.814,5.834-117.678-46.979-144.587c-52.815-26.911-117.677-5.836-144.587,46.979S8.884,772.872,61.698,799.783
		c16.502,8.408,34.18,12.131,51.51,11.666c-38.127,1.029-74.563,22.338-93.062,58.645c-26.91,52.814-5.835,117.677,46.979,144.587
		c52.814,26.911,117.677,5.835,144.587-46.979C238.621,914.888,217.548,850.025,164.732,823.114z"/>
</g>
</svg>
