<?xml version="1.0" encoding="utf-8"?>
<!-- Generator: Adobe Illustrator 16.0.0, SVG Export Plug-In . SVG Version: 6.00 Build 0)  -->
<!DOCTYPE svg PUBLIC "-//W3C//DTD SVG 1.1//EN" "http://www.w3.org/Graphics/SVG/1.1/DTD/svg11.dtd">
<svg version="1.1" id="Calque_1" xmlns="http://www.w3.org/2000/svg" xmlns:xlink="http://www.w3.org/1999/xlink" x="0px" y="0px"
	 width="1190.551px" height="1190.551px" viewBox="0 0 1190.551 1190.551" enable-background="new 0 0 1190.551 1190.551"
	 xml:space="preserve">
<path fill="#010202" d="M421.432,880.737C479.817,879.701,527,831.889,527,773.261c0-59.275-48.227-107.5-107.5-107.5
	c-59.275,0-107.5,48.225-107.5,107.5c0,56.996,44.595,103.772,100.727,107.28c-47.318,0.839-87.277,32.396-100.727,75.542V773.261
	V627.663H178.105v160.422h-29.053V627.663h-31.579v-34.105h-15.26v-19.724h34.073v19.724h41.242v-19.724h32.279v19.724h41.244
	v-19.724h35.639v19.724h41.246v-19.724h34.886v19.724h41.243v-19.724h28.164v19.724h41.244v-19.724h28.631v-18.319h17.93v-39.453
	h-17.93v-32.275h17.93v-39.45h-17.93v-36.985h17.93v-39.453h-17.93V325.31h17.93v-39.452h-17.93v-39.453h17.93v-39.448h-17.93
	v-42.652h17.93v-39.451h-17.93V84.505h17.93V45.054h-17.93V21.519h-28.631V0H432.23v21.519h-28.164V0h-41.243v21.519h-34.886V0
	h-41.246v21.519h-35.639V0h-41.244v21.519h-32.279V0h-41.242v21.519h-34.073V0H60.97v21.519H17.931v23.535H0v39.451h17.931v40.348H0
	v39.451h17.931v42.652H0v39.448h17.931v39.453H0v39.452h17.931v42.588H0v39.453h17.931v36.985H0v39.45h17.931v32.275H0v39.453
	h17.931v18.319H60.97v19.724H0v543.158h46.736v48.353h79.58v-40.773h118.735l66.944-188.197c-3.143,10.088-4.837,20.81-4.837,31.919
	c0,59.273,48.225,107.5,107.5,107.5c59.274,0,107.5-48.226,107.5-107.5C522.158,931.017,477.562,884.244,421.432,880.737z"/>
</svg>
