<?xml version="1.0" encoding="utf-8"?>
<!-- Generator: Adobe Illustrator 16.0.0, SVG Export Plug-In . SVG Version: 6.00 Build 0)  -->
<!DOCTYPE svg PUBLIC "-//W3C//DTD SVG 1.1//EN" "http://www.w3.org/Graphics/SVG/1.1/DTD/svg11.dtd">
<svg version="1.1" id="Calque_1" xmlns="http://www.w3.org/2000/svg" xmlns:xlink="http://www.w3.org/1999/xlink" x="0px" y="0px"
	 width="1190.551px" height="1190.551px" viewBox="0 0 1190.551 1190.551" enable-background="new 0 0 1190.551 1190.551"
	 xml:space="preserve">
<g>
	<path fill="#010202" d="M367.563,904.547l150.746,54.867l10.801-29.675l32.047,11.666l40.18-110.39l-115.708-42.114
		c47.396,15.755,101.058-3.376,126.984-48.281c29.637-51.336,11.986-117.212-39.349-146.848
		c-40.292-23.263-89.54-17.388-123.196,11.038l-8.903-15.421l34.166-19.727l8.967,15.528l34.165-19.726l-8.965-15.528l36.883-21.295
		l8.966,15.529l34.166-19.727l-8.966-15.528l32.03-18.491l8.966,15.527l34.164-19.726l-8.964-15.528l27.951-16.139l8.966,15.53
		l34.166-19.728l-8.964-15.528l15.863-9.16l-21.519-37.271l17.082-9.863l-20.622-35.718l-17.082,9.862l-17.036-29.508l17.082-9.862
		l-20.622-35.718l-17.082,9.862l-16.14-27.954l17.083-9.862l-20.622-35.719l-17.083,9.862l-17.819-30.864l17.082-9.862
		l-20.623-35.72l-17.082,9.862L552.28,126.99l17.083-9.862L548.74,81.41l-17.082,9.862l-14.082-24.391l17.082-9.862l-20.622-35.719
		l-17.082,9.862L482.639,6.368l-15.864,9.159L457.81-0.001l-34.167,19.727l8.965,15.528l-27.952,16.138l-8.965-15.527
		l-34.165,19.725l8.965,15.528L338.461,89.61l-8.965-15.528l-34.167,19.727l8.965,15.528l-36.883,21.294l-8.964-15.528
		l-34.167,19.727l8.965,15.527l-34.167,19.727l-8.966-15.527l-34.163,19.724l8.965,15.528l-36.938,21.326l-8.967-15.528
		L84.846,215.33l8.965,15.528l-34.942,20.174l-8.965-15.528L15.737,255.23l8.967,15.528L4.321,282.526l14.316,24.795L0,318.08
		l20.622,35.717l18.636-10.758L53.34,367.43l-18.636,10.76l20.622,35.717l18.636-10.76l17.442,30.213l-18.636,10.76l20.623,35.72
		l18.636-10.76l17.82,30.864l-18.637,10.76l20.622,35.719l18.637-10.76l16.139,27.954l-18.636,10.76l20.621,35.718l18.637-10.761
		l17.036,29.509l-18.637,10.76l20.623,35.718l18.636-10.759l21.52,37.271l20.382-11.768l8.965,15.529l34.165-19.726l-8.965-15.529
		l34.942-20.174l8.965,15.529l34.166-19.726l-8.965-15.529l36.938-21.325l8.966,15.527l33.588-19.392
		c-9.007,7.706-16.883,17.034-23.139,27.87c-29.636,51.331-11.985,117.208,39.348,146.848c4.68,2.702,9.481,5.006,14.364,6.932
		L90.935,645.245L74.95,689.163l-45.438-16.538L2.295,747.406l38.315,13.946L0,872.928l153.962,127.28l308.615,112.327
		l45.795-125.82l-150.747-54.867L367.563,904.547z"/>
	<path fill="#010202" d="M725.39,1013.013c-10.293-58.375-66.158-97.492-124.533-87.199c-58.373,10.292-97.493,66.158-87.2,124.534
		c10.293,58.372,66.16,97.492,124.534,87.199S735.683,1071.388,725.39,1013.013z"/>
</g>
</svg>
