<?xml version="1.0" encoding="utf-8"?>
<!-- Generator: Adobe Illustrator 16.0.0, SVG Export Plug-In . SVG Version: 6.00 Build 0)  -->
<!DOCTYPE svg PUBLIC "-//W3C//DTD SVG 1.1//EN" "http://www.w3.org/Graphics/SVG/1.1/DTD/svg11.dtd">
<svg version="1.1" id="Calque_1" xmlns="http://www.w3.org/2000/svg" xmlns:xlink="http://www.w3.org/1999/xlink" x="0px" y="0px"
	 width="1190.551px" height="1190.551px" viewBox="0 0 1190.551 1190.551" enable-background="new 0 0 1190.551 1190.551"
	 xml:space="preserve">
<path fill="#010202" d="M753.207,883.479c58.385-1.035,105.568-48.848,105.568-107.477c0-59.273-48.228-107.5-107.5-107.5
	c-59.275,0-107.5,48.227-107.5,107.5c0,56.996,44.595,103.773,100.727,107.281c-47.317,0.838-87.276,32.396-100.727,75.541V776.002
	V630.404H509.88v160.422h-29.053V630.404h-31.579V596.3h-15.26v-19.724h34.073V596.3h41.241v-19.724h32.279V596.3h41.244v-19.724
	h35.639V596.3h41.246v-19.724h34.886V596.3h41.243v-19.724h28.164V596.3h41.244v-19.724h28.631v-18.319h17.93v-39.453h-17.93
	v-32.275h17.93v-39.45h-17.93v-36.985h17.93v-39.453h-17.93v-42.589h17.93V288.6h-17.93v-39.453h17.93v-39.448h-17.93v-42.652h17.93
	v-39.451h-17.93V87.247h17.93V47.796h-17.93V24.261h-28.631V2.742h-41.243v21.519h-28.164V2.742h-41.243v21.519h-34.886V2.742
	h-41.246v21.519h-35.639V2.742h-41.244v21.519h-32.279V2.742h-41.241v21.519H433.99V2.742h-41.244v21.519h-43.039v23.535h-17.931
	v39.451h17.931v40.348h-17.931v39.451h17.931v42.652h-17.931v39.448h17.931v39.453h-17.931v39.452h17.931v42.588h-17.931v39.453
	h17.931v36.985h-17.931v39.45h17.931v32.275h-17.931v39.453h17.931v18.319h43.039v19.724h-60.97v543.157h46.735v48.354h79.58
	v-40.773h118.735l66.944-188.195c-3.144,10.088-4.837,20.809-4.837,31.918c0,59.273,48.225,107.5,107.5,107.5
	c59.273,0,107.499-48.227,107.499-107.5C853.933,933.758,809.337,886.986,753.207,883.479z"/>
</svg>
