<?xml version="1.0" encoding="utf-8"?>
<!-- Generator: Adobe Illustrator 16.0.0, SVG Export Plug-In . SVG Version: 6.00 Build 0)  -->
<!DOCTYPE svg PUBLIC "-//W3C//DTD SVG 1.1//EN" "http://www.w3.org/Graphics/SVG/1.1/DTD/svg11.dtd">
<svg version="1.1" id="Calque_1" xmlns="http://www.w3.org/2000/svg" xmlns:xlink="http://www.w3.org/1999/xlink" x="0px" y="0px"
	 width="1190.551px" height="1190.551px" viewBox="0 0 1190.551 1190.551" enable-background="new 0 0 1190.551 1190.551"
	 xml:space="preserve">
<g>
	<path fill="#010202" d="M483.311,420.808l99.405-72.222L453.164,170.274l99.406-72.224L481.332,0L173.687,223.518
		c16.341-12.735,29.183-30.304,36.053-51.448c18.317-56.372-12.646-117.141-69.019-135.457
		C84.347,18.295,23.58,49.259,5.263,105.632c-18.317,56.374,12.646,117.141,69.02,135.457c32.81,10.661,67.106,4.624,93.658-13.396
		L-0.001,349.709l71.238,98.05l99.405-72.223L300.196,553.85l99.406-72.223l149.106,205.228l83.709-60.818L483.311,420.808z"/>
	<path fill="#010202" d="M419.85,525.472h-79.579v40.775H221.535l-4.388,12.336c6.596-20.687,7.022-43.545-0.185-65.726
		c-18.317-56.375-79.083-87.336-135.457-69.02c-56.373,18.317-87.337,79.082-69.02,135.458
		c18.316,56.374,79.085,87.336,135.458,69.02c31.709-10.303,55.378-34.035,66.76-62.862l-60.116,169.003v328.423h133.895V922.456
		h29.053v160.423h31.579v34.104h117.474V573.826H419.85V525.472z"/>
</g>
</svg>
