<?xml version="1.0" encoding="utf-8"?>
<!-- Generator: Adobe Illustrator 16.0.0, SVG Export Plug-In . SVG Version: 6.00 Build 0)  -->
<!DOCTYPE svg PUBLIC "-//W3C//DTD SVG 1.1//EN" "http://www.w3.org/Graphics/SVG/1.1/DTD/svg11.dtd">
<svg version="1.1" id="Calque_1" xmlns="http://www.w3.org/2000/svg" xmlns:xlink="http://www.w3.org/1999/xlink" x="0px" y="0px"
	 width="1190.551px" height="1190.551px" viewBox="0 0 1190.551 1190.551" enable-background="new 0 0 1190.551 1190.551"
	 xml:space="preserve">
<g>
	<path fill="#010202" d="M769.883,483.239V262.833h122.873V141.635H297.795v121.196h122.872v220.407H543.54v253.678H405.295H331.9
		v133.895h160.421v29.053H331.9v31.578h-34.104v117.475H840.95v-46.736h48.354V922.6H848.53V803.861l-125.969-44.807
		c10.097,3.148,20.829,4.846,31.949,4.846c59.271,0,107.5-48.225,107.5-107.499s-48.229-107.5-107.5-107.5
		c-59.276,0-107.501,48.226-107.501,107.5c0,45.233,28.086,84.028,67.734,99.872l-54.424-19.358h-13.311v-80.514V483.239H769.883z"
		/>
	<path fill="#010202" d="M512.795,629.416c0-59.276-48.226-107.5-107.5-107.5s-107.5,48.223-107.5,107.5
		c0,59.274,48.227,107.5,107.5,107.5C464.571,736.916,512.795,688.691,512.795,629.416z"/>
</g>
</svg>
