<?xml version="1.0" encoding="utf-8"?>
<!-- Generator: Adobe Illustrator 16.0.0, SVG Export Plug-In . SVG Version: 6.00 Build 0)  -->
<!DOCTYPE svg PUBLIC "-//W3C//DTD SVG 1.1//EN" "http://www.w3.org/Graphics/SVG/1.1/DTD/svg11.dtd">
<svg version="1.1" id="Calque_1" xmlns="http://www.w3.org/2000/svg" xmlns:xlink="http://www.w3.org/1999/xlink" x="0px" y="0px"
	 width="1190.551px" height="1190.551px" viewBox="0 0 1190.551 1190.551" enable-background="new 0 0 1190.551 1190.551"
	 xml:space="preserve">
<g>
	<path fill="#010202" d="M71.238,447.759l99.405-72.223L300.196,553.85l99.406-72.223l149.106,205.228l83.709-60.818
		L483.311,420.808l99.405-72.222L453.164,170.274l99.406-72.224L481.332,0L173.687,223.518
		c16.341-12.735,29.183-30.304,36.053-51.448c18.317-56.372-12.646-117.14-69.019-135.457C84.347,18.295,23.58,49.259,5.263,105.632
		c-18.317,56.374,12.646,117.141,69.02,135.457c32.81,10.661,67.106,4.624,93.658-13.396L-0.001,349.709L71.238,447.759z"/>
	<polygon fill="#010202" points="418.151,915.543 409.173,887.91 561.741,838.339 551.984,808.306 584.42,797.766 548.117,686.042 
		31.545,853.887 45.988,898.336 0,913.279 24.592,988.965 63.371,976.365 100.064,1089.288 299.748,1094.797 612.096,993.311 
		570.719,865.969 	"/>
	<path fill="#010202" d="M0,716.172c0,59.276,48.225,107.5,107.5,107.5S215,775.448,215,716.172c0-59.274-48.224-107.5-107.5-107.5
		C48.226,608.672,0,656.898,0,716.172z"/>
</g>
</svg>
