<?xml version="1.0" encoding="utf-8"?>
<!-- Generator: Adobe Illustrator 16.0.0, SVG Export Plug-In . SVG Version: 6.00 Build 0)  -->
<!DOCTYPE svg PUBLIC "-//W3C//DTD SVG 1.1//EN" "http://www.w3.org/Graphics/SVG/1.1/DTD/svg11.dtd">
<svg version="1.1" id="Calque_1" xmlns="http://www.w3.org/2000/svg" xmlns:xlink="http://www.w3.org/1999/xlink" x="0px" y="0px"
	 width="1190.551px" height="1190.551px" viewBox="0 0 1190.551 1190.551" enable-background="new 0 0 1190.551 1190.551"
	 xml:space="preserve">
<g>
	<path fill="#010202" d="M472.088,341.604V121.197h122.873V0H0v121.196h122.872v220.407h122.873V595.28H107.5H34.105v133.896
		h160.421v29.052H34.105v31.579H0V907.28h543.156v-46.736h48.354v-79.58h-40.775V662.227l-125.969-44.808
		c10.097,3.149,20.829,4.847,31.949,4.847c59.272,0,107.5-48.226,107.5-107.5s-48.228-107.5-107.5-107.5
		c-59.276,0-107.501,48.226-107.501,107.5c0,45.233,28.086,84.029,67.735,99.873l-54.424-19.359h-13.311v-80.514V341.604H472.088z"
		/>
	<path fill="#010202" d="M215,487.78c0-59.275-48.225-107.5-107.5-107.5C48.226,380.28,0,428.503,0,487.78
		c0,59.275,48.227,107.5,107.5,107.5C166.776,595.28,215,547.056,215,487.78z"/>
</g>
</svg>
