<?xml version="1.0" encoding="utf-8"?>
<!-- Generator: Adobe Illustrator 16.0.0, SVG Export Plug-In . SVG Version: 6.00 Build 0)  -->
<!DOCTYPE svg PUBLIC "-//W3C//DTD SVG 1.1//EN" "http://www.w3.org/Graphics/SVG/1.1/DTD/svg11.dtd">
<svg version="1.1" id="Calque_1" xmlns="http://www.w3.org/2000/svg" xmlns:xlink="http://www.w3.org/1999/xlink" x="0px" y="0px"
	 width="1190.551px" height="1190.551px" viewBox="0 0 1190.551 1190.551" enable-background="new 0 0 1190.551 1190.551"
	 xml:space="preserve">
<g>
	<polygon fill="#010202" points="474.082,0 474.082,122.872 253.677,122.872 253.677,245.745 107.5,245.745 0,245.745 0,349.215 
		253.677,349.215 253.677,472.087 474.082,472.087 474.082,594.96 107.5,594.96 48.354,594.96 48.354,641.698 0,641.698 0,721.278 
		40.775,721.278 40.775,840.013 228.985,906.961 557.406,906.961 557.406,773.066 396.985,773.066 396.985,744.013 557.406,744.013 
		557.406,712.434 591.511,712.434 591.511,594.96 595.28,594.96 595.28,0 	"/>
	<path fill="#010202" d="M215,487.46c0-59.274-48.227-107.5-107.5-107.5C48.225,379.96,0,428.185,0,487.46s48.225,107.5,107.5,107.5
		C166.774,594.96,215,546.737,215,487.46z"/>
	<path fill="#010202" d="M215,138.245c0-59.272-48.225-107.5-107.5-107.5C48.226,30.745,0,78.971,0,138.245
		s48.227,107.5,107.5,107.5C166.776,245.745,215,197.52,215,138.245z"/>
</g>
</svg>
