<?xml version="1.0" encoding="utf-8"?>
<!-- Generator: Adobe Illustrator 16.0.0, SVG Export Plug-In . SVG Version: 6.00 Build 0)  -->
<!DOCTYPE svg PUBLIC "-//W3C//DTD SVG 1.1//EN" "http://www.w3.org/Graphics/SVG/1.1/DTD/svg11.dtd">
<svg version="1.1" id="Calque_1" xmlns="http://www.w3.org/2000/svg" xmlns:xlink="http://www.w3.org/1999/xlink" x="0px" y="0px"
	 width="1190.551px" height="1190.551px" viewBox="0 0 1190.551 1190.551" enable-background="new 0 0 1190.551 1190.551"
	 xml:space="preserve">
<g>
	<path fill="#010202" d="M350.309,495.636l99.405-72.223l129.553,178.313l99.406-72.223l149.105,205.229l83.709-60.818
		L762.382,468.685l99.405-72.222L732.235,218.151l99.406-72.224l-71.238-98.05L452.758,271.395
		c16.341-12.735,29.184-30.304,36.053-51.448c18.317-56.372-12.646-117.14-69.019-135.457
		c-56.374-18.318-117.141,12.646-135.458,69.019c-18.317,56.374,12.646,117.141,69.021,135.457
		c32.81,10.661,67.105,4.624,93.657-13.396L279.071,397.586L350.309,495.636z"/>
	<polygon fill="#010202" points="697.222,963.42 688.244,935.787 840.812,886.216 831.055,856.183 863.491,845.643 827.188,733.919 
		310.616,901.764 325.059,946.213 279.072,961.156 303.663,1036.842 342.443,1024.242 379.135,1137.165 578.82,1142.674 
		891.167,1041.188 849.79,913.846 	"/>
	<path fill="#010202" d="M279.072,764.049c0,59.276,48.225,107.5,107.5,107.5c59.274,0,107.5-48.224,107.5-107.5
		c0-59.273-48.225-107.5-107.5-107.5C327.297,656.549,279.072,704.775,279.072,764.049z"/>
</g>
</svg>
