<?xml version="1.0" encoding="utf-8"?>
<!-- Generator: Adobe Illustrator 16.0.0, SVG Export Plug-In . SVG Version: 6.00 Build 0)  -->
<!DOCTYPE svg PUBLIC "-//W3C//DTD SVG 1.1//EN" "http://www.w3.org/Graphics/SVG/1.1/DTD/svg11.dtd">
<svg version="1.1" id="Calque_1" xmlns="http://www.w3.org/2000/svg" xmlns:xlink="http://www.w3.org/1999/xlink" x="0px" y="0px"
	 width="1190.551px" height="1190.551px" viewBox="0 0 1190.551 1190.551" enable-background="new 0 0 1190.551 1190.551"
	 xml:space="preserve">
<g>
	<polygon fill="#010202" points="771.717,141.795 771.717,264.667 551.313,264.667 551.313,387.54 405.136,387.54 297.636,387.54 
		297.636,491.01 551.313,491.01 551.313,613.882 771.717,613.882 771.717,736.755 405.136,736.755 345.99,736.755 345.99,783.493 
		297.636,783.493 297.636,863.073 338.41,863.073 338.41,981.808 526.62,1048.756 855.041,1048.756 855.041,914.861 694.62,914.861 
		694.62,885.808 855.041,885.808 855.041,854.229 889.147,854.229 889.147,736.755 892.915,736.755 892.915,141.795 	"/>
	<path fill="#010202" d="M512.636,629.255c0-59.274-48.225-107.5-107.5-107.5c-59.274,0-107.5,48.227-107.5,107.5
		c0,59.274,48.225,107.5,107.5,107.5C464.41,736.755,512.636,688.531,512.636,629.255z"/>
	<path fill="#010202" d="M512.636,280.04c0-59.274-48.228-107.5-107.5-107.5c-59.275,0-107.5,48.226-107.5,107.5
		c0,59.272,48.225,107.5,107.5,107.5C464.409,387.54,512.636,339.314,512.636,280.04z"/>
</g>
</svg>
