<?xml version="1.0" encoding="utf-8"?>
<!-- Generator: Adobe Illustrator 16.0.0, SVG Export Plug-In . SVG Version: 6.00 Build 0)  -->
<!DOCTYPE svg PUBLIC "-//W3C//DTD SVG 1.1//EN" "http://www.w3.org/Graphics/SVG/1.1/DTD/svg11.dtd">
<svg version="1.1" id="Calque_1" xmlns="http://www.w3.org/2000/svg" xmlns:xlink="http://www.w3.org/1999/xlink" x="0px" y="0px"
	 width="1190.551px" height="1190.551px" viewBox="0 0 1190.551 1190.551" enable-background="new 0 0 1190.551 1190.551"
	 xml:space="preserve">
<g>
	<polygon fill="#010202" points="769.883,483.239 769.883,262.833 892.756,262.833 892.756,141.635 297.795,141.635 
		297.795,262.833 420.667,262.833 420.667,483.239 543.54,483.239 543.54,736.916 405.295,736.916 346.149,736.916 346.149,783.652 
		297.795,783.652 297.795,863.232 338.57,863.232 338.57,981.969 526.78,1048.916 855.2,1048.916 855.2,915.021 694.78,915.021 
		694.78,885.969 855.2,885.969 855.2,854.391 889.306,854.391 889.306,736.916 754.511,736.916 647.01,736.916 647.01,629.416 
		647.01,483.239 	"/>
	<path fill="#010202" d="M512.795,629.416c0-59.274-48.225-107.5-107.5-107.5c-59.274,0-107.5,48.226-107.5,107.5
		c0,59.275,48.225,107.5,107.5,107.5C464.57,736.916,512.795,688.691,512.795,629.416z"/>
	<path fill="#010202" d="M754.511,736.916c59.273,0,107.5-48.226,107.5-107.5c0-59.273-48.227-107.5-107.5-107.5
		c-59.275,0-107.501,48.227-107.501,107.5C647.01,688.69,695.237,736.916,754.511,736.916z"/>
</g>
</svg>
