<?xml version="1.0" encoding="utf-8"?>
<!-- Generator: Adobe Illustrator 16.0.0, SVG Export Plug-In . SVG Version: 6.00 Build 0)  -->
<!DOCTYPE svg PUBLIC "-//W3C//DTD SVG 1.1//EN" "http://www.w3.org/Graphics/SVG/1.1/DTD/svg11.dtd">
<svg version="1.1" id="Calque_1" xmlns="http://www.w3.org/2000/svg" xmlns:xlink="http://www.w3.org/1999/xlink" x="0px" y="0px"
	 width="1190.551px" height="1190.551px" viewBox="0 0 1190.551 1190.551" enable-background="new 0 0 1190.551 1190.551"
	 xml:space="preserve">
<path fill="#010202" d="M594.961,595.28V474.083H472.089V253.677H349.215V0h-103.47v253.677H123.76
	c51.587-7.861,91.24-52.524,91.24-106.271c0-59.275-48.225-107.5-107.5-107.5S0,88.13,0,147.406c0,59.273,48.223,107.5,107.5,107.5
	c5.219,0,10.351-0.381,15.373-1.104v220.282H0V595.28v543.157h46.737v48.354h79.58v-40.774h118.735l66.943-188.197
	c-3.143,10.088-4.837,20.81-4.837,31.919c0,59.273,48.225,107.5,107.5,107.5c59.274,0,107.5-48.227,107.5-107.5
	c0-59.275-48.226-107.5-107.5-107.5c-48.161,0-89.026,31.835-102.658,75.566V629.385H178.106v160.421h-29.053V629.385h-31.579
	V595.28H594.961z"/>
</svg>
