<?xml version="1.0" encoding="utf-8"?>
<!-- Generator: Adobe Illustrator 16.0.0, SVG Export Plug-In . SVG Version: 6.00 Build 0)  -->
<!DOCTYPE svg PUBLIC "-//W3C//DTD SVG 1.1//EN" "http://www.w3.org/Graphics/SVG/1.1/DTD/svg11.dtd">
<svg version="1.1" id="Calque_1" xmlns="http://www.w3.org/2000/svg" xmlns:xlink="http://www.w3.org/1999/xlink" x="0px" y="0px"
	 width="1190.551px" height="1190.551px" viewBox="0 0 1190.551 1190.551" enable-background="new 0 0 1190.551 1190.551"
	 xml:space="preserve">
<path fill="#010202" d="M892.915,491.01v-103.47H639.24V267.533c8.688,50.619,52.886,89.262,105.945,89.262
	c59.275,0,107.5-48.225,107.5-107.5c0-59.274-48.224-107.5-107.5-107.5c-59.274,0-107.5,48.227-107.5,107.5
	c0,5.219,0.381,10.351,1.104,15.373H418.832V141.795H297.636v594.96h48.354v46.736h-48.354v79.58h40.773v118.734l188.21,66.949
	H855.04V914.861H694.62v-29.053h160.421v-31.58h34.105V736.756H745.185H418.832V613.883H638.79
	c-0.723,5.022-1.104,10.154-1.104,15.373c0,59.273,48.226,107.5,107.499,107.5c59.275,0,107.5-48.227,107.5-107.5
	c0-59.272-48.225-107.5-107.5-107.5c-53.061,0-97.26,38.647-105.945,89.269V491.01H892.915z"/>
</svg>
