<?xml version="1.0" encoding="utf-8"?>
<!-- Generator: Adobe Illustrator 16.0.0, SVG Export Plug-In . SVG Version: 6.00 Build 0)  -->
<!DOCTYPE svg PUBLIC "-//W3C//DTD SVG 1.1//EN" "http://www.w3.org/Graphics/SVG/1.1/DTD/svg11.dtd">
<svg version="1.1" id="Calque_1" xmlns="http://www.w3.org/2000/svg" xmlns:xlink="http://www.w3.org/1999/xlink" x="0px" y="0px"
	 width="1190.551px" height="1190.551px" viewBox="0 0 1190.551 1190.551" enable-background="new 0 0 1190.551 1190.551"
	 xml:space="preserve">
<path fill="#010202" d="M483.311,266.046L632.417,60.818L548.708,0L399.602,205.228l-99.405-72.222L170.644,311.319l-99.339-72.174
	c32.296,11.463,69.523,7.373,99.28-14.246c47.956-34.842,58.624-102.202,23.783-150.157C159.529,26.789,92.167,16.117,44.212,50.959
	C-3.741,85.8-14.411,153.162,20.429,201.116c13.203,18.172,31.077,30.984,50.794,38l-71.224,98.029L319.26,569.102L194.37,740.997
	c34.84-47.952,24.172-115.312-23.784-150.155c-47.954-34.841-115.315-24.171-150.156,23.782
	C-14.411,662.58-3.743,729.94,44.213,764.781c47.955,34.842,115.314,24.173,150.156-23.781l-194.37,267.525l37.812,27.473
	L9.39,1075.116l64.381,46.775l23.968-32.987l96.059,69.791l164.788-112.915l193.041-265.698l-108.322-78.701L349.01,831.165
	l-23.504-17.077L419.8,684.305l-25.549-18.562l20.047-27.592l67.034,48.703l71.238-98.05l-99.406-72.222L582.717,338.27
	L483.311,266.046z"/>
</svg>
