<?xml version="1.0" encoding="utf-8"?>
<!-- Generator: Adobe Illustrator 16.0.0, SVG Export Plug-In . SVG Version: 6.00 Build 0)  -->
<!DOCTYPE svg PUBLIC "-//W3C//DTD SVG 1.1//EN" "http://www.w3.org/Graphics/SVG/1.1/DTD/svg11.dtd">
<svg version="1.1" id="Calque_1" xmlns="http://www.w3.org/2000/svg" xmlns:xlink="http://www.w3.org/1999/xlink" x="0px" y="0px"
	 width="1190.551px" height="1190.551px" viewBox="0 0 1190.551 1190.551" enable-background="new 0 0 1190.551 1190.551"
	 xml:space="preserve">
<path fill="#010202" d="M595.28,349.215v-103.47H341.604V125.738C350.291,176.357,394.49,215,447.549,215
	c59.276,0,107.5-48.225,107.5-107.5c0-59.274-48.223-107.5-107.5-107.5c-59.274,0-107.5,48.227-107.5,107.5
	c0,5.219,0.381,10.351,1.104,15.373H121.197V0H0v594.96h48.354v46.737H0v79.58h40.774v118.735l188.21,66.948h328.421V773.066
	H396.985v-29.053h160.421v-31.579h34.105V594.96H447.549H121.197V472.088h219.958c-0.723,5.022-1.104,10.153-1.104,15.372
	c0,59.274,48.226,107.5,107.499,107.5c59.276,0,107.5-48.226,107.5-107.5c0-59.272-48.224-107.5-107.5-107.5
	c-53.06,0-97.26,38.647-105.945,89.269V349.215H595.28z"/>
</svg>
