<?xml version="1.0" encoding="utf-8"?>
<!-- Generator: Adobe Illustrator 16.0.0, SVG Export Plug-In . SVG Version: 6.00 Build 0)  -->
<!DOCTYPE svg PUBLIC "-//W3C//DTD SVG 1.1//EN" "http://www.w3.org/Graphics/SVG/1.1/DTD/svg11.dtd">
<svg version="1.1" id="Calque_1" xmlns="http://www.w3.org/2000/svg" xmlns:xlink="http://www.w3.org/1999/xlink" x="0px" y="0px"
	 width="1190.551px" height="1190.551px" viewBox="0 0 1190.551 1190.551" enable-background="new 0 0 1190.551 1190.551"
	 xml:space="preserve">
<g>
	<polygon fill="#010202" points="472.088,341.604 472.088,121.197 594.961,121.197 594.961,0 0,0 0,121.197 122.872,121.197 
		122.872,341.604 245.745,341.604 245.745,595.28 107.5,595.28 48.354,595.28 48.354,642.018 0,642.018 0,721.598 40.775,721.598 
		40.775,840.334 228.985,907.28 557.406,907.28 557.406,773.386 396.985,773.386 396.985,744.334 557.406,744.334 557.406,712.755 
		591.511,712.755 591.511,595.28 456.716,595.28 349.215,595.28 349.215,487.78 349.215,341.604 	"/>
	<path fill="#010202" d="M215,487.78c0-59.273-48.224-107.5-107.5-107.5C48.226,380.28,0,428.506,0,487.78
		c0,59.276,48.225,107.5,107.5,107.5S215,547.056,215,487.78z"/>
	<path fill="#010202" d="M456.716,595.28c59.274,0,107.5-48.225,107.5-107.5c0-59.272-48.226-107.5-107.5-107.5
		c-59.275,0-107.501,48.227-107.501,107.5C349.215,547.055,397.442,595.28,456.716,595.28z"/>
</g>
</svg>
