<?xml version="1.0" encoding="utf-8"?>
<!-- Generator: Adobe Illustrator 16.0.0, SVG Export Plug-In . SVG Version: 6.00 Build 0)  -->
<!DOCTYPE svg PUBLIC "-//W3C//DTD SVG 1.1//EN" "http://www.w3.org/Graphics/SVG/1.1/DTD/svg11.dtd">
<svg version="1.1" id="Calque_1" xmlns="http://www.w3.org/2000/svg" xmlns:xlink="http://www.w3.org/1999/xlink" x="0px" y="0px"
	 width="1190.551px" height="1190.551px" viewBox="0 0 1190.551 1190.551" enable-background="new 0 0 1190.551 1190.551"
	 xml:space="preserve">
<g>
	<path fill="#010202" d="M762.382,457.592l99.405-72.222L732.235,207.058l99.406-72.224l-71.238-98.05L452.758,260.302
		c16.341-12.735,29.184-30.304,36.053-51.448c18.317-56.372-12.646-117.141-69.019-135.457
		c-56.374-18.318-117.141,12.646-135.458,69.019c-18.317,56.374,12.646,117.141,69.021,135.457
		c32.81,10.661,67.105,4.624,93.657-13.396L279.071,386.493l71.237,98.05l99.405-72.223l129.554,178.314l99.406-72.223
		l149.105,205.228l83.709-60.818L762.382,457.592z"/>
	<path fill="#010202" d="M698.921,562.256h-79.579v40.775H500.607l-4.389,12.336c6.597-20.688,7.022-43.545-0.185-65.727
		c-18.317-56.375-79.083-87.336-135.457-69.02c-56.373,18.317-87.337,79.082-69.021,135.458
		c18.316,56.375,79.085,87.336,135.458,69.021c31.709-10.305,55.378-34.035,66.761-62.863L433.658,791.24v328.422h133.895V959.24
		h29.054v160.422h31.578v34.105h117.475V610.609h-46.738V562.256z"/>
</g>
</svg>
