<?xml version="1.0" encoding="utf-8"?>
<!-- Generator: Adobe Illustrator 16.0.0, SVG Export Plug-In . SVG Version: 6.00 Build 0)  -->
<!DOCTYPE svg PUBLIC "-//W3C//DTD SVG 1.1//EN" "http://www.w3.org/Graphics/SVG/1.1/DTD/svg11.dtd">
<svg version="1.1" id="Calque_1" xmlns="http://www.w3.org/2000/svg" xmlns:xlink="http://www.w3.org/1999/xlink" x="0px" y="0px"
	 width="1190.551px" height="1190.551px" viewBox="0 0 1190.551 1190.551" enable-background="new 0 0 1190.551 1190.551"
	 xml:space="preserve">
<path fill="#010202" d="M892.756,597.16V475.963H769.884V255.557H647.01V1.88H543.54v253.677H421.555
	c51.587-7.861,91.24-52.524,91.24-106.271c0-59.275-48.226-107.5-107.5-107.5c-59.275,0-107.5,48.224-107.5,107.5
	c0,59.273,48.223,107.5,107.5,107.5c5.219,0,10.351-0.381,15.373-1.104v220.282H297.795V597.16v543.157h46.736v48.354h79.58v-40.774
	h118.735L609.79,959.7c-3.144,10.088-4.837,20.81-4.837,31.919c0,59.272,48.225,107.5,107.5,107.5
	c59.273,0,107.499-48.228,107.499-107.5c0-59.275-48.226-107.5-107.5-107.5c-48.16,0-89.025,31.835-102.657,75.565v-328.42H475.901
	v160.421h-29.053V631.265h-31.579V597.16H892.756z"/>
</svg>
