<?xml version="1.0" encoding="utf-8"?>
<!-- Generator: Adobe Illustrator 16.0.0, SVG Export Plug-In . SVG Version: 6.00 Build 0)  -->
<!DOCTYPE svg PUBLIC "-//W3C//DTD SVG 1.1//EN" "http://www.w3.org/Graphics/SVG/1.1/DTD/svg11.dtd">
<svg version="1.1" id="Calque_1" xmlns="http://www.w3.org/2000/svg" xmlns:xlink="http://www.w3.org/1999/xlink" x="0px" y="0px"
	 width="1190.551px" height="1190.551px" viewBox="0 0 1190.551 1190.551" enable-background="new 0 0 1190.551 1190.551"
	 xml:space="preserve">
<path fill="#010202" d="M762.409,281.974L911.515,76.746l-83.709-60.818L678.7,221.156l-99.405-72.222L449.742,327.247
	l-99.339-72.174c32.296,11.463,69.523,7.373,99.28-14.246c47.956-34.842,58.624-102.202,23.783-150.157
	c-34.84-47.953-102.201-58.625-150.156-23.783c-47.953,34.841-58.623,102.203-23.783,150.157c13.203,18.172,31.077,30.984,50.794,38
	l-71.224,98.029L598.359,585.03l-124.89,171.895c34.84-47.952,24.172-115.312-23.784-150.155
	c-47.954-34.841-115.315-24.171-150.156,23.782c-34.841,47.956-24.173,115.316,23.783,150.157
	c47.955,34.842,115.313,24.173,150.156-23.781l-194.37,267.525l37.812,27.473l-28.421,39.118l64.381,46.774l23.968-32.986
	l96.06,69.791l164.788-112.915L830.726,796.01l-108.322-78.701l-94.295,129.784l-23.504-17.077l94.294-129.783l-25.549-18.562
	l20.047-27.592l67.033,48.702l71.238-98.049l-99.406-72.223l129.554-178.312L762.409,281.974z"/>
</svg>
