<?xml version="1.0" encoding="utf-8"?>
<!-- Generator: Adobe Illustrator 16.0.0, SVG Export Plug-In . SVG Version: 6.00 Build 0)  -->
<!DOCTYPE svg PUBLIC "-//W3C//DTD SVG 1.1//EN" "http://www.w3.org/Graphics/SVG/1.1/DTD/svg11.dtd">
<svg version="1.1" id="Calque_1" xmlns="http://www.w3.org/2000/svg" xmlns:xlink="http://www.w3.org/1999/xlink" x="0px" y="0px"
	 width="1190.551px" height="1190.551px" viewBox="0 0 1190.551 1190.551" enable-background="new 0 0 1190.551 1190.551"
	 xml:space="preserve">
<g>
	<path fill="#010202" d="M717.295,593.391h-107.5v-107.5V50.234h-46.738V1.88h-79.58v40.774H364.741l-66.946,188.211v328.421
		h133.894V398.865h29.053v160.421h31.579v34.104H297.795v121.197h122.872V934.87c-5.022-0.723-10.153-1.104-15.372-1.104
		c-59.275,0-107.5,48.225-107.5,107.5c0,59.274,48.225,107.5,107.5,107.5c59.272,0,107.5-48.224,107.5-107.5
		c0-53.749-39.653-98.41-91.24-106.271H543.54v253.676h103.47V934.995h122.873V714.588h122.873V593.391H717.295z"/>
	<path fill="#010202" d="M717.295,593.391c59.274,0,107.5-48.226,107.5-107.5c0-59.273-48.226-107.5-107.5-107.5
		s-107.5,48.226-107.5,107.5C609.795,545.165,658.022,593.391,717.295,593.391z"/>
</g>
</svg>
