<?xml version="1.0" encoding="utf-8"?>
<!-- Generator: Adobe Illustrator 16.0.0, SVG Export Plug-In . SVG Version: 6.00 Build 0)  -->
<!DOCTYPE svg PUBLIC "-//W3C//DTD SVG 1.1//EN" "http://www.w3.org/Graphics/SVG/1.1/DTD/svg11.dtd">
<svg version="1.1" id="Calque_1" xmlns="http://www.w3.org/2000/svg" xmlns:xlink="http://www.w3.org/1999/xlink" x="0px" y="0px"
	 width="1190.551px" height="1190.551px" viewBox="0 0 1190.551 1190.551" enable-background="new 0 0 1190.551 1190.551"
	 xml:space="preserve">
<g>
	<path fill="#010202" d="M419.5,591.511H312v-107.5V48.354h-46.738V0h-79.58v40.774H66.947L0,228.985v328.421h133.894V396.985
		h29.053v160.421h31.579v34.105H0v121.197h122.872V932.99c-5.022-0.722-10.153-1.104-15.372-1.104
		c-59.275,0-107.5,48.224-107.5,107.5c0,59.274,48.225,107.5,107.5,107.5c59.273,0,107.5-48.224,107.5-107.5
		c0-53.749-39.653-98.41-91.24-106.271h121.985v253.676h103.47V933.115h122.873V712.708h122.873V591.511H419.5z"/>
	<path fill="#010202" d="M419.5,591.511c59.275,0,107.5-48.226,107.5-107.5c0-59.273-48.225-107.5-107.5-107.5
		c-59.274,0-107.5,48.226-107.5,107.5S360.227,591.511,419.5,591.511z"/>
</g>
</svg>
