<?xml version="1.0" encoding="utf-8"?>
<!-- Generator: Adobe Illustrator 16.0.0, SVG Export Plug-In . SVG Version: 6.00 Build 0)  -->
<!DOCTYPE svg PUBLIC "-//W3C//DTD SVG 1.1//EN" "http://www.w3.org/Graphics/SVG/1.1/DTD/svg11.dtd">
<svg version="1.1" id="Calque_1" xmlns="http://www.w3.org/2000/svg" xmlns:xlink="http://www.w3.org/1999/xlink" x="0px" y="0px"
	 width="1190.551px" height="1190.551px" viewBox="0 0 1190.551 1190.551" enable-background="new 0 0 1190.551 1190.551"
	 xml:space="preserve">
<polygon fill="#010202" points="574.164,629.066 574.164,789.487 545.112,789.487 545.112,629.066 513.532,629.066 513.532,594.962 
	595.279,594.962 595.279,0 474.081,0 474.081,122.872 253.676,122.872 253.676,245.745 0,245.745 0,349.216 253.676,349.216 
	253.676,472.089 396.059,472.089 474.081,472.089 474.081,594.962 396.059,594.962 396.059,472.089 0,868.147 0,967.159 
	192.535,967.159 396.059,1069.368 396.059,1138.117 442.797,1138.117 442.797,1186.472 522.377,1186.472 522.377,1145.697 
	641.112,1145.697 708.059,957.487 708.059,629.066 "/>
</svg>
