<?xml version="1.0" encoding="utf-8"?>
<!-- Generator: Adobe Illustrator 16.0.0, SVG Export Plug-In . SVG Version: 6.00 Build 0)  -->
<!DOCTYPE svg PUBLIC "-//W3C//DTD SVG 1.1//EN" "http://www.w3.org/Graphics/SVG/1.1/DTD/svg11.dtd">
<svg version="1.1" id="Calque_1" xmlns="http://www.w3.org/2000/svg" xmlns:xlink="http://www.w3.org/1999/xlink" x="0px" y="0px"
	 width="1190.551px" height="1190.551px" viewBox="0 0 1190.551 1190.551" enable-background="new 0 0 1190.551 1190.551"
	 xml:space="preserve">
<polygon fill="#010202" points="694.727,360.536 571.854,483.408 571.854,360.536 694.727,360.536 694.727,140.13 817.6,140.13 
	817.6,18.933 222.638,18.933 222.638,140.13 345.51,140.13 345.51,360.536 468.384,360.536 468.384,614.211 400.744,614.211 
	400.744,774.632 371.691,774.632 371.691,614.211 340.112,614.211 340.112,580.107 222.638,580.107 222.638,1123.264 
	269.376,1123.264 269.376,1171.618 348.956,1171.618 348.956,1130.842 467.691,1130.842 534.638,942.632 534.638,614.211 
	571.854,614.211 571.854,582.422 764.389,582.422 967.912,684.63 967.912,87.349 "/>
</svg>
