<?xml version="1.0" encoding="utf-8"?>
<!-- Generator: Adobe Illustrator 16.0.0, SVG Export Plug-In . SVG Version: 6.00 Build 0)  -->
<!DOCTYPE svg PUBLIC "-//W3C//DTD SVG 1.1//EN" "http://www.w3.org/Graphics/SVG/1.1/DTD/svg11.dtd">
<svg version="1.1" id="Calque_1" xmlns="http://www.w3.org/2000/svg" xmlns:xlink="http://www.w3.org/1999/xlink" x="0px" y="0px"
	 width="1190.551px" height="1190.551px" viewBox="0 0 1190.551 1190.551" enable-background="new 0 0 1190.551 1190.551"
	 xml:space="preserve">
<polygon fill="#010202" points="764.389,711.925 967.912,814.134 967.912,216.854 571.854,612.912 571.854,483.239 694.727,483.239 
	694.727,262.833 817.6,262.833 817.6,141.636 222.638,141.636 222.638,262.833 345.51,262.833 345.51,483.239 468.384,483.239 
	468.384,736.914 270.992,736.914 270.992,783.652 222.638,783.652 222.638,863.232 263.413,863.232 263.413,981.967 
	451.623,1048.915 780.043,1048.915 780.043,915.021 619.623,915.021 619.623,885.967 780.043,885.967 780.043,854.39 
	814.149,854.39 814.149,736.914 571.854,736.914 571.854,711.925 "/>
</svg>
