<?xml version="1.0" encoding="utf-8"?>
<!-- Generator: Adobe Illustrator 16.0.0, SVG Export Plug-In . SVG Version: 6.00 Build 0)  -->
<!DOCTYPE svg PUBLIC "-//W3C//DTD SVG 1.1//EN" "http://www.w3.org/Graphics/SVG/1.1/DTD/svg11.dtd">
<svg version="1.1" id="Calque_1" xmlns="http://www.w3.org/2000/svg" xmlns:xlink="http://www.w3.org/1999/xlink" x="0px" y="0px"
	 width="1190.551px" height="1190.551px" viewBox="0 0 1190.551 1190.551" enable-background="new 0 0 1190.551 1190.551"
	 xml:space="preserve">
<polygon fill="#010202" points="798.485,102.209 594.961,0 594.961,474.082 472.089,474.082 472.089,253.676 349.216,253.676 
	349.216,0 245.745,0 245.745,253.676 122.873,253.676 122.873,474.082 0,474.082 0,595.279 0,1138.436 46.738,1138.436 
	46.738,1186.79 126.318,1186.79 126.318,1146.015 245.053,1146.015 312,957.805 312,629.384 178.106,629.384 178.106,789.805 
	149.053,789.805 149.053,629.384 117.474,629.384 117.474,595.279 594.961,595.279 594.961,597.281 991.02,201.222 991.02,102.209 
	"/>
</svg>
