<?xml version="1.0" encoding="utf-8"?>
<!-- Generator: Adobe Illustrator 16.0.0, SVG Export Plug-In . SVG Version: 6.00 Build 0)  -->
<!DOCTYPE svg PUBLIC "-//W3C//DTD SVG 1.1//EN" "http://www.w3.org/Graphics/SVG/1.1/DTD/svg11.dtd">
<svg version="1.1" id="Calque_1" xmlns="http://www.w3.org/2000/svg" xmlns:xlink="http://www.w3.org/1999/xlink" x="0px" y="0px"
	 width="1190.551px" height="1190.551px" viewBox="0 0 1190.551 1190.551" enable-background="new 0 0 1190.551 1190.551"
	 xml:space="preserve">
<g>
	<polygon fill="#010202" points="497.292,957.805 497.292,629.385 363.397,629.385 363.397,789.805 334.344,789.805 
		334.344,629.385 302.765,629.385 302.765,595.279 780.252,595.279 780.252,474.083 657.381,474.083 657.381,253.676 
		534.508,253.676 534.508,0 431.037,0 431.037,253.676 308.165,253.676 308.165,474.083 185.292,474.083 185.292,595.279 
		185.292,1138.436 232.029,1138.436 232.029,1186.791 311.609,1186.791 311.609,1146.016 430.344,1146.016 	"/>
	<polygon fill="#010202" points="609.199,794.49 510.188,794.49 510.188,987.027 407.979,1190.551 1005.26,1190.551 	"/>
</g>
</svg>
