<?xml version="1.0" encoding="utf-8"?>
<!-- Generator: Adobe Illustrator 16.0.0, SVG Export Plug-In . SVG Version: 6.00 Build 0)  -->
<!DOCTYPE svg PUBLIC "-//W3C//DTD SVG 1.1//EN" "http://www.w3.org/Graphics/SVG/1.1/DTD/svg11.dtd">
<svg version="1.1" id="Calque_1" xmlns="http://www.w3.org/2000/svg" xmlns:xlink="http://www.w3.org/1999/xlink" x="0px" y="0px"
	 width="1190.551px" height="1190.551px" viewBox="0 0 1190.551 1190.551" enable-background="new 0 0 1190.551 1190.551"
	 xml:space="preserve">
<polygon fill="#010202" points="892.914,597.002 892.914,2.04 771.717,2.04 771.717,124.912 551.312,124.912 551.312,247.785 
	297.636,247.785 297.636,351.255 551.312,351.255 551.312,474.128 501.16,474.128 297.636,371.918 297.636,969.199 629.061,637.775 
	693.696,573.141 693.696,474.128 771.717,474.128 771.717,597.002 747.793,597.002 747.793,637.775 629.061,637.775 
	562.113,825.986 562.113,1154.406 696.008,1154.406 696.008,993.986 725.061,993.986 725.061,1154.406 756.639,1154.406 
	756.639,1188.512 874.114,1188.512 874.114,645.355 827.375,645.355 827.375,597.002 "/>
</svg>
