<?xml version="1.0" encoding="utf-8"?>
<!-- Generator: Adobe Illustrator 16.0.0, SVG Export Plug-In . SVG Version: 6.00 Build 0)  -->
<!DOCTYPE svg PUBLIC "-//W3C//DTD SVG 1.1//EN" "http://www.w3.org/Graphics/SVG/1.1/DTD/svg11.dtd">
<svg version="1.1" id="Calque_1" xmlns="http://www.w3.org/2000/svg" xmlns:xlink="http://www.w3.org/1999/xlink" x="0px" y="0px"
	 width="1190.551px" height="1190.551px" viewBox="0 0 1190.551 1190.551" enable-background="new 0 0 1190.551 1190.551"
	 xml:space="preserve">
<polygon fill="#010202" points="541.751,570.289 745.275,672.498 745.275,75.218 349.216,471.277 349.216,341.603 472.088,341.603 
	472.088,121.197 594.961,121.197 594.961,0 0,0 0,121.197 122.872,121.197 122.872,341.603 245.745,341.603 245.745,595.279 
	48.354,595.279 48.354,642.017 0,642.017 0,721.597 40.775,721.597 40.775,840.331 228.985,907.279 557.406,907.279 
	557.406,773.386 396.985,773.386 396.985,744.331 557.406,744.331 557.406,712.754 591.511,712.754 591.511,595.279 
	349.216,595.279 349.216,570.289 "/>
</svg>
