<?xml version="1.0" encoding="utf-8"?>
<!-- Generator: Adobe Illustrator 16.0.0, SVG Export Plug-In . SVG Version: 6.00 Build 0)  -->
<!DOCTYPE svg PUBLIC "-//W3C//DTD SVG 1.1//EN" "http://www.w3.org/Graphics/SVG/1.1/DTD/svg11.dtd">
<svg version="1.1" id="Calque_1" xmlns="http://www.w3.org/2000/svg" xmlns:xlink="http://www.w3.org/1999/xlink" x="0px" y="0px"
	 width="1190.551px" height="1190.551px" viewBox="0 0 1190.551 1190.551" enable-background="new 0 0 1190.551 1190.551"
	 xml:space="preserve">
<polygon fill="#010202" points="472.088,341.603 349.216,464.475 349.216,341.603 472.088,341.603 472.088,121.197 594.961,121.197 
	594.961,0 0,0 0,121.197 122.872,121.197 122.872,341.603 245.745,341.603 245.745,595.279 178.106,595.279 178.106,755.699 
	149.053,755.699 149.053,595.279 117.474,595.279 117.474,561.175 0,561.175 0,1104.331 46.738,1104.331 46.738,1152.685 
	126.318,1152.685 126.318,1111.909 245.053,1111.909 312,923.699 312,595.279 349.216,595.279 349.216,563.489 541.751,563.489 
	745.275,665.697 745.275,68.416 "/>
</svg>
