<?xml version="1.0" encoding="utf-8"?>
<!-- Generator: Adobe Illustrator 16.0.0, SVG Export Plug-In . SVG Version: 6.00 Build 0)  -->
<!DOCTYPE svg PUBLIC "-//W3C//DTD SVG 1.1//EN" "http://www.w3.org/Graphics/SVG/1.1/DTD/svg11.dtd">
<svg version="1.1" id="Calque_1" xmlns="http://www.w3.org/2000/svg" xmlns:xlink="http://www.w3.org/1999/xlink" x="0px" y="0px"
	 width="1190.551px" height="1190.551px" viewBox="0 0 1190.551 1190.551" enable-background="new 0 0 1190.551 1190.551"
	 xml:space="preserve">
<g>
	<polygon fill="#010202" points="651.275,472.089 729.296,472.089 729.296,594.962 850.494,594.962 850.494,0 729.296,0 
		729.296,122.873 508.892,122.873 508.892,245.746 255.216,245.746 255.216,349.216 508.892,349.216 508.892,472.089 
		458.74,472.089 255.216,369.879 255.216,967.16 623.337,599.039 651.275,571.102 	"/>
	<polygon fill="#010202" points="801.443,633.145 801.443,793.566 772.39,793.566 772.39,633.145 740.812,633.145 740.812,599.039 
		623.337,599.039 623.337,1142.197 670.074,1142.197 670.074,1190.551 749.655,1190.551 749.655,1149.775 868.391,1149.775 
		935.335,961.566 935.335,633.145 	"/>
</g>
</svg>
