<?xml version="1.0" encoding="utf-8"?>
<!-- Generator: Adobe Illustrator 16.0.0, SVG Export Plug-In . SVG Version: 6.00 Build 0)  -->
<!DOCTYPE svg PUBLIC "-//W3C//DTD SVG 1.1//EN" "http://www.w3.org/Graphics/SVG/1.1/DTD/svg11.dtd">
<svg version="1.1" id="Calque_1" xmlns="http://www.w3.org/2000/svg" xmlns:xlink="http://www.w3.org/1999/xlink" x="0px" y="0px"
	 width="1190.551px" height="1190.551px" viewBox="0 0 1190.551 1190.551" enable-background="new 0 0 1190.551 1190.551"
	 xml:space="preserve">
<polygon fill="#010202" points="595.279,594.962 595.279,0 474.081,0 474.081,122.872 253.676,122.872 253.676,245.745 0,245.745 
	0,349.216 253.676,349.216 253.676,472.089 203.524,472.089 0,369.879 0,967.159 331.424,635.736 396.059,571.101 396.059,472.089 
	474.081,472.089 474.081,594.962 450.158,594.962 450.158,635.736 331.424,635.736 264.477,823.946 264.477,1152.366 
	398.371,1152.366 398.371,991.946 427.424,991.946 427.424,1152.366 459.002,1152.366 459.002,1186.472 576.477,1186.472 
	576.477,643.315 529.739,643.315 529.739,594.962 "/>
</svg>
