<?xml version="1.0" encoding="utf-8"?>
<!-- Generator: Adobe Illustrator 16.0.0, SVG Export Plug-In . SVG Version: 6.00 Build 0)  -->
<!DOCTYPE svg PUBLIC "-//W3C//DTD SVG 1.1//EN" "http://www.w3.org/Graphics/SVG/1.1/DTD/svg11.dtd">
<svg version="1.1" id="Calque_1" xmlns="http://www.w3.org/2000/svg" xmlns:xlink="http://www.w3.org/1999/xlink" x="0px" y="0px"
	 width="1190.551px" height="1190.551px" viewBox="0 0 1190.551 1190.551" enable-background="new 0 0 1190.551 1190.551"
	 xml:space="preserve">
<polygon fill="#010202" points="265.262,1.615 312,48.354 265.262,48.354 265.262,1.615 265.262,0 185.682,0 185.682,40.775 
	66.947,40.775 0,228.985 0,557.406 133.894,557.406 133.894,396.985 162.947,396.985 162.947,557.406 194.526,557.406 
	194.526,591.511 189.128,591.511 189.128,811.918 66.255,811.918 66.255,933.114 661.217,933.114 661.217,811.918 538.344,811.918 
	538.344,591.511 415.471,591.511 415.471,337.835 312,337.835 312,48.354 661.321,397.675 760.334,397.675 760.334,205.14 
	862.544,1.615 "/>
</svg>
