<?xml version="1.0" encoding="utf-8"?>
<!-- Generator: Adobe Illustrator 16.0.0, SVG Export Plug-In . SVG Version: 6.00 Build 0)  -->
<!DOCTYPE svg PUBLIC "-//W3C//DTD SVG 1.1//EN" "http://www.w3.org/Graphics/SVG/1.1/DTD/svg11.dtd">
<svg version="1.1" id="Calque_1" xmlns="http://www.w3.org/2000/svg" xmlns:xlink="http://www.w3.org/1999/xlink" x="0px" y="0px"
	 width="1190.551px" height="1190.551px" viewBox="0 0 1190.551 1190.551" enable-background="new 0 0 1190.551 1190.551"
	 xml:space="preserve">
<polygon fill="#010202" points="429.265,130.333 476.004,177.072 429.265,177.072 429.265,130.333 429.265,128.718 349.685,128.718 
	349.685,169.493 230.95,169.493 164.004,357.703 164.004,686.125 297.897,686.125 297.897,525.703 326.95,525.703 326.95,686.125 
	358.529,686.125 358.529,720.229 353.132,720.229 353.132,940.637 230.259,940.637 230.259,1061.832 825.221,1061.832 
	825.221,940.637 702.348,940.637 702.348,720.229 579.474,720.229 579.474,466.553 476.004,466.553 476.004,177.072 
	825.324,526.393 924.338,526.393 924.338,333.858 1026.547,130.333 "/>
</svg>
