<?xml version="1.0" encoding="utf-8"?>
<!-- Generator: Adobe Illustrator 16.0.0, SVG Export Plug-In . SVG Version: 6.00 Build 0)  -->
<!DOCTYPE svg PUBLIC "-//W3C//DTD SVG 1.1//EN" "http://www.w3.org/Graphics/SVG/1.1/DTD/svg11.dtd">
<svg version="1.1" id="Calque_1" xmlns="http://www.w3.org/2000/svg" xmlns:xlink="http://www.w3.org/1999/xlink" x="0px" y="0px"
	 width="1190.551px" height="1190.551px" viewBox="0 0 1190.551 1190.551" enable-background="new 0 0 1190.551 1190.551"
	 xml:space="preserve">
<polygon fill="#010202" points="594.961,595.279 312,878.24 312,643.633 265.262,643.633 265.262,595.279 594.961,595.279 
	594.961,474.082 472.089,474.082 472.089,253.676 349.216,253.676 349.216,0 245.745,0 245.745,253.676 122.873,253.676 
	122.873,474.082 0,474.082 0,595.279 185.682,595.279 185.682,636.054 66.947,636.054 0,824.264 0,1152.685 133.894,1152.685 
	133.894,992.264 162.947,992.264 162.947,1152.685 194.526,1152.685 194.526,1186.791 312,1186.791 312,977.254 504.534,977.254 
	708.059,1079.463 708.059,482.181 "/>
</svg>
