<?xml version="1.0" encoding="utf-8"?>
<!-- Generator: Adobe Illustrator 16.0.0, SVG Export Plug-In . SVG Version: 6.00 Build 0)  -->
<!DOCTYPE svg PUBLIC "-//W3C//DTD SVG 1.1//EN" "http://www.w3.org/Graphics/SVG/1.1/DTD/svg11.dtd">
<svg version="1.1" id="Calque_1" xmlns="http://www.w3.org/2000/svg" xmlns:xlink="http://www.w3.org/1999/xlink" x="0px" y="0px"
	 width="1190.551px" height="1190.551px" viewBox="0 0 1190.551 1190.551" enable-background="new 0 0 1190.551 1190.551"
	 xml:space="preserve">
<polygon fill="#010202" points="836.207,597.158 553.246,880.12 553.246,645.513 506.508,645.513 506.508,597.158 836.207,597.158 
	836.207,475.962 713.335,475.962 713.335,255.556 590.462,255.556 590.462,1.88 486.991,1.88 486.991,255.556 364.119,255.556 
	364.119,475.962 241.246,475.962 241.246,597.158 426.928,597.158 426.928,637.934 308.193,637.934 241.246,826.144 
	241.246,1154.565 375.14,1154.565 375.14,994.144 404.193,994.144 404.193,1154.565 435.772,1154.565 435.772,1188.671 
	553.246,1188.671 553.246,979.134 745.78,979.134 949.305,1081.343 949.305,484.061 "/>
</svg>
