<?xml version="1.0" encoding="utf-8"?>
<!-- Generator: Adobe Illustrator 16.0.0, SVG Export Plug-In . SVG Version: 6.00 Build 0)  -->
<!DOCTYPE svg PUBLIC "-//W3C//DTD SVG 1.1//EN" "http://www.w3.org/Graphics/SVG/1.1/DTD/svg11.dtd">
<svg version="1.1" id="Calque_1" xmlns="http://www.w3.org/2000/svg" xmlns:xlink="http://www.w3.org/1999/xlink" x="0px" y="0px"
	 width="1190.551px" height="1190.551px" viewBox="0 0 1190.551 1190.551" enable-background="new 0 0 1190.551 1190.551"
	 xml:space="preserve">
<polygon fill="#010202" points="815.409,631.105 815.409,791.527 786.358,791.527 786.358,631.105 754.778,631.105 754.778,597.002 
	836.525,597.002 836.525,2.04 715.326,2.04 715.326,124.912 494.922,124.912 494.922,247.785 241.246,247.785 241.246,351.255 
	494.922,351.255 494.922,474.128 637.305,474.128 715.326,474.128 715.326,597.002 637.305,597.002 637.305,474.128 
	241.246,870.186 241.246,969.199 433.781,969.199 637.305,1071.408 637.305,1140.156 684.043,1140.156 684.043,1188.512 
	763.623,1188.512 763.623,1147.736 882.358,1147.736 949.305,959.527 949.305,631.105 "/>
</svg>
