<?xml version="1.0" encoding="utf-8"?>
<!-- Generator: Adobe Illustrator 16.0.0, SVG Export Plug-In . SVG Version: 6.00 Build 0)  -->
<!DOCTYPE svg PUBLIC "-//W3C//DTD SVG 1.1//EN" "http://www.w3.org/Graphics/SVG/1.1/DTD/svg11.dtd">
<svg version="1.1" id="Calque_1" xmlns="http://www.w3.org/2000/svg" xmlns:xlink="http://www.w3.org/1999/xlink" x="0px" y="0px"
	 width="1190.551px" height="1190.551px" viewBox="0 0 1190.551 1190.551" enable-background="new 0 0 1190.551 1190.551"
	 xml:space="preserve">
<polygon fill="#010202" points="898.25,104.089 694.727,1.88 694.727,475.962 571.855,475.962 571.855,255.556 448.982,255.556 
	448.982,1.88 345.511,1.88 345.511,255.556 222.639,255.556 222.639,475.962 99.766,475.962 99.766,597.159 99.766,1140.316 
	146.503,1140.316 146.503,1188.67 226.083,1188.67 226.083,1147.895 344.819,1147.895 411.766,959.686 411.766,631.264 
	277.871,631.264 277.871,791.686 248.819,791.686 248.819,631.264 217.24,631.264 217.24,597.159 694.727,597.159 694.727,599.162 
	1090.785,203.103 1090.785,104.089 "/>
</svg>
