<?xml version="1.0" encoding="utf-8"?>
<!-- Generator: Adobe Illustrator 16.0.0, SVG Export Plug-In . SVG Version: 6.00 Build 0)  -->
<!DOCTYPE svg PUBLIC "-//W3C//DTD SVG 1.1//EN" "http://www.w3.org/Graphics/SVG/1.1/DTD/svg11.dtd">
<svg version="1.1" id="Calque_1" xmlns="http://www.w3.org/2000/svg" xmlns:xlink="http://www.w3.org/1999/xlink" x="0px" y="0px"
	 width="1190.551px" height="1190.551px" viewBox="0 0 1190.551 1190.551" enable-background="new 0 0 1190.551 1190.551"
	 xml:space="preserve">
<g>
	<polygon fill="#010202" points="396.058,670.248 203.523,670.248 46.738,591.511 126.318,591.511 126.318,550.736 245.053,550.736 
		312,362.526 312,34.105 178.106,34.105 178.106,194.526 149.053,194.526 149.053,34.105 117.474,34.105 117.474,0 0,0 0,543.156 
		46.738,543.156 46.738,591.511 0,568.039 0,1165.319 396.058,769.26 	"/>
	<path fill="#010202" d="M395.696,892.909c-164.382,0-297.641,133.26-297.641,297.642h595.28
		C693.335,1026.169,560.077,892.909,395.696,892.909z"/>
</g>
</svg>
