<?xml version="1.0" encoding="utf-8"?>
<!-- Generator: Adobe Illustrator 16.0.0, SVG Export Plug-In . SVG Version: 6.00 Build 0)  -->
<!DOCTYPE svg PUBLIC "-//W3C//DTD SVG 1.1//EN" "http://www.w3.org/Graphics/SVG/1.1/DTD/svg11.dtd">
<svg version="1.1" id="Calque_1" xmlns="http://www.w3.org/2000/svg" xmlns:xlink="http://www.w3.org/1999/xlink" x="0px" y="0px"
	 width="1190.551px" height="1190.551px" viewBox="0 0 1190.551 1190.551" enable-background="new 0 0 1190.551 1190.551"
	 xml:space="preserve">
<g>
	<polygon fill="#010202" points="644.666,670.248 452.131,670.248 295.345,591.511 374.926,591.511 374.926,550.736 
		493.661,550.736 560.608,362.526 560.608,34.105 426.714,34.105 426.714,194.526 397.661,194.526 397.661,34.105 366.082,34.105 
		366.082,0 248.608,0 248.608,543.156 295.345,543.156 295.345,591.511 248.608,568.039 248.608,1165.319 644.666,769.26 	"/>
	<path fill="#010202" d="M644.303,892.909c-164.381,0-297.64,133.26-297.64,297.642h595.281
		C941.944,1026.169,808.684,892.909,644.303,892.909z"/>
</g>
</svg>
