<?xml version="1.0" encoding="utf-8"?>
<!-- Generator: Adobe Illustrator 16.0.0, SVG Export Plug-In . SVG Version: 6.00 Build 0)  -->
<!DOCTYPE svg PUBLIC "-//W3C//DTD SVG 1.1//EN" "http://www.w3.org/Graphics/SVG/1.1/DTD/svg11.dtd">
<svg version="1.1" id="Calque_1" xmlns="http://www.w3.org/2000/svg" xmlns:xlink="http://www.w3.org/1999/xlink" x="0px" y="0px"
	 width="1190.551px" height="1190.551px" viewBox="0 0 1190.551 1190.551" enable-background="new 0 0 1190.551 1190.551"
	 xml:space="preserve">
<g>
	<polygon fill="#010202" points="712.805,435.253 892.915,435.253 892.915,86.665 728.006,86.665 728.006,183.196 544.328,183.196 
		544.328,86.665 380.761,86.665 380.761,185.878 297.637,185.878 297.637,319.952 463.886,319.952 463.886,381.624 563.099,381.624 
		563.099,494.245 331.741,494.245 331.741,628.139 492.162,628.139 492.162,657.191 331.741,657.191 331.741,688.771 
		297.637,688.771 297.637,806.244 595.276,806.244 840.792,806.244 840.792,759.508 889.148,759.508 889.148,679.928 
		848.372,679.928 848.372,561.192 660.162,494.245 712.805,494.245 	"/>
	<path fill="#010202" d="M297.636,1103.886h595.278c0.001-164.383-133.257-297.642-297.64-297.642
		C430.894,806.244,297.636,939.504,297.636,1103.886z"/>
</g>
</svg>
