<?xml version="1.0" encoding="utf-8"?>
<!-- Generator: Adobe Illustrator 16.0.0, SVG Export Plug-In . SVG Version: 6.00 Build 0)  -->
<!DOCTYPE svg PUBLIC "-//W3C//DTD SVG 1.1//EN" "http://www.w3.org/Graphics/SVG/1.1/DTD/svg11.dtd">
<svg version="1.1" id="Calque_1" xmlns="http://www.w3.org/2000/svg" xmlns:xlink="http://www.w3.org/1999/xlink" x="0px" y="0px"
	 width="1190.551px" height="1190.551px" viewBox="0 0 1190.551 1190.551" enable-background="new 0 0 1190.551 1190.551"
	 xml:space="preserve">
<g>
	<polygon fill="#010202" points="415.168,348.588 595.279,348.588 595.279,0 430.37,0 430.37,96.531 246.692,96.531 246.692,0 
		83.124,0 83.124,99.213 0,99.213 0,233.287 166.249,233.287 166.249,294.959 265.462,294.959 265.462,407.58 297.639,407.58 
		415.168,407.58 	"/>
	<path fill="#010202" d="M-0.001,705.221h34.105v133.893h160.421v29.055H34.105v31.577H0v117.475h543.156v-46.738h48.354v-79.58
		h-40.775V772.168l-188.207-66.947h232.75c0.001-164.383-133.257-297.641-297.64-297.641
		C133.257,407.58-0.001,540.839-0.001,705.221z"/>
</g>
</svg>
