<?xml version="1.0" encoding="utf-8"?>
<!-- Generator: Adobe Illustrator 16.0.0, SVG Export Plug-In . SVG Version: 6.00 Build 0)  -->
<!DOCTYPE svg PUBLIC "-//W3C//DTD SVG 1.1//EN" "http://www.w3.org/Graphics/SVG/1.1/DTD/svg11.dtd">
<svg version="1.1" id="Calque_1" xmlns="http://www.w3.org/2000/svg" xmlns:xlink="http://www.w3.org/1999/xlink" x="0px" y="0px"
	 width="1190.551px" height="1190.551px" viewBox="0 0 1190.551 1190.551" enable-background="new 0 0 1190.551 1190.551"
	 xml:space="preserve">
<g>
	<polygon fill="#010202" points="543.156,265.262 591.511,265.262 591.511,185.682 550.736,185.682 550.736,66.947 362.526,0 
		34.105,0 34.105,133.894 194.526,133.894 194.526,162.947 34.105,162.947 34.105,194.526 0,194.526 0,312 297.639,312 543.156,312 
			"/>
	<path fill="#010202" d="M595.279,609.64c0-164.382-133.257-297.64-297.64-297.64C133.257,312-0.001,445.259-0.001,609.641h83.125
		v99.212H0v134.074h166.249v61.672h99.213v112.621h149.706v-58.992h180.11V609.64L595.279,609.64z M430.37,706.173H246.692v-96.532
		H430.37V706.173z"/>
</g>
</svg>
