<?xml version="1.0" encoding="utf-8"?>
<!-- Generator: Adobe Illustrator 16.0.0, SVG Export Plug-In . SVG Version: 6.00 Build 0)  -->
<!DOCTYPE svg PUBLIC "-//W3C//DTD SVG 1.1//EN" "http://www.w3.org/Graphics/SVG/1.1/DTD/svg11.dtd">
<svg version="1.1" id="Calque_1" xmlns="http://www.w3.org/2000/svg" xmlns:xlink="http://www.w3.org/1999/xlink" x="0px" y="0px"
	 width="1190.551px" height="1190.551px" viewBox="0 0 1190.551 1190.551" enable-background="new 0 0 1190.551 1190.551"
	 xml:space="preserve">
<path fill="#010202" d="M809.791,709.248h83.124V575.175H726.666v-61.672h-99.213V400.882h213.34v-46.738h48.354v-79.58h-40.775
	V155.829l-188.21-66.947H331.741v133.894h160.421v29.053H331.741v31.579h-34.104v117.474h180.109v58.992H297.637v348.587h164.908
	v-96.53h183.679v96.458c-16.558-2.854-33.576-4.36-50.948-4.36c-164.382,0-297.64,133.259-297.64,297.641h595.278
	c0.001-146.858-106.364-268.861-246.257-293.207H809.79L809.791,709.248L809.791,709.248z"/>
</svg>
