<?xml version="1.0" encoding="utf-8"?>
<!-- Generator: Adobe Illustrator 16.0.0, SVG Export Plug-In . SVG Version: 6.00 Build 0)  -->
<!DOCTYPE svg PUBLIC "-//W3C//DTD SVG 1.1//EN" "http://www.w3.org/Graphics/SVG/1.1/DTD/svg11.dtd">
<svg version="1.1" id="Calque_1" xmlns="http://www.w3.org/2000/svg" xmlns:xlink="http://www.w3.org/1999/xlink" x="0px" y="0px"
	 width="1190.551px" height="1190.551px" viewBox="0 0 1190.551 1190.551" enable-background="new 0 0 1190.551 1190.551"
	 xml:space="preserve">
<path fill="#010202" d="M533.191,572.008h531.749c0.002-164.384-133.256-297.641-297.639-297.641
	c-95.006,0-179.616,44.514-234.11,113.823V224.761h-99.214v-83.124H299.904v166.249h-61.672v99.213H125.611v149.706h58.992v180.109
	h-10.641v46.738h-48.352v79.58h40.772v118.734l188.21,66.947h328.42V915.022H522.594v-29.055h160.421v-31.577h34.105V736.916
	h-183.93V572.008z M436.659,388.329h96.424c-39.728,50.589-63.421,114.367-63.421,183.68h-33.003V388.329L436.659,388.329z"/>
</svg>
