<?xml version="1.0" encoding="utf-8"?>
<!-- Generator: Adobe Illustrator 16.0.0, SVG Export Plug-In . SVG Version: 6.00 Build 0)  -->
<!DOCTYPE svg PUBLIC "-//W3C//DTD SVG 1.1//EN" "http://www.w3.org/Graphics/SVG/1.1/DTD/svg11.dtd">
<svg version="1.1" id="Calque_1" xmlns="http://www.w3.org/2000/svg" xmlns:xlink="http://www.w3.org/1999/xlink" x="0px" y="0px"
	 width="1190.551px" height="1190.551px" viewBox="0 0 1190.551 1190.551" enable-background="new 0 0 1190.551 1190.551"
	 xml:space="preserve">
<path fill="#010202" d="M649.351,503.271H802.61v-99.213h83.124V269.983H719.485v-61.672h-99.213V95.69H470.566v58.991h-180.11
	v348.589h66.945l-66.945,188.209v328.423h133.894V859.479h29.053v160.423h31.579v34.104h117.475v40.854
	c164.384,0.001,297.641-133.257,297.641-297.64C900.095,648.799,791.448,525.764,649.351,503.271z M555.717,510.849v-48.353h-79.58
	v40.774h-20.772v-96.532h183.679v95.083c-11.991-1.47-24.199-2.24-36.588-2.24v11.268H555.717L555.717,510.849z"/>
</svg>
