<?xml version="1.0" encoding="utf-8"?>
<!-- Generator: Adobe Illustrator 16.0.0, SVG Export Plug-In . SVG Version: 6.00 Build 0)  -->
<!DOCTYPE svg PUBLIC "-//W3C//DTD SVG 1.1//EN" "http://www.w3.org/Graphics/SVG/1.1/DTD/svg11.dtd">
<svg version="1.1" id="Calque_1" xmlns="http://www.w3.org/2000/svg" xmlns:xlink="http://www.w3.org/1999/xlink" x="0px" y="0px"
	 width="1190.551px" height="1190.551px" viewBox="0 0 1190.551 1190.551" enable-background="new 0 0 1190.551 1190.551"
	 xml:space="preserve">
<g>
	<polygon fill="#010202" points="840.792,351.927 889.148,351.927 889.148,272.348 848.372,272.348 848.372,153.613 660.162,86.666 
		331.741,86.666 331.741,220.56 492.162,220.56 492.162,249.613 331.741,249.613 331.741,281.191 297.637,281.191 297.637,398.666 
		595.276,398.666 840.792,398.666 	"/>
	<path fill="#010202" d="M892.915,696.305c0-164.381-133.257-297.639-297.64-297.639c-164.382,0-297.64,133.259-297.64,297.641
		h83.125v99.211h-83.124v134.074h166.249v61.672h99.213v112.621h149.706v-58.992h180.109L892.915,696.305L892.915,696.305z
		 M728.006,792.838H544.328v-96.531h183.678V792.838z"/>
</g>
</svg>
