<?xml version="1.0" encoding="utf-8"?>
<!-- Generator: Adobe Illustrator 16.0.0, SVG Export Plug-In . SVG Version: 6.00 Build 0)  -->
<!DOCTYPE svg PUBLIC "-//W3C//DTD SVG 1.1//EN" "http://www.w3.org/Graphics/SVG/1.1/DTD/svg11.dtd">
<svg version="1.1" id="Calque_1" xmlns="http://www.w3.org/2000/svg" xmlns:xlink="http://www.w3.org/1999/xlink" x="0px" y="0px"
	 width="1190.551px" height="1190.551px" viewBox="0 0 1190.551 1190.551" enable-background="new 0 0 1190.551 1190.551"
	 xml:space="preserve">
<g>
	<polygon fill="#010202" points="415.168,348.588 595.279,348.588 595.279,0 430.37,0 430.37,96.531 246.692,96.531 246.692,0 
		83.124,0 83.124,99.213 0,99.213 0,233.287 166.249,233.287 166.249,294.959 265.462,294.959 265.462,407.58 34.105,407.58 
		34.105,541.474 194.526,541.474 194.526,570.527 34.105,570.527 34.105,602.106 0,602.106 0,719.579 297.639,719.579 
		543.156,719.579 543.156,672.843 591.511,672.843 591.511,593.262 550.736,593.262 550.736,474.527 362.526,407.58 415.168,407.58 
			"/>
	<path fill="#010202" d="M-0.001,1017.221h595.279c0.001-164.383-133.257-297.642-297.64-297.642
		C133.257,719.579-0.001,852.839-0.001,1017.221z"/>
</g>
</svg>
