<?xml version="1.0" encoding="utf-8"?>
<!-- Generator: Adobe Illustrator 16.0.0, SVG Export Plug-In . SVG Version: 6.00 Build 0)  -->
<!DOCTYPE svg PUBLIC "-//W3C//DTD SVG 1.1//EN" "http://www.w3.org/Graphics/SVG/1.1/DTD/svg11.dtd">
<svg version="1.1" id="Calque_1" xmlns="http://www.w3.org/2000/svg" xmlns:xlink="http://www.w3.org/1999/xlink" x="0px" y="0px"
	 width="1190.551px" height="1190.551px" viewBox="0 0 1190.551 1190.551" enable-background="new 0 0 1190.551 1190.551"
	 xml:space="preserve">
<polygon fill="#010202" points="964.233,692.408 964.233,597.16 538.319,597.16 538.319,645.514 491.582,645.514 491.582,597.16 
	633.899,597.16 633.899,432.25 537.366,432.25 537.366,248.572 633.899,248.572 633.899,85.003 534.683,85.003 534.683,1.879 
	400.612,1.879 400.612,168.128 338.94,168.128 338.94,267.341 226.319,267.341 226.319,417.047 285.311,417.047 285.311,597.16 
	412.002,597.16 412.002,637.934 293.266,637.934 226.319,826.145 226.319,1154.564 360.214,1154.564 360.214,994.145 
	389.266,994.145 389.266,1154.564 420.845,1154.564 420.845,1188.672 538.319,1188.672 538.319,1188.406 743.188,1188.406 
	743.188,908.059 687.475,908.059 687.475,692.408 "/>
</svg>
