<?xml version="1.0" encoding="utf-8"?>
<!-- Generator: Adobe Illustrator 16.0.0, SVG Export Plug-In . SVG Version: 6.00 Build 0)  -->
<!DOCTYPE svg PUBLIC "-//W3C//DTD SVG 1.1//EN" "http://www.w3.org/Graphics/SVG/1.1/DTD/svg11.dtd">
<svg version="1.1" id="Calque_1" xmlns="http://www.w3.org/2000/svg" xmlns:xlink="http://www.w3.org/1999/xlink" x="0px" y="0px"
	 width="1190.551px" height="1190.551px" viewBox="0 0 1190.551 1190.551" enable-background="new 0 0 1190.551 1190.551"
	 xml:space="preserve">
<polygon fill="#010202" points="542.688,1009.757 609.636,821.546 609.636,493.126 712.804,493.126 712.804,434.134 
	892.915,434.134 892.915,85.547 728.005,85.547 728.005,182.078 544.328,182.078 544.328,85.547 380.76,85.547 380.76,184.76 
	297.636,184.76 297.636,318.833 463.885,318.833 463.885,380.505 563.098,380.505 563.098,493.126 475.74,493.126 475.74,653.547 
	446.688,653.547 446.688,493.126 415.109,493.126 415.109,459.021 297.636,459.021 297.636,1002.179 344.372,1002.179 
	344.372,1050.532 423.952,1050.532 423.952,1105.004 849.866,1105.004 849.866,513.759 644.996,513.759 644.996,794.105 
	700.708,794.105 700.708,1009.758 423.952,1009.758 423.952,1009.757 "/>
</svg>
