<?xml version="1.0" encoding="utf-8"?>
<!-- Generator: Adobe Illustrator 16.0.0, SVG Export Plug-In . SVG Version: 6.00 Build 0)  -->
<!DOCTYPE svg PUBLIC "-//W3C//DTD SVG 1.1//EN" "http://www.w3.org/Graphics/SVG/1.1/DTD/svg11.dtd">
<svg version="1.1" id="Calque_1" xmlns="http://www.w3.org/2000/svg" xmlns:xlink="http://www.w3.org/1999/xlink" x="0px" y="0px"
	 width="1190.551px" height="1190.551px" viewBox="0 0 1190.551 1190.551" enable-background="new 0 0 1190.551 1190.551"
	 xml:space="preserve">
<polygon fill="#010202" points="245.052,924.21 312,735.999 312,407.579 415.168,407.579 415.168,348.587 595.28,348.587 595.28,0 
	430.37,0 430.37,96.531 246.693,96.531 246.693,0 83.124,0 83.124,99.213 0,99.213 0,233.286 166.249,233.286 166.249,294.958 
	265.462,294.958 265.462,407.579 178.105,407.579 178.105,568 149.052,568 149.052,407.579 117.473,407.579 117.473,373.474 
	0,373.474 0,916.632 46.737,916.632 46.737,964.985 126.317,964.985 126.317,1019.457 552.231,1019.457 552.231,428.212 
	347.361,428.212 347.361,708.559 403.073,708.559 403.073,924.211 126.317,924.211 126.317,924.21 "/>
</svg>
