<?xml version="1.0" encoding="utf-8"?>
<!-- Generator: Adobe Illustrator 16.0.0, SVG Export Plug-In . SVG Version: 6.00 Build 0)  -->
<!DOCTYPE svg PUBLIC "-//W3C//DTD SVG 1.1//EN" "http://www.w3.org/Graphics/SVG/1.1/DTD/svg11.dtd">
<svg version="1.1" id="Calque_1" xmlns="http://www.w3.org/2000/svg" xmlns:xlink="http://www.w3.org/1999/xlink" x="0px" y="0px"
	 width="1190.551px" height="1190.551px" viewBox="0 0 1190.551 1190.551" enable-background="new 0 0 1190.551 1190.551"
	 xml:space="preserve">
<g>
	<polygon fill="#010202" points="309.765,595.28 658.352,595.28 658.352,430.371 561.82,430.371 561.82,246.693 658.352,246.693 
		658.352,83.124 559.137,83.124 559.137,0 425.066,0 425.066,166.249 363.394,166.249 363.394,265.462 250.773,265.462 
		250.773,415.168 309.765,415.168 	"/>
	<polygon fill="#010202" points="734.908,599.303 734.908,879.651 790.619,879.651 790.619,1095.302 513.865,1095.302 
		562.773,957.806 562.773,629.385 428.878,629.385 428.878,789.806 399.825,789.806 399.825,629.385 368.246,629.385 
		368.246,595.281 250.773,595.281 250.773,1138.438 297.51,1138.438 297.51,1186.792 377.09,1186.792 377.09,1146.016 
		495.825,1146.016 513.864,1095.303 513.864,1190.551 939.778,1190.551 939.778,599.303 	"/>
</g>
</svg>
