<?xml version="1.0" encoding="utf-8"?>
<!-- Generator: Adobe Illustrator 16.0.0, SVG Export Plug-In . SVG Version: 6.00 Build 0)  -->
<!DOCTYPE svg PUBLIC "-//W3C//DTD SVG 1.1//EN" "http://www.w3.org/Graphics/SVG/1.1/DTD/svg11.dtd">
<svg version="1.1" id="Calque_1" xmlns="http://www.w3.org/2000/svg" xmlns:xlink="http://www.w3.org/1999/xlink" x="0px" y="0px"
	 width="1190.551px" height="1190.551px" viewBox="0 0 1190.551 1190.551" enable-background="new 0 0 1190.551 1190.551"
	 xml:space="preserve">
<g>
	<polygon fill="#010202" points="58.992,595.28 407.579,595.28 407.579,430.371 311.047,430.371 311.047,246.693 407.579,246.693 
		407.579,83.124 308.365,83.124 308.365,0 174.293,0 174.293,166.249 112.621,166.249 112.621,265.462 0,265.462 0,415.168 
		58.992,415.168 	"/>
	<polygon fill="#010202" points="737.914,690.528 737.914,595.281 312,595.281 312,629.385 178.105,629.385 178.105,789.806 
		149.052,789.806 149.052,629.385 117.473,629.385 117.473,595.281 0,595.281 0,1138.437 46.737,1138.437 46.737,1186.792 
		126.317,1186.792 126.317,1146.016 245.052,1146.016 312,957.806 312,1186.527 516.869,1186.527 516.869,906.179 461.157,906.179 
		461.157,690.528 	"/>
</g>
</svg>
