<?xml version="1.0" encoding="utf-8"?>
<!-- Generator: Adobe Illustrator 16.0.0, SVG Export Plug-In . SVG Version: 6.00 Build 0)  -->
<!DOCTYPE svg PUBLIC "-//W3C//DTD SVG 1.1//EN" "http://www.w3.org/Graphics/SVG/1.1/DTD/svg11.dtd">
<svg version="1.1" id="Calque_1" xmlns="http://www.w3.org/2000/svg" xmlns:xlink="http://www.w3.org/1999/xlink" x="0px" y="0px"
	 width="1190.551px" height="1190.551px" viewBox="0 0 1190.551 1190.551" enable-background="new 0 0 1190.551 1190.551"
	 xml:space="preserve">
<polygon fill="#010202" points="1105.872,330.734 1105.872,235.486 679.958,235.486 515.048,235.486 515.048,332.018 
	331.371,332.018 331.371,235.486 167.803,235.486 167.803,334.699 84.679,334.699 84.679,468.772 250.928,468.772 250.928,530.444 
	350.141,530.444 350.141,643.065 133.032,643.065 133.032,689.803 84.679,689.803 84.679,769.383 125.453,769.383 125.453,888.118 
	313.663,955.064 642.084,955.064 642.084,821.17 481.663,821.17 481.663,792.118 642.084,792.118 642.084,760.539 676.19,760.539 
	676.19,643.065 499.847,643.065 499.847,584.073 679.958,584.073 679.958,826.733 884.828,826.733 884.828,546.385 829.116,546.385 
	829.116,330.734 "/>
</svg>
