<?xml version="1.0" encoding="utf-8"?>
<!-- Generator: Adobe Illustrator 16.0.0, SVG Export Plug-In . SVG Version: 6.00 Build 0)  -->
<!DOCTYPE svg PUBLIC "-//W3C//DTD SVG 1.1//EN" "http://www.w3.org/Graphics/SVG/1.1/DTD/svg11.dtd">
<svg version="1.1" id="Calque_1" xmlns="http://www.w3.org/2000/svg" xmlns:xlink="http://www.w3.org/1999/xlink" x="0px" y="0px"
	 width="1190.551px" height="1190.551px" viewBox="0 0 1190.551 1190.551" enable-background="new 0 0 1190.551 1190.551"
	 xml:space="preserve">
<g>
	<polygon fill="#010202" points="285.311,597.16 633.899,597.16 633.899,432.25 537.366,432.25 537.366,248.572 633.899,248.572 
		633.899,85.003 534.683,85.003 534.683,1.879 400.612,1.879 400.612,168.128 338.94,168.128 338.94,267.341 226.319,267.341 
		226.319,417.047 285.311,417.047 	"/>
	<polygon fill="#010202" points="964.233,692.408 964.233,597.16 538.319,597.16 538.319,631.264 404.424,631.264 404.424,791.686 
		375.371,791.686 375.371,631.264 343.792,631.264 343.792,597.16 226.319,597.16 226.319,1140.316 273.055,1140.316 
		273.055,1188.672 352.635,1188.672 352.635,1147.895 471.371,1147.895 538.319,959.686 538.319,1188.406 743.188,1188.406 
		743.188,908.059 687.475,908.059 687.475,692.408 	"/>
</g>
</svg>
