<?xml version="1.0" encoding="utf-8"?>
<!-- Generator: Adobe Illustrator 16.0.0, SVG Export Plug-In . SVG Version: 6.00 Build 0)  -->
<!DOCTYPE svg PUBLIC "-//W3C//DTD SVG 1.1//EN" "http://www.w3.org/Graphics/SVG/1.1/DTD/svg11.dtd">
<svg version="1.1" id="Calque_1" xmlns="http://www.w3.org/2000/svg" xmlns:xlink="http://www.w3.org/1999/xlink" x="0px" y="0px"
	 width="1190.551px" height="1190.551px" viewBox="0 0 1190.551 1190.551" enable-background="new 0 0 1190.551 1190.551"
	 xml:space="preserve">
<polygon fill="#010202" points="1021.194,95.248 1021.194,0 595.28,0 430.37,0 430.37,96.531 246.693,96.531 246.693,0 83.124,0 
	83.124,99.213 0,99.213 0,233.286 166.249,233.286 166.249,294.958 265.462,294.958 265.462,407.579 48.354,407.579 48.354,454.316 
	0,454.316 0,533.896 40.775,533.896 40.775,652.632 228.985,719.578 557.406,719.578 557.406,585.684 396.985,585.684 
	396.985,556.632 557.406,556.632 557.406,525.053 591.511,525.053 591.511,407.579 415.168,407.579 415.168,348.587 595.28,348.587 
	595.28,591.247 800.15,591.247 800.15,310.899 744.438,310.899 744.438,95.248 "/>
</svg>
