<?xml version="1.0" encoding="utf-8"?>
<!-- Generator: Adobe Illustrator 16.0.0, SVG Export Plug-In . SVG Version: 6.00 Build 0)  -->
<!DOCTYPE svg PUBLIC "-//W3C//DTD SVG 1.1//EN" "http://www.w3.org/Graphics/SVG/1.1/DTD/svg11.dtd">
<svg version="1.1" id="Calque_1" xmlns="http://www.w3.org/2000/svg" xmlns:xlink="http://www.w3.org/1999/xlink" x="0px" y="0px"
	 width="1190.551px" height="1190.551px" viewBox="0 0 1190.551 1190.551" enable-background="new 0 0 1190.551 1190.551"
	 xml:space="preserve">
<polygon fill="#010202" points="595.28,595.28 595.28,0 0,0 0,263.639 414.28,263.639 414.28,331.639 0,331.639 0,595.28 
	0,1138.438 46.737,1138.438 46.737,1186.79 126.317,1186.79 126.317,1146.017 245.053,1146.017 312,957.807 312,629.386 
	178.106,629.386 178.106,789.807 149.053,789.807 149.053,629.386 117.473,629.386 117.473,595.28 485.568,595.28 485.568,875.629 
	541.28,875.629 541.28,1091.279 264.524,1091.279 264.524,1186.527 690.439,1186.527 690.439,595.28 "/>
</svg>
