<?xml version="1.0" encoding="utf-8"?>
<!-- Generator: Adobe Illustrator 16.0.0, SVG Export Plug-In . SVG Version: 6.00 Build 0)  -->
<!DOCTYPE svg PUBLIC "-//W3C//DTD SVG 1.1//EN" "http://www.w3.org/Graphics/SVG/1.1/DTD/svg11.dtd">
<svg version="1.1" id="Calque_1" xmlns="http://www.w3.org/2000/svg" xmlns:xlink="http://www.w3.org/1999/xlink" x="0px" y="0px"
	 width="1190.551px" height="1190.551px" viewBox="0 0 1190.551 1190.551" enable-background="new 0 0 1190.551 1190.551"
	 xml:space="preserve">
<polygon fill="#010202" points="845.336,597.16 845.336,1.88 250.056,1.88 250.056,265.52 664.336,265.52 664.336,333.52 
	250.056,333.52 250.056,597.16 250.056,1140.318 296.793,1140.318 296.793,1188.67 376.373,1188.67 376.373,1147.896 
	495.109,1147.896 562.056,959.688 562.056,631.266 428.162,631.266 428.162,791.688 399.109,791.688 399.109,631.266 
	367.529,631.266 367.529,597.16 735.623,597.16 735.623,877.51 791.336,877.51 791.336,1093.16 514.58,1093.16 514.58,1188.408 
	940.494,1188.408 940.494,597.16 "/>
</svg>
