<?xml version="1.0" encoding="utf-8"?>
<!-- Generator: Adobe Illustrator 16.0.0, SVG Export Plug-In . SVG Version: 6.00 Build 0)  -->
<!DOCTYPE svg PUBLIC "-//W3C//DTD SVG 1.1//EN" "http://www.w3.org/Graphics/SVG/1.1/DTD/svg11.dtd">
<svg version="1.1" id="Calque_1" xmlns="http://www.w3.org/2000/svg" xmlns:xlink="http://www.w3.org/1999/xlink" x="0px" y="0px"
	 width="1190.551px" height="1190.551px" viewBox="0 0 1190.551 1190.551" enable-background="new 0 0 1190.551 1190.551"
	 xml:space="preserve">
<polygon fill="#010202" points="533.044,0.264 533.044,280.612 588.756,280.612 588.756,496.263 312,496.263 312,48.353 
	265.263,48.353 265.263,0 185.683,0 185.683,40.774 66.947,40.774 0,228.984 0,557.405 133.894,557.405 133.894,396.984 
	162.947,396.984 162.947,557.405 194.527,557.405 194.527,591.511 0,591.511 0,1186.79 263.639,1186.79 263.639,772.511 
	331.639,772.511 331.639,1186.79 595.28,1186.79 595.28,591.511 737.914,591.511 737.914,0.264 "/>
</svg>
