<?xml version="1.0" encoding="utf-8"?>
<!-- Generator: Adobe Illustrator 16.0.0, SVG Export Plug-In . SVG Version: 6.00 Build 0)  -->
<!DOCTYPE svg PUBLIC "-//W3C//DTD SVG 1.1//EN" "http://www.w3.org/Graphics/SVG/1.1/DTD/svg11.dtd">
<svg version="1.1" id="Calque_1" xmlns="http://www.w3.org/2000/svg" xmlns:xlink="http://www.w3.org/1999/xlink" x="0px" y="0px"
	 width="1190.551px" height="1190.551px" viewBox="0 0 1190.551 1190.551" enable-background="new 0 0 1190.551 1190.551"
	 xml:space="preserve">
<path fill="#010202" d="M1029.05,722.312l-36.499-22.807l10.453-16.729l-34.978-21.856l-10.453,16.729l-28.896-18.055l10.452-16.729
	l-34.976-21.854l-10.453,16.729l-27.374-17.104l10.453-16.729l-34.979-21.856l-10.452,16.729l-30.224-18.886l10.453-16.728
	l-19.342-12.086l105.582,51.497l238.104-488.188l-42.007-20.488l21.196-43.461l-71.522-34.885L1025.715,52.2L918.997,0.15
	L776.32,139.964L632.349,435.146l120.345,58.695l70.322-144.185l26.113,12.736l-70.323,144.185l28.383,13.844l-14.95,30.654
	l-15.637-9.771l-10.451,16.729l-29.585-18.487l10.451-16.728l-34.976-21.855l-10.453,16.728l-23.884-14.925l10.452-16.729
	l-34.978-21.854l-10.453,16.728l-24.279-15.172l-9.707,15.534l-15.084-9.427c64.248-89.099,76.526-210.484,21.472-314.026
	C537.954,12.679,357.735-42.42,212.593,34.752C67.452,111.925,12.354,292.146,89.527,437.286
	c77.173,145.14,257.394,200.241,402.533,123.067c40.883-21.737,74.619-51.652,100.271-86.654l-19.702,31.529l15.206,9.502
	l-17.104,27.371l-15.204-9.501l-20.906,33.456l15.206,9.502l-19.6,31.365l-15.206-9.503l-20.905,33.459l15.205,9.502l-22.568,36.115
	l-15.205-9.501l-20.905,33.456l15.204,9.502l-20.905,33.458l-15.206-9.502l-20.905,33.456l15.206,9.501l-22.604,36.171
	l-15.204-9.501l-20.906,33.456l15.206,9.502l-21.382,34.217l-15.205-9.502l-20.906,33.457l15.206,9.501l-12.472,19.959
	l24.279,15.173l-11.402,18.248l34.977,21.856l11.403-18.249l23.885,14.924l-11.403,18.25l34.977,21.855l11.402-18.25l29.585,18.486
	l-11.402,18.25l34.979,21.856l11.403-18.25l30.224,18.887l-11.403,18.249l34.978,21.855l11.403-18.249l27.374,17.104l-11.403,18.249
	l34.977,21.855l11.403-18.249l28.895,18.056l-11.402,18.249l34.978,21.856l11.403-18.249l36.498,22.807l12.472-19.959l15.207,9.502
	l20.905-33.456l-15.206-9.502l21.381-34.218l15.207,9.502l20.905-33.456l-15.206-9.502l22.602-36.171l15.207,9.502l20.905-33.455
	l-15.207-9.502l20.907-33.458l15.206,9.502l20.906-33.457l-15.206-9.502l22.567-36.116l15.206,9.502l20.906-33.458l-15.206-9.502
	l19.599-31.364l15.206,9.502l20.906-33.457l-15.206-9.502l17.104-27.371l15.205,9.502l20.907-33.457l-15.206-9.503L1029.05,722.312z
	"/>
</svg>
