<?xml version="1.0" encoding="utf-8"?>
<!-- Generator: Adobe Illustrator 16.0.0, SVG Export Plug-In . SVG Version: 6.00 Build 0)  -->
<!DOCTYPE svg PUBLIC "-//W3C//DTD SVG 1.1//EN" "http://www.w3.org/Graphics/SVG/1.1/DTD/svg11.dtd">
<svg version="1.1" id="Calque_1" xmlns="http://www.w3.org/2000/svg" xmlns:xlink="http://www.w3.org/1999/xlink" x="0px" y="0px"
	 width="1190.551px" height="1190.551px" viewBox="0 0 1190.551 1190.551" enable-background="new 0 0 1190.551 1190.551"
	 xml:space="preserve">
<path fill="#010202" d="M1101.309,549.385V430.651L913.1,363.703h-328.42v133.895H745.1v29.054h-160.42v31.578h-34.107v-8.719
	h17.931V510.06h-17.931v-40.348h17.931v-39.451h-17.931v-42.652h17.931v-39.45h-17.931v-39.452h17.931v-39.451h-17.931v-42.59
	h17.931v-39.453h-17.931v-36.984h17.931v-39.451h-17.931V78.502h17.931V39.049h-17.931V20.731h-43.038V1.006h-41.245v19.725h-34.07
	V1.006h-41.243v19.725h-32.279V1.006h-41.244v19.725h-35.639V1.006h-41.246v19.725h-34.886V1.006h-41.243v19.725h-28.165V1.006
	H95.029v19.725H66.398v18.318h-17.93v39.453h17.93v32.275h-17.93v39.451h17.93v36.984h-17.93v39.453h17.93v42.588h-17.93v39.451
	h17.93v39.452h-17.93v39.45h17.93v42.652h-17.93v39.451h17.93v40.348h-17.93v39.451h17.93v23.535h28.631v21.519h41.244v-21.519
	h28.164v21.519h41.243v-21.519h34.886v21.519h41.246v-21.519h35.639v21.519h15.644C174.753,601.379,48.469,731.884,48.469,891.904
	c0,164.383,133.258,297.641,297.64,297.641s297.64-133.258,297.64-297.641c0-85.154-35.768-161.948-93.09-216.2h543.071v-46.738
	h48.354v-79.58L1101.309,549.385L1101.309,549.385z M358.695,594.548v-21.502h32.279v21.519h41.243v-21.519h34.07v21.519h41.245
	v-21.519h43.038v102.578C500.089,627.882,432.902,597.636,358.695,594.548z"/>
</svg>
