<?xml version="1.0" encoding="utf-8"?>
<!-- Generator: Adobe Illustrator 16.0.0, SVG Export Plug-In . SVG Version: 6.00 Build 0)  -->
<!DOCTYPE svg PUBLIC "-//W3C//DTD SVG 1.1//EN" "http://www.w3.org/Graphics/SVG/1.1/DTD/svg11.dtd">
<svg version="1.1" id="Calque_1" xmlns="http://www.w3.org/2000/svg" xmlns:xlink="http://www.w3.org/1999/xlink" x="0px" y="0px"
	 width="1190.551px" height="1190.551px" viewBox="0 0 1190.551 1190.551" enable-background="new 0 0 1190.551 1190.551"
	 xml:space="preserve">
<path fill="#010202" d="M1001.317,315.546v-48.354h-79.58v40.775H803.003l-66.949,188.21v-40.588h-19.726v-34.071h19.726v-41.243
	h-19.726v-32.279h19.726v-41.244h-19.726v-35.639h19.726v-41.246h-19.726v-34.886h19.726v-41.243h-19.726v-28.165h19.726V84.329
	h-19.726V55.698h-18.317v-17.93h-39.453v17.93h-32.276v-17.93h-39.45v17.93h-36.983v-17.93h-39.453v17.93h-42.589v-17.93h-39.451
	v17.93h-39.453v-17.93h-39.448v17.93h-42.652v-17.93H267.35v17.93h-40.349v-17.93H187.55v17.93h-23.535v28.631h-21.519v41.244
	h21.519v28.164h-21.519v41.243h21.519v34.886h-21.519v41.246h21.519v35.639h-21.519v41.244h21.519v32.279h-21.519v41.243h21.519
	v34.071h-21.519v41.245h21.519v43.038h23.535v17.932h39.451v-17.932h40.348v17.932H306.8v-17.932h42.652v17.932h39.448v-17.932
	h39.453v17.885c-158.917,6.189-285.857,136.953-285.857,297.387c0,164.383,133.258,297.641,297.64,297.641
	s297.64-133.258,297.64-297.641c0-10.312-0.525-20.502-1.55-30.545h133.723v-160.42h29.056v160.42h31.577v34.104h117.474V315.546
	H1001.317z M453.15,557.803h14.656v-17.932h42.588v17.932h39.453v-17.932h36.983v17.932h39.45v-17.932h32.276v17.932h39.453v-17.932
	h18.316v-43.038h19.727v326.259C720.52,678.027,600.775,564.157,453.15,557.803z"/>
</svg>
