<?xml version="1.0" encoding="utf-8"?>
<!-- Generator: Adobe Illustrator 16.0.0, SVG Export Plug-In . SVG Version: 6.00 Build 0)  -->
<!DOCTYPE svg PUBLIC "-//W3C//DTD SVG 1.1//EN" "http://www.w3.org/Graphics/SVG/1.1/DTD/svg11.dtd">
<svg version="1.1" id="Calque_1" xmlns="http://www.w3.org/2000/svg" xmlns:xlink="http://www.w3.org/1999/xlink" x="0px" y="0px"
	 width="1190.551px" height="1190.551px" viewBox="0 0 1190.551 1190.551" enable-background="new 0 0 1190.551 1190.551"
	 xml:space="preserve">
<path fill="#010202" d="M568.389,508.38v46.736h-48.354v-39.055h-17.93v-32.275h17.93v-39.451h-17.93v-36.984h17.93v-39.453h-17.93
	V325.31h17.93v-39.451h-17.93v-39.453h17.93v-39.449h-17.93v-42.652h17.93v-39.451h-17.93V84.505h17.93V45.054h-17.93V21.519
	h-28.631V0H432.23v21.519h-28.164V0h-41.243v21.519h-34.886V0h-41.246v21.519h-35.638V0h-41.245v21.519h-32.279V0h-41.242v21.519
	h-34.072V0H60.969v21.519H17.931v23.535H0v39.451h17.931v40.348H0v39.451h17.931v42.652H0v39.449h17.931v39.453H0v39.451h17.931
	v42.588H0v39.453h17.931v36.984H0v39.451h17.931v32.275H0v39.453h17.931v18.318h43.038v19.725h41.245v-19.725h34.072v19.725h41.242
	v-19.725h32.279v19.725h41.245v-19.725h35.638v19.725h10.828h30.418v-19.725h34.886v19.725h41.243v-19.725h28.164v19.725h41.244
	v-19.725h28.631v-18.318h17.93v79.182h40.775V752.31c-49.904-94.407-149.075-158.752-263.291-158.752
	c-164.382,0-297.641,133.258-297.641,297.64s133.259,297.641,297.641,297.641s297.64-133.259,297.64-297.641
	c0-49.609-12.153-96.374-33.62-137.506l187.481,66.689h328.42V686.485H917.02v-29.053h160.42v-31.579h34.107V508.38H568.389z"/>
</svg>
