<?xml version="1.0" encoding="utf-8"?>
<!-- Generator: Adobe Illustrator 16.0.0, SVG Export Plug-In . SVG Version: 6.00 Build 0)  -->
<!DOCTYPE svg PUBLIC "-//W3C//DTD SVG 1.1//EN" "http://www.w3.org/Graphics/SVG/1.1/DTD/svg11.dtd">
<svg version="1.1" id="Calque_1" xmlns="http://www.w3.org/2000/svg" xmlns:xlink="http://www.w3.org/1999/xlink" x="0px" y="0px"
	 width="1190.551px" height="1190.551px" viewBox="0 0 1190.551 1190.551" enable-background="new 0 0 1190.551 1190.551"
	 xml:space="preserve">
<path fill="#010202" d="M751.125,554.599c-18.379,0-36.365,1.678-53.824,4.867v-17.86h18.316v-43.038h19.727v-41.245h-19.727
	v-34.071h19.727v-41.243h-19.727V349.73h19.727v-41.244h-19.727v-35.639h19.727v-41.246h-19.727v-34.886h19.727v-41.243h-19.727
	v-28.165h19.727V86.063h-19.727V57.432h-18.316v-17.93h-39.453v17.93h-32.277v-17.93h-39.45v17.93h-36.983v-17.93h-39.453v17.93
	h-42.589v-17.93h-39.451v17.93h-39.453v-17.93h-39.448v17.93h-42.652v-17.93h-39.451v17.93h-40.349v-17.93H186.84v17.93h-23.535
	v28.631h-21.519v41.244h21.519v28.164h-21.519v41.243h21.519V231.6h-21.519v41.246h21.519v35.639h-21.519v41.244h21.519v32.279
	h-21.519v41.243h21.519v34.071h-21.519v41.245h21.519v43.038h23.535v17.932h39.451v-17.932h40.348v17.932h39.451v-17.932h42.652
	v17.932h-21.273v40.773H208.733l-66.947,188.211v328.421H275.68V956.521h29.053v160.421h31.579v34.106h117.474V865.253
	c6.814,158.341,137.319,284.625,297.339,284.625c164.383,0,297.641-133.258,297.641-297.64
	C1048.766,687.855,915.508,554.599,751.125,554.599z M453.786,839.224V607.891h-46.737v-48.354h-18.857v-17.932h39.453v17.932
	h39.451v-17.932h42.588v17.932h39.453v-17.932h36.983v17.932h39.451v-17.932h32.275v17.932h39.08
	C562.568,584.259,459.812,699.2,453.786,839.224z"/>
</svg>
