<?xml version="1.0" encoding="utf-8"?>
<!-- Generator: Adobe Illustrator 16.0.0, SVG Export Plug-In . SVG Version: 6.00 Build 0)  -->
<!DOCTYPE svg PUBLIC "-//W3C//DTD SVG 1.1//EN" "http://www.w3.org/Graphics/SVG/1.1/DTD/svg11.dtd">
<svg version="1.1" id="Calque_1" xmlns="http://www.w3.org/2000/svg" xmlns:xlink="http://www.w3.org/1999/xlink" x="0px" y="0px"
	 width="1190.551px" height="1190.551px" viewBox="0 0 1190.551 1190.551" enable-background="new 0 0 1190.551 1190.551"
	 xml:space="preserve">
<path fill="#010202" d="M974.36,722.162l-36.499-22.807l10.453-16.729l-34.978-21.856l-10.453,16.728l-28.895-18.055l10.452-16.729
	l-34.976-21.855l-10.453,16.729l-27.374-17.105l10.453-16.728l-34.978-21.856l-10.452,16.728l-30.224-18.886l10.453-16.728
	l-19.342-12.086l105.582,51.496l238.104-488.187l-42.007-20.488l21.196-43.461L988.9,15.402l-17.875,36.648L864.307,0
	L721.629,139.814l-143.97,295.182l120.344,58.695l70.323-144.185l26.113,12.736l-70.323,144.185l28.383,13.844l-14.951,30.654
	l-15.636-9.771l-10.452,16.729l-29.585-18.487l10.452-16.728l-34.976-21.855l-10.453,16.728l-23.884-14.925l10.452-16.728
	l-34.977-21.855l-10.453,16.728l-24.28-15.172l-9.707,15.534l-15.084-9.427c64.248-89.099,76.527-210.484,21.472-314.026
	C483.264,12.529,303.044-42.57,157.903,34.602C12.762,111.775-42.337,291.996,34.836,437.136s257.394,200.24,402.534,123.067
	c40.882-21.737,74.619-51.652,100.27-86.654l-19.702,31.529l15.206,9.502l-17.104,27.371l-15.205-9.501l-20.906,33.456l15.206,9.502
	l-19.599,31.364l-15.206-9.502l-20.906,33.459l15.205,9.501l-22.568,36.116l-15.205-9.501l-20.906,33.456l15.205,9.502
	l-20.906,33.458l-15.206-9.502l-20.905,33.456l15.206,9.501l-22.603,36.171l-15.205-9.501l-20.906,33.456l15.206,9.502
	l-21.382,34.217l-15.205-9.502l-20.906,33.457l15.206,9.501l-12.472,19.959l24.28,15.172l-11.403,18.249l34.977,21.856
	l11.403-18.249l23.885,14.924l-11.403,18.25l34.976,21.855l11.403-18.25l29.585,18.487l-11.403,18.249l34.979,21.857l11.403-18.25
	l30.224,18.887l-11.403,18.249l34.977,21.855l11.403-18.249l27.374,17.105l-11.403,18.249l34.977,21.855l11.403-18.249
	l28.895,18.056l-11.403,18.249l34.978,21.856l11.403-18.249l36.498,22.807l12.472-19.959l15.207,9.502l20.905-33.456l-15.206-9.502
	l21.381-34.218l15.207,9.502l20.905-33.456l-15.206-9.502l22.602-36.171l15.207,9.502l20.905-33.455l-15.207-9.502l20.907-33.458
	l15.206,9.502l20.906-33.457l-15.206-9.502l22.568-36.116l15.206,9.502l20.906-33.458l-15.206-9.502l19.599-31.364l15.206,9.502
	l20.906-33.457l-15.206-9.502l17.104-27.371l15.206,9.502l20.907-33.458l-15.206-9.502L974.36,722.162z"/>
</svg>
