<?xml version="1.0" encoding="utf-8"?>
<!-- Generator: Adobe Illustrator 16.0.0, SVG Export Plug-In . SVG Version: 6.00 Build 0)  -->
<!DOCTYPE svg PUBLIC "-//W3C//DTD SVG 1.1//EN" "http://www.w3.org/Graphics/SVG/1.1/DTD/svg11.dtd">
<svg version="1.1" id="Calque_1" xmlns="http://www.w3.org/2000/svg" xmlns:xlink="http://www.w3.org/1999/xlink" x="0px" y="0px"
	 width="1190.551px" height="1190.551px" viewBox="0 0 1190.551 1190.551" enable-background="new 0 0 1190.551 1190.551"
	 xml:space="preserve">
<path fill="#010202" d="M1110.188,550.113V431.377l-188.21-66.948h-328.42v-1.606h-21.52v-34.886h21.52v-41.246h-21.52v-35.638
	h21.52v-41.245h-21.52v-32.279h21.52v-41.242h-21.52v-34.072h21.52V60.969h-21.52V17.931h-23.533V0h-39.452v17.931h-40.349V0
	h-39.449v17.931h-42.653V0h-39.45v17.931h-39.452V0h-39.451v17.931H225.66V0h-39.453v17.931h-36.984V0h-39.451v17.931H77.496V0
	H38.043v17.931H19.725v43.038H0v41.245h19.725v34.072H0v41.242h19.725v32.279H0v41.245h19.725v35.638H0v41.246h19.725v34.886H0
	v41.243h19.725v28.164H0v41.244h19.725v28.631h18.318v17.931h39.453v-17.931h32.275v17.931h39.451v-17.931h36.984v17.931h39.453
	v-17.931h42.588v17.931h16.377C126.284,526.85,0,657.356,0,817.375c0,164.382,133.258,297.64,297.64,297.64
	s297.64-133.258,297.64-297.64c0-50.996-12.834-98.99-35.435-140.946h542.764v-46.735h48.355v-79.581H1110.188z M572.038,404.066
	h21.52v28.164h-21.52V404.066z M753.978,527.377h-160.42v31.579h-34.106v116.727c-48.873-90.113-142.915-152.144-251.752-155.76
	v-17.818h39.452v17.931h39.45v-17.931h42.653v17.931h39.449v-17.931h40.349v17.931h39.452v-17.931h23.533v-28.631h21.52v24.852
	h160.42V527.377z"/>
</svg>
