<?xml version="1.0" encoding="utf-8"?>
<!-- Generator: Adobe Illustrator 16.0.0, SVG Export Plug-In . SVG Version: 6.00 Build 0)  -->
<!DOCTYPE svg PUBLIC "-//W3C//DTD SVG 1.1//EN" "http://www.w3.org/Graphics/SVG/1.1/DTD/svg11.dtd">
<svg version="1.1" id="Calque_1" xmlns="http://www.w3.org/2000/svg" xmlns:xlink="http://www.w3.org/1999/xlink" x="0px" y="0px"
	 width="1190.551px" height="1190.551px" viewBox="0 0 1190.551 1190.551" enable-background="new 0 0 1190.551 1190.551"
	 xml:space="preserve">
<path fill="#010202" d="M771.662,282.797v160.42H742.61v-160.42h-31.579v-34.105H593.558v-38.884h-21.52v-32.279h21.52v-41.242
	h-21.52v-34.072h21.52V60.969h-21.52V17.931h-23.533V0h-39.452v17.931h-40.349V0h-39.449v17.931h-42.653V0h-39.45v17.931h-39.452V0
	h-39.451v17.931H225.66V0h-39.453v17.931h-36.984V0h-39.451v17.931H77.496V0H38.043v17.931H19.725v43.038H0v41.245h19.725v34.072H0
	v41.242h19.725v32.279H0v41.245h19.725v35.638H0v41.246h19.725v34.886H0v41.243h19.725v28.164H0v41.244h19.725v28.631h18.318v17.931
	h39.453v-17.931h32.275v17.931h39.451v-17.931h36.984v17.931h39.453v-17.931h42.588v17.931h29.092h10.359v-17.931h39.452v17.931
	h39.45v-17.931h42.653v17.931h39.449v-17.931h40.349v17.931h39.452v-17.931h23.533v-28.631h21.52v315.062
	c-14.645-150.704-141.669-268.5-296.218-268.5c-164.382,0-297.64,133.258-297.64,297.64s133.258,297.64,297.64,297.64
	s297.64-133.258,297.64-297.64c0-8.703-0.396-17.313-1.128-25.827h46.444v48.355h79.579v-40.776H838.61l66.948-188.21v-328.42
	H771.662z M572.038,251.053h21.52v35.638h-21.52V251.053z M572.038,327.937h21.52v34.886h-21.52V327.937z M572.038,432.23v-28.164
	h21.52v28.164H572.038z"/>
</svg>
