<?xml version="1.0" encoding="utf-8"?>
<!-- Generator: Adobe Illustrator 16.0.0, SVG Export Plug-In . SVG Version: 6.00 Build 0)  -->
<!DOCTYPE svg PUBLIC "-//W3C//DTD SVG 1.1//EN" "http://www.w3.org/Graphics/SVG/1.1/DTD/svg11.dtd">
<svg version="1.1" id="Calque_1" xmlns="http://www.w3.org/2000/svg" xmlns:xlink="http://www.w3.org/1999/xlink" x="0px" y="0px"
	 width="1190.551px" height="1190.551px" viewBox="0 0 1190.551 1190.551" enable-background="new 0 0 1190.551 1190.551"
	 xml:space="preserve">
<path fill="#010202" d="M1161.049,241.855l-42.007-20.488l21.197-43.461l-71.526-34.885l-17.874,36.647l-106.719-52.05
	L801.442,267.433l-107.414,220.23l-11.049-20.779l15.832-8.418l-18.521-34.833l-15.832,8.418l-18.942-35.626l15.832-8.418
	l-18.521-34.833l-15.833,8.418l-20.023-37.659l15.832-8.418l-18.521-34.832l-15.832,8.418l-18.522-34.835l15.832-8.418
	l-18.521-34.834l-15.832,8.419l-19.994-37.604l15.832-8.418l-18.522-34.835l-15.832,8.418l-17.362-32.654l15.832-8.419
	l-18.521-34.833l-15.832,8.418l-15.152-28.498l15.832-8.418L459.164,7.756l-15.832,8.418L434.732,0l-38.001,20.205l-9.26-17.416
	l-36.417,19.363l9.26,17.416L330.23,55.564l-9.26-17.416L284.554,57.51l9.261,17.416l-28.501,15.154l-9.26-17.416l-36.417,19.363
	l9.261,17.416l-31.468,16.731l-9.26-17.416l-36.418,19.363l9.26,17.416l-30.802,16.378l-9.261-17.416l-36.415,19.362l9.26,17.416
	l-24.867,13.223l-9.26-17.416l-36.417,19.363l9.261,17.416l-25.28,13.441l8.601,16.174L0,251.897l18.522,34.835l15.831-8.417
	l15.153,28.498l-15.832,8.417l18.521,34.833l15.831-8.417l17.363,32.654l-15.831,8.418l18.521,34.835l15.831-8.418l19.994,37.604
	l-15.831,8.417l18.521,34.834l15.831-8.418l18.521,34.835l-15.831,8.418l18.521,34.832l15.832-8.418l20.023,37.66l-15.831,8.417
	l18.521,34.834l15.832-8.418l18.942,35.625l-15.832,8.418l18.521,34.833l15.831-8.418l11.049,20.78l25.28-13.441l10.103,19
	l36.416-19.362l-10.103-19.001l24.867-13.222l10.103,19l36.415-19.362l-10.103-19l30.803-16.378l10.103,19l32.254-17.15
	c-40.998,23.579-76.963,57.281-103.776,100.19c-87.109,139.404-44.717,323.029,94.688,410.139s323.029,44.716,410.139-94.688
	c75.827-121.349,53.51-276.192-45.489-371.728l104.718,51.074L1161.049,241.855z M832.311,647.89L817.5,678.259
	c-14.542-13.938-30.716-26.606-48.473-37.702c-95.066-59.404-210.69-58.564-302.253-7.82l-10.046-18.896l31.467-16.731l10.103,19
	l36.416-19.362l-10.103-19.001l28.501-15.153l10.103,19l36.415-19.362l-10.103-19.001l30.084-15.995l10.103,19l36.417-19.363
	l-10.103-19l38-20.205l-36.556,74.95l120.345,58.696l70.323-144.186l26.112,12.736l-70.323,144.185L832.311,647.89z"/>
</svg>
