<?xml version="1.0" encoding="utf-8"?>
<!-- Generator: Adobe Illustrator 16.0.0, SVG Export Plug-In . SVG Version: 6.00 Build 0)  -->
<!DOCTYPE svg PUBLIC "-//W3C//DTD SVG 1.1//EN" "http://www.w3.org/Graphics/SVG/1.1/DTD/svg11.dtd">
<svg version="1.1" id="Calque_1" xmlns="http://www.w3.org/2000/svg" xmlns:xlink="http://www.w3.org/1999/xlink" x="0px" y="0px"
	 width="1190.551px" height="1190.551px" viewBox="0 0 1190.551 1190.551" enable-background="new 0 0 1190.551 1190.551"
	 xml:space="preserve">
<path fill="#010202" d="M698.14,185.115v160.419h-29.052V185.115h-31.58v-34.107H520.034v35.199h-17.931v-36.984h17.931v-39.451
	h-17.931V77.496h17.931V38.043h-17.931V19.725h-43.038V0h-41.245v19.725h-34.071V0h-41.243v19.725h-32.279V0h-41.244v19.725h-35.639
	V0h-41.246v19.725h-34.886V0h-41.243v19.725H87.805V0H46.561v19.725H17.93v18.318H0v39.453h17.93v32.275H0v39.451h17.93v36.984H0
	v39.453h17.93v42.588H0v39.451h17.93v39.452H0v39.45h17.93v42.652H0v39.451h17.93v40.348H0v39.451h17.93v23.535h28.631v21.519
	h41.244v-21.519h28.164v21.519h41.243v-21.519h34.886v21.519h41.246v-21.519h35.639v21.519h28.357h12.887v-21.519h32.279v21.519
	h41.243v-21.519h34.071v21.519h41.245v-21.519h43.038v-23.535h17.931v145.245C465.51,632.298,385.955,593.558,297.34,593.558
	c-164.382,0-297.64,133.258-297.64,297.64s133.258,297.641,297.64,297.641s297.64-133.259,297.64-297.641
	c0-75.566-28.176-144.542-74.576-197.032h46.368v48.354h79.58v-40.774h118.736l66.946-188.21V185.115H698.14z M502.104,225.66
	h17.931v42.588h-17.931V225.66z M502.104,307.699h17.931v39.452h-17.931V307.699z M502.104,386.602h17.931v42.652h-17.931V386.602z
	 M502.104,509.053v-40.348h17.931v40.348H502.104z"/>
</svg>
