<?xml version="1.0" encoding="utf-8"?>
<!-- Generator: Adobe Illustrator 16.0.0, SVG Export Plug-In . SVG Version: 6.00 Build 0)  -->
<!DOCTYPE svg PUBLIC "-//W3C//DTD SVG 1.1//EN" "http://www.w3.org/Graphics/SVG/1.1/DTD/svg11.dtd">
<svg version="1.1" id="Calque_1" xmlns="http://www.w3.org/2000/svg" xmlns:xlink="http://www.w3.org/1999/xlink" x="0px" y="0px"
	 width="1190.551px" height="1190.551px" viewBox="0 0 1190.551 1190.551" enable-background="new 0 0 1190.551 1190.551"
	 xml:space="preserve">
<path fill="#010202" d="M914.309,320.415v160.42h-29.052v-160.42h-31.579V286.31H736.205v-38.884h-21.521v-32.279h21.521v-41.242
	h-21.521v-34.072h21.521V98.586h-21.521V55.549h-23.532V37.618H651.7v17.931h-40.35V37.618h-39.448v17.931h-42.653V37.618h-39.45
	v17.931h-39.452V37.618h-39.45v17.931h-42.589V37.618h-39.453v17.931H291.87V37.618h-39.451v17.931h-32.275V37.618h-39.453v17.931
	h-18.318v43.038h-19.725v41.245h19.725v34.072h-19.725v41.242h19.725v32.279h-19.725v41.245h19.725v35.638h-19.725v41.246h19.725
	v34.886h-19.725v41.243h19.725v28.164h-19.725v41.244h19.725v28.631h18.318v17.931h39.453v-17.931h32.274v17.931h39.451v-17.931
	h36.984v17.931h39.453v-17.931h42.588v17.931h29.092h10.359v-17.931h39.451v17.931h39.45v-17.931h42.653v17.931h39.448v-17.931
	h40.35v17.931h39.452v-17.931h23.532v-28.631h21.521v315.062c-14.646-150.703-141.669-268.5-296.218-268.5
	c-164.382,0-297.64,133.257-297.64,297.64c0,164.381,133.258,297.641,297.64,297.641s297.64-133.26,297.64-297.641
	c0-8.703-0.396-17.312-1.128-25.828h46.444v48.355h79.579v-40.775h118.736l66.948-188.211V320.415H914.309z M714.685,288.67h21.521
	v35.638h-21.521V288.67z M714.685,365.555h21.521v34.886h-21.521V365.555z M714.685,469.848v-28.164h21.521v28.164H714.685z"/>
</svg>
