<?xml version="1.0" encoding="utf-8"?>
<!-- Generator: Adobe Illustrator 16.0.0, SVG Export Plug-In . SVG Version: 6.00 Build 0)  -->
<!DOCTYPE svg PUBLIC "-//W3C//DTD SVG 1.1//EN" "http://www.w3.org/Graphics/SVG/1.1/DTD/svg11.dtd">
<svg version="1.1" id="Calque_1" xmlns="http://www.w3.org/2000/svg" xmlns:xlink="http://www.w3.org/1999/xlink" x="0px" y="0px"
	 width="1190.551px" height="1190.551px" viewBox="0 0 1190.551 1190.551" enable-background="new 0 0 1190.551 1190.551"
	 xml:space="preserve">
<path fill="#010202" d="M1175.8,241.806l-42.008-20.488l21.197-43.461l-71.525-34.885l-17.874,36.646l-106.72-52.05L816.193,267.384
	L708.779,487.613l-11.049-20.779l15.832-8.418l-18.521-34.833l-15.832,8.418l-18.941-35.626l15.832-8.418l-18.521-34.833
	l-15.833,8.418l-20.022-37.658l15.832-8.418l-18.521-34.832l-15.832,8.418l-18.521-34.835l15.832-8.418l-18.521-34.834
	l-15.832,8.419l-19.994-37.604l15.832-8.418l-18.521-34.835l-15.832,8.418L510.28,114.29l15.832-8.419l-18.521-34.833l-15.832,8.418
	l-15.152-28.498l15.832-8.418L473.914,7.706l-15.832,8.418l-8.6-16.174l-38.001,20.205l-9.26-17.416l-36.417,19.363l9.26,17.416
	l-30.084,15.996l-9.26-17.416L299.305,57.46l9.261,17.416L280.065,90.03l-9.26-17.416l-36.417,19.363l9.261,17.416l-31.468,16.73
	l-9.26-17.416l-36.418,19.363l9.26,17.416l-30.802,16.378l-9.262-17.416l-36.414,19.362l9.26,17.416L83.678,194.45l-9.26-17.416
	l-36.417,19.363l9.261,17.416l-25.28,13.441l8.602,16.174l-15.832,8.419l18.521,34.835l15.831-8.417l15.153,28.498l-15.832,8.417
	l18.521,34.833l15.831-8.417l17.363,32.653l-15.831,8.418l18.521,34.835l15.831-8.418l19.993,37.604l-15.831,8.417l18.521,34.834
	l15.831-8.418l18.521,34.835l-15.831,8.418l18.521,34.832l15.832-8.418l20.023,37.66l-15.831,8.417l18.521,34.834l15.832-8.419
	l18.942,35.625l-15.832,8.419l18.521,34.832l15.831-8.418l11.049,20.78l25.28-13.44l10.103,19l36.416-19.362l-10.103-19.001
	l24.867-13.222l10.103,19l36.415-19.362l-10.103-19l30.803-16.378l10.103,19l32.254-17.15
	c-40.998,23.579-76.962,57.281-103.775,100.19c-87.109,139.404-44.717,323.029,94.688,410.139
	c139.405,87.11,323.029,44.716,410.14-94.688c75.826-121.35,53.51-276.192-45.489-371.729l104.718,51.074L1175.8,241.806z
	 M847.062,647.84l-14.811,30.369c-14.543-13.938-30.717-26.605-48.474-37.702c-95.065-59.403-210.689-58.563-302.253-7.819
	l-10.046-18.896l31.467-16.73l10.104,19l36.416-19.362l-10.104-19.001l28.501-15.153l10.104,19l36.415-19.361l-10.104-19.001
	l30.084-15.995l10.104,19l36.417-19.363l-10.104-19l38-20.205l-36.556,74.95l120.345,58.696l70.323-144.187l26.111,12.736
	L818.68,633.999L847.062,647.84z"/>
</svg>
