<?xml version="1.0" encoding="utf-8"?>
<!-- Generator: Adobe Illustrator 16.0.0, SVG Export Plug-In . SVG Version: 6.00 Build 0)  -->
<!DOCTYPE svg PUBLIC "-//W3C//DTD SVG 1.1//EN" "http://www.w3.org/Graphics/SVG/1.1/DTD/svg11.dtd">
<svg version="1.1" id="Calque_1" xmlns="http://www.w3.org/2000/svg" xmlns:xlink="http://www.w3.org/1999/xlink" x="0px" y="0px"
	 width="1190.551px" height="1190.551px" viewBox="0 0 1190.551 1190.551" enable-background="new 0 0 1190.551 1190.551"
	 xml:space="preserve">
<path fill="#010202" d="M609.34,515.097c-18.38,0-36.366,1.678-53.825,4.867v-17.86h18.317v-43.038h19.726v-41.245h-19.726v-34.071
	h19.726v-41.243h-19.726v-32.279h19.726v-41.244h-19.726v-35.639h19.726v-41.246h-19.726v-34.886h19.726v-41.243h-19.726V87.805
	h19.726V46.561h-19.726V17.93h-18.317V0h-39.453v17.93h-32.276V0h-39.451v17.93h-36.983V0h-39.453v17.93H325.31V0h-39.451v17.93
	h-39.453V0h-39.449v17.93h-42.652V0h-39.451v17.93H84.505V0H45.054v17.93H21.519v28.631H0v41.244h21.519v28.164H0v41.243h21.519
	v34.886H0v41.246h21.519v35.639H0v41.244h21.519v32.279H0v41.243h21.519v34.071H0v41.245h21.519v43.038h23.535v17.932h39.451
	v-17.932h40.348v17.932h39.451v-17.932h42.652v17.932h-21.273v40.774H66.948L0,749.02v328.42h133.895V917.02h29.053v160.42h31.579
	v34.107H312V825.751c6.815,158.341,137.32,284.625,297.34,284.625c164.382,0,297.64-133.258,297.64-297.64
	S773.722,515.097,609.34,515.097z M312,799.722V568.389h-46.737v-48.354h-18.857v-17.932h39.453v17.932h39.451v-17.932h42.588
	v17.932h39.453v-17.932h36.983v17.932h39.451v-17.932h32.276v17.932h39.079C420.782,544.757,318.027,659.698,312,799.722z"/>
</svg>
