<?xml version="1.0" encoding="utf-8"?>
<!-- Generator: Adobe Illustrator 16.0.0, SVG Export Plug-In . SVG Version: 6.00 Build 0)  -->
<!DOCTYPE svg PUBLIC "-//W3C//DTD SVG 1.1//EN" "http://www.w3.org/Graphics/SVG/1.1/DTD/svg11.dtd">
<svg version="1.1" id="Calque_1" xmlns="http://www.w3.org/2000/svg" xmlns:xlink="http://www.w3.org/1999/xlink" x="0px" y="0px"
	 width="1190.551px" height="1190.551px" viewBox="0 0 1190.551 1190.551" enable-background="new 0 0 1190.551 1190.551"
	 xml:space="preserve">
<path fill="#010202" d="M1129.981,587.881V469.145l-188.209-66.948h-328.42v-1.606h-21.521v-34.886h21.521v-41.246h-21.521v-35.638
	h21.521v-41.245h-21.521v-32.279h21.521v-41.242h-21.521v-34.072h21.521V98.737h-21.521V55.699h-23.532V37.768h-39.452v17.931
	h-40.35V37.768h-39.448v17.931h-42.653V37.768h-39.45v17.931h-39.452V37.768h-39.45v17.931h-42.589V37.768h-39.453v17.931h-36.984
	V37.768h-39.451v17.931H97.29V37.768H57.837v17.931H39.518v43.038H19.794v41.245h19.725v34.072H19.794v41.242h19.725v32.279H19.794
	v41.245h19.725v35.638H19.794v41.246h19.725v34.886H19.794v41.243h19.725v28.164H19.794v41.244h19.725v28.631h18.318v17.931H97.29
	v-17.931h32.274v17.931h39.451v-17.931H206v17.931h39.453v-17.931h42.588v17.931h16.377
	c-158.34,6.815-284.624,137.322-284.624,297.339c0,164.383,133.258,297.641,297.64,297.641s297.639-133.258,297.639-297.641
	c0-50.996-12.834-98.99-35.434-140.945h542.764v-46.734h48.355v-79.582L1129.981,587.881L1129.981,587.881z M591.831,441.834h21.521
	v28.164h-21.521V441.834z M773.772,565.145h-160.42v31.58h-34.107v116.727c-48.873-90.113-142.914-152.144-251.751-155.76v-17.818
	h39.451v17.931h39.45v-17.931h42.653v17.931h39.448v-17.931h40.35v17.931h39.452v-17.931h23.532v-28.631h21.521v24.852h160.42
	V565.145z"/>
</svg>
