<?xml version="1.0" encoding="utf-8"?>
<!-- Generator: Adobe Illustrator 16.0.0, SVG Export Plug-In . SVG Version: 6.00 Build 0)  -->
<!DOCTYPE svg PUBLIC "-//W3C//DTD SVG 1.1//EN" "http://www.w3.org/Graphics/SVG/1.1/DTD/svg11.dtd">
<svg version="1.1" id="Calque_1" xmlns="http://www.w3.org/2000/svg" xmlns:xlink="http://www.w3.org/1999/xlink" x="0px" y="0px"
	 width="1190.551px" height="1190.551px" viewBox="0 0 1190.551 1190.551" enable-background="new 0 0 1190.551 1190.551"
	 xml:space="preserve">
<path fill="#010202" d="M858.821,277.778v-48.354h-79.58v40.775H660.507l-66.949,188.21v-40.588h-19.726v-34.071h19.726v-41.243
	h-19.726v-32.279h19.726v-41.244h-19.726v-35.639h19.726v-41.246h-19.726v-34.886h19.726v-41.243h-19.726V87.805h19.726V46.561
	h-19.726V17.93h-18.317V0h-39.453v17.93h-32.276V0h-39.451v17.93h-36.983V0h-39.453v17.93H325.31V0h-39.451v17.93h-39.453V0h-39.449
	v17.93h-42.652V0h-39.451v17.93H84.505V0H45.054v17.93H21.519v28.631H0v41.244h21.519v28.164H0v41.243h21.519v34.886H0v41.246
	h21.519v35.639H0v41.244h21.519v32.279H0v41.243h21.519v34.071H0v41.245h21.519v43.038h23.535v17.932h39.451v-17.932h40.348v17.932
	h39.451v-17.932h42.652v17.932h39.449v-17.932h39.453v17.885C126.941,526.177,0,656.941,0,817.375
	c0,164.382,133.258,297.64,297.64,297.64s297.64-133.258,297.64-297.64c0-10.312-0.526-20.503-1.55-30.546h133.723v-160.42h29.055
	v160.42h31.577v34.104h117.474V277.778H858.821z M310.654,520.035h14.656v-17.932h42.588v17.932h39.453v-17.932h36.983v17.932
	h39.451v-17.932h32.276v17.932h39.453v-17.932h18.317v-43.038h19.726v326.259C578.024,640.26,458.279,526.389,310.654,520.035z"/>
</svg>
