<?xml version="1.0" encoding="utf-8"?>
<!-- Generator: Adobe Illustrator 16.0.0, SVG Export Plug-In . SVG Version: 6.00 Build 0)  -->
<!DOCTYPE svg PUBLIC "-//W3C//DTD SVG 1.1//EN" "http://www.w3.org/Graphics/SVG/1.1/DTD/svg11.dtd">
<svg version="1.1" id="Calque_1" xmlns="http://www.w3.org/2000/svg" xmlns:xlink="http://www.w3.org/1999/xlink" x="0px" y="0px"
	 width="1190.551px" height="1190.551px" viewBox="0 0 1190.551 1190.551" enable-background="new 0 0 1190.551 1190.551"
	 xml:space="preserve">
<path fill="#010202" d="M1052.841,548.379V429.645l-188.21-66.948h-328.42v133.895h160.42v29.054h-160.42v31.578h-34.107v-8.719
	h17.931v-39.451h-17.931v-40.348h17.931v-39.451h-17.931v-42.652h17.931v-39.45h-17.931v-39.452h17.931v-39.451h-17.931V225.66
	h17.931v-39.453h-17.931v-36.984h17.931v-39.451h-17.931V77.496h17.931V38.043h-17.931V19.725h-43.038V0h-41.245v19.725h-34.071V0
	h-41.243v19.725h-32.279V0h-41.244v19.725h-35.639V0h-41.246v19.725h-34.886V0h-41.243v19.725H87.805V0H46.561v19.725H17.93v18.318
	H0v39.453h17.93v32.275H0v39.451h17.93v36.984H0v39.453h17.93v42.588H0v39.451h17.93v39.452H0v39.45h17.93v42.652H0v39.451h17.93
	v40.348H0v39.451h17.93v23.535h28.631v21.519h41.244v-21.519h28.164v21.519h41.243v-21.519h34.886v21.519h41.246v-21.519h35.639
	v21.519h15.643C126.284,600.373,0,730.878,0,890.898c0,164.383,133.258,297.641,297.64,297.641s297.64-133.258,297.64-297.641
	c0-85.154-35.768-161.948-93.09-216.2h543.071v-46.738h48.354v-79.58H1052.841z M310.227,593.542v-21.502h32.279v21.519h41.243
	v-21.519h34.071v21.519h41.245v-21.519h43.038v102.578C451.621,626.876,384.434,596.63,310.227,593.542z"/>
</svg>
