<?xml version="1.0" encoding="utf-8"?>
<!-- Generator: Adobe Illustrator 16.0.0, SVG Export Plug-In . SVG Version: 6.00 Build 0)  -->
<!DOCTYPE svg PUBLIC "-//W3C//DTD SVG 1.1//EN" "http://www.w3.org/Graphics/SVG/1.1/DTD/svg11.dtd">
<svg version="1.1" id="Calque_1" xmlns="http://www.w3.org/2000/svg" xmlns:xlink="http://www.w3.org/1999/xlink" x="0px" y="0px"
	 width="1190.551px" height="1190.551px" viewBox="0 0 1190.551 1190.551" enable-background="new 0 0 1190.551 1190.551"
	 xml:space="preserve">
<g>
	<path fill="#010202" d="M692.526,595.469c-101.553-3.546-192.981,44.227-249.363,120.022l18.759-30.02l-15.204-9.502l17.102-27.371
		l15.207,9.502l20.904-33.456l-15.205-9.502l19.6-31.365l15.205,9.502l20.907-33.459l-15.205-9.502l22.567-36.115l15.206,9.501
		l20.905-33.457l-15.205-9.5l20.906-33.458l15.207,9.502l20.903-33.455l-15.204-9.501l22.603-36.172l15.204,9.501l20.907-33.456
		l-15.207-9.502l21.383-34.217l15.204,9.501l20.906-33.456l-15.206-9.502l12.473-19.959l-24.28-15.172l11.402-18.249l-34.977-21.856
		l-11.403,18.249l-23.884-14.925l11.402-18.248l-34.976-21.855l-11.403,18.248l-29.585-18.487l11.403-18.248l-34.979-21.856
		l-11.403,18.248l-30.223-18.886l11.402-18.248l-34.978-21.856l-11.401,18.249l-27.375-17.106l11.402-18.248L409.955,44.47
		l-11.403,18.248l-28.895-18.055l11.403-18.249L346.083,4.559l-11.402,18.248L298.182,0l-12.473,19.959l-15.206-9.502
		l-20.906,33.457l15.207,9.502l-21.382,34.217l-15.205-9.502l-20.907,33.456l15.207,9.502l-22.603,36.172l-15.207-9.502
		l-20.904,33.455l15.206,9.502l-20.905,33.456l-15.207-9.501l-20.906,33.456l15.206,9.502l-22.567,36.117l-15.207-9.502
		l-20.906,33.458l15.205,9.501L74.122,358.57l-15.206-9.502L38.01,382.525l15.206,9.502l-17.103,27.37l-15.207-9.502L0,443.353
		l15.206,9.502l-9.708,15.536l36.5,22.807l-10.452,16.727l34.976,21.857l10.452-16.727l28.896,18.054l-10.452,16.729l34.976,21.855
		l10.453-16.729l27.374,17.105l-10.452,16.728l34.977,21.855l10.452-16.726l30.225,18.885l-10.452,16.727l34.978,21.858
		l10.452-16.729l29.586,18.487l-10.453,16.727l34.977,21.855l10.451-16.727l23.885,14.924l-10.452,16.728l34.978,21.855
		l10.452-16.727l24.28,15.172l9.707-15.535l14.939,9.336c-33.407,46.213-53.929,102.505-56.068,163.775
		c-5.736,164.281,122.789,302.108,287.07,307.845c164.281,5.737,302.108-122.789,307.846-287.07
		C985.332,739.032,856.807,601.205,692.526,595.469z"/>
	<path fill="#010202" d="M92.04,601.564c-54.152,24.11-78.592,87.78-54.482,141.931c24.109,54.149,87.779,78.592,141.931,54.48
		c54.151-24.108,78.589-87.774,54.482-141.929C209.862,601.896,146.19,577.455,92.04,601.564z"/>
	<path fill="#010202" d="M32.757,1005.789c-42.641,41.177-43.826,109.363-2.653,152.004c41.176,42.64,109.366,43.828,152.005,2.653
		c42.64-41.176,43.829-109.365,2.653-152.005C143.587,965.805,75.397,964.613,32.757,1005.789z"/>
</g>
</svg>
