<?xml version="1.0" encoding="utf-8"?>
<!-- Generator: Adobe Illustrator 16.0.0, SVG Export Plug-In . SVG Version: 6.00 Build 0)  -->
<!DOCTYPE svg PUBLIC "-//W3C//DTD SVG 1.1//EN" "http://www.w3.org/Graphics/SVG/1.1/DTD/svg11.dtd">
<svg version="1.1" id="Calque_1" xmlns="http://www.w3.org/2000/svg" xmlns:xlink="http://www.w3.org/1999/xlink" x="0px" y="0px"
	 width="1190.551px" height="1190.551px" viewBox="0 0 1190.551 1190.551" enable-background="new 0 0 1190.551 1190.551"
	 xml:space="preserve">
<g>
	<path fill="#010202" d="M797.917,595.461c-101.553-3.546-192.98,44.228-249.363,120.022l18.76-30.021l-15.204-9.502l17.102-27.371
		l15.207,9.502l20.904-33.456l-15.205-9.502l19.599-31.365l15.205,9.502l20.907-33.459l-15.205-9.502l22.567-36.115l15.206,9.501
		l20.904-33.457l-15.205-9.5l20.906-33.458l15.207,9.502l20.903-33.455l-15.204-9.501l22.603-36.172l15.204,9.501l20.907-33.456
		l-15.207-9.502l21.383-34.217l15.204,9.501l20.906-33.456l-15.206-9.502l12.473-19.959l-24.279-15.172l11.401-18.249
		l-34.977-21.856l-11.403,18.249l-23.884-14.925l11.402-18.248l-34.977-21.855l-11.403,18.248l-29.585-18.487l11.403-18.248
		l-34.979-21.856l-11.403,18.248l-30.223-18.886l11.401-18.248l-34.977-21.856l-11.401,18.249l-27.375-17.106l11.402-18.248
		l-34.974-21.857L503.944,62.71L475.05,44.655l11.402-18.249L451.475,4.551l-11.402,18.248L403.574-0.008l-12.473,19.959
		l-15.206-9.502l-20.906,33.457l15.207,9.502l-21.382,34.217l-15.205-9.502l-20.907,33.456l15.207,9.502l-22.603,36.172
		l-15.207-9.502l-20.904,33.455l15.206,9.502l-20.905,33.456l-15.207-9.501l-20.905,33.456l15.205,9.502l-22.566,36.117
		l-15.207-9.502l-20.906,33.458l15.205,9.501l-19.6,31.367l-15.206-9.502l-20.906,33.457l15.206,9.502l-17.104,27.37l-15.207-9.502
		l-20.905,33.458l15.206,9.502l-9.708,15.536l36.5,22.807l-10.452,16.727l34.976,21.857l10.452-16.727l28.896,18.054L200.81,547.83
		l34.976,21.855l10.453-16.729l27.374,17.105l-10.452,16.728l34.978,21.855l10.452-16.727l30.225,18.885l-10.452,16.728
		l34.979,21.858l10.451-16.729l29.586,18.487l-10.452,16.727l34.977,21.855l10.451-16.728l23.885,14.924l-10.452,16.729
		l34.979,21.854l10.452-16.727l24.279,15.172l9.707-15.535l14.939,9.336c-33.407,46.213-53.93,102.505-56.068,163.775
		c-5.736,164.281,122.789,302.107,287.07,307.845c164.28,5.737,302.107-122.789,307.846-287.07
		C1090.723,739.024,962.198,601.197,797.917,595.461z"/>
	<path fill="#010202" d="M197.432,601.557c-54.152,24.109-78.593,87.779-54.482,141.931c24.109,54.148,87.779,78.592,141.931,54.479
		c54.151-24.107,78.59-87.773,54.482-141.929C315.254,601.889,251.582,577.447,197.432,601.557z"/>
	<path fill="#010202" d="M138.149,1005.781c-42.641,41.177-43.826,109.363-2.653,152.004c41.176,42.64,109.366,43.828,152.005,2.653
		c42.641-41.177,43.829-109.365,2.653-152.005C248.979,965.797,180.789,964.605,138.149,1005.781z"/>
</g>
</svg>
