<?xml version="1.0" encoding="utf-8"?>
<!-- Generator: Adobe Illustrator 16.0.0, SVG Export Plug-In . SVG Version: 6.00 Build 0)  -->
<!DOCTYPE svg PUBLIC "-//W3C//DTD SVG 1.1//EN" "http://www.w3.org/Graphics/SVG/1.1/DTD/svg11.dtd">
<svg version="1.1" id="Calque_1" xmlns="http://www.w3.org/2000/svg" xmlns:xlink="http://www.w3.org/1999/xlink" x="0px" y="0px"
	 width="1190.551px" height="1190.551px" viewBox="0 0 1190.551 1190.551" enable-background="new 0 0 1190.551 1190.551"
	 xml:space="preserve">
<path fill="#010202" d="M662.748,975.682c-34.659-1.21-66.108,14.215-86.659,39.083c58.08-82.794,72.51-193.124,28.381-292.238
	c-8.458-18.996-18.667-36.664-30.342-52.911c29.757,37.496,82.243,51.734,127.948,31.385c54.15-24.11,78.588-87.776,54.482-141.931
	c-24.109-54.15-87.781-78.591-141.931-54.482c-7.666,3.413-14.734,7.62-21.156,12.479l-1.862-17.712l23.406-2.461l-2.991-28.473
	l21.4-2.25l-4.312-41.019l-21.401,2.249l-2.942-28.01l21.398-2.249l-4.31-41.017l-21.401,2.25l-3.646-34.696l21.401-2.249
	l-4.312-41.02L592.5,282.66l-3.725-35.443l21.399-2.249l-4.312-41.019l-21.398,2.25l-3.375-32.104l21.399-2.249l-4.311-41.017
	l-21.4,2.249l-3.562-33.886l21.4-2.249l-4.312-41.018l-21.399,2.249l-4.499-42.804L541,17.832L539.126,0l-39.235,4.123l1.874,17.833
	l-40.126,4.219l-1.875-17.834l-39.234,4.124l1.874,17.833l-42.419,4.458l-1.875-17.833l-39.232,4.124l1.874,17.833l-39.235,4.123
	l-1.875-17.832l-39.234,4.123l1.874,17.834l-42.354,4.451l-1.874-17.833l-39.237,4.124l1.874,17.833l-36.783,3.865l-1.874-17.832
	l-39.235,4.123l1.875,17.834l-32.099,3.373l-1.874-17.832l-39.237,4.124l1.875,17.832l-18.219,1.915l4.499,42.804L0,117.97
	l4.311,41.019l19.616-2.062l3.562,33.886l-19.616,2.061l4.312,41.018l19.616-2.062l3.374,32.102l-19.616,2.062l4.312,41.021
	l19.615-2.062l3.727,35.443l-19.617,2.061l4.312,41.021l19.615-2.062l3.647,34.695l-19.617,2.061l4.312,41.019l19.616-2.062
	l2.944,28.009l-19.617,2.062l4.312,41.017l19.615-2.061l2.992,28.474l18.219-1.914l1.874,17.832l39.237-4.124l-1.874-17.832
	l32.098-3.375l1.875,17.833l39.235-4.125l-1.875-17.831l36.784-3.866l1.874,17.831l39.236-4.123l-1.874-17.831l42.354-4.453
	l1.868,17.771c-34.701,2.074-69.624,10.287-103.254,25.26C61.334,638.54-6.202,814.478,60.658,964.648
	c66.859,150.17,242.797,217.706,392.967,150.846c46.913-20.887,85.762-52.42,114.967-90.486
	c-10.154,15.739-16.331,34.317-17.031,54.357c-2.067,59.24,44.445,109.116,103.685,111.187
	c59.235,2.067,109.116-44.444,111.185-103.685C768.501,1027.628,721.985,977.754,662.748,975.682z M316.014,546.35l37.985-3.994
	l-1.874-17.831l39.236-4.123l1.875,17.83l39.231-4.122l-1.874-17.833l42.42-4.457l1.874,17.831l39.234-4.123l-1.874-17.832
	l40.127-4.219l1.874,17.832l39.043-4.104c-38.806,29.496-53.81,82.899-33.146,129.312c2.721,6.11,5.949,11.838,9.606,17.165
	C509.699,584.364,413.814,540.924,316.014,546.35z"/>
</svg>
