<?xml version="1.0" encoding="utf-8"?>
<!-- Generator: Adobe Illustrator 16.0.0, SVG Export Plug-In . SVG Version: 6.00 Build 0)  -->
<!DOCTYPE svg PUBLIC "-//W3C//DTD SVG 1.1//EN" "http://www.w3.org/Graphics/SVG/1.1/DTD/svg11.dtd">
<svg version="1.1" id="Calque_1" xmlns="http://www.w3.org/2000/svg" xmlns:xlink="http://www.w3.org/1999/xlink" x="0px" y="0px"
	 width="1190.551px" height="1190.551px" viewBox="0 0 1190.551 1190.551" enable-background="new 0 0 1190.551 1190.551"
	 xml:space="preserve">
<path fill="#010202" d="M830.508,518.071c-32.597,0-61.846,14.585-81.576,37.569v-38.72h-17.93v-32.274h17.93v-39.45h-17.93v-36.987
	h17.93v-39.453h-17.93v-42.588h17.93v-39.451h-17.93v-39.451h17.93v-39.304c9.979,49.021,53.42,86.028,105.345,86.028
	c59.275,0,107.5-48.226,107.5-107.5c0-59.273-48.225-107.5-107.5-107.5c-51.928,0-95.367,37.01-105.345,86.033v-39.311h-17.93
	V85.364h17.93V45.913h-17.93V22.377h-28.631V0.859h-41.244v21.518h-28.164V0.859H591.72v21.518h-34.886V0.859h-41.246v21.518H479.95
	V0.859h-41.245v21.518h-32.279V0.859h-41.241v21.518h-34.072V0.859h-41.245v21.518h-43.039v23.536h-17.931v39.451h17.931v40.348
	h-17.931v39.451h17.931v42.653h-17.931v39.449h17.931v39.451h-17.931v39.451h17.931v42.588h-17.931v39.453h17.931v36.987h-17.931
	v39.45h17.931v32.274h-17.931v39.453h17.931v18.319h43.039v19.724h41.244v-19.724h34.072v19.724h41.241v-19.724h32.279v19.724
	h41.245v-19.724h35.638v19.724h10.827h30.419v-19.724h34.886v19.724h41.243v-19.724h28.164v19.724h41.244v-19.724h28.631v-18.319
	h17.311c-15.777,18.712-25.303,42.86-25.305,69.196c0,23.193,7.385,44.695,19.926,62.279
	c-54.27-57.521-131.195-93.434-216.519-93.434c-164.382,0-297.64,133.258-297.64,297.639c0,164.383,133.258,297.639,297.64,297.639
	c164.381,0,297.639-133.256,297.639-297.639c0-71.266-25.06-136.672-66.831-187.914c19.217,17.936,44.989,28.93,73.285,28.93
	c59.276,0,107.5-48.227,107.5-107.5C938.008,566.296,889.784,518.071,830.508,518.071z M731.002,165.163h17.903
	c-1.395,6.896-2.129,14.026-2.129,21.326c0,7.3,0.734,14.432,2.128,21.327h-17.902V165.163L731.002,165.163z"/>
</svg>
