<?xml version="1.0" encoding="utf-8"?>
<!-- Generator: Adobe Illustrator 16.0.0, SVG Export Plug-In . SVG Version: 6.00 Build 0)  -->
<!DOCTYPE svg PUBLIC "-//W3C//DTD SVG 1.1//EN" "http://www.w3.org/Graphics/SVG/1.1/DTD/svg11.dtd">
<svg version="1.1" id="Calque_1" xmlns="http://www.w3.org/2000/svg" xmlns:xlink="http://www.w3.org/1999/xlink" x="0px" y="0px"
	 width="1190.551px" height="1190.551px" viewBox="0 0 1190.551 1190.551" enable-background="new 0 0 1190.551 1190.551"
	 xml:space="preserve">
<g>
	<path fill="#010202" d="M940.494,831.161c-34.176-160.789-192.228-263.429-353.018-229.252
		c-65.645,13.953-121.59,48.561-162.497,95.566l-13.594-11.407l25.935-30.908l13.736,11.525l25.358-30.221l-13.735-11.526
		l27.416-32.674l13.736,11.525l25.357-30.219l-13.736-11.526l25.359-30.222l13.736,11.525l25.358-30.221l-13.735-11.526
		l27.375-32.624l13.735,11.526l25.36-30.224l-13.736-11.525l23.774-28.333l13.735,11.526l25.359-30.222l-13.736-11.525
		l20.746-24.725l13.736,11.525l25.359-30.223l-13.736-11.525l11.775-14.033l-32.97-27.665l12.679-15.109l-31.595-26.511
		l-12.679,15.109l-26.101-21.901l12.679-15.109l-31.594-26.511l-12.679,15.109l-24.728-20.749l12.679-15.108l-31.596-26.512
		l-12.679,15.108l-27.3-22.907l12.679-15.109L501.12,96.843l-12.679,15.109l-26.724-22.424l12.678-15.108l-31.594-26.512
		l-12.679,15.109l-21.574-18.104l12.679-15.109l-31.596-26.51l-12.678,15.108L355.022,0l-11.775,14.033L329.511,2.507l-25.36,30.223
		l13.735,11.525L297.14,68.981l-13.734-11.526l-25.359,30.221L271.781,99.2l-23.774,28.333l-13.734-11.524l-25.36,30.222
		l13.735,11.526l-27.375,32.624l-13.735-11.525l-25.358,30.222l13.735,11.525l-25.359,30.222l-13.735-11.525l-25.357,30.221
		l13.735,11.524l-27.417,32.675l-13.734-11.526l-25.359,30.222l13.735,11.525l-25.935,30.908l-13.736-11.524L1.394,393.544
		l13.734,11.524L0,423.099l21.932,18.404L8.101,457.986l31.595,26.513l13.832-16.485l21.574,18.104L61.27,502.6l31.595,26.511
		l13.831-16.482l26.725,22.424l-13.832,16.484l31.597,26.512l13.832-16.484l27.3,22.909l-13.832,16.483l31.597,26.511l13.832-16.483
		l24.727,20.748l-13.832,16.483l31.594,26.511l13.831-16.482l26.103,21.9l-13.832,16.483l31.595,26.511l13.832-16.482l32.97,27.664
		l15.128-18.03l13.735,11.526l14.503-17.285c-51.833,66.835-75.003,155.188-56.042,244.396
		c34.177,160.789,192.229,263.429,353.018,229.252S974.672,991.951,940.494,831.161z"/>
	<path fill="#010202" d="M209.914,908.496c22.206-54.959-4.442-117.737-59.401-139.942c-54.957-22.204-117.737,4.442-139.942,59.402
		s4.446,117.734,59.401,139.942c11.77,4.755,23.897,7.263,35.908,7.739c-47.577,0.691-90.728,33.194-102.769,81.488
		c-14.34,57.515,20.786,115.973,78.3,130.312c57.515,14.34,115.974-20.784,130.313-78.3c14.341-57.517-20.784-115.969-78.3-130.313
		c-7.198-1.794-14.41-2.813-21.549-3.112C153.768,975.02,193.258,949.723,209.914,908.496z"/>
</g>
</svg>
