<?xml version="1.0" encoding="utf-8"?>
<!-- Generator: Adobe Illustrator 16.0.0, SVG Export Plug-In . SVG Version: 6.00 Build 0)  -->
<!DOCTYPE svg PUBLIC "-//W3C//DTD SVG 1.1//EN" "http://www.w3.org/Graphics/SVG/1.1/DTD/svg11.dtd">
<svg version="1.1" id="Calque_1" xmlns="http://www.w3.org/2000/svg" xmlns:xlink="http://www.w3.org/1999/xlink" x="0px" y="0px"
	 width="1190.551px" height="1190.551px" viewBox="0 0 1190.551 1190.551" enable-background="new 0 0 1190.551 1190.551"
	 xml:space="preserve">
<path fill="#010202" d="M859.104,954.877c-36.879,0-69.475,18.67-88.846,47.049c30.941-46.941,48.967-103.15,48.967-163.578
	c0-60.139-17.854-116.1-48.523-162.906c19.48,27.586,51.604,45.637,87.865,45.637c59.275,0,107.5-48.225,107.5-107.5
	c0-59.274-48.225-107.5-107.5-107.5c-31.104,0-59.158,13.283-78.805,34.468v-17.769h18.318v-43.039h19.725v-41.244H798.08v-34.071
	h19.725V363.18H798.08v-32.279h19.725v-41.245H798.08v-35.638h19.725v-41.246H798.08v-34.886h19.725v-41.243H798.08v-28.165h19.725
	V67.234H798.08V38.604h-18.318v-17.93h-39.453v17.93h-32.275v-17.93h-39.451v17.93h-36.986v-17.93h-39.453v17.93h-42.588v-17.93
	h-39.451v17.93h-39.452v-17.93h-39.447v17.93h-42.653v-17.93H349.1v17.93h-40.349v-17.93h-39.451v17.93h-23.536v28.631h-21.518
	v41.244h21.518v28.164h-21.518v41.243h21.518v34.886h-21.518v41.246h21.518v35.638h-21.518V330.9h21.518v32.279h-21.518v41.243
	h21.518v34.071h-21.518v41.244h21.518v43.039h23.536v17.932h39.451v-17.932h40.348v17.932h39.451v-17.932h42.653v17.932h39.447
	v-17.932h39.452v17.932h11.481h27.97v-17.932h42.588v17.932h39.454v-17.932h36.986v17.932h39.449v-17.932h32.275v17.932h39.301
	c-17.707,19.171-28.543,44.776-28.543,72.869c0,20.997,6.057,40.604,16.508,57.177c-53.59-78.504-143.766-130.045-245.988-130.045
	c-164.38,0-297.638,133.256-297.638,297.639c0,164.381,133.258,297.639,297.639,297.639c102.702,0,193.252-52.018,246.749-131.143
	c-10.59,16.646-16.73,36.385-16.73,57.533c0,59.273,48.225,107.5,107.5,107.5s107.496-48.225,107.5-107.5
	C966.604,1003.102,918.377,954.877,859.104,954.877z"/>
</svg>
