<?xml version="1.0" encoding="utf-8"?>
<!-- Generator: Adobe Illustrator 16.0.0, SVG Export Plug-In . SVG Version: 6.00 Build 0)  -->
<!DOCTYPE svg PUBLIC "-//W3C//DTD SVG 1.1//EN" "http://www.w3.org/Graphics/SVG/1.1/DTD/svg11.dtd">
<svg version="1.1" id="Calque_1" xmlns="http://www.w3.org/2000/svg" xmlns:xlink="http://www.w3.org/1999/xlink" x="0px" y="0px"
	 width="1190.551px" height="1190.551px" viewBox="0 0 1190.551 1190.551" enable-background="new 0 0 1190.551 1190.551"
	 xml:space="preserve">
<path fill="#010202" d="M899.999,621.036c-128.525-57.224-275.917-15.987-357.654,91.232l15.521-21.365l-14.507-10.54l23.716-32.641
	l14.507,10.538l23.189-31.915l-14.506-10.541l25.07-34.508l14.509,10.54l23.187-31.915l-14.507-10.54l23.189-31.917l14.507,10.54
	l23.188-31.917L684.9,485.549l25.033-34.454l14.507,10.54l23.189-31.919l-14.508-10.539l21.74-29.923l14.507,10.54l23.188-31.917
	l-14.507-10.54l18.971-26.11l14.507,10.539l23.189-31.917l-14.506-10.539l10.768-14.82l-34.818-25.298l11.593-15.958l-33.366-24.243
	l-11.593,15.957l-27.566-20.026l11.594-15.957l-33.366-24.241l-11.594,15.957l-26.114-18.974l11.595-15.957l-33.368-24.243
	l-11.593,15.957l-28.832-20.946l11.594-15.957l-33.37-24.244l-11.594,15.957l-28.224-20.506L563.55,65.81l-33.366-24.241
	l-11.592,15.956l-22.785-16.556l11.593-15.956L474.033,0.77l-11.594,15.957L439.277-0.103L428.51,14.717L414.004,4.18l-23.19,31.919
	l14.506,10.539l-18.972,26.11l-14.505-10.539l-23.189,31.916l14.506,10.539l-21.738,29.923l-14.506-10.539l-23.19,31.918
	l14.506,10.539l-25.032,34.454l-14.505-10.538l-23.188,31.916l14.506,10.539l-23.189,31.917l-14.507-10.538l-23.189,31.913
	l14.507,10.54l-25.071,34.507l-14.506-10.539l-23.188,31.917l14.507,10.539l-23.717,32.643l-14.506-10.539l-23.188,31.916
	l14.505,10.54l-13.834,19.041l23.163,16.827l-12.647,17.408l33.367,24.242l12.648-17.407l22.783,16.555L181.3,521.767l33.367,24.24
	l12.646-17.408l28.226,20.507l-12.649,17.407l32.983,23.964c-47.111-27.766-108.69-15.661-141.481,29.466
	c-34.84,47.955-24.172,115.317,23.782,150.156c18.121,13.165,39.012,19.828,59.873,20.44c-2.591,0.084-5.197,0.258-7.816,0.532
	c-58.95,6.197-101.87,59.2-95.675,118.149c6.197,58.949,59.198,101.869,118.148,95.673c58.946-6.195,101.868-59.196,95.674-118.147
	c-5.688-54.094-50.784-94.679-103.723-96.217c32.083-1.02,63.391-16.295,83.675-44.214c34.841-47.954,24.173-115.314-23.782-150.156
	c-2.695-1.958-5.455-3.765-8.263-5.438l12.622-17.375l28.831,20.947l-12.646,17.408l33.367,24.243l12.648-17.408l26.113,18.974
	l-12.648,17.407l33.367,24.242l12.647-17.408l27.563,20.027l-12.646,17.409l33.366,24.241l12.646-17.408l34.819,25.298
	l13.834-19.041l14.503,10.536c-10.549,15.183-19.847,31.554-27.644,49.064c-66.858,150.17,0.678,326.107,150.847,392.969
	c150.171,66.86,326.107-0.678,392.968-150.848C1117.705,863.833,1050.169,687.896,899.999,621.036z"/>
</svg>
