<?xml version="1.0" encoding="utf-8"?>
<!-- Generator: Adobe Illustrator 16.0.0, SVG Export Plug-In . SVG Version: 6.00 Build 0)  -->
<!DOCTYPE svg PUBLIC "-//W3C//DTD SVG 1.1//EN" "http://www.w3.org/Graphics/SVG/1.1/DTD/svg11.dtd">
<svg version="1.1" id="Calque_1" xmlns="http://www.w3.org/2000/svg" xmlns:xlink="http://www.w3.org/1999/xlink" x="0px" y="0px"
	 width="1190.551px" height="1190.551px" viewBox="0 0 1190.551 1190.551" enable-background="new 0 0 1190.551 1190.551"
	 xml:space="preserve">
<path fill="#010202" d="M602.524,516.831c-33.104,0-62.754,15.044-82.489,38.649v-39.419h-17.93v-32.274h17.93v-39.45h-17.93V407.35
	h17.93v-39.453h-17.93v-42.588h17.93v-39.451h-17.93v-39.451h17.93v-39.39c9.944,49.063,53.406,86.114,105.361,86.114
	c59.274,0,107.496-48.228,107.5-107.5c0-59.274-48.228-107.5-107.5-107.5c-51.955,0-95.417,37.05-105.361,86.114v-39.392h-17.93
	V84.505h17.93V45.054h-17.93V21.518h-28.631V0H432.23v21.518h-28.164V0h-41.243v21.518h-34.886V0h-41.246v21.518h-35.638V0h-41.245
	v21.518h-32.279V0h-41.242v21.518h-34.072V0H60.97v21.518H17.931v23.536H0v39.451h17.931v40.348H0v39.451h17.931v42.653H0v39.449
	h17.931v39.451H0v39.451h17.931v42.588H0v39.453h17.931v36.987H0v39.45h17.931v32.274H0v39.453h17.931v18.319H60.97v19.724h41.244
	v-19.724h34.072v19.724h41.242v-19.724h32.279v19.724h41.245v-19.724h35.638v19.645C127.384,599.242,0,730.183,0,890.897
	c0,164.382,133.257,297.64,297.639,297.64c164.381,0,297.639-133.258,297.639-297.64c0-73.711-26.809-141.151-71.189-193.137
	c19.629,20.954,47.528,34.071,78.435,34.071c59.276,0,107.5-48.225,107.5-107.5C710.024,565.057,661.8,516.831,602.524,516.831z
	 M502.105,164.304h17.918c-1.394,6.896-2.128,14.027-2.128,21.327c0,7.3,0.735,14.431,2.128,21.326h-17.918V164.304z
	 M310.653,593.558h17.284v-19.724h34.886v19.724h41.243v-19.724h28.164v19.724h41.244v-19.724h28.631v-18.319h17.901
	c-15.585,18.659-24.98,42.659-24.982,68.816c0,25.711,9.078,49.338,24.19,67.857C467.424,634.477,393.422,597.12,310.653,593.558z"
	/>
</svg>
