<?xml version="1.0" encoding="utf-8"?>
<!-- Generator: Adobe Illustrator 16.0.0, SVG Export Plug-In . SVG Version: 6.00 Build 0)  -->
<!DOCTYPE svg PUBLIC "-//W3C//DTD SVG 1.1//EN" "http://www.w3.org/Graphics/SVG/1.1/DTD/svg11.dtd">
<svg version="1.1" id="Calque_1" xmlns="http://www.w3.org/2000/svg" xmlns:xlink="http://www.w3.org/1999/xlink" x="0px" y="0px"
	 width="1190.551px" height="1190.551px" viewBox="0 0 1190.551 1190.551" enable-background="new 0 0 1190.551 1190.551"
	 xml:space="preserve">
<path fill="#010202" d="M831.352,517.838c-33.104,0-62.754,15.044-82.49,38.649v-39.419h-17.93v-32.274h17.93v-39.45h-17.93v-36.987
	h17.93v-39.453h-17.93v-42.588h17.93v-39.451h-17.93v-39.451h17.93v-39.39c9.945,49.063,53.406,86.114,105.361,86.114
	c59.275,0,107.496-48.228,107.5-107.5c0-59.274-48.227-107.5-107.5-107.5c-51.955,0-95.416,37.05-105.361,86.114V125.86h-17.93
	V85.512h17.93V46.061h-17.93V22.525h-28.631V1.007h-41.244v21.518h-28.164V1.007H591.65v21.518h-34.886V1.007h-41.246v21.518
	h-35.638V1.007h-41.245v21.518h-32.279V1.007h-41.241v21.518h-34.072V1.007h-41.245v21.518h-43.039v23.536h-17.931v39.451h17.931
	v40.348h-17.931v39.451h17.931v42.653h-17.931v39.449h17.931v39.451h-17.931v39.451h17.931v42.588h-17.931v39.453h17.931v36.987
	h-17.931v39.45h17.931v32.274h-17.931v39.453h17.931v18.319h43.039v19.724h41.244v-19.724h34.072v19.724h41.241v-19.724h32.279
	v19.724h41.245v-19.724h35.638v19.645c-159.306,5.765-286.689,136.706-286.689,297.419c0,164.383,133.257,297.641,297.639,297.641
	c164.381,0,297.639-133.258,297.639-297.641c0-73.711-26.809-141.15-71.189-193.137c19.629,20.954,47.527,34.071,78.436,34.071
	c59.275,0,107.5-48.225,107.5-107.5C938.852,566.064,890.627,517.838,831.352,517.838z M730.932,165.311h17.918
	c-1.393,6.896-2.127,14.027-2.127,21.327c0,7.3,0.734,14.431,2.127,21.326h-17.918V165.311z M539.48,594.565h17.284v-19.724h34.886
	v19.724h41.243v-19.724h28.164v19.724h41.244v-19.724h28.631v-18.319h17.902c-15.586,18.659-24.98,42.659-24.982,68.816
	c0,25.711,9.078,49.338,24.189,67.856C696.252,635.483,622.25,598.127,539.48,594.565z"/>
</svg>
