<?xml version="1.0" encoding="utf-8"?>
<!-- Generator: Adobe Illustrator 16.0.0, SVG Export Plug-In . SVG Version: 6.00 Build 0)  -->
<!DOCTYPE svg PUBLIC "-//W3C//DTD SVG 1.1//EN" "http://www.w3.org/Graphics/SVG/1.1/DTD/svg11.dtd">
<svg version="1.1" id="Calque_1" xmlns="http://www.w3.org/2000/svg" xmlns:xlink="http://www.w3.org/1999/xlink" x="0px" y="0px"
	 width="1190.551px" height="1190.551px" viewBox="0 0 1190.551 1190.551" enable-background="new 0 0 1190.551 1190.551"
	 xml:space="preserve">
<path fill="#010202" d="M874.774,975.648c-34.658-1.21-66.107,14.216-86.658,39.083c58.08-82.794,72.51-193.124,28.381-292.237
	c-8.458-18.996-18.667-36.664-30.342-52.911c29.758,37.496,82.242,51.733,127.947,31.385c54.15-24.11,78.588-87.776,54.482-141.932
	c-24.109-54.15-87.781-78.591-141.93-54.482c-7.666,3.413-14.734,7.62-21.157,12.479l-1.862-17.712l23.406-2.461l-2.99-28.473
	l21.4-2.25l-4.312-41.019l-21.4,2.249l-2.943-28.01l21.398-2.249l-4.311-41.017l-21.4,2.25l-3.646-34.696l21.402-2.249l-4.312-41.02
	l-21.399,2.25l-3.726-35.443l21.4-2.249l-4.312-41.019l-21.398,2.25l-3.375-32.104l21.398-2.249l-4.311-41.017l-21.4,2.249
	l-3.562-33.886l21.399-2.249l-4.312-41.018L780.93,58.14l-4.499-42.804l-23.404,2.462l-1.875-17.832l-39.234,4.123l1.874,17.833
	l-40.126,4.219L671.79,8.307l-39.234,4.124l1.874,17.833l-42.418,4.458l-1.875-17.833l-39.231,4.124l1.874,17.833l-39.235,4.123
	l-1.875-17.832l-39.234,4.123l1.874,17.834l-42.354,4.451l-1.874-17.833l-39.237,4.124l1.874,17.833l-36.783,3.865l-1.873-17.832
	l-39.235,4.123l1.875,17.834l-32.1,3.373L282.728,49.2l-39.237,4.124l1.875,17.832l-18.219,1.915l4.499,42.804l-19.619,2.061
	l4.311,41.02l19.616-2.062l3.562,33.886L219.9,192.84l4.312,41.018l19.616-2.062l3.374,32.102l-19.616,2.062l4.312,41.021
	l19.614-2.062l3.728,35.443l-19.617,2.061l4.312,41.021l19.614-2.062l3.647,34.695l-19.617,2.061l4.312,41.019l19.615-2.062
	l2.944,28.009l-19.617,2.062l4.312,41.017l19.614-2.061l2.992,28.474l18.219-1.914l1.874,17.832l39.237-4.124l-1.874-17.832
	l32.098-3.375l1.875,17.833l39.235-4.125l-1.875-17.831l36.784-3.866l1.874,17.831l39.236-4.123l-1.874-17.831l42.354-4.453
	l1.868,17.771c-34.701,2.074-69.624,10.287-103.254,25.26c-150.17,66.857-217.706,242.796-150.846,392.966
	c66.858,150.17,242.797,217.705,392.966,150.846c46.912-20.887,85.762-52.42,114.967-90.486
	c-10.154,15.739-16.331,34.317-17.031,54.357c-2.067,59.24,44.445,109.116,103.685,111.187
	c59.236,2.067,109.117-44.443,111.186-103.685C980.528,1027.595,934.012,977.721,874.774,975.648z M528.041,546.316l37.985-3.994
	l-1.874-17.831l39.235-4.123l1.875,17.83l39.231-4.122l-1.874-17.833l42.42-4.457l1.874,17.831l39.233-4.123l-1.874-17.832
	l40.127-4.219l1.874,17.832l39.044-4.104c-38.807,29.496-53.811,82.899-33.146,129.312c2.721,6.11,5.949,11.839,9.606,17.165
	C721.725,584.331,625.84,540.89,528.041,546.316z"/>
</svg>
