<?xml version="1.0" encoding="utf-8"?>
<!-- Generator: Adobe Illustrator 16.0.0, SVG Export Plug-In . SVG Version: 6.00 Build 0)  -->
<!DOCTYPE svg PUBLIC "-//W3C//DTD SVG 1.1//EN" "http://www.w3.org/Graphics/SVG/1.1/DTD/svg11.dtd">
<svg version="1.1" id="Calque_1" xmlns="http://www.w3.org/2000/svg" xmlns:xlink="http://www.w3.org/1999/xlink" x="0px" y="0px"
	 width="1190.551px" height="1190.551px" viewBox="0 0 1190.551 1190.551" enable-background="new 0 0 1190.551 1190.551"
	 xml:space="preserve">
<path fill="#010202" d="M786.038,621.138c-128.526-57.224-275.917-15.988-357.654,91.232l15.521-21.365l-14.507-10.54l23.716-32.641
	l14.507,10.538l23.188-31.915l-14.506-10.541l25.07-34.507l14.508,10.54l23.187-31.915l-14.507-10.54l23.189-31.917l14.507,10.54
	l23.188-31.917l-14.507-10.539l25.033-34.455l14.507,10.54l23.189-31.918l-14.507-10.54l21.74-29.922l14.507,10.54l23.188-31.917
	l-14.507-10.54l18.971-26.111l14.507,10.539l23.189-31.917l-14.506-10.539l10.768-14.82l-34.818-25.298l11.592-15.958
	l-33.366-24.243l-11.593,15.957l-27.566-20.026l11.594-15.957l-33.366-24.242l-11.594,15.957l-26.114-18.973l11.594-15.957
	l-33.368-24.243l-11.593,15.957l-28.832-20.947l11.594-15.957l-33.369-24.244l-11.594,15.957l-28.223-20.506l11.593-15.957
	l-33.366-24.241L404.63,57.626l-22.785-16.555l11.593-15.957L360.072,0.871l-11.594,15.957L325.316-0.001l-10.768,14.82
	L300.042,4.281l-23.19,31.919l14.506,10.539L272.386,72.85l-14.505-10.539l-23.189,31.916l14.506,10.539l-21.739,29.923
	l-14.506-10.539l-23.19,31.918l14.506,10.539l-25.032,34.454l-14.505-10.538l-23.189,31.916l14.506,10.539l-23.189,31.917
	l-14.507-10.538L95.163,286.27l14.507,10.54l-25.071,34.507l-14.506-10.539l-23.188,31.917l14.506,10.539l-23.716,32.642
	l-14.506-10.539L0,417.253l14.505,10.54L0.671,446.834l23.163,16.827l-12.647,17.409l33.367,24.242l12.648-17.408l22.784,16.555
	l-12.648,17.409l33.367,24.241l12.647-17.409l28.225,20.507l-12.649,17.407l32.983,23.964
	c-47.111-27.765-108.69-15.661-141.481,29.466C-14.41,667.999-3.742,735.361,44.212,770.2
	c18.121,13.165,39.012,19.828,59.873,20.441c-2.591,0.084-5.197,0.257-7.816,0.532c-58.95,6.197-101.87,59.2-95.675,118.149
	c6.197,58.95,59.198,101.869,118.148,95.673c58.947-6.195,101.869-59.196,95.674-118.147
	c-5.687-54.094-50.784-94.679-103.722-96.217c32.083-1.02,63.39-16.295,83.674-44.214c34.841-47.954,24.173-115.314-23.782-150.156
	c-2.695-1.958-5.455-3.765-8.263-5.437l12.623-17.375l28.831,20.947l-12.647,17.408l33.367,24.243l12.649-17.408l26.113,18.973
	l-12.648,17.408l33.367,24.242l12.647-17.408l27.564,20.027l-12.646,17.409l33.366,24.241l12.647-17.408l34.819,25.298
	l13.834-19.041l14.503,10.536c-10.549,15.183-19.846,31.554-27.643,49.065c-66.859,150.17,0.677,326.107,150.847,392.968
	s326.107-0.677,392.967-150.847C1003.744,863.935,936.208,687.997,786.038,621.138z"/>
</svg>
