<?xml version="1.0" encoding="utf-8"?>
<!-- Generator: Adobe Illustrator 16.0.0, SVG Export Plug-In . SVG Version: 6.00 Build 0)  -->
<!DOCTYPE svg PUBLIC "-//W3C//DTD SVG 1.1//EN" "http://www.w3.org/Graphics/SVG/1.1/DTD/svg11.dtd">
<svg version="1.1" id="Calque_1" xmlns="http://www.w3.org/2000/svg" xmlns:xlink="http://www.w3.org/1999/xlink" x="0px" y="0px"
	 width="1190.551px" height="1190.551px" viewBox="0 0 1190.551 1190.551" enable-background="new 0 0 1190.551 1190.551"
	 xml:space="preserve">
<g>
	<path fill="#010202" d="M1062.287,831.063C1028.112,670.274,870.06,567.635,709.27,601.812
		c-65.646,13.953-121.59,48.561-162.498,95.565l-13.594-11.406l25.935-30.908l13.736,11.524l25.358-30.221l-13.735-11.526
		l27.417-32.673l13.735,11.524l25.357-30.219l-13.736-11.526l25.359-30.222l13.736,11.525l25.357-30.221l-13.734-11.526
		l27.375-32.624l13.734,11.526l25.36-30.224l-13.736-11.525l23.774-28.333l13.734,11.526l25.359-30.222l-13.736-11.525
		l20.746-24.725l13.736,11.525l25.359-30.223l-13.736-11.525l11.774-14.033l-32.97-27.665l12.679-15.109l-31.595-26.511
		l-12.679,15.109l-26.102-21.901l12.68-15.109l-31.595-26.511l-12.679,15.109l-24.728-20.749l12.679-15.108l-31.596-26.512
		l-12.68,15.108l-27.3-22.907l12.68-15.109l-31.592-26.51l-12.679,15.109L583.51,89.431l12.678-15.108l-31.594-26.512l-12.68,15.109
		l-21.573-18.104l12.679-15.109l-31.596-26.51l-12.678,15.108L476.815-0.097l-11.774,14.033L451.304,2.41l-25.36,30.223
		l13.735,11.525l-20.746,24.726l-13.734-11.526l-25.358,30.221l13.733,11.524l-23.773,28.333l-13.734-11.524l-25.359,30.222
		l13.734,11.526l-27.375,32.624l-13.734-11.525l-25.358,30.222l13.735,11.525l-25.359,30.222l-13.735-11.525l-25.356,30.221
		l13.735,11.524l-27.417,32.675l-13.734-11.526l-25.359,30.222l13.735,11.525l-25.936,30.908l-13.735-11.524l-25.359,30.219
		l13.734,11.524l-15.128,18.031l21.932,18.404l-13.831,16.483l31.595,26.513l13.832-16.485l21.574,18.104l-13.832,16.482
		l31.596,26.511l13.83-16.482l26.726,22.424l-13.832,16.484l31.597,26.512l13.832-16.484l27.3,22.909l-13.832,16.482l31.598,26.511
		l13.832-16.482l24.727,20.748l-13.832,16.482l31.594,26.511l13.831-16.481l26.104,21.899L414.3,696.53l31.595,26.511l13.832-16.481
		l32.97,27.664l15.128-18.03l13.735,11.526l14.503-17.285c-51.833,66.835-75.003,155.188-56.042,244.396
		c34.177,160.789,192.229,263.43,353.018,229.252C993.827,1149.905,1096.466,991.854,1062.287,831.063z"/>
	<path fill="#010202" d="M331.708,908.398c22.206-54.959-4.442-117.737-59.401-139.942c-54.957-22.204-117.737,4.442-139.942,59.402
		c-22.204,54.96,4.446,117.733,59.401,139.942c11.771,4.755,23.897,7.263,35.908,7.738c-47.577,0.691-90.729,33.194-102.77,81.488
		c-14.34,57.515,20.786,115.973,78.301,130.312s115.974-20.784,130.312-78.301c14.341-57.517-20.784-115.969-78.3-130.312
		c-7.198-1.794-14.41-2.813-21.549-3.112C275.561,974.922,315.052,949.625,331.708,908.398z"/>
</g>
</svg>
