<?xml version="1.0" encoding="utf-8"?>
<!-- Generator: Adobe Illustrator 16.0.0, SVG Export Plug-In . SVG Version: 6.00 Build 0)  -->
<!DOCTYPE svg PUBLIC "-//W3C//DTD SVG 1.1//EN" "http://www.w3.org/Graphics/SVG/1.1/DTD/svg11.dtd">
<svg version="1.1" id="Calque_1" xmlns="http://www.w3.org/2000/svg" xmlns:xlink="http://www.w3.org/1999/xlink" x="0px" y="0px"
	 width="1190.551px" height="1190.551px" viewBox="0 0 1190.551 1190.551" enable-background="new 0 0 1190.551 1190.551"
	 xml:space="preserve">
<path fill="#010202" d="M634.858,934.204c-36.879,0-69.476,18.669-88.847,47.049c30.942-46.942,48.967-103.151,48.967-163.579
	c0-60.139-17.853-116.1-48.523-162.906c19.48,27.586,51.604,45.637,87.866,45.637c59.274,0,107.5-48.225,107.5-107.5
	c0-59.274-48.226-107.5-107.5-107.5c-31.104,0-59.159,13.283-78.806,34.468v-17.769h18.319v-43.039h19.724v-41.244h-19.724v-34.071
	h19.724v-41.243h-19.724v-32.279h19.724v-41.245h-19.724v-35.638h19.724v-41.246h-19.724v-34.886h19.724v-41.243h-19.724V87.805
	h19.724V46.561h-19.724V17.93h-18.319V0h-39.453v17.93h-32.275V0h-39.45v17.93H407.35V0h-39.453v17.93h-42.588V0h-39.451v17.93
	h-39.452V0h-39.448v17.93h-42.653V0h-39.451v17.93H84.505V0H45.054v17.93H21.518v28.631H0v41.244h21.518v28.164H0v41.243h21.518
	v34.886H0v41.246h21.518v35.638H0v41.245h21.518v32.279H0v41.243h21.518v34.071H0v41.244h21.518v43.039h23.536v17.932h39.451
	v-17.932h40.348v17.932h39.451v-17.932h42.653v17.932h39.448v-17.932h39.452v17.932h11.481h27.97v-17.932h42.588v17.932h39.453
	v-17.932h36.986v17.932h39.45v-17.932h32.275v17.932h39.301c-17.706,19.171-28.542,44.776-28.543,72.869
	c0,20.997,6.057,40.604,16.508,57.176c-53.589-78.504-143.765-130.045-245.988-130.045C132.958,520.035-0.3,653.292-0.3,817.674
	c0,164.381,133.258,297.639,297.639,297.639c102.702,0,193.253-52.018,246.749-131.143c-10.589,16.647-16.731,36.386-16.731,57.534
	c0,59.273,48.225,107.5,107.501,107.5c59.274,0,107.496-48.226,107.5-107.5C742.358,982.429,694.13,934.204,634.858,934.204z"/>
</svg>
