<?xml version="1.0" encoding="utf-8"?>
<!-- Generator: Adobe Illustrator 16.0.0, SVG Export Plug-In . SVG Version: 6.00 Build 0)  -->
<!DOCTYPE svg PUBLIC "-//W3C//DTD SVG 1.1//EN" "http://www.w3.org/Graphics/SVG/1.1/DTD/svg11.dtd">
<svg version="1.1" id="Calque_1" xmlns="http://www.w3.org/2000/svg" xmlns:xlink="http://www.w3.org/1999/xlink" x="0px" y="0px"
	 width="1190.551px" height="1190.551px" viewBox="0 0 1190.551 1190.551" enable-background="new 0 0 1190.551 1190.551"
	 xml:space="preserve">
<path fill="#010202" d="M601.611,517.212c-32.597,0-61.846,14.585-81.576,37.569v-38.72h-17.93v-32.274h17.93v-39.45h-17.93V407.35
	h17.93v-39.453h-17.93v-42.588h17.93v-39.451h-17.93v-39.451h17.93v-39.304c9.978,49.021,53.42,86.028,105.344,86.028
	c59.276,0,107.5-48.226,107.5-107.5c0-59.273-48.224-107.5-107.5-107.5c-51.927,0-95.367,37.01-105.344,86.033v-39.311h-17.93
	V84.505h17.93V45.054h-17.93V21.518h-28.631V0H432.23v21.518h-28.164V0h-41.243v21.518h-34.886V0h-41.246v21.518h-35.638V0h-41.245
	v21.518h-32.279V0h-41.242v21.518h-34.072V0H60.97v21.518H17.931v23.536H0v39.451h17.931v40.348H0v39.451h17.931v42.653H0v39.449
	h17.931v39.451H0v39.451h17.931v42.588H0v39.453h17.931v36.987H0v39.45h17.931v32.274H0v39.453h17.931v18.319H60.97v19.724h41.244
	v-19.724h34.072v19.724h41.242v-19.724h32.279v19.724h41.245v-19.724h35.638v19.724h10.827h30.419v-19.724h34.886v19.724h41.243
	v-19.724h28.164v19.724h41.244v-19.724h28.631v-18.319h17.31c-15.777,18.712-25.302,42.861-25.304,69.197
	c0,23.193,7.385,44.695,19.926,62.278c-54.27-57.521-131.196-93.433-216.519-93.433c-164.382,0-297.64,133.258-297.64,297.639
	c0,164.382,133.258,297.639,297.64,297.639c164.381,0,297.639-133.257,297.639-297.639c0-71.266-25.06-136.672-66.831-187.915
	c19.216,17.936,44.989,28.931,73.285,28.931c59.276,0,107.5-48.227,107.5-107.5C709.111,565.437,660.887,517.212,601.611,517.212z
	 M502.105,164.304h17.903c-1.394,6.896-2.129,14.026-2.129,21.326c0,7.3,0.735,14.432,2.128,21.327h-17.902V164.304z"/>
</svg>
