<?xml version="1.0" encoding="utf-8"?>
<!-- Generator: Adobe Illustrator 16.0.0, SVG Export Plug-In . SVG Version: 6.00 Build 0)  -->
<!DOCTYPE svg PUBLIC "-//W3C//DTD SVG 1.1//EN" "http://www.w3.org/Graphics/SVG/1.1/DTD/svg11.dtd">
<svg version="1.1" id="Calque_1" xmlns="http://www.w3.org/2000/svg" xmlns:xlink="http://www.w3.org/1999/xlink" x="0px" y="0px"
	 width="1190.551px" height="1190.551px" viewBox="0 0 1190.551 1190.551" enable-background="new 0 0 1190.551 1190.551"
	 xml:space="preserve">
<path fill="#010202" d="M699.756,683.46c16.929,27.25,45.798,46.705,80.098,50.312c58.95,6.195,111.952-36.726,118.147-95.675
	c6.197-58.95-36.723-111.951-95.673-118.146c-26.229-2.756-51.275,4.217-71.551,17.992
	c61.548-47.971,104.272-119.919,113.072-203.655C861.033,170.807,742.435,24.35,578.954,7.167
	c-163.48-17.182-309.938,101.416-327.12,264.897S353.25,582.002,516.73,599.185c43.505,4.571,85.804-0.474,124.783-13.419
	L537.93,645.568l61.437,106.409L410.944,860.764c43.386-24.692,65.049-77.348,49.031-126.642
	c-18.315-56.375-79.084-87.337-135.456-69.02c-56.374,18.315-87.337,79.083-69.021,135.456
	c18.318,56.375,79.08,87.334,135.458,69.021c7.038-2.286,13.68-5.235,19.879-8.754l-2.348,1.354l61.437,106.411L250.237,1095.43
	l51.734,89.608L521.66,1058.2l61.437,106.411l190.879-110.204l61.438,106.411l104.959-60.6L699.756,683.46z M722.48,544.18
	c-20.856,17.303-35.252,42.428-38.302,71.444c-2.322,22.103,2.26,43.367,12.001,61.644l-53.134-92.032
	C671.611,575.575,698.367,561.665,722.48,544.18z"/>
</svg>
