<?xml version="1.0" encoding="utf-8"?>
<!-- Generator: Adobe Illustrator 16.0.0, SVG Export Plug-In . SVG Version: 6.00 Build 0)  -->
<!DOCTYPE svg PUBLIC "-//W3C//DTD SVG 1.1//EN" "http://www.w3.org/Graphics/SVG/1.1/DTD/svg11.dtd">
<svg version="1.1" id="Calque_1" xmlns="http://www.w3.org/2000/svg" xmlns:xlink="http://www.w3.org/1999/xlink" x="0px" y="0px"
	 width="1190.551px" height="1190.551px" viewBox="0 0 1190.551 1190.551" enable-background="new 0 0 1190.551 1190.551"
	 xml:space="preserve">
<path fill="#010202" d="M955.605,831.925c-24.109-54.149-87.78-78.592-141.931-54.482c-54.152,24.109-78.593,87.779-54.482,141.931
	c7.117,15.985,17.684,29.379,30.433,39.701c-14.511-10.256-31.753-17.057-50.646-19.041c-14.738-1.549-29.104-0.028-42.459,4.046
	L658.55,827.22l241.261-78.39l-31.977-98.407l-241.258,78.391l-37.894-116.62c109.87-24.787,200.856-111.165,225.809-228.557
	C848.668,222.848,746.03,64.796,585.24,30.618C424.451-3.558,266.4,99.082,232.223,259.871s68.463,318.841,229.252,353.019
	c42.467,9.025,84.741,8.501,124.594-0.11l-207.082,67.286l-37.971-116.86l-115.264,37.452l183.854,565.84l115.266-37.451
	l-37.97-116.858l206.325-67.038c-38.46,13.104-67.877,47.564-72.396,90.559c-6.195,58.951,36.721,111.947,95.675,118.147
	c58.949,6.195,111.952-36.726,118.148-95.674c3.948-37.575-12.061-72.729-39.452-94.891c29.963,21.188,70.03,26.543,105.919,10.562
	C955.274,949.744,979.708,886.074,955.605,831.925z"/>
</svg>
