<?xml version="1.0" encoding="utf-8"?>
<!-- Generator: Adobe Illustrator 16.0.0, SVG Export Plug-In . SVG Version: 6.00 Build 0)  -->
<!DOCTYPE svg PUBLIC "-//W3C//DTD SVG 1.1//EN" "http://www.w3.org/Graphics/SVG/1.1/DTD/svg11.dtd">
<svg version="1.1" id="Calque_1" xmlns="http://www.w3.org/2000/svg" xmlns:xlink="http://www.w3.org/1999/xlink" x="0px" y="0px"
	 width="1190.551px" height="1190.551px" viewBox="0 0 1190.551 1190.551" enable-background="new 0 0 1190.551 1190.551"
	 xml:space="preserve">
<path fill="#010202" d="M796.921,522.781L777.698,644.14l-215.355-34.107c18.356,0.552,37.024-0.573,55.829-3.552
	c162.356-25.715,273.128-178.179,247.412-340.536C839.868,103.588,687.406-7.184,525.049,18.531
	C362.691,44.246,251.92,196.71,277.635,359.067c22.606,142.739,143.186,245.587,282.324,250.888l-19.175,121.065l-250.552-39.684
	l-16.187,102.197l119.777,18.972c-4.03-0.461-8.126-0.705-12.277-0.705c-59.276,0-107.496,48.222-107.5,107.5
	c0,59.274,48.227,107.5,107.5,107.5c28.979,0,55.313-11.532,74.667-30.242c-9.699,10.812-17.354,23.763-22.124,38.44
	c-18.317,56.374,12.646,117.143,69.019,135.458c56.375,18.317,117.143-12.646,135.458-69.02
	c18.316-56.372-12.645-117.142-69.019-135.458c-3.945-1.281-7.912-2.313-11.883-3.12l165.405,26.198l-19.222,121.359l119.705,18.958
	l93.071-587.636L796.921,522.781z M461.528,991.045c17.1-19.043,27.519-44.197,27.519-71.744c0-51.867-36.924-95.273-85.866-105.312
	l121.417,19.23l-19.221,121.358l42.915,6.797C516.024,957.753,484.235,969.11,461.528,991.045z"/>
</svg>
