<?xml version="1.0" encoding="utf-8"?>
<!-- Generator: Adobe Illustrator 16.0.0, SVG Export Plug-In . SVG Version: 6.00 Build 0)  -->
<!DOCTYPE svg PUBLIC "-//W3C//DTD SVG 1.1//EN" "http://www.w3.org/Graphics/SVG/1.1/DTD/svg11.dtd">
<svg version="1.1" id="Calque_1" xmlns="http://www.w3.org/2000/svg" xmlns:xlink="http://www.w3.org/1999/xlink" x="0px" y="0px"
	 width="1190.551px" height="1190.551px" viewBox="0 0 1190.551 1190.551" enable-background="new 0 0 1190.551 1190.551"
	 xml:space="preserve">
<g>
	<path fill="#010202" d="M747.156,812.098c45.159-0.184,87.188-29.048,101.885-74.282c18.315-56.372-12.646-117.142-69.021-135.458
		c-56.375-18.317-117.137,12.648-135.456,69.02c-18.317,56.375,12.646,117.141,69.019,135.459
		c10.561,3.432,21.275,5.133,31.838,5.263H639.3V689.226H418.893V566.658c61.834,45.486,141.121,67.194,222.93,54.237
		C804.179,595.181,914.95,442.717,889.235,280.36C863.52,118.003,711.057,7.23,548.699,32.945
		C386.341,58.66,275.571,211.125,301.285,373.481c12.729,80.369,56.527,148.083,117.199,192.872H297.697v594.96h121.195v-122.87
		h220.407V915.57h253.675V812.098H747.156z"/>
	<path fill="#010202" d="M746.244,941.918c-59.276,0-107.495,48.223-107.5,107.5c0,59.273,48.227,107.5,107.5,107.5
		c59.274,0,107.5-48.227,107.5-107.5C853.744,990.143,805.519,941.918,746.244,941.918z"/>
</g>
</svg>
