<?xml version="1.0" encoding="utf-8"?>
<!-- Generator: Adobe Illustrator 16.0.0, SVG Export Plug-In . SVG Version: 6.00 Build 0)  -->
<!DOCTYPE svg PUBLIC "-//W3C//DTD SVG 1.1//EN" "http://www.w3.org/Graphics/SVG/1.1/DTD/svg11.dtd">
<svg version="1.1" id="Calque_1" xmlns="http://www.w3.org/2000/svg" xmlns:xlink="http://www.w3.org/1999/xlink" x="0px" y="0px"
	 width="1190.551px" height="1190.551px" viewBox="0 0 1190.551 1190.551" enable-background="new 0 0 1190.551 1190.551"
	 xml:space="preserve">
<path fill="#010202" d="M522.073,924.503l99.406-72.221L491.926,673.968l99.406-72.223l-71.237-98.05l-40.775,29.625
	c83.319-64.353,129.849-171.007,112.219-282.318C565.823,88.645,413.361-22.127,251.003,3.588S-22.126,181.767,3.589,344.124
	s178.178,273.128,340.536,247.413c45.01-7.129,86.045-24.013,121.317-48.135L173.69,755.374
	c16.34-12.735,29.181-30.304,36.051-51.447c18.315-56.371-12.645-117.14-69.019-135.456C84.347,550.154,23.584,581.118,5.264,637.49
	C-13.053,693.863,17.91,754.63,74.282,772.947c32.81,10.661,67.104,4.625,93.656-13.394L38.761,853.406l71.17,97.955
	c-0.809-0.019-1.618-0.031-2.431-0.031c-59.276,0-107.496,48.221-107.5,107.5c0,59.273,48.227,107.5,107.5,107.5
	c59.275,0,107.5-48.227,107.5-107.5c0-58.397-46.808-106.067-104.875-107.467l99.28-72.13l129.552,178.312l99.405-72.223
	l149.106,205.228l83.71-60.819L522.073,924.503z"/>
</svg>
