<?xml version="1.0" encoding="utf-8"?>
<!-- Generator: Adobe Illustrator 16.0.0, SVG Export Plug-In . SVG Version: 6.00 Build 0)  -->
<!DOCTYPE svg PUBLIC "-//W3C//DTD SVG 1.1//EN" "http://www.w3.org/Graphics/SVG/1.1/DTD/svg11.dtd">
<svg version="1.1" id="Calque_1" xmlns="http://www.w3.org/2000/svg" xmlns:xlink="http://www.w3.org/1999/xlink" x="0px" y="0px"
	 width="1190.551px" height="1190.551px" viewBox="0 0 1190.551 1190.551" enable-background="new 0 0 1190.551 1190.551"
	 xml:space="preserve">
<path fill="#010202" d="M1002.568,193.555l121.359,19.223l18.961-119.706L555.251-0.001l-18.936,119.553
	C439.117-10.996,254.721-39.381,122.692,56.544C-10.297,153.165-39.777,339.3,56.844,472.287S339.6,634.755,472.586,538.134
	c18.109-13.157,34.283-27.984,48.497-44.101c-10.425,13.678-17.71,30.046-20.584,48.19c-9.272,58.544,30.813,113.72,89.36,122.992
	c58.547,9.273,113.718-30.816,122.992-89.359c9.273-58.545-30.814-113.721-89.359-122.993c-36.416-5.767-71.525,7.566-95.097,32.556
	c83.373-102.154,91.19-251.331,10.039-363.026c-0.653-0.899-1.326-1.774-1.987-2.664l121.204,19.198l-34.479,217.693l121.36,19.222
	l-39.684,250.552l102.197,16.187l22.363-141.198c-4.003,31.839,6.188,65.139,30.584,89.538c41.913,41.914,110.114,41.913,152.027,0
	c41.915-41.914,41.913-110.113,0-152.027c-15.722-15.722-35.142-25.546-55.486-29.474l11.556,1.83L1002.568,193.555z
	 M859.992,438.892c-15.723,15.722-25.547,35.142-29.475,55.485l16.211-102.349l102.796,16.28
	C917.686,404.306,884.387,414.497,859.992,438.892z"/>
</svg>
