<?xml version="1.0" encoding="utf-8"?>
<!-- Generator: Adobe Illustrator 16.0.0, SVG Export Plug-In . SVG Version: 6.00 Build 0)  -->
<!DOCTYPE svg PUBLIC "-//W3C//DTD SVG 1.1//EN" "http://www.w3.org/Graphics/SVG/1.1/DTD/svg11.dtd">
<svg version="1.1" id="Calque_1" xmlns="http://www.w3.org/2000/svg" xmlns:xlink="http://www.w3.org/1999/xlink" x="0px" y="0px"
	 width="1190.551px" height="1190.551px" viewBox="0 0 1190.551 1190.551" enable-background="new 0 0 1190.551 1190.551"
	 xml:space="preserve">
<path fill="#010202" d="M449.519,677.79c16.929,27.25,45.798,46.705,80.098,50.312c58.95,6.195,111.952-36.726,118.147-95.675
	c6.197-58.95-36.723-111.951-95.673-118.147c-26.228-2.756-51.275,4.217-71.551,17.992
	c61.548-47.971,104.273-119.919,113.073-203.655C610.796,165.137,492.198,18.68,328.717,1.497
	C165.237-15.685,18.78,102.913,1.597,266.394c-17.183,163.481,101.416,309.938,264.896,327.12
	c43.505,4.572,85.804-0.473,124.783-13.419l-103.582,59.803l61.436,106.41L160.707,855.094
	c43.386-24.693,65.049-77.348,49.032-126.642c-18.316-56.375-79.084-87.337-135.457-69.019
	c-56.374,18.315-87.336,79.083-69.02,135.456c18.318,56.375,79.08,87.334,135.458,69.02c7.038-2.286,13.68-5.235,19.879-8.754
	l-2.348,1.355l61.437,106.411L0,1089.76l51.735,89.608l219.688-126.838l61.437,106.411l190.879-110.204l61.437,106.411
	l104.959-60.599L449.519,677.79z M472.243,538.51c-20.857,17.303-35.252,42.428-38.302,71.444
	c-2.322,22.103,2.26,43.367,12.001,61.644l-53.134-92.032C421.374,569.905,448.13,555.995,472.243,538.51z"/>
</svg>
