<?xml version="1.0" encoding="utf-8"?>
<!-- Generator: Adobe Illustrator 16.0.0, SVG Export Plug-In . SVG Version: 6.00 Build 0)  -->
<!DOCTYPE svg PUBLIC "-//W3C//DTD SVG 1.1//EN" "http://www.w3.org/Graphics/SVG/1.1/DTD/svg11.dtd">
<svg version="1.1" id="Calque_1" xmlns="http://www.w3.org/2000/svg" xmlns:xlink="http://www.w3.org/1999/xlink" x="0px" y="0px"
	 width="1190.551px" height="1190.551px" viewBox="0 0 1190.551 1190.551" enable-background="new 0 0 1190.551 1190.551"
	 xml:space="preserve">
<path fill="#010202" d="M596.032,591.188c-1.88-0.298-3.757-0.558-5.636-0.819l178.091-129.391l72.224,99.406l98.051-71.238
	L713.014,178.432c16.182,22.24,40.821,38.328,70.068,42.96c58.545,9.271,113.716-30.818,122.993-89.36
	c9.271-58.546-30.815-113.721-89.361-122.993S702.993,39.853,693.721,98.397c-4.632,29.245,3.054,57.649,19.204,79.912
	L589.052,7.812L491.003,79.05c-5.239-12.943-13.098-25.064-23.577-35.542c-41.913-41.914-110.114-41.914-152.026,0
	c-41.915,41.915-41.913,110.109,0,152.027c41.912,41.914,110.113,41.914,152.026,0.001c31.437-31.437,39.294-77.655,23.578-116.483
	l72.221,99.404L384.911,308.01l72.224,99.406L251.906,556.521l60.818,83.709l205.229-149.105l72.064,99.189
	c-160.091-22.078-309.124,87.938-334.521,248.288c-25.716,162.357,85.056,314.82,247.413,340.535
	c162.356,25.715,314.819-85.057,340.534-247.413C869.159,769.367,758.39,616.903,596.032,591.188z"/>
</svg>
