<?xml version="1.0" encoding="utf-8"?>
<!-- Generator: Adobe Illustrator 16.0.0, SVG Export Plug-In . SVG Version: 6.00 Build 0)  -->
<!DOCTYPE svg PUBLIC "-//W3C//DTD SVG 1.1//EN" "http://www.w3.org/Graphics/SVG/1.1/DTD/svg11.dtd">
<svg version="1.1" id="Calque_1" xmlns="http://www.w3.org/2000/svg" xmlns:xlink="http://www.w3.org/1999/xlink" x="0px" y="0px"
	 width="1190.551px" height="1190.551px" viewBox="0 0 1190.551 1190.551" enable-background="new 0 0 1190.551 1190.551"
	 xml:space="preserve">
<g>
	<path fill="#010202" d="M449.459,782.74c45.16-0.183,87.188-29.048,101.885-74.282c18.316-56.372-12.645-117.141-69.02-135.458
		s-117.137,12.649-135.457,69.02c-18.317,56.374,12.646,117.14,69.019,135.458c10.561,3.432,21.276,5.133,31.838,5.263h-106.12
		V659.868H121.197V537.301c61.834,45.486,141.121,67.194,222.929,54.237c162.357-25.715,273.128-178.178,247.413-340.535
		S413.361-22.127,251.003,3.588S-22.126,181.767,3.589,344.124c12.729,80.369,56.527,148.083,117.199,192.872H0v594.96h121.196
		v-122.87h220.407V886.213h253.675V782.74H449.459z"/>
	<path fill="#010202" d="M448.548,912.561c-59.276,0-107.495,48.222-107.5,107.5c0,59.273,48.227,107.5,107.5,107.5
		c59.275,0,107.5-48.227,107.5-107.5C556.048,960.785,507.823,912.561,448.548,912.561z"/>
</g>
</svg>
