<?xml version="1.0" encoding="utf-8"?>
<!-- Generator: Adobe Illustrator 16.0.0, SVG Export Plug-In . SVG Version: 6.00 Build 0)  -->
<!DOCTYPE svg PUBLIC "-//W3C//DTD SVG 1.1//EN" "http://www.w3.org/Graphics/SVG/1.1/DTD/svg11.dtd">
<svg version="1.1" id="Calque_1" xmlns="http://www.w3.org/2000/svg" xmlns:xlink="http://www.w3.org/1999/xlink" x="0px" y="0px"
	 width="1190.551px" height="1190.551px" viewBox="0 0 1190.551 1190.551" enable-background="new 0 0 1190.551 1190.551"
	 xml:space="preserve">
<path fill="#010202" d="M781.819,924.563l99.406-72.221L751.672,674.028l99.405-72.223l-71.236-98.05l-40.775,29.625
	c83.319-64.353,129.849-171.007,112.219-282.318C825.569,88.706,673.107-22.066,510.749,3.648
	C348.391,29.363,237.62,181.828,263.335,344.185s178.178,273.128,340.536,247.413c45.01-7.129,86.045-24.013,121.316-48.135
	L433.436,755.435c16.34-12.735,29.182-30.304,36.052-51.447c18.314-56.371-12.646-117.14-69.02-135.456
	c-56.375-18.317-117.138,12.647-135.458,69.019c-18.317,56.373,12.646,117.14,69.019,135.457
	c32.81,10.661,67.104,4.625,93.655-13.395l-129.177,93.854l71.17,97.955c-0.809-0.02-1.618-0.031-2.431-0.031
	c-59.276,0-107.496,48.221-107.5,107.5c0,59.273,48.227,107.5,107.5,107.5c59.274,0,107.5-48.227,107.5-107.5
	c0-58.396-46.809-106.067-104.875-107.467l99.279-72.13l129.553,178.312l99.404-72.223l149.106,205.228l83.71-60.818
	L781.819,924.563z"/>
</svg>
