<?xml version="1.0" encoding="utf-8"?>
<!-- Generator: Adobe Illustrator 16.0.0, SVG Export Plug-In . SVG Version: 6.00 Build 0)  -->
<!DOCTYPE svg PUBLIC "-//W3C//DTD SVG 1.1//EN" "http://www.w3.org/Graphics/SVG/1.1/DTD/svg11.dtd">
<svg version="1.1" id="Calque_1" xmlns="http://www.w3.org/2000/svg" xmlns:xlink="http://www.w3.org/1999/xlink" x="0px" y="0px"
	 width="1190.551px" height="1190.551px" viewBox="0 0 1190.551 1190.551" enable-background="new 0 0 1190.551 1190.551"
	 xml:space="preserve">
<path fill="#010202" d="M729.853,807.677c-24.109-54.15-87.78-78.592-141.931-54.483c-54.152,24.11-78.592,87.78-54.482,141.931
	c7.117,15.985,17.684,29.379,30.433,39.701c-14.511-10.256-31.753-17.056-50.646-19.041c-14.738-1.549-29.104-0.028-42.459,4.046
	l-37.97-116.859l241.261-78.39l-31.976-98.407l-241.259,78.39l-37.893-116.62C472.801,563.158,563.788,476.78,588.74,359.388
	C622.917,198.599,520.278,40.548,359.489,6.37C198.699-27.806,40.648,74.834,6.471,235.623s68.463,318.841,229.252,353.018
	c42.467,9.026,84.741,8.502,124.594-0.11l-207.082,67.286l-37.971-116.86L0,576.409l183.854,565.84l115.265-37.451L261.15,987.939
	l206.325-67.038c-38.46,13.105-67.877,47.565-72.396,90.559c-6.195,58.951,36.721,111.947,95.675,118.147
	c58.95,6.196,111.953-36.725,118.149-95.674c3.948-37.575-12.061-72.729-39.452-94.89c29.963,21.188,70.03,26.543,105.919,10.562
	C729.522,925.496,753.957,861.826,729.853,807.677z"/>
</svg>
