<?xml version="1.0" encoding="utf-8"?>
<!-- Generator: Adobe Illustrator 16.0.0, SVG Export Plug-In . SVG Version: 6.00 Build 0)  -->
<!DOCTYPE svg PUBLIC "-//W3C//DTD SVG 1.1//EN" "http://www.w3.org/Graphics/SVG/1.1/DTD/svg11.dtd">
<svg version="1.1" id="Calque_1" xmlns="http://www.w3.org/2000/svg" xmlns:xlink="http://www.w3.org/1999/xlink" x="0px" y="0px"
	 width="1190.551px" height="1190.551px" viewBox="0 0 1190.551 1190.551" enable-background="new 0 0 1190.551 1190.551"
	 xml:space="preserve">
<path fill="#010202" d="M1026.41,455.714l121.359,19.223l18.961-119.706l-587.638-93.073L560.157,381.71
	c-97.198-130.548-281.594-158.933-413.623-63.008C13.546,415.324-15.935,601.458,80.686,734.445s282.756,162.468,415.742,65.847
	c18.108-13.156,34.282-27.983,48.496-44.101c-10.425,13.678-17.71,30.046-20.584,48.19c-9.271,58.543,30.813,113.72,89.361,122.991
	c58.547,9.273,113.717-30.815,122.992-89.358c9.271-58.545-30.814-113.722-89.359-122.993c-36.416-5.768-71.525,7.565-95.097,32.556
	c83.373-102.153,91.191-251.331,10.039-363.025c-0.653-0.899-1.326-1.774-1.987-2.664l121.204,19.198l-34.479,217.693L768.373,638
	L728.69,888.552l102.197,16.188l22.363-141.198c-4.004,31.84,6.188,65.14,30.584,89.538c41.912,41.914,110.113,41.913,152.027,0
	c41.914-41.914,41.912-110.112,0-152.026c-15.723-15.723-35.143-25.546-55.486-29.475l11.555,1.83L1026.41,455.714z
	 M883.834,701.051c-15.723,15.722-25.547,35.142-29.475,55.484l16.211-102.349l102.795,16.28
	C941.528,666.465,908.229,676.655,883.834,701.051z"/>
</svg>
