<?xml version="1.0" encoding="utf-8"?>
<!-- Generator: Adobe Illustrator 16.0.0, SVG Export Plug-In . SVG Version: 6.00 Build 0)  -->
<!DOCTYPE svg PUBLIC "-//W3C//DTD SVG 1.1//EN" "http://www.w3.org/Graphics/SVG/1.1/DTD/svg11.dtd">
<svg version="1.1" id="Calque_1" xmlns="http://www.w3.org/2000/svg" xmlns:xlink="http://www.w3.org/1999/xlink" x="0px" y="0px"
	 width="1190.551px" height="1190.551px" viewBox="0 0 1190.551 1190.551" enable-background="new 0 0 1190.551 1190.551"
	 xml:space="preserve">
<path fill="#010202" d="M1122.311,446.188l55.021-107.986L647.219,68.094l-55.022,107.987l109.479,55.783L602.096,427.3
	c13.662-64.338,6.209-133.598-25.977-196.767C501.492,84.068,322.26,25.832,175.796,100.46
	C29.33,175.088-28.906,354.318,45.723,500.783c74.627,146.465,253.857,204.7,400.322,130.072
	c82.943-42.262,137.576-118.072,155.824-202.478l109.225,55.652L595.928,710.058l92.193,46.976l115.166-226.027l44.795,22.825
	l-17.438-8.885l-87.41,171.552L559.768,851.435l532.183,271.16L918.867,589.896l-6.102-3.108l100.062-196.382L1122.311,446.188z"/>
</svg>
