<?xml version="1.0" encoding="utf-8"?>
<!-- Generator: Adobe Illustrator 16.0.0, SVG Export Plug-In . SVG Version: 6.00 Build 0)  -->
<!DOCTYPE svg PUBLIC "-//W3C//DTD SVG 1.1//EN" "http://www.w3.org/Graphics/SVG/1.1/DTD/svg11.dtd">
<svg version="1.1" id="Calque_1" xmlns="http://www.w3.org/2000/svg" xmlns:xlink="http://www.w3.org/1999/xlink" x="0px" y="0px"
	 width="1190.551px" height="1190.551px" viewBox="0 0 1190.551 1190.551" enable-background="new 0 0 1190.551 1190.551"
	 xml:space="preserve">
<g>
	<path fill="#010202" d="M566.284,50.101v120.695C512.061,97.576,425.052,50.101,326.945,50.101
		c-164.381,0-297.639,133.257-297.639,297.639c0,164.382,133.258,297.639,297.639,297.639
		c164.382,0,297.639-133.257,297.639-297.639c0-66.052-21.529-127.067-57.934-176.442h122.506v220.407H812.03v253.674H915.5V391.705
		h122.871V171.298h122.873V50.101H566.284z"/>
	<polygon fill="#010202" points="29.606,543.169 29.606,1140.45 425.665,744.392 425.665,645.379 326.945,645.379 233.128,645.379 	
		"/>
</g>
</svg>
