<?xml version="1.0" encoding="utf-8"?>
<!-- Generator: Adobe Illustrator 16.0.0, SVG Export Plug-In . SVG Version: 6.00 Build 0)  -->
<!DOCTYPE svg PUBLIC "-//W3C//DTD SVG 1.1//EN" "http://www.w3.org/Graphics/SVG/1.1/DTD/svg11.dtd">
<svg version="1.1" id="Calque_1" xmlns="http://www.w3.org/2000/svg" xmlns:xlink="http://www.w3.org/1999/xlink" x="0px" y="0px"
	 width="1190.551px" height="1190.551px" viewBox="0 0 1190.551 1190.551" enable-background="new 0 0 1190.551 1190.551"
	 xml:space="preserve">
<path fill="#010202" d="M575.199,788.51h192.536l203.523,102.209V293.438l-239.51,239.508c51.293-53.474,82.82-126.053,82.82-206
	c0-164.383-133.258-297.64-297.639-297.64c-164.382,0-297.639,133.257-297.639,297.639c0,98.107,47.475,185.117,120.694,239.339
	H219.292v594.96h121.195v-122.871h220.407V915.5H814.57V812.029H560.896V689.156H340.489V566.65
	c49.375,36.405,110.392,57.934,176.442,57.934c79.946,0,152.523-31.526,205.998-82.816L575.199,689.494V788.51z"/>
</svg>
