<?xml version="1.0" encoding="utf-8"?>
<!-- Generator: Adobe Illustrator 16.0.0, SVG Export Plug-In . SVG Version: 6.00 Build 0)  -->
<!DOCTYPE svg PUBLIC "-//W3C//DTD SVG 1.1//EN" "http://www.w3.org/Graphics/SVG/1.1/DTD/svg11.dtd">
<svg version="1.1" id="Calque_1" xmlns="http://www.w3.org/2000/svg" xmlns:xlink="http://www.w3.org/1999/xlink" x="0px" y="0px"
	 width="1190.551px" height="1190.551px" viewBox="0 0 1190.551 1190.551" enable-background="new 0 0 1190.551 1190.551"
	 xml:space="preserve">
<path fill="#010202" d="M1108.954,378.094l55.022-107.987L633.862,0L578.84,107.987l109.479,55.783l-99.58,195.436
	c13.662-64.338,6.209-133.598-25.977-196.767C488.135,15.974,308.904-42.262,162.439,32.366
	C15.973,106.994-42.262,286.224,32.366,432.689c74.627,146.465,253.858,204.701,400.323,130.073
	c82.943-42.262,137.576-118.072,155.824-202.478l109.224,55.652L582.571,641.964l92.193,46.975L789.93,462.912l44.796,22.825
	l-17.438-8.885l-87.41,171.552L546.412,783.341l532.182,271.16L905.51,521.802l-6.1-3.108l100.062-196.383L1108.954,378.094z"/>
</svg>
