<?xml version="1.0" encoding="utf-8"?>
<!-- Generator: Adobe Illustrator 16.0.0, SVG Export Plug-In . SVG Version: 6.00 Build 0)  -->
<!DOCTYPE svg PUBLIC "-//W3C//DTD SVG 1.1//EN" "http://www.w3.org/Graphics/SVG/1.1/DTD/svg11.dtd">
<svg version="1.1" id="Calque_1" xmlns="http://www.w3.org/2000/svg" xmlns:xlink="http://www.w3.org/1999/xlink" x="0px" y="0px"
	 width="1190.551px" height="1190.551px" viewBox="0 0 1190.551 1190.551" enable-background="new 0 0 1190.551 1190.551"
	 xml:space="preserve">
<path fill="#010202" d="M934.197,574.281H741.659L538.41,472.208c35.575-49.042,56.568-109.35,56.568-174.569
	C594.978,133.257,461.721,0,297.339,0C132.958,0-0.3,133.257-0.3,297.639s133.258,297.639,297.639,297.639
	c0.052,0,0.104-0.002,0.155-0.002v253.67H174.622v220.407H51.749v121.197H646.71v-121.197H538.138h-14.3V848.946H400.965V595.271
	H297.879c98.775-0.176,186.246-48.472,240.259-122.69v596.772l396.059-396.057V574.281z"/>
</svg>
