<?xml version="1.0" encoding="utf-8"?>
<!-- Generator: Adobe Illustrator 16.0.0, SVG Export Plug-In . SVG Version: 6.00 Build 0)  -->
<!DOCTYPE svg PUBLIC "-//W3C//DTD SVG 1.1//EN" "http://www.w3.org/Graphics/SVG/1.1/DTD/svg11.dtd">
<svg version="1.1" id="Calque_1" xmlns="http://www.w3.org/2000/svg" xmlns:xlink="http://www.w3.org/1999/xlink" x="0px" y="0px"
	 width="1190.551px" height="1190.551px" viewBox="0 0 1190.551 1190.551" enable-background="new 0 0 1190.551 1190.551"
	 xml:space="preserve">
<path fill="#010202" d="M355.907,758.903h192.537l203.523,102.209v-597.28L512.458,503.34c51.292-53.474,82.82-126.053,82.82-206
	C595.278,132.957,462.02-0.3,297.639-0.3C133.257-0.3,0,132.957,0,297.339c0,98.107,47.475,185.117,120.695,239.339H0v594.961
	h121.196v-122.872h220.407V885.894h253.675V782.423H341.604V659.551H121.197V537.044c49.375,36.405,110.391,57.934,176.442,57.934
	c79.946,0,152.524-31.526,205.998-82.816L355.907,659.889V758.903z"/>
</svg>
