<?xml version="1.0" encoding="utf-8"?>
<!-- Generator: Adobe Illustrator 16.0.0, SVG Export Plug-In . SVG Version: 6.00 Build 0)  -->
<!DOCTYPE svg PUBLIC "-//W3C//DTD SVG 1.1//EN" "http://www.w3.org/Graphics/SVG/1.1/DTD/svg11.dtd">
<svg version="1.1" id="Calque_1" xmlns="http://www.w3.org/2000/svg" xmlns:xlink="http://www.w3.org/1999/xlink" x="0px" y="0px"
	 width="1190.551px" height="1190.551px" viewBox="0 0 1190.551 1190.551" enable-background="new 0 0 1190.551 1190.551"
	 xml:space="preserve">
<path fill="#010202" d="M991.633,1127.043L595.572,730.984h-99.013v121.939v70.598l-29.363,58.467
	c18.817-39.043,29.363-82.82,29.363-129.062c0-106.947-56.419-200.707-141.105-253.178c41.992,22.654,90.045,35.519,141.104,35.519
	c164.381,0,297.639-133.258,297.639-297.64c0-164.381-133.258-297.639-297.639-297.639c-164.382,0-297.639,133.258-297.639,297.639
	c0,106.949,56.418,200.707,141.104,253.178c-41.992-22.653-90.045-35.519-141.105-35.519v595.277
	c115.044,0,214.831-65.275,264.375-160.805l-68.944,137.283h597.284V1127.043z"/>
</svg>
