<?xml version="1.0" encoding="utf-8"?>
<!-- Generator: Adobe Illustrator 16.0.0, SVG Export Plug-In . SVG Version: 6.00 Build 0)  -->
<!DOCTYPE svg PUBLIC "-//W3C//DTD SVG 1.1//EN" "http://www.w3.org/Graphics/SVG/1.1/DTD/svg11.dtd">
<svg version="1.1" id="Calque_1" xmlns="http://www.w3.org/2000/svg" xmlns:xlink="http://www.w3.org/1999/xlink" x="0px" y="0px"
	 width="1190.551px" height="1190.551px" viewBox="0 0 1190.551 1190.551" enable-background="new 0 0 1190.551 1190.551"
	 xml:space="preserve">
<path fill="#010202" d="M1140.208,1018.277L744.151,622.219h-99.016V727.17c-8.592-153.783-133.914-276.391-288.816-280.651h289.303
	c0.002-164.383-133.256-297.641-297.638-297.641c-164.383,0-297.641,133.258-297.641,297.641h289.304
	C179.12,450.934,50.344,582.441,50.344,744.035c0,164.381,133.257,297.639,297.639,297.639c110.895,0,207.612-60.652,258.82-150.588
	l-63.877,127.191H1140.208z M645.135,760.898v53.857l-24.516,48.816C634.546,831.855,643.105,797.252,645.135,760.898z"/>
</svg>
