<?xml version="1.0" encoding="utf-8"?>
<!-- Generator: Adobe Illustrator 16.0.0, SVG Export Plug-In . SVG Version: 6.00 Build 0)  -->
<!DOCTYPE svg PUBLIC "-//W3C//DTD SVG 1.1//EN" "http://www.w3.org/Graphics/SVG/1.1/DTD/svg11.dtd">
<svg version="1.1" id="Calque_1" xmlns="http://www.w3.org/2000/svg" xmlns:xlink="http://www.w3.org/1999/xlink" x="0px" y="0px"
	 width="1190.551px" height="1190.551px" viewBox="0 0 1190.551 1190.551" enable-background="new 0 0 1190.551 1190.551"
	 xml:space="preserve">
<path fill="#010202" d="M1089.865,869.4L693.807,473.342h-99.015v104.951C586.2,424.51,460.877,301.902,305.975,297.641h289.303
	C595.28,133.258,462.022,0,297.64,0C133.257,0-0.001,133.258-0.001,297.641h289.304C128.777,302.056,0,433.564,0,595.157
	c0,164.381,133.257,297.639,297.639,297.639c110.894,0,207.612-60.652,258.82-150.587L492.583,869.4H1089.865z M594.792,612.022
	v53.856l-24.516,48.817C584.203,682.978,592.761,648.374,594.792,612.022z"/>
</svg>
