<?xml version="1.0" encoding="utf-8"?>
<!-- Generator: Adobe Illustrator 16.0.0, SVG Export Plug-In . SVG Version: 6.00 Build 0)  -->
<!DOCTYPE svg PUBLIC "-//W3C//DTD SVG 1.1//EN" "http://www.w3.org/Graphics/SVG/1.1/DTD/svg11.dtd">
<svg version="1.1" id="Calque_1" xmlns="http://www.w3.org/2000/svg" xmlns:xlink="http://www.w3.org/1999/xlink" x="0px" y="0px"
	 width="1190.551px" height="1190.551px" viewBox="0 0 1190.551 1190.551" enable-background="new 0 0 1190.551 1190.551"
	 xml:space="preserve">
<path fill="#010202" d="M466.861,700.238c145.183-19.794,257.062-144.259,257.062-294.875
	c0.001-164.381-133.257-297.639-297.638-297.639c-164.382,0-297.639,133.258-297.639,297.639
	c0,130.361,83.813,241.133,200.488,281.406h-98.278v192.535l-102.21,203.521h597.279L330.268,687.17
	c30.125,10.261,62.419,15.834,96.017,15.834c13.685,0,27.147-0.944,40.342-2.732c0.017,164.367,133.266,297.606,297.639,297.606
	c164.383,0,297.641-133.258,297.641-297.64H466.861z"/>
</svg>
