<?xml version="1.0" encoding="utf-8"?>
<!-- Generator: Adobe Illustrator 16.0.0, SVG Export Plug-In . SVG Version: 6.00 Build 0)  -->
<!DOCTYPE svg PUBLIC "-//W3C//DTD SVG 1.1//EN" "http://www.w3.org/Graphics/SVG/1.1/DTD/svg11.dtd">
<svg version="1.1" id="Calque_1" xmlns="http://www.w3.org/2000/svg" xmlns:xlink="http://www.w3.org/1999/xlink" x="0px" y="0px"
	 width="1190.551px" height="1190.551px" viewBox="0 0 1190.551 1190.551" enable-background="new 0 0 1190.551 1190.551"
	 xml:space="preserve">
<path fill="#010202" d="M991.633,1127.043L595.572,730.984h-99.013v121.939v70.598l-29.363,58.467
	c18.817-39.043,29.363-82.82,29.363-129.062c0-106.953-56.422-200.713-141.114-253.184c41.995,22.656,90.051,35.522,141.113,35.522
	c164.381,0,297.639-133.257,297.639-297.639c0-164.382-133.258-297.638-297.639-297.638c-164.382,0-297.639,133.257-297.639,297.639
	c0,106.952,56.422,200.712,141.112,253.183c-41.994-22.657-90.051-35.523-141.113-35.523v595.276
	c115.044,0.002,214.831-65.273,264.375-160.803l-68.944,137.283H991.633L991.633,1127.043z"/>
</svg>
