<?xml version="1.0" encoding="utf-8"?>
<!-- Generator: Adobe Illustrator 16.0.0, SVG Export Plug-In . SVG Version: 6.00 Build 0)  -->
<!DOCTYPE svg PUBLIC "-//W3C//DTD SVG 1.1//EN" "http://www.w3.org/Graphics/SVG/1.1/DTD/svg11.dtd">
<svg version="1.1" id="Calque_1" xmlns="http://www.w3.org/2000/svg" xmlns:xlink="http://www.w3.org/1999/xlink" x="0px" y="0px"
	 width="1190.551px" height="1190.551px" viewBox="0 0 1190.551 1190.551" enable-background="new 0 0 1190.551 1190.551"
	 xml:space="preserve">
<path fill="#010202" d="M338.215,592.214c145.183-19.794,257.062-144.259,257.062-294.875C595.278,132.958,462.02-0.3,297.639-0.3
	C133.257-0.3,0,132.958,0,297.339C0,427.7,83.814,538.472,200.489,578.745h-98.279V771.28L0,974.802h597.28L201.622,579.145
	c30.125,10.261,62.419,15.834,96.017,15.834c13.685,0,27.147-0.944,40.342-2.732c0.016,164.367,133.266,297.607,297.639,297.607
	c164.382,0,297.64-133.258,297.64-297.64H338.215z"/>
</svg>
