<?xml version="1.0" encoding="utf-8"?>
<!-- Generator: Adobe Illustrator 16.0.0, SVG Export Plug-In . SVG Version: 6.00 Build 0)  -->
<!DOCTYPE svg PUBLIC "-//W3C//DTD SVG 1.1//EN" "http://www.w3.org/Graphics/SVG/1.1/DTD/svg11.dtd">
<svg version="1.1" id="Calque_1" xmlns="http://www.w3.org/2000/svg" xmlns:xlink="http://www.w3.org/1999/xlink" x="0px" y="0px"
	 width="1190.551px" height="1190.551px" viewBox="0 0 1190.551 1190.551" enable-background="new 0 0 1190.551 1190.551"
	 xml:space="preserve">
<path fill="#010202" d="M792.713,1086.755l-396.06-396.058H297.64v121.94v70.596l-29.363,58.468
	c18.817-39.043,29.363-82.821,29.363-129.063c0-106.952-56.422-200.712-141.114-253.183c41.995,22.656,90.05,35.522,141.113,35.522
	c164.381,0,297.639-133.257,297.639-297.639S462.02-0.3,297.639-0.3C133.257-0.3,0,132.957,0,297.339
	c0,106.952,56.422,200.712,141.113,253.183c-41.995-22.657-90.051-35.523-141.114-35.523v595.277
	c115.044,0.001,214.831-65.275,264.375-160.804l-68.944,137.283H792.713z"/>
</svg>
