<?xml version="1.0" encoding="utf-8"?>
<!-- Generator: Adobe Illustrator 16.0.0, SVG Export Plug-In . SVG Version: 6.00 Build 0)  -->
<!DOCTYPE svg PUBLIC "-//W3C//DTD SVG 1.1//EN" "http://www.w3.org/Graphics/SVG/1.1/DTD/svg11.dtd">
<svg version="1.1" id="Calque_1" xmlns="http://www.w3.org/2000/svg" xmlns:xlink="http://www.w3.org/1999/xlink" x="0px" y="0px"
	 width="1190.551px" height="1190.551px" viewBox="0 0 1190.551 1190.551" enable-background="new 0 0 1190.551 1190.551"
	 xml:space="preserve">
<path fill="#010202" d="M573.285,838.819V675.252h-99.213v-83.124H340.099c144.265-20.609,255.178-144.647,255.178-294.61
	c0-164.382-133.258-297.64-297.639-297.64C133.257-0.122,0,133.136,0,297.518c0,164.381,133.257,297.639,297.639,297.639
	c14.383,0,28.521-1.042,42.358-3.014v166.235h-61.671v99.212H165.705v149.707h58.992v180.109h348.588v-162.847
	c54.541,68.202,138.442,111.901,232.562,111.901c164.384,0,297.642-133.26,297.642-297.642H573.285z M476.752,1022.499V838.819
	h31.457c-0.001,69.312,23.692,133.092,63.42,183.681H476.752z"/>
</svg>
