<?xml version="1.0" encoding="utf-8"?>
<!-- Generator: Adobe Illustrator 16.0.0, SVG Export Plug-In . SVG Version: 6.00 Build 0)  -->
<!DOCTYPE svg PUBLIC "-//W3C//DTD SVG 1.1//EN" "http://www.w3.org/Graphics/SVG/1.1/DTD/svg11.dtd">
<svg version="1.1" id="Calque_1" xmlns="http://www.w3.org/2000/svg" xmlns:xlink="http://www.w3.org/1999/xlink" x="0px" y="0px"
	 width="1190.551px" height="1190.551px" viewBox="0 0 1190.551 1190.551" enable-background="new 0 0 1190.551 1190.551"
	 xml:space="preserve">
<path fill="#010202" d="M584.143,377.437c7.051-25.397,10.835-52.154,10.835-79.798C594.978,133.257,461.721,0,297.339,0
	C132.958,0-0.3,133.257-0.3,297.639s133.258,297.639,297.639,297.639c18.141,0,35.9-1.628,53.146-4.737v166.203h-61.671v99.213
	H176.193v149.706h58.992v180.111h348.588v-164.908H487.24V837.187h96.533V972.71c164.382,0.002,297.64-133.256,297.64-297.638
	C881.412,510.814,748.354,377.637,584.143,377.437z M484.56,673.618v-83.124H350.728c112.161-20.314,202.44-103.472,233.045-211.691
	v294.815H484.56z"/>
</svg>
