<?xml version="1.0" encoding="utf-8"?>
<!-- Generator: Adobe Illustrator 16.0.0, SVG Export Plug-In . SVG Version: 6.00 Build 0)  -->
<!DOCTYPE svg PUBLIC "-//W3C//DTD SVG 1.1//EN" "http://www.w3.org/Graphics/SVG/1.1/DTD/svg11.dtd">
<svg version="1.1" id="Calque_1" xmlns="http://www.w3.org/2000/svg" xmlns:xlink="http://www.w3.org/1999/xlink" x="0px" y="0px"
	 width="1190.551px" height="1190.551px" viewBox="0 0 1190.551 1190.551" enable-background="new 0 0 1190.551 1190.551"
	 xml:space="preserve">
<path fill="#010202" d="M654.559,442.583V93.997H489.65v96.532H305.972V93.997H142.405v99.213H59.281v134.075H225.53v61.671h99.213
	v112.621h19.163c-158.342,6.815-284.625,137.32-284.625,297.339c0,164.381,133.257,297.639,297.639,297.639
	c164.381,0,297.639-133.258,297.639-297.639c0-64.646-20.619-124.472-55.626-173.277c54.474,69.742,139.345,114.584,234.697,114.584
	c164.382,0,297.642-133.258,297.642-297.64L654.559,442.583L654.559,442.583z M369.933,501.577h104.516v-58.992h61.543
	c0,64.646,20.618,124.472,55.626,173.279C539.636,549.312,459.969,505.452,369.933,501.577z"/>
</svg>
