<?xml version="1.0" encoding="utf-8"?>
<!-- Generator: Adobe Illustrator 16.0.0, SVG Export Plug-In . SVG Version: 6.00 Build 0)  -->
<!DOCTYPE svg PUBLIC "-//W3C//DTD SVG 1.1//EN" "http://www.w3.org/Graphics/SVG/1.1/DTD/svg11.dtd">
<svg version="1.1" id="Calque_1" xmlns="http://www.w3.org/2000/svg" xmlns:xlink="http://www.w3.org/1999/xlink" x="0px" y="0px"
	 width="1190.551px" height="1190.551px" viewBox="0 0 1190.551 1190.551" enable-background="new 0 0 1190.551 1190.551"
	 xml:space="preserve">
<path fill="#010202" d="M938.877,180.111V0H590.289v164.907h96.534v183.68h-96.207c2.856-16.557,4.361-33.576,4.361-50.948
	C594.978,133.257,461.721,0,297.339,0S-0.3,133.257-0.3,297.639s133.257,297.639,297.639,297.639
	c53.541,0,103.773-14.146,147.181-38.891c-84.892,52.427-141.473,146.304-141.473,253.409c0,164.382,133.258,297.64,297.641,297.64
	V512.156c-53.542,0-103.775,14.146-147.183,38.891c70.583-43.591,121.596-115.832,136.785-200.513v161.622h99.213v83.124h134.076
	V429.03h61.67v-99.213H997.87V180.111H938.877z"/>
</svg>
