<?xml version="1.0" encoding="utf-8"?>
<!-- Generator: Adobe Illustrator 16.0.0, SVG Export Plug-In . SVG Version: 6.00 Build 0)  -->
<!DOCTYPE svg PUBLIC "-//W3C//DTD SVG 1.1//EN" "http://www.w3.org/Graphics/SVG/1.1/DTD/svg11.dtd">
<svg version="1.1" id="Calque_1" xmlns="http://www.w3.org/2000/svg" xmlns:xlink="http://www.w3.org/1999/xlink" x="0px" y="0px"
	 width="1190.551px" height="1190.551px" viewBox="0 0 1190.551 1190.551" enable-background="new 0 0 1190.551 1190.551"
	 xml:space="preserve">
<path fill="#010202" d="M767.929,403.368V270.355H601.68v-61.671h-99.213V96.063H352.761v58.991h-180.11v348.589h164.908V407.11
	h183.679v96.481c-16.595-2.87-33.655-4.381-51.069-4.381c-164.382,0-297.64,133.257-297.64,297.64
	c0,164.381,133.258,297.639,297.64,297.639c164.381,0,297.639-133.258,297.639-297.639c0-37.293-6.879-72.975-19.402-105.871
	c47.488,101.289,150.353,171.449,269.618,171.449V267.151C913.142,267.15,820.942,321.403,767.929,403.368z M521.55,503.643h163.255
	V404.43h82.428c-29.654,46.281-46.85,101.312-46.85,160.358c0,37.292,6.878,72.974,19.403,105.87
	C699.274,584.252,618.466,520.51,521.55,503.643z"/>
</svg>
