<?xml version="1.0" encoding="utf-8"?>
<!-- Generator: Adobe Illustrator 16.0.0, SVG Export Plug-In . SVG Version: 6.00 Build 0)  -->
<!DOCTYPE svg PUBLIC "-//W3C//DTD SVG 1.1//EN" "http://www.w3.org/Graphics/SVG/1.1/DTD/svg11.dtd">
<svg version="1.1" id="Calque_1" xmlns="http://www.w3.org/2000/svg" xmlns:xlink="http://www.w3.org/1999/xlink" x="0px" y="0px"
	 width="1190.551px" height="1190.551px" viewBox="0 0 1190.551 1190.551" enable-background="new 0 0 1190.551 1190.551"
	 xml:space="preserve">
<g>
	<path fill="#010202" d="M497.945,587.516H364.123c132.374-30.204,231.154-148.651,231.154-290.177
		C595.278,132.957,462.02-0.3,297.639-0.3C133.257-0.3,0,132.957,0,297.339s133.257,297.639,297.639,297.639
		c22.766,0,44.931-2.566,66.231-7.407v166.194h-61.672v99.213h-112.62v149.706h58.991v180.11h348.588v-164.906h-96.533V834.207
		h96.533V670.64h-1.88h-97.333V587.516z"/>
	<path fill="#010202" d="M892.918,373.001c0-164.383-133.259-297.641-297.641-297.641v221.979V670.64
		C759.659,670.642,892.918,537.384,892.918,373.001z"/>
</g>
</svg>
