<?xml version="1.0" encoding="utf-8"?>
<!-- Generator: Adobe Illustrator 16.0.0, SVG Export Plug-In . SVG Version: 6.00 Build 0)  -->
<!DOCTYPE svg PUBLIC "-//W3C//DTD SVG 1.1//EN" "http://www.w3.org/Graphics/SVG/1.1/DTD/svg11.dtd">
<svg version="1.1" id="Calque_1" xmlns="http://www.w3.org/2000/svg" xmlns:xlink="http://www.w3.org/1999/xlink" x="0px" y="0px"
	 width="1190.551px" height="1190.551px" viewBox="0 0 1190.551 1190.551" enable-background="new 0 0 1190.551 1190.551"
	 xml:space="preserve">
<path fill="#010202" d="M514.999-0.001c0,51.063,12.866,99.118,35.521,141.113C498.05,56.422,404.291,0,297.339,0
	C132.958,0-0.3,133.257-0.3,297.639s133.258,297.639,297.639,297.639c18.141,0,35.9-1.628,53.146-4.737v166.203h-61.671v99.213
	H176.193v149.706h58.992v180.111h348.588v-164.908H487.24V837.187h96.533V673.618H484.56v-83.124H350.728
	c138.902-25.157,244.25-146.7,244.25-292.855c0-51.062-12.866-99.117-35.522-141.112c52.471,84.691,146.232,141.113,253.183,141.113
	c164.382,0,297.64-133.258,297.64-297.641H514.999z"/>
</svg>
