<?xml version="1.0" encoding="utf-8"?>
<!-- Generator: Adobe Illustrator 16.0.0, SVG Export Plug-In . SVG Version: 6.00 Build 0)  -->
<!DOCTYPE svg PUBLIC "-//W3C//DTD SVG 1.1//EN" "http://www.w3.org/Graphics/SVG/1.1/DTD/svg11.dtd">
<svg version="1.1" id="Calque_1" xmlns="http://www.w3.org/2000/svg" xmlns:xlink="http://www.w3.org/1999/xlink" x="0px" y="0px"
	 width="1190.551px" height="1190.551px" viewBox="0 0 1190.551 1190.551" enable-background="new 0 0 1190.551 1190.551"
	 xml:space="preserve">
<path fill="#010202" d="M1035.367,221.668V41.558H686.78v164.907h96.533v183.68h-96.207c2.857-16.557,4.361-33.576,4.361-50.948
	C691.469,174.814,558.212,41.558,393.83,41.558S96.191,174.814,96.191,339.197c0,164.382,133.257,297.639,297.639,297.639
	c53.541,0,103.772-14.146,147.181-38.891c-84.892,52.427-141.473,146.304-141.473,253.408c0,164.382,133.258,297.64,297.64,297.64
	V553.714c-53.541,0-103.775,14.146-147.182,38.891c70.583-43.591,121.596-115.832,136.784-200.513v161.622h99.215v83.124h134.074
	v-166.25h61.67v-99.213h112.621V221.668H1035.367z"/>
</svg>
