<?xml version="1.0" encoding="utf-8"?>
<!-- Generator: Adobe Illustrator 16.0.0, SVG Export Plug-In . SVG Version: 6.00 Build 0)  -->
<!DOCTYPE svg PUBLIC "-//W3C//DTD SVG 1.1//EN" "http://www.w3.org/Graphics/SVG/1.1/DTD/svg11.dtd">
<svg version="1.1" id="Calque_1" xmlns="http://www.w3.org/2000/svg" xmlns:xlink="http://www.w3.org/1999/xlink" x="0px" y="0px"
	 width="1190.551px" height="1190.551px" viewBox="0 0 1190.551 1190.551" enable-background="new 0 0 1190.551 1190.551"
	 xml:space="preserve">
<path fill="#010202" d="M616.816,840.453V676.885h-99.213v-83.124H383.63c144.265-20.609,255.178-144.647,255.178-294.61
	c0-164.382-133.258-297.64-297.639-297.64S43.531,134.769,43.531,299.151c0,164.381,133.257,297.64,297.639,297.64
	c14.383,0,28.521-1.042,42.358-3.015v166.235h-61.671v99.211H209.237v149.707h58.991v180.109h348.588v-162.848
	c54.541,68.203,138.442,111.902,232.562,111.902c164.384,0,297.642-133.26,297.642-297.643H616.816V840.453z M520.283,1024.133
	v-183.68h31.457c-0.002,69.311,23.691,133.092,63.42,183.68H520.283L520.283,1024.133z"/>
</svg>
