<?xml version="1.0" encoding="utf-8"?>
<!-- Generator: Adobe Illustrator 16.0.0, SVG Export Plug-In . SVG Version: 6.00 Build 0)  -->
<!DOCTYPE svg PUBLIC "-//W3C//DTD SVG 1.1//EN" "http://www.w3.org/Graphics/SVG/1.1/DTD/svg11.dtd">
<svg version="1.1" id="Calque_1" xmlns="http://www.w3.org/2000/svg" xmlns:xlink="http://www.w3.org/1999/xlink" x="0px" y="0px"
	 width="1190.551px" height="1190.551px" viewBox="0 0 1190.551 1190.551" enable-background="new 0 0 1190.551 1190.551"
	 xml:space="preserve">
<g>
	<path fill="#010202" d="M646.761,591.544H512.94c132.373-30.204,231.153-148.651,231.153-290.177
		C744.094,136.985,610.836,3.729,446.455,3.729c-164.382,0-297.639,133.257-297.639,297.639s133.257,297.639,297.639,297.639
		c22.766,0,44.931-2.565,66.231-7.406v166.193h-61.673v99.214H338.395v149.705h58.99v180.11h348.588v-164.906H649.44V838.235h96.533
		V674.668h-1.88H646.76L646.761,591.544L646.761,591.544z"/>
	<path fill="#010202" d="M1041.735,377.029c0-164.383-133.26-297.641-297.642-297.641v221.979v373.301
		C908.475,674.67,1041.735,541.412,1041.735,377.029z"/>
</g>
</svg>
