<?xml version="1.0" encoding="utf-8"?>
<!-- Generator: Adobe Illustrator 16.0.0, SVG Export Plug-In . SVG Version: 6.00 Build 0)  -->
<!DOCTYPE svg PUBLIC "-//W3C//DTD SVG 1.1//EN" "http://www.w3.org/Graphics/SVG/1.1/DTD/svg11.dtd">
<svg version="1.1" id="Calque_1" xmlns="http://www.w3.org/2000/svg" xmlns:xlink="http://www.w3.org/1999/xlink" x="0px" y="0px"
	 width="1190.551px" height="1190.551px" viewBox="0 0 1190.551 1190.551" enable-background="new 0 0 1190.551 1190.551"
	 xml:space="preserve">
<path fill="#010202" d="M555.284,2.388c0,51.063,12.866,99.118,35.521,141.113C538.336,58.811,444.577,2.389,337.625,2.389
	c-164.381,0-297.639,133.257-297.639,297.639c0,164.382,133.258,297.638,297.639,297.638c18.141,0,35.899-1.627,53.146-4.736
	v166.203H329.1v99.213H216.479v149.706h58.992v180.111h348.588v-164.908h-96.533V839.576h96.533V676.007h-99.213v-83.124H391.014
	c138.902-25.157,244.25-146.7,244.25-292.855c0-51.062-12.866-99.117-35.522-141.112c52.472,84.691,146.232,141.113,253.184,141.113
	c164.382,0,297.64-133.258,297.64-297.641H555.284L555.284,2.388z"/>
</svg>
