<?xml version="1.0" encoding="utf-8"?>
<!-- Generator: Adobe Illustrator 16.0.0, SVG Export Plug-In . SVG Version: 6.00 Build 0)  -->
<!DOCTYPE svg PUBLIC "-//W3C//DTD SVG 1.1//EN" "http://www.w3.org/Graphics/SVG/1.1/DTD/svg11.dtd">
<svg version="1.1" id="Calque_1" xmlns="http://www.w3.org/2000/svg" xmlns:xlink="http://www.w3.org/1999/xlink" x="0px" y="0px"
	 width="1190.551px" height="1190.551px" viewBox="0 0 1190.551 1190.551" enable-background="new 0 0 1190.551 1190.551"
	 xml:space="preserve">
<path fill="#010202" d="M947.885,315.386c0-164.382-133.258-297.64-297.641-297.64v165.922h-58.991V3.558H242.666v164.907h96.533
	v183.68h-96.533v163.567h99.213v83.125h133.507c-133.158,29.627-232.72,148.437-232.72,290.518
	c0,164.382,133.257,297.64,297.639,297.64c164.381,0,297.639-133.258,297.639-297.64c0-125.241-77.361-232.401-186.898-276.338
	C815.059,612.586,947.885,479.501,947.885,315.386z M540.304,591.715c-22.098,0-43.625,2.429-64.351,6.998V432.588h61.671v-99.213
	h112.62v279.314C616.231,599.16,579.138,591.715,540.304,591.715z"/>
</svg>
