<?xml version="1.0" encoding="utf-8"?>
<!-- Generator: Adobe Illustrator 16.0.0, SVG Export Plug-In . SVG Version: 6.00 Build 0)  -->
<!DOCTYPE svg PUBLIC "-//W3C//DTD SVG 1.1//EN" "http://www.w3.org/Graphics/SVG/1.1/DTD/svg11.dtd">
<svg version="1.1" id="Calque_1" xmlns="http://www.w3.org/2000/svg" xmlns:xlink="http://www.w3.org/1999/xlink" x="0px" y="0px"
	 width="1190.551px" height="1190.551px" viewBox="0 0 1190.551 1190.551" enable-background="new 0 0 1190.551 1190.551"
	 xml:space="preserve">
<path fill="#010202" d="M705.22,311.828c0-164.382-133.259-297.64-297.641-297.64v165.922h-58.991V0H0v164.907h96.533v183.68H0
	v163.567h99.213v83.124H232.72C99.562,624.905,0,743.715,0,885.796c0,164.382,133.257,297.64,297.639,297.64
	c164.381,0,297.639-133.258,297.639-297.64c0-125.241-77.361-232.401-186.898-276.338
	C572.393,609.028,705.22,475.944,705.22,311.828z M297.639,588.157c-22.098,0-43.625,2.429-64.351,6.998V429.03h61.671v-99.213
	h112.62v279.314C373.566,595.603,336.473,588.157,297.639,588.157z"/>
</svg>
