<?xml version="1.0" encoding="utf-8"?>
<!-- Generator: Adobe Illustrator 16.0.0, SVG Export Plug-In . SVG Version: 6.00 Build 0)  -->
<!DOCTYPE svg PUBLIC "-//W3C//DTD SVG 1.1//EN" "http://www.w3.org/Graphics/SVG/1.1/DTD/svg11.dtd">
<svg version="1.1" id="Calque_1" xmlns="http://www.w3.org/2000/svg" xmlns:xlink="http://www.w3.org/1999/xlink" x="0px" y="0px"
	 width="1190.551px" height="1190.551px" viewBox="0 0 1190.551 1190.551" enable-background="new 0 0 1190.551 1190.551"
	 xml:space="preserve">
<path fill="#010202" d="M595.279,307.305V174.292H429.03v-61.671h-99.213V0H180.111v58.991H0V407.58h164.908v-96.533h183.679v96.481
	c-16.595-2.87-33.655-4.381-51.069-4.381c-164.382,0-297.64,133.257-297.64,297.639c0,164.381,133.258,297.639,297.64,297.639
	c164.381,0,297.639-133.258,297.639-297.639c0-37.293-6.879-72.974-19.403-105.87c47.489,101.289,150.353,171.449,269.619,171.449
	V171.088C740.492,171.087,648.292,225.34,595.279,307.305z M348.9,407.58h163.255v-99.213h82.427
	c-29.654,46.281-46.849,101.312-46.849,160.358c0,37.292,6.878,72.974,19.403,105.87C526.624,488.189,445.816,424.447,348.9,407.58z
	"/>
</svg>
