<?xml version="1.0" encoding="utf-8"?>
<!-- Generator: Adobe Illustrator 16.0.0, SVG Export Plug-In . SVG Version: 6.00 Build 0)  -->
<!DOCTYPE svg PUBLIC "-//W3C//DTD SVG 1.1//EN" "http://www.w3.org/Graphics/SVG/1.1/DTD/svg11.dtd">
<svg version="1.1" id="Calque_1" xmlns="http://www.w3.org/2000/svg" xmlns:xlink="http://www.w3.org/1999/xlink" x="0px" y="0px"
	 width="1190.551px" height="1190.551px" viewBox="0 0 1190.551 1190.551" enable-background="new 0 0 1190.551 1190.551"
	 xml:space="preserve">
<path fill="#010202" d="M748.879,402.89c11.674-31.897,18.043-66.349,18.043-102.289c0-164.382-133.258-297.64-297.638-297.64
	c-164.382,0-297.639,133.258-297.639,297.64c0,164.381,133.257,297.639,297.639,297.639c20.239,0,40.003-2.029,59.108-5.879V758.56
	h-61.671v99.214h-112.62v149.705h58.992v180.111h348.588v-164.908h-96.533V839.004h96.533V678.028
	c51.604,88.409,147.471,147.824,257.225,147.824V230.574C899.299,230.574,796.188,301.135,748.879,402.89z M662.467,675.436v-83.123
	H528.646c93.684-18.962,171.393-81.927,210.661-166.387c-11.672,31.897-18.043,66.348-18.043,102.288
	c0,53.558,14.154,103.806,38.916,147.224h-97.713V675.436z"/>
</svg>
