<?xml version="1.0" encoding="utf-8"?>
<!-- Generator: Adobe Illustrator 16.0.0, SVG Export Plug-In . SVG Version: 6.00 Build 0)  -->
<!DOCTYPE svg PUBLIC "-//W3C//DTD SVG 1.1//EN" "http://www.w3.org/Graphics/SVG/1.1/DTD/svg11.dtd">
<svg version="1.1" id="Calque_1" xmlns="http://www.w3.org/2000/svg" xmlns:xlink="http://www.w3.org/1999/xlink" x="0px" y="0px"
	 width="1190.551px" height="1190.551px" viewBox="0 0 1190.551 1190.551" enable-background="new 0 0 1190.551 1190.551"
	 xml:space="preserve">
<path fill="#010202" d="M738.862,379.825c7.051-25.397,10.836-52.154,10.836-79.798c0-164.382-133.258-297.639-297.639-297.639
	c-164.381,0-297.639,133.257-297.639,297.639c0,164.382,133.258,297.639,297.639,297.639c18.141,0,35.899-1.628,53.146-4.737
	v166.204h-61.671v99.213H330.912v149.705h58.992v180.111h348.588v-164.908h-96.533V839.576h96.533v135.521
	c164.381,0.002,297.639-133.256,297.639-297.637C1036.131,513.202,903.073,380.025,738.862,379.825z M639.28,676.006v-83.124
	H505.447c112.161-20.314,202.44-103.472,233.045-211.691v294.815H639.28z"/>
</svg>
