<?xml version="1.0" encoding="utf-8"?>
<!-- Generator: Adobe Illustrator 16.0.0, SVG Export Plug-In . SVG Version: 6.00 Build 0)  -->
<!DOCTYPE svg PUBLIC "-//W3C//DTD SVG 1.1//EN" "http://www.w3.org/Graphics/SVG/1.1/DTD/svg11.dtd">
<svg version="1.1" id="Calque_1" xmlns="http://www.w3.org/2000/svg" xmlns:xlink="http://www.w3.org/1999/xlink" x="0px" y="0px"
	 width="1190.551px" height="1190.551px" viewBox="0 0 1190.551 1190.551" enable-background="new 0 0 1190.551 1190.551"
	 xml:space="preserve">
<path fill="#010202" d="M595.279,348.587V0H430.37v96.532H246.692V0H83.124v99.213H0v134.075h166.249v61.671h99.213V407.58h19.163
	C126.283,414.395,0,544.9,0,704.919c0,164.381,133.257,297.639,297.639,297.639c164.381,0,297.639-133.258,297.639-297.639
	c0-64.646-20.619-124.471-55.626-173.277c54.473,69.742,139.345,114.585,234.697,114.585c164.382,0,297.642-133.258,297.642-297.641
	H595.279z M310.653,407.58h104.515v-58.992h61.543c0,64.646,20.619,124.472,55.626,173.279
	C480.356,455.316,400.689,411.455,310.653,407.58z"/>
</svg>
