<?xml version="1.0" encoding="utf-8"?>
<!-- Generator: Adobe Illustrator 16.0.0, SVG Export Plug-In . SVG Version: 6.00 Build 0)  -->
<!DOCTYPE svg PUBLIC "-//W3C//DTD SVG 1.1//EN" "http://www.w3.org/Graphics/SVG/1.1/DTD/svg11.dtd">
<svg version="1.1" id="Calque_1" xmlns="http://www.w3.org/2000/svg" xmlns:xlink="http://www.w3.org/1999/xlink" x="0px" y="0px"
	 width="1190.551px" height="1190.551px" viewBox="0 0 1190.551 1190.551" enable-background="new 0 0 1190.551 1190.551"
	 xml:space="preserve">
<path fill="#010202" d="M576.749,399.806c11.672-31.897,18.043-66.349,18.043-102.289c0-164.382-133.258-297.64-297.639-297.64
	c-164.382,0-297.639,133.258-297.639,297.64c0,164.381,133.257,297.639,297.639,297.639c20.239,0,40.003-2.029,59.108-5.879v166.199
	h-61.671v99.214H181.97v149.705h58.992v180.111H589.55v-164.908h-96.533V835.92h96.533V674.944
	c51.605,88.41,147.471,147.825,257.225,147.825V227.49C727.168,227.49,624.057,298.051,576.749,399.806z M490.336,672.352v-83.123
	H356.515c93.685-18.962,171.394-81.927,210.661-166.387c-11.672,31.897-18.043,66.348-18.043,102.288
	c0,53.558,14.155,103.806,38.915,147.223H490.336z"/>
</svg>
