<?xml version="1.0" encoding="utf-8"?>
<!-- Generator: Adobe Illustrator 16.0.0, SVG Export Plug-In . SVG Version: 6.00 Build 0)  -->
<!DOCTYPE svg PUBLIC "-//W3C//DTD SVG 1.1//EN" "http://www.w3.org/Graphics/SVG/1.1/DTD/svg11.dtd">
<svg version="1.1" id="Calque_1" xmlns="http://www.w3.org/2000/svg" xmlns:xlink="http://www.w3.org/1999/xlink" x="0px" y="0px"
	 width="1190.551px" height="1190.551px" viewBox="0 0 1190.551 1190.551" enable-background="new 0 0 1190.551 1190.551"
	 xml:space="preserve">
<path fill="#010202" d="M962.903,426.802V263.234H863.69V180.11H729.614v166.249h-61.67v99.213H555.667
	c25.009-43.578,39.311-94.084,39.311-147.933C594.978,133.257,461.721,0,297.339,0C132.958,0-0.3,133.257-0.3,297.639
	s133.258,297.639,297.639,297.639c110.288,0,206.561-59.987,257.982-149.11v149.11H297.339H0
	c-0.001,164.382,133.257,297.642,297.639,297.642s297.64-133.26,297.64-297.642h19.036v180.111h348.588V610.481h-96.534V426.802
	H962.903z"/>
</svg>
