<?xml version="1.0" encoding="utf-8"?>
<!-- Generator: Adobe Illustrator 16.0.0, SVG Export Plug-In . SVG Version: 6.00 Build 0)  -->
<!DOCTYPE svg PUBLIC "-//W3C//DTD SVG 1.1//EN" "http://www.w3.org/Graphics/SVG/1.1/DTD/svg11.dtd">
<svg version="1.1" id="Calque_1" xmlns="http://www.w3.org/2000/svg" xmlns:xlink="http://www.w3.org/1999/xlink" x="0px" y="0px"
	 width="1190.551px" height="1190.551px" viewBox="0 0 1190.551 1190.551" enable-background="new 0 0 1190.551 1190.551"
	 xml:space="preserve">
<path fill="#010202" d="M447.194,386.814v-53.407h112.621V183.7h-58.992V3.589H152.235v164.907h96.533v183.68h-96.533v163.567
	h99.213v83.125h133.099C251.531,628.6,152.113,747.343,152.113,889.323c0,164.382,133.258,297.639,297.64,297.639
	c164.381,0,297.639-133.257,297.639-297.639c0-164.381-133.258-297.64-297.639-297.64c-22.055,0-43.542,2.42-64.229,6.971V432.619
	h61.671v159.064h2.559h277.788v-55.711h215.65v276.755h95.247V386.814H447.194z"/>
</svg>
