<?xml version="1.0" encoding="utf-8"?>
<!-- Generator: Adobe Illustrator 16.0.0, SVG Export Plug-In . SVG Version: 6.00 Build 0)  -->
<!DOCTYPE svg PUBLIC "-//W3C//DTD SVG 1.1//EN" "http://www.w3.org/Graphics/SVG/1.1/DTD/svg11.dtd">
<svg version="1.1" id="Calque_1" xmlns="http://www.w3.org/2000/svg" xmlns:xlink="http://www.w3.org/1999/xlink" x="0px" y="0px"
	 width="1190.551px" height="1190.551px" viewBox="0 0 1190.551 1190.551" enable-background="new 0 0 1190.551 1190.551"
	 xml:space="preserve">
<path fill="#010202" d="M1030.293,345.496v-180.11H681.705v163.752c-39.055-118.834-150.9-204.644-282.801-204.644
	c-164.382,0-297.639,133.258-297.639,297.639c0,86.11,36.582,163.664,95.034,218.011h-95.034v425.913H692.51V861.188H412.164v55.711
	H196.512V640.342c53.108,49.283,124.224,79.431,202.392,79.431c131.902,0,243.747-85.81,282.801-204.644v162.413h99.213v83.123
	h134.076v-166.25h61.67v-99.212h112.621V345.496H1030.293z M778.237,513.972H682.08c9.375-28.928,14.463-59.788,14.463-91.84
	c0-32.052-5.088-62.912-14.463-91.84h96.156V513.972z"/>
</svg>
