<?xml version="1.0" encoding="utf-8"?>
<!-- Generator: Adobe Illustrator 16.0.0, SVG Export Plug-In . SVG Version: 6.00 Build 0)  -->
<!DOCTYPE svg PUBLIC "-//W3C//DTD SVG 1.1//EN" "http://www.w3.org/Graphics/SVG/1.1/DTD/svg11.dtd">
<svg version="1.1" id="Calque_1" xmlns="http://www.w3.org/2000/svg" xmlns:xlink="http://www.w3.org/1999/xlink" x="0px" y="0px"
	 width="1190.551px" height="1190.551px" viewBox="0 0 1190.551 1190.551" enable-background="new 0 0 1190.551 1190.551"
	 xml:space="preserve">
<path fill="#010202" d="M790.419,140.332v200.39c-4.4-160.539-135.916-289.329-297.517-289.329
	c-164.382,0-297.64,133.257-297.64,297.639c0,164.382,133.258,297.638,297.64,297.638c26.44,0,52.068-3.465,76.475-9.936v94.844
	h56.378v96.533H442.076v-96.533H278.509v99.213h-83.124v134.074h166.249v61.672h99.212v112.621h149.707v-58.992h180.109V731.577
	h204.626V140.332H790.419z M846.132,636.33H570.869c124-33.57,215.884-145.252,219.551-278.987v63.337h55.713L846.132,636.33
	L846.132,636.33z"/>
</svg>
