<?xml version="1.0" encoding="utf-8"?>
<!-- Generator: Adobe Illustrator 16.0.0, SVG Export Plug-In . SVG Version: 6.00 Build 0)  -->
<!DOCTYPE svg PUBLIC "-//W3C//DTD SVG 1.1//EN" "http://www.w3.org/Graphics/SVG/1.1/DTD/svg11.dtd">
<svg version="1.1" id="Calque_1" xmlns="http://www.w3.org/2000/svg" xmlns:xlink="http://www.w3.org/1999/xlink" x="0px" y="0px"
	 width="1190.551px" height="1190.551px" viewBox="0 0 1190.551 1190.551" enable-background="new 0 0 1190.551 1190.551"
	 xml:space="preserve">
<g>
	<path fill="#010202" d="M938.877,180.111V0H590.289v164.907h96.534v183.68h-96.207c2.856-16.557,4.361-33.576,4.361-50.948
		C594.978,133.257,461.721,0,297.339,0C132.958,0-0.3,133.257-0.3,297.639s133.258,297.639,297.639,297.639
		c146.33,0,267.993-105.597,292.95-244.745v161.622h99.213v83.124h134.076V429.03h61.67v-99.212H997.87V180.111H938.877z"/>
	<polygon fill="#010202" points="0,800.148 280.347,800.148 280.347,744.436 495.998,744.436 495.998,1021.192 591.245,1021.192 
		591.245,595.278 297.339,595.278 0,595.278 	"/>
</g>
</svg>
