<?xml version="1.0" encoding="utf-8"?>
<!-- Generator: Adobe Illustrator 16.0.0, SVG Export Plug-In . SVG Version: 6.00 Build 0)  -->
<!DOCTYPE svg PUBLIC "-//W3C//DTD SVG 1.1//EN" "http://www.w3.org/Graphics/SVG/1.1/DTD/svg11.dtd">
<svg version="1.1" id="Calque_1" xmlns="http://www.w3.org/2000/svg" xmlns:xlink="http://www.w3.org/1999/xlink" x="0px" y="0px"
	 width="1190.551px" height="1190.551px" viewBox="0 0 1190.551 1190.551" enable-background="new 0 0 1190.551 1190.551"
	 xml:space="preserve">
<path fill="#010202" d="M998.825,404.773H718.479v55.713H502.826V183.729H407.58v-3.618h-58.992V0H0v164.907h96.533v183.68H0
	v163.567h99.213v83.124h131.801C98.467,625.356-0.485,743.882-0.485,885.531c0,164.381,133.257,297.639,297.639,297.639
	c164.381,0,297.639-133.258,297.639-297.639c0-124.821-76.845-231.677-185.798-275.889h589.831V404.773z M297.154,587.892
	c-21.926,0-43.29,2.393-63.865,6.892V429.03h61.671v-99.212H407.58v279.247C373.434,595.413,336.174,587.892,297.154,587.892z"/>
</svg>
