<?xml version="1.0" encoding="utf-8"?>
<!-- Generator: Adobe Illustrator 16.0.0, SVG Export Plug-In . SVG Version: 6.00 Build 0)  -->
<!DOCTYPE svg PUBLIC "-//W3C//DTD SVG 1.1//EN" "http://www.w3.org/Graphics/SVG/1.1/DTD/svg11.dtd">
<svg version="1.1" id="Calque_1" xmlns="http://www.w3.org/2000/svg" xmlns:xlink="http://www.w3.org/1999/xlink" x="0px" y="0px"
	 width="1190.551px" height="1190.551px" viewBox="0 0 1190.551 1190.551" enable-background="new 0 0 1190.551 1190.551"
	 xml:space="preserve">
<g>
	<path fill="#010202" d="M1035.367,264.79V84.679H686.78v164.907h96.533v183.68h-96.207c2.857-16.557,4.361-33.576,4.361-50.948
		C691.469,217.936,558.212,84.679,393.83,84.679c-164.381,0-297.639,133.257-297.639,297.639
		c0,164.382,133.258,297.639,297.639,297.639c146.33,0,267.993-105.597,292.95-244.745v161.622h99.213v83.125h134.076v-166.25h61.67
		v-99.212h112.621V264.79H1035.367z"/>
	<polygon fill="#010202" points="96.491,884.828 376.838,884.828 376.838,829.115 592.488,829.115 592.488,1105.871 
		687.735,1105.871 687.735,679.957 393.83,679.957 96.491,679.957 	"/>
</g>
</svg>
