<?xml version="1.0" encoding="utf-8"?>
<!-- Generator: Adobe Illustrator 16.0.0, SVG Export Plug-In . SVG Version: 6.00 Build 0)  -->
<!DOCTYPE svg PUBLIC "-//W3C//DTD SVG 1.1//EN" "http://www.w3.org/Graphics/SVG/1.1/DTD/svg11.dtd">
<svg version="1.1" id="Calque_1" xmlns="http://www.w3.org/2000/svg" xmlns:xlink="http://www.w3.org/1999/xlink" x="0px" y="0px"
	 width="1190.551px" height="1190.551px" viewBox="0 0 1190.551 1190.551" enable-background="new 0 0 1190.551 1190.551"
	 xml:space="preserve">
<path fill="#010202" d="M543.047,465.77c32.937-47.898,52.23-105.907,52.23-168.431C595.278,132.958,462.02-0.3,297.639-0.3
	C133.257-0.3,0,132.958,0,297.339c0,164.382,133.257,297.64,297.639,297.64c22.766,0,44.931-2.566,66.231-7.407v166.194h-61.672
	v99.211h-112.62v149.708h58.991v180.109h348.588v-164.906h-96.533V834.207h96.533V670.641h225.927v-55.712h215.65v276.756h95.247
	V465.77H543.047z M497.945,670.641v-83.124H364.123c73.71-16.819,136.99-61.006,178.613-121.298v204.422H497.945z"/>
</svg>
