<?xml version="1.0" encoding="utf-8"?>
<!-- Generator: Adobe Illustrator 16.0.0, SVG Export Plug-In . SVG Version: 6.00 Build 0)  -->
<!DOCTYPE svg PUBLIC "-//W3C//DTD SVG 1.1//EN" "http://www.w3.org/Graphics/SVG/1.1/DTD/svg11.dtd">
<svg version="1.1" id="Calque_1" xmlns="http://www.w3.org/2000/svg" xmlns:xlink="http://www.w3.org/1999/xlink" x="0px" y="0px"
	 width="1190.551px" height="1190.551px" viewBox="0 0 1190.551 1190.551" enable-background="new 0 0 1190.551 1190.551"
	 xml:space="preserve">
<path fill="#010202" d="M829.102,866.68v-61.67h-99.213V692.389H621.114v-95.246H505.854
	c158.339-6.815,284.625-137.32,284.625-297.34c0-164.381-133.258-297.639-297.638-297.639
	c-164.382,0-297.639,133.258-297.639,297.639c0,160.02,126.283,290.525,284.625,297.34H195.202v591.244h204.87v-88.418h164.906
	v-96.533h183.678v96.533h163.568v-99.213h83.125V866.68H829.102z M580.182,751.381h-180.11v156.66H344.36V692.389h235.821
	L580.182,751.381L580.182,751.381z"/>
</svg>
