<?xml version="1.0" encoding="utf-8"?>
<!-- Generator: Adobe Illustrator 16.0.0, SVG Export Plug-In . SVG Version: 6.00 Build 0)  -->
<!DOCTYPE svg PUBLIC "-//W3C//DTD SVG 1.1//EN" "http://www.w3.org/Graphics/SVG/1.1/DTD/svg11.dtd">
<svg version="1.1" id="Calque_1" xmlns="http://www.w3.org/2000/svg" xmlns:xlink="http://www.w3.org/1999/xlink" x="0px" y="0px"
	 width="1190.551px" height="1190.551px" viewBox="0 0 1190.551 1190.551" enable-background="new 0 0 1190.551 1190.551"
	 xml:space="preserve">
<g>
	<path fill="#010202" d="M995.199,774.305V183.058h-204.87v195.413C783.514,220.129,653.01,93.846,492.99,93.846
		c-164.381,0-297.639,133.257-297.639,297.639c0,164.382,133.258,297.639,297.639,297.639c26.376,0,51.944-3.448,76.296-9.888
		v95.068H995.199z M790.329,404.499v58.906h55.713v215.653H569.944C692.996,646.213,784.647,536.505,790.329,404.499z"/>
	<polygon fill="#010202" points="375.762,748.115 195.652,748.115 195.652,1096.705 360.559,1096.705 360.559,1000.17 
		544.239,1000.17 544.239,1096.705 707.806,1096.705 707.806,997.49 790.93,997.49 790.93,863.416 624.681,863.416 624.681,801.746 
		525.469,801.746 525.469,689.124 492.99,689.124 375.762,689.124 	"/>
</g>
</svg>
