<?xml version="1.0" encoding="utf-8"?>
<!-- Generator: Adobe Illustrator 16.0.0, SVG Export Plug-In . SVG Version: 6.00 Build 0)  -->
<!DOCTYPE svg PUBLIC "-//W3C//DTD SVG 1.1//EN" "http://www.w3.org/Graphics/SVG/1.1/DTD/svg11.dtd">
<svg version="1.1" id="Calque_1" xmlns="http://www.w3.org/2000/svg" xmlns:xlink="http://www.w3.org/1999/xlink" x="0px" y="0px"
	 width="1190.551px" height="1190.551px" viewBox="0 0 1190.551 1190.551" enable-background="new 0 0 1190.551 1190.551"
	 xml:space="preserve">
<path fill="#010202" d="M1094.93,408.463H814.584v55.713H598.931V187.419h-95.245v-3.618h-58.992V3.69H96.106v164.907h96.533v183.68
	H96.106v163.567h99.213v83.125h131.801C194.573,629.047,95.62,747.572,95.62,889.222c0,164.381,133.257,297.639,297.639,297.639
	c164.381,0,297.64-133.258,297.64-297.639c0-124.821-76.846-231.678-185.798-275.89h589.83L1094.93,408.463L1094.93,408.463z
	 M393.259,591.583c-21.926,0-43.29,2.393-63.864,6.892V432.721h61.671v-99.212h112.62v279.248
	C469.539,599.104,432.28,591.583,393.259,591.583z"/>
</svg>
