<?xml version="1.0" encoding="utf-8"?>
<!-- Generator: Adobe Illustrator 16.0.0, SVG Export Plug-In . SVG Version: 6.00 Build 0)  -->
<!DOCTYPE svg PUBLIC "-//W3C//DTD SVG 1.1//EN" "http://www.w3.org/Graphics/SVG/1.1/DTD/svg11.dtd">
<svg version="1.1" id="Calque_1" xmlns="http://www.w3.org/2000/svg" xmlns:xlink="http://www.w3.org/1999/xlink" x="0px" y="0px"
	 width="1190.551px" height="1190.551px" viewBox="0 0 1190.551 1190.551" enable-background="new 0 0 1190.551 1190.551"
	 xml:space="preserve">
<path fill="#010202" d="M595.035,88.939v200.39C590.634,128.79,459.119,0,297.518,0C133.136,0-0.122,133.257-0.122,297.639
	s133.258,297.639,297.64,297.639c26.44,0,52.068-3.465,76.474-9.936v94.843h56.379v96.534H246.692v-96.534H83.124v99.213H0v134.075
	h166.249v61.671h99.212v112.621h149.707v-58.992h180.11V680.185h204.626V88.939H595.035z M650.748,584.938H375.485
	c124-33.571,215.884-145.253,219.551-278.988v63.337h55.713V584.938z"/>
</svg>
