<?xml version="1.0" encoding="utf-8"?>
<!-- Generator: Adobe Illustrator 16.0.0, SVG Export Plug-In . SVG Version: 6.00 Build 0)  -->
<!DOCTYPE svg PUBLIC "-//W3C//DTD SVG 1.1//EN" "http://www.w3.org/Graphics/SVG/1.1/DTD/svg11.dtd">
<svg version="1.1" id="Calque_1" xmlns="http://www.w3.org/2000/svg" xmlns:xlink="http://www.w3.org/1999/xlink" x="0px" y="0px"
	 width="1190.551px" height="1190.551px" viewBox="0 0 1190.551 1190.551" enable-background="new 0 0 1190.551 1190.551"
	 xml:space="preserve">
<path fill="#010202" d="M571.332,469.798c32.937-47.898,52.229-105.907,52.229-168.431C623.563,136.986,490.305,3.729,325.924,3.729
	c-164.382,0-297.639,133.258-297.639,297.639c0,164.382,133.257,297.641,297.639,297.641c22.766,0,44.931-2.566,66.231-7.407
	v166.193h-61.673v99.211H217.864v149.708h58.99v180.109h348.588v-164.906h-96.533V838.235h96.533V674.669h225.928v-55.712h215.649
	v276.757h95.247V469.798H571.332z M526.23,674.669v-83.124H392.408c73.709-16.819,136.989-61.006,178.612-121.298v204.422H526.23z"
	/>
</svg>
