<?xml version="1.0" encoding="utf-8"?>
<!-- Generator: Adobe Illustrator 16.0.0, SVG Export Plug-In . SVG Version: 6.00 Build 0)  -->
<!DOCTYPE svg PUBLIC "-//W3C//DTD SVG 1.1//EN" "http://www.w3.org/Graphics/SVG/1.1/DTD/svg11.dtd">
<svg version="1.1" id="Calque_1" xmlns="http://www.w3.org/2000/svg" xmlns:xlink="http://www.w3.org/1999/xlink" x="0px" y="0px"
	 width="1190.551px" height="1190.551px" viewBox="0 0 1190.551 1190.551" enable-background="new 0 0 1190.551 1190.551"
	 xml:space="preserve">
<path fill="#010202" d="M976.549,361.504v96.533H792.871v-96.533H629.302v99.214h-82.783
	c30.74-46.841,48.638-102.866,48.638-163.079C595.156,133.257,461.899,0,297.518,0C133.136,0-0.122,133.257-0.122,297.639
	c0,158.721,124.242,288.408,280.775,297.153H0v204.87h280.347V743.95h215.651v276.756h95.247V594.792h121.182v61.671h99.212v112.621
	h149.707v-58.992h180.112V361.504H976.549z M314.382,594.792c96.931-5.416,181.464-57.209,231.796-133.557v133.557H314.382z"/>
</svg>
