<?xml version="1.0" encoding="utf-8"?>
<!-- Generator: Adobe Illustrator 16.0.0, SVG Export Plug-In . SVG Version: 6.00 Build 0)  -->
<!DOCTYPE svg PUBLIC "-//W3C//DTD SVG 1.1//EN" "http://www.w3.org/Graphics/SVG/1.1/DTD/svg11.dtd">
<svg version="1.1" id="Calque_1" xmlns="http://www.w3.org/2000/svg" xmlns:xlink="http://www.w3.org/1999/xlink" x="0px" y="0px"
	 width="1190.551px" height="1190.551px" viewBox="0 0 1190.551 1190.551" enable-background="new 0 0 1190.551 1190.551"
	 xml:space="preserve">
<path fill="#010202" d="M764.275,0h-204.87v280.347h55.712v215.652H338.361v94.746c-13.471-1.866-27.223-2.853-41.207-2.853
	c-21.926,0-43.29,2.393-63.865,6.892V429.03h61.671v-99.212H407.58V180.111h-58.992V0H0v164.907h96.533v183.68H0v163.567h99.213
	v83.124h131.801C98.467,625.356-0.485,743.882-0.485,885.531c0,164.381,133.257,297.639,297.639,297.639
	c164.381,0,297.639-133.258,297.639-297.639c0-149.156-109.718-272.681-252.847-294.284h422.33V0z"/>
</svg>
