<?xml version="1.0" encoding="utf-8"?>
<!-- Generator: Adobe Illustrator 16.0.0, SVG Export Plug-In . SVG Version: 6.00 Build 0)  -->
<!DOCTYPE svg PUBLIC "-//W3C//DTD SVG 1.1//EN" "http://www.w3.org/Graphics/SVG/1.1/DTD/svg11.dtd">
<svg version="1.1" id="Calque_1" xmlns="http://www.w3.org/2000/svg" xmlns:xlink="http://www.w3.org/1999/xlink" x="0px" y="0px"
	 width="1190.551px" height="1190.551px" viewBox="0 0 1190.551 1190.551" enable-background="new 0 0 1190.551 1190.551"
	 xml:space="preserve">
<g>
	<path fill="#010202" d="M799.548,680.458V89.212h-204.87v195.413C587.863,126.283,457.359,0,297.339,0
		C132.958,0-0.3,133.257-0.3,297.639s133.258,297.639,297.639,297.639c26.376,0,51.944-3.448,76.296-9.888v95.068H799.548z
		 M594.678,310.653v58.906h55.713v215.653H374.292C497.345,552.366,588.996,442.659,594.678,310.653z"/>
	<polygon fill="#010202" points="180.111,654.27 0,654.27 0,1002.858 164.907,1002.858 164.907,906.324 348.587,906.324 
		348.587,1002.858 512.155,1002.858 512.155,903.645 595.279,903.645 595.279,769.57 429.03,769.57 429.03,707.899 329.818,707.899 
		329.818,595.278 297.339,595.278 180.111,595.278 	"/>
</g>
</svg>
