<?xml version="1.0" encoding="utf-8"?>
<!-- Generator: Adobe Illustrator 16.0.0, SVG Export Plug-In . SVG Version: 6.00 Build 0)  -->
<!DOCTYPE svg PUBLIC "-//W3C//DTD SVG 1.1//EN" "http://www.w3.org/Graphics/SVG/1.1/DTD/svg11.dtd">
<svg version="1.1" id="Calque_1" xmlns="http://www.w3.org/2000/svg" xmlns:xlink="http://www.w3.org/1999/xlink" x="0px" y="0px"
	 width="1190.551px" height="1190.551px" viewBox="0 0 1190.551 1190.551" enable-background="new 0 0 1190.551 1190.551"
	 xml:space="preserve">
<path fill="#010202" d="M1001.156,446.426v96.533H817.479v-96.533H653.91v99.214h-82.784
	c30.741-46.841,48.637-102.866,48.637-163.079c0-164.382-133.257-297.639-297.638-297.639c-164.382,0-297.64,133.257-297.64,297.639
	c0,158.721,124.242,288.407,280.774,297.153H24.608v204.869h280.347v-55.711h215.65v276.756h95.247V679.715h121.184v61.67h99.211
	v112.621h149.707v-58.992h180.111V446.426H1001.156z M338.99,679.715c96.931-5.416,181.464-57.209,231.796-133.558v133.558H338.99z"
	/>
</svg>
