<?xml version="1.0" encoding="utf-8"?>
<!-- Generator: Adobe Illustrator 16.0.0, SVG Export Plug-In . SVG Version: 6.00 Build 0)  -->
<!DOCTYPE svg PUBLIC "-//W3C//DTD SVG 1.1//EN" "http://www.w3.org/Graphics/SVG/1.1/DTD/svg11.dtd">
<svg version="1.1" id="Calque_1" xmlns="http://www.w3.org/2000/svg" xmlns:xlink="http://www.w3.org/1999/xlink" x="0px" y="0px"
	 width="1190.551px" height="1190.551px" viewBox="0 0 1190.551 1190.551" enable-background="new 0 0 1190.551 1190.551"
	 xml:space="preserve">
<path fill="#010202" d="M1185.924,388.259H905.576v55.712H689.925V167.215h-95.247v117.41C587.863,126.283,457.359,0,297.339,0
	C132.957,0-0.3,133.257-0.3,297.639c0,152.27,114.348,277.813,261.855,295.49H0v595.281h595.278V593.13h590.646V388.259z
	 M594.678,310.653v282.476H333.123C476.404,575.958,588.379,457.009,594.678,310.653z M263.641,1007.41V593.367
	c11.062,1.247,22.302,1.91,33.698,1.91c11.604,0,23.044-0.687,34.302-1.979v414.112H263.641z"/>
</svg>
