<?xml version="1.0" encoding="utf-8"?>
<!-- Generator: Adobe Illustrator 16.0.0, SVG Export Plug-In . SVG Version: 6.00 Build 0)  -->
<!DOCTYPE svg PUBLIC "-//W3C//DTD SVG 1.1//EN" "http://www.w3.org/Graphics/SVG/1.1/DTD/svg11.dtd">
<svg version="1.1" id="Calque_1" xmlns="http://www.w3.org/2000/svg" xmlns:xlink="http://www.w3.org/1999/xlink" x="0px" y="0px"
	 width="1190.551px" height="1190.551px" viewBox="0 0 1190.551 1190.551" enable-background="new 0 0 1190.551 1190.551"
	 xml:space="preserve">
<path fill="#010202" d="M1105.628,98.121V2.874H679.714v279.055C670.97,125.394,541.281,1.152,382.562,1.152
	c-164.382,0-297.639,133.258-297.639,297.64c0,151.781,113.613,277.02,260.437,295.328H84.923v595.278H680.2V594.121h204.384
	V313.771h-55.712V98.121H1105.628z M348.564,1008.398V594.486c11.159,1.269,22.499,1.943,33.998,1.943
	c11.5,0,22.841-0.674,34.002-1.944v413.913H348.564L348.564,1008.398z M419.764,594.121
	c141.346-17.625,251.899-134.357,259.952-278.464v278.464H419.764z"/>
</svg>
