<?xml version="1.0" encoding="utf-8"?>
<!-- Generator: Adobe Illustrator 16.0.0, SVG Export Plug-In . SVG Version: 6.00 Build 0)  -->
<!DOCTYPE svg PUBLIC "-//W3C//DTD SVG 1.1//EN" "http://www.w3.org/Graphics/SVG/1.1/DTD/svg11.dtd">
<svg version="1.1" id="Calque_1" xmlns="http://www.w3.org/2000/svg" xmlns:xlink="http://www.w3.org/1999/xlink" x="0px" y="0px"
	 width="1190.551px" height="1190.551px" viewBox="0 0 1190.551 1190.551" enable-background="new 0 0 1190.551 1190.551"
	 xml:space="preserve">
<path fill="#010202" d="M860.234,599.304v280.349h55.712v215.65H639.263c50.489-53.335,81.462-125.335,81.462-204.574
	c0-152.146-114.163-277.61-261.496-295.448h261.498V0H125.448v595.28h261.495C239.61,613.117,125.448,738.583,125.448,890.729
	c0,164.383,133.257,297.641,297.639,297.641c85.104,0,161.857-35.725,216.104-92.988v95.17h425.914V599.304H860.234z
	 M389.086,595.034V181h68v414.034c-11.16-1.269-22.5-1.944-34-1.944S400.246,593.765,389.086,595.034z"/>
</svg>
