<?xml version="1.0" encoding="utf-8"?>
<!-- Generator: Adobe Illustrator 16.0.0, SVG Export Plug-In . SVG Version: 6.00 Build 0)  -->
<!DOCTYPE svg PUBLIC "-//W3C//DTD SVG 1.1//EN" "http://www.w3.org/Graphics/SVG/1.1/DTD/svg11.dtd">
<svg version="1.1" id="Calque_1" xmlns="http://www.w3.org/2000/svg" xmlns:xlink="http://www.w3.org/1999/xlink" x="0px" y="0px"
	 width="1190.551px" height="1190.551px" viewBox="0 0 1190.551 1190.551" enable-background="new 0 0 1190.551 1190.551"
	 xml:space="preserve">
<path fill="#010202" d="M1188.387,389.329H908.039v55.712h-215.65V168.285h-95.248v117.41
	C590.326,127.354,459.822,1.07,299.802,1.07C135.421,1.07,2.164,134.327,2.164,298.709c0,152.27,114.348,277.813,261.854,295.49
	H2.464v595.281H597.74V594.2h590.646V389.329L1188.387,389.329z M597.141,311.723v282.476H335.587
	C478.867,577.028,590.843,458.079,597.141,311.723z M266.104,1008.48V594.438c11.062,1.247,22.302,1.91,33.698,1.91
	c11.604,0,23.044-0.688,34.302-1.979v414.112H266.104z"/>
</svg>
