<?xml version="1.0" encoding="utf-8"?>
<!-- Generator: Adobe Illustrator 16.0.0, SVG Export Plug-In . SVG Version: 6.00 Build 0)  -->
<!DOCTYPE svg PUBLIC "-//W3C//DTD SVG 1.1//EN" "http://www.w3.org/Graphics/SVG/1.1/DTD/svg11.dtd">
<svg version="1.1" id="Calque_1" xmlns="http://www.w3.org/2000/svg" xmlns:xlink="http://www.w3.org/1999/xlink" x="0px" y="0px"
	 width="1190.551px" height="1190.551px" viewBox="0 0 1190.551 1190.551" enable-background="new 0 0 1190.551 1190.551"
	 xml:space="preserve">
<path fill="#010202" d="M604.385,596.371V1.091H9.106v595.28h261.495C123.267,614.208,9.105,739.674,9.105,891.819
	c0,164.383,133.257,297.641,297.639,297.641c164.381,0,297.639-133.258,297.639-297.641c0-31.586-4.938-62.016-14.054-90.578h280.22
	v-55.712h215.652v276.756h95.244V596.371H604.385z M272.744,596.125V182.091h68v414.034c-11.16-1.269-22.5-1.944-34-1.944
	S283.904,594.856,272.744,596.125z M342.886,596.371h247.314v204.476C555.302,692.022,459.491,610.487,342.886,596.371z"/>
</svg>
