<?xml version="1.0" encoding="utf-8"?>
<!-- Generator: Adobe Illustrator 16.0.0, SVG Export Plug-In . SVG Version: 6.00 Build 0)  -->
<!DOCTYPE svg PUBLIC "-//W3C//DTD SVG 1.1//EN" "http://www.w3.org/Graphics/SVG/1.1/DTD/svg11.dtd">
<svg version="1.1" id="Calque_1" xmlns="http://www.w3.org/2000/svg" xmlns:xlink="http://www.w3.org/1999/xlink" x="0px" y="0px"
	 width="1190.551px" height="1190.551px" viewBox="0 0 1190.551 1190.551" enable-background="new 0 0 1190.551 1190.551"
	 xml:space="preserve">
<path fill="#010202" d="M595.279,595.28V0H0V595.28h261.495C114.161,613.117-0.001,738.583-0.001,890.729
	c0,164.382,133.257,297.64,297.639,297.64c164.381,0,297.639-133.258,297.639-297.64c0-31.586-4.938-62.016-14.054-90.579h280.22
	v-55.712h215.652v276.756h95.245V595.28H595.279z M263.638,595.034V181h68v414.034c-11.16-1.269-22.5-1.944-34-1.944
	S274.798,593.765,263.638,595.034z M333.781,595.28h247.314v204.476C546.196,690.932,450.385,609.397,333.781,595.28z"/>
</svg>
