<?xml version="1.0" encoding="utf-8"?>
<!-- Generator: Adobe Illustrator 16.0.0, SVG Export Plug-In . SVG Version: 6.00 Build 0)  -->
<!DOCTYPE svg PUBLIC "-//W3C//DTD SVG 1.1//EN" "http://www.w3.org/Graphics/SVG/1.1/DTD/svg11.dtd">
<svg version="1.1" id="Calque_1" xmlns="http://www.w3.org/2000/svg" xmlns:xlink="http://www.w3.org/1999/xlink" x="0px" y="0px"
	 width="1190.551px" height="1190.551px" viewBox="0 0 1190.551 1190.551" enable-background="new 0 0 1190.551 1190.551"
	 xml:space="preserve">
<path fill="#010202" d="M1020.706,96.846V1.599H594.792v279.055C586.047,124.119,456.359-0.122,297.639-0.122
	C133.257-0.122,0,133.136,0,297.518c0,151.781,113.614,277.02,260.437,295.328H0v595.278h595.278V592.846h204.384V312.497H743.95
	V96.846H1020.706z M263.641,1007.124V593.212c11.159,1.269,22.499,1.944,33.998,1.944c11.5,0,22.841-0.675,34.002-1.945v413.913
	H263.641z M334.841,592.846c141.346-17.625,251.9-134.357,259.952-278.464v278.464H334.841z"/>
</svg>
