<?xml version="1.0" encoding="utf-8"?>
<!-- Generator: Adobe Illustrator 16.0.0, SVG Export Plug-In . SVG Version: 6.00 Build 0)  -->
<!DOCTYPE svg PUBLIC "-//W3C//DTD SVG 1.1//EN" "http://www.w3.org/Graphics/SVG/1.1/DTD/svg11.dtd">
<svg version="1.1" id="Calque_1" xmlns="http://www.w3.org/2000/svg" xmlns:xlink="http://www.w3.org/1999/xlink" x="0px" y="0px"
	 width="1190.551px" height="1190.551px" viewBox="0 0 1190.551 1190.551" enable-background="new 0 0 1190.551 1190.551"
	 xml:space="preserve">
<g transform="translate(0 0)">
	<g transform="translate(-595.2800293 0) rotate(0)">
		<polygon fill="#010202" points="776.28,331.641 776.28,263.641 1190.56,263.641 1190.56,0 595.28,0 595.28,595.28 1190.56,595.28 
			1190.56,331.641 		"/>
	</g>
	<g transform="translate(1139.8669433999999 225.69104) rotate(90)">
		<polygon fill="#010202" points="960.835,1139.867 960.835,934.998 680.487,934.998 680.487,990.709 464.835,990.709 
			464.835,713.953 369.589,713.953 369.589,1139.867 		"/>
	</g>
	<g transform="translate(998.3700297 586.6630332) rotate(90)">
		<path fill="#010202" d="M550.899,246.189c0,0,0-43.961,0-68.713c0-69.797-42.895-113.081-120.807-113.081h-65.855V28.686h-64.926
			h-1.624h-64.926v35.709h-65.855c-77.912,0-120.809,43.282-120.809,113.079c0,24.754,0,68.713,0,68.713H0v77.369v2.167v77.367h46.1
			c0,0,0,43.963,0,68.715c0,69.798,42.896,113.083,120.807,113.083h65.855v35.707h64.926h1.624h64.926v-35.707h65.855
			c77.912,0,120.809-43.285,120.809-113.083c0-24.752,0-68.715,0-68.715h44.379v-77.367v-2.167v-77.367H550.899z"/>
	</g>
</g>
</svg>
